<meta message time_signature numerator=2 denominator=4 clocks_per_click=24 notated_32nd_notes_per_beat=8 time=0>
<meta message key_signature key='C' time=0>
<meta message set_tempo tempo=568720 time=0>
<meta message marker text='W.S.Trachtman - MIDI file' time=0>
<meta message end_of_track time=0>
<meta message midi_port port=0 time=0>
<meta message track_name name='The Cascades ' time=0>
program_change channel=0 program=0 time=0
control_change channel=0 control=7 value=127 time=0
control_change channel=0 control=10 value=84 time=0
control_change channel=0 control=121 value=0 time=4
control_change channel=0 control=1 value=0 time=20
control_change channel=0 control=64 value=0 time=4
aftertouch channel=0 value=0 time=16
pitchwheel channel=0 pitch=0 time=4
control_change channel=0 control=93 value=12 time=2
control_change channel=0 control=91 value=21 time=0
control_change channel=0 control=7 value=127 time=23
control_change channel=0 control=10 value=84 time=3
<meta message lyrics text='The ' time=116>
note_on channel=0 note=67 velocity=80 time=0
note_on channel=0 note=67 velocity=0 time=32
<meta message lyrics text='Cascades ' time=16>
note_on channel=0 note=67 velocity=80 time=0
note_on channel=0 note=67 velocity=0 time=64
note_on channel=0 note=69 velocity=80 time=32
note_on channel=0 note=69 velocity=0 time=32
<meta message lyrics text='by ' time=16>
note_on channel=0 note=71 velocity=80 time=0
note_on channel=0 note=71 velocity=0 time=32
<meta message lyrics text='Scott ' time=16>
note_on channel=0 note=71 velocity=80 time=0
note_on channel=0 note=71 velocity=0 time=64
<meta message lyrics text='Joplin ' time=32>
note_on channel=0 note=77 velocity=80 time=0
note_on channel=0 note=77 velocity=0 time=32
<meta message lyrics text='; ' time=16>
note_on channel=0 note=76 velocity=80 time=0
note_on channel=0 note=76 velocity=0 time=64
<meta message lyrics text='Sequenced ' time=32>
note_on channel=0 note=74 velocity=80 time=0
note_on channel=0 note=74 velocity=0 time=64
<meta message lyrics text='by ' time=32>
note_on channel=0 note=79 velocity=80 time=0
note_on channel=0 note=71 velocity=80 time=0
note_on channel=0 note=67 velocity=80 time=0
note_on channel=0 note=67 velocity=0 time=32
note_on channel=0 note=71 velocity=0 time=0
note_on channel=0 note=79 velocity=0 time=0
<meta message lyrics text='W. ' time=16>
note_on channel=0 note=66 velocity=80 time=0
note_on channel=0 note=66 velocity=0 time=16
<meta message lyrics text='S. ' time=8>
note_on channel=0 note=67 velocity=80 time=0
note_on channel=0 note=67 velocity=0 time=16
<meta message lyrics text='Trachtman ' time=8>
<meta message lyrics text='' time=0>
<meta message lyrics text='\r' time=0>
note_on channel=0 note=69 velocity=80 time=0
note_on channel=0 note=69 velocity=0 time=16
note_on channel=0 note=71 velocity=80 time=8
note_on channel=0 note=71 velocity=0 time=16
note_on channel=0 note=72 velocity=80 time=8
note_on channel=0 note=72 velocity=0 time=16
note_on channel=0 note=74 velocity=80 time=8
note_on channel=0 note=74 velocity=0 time=16
note_on channel=0 note=76 velocity=80 time=8
note_on channel=0 note=76 velocity=0 time=16
note_on channel=0 note=75 velocity=80 time=8
note_on channel=0 note=75 velocity=0 time=16
note_on channel=0 note=76 velocity=80 time=8
note_on channel=0 note=76 velocity=0 time=16
note_on channel=0 note=77 velocity=80 time=8
note_on channel=0 note=77 velocity=0 time=16
note_on channel=0 note=79 velocity=80 time=8
note_on channel=0 note=79 velocity=0 time=16
note_on channel=0 note=81 velocity=80 time=8
note_on channel=0 note=81 velocity=0 time=16
note_on channel=0 note=84 velocity=80 time=8
note_on channel=0 note=84 velocity=0 time=16
note_on channel=0 note=81 velocity=80 time=8
note_on channel=0 note=81 velocity=0 time=16
note_on channel=0 note=83 velocity=80 time=8
note_on channel=0 note=83 velocity=0 time=16
note_on channel=0 note=84 velocity=80 time=8
note_on channel=0 note=84 velocity=0 time=16
note_on channel=0 note=86 velocity=80 time=8
note_on channel=0 note=86 velocity=0 time=16
note_on channel=0 note=77 velocity=80 time=8
note_on channel=0 note=77 velocity=0 time=16
note_on channel=0 note=81 velocity=80 time=8
note_on channel=0 note=81 velocity=0 time=16
note_on channel=0 note=79 velocity=80 time=8
note_on channel=0 note=79 velocity=0 time=16
note_on channel=0 note=74 velocity=80 time=8
note_on channel=0 note=74 velocity=0 time=16
note_on channel=0 note=75 velocity=80 time=8
note_on channel=0 note=75 velocity=0 time=16
note_on channel=0 note=76 velocity=80 time=8
note_on channel=0 note=76 velocity=0 time=16
note_on channel=0 note=75 velocity=80 time=8
note_on channel=0 note=75 velocity=0 time=16
note_on channel=0 note=76 velocity=80 time=8
note_on channel=0 note=76 velocity=0 time=16
note_on channel=0 note=77 velocity=80 time=8
note_on channel=0 note=77 velocity=0 time=16
note_on channel=0 note=79 velocity=80 time=8
note_on channel=0 note=79 velocity=0 time=16
note_on channel=0 note=81 velocity=80 time=8
note_on channel=0 note=81 velocity=0 time=16
note_on channel=0 note=84 velocity=80 time=8
note_on channel=0 note=84 velocity=0 time=16
note_on channel=0 note=81 velocity=80 time=8
note_on channel=0 note=81 velocity=0 time=16
note_on channel=0 note=83 velocity=80 time=8
note_on channel=0 note=83 velocity=0 time=16
note_on channel=0 note=84 velocity=80 time=8
note_on channel=0 note=84 velocity=0 time=16
note_on channel=0 note=86 velocity=80 time=8
note_on channel=0 note=86 velocity=0 time=16
note_on channel=0 note=77 velocity=80 time=8
note_on channel=0 note=77 velocity=0 time=16
note_on channel=0 note=81 velocity=80 time=8
note_on channel=0 note=81 velocity=0 time=16
note_on channel=0 note=79 velocity=80 time=8
note_on channel=0 note=79 velocity=0 time=16
note_on channel=0 note=74 velocity=80 time=8
note_on channel=0 note=74 velocity=0 time=16
note_on channel=0 note=76 velocity=80 time=8
note_on channel=0 note=76 velocity=0 time=16
note_on channel=0 note=77 velocity=80 time=8
note_on channel=0 note=77 velocity=0 time=16
note_on channel=0 note=74 velocity=80 time=8
note_on channel=0 note=74 velocity=0 time=16
note_on channel=0 note=71 velocity=80 time=8
note_on channel=0 note=71 velocity=0 time=16
note_on channel=0 note=68 velocity=80 time=8
note_on channel=0 note=68 velocity=0 time=16
note_on channel=0 note=69 velocity=80 time=8
note_on channel=0 note=69 velocity=0 time=32
note_on channel=0 note=77 velocity=80 time=64
note_on channel=0 note=77 velocity=0 time=16
note_on channel=0 note=74 velocity=80 time=8
note_on channel=0 note=74 velocity=0 time=16
note_on channel=0 note=71 velocity=80 time=8
note_on channel=0 note=71 velocity=0 time=16
note_on channel=0 note=68 velocity=80 time=8
note_on channel=0 note=68 velocity=0 time=16
note_on channel=0 note=69 velocity=80 time=8
note_on channel=0 note=69 velocity=0 time=32
note_on channel=0 note=60 velocity=80 time=256
note_on channel=0 note=69 velocity=80 time=0
note_on channel=0 note=69 velocity=0 time=16
note_on channel=0 note=60 velocity=0 time=0
note_on channel=0 note=63 velocity=80 time=8
note_on channel=0 note=72 velocity=80 time=0
note_on channel=0 note=72 velocity=0 time=16
note_on channel=0 note=63 velocity=0 time=0
note_on channel=0 note=66 velocity=80 time=8
note_on channel=0 note=75 velocity=80 time=0
note_on channel=0 note=75 velocity=0 time=16
note_on channel=0 note=66 velocity=0 time=0
note_on channel=0 note=69 velocity=80 time=8
note_on channel=0 note=78 velocity=80 time=0
note_on channel=0 note=78 velocity=0 time=16
note_on channel=0 note=69 velocity=0 time=0
note_on channel=0 note=72 velocity=80 time=8
note_on channel=0 note=81 velocity=80 time=0
note_on channel=0 note=81 velocity=0 time=16
note_on channel=0 note=72 velocity=0 time=0
note_on channel=0 note=75 velocity=80 time=8
note_on channel=0 note=84 velocity=80 time=0
note_on channel=0 note=84 velocity=0 time=16
note_on channel=0 note=75 velocity=0 time=0
note_on channel=0 note=78 velocity=80 time=8
note_on channel=0 note=87 velocity=80 time=0
note_on channel=0 note=87 velocity=0 time=16
note_on channel=0 note=78 velocity=0 time=0
note_on channel=0 note=81 velocity=80 time=8
note_on channel=0 note=90 velocity=80 time=0
note_on channel=0 note=90 velocity=0 time=16
note_on channel=0 note=81 velocity=0 time=0
note_on channel=0 note=80 velocity=80 time=8
note_on channel=0 note=84 velocity=80 time=0
note_on channel=0 note=87 velocity=80 time=0
note_on channel=0 note=92 velocity=80 time=0
note_on channel=0 note=92 velocity=0 time=32
note_on channel=0 note=80 velocity=0 time=0
note_on channel=0 note=84 velocity=0 time=0
note_on channel=0 note=87 velocity=0 time=0
note_on channel=0 note=75 velocity=80 time=16
note_on channel=0 note=84 velocity=80 time=0
note_on channel=0 note=87 velocity=80 time=0
note_on channel=0 note=90 velocity=80 time=0
note_on channel=0 note=90 velocity=0 time=16
note_on channel=0 note=87 velocity=0 time=0
note_on channel=0 note=84 velocity=0 time=0
note_on channel=0 note=84 velocity=80 time=8
note_on channel=0 note=87 velocity=80 time=0
note_on channel=0 note=90 velocity=80 time=0
note_on channel=0 note=75 velocity=0 time=8
note_on channel=0 note=72 velocity=80 time=16
note_on channel=0 note=84 velocity=0 time=8
note_on channel=0 note=90 velocity=0 time=0
note_on channel=0 note=87 velocity=0 time=0
note_on channel=0 note=84 velocity=80 time=16
note_on channel=0 note=87 velocity=80 time=0
note_on channel=0 note=90 velocity=80 time=0
note_on channel=0 note=72 velocity=0 time=8
note_on channel=0 note=84 velocity=0 time=8
note_on channel=0 note=87 velocity=0 time=0
note_on channel=0 note=90 velocity=0 time=0
note_on channel=0 note=68 velocity=80 time=8
note_on channel=0 note=84 velocity=80 time=0
note_on channel=0 note=87 velocity=80 time=0
note_on channel=0 note=90 velocity=80 time=0
note_on channel=0 note=90 velocity=0 time=32
note_on channel=0 note=68 velocity=0 time=0
note_on channel=0 note=84 velocity=0 time=0
note_on channel=0 note=87 velocity=0 time=0
note_on channel=0 note=67 velocity=80 time=16
note_on channel=0 note=84 velocity=80 time=0
note_on channel=0 note=88 velocity=80 time=0
note_on channel=0 note=91 velocity=80 time=0
note_on channel=0 note=67 velocity=80 time=0
note_on channel=0 note=67 velocity=0 time=32
note_on channel=0 note=76 velocity=80 time=16
note_on channel=0 note=72 velocity=80 time=0
note_on channel=0 note=88 velocity=0 time=16
note_on channel=0 note=91 velocity=0 time=0
note_on channel=0 note=67 velocity=0 time=0
note_on channel=0 note=84 velocity=0 time=0
note_on channel=0 note=72 velocity=0 time=16
note_on channel=0 note=76 velocity=0 time=0
note_on channel=0 note=64 velocity=80 time=16
note_on channel=0 note=91 velocity=80 time=0
note_on channel=0 note=64 velocity=80 time=0
note_on channel=0 note=91 velocity=0 time=16
note_on channel=0 note=88 velocity=80 time=8
note_on channel=0 note=64 velocity=0 time=8
note_on channel=0 note=88 velocity=0 time=8
note_on channel=0 note=67 velocity=80 time=8
note_on channel=0 note=72 velocity=80 time=0
note_on channel=0 note=76 velocity=80 time=0
note_on channel=0 note=84 velocity=80 time=0
note_on channel=0 note=84 velocity=0 time=16
note_on channel=0 note=64 velocity=0 time=0
note_on channel=0 note=79 velocity=80 time=8
note_on channel=0 note=67 velocity=0 time=8
note_on channel=0 note=76 velocity=0 time=0
note_on channel=0 note=72 velocity=0 time=0
note_on channel=0 note=79 velocity=0 time=8
note_on channel=0 note=72 velocity=80 time=8
note_on channel=0 note=78 velocity=80 time=0
note_on channel=0 note=81 velocity=80 time=0
note_on channel=0 note=62 velocity=80 time=0
note_on channel=0 note=62 velocity=0 time=32
note_on channel=0 note=69 velocity=80 time=16
note_on channel=0 note=72 velocity=0 time=16
note_on channel=0 note=81 velocity=0 time=0
note_on channel=0 note=78 velocity=0 time=0
note_on channel=0 note=69 velocity=0 time=16
note_on channel=0 note=67 velocity=80 time=16
note_on channel=0 note=71 velocity=80 time=0
note_on channel=0 note=77 velocity=80 time=0
note_on channel=0 note=86 velocity=80 time=0
note_on channel=0 note=86 velocity=0 time=16
note_on channel=0 note=77 velocity=0 time=0
note_on channel=0 note=77 velocity=80 time=8
note_on channel=0 note=86 velocity=80 time=0
note_on channel=0 note=86 velocity=0 time=32
note_on channel=0 note=77 velocity=0 time=0
note_on channel=0 note=71 velocity=0 time=8
note_on channel=0 note=67 velocity=0 time=0
note_on channel=0 note=77 velocity=80 time=8
note_on channel=0 note=79 velocity=80 time=0
note_on channel=0 note=79 velocity=0 time=16
note_on channel=0 note=77 velocity=0 time=0
note_on channel=0 note=76 velocity=80 time=8
note_on channel=0 note=84 velocity=80 time=0
note_on channel=0 note=72 velocity=80 time=0
note_on channel=0 note=67 velocity=80 time=0
note_on channel=0 note=60 velocity=80 time=0
note_on channel=0 note=60 velocity=0 time=32
note_on channel=0 note=72 velocity=0 time=0
note_on channel=0 note=76 velocity=0 time=0
note_on channel=0 note=84 velocity=0 time=0
note_on channel=0 note=67 velocity=0 time=0
note_on channel=0 note=72 velocity=80 time=16
note_on channel=0 note=72 velocity=0 time=16
note_on channel=0 note=74 velocity=80 time=8
note_on channel=0 note=74 velocity=0 time=16
note_on channel=0 note=76 velocity=80 time=8
note_on channel=0 note=76 velocity=0 time=16
note_on channel=0 note=77 velocity=80 time=8
note_on channel=0 note=77 velocity=0 time=16
note_on channel=0 note=78 velocity=80 time=8
note_on channel=0 note=78 velocity=0 time=16
note_on channel=0 note=79 velocity=80 time=8
note_on channel=0 note=79 velocity=0 time=16
note_on channel=0 note=72 velocity=80 time=8
note_on channel=0 note=75 velocity=80 time=0
note_on channel=0 note=80 velocity=80 time=0
note_on channel=0 note=80 velocity=0 time=32
note_on channel=0 note=75 velocity=0 time=0
note_on channel=0 note=72 velocity=0 time=0
note_on channel=0 note=78 velocity=80 time=16
note_on channel=0 note=75 velocity=80 time=0
note_on channel=0 note=72 velocity=80 time=0
note_on channel=0 note=72 velocity=0 time=16
note_on channel=0 note=75 velocity=0 time=0
note_on channel=0 note=78 velocity=0 time=0
note_on channel=0 note=78 velocity=80 time=8
note_on channel=0 note=75 velocity=80 time=0
note_on channel=0 note=72 velocity=80 time=0
note_on channel=0 note=72 velocity=0 time=32
note_on channel=0 note=75 velocity=0 time=0
note_on channel=0 note=78 velocity=0 time=0
note_on channel=0 note=78 velocity=80 time=16
note_on channel=0 note=75 velocity=80 time=0
note_on channel=0 note=72 velocity=80 time=0
note_on channel=0 note=72 velocity=0 time=16
note_on channel=0 note=75 velocity=0 time=0
note_on channel=0 note=78 velocity=0 time=0
note_on channel=0 note=72 velocity=80 time=8
note_on channel=0 note=75 velocity=80 time=0
note_on channel=0 note=78 velocity=80 time=0
note_on channel=0 note=78 velocity=0 time=32
note_on channel=0 note=75 velocity=0 time=0
note_on channel=0 note=72 velocity=0 time=0
note_on channel=0 note=79 velocity=80 time=16
note_on channel=0 note=76 velocity=80 time=0
note_on channel=0 note=72 velocity=80 time=0
note_on channel=0 note=72 velocity=0 time=64
note_on channel=0 note=76 velocity=0 time=0
note_on channel=0 note=79 velocity=0 time=0
note_on channel=0 note=79 velocity=80 time=32
note_on channel=0 note=79 velocity=0 time=16
note_on channel=0 note=76 velocity=80 time=8
note_on channel=0 note=76 velocity=0 time=16
note_on channel=0 note=72 velocity=80 time=8
note_on channel=0 note=72 velocity=0 time=16
note_on channel=0 note=67 velocity=80 time=8
note_on channel=0 note=67 velocity=0 time=16
note_on channel=0 note=60 velocity=80 time=8
note_on channel=0 note=66 velocity=80 time=0
note_on channel=0 note=69 velocity=80 time=0
note_on channel=0 note=69 velocity=0 time=64
note_on channel=0 note=66 velocity=0 time=0
note_on channel=0 note=60 velocity=0 time=0
note_on channel=0 note=65 velocity=80 time=32
note_on channel=0 note=74 velocity=80 time=0
note_on channel=0 note=74 velocity=0 time=16
note_on channel=0 note=65 velocity=0 time=0
note_on channel=0 note=65 velocity=80 time=8
note_on channel=0 note=74 velocity=80 time=0
note_on channel=0 note=74 velocity=0 time=32
note_on channel=0 note=65 velocity=0 time=0
note_on channel=0 note=65 velocity=80 time=16
note_on channel=0 note=67 velocity=80 time=0
note_on channel=0 note=67 velocity=0 time=16
note_on channel=0 note=65 velocity=0 time=0
note_on channel=0 note=64 velocity=80 time=8
note_on channel=0 note=72 velocity=80 time=0
note_on channel=0 note=72 velocity=0 time=32
note_on channel=0 note=64 velocity=0 time=0
note_on channel=0 note=66 velocity=80 time=16
note_on channel=0 note=66 velocity=0 time=16
note_on channel=0 note=67 velocity=80 time=8
note_on channel=0 note=67 velocity=0 time=16
note_on channel=0 note=69 velocity=80 time=8
note_on channel=0 note=69 velocity=0 time=16
note_on channel=0 note=71 velocity=80 time=8
note_on channel=0 note=71 velocity=0 time=16
note_on channel=0 note=72 velocity=80 time=8
note_on channel=0 note=72 velocity=0 time=16
note_on channel=0 note=74 velocity=80 time=8
note_on channel=0 note=74 velocity=0 time=16
note_on channel=0 note=76 velocity=80 time=8
note_on channel=0 note=76 velocity=0 time=16
note_on channel=0 note=75 velocity=80 time=8
note_on channel=0 note=75 velocity=0 time=16
note_on channel=0 note=76 velocity=80 time=8
note_on channel=0 note=76 velocity=0 time=16
note_on channel=0 note=77 velocity=80 time=8
note_on channel=0 note=77 velocity=0 time=16
note_on channel=0 note=79 velocity=80 time=8
note_on channel=0 note=79 velocity=0 time=16
note_on channel=0 note=81 velocity=80 time=8
note_on channel=0 note=81 velocity=0 time=16
note_on channel=0 note=84 velocity=80 time=8
note_on channel=0 note=84 velocity=0 time=16
note_on channel=0 note=81 velocity=80 time=8
note_on channel=0 note=81 velocity=0 time=16
note_on channel=0 note=83 velocity=80 time=8
note_on channel=0 note=83 velocity=0 time=16
note_on channel=0 note=84 velocity=80 time=8
note_on channel=0 note=84 velocity=0 time=16
note_on channel=0 note=86 velocity=80 time=8
note_on channel=0 note=86 velocity=0 time=16
note_on channel=0 note=77 velocity=80 time=8
note_on channel=0 note=77 velocity=0 time=16
note_on channel=0 note=81 velocity=80 time=8
note_on channel=0 note=81 velocity=0 time=16
note_on channel=0 note=79 velocity=80 time=8
note_on channel=0 note=79 velocity=0 time=16
note_on channel=0 note=74 velocity=80 time=8
note_on channel=0 note=74 velocity=0 time=16
note_on channel=0 note=75 velocity=80 time=8
note_on channel=0 note=75 velocity=0 time=16
note_on channel=0 note=76 velocity=80 time=8
note_on channel=0 note=76 velocity=0 time=16
note_on channel=0 note=75 velocity=80 time=8
note_on channel=0 note=75 velocity=0 time=16
note_on channel=0 note=76 velocity=80 time=8
note_on channel=0 note=76 velocity=0 time=16
note_on channel=0 note=77 velocity=80 time=8
note_on channel=0 note=77 velocity=0 time=16
note_on channel=0 note=79 velocity=80 time=8
note_on channel=0 note=79 velocity=0 time=16
note_on channel=0 note=81 velocity=80 time=8
note_on channel=0 note=81 velocity=0 time=16
note_on channel=0 note=84 velocity=80 time=8
note_on channel=0 note=84 velocity=0 time=16
note_on channel=0 note=81 velocity=80 time=8
note_on channel=0 note=81 velocity=0 time=16
note_on channel=0 note=83 velocity=80 time=8
note_on channel=0 note=83 velocity=0 time=16
note_on channel=0 note=84 velocity=80 time=8
note_on channel=0 note=84 velocity=0 time=16
note_on channel=0 note=86 velocity=80 time=8
note_on channel=0 note=86 velocity=0 time=16
note_on channel=0 note=77 velocity=80 time=8
note_on channel=0 note=77 velocity=0 time=16
note_on channel=0 note=81 velocity=80 time=8
note_on channel=0 note=81 velocity=0 time=16
note_on channel=0 note=79 velocity=80 time=8
note_on channel=0 note=79 velocity=0 time=16
note_on channel=0 note=74 velocity=80 time=8
note_on channel=0 note=74 velocity=0 time=16
note_on channel=0 note=76 velocity=80 time=8
note_on channel=0 note=76 velocity=0 time=16
note_on channel=0 note=77 velocity=80 time=8
note_on channel=0 note=77 velocity=0 time=16
note_on channel=0 note=74 velocity=80 time=8
note_on channel=0 note=74 velocity=0 time=16
note_on channel=0 note=71 velocity=80 time=8
note_on channel=0 note=71 velocity=0 time=16
note_on channel=0 note=68 velocity=80 time=8
note_on channel=0 note=68 velocity=0 time=16
note_on channel=0 note=69 velocity=80 time=8
note_on channel=0 note=69 velocity=0 time=32
note_on channel=0 note=77 velocity=80 time=64
note_on channel=0 note=77 velocity=0 time=16
note_on channel=0 note=74 velocity=80 time=8
note_on channel=0 note=74 velocity=0 time=16
note_on channel=0 note=71 velocity=80 time=8
note_on channel=0 note=71 velocity=0 time=16
note_on channel=0 note=68 velocity=80 time=8
note_on channel=0 note=68 velocity=0 time=16
note_on channel=0 note=69 velocity=80 time=8
note_on channel=0 note=69 velocity=0 time=32
note_on channel=0 note=60 velocity=80 time=256
note_on channel=0 note=69 velocity=80 time=0
note_on channel=0 note=69 velocity=0 time=16
note_on channel=0 note=60 velocity=0 time=0
note_on channel=0 note=63 velocity=80 time=8
note_on channel=0 note=72 velocity=80 time=0
note_on channel=0 note=72 velocity=0 time=16
note_on channel=0 note=63 velocity=0 time=0
note_on channel=0 note=66 velocity=80 time=8
note_on channel=0 note=75 velocity=80 time=0
note_on channel=0 note=75 velocity=0 time=16
note_on channel=0 note=66 velocity=0 time=0
note_on channel=0 note=69 velocity=80 time=8
note_on channel=0 note=78 velocity=80 time=0
note_on channel=0 note=78 velocity=0 time=16
note_on channel=0 note=69 velocity=0 time=0
note_on channel=0 note=72 velocity=80 time=8
note_on channel=0 note=81 velocity=80 time=0
note_on channel=0 note=81 velocity=0 time=16
note_on channel=0 note=72 velocity=0 time=0
note_on channel=0 note=75 velocity=80 time=8
note_on channel=0 note=84 velocity=80 time=0
note_on channel=0 note=84 velocity=0 time=16
note_on channel=0 note=75 velocity=0 time=0
note_on channel=0 note=78 velocity=80 time=8
note_on channel=0 note=87 velocity=80 time=0
note_on channel=0 note=87 velocity=0 time=16
note_on channel=0 note=78 velocity=0 time=0
note_on channel=0 note=81 velocity=80 time=8
note_on channel=0 note=90 velocity=80 time=0
note_on channel=0 note=90 velocity=0 time=16
note_on channel=0 note=81 velocity=0 time=0
note_on channel=0 note=80 velocity=80 time=8
note_on channel=0 note=84 velocity=80 time=0
note_on channel=0 note=87 velocity=80 time=0
note_on channel=0 note=92 velocity=80 time=0
note_on channel=0 note=92 velocity=0 time=32
note_on channel=0 note=80 velocity=0 time=0
note_on channel=0 note=84 velocity=0 time=0
note_on channel=0 note=87 velocity=0 time=0
note_on channel=0 note=75 velocity=80 time=16
note_on channel=0 note=84 velocity=80 time=0
note_on channel=0 note=87 velocity=80 time=0
note_on channel=0 note=90 velocity=80 time=0
note_on channel=0 note=90 velocity=0 time=16
note_on channel=0 note=87 velocity=0 time=0
note_on channel=0 note=84 velocity=0 time=0
note_on channel=0 note=84 velocity=80 time=8
note_on channel=0 note=87 velocity=80 time=0
note_on channel=0 note=90 velocity=80 time=0
note_on channel=0 note=75 velocity=0 time=8
note_on channel=0 note=72 velocity=80 time=16
note_on channel=0 note=84 velocity=0 time=8
note_on channel=0 note=90 velocity=0 time=0
note_on channel=0 note=87 velocity=0 time=0
note_on channel=0 note=84 velocity=80 time=16
note_on channel=0 note=87 velocity=80 time=0
note_on channel=0 note=90 velocity=80 time=0
note_on channel=0 note=72 velocity=0 time=8
note_on channel=0 note=84 velocity=0 time=8
note_on channel=0 note=87 velocity=0 time=0
note_on channel=0 note=90 velocity=0 time=0
note_on channel=0 note=68 velocity=80 time=8
note_on channel=0 note=84 velocity=80 time=0
note_on channel=0 note=87 velocity=80 time=0
note_on channel=0 note=90 velocity=80 time=0
note_on channel=0 note=90 velocity=0 time=32
note_on channel=0 note=68 velocity=0 time=0
note_on channel=0 note=84 velocity=0 time=0
note_on channel=0 note=87 velocity=0 time=0
note_on channel=0 note=67 velocity=80 time=16
note_on channel=0 note=84 velocity=80 time=0
note_on channel=0 note=88 velocity=80 time=0
note_on channel=0 note=91 velocity=80 time=0
note_on channel=0 note=67 velocity=80 time=0
note_on channel=0 note=67 velocity=0 time=32
note_on channel=0 note=76 velocity=80 time=16
note_on channel=0 note=72 velocity=80 time=0
note_on channel=0 note=88 velocity=0 time=16
note_on channel=0 note=91 velocity=0 time=0
note_on channel=0 note=67 velocity=0 time=0
note_on channel=0 note=84 velocity=0 time=0
note_on channel=0 note=72 velocity=0 time=16
note_on channel=0 note=76 velocity=0 time=0
note_on channel=0 note=64 velocity=80 time=16
note_on channel=0 note=91 velocity=80 time=0
note_on channel=0 note=64 velocity=80 time=0
note_on channel=0 note=91 velocity=0 time=16
note_on channel=0 note=88 velocity=80 time=8
note_on channel=0 note=64 velocity=0 time=8
note_on channel=0 note=88 velocity=0 time=8
note_on channel=0 note=67 velocity=80 time=8
note_on channel=0 note=72 velocity=80 time=0
note_on channel=0 note=76 velocity=80 time=0
note_on channel=0 note=84 velocity=80 time=0
note_on channel=0 note=84 velocity=0 time=16
note_on channel=0 note=64 velocity=0 time=0
note_on channel=0 note=79 velocity=80 time=8
note_on channel=0 note=67 velocity=0 time=8
note_on channel=0 note=76 velocity=0 time=0
note_on channel=0 note=72 velocity=0 time=0
note_on channel=0 note=79 velocity=0 time=8
note_on channel=0 note=72 velocity=80 time=8
note_on channel=0 note=78 velocity=80 time=0
note_on channel=0 note=81 velocity=80 time=0
note_on channel=0 note=62 velocity=80 time=0
note_on channel=0 note=62 velocity=0 time=32
note_on channel=0 note=69 velocity=80 time=16
note_on channel=0 note=72 velocity=0 time=16
note_on channel=0 note=81 velocity=0 time=0
note_on channel=0 note=78 velocity=0 time=0
note_on channel=0 note=69 velocity=0 time=16
note_on channel=0 note=67 velocity=80 time=16
note_on channel=0 note=71 velocity=80 time=0
note_on channel=0 note=77 velocity=80 time=0
note_on channel=0 note=86 velocity=80 time=0
note_on channel=0 note=86 velocity=0 time=16
note_on channel=0 note=77 velocity=0 time=0
note_on channel=0 note=77 velocity=80 time=8
note_on channel=0 note=86 velocity=80 time=0
note_on channel=0 note=86 velocity=0 time=32
note_on channel=0 note=77 velocity=0 time=0
note_on channel=0 note=71 velocity=0 time=8
note_on channel=0 note=67 velocity=0 time=0
note_on channel=0 note=77 velocity=80 time=8
note_on channel=0 note=79 velocity=80 time=0
note_on channel=0 note=79 velocity=0 time=16
note_on channel=0 note=77 velocity=0 time=0
note_on channel=0 note=76 velocity=80 time=8
note_on channel=0 note=84 velocity=80 time=0
note_on channel=0 note=72 velocity=80 time=0
note_on channel=0 note=67 velocity=80 time=0
note_on channel=0 note=60 velocity=80 time=0
note_on channel=0 note=60 velocity=0 time=32
note_on channel=0 note=72 velocity=0 time=0
note_on channel=0 note=76 velocity=0 time=0
note_on channel=0 note=84 velocity=0 time=0
note_on channel=0 note=67 velocity=0 time=0
note_on channel=0 note=72 velocity=80 time=16
note_on channel=0 note=72 velocity=0 time=16
note_on channel=0 note=74 velocity=80 time=8
note_on channel=0 note=74 velocity=0 time=16
note_on channel=0 note=76 velocity=80 time=8
note_on channel=0 note=76 velocity=0 time=16
note_on channel=0 note=77 velocity=80 time=8
note_on channel=0 note=77 velocity=0 time=16
note_on channel=0 note=78 velocity=80 time=8
note_on channel=0 note=78 velocity=0 time=16
note_on channel=0 note=79 velocity=80 time=8
note_on channel=0 note=79 velocity=0 time=16
note_on channel=0 note=72 velocity=80 time=8
note_on channel=0 note=75 velocity=80 time=0
note_on channel=0 note=80 velocity=80 time=0
note_on channel=0 note=80 velocity=0 time=32
note_on channel=0 note=75 velocity=0 time=0
note_on channel=0 note=72 velocity=0 time=0
note_on channel=0 note=78 velocity=80 time=16
note_on channel=0 note=75 velocity=80 time=0
note_on channel=0 note=72 velocity=80 time=0
note_on channel=0 note=72 velocity=0 time=16
note_on channel=0 note=75 velocity=0 time=0
note_on channel=0 note=78 velocity=0 time=0
note_on channel=0 note=78 velocity=80 time=8
note_on channel=0 note=75 velocity=80 time=0
note_on channel=0 note=72 velocity=80 time=0
note_on channel=0 note=72 velocity=0 time=32
note_on channel=0 note=75 velocity=0 time=0
note_on channel=0 note=78 velocity=0 time=0
note_on channel=0 note=78 velocity=80 time=16
note_on channel=0 note=75 velocity=80 time=0
note_on channel=0 note=72 velocity=80 time=0
note_on channel=0 note=72 velocity=0 time=16
note_on channel=0 note=75 velocity=0 time=0
note_on channel=0 note=78 velocity=0 time=0
note_on channel=0 note=72 velocity=80 time=8
note_on channel=0 note=75 velocity=80 time=0
note_on channel=0 note=78 velocity=80 time=0
note_on channel=0 note=78 velocity=0 time=32
note_on channel=0 note=75 velocity=0 time=0
note_on channel=0 note=72 velocity=0 time=0
note_on channel=0 note=79 velocity=80 time=16
note_on channel=0 note=76 velocity=80 time=0
note_on channel=0 note=72 velocity=80 time=0
note_on channel=0 note=72 velocity=0 time=64
note_on channel=0 note=76 velocity=0 time=0
note_on channel=0 note=79 velocity=0 time=0
note_on channel=0 note=79 velocity=80 time=32
note_on channel=0 note=79 velocity=0 time=16
note_on channel=0 note=76 velocity=80 time=8
note_on channel=0 note=76 velocity=0 time=16
note_on channel=0 note=72 velocity=80 time=8
note_on channel=0 note=72 velocity=0 time=16
note_on channel=0 note=67 velocity=80 time=8
note_on channel=0 note=67 velocity=0 time=16
note_on channel=0 note=60 velocity=80 time=8
note_on channel=0 note=66 velocity=80 time=0
note_on channel=0 note=69 velocity=80 time=0
note_on channel=0 note=69 velocity=0 time=64
note_on channel=0 note=66 velocity=0 time=0
note_on channel=0 note=60 velocity=0 time=0
note_on channel=0 note=65 velocity=80 time=32
note_on channel=0 note=74 velocity=80 time=0
note_on channel=0 note=74 velocity=0 time=16
note_on channel=0 note=65 velocity=0 time=0
note_on channel=0 note=65 velocity=80 time=8
note_on channel=0 note=74 velocity=80 time=0
note_on channel=0 note=74 velocity=0 time=32
note_on channel=0 note=65 velocity=0 time=0
note_on channel=0 note=65 velocity=80 time=16
note_on channel=0 note=67 velocity=80 time=0
note_on channel=0 note=67 velocity=0 time=16
note_on channel=0 note=65 velocity=0 time=0
note_on channel=0 note=64 velocity=80 time=8
note_on channel=0 note=72 velocity=80 time=0
note_on channel=0 note=72 velocity=0 time=32
note_on channel=0 note=64 velocity=0 time=0
note_on channel=0 note=79 velocity=80 time=16
note_on channel=0 note=79 velocity=0 time=16
note_on channel=0 note=79 velocity=80 time=8
note_on channel=0 note=79 velocity=0 time=16
note_on channel=0 note=79 velocity=80 time=8
note_on channel=0 note=79 velocity=0 time=32
note_on channel=0 note=79 velocity=80 time=16
note_on channel=0 note=79 velocity=0 time=32
note_on channel=0 note=79 velocity=80 time=16
note_on channel=0 note=83 velocity=80 time=0
note_on channel=0 note=91 velocity=80 time=0
note_on channel=0 note=91 velocity=0 time=16
note_on channel=0 note=83 velocity=0 time=0
note_on channel=0 note=79 velocity=0 time=0
note_on channel=0 note=89 velocity=80 time=8
note_on channel=0 note=89 velocity=0 time=16
note_on channel=0 note=86 velocity=80 time=8
note_on channel=0 note=86 velocity=0 time=16
note_on channel=0 note=83 velocity=80 time=8
note_on channel=0 note=83 velocity=0 time=16
note_on channel=0 note=79 velocity=80 time=8
note_on channel=0 note=79 velocity=0 time=16
note_on channel=0 note=77 velocity=80 time=8
note_on channel=0 note=77 velocity=0 time=16
note_on channel=0 note=74 velocity=80 time=8
note_on channel=0 note=74 velocity=0 time=16
note_on channel=0 note=71 velocity=80 time=8
note_on channel=0 note=71 velocity=0 time=16
note_on channel=0 note=76 velocity=80 time=8
note_on channel=0 note=72 velocity=80 time=0
note_on channel=0 note=72 velocity=0 time=32
note_on channel=0 note=76 velocity=0 time=0
note_on channel=0 note=76 velocity=80 time=16
note_on channel=0 note=72 velocity=80 time=0
note_on channel=0 note=69 velocity=80 time=0
note_on channel=0 note=69 velocity=0 time=16
note_on channel=0 note=72 velocity=0 time=0
note_on channel=0 note=76 velocity=0 time=0
note_on channel=0 note=76 velocity=80 time=8
note_on channel=0 note=72 velocity=80 time=0
note_on channel=0 note=67 velocity=80 time=0
note_on channel=0 note=67 velocity=0 time=32
note_on channel=0 note=72 velocity=0 time=0
note_on channel=0 note=76 velocity=0 time=0
note_on channel=0 note=76 velocity=80 time=16
note_on channel=0 note=72 velocity=80 time=0
note_on channel=0 note=69 velocity=80 time=0
note_on channel=0 note=69 velocity=0 time=16
note_on channel=0 note=72 velocity=0 time=0
note_on channel=0 note=76 velocity=0 time=0
note_on channel=0 note=76 velocity=80 time=8
note_on channel=0 note=72 velocity=80 time=0
note_on channel=0 note=67 velocity=80 time=0
note_on channel=0 note=67 velocity=0 time=32
note_on channel=0 note=72 velocity=0 time=0
note_on channel=0 note=76 velocity=0 time=0
note_on channel=0 note=71 velocity=80 time=16
note_on channel=0 note=77 velocity=80 time=0
note_on channel=0 note=77 velocity=0 time=32
note_on channel=0 note=71 velocity=0 time=0
note_on channel=0 note=77 velocity=80 time=16
note_on channel=0 note=71 velocity=80 time=0
note_on channel=0 note=69 velocity=80 time=0
note_on channel=0 note=69 velocity=0 time=16
note_on channel=0 note=71 velocity=0 time=0
note_on channel=0 note=77 velocity=0 time=0
note_on channel=0 note=77 velocity=80 time=8
note_on channel=0 note=71 velocity=80 time=0
note_on channel=0 note=67 velocity=80 time=0
note_on channel=0 note=67 velocity=0 time=32
note_on channel=0 note=71 velocity=0 time=0
note_on channel=0 note=77 velocity=0 time=0
note_on channel=0 note=69 velocity=80 time=16
note_on channel=0 note=77 velocity=80 time=0
note_on channel=0 note=77 velocity=0 time=16
note_on channel=0 note=69 velocity=0 time=0
note_on channel=0 note=77 velocity=80 time=8
note_on channel=0 note=67 velocity=80 time=0
note_on channel=0 note=67 velocity=0 time=32
note_on channel=0 note=77 velocity=0 time=0
note_on channel=0 note=76 velocity=80 time=16
note_on channel=0 note=72 velocity=80 time=0
note_on channel=0 note=72 velocity=0 time=32
note_on channel=0 note=76 velocity=0 time=0
note_on channel=0 note=69 velocity=80 time=16
note_on channel=0 note=72 velocity=80 time=0
note_on channel=0 note=76 velocity=80 time=0
note_on channel=0 note=76 velocity=0 time=16
note_on channel=0 note=72 velocity=0 time=0
note_on channel=0 note=69 velocity=0 time=0
note_on channel=0 note=76 velocity=80 time=8
note_on channel=0 note=72 velocity=80 time=0
note_on channel=0 note=67 velocity=80 time=0
note_on channel=0 note=67 velocity=0 time=32
note_on channel=0 note=72 velocity=0 time=0
note_on channel=0 note=76 velocity=0 time=0
note_on channel=0 note=79 velocity=80 time=16
note_on channel=0 note=79 velocity=0 time=16
note_on channel=0 note=84 velocity=80 time=8
note_on channel=0 note=84 velocity=0 time=16
note_on channel=0 note=88 velocity=80 time=8
note_on channel=0 note=88 velocity=0 time=16
note_on channel=0 note=79 velocity=80 time=8
note_on channel=0 note=83 velocity=80 time=0
note_on channel=0 note=91 velocity=80 time=0
note_on channel=0 note=91 velocity=0 time=16
note_on channel=0 note=83 velocity=0 time=0
note_on channel=0 note=79 velocity=0 time=0
note_on channel=0 note=89 velocity=80 time=8
note_on channel=0 note=89 velocity=0 time=16
note_on channel=0 note=86 velocity=80 time=8
note_on channel=0 note=86 velocity=0 time=16
note_on channel=0 note=83 velocity=80 time=8
note_on channel=0 note=83 velocity=0 time=16
note_on channel=0 note=79 velocity=80 time=8
note_on channel=0 note=79 velocity=0 time=16
note_on channel=0 note=77 velocity=80 time=8
note_on channel=0 note=77 velocity=0 time=16
note_on channel=0 note=74 velocity=80 time=8
note_on channel=0 note=74 velocity=0 time=16
note_on channel=0 note=71 velocity=80 time=8
note_on channel=0 note=71 velocity=0 time=16
note_on channel=0 note=76 velocity=80 time=8
note_on channel=0 note=72 velocity=80 time=0
note_on channel=0 note=72 velocity=0 time=32
note_on channel=0 note=76 velocity=0 time=0
note_on channel=0 note=76 velocity=80 time=16
note_on channel=0 note=72 velocity=80 time=0
note_on channel=0 note=69 velocity=80 time=0
note_on channel=0 note=69 velocity=0 time=16
note_on channel=0 note=72 velocity=0 time=0
note_on channel=0 note=76 velocity=0 time=0
note_on channel=0 note=76 velocity=80 time=8
note_on channel=0 note=72 velocity=80 time=0
note_on channel=0 note=67 velocity=80 time=0
note_on channel=0 note=67 velocity=0 time=32
note_on channel=0 note=72 velocity=0 time=0
note_on channel=0 note=76 velocity=0 time=0
note_on channel=0 note=67 velocity=80 time=16
note_on channel=0 note=67 velocity=0 time=16
note_on channel=0 note=76 velocity=80 time=8
note_on channel=0 note=67 velocity=80 time=0
note_on channel=0 note=70 velocity=80 time=0
note_on channel=0 note=70 velocity=0 time=32
note_on channel=0 note=67 velocity=0 time=0
note_on channel=0 note=76 velocity=0 time=0
note_on channel=0 note=67 velocity=80 time=16
note_on channel=0 note=71 velocity=80 time=0
note_on channel=0 note=76 velocity=80 time=0
note_on channel=0 note=76 velocity=0 time=32
note_on channel=0 note=71 velocity=0 time=0
note_on channel=0 note=67 velocity=0 time=0
note_on channel=0 note=67 velocity=80 time=16
note_on channel=0 note=71 velocity=80 time=0
note_on channel=0 note=74 velocity=80 time=0
note_on channel=0 note=74 velocity=0 time=16
note_on channel=0 note=71 velocity=0 time=0
note_on channel=0 note=67 velocity=0 time=0
note_on channel=0 note=67 velocity=80 time=8
note_on channel=0 note=71 velocity=80 time=0
note_on channel=0 note=71 velocity=0 time=32
note_on channel=0 note=67 velocity=0 time=0
note_on channel=0 note=59 velocity=80 time=16
note_on channel=0 note=67 velocity=80 time=0
note_on channel=0 note=67 velocity=0 time=16
note_on channel=0 note=59 velocity=0 time=0
note_on channel=0 note=60 velocity=80 time=8
note_on channel=0 note=69 velocity=80 time=0
note_on channel=0 note=69 velocity=0 time=32
note_on channel=0 note=60 velocity=0 time=0
note_on channel=0 note=59 velocity=80 time=16
note_on channel=0 note=67 velocity=80 time=0
note_on channel=0 note=67 velocity=0 time=16
note_on channel=0 note=67 velocity=80 time=8
note_on channel=0 note=59 velocity=0 time=8
note_on channel=0 note=67 velocity=0 time=8
note_on channel=0 note=71 velocity=80 time=8
note_on channel=0 note=71 velocity=0 time=16
note_on channel=0 note=74 velocity=80 time=8
note_on channel=0 note=74 velocity=0 time=16
note_on channel=0 note=79 velocity=80 time=8
note_on channel=0 note=79 velocity=0 time=16
note_on channel=0 note=79 velocity=80 time=8
note_on channel=0 note=79 velocity=0 time=16
note_on channel=0 note=83 velocity=80 time=8
note_on channel=0 note=83 velocity=0 time=16
note_on channel=0 note=86 velocity=80 time=8
note_on channel=0 note=86 velocity=0 time=16
note_on channel=0 note=79 velocity=80 time=8
note_on channel=0 note=83 velocity=80 time=0
note_on channel=0 note=91 velocity=80 time=0
note_on channel=0 note=91 velocity=0 time=16
note_on channel=0 note=83 velocity=0 time=0
note_on channel=0 note=79 velocity=0 time=0
note_on channel=0 note=89 velocity=80 time=8
note_on channel=0 note=89 velocity=0 time=16
note_on channel=0 note=86 velocity=80 time=8
note_on channel=0 note=86 velocity=0 time=16
note_on channel=0 note=83 velocity=80 time=8
note_on channel=0 note=83 velocity=0 time=16
note_on channel=0 note=79 velocity=80 time=8
note_on channel=0 note=79 velocity=0 time=16
note_on channel=0 note=77 velocity=80 time=8
note_on channel=0 note=77 velocity=0 time=16
note_on channel=0 note=74 velocity=80 time=8
note_on channel=0 note=74 velocity=0 time=16
note_on channel=0 note=71 velocity=80 time=8
note_on channel=0 note=71 velocity=0 time=16
note_on channel=0 note=76 velocity=80 time=8
note_on channel=0 note=72 velocity=80 time=0
note_on channel=0 note=72 velocity=0 time=32
note_on channel=0 note=76 velocity=0 time=0
note_on channel=0 note=76 velocity=80 time=16
note_on channel=0 note=72 velocity=80 time=0
note_on channel=0 note=69 velocity=80 time=0
note_on channel=0 note=69 velocity=0 time=16
note_on channel=0 note=72 velocity=0 time=0
note_on channel=0 note=76 velocity=0 time=0
note_on channel=0 note=76 velocity=80 time=8
note_on channel=0 note=72 velocity=80 time=0
note_on channel=0 note=67 velocity=80 time=0
note_on channel=0 note=67 velocity=0 time=32
note_on channel=0 note=72 velocity=0 time=0
note_on channel=0 note=76 velocity=0 time=0
note_on channel=0 note=76 velocity=80 time=16
note_on channel=0 note=72 velocity=80 time=0
note_on channel=0 note=69 velocity=80 time=0
note_on channel=0 note=69 velocity=0 time=16
note_on channel=0 note=72 velocity=0 time=0
note_on channel=0 note=76 velocity=0 time=0
note_on channel=0 note=76 velocity=80 time=8
note_on channel=0 note=72 velocity=80 time=0
note_on channel=0 note=67 velocity=80 time=0
note_on channel=0 note=67 velocity=0 time=32
note_on channel=0 note=72 velocity=0 time=0
note_on channel=0 note=76 velocity=0 time=0
note_on channel=0 note=71 velocity=80 time=16
note_on channel=0 note=77 velocity=80 time=0
note_on channel=0 note=77 velocity=0 time=32
note_on channel=0 note=71 velocity=0 time=0
note_on channel=0 note=77 velocity=80 time=16
note_on channel=0 note=71 velocity=80 time=0
note_on channel=0 note=69 velocity=80 time=0
note_on channel=0 note=69 velocity=0 time=16
note_on channel=0 note=71 velocity=0 time=0
note_on channel=0 note=77 velocity=0 time=0
note_on channel=0 note=77 velocity=80 time=8
note_on channel=0 note=71 velocity=80 time=0
note_on channel=0 note=67 velocity=80 time=0
note_on channel=0 note=67 velocity=0 time=32
note_on channel=0 note=71 velocity=0 time=0
note_on channel=0 note=77 velocity=0 time=0
note_on channel=0 note=69 velocity=80 time=16
note_on channel=0 note=77 velocity=80 time=0
note_on channel=0 note=77 velocity=0 time=16
note_on channel=0 note=69 velocity=0 time=0
note_on channel=0 note=77 velocity=80 time=8
note_on channel=0 note=67 velocity=80 time=0
note_on channel=0 note=67 velocity=0 time=32
note_on channel=0 note=77 velocity=0 time=0
note_on channel=0 note=76 velocity=80 time=16
note_on channel=0 note=72 velocity=80 time=0
note_on channel=0 note=72 velocity=0 time=32
note_on channel=0 note=76 velocity=0 time=0
note_on channel=0 note=69 velocity=80 time=16
note_on channel=0 note=72 velocity=80 time=0
note_on channel=0 note=76 velocity=80 time=0
note_on channel=0 note=76 velocity=0 time=16
note_on channel=0 note=72 velocity=0 time=0
note_on channel=0 note=69 velocity=0 time=0
note_on channel=0 note=76 velocity=80 time=8
note_on channel=0 note=72 velocity=80 time=0
note_on channel=0 note=67 velocity=80 time=0
note_on channel=0 note=67 velocity=0 time=64
note_on channel=0 note=72 velocity=0 time=0
note_on channel=0 note=76 velocity=0 time=0
note_on channel=0 note=71 velocity=80 time=8
note_on channel=0 note=74 velocity=80 time=0
note_on channel=0 note=79 velocity=80 time=0
note_on channel=0 note=79 velocity=0 time=32
note_on channel=0 note=74 velocity=0 time=0
note_on channel=0 note=71 velocity=0 time=0
note_on channel=0 note=72 velocity=80 time=16
note_on channel=0 note=72 velocity=0 time=16
note_on channel=0 note=76 velocity=80 time=8
note_on channel=0 note=76 velocity=0 time=16
note_on channel=0 note=79 velocity=80 time=8
note_on channel=0 note=79 velocity=0 time=16
note_on channel=0 note=84 velocity=80 time=8
note_on channel=0 note=84 velocity=0 time=16
note_on channel=0 note=72 velocity=80 time=8
note_on channel=0 note=72 velocity=0 time=16
note_on channel=0 note=76 velocity=80 time=8
note_on channel=0 note=76 velocity=0 time=16
note_on channel=0 note=79 velocity=80 time=8
note_on channel=0 note=79 velocity=0 time=16
note_on channel=0 note=84 velocity=80 time=8
note_on channel=0 note=84 velocity=0 time=16
note_on channel=0 note=72 velocity=80 time=8
note_on channel=0 note=72 velocity=0 time=16
note_on channel=0 note=77 velocity=80 time=8
note_on channel=0 note=77 velocity=0 time=16
note_on channel=0 note=84 velocity=80 time=8
note_on channel=0 note=84 velocity=0 time=16
note_on channel=0 note=77 velocity=80 time=8
note_on channel=0 note=77 velocity=0 time=16
note_on channel=0 note=72 velocity=80 time=8
note_on channel=0 note=72 velocity=0 time=16
note_on channel=0 note=84 velocity=80 time=8
note_on channel=0 note=84 velocity=0 time=32
note_on channel=0 note=78 velocity=80 time=16
note_on channel=0 note=78 velocity=0 time=16
note_on channel=0 note=79 velocity=80 time=8
note_on channel=0 note=79 velocity=0 time=16
note_on channel=0 note=67 velocity=80 time=8
note_on channel=0 note=67 velocity=0 time=16
note_on channel=0 note=76 velocity=80 time=8
note_on channel=0 note=76 velocity=0 time=16
note_on channel=0 note=74 velocity=80 time=8
note_on channel=0 note=74 velocity=0 time=16
note_on channel=0 note=66 velocity=80 time=8
note_on channel=0 note=72 velocity=80 time=0
note_on channel=0 note=72 velocity=0 time=32
note_on channel=0 note=66 velocity=0 time=0
note_on channel=0 note=65 velocity=80 time=16
note_on channel=0 note=71 velocity=80 time=0
note_on channel=0 note=74 velocity=80 time=0
note_on channel=0 note=74 velocity=0 time=32
note_on channel=0 note=71 velocity=0 time=0
note_on channel=0 note=65 velocity=0 time=0
note_on channel=0 note=64 velocity=80 time=16
note_on channel=0 note=72 velocity=80 time=0
note_on channel=0 note=72 velocity=0 time=32
note_on channel=0 note=64 velocity=0 time=0
note_on channel=0 note=79 velocity=80 time=16
note_on channel=0 note=79 velocity=0 time=16
note_on channel=0 note=79 velocity=80 time=8
note_on channel=0 note=79 velocity=0 time=16
note_on channel=0 note=79 velocity=80 time=8
note_on channel=0 note=79 velocity=0 time=32
note_on channel=0 note=79 velocity=80 time=16
note_on channel=0 note=79 velocity=0 time=32
note_on channel=0 note=79 velocity=80 time=16
note_on channel=0 note=83 velocity=80 time=0
note_on channel=0 note=91 velocity=80 time=0
note_on channel=0 note=91 velocity=0 time=16
note_on channel=0 note=83 velocity=0 time=0
note_on channel=0 note=79 velocity=0 time=0
note_on channel=0 note=89 velocity=80 time=8
note_on channel=0 note=89 velocity=0 time=16
note_on channel=0 note=86 velocity=80 time=8
note_on channel=0 note=86 velocity=0 time=16
note_on channel=0 note=83 velocity=80 time=8
note_on channel=0 note=83 velocity=0 time=16
note_on channel=0 note=79 velocity=80 time=8
note_on channel=0 note=79 velocity=0 time=16
note_on channel=0 note=77 velocity=80 time=8
note_on channel=0 note=77 velocity=0 time=16
note_on channel=0 note=74 velocity=80 time=8
note_on channel=0 note=74 velocity=0 time=16
note_on channel=0 note=71 velocity=80 time=8
note_on channel=0 note=71 velocity=0 time=16
note_on channel=0 note=76 velocity=80 time=8
note_on channel=0 note=72 velocity=80 time=0
note_on channel=0 note=72 velocity=0 time=32
note_on channel=0 note=76 velocity=0 time=0
note_on channel=0 note=76 velocity=80 time=16
note_on channel=0 note=72 velocity=80 time=0
note_on channel=0 note=69 velocity=80 time=0
note_on channel=0 note=69 velocity=0 time=16
note_on channel=0 note=72 velocity=0 time=0
note_on channel=0 note=76 velocity=0 time=0
note_on channel=0 note=76 velocity=80 time=8
note_on channel=0 note=72 velocity=80 time=0
note_on channel=0 note=67 velocity=80 time=0
note_on channel=0 note=67 velocity=0 time=32
note_on channel=0 note=72 velocity=0 time=0
note_on channel=0 note=76 velocity=0 time=0
note_on channel=0 note=76 velocity=80 time=16
note_on channel=0 note=72 velocity=80 time=0
note_on channel=0 note=69 velocity=80 time=0
note_on channel=0 note=69 velocity=0 time=16
note_on channel=0 note=72 velocity=0 time=0
note_on channel=0 note=76 velocity=0 time=0
note_on channel=0 note=76 velocity=80 time=8
note_on channel=0 note=72 velocity=80 time=0
note_on channel=0 note=67 velocity=80 time=0
note_on channel=0 note=67 velocity=0 time=32
note_on channel=0 note=72 velocity=0 time=0
note_on channel=0 note=76 velocity=0 time=0
note_on channel=0 note=71 velocity=80 time=16
note_on channel=0 note=77 velocity=80 time=0
note_on channel=0 note=77 velocity=0 time=32
note_on channel=0 note=71 velocity=0 time=0
note_on channel=0 note=77 velocity=80 time=16
note_on channel=0 note=71 velocity=80 time=0
note_on channel=0 note=69 velocity=80 time=0
note_on channel=0 note=69 velocity=0 time=16
note_on channel=0 note=71 velocity=0 time=0
note_on channel=0 note=77 velocity=0 time=0
note_on channel=0 note=77 velocity=80 time=8
note_on channel=0 note=71 velocity=80 time=0
note_on channel=0 note=67 velocity=80 time=0
note_on channel=0 note=67 velocity=0 time=32
note_on channel=0 note=71 velocity=0 time=0
note_on channel=0 note=77 velocity=0 time=0
note_on channel=0 note=69 velocity=80 time=16
note_on channel=0 note=77 velocity=80 time=0
note_on channel=0 note=77 velocity=0 time=16
note_on channel=0 note=69 velocity=0 time=0
note_on channel=0 note=77 velocity=80 time=8
note_on channel=0 note=67 velocity=80 time=0
note_on channel=0 note=67 velocity=0 time=32
note_on channel=0 note=77 velocity=0 time=0
note_on channel=0 note=76 velocity=80 time=16
note_on channel=0 note=72 velocity=80 time=0
note_on channel=0 note=72 velocity=0 time=32
note_on channel=0 note=76 velocity=0 time=0
note_on channel=0 note=69 velocity=80 time=16
note_on channel=0 note=72 velocity=80 time=0
note_on channel=0 note=76 velocity=80 time=0
note_on channel=0 note=76 velocity=0 time=16
note_on channel=0 note=72 velocity=0 time=0
note_on channel=0 note=69 velocity=0 time=0
note_on channel=0 note=76 velocity=80 time=8
note_on channel=0 note=72 velocity=80 time=0
note_on channel=0 note=67 velocity=80 time=0
note_on channel=0 note=67 velocity=0 time=32
note_on channel=0 note=72 velocity=0 time=0
note_on channel=0 note=76 velocity=0 time=0
note_on channel=0 note=79 velocity=80 time=16
note_on channel=0 note=79 velocity=0 time=16
note_on channel=0 note=84 velocity=80 time=8
note_on channel=0 note=84 velocity=0 time=16
note_on channel=0 note=88 velocity=80 time=8
note_on channel=0 note=88 velocity=0 time=16
note_on channel=0 note=79 velocity=80 time=8
note_on channel=0 note=83 velocity=80 time=0
note_on channel=0 note=91 velocity=80 time=0
note_on channel=0 note=91 velocity=0 time=16
note_on channel=0 note=83 velocity=0 time=0
note_on channel=0 note=79 velocity=0 time=0
note_on channel=0 note=89 velocity=80 time=8
note_on channel=0 note=89 velocity=0 time=16
note_on channel=0 note=86 velocity=80 time=8
note_on channel=0 note=86 velocity=0 time=16
note_on channel=0 note=83 velocity=80 time=8
note_on channel=0 note=83 velocity=0 time=16
note_on channel=0 note=79 velocity=80 time=8
note_on channel=0 note=79 velocity=0 time=16
note_on channel=0 note=77 velocity=80 time=8
note_on channel=0 note=77 velocity=0 time=16
note_on channel=0 note=74 velocity=80 time=8
note_on channel=0 note=74 velocity=0 time=16
note_on channel=0 note=71 velocity=80 time=8
note_on channel=0 note=71 velocity=0 time=16
note_on channel=0 note=76 velocity=80 time=8
note_on channel=0 note=72 velocity=80 time=0
note_on channel=0 note=72 velocity=0 time=32
note_on channel=0 note=76 velocity=0 time=0
note_on channel=0 note=76 velocity=80 time=16
note_on channel=0 note=72 velocity=80 time=0
note_on channel=0 note=69 velocity=80 time=0
note_on channel=0 note=69 velocity=0 time=16
note_on channel=0 note=72 velocity=0 time=0
note_on channel=0 note=76 velocity=0 time=0
note_on channel=0 note=76 velocity=80 time=8
note_on channel=0 note=72 velocity=80 time=0
note_on channel=0 note=67 velocity=80 time=0
note_on channel=0 note=67 velocity=0 time=32
note_on channel=0 note=72 velocity=0 time=0
note_on channel=0 note=76 velocity=0 time=0
note_on channel=0 note=67 velocity=80 time=16
note_on channel=0 note=67 velocity=0 time=16
note_on channel=0 note=76 velocity=80 time=8
note_on channel=0 note=67 velocity=80 time=0
note_on channel=0 note=70 velocity=80 time=0
note_on channel=0 note=70 velocity=0 time=32
note_on channel=0 note=67 velocity=0 time=0
note_on channel=0 note=76 velocity=0 time=0
note_on channel=0 note=67 velocity=80 time=16
note_on channel=0 note=71 velocity=80 time=0
note_on channel=0 note=76 velocity=80 time=0
note_on channel=0 note=76 velocity=0 time=32
note_on channel=0 note=71 velocity=0 time=0
note_on channel=0 note=67 velocity=0 time=0
note_on channel=0 note=67 velocity=80 time=16
note_on channel=0 note=71 velocity=80 time=0
note_on channel=0 note=74 velocity=80 time=0
note_on channel=0 note=74 velocity=0 time=16
note_on channel=0 note=71 velocity=0 time=0
note_on channel=0 note=67 velocity=0 time=0
note_on channel=0 note=67 velocity=80 time=8
note_on channel=0 note=71 velocity=80 time=0
note_on channel=0 note=71 velocity=0 time=32
note_on channel=0 note=67 velocity=0 time=0
note_on channel=0 note=59 velocity=80 time=16
note_on channel=0 note=67 velocity=80 time=0
note_on channel=0 note=67 velocity=0 time=16
note_on channel=0 note=59 velocity=0 time=0
note_on channel=0 note=60 velocity=80 time=8
note_on channel=0 note=69 velocity=80 time=0
note_on channel=0 note=69 velocity=0 time=32
note_on channel=0 note=60 velocity=0 time=0
note_on channel=0 note=59 velocity=80 time=16
note_on channel=0 note=67 velocity=80 time=0
note_on channel=0 note=67 velocity=0 time=16
note_on channel=0 note=67 velocity=80 time=8
note_on channel=0 note=59 velocity=0 time=8
note_on channel=0 note=67 velocity=0 time=8
note_on channel=0 note=71 velocity=80 time=8
note_on channel=0 note=71 velocity=0 time=16
note_on channel=0 note=74 velocity=80 time=8
note_on channel=0 note=74 velocity=0 time=16
note_on channel=0 note=79 velocity=80 time=8
note_on channel=0 note=79 velocity=0 time=16
note_on channel=0 note=79 velocity=80 time=8
note_on channel=0 note=79 velocity=0 time=16
note_on channel=0 note=83 velocity=80 time=8
note_on channel=0 note=83 velocity=0 time=16
note_on channel=0 note=86 velocity=80 time=8
note_on channel=0 note=86 velocity=0 time=16
note_on channel=0 note=79 velocity=80 time=8
note_on channel=0 note=83 velocity=80 time=0
note_on channel=0 note=91 velocity=80 time=0
note_on channel=0 note=91 velocity=0 time=16
note_on channel=0 note=83 velocity=0 time=0
note_on channel=0 note=79 velocity=0 time=0
note_on channel=0 note=89 velocity=80 time=8
note_on channel=0 note=89 velocity=0 time=16
note_on channel=0 note=86 velocity=80 time=8
note_on channel=0 note=86 velocity=0 time=16
note_on channel=0 note=83 velocity=80 time=8
note_on channel=0 note=83 velocity=0 time=16
note_on channel=0 note=79 velocity=80 time=8
note_on channel=0 note=79 velocity=0 time=16
note_on channel=0 note=77 velocity=80 time=8
note_on channel=0 note=77 velocity=0 time=16
note_on channel=0 note=74 velocity=80 time=8
note_on channel=0 note=74 velocity=0 time=16
note_on channel=0 note=71 velocity=80 time=8
note_on channel=0 note=71 velocity=0 time=16
note_on channel=0 note=76 velocity=80 time=8
note_on channel=0 note=72 velocity=80 time=0
note_on channel=0 note=72 velocity=0 time=32
note_on channel=0 note=76 velocity=0 time=0
note_on channel=0 note=76 velocity=80 time=16
note_on channel=0 note=72 velocity=80 time=0
note_on channel=0 note=69 velocity=80 time=0
note_on channel=0 note=69 velocity=0 time=16
note_on channel=0 note=72 velocity=0 time=0
note_on channel=0 note=76 velocity=0 time=0
note_on channel=0 note=76 velocity=80 time=8
note_on channel=0 note=72 velocity=80 time=0
note_on channel=0 note=67 velocity=80 time=0
note_on channel=0 note=67 velocity=0 time=32
note_on channel=0 note=72 velocity=0 time=0
note_on channel=0 note=76 velocity=0 time=0
note_on channel=0 note=76 velocity=80 time=16
note_on channel=0 note=72 velocity=80 time=0
note_on channel=0 note=69 velocity=80 time=0
note_on channel=0 note=69 velocity=0 time=16
note_on channel=0 note=72 velocity=0 time=0
note_on channel=0 note=76 velocity=0 time=0
note_on channel=0 note=76 velocity=80 time=8
note_on channel=0 note=72 velocity=80 time=0
note_on channel=0 note=67 velocity=80 time=0
note_on channel=0 note=67 velocity=0 time=32
note_on channel=0 note=72 velocity=0 time=0
note_on channel=0 note=76 velocity=0 time=0
note_on channel=0 note=71 velocity=80 time=16
note_on channel=0 note=77 velocity=80 time=0
note_on channel=0 note=77 velocity=0 time=32
note_on channel=0 note=71 velocity=0 time=0
note_on channel=0 note=77 velocity=80 time=16
note_on channel=0 note=71 velocity=80 time=0
note_on channel=0 note=69 velocity=80 time=0
note_on channel=0 note=69 velocity=0 time=16
note_on channel=0 note=71 velocity=0 time=0
note_on channel=0 note=77 velocity=0 time=0
note_on channel=0 note=77 velocity=80 time=8
note_on channel=0 note=71 velocity=80 time=0
note_on channel=0 note=67 velocity=80 time=0
note_on channel=0 note=67 velocity=0 time=32
note_on channel=0 note=71 velocity=0 time=0
note_on channel=0 note=77 velocity=0 time=0
note_on channel=0 note=69 velocity=80 time=16
note_on channel=0 note=77 velocity=80 time=0
note_on channel=0 note=77 velocity=0 time=16
note_on channel=0 note=69 velocity=0 time=0
note_on channel=0 note=77 velocity=80 time=8
note_on channel=0 note=67 velocity=80 time=0
note_on channel=0 note=67 velocity=0 time=32
note_on channel=0 note=77 velocity=0 time=0
note_on channel=0 note=76 velocity=80 time=16
note_on channel=0 note=72 velocity=80 time=0
note_on channel=0 note=72 velocity=0 time=32
note_on channel=0 note=76 velocity=0 time=0
note_on channel=0 note=69 velocity=80 time=16
note_on channel=0 note=72 velocity=80 time=0
note_on channel=0 note=76 velocity=80 time=0
note_on channel=0 note=76 velocity=0 time=16
note_on channel=0 note=72 velocity=0 time=0
note_on channel=0 note=69 velocity=0 time=0
note_on channel=0 note=76 velocity=80 time=8
note_on channel=0 note=72 velocity=80 time=0
note_on channel=0 note=67 velocity=80 time=0
note_on channel=0 note=67 velocity=0 time=64
note_on channel=0 note=72 velocity=0 time=0
note_on channel=0 note=76 velocity=0 time=0
note_on channel=0 note=71 velocity=80 time=8
note_on channel=0 note=74 velocity=80 time=0
note_on channel=0 note=79 velocity=80 time=0
note_on channel=0 note=79 velocity=0 time=32
note_on channel=0 note=74 velocity=0 time=0
note_on channel=0 note=71 velocity=0 time=0
note_on channel=0 note=72 velocity=80 time=16
note_on channel=0 note=72 velocity=0 time=16
note_on channel=0 note=76 velocity=80 time=8
note_on channel=0 note=76 velocity=0 time=16
note_on channel=0 note=79 velocity=80 time=8
note_on channel=0 note=79 velocity=0 time=16
note_on channel=0 note=84 velocity=80 time=8
note_on channel=0 note=84 velocity=0 time=16
note_on channel=0 note=72 velocity=80 time=8
note_on channel=0 note=72 velocity=0 time=16
note_on channel=0 note=76 velocity=80 time=8
note_on channel=0 note=76 velocity=0 time=16
note_on channel=0 note=79 velocity=80 time=8
note_on channel=0 note=79 velocity=0 time=16
note_on channel=0 note=84 velocity=80 time=8
note_on channel=0 note=84 velocity=0 time=16
note_on channel=0 note=72 velocity=80 time=8
note_on channel=0 note=72 velocity=0 time=16
note_on channel=0 note=77 velocity=80 time=8
note_on channel=0 note=77 velocity=0 time=16
note_on channel=0 note=84 velocity=80 time=8
note_on channel=0 note=84 velocity=0 time=16
note_on channel=0 note=77 velocity=80 time=8
note_on channel=0 note=77 velocity=0 time=16
note_on channel=0 note=72 velocity=80 time=8
note_on channel=0 note=72 velocity=0 time=16
note_on channel=0 note=84 velocity=80 time=8
note_on channel=0 note=84 velocity=0 time=32
note_on channel=0 note=78 velocity=80 time=16
note_on channel=0 note=78 velocity=0 time=16
note_on channel=0 note=79 velocity=80 time=8
note_on channel=0 note=79 velocity=0 time=16
note_on channel=0 note=67 velocity=80 time=8
note_on channel=0 note=67 velocity=0 time=16
note_on channel=0 note=76 velocity=80 time=8
note_on channel=0 note=76 velocity=0 time=16
note_on channel=0 note=74 velocity=80 time=8
note_on channel=0 note=74 velocity=0 time=16
note_on channel=0 note=66 velocity=80 time=8
note_on channel=0 note=72 velocity=80 time=0
note_on channel=0 note=72 velocity=0 time=32
note_on channel=0 note=66 velocity=0 time=0
note_on channel=0 note=65 velocity=80 time=16
note_on channel=0 note=71 velocity=80 time=0
note_on channel=0 note=74 velocity=80 time=0
note_on channel=0 note=74 velocity=0 time=32
note_on channel=0 note=71 velocity=0 time=0
note_on channel=0 note=65 velocity=0 time=0
note_on channel=0 note=64 velocity=80 time=16
note_on channel=0 note=72 velocity=80 time=0
note_on channel=0 note=72 velocity=0 time=32
note_on channel=0 note=64 velocity=0 time=0
note_on channel=0 note=72 velocity=80 time=64
note_on channel=0 note=76 velocity=80 time=0
note_on channel=0 note=84 velocity=80 time=0
note_on channel=0 note=84 velocity=0 time=32
note_on channel=0 note=76 velocity=0 time=0
note_on channel=0 note=72 velocity=0 time=0
note_on channel=0 note=67 velocity=80 time=64
note_on channel=0 note=71 velocity=80 time=0
note_on channel=0 note=74 velocity=80 time=0
note_on channel=0 note=77 velocity=80 time=0
note_on channel=0 note=77 velocity=0 time=32
note_on channel=0 note=67 velocity=0 time=0
note_on channel=0 note=71 velocity=0 time=0
note_on channel=0 note=74 velocity=0 time=0
note_on channel=0 note=67 velocity=80 time=16
note_on channel=0 note=71 velocity=80 time=0
note_on channel=0 note=74 velocity=80 time=0
note_on channel=0 note=77 velocity=80 time=0
note_on channel=0 note=77 velocity=0 time=64
note_on channel=0 note=67 velocity=0 time=0
note_on channel=0 note=71 velocity=0 time=0
note_on channel=0 note=74 velocity=0 time=0
note_on channel=0 note=77 velocity=80 time=32
note_on channel=0 note=74 velocity=80 time=0
note_on channel=0 note=71 velocity=80 time=0
note_on channel=0 note=67 velocity=80 time=0
note_on channel=0 note=67 velocity=0 time=32
note_on channel=0 note=77 velocity=0 time=0
note_on channel=0 note=74 velocity=0 time=0
note_on channel=0 note=71 velocity=0 time=0
note_on channel=0 note=77 velocity=80 time=16
note_on channel=0 note=74 velocity=80 time=0
note_on channel=0 note=70 velocity=80 time=0
note_on channel=0 note=68 velocity=80 time=0
note_on channel=0 note=68 velocity=0 time=32
note_on channel=0 note=77 velocity=0 time=0
note_on channel=0 note=74 velocity=0 time=0
note_on channel=0 note=70 velocity=0 time=0
note_on channel=0 note=77 velocity=80 time=16
note_on channel=0 note=74 velocity=80 time=0
note_on channel=0 note=70 velocity=80 time=0
note_on channel=0 note=68 velocity=80 time=0
note_on channel=0 note=68 velocity=0 time=64
note_on channel=0 note=77 velocity=0 time=0
note_on channel=0 note=74 velocity=0 time=0
note_on channel=0 note=70 velocity=0 time=0
note_on channel=0 note=77 velocity=80 time=32
note_on channel=0 note=74 velocity=80 time=0
note_on channel=0 note=70 velocity=80 time=0
note_on channel=0 note=68 velocity=80 time=0
note_on channel=0 note=68 velocity=0 time=32
note_on channel=0 note=77 velocity=0 time=0
note_on channel=0 note=74 velocity=0 time=0
note_on channel=0 note=70 velocity=0 time=0
note_on channel=0 note=75 velocity=80 time=16
note_on channel=0 note=70 velocity=80 time=0
note_on channel=0 note=67 velocity=80 time=0
note_on channel=0 note=67 velocity=0 time=64
note_on channel=0 note=70 velocity=0 time=0
note_on channel=0 note=75 velocity=0 time=0
note_on channel=0 note=66 velocity=80 time=32
note_on channel=0 note=70 velocity=80 time=0
note_on channel=0 note=72 velocity=80 time=0
note_on channel=0 note=76 velocity=80 time=0
note_on channel=0 note=76 velocity=0 time=64
note_on channel=0 note=66 velocity=0 time=0
note_on channel=0 note=70 velocity=0 time=0
note_on channel=0 note=72 velocity=0 time=0
note_on channel=0 note=65 velocity=80 time=32
note_on channel=0 note=69 velocity=80 time=0
note_on channel=0 note=72 velocity=80 time=0
note_on channel=0 note=77 velocity=80 time=0
note_on channel=0 note=77 velocity=0 time=32
note_on channel=0 note=65 velocity=0 time=0
note_on channel=0 note=69 velocity=0 time=0
note_on channel=0 note=72 velocity=0 time=0
note_on channel=0 note=65 velocity=80 time=64
note_on channel=0 note=69 velocity=80 time=0
note_on channel=0 note=75 velocity=80 time=0
note_on channel=0 note=77 velocity=80 time=0
note_on channel=0 note=77 velocity=0 time=64
note_on channel=0 note=65 velocity=0 time=0
note_on channel=0 note=69 velocity=0 time=0
note_on channel=0 note=75 velocity=0 time=0
note_on channel=0 note=77 velocity=80 time=32
note_on channel=0 note=74 velocity=80 time=0
note_on channel=0 note=70 velocity=80 time=0
note_on channel=0 note=65 velocity=80 time=0
note_on channel=0 note=65 velocity=0 time=112
note_on channel=0 note=77 velocity=0 time=0
note_on channel=0 note=74 velocity=0 time=0
note_on channel=0 note=70 velocity=0 time=0
note_on channel=0 note=62 velocity=80 time=8
note_on channel=0 note=74 velocity=80 time=0
note_on channel=0 note=74 velocity=0 time=16
note_on channel=0 note=62 velocity=0 time=0
note_on channel=0 note=75 velocity=80 time=8
note_on channel=0 note=63 velocity=80 time=0
note_on channel=0 note=63 velocity=0 time=16
note_on channel=0 note=75 velocity=0 time=0
note_on channel=0 note=76 velocity=80 time=8
note_on channel=0 note=64 velocity=80 time=0
note_on channel=0 note=64 velocity=0 time=16
note_on channel=0 note=76 velocity=0 time=0
note_on channel=0 note=77 velocity=80 time=8
note_on channel=0 note=65 velocity=80 time=0
note_on channel=0 note=65 velocity=0 time=16
note_on channel=0 note=77 velocity=0 time=0
note_on channel=0 note=70 velocity=80 time=8
note_on channel=0 note=74 velocity=80 time=0
note_on channel=0 note=74 velocity=0 time=16
note_on channel=0 note=70 velocity=0 time=0
note_on channel=0 note=75 velocity=80 time=8
note_on channel=0 note=69 velocity=80 time=0
note_on channel=0 note=63 velocity=80 time=0
note_on channel=0 note=63 velocity=0 time=16
note_on channel=0 note=69 velocity=0 time=0
note_on channel=0 note=75 velocity=0 time=0
note_on channel=0 note=62 velocity=80 time=8
note_on channel=0 note=70 velocity=80 time=0
note_on channel=0 note=74 velocity=80 time=0
note_on channel=0 note=74 velocity=0 time=32
note_on channel=0 note=70 velocity=0 time=0
note_on channel=0 note=62 velocity=0 time=0
note_on channel=0 note=74 velocity=80 time=16
note_on channel=0 note=74 velocity=0 time=16
note_on channel=0 note=77 velocity=80 time=8
note_on channel=0 note=77 velocity=0 time=16
note_on channel=0 note=80 velocity=80 time=8
note_on channel=0 note=80 velocity=0 time=16
note_on channel=0 note=75 velocity=80 time=32
note_on channel=0 note=79 velocity=80 time=0
note_on channel=0 note=79 velocity=0 time=16
note_on channel=0 note=75 velocity=0 time=0
note_on channel=0 note=70 velocity=80 time=8
note_on channel=0 note=82 velocity=80 time=0
note_on channel=0 note=82 velocity=0 time=16
note_on channel=0 note=70 velocity=0 time=0
note_on channel=0 note=79 velocity=80 time=8
note_on channel=0 note=75 velocity=80 time=0
note_on channel=0 note=75 velocity=0 time=16
note_on channel=0 note=79 velocity=0 time=0
note_on channel=0 note=72 velocity=80 time=8
note_on channel=0 note=84 velocity=80 time=0
note_on channel=0 note=84 velocity=0 time=16
note_on channel=0 note=72 velocity=0 time=0
note_on channel=0 note=70 velocity=80 time=8
note_on channel=0 note=82 velocity=80 time=0
note_on channel=0 note=82 velocity=0 time=32
note_on channel=0 note=70 velocity=0 time=0
note_on channel=0 note=65 velocity=80 time=16
note_on channel=0 note=70 velocity=80 time=0
note_on channel=0 note=74 velocity=80 time=0
note_on channel=0 note=77 velocity=80 time=0
note_on channel=0 note=77 velocity=0 time=136
note_on channel=0 note=65 velocity=0 time=0
note_on channel=0 note=70 velocity=0 time=0
note_on channel=0 note=74 velocity=0 time=0
note_on channel=0 note=69 velocity=80 time=8
note_on channel=0 note=69 velocity=0 time=16
note_on channel=0 note=72 velocity=80 time=8
note_on channel=0 note=72 velocity=0 time=16
note_on channel=0 note=77 velocity=80 time=8
note_on channel=0 note=77 velocity=0 time=16
note_on channel=0 note=77 velocity=80 time=8
note_on channel=0 note=74 velocity=80 time=0
note_on channel=0 note=70 velocity=80 time=0
note_on channel=0 note=65 velocity=80 time=0
note_on channel=0 note=65 velocity=0 time=112
note_on channel=0 note=77 velocity=0 time=0
note_on channel=0 note=74 velocity=0 time=0
note_on channel=0 note=70 velocity=0 time=0
note_on channel=0 note=58 velocity=80 time=8
note_on channel=0 note=70 velocity=80 time=0
note_on channel=0 note=70 velocity=0 time=16
note_on channel=0 note=58 velocity=0 time=0
note_on channel=0 note=72 velocity=80 time=8
note_on channel=0 note=60 velocity=80 time=0
note_on channel=0 note=60 velocity=0 time=16
note_on channel=0 note=72 velocity=0 time=0
note_on channel=0 note=73 velocity=80 time=8
note_on channel=0 note=61 velocity=80 time=0
note_on channel=0 note=61 velocity=0 time=16
note_on channel=0 note=73 velocity=0 time=0
note_on channel=0 note=74 velocity=80 time=8
note_on channel=0 note=62 velocity=80 time=0
note_on channel=0 note=62 velocity=0 time=16
note_on channel=0 note=74 velocity=0 time=0
note_on channel=0 note=70 velocity=80 time=8
note_on channel=0 note=70 velocity=0 time=16
note_on channel=0 note=72 velocity=80 time=8
note_on channel=0 note=63 velocity=80 time=0
note_on channel=0 note=60 velocity=80 time=0
note_on channel=0 note=60 velocity=0 time=16
note_on channel=0 note=63 velocity=0 time=0
note_on channel=0 note=72 velocity=0 time=0
note_on channel=0 note=70 velocity=80 time=8
note_on channel=0 note=62 velocity=80 time=0
note_on channel=0 note=58 velocity=80 time=0
note_on channel=0 note=58 velocity=0 time=32
note_on channel=0 note=62 velocity=0 time=0
note_on channel=0 note=70 velocity=0 time=0
note_on channel=0 note=67 velocity=80 time=16
note_on channel=0 note=67 velocity=0 time=16
note_on channel=0 note=65 velocity=80 time=8
note_on channel=0 note=70 velocity=80 time=0
note_on channel=0 note=70 velocity=0 time=32
note_on channel=0 note=65 velocity=0 time=0
note_on channel=0 note=65 velocity=80 time=16
note_on channel=0 note=69 velocity=80 time=0
note_on channel=0 note=69 velocity=0 time=16
note_on channel=0 note=65 velocity=0 time=0
note_on channel=0 note=77 velocity=80 time=8
note_on channel=0 note=77 velocity=0 time=16
note_on channel=0 note=72 velocity=80 time=8
note_on channel=0 note=69 velocity=80 time=0
note_on channel=0 note=65 velocity=80 time=0
note_on channel=0 note=65 velocity=0 time=16
note_on channel=0 note=69 velocity=0 time=0
note_on channel=0 note=72 velocity=0 time=0
note_on channel=0 note=64 velocity=80 time=8
note_on channel=0 note=70 velocity=80 time=0
note_on channel=0 note=74 velocity=80 time=0
note_on channel=0 note=74 velocity=0 time=32
note_on channel=0 note=70 velocity=0 time=0
note_on channel=0 note=64 velocity=0 time=0
note_on channel=0 note=70 velocity=80 time=16
note_on channel=0 note=70 velocity=0 time=16
note_on channel=0 note=64 velocity=80 time=8
note_on channel=0 note=67 velocity=80 time=0
note_on channel=0 note=67 velocity=0 time=32
note_on channel=0 note=64 velocity=0 time=0
note_on channel=0 note=65 velocity=80 time=16
note_on channel=0 note=65 velocity=0 time=32
note_on channel=0 note=72 velocity=80 time=16
note_on channel=0 note=72 velocity=0 time=16
note_on channel=0 note=77 velocity=80 time=8
note_on channel=0 note=77 velocity=0 time=32
note_on channel=0 note=69 velocity=80 time=16
note_on channel=0 note=69 velocity=0 time=16
note_on channel=0 note=72 velocity=80 time=8
note_on channel=0 note=72 velocity=0 time=16
note_on channel=0 note=77 velocity=80 time=8
note_on channel=0 note=77 velocity=0 time=16
note_on channel=0 note=77 velocity=80 time=8
note_on channel=0 note=74 velocity=80 time=0
note_on channel=0 note=70 velocity=80 time=0
note_on channel=0 note=65 velocity=80 time=0
note_on channel=0 note=65 velocity=0 time=112
note_on channel=0 note=77 velocity=0 time=0
note_on channel=0 note=74 velocity=0 time=0
note_on channel=0 note=70 velocity=0 time=0
note_on channel=0 note=62 velocity=80 time=8
note_on channel=0 note=74 velocity=80 time=0
note_on channel=0 note=74 velocity=0 time=16
note_on channel=0 note=62 velocity=0 time=0
note_on channel=0 note=75 velocity=80 time=8
note_on channel=0 note=63 velocity=80 time=0
note_on channel=0 note=63 velocity=0 time=16
note_on channel=0 note=75 velocity=0 time=0
note_on channel=0 note=76 velocity=80 time=8
note_on channel=0 note=64 velocity=80 time=0
note_on channel=0 note=64 velocity=0 time=16
note_on channel=0 note=76 velocity=0 time=0
note_on channel=0 note=77 velocity=80 time=8
note_on channel=0 note=65 velocity=80 time=0
note_on channel=0 note=65 velocity=0 time=16
note_on channel=0 note=77 velocity=0 time=0
note_on channel=0 note=70 velocity=80 time=8
note_on channel=0 note=74 velocity=80 time=0
note_on channel=0 note=74 velocity=0 time=16
note_on channel=0 note=70 velocity=0 time=0
note_on channel=0 note=75 velocity=80 time=8
note_on channel=0 note=69 velocity=80 time=0
note_on channel=0 note=63 velocity=80 time=0
note_on channel=0 note=63 velocity=0 time=16
note_on channel=0 note=69 velocity=0 time=0
note_on channel=0 note=75 velocity=0 time=0
note_on channel=0 note=62 velocity=80 time=8
note_on channel=0 note=70 velocity=80 time=0
note_on channel=0 note=74 velocity=80 time=0
note_on channel=0 note=74 velocity=0 time=32
note_on channel=0 note=70 velocity=0 time=0
note_on channel=0 note=62 velocity=0 time=0
note_on channel=0 note=74 velocity=80 time=16
note_on channel=0 note=74 velocity=0 time=16
note_on channel=0 note=77 velocity=80 time=8
note_on channel=0 note=77 velocity=0 time=16
note_on channel=0 note=80 velocity=80 time=8
note_on channel=0 note=80 velocity=0 time=16
note_on channel=0 note=75 velocity=80 time=32
note_on channel=0 note=79 velocity=80 time=0
note_on channel=0 note=79 velocity=0 time=16
note_on channel=0 note=75 velocity=0 time=0
note_on channel=0 note=70 velocity=80 time=8
note_on channel=0 note=82 velocity=80 time=0
note_on channel=0 note=82 velocity=0 time=16
note_on channel=0 note=70 velocity=0 time=0
note_on channel=0 note=79 velocity=80 time=8
note_on channel=0 note=75 velocity=80 time=0
note_on channel=0 note=75 velocity=0 time=16
note_on channel=0 note=79 velocity=0 time=0
note_on channel=0 note=72 velocity=80 time=8
note_on channel=0 note=84 velocity=80 time=0
note_on channel=0 note=84 velocity=0 time=16
note_on channel=0 note=72 velocity=0 time=0
note_on channel=0 note=70 velocity=80 time=8
note_on channel=0 note=82 velocity=80 time=0
note_on channel=0 note=82 velocity=0 time=32
note_on channel=0 note=70 velocity=0 time=0
note_on channel=0 note=77 velocity=80 time=16
note_on channel=0 note=74 velocity=80 time=0
note_on channel=0 note=70 velocity=80 time=0
note_on channel=0 note=65 velocity=80 time=0
note_on channel=0 note=65 velocity=0 time=32
note_on channel=0 note=77 velocity=0 time=0
note_on channel=0 note=74 velocity=0 time=0
note_on channel=0 note=70 velocity=0 time=0
note_on channel=0 note=74 velocity=80 time=16
note_on channel=0 note=74 velocity=0 time=16
note_on channel=0 note=77 velocity=80 time=8
note_on channel=0 note=77 velocity=0 time=16
note_on channel=0 note=65 velocity=80 time=8
note_on channel=0 note=65 velocity=0 time=16
note_on channel=0 note=70 velocity=80 time=8
note_on channel=0 note=70 velocity=0 time=16
note_on channel=0 note=74 velocity=80 time=8
note_on channel=0 note=74 velocity=0 time=16
note_on channel=0 note=77 velocity=80 time=8
note_on channel=0 note=77 velocity=0 time=16
note_on channel=0 note=80 velocity=80 time=8
note_on channel=0 note=80 velocity=0 time=16
note_on channel=0 note=75 velocity=80 time=32
note_on channel=0 note=79 velocity=80 time=0
note_on channel=0 note=79 velocity=0 time=16
note_on channel=0 note=75 velocity=0 time=0
note_on channel=0 note=82 velocity=80 time=8
note_on channel=0 note=70 velocity=80 time=0
note_on channel=0 note=70 velocity=0 time=16
note_on channel=0 note=82 velocity=0 time=0
note_on channel=0 note=75 velocity=80 time=8
note_on channel=0 note=79 velocity=80 time=0
note_on channel=0 note=79 velocity=0 time=16
note_on channel=0 note=75 velocity=0 time=0
note_on channel=0 note=72 velocity=80 time=8
note_on channel=0 note=84 velocity=80 time=0
note_on channel=0 note=84 velocity=0 time=16
note_on channel=0 note=72 velocity=0 time=0
note_on channel=0 note=70 velocity=80 time=8
note_on channel=0 note=82 velocity=80 time=0
note_on channel=0 note=82 velocity=0 time=32
note_on channel=0 note=70 velocity=0 time=0
note_on channel=0 note=65 velocity=80 time=16
note_on channel=0 note=70 velocity=80 time=0
note_on channel=0 note=74 velocity=80 time=0
note_on channel=0 note=77 velocity=80 time=0
note_on channel=0 note=77 velocity=0 time=32
note_on channel=0 note=65 velocity=0 time=0
note_on channel=0 note=70 velocity=0 time=0
note_on channel=0 note=74 velocity=0 time=0
note_on channel=0 note=70 velocity=80 time=16
note_on channel=0 note=74 velocity=80 time=0
note_on channel=0 note=74 velocity=0 time=16
note_on channel=0 note=70 velocity=0 time=0
note_on channel=0 note=65 velocity=80 time=8
note_on channel=0 note=70 velocity=80 time=0
note_on channel=0 note=74 velocity=80 time=0
note_on channel=0 note=77 velocity=80 time=0
note_on channel=0 note=77 velocity=0 time=16
note_on channel=0 note=65 velocity=0 time=0
note_on channel=0 note=70 velocity=0 time=0
note_on channel=0 note=74 velocity=0 time=0
note_on channel=0 note=67 velocity=80 time=8
note_on channel=0 note=71 velocity=80 time=0
note_on channel=0 note=74 velocity=80 time=0
note_on channel=0 note=79 velocity=80 time=0
note_on channel=0 note=79 velocity=0 time=32
note_on channel=0 note=67 velocity=0 time=0
note_on channel=0 note=71 velocity=0 time=0
note_on channel=0 note=74 velocity=0 time=0
note_on channel=0 note=74 velocity=80 time=16
note_on channel=0 note=74 velocity=0 time=16
note_on channel=0 note=71 velocity=80 time=8
note_on channel=0 note=71 velocity=0 time=16
note_on channel=0 note=67 velocity=80 time=8
note_on channel=0 note=67 velocity=0 time=16
note_on channel=0 note=64 velocity=80 time=8
note_on channel=0 note=72 velocity=80 time=0
note_on channel=0 note=72 velocity=0 time=16
note_on channel=0 note=67 velocity=80 time=8
note_on channel=0 note=64 velocity=0 time=8
note_on channel=0 note=67 velocity=0 time=8
note_on channel=0 note=70 velocity=80 time=8
note_on channel=0 note=70 velocity=0 time=32
note_on channel=0 note=69 velocity=80 time=16
note_on channel=0 note=69 velocity=0 time=16
note_on channel=0 note=77 velocity=80 time=8
note_on channel=0 note=77 velocity=0 time=16
note_on channel=0 note=75 velocity=80 time=8
note_on channel=0 note=75 velocity=0 time=16
note_on channel=0 note=72 velocity=80 time=8
note_on channel=0 note=72 velocity=0 time=16
note_on channel=0 note=70 velocity=80 time=8
note_on channel=0 note=70 velocity=0 time=64
note_on channel=0 note=77 velocity=80 time=128
note_on channel=0 note=74 velocity=80 time=0
note_on channel=0 note=70 velocity=80 time=0
note_on channel=0 note=65 velocity=80 time=0
note_on channel=0 note=65 velocity=0 time=112
note_on channel=0 note=77 velocity=0 time=0
note_on channel=0 note=74 velocity=0 time=0
note_on channel=0 note=70 velocity=0 time=0
note_on channel=0 note=62 velocity=80 time=8
note_on channel=0 note=74 velocity=80 time=0
note_on channel=0 note=74 velocity=0 time=16
note_on channel=0 note=62 velocity=0 time=0
note_on channel=0 note=75 velocity=80 time=8
note_on channel=0 note=63 velocity=80 time=0
note_on channel=0 note=63 velocity=0 time=16
note_on channel=0 note=75 velocity=0 time=0
note_on channel=0 note=76 velocity=80 time=8
note_on channel=0 note=64 velocity=80 time=0
note_on channel=0 note=64 velocity=0 time=16
note_on channel=0 note=76 velocity=0 time=0
note_on channel=0 note=77 velocity=80 time=8
note_on channel=0 note=65 velocity=80 time=0
note_on channel=0 note=65 velocity=0 time=16
note_on channel=0 note=77 velocity=0 time=0
note_on channel=0 note=70 velocity=80 time=8
note_on channel=0 note=74 velocity=80 time=0
note_on channel=0 note=74 velocity=0 time=16
note_on channel=0 note=70 velocity=0 time=0
note_on channel=0 note=75 velocity=80 time=8
note_on channel=0 note=69 velocity=80 time=0
note_on channel=0 note=63 velocity=80 time=0
note_on channel=0 note=63 velocity=0 time=16
note_on channel=0 note=69 velocity=0 time=0
note_on channel=0 note=75 velocity=0 time=0
note_on channel=0 note=62 velocity=80 time=8
note_on channel=0 note=70 velocity=80 time=0
note_on channel=0 note=74 velocity=80 time=0
note_on channel=0 note=74 velocity=0 time=32
note_on channel=0 note=70 velocity=0 time=0
note_on channel=0 note=62 velocity=0 time=0
note_on channel=0 note=74 velocity=80 time=16
note_on channel=0 note=74 velocity=0 time=16
note_on channel=0 note=77 velocity=80 time=8
note_on channel=0 note=77 velocity=0 time=16
note_on channel=0 note=80 velocity=80 time=8
note_on channel=0 note=80 velocity=0 time=16
note_on channel=0 note=75 velocity=80 time=32
note_on channel=0 note=79 velocity=80 time=0
note_on channel=0 note=79 velocity=0 time=16
note_on channel=0 note=75 velocity=0 time=0
note_on channel=0 note=70 velocity=80 time=8
note_on channel=0 note=82 velocity=80 time=0
note_on channel=0 note=82 velocity=0 time=16
note_on channel=0 note=70 velocity=0 time=0
note_on channel=0 note=79 velocity=80 time=8
note_on channel=0 note=75 velocity=80 time=0
note_on channel=0 note=75 velocity=0 time=16
note_on channel=0 note=79 velocity=0 time=0
note_on channel=0 note=72 velocity=80 time=8
note_on channel=0 note=84 velocity=80 time=0
note_on channel=0 note=84 velocity=0 time=16
note_on channel=0 note=72 velocity=0 time=0
note_on channel=0 note=70 velocity=80 time=8
note_on channel=0 note=82 velocity=80 time=0
note_on channel=0 note=82 velocity=0 time=32
note_on channel=0 note=70 velocity=0 time=0
note_on channel=0 note=65 velocity=80 time=16
note_on channel=0 note=70 velocity=80 time=0
note_on channel=0 note=74 velocity=80 time=0
note_on channel=0 note=77 velocity=80 time=0
note_on channel=0 note=77 velocity=0 time=136
note_on channel=0 note=65 velocity=0 time=0
note_on channel=0 note=70 velocity=0 time=0
note_on channel=0 note=74 velocity=0 time=0
note_on channel=0 note=69 velocity=80 time=8
note_on channel=0 note=69 velocity=0 time=16
note_on channel=0 note=72 velocity=80 time=8
note_on channel=0 note=72 velocity=0 time=16
note_on channel=0 note=77 velocity=80 time=8
note_on channel=0 note=77 velocity=0 time=16
note_on channel=0 note=77 velocity=80 time=8
note_on channel=0 note=74 velocity=80 time=0
note_on channel=0 note=70 velocity=80 time=0
note_on channel=0 note=65 velocity=80 time=0
note_on channel=0 note=65 velocity=0 time=112
note_on channel=0 note=77 velocity=0 time=0
note_on channel=0 note=74 velocity=0 time=0
note_on channel=0 note=70 velocity=0 time=0
note_on channel=0 note=58 velocity=80 time=8
note_on channel=0 note=70 velocity=80 time=0
note_on channel=0 note=70 velocity=0 time=16
note_on channel=0 note=58 velocity=0 time=0
note_on channel=0 note=72 velocity=80 time=8
note_on channel=0 note=60 velocity=80 time=0
note_on channel=0 note=60 velocity=0 time=16
note_on channel=0 note=72 velocity=0 time=0
note_on channel=0 note=73 velocity=80 time=8
note_on channel=0 note=61 velocity=80 time=0
note_on channel=0 note=61 velocity=0 time=16
note_on channel=0 note=73 velocity=0 time=0
note_on channel=0 note=74 velocity=80 time=8
note_on channel=0 note=62 velocity=80 time=0
note_on channel=0 note=62 velocity=0 time=16
note_on channel=0 note=74 velocity=0 time=0
note_on channel=0 note=70 velocity=80 time=8
note_on channel=0 note=70 velocity=0 time=16
note_on channel=0 note=72 velocity=80 time=8
note_on channel=0 note=63 velocity=80 time=0
note_on channel=0 note=60 velocity=80 time=0
note_on channel=0 note=60 velocity=0 time=16
note_on channel=0 note=63 velocity=0 time=0
note_on channel=0 note=72 velocity=0 time=0
note_on channel=0 note=70 velocity=80 time=8
note_on channel=0 note=62 velocity=80 time=0
note_on channel=0 note=58 velocity=80 time=0
note_on channel=0 note=58 velocity=0 time=32
note_on channel=0 note=62 velocity=0 time=0
note_on channel=0 note=70 velocity=0 time=0
note_on channel=0 note=67 velocity=80 time=16
note_on channel=0 note=67 velocity=0 time=16
note_on channel=0 note=65 velocity=80 time=8
note_on channel=0 note=70 velocity=80 time=0
note_on channel=0 note=70 velocity=0 time=32
note_on channel=0 note=65 velocity=0 time=0
note_on channel=0 note=65 velocity=80 time=16
note_on channel=0 note=69 velocity=80 time=0
note_on channel=0 note=69 velocity=0 time=16
note_on channel=0 note=65 velocity=0 time=0
note_on channel=0 note=77 velocity=80 time=8
note_on channel=0 note=77 velocity=0 time=16
note_on channel=0 note=72 velocity=80 time=8
note_on channel=0 note=69 velocity=80 time=0
note_on channel=0 note=65 velocity=80 time=0
note_on channel=0 note=65 velocity=0 time=16
note_on channel=0 note=69 velocity=0 time=0
note_on channel=0 note=72 velocity=0 time=0
note_on channel=0 note=64 velocity=80 time=8
note_on channel=0 note=70 velocity=80 time=0
note_on channel=0 note=74 velocity=80 time=0
note_on channel=0 note=74 velocity=0 time=32
note_on channel=0 note=70 velocity=0 time=0
note_on channel=0 note=64 velocity=0 time=0
note_on channel=0 note=70 velocity=80 time=16
note_on channel=0 note=70 velocity=0 time=16
note_on channel=0 note=64 velocity=80 time=8
note_on channel=0 note=67 velocity=80 time=0
note_on channel=0 note=67 velocity=0 time=32
note_on channel=0 note=64 velocity=0 time=0
note_on channel=0 note=65 velocity=80 time=16
note_on channel=0 note=65 velocity=0 time=32
note_on channel=0 note=72 velocity=80 time=16
note_on channel=0 note=72 velocity=0 time=16
note_on channel=0 note=77 velocity=80 time=8
note_on channel=0 note=77 velocity=0 time=32
note_on channel=0 note=69 velocity=80 time=16
note_on channel=0 note=69 velocity=0 time=16
note_on channel=0 note=72 velocity=80 time=8
note_on channel=0 note=72 velocity=0 time=16
note_on channel=0 note=77 velocity=80 time=8
note_on channel=0 note=77 velocity=0 time=16
note_on channel=0 note=77 velocity=80 time=8
note_on channel=0 note=74 velocity=80 time=0
note_on channel=0 note=70 velocity=80 time=0
note_on channel=0 note=65 velocity=80 time=0
note_on channel=0 note=65 velocity=0 time=112
note_on channel=0 note=77 velocity=0 time=0
note_on channel=0 note=74 velocity=0 time=0
note_on channel=0 note=70 velocity=0 time=0
note_on channel=0 note=62 velocity=80 time=8
note_on channel=0 note=74 velocity=80 time=0
note_on channel=0 note=74 velocity=0 time=16
note_on channel=0 note=62 velocity=0 time=0
note_on channel=0 note=75 velocity=80 time=8
note_on channel=0 note=63 velocity=80 time=0
note_on channel=0 note=63 velocity=0 time=16
note_on channel=0 note=75 velocity=0 time=0
note_on channel=0 note=76 velocity=80 time=8
note_on channel=0 note=64 velocity=80 time=0
note_on channel=0 note=64 velocity=0 time=16
note_on channel=0 note=76 velocity=0 time=0
note_on channel=0 note=77 velocity=80 time=8
note_on channel=0 note=65 velocity=80 time=0
note_on channel=0 note=65 velocity=0 time=16
note_on channel=0 note=77 velocity=0 time=0
note_on channel=0 note=70 velocity=80 time=8
note_on channel=0 note=74 velocity=80 time=0
note_on channel=0 note=74 velocity=0 time=16
note_on channel=0 note=70 velocity=0 time=0
note_on channel=0 note=75 velocity=80 time=8
note_on channel=0 note=69 velocity=80 time=0
note_on channel=0 note=63 velocity=80 time=0
note_on channel=0 note=63 velocity=0 time=16
note_on channel=0 note=69 velocity=0 time=0
note_on channel=0 note=75 velocity=0 time=0
note_on channel=0 note=62 velocity=80 time=8
note_on channel=0 note=70 velocity=80 time=0
note_on channel=0 note=74 velocity=80 time=0
note_on channel=0 note=74 velocity=0 time=32
note_on channel=0 note=70 velocity=0 time=0
note_on channel=0 note=62 velocity=0 time=0
note_on channel=0 note=74 velocity=80 time=16
note_on channel=0 note=74 velocity=0 time=16
note_on channel=0 note=77 velocity=80 time=8
note_on channel=0 note=77 velocity=0 time=16
note_on channel=0 note=80 velocity=80 time=8
note_on channel=0 note=80 velocity=0 time=16
note_on channel=0 note=75 velocity=80 time=32
note_on channel=0 note=79 velocity=80 time=0
note_on channel=0 note=79 velocity=0 time=16
note_on channel=0 note=75 velocity=0 time=0
note_on channel=0 note=70 velocity=80 time=8
note_on channel=0 note=82 velocity=80 time=0
note_on channel=0 note=82 velocity=0 time=16
note_on channel=0 note=70 velocity=0 time=0
note_on channel=0 note=79 velocity=80 time=8
note_on channel=0 note=75 velocity=80 time=0
note_on channel=0 note=75 velocity=0 time=16
note_on channel=0 note=79 velocity=0 time=0
note_on channel=0 note=72 velocity=80 time=8
note_on channel=0 note=84 velocity=80 time=0
note_on channel=0 note=84 velocity=0 time=16
note_on channel=0 note=72 velocity=0 time=0
note_on channel=0 note=70 velocity=80 time=8
note_on channel=0 note=82 velocity=80 time=0
note_on channel=0 note=82 velocity=0 time=32
note_on channel=0 note=70 velocity=0 time=0
note_on channel=0 note=77 velocity=80 time=16
note_on channel=0 note=74 velocity=80 time=0
note_on channel=0 note=70 velocity=80 time=0
note_on channel=0 note=65 velocity=80 time=0
note_on channel=0 note=65 velocity=0 time=32
note_on channel=0 note=77 velocity=0 time=0
note_on channel=0 note=74 velocity=0 time=0
note_on channel=0 note=70 velocity=0 time=0
note_on channel=0 note=74 velocity=80 time=16
note_on channel=0 note=74 velocity=0 time=16
note_on channel=0 note=77 velocity=80 time=8
note_on channel=0 note=77 velocity=0 time=16
note_on channel=0 note=65 velocity=80 time=8
note_on channel=0 note=65 velocity=0 time=16
note_on channel=0 note=70 velocity=80 time=8
note_on channel=0 note=70 velocity=0 time=16
note_on channel=0 note=74 velocity=80 time=8
note_on channel=0 note=74 velocity=0 time=16
note_on channel=0 note=77 velocity=80 time=8
note_on channel=0 note=77 velocity=0 time=16
note_on channel=0 note=80 velocity=80 time=8
note_on channel=0 note=80 velocity=0 time=16
note_on channel=0 note=75 velocity=80 time=32
note_on channel=0 note=79 velocity=80 time=0
note_on channel=0 note=79 velocity=0 time=16
note_on channel=0 note=75 velocity=0 time=0
note_on channel=0 note=82 velocity=80 time=8
note_on channel=0 note=70 velocity=80 time=0
note_on channel=0 note=70 velocity=0 time=16
note_on channel=0 note=82 velocity=0 time=0
note_on channel=0 note=75 velocity=80 time=8
note_on channel=0 note=79 velocity=80 time=0
note_on channel=0 note=79 velocity=0 time=16
note_on channel=0 note=75 velocity=0 time=0
note_on channel=0 note=72 velocity=80 time=8
note_on channel=0 note=84 velocity=80 time=0
note_on channel=0 note=84 velocity=0 time=16
note_on channel=0 note=72 velocity=0 time=0
note_on channel=0 note=70 velocity=80 time=8
note_on channel=0 note=82 velocity=80 time=0
note_on channel=0 note=82 velocity=0 time=32
note_on channel=0 note=70 velocity=0 time=0
note_on channel=0 note=65 velocity=80 time=16
note_on channel=0 note=70 velocity=80 time=0
note_on channel=0 note=74 velocity=80 time=0
note_on channel=0 note=77 velocity=80 time=0
note_on channel=0 note=77 velocity=0 time=32
note_on channel=0 note=65 velocity=0 time=0
note_on channel=0 note=70 velocity=0 time=0
note_on channel=0 note=74 velocity=0 time=0
note_on channel=0 note=70 velocity=80 time=16
note_on channel=0 note=74 velocity=80 time=0
note_on channel=0 note=74 velocity=0 time=16
note_on channel=0 note=70 velocity=0 time=0
note_on channel=0 note=65 velocity=80 time=8
note_on channel=0 note=70 velocity=80 time=0
note_on channel=0 note=74 velocity=80 time=0
note_on channel=0 note=77 velocity=80 time=0
note_on channel=0 note=77 velocity=0 time=16
note_on channel=0 note=65 velocity=0 time=0
note_on channel=0 note=70 velocity=0 time=0
note_on channel=0 note=74 velocity=0 time=0
note_on channel=0 note=67 velocity=80 time=8
note_on channel=0 note=71 velocity=80 time=0
note_on channel=0 note=74 velocity=80 time=0
note_on channel=0 note=79 velocity=80 time=0
note_on channel=0 note=79 velocity=0 time=32
note_on channel=0 note=67 velocity=0 time=0
note_on channel=0 note=71 velocity=0 time=0
note_on channel=0 note=74 velocity=0 time=0
note_on channel=0 note=74 velocity=80 time=16
note_on channel=0 note=74 velocity=0 time=16
note_on channel=0 note=71 velocity=80 time=8
note_on channel=0 note=71 velocity=0 time=16
note_on channel=0 note=67 velocity=80 time=8
note_on channel=0 note=67 velocity=0 time=16
note_on channel=0 note=64 velocity=80 time=8
note_on channel=0 note=72 velocity=80 time=0
note_on channel=0 note=72 velocity=0 time=16
note_on channel=0 note=67 velocity=80 time=8
note_on channel=0 note=64 velocity=0 time=8
note_on channel=0 note=67 velocity=0 time=8
note_on channel=0 note=70 velocity=80 time=8
note_on channel=0 note=70 velocity=0 time=32
note_on channel=0 note=69 velocity=80 time=16
note_on channel=0 note=69 velocity=0 time=16
note_on channel=0 note=77 velocity=80 time=8
note_on channel=0 note=77 velocity=0 time=16
note_on channel=0 note=75 velocity=80 time=8
note_on channel=0 note=75 velocity=0 time=16
note_on channel=0 note=72 velocity=80 time=8
note_on channel=0 note=72 velocity=0 time=16
note_on channel=0 note=70 velocity=80 time=8
note_on channel=0 note=70 velocity=0 time=64
note_on channel=0 note=70 velocity=80 time=32
note_on channel=0 note=74 velocity=80 time=0
note_on channel=0 note=82 velocity=80 time=0
note_on channel=0 note=82 velocity=0 time=32
note_on channel=0 note=74 velocity=0 time=0
note_on channel=0 note=70 velocity=0 time=0
note_on channel=0 note=67 velocity=80 time=64
note_on channel=0 note=70 velocity=80 time=0
note_on channel=0 note=70 velocity=0 time=16
note_on channel=0 note=67 velocity=0 time=0
note_on channel=0 note=67 velocity=80 time=8
note_on channel=0 note=70 velocity=80 time=0
note_on channel=0 note=70 velocity=0 time=32
note_on channel=0 note=67 velocity=0 time=0
note_on channel=0 note=68 velocity=80 time=16
note_on channel=0 note=65 velocity=80 time=0
note_on channel=0 note=65 velocity=0 time=16
note_on channel=0 note=68 velocity=0 time=0
note_on channel=0 note=67 velocity=80 time=8
note_on channel=0 note=67 velocity=0 time=16
note_on channel=0 note=66 velocity=80 time=8
note_on channel=0 note=66 velocity=0 time=16
note_on channel=0 note=67 velocity=80 time=8
note_on channel=0 note=67 velocity=0 time=16
note_on channel=0 note=70 velocity=80 time=8
note_on channel=0 note=70 velocity=0 time=16
note_on channel=0 note=75 velocity=80 time=8
note_on channel=0 note=67 velocity=80 time=0
note_on channel=0 note=67 velocity=0 time=32
note_on channel=0 note=75 velocity=0 time=0
note_on channel=0 note=82 velocity=80 time=16
note_on channel=0 note=79 velocity=80 time=0
note_on channel=0 note=75 velocity=80 time=0
note_on channel=0 note=75 velocity=0 time=16
note_on channel=0 note=79 velocity=0 time=0
note_on channel=0 note=82 velocity=0 time=0
note_on channel=0 note=79 velocity=80 time=8
note_on channel=0 note=75 velocity=80 time=0
note_on channel=0 note=75 velocity=0 time=32
note_on channel=0 note=79 velocity=0 time=0
note_on channel=0 note=79 velocity=80 time=16
note_on channel=0 note=84 velocity=80 time=0
note_on channel=0 note=75 velocity=80 time=0
note_on channel=0 note=75 velocity=0 time=16
note_on channel=0 note=84 velocity=0 time=0
note_on channel=0 note=79 velocity=0 time=0
note_on channel=0 note=82 velocity=80 time=8
note_on channel=0 note=79 velocity=80 time=0
note_on channel=0 note=75 velocity=80 time=0
note_on channel=0 note=75 velocity=0 time=32
note_on channel=0 note=79 velocity=0 time=0
note_on channel=0 note=82 velocity=0 time=0
note_on channel=0 note=67 velocity=80 time=16
note_on channel=0 note=70 velocity=80 time=0
note_on channel=0 note=70 velocity=0 time=16
note_on channel=0 note=67 velocity=0 time=0
note_on channel=0 note=67 velocity=80 time=8
note_on channel=0 note=70 velocity=80 time=0
note_on channel=0 note=70 velocity=0 time=32
note_on channel=0 note=67 velocity=0 time=0
note_on channel=0 note=68 velocity=80 time=16
note_on channel=0 note=65 velocity=80 time=0
note_on channel=0 note=65 velocity=0 time=16
note_on channel=0 note=68 velocity=0 time=0
note_on channel=0 note=67 velocity=80 time=8
note_on channel=0 note=67 velocity=0 time=16
note_on channel=0 note=66 velocity=80 time=8
note_on channel=0 note=66 velocity=0 time=16
note_on channel=0 note=67 velocity=80 time=8
note_on channel=0 note=67 velocity=0 time=16
note_on channel=0 note=70 velocity=80 time=8
note_on channel=0 note=70 velocity=0 time=16
note_on channel=0 note=75 velocity=80 time=8
note_on channel=0 note=67 velocity=80 time=0
note_on channel=0 note=67 velocity=0 time=32
note_on channel=0 note=75 velocity=0 time=0
note_on channel=0 note=82 velocity=80 time=16
note_on channel=0 note=79 velocity=80 time=0
note_on channel=0 note=75 velocity=80 time=0
note_on channel=0 note=75 velocity=0 time=16
note_on channel=0 note=79 velocity=0 time=0
note_on channel=0 note=82 velocity=0 time=0
note_on channel=0 note=79 velocity=80 time=8
note_on channel=0 note=75 velocity=80 time=0
note_on channel=0 note=75 velocity=0 time=32
note_on channel=0 note=79 velocity=0 time=0
note_on channel=0 note=79 velocity=80 time=16
note_on channel=0 note=84 velocity=80 time=0
note_on channel=0 note=75 velocity=80 time=0
note_on channel=0 note=75 velocity=0 time=16
note_on channel=0 note=84 velocity=0 time=0
note_on channel=0 note=79 velocity=0 time=0
note_on channel=0 note=73 velocity=80 time=8
note_on channel=0 note=79 velocity=80 time=0
note_on channel=0 note=82 velocity=80 time=0
note_on channel=0 note=82 velocity=0 time=32
note_on channel=0 note=79 velocity=0 time=0
note_on channel=0 note=73 velocity=0 time=0
note_on channel=0 note=80 velocity=80 time=16
note_on channel=0 note=74 velocity=80 time=0
note_on channel=0 note=74 velocity=0 time=16
note_on channel=0 note=80 velocity=0 time=0
note_on channel=0 note=80 velocity=80 time=8
note_on channel=0 note=74 velocity=80 time=0
note_on channel=0 note=74 velocity=0 time=32
note_on channel=0 note=80 velocity=0 time=0
note_on channel=0 note=79 velocity=80 time=16
note_on channel=0 note=74 velocity=80 time=0
note_on channel=0 note=74 velocity=0 time=16
note_on channel=0 note=79 velocity=0 time=0
note_on channel=0 note=74 velocity=80 time=8
note_on channel=0 note=77 velocity=80 time=0
note_on channel=0 note=77 velocity=0 time=16
note_on channel=0 note=76 velocity=80 time=8
note_on channel=0 note=76 velocity=0 time=16
note_on channel=0 note=77 velocity=80 time=8
note_on channel=0 note=77 velocity=0 time=16
note_on channel=0 note=74 velocity=0 time=0
note_on channel=0 note=78 velocity=80 time=8
note_on channel=0 note=78 velocity=0 time=16
note_on channel=0 note=67 velocity=80 time=8
note_on channel=0 note=75 velocity=80 time=0
note_on channel=0 note=79 velocity=80 time=0
note_on channel=0 note=79 velocity=0 time=16
note_on channel=0 note=75 velocity=0 time=0
note_on channel=0 note=67 velocity=0 time=0
note_on channel=0 note=80 velocity=80 time=8
note_on channel=0 note=68 velocity=80 time=0
note_on channel=0 note=68 velocity=0 time=16
note_on channel=0 note=80 velocity=0 time=0
note_on channel=0 note=70 velocity=80 time=8
note_on channel=0 note=82 velocity=80 time=0
note_on channel=0 note=82 velocity=0 time=16
note_on channel=0 note=70 velocity=0 time=0
note_on channel=0 note=84 velocity=80 time=8
note_on channel=0 note=72 velocity=80 time=0
note_on channel=0 note=72 velocity=0 time=32
note_on channel=0 note=84 velocity=0 time=0
note_on channel=0 note=86 velocity=80 time=16
note_on channel=0 note=74 velocity=80 time=0
note_on channel=0 note=74 velocity=0 time=16
note_on channel=0 note=86 velocity=0 time=0
note_on channel=0 note=87 velocity=80 time=8
note_on channel=0 note=75 velocity=80 time=0
note_on channel=0 note=75 velocity=0 time=32
note_on channel=0 note=87 velocity=0 time=0
note_on channel=0 note=74 velocity=80 time=16
note_on channel=0 note=86 velocity=80 time=0
note_on channel=0 note=86 velocity=0 time=16
note_on channel=0 note=74 velocity=0 time=0
note_on channel=0 note=87 velocity=80 time=8
note_on channel=0 note=75 velocity=80 time=0
note_on channel=0 note=75 velocity=0 time=16
note_on channel=0 note=87 velocity=0 time=0
note_on channel=0 note=76 velocity=80 time=8
note_on channel=0 note=88 velocity=80 time=0
note_on channel=0 note=88 velocity=0 time=16
note_on channel=0 note=76 velocity=0 time=0
note_on channel=0 note=89 velocity=80 time=8
note_on channel=0 note=77 velocity=80 time=0
note_on channel=0 note=77 velocity=0 time=32
note_on channel=0 note=89 velocity=0 time=0
note_on channel=0 note=77 velocity=80 time=16
note_on channel=0 note=77 velocity=0 time=16
note_on channel=0 note=75 velocity=80 time=8
note_on channel=0 note=84 velocity=80 time=0
note_on channel=0 note=84 velocity=0 time=32
note_on channel=0 note=75 velocity=0 time=0
note_on channel=0 note=74 velocity=80 time=16
note_on channel=0 note=82 velocity=80 time=0
note_on channel=0 note=82 velocity=0 time=96
note_on channel=0 note=74 velocity=0 time=0
note_on channel=0 note=68 velocity=80 time=48
note_on channel=0 note=70 velocity=80 time=0
note_on channel=0 note=70 velocity=0 time=32
note_on channel=0 note=68 velocity=0 time=0
note_on channel=0 note=67 velocity=80 time=16
note_on channel=0 note=70 velocity=80 time=0
note_on channel=0 note=70 velocity=0 time=16
note_on channel=0 note=67 velocity=0 time=0
note_on channel=0 note=67 velocity=80 time=8
note_on channel=0 note=70 velocity=80 time=0
note_on channel=0 note=70 velocity=0 time=32
note_on channel=0 note=67 velocity=0 time=0
note_on channel=0 note=68 velocity=80 time=16
note_on channel=0 note=65 velocity=80 time=0
note_on channel=0 note=65 velocity=0 time=16
note_on channel=0 note=68 velocity=0 time=0
note_on channel=0 note=67 velocity=80 time=8
note_on channel=0 note=67 velocity=0 time=16
note_on channel=0 note=66 velocity=80 time=8
note_on channel=0 note=66 velocity=0 time=16
note_on channel=0 note=67 velocity=80 time=8
note_on channel=0 note=67 velocity=0 time=16
note_on channel=0 note=70 velocity=80 time=8
note_on channel=0 note=70 velocity=0 time=16
note_on channel=0 note=75 velocity=80 time=8
note_on channel=0 note=67 velocity=80 time=0
note_on channel=0 note=67 velocity=0 time=32
note_on channel=0 note=75 velocity=0 time=0
note_on channel=0 note=82 velocity=80 time=16
note_on channel=0 note=79 velocity=80 time=0
note_on channel=0 note=75 velocity=80 time=0
note_on channel=0 note=75 velocity=0 time=16
note_on channel=0 note=79 velocity=0 time=0
note_on channel=0 note=82 velocity=0 time=0
note_on channel=0 note=79 velocity=80 time=8
note_on channel=0 note=75 velocity=80 time=0
note_on channel=0 note=75 velocity=0 time=32
note_on channel=0 note=79 velocity=0 time=0
note_on channel=0 note=79 velocity=80 time=16
note_on channel=0 note=84 velocity=80 time=0
note_on channel=0 note=75 velocity=80 time=0
note_on channel=0 note=75 velocity=0 time=16
note_on channel=0 note=84 velocity=0 time=0
note_on channel=0 note=79 velocity=0 time=0
note_on channel=0 note=82 velocity=80 time=8
note_on channel=0 note=79 velocity=80 time=0
note_on channel=0 note=75 velocity=80 time=0
note_on channel=0 note=75 velocity=0 time=32
note_on channel=0 note=79 velocity=0 time=0
note_on channel=0 note=82 velocity=0 time=0
note_on channel=0 note=71 velocity=80 time=16
note_on channel=0 note=79 velocity=80 time=0
note_on channel=0 note=79 velocity=0 time=16
note_on channel=0 note=71 velocity=0 time=0
note_on channel=0 note=71 velocity=80 time=8
note_on channel=0 note=79 velocity=80 time=0
note_on channel=0 note=79 velocity=0 time=32
note_on channel=0 note=71 velocity=0 time=0
note_on channel=0 note=79 velocity=80 time=16
note_on channel=0 note=71 velocity=80 time=0
note_on channel=0 note=71 velocity=0 time=16
note_on channel=0 note=79 velocity=0 time=0
note_on channel=0 note=71 velocity=80 time=8
note_on channel=0 note=80 velocity=80 time=0
note_on channel=0 note=80 velocity=0 time=16
note_on channel=0 note=79 velocity=80 time=8
note_on channel=0 note=79 velocity=0 time=16
note_on channel=0 note=74 velocity=80 time=8
note_on channel=0 note=74 velocity=0 time=16
note_on channel=0 note=71 velocity=0 time=0
note_on channel=0 note=77 velocity=80 time=8
note_on channel=0 note=77 velocity=0 time=16
note_on channel=0 note=72 velocity=80 time=8
note_on channel=0 note=75 velocity=80 time=0
note_on channel=0 note=75 velocity=0 time=16
note_on channel=0 note=72 velocity=0 time=0
note_on channel=0 note=77 velocity=80 time=8
note_on channel=0 note=77 velocity=0 time=16
note_on channel=0 note=79 velocity=80 time=8
note_on channel=0 note=79 velocity=0 time=16
note_on channel=0 note=84 velocity=80 time=8
note_on channel=0 note=84 velocity=0 time=32
note_on channel=0 note=79 velocity=80 time=16
note_on channel=0 note=79 velocity=0 time=16
note_on channel=0 note=84 velocity=80 time=8
note_on channel=0 note=84 velocity=0 time=32
note_on channel=0 note=80 velocity=80 time=40
note_on channel=0 note=80 velocity=0 time=16
note_on channel=0 note=79 velocity=80 time=8
note_on channel=0 note=79 velocity=0 time=16
note_on channel=0 note=77 velocity=80 time=8
note_on channel=0 note=77 velocity=0 time=16
note_on channel=0 note=80 velocity=80 time=8
note_on channel=0 note=80 velocity=0 time=16
note_on channel=0 note=84 velocity=80 time=8
note_on channel=0 note=84 velocity=0 time=32
note_on channel=0 note=80 velocity=80 time=16
note_on channel=0 note=80 velocity=0 time=16
note_on channel=0 note=79 velocity=80 time=8
note_on channel=0 note=79 velocity=0 time=16
note_on channel=0 note=75 velocity=80 time=8
note_on channel=0 note=75 velocity=0 time=16
note_on channel=0 note=79 velocity=80 time=8
note_on channel=0 note=79 velocity=0 time=32
note_on channel=0 note=78 velocity=80 time=16
note_on channel=0 note=75 velocity=80 time=0
note_on channel=0 note=72 velocity=80 time=0
note_on channel=0 note=72 velocity=0 time=64
note_on channel=0 note=75 velocity=0 time=0
note_on channel=0 note=78 velocity=0 time=0
note_on channel=0 note=70 velocity=80 time=32
note_on channel=0 note=75 velocity=80 time=0
note_on channel=0 note=79 velocity=80 time=0
note_on channel=0 note=79 velocity=0 time=16
note_on channel=0 note=75 velocity=0 time=0
note_on channel=0 note=70 velocity=0 time=0
note_on channel=0 note=70 velocity=80 time=8
note_on channel=0 note=70 velocity=0 time=16
note_on channel=0 note=79 velocity=80 time=8
note_on channel=0 note=79 velocity=0 time=16
note_on channel=0 note=77 velocity=80 time=8
note_on channel=0 note=77 velocity=0 time=16
note_on channel=0 note=69 velocity=80 time=8
note_on channel=0 note=75 velocity=80 time=0
note_on channel=0 note=75 velocity=0 time=32
note_on channel=0 note=69 velocity=0 time=0
note_on channel=0 note=68 velocity=80 time=16
note_on channel=0 note=74 velocity=80 time=0
note_on channel=0 note=77 velocity=80 time=0
note_on channel=0 note=77 velocity=0 time=32
note_on channel=0 note=74 velocity=0 time=0
note_on channel=0 note=68 velocity=0 time=0
note_on channel=0 note=67 velocity=80 time=16
note_on channel=0 note=75 velocity=80 time=0
note_on channel=0 note=75 velocity=0 time=32
note_on channel=0 note=67 velocity=0 time=0
note_on channel=0 note=70 velocity=80 time=16
note_on channel=0 note=70 velocity=0 time=16
note_on channel=0 note=70 velocity=80 time=8
note_on channel=0 note=70 velocity=0 time=16
note_on channel=0 note=70 velocity=80 time=8
note_on channel=0 note=70 velocity=0 time=32
note_on channel=0 note=70 velocity=80 time=16
note_on channel=0 note=70 velocity=0 time=32
note_on channel=0 note=67 velocity=80 time=16
note_on channel=0 note=70 velocity=80 time=0
note_on channel=0 note=70 velocity=0 time=16
note_on channel=0 note=67 velocity=0 time=0
note_on channel=0 note=67 velocity=80 time=8
note_on channel=0 note=70 velocity=80 time=0
note_on channel=0 note=70 velocity=0 time=32
note_on channel=0 note=67 velocity=0 time=0
note_on channel=0 note=68 velocity=80 time=16
note_on channel=0 note=65 velocity=80 time=0
note_on channel=0 note=65 velocity=0 time=16
note_on channel=0 note=68 velocity=0 time=0
note_on channel=0 note=67 velocity=80 time=8
note_on channel=0 note=67 velocity=0 time=16
note_on channel=0 note=66 velocity=80 time=8
note_on channel=0 note=66 velocity=0 time=16
note_on channel=0 note=67 velocity=80 time=8
note_on channel=0 note=67 velocity=0 time=16
note_on channel=0 note=70 velocity=80 time=8
note_on channel=0 note=70 velocity=0 time=16
note_on channel=0 note=75 velocity=80 time=8
note_on channel=0 note=67 velocity=80 time=0
note_on channel=0 note=67 velocity=0 time=32
note_on channel=0 note=75 velocity=0 time=0
note_on channel=0 note=82 velocity=80 time=16
note_on channel=0 note=79 velocity=80 time=0
note_on channel=0 note=75 velocity=80 time=0
note_on channel=0 note=75 velocity=0 time=16
note_on channel=0 note=79 velocity=0 time=0
note_on channel=0 note=82 velocity=0 time=0
note_on channel=0 note=79 velocity=80 time=8
note_on channel=0 note=75 velocity=80 time=0
note_on channel=0 note=75 velocity=0 time=32
note_on channel=0 note=79 velocity=0 time=0
note_on channel=0 note=79 velocity=80 time=16
note_on channel=0 note=84 velocity=80 time=0
note_on channel=0 note=75 velocity=80 time=0
note_on channel=0 note=75 velocity=0 time=16
note_on channel=0 note=84 velocity=0 time=0
note_on channel=0 note=79 velocity=0 time=0
note_on channel=0 note=82 velocity=80 time=8
note_on channel=0 note=79 velocity=80 time=0
note_on channel=0 note=75 velocity=80 time=0
note_on channel=0 note=75 velocity=0 time=32
note_on channel=0 note=79 velocity=0 time=0
note_on channel=0 note=82 velocity=0 time=0
note_on channel=0 note=67 velocity=80 time=16
note_on channel=0 note=70 velocity=80 time=0
note_on channel=0 note=70 velocity=0 time=16
note_on channel=0 note=67 velocity=0 time=0
note_on channel=0 note=67 velocity=80 time=8
note_on channel=0 note=70 velocity=80 time=0
note_on channel=0 note=70 velocity=0 time=32
note_on channel=0 note=67 velocity=0 time=0
note_on channel=0 note=68 velocity=80 time=16
note_on channel=0 note=65 velocity=80 time=0
note_on channel=0 note=65 velocity=0 time=16
note_on channel=0 note=68 velocity=0 time=0
note_on channel=0 note=67 velocity=80 time=8
note_on channel=0 note=67 velocity=0 time=16
note_on channel=0 note=66 velocity=80 time=8
note_on channel=0 note=66 velocity=0 time=16
note_on channel=0 note=67 velocity=80 time=8
note_on channel=0 note=67 velocity=0 time=16
note_on channel=0 note=70 velocity=80 time=8
note_on channel=0 note=70 velocity=0 time=16
note_on channel=0 note=75 velocity=80 time=8
note_on channel=0 note=67 velocity=80 time=0
note_on channel=0 note=67 velocity=0 time=32
note_on channel=0 note=75 velocity=0 time=0
note_on channel=0 note=82 velocity=80 time=16
note_on channel=0 note=79 velocity=80 time=0
note_on channel=0 note=75 velocity=80 time=0
note_on channel=0 note=75 velocity=0 time=16
note_on channel=0 note=79 velocity=0 time=0
note_on channel=0 note=82 velocity=0 time=0
note_on channel=0 note=79 velocity=80 time=8
note_on channel=0 note=75 velocity=80 time=0
note_on channel=0 note=75 velocity=0 time=32
note_on channel=0 note=79 velocity=0 time=0
note_on channel=0 note=79 velocity=80 time=16
note_on channel=0 note=84 velocity=80 time=0
note_on channel=0 note=75 velocity=80 time=0
note_on channel=0 note=75 velocity=0 time=16
note_on channel=0 note=84 velocity=0 time=0
note_on channel=0 note=79 velocity=0 time=0
note_on channel=0 note=73 velocity=80 time=8
note_on channel=0 note=79 velocity=80 time=0
note_on channel=0 note=82 velocity=80 time=0
note_on channel=0 note=82 velocity=0 time=32
note_on channel=0 note=79 velocity=0 time=0
note_on channel=0 note=73 velocity=0 time=0
note_on channel=0 note=80 velocity=80 time=16
note_on channel=0 note=74 velocity=80 time=0
note_on channel=0 note=74 velocity=0 time=16
note_on channel=0 note=80 velocity=0 time=0
note_on channel=0 note=80 velocity=80 time=8
note_on channel=0 note=74 velocity=80 time=0
note_on channel=0 note=74 velocity=0 time=32
note_on channel=0 note=80 velocity=0 time=0
note_on channel=0 note=79 velocity=80 time=16
note_on channel=0 note=74 velocity=80 time=0
note_on channel=0 note=74 velocity=0 time=16
note_on channel=0 note=79 velocity=0 time=0
note_on channel=0 note=74 velocity=80 time=8
note_on channel=0 note=77 velocity=80 time=0
note_on channel=0 note=77 velocity=0 time=16
note_on channel=0 note=76 velocity=80 time=8
note_on channel=0 note=76 velocity=0 time=16
note_on channel=0 note=77 velocity=80 time=8
note_on channel=0 note=77 velocity=0 time=16
note_on channel=0 note=74 velocity=0 time=0
note_on channel=0 note=78 velocity=80 time=8
note_on channel=0 note=78 velocity=0 time=16
note_on channel=0 note=67 velocity=80 time=8
note_on channel=0 note=75 velocity=80 time=0
note_on channel=0 note=79 velocity=80 time=0
note_on channel=0 note=79 velocity=0 time=16
note_on channel=0 note=75 velocity=0 time=0
note_on channel=0 note=67 velocity=0 time=0
note_on channel=0 note=80 velocity=80 time=8
note_on channel=0 note=68 velocity=80 time=0
note_on channel=0 note=68 velocity=0 time=16
note_on channel=0 note=80 velocity=0 time=0
note_on channel=0 note=70 velocity=80 time=8
note_on channel=0 note=82 velocity=80 time=0
note_on channel=0 note=82 velocity=0 time=16
note_on channel=0 note=70 velocity=0 time=0
note_on channel=0 note=84 velocity=80 time=8
note_on channel=0 note=72 velocity=80 time=0
note_on channel=0 note=72 velocity=0 time=32
note_on channel=0 note=84 velocity=0 time=0
note_on channel=0 note=86 velocity=80 time=16
note_on channel=0 note=74 velocity=80 time=0
note_on channel=0 note=74 velocity=0 time=16
note_on channel=0 note=86 velocity=0 time=0
note_on channel=0 note=87 velocity=80 time=8
note_on channel=0 note=75 velocity=80 time=0
note_on channel=0 note=75 velocity=0 time=32
note_on channel=0 note=87 velocity=0 time=0
note_on channel=0 note=74 velocity=80 time=16
note_on channel=0 note=86 velocity=80 time=0
note_on channel=0 note=86 velocity=0 time=16
note_on channel=0 note=74 velocity=0 time=0
note_on channel=0 note=87 velocity=80 time=8
note_on channel=0 note=75 velocity=80 time=0
note_on channel=0 note=75 velocity=0 time=16
note_on channel=0 note=87 velocity=0 time=0
note_on channel=0 note=76 velocity=80 time=8
note_on channel=0 note=88 velocity=80 time=0
note_on channel=0 note=88 velocity=0 time=16
note_on channel=0 note=76 velocity=0 time=0
note_on channel=0 note=89 velocity=80 time=8
note_on channel=0 note=77 velocity=80 time=0
note_on channel=0 note=77 velocity=0 time=32
note_on channel=0 note=89 velocity=0 time=0
note_on channel=0 note=77 velocity=80 time=16
note_on channel=0 note=77 velocity=0 time=16
note_on channel=0 note=75 velocity=80 time=8
note_on channel=0 note=84 velocity=80 time=0
note_on channel=0 note=84 velocity=0 time=32
note_on channel=0 note=75 velocity=0 time=0
note_on channel=0 note=74 velocity=80 time=16
note_on channel=0 note=82 velocity=80 time=0
note_on channel=0 note=82 velocity=0 time=96
note_on channel=0 note=74 velocity=0 time=0
note_on channel=0 note=68 velocity=80 time=48
note_on channel=0 note=70 velocity=80 time=0
note_on channel=0 note=70 velocity=0 time=32
note_on channel=0 note=68 velocity=0 time=0
note_on channel=0 note=67 velocity=80 time=16
note_on channel=0 note=70 velocity=80 time=0
note_on channel=0 note=70 velocity=0 time=16
note_on channel=0 note=67 velocity=0 time=0
note_on channel=0 note=67 velocity=80 time=8
note_on channel=0 note=70 velocity=80 time=0
note_on channel=0 note=70 velocity=0 time=32
note_on channel=0 note=67 velocity=0 time=0
note_on channel=0 note=68 velocity=80 time=16
note_on channel=0 note=65 velocity=80 time=0
note_on channel=0 note=65 velocity=0 time=16
note_on channel=0 note=68 velocity=0 time=0
note_on channel=0 note=67 velocity=80 time=8
note_on channel=0 note=67 velocity=0 time=16
note_on channel=0 note=66 velocity=80 time=8
note_on channel=0 note=66 velocity=0 time=16
note_on channel=0 note=67 velocity=80 time=8
note_on channel=0 note=67 velocity=0 time=16
note_on channel=0 note=70 velocity=80 time=8
note_on channel=0 note=70 velocity=0 time=16
note_on channel=0 note=75 velocity=80 time=8
note_on channel=0 note=67 velocity=80 time=0
note_on channel=0 note=67 velocity=0 time=32
note_on channel=0 note=75 velocity=0 time=0
note_on channel=0 note=82 velocity=80 time=16
note_on channel=0 note=79 velocity=80 time=0
note_on channel=0 note=75 velocity=80 time=0
note_on channel=0 note=75 velocity=0 time=16
note_on channel=0 note=79 velocity=0 time=0
note_on channel=0 note=82 velocity=0 time=0
note_on channel=0 note=79 velocity=80 time=8
note_on channel=0 note=75 velocity=80 time=0
note_on channel=0 note=75 velocity=0 time=32
note_on channel=0 note=79 velocity=0 time=0
note_on channel=0 note=79 velocity=80 time=16
note_on channel=0 note=84 velocity=80 time=0
note_on channel=0 note=75 velocity=80 time=0
note_on channel=0 note=75 velocity=0 time=16
note_on channel=0 note=84 velocity=0 time=0
note_on channel=0 note=79 velocity=0 time=0
note_on channel=0 note=82 velocity=80 time=8
note_on channel=0 note=79 velocity=80 time=0
note_on channel=0 note=75 velocity=80 time=0
note_on channel=0 note=75 velocity=0 time=32
note_on channel=0 note=79 velocity=0 time=0
note_on channel=0 note=82 velocity=0 time=0
note_on channel=0 note=71 velocity=80 time=16
note_on channel=0 note=79 velocity=80 time=0
note_on channel=0 note=79 velocity=0 time=16
note_on channel=0 note=71 velocity=0 time=0
note_on channel=0 note=71 velocity=80 time=8
note_on channel=0 note=79 velocity=80 time=0
note_on channel=0 note=79 velocity=0 time=32
note_on channel=0 note=71 velocity=0 time=0
note_on channel=0 note=79 velocity=80 time=16
note_on channel=0 note=71 velocity=80 time=0
note_on channel=0 note=71 velocity=0 time=16
note_on channel=0 note=79 velocity=0 time=0
note_on channel=0 note=71 velocity=80 time=8
note_on channel=0 note=80 velocity=80 time=0
note_on channel=0 note=80 velocity=0 time=16
note_on channel=0 note=79 velocity=80 time=8
note_on channel=0 note=79 velocity=0 time=16
note_on channel=0 note=74 velocity=80 time=8
note_on channel=0 note=74 velocity=0 time=16
note_on channel=0 note=71 velocity=0 time=0
note_on channel=0 note=77 velocity=80 time=8
note_on channel=0 note=77 velocity=0 time=16
note_on channel=0 note=72 velocity=80 time=8
note_on channel=0 note=75 velocity=80 time=0
note_on channel=0 note=75 velocity=0 time=16
note_on channel=0 note=72 velocity=0 time=0
note_on channel=0 note=77 velocity=80 time=8
note_on channel=0 note=77 velocity=0 time=16
note_on channel=0 note=79 velocity=80 time=8
note_on channel=0 note=79 velocity=0 time=16
note_on channel=0 note=84 velocity=80 time=8
note_on channel=0 note=84 velocity=0 time=32
note_on channel=0 note=79 velocity=80 time=16
note_on channel=0 note=79 velocity=0 time=16
note_on channel=0 note=84 velocity=80 time=8
note_on channel=0 note=84 velocity=0 time=32
note_on channel=0 note=80 velocity=80 time=40
note_on channel=0 note=80 velocity=0 time=16
note_on channel=0 note=79 velocity=80 time=8
note_on channel=0 note=79 velocity=0 time=16
note_on channel=0 note=77 velocity=80 time=8
note_on channel=0 note=77 velocity=0 time=16
note_on channel=0 note=80 velocity=80 time=8
note_on channel=0 note=80 velocity=0 time=16
note_on channel=0 note=84 velocity=80 time=8
note_on channel=0 note=84 velocity=0 time=32
note_on channel=0 note=80 velocity=80 time=16
note_on channel=0 note=80 velocity=0 time=16
note_on channel=0 note=79 velocity=80 time=8
note_on channel=0 note=79 velocity=0 time=16
note_on channel=0 note=75 velocity=80 time=8
note_on channel=0 note=75 velocity=0 time=16
note_on channel=0 note=79 velocity=80 time=8
note_on channel=0 note=79 velocity=0 time=32
note_on channel=0 note=78 velocity=80 time=16
note_on channel=0 note=75 velocity=80 time=0
note_on channel=0 note=72 velocity=80 time=0
note_on channel=0 note=72 velocity=0 time=64
note_on channel=0 note=75 velocity=0 time=0
note_on channel=0 note=78 velocity=0 time=0
note_on channel=0 note=70 velocity=80 time=32
note_on channel=0 note=75 velocity=80 time=0
note_on channel=0 note=79 velocity=80 time=0
note_on channel=0 note=79 velocity=0 time=16
note_on channel=0 note=75 velocity=0 time=0
note_on channel=0 note=70 velocity=0 time=0
note_on channel=0 note=70 velocity=80 time=8
note_on channel=0 note=70 velocity=0 time=16
note_on channel=0 note=79 velocity=80 time=8
note_on channel=0 note=79 velocity=0 time=16
note_on channel=0 note=77 velocity=80 time=8
note_on channel=0 note=77 velocity=0 time=16
note_on channel=0 note=69 velocity=80 time=8
note_on channel=0 note=75 velocity=80 time=0
note_on channel=0 note=75 velocity=0 time=32
note_on channel=0 note=69 velocity=0 time=0
note_on channel=0 note=68 velocity=80 time=16
note_on channel=0 note=74 velocity=80 time=0
note_on channel=0 note=77 velocity=80 time=0
note_on channel=0 note=77 velocity=0 time=32
note_on channel=0 note=74 velocity=0 time=0
note_on channel=0 note=68 velocity=0 time=0
note_on channel=0 note=67 velocity=80 time=16
note_on channel=0 note=75 velocity=80 time=0
note_on channel=0 note=75 velocity=0 time=80
note_on channel=0 note=67 velocity=0 time=0
note_on channel=0 note=75 velocity=80 time=16
note_on channel=0 note=79 velocity=80 time=0
note_on channel=0 note=87 velocity=80 time=0
note_on channel=0 note=87 velocity=0 time=32
note_on channel=0 note=79 velocity=0 time=0
note_on channel=0 note=75 velocity=0 time=0
<meta message end_of_track time=0>
<meta message midi_port port=0 time=0>
<meta message track_name name='by Scott Joplin ( 1904 )' time=0>
program_change channel=1 program=0 time=0
control_change channel=1 control=7 value=127 time=0
control_change channel=1 control=10 value=44 time=0
control_change channel=1 control=121 value=0 time=8
control_change channel=1 control=1 value=0 time=16
control_change channel=1 control=64 value=0 time=8
aftertouch channel=1 value=0 time=10
pitchwheel channel=1 pitch=0 time=6
control_change channel=1 control=93 value=12 time=2
control_change channel=1 control=91 value=21 time=0
control_change channel=1 control=7 value=127 time=22
control_change channel=1 control=10 value=44 time=4
note_on channel=1 note=55 velocity=80 time=116
note_on channel=1 note=43 velocity=80 time=0
note_on channel=1 note=43 velocity=0 time=32
note_on channel=1 note=55 velocity=0 time=0
note_on channel=1 note=43 velocity=80 time=16
note_on channel=1 note=55 velocity=80 time=0
note_on channel=1 note=55 velocity=0 time=64
note_on channel=1 note=43 velocity=0 time=0
note_on channel=1 note=57 velocity=80 time=32
note_on channel=1 note=45 velocity=80 time=0
note_on channel=1 note=45 velocity=0 time=32
note_on channel=1 note=57 velocity=0 time=0
note_on channel=1 note=59 velocity=80 time=16
note_on channel=1 note=47 velocity=80 time=0
note_on channel=1 note=47 velocity=0 time=32
note_on channel=1 note=59 velocity=0 time=0
note_on channel=1 note=59 velocity=80 time=16
note_on channel=1 note=47 velocity=80 time=0
note_on channel=1 note=47 velocity=0 time=64
note_on channel=1 note=59 velocity=0 time=0
note_on channel=1 note=65 velocity=80 time=32
note_on channel=1 note=53 velocity=80 time=0
note_on channel=1 note=53 velocity=0 time=32
note_on channel=1 note=65 velocity=0 time=0
note_on channel=1 note=64 velocity=80 time=16
note_on channel=1 note=52 velocity=80 time=0
note_on channel=1 note=52 velocity=0 time=64
note_on channel=1 note=64 velocity=0 time=0
note_on channel=1 note=62 velocity=80 time=32
note_on channel=1 note=50 velocity=80 time=0
note_on channel=1 note=50 velocity=0 time=64
note_on channel=1 note=62 velocity=0 time=0
note_on channel=1 note=55 velocity=80 time=32
note_on channel=1 note=43 velocity=80 time=0
note_on channel=1 note=43 velocity=0 time=32
note_on channel=1 note=55 velocity=0 time=0
note_on channel=1 note=60 velocity=80 time=160
note_on channel=1 note=48 velocity=80 time=0
note_on channel=1 note=48 velocity=0 time=32
note_on channel=1 note=60 velocity=0 time=0
note_on channel=1 note=55 velocity=80 time=16
note_on channel=1 note=60 velocity=80 time=0
note_on channel=1 note=64 velocity=80 time=0
note_on channel=1 note=64 velocity=0 time=32
note_on channel=1 note=60 velocity=0 time=0
note_on channel=1 note=55 velocity=0 time=0
note_on channel=1 note=64 velocity=80 time=16
note_on channel=1 note=52 velocity=80 time=0
note_on channel=1 note=52 velocity=0 time=32
note_on channel=1 note=64 velocity=0 time=0
note_on channel=1 note=51 velocity=80 time=16
note_on channel=1 note=63 velocity=80 time=0
note_on channel=1 note=63 velocity=0 time=32
note_on channel=1 note=51 velocity=0 time=0
note_on channel=1 note=62 velocity=80 time=16
note_on channel=1 note=50 velocity=80 time=0
note_on channel=1 note=50 velocity=0 time=32
note_on channel=1 note=62 velocity=0 time=0
note_on channel=1 note=55 velocity=80 time=16
note_on channel=1 note=59 velocity=80 time=0
note_on channel=1 note=65 velocity=80 time=0
note_on channel=1 note=65 velocity=0 time=32
note_on channel=1 note=59 velocity=0 time=0
note_on channel=1 note=55 velocity=0 time=0
note_on channel=1 note=55 velocity=80 time=16
note_on channel=1 note=43 velocity=80 time=0
note_on channel=1 note=43 velocity=0 time=32
note_on channel=1 note=55 velocity=0 time=0
note_on channel=1 note=55 velocity=80 time=16
note_on channel=1 note=59 velocity=80 time=0
note_on channel=1 note=65 velocity=80 time=0
note_on channel=1 note=65 velocity=0 time=32
note_on channel=1 note=59 velocity=0 time=0
note_on channel=1 note=55 velocity=0 time=0
note_on channel=1 note=60 velocity=80 time=16
note_on channel=1 note=48 velocity=80 time=0
note_on channel=1 note=48 velocity=0 time=32
note_on channel=1 note=60 velocity=0 time=0
note_on channel=1 note=55 velocity=80 time=16
note_on channel=1 note=60 velocity=80 time=0
note_on channel=1 note=64 velocity=80 time=0
note_on channel=1 note=64 velocity=0 time=32
note_on channel=1 note=60 velocity=0 time=0
note_on channel=1 note=55 velocity=0 time=0
note_on channel=1 note=64 velocity=80 time=16
note_on channel=1 note=52 velocity=80 time=0
note_on channel=1 note=52 velocity=0 time=32
note_on channel=1 note=64 velocity=0 time=0
note_on channel=1 note=51 velocity=80 time=16
note_on channel=1 note=63 velocity=80 time=0
note_on channel=1 note=63 velocity=0 time=32
note_on channel=1 note=51 velocity=0 time=0
note_on channel=1 note=62 velocity=80 time=16
note_on channel=1 note=50 velocity=80 time=0
note_on channel=1 note=50 velocity=0 time=32
note_on channel=1 note=62 velocity=0 time=0
note_on channel=1 note=55 velocity=80 time=16
note_on channel=1 note=59 velocity=80 time=0
note_on channel=1 note=65 velocity=80 time=0
note_on channel=1 note=65 velocity=0 time=32
note_on channel=1 note=59 velocity=0 time=0
note_on channel=1 note=55 velocity=0 time=0
note_on channel=1 note=55 velocity=80 time=16
note_on channel=1 note=43 velocity=80 time=0
note_on channel=1 note=43 velocity=0 time=32
note_on channel=1 note=55 velocity=0 time=0
note_on channel=1 note=55 velocity=80 time=16
note_on channel=1 note=59 velocity=80 time=0
note_on channel=1 note=65 velocity=80 time=0
note_on channel=1 note=65 velocity=0 time=32
note_on channel=1 note=59 velocity=0 time=0
note_on channel=1 note=55 velocity=0 time=0
note_on channel=1 note=56 velocity=80 time=16
note_on channel=1 note=56 velocity=0 time=16
note_on channel=1 note=59 velocity=80 time=8
note_on channel=1 note=59 velocity=0 time=16
note_on channel=1 note=62 velocity=80 time=8
note_on channel=1 note=62 velocity=0 time=16
note_on channel=1 note=65 velocity=80 time=8
note_on channel=1 note=65 velocity=0 time=16
note_on channel=1 note=64 velocity=80 time=8
note_on channel=1 note=60 velocity=80 time=0
note_on channel=1 note=60 velocity=0 time=32
note_on channel=1 note=64 velocity=0 time=0
note_on channel=1 note=56 velocity=80 time=64
note_on channel=1 note=56 velocity=0 time=16
note_on channel=1 note=59 velocity=80 time=8
note_on channel=1 note=59 velocity=0 time=16
note_on channel=1 note=62 velocity=80 time=8
note_on channel=1 note=62 velocity=0 time=16
note_on channel=1 note=65 velocity=80 time=8
note_on channel=1 note=65 velocity=0 time=16
note_on channel=1 note=64 velocity=80 time=8
note_on channel=1 note=60 velocity=80 time=0
note_on channel=1 note=60 velocity=0 time=32
note_on channel=1 note=64 velocity=0 time=0
note_on channel=1 note=36 velocity=80 time=64
note_on channel=1 note=45 velocity=80 time=0
note_on channel=1 note=45 velocity=0 time=16
note_on channel=1 note=36 velocity=0 time=0
note_on channel=1 note=39 velocity=80 time=8
note_on channel=1 note=48 velocity=80 time=0
note_on channel=1 note=48 velocity=0 time=16
note_on channel=1 note=39 velocity=0 time=0
note_on channel=1 note=42 velocity=80 time=8
note_on channel=1 note=51 velocity=80 time=0
note_on channel=1 note=51 velocity=0 time=16
note_on channel=1 note=42 velocity=0 time=0
note_on channel=1 note=45 velocity=80 time=8
note_on channel=1 note=54 velocity=80 time=0
note_on channel=1 note=54 velocity=0 time=16
note_on channel=1 note=45 velocity=0 time=0
note_on channel=1 note=48 velocity=80 time=8
note_on channel=1 note=57 velocity=80 time=0
note_on channel=1 note=57 velocity=0 time=16
note_on channel=1 note=48 velocity=0 time=0
note_on channel=1 note=51 velocity=80 time=8
note_on channel=1 note=60 velocity=80 time=0
note_on channel=1 note=60 velocity=0 time=16
note_on channel=1 note=51 velocity=0 time=0
note_on channel=1 note=54 velocity=80 time=8
note_on channel=1 note=63 velocity=80 time=0
note_on channel=1 note=63 velocity=0 time=16
note_on channel=1 note=54 velocity=0 time=0
note_on channel=1 note=57 velocity=80 time=8
note_on channel=1 note=66 velocity=80 time=0
note_on channel=1 note=66 velocity=0 time=16
note_on channel=1 note=57 velocity=0 time=0
note_on channel=1 note=68 velocity=80 time=968
note_on channel=1 note=68 velocity=0 time=32
note_on channel=1 note=63 velocity=80 time=16
note_on channel=1 note=63 velocity=0 time=32
note_on channel=1 note=60 velocity=80 time=16
note_on channel=1 note=60 velocity=0 time=32
note_on channel=1 note=56 velocity=80 time=16
note_on channel=1 note=56 velocity=0 time=32
note_on channel=1 note=55 velocity=80 time=16
note_on channel=1 note=55 velocity=80 time=0
note_on channel=1 note=55 velocity=0 time=32
note_on channel=1 note=60 velocity=80 time=16
note_on channel=1 note=64 velocity=80 time=0
note_on channel=1 note=55 velocity=0 time=16
note_on channel=1 note=64 velocity=0 time=16
note_on channel=1 note=60 velocity=0 time=0
note_on channel=1 note=52 velocity=80 time=16
note_on channel=1 note=52 velocity=80 time=0
note_on channel=1 note=52 velocity=0 time=32
note_on channel=1 note=55 velocity=80 time=16
note_on channel=1 note=60 velocity=80 time=0
note_on channel=1 note=64 velocity=80 time=0
note_on channel=1 note=52 velocity=0 time=16
note_on channel=1 note=55 velocity=0 time=16
note_on channel=1 note=60 velocity=0 time=0
note_on channel=1 note=64 velocity=0 time=0
note_on channel=1 note=50 velocity=80 time=16
note_on channel=1 note=50 velocity=0 time=32
note_on channel=1 note=57 velocity=80 time=16
note_on channel=1 note=57 velocity=0 time=32
note_on channel=1 note=59 velocity=80 time=16
note_on channel=1 note=55 velocity=80 time=0
note_on channel=1 note=55 velocity=0 time=64
note_on channel=1 note=59 velocity=0 time=0
note_on channel=1 note=60 velocity=80 time=32
note_on channel=1 note=55 velocity=80 time=0
note_on channel=1 note=48 velocity=80 time=0
note_on channel=1 note=48 velocity=0 time=32
note_on channel=1 note=55 velocity=0 time=0
note_on channel=1 note=60 velocity=0 time=0
note_on channel=1 note=60 velocity=80 time=160
note_on channel=1 note=48 velocity=80 time=0
note_on channel=1 note=48 velocity=0 time=32
note_on channel=1 note=60 velocity=0 time=0
note_on channel=1 note=55 velocity=80 time=16
note_on channel=1 note=60 velocity=80 time=0
note_on channel=1 note=64 velocity=80 time=0
note_on channel=1 note=64 velocity=0 time=32
note_on channel=1 note=60 velocity=0 time=0
note_on channel=1 note=55 velocity=0 time=0
note_on channel=1 note=64 velocity=80 time=16
note_on channel=1 note=52 velocity=80 time=0
note_on channel=1 note=52 velocity=0 time=32
note_on channel=1 note=64 velocity=0 time=0
note_on channel=1 note=51 velocity=80 time=16
note_on channel=1 note=63 velocity=80 time=0
note_on channel=1 note=63 velocity=0 time=32
note_on channel=1 note=51 velocity=0 time=0
note_on channel=1 note=62 velocity=80 time=16
note_on channel=1 note=50 velocity=80 time=0
note_on channel=1 note=50 velocity=0 time=32
note_on channel=1 note=62 velocity=0 time=0
note_on channel=1 note=55 velocity=80 time=16
note_on channel=1 note=59 velocity=80 time=0
note_on channel=1 note=65 velocity=80 time=0
note_on channel=1 note=65 velocity=0 time=32
note_on channel=1 note=59 velocity=0 time=0
note_on channel=1 note=55 velocity=0 time=0
note_on channel=1 note=55 velocity=80 time=16
note_on channel=1 note=43 velocity=80 time=0
note_on channel=1 note=43 velocity=0 time=32
note_on channel=1 note=55 velocity=0 time=0
note_on channel=1 note=55 velocity=80 time=16
note_on channel=1 note=59 velocity=80 time=0
note_on channel=1 note=65 velocity=80 time=0
note_on channel=1 note=65 velocity=0 time=32
note_on channel=1 note=59 velocity=0 time=0
note_on channel=1 note=55 velocity=0 time=0
note_on channel=1 note=60 velocity=80 time=16
note_on channel=1 note=48 velocity=80 time=0
note_on channel=1 note=48 velocity=0 time=32
note_on channel=1 note=60 velocity=0 time=0
note_on channel=1 note=55 velocity=80 time=16
note_on channel=1 note=60 velocity=80 time=0
note_on channel=1 note=64 velocity=80 time=0
note_on channel=1 note=64 velocity=0 time=32
note_on channel=1 note=60 velocity=0 time=0
note_on channel=1 note=55 velocity=0 time=0
note_on channel=1 note=64 velocity=80 time=16
note_on channel=1 note=52 velocity=80 time=0
note_on channel=1 note=52 velocity=0 time=32
note_on channel=1 note=64 velocity=0 time=0
note_on channel=1 note=51 velocity=80 time=16
note_on channel=1 note=63 velocity=80 time=0
note_on channel=1 note=63 velocity=0 time=32
note_on channel=1 note=51 velocity=0 time=0
note_on channel=1 note=62 velocity=80 time=16
note_on channel=1 note=50 velocity=80 time=0
note_on channel=1 note=50 velocity=0 time=32
note_on channel=1 note=62 velocity=0 time=0
note_on channel=1 note=55 velocity=80 time=16
note_on channel=1 note=59 velocity=80 time=0
note_on channel=1 note=65 velocity=80 time=0
note_on channel=1 note=65 velocity=0 time=32
note_on channel=1 note=59 velocity=0 time=0
note_on channel=1 note=55 velocity=0 time=0
note_on channel=1 note=55 velocity=80 time=16
note_on channel=1 note=43 velocity=80 time=0
note_on channel=1 note=43 velocity=0 time=32
note_on channel=1 note=55 velocity=0 time=0
note_on channel=1 note=55 velocity=80 time=16
note_on channel=1 note=59 velocity=80 time=0
note_on channel=1 note=65 velocity=80 time=0
note_on channel=1 note=65 velocity=0 time=32
note_on channel=1 note=59 velocity=0 time=0
note_on channel=1 note=55 velocity=0 time=0
note_on channel=1 note=56 velocity=80 time=16
note_on channel=1 note=56 velocity=0 time=16
note_on channel=1 note=59 velocity=80 time=8
note_on channel=1 note=59 velocity=0 time=16
note_on channel=1 note=62 velocity=80 time=8
note_on channel=1 note=62 velocity=0 time=16
note_on channel=1 note=65 velocity=80 time=8
note_on channel=1 note=65 velocity=0 time=16
note_on channel=1 note=64 velocity=80 time=8
note_on channel=1 note=60 velocity=80 time=0
note_on channel=1 note=60 velocity=0 time=32
note_on channel=1 note=64 velocity=0 time=0
note_on channel=1 note=56 velocity=80 time=64
note_on channel=1 note=56 velocity=0 time=16
note_on channel=1 note=59 velocity=80 time=8
note_on channel=1 note=59 velocity=0 time=16
note_on channel=1 note=62 velocity=80 time=8
note_on channel=1 note=62 velocity=0 time=16
note_on channel=1 note=65 velocity=80 time=8
note_on channel=1 note=65 velocity=0 time=16
note_on channel=1 note=64 velocity=80 time=8
note_on channel=1 note=60 velocity=80 time=0
note_on channel=1 note=60 velocity=0 time=32
note_on channel=1 note=64 velocity=0 time=0
note_on channel=1 note=36 velocity=80 time=64
note_on channel=1 note=45 velocity=80 time=0
note_on channel=1 note=45 velocity=0 time=16
note_on channel=1 note=36 velocity=0 time=0
note_on channel=1 note=39 velocity=80 time=8
note_on channel=1 note=48 velocity=80 time=0
note_on channel=1 note=48 velocity=0 time=16
note_on channel=1 note=39 velocity=0 time=0
note_on channel=1 note=42 velocity=80 time=8
note_on channel=1 note=51 velocity=80 time=0
note_on channel=1 note=51 velocity=0 time=16
note_on channel=1 note=42 velocity=0 time=0
note_on channel=1 note=45 velocity=80 time=8
note_on channel=1 note=54 velocity=80 time=0
note_on channel=1 note=54 velocity=0 time=16
note_on channel=1 note=45 velocity=0 time=0
note_on channel=1 note=48 velocity=80 time=8
note_on channel=1 note=57 velocity=80 time=0
note_on channel=1 note=57 velocity=0 time=16
note_on channel=1 note=48 velocity=0 time=0
note_on channel=1 note=51 velocity=80 time=8
note_on channel=1 note=60 velocity=80 time=0
note_on channel=1 note=60 velocity=0 time=16
note_on channel=1 note=51 velocity=0 time=0
note_on channel=1 note=54 velocity=80 time=8
note_on channel=1 note=63 velocity=80 time=0
note_on channel=1 note=63 velocity=0 time=16
note_on channel=1 note=54 velocity=0 time=0
note_on channel=1 note=57 velocity=80 time=8
note_on channel=1 note=66 velocity=80 time=0
note_on channel=1 note=66 velocity=0 time=16
note_on channel=1 note=57 velocity=0 time=0
note_on channel=1 note=68 velocity=80 time=968
note_on channel=1 note=68 velocity=0 time=32
note_on channel=1 note=63 velocity=80 time=16
note_on channel=1 note=63 velocity=0 time=32
note_on channel=1 note=60 velocity=80 time=16
note_on channel=1 note=60 velocity=0 time=32
note_on channel=1 note=56 velocity=80 time=16
note_on channel=1 note=56 velocity=0 time=32
note_on channel=1 note=55 velocity=80 time=16
note_on channel=1 note=55 velocity=80 time=0
note_on channel=1 note=55 velocity=0 time=32
note_on channel=1 note=60 velocity=80 time=16
note_on channel=1 note=64 velocity=80 time=0
note_on channel=1 note=55 velocity=0 time=16
note_on channel=1 note=64 velocity=0 time=16
note_on channel=1 note=60 velocity=0 time=0
note_on channel=1 note=52 velocity=80 time=16
note_on channel=1 note=52 velocity=80 time=0
note_on channel=1 note=52 velocity=0 time=32
note_on channel=1 note=55 velocity=80 time=16
note_on channel=1 note=60 velocity=80 time=0
note_on channel=1 note=64 velocity=80 time=0
note_on channel=1 note=52 velocity=0 time=16
note_on channel=1 note=55 velocity=0 time=16
note_on channel=1 note=60 velocity=0 time=0
note_on channel=1 note=64 velocity=0 time=0
note_on channel=1 note=50 velocity=80 time=16
note_on channel=1 note=50 velocity=0 time=32
note_on channel=1 note=57 velocity=80 time=16
note_on channel=1 note=57 velocity=0 time=32
note_on channel=1 note=59 velocity=80 time=16
note_on channel=1 note=55 velocity=80 time=0
note_on channel=1 note=55 velocity=0 time=64
note_on channel=1 note=59 velocity=0 time=0
note_on channel=1 note=60 velocity=80 time=32
note_on channel=1 note=55 velocity=80 time=0
note_on channel=1 note=48 velocity=80 time=0
note_on channel=1 note=48 velocity=0 time=32
note_on channel=1 note=55 velocity=0 time=0
note_on channel=1 note=60 velocity=0 time=0
note_on channel=1 note=61 velocity=80 time=112
note_on channel=1 note=49 velocity=80 time=0
note_on channel=1 note=49 velocity=0 time=32
note_on channel=1 note=61 velocity=0 time=0
note_on channel=1 note=62 velocity=80 time=16
note_on channel=1 note=50 velocity=80 time=0
note_on channel=1 note=50 velocity=0 time=32
note_on channel=1 note=62 velocity=0 time=0
note_on channel=1 note=55 velocity=80 time=16
note_on channel=1 note=59 velocity=80 time=0
note_on channel=1 note=65 velocity=80 time=0
note_on channel=1 note=65 velocity=0 time=32
note_on channel=1 note=59 velocity=0 time=0
note_on channel=1 note=55 velocity=0 time=0
note_on channel=1 note=55 velocity=80 time=16
note_on channel=1 note=43 velocity=80 time=0
note_on channel=1 note=43 velocity=0 time=32
note_on channel=1 note=55 velocity=0 time=0
note_on channel=1 note=59 velocity=80 time=16
note_on channel=1 note=65 velocity=80 time=0
note_on channel=1 note=55 velocity=80 time=0
note_on channel=1 note=55 velocity=0 time=32
note_on channel=1 note=65 velocity=0 time=0
note_on channel=1 note=59 velocity=0 time=0
note_on channel=1 note=60 velocity=80 time=16
note_on channel=1 note=48 velocity=80 time=0
note_on channel=1 note=48 velocity=0 time=32
note_on channel=1 note=60 velocity=0 time=0
note_on channel=1 note=55 velocity=80 time=16
note_on channel=1 note=60 velocity=80 time=0
note_on channel=1 note=64 velocity=80 time=0
note_on channel=1 note=64 velocity=0 time=32
note_on channel=1 note=60 velocity=0 time=0
note_on channel=1 note=55 velocity=0 time=0
note_on channel=1 note=55 velocity=80 time=16
note_on channel=1 note=43 velocity=80 time=0
note_on channel=1 note=43 velocity=0 time=32
note_on channel=1 note=55 velocity=0 time=0
note_on channel=1 note=55 velocity=80 time=16
note_on channel=1 note=60 velocity=80 time=0
note_on channel=1 note=64 velocity=80 time=0
note_on channel=1 note=64 velocity=0 time=32
note_on channel=1 note=60 velocity=0 time=0
note_on channel=1 note=55 velocity=0 time=0
note_on channel=1 note=62 velocity=80 time=16
note_on channel=1 note=50 velocity=80 time=0
note_on channel=1 note=50 velocity=0 time=32
note_on channel=1 note=62 velocity=0 time=0
note_on channel=1 note=55 velocity=80 time=16
note_on channel=1 note=59 velocity=80 time=0
note_on channel=1 note=65 velocity=80 time=0
note_on channel=1 note=65 velocity=0 time=32
note_on channel=1 note=59 velocity=0 time=0
note_on channel=1 note=55 velocity=0 time=0
note_on channel=1 note=55 velocity=80 time=16
note_on channel=1 note=43 velocity=80 time=0
note_on channel=1 note=43 velocity=0 time=32
note_on channel=1 note=55 velocity=0 time=0
note_on channel=1 note=55 velocity=80 time=16
note_on channel=1 note=59 velocity=80 time=0
note_on channel=1 note=65 velocity=80 time=0
note_on channel=1 note=65 velocity=0 time=32
note_on channel=1 note=59 velocity=0 time=0
note_on channel=1 note=55 velocity=0 time=0
note_on channel=1 note=60 velocity=80 time=16
note_on channel=1 note=48 velocity=80 time=0
note_on channel=1 note=48 velocity=0 time=32
note_on channel=1 note=60 velocity=0 time=0
note_on channel=1 note=55 velocity=80 time=16
note_on channel=1 note=60 velocity=80 time=0
note_on channel=1 note=64 velocity=80 time=0
note_on channel=1 note=64 velocity=0 time=32
note_on channel=1 note=60 velocity=0 time=0
note_on channel=1 note=55 velocity=0 time=0
note_on channel=1 note=55 velocity=80 time=16
note_on channel=1 note=43 velocity=80 time=0
note_on channel=1 note=43 velocity=0 time=32
note_on channel=1 note=55 velocity=0 time=0
note_on channel=1 note=64 velocity=80 time=16
note_on channel=1 note=60 velocity=80 time=0
note_on channel=1 note=55 velocity=80 time=0
note_on channel=1 note=55 velocity=0 time=32
note_on channel=1 note=60 velocity=0 time=0
note_on channel=1 note=64 velocity=0 time=0
note_on channel=1 note=62 velocity=80 time=16
note_on channel=1 note=50 velocity=80 time=0
note_on channel=1 note=50 velocity=0 time=32
note_on channel=1 note=62 velocity=0 time=0
note_on channel=1 note=55 velocity=80 time=16
note_on channel=1 note=59 velocity=80 time=0
note_on channel=1 note=65 velocity=80 time=0
note_on channel=1 note=65 velocity=0 time=32
note_on channel=1 note=59 velocity=0 time=0
note_on channel=1 note=55 velocity=0 time=0
note_on channel=1 note=55 velocity=80 time=16
note_on channel=1 note=43 velocity=80 time=0
note_on channel=1 note=43 velocity=0 time=32
note_on channel=1 note=55 velocity=0 time=0
note_on channel=1 note=59 velocity=80 time=16
note_on channel=1 note=65 velocity=80 time=0
note_on channel=1 note=55 velocity=80 time=0
note_on channel=1 note=55 velocity=0 time=32
note_on channel=1 note=65 velocity=0 time=0
note_on channel=1 note=59 velocity=0 time=0
note_on channel=1 note=60 velocity=80 time=16
note_on channel=1 note=48 velocity=80 time=0
note_on channel=1 note=48 velocity=0 time=32
note_on channel=1 note=60 velocity=0 time=0
note_on channel=1 note=55 velocity=80 time=16
note_on channel=1 note=60 velocity=80 time=0
note_on channel=1 note=64 velocity=80 time=0
note_on channel=1 note=64 velocity=0 time=32
note_on channel=1 note=60 velocity=0 time=0
note_on channel=1 note=55 velocity=0 time=0
note_on channel=1 note=55 velocity=80 time=16
note_on channel=1 note=43 velocity=80 time=0
note_on channel=1 note=43 velocity=0 time=32
note_on channel=1 note=55 velocity=0 time=0
note_on channel=1 note=49 velocity=80 time=16
note_on channel=1 note=37 velocity=80 time=0
note_on channel=1 note=37 velocity=0 time=32
note_on channel=1 note=49 velocity=0 time=0
note_on channel=1 note=50 velocity=80 time=16
note_on channel=1 note=38 velocity=80 time=0
note_on channel=1 note=38 velocity=0 time=32
note_on channel=1 note=50 velocity=0 time=0
note_on channel=1 note=50 velocity=80 time=16
note_on channel=1 note=55 velocity=80 time=0
note_on channel=1 note=55 velocity=0 time=32
note_on channel=1 note=50 velocity=0 time=0
note_on channel=1 note=50 velocity=80 time=16
note_on channel=1 note=38 velocity=80 time=0
note_on channel=1 note=38 velocity=0 time=32
note_on channel=1 note=50 velocity=0 time=0
note_on channel=1 note=50 velocity=80 time=16
note_on channel=1 note=54 velocity=80 time=0
note_on channel=1 note=54 velocity=0 time=32
note_on channel=1 note=50 velocity=0 time=0
note_on channel=1 note=55 velocity=80 time=16
note_on channel=1 note=50 velocity=80 time=0
note_on channel=1 note=43 velocity=80 time=0
note_on channel=1 note=43 velocity=0 time=32
note_on channel=1 note=50 velocity=0 time=0
note_on channel=1 note=55 velocity=0 time=0
note_on channel=1 note=55 velocity=80 time=64
note_on channel=1 note=59 velocity=80 time=0
note_on channel=1 note=62 velocity=80 time=0
note_on channel=1 note=62 velocity=0 time=32
note_on channel=1 note=59 velocity=0 time=0
note_on channel=1 note=55 velocity=0 time=0
note_on channel=1 note=62 velocity=80 time=64
note_on channel=1 note=50 velocity=80 time=0
note_on channel=1 note=50 velocity=0 time=32
note_on channel=1 note=62 velocity=0 time=0
note_on channel=1 note=55 velocity=80 time=16
note_on channel=1 note=59 velocity=80 time=0
note_on channel=1 note=65 velocity=80 time=0
note_on channel=1 note=65 velocity=0 time=32
note_on channel=1 note=59 velocity=0 time=0
note_on channel=1 note=55 velocity=0 time=0
note_on channel=1 note=55 velocity=80 time=16
note_on channel=1 note=43 velocity=80 time=0
note_on channel=1 note=43 velocity=0 time=32
note_on channel=1 note=55 velocity=0 time=0
note_on channel=1 note=59 velocity=80 time=16
note_on channel=1 note=65 velocity=80 time=0
note_on channel=1 note=55 velocity=80 time=0
note_on channel=1 note=55 velocity=0 time=32
note_on channel=1 note=65 velocity=0 time=0
note_on channel=1 note=59 velocity=0 time=0
note_on channel=1 note=60 velocity=80 time=16
note_on channel=1 note=48 velocity=80 time=0
note_on channel=1 note=48 velocity=0 time=32
note_on channel=1 note=60 velocity=0 time=0
note_on channel=1 note=55 velocity=80 time=16
note_on channel=1 note=60 velocity=80 time=0
note_on channel=1 note=64 velocity=80 time=0
note_on channel=1 note=64 velocity=0 time=32
note_on channel=1 note=60 velocity=0 time=0
note_on channel=1 note=55 velocity=0 time=0
note_on channel=1 note=55 velocity=80 time=16
note_on channel=1 note=43 velocity=80 time=0
note_on channel=1 note=43 velocity=0 time=32
note_on channel=1 note=55 velocity=0 time=0
note_on channel=1 note=55 velocity=80 time=16
note_on channel=1 note=60 velocity=80 time=0
note_on channel=1 note=64 velocity=80 time=0
note_on channel=1 note=64 velocity=0 time=32
note_on channel=1 note=60 velocity=0 time=0
note_on channel=1 note=55 velocity=0 time=0
note_on channel=1 note=62 velocity=80 time=16
note_on channel=1 note=50 velocity=80 time=0
note_on channel=1 note=50 velocity=0 time=32
note_on channel=1 note=62 velocity=0 time=0
note_on channel=1 note=55 velocity=80 time=16
note_on channel=1 note=59 velocity=80 time=0
note_on channel=1 note=65 velocity=80 time=0
note_on channel=1 note=65 velocity=0 time=32
note_on channel=1 note=59 velocity=0 time=0
note_on channel=1 note=55 velocity=0 time=0
note_on channel=1 note=55 velocity=80 time=16
note_on channel=1 note=43 velocity=80 time=0
note_on channel=1 note=43 velocity=0 time=32
note_on channel=1 note=55 velocity=0 time=0
note_on channel=1 note=55 velocity=80 time=16
note_on channel=1 note=59 velocity=80 time=0
note_on channel=1 note=65 velocity=80 time=0
note_on channel=1 note=65 velocity=0 time=32
note_on channel=1 note=59 velocity=0 time=0
note_on channel=1 note=55 velocity=0 time=0
note_on channel=1 note=60 velocity=80 time=16
note_on channel=1 note=48 velocity=80 time=0
note_on channel=1 note=48 velocity=0 time=32
note_on channel=1 note=60 velocity=0 time=0
note_on channel=1 note=55 velocity=80 time=16
note_on channel=1 note=60 velocity=80 time=0
note_on channel=1 note=64 velocity=80 time=0
note_on channel=1 note=64 velocity=0 time=32
note_on channel=1 note=60 velocity=0 time=0
note_on channel=1 note=55 velocity=0 time=0
note_on channel=1 note=55 velocity=80 time=16
note_on channel=1 note=60 velocity=80 time=0
note_on channel=1 note=64 velocity=80 time=0
note_on channel=1 note=64 velocity=0 time=32
note_on channel=1 note=60 velocity=0 time=0
note_on channel=1 note=55 velocity=0 time=0
note_on channel=1 note=55 velocity=80 time=16
note_on channel=1 note=43 velocity=80 time=0
note_on channel=1 note=43 velocity=0 time=32
note_on channel=1 note=55 velocity=0 time=0
note_on channel=1 note=60 velocity=80 time=16
note_on channel=1 note=48 velocity=80 time=0
note_on channel=1 note=55 velocity=80 time=48
note_on channel=1 note=60 velocity=80 time=0
note_on channel=1 note=64 velocity=80 time=0
note_on channel=1 note=60 velocity=0 time=16
note_on channel=1 note=48 velocity=0 time=0
note_on channel=1 note=60 velocity=0 time=16
note_on channel=1 note=55 velocity=0 time=0
note_on channel=1 note=64 velocity=0 time=0
note_on channel=1 note=58 velocity=80 time=16
note_on channel=1 note=46 velocity=80 time=0
note_on channel=1 note=55 velocity=80 time=48
note_on channel=1 note=60 velocity=80 time=0
note_on channel=1 note=64 velocity=80 time=0
note_on channel=1 note=46 velocity=0 time=16
note_on channel=1 note=58 velocity=0 time=0
note_on channel=1 note=60 velocity=0 time=16
note_on channel=1 note=55 velocity=0 time=0
note_on channel=1 note=64 velocity=0 time=0
note_on channel=1 note=57 velocity=80 time=16
note_on channel=1 note=45 velocity=80 time=0
note_on channel=1 note=57 velocity=80 time=48
note_on channel=1 note=60 velocity=80 time=0
note_on channel=1 note=65 velocity=80 time=0
note_on channel=1 note=57 velocity=0 time=16
note_on channel=1 note=45 velocity=0 time=0
note_on channel=1 note=57 velocity=0 time=16
note_on channel=1 note=60 velocity=0 time=0
note_on channel=1 note=65 velocity=0 time=0
note_on channel=1 note=44 velocity=80 time=16
note_on channel=1 note=56 velocity=80 time=0
note_on channel=1 note=56 velocity=80 time=48
note_on channel=1 note=60 velocity=80 time=0
note_on channel=1 note=63 velocity=80 time=0
note_on channel=1 note=56 velocity=0 time=16
note_on channel=1 note=44 velocity=0 time=0
note_on channel=1 note=56 velocity=0 time=16
note_on channel=1 note=60 velocity=0 time=0
note_on channel=1 note=63 velocity=0 time=0
note_on channel=1 note=55 velocity=80 time=16
note_on channel=1 note=43 velocity=80 time=0
note_on channel=1 note=43 velocity=0 time=32
note_on channel=1 note=55 velocity=0 time=0
note_on channel=1 note=55 velocity=80 time=16
note_on channel=1 note=60 velocity=80 time=0
note_on channel=1 note=64 velocity=80 time=0
note_on channel=1 note=64 velocity=0 time=32
note_on channel=1 note=60 velocity=0 time=0
note_on channel=1 note=55 velocity=0 time=0
note_on channel=1 note=57 velocity=80 time=16
note_on channel=1 note=45 velocity=80 time=0
note_on channel=1 note=45 velocity=0 time=32
note_on channel=1 note=57 velocity=0 time=0
note_on channel=1 note=43 velocity=80 time=16
note_on channel=1 note=55 velocity=80 time=0
note_on channel=1 note=55 velocity=0 time=32
note_on channel=1 note=43 velocity=0 time=0
note_on channel=1 note=48 velocity=80 time=16
note_on channel=1 note=60 velocity=80 time=0
note_on channel=1 note=60 velocity=0 time=32
note_on channel=1 note=48 velocity=0 time=0
note_on channel=1 note=61 velocity=80 time=112
note_on channel=1 note=49 velocity=80 time=0
note_on channel=1 note=49 velocity=0 time=32
note_on channel=1 note=61 velocity=0 time=0
note_on channel=1 note=62 velocity=80 time=16
note_on channel=1 note=50 velocity=80 time=0
note_on channel=1 note=50 velocity=0 time=32
note_on channel=1 note=62 velocity=0 time=0
note_on channel=1 note=55 velocity=80 time=16
note_on channel=1 note=59 velocity=80 time=0
note_on channel=1 note=65 velocity=80 time=0
note_on channel=1 note=65 velocity=0 time=32
note_on channel=1 note=59 velocity=0 time=0
note_on channel=1 note=55 velocity=0 time=0
note_on channel=1 note=55 velocity=80 time=16
note_on channel=1 note=43 velocity=80 time=0
note_on channel=1 note=43 velocity=0 time=32
note_on channel=1 note=55 velocity=0 time=0
note_on channel=1 note=59 velocity=80 time=16
note_on channel=1 note=65 velocity=80 time=0
note_on channel=1 note=55 velocity=80 time=0
note_on channel=1 note=55 velocity=0 time=32
note_on channel=1 note=65 velocity=0 time=0
note_on channel=1 note=59 velocity=0 time=0
note_on channel=1 note=60 velocity=80 time=16
note_on channel=1 note=48 velocity=80 time=0
note_on channel=1 note=48 velocity=0 time=32
note_on channel=1 note=60 velocity=0 time=0
note_on channel=1 note=55 velocity=80 time=16
note_on channel=1 note=60 velocity=80 time=0
note_on channel=1 note=64 velocity=80 time=0
note_on channel=1 note=64 velocity=0 time=32
note_on channel=1 note=60 velocity=0 time=0
note_on channel=1 note=55 velocity=0 time=0
note_on channel=1 note=55 velocity=80 time=16
note_on channel=1 note=43 velocity=80 time=0
note_on channel=1 note=43 velocity=0 time=32
note_on channel=1 note=55 velocity=0 time=0
note_on channel=1 note=55 velocity=80 time=16
note_on channel=1 note=60 velocity=80 time=0
note_on channel=1 note=64 velocity=80 time=0
note_on channel=1 note=64 velocity=0 time=32
note_on channel=1 note=60 velocity=0 time=0
note_on channel=1 note=55 velocity=0 time=0
note_on channel=1 note=62 velocity=80 time=16
note_on channel=1 note=50 velocity=80 time=0
note_on channel=1 note=50 velocity=0 time=32
note_on channel=1 note=62 velocity=0 time=0
note_on channel=1 note=55 velocity=80 time=16
note_on channel=1 note=59 velocity=80 time=0
note_on channel=1 note=65 velocity=80 time=0
note_on channel=1 note=65 velocity=0 time=32
note_on channel=1 note=59 velocity=0 time=0
note_on channel=1 note=55 velocity=0 time=0
note_on channel=1 note=55 velocity=80 time=16
note_on channel=1 note=43 velocity=80 time=0
note_on channel=1 note=43 velocity=0 time=32
note_on channel=1 note=55 velocity=0 time=0
note_on channel=1 note=55 velocity=80 time=16
note_on channel=1 note=59 velocity=80 time=0
note_on channel=1 note=65 velocity=80 time=0
note_on channel=1 note=65 velocity=0 time=32
note_on channel=1 note=59 velocity=0 time=0
note_on channel=1 note=55 velocity=0 time=0
note_on channel=1 note=60 velocity=80 time=16
note_on channel=1 note=48 velocity=80 time=0
note_on channel=1 note=48 velocity=0 time=32
note_on channel=1 note=60 velocity=0 time=0
note_on channel=1 note=55 velocity=80 time=16
note_on channel=1 note=60 velocity=80 time=0
note_on channel=1 note=64 velocity=80 time=0
note_on channel=1 note=64 velocity=0 time=32
note_on channel=1 note=60 velocity=0 time=0
note_on channel=1 note=55 velocity=0 time=0
note_on channel=1 note=55 velocity=80 time=16
note_on channel=1 note=43 velocity=80 time=0
note_on channel=1 note=43 velocity=0 time=32
note_on channel=1 note=55 velocity=0 time=0
note_on channel=1 note=64 velocity=80 time=16
note_on channel=1 note=60 velocity=80 time=0
note_on channel=1 note=55 velocity=80 time=0
note_on channel=1 note=55 velocity=0 time=32
note_on channel=1 note=60 velocity=0 time=0
note_on channel=1 note=64 velocity=0 time=0
note_on channel=1 note=62 velocity=80 time=16
note_on channel=1 note=50 velocity=80 time=0
note_on channel=1 note=50 velocity=0 time=32
note_on channel=1 note=62 velocity=0 time=0
note_on channel=1 note=55 velocity=80 time=16
note_on channel=1 note=59 velocity=80 time=0
note_on channel=1 note=65 velocity=80 time=0
note_on channel=1 note=65 velocity=0 time=32
note_on channel=1 note=59 velocity=0 time=0
note_on channel=1 note=55 velocity=0 time=0
note_on channel=1 note=55 velocity=80 time=16
note_on channel=1 note=43 velocity=80 time=0
note_on channel=1 note=43 velocity=0 time=32
note_on channel=1 note=55 velocity=0 time=0
note_on channel=1 note=59 velocity=80 time=16
note_on channel=1 note=65 velocity=80 time=0
note_on channel=1 note=55 velocity=80 time=0
note_on channel=1 note=55 velocity=0 time=32
note_on channel=1 note=65 velocity=0 time=0
note_on channel=1 note=59 velocity=0 time=0
note_on channel=1 note=60 velocity=80 time=16
note_on channel=1 note=48 velocity=80 time=0
note_on channel=1 note=48 velocity=0 time=32
note_on channel=1 note=60 velocity=0 time=0
note_on channel=1 note=55 velocity=80 time=16
note_on channel=1 note=60 velocity=80 time=0
note_on channel=1 note=64 velocity=80 time=0
note_on channel=1 note=64 velocity=0 time=32
note_on channel=1 note=60 velocity=0 time=0
note_on channel=1 note=55 velocity=0 time=0
note_on channel=1 note=55 velocity=80 time=16
note_on channel=1 note=43 velocity=80 time=0
note_on channel=1 note=43 velocity=0 time=32
note_on channel=1 note=55 velocity=0 time=0
note_on channel=1 note=49 velocity=80 time=16
note_on channel=1 note=37 velocity=80 time=0
note_on channel=1 note=37 velocity=0 time=32
note_on channel=1 note=49 velocity=0 time=0
note_on channel=1 note=50 velocity=80 time=16
note_on channel=1 note=38 velocity=80 time=0
note_on channel=1 note=38 velocity=0 time=32
note_on channel=1 note=50 velocity=0 time=0
note_on channel=1 note=50 velocity=80 time=16
note_on channel=1 note=55 velocity=80 time=0
note_on channel=1 note=55 velocity=0 time=32
note_on channel=1 note=50 velocity=0 time=0
note_on channel=1 note=50 velocity=80 time=16
note_on channel=1 note=38 velocity=80 time=0
note_on channel=1 note=38 velocity=0 time=32
note_on channel=1 note=50 velocity=0 time=0
note_on channel=1 note=50 velocity=80 time=16
note_on channel=1 note=54 velocity=80 time=0
note_on channel=1 note=54 velocity=0 time=32
note_on channel=1 note=50 velocity=0 time=0
note_on channel=1 note=55 velocity=80 time=16
note_on channel=1 note=50 velocity=80 time=0
note_on channel=1 note=43 velocity=80 time=0
note_on channel=1 note=43 velocity=0 time=32
note_on channel=1 note=50 velocity=0 time=0
note_on channel=1 note=55 velocity=0 time=0
note_on channel=1 note=55 velocity=80 time=64
note_on channel=1 note=59 velocity=80 time=0
note_on channel=1 note=62 velocity=80 time=0
note_on channel=1 note=62 velocity=0 time=32
note_on channel=1 note=59 velocity=0 time=0
note_on channel=1 note=55 velocity=0 time=0
note_on channel=1 note=62 velocity=80 time=64
note_on channel=1 note=50 velocity=80 time=0
note_on channel=1 note=50 velocity=0 time=32
note_on channel=1 note=62 velocity=0 time=0
note_on channel=1 note=55 velocity=80 time=16
note_on channel=1 note=59 velocity=80 time=0
note_on channel=1 note=65 velocity=80 time=0
note_on channel=1 note=65 velocity=0 time=32
note_on channel=1 note=59 velocity=0 time=0
note_on channel=1 note=55 velocity=0 time=0
note_on channel=1 note=55 velocity=80 time=16
note_on channel=1 note=43 velocity=80 time=0
note_on channel=1 note=43 velocity=0 time=32
note_on channel=1 note=55 velocity=0 time=0
note_on channel=1 note=59 velocity=80 time=16
note_on channel=1 note=65 velocity=80 time=0
note_on channel=1 note=55 velocity=80 time=0
note_on channel=1 note=55 velocity=0 time=32
note_on channel=1 note=65 velocity=0 time=0
note_on channel=1 note=59 velocity=0 time=0
note_on channel=1 note=60 velocity=80 time=16
note_on channel=1 note=48 velocity=80 time=0
note_on channel=1 note=48 velocity=0 time=32
note_on channel=1 note=60 velocity=0 time=0
note_on channel=1 note=55 velocity=80 time=16
note_on channel=1 note=60 velocity=80 time=0
note_on channel=1 note=64 velocity=80 time=0
note_on channel=1 note=64 velocity=0 time=32
note_on channel=1 note=60 velocity=0 time=0
note_on channel=1 note=55 velocity=0 time=0
note_on channel=1 note=55 velocity=80 time=16
note_on channel=1 note=43 velocity=80 time=0
note_on channel=1 note=43 velocity=0 time=32
note_on channel=1 note=55 velocity=0 time=0
note_on channel=1 note=55 velocity=80 time=16
note_on channel=1 note=60 velocity=80 time=0
note_on channel=1 note=64 velocity=80 time=0
note_on channel=1 note=64 velocity=0 time=32
note_on channel=1 note=60 velocity=0 time=0
note_on channel=1 note=55 velocity=0 time=0
note_on channel=1 note=62 velocity=80 time=16
note_on channel=1 note=50 velocity=80 time=0
note_on channel=1 note=50 velocity=0 time=32
note_on channel=1 note=62 velocity=0 time=0
note_on channel=1 note=55 velocity=80 time=16
note_on channel=1 note=59 velocity=80 time=0
note_on channel=1 note=65 velocity=80 time=0
note_on channel=1 note=65 velocity=0 time=32
note_on channel=1 note=59 velocity=0 time=0
note_on channel=1 note=55 velocity=0 time=0
note_on channel=1 note=55 velocity=80 time=16
note_on channel=1 note=43 velocity=80 time=0
note_on channel=1 note=43 velocity=0 time=32
note_on channel=1 note=55 velocity=0 time=0
note_on channel=1 note=55 velocity=80 time=16
note_on channel=1 note=59 velocity=80 time=0
note_on channel=1 note=65 velocity=80 time=0
note_on channel=1 note=65 velocity=0 time=32
note_on channel=1 note=59 velocity=0 time=0
note_on channel=1 note=55 velocity=0 time=0
note_on channel=1 note=60 velocity=80 time=16
note_on channel=1 note=48 velocity=80 time=0
note_on channel=1 note=48 velocity=0 time=32
note_on channel=1 note=60 velocity=0 time=0
note_on channel=1 note=55 velocity=80 time=16
note_on channel=1 note=60 velocity=80 time=0
note_on channel=1 note=64 velocity=80 time=0
note_on channel=1 note=64 velocity=0 time=32
note_on channel=1 note=60 velocity=0 time=0
note_on channel=1 note=55 velocity=0 time=0
note_on channel=1 note=55 velocity=80 time=16
note_on channel=1 note=60 velocity=80 time=0
note_on channel=1 note=64 velocity=80 time=0
note_on channel=1 note=64 velocity=0 time=32
note_on channel=1 note=60 velocity=0 time=0
note_on channel=1 note=55 velocity=0 time=0
note_on channel=1 note=55 velocity=80 time=16
note_on channel=1 note=43 velocity=80 time=0
note_on channel=1 note=43 velocity=0 time=32
note_on channel=1 note=55 velocity=0 time=0
note_on channel=1 note=60 velocity=80 time=16
note_on channel=1 note=48 velocity=80 time=0
note_on channel=1 note=55 velocity=80 time=48
note_on channel=1 note=60 velocity=80 time=0
note_on channel=1 note=64 velocity=80 time=0
note_on channel=1 note=60 velocity=0 time=16
note_on channel=1 note=48 velocity=0 time=0
note_on channel=1 note=60 velocity=0 time=16
note_on channel=1 note=55 velocity=0 time=0
note_on channel=1 note=64 velocity=0 time=0
note_on channel=1 note=58 velocity=80 time=16
note_on channel=1 note=46 velocity=80 time=0
note_on channel=1 note=55 velocity=80 time=48
note_on channel=1 note=60 velocity=80 time=0
note_on channel=1 note=64 velocity=80 time=0
note_on channel=1 note=46 velocity=0 time=16
note_on channel=1 note=58 velocity=0 time=0
note_on channel=1 note=60 velocity=0 time=16
note_on channel=1 note=55 velocity=0 time=0
note_on channel=1 note=64 velocity=0 time=0
note_on channel=1 note=57 velocity=80 time=16
note_on channel=1 note=45 velocity=80 time=0
note_on channel=1 note=57 velocity=80 time=48
note_on channel=1 note=60 velocity=80 time=0
note_on channel=1 note=65 velocity=80 time=0
note_on channel=1 note=57 velocity=0 time=16
note_on channel=1 note=45 velocity=0 time=0
note_on channel=1 note=57 velocity=0 time=16
note_on channel=1 note=60 velocity=0 time=0
note_on channel=1 note=65 velocity=0 time=0
note_on channel=1 note=44 velocity=80 time=16
note_on channel=1 note=56 velocity=80 time=0
note_on channel=1 note=56 velocity=80 time=48
note_on channel=1 note=60 velocity=80 time=0
note_on channel=1 note=63 velocity=80 time=0
note_on channel=1 note=56 velocity=0 time=16
note_on channel=1 note=44 velocity=0 time=0
note_on channel=1 note=56 velocity=0 time=16
note_on channel=1 note=60 velocity=0 time=0
note_on channel=1 note=63 velocity=0 time=0
note_on channel=1 note=55 velocity=80 time=16
note_on channel=1 note=43 velocity=80 time=0
note_on channel=1 note=43 velocity=0 time=32
note_on channel=1 note=55 velocity=0 time=0
note_on channel=1 note=55 velocity=80 time=16
note_on channel=1 note=60 velocity=80 time=0
note_on channel=1 note=64 velocity=80 time=0
note_on channel=1 note=64 velocity=0 time=32
note_on channel=1 note=60 velocity=0 time=0
note_on channel=1 note=55 velocity=0 time=0
note_on channel=1 note=57 velocity=80 time=16
note_on channel=1 note=45 velocity=80 time=0
note_on channel=1 note=45 velocity=0 time=32
note_on channel=1 note=57 velocity=0 time=0
note_on channel=1 note=43 velocity=80 time=16
note_on channel=1 note=55 velocity=80 time=0
note_on channel=1 note=55 velocity=0 time=32
note_on channel=1 note=43 velocity=0 time=0
note_on channel=1 note=48 velocity=80 time=16
note_on channel=1 note=60 velocity=80 time=0
note_on channel=1 note=60 velocity=0 time=32
note_on channel=1 note=48 velocity=0 time=0
note_on channel=1 note=55 velocity=80 time=16
note_on channel=1 note=43 velocity=80 time=0
note_on channel=1 note=43 velocity=0 time=32
note_on channel=1 note=55 velocity=0 time=0
note_on channel=1 note=36 velocity=80 time=16
note_on channel=1 note=48 velocity=80 time=0
note_on channel=1 note=48 velocity=0 time=32
note_on channel=1 note=36 velocity=0 time=0
note_on channel=1 note=53 velocity=80 time=736
note_on channel=1 note=41 velocity=80 time=0
note_on channel=1 note=41 velocity=0 time=64
note_on channel=1 note=53 velocity=0 time=0
note_on channel=1 note=62 velocity=80 time=32
note_on channel=1 note=50 velocity=80 time=0
note_on channel=1 note=50 velocity=0 time=16
note_on channel=1 note=62 velocity=0 time=0
note_on channel=1 note=46 velocity=80 time=8
note_on channel=1 note=58 velocity=80 time=0
note_on channel=1 note=58 velocity=0 time=16
note_on channel=1 note=46 velocity=0 time=0
note_on channel=1 note=57 velocity=80 time=8
note_on channel=1 note=45 velocity=80 time=0
note_on channel=1 note=45 velocity=0 time=16
note_on channel=1 note=57 velocity=0 time=0
note_on channel=1 note=43 velocity=80 time=8
note_on channel=1 note=55 velocity=80 time=0
note_on channel=1 note=55 velocity=0 time=16
note_on channel=1 note=43 velocity=0 time=0
note_on channel=1 note=53 velocity=80 time=8
note_on channel=1 note=41 velocity=80 time=0
note_on channel=1 note=41 velocity=0 time=16
note_on channel=1 note=53 velocity=0 time=0
note_on channel=1 note=58 velocity=80 time=8
note_on channel=1 note=46 velocity=80 time=0
note_on channel=1 note=46 velocity=0 time=16
note_on channel=1 note=58 velocity=0 time=0
note_on channel=1 note=48 velocity=80 time=8
note_on channel=1 note=60 velocity=80 time=0
note_on channel=1 note=60 velocity=0 time=16
note_on channel=1 note=48 velocity=0 time=0
note_on channel=1 note=61 velocity=80 time=8
note_on channel=1 note=49 velocity=80 time=0
note_on channel=1 note=49 velocity=0 time=16
note_on channel=1 note=61 velocity=0 time=0
note_on channel=1 note=62 velocity=80 time=8
note_on channel=1 note=50 velocity=80 time=0
note_on channel=1 note=50 velocity=0 time=32
note_on channel=1 note=62 velocity=0 time=0
note_on channel=1 note=48 velocity=80 time=16
note_on channel=1 note=60 velocity=80 time=0
note_on channel=1 note=60 velocity=0 time=32
note_on channel=1 note=48 velocity=0 time=0
note_on channel=1 note=58 velocity=80 time=16
note_on channel=1 note=46 velocity=80 time=0
note_on channel=1 note=46 velocity=0 time=32
note_on channel=1 note=58 velocity=0 time=0
note_on channel=1 note=53 velocity=80 time=16
note_on channel=1 note=58 velocity=80 time=0
note_on channel=1 note=62 velocity=80 time=0
note_on channel=1 note=62 velocity=0 time=32
note_on channel=1 note=58 velocity=0 time=0
note_on channel=1 note=53 velocity=0 time=0
note_on channel=1 note=51 velocity=80 time=16
note_on channel=1 note=39 velocity=80 time=0
note_on channel=1 note=39 velocity=0 time=32
note_on channel=1 note=51 velocity=0 time=0
note_on channel=1 note=55 velocity=80 time=16
note_on channel=1 note=58 velocity=80 time=0
note_on channel=1 note=63 velocity=80 time=0
note_on channel=1 note=63 velocity=0 time=32
note_on channel=1 note=58 velocity=0 time=0
note_on channel=1 note=55 velocity=0 time=0
note_on channel=1 note=51 velocity=80 time=16
note_on channel=1 note=39 velocity=80 time=0
note_on channel=1 note=39 velocity=0 time=32
note_on channel=1 note=51 velocity=0 time=0
note_on channel=1 note=49 velocity=80 time=16
note_on channel=1 note=37 velocity=80 time=0
note_on channel=1 note=37 velocity=0 time=32
note_on channel=1 note=49 velocity=0 time=0
note_on channel=1 note=50 velocity=80 time=16
note_on channel=1 note=38 velocity=80 time=0
note_on channel=1 note=38 velocity=0 time=32
note_on channel=1 note=50 velocity=0 time=0
note_on channel=1 note=53 velocity=80 time=16
note_on channel=1 note=41 velocity=80 time=0
note_on channel=1 note=41 velocity=0 time=16
note_on channel=1 note=53 velocity=0 time=0
note_on channel=1 note=46 velocity=80 time=8
note_on channel=1 note=58 velocity=80 time=0
note_on channel=1 note=58 velocity=0 time=16
note_on channel=1 note=46 velocity=0 time=0
note_on channel=1 note=60 velocity=80 time=8
note_on channel=1 note=48 velocity=80 time=0
note_on channel=1 note=48 velocity=0 time=32
note_on channel=1 note=60 velocity=0 time=0
note_on channel=1 note=51 velocity=80 time=16
note_on channel=1 note=63 velocity=80 time=0
note_on channel=1 note=63 velocity=0 time=32
note_on channel=1 note=51 velocity=0 time=0
note_on channel=1 note=62 velocity=80 time=16
note_on channel=1 note=50 velocity=80 time=0
note_on channel=1 note=50 velocity=0 time=16
note_on channel=1 note=62 velocity=0 time=0
note_on channel=1 note=46 velocity=80 time=8
note_on channel=1 note=58 velocity=80 time=0
note_on channel=1 note=58 velocity=0 time=16
note_on channel=1 note=46 velocity=0 time=0
note_on channel=1 note=57 velocity=80 time=8
note_on channel=1 note=45 velocity=80 time=0
note_on channel=1 note=45 velocity=0 time=16
note_on channel=1 note=57 velocity=0 time=0
note_on channel=1 note=43 velocity=80 time=8
note_on channel=1 note=55 velocity=80 time=0
note_on channel=1 note=55 velocity=0 time=16
note_on channel=1 note=43 velocity=0 time=0
note_on channel=1 note=53 velocity=80 time=8
note_on channel=1 note=41 velocity=80 time=0
note_on channel=1 note=41 velocity=0 time=16
note_on channel=1 note=53 velocity=0 time=0
note_on channel=1 note=50 velocity=80 time=8
note_on channel=1 note=38 velocity=80 time=0
note_on channel=1 note=38 velocity=0 time=16
note_on channel=1 note=50 velocity=0 time=0
note_on channel=1 note=39 velocity=80 time=8
note_on channel=1 note=51 velocity=80 time=0
note_on channel=1 note=51 velocity=0 time=16
note_on channel=1 note=39 velocity=0 time=0
note_on channel=1 note=52 velocity=80 time=8
note_on channel=1 note=40 velocity=80 time=0
note_on channel=1 note=40 velocity=0 time=16
note_on channel=1 note=52 velocity=0 time=0
note_on channel=1 note=53 velocity=80 time=8
note_on channel=1 note=41 velocity=80 time=0
note_on channel=1 note=41 velocity=0 time=32
note_on channel=1 note=53 velocity=0 time=0
note_on channel=1 note=54 velocity=80 time=16
note_on channel=1 note=42 velocity=80 time=0
note_on channel=1 note=42 velocity=0 time=16
note_on channel=1 note=54 velocity=0 time=0
note_on channel=1 note=55 velocity=80 time=8
note_on channel=1 note=43 velocity=80 time=0
note_on channel=1 note=43 velocity=0 time=32
note_on channel=1 note=55 velocity=0 time=0
note_on channel=1 note=46 velocity=80 time=16
note_on channel=1 note=58 velocity=80 time=0
note_on channel=1 note=58 velocity=0 time=16
note_on channel=1 note=46 velocity=0 time=0
note_on channel=1 note=62 velocity=80 time=8
note_on channel=1 note=50 velocity=80 time=0
note_on channel=1 note=50 velocity=0 time=16
note_on channel=1 note=62 velocity=0 time=0
note_on channel=1 note=61 velocity=80 time=8
note_on channel=1 note=49 velocity=80 time=0
note_on channel=1 note=49 velocity=0 time=16
note_on channel=1 note=61 velocity=0 time=0
note_on channel=1 note=60 velocity=80 time=8
note_on channel=1 note=48 velocity=80 time=0
note_on channel=1 note=48 velocity=0 time=32
note_on channel=1 note=60 velocity=0 time=0
note_on channel=1 note=57 velocity=80 time=16
note_on channel=1 note=60 velocity=80 time=0
note_on channel=1 note=60 velocity=0 time=32
note_on channel=1 note=57 velocity=0 time=0
note_on channel=1 note=48 velocity=80 time=16
note_on channel=1 note=48 velocity=0 time=32
note_on channel=1 note=58 velocity=80 time=16
note_on channel=1 note=60 velocity=80 time=0
note_on channel=1 note=60 velocity=0 time=32
note_on channel=1 note=58 velocity=0 time=0
note_on channel=1 note=60 velocity=80 time=16
note_on channel=1 note=57 velocity=80 time=0
note_on channel=1 note=53 velocity=80 time=0
note_on channel=1 note=53 velocity=0 time=32
note_on channel=1 note=57 velocity=0 time=0
note_on channel=1 note=60 velocity=0 time=0
note_on channel=1 note=57 velocity=80 time=16
note_on channel=1 note=45 velocity=80 time=0
note_on channel=1 note=45 velocity=0 time=32
note_on channel=1 note=57 velocity=0 time=0
note_on channel=1 note=60 velocity=80 time=16
note_on channel=1 note=48 velocity=80 time=0
note_on channel=1 note=48 velocity=0 time=32
note_on channel=1 note=60 velocity=0 time=0
note_on channel=1 note=63 velocity=80 time=16
note_on channel=1 note=51 velocity=80 time=0
note_on channel=1 note=51 velocity=0 time=32
note_on channel=1 note=63 velocity=0 time=0
note_on channel=1 note=62 velocity=80 time=16
note_on channel=1 note=50 velocity=80 time=0
note_on channel=1 note=50 velocity=0 time=16
note_on channel=1 note=62 velocity=0 time=0
note_on channel=1 note=46 velocity=80 time=8
note_on channel=1 note=58 velocity=80 time=0
note_on channel=1 note=58 velocity=0 time=16
note_on channel=1 note=46 velocity=0 time=0
note_on channel=1 note=57 velocity=80 time=8
note_on channel=1 note=45 velocity=80 time=0
note_on channel=1 note=45 velocity=0 time=16
note_on channel=1 note=57 velocity=0 time=0
note_on channel=1 note=43 velocity=80 time=8
note_on channel=1 note=55 velocity=80 time=0
note_on channel=1 note=55 velocity=0 time=16
note_on channel=1 note=43 velocity=0 time=0
note_on channel=1 note=53 velocity=80 time=8
note_on channel=1 note=41 velocity=80 time=0
note_on channel=1 note=41 velocity=0 time=16
note_on channel=1 note=53 velocity=0 time=0
note_on channel=1 note=58 velocity=80 time=8
note_on channel=1 note=46 velocity=80 time=0
note_on channel=1 note=46 velocity=0 time=16
note_on channel=1 note=58 velocity=0 time=0
note_on channel=1 note=48 velocity=80 time=8
note_on channel=1 note=60 velocity=80 time=0
note_on channel=1 note=60 velocity=0 time=16
note_on channel=1 note=48 velocity=0 time=0
note_on channel=1 note=61 velocity=80 time=8
note_on channel=1 note=49 velocity=80 time=0
note_on channel=1 note=49 velocity=0 time=16
note_on channel=1 note=61 velocity=0 time=0
note_on channel=1 note=62 velocity=80 time=8
note_on channel=1 note=50 velocity=80 time=0
note_on channel=1 note=50 velocity=0 time=32
note_on channel=1 note=62 velocity=0 time=0
note_on channel=1 note=48 velocity=80 time=16
note_on channel=1 note=60 velocity=80 time=0
note_on channel=1 note=60 velocity=0 time=32
note_on channel=1 note=48 velocity=0 time=0
note_on channel=1 note=58 velocity=80 time=16
note_on channel=1 note=46 velocity=80 time=0
note_on channel=1 note=46 velocity=0 time=32
note_on channel=1 note=58 velocity=0 time=0
note_on channel=1 note=53 velocity=80 time=16
note_on channel=1 note=58 velocity=80 time=0
note_on channel=1 note=62 velocity=80 time=0
note_on channel=1 note=62 velocity=0 time=32
note_on channel=1 note=58 velocity=0 time=0
note_on channel=1 note=53 velocity=0 time=0
note_on channel=1 note=51 velocity=80 time=16
note_on channel=1 note=39 velocity=80 time=0
note_on channel=1 note=39 velocity=0 time=32
note_on channel=1 note=51 velocity=0 time=0
note_on channel=1 note=55 velocity=80 time=16
note_on channel=1 note=58 velocity=80 time=0
note_on channel=1 note=63 velocity=80 time=0
note_on channel=1 note=63 velocity=0 time=32
note_on channel=1 note=58 velocity=0 time=0
note_on channel=1 note=55 velocity=0 time=0
note_on channel=1 note=51 velocity=80 time=16
note_on channel=1 note=39 velocity=80 time=0
note_on channel=1 note=39 velocity=0 time=32
note_on channel=1 note=51 velocity=0 time=0
note_on channel=1 note=55 velocity=80 time=16
note_on channel=1 note=43 velocity=80 time=0
note_on channel=1 note=43 velocity=0 time=32
note_on channel=1 note=55 velocity=0 time=0
note_on channel=1 note=58 velocity=80 time=16
note_on channel=1 note=46 velocity=80 time=0
note_on channel=1 note=46 velocity=0 time=32
note_on channel=1 note=58 velocity=0 time=0
note_on channel=1 note=44 velocity=80 time=16
note_on channel=1 note=56 velocity=80 time=0
note_on channel=1 note=56 velocity=0 time=32
note_on channel=1 note=44 velocity=0 time=0
note_on channel=1 note=55 velocity=80 time=16
note_on channel=1 note=43 velocity=80 time=0
note_on channel=1 note=43 velocity=0 time=32
note_on channel=1 note=55 velocity=0 time=0
note_on channel=1 note=41 velocity=80 time=16
note_on channel=1 note=53 velocity=80 time=0
note_on channel=1 note=53 velocity=0 time=32
note_on channel=1 note=41 velocity=0 time=0
note_on channel=1 note=51 velocity=80 time=16
note_on channel=1 note=39 velocity=80 time=0
note_on channel=1 note=39 velocity=0 time=32
note_on channel=1 note=51 velocity=0 time=0
note_on channel=1 note=55 velocity=80 time=16
note_on channel=1 note=58 velocity=80 time=0
note_on channel=1 note=63 velocity=80 time=0
note_on channel=1 note=63 velocity=0 time=32
note_on channel=1 note=58 velocity=0 time=0
note_on channel=1 note=55 velocity=0 time=0
note_on channel=1 note=51 velocity=80 time=16
note_on channel=1 note=39 velocity=80 time=0
note_on channel=1 note=39 velocity=0 time=32
note_on channel=1 note=51 velocity=0 time=0
note_on channel=1 note=37 velocity=80 time=16
note_on channel=1 note=49 velocity=80 time=0
note_on channel=1 note=49 velocity=0 time=32
note_on channel=1 note=37 velocity=0 time=0
note_on channel=1 note=50 velocity=80 time=16
note_on channel=1 note=38 velocity=80 time=0
note_on channel=1 note=38 velocity=0 time=32
note_on channel=1 note=50 velocity=0 time=0
note_on channel=1 note=32 velocity=80 time=16
note_on channel=1 note=44 velocity=80 time=0
note_on channel=1 note=44 velocity=0 time=32
note_on channel=1 note=32 velocity=0 time=0
note_on channel=1 note=43 velocity=80 time=16
note_on channel=1 note=31 velocity=80 time=0
note_on channel=1 note=31 velocity=0 time=32
note_on channel=1 note=43 velocity=0 time=0
note_on channel=1 note=55 velocity=80 time=16
note_on channel=1 note=59 velocity=80 time=0
note_on channel=1 note=62 velocity=80 time=0
note_on channel=1 note=65 velocity=80 time=0
note_on channel=1 note=65 velocity=0 time=32
note_on channel=1 note=55 velocity=0 time=0
note_on channel=1 note=59 velocity=0 time=0
note_on channel=1 note=62 velocity=0 time=0
note_on channel=1 note=58 velocity=80 time=16
note_on channel=1 note=55 velocity=80 time=0
note_on channel=1 note=48 velocity=80 time=0
note_on channel=1 note=48 velocity=0 time=32
note_on channel=1 note=55 velocity=0 time=0
note_on channel=1 note=58 velocity=0 time=0
note_on channel=1 note=55 velocity=80 time=16
note_on channel=1 note=60 velocity=80 time=0
note_on channel=1 note=64 velocity=80 time=0
note_on channel=1 note=64 velocity=0 time=32
note_on channel=1 note=60 velocity=0 time=0
note_on channel=1 note=55 velocity=0 time=0
note_on channel=1 note=63 velocity=80 time=16
note_on channel=1 note=60 velocity=80 time=0
note_on channel=1 note=55 velocity=80 time=0
note_on channel=1 note=55 velocity=0 time=32
note_on channel=1 note=60 velocity=0 time=0
note_on channel=1 note=63 velocity=0 time=0
note_on channel=1 note=53 velocity=80 time=16
note_on channel=1 note=57 velocity=80 time=0
note_on channel=1 note=63 velocity=80 time=0
note_on channel=1 note=63 velocity=0 time=32
note_on channel=1 note=57 velocity=0 time=0
note_on channel=1 note=53 velocity=0 time=0
note_on channel=1 note=62 velocity=80 time=16
note_on channel=1 note=58 velocity=80 time=0
note_on channel=1 note=58 velocity=0 time=32
note_on channel=1 note=53 velocity=80 time=16
note_on channel=1 note=41 velocity=80 time=0
note_on channel=1 note=41 velocity=0 time=16
note_on channel=1 note=53 velocity=0 time=0
note_on channel=1 note=62 velocity=0 time=0
note_on channel=1 note=43 velocity=80 time=8
note_on channel=1 note=55 velocity=80 time=0
note_on channel=1 note=55 velocity=0 time=16
note_on channel=1 note=43 velocity=0 time=0
note_on channel=1 note=57 velocity=80 time=8
note_on channel=1 note=45 velocity=80 time=0
note_on channel=1 note=45 velocity=0 time=16
note_on channel=1 note=57 velocity=0 time=0
note_on channel=1 note=46 velocity=80 time=8
note_on channel=1 note=58 velocity=80 time=0
note_on channel=1 note=58 velocity=0 time=16
note_on channel=1 note=46 velocity=0 time=0
note_on channel=1 note=60 velocity=80 time=8
note_on channel=1 note=48 velocity=80 time=0
note_on channel=1 note=48 velocity=0 time=16
note_on channel=1 note=60 velocity=0 time=0
note_on channel=1 note=49 velocity=80 time=8
note_on channel=1 note=61 velocity=80 time=0
note_on channel=1 note=61 velocity=0 time=16
note_on channel=1 note=49 velocity=0 time=0
note_on channel=1 note=62 velocity=80 time=8
note_on channel=1 note=50 velocity=80 time=0
note_on channel=1 note=50 velocity=0 time=16
note_on channel=1 note=62 velocity=0 time=0
note_on channel=1 note=46 velocity=80 time=8
note_on channel=1 note=58 velocity=80 time=0
note_on channel=1 note=58 velocity=0 time=16
note_on channel=1 note=46 velocity=0 time=0
note_on channel=1 note=57 velocity=80 time=8
note_on channel=1 note=45 velocity=80 time=0
note_on channel=1 note=45 velocity=0 time=16
note_on channel=1 note=57 velocity=0 time=0
note_on channel=1 note=43 velocity=80 time=8
note_on channel=1 note=55 velocity=80 time=0
note_on channel=1 note=55 velocity=0 time=16
note_on channel=1 note=43 velocity=0 time=0
note_on channel=1 note=53 velocity=80 time=8
note_on channel=1 note=41 velocity=80 time=0
note_on channel=1 note=41 velocity=0 time=16
note_on channel=1 note=53 velocity=0 time=0
note_on channel=1 note=58 velocity=80 time=8
note_on channel=1 note=46 velocity=80 time=0
note_on channel=1 note=46 velocity=0 time=16
note_on channel=1 note=58 velocity=0 time=0
note_on channel=1 note=48 velocity=80 time=8
note_on channel=1 note=60 velocity=80 time=0
note_on channel=1 note=60 velocity=0 time=16
note_on channel=1 note=48 velocity=0 time=0
note_on channel=1 note=61 velocity=80 time=8
note_on channel=1 note=49 velocity=80 time=0
note_on channel=1 note=49 velocity=0 time=16
note_on channel=1 note=61 velocity=0 time=0
note_on channel=1 note=62 velocity=80 time=8
note_on channel=1 note=50 velocity=80 time=0
note_on channel=1 note=50 velocity=0 time=32
note_on channel=1 note=62 velocity=0 time=0
note_on channel=1 note=48 velocity=80 time=16
note_on channel=1 note=60 velocity=80 time=0
note_on channel=1 note=60 velocity=0 time=32
note_on channel=1 note=48 velocity=0 time=0
note_on channel=1 note=58 velocity=80 time=16
note_on channel=1 note=46 velocity=80 time=0
note_on channel=1 note=46 velocity=0 time=32
note_on channel=1 note=58 velocity=0 time=0
note_on channel=1 note=53 velocity=80 time=16
note_on channel=1 note=58 velocity=80 time=0
note_on channel=1 note=62 velocity=80 time=0
note_on channel=1 note=62 velocity=0 time=32
note_on channel=1 note=58 velocity=0 time=0
note_on channel=1 note=53 velocity=0 time=0
note_on channel=1 note=51 velocity=80 time=16
note_on channel=1 note=39 velocity=80 time=0
note_on channel=1 note=39 velocity=0 time=32
note_on channel=1 note=51 velocity=0 time=0
note_on channel=1 note=55 velocity=80 time=16
note_on channel=1 note=58 velocity=80 time=0
note_on channel=1 note=63 velocity=80 time=0
note_on channel=1 note=63 velocity=0 time=32
note_on channel=1 note=58 velocity=0 time=0
note_on channel=1 note=55 velocity=0 time=0
note_on channel=1 note=51 velocity=80 time=16
note_on channel=1 note=39 velocity=80 time=0
note_on channel=1 note=39 velocity=0 time=32
note_on channel=1 note=51 velocity=0 time=0
note_on channel=1 note=49 velocity=80 time=16
note_on channel=1 note=37 velocity=80 time=0
note_on channel=1 note=37 velocity=0 time=32
note_on channel=1 note=49 velocity=0 time=0
note_on channel=1 note=50 velocity=80 time=16
note_on channel=1 note=38 velocity=80 time=0
note_on channel=1 note=38 velocity=0 time=32
note_on channel=1 note=50 velocity=0 time=0
note_on channel=1 note=53 velocity=80 time=16
note_on channel=1 note=41 velocity=80 time=0
note_on channel=1 note=41 velocity=0 time=16
note_on channel=1 note=53 velocity=0 time=0
note_on channel=1 note=46 velocity=80 time=8
note_on channel=1 note=58 velocity=80 time=0
note_on channel=1 note=58 velocity=0 time=16
note_on channel=1 note=46 velocity=0 time=0
note_on channel=1 note=60 velocity=80 time=8
note_on channel=1 note=48 velocity=80 time=0
note_on channel=1 note=48 velocity=0 time=32
note_on channel=1 note=60 velocity=0 time=0
note_on channel=1 note=51 velocity=80 time=16
note_on channel=1 note=63 velocity=80 time=0
note_on channel=1 note=63 velocity=0 time=32
note_on channel=1 note=51 velocity=0 time=0
note_on channel=1 note=62 velocity=80 time=16
note_on channel=1 note=50 velocity=80 time=0
note_on channel=1 note=50 velocity=0 time=16
note_on channel=1 note=62 velocity=0 time=0
note_on channel=1 note=46 velocity=80 time=8
note_on channel=1 note=58 velocity=80 time=0
note_on channel=1 note=58 velocity=0 time=16
note_on channel=1 note=46 velocity=0 time=0
note_on channel=1 note=57 velocity=80 time=8
note_on channel=1 note=45 velocity=80 time=0
note_on channel=1 note=45 velocity=0 time=16
note_on channel=1 note=57 velocity=0 time=0
note_on channel=1 note=43 velocity=80 time=8
note_on channel=1 note=55 velocity=80 time=0
note_on channel=1 note=55 velocity=0 time=16
note_on channel=1 note=43 velocity=0 time=0
note_on channel=1 note=53 velocity=80 time=8
note_on channel=1 note=41 velocity=80 time=0
note_on channel=1 note=41 velocity=0 time=16
note_on channel=1 note=53 velocity=0 time=0
note_on channel=1 note=50 velocity=80 time=8
note_on channel=1 note=38 velocity=80 time=0
note_on channel=1 note=38 velocity=0 time=16
note_on channel=1 note=50 velocity=0 time=0
note_on channel=1 note=39 velocity=80 time=8
note_on channel=1 note=51 velocity=80 time=0
note_on channel=1 note=51 velocity=0 time=16
note_on channel=1 note=39 velocity=0 time=0
note_on channel=1 note=52 velocity=80 time=8
note_on channel=1 note=40 velocity=80 time=0
note_on channel=1 note=40 velocity=0 time=16
note_on channel=1 note=52 velocity=0 time=0
note_on channel=1 note=53 velocity=80 time=8
note_on channel=1 note=41 velocity=80 time=0
note_on channel=1 note=41 velocity=0 time=32
note_on channel=1 note=53 velocity=0 time=0
note_on channel=1 note=54 velocity=80 time=16
note_on channel=1 note=42 velocity=80 time=0
note_on channel=1 note=42 velocity=0 time=16
note_on channel=1 note=54 velocity=0 time=0
note_on channel=1 note=55 velocity=80 time=8
note_on channel=1 note=43 velocity=80 time=0
note_on channel=1 note=43 velocity=0 time=32
note_on channel=1 note=55 velocity=0 time=0
note_on channel=1 note=46 velocity=80 time=16
note_on channel=1 note=58 velocity=80 time=0
note_on channel=1 note=58 velocity=0 time=16
note_on channel=1 note=46 velocity=0 time=0
note_on channel=1 note=62 velocity=80 time=8
note_on channel=1 note=50 velocity=80 time=0
note_on channel=1 note=50 velocity=0 time=16
note_on channel=1 note=62 velocity=0 time=0
note_on channel=1 note=61 velocity=80 time=8
note_on channel=1 note=49 velocity=80 time=0
note_on channel=1 note=49 velocity=0 time=16
note_on channel=1 note=61 velocity=0 time=0
note_on channel=1 note=60 velocity=80 time=8
note_on channel=1 note=48 velocity=80 time=0
note_on channel=1 note=48 velocity=0 time=32
note_on channel=1 note=60 velocity=0 time=0
note_on channel=1 note=57 velocity=80 time=16
note_on channel=1 note=60 velocity=80 time=0
note_on channel=1 note=60 velocity=0 time=32
note_on channel=1 note=57 velocity=0 time=0
note_on channel=1 note=48 velocity=80 time=16
note_on channel=1 note=48 velocity=0 time=32
note_on channel=1 note=58 velocity=80 time=16
note_on channel=1 note=60 velocity=80 time=0
note_on channel=1 note=60 velocity=0 time=32
note_on channel=1 note=58 velocity=0 time=0
note_on channel=1 note=60 velocity=80 time=16
note_on channel=1 note=57 velocity=80 time=0
note_on channel=1 note=53 velocity=80 time=0
note_on channel=1 note=53 velocity=0 time=32
note_on channel=1 note=57 velocity=0 time=0
note_on channel=1 note=60 velocity=0 time=0
note_on channel=1 note=57 velocity=80 time=16
note_on channel=1 note=45 velocity=80 time=0
note_on channel=1 note=45 velocity=0 time=32
note_on channel=1 note=57 velocity=0 time=0
note_on channel=1 note=60 velocity=80 time=16
note_on channel=1 note=48 velocity=80 time=0
note_on channel=1 note=48 velocity=0 time=32
note_on channel=1 note=60 velocity=0 time=0
note_on channel=1 note=63 velocity=80 time=16
note_on channel=1 note=51 velocity=80 time=0
note_on channel=1 note=51 velocity=0 time=32
note_on channel=1 note=63 velocity=0 time=0
note_on channel=1 note=62 velocity=80 time=16
note_on channel=1 note=50 velocity=80 time=0
note_on channel=1 note=50 velocity=0 time=16
note_on channel=1 note=62 velocity=0 time=0
note_on channel=1 note=46 velocity=80 time=8
note_on channel=1 note=58 velocity=80 time=0
note_on channel=1 note=58 velocity=0 time=16
note_on channel=1 note=46 velocity=0 time=0
note_on channel=1 note=57 velocity=80 time=8
note_on channel=1 note=45 velocity=80 time=0
note_on channel=1 note=45 velocity=0 time=16
note_on channel=1 note=57 velocity=0 time=0
note_on channel=1 note=43 velocity=80 time=8
note_on channel=1 note=55 velocity=80 time=0
note_on channel=1 note=55 velocity=0 time=16
note_on channel=1 note=43 velocity=0 time=0
note_on channel=1 note=53 velocity=80 time=8
note_on channel=1 note=41 velocity=80 time=0
note_on channel=1 note=41 velocity=0 time=16
note_on channel=1 note=53 velocity=0 time=0
note_on channel=1 note=58 velocity=80 time=8
note_on channel=1 note=46 velocity=80 time=0
note_on channel=1 note=46 velocity=0 time=16
note_on channel=1 note=58 velocity=0 time=0
note_on channel=1 note=48 velocity=80 time=8
note_on channel=1 note=60 velocity=80 time=0
note_on channel=1 note=60 velocity=0 time=16
note_on channel=1 note=48 velocity=0 time=0
note_on channel=1 note=61 velocity=80 time=8
note_on channel=1 note=49 velocity=80 time=0
note_on channel=1 note=49 velocity=0 time=16
note_on channel=1 note=61 velocity=0 time=0
note_on channel=1 note=62 velocity=80 time=8
note_on channel=1 note=50 velocity=80 time=0
note_on channel=1 note=50 velocity=0 time=32
note_on channel=1 note=62 velocity=0 time=0
note_on channel=1 note=48 velocity=80 time=16
note_on channel=1 note=60 velocity=80 time=0
note_on channel=1 note=60 velocity=0 time=32
note_on channel=1 note=48 velocity=0 time=0
note_on channel=1 note=58 velocity=80 time=16
note_on channel=1 note=46 velocity=80 time=0
note_on channel=1 note=46 velocity=0 time=32
note_on channel=1 note=58 velocity=0 time=0
note_on channel=1 note=53 velocity=80 time=16
note_on channel=1 note=58 velocity=80 time=0
note_on channel=1 note=62 velocity=80 time=0
note_on channel=1 note=62 velocity=0 time=32
note_on channel=1 note=58 velocity=0 time=0
note_on channel=1 note=53 velocity=0 time=0
note_on channel=1 note=51 velocity=80 time=16
note_on channel=1 note=39 velocity=80 time=0
note_on channel=1 note=39 velocity=0 time=32
note_on channel=1 note=51 velocity=0 time=0
note_on channel=1 note=55 velocity=80 time=16
note_on channel=1 note=58 velocity=80 time=0
note_on channel=1 note=63 velocity=80 time=0
note_on channel=1 note=63 velocity=0 time=32
note_on channel=1 note=58 velocity=0 time=0
note_on channel=1 note=55 velocity=0 time=0
note_on channel=1 note=51 velocity=80 time=16
note_on channel=1 note=39 velocity=80 time=0
note_on channel=1 note=39 velocity=0 time=32
note_on channel=1 note=51 velocity=0 time=0
note_on channel=1 note=55 velocity=80 time=16
note_on channel=1 note=43 velocity=80 time=0
note_on channel=1 note=43 velocity=0 time=32
note_on channel=1 note=55 velocity=0 time=0
note_on channel=1 note=58 velocity=80 time=16
note_on channel=1 note=46 velocity=80 time=0
note_on channel=1 note=46 velocity=0 time=32
note_on channel=1 note=58 velocity=0 time=0
note_on channel=1 note=44 velocity=80 time=16
note_on channel=1 note=56 velocity=80 time=0
note_on channel=1 note=56 velocity=0 time=32
note_on channel=1 note=44 velocity=0 time=0
note_on channel=1 note=55 velocity=80 time=16
note_on channel=1 note=43 velocity=80 time=0
note_on channel=1 note=43 velocity=0 time=32
note_on channel=1 note=55 velocity=0 time=0
note_on channel=1 note=41 velocity=80 time=16
note_on channel=1 note=53 velocity=80 time=0
note_on channel=1 note=53 velocity=0 time=32
note_on channel=1 note=41 velocity=0 time=0
note_on channel=1 note=51 velocity=80 time=16
note_on channel=1 note=39 velocity=80 time=0
note_on channel=1 note=39 velocity=0 time=32
note_on channel=1 note=51 velocity=0 time=0
note_on channel=1 note=55 velocity=80 time=16
note_on channel=1 note=58 velocity=80 time=0
note_on channel=1 note=63 velocity=80 time=0
note_on channel=1 note=63 velocity=0 time=32
note_on channel=1 note=58 velocity=0 time=0
note_on channel=1 note=55 velocity=0 time=0
note_on channel=1 note=51 velocity=80 time=16
note_on channel=1 note=39 velocity=80 time=0
note_on channel=1 note=39 velocity=0 time=32
note_on channel=1 note=51 velocity=0 time=0
note_on channel=1 note=37 velocity=80 time=16
note_on channel=1 note=49 velocity=80 time=0
note_on channel=1 note=49 velocity=0 time=32
note_on channel=1 note=37 velocity=0 time=0
note_on channel=1 note=50 velocity=80 time=16
note_on channel=1 note=38 velocity=80 time=0
note_on channel=1 note=38 velocity=0 time=32
note_on channel=1 note=50 velocity=0 time=0
note_on channel=1 note=32 velocity=80 time=16
note_on channel=1 note=44 velocity=80 time=0
note_on channel=1 note=44 velocity=0 time=32
note_on channel=1 note=32 velocity=0 time=0
note_on channel=1 note=43 velocity=80 time=16
note_on channel=1 note=31 velocity=80 time=0
note_on channel=1 note=31 velocity=0 time=32
note_on channel=1 note=43 velocity=0 time=0
note_on channel=1 note=55 velocity=80 time=16
note_on channel=1 note=59 velocity=80 time=0
note_on channel=1 note=62 velocity=80 time=0
note_on channel=1 note=65 velocity=80 time=0
note_on channel=1 note=65 velocity=0 time=32
note_on channel=1 note=55 velocity=0 time=0
note_on channel=1 note=59 velocity=0 time=0
note_on channel=1 note=62 velocity=0 time=0
note_on channel=1 note=58 velocity=80 time=16
note_on channel=1 note=55 velocity=80 time=0
note_on channel=1 note=48 velocity=80 time=0
note_on channel=1 note=48 velocity=0 time=32
note_on channel=1 note=55 velocity=0 time=0
note_on channel=1 note=58 velocity=0 time=0
note_on channel=1 note=55 velocity=80 time=16
note_on channel=1 note=60 velocity=80 time=0
note_on channel=1 note=64 velocity=80 time=0
note_on channel=1 note=64 velocity=0 time=32
note_on channel=1 note=60 velocity=0 time=0
note_on channel=1 note=55 velocity=0 time=0
note_on channel=1 note=63 velocity=80 time=16
note_on channel=1 note=60 velocity=80 time=0
note_on channel=1 note=55 velocity=80 time=0
note_on channel=1 note=55 velocity=0 time=32
note_on channel=1 note=60 velocity=0 time=0
note_on channel=1 note=63 velocity=0 time=0
note_on channel=1 note=53 velocity=80 time=16
note_on channel=1 note=57 velocity=80 time=0
note_on channel=1 note=63 velocity=80 time=0
note_on channel=1 note=63 velocity=0 time=32
note_on channel=1 note=57 velocity=0 time=0
note_on channel=1 note=53 velocity=0 time=0
note_on channel=1 note=62 velocity=80 time=16
note_on channel=1 note=58 velocity=80 time=0
note_on channel=1 note=58 velocity=0 time=32
note_on channel=1 note=53 velocity=80 time=16
note_on channel=1 note=41 velocity=80 time=0
note_on channel=1 note=62 velocity=0 time=16
note_on channel=1 note=41 velocity=0 time=16
note_on channel=1 note=53 velocity=0 time=0
note_on channel=1 note=34 velocity=80 time=16
note_on channel=1 note=46 velocity=80 time=0
note_on channel=1 note=46 velocity=0 time=32
note_on channel=1 note=34 velocity=0 time=0
note_on channel=1 note=51 velocity=80 time=64
note_on channel=1 note=51 velocity=0 time=32
note_on channel=1 note=55 velocity=80 time=16
note_on channel=1 note=63 velocity=80 time=0
note_on channel=1 note=58 velocity=80 time=0
note_on channel=1 note=58 velocity=0 time=32
note_on channel=1 note=63 velocity=0 time=0
note_on channel=1 note=55 velocity=0 time=0
note_on channel=1 note=46 velocity=80 time=16
note_on channel=1 note=46 velocity=0 time=32
note_on channel=1 note=55 velocity=80 time=16
note_on channel=1 note=58 velocity=80 time=0
note_on channel=1 note=58 velocity=0 time=32
note_on channel=1 note=55 velocity=0 time=0
note_on channel=1 note=51 velocity=80 time=16
note_on channel=1 note=51 velocity=0 time=32
note_on channel=1 note=55 velocity=80 time=16
note_on channel=1 note=58 velocity=80 time=0
note_on channel=1 note=63 velocity=80 time=0
note_on channel=1 note=63 velocity=0 time=32
note_on channel=1 note=58 velocity=0 time=0
note_on channel=1 note=55 velocity=0 time=0
note_on channel=1 note=46 velocity=80 time=16
note_on channel=1 note=46 velocity=0 time=32
note_on channel=1 note=55 velocity=80 time=16
note_on channel=1 note=58 velocity=80 time=0
note_on channel=1 note=63 velocity=80 time=0
note_on channel=1 note=63 velocity=0 time=32
note_on channel=1 note=58 velocity=0 time=0
note_on channel=1 note=55 velocity=0 time=0
note_on channel=1 note=51 velocity=80 time=16
note_on channel=1 note=51 velocity=0 time=32
note_on channel=1 note=55 velocity=80 time=16
note_on channel=1 note=63 velocity=80 time=0
note_on channel=1 note=58 velocity=80 time=0
note_on channel=1 note=58 velocity=0 time=32
note_on channel=1 note=63 velocity=0 time=0
note_on channel=1 note=55 velocity=0 time=0
note_on channel=1 note=46 velocity=80 time=16
note_on channel=1 note=46 velocity=0 time=32
note_on channel=1 note=55 velocity=80 time=16
note_on channel=1 note=58 velocity=80 time=0
note_on channel=1 note=58 velocity=0 time=32
note_on channel=1 note=55 velocity=0 time=0
note_on channel=1 note=51 velocity=80 time=16
note_on channel=1 note=51 velocity=0 time=32
note_on channel=1 note=55 velocity=80 time=16
note_on channel=1 note=58 velocity=80 time=0
note_on channel=1 note=63 velocity=80 time=0
note_on channel=1 note=63 velocity=0 time=32
note_on channel=1 note=58 velocity=0 time=0
note_on channel=1 note=55 velocity=0 time=0
note_on channel=1 note=51 velocity=80 time=16
note_on channel=1 note=39 velocity=80 time=0
note_on channel=1 note=39 velocity=0 time=32
note_on channel=1 note=51 velocity=0 time=0
note_on channel=1 note=40 velocity=80 time=16
note_on channel=1 note=52 velocity=80 time=0
note_on channel=1 note=52 velocity=0 time=32
note_on channel=1 note=40 velocity=0 time=0
note_on channel=1 note=53 velocity=80 time=16
note_on channel=1 note=41 velocity=80 time=0
note_on channel=1 note=41 velocity=0 time=32
note_on channel=1 note=53 velocity=0 time=0
note_on channel=1 note=56 velocity=80 time=16
note_on channel=1 note=58 velocity=80 time=0
note_on channel=1 note=62 velocity=80 time=0
note_on channel=1 note=62 velocity=0 time=32
note_on channel=1 note=58 velocity=0 time=0
note_on channel=1 note=56 velocity=0 time=0
note_on channel=1 note=46 velocity=80 time=16
note_on channel=1 note=34 velocity=80 time=0
note_on channel=1 note=34 velocity=0 time=32
note_on channel=1 note=46 velocity=0 time=0
note_on channel=1 note=56 velocity=80 time=16
note_on channel=1 note=58 velocity=80 time=0
note_on channel=1 note=62 velocity=80 time=0
note_on channel=1 note=62 velocity=0 time=32
note_on channel=1 note=58 velocity=0 time=0
note_on channel=1 note=56 velocity=0 time=0
note_on channel=1 note=51 velocity=80 time=16
note_on channel=1 note=39 velocity=80 time=0
note_on channel=1 note=39 velocity=0 time=32
note_on channel=1 note=51 velocity=0 time=0
note_on channel=1 note=55 velocity=80 time=16
note_on channel=1 note=58 velocity=80 time=0
note_on channel=1 note=63 velocity=80 time=0
note_on channel=1 note=63 velocity=0 time=32
note_on channel=1 note=58 velocity=0 time=0
note_on channel=1 note=55 velocity=0 time=0
note_on channel=1 note=55 velocity=80 time=16
note_on channel=1 note=43 velocity=80 time=0
note_on channel=1 note=43 velocity=0 time=32
note_on channel=1 note=55 velocity=0 time=0
note_on channel=1 note=42 velocity=80 time=16
note_on channel=1 note=54 velocity=80 time=0
note_on channel=1 note=54 velocity=0 time=32
note_on channel=1 note=42 velocity=0 time=0
note_on channel=1 note=53 velocity=80 time=16
note_on channel=1 note=41 velocity=80 time=0
note_on channel=1 note=41 velocity=0 time=32
note_on channel=1 note=53 velocity=0 time=0
note_on channel=1 note=53 velocity=80 time=16
note_on channel=1 note=58 velocity=80 time=0
note_on channel=1 note=62 velocity=80 time=0
note_on channel=1 note=62 velocity=0 time=32
note_on channel=1 note=58 velocity=0 time=0
note_on channel=1 note=53 velocity=0 time=0
note_on channel=1 note=53 velocity=80 time=16
note_on channel=1 note=41 velocity=80 time=0
note_on channel=1 note=41 velocity=0 time=32
note_on channel=1 note=53 velocity=0 time=0
note_on channel=1 note=53 velocity=80 time=16
note_on channel=1 note=57 velocity=80 time=0
note_on channel=1 note=57 velocity=0 time=32
note_on channel=1 note=53 velocity=0 time=0
note_on channel=1 note=58 velocity=80 time=16
note_on channel=1 note=46 velocity=80 time=0
note_on channel=1 note=46 velocity=0 time=32
note_on channel=1 note=58 velocity=0 time=0
note_on channel=1 note=53 velocity=80 time=16
note_on channel=1 note=53 velocity=0 time=32
note_on channel=1 note=50 velocity=80 time=16
note_on channel=1 note=50 velocity=0 time=32
note_on channel=1 note=46 velocity=80 time=16
note_on channel=1 note=46 velocity=0 time=32
note_on channel=1 note=51 velocity=80 time=16
note_on channel=1 note=51 velocity=0 time=32
note_on channel=1 note=55 velocity=80 time=16
note_on channel=1 note=63 velocity=80 time=0
note_on channel=1 note=58 velocity=80 time=0
note_on channel=1 note=58 velocity=0 time=32
note_on channel=1 note=63 velocity=0 time=0
note_on channel=1 note=55 velocity=0 time=0
note_on channel=1 note=46 velocity=80 time=16
note_on channel=1 note=46 velocity=0 time=32
note_on channel=1 note=55 velocity=80 time=16
note_on channel=1 note=58 velocity=80 time=0
note_on channel=1 note=58 velocity=0 time=32
note_on channel=1 note=55 velocity=0 time=0
note_on channel=1 note=51 velocity=80 time=16
note_on channel=1 note=51 velocity=0 time=32
note_on channel=1 note=55 velocity=80 time=16
note_on channel=1 note=58 velocity=80 time=0
note_on channel=1 note=63 velocity=80 time=0
note_on channel=1 note=63 velocity=0 time=32
note_on channel=1 note=58 velocity=0 time=0
note_on channel=1 note=55 velocity=0 time=0
note_on channel=1 note=46 velocity=80 time=16
note_on channel=1 note=46 velocity=0 time=32
note_on channel=1 note=55 velocity=80 time=16
note_on channel=1 note=58 velocity=80 time=0
note_on channel=1 note=63 velocity=80 time=0
note_on channel=1 note=63 velocity=0 time=32
note_on channel=1 note=58 velocity=0 time=0
note_on channel=1 note=55 velocity=0 time=0
note_on channel=1 note=50 velocity=80 time=16
note_on channel=1 note=50 velocity=0 time=32
note_on channel=1 note=55 velocity=80 time=16
note_on channel=1 note=59 velocity=80 time=0
note_on channel=1 note=65 velocity=80 time=0
note_on channel=1 note=65 velocity=0 time=32
note_on channel=1 note=59 velocity=0 time=0
note_on channel=1 note=55 velocity=0 time=0
note_on channel=1 note=43 velocity=80 time=16
note_on channel=1 note=43 velocity=0 time=32
note_on channel=1 note=55 velocity=80 time=16
note_on channel=1 note=59 velocity=80 time=0
note_on channel=1 note=65 velocity=80 time=0
note_on channel=1 note=65 velocity=0 time=32
note_on channel=1 note=59 velocity=0 time=0
note_on channel=1 note=55 velocity=0 time=0
note_on channel=1 note=48 velocity=80 time=16
note_on channel=1 note=48 velocity=0 time=32
note_on channel=1 note=55 velocity=80 time=16
note_on channel=1 note=60 velocity=80 time=0
note_on channel=1 note=63 velocity=80 time=0
note_on channel=1 note=63 velocity=0 time=32
note_on channel=1 note=60 velocity=0 time=0
note_on channel=1 note=55 velocity=0 time=0
note_on channel=1 note=48 velocity=80 time=16
note_on channel=1 note=48 velocity=0 time=32
note_on channel=1 note=55 velocity=80 time=16
note_on channel=1 note=60 velocity=80 time=0
note_on channel=1 note=63 velocity=80 time=0
note_on channel=1 note=63 velocity=0 time=32
note_on channel=1 note=60 velocity=0 time=0
note_on channel=1 note=55 velocity=0 time=0
note_on channel=1 note=53 velocity=80 time=16
note_on channel=1 note=41 velocity=80 time=0
note_on channel=1 note=41 velocity=0 time=32
note_on channel=1 note=53 velocity=0 time=0
note_on channel=1 note=56 velocity=80 time=16
note_on channel=1 note=60 velocity=80 time=0
note_on channel=1 note=65 velocity=80 time=0
note_on channel=1 note=65 velocity=0 time=32
note_on channel=1 note=60 velocity=0 time=0
note_on channel=1 note=56 velocity=0 time=0
note_on channel=1 note=60 velocity=80 time=16
note_on channel=1 note=48 velocity=80 time=0
note_on channel=1 note=48 velocity=0 time=32
note_on channel=1 note=60 velocity=0 time=0
note_on channel=1 note=47 velocity=80 time=16
note_on channel=1 note=59 velocity=80 time=0
note_on channel=1 note=59 velocity=0 time=32
note_on channel=1 note=47 velocity=0 time=0
note_on channel=1 note=58 velocity=80 time=16
note_on channel=1 note=46 velocity=80 time=0
note_on channel=1 note=46 velocity=0 time=32
note_on channel=1 note=58 velocity=0 time=0
note_on channel=1 note=55 velocity=80 time=16
note_on channel=1 note=58 velocity=80 time=0
note_on channel=1 note=63 velocity=80 time=0
note_on channel=1 note=63 velocity=0 time=32
note_on channel=1 note=58 velocity=0 time=0
note_on channel=1 note=55 velocity=0 time=0
note_on channel=1 note=57 velocity=80 time=16
note_on channel=1 note=45 velocity=80 time=0
note_on channel=1 note=45 velocity=0 time=64
note_on channel=1 note=57 velocity=0 time=0
note_on channel=1 note=58 velocity=80 time=32
note_on channel=1 note=46 velocity=80 time=0
note_on channel=1 note=46 velocity=0 time=32
note_on channel=1 note=58 velocity=0 time=0
note_on channel=1 note=55 velocity=80 time=16
note_on channel=1 note=58 velocity=80 time=0
note_on channel=1 note=63 velocity=80 time=0
note_on channel=1 note=63 velocity=0 time=32
note_on channel=1 note=58 velocity=0 time=0
note_on channel=1 note=55 velocity=0 time=0
note_on channel=1 note=60 velocity=80 time=16
note_on channel=1 note=48 velocity=80 time=0
note_on channel=1 note=48 velocity=0 time=32
note_on channel=1 note=60 velocity=0 time=0
note_on channel=1 note=46 velocity=80 time=16
note_on channel=1 note=58 velocity=80 time=0
note_on channel=1 note=58 velocity=0 time=32
note_on channel=1 note=46 velocity=0 time=0
note_on channel=1 note=51 velocity=80 time=16
note_on channel=1 note=63 velocity=80 time=0
note_on channel=1 note=63 velocity=0 time=32
note_on channel=1 note=51 velocity=0 time=0
note_on channel=1 note=53 velocity=80 time=64
note_on channel=1 note=56 velocity=80 time=0
note_on channel=1 note=58 velocity=80 time=0
note_on channel=1 note=62 velocity=80 time=0
note_on channel=1 note=53 velocity=0 time=32
note_on channel=1 note=46 velocity=80 time=16
note_on channel=1 note=56 velocity=0 time=16
note_on channel=1 note=62 velocity=0 time=0
note_on channel=1 note=58 velocity=0 time=0
note_on channel=1 note=46 velocity=0 time=16
note_on channel=1 note=51 velocity=80 time=16
note_on channel=1 note=51 velocity=0 time=32
note_on channel=1 note=55 velocity=80 time=16
note_on channel=1 note=63 velocity=80 time=0
note_on channel=1 note=58 velocity=80 time=0
note_on channel=1 note=58 velocity=0 time=32
note_on channel=1 note=63 velocity=0 time=0
note_on channel=1 note=55 velocity=0 time=0
note_on channel=1 note=46 velocity=80 time=16
note_on channel=1 note=46 velocity=0 time=32
note_on channel=1 note=55 velocity=80 time=16
note_on channel=1 note=58 velocity=80 time=0
note_on channel=1 note=58 velocity=0 time=32
note_on channel=1 note=55 velocity=0 time=0
note_on channel=1 note=51 velocity=80 time=16
note_on channel=1 note=51 velocity=0 time=32
note_on channel=1 note=55 velocity=80 time=16
note_on channel=1 note=58 velocity=80 time=0
note_on channel=1 note=63 velocity=80 time=0
note_on channel=1 note=63 velocity=0 time=32
note_on channel=1 note=58 velocity=0 time=0
note_on channel=1 note=55 velocity=0 time=0
note_on channel=1 note=46 velocity=80 time=16
note_on channel=1 note=46 velocity=0 time=32
note_on channel=1 note=55 velocity=80 time=16
note_on channel=1 note=58 velocity=80 time=0
note_on channel=1 note=63 velocity=80 time=0
note_on channel=1 note=63 velocity=0 time=32
note_on channel=1 note=58 velocity=0 time=0
note_on channel=1 note=55 velocity=0 time=0
note_on channel=1 note=51 velocity=80 time=16
note_on channel=1 note=51 velocity=0 time=32
note_on channel=1 note=55 velocity=80 time=16
note_on channel=1 note=63 velocity=80 time=0
note_on channel=1 note=58 velocity=80 time=0
note_on channel=1 note=58 velocity=0 time=32
note_on channel=1 note=63 velocity=0 time=0
note_on channel=1 note=55 velocity=0 time=0
note_on channel=1 note=46 velocity=80 time=16
note_on channel=1 note=46 velocity=0 time=32
note_on channel=1 note=55 velocity=80 time=16
note_on channel=1 note=58 velocity=80 time=0
note_on channel=1 note=58 velocity=0 time=32
note_on channel=1 note=55 velocity=0 time=0
note_on channel=1 note=51 velocity=80 time=16
note_on channel=1 note=51 velocity=0 time=32
note_on channel=1 note=55 velocity=80 time=16
note_on channel=1 note=58 velocity=80 time=0
note_on channel=1 note=63 velocity=80 time=0
note_on channel=1 note=63 velocity=0 time=32
note_on channel=1 note=58 velocity=0 time=0
note_on channel=1 note=55 velocity=0 time=0
note_on channel=1 note=51 velocity=80 time=16
note_on channel=1 note=39 velocity=80 time=0
note_on channel=1 note=39 velocity=0 time=32
note_on channel=1 note=51 velocity=0 time=0
note_on channel=1 note=40 velocity=80 time=16
note_on channel=1 note=52 velocity=80 time=0
note_on channel=1 note=52 velocity=0 time=32
note_on channel=1 note=40 velocity=0 time=0
note_on channel=1 note=53 velocity=80 time=16
note_on channel=1 note=41 velocity=80 time=0
note_on channel=1 note=41 velocity=0 time=32
note_on channel=1 note=53 velocity=0 time=0
note_on channel=1 note=56 velocity=80 time=16
note_on channel=1 note=58 velocity=80 time=0
note_on channel=1 note=62 velocity=80 time=0
note_on channel=1 note=62 velocity=0 time=32
note_on channel=1 note=58 velocity=0 time=0
note_on channel=1 note=56 velocity=0 time=0
note_on channel=1 note=46 velocity=80 time=16
note_on channel=1 note=34 velocity=80 time=0
note_on channel=1 note=34 velocity=0 time=32
note_on channel=1 note=46 velocity=0 time=0
note_on channel=1 note=56 velocity=80 time=16
note_on channel=1 note=58 velocity=80 time=0
note_on channel=1 note=62 velocity=80 time=0
note_on channel=1 note=62 velocity=0 time=32
note_on channel=1 note=58 velocity=0 time=0
note_on channel=1 note=56 velocity=0 time=0
note_on channel=1 note=51 velocity=80 time=16
note_on channel=1 note=39 velocity=80 time=0
note_on channel=1 note=39 velocity=0 time=32
note_on channel=1 note=51 velocity=0 time=0
note_on channel=1 note=55 velocity=80 time=16
note_on channel=1 note=58 velocity=80 time=0
note_on channel=1 note=63 velocity=80 time=0
note_on channel=1 note=63 velocity=0 time=32
note_on channel=1 note=58 velocity=0 time=0
note_on channel=1 note=55 velocity=0 time=0
note_on channel=1 note=55 velocity=80 time=16
note_on channel=1 note=43 velocity=80 time=0
note_on channel=1 note=43 velocity=0 time=32
note_on channel=1 note=55 velocity=0 time=0
note_on channel=1 note=42 velocity=80 time=16
note_on channel=1 note=54 velocity=80 time=0
note_on channel=1 note=54 velocity=0 time=32
note_on channel=1 note=42 velocity=0 time=0
note_on channel=1 note=53 velocity=80 time=16
note_on channel=1 note=41 velocity=80 time=0
note_on channel=1 note=41 velocity=0 time=32
note_on channel=1 note=53 velocity=0 time=0
note_on channel=1 note=53 velocity=80 time=16
note_on channel=1 note=58 velocity=80 time=0
note_on channel=1 note=62 velocity=80 time=0
note_on channel=1 note=62 velocity=0 time=32
note_on channel=1 note=58 velocity=0 time=0
note_on channel=1 note=53 velocity=0 time=0
note_on channel=1 note=53 velocity=80 time=16
note_on channel=1 note=41 velocity=80 time=0
note_on channel=1 note=41 velocity=0 time=32
note_on channel=1 note=53 velocity=0 time=0
note_on channel=1 note=53 velocity=80 time=16
note_on channel=1 note=57 velocity=80 time=0
note_on channel=1 note=57 velocity=0 time=32
note_on channel=1 note=53 velocity=0 time=0
note_on channel=1 note=58 velocity=80 time=16
note_on channel=1 note=46 velocity=80 time=0
note_on channel=1 note=46 velocity=0 time=32
note_on channel=1 note=58 velocity=0 time=0
note_on channel=1 note=53 velocity=80 time=16
note_on channel=1 note=53 velocity=0 time=32
note_on channel=1 note=50 velocity=80 time=16
note_on channel=1 note=50 velocity=0 time=32
note_on channel=1 note=46 velocity=80 time=16
note_on channel=1 note=46 velocity=0 time=32
note_on channel=1 note=51 velocity=80 time=16
note_on channel=1 note=51 velocity=0 time=32
note_on channel=1 note=55 velocity=80 time=16
note_on channel=1 note=63 velocity=80 time=0
note_on channel=1 note=58 velocity=80 time=0
note_on channel=1 note=58 velocity=0 time=32
note_on channel=1 note=63 velocity=0 time=0
note_on channel=1 note=55 velocity=0 time=0
note_on channel=1 note=46 velocity=80 time=16
note_on channel=1 note=46 velocity=0 time=32
note_on channel=1 note=55 velocity=80 time=16
note_on channel=1 note=58 velocity=80 time=0
note_on channel=1 note=58 velocity=0 time=32
note_on channel=1 note=55 velocity=0 time=0
note_on channel=1 note=51 velocity=80 time=16
note_on channel=1 note=51 velocity=0 time=32
note_on channel=1 note=55 velocity=80 time=16
note_on channel=1 note=58 velocity=80 time=0
note_on channel=1 note=63 velocity=80 time=0
note_on channel=1 note=63 velocity=0 time=32
note_on channel=1 note=58 velocity=0 time=0
note_on channel=1 note=55 velocity=0 time=0
note_on channel=1 note=46 velocity=80 time=16
note_on channel=1 note=46 velocity=0 time=32
note_on channel=1 note=55 velocity=80 time=16
note_on channel=1 note=58 velocity=80 time=0
note_on channel=1 note=63 velocity=80 time=0
note_on channel=1 note=63 velocity=0 time=32
note_on channel=1 note=58 velocity=0 time=0
note_on channel=1 note=55 velocity=0 time=0
note_on channel=1 note=50 velocity=80 time=16
note_on channel=1 note=50 velocity=0 time=32
note_on channel=1 note=55 velocity=80 time=16
note_on channel=1 note=59 velocity=80 time=0
note_on channel=1 note=65 velocity=80 time=0
note_on channel=1 note=65 velocity=0 time=32
note_on channel=1 note=59 velocity=0 time=0
note_on channel=1 note=55 velocity=0 time=0
note_on channel=1 note=43 velocity=80 time=16
note_on channel=1 note=43 velocity=0 time=32
note_on channel=1 note=55 velocity=80 time=16
note_on channel=1 note=59 velocity=80 time=0
note_on channel=1 note=65 velocity=80 time=0
note_on channel=1 note=65 velocity=0 time=32
note_on channel=1 note=59 velocity=0 time=0
note_on channel=1 note=55 velocity=0 time=0
note_on channel=1 note=48 velocity=80 time=16
note_on channel=1 note=48 velocity=0 time=32
note_on channel=1 note=55 velocity=80 time=16
note_on channel=1 note=60 velocity=80 time=0
note_on channel=1 note=63 velocity=80 time=0
note_on channel=1 note=63 velocity=0 time=32
note_on channel=1 note=60 velocity=0 time=0
note_on channel=1 note=55 velocity=0 time=0
note_on channel=1 note=48 velocity=80 time=16
note_on channel=1 note=48 velocity=0 time=32
note_on channel=1 note=55 velocity=80 time=16
note_on channel=1 note=60 velocity=80 time=0
note_on channel=1 note=63 velocity=80 time=0
note_on channel=1 note=63 velocity=0 time=32
note_on channel=1 note=60 velocity=0 time=0
note_on channel=1 note=55 velocity=0 time=0
note_on channel=1 note=53 velocity=80 time=16
note_on channel=1 note=41 velocity=80 time=0
note_on channel=1 note=41 velocity=0 time=32
note_on channel=1 note=53 velocity=0 time=0
note_on channel=1 note=56 velocity=80 time=16
note_on channel=1 note=60 velocity=80 time=0
note_on channel=1 note=65 velocity=80 time=0
note_on channel=1 note=65 velocity=0 time=32
note_on channel=1 note=60 velocity=0 time=0
note_on channel=1 note=56 velocity=0 time=0
note_on channel=1 note=60 velocity=80 time=16
note_on channel=1 note=48 velocity=80 time=0
note_on channel=1 note=48 velocity=0 time=32
note_on channel=1 note=60 velocity=0 time=0
note_on channel=1 note=47 velocity=80 time=16
note_on channel=1 note=59 velocity=80 time=0
note_on channel=1 note=59 velocity=0 time=32
note_on channel=1 note=47 velocity=0 time=0
note_on channel=1 note=58 velocity=80 time=16
note_on channel=1 note=46 velocity=80 time=0
note_on channel=1 note=46 velocity=0 time=32
note_on channel=1 note=58 velocity=0 time=0
note_on channel=1 note=55 velocity=80 time=16
note_on channel=1 note=58 velocity=80 time=0
note_on channel=1 note=63 velocity=80 time=0
note_on channel=1 note=63 velocity=0 time=32
note_on channel=1 note=58 velocity=0 time=0
note_on channel=1 note=55 velocity=0 time=0
note_on channel=1 note=57 velocity=80 time=16
note_on channel=1 note=45 velocity=80 time=0
note_on channel=1 note=45 velocity=0 time=64
note_on channel=1 note=57 velocity=0 time=0
note_on channel=1 note=58 velocity=80 time=32
note_on channel=1 note=46 velocity=80 time=0
note_on channel=1 note=46 velocity=0 time=32
note_on channel=1 note=58 velocity=0 time=0
note_on channel=1 note=55 velocity=80 time=16
note_on channel=1 note=58 velocity=80 time=0
note_on channel=1 note=63 velocity=80 time=0
note_on channel=1 note=63 velocity=0 time=32
note_on channel=1 note=58 velocity=0 time=0
note_on channel=1 note=55 velocity=0 time=0
note_on channel=1 note=60 velocity=80 time=16
note_on channel=1 note=48 velocity=80 time=0
note_on channel=1 note=48 velocity=0 time=32
note_on channel=1 note=60 velocity=0 time=0
note_on channel=1 note=46 velocity=80 time=16
note_on channel=1 note=58 velocity=80 time=0
note_on channel=1 note=58 velocity=0 time=32
note_on channel=1 note=46 velocity=0 time=0
note_on channel=1 note=51 velocity=80 time=16
note_on channel=1 note=63 velocity=80 time=0
note_on channel=1 note=63 velocity=0 time=32
note_on channel=1 note=51 velocity=0 time=0
note_on channel=1 note=58 velocity=80 time=16
note_on channel=1 note=46 velocity=80 time=0
note_on channel=1 note=46 velocity=0 time=32
note_on channel=1 note=58 velocity=0 time=0
note_on channel=1 note=51 velocity=80 time=16
note_on channel=1 note=39 velocity=80 time=0
note_on channel=1 note=39 velocity=0 time=32
note_on channel=1 note=51 velocity=0 time=0
<meta message end_of_track time=0>
<meta message midi_port port=0 time=0>
<meta message track_name name='W. S. Trachtman - MIDI file' time=0>
program_change channel=2 program=0 time=0
note_on channel=2 note=39 velocity=1 time=26208
note_on channel=2 note=51 velocity=1 time=0
note_on channel=2 note=51 velocity=0 time=24
note_on channel=2 note=39 velocity=0 time=0
<meta message end_of_track time=0>
<meta message track_name name='Cleopha - March & Two-Step' time=0>
<meta message track_name name='by Scott Joplin (1902)' time=0>
<meta message copyright text='Copyright  1999 by Warren Trachtman' time=0>
<meta message text text='Copyright  1999 by Warren Trachtman\n' time=0>
<meta message text text='Cleopha - March & Two-Step\n' time=0>
<meta message smpte_offset frame_rate=25 hours=32 minutes=0 seconds=3 frames=0 sub_frames=0 time=0>
<meta message time_signature numerator=2 denominator=4 clocks_per_click=24 notated_32nd_notes_per_beat=8 time=0>
<meta message key_signature key='F' time=0>
<meta message set_tempo tempo=559910 time=0>
<meta message marker text='W.S.Trachtman - MIDI file' time=4>
<meta message set_tempo tempo=614125 time=356>
<meta message set_tempo tempo=571157 time=60>
<meta message set_tempo tempo=559910 time=60>
<meta message set_tempo tempo=614125 time=120>
<meta message set_tempo tempo=571157 time=60>
<meta message set_tempo tempo=571157 time=60>
<meta message set_tempo tempo=559910 time=60>
<meta message set_tempo tempo=615069 time=180>
<meta message set_tempo tempo=559910 time=60>
<meta message marker text='A1' time=184>
<meta message set_tempo tempo=560748 time=1436>
<meta message set_tempo tempo=563380 time=32>
<meta message set_tempo tempo=566038 time=33>
<meta message set_tempo tempo=568720 time=32>
<meta message set_tempo tempo=571429 time=33>
<meta message set_tempo tempo=574163 time=32>
<meta message set_tempo tempo=576923 time=33>
<meta message set_tempo tempo=579710 time=32>
<meta message set_tempo tempo=582524 time=33>
<meta message set_tempo tempo=582524 time=1>
<meta message set_tempo tempo=560748 time=39>
<meta message set_tempo tempo=560748 time=1620>
<meta message set_tempo tempo=563380 time=32>
<meta message set_tempo tempo=566038 time=33>
<meta message set_tempo tempo=568720 time=32>
<meta message set_tempo tempo=571429 time=33>
<meta message set_tempo tempo=574163 time=33>
<meta message set_tempo tempo=576923 time=32>
<meta message set_tempo tempo=579710 time=33>
<meta message set_tempo tempo=582524 time=33>
<meta message set_tempo tempo=582524 time=1>
<meta message set_tempo tempo=557000 time=38>
<meta message marker text='A2' time=184>
<meta message set_tempo tempo=560748 time=1436>
<meta message set_tempo tempo=563380 time=33>
<meta message set_tempo tempo=566038 time=34>
<meta message set_tempo tempo=568720 time=34>
<meta message set_tempo tempo=571429 time=34>
<meta message set_tempo tempo=574163 time=33>
<meta message set_tempo tempo=576923 time=34>
<meta message set_tempo tempo=579710 time=34>
<meta message set_tempo tempo=582524 time=34>
<meta message set_tempo tempo=582524 time=1>
<meta message set_tempo tempo=557000 time=29>
<meta message set_tempo tempo=560748 time=1620>
<meta message set_tempo tempo=563380 time=31>
<meta message set_tempo tempo=566038 time=32>
<meta message set_tempo tempo=568720 time=32>
<meta message set_tempo tempo=571429 time=32>
<meta message set_tempo tempo=574163 time=32>
<meta message set_tempo tempo=576923 time=32>
<meta message set_tempo tempo=579710 time=32>
<meta message set_tempo tempo=582524 time=32>
<meta message set_tempo tempo=582524 time=1>
<meta message set_tempo tempo=560748 time=44>
<meta message marker text='B1' time=184>
<meta message set_tempo tempo=560748 time=3356>
<meta message set_tempo tempo=563380 time=67>
<meta message set_tempo tempo=566038 time=68>
<meta message set_tempo tempo=568720 time=67>
<meta message set_tempo tempo=571429 time=68>
<meta message set_tempo tempo=571429 time=1>
<meta message set_tempo tempo=560748 time=29>
<meta message marker text='B2' time=184>
<meta message set_tempo tempo=560748 time=3356>
<meta message set_tempo tempo=563380 time=27>
<meta message set_tempo tempo=566038 time=28>
<meta message set_tempo tempo=568720 time=27>
<meta message set_tempo tempo=571429 time=28>
<meta message set_tempo tempo=574163 time=27>
<meta message set_tempo tempo=576923 time=28>
<meta message set_tempo tempo=579710 time=27>
<meta message set_tempo tempo=582524 time=28>
<meta message set_tempo tempo=585366 time=27>
<meta message set_tempo tempo=588235 time=28>
<meta message set_tempo tempo=588235 time=1>
<meta message set_tempo tempo=560748 time=24>
<meta message marker text='A3' time=180>
<meta message set_tempo tempo=560748 time=1440>
<meta message set_tempo tempo=563380 time=32>
<meta message set_tempo tempo=566038 time=33>
<meta message set_tempo tempo=568720 time=32>
<meta message set_tempo tempo=571429 time=33>
<meta message set_tempo tempo=574163 time=32>
<meta message set_tempo tempo=576923 time=33>
<meta message set_tempo tempo=579710 time=32>
<meta message set_tempo tempo=582524 time=33>
<meta message set_tempo tempo=582524 time=1>
<meta message set_tempo tempo=560748 time=39>
<meta message set_tempo tempo=560748 time=1620>
<meta message set_tempo tempo=563380 time=45>
<meta message set_tempo tempo=566038 time=45>
<meta message set_tempo tempo=568720 time=45>
<meta message set_tempo tempo=571429 time=45>
<meta message set_tempo tempo=574163 time=45>
<meta message set_tempo tempo=576923 time=45>
<meta message set_tempo tempo=579710 time=45>
<meta message set_tempo tempo=582524 time=45>
<meta message set_tempo tempo=582524 time=1>
<meta message set_tempo tempo=560748 time=59>
<meta message marker text='C1' time=60>
<meta message marker text='C2' time=3840>
<meta message set_tempo tempo=560748 time=3360>
<meta message set_tempo tempo=563380 time=33>
<meta message set_tempo tempo=566038 time=34>
<meta message set_tempo tempo=568720 time=34>
<meta message set_tempo tempo=571429 time=34>
<meta message set_tempo tempo=574163 time=33>
<meta message set_tempo tempo=576923 time=34>
<meta message set_tempo tempo=579710 time=34>
<meta message set_tempo tempo=582524 time=34>
<meta message set_tempo tempo=582524 time=1>
<meta message set_tempo tempo=566038 time=29>
<meta message marker text='D1' time=180>
<meta message set_tempo tempo=566038 time=3360>
<meta message set_tempo tempo=568720 time=33>
<meta message set_tempo tempo=571429 time=34>
<meta message set_tempo tempo=574163 time=34>
<meta message set_tempo tempo=576923 time=34>
<meta message set_tempo tempo=579710 time=33>
<meta message set_tempo tempo=582524 time=34>
<meta message set_tempo tempo=585366 time=34>
<meta message set_tempo tempo=588235 time=34>
<meta message set_tempo tempo=588235 time=1>
<meta message set_tempo tempo=555556 time=29>
<meta message marker text='D2' time=180>
<meta message set_tempo tempo=588235 time=3781>
<meta message set_tempo tempo=600000 time=269>
<meta message end_of_track time=0>
<meta message midi_port port=0 time=0>
<meta message track_name name='Cleopha' time=0>
control_change channel=0 control=0 value=0 time=0
control_change channel=0 control=32 value=0 time=0
program_change channel=0 program=0 time=0
control_change channel=0 control=7 value=127 time=0
control_change channel=0 control=10 value=84 time=0
control_change channel=0 control=121 value=0 time=0
control_change channel=0 control=1 value=0 time=0
control_change channel=0 control=64 value=0 time=37
aftertouch channel=0 value=0 time=1
pitchwheel channel=0 pitch=0 time=0
control_change channel=0 control=93 value=4 time=5
control_change channel=0 control=91 value=8 time=0
note_on channel=0 note=72 velocity=78 time=137
<meta message lyrics text='Cleopha ' time=0>
note_on channel=0 note=77 velocity=92 time=60
note_on channel=0 note=72 velocity=0 time=14
note_on channel=0 note=77 velocity=0 time=42
note_on channel=0 note=77 velocity=86 time=4
<meta message lyrics text='March ' time=0>
note_on channel=0 note=79 velocity=81 time=30
<meta message lyrics text='& ' time=0>
note_on channel=0 note=77 velocity=0 time=10
note_on channel=0 note=77 velocity=91 time=20
<meta message lyrics text='Two' time=0>
note_on channel=0 note=79 velocity=0 time=5
note_on channel=0 note=77 velocity=0 time=51
note_on channel=0 note=77 velocity=81 time=4
<meta message lyrics text='Step; ' time=0>
note_on channel=0 note=77 velocity=0 time=44
note_on channel=0 note=77 velocity=88 time=16
<meta message lyrics text='by ' time=0>
note_on channel=0 note=77 velocity=0 time=58
note_on channel=0 note=77 velocity=84 time=2
<meta message lyrics text='Scott ' time=0>
note_on channel=0 note=79 velocity=79 time=30
<meta message lyrics text='Joplin ' time=0>
note_on channel=0 note=77 velocity=0 time=10
note_on channel=0 note=77 velocity=91 time=20
<meta message lyrics text='(1902) ' time=0>
note_on channel=0 note=79 velocity=0 time=10
note_on channel=0 note=77 velocity=0 time=47
note_on channel=0 note=77 velocity=84 time=3
note_on channel=0 note=77 velocity=0 time=43
note_on channel=0 note=77 velocity=91 time=17
<meta message lyrics text='W.S.Trachtman ' time=0>
note_on channel=0 note=77 velocity=0 time=57
note_on channel=0 note=77 velocity=84 time=3
<meta message lyrics text='MIDI ' time=0>
note_on channel=0 note=79 velocity=78 time=32
<meta message lyrics text='file ' time=0>
note_on channel=0 note=77 velocity=0 time=11
note_on channel=0 note=80 velocity=88 time=17
note_on channel=0 note=79 velocity=0 time=9
note_on channel=0 note=81 velocity=85 time=23
<meta message lyrics text='Rev ' time=0>
note_on channel=0 note=80 velocity=0 time=15
note_on channel=0 note=82 velocity=99 time=13
<meta message lyrics text='08/99 ' time=0>
<meta message lyrics text='\r' time=0>
note_on channel=0 note=81 velocity=0 time=9
note_on channel=0 note=83 velocity=93 time=23
note_on channel=0 note=82 velocity=0 time=14
note_on channel=0 note=84 velocity=109 time=14
note_on channel=0 note=83 velocity=0 time=11
note_on channel=0 note=84 velocity=0 time=44
note_on channel=0 note=60 velocity=96 time=5
note_on channel=0 note=72 velocity=96 time=0
note_on channel=0 note=60 velocity=0 time=57
note_on channel=0 note=72 velocity=0 time=1
note_on channel=0 note=62 velocity=103 time=2
note_on channel=0 note=74 velocity=103 time=0
note_on channel=0 note=64 velocity=95 time=60
note_on channel=0 note=76 velocity=95 time=0
note_on channel=0 note=74 velocity=0 time=11
note_on channel=0 note=62 velocity=0 time=0
note_on channel=0 note=64 velocity=0 time=46
note_on channel=0 note=76 velocity=0 time=1
note_on channel=0 note=77 velocity=106 time=2
note_on channel=0 note=65 velocity=106 time=0
note_on channel=0 note=69 velocity=95 time=60
note_on channel=0 note=72 velocity=95 time=0
note_on channel=0 note=72 velocity=0 time=43
note_on channel=0 note=69 velocity=0 time=1
note_on channel=0 note=65 velocity=0 time=11
note_on channel=0 note=77 velocity=0 time=2
note_on channel=0 note=63 velocity=99 time=3
note_on channel=0 note=75 velocity=99 time=0
note_on channel=0 note=69 velocity=88 time=60
note_on channel=0 note=72 velocity=90 time=0
note_on channel=0 note=72 velocity=0 time=44
note_on channel=0 note=69 velocity=0 time=1
note_on channel=0 note=63 velocity=0 time=9
note_on channel=0 note=75 velocity=0 time=2
note_on channel=0 note=76 velocity=110 time=4
note_on channel=0 note=72 velocity=110 time=0
note_on channel=0 note=64 velocity=110 time=0
note_on channel=0 note=70 velocity=110 time=0
note_on channel=0 note=84 velocity=93 time=60
note_on channel=0 note=83 velocity=86 time=32
note_on channel=0 note=84 velocity=0 time=17
note_on channel=0 note=84 velocity=97 time=11
note_on channel=0 note=83 velocity=0 time=15
note_on channel=0 note=86 velocity=85 time=17
note_on channel=0 note=84 velocity=0 time=13
note_on channel=0 note=84 velocity=94 time=15
note_on channel=0 note=86 velocity=0 time=18
note_on channel=0 note=72 velocity=0 time=21
note_on channel=0 note=76 velocity=0 time=0
note_on channel=0 note=70 velocity=0 time=2
note_on channel=0 note=64 velocity=0 time=0
note_on channel=0 note=84 velocity=0 time=3
note_on channel=0 note=65 velocity=101 time=16
note_on channel=0 note=77 velocity=101 time=0
note_on channel=0 note=72 velocity=90 time=60
note_on channel=0 note=69 velocity=89 time=0
note_on channel=0 note=69 velocity=0 time=43
note_on channel=0 note=72 velocity=0 time=2
note_on channel=0 note=65 velocity=0 time=10
note_on channel=0 note=77 velocity=0 time=1
note_on channel=0 note=75 velocity=97 time=4
note_on channel=0 note=63 velocity=97 time=0
note_on channel=0 note=69 velocity=92 time=60
note_on channel=0 note=72 velocity=93 time=0
note_on channel=0 note=69 velocity=0 time=44
note_on channel=0 note=72 velocity=0 time=1
note_on channel=0 note=63 velocity=0 time=9
note_on channel=0 note=75 velocity=0 time=0
note_on channel=0 note=70 velocity=104 time=6
note_on channel=0 note=64 velocity=104 time=0
note_on channel=0 note=76 velocity=104 time=0
note_on channel=0 note=72 velocity=104 time=0
note_on channel=0 note=72 velocity=0 time=44
note_on channel=0 note=72 velocity=91 time=16
note_on channel=0 note=74 velocity=86 time=32
note_on channel=0 note=76 velocity=0 time=22
note_on channel=0 note=72 velocity=0 time=6
note_on channel=0 note=76 velocity=92 time=0
note_on channel=0 note=74 velocity=0 time=20
note_on channel=0 note=77 velocity=88 time=12
note_on channel=0 note=76 velocity=0 time=27
note_on channel=0 note=79 velocity=96 time=1
note_on channel=0 note=77 velocity=0 time=20
note_on channel=0 note=64 velocity=0 time=19
note_on channel=0 note=70 velocity=0 time=2
note_on channel=0 note=79 velocity=0 time=15
note_on channel=0 note=70 velocity=108 time=4
note_on channel=0 note=82 velocity=108 time=0
note_on channel=0 note=79 velocity=92 time=60
note_on channel=0 note=76 velocity=92 time=0
note_on channel=0 note=76 velocity=0 time=43
note_on channel=0 note=79 velocity=0 time=2
note_on channel=0 note=70 velocity=0 time=9
note_on channel=0 note=82 velocity=0 time=2
note_on channel=0 note=79 velocity=91 time=4
note_on channel=0 note=67 velocity=97 time=0
note_on channel=0 note=72 velocity=91 time=60
note_on channel=0 note=76 velocity=91 time=0
note_on channel=0 note=72 velocity=0 time=43
note_on channel=0 note=76 velocity=0 time=1
note_on channel=0 note=67 velocity=0 time=13
note_on channel=0 note=79 velocity=0 time=0
note_on channel=0 note=72 velocity=109 time=3
note_on channel=0 note=77 velocity=109 time=0
note_on channel=0 note=84 velocity=109 time=0
note_on channel=0 note=81 velocity=94 time=60
note_on channel=0 note=80 velocity=90 time=32
note_on channel=0 note=81 velocity=0 time=15
note_on channel=0 note=77 velocity=0 time=10
note_on channel=0 note=81 velocity=97 time=3
note_on channel=0 note=80 velocity=0 time=8
note_on channel=0 note=83 velocity=93 time=24
note_on channel=0 note=81 velocity=0 time=16
note_on channel=0 note=84 velocity=0 time=7
note_on channel=0 note=84 velocity=106 time=5
note_on channel=0 note=83 velocity=0 time=6
note_on channel=0 note=72 velocity=0 time=34
note_on channel=0 note=84 velocity=0 time=3
note_on channel=0 note=79 velocity=109 time=17
note_on channel=0 note=67 velocity=109 time=0
note_on channel=0 note=72 velocity=98 time=60
note_on channel=0 note=76 velocity=98 time=0
note_on channel=0 note=76 velocity=0 time=44
note_on channel=0 note=72 velocity=0 time=1
note_on channel=0 note=67 velocity=0 time=12
note_on channel=0 note=79 velocity=0 time=0
note_on channel=0 note=83 velocity=109 time=3
note_on channel=0 note=71 velocity=109 time=0
note_on channel=0 note=83 velocity=0 time=46
note_on channel=0 note=71 velocity=0 time=1
note_on channel=0 note=74 velocity=112 time=13
note_on channel=0 note=86 velocity=112 time=0
note_on channel=0 note=86 velocity=0 time=58
note_on channel=0 note=74 velocity=0 time=1
note_on channel=0 note=72 velocity=108 time=1
note_on channel=0 note=84 velocity=108 time=0
note_on channel=0 note=72 velocity=0 time=43
note_on channel=0 note=84 velocity=0 time=1
note_on channel=0 note=60 velocity=108 time=16
note_on channel=0 note=72 velocity=108 time=0
note_on channel=0 note=60 velocity=0 time=57
note_on channel=0 note=72 velocity=0 time=2
note_on channel=0 note=74 velocity=112 time=1
note_on channel=0 note=62 velocity=112 time=0
note_on channel=0 note=64 velocity=105 time=60
note_on channel=0 note=76 velocity=105 time=0
note_on channel=0 note=74 velocity=0 time=11
note_on channel=0 note=62 velocity=0 time=1
note_on channel=0 note=76 velocity=0 time=44
note_on channel=0 note=64 velocity=0 time=3
note_on channel=0 note=77 velocity=99 time=1
note_on channel=0 note=65 velocity=99 time=0
note_on channel=0 note=69 velocity=86 time=60
note_on channel=0 note=72 velocity=89 time=0
note_on channel=0 note=72 velocity=0 time=44
note_on channel=0 note=69 velocity=0 time=1
note_on channel=0 note=77 velocity=0 time=10
note_on channel=0 note=65 velocity=0 time=2
note_on channel=0 note=75 velocity=92 time=3
note_on channel=0 note=63 velocity=95 time=0
note_on channel=0 note=69 velocity=88 time=60
note_on channel=0 note=72 velocity=89 time=0
note_on channel=0 note=72 velocity=0 time=44
note_on channel=0 note=69 velocity=0 time=1
note_on channel=0 note=75 velocity=0 time=9
note_on channel=0 note=63 velocity=0 time=1
note_on channel=0 note=64 velocity=108 time=5
note_on channel=0 note=76 velocity=108 time=0
note_on channel=0 note=70 velocity=108 time=0
note_on channel=0 note=72 velocity=108 time=0
note_on channel=0 note=84 velocity=95 time=60
note_on channel=0 note=83 velocity=86 time=32
note_on channel=0 note=84 velocity=0 time=11
note_on channel=0 note=84 velocity=91 time=17
note_on channel=0 note=83 velocity=0 time=10
note_on channel=0 note=86 velocity=88 time=22
note_on channel=0 note=84 velocity=0 time=14
note_on channel=0 note=84 velocity=98 time=14
note_on channel=0 note=86 velocity=0 time=8
note_on channel=0 note=76 velocity=0 time=31
note_on channel=0 note=72 velocity=0 time=1
note_on channel=0 note=64 velocity=0 time=1
note_on channel=0 note=70 velocity=0 time=0
note_on channel=0 note=84 velocity=0 time=9
note_on channel=0 note=77 velocity=104 time=10
note_on channel=0 note=65 velocity=104 time=0
note_on channel=0 note=72 velocity=92 time=60
note_on channel=0 note=69 velocity=91 time=0
note_on channel=0 note=72 velocity=0 time=44
note_on channel=0 note=69 velocity=0 time=1
note_on channel=0 note=65 velocity=0 time=9
note_on channel=0 note=77 velocity=0 time=1
note_on channel=0 note=63 velocity=100 time=5
note_on channel=0 note=75 velocity=100 time=0
note_on channel=0 note=72 velocity=90 time=60
note_on channel=0 note=69 velocity=91 time=0
note_on channel=0 note=69 velocity=0 time=44
note_on channel=0 note=72 velocity=0 time=0
note_on channel=0 note=75 velocity=0 time=12
note_on channel=0 note=63 velocity=0 time=0
note_on channel=0 note=76 velocity=104 time=4
note_on channel=0 note=64 velocity=104 time=0
note_on channel=0 note=72 velocity=104 time=0
note_on channel=0 note=70 velocity=104 time=0
note_on channel=0 note=72 velocity=0 time=43
note_on channel=0 note=72 velocity=98 time=17
note_on channel=0 note=74 velocity=90 time=32
note_on channel=0 note=72 velocity=0 time=21
note_on channel=0 note=76 velocity=0 time=1
note_on channel=0 note=76 velocity=101 time=6
note_on channel=0 note=74 velocity=0 time=12
note_on channel=0 note=77 velocity=96 time=20
note_on channel=0 note=76 velocity=0 time=16
note_on channel=0 note=79 velocity=107 time=12
note_on channel=0 note=77 velocity=0 time=13
note_on channel=0 note=70 velocity=0 time=27
note_on channel=0 note=64 velocity=0 time=1
note_on channel=0 note=79 velocity=0 time=12
note_on channel=0 note=82 velocity=113 time=7
note_on channel=0 note=70 velocity=113 time=0
note_on channel=0 note=76 velocity=99 time=60
note_on channel=0 note=79 velocity=99 time=0
note_on channel=0 note=79 velocity=0 time=46
note_on channel=0 note=76 velocity=0 time=1
note_on channel=0 note=82 velocity=0 time=8
note_on channel=0 note=70 velocity=0 time=1
note_on channel=0 note=67 velocity=106 time=4
note_on channel=0 note=79 velocity=106 time=0
note_on channel=0 note=76 velocity=91 time=60
note_on channel=0 note=72 velocity=90 time=0
note_on channel=0 note=72 velocity=0 time=46
note_on channel=0 note=76 velocity=0 time=2
note_on channel=0 note=67 velocity=0 time=6
note_on channel=0 note=79 velocity=0 time=2
note_on channel=0 note=72 velocity=110 time=4
note_on channel=0 note=84 velocity=110 time=0
note_on channel=0 note=81 velocity=104 time=60
note_on channel=0 note=77 velocity=104 time=0
note_on channel=0 note=77 velocity=0 time=47
note_on channel=0 note=81 velocity=0 time=0
note_on channel=0 note=72 velocity=0 time=7
note_on channel=0 note=84 velocity=0 time=2
note_on channel=0 note=80 velocity=117 time=4
note_on channel=0 note=74 velocity=117 time=0
note_on channel=0 note=86 velocity=117 time=0
note_on channel=0 note=77 velocity=117 time=0
note_on channel=0 note=77 velocity=0 time=113
note_on channel=0 note=86 velocity=0 time=1
note_on channel=0 note=74 velocity=0 time=2
note_on channel=0 note=80 velocity=0 time=0
note_on channel=0 note=77 velocity=93 time=4
note_on channel=0 note=65 velocity=95 time=0
note_on channel=0 note=72 velocity=88 time=60
note_on channel=0 note=69 velocity=86 time=0
note_on channel=0 note=69 velocity=0 time=48
note_on channel=0 note=72 velocity=0 time=0
note_on channel=0 note=77 velocity=0 time=7
note_on channel=0 note=65 velocity=0 time=2
note_on channel=0 note=79 velocity=99 time=3
note_on channel=0 note=67 velocity=99 time=0
note_on channel=0 note=64 velocity=93 time=60
note_on channel=0 note=72 velocity=89 time=0
note_on channel=0 note=70 velocity=93 time=0
note_on channel=0 note=70 velocity=0 time=47
note_on channel=0 note=72 velocity=0 time=1
note_on channel=0 note=67 velocity=0 time=7
note_on channel=0 note=64 velocity=0 time=1
note_on channel=0 note=79 velocity=0 time=0
note_on channel=0 note=65 velocity=104 time=4
note_on channel=0 note=77 velocity=104 time=0
note_on channel=0 note=69 velocity=104 time=0
note_on channel=0 note=72 velocity=104 time=0
note_on channel=0 note=72 velocity=0 time=49
note_on channel=0 note=77 velocity=0 time=0
note_on channel=0 note=69 velocity=0 time=2
note_on channel=0 note=65 velocity=0 time=0
note_on channel=0 note=60 velocity=107 time=9
note_on channel=0 note=72 velocity=107 time=0
note_on channel=0 note=60 velocity=0 time=49
note_on channel=0 note=72 velocity=0 time=1
note_on channel=0 note=74 velocity=110 time=10
note_on channel=0 note=62 velocity=110 time=0
note_on channel=0 note=74 velocity=0 time=55
note_on channel=0 note=62 velocity=0 time=1
note_on channel=0 note=64 velocity=100 time=4
note_on channel=0 note=76 velocity=100 time=0
note_on channel=0 note=64 velocity=0 time=47
note_on channel=0 note=76 velocity=0 time=2
note_on channel=0 note=77 velocity=106 time=11
note_on channel=0 note=65 velocity=106 time=0
note_on channel=0 note=69 velocity=95 time=60
note_on channel=0 note=72 velocity=95 time=0
note_on channel=0 note=72 velocity=0 time=43
note_on channel=0 note=69 velocity=0 time=1
note_on channel=0 note=65 velocity=0 time=11
note_on channel=0 note=77 velocity=0 time=2
note_on channel=0 note=63 velocity=99 time=3
note_on channel=0 note=75 velocity=99 time=0
note_on channel=0 note=69 velocity=88 time=60
note_on channel=0 note=72 velocity=90 time=0
note_on channel=0 note=72 velocity=0 time=44
note_on channel=0 note=69 velocity=0 time=1
note_on channel=0 note=63 velocity=0 time=9
note_on channel=0 note=75 velocity=0 time=2
note_on channel=0 note=76 velocity=110 time=4
note_on channel=0 note=72 velocity=110 time=0
note_on channel=0 note=64 velocity=110 time=0
note_on channel=0 note=70 velocity=110 time=0
note_on channel=0 note=84 velocity=93 time=60
note_on channel=0 note=83 velocity=86 time=32
note_on channel=0 note=84 velocity=0 time=17
note_on channel=0 note=84 velocity=97 time=11
note_on channel=0 note=83 velocity=0 time=15
note_on channel=0 note=86 velocity=85 time=17
note_on channel=0 note=84 velocity=0 time=13
note_on channel=0 note=84 velocity=94 time=15
note_on channel=0 note=86 velocity=0 time=18
note_on channel=0 note=72 velocity=0 time=21
note_on channel=0 note=76 velocity=0 time=0
note_on channel=0 note=70 velocity=0 time=2
note_on channel=0 note=64 velocity=0 time=0
note_on channel=0 note=84 velocity=0 time=3
note_on channel=0 note=65 velocity=101 time=16
note_on channel=0 note=77 velocity=101 time=0
note_on channel=0 note=72 velocity=90 time=60
note_on channel=0 note=69 velocity=89 time=0
note_on channel=0 note=69 velocity=0 time=43
note_on channel=0 note=72 velocity=0 time=2
note_on channel=0 note=65 velocity=0 time=10
note_on channel=0 note=77 velocity=0 time=1
note_on channel=0 note=75 velocity=97 time=4
note_on channel=0 note=63 velocity=97 time=0
note_on channel=0 note=69 velocity=92 time=60
note_on channel=0 note=72 velocity=93 time=0
note_on channel=0 note=69 velocity=0 time=44
note_on channel=0 note=72 velocity=0 time=1
note_on channel=0 note=63 velocity=0 time=9
note_on channel=0 note=75 velocity=0 time=0
note_on channel=0 note=70 velocity=104 time=6
note_on channel=0 note=64 velocity=104 time=0
note_on channel=0 note=76 velocity=104 time=0
note_on channel=0 note=72 velocity=104 time=0
note_on channel=0 note=72 velocity=0 time=44
note_on channel=0 note=72 velocity=91 time=16
note_on channel=0 note=74 velocity=86 time=32
note_on channel=0 note=76 velocity=0 time=22
note_on channel=0 note=72 velocity=0 time=6
note_on channel=0 note=76 velocity=92 time=0
note_on channel=0 note=74 velocity=0 time=20
note_on channel=0 note=77 velocity=88 time=12
note_on channel=0 note=76 velocity=0 time=27
note_on channel=0 note=79 velocity=96 time=1
note_on channel=0 note=77 velocity=0 time=20
note_on channel=0 note=64 velocity=0 time=19
note_on channel=0 note=70 velocity=0 time=2
note_on channel=0 note=79 velocity=0 time=15
note_on channel=0 note=70 velocity=108 time=4
note_on channel=0 note=82 velocity=108 time=0
note_on channel=0 note=79 velocity=92 time=60
note_on channel=0 note=76 velocity=92 time=0
note_on channel=0 note=76 velocity=0 time=43
note_on channel=0 note=79 velocity=0 time=2
note_on channel=0 note=70 velocity=0 time=9
note_on channel=0 note=82 velocity=0 time=2
note_on channel=0 note=79 velocity=91 time=4
note_on channel=0 note=67 velocity=97 time=0
note_on channel=0 note=72 velocity=91 time=60
note_on channel=0 note=76 velocity=91 time=0
note_on channel=0 note=72 velocity=0 time=43
note_on channel=0 note=76 velocity=0 time=1
note_on channel=0 note=67 velocity=0 time=13
note_on channel=0 note=79 velocity=0 time=0
note_on channel=0 note=72 velocity=109 time=3
note_on channel=0 note=77 velocity=109 time=0
note_on channel=0 note=84 velocity=109 time=0
note_on channel=0 note=81 velocity=94 time=60
note_on channel=0 note=80 velocity=90 time=32
note_on channel=0 note=81 velocity=0 time=15
note_on channel=0 note=77 velocity=0 time=10
note_on channel=0 note=81 velocity=97 time=3
note_on channel=0 note=80 velocity=0 time=8
note_on channel=0 note=83 velocity=93 time=24
note_on channel=0 note=84 velocity=0 time=2
note_on channel=0 note=81 velocity=0 time=14
note_on channel=0 note=84 velocity=106 time=12
note_on channel=0 note=83 velocity=0 time=6
note_on channel=0 note=72 velocity=0 time=34
note_on channel=0 note=84 velocity=0 time=3
note_on channel=0 note=79 velocity=109 time=17
note_on channel=0 note=67 velocity=109 time=0
note_on channel=0 note=72 velocity=98 time=60
note_on channel=0 note=76 velocity=98 time=0
note_on channel=0 note=76 velocity=0 time=44
note_on channel=0 note=72 velocity=0 time=1
note_on channel=0 note=67 velocity=0 time=12
note_on channel=0 note=79 velocity=0 time=0
note_on channel=0 note=83 velocity=109 time=3
note_on channel=0 note=71 velocity=109 time=0
note_on channel=0 note=83 velocity=0 time=46
note_on channel=0 note=71 velocity=0 time=1
note_on channel=0 note=74 velocity=112 time=13
note_on channel=0 note=86 velocity=112 time=0
note_on channel=0 note=86 velocity=0 time=39
note_on channel=0 note=74 velocity=0 time=0
note_on channel=0 note=72 velocity=116 time=21
note_on channel=0 note=84 velocity=116 time=0
note_on channel=0 note=72 velocity=0 time=43
note_on channel=0 note=84 velocity=0 time=1
note_on channel=0 note=60 velocity=108 time=16
note_on channel=0 note=72 velocity=108 time=0
note_on channel=0 note=60 velocity=0 time=57
note_on channel=0 note=72 velocity=0 time=2
note_on channel=0 note=74 velocity=112 time=1
note_on channel=0 note=62 velocity=112 time=0
note_on channel=0 note=64 velocity=105 time=60
note_on channel=0 note=76 velocity=105 time=0
note_on channel=0 note=74 velocity=0 time=11
note_on channel=0 note=62 velocity=0 time=1
note_on channel=0 note=76 velocity=0 time=44
note_on channel=0 note=64 velocity=0 time=3
note_on channel=0 note=77 velocity=99 time=1
note_on channel=0 note=65 velocity=99 time=0
note_on channel=0 note=69 velocity=86 time=60
note_on channel=0 note=72 velocity=89 time=0
note_on channel=0 note=72 velocity=0 time=44
note_on channel=0 note=69 velocity=0 time=1
note_on channel=0 note=77 velocity=0 time=10
note_on channel=0 note=65 velocity=0 time=2
note_on channel=0 note=75 velocity=92 time=3
note_on channel=0 note=63 velocity=95 time=0
note_on channel=0 note=69 velocity=88 time=60
note_on channel=0 note=72 velocity=89 time=0
note_on channel=0 note=72 velocity=0 time=44
note_on channel=0 note=69 velocity=0 time=1
note_on channel=0 note=75 velocity=0 time=9
note_on channel=0 note=63 velocity=0 time=1
note_on channel=0 note=64 velocity=108 time=5
note_on channel=0 note=76 velocity=108 time=0
note_on channel=0 note=70 velocity=108 time=0
note_on channel=0 note=72 velocity=108 time=0
note_on channel=0 note=84 velocity=95 time=60
note_on channel=0 note=83 velocity=86 time=32
note_on channel=0 note=84 velocity=0 time=11
note_on channel=0 note=84 velocity=91 time=17
note_on channel=0 note=83 velocity=0 time=10
note_on channel=0 note=86 velocity=88 time=22
note_on channel=0 note=84 velocity=0 time=14
note_on channel=0 note=84 velocity=98 time=14
note_on channel=0 note=86 velocity=0 time=8
note_on channel=0 note=76 velocity=0 time=31
note_on channel=0 note=72 velocity=0 time=1
note_on channel=0 note=64 velocity=0 time=1
note_on channel=0 note=70 velocity=0 time=0
note_on channel=0 note=84 velocity=0 time=9
note_on channel=0 note=77 velocity=104 time=10
note_on channel=0 note=65 velocity=104 time=0
note_on channel=0 note=72 velocity=92 time=60
note_on channel=0 note=69 velocity=91 time=0
note_on channel=0 note=72 velocity=0 time=44
note_on channel=0 note=69 velocity=0 time=1
note_on channel=0 note=65 velocity=0 time=9
note_on channel=0 note=77 velocity=0 time=1
note_on channel=0 note=63 velocity=100 time=5
note_on channel=0 note=75 velocity=100 time=0
note_on channel=0 note=72 velocity=90 time=60
note_on channel=0 note=69 velocity=91 time=0
note_on channel=0 note=69 velocity=0 time=44
note_on channel=0 note=72 velocity=0 time=0
note_on channel=0 note=75 velocity=0 time=12
note_on channel=0 note=63 velocity=0 time=0
note_on channel=0 note=76 velocity=104 time=4
note_on channel=0 note=64 velocity=104 time=0
note_on channel=0 note=72 velocity=104 time=0
note_on channel=0 note=70 velocity=104 time=0
note_on channel=0 note=72 velocity=0 time=43
note_on channel=0 note=72 velocity=98 time=17
note_on channel=0 note=74 velocity=90 time=32
note_on channel=0 note=72 velocity=0 time=21
note_on channel=0 note=76 velocity=0 time=1
note_on channel=0 note=76 velocity=97 time=6
note_on channel=0 note=74 velocity=0 time=12
note_on channel=0 note=77 velocity=96 time=20
note_on channel=0 note=76 velocity=0 time=16
note_on channel=0 note=79 velocity=107 time=12
note_on channel=0 note=77 velocity=0 time=13
note_on channel=0 note=70 velocity=0 time=27
note_on channel=0 note=64 velocity=0 time=1
note_on channel=0 note=79 velocity=0 time=12
note_on channel=0 note=82 velocity=113 time=7
note_on channel=0 note=70 velocity=113 time=0
note_on channel=0 note=76 velocity=99 time=60
note_on channel=0 note=79 velocity=99 time=0
note_on channel=0 note=79 velocity=0 time=46
note_on channel=0 note=76 velocity=0 time=1
note_on channel=0 note=82 velocity=0 time=8
note_on channel=0 note=70 velocity=0 time=1
note_on channel=0 note=67 velocity=106 time=4
note_on channel=0 note=79 velocity=106 time=0
note_on channel=0 note=76 velocity=91 time=60
note_on channel=0 note=72 velocity=90 time=0
note_on channel=0 note=72 velocity=0 time=46
note_on channel=0 note=76 velocity=0 time=2
note_on channel=0 note=67 velocity=0 time=6
note_on channel=0 note=79 velocity=0 time=2
note_on channel=0 note=72 velocity=110 time=4
note_on channel=0 note=84 velocity=110 time=0
note_on channel=0 note=81 velocity=100 time=60
note_on channel=0 note=77 velocity=100 time=0
note_on channel=0 note=77 velocity=0 time=47
note_on channel=0 note=81 velocity=0 time=0
note_on channel=0 note=72 velocity=0 time=7
note_on channel=0 note=84 velocity=0 time=2
note_on channel=0 note=80 velocity=117 time=4
note_on channel=0 note=74 velocity=117 time=0
note_on channel=0 note=86 velocity=117 time=0
note_on channel=0 note=77 velocity=117 time=0
note_on channel=0 note=77 velocity=0 time=113
note_on channel=0 note=86 velocity=0 time=1
note_on channel=0 note=74 velocity=0 time=2
note_on channel=0 note=80 velocity=0 time=0
note_on channel=0 note=77 velocity=93 time=4
note_on channel=0 note=65 velocity=95 time=0
note_on channel=0 note=72 velocity=88 time=60
note_on channel=0 note=69 velocity=86 time=0
note_on channel=0 note=69 velocity=0 time=48
note_on channel=0 note=72 velocity=0 time=0
note_on channel=0 note=77 velocity=0 time=7
note_on channel=0 note=65 velocity=0 time=2
note_on channel=0 note=79 velocity=99 time=3
note_on channel=0 note=67 velocity=99 time=0
note_on channel=0 note=64 velocity=93 time=60
note_on channel=0 note=72 velocity=89 time=0
note_on channel=0 note=70 velocity=93 time=0
note_on channel=0 note=70 velocity=0 time=47
note_on channel=0 note=72 velocity=0 time=1
note_on channel=0 note=67 velocity=0 time=7
note_on channel=0 note=64 velocity=0 time=1
note_on channel=0 note=79 velocity=0 time=0
note_on channel=0 note=65 velocity=109 time=4
note_on channel=0 note=77 velocity=109 time=0
note_on channel=0 note=69 velocity=109 time=0
note_on channel=0 note=72 velocity=109 time=0
note_on channel=0 note=72 velocity=0 time=69
note_on channel=0 note=77 velocity=0 time=0
note_on channel=0 note=69 velocity=0 time=2
note_on channel=0 note=65 velocity=0 time=0
note_on channel=0 note=72 velocity=96 time=49
note_on channel=0 note=72 velocity=0 time=59
note_on channel=0 note=73 velocity=85 time=1
note_on channel=0 note=73 velocity=0 time=56
note_on channel=0 note=74 velocity=92 time=4
note_on channel=0 note=74 velocity=0 time=86
note_on channel=0 note=72 velocity=80 time=6
note_on channel=0 note=66 velocity=87 time=28
note_on channel=0 note=72 velocity=0 time=10
note_on channel=0 note=66 velocity=0 time=131
note_on channel=0 note=66 velocity=89 time=11
note_on channel=0 note=69 velocity=92 time=28
note_on channel=0 note=66 velocity=0 time=10
note_on channel=0 note=72 velocity=86 time=22
note_on channel=0 note=69 velocity=0 time=9
note_on channel=0 note=75 velocity=93 time=19
note_on channel=0 note=66 velocity=93 time=0
note_on channel=0 note=72 velocity=0 time=8
note_on channel=0 note=66 velocity=0 time=49
note_on channel=0 note=66 velocity=87 time=3
note_on channel=0 note=74 velocity=87 time=0
note_on channel=0 note=75 velocity=0 time=12
note_on channel=0 note=66 velocity=0 time=37
note_on channel=0 note=74 velocity=0 time=1
note_on channel=0 note=67 velocity=97 time=10
note_on channel=0 note=74 velocity=97 time=0
note_on channel=0 note=74 velocity=0 time=85
note_on channel=0 note=67 velocity=0 time=1
note_on channel=0 note=70 velocity=77 time=6
note_on channel=0 note=67 velocity=84 time=28
note_on channel=0 note=70 velocity=0 time=10
note_on channel=0 note=67 velocity=0 time=128
note_on channel=0 note=74 velocity=84 time=14
note_on channel=0 note=79 velocity=87 time=28
note_on channel=0 note=74 velocity=0 time=3
note_on channel=0 note=82 velocity=82 time=29
note_on channel=0 note=79 velocity=0 time=2
note_on channel=0 note=82 velocity=0 time=24
note_on channel=0 note=79 velocity=101 time=2
note_on channel=0 note=82 velocity=101 time=0
note_on channel=0 note=86 velocity=101 time=0
note_on channel=0 note=74 velocity=101 time=0
note_on channel=0 note=79 velocity=0 time=56
note_on channel=0 note=82 velocity=0 time=1
note_on channel=0 note=79 velocity=97 time=3
note_on channel=0 note=75 velocity=97 time=0
note_on channel=0 note=87 velocity=97 time=0
note_on channel=0 note=82 velocity=97 time=0
note_on channel=0 note=86 velocity=0 time=13
note_on channel=0 note=74 velocity=0 time=0
note_on channel=0 note=79 velocity=0 time=39
note_on channel=0 note=82 velocity=0 time=0
note_on channel=0 note=75 velocity=0 time=1
note_on channel=0 note=87 velocity=0 time=1
note_on channel=0 note=82 velocity=107 time=6
note_on channel=0 note=88 velocity=107 time=0
note_on channel=0 note=79 velocity=107 time=0
note_on channel=0 note=76 velocity=107 time=0
note_on channel=0 note=79 velocity=0 time=85
note_on channel=0 note=82 velocity=0 time=1
note_on channel=0 note=88 velocity=0 time=2
note_on channel=0 note=76 velocity=0 time=0
note_on channel=0 note=82 velocity=90 time=4
note_on channel=0 note=82 velocity=0 time=26
note_on channel=0 note=76 velocity=97 time=2
note_on channel=0 note=82 velocity=97 time=0
note_on channel=0 note=86 velocity=97 time=0
note_on channel=0 note=79 velocity=97 time=0
note_on channel=0 note=79 velocity=0 time=137
note_on channel=0 note=76 velocity=0 time=0
note_on channel=0 note=82 velocity=0 time=0
note_on channel=0 note=86 velocity=0 time=0
note_on channel=0 note=76 velocity=84 time=15
note_on channel=0 note=79 velocity=90 time=28
note_on channel=0 note=76 velocity=0 time=1
note_on channel=0 note=82 velocity=86 time=31
note_on channel=0 note=79 velocity=0 time=1
note_on channel=0 note=82 velocity=0 time=25
note_on channel=0 note=76 velocity=96 time=2
note_on channel=0 note=82 velocity=96 time=0
note_on channel=0 note=86 velocity=96 time=0
note_on channel=0 note=86 velocity=0 time=56
note_on channel=0 note=82 velocity=0 time=2
note_on channel=0 note=76 velocity=0 time=0
note_on channel=0 note=76 velocity=92 time=2
note_on channel=0 note=82 velocity=92 time=0
note_on channel=0 note=86 velocity=92 time=0
note_on channel=0 note=86 velocity=0 time=52
note_on channel=0 note=76 velocity=0 time=0
note_on channel=0 note=82 velocity=0 time=1
note_on channel=0 note=86 velocity=99 time=7
note_on channel=0 note=77 velocity=99 time=0
note_on channel=0 note=81 velocity=99 time=0
note_on channel=0 note=81 velocity=0 time=85
note_on channel=0 note=86 velocity=0 time=0
note_on channel=0 note=77 velocity=0 time=2
note_on channel=0 note=81 velocity=81 time=5
note_on channel=0 note=81 velocity=0 time=28
note_on channel=0 note=84 velocity=88 time=0
note_on channel=0 note=81 velocity=82 time=0
note_on channel=0 note=77 velocity=82 time=0
note_on channel=0 note=77 velocity=0 time=144
note_on channel=0 note=84 velocity=0 time=0
note_on channel=0 note=81 velocity=0 time=2
note_on channel=0 note=84 velocity=83 time=6
note_on channel=0 note=81 velocity=88 time=28
note_on channel=0 note=84 velocity=0 time=2
note_on channel=0 note=77 velocity=86 time=30
note_on channel=0 note=81 velocity=0 time=3
note_on channel=0 note=72 velocity=93 time=25
note_on channel=0 note=77 velocity=0 time=2
note_on channel=0 note=73 velocity=83 time=58
note_on channel=0 note=72 velocity=0 time=6
note_on channel=0 note=73 velocity=0 time=47
note_on channel=0 note=74 velocity=99 time=7
note_on channel=0 note=74 velocity=0 time=85
note_on channel=0 note=72 velocity=81 time=7
note_on channel=0 note=66 velocity=92 time=28
note_on channel=0 note=72 velocity=0 time=9
note_on channel=0 note=66 velocity=0 time=136
note_on channel=0 note=66 velocity=82 time=7
note_on channel=0 note=66 velocity=0 time=27
note_on channel=0 note=69 velocity=87 time=1
note_on channel=0 note=69 velocity=0 time=28
note_on channel=0 note=72 velocity=84 time=4
note_on channel=0 note=72 velocity=0 time=27
note_on channel=0 note=75 velocity=91 time=1
note_on channel=0 note=66 velocity=91 time=0
note_on channel=0 note=66 velocity=0 time=56
note_on channel=0 note=66 velocity=86 time=4
note_on channel=0 note=74 velocity=86 time=0
note_on channel=0 note=75 velocity=0 time=11
note_on channel=0 note=74 velocity=0 time=42
note_on channel=0 note=66 velocity=0 time=2
note_on channel=0 note=67 velocity=88 time=5
note_on channel=0 note=74 velocity=90 time=0
note_on channel=0 note=74 velocity=0 time=85
note_on channel=0 note=67 velocity=0 time=1
note_on channel=0 note=70 velocity=84 time=6
note_on channel=0 note=67 velocity=86 time=28
note_on channel=0 note=70 velocity=0 time=10
note_on channel=0 note=67 velocity=0 time=135
note_on channel=0 note=79 velocity=81 time=7
note_on channel=0 note=82 velocity=86 time=28
note_on channel=0 note=79 velocity=0 time=2
note_on channel=0 note=82 velocity=0 time=25
note_on channel=0 note=86 velocity=84 time=5
note_on channel=0 note=86 velocity=0 time=27
note_on channel=0 note=81 velocity=94 time=1
note_on channel=0 note=93 velocity=94 time=0
note_on channel=0 note=91 velocity=88 time=60
note_on channel=0 note=79 velocity=88 time=0
note_on channel=0 note=93 velocity=0 time=8
note_on channel=0 note=81 velocity=0 time=0
note_on channel=0 note=79 velocity=0 time=41
note_on channel=0 note=91 velocity=0 time=1
note_on channel=0 note=89 velocity=95 time=10
note_on channel=0 note=77 velocity=95 time=0
note_on channel=0 note=81 velocity=82 time=92
note_on channel=0 note=77 velocity=0 time=7
note_on channel=0 note=89 velocity=0 time=2
note_on channel=0 note=88 velocity=90 time=19
note_on channel=0 note=76 velocity=90 time=0
note_on channel=0 note=81 velocity=0 time=6
note_on channel=0 note=86 velocity=84 time=54
note_on channel=0 note=74 velocity=81 time=0
note_on channel=0 note=76 velocity=0 time=6
note_on channel=0 note=88 velocity=0 time=0
note_on channel=0 note=86 velocity=0 time=44
note_on channel=0 note=74 velocity=0 time=0
note_on channel=0 note=72 velocity=89 time=10
note_on channel=0 note=84 velocity=89 time=0
note_on channel=0 note=77 velocity=80 time=92
note_on channel=0 note=72 velocity=0 time=9
note_on channel=0 note=84 velocity=0 time=1
note_on channel=0 note=78 velocity=84 time=18
note_on channel=0 note=72 velocity=81 time=0
note_on channel=0 note=82 velocity=87 time=0
note_on channel=0 note=77 velocity=0 time=11
note_on channel=0 note=72 velocity=0 time=46
note_on channel=0 note=81 velocity=84 time=3
note_on channel=0 note=74 velocity=81 time=0
note_on channel=0 note=72 velocity=83 time=0
note_on channel=0 note=78 velocity=0 time=21
note_on channel=0 note=82 velocity=0 time=0
note_on channel=0 note=74 velocity=0 time=28
note_on channel=0 note=81 velocity=0 time=0
note_on channel=0 note=72 velocity=0 time=1
note_on channel=0 note=71 velocity=93 time=10
note_on channel=0 note=81 velocity=93 time=0
note_on channel=0 note=77 velocity=93 time=0
note_on channel=0 note=77 velocity=0 time=85
note_on channel=0 note=81 velocity=0 time=2
note_on channel=0 note=71 velocity=0 time=1
note_on channel=0 note=71 velocity=82 time=4
note_on channel=0 note=77 velocity=83 time=0
note_on channel=0 note=79 velocity=87 time=28
note_on channel=0 note=70 velocity=81 time=0
note_on channel=0 note=76 velocity=81 time=0
note_on channel=0 note=77 velocity=0 time=11
note_on channel=0 note=71 velocity=0 time=1
note_on channel=0 note=70 velocity=0 time=44
note_on channel=0 note=70 velocity=77 time=4
note_on channel=0 note=64 velocity=81 time=0
note_on channel=0 note=72 velocity=82 time=0
note_on channel=0 note=79 velocity=0 time=6
note_on channel=0 note=76 velocity=0 time=2
note_on channel=0 note=64 velocity=0 time=42
note_on channel=0 note=70 velocity=0 time=0
note_on channel=0 note=72 velocity=0 time=0
note_on channel=0 note=65 velocity=87 time=10
note_on channel=0 note=77 velocity=89 time=0
note_on channel=0 note=69 velocity=87 time=0
note_on channel=0 note=69 velocity=0 time=114
note_on channel=0 note=77 velocity=0 time=0
note_on channel=0 note=65 velocity=0 time=2
note_on channel=0 note=72 velocity=89 time=4
note_on channel=0 note=72 velocity=0 time=57
note_on channel=0 note=73 velocity=85 time=3
note_on channel=0 note=73 velocity=0 time=57
note_on channel=0 note=74 velocity=92 time=3
note_on channel=0 note=74 velocity=0 time=86
note_on channel=0 note=72 velocity=80 time=6
note_on channel=0 note=66 velocity=87 time=28
note_on channel=0 note=72 velocity=0 time=10
note_on channel=0 note=66 velocity=0 time=131
note_on channel=0 note=66 velocity=89 time=11
note_on channel=0 note=69 velocity=92 time=28
note_on channel=0 note=66 velocity=0 time=10
note_on channel=0 note=72 velocity=86 time=22
note_on channel=0 note=69 velocity=0 time=9
note_on channel=0 note=75 velocity=93 time=19
note_on channel=0 note=66 velocity=93 time=0
note_on channel=0 note=72 velocity=0 time=8
note_on channel=0 note=66 velocity=0 time=49
note_on channel=0 note=66 velocity=87 time=3
note_on channel=0 note=74 velocity=87 time=0
note_on channel=0 note=75 velocity=0 time=12
note_on channel=0 note=66 velocity=0 time=37
note_on channel=0 note=74 velocity=0 time=1
note_on channel=0 note=67 velocity=97 time=10
note_on channel=0 note=74 velocity=97 time=0
note_on channel=0 note=74 velocity=0 time=85
note_on channel=0 note=67 velocity=0 time=1
note_on channel=0 note=70 velocity=77 time=6
note_on channel=0 note=67 velocity=84 time=28
note_on channel=0 note=70 velocity=0 time=10
note_on channel=0 note=67 velocity=0 time=128
note_on channel=0 note=74 velocity=84 time=14
note_on channel=0 note=79 velocity=87 time=28
note_on channel=0 note=74 velocity=0 time=3
note_on channel=0 note=82 velocity=82 time=29
note_on channel=0 note=79 velocity=0 time=2
note_on channel=0 note=82 velocity=0 time=24
note_on channel=0 note=79 velocity=101 time=2
note_on channel=0 note=82 velocity=101 time=0
note_on channel=0 note=86 velocity=101 time=0
note_on channel=0 note=74 velocity=101 time=0
note_on channel=0 note=79 velocity=0 time=56
note_on channel=0 note=82 velocity=0 time=1
note_on channel=0 note=79 velocity=97 time=3
note_on channel=0 note=75 velocity=97 time=0
note_on channel=0 note=87 velocity=97 time=0
note_on channel=0 note=82 velocity=97 time=0
note_on channel=0 note=86 velocity=0 time=13
note_on channel=0 note=74 velocity=0 time=0
note_on channel=0 note=79 velocity=0 time=39
note_on channel=0 note=82 velocity=0 time=0
note_on channel=0 note=75 velocity=0 time=1
note_on channel=0 note=87 velocity=0 time=1
note_on channel=0 note=82 velocity=107 time=6
note_on channel=0 note=88 velocity=107 time=0
note_on channel=0 note=79 velocity=107 time=0
note_on channel=0 note=76 velocity=107 time=0
note_on channel=0 note=79 velocity=0 time=85
note_on channel=0 note=82 velocity=0 time=1
note_on channel=0 note=88 velocity=0 time=2
note_on channel=0 note=76 velocity=0 time=0
note_on channel=0 note=82 velocity=90 time=4
note_on channel=0 note=82 velocity=0 time=26
note_on channel=0 note=76 velocity=97 time=2
note_on channel=0 note=82 velocity=97 time=0
note_on channel=0 note=86 velocity=97 time=0
note_on channel=0 note=79 velocity=97 time=0
note_on channel=0 note=79 velocity=0 time=137
note_on channel=0 note=76 velocity=0 time=0
note_on channel=0 note=82 velocity=0 time=0
note_on channel=0 note=86 velocity=0 time=0
note_on channel=0 note=76 velocity=84 time=15
note_on channel=0 note=79 velocity=90 time=28
note_on channel=0 note=76 velocity=0 time=1
note_on channel=0 note=82 velocity=86 time=31
note_on channel=0 note=79 velocity=0 time=1
note_on channel=0 note=82 velocity=0 time=25
note_on channel=0 note=76 velocity=96 time=2
note_on channel=0 note=82 velocity=96 time=0
note_on channel=0 note=86 velocity=96 time=0
note_on channel=0 note=86 velocity=0 time=56
note_on channel=0 note=82 velocity=0 time=2
note_on channel=0 note=76 velocity=0 time=0
note_on channel=0 note=76 velocity=92 time=2
note_on channel=0 note=82 velocity=92 time=0
note_on channel=0 note=86 velocity=92 time=0
note_on channel=0 note=86 velocity=0 time=52
note_on channel=0 note=76 velocity=0 time=0
note_on channel=0 note=82 velocity=0 time=1
note_on channel=0 note=86 velocity=99 time=7
note_on channel=0 note=77 velocity=99 time=0
note_on channel=0 note=81 velocity=99 time=0
note_on channel=0 note=81 velocity=0 time=85
note_on channel=0 note=86 velocity=0 time=0
note_on channel=0 note=77 velocity=0 time=2
note_on channel=0 note=81 velocity=81 time=5
note_on channel=0 note=81 velocity=0 time=28
note_on channel=0 note=84 velocity=88 time=0
note_on channel=0 note=81 velocity=82 time=0
note_on channel=0 note=77 velocity=82 time=0
note_on channel=0 note=77 velocity=0 time=144
note_on channel=0 note=84 velocity=0 time=0
note_on channel=0 note=81 velocity=0 time=2
note_on channel=0 note=84 velocity=83 time=6
note_on channel=0 note=81 velocity=88 time=28
note_on channel=0 note=84 velocity=0 time=2
note_on channel=0 note=77 velocity=86 time=30
note_on channel=0 note=81 velocity=0 time=3
note_on channel=0 note=72 velocity=93 time=25
note_on channel=0 note=77 velocity=0 time=2
note_on channel=0 note=73 velocity=83 time=58
note_on channel=0 note=72 velocity=0 time=6
note_on channel=0 note=73 velocity=0 time=47
note_on channel=0 note=74 velocity=99 time=7
note_on channel=0 note=74 velocity=0 time=85
note_on channel=0 note=72 velocity=81 time=7
note_on channel=0 note=66 velocity=92 time=28
note_on channel=0 note=72 velocity=0 time=9
note_on channel=0 note=66 velocity=0 time=136
note_on channel=0 note=66 velocity=82 time=7
note_on channel=0 note=66 velocity=0 time=27
note_on channel=0 note=69 velocity=87 time=1
note_on channel=0 note=69 velocity=0 time=28
note_on channel=0 note=72 velocity=84 time=4
note_on channel=0 note=72 velocity=0 time=27
note_on channel=0 note=75 velocity=91 time=1
note_on channel=0 note=66 velocity=91 time=0
note_on channel=0 note=66 velocity=0 time=56
note_on channel=0 note=66 velocity=86 time=4
note_on channel=0 note=74 velocity=86 time=0
note_on channel=0 note=75 velocity=0 time=11
note_on channel=0 note=74 velocity=0 time=42
note_on channel=0 note=66 velocity=0 time=2
note_on channel=0 note=67 velocity=88 time=5
note_on channel=0 note=74 velocity=90 time=0
note_on channel=0 note=74 velocity=0 time=85
note_on channel=0 note=67 velocity=0 time=1
note_on channel=0 note=70 velocity=84 time=6
note_on channel=0 note=67 velocity=86 time=28
note_on channel=0 note=70 velocity=0 time=10
note_on channel=0 note=67 velocity=0 time=135
note_on channel=0 note=79 velocity=81 time=7
note_on channel=0 note=82 velocity=86 time=28
note_on channel=0 note=79 velocity=0 time=2
note_on channel=0 note=82 velocity=0 time=25
note_on channel=0 note=86 velocity=84 time=5
note_on channel=0 note=86 velocity=0 time=27
note_on channel=0 note=81 velocity=94 time=1
note_on channel=0 note=93 velocity=94 time=0
note_on channel=0 note=91 velocity=88 time=60
note_on channel=0 note=79 velocity=88 time=0
note_on channel=0 note=93 velocity=0 time=8
note_on channel=0 note=81 velocity=0 time=0
note_on channel=0 note=79 velocity=0 time=41
note_on channel=0 note=91 velocity=0 time=1
note_on channel=0 note=89 velocity=95 time=10
note_on channel=0 note=77 velocity=95 time=0
note_on channel=0 note=81 velocity=82 time=92
note_on channel=0 note=77 velocity=0 time=7
note_on channel=0 note=89 velocity=0 time=2
note_on channel=0 note=88 velocity=90 time=19
note_on channel=0 note=76 velocity=90 time=0
note_on channel=0 note=81 velocity=0 time=6
note_on channel=0 note=86 velocity=84 time=54
note_on channel=0 note=74 velocity=81 time=0
note_on channel=0 note=76 velocity=0 time=6
note_on channel=0 note=88 velocity=0 time=0
note_on channel=0 note=86 velocity=0 time=44
note_on channel=0 note=74 velocity=0 time=0
note_on channel=0 note=72 velocity=89 time=10
note_on channel=0 note=84 velocity=89 time=0
note_on channel=0 note=77 velocity=80 time=92
note_on channel=0 note=72 velocity=0 time=9
note_on channel=0 note=84 velocity=0 time=1
note_on channel=0 note=78 velocity=84 time=18
note_on channel=0 note=72 velocity=81 time=0
note_on channel=0 note=82 velocity=87 time=0
note_on channel=0 note=77 velocity=0 time=11
note_on channel=0 note=72 velocity=0 time=46
note_on channel=0 note=81 velocity=84 time=3
note_on channel=0 note=74 velocity=81 time=0
note_on channel=0 note=72 velocity=83 time=0
note_on channel=0 note=78 velocity=0 time=21
note_on channel=0 note=82 velocity=0 time=0
note_on channel=0 note=74 velocity=0 time=28
note_on channel=0 note=81 velocity=0 time=0
note_on channel=0 note=72 velocity=0 time=1
note_on channel=0 note=71 velocity=93 time=10
note_on channel=0 note=81 velocity=93 time=0
note_on channel=0 note=77 velocity=93 time=0
note_on channel=0 note=77 velocity=0 time=85
note_on channel=0 note=81 velocity=0 time=2
note_on channel=0 note=71 velocity=0 time=1
note_on channel=0 note=71 velocity=82 time=4
note_on channel=0 note=77 velocity=83 time=0
note_on channel=0 note=79 velocity=87 time=28
note_on channel=0 note=70 velocity=81 time=0
note_on channel=0 note=76 velocity=81 time=0
note_on channel=0 note=77 velocity=0 time=11
note_on channel=0 note=71 velocity=0 time=1
note_on channel=0 note=70 velocity=0 time=44
note_on channel=0 note=70 velocity=77 time=4
note_on channel=0 note=64 velocity=81 time=0
note_on channel=0 note=72 velocity=82 time=0
note_on channel=0 note=79 velocity=0 time=6
note_on channel=0 note=76 velocity=0 time=2
note_on channel=0 note=64 velocity=0 time=42
note_on channel=0 note=70 velocity=0 time=0
note_on channel=0 note=72 velocity=0 time=0
note_on channel=0 note=65 velocity=99 time=10
note_on channel=0 note=77 velocity=99 time=0
note_on channel=0 note=69 velocity=93 time=0
note_on channel=0 note=65 velocity=0 time=56
note_on channel=0 note=69 velocity=0 time=1
note_on channel=0 note=77 velocity=0 time=0
note_on channel=0 note=72 velocity=102 time=3
note_on channel=0 note=60 velocity=102 time=0
note_on channel=0 note=72 velocity=0 time=47
note_on channel=0 note=60 velocity=0 time=2
note_on channel=0 note=62 velocity=106 time=11
note_on channel=0 note=74 velocity=106 time=0
note_on channel=0 note=62 velocity=0 time=51
note_on channel=0 note=74 velocity=0 time=2
note_on channel=0 note=76 velocity=103 time=7
note_on channel=0 note=64 velocity=103 time=0
note_on channel=0 note=76 velocity=0 time=46
note_on channel=0 note=64 velocity=0 time=1
note_on channel=0 note=77 velocity=106 time=13
note_on channel=0 note=65 velocity=106 time=0
note_on channel=0 note=69 velocity=95 time=60
note_on channel=0 note=72 velocity=95 time=0
note_on channel=0 note=72 velocity=0 time=43
note_on channel=0 note=69 velocity=0 time=1
note_on channel=0 note=65 velocity=0 time=11
note_on channel=0 note=77 velocity=0 time=2
note_on channel=0 note=63 velocity=99 time=3
note_on channel=0 note=75 velocity=99 time=0
note_on channel=0 note=69 velocity=88 time=60
note_on channel=0 note=72 velocity=90 time=0
note_on channel=0 note=72 velocity=0 time=44
note_on channel=0 note=69 velocity=0 time=1
note_on channel=0 note=63 velocity=0 time=9
note_on channel=0 note=75 velocity=0 time=2
note_on channel=0 note=76 velocity=110 time=4
note_on channel=0 note=72 velocity=110 time=0
note_on channel=0 note=64 velocity=110 time=0
note_on channel=0 note=70 velocity=110 time=0
note_on channel=0 note=84 velocity=93 time=60
note_on channel=0 note=83 velocity=86 time=32
note_on channel=0 note=84 velocity=0 time=17
note_on channel=0 note=84 velocity=97 time=11
note_on channel=0 note=83 velocity=0 time=15
note_on channel=0 note=86 velocity=85 time=17
note_on channel=0 note=84 velocity=0 time=13
note_on channel=0 note=84 velocity=94 time=15
note_on channel=0 note=86 velocity=0 time=18
note_on channel=0 note=72 velocity=0 time=21
note_on channel=0 note=76 velocity=0 time=0
note_on channel=0 note=70 velocity=0 time=2
note_on channel=0 note=64 velocity=0 time=0
note_on channel=0 note=84 velocity=0 time=3
note_on channel=0 note=65 velocity=101 time=16
note_on channel=0 note=77 velocity=101 time=0
note_on channel=0 note=72 velocity=90 time=60
note_on channel=0 note=69 velocity=89 time=0
note_on channel=0 note=69 velocity=0 time=43
note_on channel=0 note=72 velocity=0 time=2
note_on channel=0 note=65 velocity=0 time=10
note_on channel=0 note=77 velocity=0 time=1
note_on channel=0 note=75 velocity=97 time=4
note_on channel=0 note=63 velocity=97 time=0
note_on channel=0 note=69 velocity=92 time=60
note_on channel=0 note=72 velocity=93 time=0
note_on channel=0 note=69 velocity=0 time=44
note_on channel=0 note=72 velocity=0 time=1
note_on channel=0 note=63 velocity=0 time=9
note_on channel=0 note=75 velocity=0 time=0
note_on channel=0 note=70 velocity=104 time=6
note_on channel=0 note=64 velocity=104 time=0
note_on channel=0 note=76 velocity=104 time=0
note_on channel=0 note=72 velocity=104 time=0
note_on channel=0 note=72 velocity=0 time=44
note_on channel=0 note=72 velocity=91 time=16
note_on channel=0 note=74 velocity=86 time=32
note_on channel=0 note=76 velocity=0 time=22
note_on channel=0 note=72 velocity=0 time=6
note_on channel=0 note=76 velocity=92 time=0
note_on channel=0 note=74 velocity=0 time=20
note_on channel=0 note=77 velocity=88 time=12
note_on channel=0 note=76 velocity=0 time=27
note_on channel=0 note=79 velocity=96 time=1
note_on channel=0 note=77 velocity=0 time=20
note_on channel=0 note=64 velocity=0 time=19
note_on channel=0 note=70 velocity=0 time=2
note_on channel=0 note=79 velocity=0 time=15
note_on channel=0 note=70 velocity=108 time=4
note_on channel=0 note=82 velocity=108 time=0
note_on channel=0 note=79 velocity=92 time=60
note_on channel=0 note=76 velocity=92 time=0
note_on channel=0 note=76 velocity=0 time=43
note_on channel=0 note=79 velocity=0 time=2
note_on channel=0 note=70 velocity=0 time=9
note_on channel=0 note=82 velocity=0 time=2
note_on channel=0 note=79 velocity=91 time=4
note_on channel=0 note=67 velocity=97 time=0
note_on channel=0 note=72 velocity=91 time=60
note_on channel=0 note=76 velocity=91 time=0
note_on channel=0 note=72 velocity=0 time=43
note_on channel=0 note=76 velocity=0 time=1
note_on channel=0 note=67 velocity=0 time=13
note_on channel=0 note=79 velocity=0 time=0
note_on channel=0 note=72 velocity=109 time=3
note_on channel=0 note=77 velocity=109 time=0
note_on channel=0 note=84 velocity=109 time=0
note_on channel=0 note=81 velocity=94 time=60
note_on channel=0 note=80 velocity=90 time=32
note_on channel=0 note=81 velocity=0 time=15
note_on channel=0 note=77 velocity=0 time=10
note_on channel=0 note=81 velocity=97 time=3
note_on channel=0 note=80 velocity=0 time=8
note_on channel=0 note=83 velocity=93 time=24
note_on channel=0 note=81 velocity=0 time=16
note_on channel=0 note=84 velocity=0 time=7
note_on channel=0 note=84 velocity=106 time=5
note_on channel=0 note=83 velocity=0 time=6
note_on channel=0 note=72 velocity=0 time=34
note_on channel=0 note=84 velocity=0 time=3
note_on channel=0 note=79 velocity=109 time=17
note_on channel=0 note=67 velocity=109 time=0
note_on channel=0 note=72 velocity=98 time=60
note_on channel=0 note=76 velocity=98 time=0
note_on channel=0 note=76 velocity=0 time=44
note_on channel=0 note=72 velocity=0 time=1
note_on channel=0 note=67 velocity=0 time=12
note_on channel=0 note=79 velocity=0 time=0
note_on channel=0 note=83 velocity=109 time=3
note_on channel=0 note=71 velocity=109 time=0
note_on channel=0 note=83 velocity=0 time=46
note_on channel=0 note=71 velocity=0 time=1
note_on channel=0 note=74 velocity=112 time=13
note_on channel=0 note=86 velocity=112 time=0
note_on channel=0 note=86 velocity=0 time=58
note_on channel=0 note=74 velocity=0 time=1
note_on channel=0 note=72 velocity=108 time=1
note_on channel=0 note=84 velocity=108 time=0
note_on channel=0 note=72 velocity=0 time=43
note_on channel=0 note=84 velocity=0 time=1
note_on channel=0 note=60 velocity=108 time=16
note_on channel=0 note=72 velocity=108 time=0
note_on channel=0 note=60 velocity=0 time=57
note_on channel=0 note=72 velocity=0 time=2
note_on channel=0 note=74 velocity=112 time=1
note_on channel=0 note=62 velocity=112 time=0
note_on channel=0 note=64 velocity=105 time=60
note_on channel=0 note=76 velocity=105 time=0
note_on channel=0 note=74 velocity=0 time=11
note_on channel=0 note=62 velocity=0 time=1
note_on channel=0 note=76 velocity=0 time=44
note_on channel=0 note=64 velocity=0 time=3
note_on channel=0 note=77 velocity=99 time=1
note_on channel=0 note=65 velocity=99 time=0
note_on channel=0 note=69 velocity=86 time=60
note_on channel=0 note=72 velocity=89 time=0
note_on channel=0 note=72 velocity=0 time=44
note_on channel=0 note=69 velocity=0 time=1
note_on channel=0 note=77 velocity=0 time=10
note_on channel=0 note=65 velocity=0 time=2
note_on channel=0 note=75 velocity=92 time=3
note_on channel=0 note=63 velocity=95 time=0
note_on channel=0 note=69 velocity=88 time=60
note_on channel=0 note=72 velocity=89 time=0
note_on channel=0 note=72 velocity=0 time=44
note_on channel=0 note=69 velocity=0 time=1
note_on channel=0 note=75 velocity=0 time=9
note_on channel=0 note=63 velocity=0 time=1
note_on channel=0 note=64 velocity=108 time=5
note_on channel=0 note=76 velocity=108 time=0
note_on channel=0 note=70 velocity=108 time=0
note_on channel=0 note=72 velocity=108 time=0
note_on channel=0 note=84 velocity=95 time=60
note_on channel=0 note=83 velocity=86 time=32
note_on channel=0 note=84 velocity=0 time=11
note_on channel=0 note=84 velocity=91 time=17
note_on channel=0 note=83 velocity=0 time=10
note_on channel=0 note=86 velocity=88 time=22
note_on channel=0 note=84 velocity=0 time=14
note_on channel=0 note=84 velocity=98 time=14
note_on channel=0 note=86 velocity=0 time=8
note_on channel=0 note=76 velocity=0 time=31
note_on channel=0 note=72 velocity=0 time=1
note_on channel=0 note=64 velocity=0 time=1
note_on channel=0 note=70 velocity=0 time=0
note_on channel=0 note=84 velocity=0 time=9
note_on channel=0 note=77 velocity=104 time=10
note_on channel=0 note=65 velocity=104 time=0
note_on channel=0 note=72 velocity=92 time=60
note_on channel=0 note=69 velocity=91 time=0
note_on channel=0 note=72 velocity=0 time=44
note_on channel=0 note=69 velocity=0 time=1
note_on channel=0 note=65 velocity=0 time=9
note_on channel=0 note=77 velocity=0 time=1
note_on channel=0 note=63 velocity=100 time=5
note_on channel=0 note=75 velocity=100 time=0
note_on channel=0 note=72 velocity=90 time=60
note_on channel=0 note=69 velocity=91 time=0
note_on channel=0 note=69 velocity=0 time=44
note_on channel=0 note=72 velocity=0 time=0
note_on channel=0 note=75 velocity=0 time=12
note_on channel=0 note=63 velocity=0 time=0
note_on channel=0 note=76 velocity=104 time=4
note_on channel=0 note=64 velocity=104 time=0
note_on channel=0 note=72 velocity=104 time=0
note_on channel=0 note=70 velocity=104 time=0
note_on channel=0 note=72 velocity=0 time=43
note_on channel=0 note=72 velocity=98 time=17
note_on channel=0 note=74 velocity=90 time=32
note_on channel=0 note=72 velocity=0 time=21
note_on channel=0 note=76 velocity=0 time=1
note_on channel=0 note=76 velocity=101 time=6
note_on channel=0 note=74 velocity=0 time=12
note_on channel=0 note=77 velocity=96 time=20
note_on channel=0 note=76 velocity=0 time=16
note_on channel=0 note=79 velocity=107 time=12
note_on channel=0 note=77 velocity=0 time=13
note_on channel=0 note=70 velocity=0 time=27
note_on channel=0 note=64 velocity=0 time=1
note_on channel=0 note=79 velocity=0 time=12
note_on channel=0 note=82 velocity=113 time=7
note_on channel=0 note=70 velocity=113 time=0
note_on channel=0 note=76 velocity=99 time=60
note_on channel=0 note=79 velocity=99 time=0
note_on channel=0 note=79 velocity=0 time=46
note_on channel=0 note=76 velocity=0 time=1
note_on channel=0 note=82 velocity=0 time=8
note_on channel=0 note=70 velocity=0 time=1
note_on channel=0 note=67 velocity=106 time=4
note_on channel=0 note=79 velocity=106 time=0
note_on channel=0 note=76 velocity=91 time=60
note_on channel=0 note=72 velocity=90 time=0
note_on channel=0 note=72 velocity=0 time=46
note_on channel=0 note=76 velocity=0 time=2
note_on channel=0 note=67 velocity=0 time=6
note_on channel=0 note=79 velocity=0 time=2
note_on channel=0 note=72 velocity=110 time=4
note_on channel=0 note=84 velocity=110 time=0
note_on channel=0 note=81 velocity=104 time=60
note_on channel=0 note=77 velocity=104 time=0
note_on channel=0 note=77 velocity=0 time=47
note_on channel=0 note=81 velocity=0 time=0
note_on channel=0 note=72 velocity=0 time=7
note_on channel=0 note=84 velocity=0 time=2
note_on channel=0 note=80 velocity=117 time=4
note_on channel=0 note=74 velocity=117 time=0
note_on channel=0 note=86 velocity=117 time=0
note_on channel=0 note=77 velocity=117 time=0
note_on channel=0 note=77 velocity=0 time=113
note_on channel=0 note=86 velocity=0 time=1
note_on channel=0 note=74 velocity=0 time=2
note_on channel=0 note=80 velocity=0 time=0
note_on channel=0 note=77 velocity=93 time=4
note_on channel=0 note=65 velocity=95 time=0
note_on channel=0 note=72 velocity=88 time=60
note_on channel=0 note=69 velocity=86 time=0
note_on channel=0 note=69 velocity=0 time=48
note_on channel=0 note=72 velocity=0 time=0
note_on channel=0 note=77 velocity=0 time=7
note_on channel=0 note=65 velocity=0 time=2
note_on channel=0 note=79 velocity=99 time=3
note_on channel=0 note=67 velocity=99 time=0
note_on channel=0 note=64 velocity=93 time=60
note_on channel=0 note=72 velocity=89 time=0
note_on channel=0 note=70 velocity=93 time=0
note_on channel=0 note=70 velocity=0 time=47
note_on channel=0 note=72 velocity=0 time=1
note_on channel=0 note=67 velocity=0 time=7
note_on channel=0 note=64 velocity=0 time=1
note_on channel=0 note=79 velocity=0 time=0
note_on channel=0 note=72 velocity=85 time=4
note_on channel=0 note=65 velocity=91 time=0
note_on channel=0 note=77 velocity=84 time=0
note_on channel=0 note=69 velocity=84 time=0
note_on channel=0 note=72 velocity=0 time=114
note_on channel=0 note=69 velocity=0 time=1
note_on channel=0 note=77 velocity=0 time=0
note_on channel=0 note=65 velocity=0 time=1
note_on channel=0 note=77 velocity=102 time=4
note_on channel=0 note=81 velocity=102 time=0
note_on channel=0 note=84 velocity=102 time=0
note_on channel=0 note=89 velocity=102 time=0
note_on channel=0 note=89 velocity=0 time=41
note_on channel=0 note=77 velocity=0 time=0
note_on channel=0 note=81 velocity=0 time=0
note_on channel=0 note=84 velocity=0 time=0
note_on channel=0 note=65 velocity=87 time=19
note_on channel=0 note=65 velocity=0 time=58
note_on channel=0 note=74 velocity=102 time=2
note_on channel=0 note=74 velocity=0 time=85
note_on channel=0 note=72 velocity=83 time=7
note_on channel=0 note=70 velocity=91 time=28
note_on channel=0 note=72 velocity=0 time=8
note_on channel=0 note=70 velocity=0 time=50
note_on channel=0 note=65 velocity=75 time=2
note_on channel=0 note=65 velocity=0 time=56
note_on channel=0 note=74 velocity=96 time=4
note_on channel=0 note=74 velocity=0 time=87
note_on channel=0 note=72 velocity=82 time=5
note_on channel=0 note=70 velocity=93 time=28
note_on channel=0 note=72 velocity=0 time=8
note_on channel=0 note=65 velocity=84 time=24
note_on channel=0 note=70 velocity=0 time=1
note_on channel=0 note=65 velocity=0 time=26
note_on channel=0 note=77 velocity=89 time=1
note_on channel=0 note=74 velocity=84 time=32
note_on channel=0 note=77 velocity=0 time=3
note_on channel=0 note=70 velocity=97 time=25
note_on channel=0 note=74 velocity=0 time=1
note_on channel=0 note=75 velocity=90 time=31
note_on channel=0 note=70 velocity=0 time=5
note_on channel=0 note=79 velocity=92 time=23
note_on channel=0 note=75 velocity=0 time=7
note_on channel=0 note=82 velocity=86 time=25
note_on channel=0 note=79 velocity=0 time=8
note_on channel=0 note=84 velocity=95 time=20
note_on channel=0 note=82 velocity=0 time=5
note_on channel=0 note=82 velocity=83 time=27
note_on channel=0 note=84 velocity=0 time=8
note_on channel=0 note=82 velocity=0 time=19
note_on channel=0 note=70 velocity=87 time=1
note_on channel=0 note=70 velocity=0 time=32
note_on channel=0 note=72 velocity=85 time=0
note_on channel=0 note=74 velocity=95 time=28
note_on channel=0 note=65 velocity=95 time=0
note_on channel=0 note=72 velocity=0 time=8
note_on channel=0 note=65 velocity=0 time=165
note_on channel=0 note=74 velocity=0 time=2
note_on channel=0 note=65 velocity=79 time=5
note_on channel=0 note=74 velocity=94 time=60
note_on channel=0 note=65 velocity=0 time=9
note_on channel=0 note=74 velocity=0 time=76
note_on channel=0 note=72 velocity=78 time=7
note_on channel=0 note=70 velocity=89 time=28
note_on channel=0 note=72 velocity=0 time=9
note_on channel=0 note=70 velocity=0 time=47
note_on channel=0 note=65 velocity=78 time=4
note_on channel=0 note=65 velocity=0 time=58
note_on channel=0 note=74 velocity=88 time=2
note_on channel=0 note=74 velocity=0 time=86
note_on channel=0 note=72 velocity=76 time=6
note_on channel=0 note=70 velocity=91 time=28
note_on channel=0 note=72 velocity=0 time=9
note_on channel=0 note=70 velocity=0 time=50
note_on channel=0 note=74 velocity=90 time=1
note_on channel=0 note=74 velocity=0 time=57
note_on channel=0 note=74 velocity=99 time=3
note_on channel=0 note=72 velocity=79 time=32
note_on channel=0 note=74 velocity=0 time=5
note_on channel=0 note=70 velocity=86 time=23
note_on channel=0 note=72 velocity=0 time=5
note_on channel=0 note=67 velocity=77 time=27
note_on channel=0 note=70 velocity=0 time=7
note_on channel=0 note=64 velocity=91 time=21
note_on channel=0 note=67 velocity=0 time=2
note_on channel=0 note=67 velocity=83 time=30
note_on channel=0 note=64 velocity=0 time=7
note_on channel=0 note=70 velocity=88 time=21
note_on channel=0 note=67 velocity=0 time=4
note_on channel=0 note=74 velocity=89 time=28
note_on channel=0 note=70 velocity=0 time=7
note_on channel=0 note=72 velocity=99 time=21
note_on channel=0 note=74 velocity=0 time=4
note_on channel=0 note=72 velocity=0 time=172
note_on channel=0 note=65 velocity=72 time=4
note_on channel=0 note=74 velocity=85 time=60
note_on channel=0 note=65 velocity=0 time=13
note_on channel=0 note=74 velocity=0 time=74
note_on channel=0 note=72 velocity=77 time=5
note_on channel=0 note=70 velocity=83 time=28
note_on channel=0 note=72 velocity=0 time=11
note_on channel=0 note=70 velocity=0 time=46
note_on channel=0 note=65 velocity=78 time=3
note_on channel=0 note=65 velocity=0 time=57
note_on channel=0 note=74 velocity=85 time=3
note_on channel=0 note=74 velocity=0 time=87
note_on channel=0 note=72 velocity=74 time=5
note_on channel=0 note=70 velocity=85 time=28
note_on channel=0 note=72 velocity=0 time=5
note_on channel=0 note=65 velocity=77 time=27
note_on channel=0 note=70 velocity=0 time=8
note_on channel=0 note=77 velocity=88 time=20
note_on channel=0 note=65 velocity=0 time=1
note_on channel=0 note=74 velocity=84 time=31
note_on channel=0 note=77 velocity=0 time=6
note_on channel=0 note=70 velocity=92 time=22
note_on channel=0 note=74 velocity=0 time=5
note_on channel=0 note=75 velocity=83 time=27
note_on channel=0 note=70 velocity=0 time=8
note_on channel=0 note=79 velocity=89 time=20
note_on channel=0 note=75 velocity=0 time=5
note_on channel=0 note=82 velocity=85 time=27
note_on channel=0 note=79 velocity=0 time=7
note_on channel=0 note=84 velocity=93 time=21
note_on channel=0 note=82 velocity=0 time=4
note_on channel=0 note=82 velocity=83 time=28
note_on channel=0 note=84 velocity=0 time=7
note_on channel=0 note=82 velocity=0 time=20
note_on channel=0 note=70 velocity=86 time=1
note_on channel=0 note=72 velocity=81 time=32
note_on channel=0 note=70 velocity=0 time=8
note_on channel=0 note=74 velocity=95 time=20
note_on channel=0 note=65 velocity=95 time=0
note_on channel=0 note=72 velocity=0 time=5
note_on channel=0 note=74 velocity=0 time=169
note_on channel=0 note=65 velocity=0 time=1
note_on channel=0 note=70 velocity=76 time=5
note_on channel=0 note=74 velocity=74 time=32
note_on channel=0 note=70 velocity=0 time=8
note_on channel=0 note=72 velocity=90 time=20
note_on channel=0 note=74 velocity=0 time=5
note_on channel=0 note=72 velocity=0 time=81
note_on channel=0 note=67 velocity=76 time=6
note_on channel=0 note=70 velocity=87 time=28
note_on channel=0 note=67 velocity=0 time=15
note_on channel=0 note=72 velocity=77 time=45
note_on channel=0 note=70 velocity=0 time=2
note_on channel=0 note=74 velocity=90 time=58
note_on channel=0 note=72 velocity=0 time=7
note_on channel=0 note=74 velocity=0 time=81
note_on channel=0 note=79 velocity=86 time=4
note_on channel=0 note=77 velocity=97 time=28
note_on channel=0 note=79 velocity=0 time=11
note_on channel=0 note=74 velocity=84 time=21
note_on channel=0 note=77 velocity=0 time=14
note_on channel=0 note=72 velocity=89 time=14
note_on channel=0 note=74 velocity=0 time=10
note_on channel=0 note=70 velocity=81 time=22
note_on channel=0 note=72 velocity=0 time=13
note_on channel=0 note=67 velocity=100 time=15
note_on channel=0 note=64 velocity=100 time=0
note_on channel=0 note=70 velocity=0 time=10
note_on channel=0 note=67 velocity=0 time=75
note_on channel=0 note=64 velocity=0 time=1
note_on channel=0 note=64 velocity=81 time=6
note_on channel=0 note=67 velocity=81 time=0
note_on channel=0 note=67 velocity=0 time=27
note_on channel=0 note=64 velocity=0 time=1
note_on channel=0 note=63 velocity=92 time=0
note_on channel=0 note=65 velocity=92 time=0
note_on channel=0 note=65 velocity=0 time=55
note_on channel=0 note=63 velocity=0 time=2
note_on channel=0 note=63 velocity=84 time=3
note_on channel=0 note=65 velocity=84 time=0
note_on channel=0 note=65 velocity=0 time=48
note_on channel=0 note=63 velocity=0 time=2
note_on channel=0 note=62 velocity=92 time=10
note_on channel=0 note=70 velocity=92 time=0
note_on channel=0 note=62 velocity=0 time=174
note_on channel=0 note=70 velocity=0 time=1
note_on channel=0 note=65 velocity=83 time=5
note_on channel=0 note=65 velocity=0 time=57
note_on channel=0 note=74 velocity=98 time=3
note_on channel=0 note=74 velocity=0 time=85
note_on channel=0 note=72 velocity=83 time=7
note_on channel=0 note=70 velocity=91 time=28
note_on channel=0 note=72 velocity=0 time=8
note_on channel=0 note=70 velocity=0 time=50
note_on channel=0 note=65 velocity=75 time=2
note_on channel=0 note=65 velocity=0 time=56
note_on channel=0 note=74 velocity=96 time=4
note_on channel=0 note=74 velocity=0 time=87
note_on channel=0 note=72 velocity=82 time=5
note_on channel=0 note=70 velocity=93 time=28
note_on channel=0 note=72 velocity=0 time=8
note_on channel=0 note=65 velocity=84 time=24
note_on channel=0 note=70 velocity=0 time=1
note_on channel=0 note=65 velocity=0 time=26
note_on channel=0 note=77 velocity=89 time=1
note_on channel=0 note=74 velocity=84 time=32
note_on channel=0 note=77 velocity=0 time=3
note_on channel=0 note=70 velocity=97 time=25
note_on channel=0 note=74 velocity=0 time=1
note_on channel=0 note=75 velocity=90 time=31
note_on channel=0 note=70 velocity=0 time=5
note_on channel=0 note=79 velocity=92 time=23
note_on channel=0 note=75 velocity=0 time=7
note_on channel=0 note=82 velocity=86 time=25
note_on channel=0 note=79 velocity=0 time=8
note_on channel=0 note=84 velocity=95 time=20
note_on channel=0 note=82 velocity=0 time=5
note_on channel=0 note=82 velocity=83 time=27
note_on channel=0 note=84 velocity=0 time=8
note_on channel=0 note=82 velocity=0 time=19
note_on channel=0 note=70 velocity=87 time=1
note_on channel=0 note=70 velocity=0 time=32
note_on channel=0 note=72 velocity=85 time=0
note_on channel=0 note=74 velocity=95 time=28
note_on channel=0 note=65 velocity=95 time=0
note_on channel=0 note=72 velocity=0 time=8
note_on channel=0 note=65 velocity=0 time=165
note_on channel=0 note=74 velocity=0 time=2
note_on channel=0 note=65 velocity=79 time=5
note_on channel=0 note=74 velocity=94 time=60
note_on channel=0 note=65 velocity=0 time=9
note_on channel=0 note=74 velocity=0 time=76
note_on channel=0 note=72 velocity=78 time=7
note_on channel=0 note=70 velocity=89 time=28
note_on channel=0 note=72 velocity=0 time=9
note_on channel=0 note=70 velocity=0 time=47
note_on channel=0 note=65 velocity=78 time=4
note_on channel=0 note=65 velocity=0 time=58
note_on channel=0 note=74 velocity=88 time=2
note_on channel=0 note=74 velocity=0 time=86
note_on channel=0 note=72 velocity=76 time=6
note_on channel=0 note=70 velocity=91 time=28
note_on channel=0 note=72 velocity=0 time=9
note_on channel=0 note=70 velocity=0 time=50
note_on channel=0 note=74 velocity=90 time=1
note_on channel=0 note=74 velocity=0 time=57
note_on channel=0 note=74 velocity=99 time=3
note_on channel=0 note=72 velocity=79 time=32
note_on channel=0 note=74 velocity=0 time=5
note_on channel=0 note=70 velocity=86 time=23
note_on channel=0 note=72 velocity=0 time=5
note_on channel=0 note=67 velocity=77 time=27
note_on channel=0 note=70 velocity=0 time=7
note_on channel=0 note=64 velocity=91 time=21
note_on channel=0 note=67 velocity=0 time=2
note_on channel=0 note=67 velocity=83 time=30
note_on channel=0 note=64 velocity=0 time=7
note_on channel=0 note=70 velocity=88 time=21
note_on channel=0 note=67 velocity=0 time=4
note_on channel=0 note=74 velocity=89 time=28
note_on channel=0 note=70 velocity=0 time=7
note_on channel=0 note=72 velocity=99 time=21
note_on channel=0 note=74 velocity=0 time=4
note_on channel=0 note=72 velocity=0 time=172
note_on channel=0 note=65 velocity=72 time=4
note_on channel=0 note=74 velocity=85 time=60
note_on channel=0 note=65 velocity=0 time=13
note_on channel=0 note=74 velocity=0 time=74
note_on channel=0 note=72 velocity=77 time=5
note_on channel=0 note=70 velocity=83 time=28
note_on channel=0 note=72 velocity=0 time=11
note_on channel=0 note=70 velocity=0 time=46
note_on channel=0 note=65 velocity=78 time=3
note_on channel=0 note=65 velocity=0 time=57
note_on channel=0 note=74 velocity=85 time=3
note_on channel=0 note=74 velocity=0 time=87
note_on channel=0 note=72 velocity=74 time=5
note_on channel=0 note=70 velocity=85 time=28
note_on channel=0 note=72 velocity=0 time=5
note_on channel=0 note=65 velocity=77 time=27
note_on channel=0 note=70 velocity=0 time=8
note_on channel=0 note=77 velocity=88 time=20
note_on channel=0 note=65 velocity=0 time=1
note_on channel=0 note=74 velocity=84 time=31
note_on channel=0 note=77 velocity=0 time=6
note_on channel=0 note=70 velocity=92 time=22
note_on channel=0 note=74 velocity=0 time=5
note_on channel=0 note=75 velocity=83 time=27
note_on channel=0 note=70 velocity=0 time=8
note_on channel=0 note=79 velocity=89 time=20
note_on channel=0 note=75 velocity=0 time=5
note_on channel=0 note=82 velocity=85 time=27
note_on channel=0 note=79 velocity=0 time=7
note_on channel=0 note=84 velocity=93 time=21
note_on channel=0 note=82 velocity=0 time=4
note_on channel=0 note=82 velocity=83 time=28
note_on channel=0 note=84 velocity=0 time=7
note_on channel=0 note=82 velocity=0 time=20
note_on channel=0 note=70 velocity=86 time=1
note_on channel=0 note=72 velocity=81 time=32
note_on channel=0 note=70 velocity=0 time=8
note_on channel=0 note=74 velocity=95 time=20
note_on channel=0 note=65 velocity=95 time=0
note_on channel=0 note=72 velocity=0 time=5
note_on channel=0 note=74 velocity=0 time=169
note_on channel=0 note=65 velocity=0 time=1
note_on channel=0 note=70 velocity=76 time=5
note_on channel=0 note=74 velocity=74 time=32
note_on channel=0 note=70 velocity=0 time=8
note_on channel=0 note=72 velocity=90 time=20
note_on channel=0 note=74 velocity=0 time=5
note_on channel=0 note=72 velocity=0 time=81
note_on channel=0 note=67 velocity=76 time=6
note_on channel=0 note=70 velocity=87 time=28
note_on channel=0 note=67 velocity=0 time=15
note_on channel=0 note=72 velocity=77 time=45
note_on channel=0 note=70 velocity=0 time=2
note_on channel=0 note=74 velocity=90 time=58
note_on channel=0 note=72 velocity=0 time=7
note_on channel=0 note=74 velocity=0 time=81
note_on channel=0 note=79 velocity=86 time=4
note_on channel=0 note=77 velocity=97 time=28
note_on channel=0 note=79 velocity=0 time=11
note_on channel=0 note=74 velocity=84 time=21
note_on channel=0 note=77 velocity=0 time=14
note_on channel=0 note=72 velocity=89 time=14
note_on channel=0 note=74 velocity=0 time=10
note_on channel=0 note=70 velocity=81 time=22
note_on channel=0 note=72 velocity=0 time=13
note_on channel=0 note=67 velocity=100 time=15
note_on channel=0 note=64 velocity=100 time=0
note_on channel=0 note=70 velocity=0 time=10
note_on channel=0 note=67 velocity=0 time=75
note_on channel=0 note=64 velocity=0 time=1
note_on channel=0 note=64 velocity=81 time=6
note_on channel=0 note=67 velocity=81 time=0
note_on channel=0 note=67 velocity=0 time=27
note_on channel=0 note=64 velocity=0 time=1
note_on channel=0 note=63 velocity=92 time=0
note_on channel=0 note=65 velocity=92 time=0
note_on channel=0 note=65 velocity=0 time=55
note_on channel=0 note=63 velocity=0 time=2
note_on channel=0 note=63 velocity=84 time=3
note_on channel=0 note=65 velocity=84 time=0
note_on channel=0 note=65 velocity=0 time=48
note_on channel=0 note=63 velocity=0 time=2
note_on channel=0 note=62 velocity=90 time=10
note_on channel=0 note=70 velocity=91 time=0
note_on channel=0 note=70 velocity=0 time=59
note_on channel=0 note=62 velocity=0 time=0
note_on channel=0 note=65 velocity=97 time=1
note_on channel=0 note=77 velocity=97 time=0
note_on channel=0 note=77 velocity=0 time=28
note_on channel=0 note=65 velocity=0 time=0
note_on channel=0 note=77 velocity=89 time=4
note_on channel=0 note=65 velocity=81 time=0
note_on channel=0 note=65 velocity=0 time=25
note_on channel=0 note=77 velocity=0 time=2
note_on channel=0 note=65 velocity=100 time=1
note_on channel=0 note=77 velocity=100 time=0
note_on channel=0 note=77 velocity=0 time=57
note_on channel=0 note=65 velocity=0 time=1
note_on channel=0 note=67 velocity=94 time=2
note_on channel=0 note=79 velocity=94 time=0
note_on channel=0 note=67 velocity=0 time=56
note_on channel=0 note=79 velocity=0 time=1
note_on channel=0 note=75 velocity=98 time=3
note_on channel=0 note=81 velocity=100 time=0
note_on channel=0 note=69 velocity=100 time=0
note_on channel=0 note=75 velocity=0 time=56
note_on channel=0 note=69 velocity=0 time=2
note_on channel=0 note=81 velocity=0 time=0
note_on channel=0 note=80 velocity=86 time=2
note_on channel=0 note=75 velocity=90 time=0
note_on channel=0 note=68 velocity=90 time=0
note_on channel=0 note=75 velocity=0 time=28
note_on channel=0 note=69 velocity=97 time=4
note_on channel=0 note=75 velocity=97 time=0
note_on channel=0 note=81 velocity=97 time=0
note_on channel=0 note=68 velocity=0 time=6
note_on channel=0 note=80 velocity=0 time=2
note_on channel=0 note=75 velocity=0 time=42
note_on channel=0 note=69 velocity=0 time=0
note_on channel=0 note=81 velocity=0 time=0
note_on channel=0 note=68 velocity=87 time=10
note_on channel=0 note=80 velocity=88 time=0
note_on channel=0 note=75 velocity=91 time=0
note_on channel=0 note=75 velocity=0 time=28
note_on channel=0 note=81 velocity=98 time=0
note_on channel=0 note=69 velocity=98 time=0
note_on channel=0 note=75 velocity=98 time=0
note_on channel=0 note=68 velocity=0 time=10
note_on channel=0 note=80 velocity=0 time=1
note_on channel=0 note=69 velocity=0 time=38
note_on channel=0 note=81 velocity=0 time=1
note_on channel=0 note=75 velocity=0 time=1
note_on channel=0 note=79 velocity=103 time=9
note_on channel=0 note=75 velocity=103 time=0
note_on channel=0 note=67 velocity=103 time=0
note_on channel=0 note=75 velocity=0 time=56
note_on channel=0 note=67 velocity=0 time=3
note_on channel=0 note=79 velocity=0 time=0
note_on channel=0 note=78 velocity=87 time=1
note_on channel=0 note=75 velocity=93 time=0
note_on channel=0 note=66 velocity=92 time=0
note_on channel=0 note=75 velocity=0 time=27
note_on channel=0 note=75 velocity=102 time=5
note_on channel=0 note=79 velocity=102 time=0
note_on channel=0 note=67 velocity=102 time=0
note_on channel=0 note=78 velocity=0 time=6
note_on channel=0 note=66 velocity=0 time=2
note_on channel=0 note=67 velocity=0 time=41
note_on channel=0 note=75 velocity=0 time=0
note_on channel=0 note=79 velocity=0 time=2
note_on channel=0 note=69 velocity=98 time=9
note_on channel=0 note=75 velocity=98 time=0
note_on channel=0 note=81 velocity=98 time=0
note_on channel=0 note=69 velocity=0 time=27
note_on channel=0 note=75 velocity=0 time=1
note_on channel=0 note=67 velocity=101 time=0
note_on channel=0 note=79 velocity=101 time=0
note_on channel=0 note=75 velocity=101 time=0
note_on channel=0 note=81 velocity=0 time=2
note_on channel=0 note=75 velocity=0 time=26
note_on channel=0 note=78 velocity=91 time=4
note_on channel=0 note=75 velocity=91 time=0
note_on channel=0 note=66 velocity=91 time=0
note_on channel=0 note=79 velocity=0 time=6
note_on channel=0 note=67 velocity=0 time=0
note_on channel=0 note=74 velocity=100 time=22
note_on channel=0 note=65 velocity=98 time=0
note_on channel=0 note=77 velocity=99 time=0
note_on channel=0 note=75 velocity=0 time=1
note_on channel=0 note=66 velocity=0 time=0
note_on channel=0 note=78 velocity=0 time=0
note_on channel=0 note=65 velocity=0 time=143
note_on channel=0 note=77 velocity=0 time=2
note_on channel=0 note=74 velocity=0 time=0
note_on channel=0 note=65 velocity=89 time=6
note_on channel=0 note=70 velocity=93 time=28
note_on channel=0 note=65 velocity=0 time=5
note_on channel=0 note=74 velocity=91 time=27
note_on channel=0 note=70 velocity=0 time=7
note_on channel=0 note=65 velocity=103 time=21
note_on channel=0 note=77 velocity=103 time=0
note_on channel=0 note=74 velocity=0 time=4
note_on channel=0 note=77 velocity=0 time=112
note_on channel=0 note=65 velocity=0 time=0
note_on channel=0 note=91 velocity=108 time=4
note_on channel=0 note=79 velocity=108 time=0
note_on channel=0 note=89 velocity=96 time=60
note_on channel=0 note=77 velocity=96 time=0
note_on channel=0 note=79 velocity=0 time=11
note_on channel=0 note=91 velocity=0 time=0
note_on channel=0 note=89 velocity=0 time=45
note_on channel=0 note=77 velocity=0 time=3
note_on channel=0 note=75 velocity=105 time=1
note_on channel=0 note=87 velocity=105 time=0
note_on channel=0 note=75 velocity=0 time=144
note_on channel=0 note=87 velocity=0 time=2
note_on channel=0 note=84 velocity=90 time=6
note_on channel=0 note=81 velocity=96 time=28
note_on channel=0 note=84 velocity=0 time=5
note_on channel=0 note=79 velocity=89 time=27
note_on channel=0 note=81 velocity=0 time=9
note_on channel=0 note=77 velocity=100 time=19
note_on channel=0 note=79 velocity=0 time=9
note_on channel=0 note=77 velocity=0 time=104
note_on channel=0 note=89 velocity=102 time=7
note_on channel=0 note=77 velocity=102 time=0
note_on channel=0 note=75 velocity=95 time=60
note_on channel=0 note=87 velocity=95 time=0
note_on channel=0 note=89 velocity=0 time=11
note_on channel=0 note=77 velocity=0 time=1
note_on channel=0 note=75 velocity=0 time=46
note_on channel=0 note=87 velocity=0 time=0
note_on channel=0 note=74 velocity=99 time=2
note_on channel=0 note=86 velocity=95 time=0
note_on channel=0 note=86 velocity=0 time=144
note_on channel=0 note=74 velocity=0 time=0
note_on channel=0 note=82 velocity=91 time=8
note_on channel=0 note=81 velocity=95 time=28
note_on channel=0 note=82 velocity=0 time=7
note_on channel=0 note=79 velocity=90 time=25
note_on channel=0 note=81 velocity=0 time=11
note_on channel=0 note=77 velocity=102 time=17
note_on channel=0 note=79 velocity=0 time=5
note_on channel=0 note=77 velocity=0 time=111
note_on channel=0 note=65 velocity=94 time=4
note_on channel=0 note=77 velocity=91 time=0
note_on channel=0 note=67 velocity=90 time=60
note_on channel=0 note=79 velocity=89 time=0
note_on channel=0 note=65 velocity=0 time=8
note_on channel=0 note=77 velocity=0 time=3
note_on channel=0 note=79 velocity=0 time=47
note_on channel=0 note=67 velocity=0 time=1
note_on channel=0 note=81 velocity=93 time=1
note_on channel=0 note=69 velocity=98 time=0
note_on channel=0 note=75 velocity=100 time=0
note_on channel=0 note=69 velocity=0 time=57
note_on channel=0 note=75 velocity=0 time=1
note_on channel=0 note=81 velocity=0 time=0
note_on channel=0 note=80 velocity=90 time=2
note_on channel=0 note=75 velocity=86 time=0
note_on channel=0 note=68 velocity=86 time=0
note_on channel=0 note=75 velocity=0 time=30
note_on channel=0 note=81 velocity=99 time=2
note_on channel=0 note=69 velocity=99 time=0
note_on channel=0 note=75 velocity=99 time=0
note_on channel=0 note=68 velocity=0 time=9
note_on channel=0 note=80 velocity=0 time=0
note_on channel=0 note=75 velocity=0 time=39
note_on channel=0 note=81 velocity=0 time=3
note_on channel=0 note=69 velocity=0 time=0
note_on channel=0 note=75 velocity=88 time=9
note_on channel=0 note=68 velocity=88 time=0
note_on channel=0 note=80 velocity=88 time=0
note_on channel=0 note=75 velocity=0 time=28
note_on channel=0 note=75 velocity=97 time=0
note_on channel=0 note=81 velocity=97 time=0
note_on channel=0 note=69 velocity=97 time=0
note_on channel=0 note=80 velocity=0 time=12
note_on channel=0 note=68 velocity=0 time=0
note_on channel=0 note=69 velocity=0 time=37
note_on channel=0 note=75 velocity=0 time=0
note_on channel=0 note=81 velocity=0 time=2
note_on channel=0 note=79 velocity=104 time=9
note_on channel=0 note=67 velocity=104 time=0
note_on channel=0 note=75 velocity=104 time=0
note_on channel=0 note=75 velocity=0 time=56
note_on channel=0 note=67 velocity=0 time=2
note_on channel=0 note=79 velocity=0 time=1
note_on channel=0 note=78 velocity=93 time=1
note_on channel=0 note=75 velocity=88 time=0
note_on channel=0 note=66 velocity=89 time=0
note_on channel=0 note=75 velocity=0 time=27
note_on channel=0 note=79 velocity=97 time=5
note_on channel=0 note=75 velocity=97 time=0
note_on channel=0 note=67 velocity=97 time=0
note_on channel=0 note=66 velocity=0 time=6
note_on channel=0 note=78 velocity=0 time=0
note_on channel=0 note=75 velocity=0 time=42
note_on channel=0 note=79 velocity=0 time=3
note_on channel=0 note=67 velocity=0 time=0
note_on channel=0 note=75 velocity=90 time=9
note_on channel=0 note=81 velocity=91 time=0
note_on channel=0 note=69 velocity=91 time=0
note_on channel=0 note=75 velocity=0 time=27
note_on channel=0 note=79 velocity=99 time=1
note_on channel=0 note=67 velocity=99 time=0
note_on channel=0 note=75 velocity=99 time=0
note_on channel=0 note=69 velocity=0 time=4
note_on channel=0 note=81 velocity=0 time=1
note_on channel=0 note=75 velocity=0 time=22
note_on channel=0 note=66 velocity=92 time=5
note_on channel=0 note=75 velocity=91 time=0
note_on channel=0 note=78 velocity=91 time=0
note_on channel=0 note=79 velocity=0 time=7
note_on channel=0 note=67 velocity=0 time=1
note_on channel=0 note=77 velocity=94 time=20
note_on channel=0 note=65 velocity=94 time=0
note_on channel=0 note=74 velocity=97 time=0
note_on channel=0 note=75 velocity=0 time=2
note_on channel=0 note=66 velocity=0 time=2
note_on channel=0 note=78 velocity=0 time=2
note_on channel=0 note=65 velocity=0 time=138
note_on channel=0 note=74 velocity=0 time=2
note_on channel=0 note=77 velocity=0 time=0
note_on channel=0 note=65 velocity=90 time=6
note_on channel=0 note=70 velocity=92 time=28
note_on channel=0 note=65 velocity=0 time=4
note_on channel=0 note=74 velocity=90 time=28
note_on channel=0 note=70 velocity=0 time=8
note_on channel=0 note=74 velocity=0 time=17
note_on channel=0 note=74 velocity=104 time=3
note_on channel=0 note=77 velocity=104 time=0
note_on channel=0 note=70 velocity=104 time=0
note_on channel=0 note=65 velocity=104 time=0
note_on channel=0 note=77 velocity=0 time=173
note_on channel=0 note=74 velocity=0 time=0
note_on channel=0 note=70 velocity=0 time=1
note_on channel=0 note=65 velocity=0 time=0
note_on channel=0 note=70 velocity=91 time=6
note_on channel=0 note=74 velocity=86 time=32
note_on channel=0 note=70 velocity=0 time=8
note_on channel=0 note=72 velocity=96 time=20
note_on channel=0 note=74 velocity=0 time=7
note_on channel=0 note=72 velocity=0 time=78
note_on channel=0 note=67 velocity=92 time=7
note_on channel=0 note=70 velocity=93 time=28
note_on channel=0 note=67 velocity=0 time=11
note_on channel=0 note=70 velocity=0 time=47
note_on channel=0 note=72 velocity=92 time=2
note_on channel=0 note=72 velocity=0 time=57
note_on channel=0 note=74 velocity=99 time=3
note_on channel=0 note=74 velocity=0 time=87
note_on channel=0 note=79 velocity=93 time=5
note_on channel=0 note=77 velocity=101 time=28
note_on channel=0 note=79 velocity=0 time=4
note_on channel=0 note=74 velocity=93 time=28
note_on channel=0 note=77 velocity=0 time=8
note_on channel=0 note=72 velocity=96 time=20
note_on channel=0 note=74 velocity=0 time=4
note_on channel=0 note=70 velocity=90 time=28
note_on channel=0 note=72 velocity=0 time=7
note_on channel=0 note=67 velocity=98 time=21
note_on channel=0 note=64 velocity=100 time=0
note_on channel=0 note=70 velocity=0 time=6
note_on channel=0 note=64 velocity=0 time=79
note_on channel=0 note=67 velocity=0 time=2
note_on channel=0 note=67 velocity=88 time=5
note_on channel=0 note=64 velocity=88 time=0
note_on channel=0 note=63 velocity=95 time=28
note_on channel=0 note=65 velocity=97 time=0
note_on channel=0 note=64 velocity=0 time=1
note_on channel=0 note=67 velocity=0 time=1
note_on channel=0 note=63 velocity=0 time=52
note_on channel=0 note=65 velocity=0 time=2
note_on channel=0 note=63 velocity=91 time=4
note_on channel=0 note=65 velocity=90 time=0
note_on channel=0 note=65 velocity=0 time=48
note_on channel=0 note=63 velocity=0 time=0
note_on channel=0 note=62 velocity=101 time=12
note_on channel=0 note=70 velocity=101 time=0
note_on channel=0 note=70 velocity=0 time=56
note_on channel=0 note=62 velocity=0 time=1
note_on channel=0 note=77 velocity=113 time=3
note_on channel=0 note=65 velocity=113 time=0
note_on channel=0 note=65 velocity=0 time=28
note_on channel=0 note=77 velocity=0 time=2
note_on channel=0 note=65 velocity=105 time=2
note_on channel=0 note=77 velocity=105 time=0
note_on channel=0 note=77 velocity=0 time=26
note_on channel=0 note=65 velocity=0 time=0
note_on channel=0 note=65 velocity=110 time=2
note_on channel=0 note=77 velocity=104 time=0
note_on channel=0 note=65 velocity=0 time=58
note_on channel=0 note=77 velocity=0 time=1
note_on channel=0 note=79 velocity=106 time=1
note_on channel=0 note=67 velocity=101 time=0
note_on channel=0 note=67 velocity=0 time=56
note_on channel=0 note=79 velocity=0 time=2
note_on channel=0 note=75 velocity=107 time=2
note_on channel=0 note=81 velocity=110 time=0
note_on channel=0 note=69 velocity=110 time=0
note_on channel=0 note=75 velocity=0 time=56
note_on channel=0 note=69 velocity=0 time=2
note_on channel=0 note=81 velocity=0 time=0
note_on channel=0 note=80 velocity=94 time=2
note_on channel=0 note=75 velocity=99 time=0
note_on channel=0 note=68 velocity=99 time=0
note_on channel=0 note=75 velocity=0 time=28
note_on channel=0 note=69 velocity=106 time=4
note_on channel=0 note=75 velocity=106 time=0
note_on channel=0 note=81 velocity=106 time=0
note_on channel=0 note=68 velocity=0 time=6
note_on channel=0 note=80 velocity=0 time=2
note_on channel=0 note=75 velocity=0 time=42
note_on channel=0 note=69 velocity=0 time=0
note_on channel=0 note=81 velocity=0 time=0
note_on channel=0 note=68 velocity=95 time=10
note_on channel=0 note=80 velocity=96 time=0
note_on channel=0 note=75 velocity=100 time=0
note_on channel=0 note=75 velocity=0 time=28
note_on channel=0 note=81 velocity=107 time=0
note_on channel=0 note=69 velocity=107 time=0
note_on channel=0 note=75 velocity=107 time=0
note_on channel=0 note=68 velocity=0 time=10
note_on channel=0 note=80 velocity=0 time=1
note_on channel=0 note=69 velocity=0 time=38
note_on channel=0 note=81 velocity=0 time=1
note_on channel=0 note=75 velocity=0 time=1
note_on channel=0 note=79 velocity=113 time=9
note_on channel=0 note=75 velocity=113 time=0
note_on channel=0 note=67 velocity=113 time=0
note_on channel=0 note=75 velocity=0 time=56
note_on channel=0 note=67 velocity=0 time=3
note_on channel=0 note=79 velocity=0 time=0
note_on channel=0 note=78 velocity=95 time=1
note_on channel=0 note=75 velocity=102 time=0
note_on channel=0 note=66 velocity=101 time=0
note_on channel=0 note=75 velocity=0 time=27
note_on channel=0 note=75 velocity=112 time=5
note_on channel=0 note=79 velocity=112 time=0
note_on channel=0 note=67 velocity=112 time=0
note_on channel=0 note=78 velocity=0 time=6
note_on channel=0 note=66 velocity=0 time=2
note_on channel=0 note=67 velocity=0 time=41
note_on channel=0 note=75 velocity=0 time=0
note_on channel=0 note=79 velocity=0 time=2
note_on channel=0 note=69 velocity=107 time=9
note_on channel=0 note=75 velocity=107 time=0
note_on channel=0 note=81 velocity=107 time=0
note_on channel=0 note=69 velocity=0 time=27
note_on channel=0 note=75 velocity=0 time=1
note_on channel=0 note=67 velocity=111 time=0
note_on channel=0 note=79 velocity=111 time=0
note_on channel=0 note=75 velocity=111 time=0
note_on channel=0 note=81 velocity=0 time=2
note_on channel=0 note=75 velocity=0 time=26
note_on channel=0 note=78 velocity=100 time=4
note_on channel=0 note=75 velocity=100 time=0
note_on channel=0 note=66 velocity=100 time=0
note_on channel=0 note=79 velocity=0 time=6
note_on channel=0 note=67 velocity=0 time=0
note_on channel=0 note=74 velocity=109 time=22
note_on channel=0 note=65 velocity=106 time=0
note_on channel=0 note=77 velocity=107 time=0
note_on channel=0 note=75 velocity=0 time=1
note_on channel=0 note=66 velocity=0 time=0
note_on channel=0 note=78 velocity=0 time=0
note_on channel=0 note=65 velocity=0 time=143
note_on channel=0 note=77 velocity=0 time=2
note_on channel=0 note=74 velocity=0 time=0
note_on channel=0 note=65 velocity=97 time=6
note_on channel=0 note=70 velocity=101 time=28
note_on channel=0 note=65 velocity=0 time=5
note_on channel=0 note=74 velocity=99 time=27
note_on channel=0 note=70 velocity=0 time=7
note_on channel=0 note=65 velocity=112 time=21
note_on channel=0 note=77 velocity=112 time=0
note_on channel=0 note=74 velocity=0 time=4
note_on channel=0 note=77 velocity=0 time=112
note_on channel=0 note=65 velocity=0 time=0
note_on channel=0 note=91 velocity=117 time=4
note_on channel=0 note=79 velocity=117 time=0
note_on channel=0 note=89 velocity=104 time=60
note_on channel=0 note=77 velocity=104 time=0
note_on channel=0 note=79 velocity=0 time=11
note_on channel=0 note=91 velocity=0 time=0
note_on channel=0 note=89 velocity=0 time=45
note_on channel=0 note=77 velocity=0 time=3
note_on channel=0 note=75 velocity=114 time=1
note_on channel=0 note=87 velocity=114 time=0
note_on channel=0 note=75 velocity=0 time=144
note_on channel=0 note=87 velocity=0 time=2
note_on channel=0 note=84 velocity=98 time=6
note_on channel=0 note=81 velocity=103 time=28
note_on channel=0 note=84 velocity=0 time=5
note_on channel=0 note=79 velocity=96 time=27
note_on channel=0 note=81 velocity=0 time=9
note_on channel=0 note=77 velocity=108 time=19
note_on channel=0 note=79 velocity=0 time=9
note_on channel=0 note=77 velocity=0 time=104
note_on channel=0 note=89 velocity=110 time=7
note_on channel=0 note=77 velocity=110 time=0
note_on channel=0 note=75 velocity=102 time=60
note_on channel=0 note=87 velocity=102 time=0
note_on channel=0 note=89 velocity=0 time=11
note_on channel=0 note=77 velocity=0 time=1
note_on channel=0 note=75 velocity=0 time=46
note_on channel=0 note=87 velocity=0 time=0
note_on channel=0 note=74 velocity=106 time=2
note_on channel=0 note=86 velocity=102 time=0
note_on channel=0 note=86 velocity=0 time=144
note_on channel=0 note=74 velocity=0 time=0
note_on channel=0 note=82 velocity=98 time=8
note_on channel=0 note=81 velocity=102 time=28
note_on channel=0 note=82 velocity=0 time=7
note_on channel=0 note=79 velocity=97 time=25
note_on channel=0 note=81 velocity=0 time=11
note_on channel=0 note=77 velocity=110 time=17
note_on channel=0 note=79 velocity=0 time=5
note_on channel=0 note=77 velocity=0 time=111
note_on channel=0 note=65 velocity=100 time=4
note_on channel=0 note=77 velocity=97 time=0
note_on channel=0 note=67 velocity=96 time=60
note_on channel=0 note=79 velocity=95 time=0
note_on channel=0 note=65 velocity=0 time=8
note_on channel=0 note=77 velocity=0 time=3
note_on channel=0 note=79 velocity=0 time=47
note_on channel=0 note=67 velocity=0 time=1
note_on channel=0 note=81 velocity=99 time=1
note_on channel=0 note=69 velocity=104 time=0
note_on channel=0 note=75 velocity=107 time=0
note_on channel=0 note=69 velocity=0 time=57
note_on channel=0 note=75 velocity=0 time=1
note_on channel=0 note=81 velocity=0 time=0
note_on channel=0 note=80 velocity=96 time=2
note_on channel=0 note=75 velocity=92 time=0
note_on channel=0 note=68 velocity=92 time=0
note_on channel=0 note=75 velocity=0 time=30
note_on channel=0 note=81 velocity=105 time=2
note_on channel=0 note=69 velocity=105 time=0
note_on channel=0 note=75 velocity=105 time=0
note_on channel=0 note=68 velocity=0 time=9
note_on channel=0 note=80 velocity=0 time=0
note_on channel=0 note=75 velocity=0 time=39
note_on channel=0 note=81 velocity=0 time=3
note_on channel=0 note=69 velocity=0 time=0
note_on channel=0 note=75 velocity=94 time=9
note_on channel=0 note=68 velocity=94 time=0
note_on channel=0 note=80 velocity=94 time=0
note_on channel=0 note=75 velocity=0 time=28
note_on channel=0 note=75 velocity=103 time=0
note_on channel=0 note=81 velocity=103 time=0
note_on channel=0 note=69 velocity=103 time=0
note_on channel=0 note=80 velocity=0 time=12
note_on channel=0 note=68 velocity=0 time=0
note_on channel=0 note=69 velocity=0 time=37
note_on channel=0 note=75 velocity=0 time=0
note_on channel=0 note=81 velocity=0 time=2
note_on channel=0 note=79 velocity=111 time=9
note_on channel=0 note=67 velocity=111 time=0
note_on channel=0 note=75 velocity=111 time=0
note_on channel=0 note=75 velocity=0 time=56
note_on channel=0 note=67 velocity=0 time=2
note_on channel=0 note=79 velocity=0 time=1
note_on channel=0 note=78 velocity=99 time=1
note_on channel=0 note=75 velocity=94 time=0
note_on channel=0 note=66 velocity=95 time=0
note_on channel=0 note=75 velocity=0 time=27
note_on channel=0 note=79 velocity=103 time=5
note_on channel=0 note=75 velocity=103 time=0
note_on channel=0 note=67 velocity=103 time=0
note_on channel=0 note=66 velocity=0 time=6
note_on channel=0 note=78 velocity=0 time=0
note_on channel=0 note=75 velocity=0 time=42
note_on channel=0 note=79 velocity=0 time=3
note_on channel=0 note=67 velocity=0 time=0
note_on channel=0 note=75 velocity=96 time=9
note_on channel=0 note=81 velocity=97 time=0
note_on channel=0 note=69 velocity=97 time=0
note_on channel=0 note=75 velocity=0 time=27
note_on channel=0 note=79 velocity=105 time=1
note_on channel=0 note=67 velocity=105 time=0
note_on channel=0 note=75 velocity=105 time=0
note_on channel=0 note=69 velocity=0 time=4
note_on channel=0 note=81 velocity=0 time=1
note_on channel=0 note=75 velocity=0 time=22
note_on channel=0 note=66 velocity=98 time=5
note_on channel=0 note=75 velocity=97 time=0
note_on channel=0 note=78 velocity=97 time=0
note_on channel=0 note=79 velocity=0 time=7
note_on channel=0 note=67 velocity=0 time=1
note_on channel=0 note=77 velocity=100 time=20
note_on channel=0 note=65 velocity=100 time=0
note_on channel=0 note=74 velocity=103 time=0
note_on channel=0 note=75 velocity=0 time=2
note_on channel=0 note=66 velocity=0 time=2
note_on channel=0 note=78 velocity=0 time=2
note_on channel=0 note=65 velocity=0 time=138
note_on channel=0 note=74 velocity=0 time=2
note_on channel=0 note=77 velocity=0 time=0
note_on channel=0 note=65 velocity=95 time=6
note_on channel=0 note=70 velocity=97 time=28
note_on channel=0 note=65 velocity=0 time=4
note_on channel=0 note=74 velocity=95 time=28
note_on channel=0 note=70 velocity=0 time=8
note_on channel=0 note=74 velocity=0 time=17
note_on channel=0 note=74 velocity=110 time=3
note_on channel=0 note=77 velocity=110 time=0
note_on channel=0 note=70 velocity=110 time=0
note_on channel=0 note=65 velocity=110 time=0
note_on channel=0 note=77 velocity=0 time=173
note_on channel=0 note=74 velocity=0 time=0
note_on channel=0 note=70 velocity=0 time=1
note_on channel=0 note=65 velocity=0 time=0
note_on channel=0 note=70 velocity=96 time=6
note_on channel=0 note=74 velocity=91 time=32
note_on channel=0 note=70 velocity=0 time=8
note_on channel=0 note=72 velocity=101 time=20
note_on channel=0 note=74 velocity=0 time=7
note_on channel=0 note=72 velocity=0 time=78
note_on channel=0 note=67 velocity=97 time=7
note_on channel=0 note=70 velocity=98 time=28
note_on channel=0 note=67 velocity=0 time=11
note_on channel=0 note=70 velocity=0 time=47
note_on channel=0 note=72 velocity=97 time=2
note_on channel=0 note=72 velocity=0 time=57
note_on channel=0 note=74 velocity=103 time=3
note_on channel=0 note=74 velocity=0 time=87
note_on channel=0 note=79 velocity=97 time=5
note_on channel=0 note=77 velocity=106 time=28
note_on channel=0 note=79 velocity=0 time=4
note_on channel=0 note=74 velocity=97 time=28
note_on channel=0 note=77 velocity=0 time=8
note_on channel=0 note=72 velocity=100 time=20
note_on channel=0 note=74 velocity=0 time=4
note_on channel=0 note=70 velocity=94 time=28
note_on channel=0 note=72 velocity=0 time=7
note_on channel=0 note=67 velocity=102 time=21
note_on channel=0 note=64 velocity=105 time=0
note_on channel=0 note=70 velocity=0 time=6
note_on channel=0 note=64 velocity=0 time=79
note_on channel=0 note=67 velocity=0 time=2
note_on channel=0 note=67 velocity=92 time=5
note_on channel=0 note=64 velocity=92 time=0
note_on channel=0 note=63 velocity=99 time=28
note_on channel=0 note=65 velocity=101 time=0
note_on channel=0 note=64 velocity=0 time=1
note_on channel=0 note=67 velocity=0 time=1
note_on channel=0 note=63 velocity=0 time=52
note_on channel=0 note=65 velocity=0 time=2
note_on channel=0 note=63 velocity=95 time=4
note_on channel=0 note=65 velocity=94 time=0
note_on channel=0 note=65 velocity=0 time=48
note_on channel=0 note=63 velocity=0 time=0
note_on channel=0 note=70 velocity=111 time=12
note_on channel=0 note=62 velocity=111 time=0
note_on channel=0 note=70 velocity=0 time=115
note_on channel=0 note=62 velocity=0 time=2
note_on channel=0 note=74 velocity=116 time=3
note_on channel=0 note=82 velocity=116 time=0
note_on channel=0 note=70 velocity=116 time=0
note_on channel=0 note=82 velocity=0 time=56
note_on channel=0 note=70 velocity=0 time=1
note_on channel=0 note=74 velocity=0 time=1
control_change channel=0 control=120 value=127 time=182
<meta message end_of_track time=0>
<meta message midi_port port=0 time=0>
<meta message track_name name='by Scott Joplin (1902)' time=0>
control_change channel=1 control=0 value=0 time=0
control_change channel=1 control=32 value=0 time=0
program_change channel=1 program=0 time=0
control_change channel=1 control=7 value=127 time=0
control_change channel=1 control=10 value=44 time=0
control_change channel=1 control=121 value=0 time=0
control_change channel=1 control=1 value=0 time=0
pitchwheel channel=1 pitch=0 time=37
control_change channel=1 control=64 value=0 time=1
aftertouch channel=1 value=0 time=1
control_change channel=1 control=93 value=4 time=4
control_change channel=1 control=91 value=8 time=0
note_on channel=1 note=69 velocity=86 time=197
note_on channel=1 note=65 velocity=86 time=0
note_on channel=1 note=72 velocity=86 time=0
note_on channel=1 note=72 velocity=0 time=231
note_on channel=1 note=65 velocity=0 time=0
note_on channel=1 note=69 velocity=0 time=3
note_on channel=1 note=65 velocity=89 time=6
note_on channel=1 note=70 velocity=89 time=0
note_on channel=1 note=74 velocity=89 time=0
note_on channel=1 note=70 velocity=0 time=115
note_on channel=1 note=65 velocity=0 time=1
note_on channel=1 note=74 velocity=0 time=1
note_on channel=1 note=70 velocity=79 time=3
note_on channel=1 note=73 velocity=74 time=0
note_on channel=1 note=65 velocity=78 time=0
note_on channel=1 note=73 velocity=0 time=96
note_on channel=1 note=65 velocity=0 time=1
note_on channel=1 note=70 velocity=0 time=0
note_on channel=1 note=69 velocity=85 time=23
note_on channel=1 note=72 velocity=85 time=0
note_on channel=1 note=65 velocity=85 time=0
note_on channel=1 note=65 velocity=0 time=114
note_on channel=1 note=69 velocity=0 time=0
note_on channel=1 note=72 velocity=0 time=1
note_on channel=1 note=71 velocity=77 time=5
note_on channel=1 note=65 velocity=75 time=0
note_on channel=1 note=61 velocity=73 time=0
note_on channel=1 note=65 velocity=0 time=97
note_on channel=1 note=71 velocity=0 time=0
note_on channel=1 note=61 velocity=0 time=1
note_on channel=1 note=67 velocity=93 time=22
note_on channel=1 note=72 velocity=93 time=0
note_on channel=1 note=60 velocity=93 time=0
note_on channel=1 note=64 velocity=93 time=0
note_on channel=1 note=64 velocity=0 time=47
note_on channel=1 note=67 velocity=0 time=0
note_on channel=1 note=60 velocity=0 time=1
note_on channel=1 note=72 velocity=0 time=1
note_on channel=1 note=36 velocity=84 time=11
note_on channel=1 note=48 velocity=84 time=0
note_on channel=1 note=36 velocity=0 time=47
note_on channel=1 note=48 velocity=0 time=3
note_on channel=1 note=50 velocity=92 time=10
note_on channel=1 note=38 velocity=92 time=0
note_on channel=1 note=52 velocity=81 time=60
note_on channel=1 note=40 velocity=81 time=0
note_on channel=1 note=50 velocity=0 time=8
note_on channel=1 note=38 velocity=0 time=2
note_on channel=1 note=40 velocity=0 time=37
note_on channel=1 note=52 velocity=0 time=3
note_on channel=1 note=53 velocity=96 time=10
note_on channel=1 note=41 velocity=96 time=0
note_on channel=1 note=42 velocity=84 time=120
note_on channel=1 note=54 velocity=84 time=0
note_on channel=1 note=41 velocity=0 time=30
note_on channel=1 note=53 velocity=0 time=0
note_on channel=1 note=42 velocity=0 time=86
note_on channel=1 note=54 velocity=0 time=1
note_on channel=1 note=43 velocity=84 time=3
note_on channel=1 note=55 velocity=88 time=0
note_on channel=1 note=64 velocity=85 time=60
note_on channel=1 note=58 velocity=85 time=0
note_on channel=1 note=60 velocity=85 time=0
note_on channel=1 note=60 velocity=0 time=25
note_on channel=1 note=64 velocity=0 time=0
note_on channel=1 note=58 velocity=0 time=0
note_on channel=1 note=55 velocity=0 time=5
note_on channel=1 note=43 velocity=0 time=15
note_on channel=1 note=48 velocity=100 time=15
note_on channel=1 note=58 velocity=85 time=60
note_on channel=1 note=60 velocity=85 time=0
note_on channel=1 note=64 velocity=85 time=0
note_on channel=1 note=64 velocity=0 time=24
note_on channel=1 note=60 velocity=0 time=1
note_on channel=1 note=58 velocity=0 time=0
note_on channel=1 note=48 velocity=0 time=20
note_on channel=1 note=41 velocity=95 time=15
note_on channel=1 note=53 velocity=95 time=0
note_on channel=1 note=54 velocity=86 time=120
note_on channel=1 note=42 velocity=85 time=0
note_on channel=1 note=53 velocity=0 time=15
note_on channel=1 note=41 velocity=0 time=0
note_on channel=1 note=54 velocity=0 time=99
note_on channel=1 note=42 velocity=0 time=1
note_on channel=1 note=43 velocity=90 time=5
note_on channel=1 note=55 velocity=90 time=0
note_on channel=1 note=60 velocity=83 time=60
note_on channel=1 note=58 velocity=83 time=0
note_on channel=1 note=64 velocity=83 time=0
note_on channel=1 note=64 velocity=0 time=25
note_on channel=1 note=60 velocity=0 time=0
note_on channel=1 note=58 velocity=0 time=0
note_on channel=1 note=55 velocity=0 time=20
note_on channel=1 note=43 velocity=0 time=0
note_on channel=1 note=48 velocity=96 time=15
note_on channel=1 note=58 velocity=86 time=60
note_on channel=1 note=64 velocity=86 time=0
note_on channel=1 note=60 velocity=86 time=0
note_on channel=1 note=60 velocity=0 time=25
note_on channel=1 note=64 velocity=0 time=0
note_on channel=1 note=58 velocity=0 time=0
note_on channel=1 note=48 velocity=0 time=20
note_on channel=1 note=55 velocity=89 time=15
note_on channel=1 note=43 velocity=90 time=0
note_on channel=1 note=58 velocity=80 time=60
note_on channel=1 note=60 velocity=81 time=0
note_on channel=1 note=64 velocity=83 time=0
note_on channel=1 note=64 velocity=0 time=25
note_on channel=1 note=58 velocity=0 time=0
note_on channel=1 note=60 velocity=0 time=0
note_on channel=1 note=43 velocity=0 time=5
note_on channel=1 note=55 velocity=0 time=0
note_on channel=1 note=48 velocity=93 time=30
note_on channel=1 note=60 velocity=93 time=0
note_on channel=1 note=46 velocity=87 time=60
note_on channel=1 note=58 velocity=87 time=0
note_on channel=1 note=60 velocity=0 time=15
note_on channel=1 note=48 velocity=0 time=0
note_on channel=1 note=58 velocity=0 time=42
note_on channel=1 note=46 velocity=0 time=2
note_on channel=1 note=45 velocity=83 time=1
note_on channel=1 note=57 velocity=86 time=0
note_on channel=1 note=57 velocity=0 time=56
note_on channel=1 note=57 velocity=77 time=4
note_on channel=1 note=65 velocity=81 time=0
note_on channel=1 note=60 velocity=77 time=0
note_on channel=1 note=60 velocity=0 time=24
note_on channel=1 note=65 velocity=0 time=1
note_on channel=1 note=57 velocity=0 time=0
note_on channel=1 note=45 velocity=0 time=5
note_on channel=1 note=42 velocity=81 time=30
note_on channel=1 note=54 velocity=87 time=0
note_on channel=1 note=57 velocity=81 time=60
note_on channel=1 note=63 velocity=79 time=0
note_on channel=1 note=60 velocity=81 time=0
note_on channel=1 note=60 velocity=0 time=24
note_on channel=1 note=63 velocity=0 time=0
note_on channel=1 note=57 velocity=0 time=1
note_on channel=1 note=54 velocity=0 time=5
note_on channel=1 note=42 velocity=0 time=0
note_on channel=1 note=55 velocity=89 time=30
note_on channel=1 note=43 velocity=89 time=0
note_on channel=1 note=55 velocity=0 time=57
note_on channel=1 note=60 velocity=78 time=3
note_on channel=1 note=55 velocity=81 time=0
note_on channel=1 note=64 velocity=81 time=0
note_on channel=1 note=43 velocity=0 time=15
note_on channel=1 note=64 velocity=0 time=9
note_on channel=1 note=55 velocity=0 time=1
note_on channel=1 note=60 velocity=0 time=0
note_on channel=1 note=43 velocity=89 time=35
note_on channel=1 note=65 velocity=81 time=60
note_on channel=1 note=59 velocity=83 time=0
note_on channel=1 note=55 velocity=81 time=0
note_on channel=1 note=55 velocity=0 time=25
note_on channel=1 note=59 velocity=0 time=0
note_on channel=1 note=65 velocity=0 time=0
note_on channel=1 note=43 velocity=0 time=5
note_on channel=1 note=64 velocity=95 time=30
note_on channel=1 note=60 velocity=95 time=0
note_on channel=1 note=64 velocity=0 time=58
note_on channel=1 note=60 velocity=0 time=1
note_on channel=1 note=48 velocity=80 time=1
note_on channel=1 note=36 velocity=81 time=0
note_on channel=1 note=36 velocity=0 time=43
note_on channel=1 note=48 velocity=0 time=2
note_on channel=1 note=50 velocity=90 time=15
note_on channel=1 note=38 velocity=90 time=0
note_on channel=1 note=38 velocity=0 time=56
note_on channel=1 note=50 velocity=0 time=1
note_on channel=1 note=52 velocity=80 time=3
note_on channel=1 note=40 velocity=78 time=0
note_on channel=1 note=40 velocity=0 time=43
note_on channel=1 note=52 velocity=0 time=0
note_on channel=1 note=41 velocity=86 time=17
note_on channel=1 note=53 velocity=85 time=0
note_on channel=1 note=42 velocity=83 time=120
note_on channel=1 note=54 velocity=86 time=0
note_on channel=1 note=53 velocity=0 time=30
note_on channel=1 note=41 velocity=0 time=0
note_on channel=1 note=42 velocity=0 time=84
note_on channel=1 note=54 velocity=0 time=1
note_on channel=1 note=55 velocity=90 time=5
note_on channel=1 note=43 velocity=89 time=0
note_on channel=1 note=64 velocity=80 time=60
note_on channel=1 note=60 velocity=78 time=0
note_on channel=1 note=58 velocity=81 time=0
note_on channel=1 note=58 velocity=0 time=24
note_on channel=1 note=60 velocity=0 time=0
note_on channel=1 note=64 velocity=0 time=1
note_on channel=1 note=43 velocity=0 time=20
note_on channel=1 note=55 velocity=0 time=0
note_on channel=1 note=48 velocity=83 time=15
note_on channel=1 note=64 velocity=77 time=60
note_on channel=1 note=60 velocity=81 time=0
note_on channel=1 note=58 velocity=81 time=0
note_on channel=1 note=58 velocity=0 time=25
note_on channel=1 note=60 velocity=0 time=0
note_on channel=1 note=64 velocity=0 time=0
note_on channel=1 note=48 velocity=0 time=20
note_on channel=1 note=41 velocity=90 time=15
note_on channel=1 note=53 velocity=84 time=0
note_on channel=1 note=54 velocity=87 time=120
note_on channel=1 note=42 velocity=81 time=0
note_on channel=1 note=53 velocity=0 time=15
note_on channel=1 note=41 velocity=0 time=15
note_on channel=1 note=54 velocity=0 time=84
note_on channel=1 note=42 velocity=0 time=0
note_on channel=1 note=55 velocity=89 time=6
note_on channel=1 note=43 velocity=85 time=0
note_on channel=1 note=58 velocity=83 time=60
note_on channel=1 note=60 velocity=77 time=0
note_on channel=1 note=64 velocity=80 time=0
note_on channel=1 note=64 velocity=0 time=25
note_on channel=1 note=58 velocity=0 time=0
note_on channel=1 note=60 velocity=0 time=0
note_on channel=1 note=43 velocity=0 time=20
note_on channel=1 note=55 velocity=0 time=0
note_on channel=1 note=48 velocity=85 time=15
note_on channel=1 note=58 velocity=82 time=60
note_on channel=1 note=64 velocity=78 time=0
note_on channel=1 note=60 velocity=82 time=0
note_on channel=1 note=60 velocity=0 time=25
note_on channel=1 note=64 velocity=0 time=0
note_on channel=1 note=58 velocity=0 time=0
note_on channel=1 note=48 velocity=0 time=5
note_on channel=1 note=55 velocity=88 time=30
note_on channel=1 note=43 velocity=84 time=0
note_on channel=1 note=60 velocity=82 time=60
note_on channel=1 note=64 velocity=78 time=0
note_on channel=1 note=58 velocity=81 time=0
note_on channel=1 note=58 velocity=0 time=25
note_on channel=1 note=60 velocity=0 time=0
note_on channel=1 note=64 velocity=0 time=0
note_on channel=1 note=43 velocity=0 time=5
note_on channel=1 note=55 velocity=0 time=0
note_on channel=1 note=48 velocity=98 time=30
note_on channel=1 note=60 velocity=98 time=0
note_on channel=1 note=58 velocity=95 time=60
note_on channel=1 note=46 velocity=95 time=0
note_on channel=1 note=60 velocity=0 time=15
note_on channel=1 note=48 velocity=0 time=0
note_on channel=1 note=46 velocity=0 time=42
note_on channel=1 note=58 velocity=0 time=1
note_on channel=1 note=57 velocity=98 time=2
note_on channel=1 note=45 velocity=98 time=0
note_on channel=1 note=57 velocity=0 time=56
note_on channel=1 note=57 velocity=92 time=4
note_on channel=1 note=60 velocity=92 time=0
note_on channel=1 note=65 velocity=92 time=0
note_on channel=1 note=65 velocity=0 time=25
note_on channel=1 note=60 velocity=0 time=0
note_on channel=1 note=57 velocity=0 time=0
note_on channel=1 note=45 velocity=0 time=20
note_on channel=1 note=47 velocity=104 time=15
note_on channel=1 note=59 velocity=104 time=0
note_on channel=1 note=47 velocity=0 time=116
note_on channel=1 note=59 velocity=0 time=1
note_on channel=1 note=60 velocity=90 time=3
note_on channel=1 note=48 velocity=90 time=0
note_on channel=1 note=60 velocity=0 time=105
note_on channel=1 note=48 velocity=0 time=9
note_on channel=1 note=36 velocity=87 time=6
note_on channel=1 note=48 velocity=87 time=0
note_on channel=1 note=48 velocity=0 time=107
note_on channel=1 note=36 velocity=0 time=0
note_on channel=1 note=53 velocity=94 time=13
note_on channel=1 note=41 velocity=94 time=0
note_on channel=1 note=41 velocity=0 time=57
note_on channel=1 note=53 velocity=0 time=1
note_on channel=1 note=36 velocity=101 time=2
note_on channel=1 note=48 velocity=101 time=0
note_on channel=1 note=36 velocity=0 time=43
note_on channel=1 note=48 velocity=0 time=1
note_on channel=1 note=38 velocity=103 time=16
note_on channel=1 note=50 velocity=103 time=0
note_on channel=1 note=50 velocity=0 time=57
note_on channel=1 note=38 velocity=0 time=1
note_on channel=1 note=40 velocity=96 time=2
note_on channel=1 note=52 velocity=96 time=0
note_on channel=1 note=52 velocity=0 time=45
note_on channel=1 note=40 velocity=0 time=0
note_on channel=1 note=53 velocity=101 time=15
note_on channel=1 note=41 velocity=101 time=0
note_on channel=1 note=42 velocity=84 time=120
note_on channel=1 note=54 velocity=84 time=0
note_on channel=1 note=41 velocity=0 time=30
note_on channel=1 note=53 velocity=0 time=0
note_on channel=1 note=42 velocity=0 time=86
note_on channel=1 note=54 velocity=0 time=1
note_on channel=1 note=43 velocity=84 time=3
note_on channel=1 note=55 velocity=88 time=0
note_on channel=1 note=64 velocity=85 time=60
note_on channel=1 note=58 velocity=85 time=0
note_on channel=1 note=60 velocity=85 time=0
note_on channel=1 note=60 velocity=0 time=25
note_on channel=1 note=64 velocity=0 time=0
note_on channel=1 note=58 velocity=0 time=0
note_on channel=1 note=55 velocity=0 time=5
note_on channel=1 note=43 velocity=0 time=15
note_on channel=1 note=48 velocity=100 time=15
note_on channel=1 note=58 velocity=85 time=60
note_on channel=1 note=60 velocity=85 time=0
note_on channel=1 note=64 velocity=85 time=0
note_on channel=1 note=64 velocity=0 time=24
note_on channel=1 note=60 velocity=0 time=1
note_on channel=1 note=58 velocity=0 time=0
note_on channel=1 note=48 velocity=0 time=20
note_on channel=1 note=41 velocity=95 time=15
note_on channel=1 note=53 velocity=95 time=0
note_on channel=1 note=54 velocity=86 time=120
note_on channel=1 note=42 velocity=85 time=0
note_on channel=1 note=53 velocity=0 time=15
note_on channel=1 note=41 velocity=0 time=0
note_on channel=1 note=54 velocity=0 time=99
note_on channel=1 note=42 velocity=0 time=1
note_on channel=1 note=43 velocity=90 time=5
note_on channel=1 note=55 velocity=90 time=0
note_on channel=1 note=60 velocity=83 time=60
note_on channel=1 note=58 velocity=83 time=0
note_on channel=1 note=64 velocity=83 time=0
note_on channel=1 note=64 velocity=0 time=25
note_on channel=1 note=60 velocity=0 time=0
note_on channel=1 note=58 velocity=0 time=0
note_on channel=1 note=55 velocity=0 time=20
note_on channel=1 note=43 velocity=0 time=0
note_on channel=1 note=48 velocity=96 time=15
note_on channel=1 note=58 velocity=86 time=60
note_on channel=1 note=64 velocity=86 time=0
note_on channel=1 note=60 velocity=86 time=0
note_on channel=1 note=60 velocity=0 time=25
note_on channel=1 note=64 velocity=0 time=0
note_on channel=1 note=58 velocity=0 time=0
note_on channel=1 note=48 velocity=0 time=20
note_on channel=1 note=55 velocity=89 time=15
note_on channel=1 note=43 velocity=90 time=0
note_on channel=1 note=58 velocity=80 time=60
note_on channel=1 note=60 velocity=81 time=0
note_on channel=1 note=64 velocity=83 time=0
note_on channel=1 note=64 velocity=0 time=25
note_on channel=1 note=58 velocity=0 time=0
note_on channel=1 note=60 velocity=0 time=0
note_on channel=1 note=43 velocity=0 time=5
note_on channel=1 note=55 velocity=0 time=0
note_on channel=1 note=48 velocity=93 time=30
note_on channel=1 note=60 velocity=93 time=0
note_on channel=1 note=46 velocity=87 time=60
note_on channel=1 note=58 velocity=87 time=0
note_on channel=1 note=60 velocity=0 time=15
note_on channel=1 note=48 velocity=0 time=0
note_on channel=1 note=58 velocity=0 time=42
note_on channel=1 note=46 velocity=0 time=2
note_on channel=1 note=45 velocity=83 time=1
note_on channel=1 note=57 velocity=86 time=0
note_on channel=1 note=57 velocity=0 time=56
note_on channel=1 note=57 velocity=77 time=4
note_on channel=1 note=65 velocity=81 time=0
note_on channel=1 note=60 velocity=77 time=0
note_on channel=1 note=60 velocity=0 time=24
note_on channel=1 note=65 velocity=0 time=1
note_on channel=1 note=57 velocity=0 time=0
note_on channel=1 note=45 velocity=0 time=5
note_on channel=1 note=42 velocity=81 time=30
note_on channel=1 note=54 velocity=87 time=0
note_on channel=1 note=57 velocity=81 time=60
note_on channel=1 note=63 velocity=79 time=0
note_on channel=1 note=60 velocity=81 time=0
note_on channel=1 note=60 velocity=0 time=24
note_on channel=1 note=63 velocity=0 time=0
note_on channel=1 note=57 velocity=0 time=1
note_on channel=1 note=54 velocity=0 time=5
note_on channel=1 note=42 velocity=0 time=0
note_on channel=1 note=55 velocity=89 time=30
note_on channel=1 note=43 velocity=89 time=0
note_on channel=1 note=55 velocity=0 time=57
note_on channel=1 note=60 velocity=78 time=3
note_on channel=1 note=55 velocity=81 time=0
note_on channel=1 note=64 velocity=81 time=0
note_on channel=1 note=43 velocity=0 time=15
note_on channel=1 note=64 velocity=0 time=9
note_on channel=1 note=55 velocity=0 time=1
note_on channel=1 note=60 velocity=0 time=0
note_on channel=1 note=43 velocity=89 time=35
note_on channel=1 note=65 velocity=81 time=60
note_on channel=1 note=59 velocity=83 time=0
note_on channel=1 note=55 velocity=81 time=0
note_on channel=1 note=55 velocity=0 time=25
note_on channel=1 note=59 velocity=0 time=0
note_on channel=1 note=65 velocity=0 time=0
note_on channel=1 note=43 velocity=0 time=5
note_on channel=1 note=64 velocity=95 time=30
note_on channel=1 note=60 velocity=95 time=0
note_on channel=1 note=64 velocity=0 time=58
note_on channel=1 note=60 velocity=0 time=1
note_on channel=1 note=48 velocity=80 time=1
note_on channel=1 note=36 velocity=81 time=0
note_on channel=1 note=36 velocity=0 time=43
note_on channel=1 note=48 velocity=0 time=2
note_on channel=1 note=50 velocity=90 time=15
note_on channel=1 note=38 velocity=90 time=0
note_on channel=1 note=38 velocity=0 time=56
note_on channel=1 note=50 velocity=0 time=1
note_on channel=1 note=52 velocity=80 time=3
note_on channel=1 note=40 velocity=78 time=0
note_on channel=1 note=40 velocity=0 time=43
note_on channel=1 note=52 velocity=0 time=0
note_on channel=1 note=41 velocity=86 time=17
note_on channel=1 note=53 velocity=85 time=0
note_on channel=1 note=42 velocity=83 time=120
note_on channel=1 note=54 velocity=86 time=0
note_on channel=1 note=53 velocity=0 time=30
note_on channel=1 note=41 velocity=0 time=0
note_on channel=1 note=42 velocity=0 time=84
note_on channel=1 note=54 velocity=0 time=1
note_on channel=1 note=55 velocity=90 time=5
note_on channel=1 note=43 velocity=89 time=0
note_on channel=1 note=64 velocity=80 time=60
note_on channel=1 note=60 velocity=78 time=0
note_on channel=1 note=58 velocity=81 time=0
note_on channel=1 note=58 velocity=0 time=24
note_on channel=1 note=60 velocity=0 time=0
note_on channel=1 note=64 velocity=0 time=1
note_on channel=1 note=43 velocity=0 time=20
note_on channel=1 note=55 velocity=0 time=0
note_on channel=1 note=48 velocity=83 time=15
note_on channel=1 note=64 velocity=77 time=60
note_on channel=1 note=60 velocity=81 time=0
note_on channel=1 note=58 velocity=81 time=0
note_on channel=1 note=58 velocity=0 time=25
note_on channel=1 note=60 velocity=0 time=0
note_on channel=1 note=64 velocity=0 time=0
note_on channel=1 note=48 velocity=0 time=20
note_on channel=1 note=41 velocity=90 time=15
note_on channel=1 note=53 velocity=84 time=0
note_on channel=1 note=54 velocity=87 time=120
note_on channel=1 note=42 velocity=81 time=0
note_on channel=1 note=53 velocity=0 time=15
note_on channel=1 note=41 velocity=0 time=15
note_on channel=1 note=54 velocity=0 time=84
note_on channel=1 note=42 velocity=0 time=0
note_on channel=1 note=55 velocity=89 time=6
note_on channel=1 note=43 velocity=85 time=0
note_on channel=1 note=58 velocity=83 time=60
note_on channel=1 note=60 velocity=77 time=0
note_on channel=1 note=64 velocity=80 time=0
note_on channel=1 note=64 velocity=0 time=25
note_on channel=1 note=58 velocity=0 time=0
note_on channel=1 note=60 velocity=0 time=0
note_on channel=1 note=43 velocity=0 time=20
note_on channel=1 note=55 velocity=0 time=0
note_on channel=1 note=48 velocity=85 time=15
note_on channel=1 note=58 velocity=82 time=60
note_on channel=1 note=64 velocity=78 time=0
note_on channel=1 note=60 velocity=82 time=0
note_on channel=1 note=60 velocity=0 time=25
note_on channel=1 note=64 velocity=0 time=0
note_on channel=1 note=58 velocity=0 time=0
note_on channel=1 note=48 velocity=0 time=5
note_on channel=1 note=55 velocity=88 time=30
note_on channel=1 note=43 velocity=84 time=0
note_on channel=1 note=60 velocity=82 time=60
note_on channel=1 note=64 velocity=78 time=0
note_on channel=1 note=58 velocity=81 time=0
note_on channel=1 note=58 velocity=0 time=25
note_on channel=1 note=60 velocity=0 time=0
note_on channel=1 note=64 velocity=0 time=0
note_on channel=1 note=43 velocity=0 time=5
note_on channel=1 note=55 velocity=0 time=0
note_on channel=1 note=48 velocity=98 time=30
note_on channel=1 note=60 velocity=98 time=0
note_on channel=1 note=58 velocity=95 time=60
note_on channel=1 note=46 velocity=95 time=0
note_on channel=1 note=60 velocity=0 time=15
note_on channel=1 note=48 velocity=0 time=0
note_on channel=1 note=46 velocity=0 time=42
note_on channel=1 note=58 velocity=0 time=1
note_on channel=1 note=57 velocity=104 time=2
note_on channel=1 note=45 velocity=104 time=0
note_on channel=1 note=57 velocity=0 time=56
note_on channel=1 note=57 velocity=95 time=4
note_on channel=1 note=60 velocity=95 time=0
note_on channel=1 note=65 velocity=95 time=0
note_on channel=1 note=65 velocity=0 time=25
note_on channel=1 note=60 velocity=0 time=0
note_on channel=1 note=57 velocity=0 time=0
note_on channel=1 note=45 velocity=0 time=20
note_on channel=1 note=47 velocity=107 time=15
note_on channel=1 note=59 velocity=107 time=0
note_on channel=1 note=47 velocity=0 time=116
note_on channel=1 note=59 velocity=0 time=1
note_on channel=1 note=60 velocity=90 time=3
note_on channel=1 note=48 velocity=90 time=0
note_on channel=1 note=60 velocity=0 time=105
note_on channel=1 note=48 velocity=0 time=9
note_on channel=1 note=36 velocity=87 time=6
note_on channel=1 note=48 velocity=87 time=0
note_on channel=1 note=48 velocity=0 time=107
note_on channel=1 note=36 velocity=0 time=0
note_on channel=1 note=53 velocity=97 time=13
note_on channel=1 note=41 velocity=97 time=0
note_on channel=1 note=41 velocity=0 time=57
note_on channel=1 note=53 velocity=0 time=1
note_on channel=1 note=48 velocity=89 time=2
note_on channel=1 note=60 velocity=89 time=0
note_on channel=1 note=48 velocity=0 time=41
note_on channel=1 note=60 velocity=0 time=2
note_on channel=1 note=57 velocity=94 time=17
note_on channel=1 note=45 velocity=94 time=0
note_on channel=1 note=45 velocity=0 time=58
note_on channel=1 note=57 velocity=0 time=1
note_on channel=1 note=43 velocity=87 time=1
note_on channel=1 note=55 velocity=87 time=0
note_on channel=1 note=55 velocity=0 time=56
note_on channel=1 note=43 velocity=0 time=0
note_on channel=1 note=42 velocity=89 time=4
note_on channel=1 note=54 velocity=89 time=0
note_on channel=1 note=54 velocity=0 time=57
note_on channel=1 note=42 velocity=0 time=0
note_on channel=1 note=60 velocity=81 time=3
note_on channel=1 note=62 velocity=81 time=0
note_on channel=1 note=57 velocity=81 time=0
note_on channel=1 note=57 velocity=0 time=25
note_on channel=1 note=62 velocity=0 time=0
note_on channel=1 note=60 velocity=0 time=0
note_on channel=1 note=38 velocity=83 time=35
note_on channel=1 note=38 velocity=0 time=56
note_on channel=1 note=57 velocity=75 time=4
note_on channel=1 note=60 velocity=73 time=0
note_on channel=1 note=62 velocity=69 time=0
note_on channel=1 note=62 velocity=0 time=26
note_on channel=1 note=57 velocity=0 time=0
note_on channel=1 note=60 velocity=0 time=1
note_on channel=1 note=45 velocity=77 time=33
note_on channel=1 note=45 velocity=0 time=58
note_on channel=1 note=54 velocity=70 time=2
note_on channel=1 note=60 velocity=71 time=0
note_on channel=1 note=62 velocity=72 time=0
note_on channel=1 note=62 velocity=0 time=26
note_on channel=1 note=60 velocity=0 time=0
note_on channel=1 note=54 velocity=0 time=0
note_on channel=1 note=38 velocity=78 time=34
note_on channel=1 note=38 velocity=0 time=59
note_on channel=1 note=62 velocity=74 time=1
note_on channel=1 note=57 velocity=73 time=0
note_on channel=1 note=60 velocity=74 time=0
note_on channel=1 note=62 velocity=0 time=25
note_on channel=1 note=60 velocity=0 time=1
note_on channel=1 note=57 velocity=0 time=1
note_on channel=1 note=43 velocity=76 time=33
note_on channel=1 note=43 velocity=0 time=59
note_on channel=1 note=55 velocity=69 time=1
note_on channel=1 note=62 velocity=71 time=0
note_on channel=1 note=58 velocity=69 time=0
note_on channel=1 note=55 velocity=0 time=26
note_on channel=1 note=58 velocity=0 time=1
note_on channel=1 note=62 velocity=0 time=0
note_on channel=1 note=38 velocity=76 time=33
note_on channel=1 note=38 velocity=0 time=57
note_on channel=1 note=55 velocity=72 time=3
note_on channel=1 note=62 velocity=74 time=0
note_on channel=1 note=58 velocity=72 time=0
note_on channel=1 note=58 velocity=0 time=25
note_on channel=1 note=55 velocity=0 time=1
note_on channel=1 note=62 velocity=0 time=1
note_on channel=1 note=43 velocity=85 time=33
note_on channel=1 note=43 velocity=0 time=58
note_on channel=1 note=62 velocity=81 time=2
note_on channel=1 note=55 velocity=81 time=0
note_on channel=1 note=58 velocity=81 time=0
note_on channel=1 note=55 velocity=0 time=25
note_on channel=1 note=62 velocity=0 time=0
note_on channel=1 note=58 velocity=0 time=2
note_on channel=1 note=38 velocity=90 time=33
note_on channel=1 note=50 velocity=90 time=0
note_on channel=1 note=38 velocity=0 time=56
note_on channel=1 note=50 velocity=0 time=1
note_on channel=1 note=49 velocity=87 time=3
note_on channel=1 note=37 velocity=87 time=0
note_on channel=1 note=37 velocity=0 time=48
note_on channel=1 note=49 velocity=0 time=1
note_on channel=1 note=48 velocity=93 time=11
note_on channel=1 note=36 velocity=93 time=0
note_on channel=1 note=36 velocity=0 time=56
note_on channel=1 note=48 velocity=0 time=0
note_on channel=1 note=60 velocity=87 time=4
note_on channel=1 note=64 velocity=87 time=0
note_on channel=1 note=58 velocity=87 time=0
note_on channel=1 note=64 velocity=0 time=25
note_on channel=1 note=58 velocity=0 time=2
note_on channel=1 note=60 velocity=0 time=0
note_on channel=1 note=52 velocity=92 time=33
note_on channel=1 note=40 velocity=92 time=0
note_on channel=1 note=52 velocity=0 time=56
note_on channel=1 note=40 velocity=0 time=1
note_on channel=1 note=60 velocity=84 time=3
note_on channel=1 note=58 velocity=84 time=0
note_on channel=1 note=64 velocity=84 time=0
note_on channel=1 note=64 velocity=0 time=25
note_on channel=1 note=58 velocity=0 time=0
note_on channel=1 note=60 velocity=0 time=2
note_on channel=1 note=43 velocity=86 time=33
note_on channel=1 note=55 velocity=86 time=0
note_on channel=1 note=55 velocity=0 time=57
note_on channel=1 note=43 velocity=0 time=2
note_on channel=1 note=60 velocity=82 time=1
note_on channel=1 note=58 velocity=82 time=0
note_on channel=1 note=64 velocity=82 time=0
note_on channel=1 note=58 velocity=0 time=25
note_on channel=1 note=64 velocity=0 time=1
note_on channel=1 note=60 velocity=0 time=1
note_on channel=1 note=48 velocity=88 time=33
note_on channel=1 note=48 velocity=0 time=57
note_on channel=1 note=64 velocity=83 time=3
note_on channel=1 note=60 velocity=83 time=0
note_on channel=1 note=58 velocity=83 time=0
note_on channel=1 note=64 velocity=0 time=25
note_on channel=1 note=60 velocity=0 time=1
note_on channel=1 note=58 velocity=0 time=1
note_on channel=1 note=53 velocity=88 time=33
note_on channel=1 note=53 velocity=0 time=59
note_on channel=1 note=65 velocity=81 time=1
note_on channel=1 note=60 velocity=81 time=0
note_on channel=1 note=57 velocity=81 time=0
note_on channel=1 note=60 velocity=0 time=25
note_on channel=1 note=65 velocity=0 time=0
note_on channel=1 note=57 velocity=0 time=1
note_on channel=1 note=48 velocity=85 time=34
note_on channel=1 note=48 velocity=0 time=56
note_on channel=1 note=57 velocity=79 time=4
note_on channel=1 note=65 velocity=79 time=0
note_on channel=1 note=60 velocity=79 time=0
note_on channel=1 note=60 velocity=0 time=25
note_on channel=1 note=65 velocity=0 time=1
note_on channel=1 note=57 velocity=0 time=1
note_on channel=1 note=41 velocity=86 time=33
note_on channel=1 note=41 velocity=0 time=58
note_on channel=1 note=57 velocity=80 time=2
note_on channel=1 note=65 velocity=80 time=0
note_on channel=1 note=60 velocity=80 time=0
note_on channel=1 note=60 velocity=0 time=25
note_on channel=1 note=65 velocity=0 time=0
note_on channel=1 note=57 velocity=0 time=0
note_on channel=1 note=57 velocity=83 time=35
note_on channel=1 note=45 velocity=83 time=0
note_on channel=1 note=45 velocity=0 time=58
note_on channel=1 note=57 velocity=0 time=0
note_on channel=1 note=55 velocity=78 time=2
note_on channel=1 note=43 velocity=78 time=0
note_on channel=1 note=43 velocity=0 time=47
note_on channel=1 note=55 velocity=0 time=0
note_on channel=1 note=54 velocity=75 time=13
note_on channel=1 note=42 velocity=81 time=0
note_on channel=1 note=54 velocity=0 time=56
note_on channel=1 note=42 velocity=0 time=1
note_on channel=1 note=57 velocity=72 time=3
note_on channel=1 note=60 velocity=74 time=0
note_on channel=1 note=62 velocity=72 time=0
note_on channel=1 note=62 velocity=0 time=26
note_on channel=1 note=60 velocity=0 time=2
note_on channel=1 note=57 velocity=0 time=0
note_on channel=1 note=38 velocity=77 time=32
note_on channel=1 note=38 velocity=0 time=57
note_on channel=1 note=57 velocity=74 time=3
note_on channel=1 note=60 velocity=72 time=0
note_on channel=1 note=62 velocity=72 time=0
note_on channel=1 note=62 velocity=0 time=26
note_on channel=1 note=60 velocity=0 time=1
note_on channel=1 note=57 velocity=0 time=0
note_on channel=1 note=45 velocity=79 time=33
note_on channel=1 note=45 velocity=0 time=59
note_on channel=1 note=54 velocity=72 time=1
note_on channel=1 note=62 velocity=72 time=0
note_on channel=1 note=60 velocity=75 time=0
note_on channel=1 note=60 velocity=0 time=26
note_on channel=1 note=54 velocity=0 time=0
note_on channel=1 note=62 velocity=0 time=1
note_on channel=1 note=38 velocity=78 time=33
note_on channel=1 note=38 velocity=0 time=57
note_on channel=1 note=62 velocity=72 time=3
note_on channel=1 note=60 velocity=70 time=0
note_on channel=1 note=57 velocity=73 time=0
note_on channel=1 note=57 velocity=0 time=26
note_on channel=1 note=62 velocity=0 time=1
note_on channel=1 note=60 velocity=0 time=1
note_on channel=1 note=43 velocity=81 time=32
note_on channel=1 note=43 velocity=0 time=57
note_on channel=1 note=55 velocity=71 time=3
note_on channel=1 note=58 velocity=69 time=0
note_on channel=1 note=62 velocity=72 time=0
note_on channel=1 note=55 velocity=0 time=26
note_on channel=1 note=58 velocity=0 time=1
note_on channel=1 note=62 velocity=0 time=1
note_on channel=1 note=38 velocity=77 time=32
note_on channel=1 note=38 velocity=0 time=58
note_on channel=1 note=55 velocity=74 time=2
note_on channel=1 note=58 velocity=70 time=0
note_on channel=1 note=62 velocity=72 time=0
note_on channel=1 note=58 velocity=0 time=26
note_on channel=1 note=55 velocity=0 time=0
note_on channel=1 note=62 velocity=0 time=2
note_on channel=1 note=43 velocity=86 time=32
note_on channel=1 note=43 velocity=0 time=56
note_on channel=1 note=55 velocity=82 time=4
note_on channel=1 note=62 velocity=82 time=0
note_on channel=1 note=58 velocity=82 time=0
note_on channel=1 note=58 velocity=0 time=26
note_on channel=1 note=62 velocity=0 time=0
note_on channel=1 note=55 velocity=0 time=1
note_on channel=1 note=46 velocity=87 time=33
note_on channel=1 note=46 velocity=0 time=58
note_on channel=1 note=61 velocity=83 time=2
note_on channel=1 note=55 velocity=83 time=0
note_on channel=1 note=58 velocity=83 time=0
note_on channel=1 note=58 velocity=0 time=26
note_on channel=1 note=61 velocity=0 time=0
note_on channel=1 note=55 velocity=0 time=1
note_on channel=1 note=48 velocity=87 time=33
note_on channel=1 note=48 velocity=0 time=56
note_on channel=1 note=57 velocity=82 time=4
note_on channel=1 note=60 velocity=82 time=0
note_on channel=1 note=60 velocity=0 time=26
note_on channel=1 note=57 velocity=0 time=2
note_on channel=1 note=47 velocity=86 time=32
note_on channel=1 note=47 velocity=0 time=57
note_on channel=1 note=56 velocity=81 time=3
note_on channel=1 note=65 velocity=81 time=0
note_on channel=1 note=62 velocity=81 time=0
note_on channel=1 note=62 velocity=0 time=26
note_on channel=1 note=56 velocity=0 time=0
note_on channel=1 note=65 velocity=0 time=2
note_on channel=1 note=48 velocity=84 time=32
note_on channel=1 note=48 velocity=0 time=57
note_on channel=1 note=57 velocity=80 time=3
note_on channel=1 note=60 velocity=80 time=0
note_on channel=1 note=65 velocity=80 time=0
note_on channel=1 note=65 velocity=0 time=26
note_on channel=1 note=60 velocity=0 time=0
note_on channel=1 note=57 velocity=0 time=1
note_on channel=1 note=38 velocity=91 time=33
note_on channel=1 note=50 velocity=91 time=0
note_on channel=1 note=38 velocity=0 time=56
note_on channel=1 note=50 velocity=0 time=2
note_on channel=1 note=42 velocity=88 time=2
note_on channel=1 note=54 velocity=88 time=0
note_on channel=1 note=42 velocity=0 time=50
note_on channel=1 note=54 velocity=0 time=1
note_on channel=1 note=43 velocity=93 time=9
note_on channel=1 note=55 velocity=89 time=60
note_on channel=1 note=43 velocity=0 time=9
note_on channel=1 note=55 velocity=0 time=48
note_on channel=1 note=48 velocity=92 time=3
note_on channel=1 note=60 velocity=89 time=60
note_on channel=1 note=48 velocity=0 time=9
note_on channel=1 note=60 velocity=0 time=48
note_on channel=1 note=41 velocity=93 time=3
note_on channel=1 note=53 velocity=93 time=0
note_on channel=1 note=53 velocity=0 time=57
note_on channel=1 note=41 velocity=0 time=0
note_on channel=1 note=48 velocity=86 time=3
note_on channel=1 note=60 velocity=86 time=0
note_on channel=1 note=60 velocity=0 time=50
note_on channel=1 note=48 velocity=0 time=0
note_on channel=1 note=45 velocity=87 time=10
note_on channel=1 note=57 velocity=87 time=0
note_on channel=1 note=45 velocity=0 time=57
note_on channel=1 note=57 velocity=0 time=1
note_on channel=1 note=43 velocity=82 time=2
note_on channel=1 note=55 velocity=82 time=0
note_on channel=1 note=55 velocity=0 time=50
note_on channel=1 note=43 velocity=0 time=0
note_on channel=1 note=42 velocity=89 time=10
note_on channel=1 note=54 velocity=89 time=0
note_on channel=1 note=54 velocity=0 time=57
note_on channel=1 note=42 velocity=0 time=0
note_on channel=1 note=60 velocity=81 time=3
note_on channel=1 note=62 velocity=81 time=0
note_on channel=1 note=57 velocity=81 time=0
note_on channel=1 note=57 velocity=0 time=25
note_on channel=1 note=62 velocity=0 time=0
note_on channel=1 note=60 velocity=0 time=0
note_on channel=1 note=38 velocity=83 time=35
note_on channel=1 note=38 velocity=0 time=56
note_on channel=1 note=57 velocity=75 time=4
note_on channel=1 note=60 velocity=73 time=0
note_on channel=1 note=62 velocity=69 time=0
note_on channel=1 note=62 velocity=0 time=26
note_on channel=1 note=57 velocity=0 time=0
note_on channel=1 note=60 velocity=0 time=1
note_on channel=1 note=45 velocity=77 time=33
note_on channel=1 note=45 velocity=0 time=58
note_on channel=1 note=54 velocity=70 time=2
note_on channel=1 note=60 velocity=71 time=0
note_on channel=1 note=62 velocity=72 time=0
note_on channel=1 note=62 velocity=0 time=26
note_on channel=1 note=60 velocity=0 time=0
note_on channel=1 note=54 velocity=0 time=0
note_on channel=1 note=38 velocity=78 time=34
note_on channel=1 note=38 velocity=0 time=59
note_on channel=1 note=62 velocity=74 time=1
note_on channel=1 note=57 velocity=73 time=0
note_on channel=1 note=60 velocity=74 time=0
note_on channel=1 note=62 velocity=0 time=25
note_on channel=1 note=60 velocity=0 time=1
note_on channel=1 note=57 velocity=0 time=1
note_on channel=1 note=43 velocity=76 time=33
note_on channel=1 note=43 velocity=0 time=59
note_on channel=1 note=55 velocity=69 time=1
note_on channel=1 note=62 velocity=71 time=0
note_on channel=1 note=58 velocity=69 time=0
note_on channel=1 note=55 velocity=0 time=26
note_on channel=1 note=58 velocity=0 time=1
note_on channel=1 note=62 velocity=0 time=0
note_on channel=1 note=38 velocity=76 time=33
note_on channel=1 note=38 velocity=0 time=57
note_on channel=1 note=55 velocity=72 time=3
note_on channel=1 note=62 velocity=74 time=0
note_on channel=1 note=58 velocity=72 time=0
note_on channel=1 note=58 velocity=0 time=25
note_on channel=1 note=55 velocity=0 time=1
note_on channel=1 note=62 velocity=0 time=1
note_on channel=1 note=43 velocity=85 time=33
note_on channel=1 note=43 velocity=0 time=58
note_on channel=1 note=62 velocity=81 time=2
note_on channel=1 note=55 velocity=81 time=0
note_on channel=1 note=58 velocity=81 time=0
note_on channel=1 note=55 velocity=0 time=25
note_on channel=1 note=62 velocity=0 time=0
note_on channel=1 note=58 velocity=0 time=2
note_on channel=1 note=38 velocity=90 time=33
note_on channel=1 note=50 velocity=90 time=0
note_on channel=1 note=38 velocity=0 time=56
note_on channel=1 note=50 velocity=0 time=1
note_on channel=1 note=49 velocity=87 time=3
note_on channel=1 note=37 velocity=87 time=0
note_on channel=1 note=37 velocity=0 time=48
note_on channel=1 note=49 velocity=0 time=1
note_on channel=1 note=48 velocity=93 time=11
note_on channel=1 note=36 velocity=93 time=0
note_on channel=1 note=36 velocity=0 time=56
note_on channel=1 note=48 velocity=0 time=0
note_on channel=1 note=60 velocity=87 time=4
note_on channel=1 note=64 velocity=87 time=0
note_on channel=1 note=58 velocity=87 time=0
note_on channel=1 note=64 velocity=0 time=25
note_on channel=1 note=58 velocity=0 time=2
note_on channel=1 note=60 velocity=0 time=0
note_on channel=1 note=52 velocity=92 time=33
note_on channel=1 note=40 velocity=92 time=0
note_on channel=1 note=52 velocity=0 time=56
note_on channel=1 note=40 velocity=0 time=1
note_on channel=1 note=60 velocity=84 time=3
note_on channel=1 note=58 velocity=84 time=0
note_on channel=1 note=64 velocity=84 time=0
note_on channel=1 note=64 velocity=0 time=25
note_on channel=1 note=58 velocity=0 time=0
note_on channel=1 note=60 velocity=0 time=2
note_on channel=1 note=43 velocity=86 time=33
note_on channel=1 note=55 velocity=86 time=0
note_on channel=1 note=55 velocity=0 time=57
note_on channel=1 note=43 velocity=0 time=2
note_on channel=1 note=60 velocity=82 time=1
note_on channel=1 note=58 velocity=82 time=0
note_on channel=1 note=64 velocity=82 time=0
note_on channel=1 note=58 velocity=0 time=25
note_on channel=1 note=64 velocity=0 time=1
note_on channel=1 note=60 velocity=0 time=1
note_on channel=1 note=48 velocity=88 time=33
note_on channel=1 note=48 velocity=0 time=57
note_on channel=1 note=64 velocity=83 time=3
note_on channel=1 note=60 velocity=83 time=0
note_on channel=1 note=58 velocity=83 time=0
note_on channel=1 note=64 velocity=0 time=25
note_on channel=1 note=60 velocity=0 time=1
note_on channel=1 note=58 velocity=0 time=1
note_on channel=1 note=53 velocity=88 time=33
note_on channel=1 note=53 velocity=0 time=59
note_on channel=1 note=65 velocity=81 time=1
note_on channel=1 note=60 velocity=81 time=0
note_on channel=1 note=57 velocity=81 time=0
note_on channel=1 note=60 velocity=0 time=25
note_on channel=1 note=65 velocity=0 time=0
note_on channel=1 note=57 velocity=0 time=1
note_on channel=1 note=48 velocity=85 time=34
note_on channel=1 note=48 velocity=0 time=56
note_on channel=1 note=57 velocity=79 time=4
note_on channel=1 note=65 velocity=79 time=0
note_on channel=1 note=60 velocity=79 time=0
note_on channel=1 note=60 velocity=0 time=25
note_on channel=1 note=65 velocity=0 time=1
note_on channel=1 note=57 velocity=0 time=1
note_on channel=1 note=41 velocity=86 time=33
note_on channel=1 note=41 velocity=0 time=58
note_on channel=1 note=57 velocity=80 time=2
note_on channel=1 note=65 velocity=80 time=0
note_on channel=1 note=60 velocity=80 time=0
note_on channel=1 note=60 velocity=0 time=25
note_on channel=1 note=65 velocity=0 time=0
note_on channel=1 note=57 velocity=0 time=0
note_on channel=1 note=57 velocity=91 time=35
note_on channel=1 note=45 velocity=91 time=0
note_on channel=1 note=45 velocity=0 time=58
note_on channel=1 note=57 velocity=0 time=0
note_on channel=1 note=55 velocity=86 time=2
note_on channel=1 note=43 velocity=86 time=0
note_on channel=1 note=43 velocity=0 time=47
note_on channel=1 note=55 velocity=0 time=0
note_on channel=1 note=54 velocity=89 time=13
note_on channel=1 note=42 velocity=89 time=0
note_on channel=1 note=54 velocity=0 time=56
note_on channel=1 note=42 velocity=0 time=1
note_on channel=1 note=57 velocity=81 time=3
note_on channel=1 note=60 velocity=81 time=0
note_on channel=1 note=62 velocity=81 time=0
note_on channel=1 note=62 velocity=0 time=26
note_on channel=1 note=60 velocity=0 time=2
note_on channel=1 note=57 velocity=0 time=0
note_on channel=1 note=38 velocity=82 time=32
note_on channel=1 note=38 velocity=0 time=57
note_on channel=1 note=57 velocity=77 time=3
note_on channel=1 note=60 velocity=77 time=0
note_on channel=1 note=62 velocity=77 time=0
note_on channel=1 note=62 velocity=0 time=26
note_on channel=1 note=60 velocity=0 time=1
note_on channel=1 note=57 velocity=0 time=0
note_on channel=1 note=45 velocity=79 time=33
note_on channel=1 note=45 velocity=0 time=59
note_on channel=1 note=54 velocity=72 time=1
note_on channel=1 note=62 velocity=72 time=0
note_on channel=1 note=60 velocity=75 time=0
note_on channel=1 note=60 velocity=0 time=26
note_on channel=1 note=54 velocity=0 time=0
note_on channel=1 note=62 velocity=0 time=1
note_on channel=1 note=38 velocity=78 time=33
note_on channel=1 note=38 velocity=0 time=57
note_on channel=1 note=62 velocity=72 time=3
note_on channel=1 note=60 velocity=70 time=0
note_on channel=1 note=57 velocity=73 time=0
note_on channel=1 note=57 velocity=0 time=26
note_on channel=1 note=62 velocity=0 time=1
note_on channel=1 note=60 velocity=0 time=1
note_on channel=1 note=43 velocity=81 time=32
note_on channel=1 note=43 velocity=0 time=57
note_on channel=1 note=55 velocity=71 time=3
note_on channel=1 note=58 velocity=69 time=0
note_on channel=1 note=62 velocity=72 time=0
note_on channel=1 note=55 velocity=0 time=26
note_on channel=1 note=58 velocity=0 time=1
note_on channel=1 note=62 velocity=0 time=1
note_on channel=1 note=38 velocity=77 time=32
note_on channel=1 note=38 velocity=0 time=58
note_on channel=1 note=55 velocity=74 time=2
note_on channel=1 note=58 velocity=70 time=0
note_on channel=1 note=62 velocity=72 time=0
note_on channel=1 note=58 velocity=0 time=26
note_on channel=1 note=55 velocity=0 time=0
note_on channel=1 note=62 velocity=0 time=2
note_on channel=1 note=43 velocity=86 time=32
note_on channel=1 note=43 velocity=0 time=56
note_on channel=1 note=55 velocity=79 time=4
note_on channel=1 note=62 velocity=79 time=0
note_on channel=1 note=58 velocity=79 time=0
note_on channel=1 note=58 velocity=0 time=26
note_on channel=1 note=62 velocity=0 time=0
note_on channel=1 note=55 velocity=0 time=1
note_on channel=1 note=46 velocity=89 time=33
note_on channel=1 note=46 velocity=0 time=58
note_on channel=1 note=61 velocity=84 time=2
note_on channel=1 note=55 velocity=84 time=0
note_on channel=1 note=58 velocity=84 time=0
note_on channel=1 note=58 velocity=0 time=26
note_on channel=1 note=61 velocity=0 time=0
note_on channel=1 note=55 velocity=0 time=1
note_on channel=1 note=48 velocity=91 time=33
note_on channel=1 note=48 velocity=0 time=56
note_on channel=1 note=57 velocity=84 time=4
note_on channel=1 note=60 velocity=84 time=0
note_on channel=1 note=60 velocity=0 time=26
note_on channel=1 note=57 velocity=0 time=2
note_on channel=1 note=47 velocity=88 time=32
note_on channel=1 note=47 velocity=0 time=57
note_on channel=1 note=56 velocity=82 time=3
note_on channel=1 note=65 velocity=82 time=0
note_on channel=1 note=62 velocity=82 time=0
note_on channel=1 note=62 velocity=0 time=26
note_on channel=1 note=56 velocity=0 time=0
note_on channel=1 note=65 velocity=0 time=2
note_on channel=1 note=48 velocity=85 time=32
note_on channel=1 note=48 velocity=0 time=57
note_on channel=1 note=57 velocity=79 time=3
note_on channel=1 note=60 velocity=79 time=0
note_on channel=1 note=65 velocity=79 time=0
note_on channel=1 note=65 velocity=0 time=26
note_on channel=1 note=60 velocity=0 time=0
note_on channel=1 note=57 velocity=0 time=1
note_on channel=1 note=38 velocity=83 time=33
note_on channel=1 note=50 velocity=83 time=0
note_on channel=1 note=38 velocity=0 time=56
note_on channel=1 note=50 velocity=0 time=2
note_on channel=1 note=42 velocity=80 time=2
note_on channel=1 note=54 velocity=80 time=0
note_on channel=1 note=42 velocity=0 time=50
note_on channel=1 note=54 velocity=0 time=1
note_on channel=1 note=43 velocity=86 time=9
note_on channel=1 note=55 velocity=76 time=60
note_on channel=1 note=43 velocity=0 time=9
note_on channel=1 note=55 velocity=0 time=48
note_on channel=1 note=48 velocity=83 time=3
note_on channel=1 note=60 velocity=81 time=60
note_on channel=1 note=48 velocity=0 time=9
note_on channel=1 note=60 velocity=0 time=48
note_on channel=1 note=41 velocity=89 time=3
note_on channel=1 note=53 velocity=88 time=0
note_on channel=1 note=41 velocity=0 time=58
note_on channel=1 note=53 velocity=0 time=1
note_on channel=1 note=36 velocity=87 time=1
note_on channel=1 note=48 velocity=87 time=0
note_on channel=1 note=36 velocity=0 time=46
note_on channel=1 note=48 velocity=0 time=1
note_on channel=1 note=38 velocity=92 time=13
note_on channel=1 note=50 velocity=92 time=0
note_on channel=1 note=50 velocity=0 time=51
note_on channel=1 note=38 velocity=0 time=1
note_on channel=1 note=40 velocity=85 time=8
note_on channel=1 note=52 velocity=85 time=0
note_on channel=1 note=52 velocity=0 time=46
note_on channel=1 note=40 velocity=0 time=3
note_on channel=1 note=53 velocity=96 time=11
note_on channel=1 note=41 velocity=96 time=0
note_on channel=1 note=42 velocity=84 time=120
note_on channel=1 note=54 velocity=84 time=0
note_on channel=1 note=41 velocity=0 time=30
note_on channel=1 note=53 velocity=0 time=0
note_on channel=1 note=42 velocity=0 time=86
note_on channel=1 note=54 velocity=0 time=1
note_on channel=1 note=43 velocity=84 time=3
note_on channel=1 note=55 velocity=88 time=0
note_on channel=1 note=64 velocity=85 time=60
note_on channel=1 note=58 velocity=85 time=0
note_on channel=1 note=60 velocity=85 time=0
note_on channel=1 note=60 velocity=0 time=25
note_on channel=1 note=64 velocity=0 time=0
note_on channel=1 note=58 velocity=0 time=0
note_on channel=1 note=55 velocity=0 time=5
note_on channel=1 note=43 velocity=0 time=15
note_on channel=1 note=48 velocity=100 time=15
note_on channel=1 note=58 velocity=85 time=60
note_on channel=1 note=60 velocity=85 time=0
note_on channel=1 note=64 velocity=85 time=0
note_on channel=1 note=64 velocity=0 time=24
note_on channel=1 note=60 velocity=0 time=1
note_on channel=1 note=58 velocity=0 time=0
note_on channel=1 note=48 velocity=0 time=20
note_on channel=1 note=41 velocity=95 time=15
note_on channel=1 note=53 velocity=95 time=0
note_on channel=1 note=54 velocity=86 time=120
note_on channel=1 note=42 velocity=85 time=0
note_on channel=1 note=53 velocity=0 time=15
note_on channel=1 note=41 velocity=0 time=0
note_on channel=1 note=54 velocity=0 time=99
note_on channel=1 note=42 velocity=0 time=1
note_on channel=1 note=43 velocity=90 time=5
note_on channel=1 note=55 velocity=90 time=0
note_on channel=1 note=60 velocity=83 time=60
note_on channel=1 note=58 velocity=83 time=0
note_on channel=1 note=64 velocity=83 time=0
note_on channel=1 note=64 velocity=0 time=25
note_on channel=1 note=60 velocity=0 time=0
note_on channel=1 note=58 velocity=0 time=0
note_on channel=1 note=55 velocity=0 time=20
note_on channel=1 note=43 velocity=0 time=0
note_on channel=1 note=48 velocity=96 time=15
note_on channel=1 note=58 velocity=86 time=60
note_on channel=1 note=64 velocity=86 time=0
note_on channel=1 note=60 velocity=86 time=0
note_on channel=1 note=60 velocity=0 time=25
note_on channel=1 note=64 velocity=0 time=0
note_on channel=1 note=58 velocity=0 time=0
note_on channel=1 note=48 velocity=0 time=20
note_on channel=1 note=55 velocity=89 time=15
note_on channel=1 note=43 velocity=90 time=0
note_on channel=1 note=58 velocity=80 time=60
note_on channel=1 note=60 velocity=81 time=0
note_on channel=1 note=64 velocity=83 time=0
note_on channel=1 note=64 velocity=0 time=25
note_on channel=1 note=58 velocity=0 time=0
note_on channel=1 note=60 velocity=0 time=0
note_on channel=1 note=43 velocity=0 time=5
note_on channel=1 note=55 velocity=0 time=0
note_on channel=1 note=48 velocity=93 time=30
note_on channel=1 note=60 velocity=93 time=0
note_on channel=1 note=46 velocity=87 time=60
note_on channel=1 note=58 velocity=87 time=0
note_on channel=1 note=60 velocity=0 time=15
note_on channel=1 note=48 velocity=0 time=0
note_on channel=1 note=58 velocity=0 time=42
note_on channel=1 note=46 velocity=0 time=2
note_on channel=1 note=45 velocity=83 time=1
note_on channel=1 note=57 velocity=86 time=0
note_on channel=1 note=57 velocity=0 time=56
note_on channel=1 note=57 velocity=77 time=4
note_on channel=1 note=65 velocity=81 time=0
note_on channel=1 note=60 velocity=77 time=0
note_on channel=1 note=60 velocity=0 time=24
note_on channel=1 note=65 velocity=0 time=1
note_on channel=1 note=57 velocity=0 time=0
note_on channel=1 note=45 velocity=0 time=5
note_on channel=1 note=42 velocity=81 time=30
note_on channel=1 note=54 velocity=87 time=0
note_on channel=1 note=57 velocity=81 time=60
note_on channel=1 note=63 velocity=79 time=0
note_on channel=1 note=60 velocity=81 time=0
note_on channel=1 note=60 velocity=0 time=24
note_on channel=1 note=63 velocity=0 time=0
note_on channel=1 note=57 velocity=0 time=1
note_on channel=1 note=54 velocity=0 time=5
note_on channel=1 note=42 velocity=0 time=0
note_on channel=1 note=55 velocity=89 time=30
note_on channel=1 note=43 velocity=89 time=0
note_on channel=1 note=55 velocity=0 time=57
note_on channel=1 note=60 velocity=78 time=3
note_on channel=1 note=55 velocity=81 time=0
note_on channel=1 note=64 velocity=81 time=0
note_on channel=1 note=43 velocity=0 time=15
note_on channel=1 note=64 velocity=0 time=9
note_on channel=1 note=55 velocity=0 time=1
note_on channel=1 note=60 velocity=0 time=0
note_on channel=1 note=43 velocity=89 time=35
note_on channel=1 note=65 velocity=81 time=60
note_on channel=1 note=59 velocity=83 time=0
note_on channel=1 note=55 velocity=81 time=0
note_on channel=1 note=55 velocity=0 time=25
note_on channel=1 note=59 velocity=0 time=0
note_on channel=1 note=65 velocity=0 time=0
note_on channel=1 note=43 velocity=0 time=5
note_on channel=1 note=64 velocity=95 time=30
note_on channel=1 note=60 velocity=95 time=0
note_on channel=1 note=64 velocity=0 time=58
note_on channel=1 note=60 velocity=0 time=1
note_on channel=1 note=48 velocity=80 time=1
note_on channel=1 note=36 velocity=81 time=0
note_on channel=1 note=36 velocity=0 time=43
note_on channel=1 note=48 velocity=0 time=2
note_on channel=1 note=50 velocity=90 time=15
note_on channel=1 note=38 velocity=90 time=0
note_on channel=1 note=38 velocity=0 time=56
note_on channel=1 note=50 velocity=0 time=1
note_on channel=1 note=52 velocity=80 time=3
note_on channel=1 note=40 velocity=78 time=0
note_on channel=1 note=40 velocity=0 time=43
note_on channel=1 note=52 velocity=0 time=0
note_on channel=1 note=41 velocity=86 time=17
note_on channel=1 note=53 velocity=85 time=0
note_on channel=1 note=42 velocity=83 time=120
note_on channel=1 note=54 velocity=86 time=0
note_on channel=1 note=53 velocity=0 time=30
note_on channel=1 note=41 velocity=0 time=0
note_on channel=1 note=42 velocity=0 time=84
note_on channel=1 note=54 velocity=0 time=1
note_on channel=1 note=55 velocity=90 time=5
note_on channel=1 note=43 velocity=89 time=0
note_on channel=1 note=64 velocity=80 time=60
note_on channel=1 note=60 velocity=78 time=0
note_on channel=1 note=58 velocity=81 time=0
note_on channel=1 note=58 velocity=0 time=24
note_on channel=1 note=60 velocity=0 time=0
note_on channel=1 note=64 velocity=0 time=1
note_on channel=1 note=43 velocity=0 time=20
note_on channel=1 note=55 velocity=0 time=0
note_on channel=1 note=48 velocity=83 time=15
note_on channel=1 note=64 velocity=77 time=60
note_on channel=1 note=60 velocity=81 time=0
note_on channel=1 note=58 velocity=81 time=0
note_on channel=1 note=58 velocity=0 time=25
note_on channel=1 note=60 velocity=0 time=0
note_on channel=1 note=64 velocity=0 time=0
note_on channel=1 note=48 velocity=0 time=20
note_on channel=1 note=41 velocity=90 time=15
note_on channel=1 note=53 velocity=84 time=0
note_on channel=1 note=54 velocity=87 time=120
note_on channel=1 note=42 velocity=81 time=0
note_on channel=1 note=53 velocity=0 time=15
note_on channel=1 note=41 velocity=0 time=15
note_on channel=1 note=54 velocity=0 time=84
note_on channel=1 note=42 velocity=0 time=0
note_on channel=1 note=55 velocity=89 time=6
note_on channel=1 note=43 velocity=85 time=0
note_on channel=1 note=58 velocity=83 time=60
note_on channel=1 note=60 velocity=77 time=0
note_on channel=1 note=64 velocity=80 time=0
note_on channel=1 note=64 velocity=0 time=25
note_on channel=1 note=58 velocity=0 time=0
note_on channel=1 note=60 velocity=0 time=0
note_on channel=1 note=43 velocity=0 time=20
note_on channel=1 note=55 velocity=0 time=0
note_on channel=1 note=48 velocity=85 time=15
note_on channel=1 note=58 velocity=82 time=60
note_on channel=1 note=64 velocity=78 time=0
note_on channel=1 note=60 velocity=82 time=0
note_on channel=1 note=60 velocity=0 time=25
note_on channel=1 note=64 velocity=0 time=0
note_on channel=1 note=58 velocity=0 time=0
note_on channel=1 note=48 velocity=0 time=5
note_on channel=1 note=55 velocity=88 time=30
note_on channel=1 note=43 velocity=84 time=0
note_on channel=1 note=60 velocity=82 time=60
note_on channel=1 note=64 velocity=78 time=0
note_on channel=1 note=58 velocity=81 time=0
note_on channel=1 note=58 velocity=0 time=25
note_on channel=1 note=60 velocity=0 time=0
note_on channel=1 note=64 velocity=0 time=0
note_on channel=1 note=43 velocity=0 time=5
note_on channel=1 note=55 velocity=0 time=0
note_on channel=1 note=48 velocity=98 time=30
note_on channel=1 note=60 velocity=98 time=0
note_on channel=1 note=58 velocity=95 time=60
note_on channel=1 note=46 velocity=95 time=0
note_on channel=1 note=60 velocity=0 time=15
note_on channel=1 note=48 velocity=0 time=0
note_on channel=1 note=46 velocity=0 time=42
note_on channel=1 note=58 velocity=0 time=1
note_on channel=1 note=57 velocity=98 time=2
note_on channel=1 note=45 velocity=98 time=0
note_on channel=1 note=57 velocity=0 time=56
note_on channel=1 note=57 velocity=92 time=4
note_on channel=1 note=60 velocity=92 time=0
note_on channel=1 note=65 velocity=92 time=0
note_on channel=1 note=65 velocity=0 time=25
note_on channel=1 note=60 velocity=0 time=0
note_on channel=1 note=57 velocity=0 time=0
note_on channel=1 note=45 velocity=0 time=20
note_on channel=1 note=47 velocity=104 time=15
note_on channel=1 note=59 velocity=104 time=0
note_on channel=1 note=47 velocity=0 time=116
note_on channel=1 note=59 velocity=0 time=1
note_on channel=1 note=60 velocity=90 time=3
note_on channel=1 note=48 velocity=90 time=0
note_on channel=1 note=60 velocity=0 time=105
note_on channel=1 note=48 velocity=0 time=9
note_on channel=1 note=36 velocity=87 time=6
note_on channel=1 note=48 velocity=87 time=0
note_on channel=1 note=48 velocity=0 time=107
note_on channel=1 note=36 velocity=0 time=0
note_on channel=1 note=41 velocity=93 time=13
note_on channel=1 note=53 velocity=93 time=0
note_on channel=1 note=41 velocity=0 time=115
note_on channel=1 note=53 velocity=0 time=2
note_on channel=1 note=29 velocity=102 time=3
note_on channel=1 note=41 velocity=102 time=0
note_on channel=1 note=41 velocity=0 time=49
note_on channel=1 note=29 velocity=0 time=0
note_on channel=1 note=46 velocity=75 time=71
note_on channel=1 note=46 velocity=0 time=59
note_on channel=1 note=62 velocity=70 time=1
note_on channel=1 note=53 velocity=69 time=0
note_on channel=1 note=58 velocity=67 time=0
note_on channel=1 note=58 velocity=0 time=25
note_on channel=1 note=62 velocity=0 time=0
note_on channel=1 note=53 velocity=0 time=1
note_on channel=1 note=41 velocity=73 time=34
note_on channel=1 note=41 velocity=0 time=57
note_on channel=1 note=58 velocity=71 time=3
note_on channel=1 note=53 velocity=69 time=0
note_on channel=1 note=62 velocity=70 time=0
note_on channel=1 note=62 velocity=0 time=25
note_on channel=1 note=53 velocity=0 time=0
note_on channel=1 note=58 velocity=0 time=1
note_on channel=1 note=46 velocity=77 time=34
note_on channel=1 note=46 velocity=0 time=57
note_on channel=1 note=58 velocity=70 time=3
note_on channel=1 note=53 velocity=72 time=0
note_on channel=1 note=62 velocity=73 time=0
note_on channel=1 note=53 velocity=0 time=26
note_on channel=1 note=58 velocity=0 time=0
note_on channel=1 note=62 velocity=0 time=1
note_on channel=1 note=41 velocity=78 time=33
note_on channel=1 note=41 velocity=0 time=57
note_on channel=1 note=62 velocity=67 time=3
note_on channel=1 note=58 velocity=70 time=0
note_on channel=1 note=53 velocity=72 time=0
note_on channel=1 note=53 velocity=0 time=26
note_on channel=1 note=58 velocity=0 time=0
note_on channel=1 note=62 velocity=0 time=0
note_on channel=1 note=39 velocity=75 time=34
note_on channel=1 note=51 velocity=77 time=0
note_on channel=1 note=51 velocity=0 time=57
note_on channel=1 note=39 velocity=0 time=2
note_on channel=1 note=58 velocity=67 time=1
note_on channel=1 note=55 velocity=70 time=0
note_on channel=1 note=63 velocity=69 time=0
note_on channel=1 note=63 velocity=0 time=25
note_on channel=1 note=55 velocity=0 time=0
note_on channel=1 note=58 velocity=0 time=1
note_on channel=1 note=51 velocity=74 time=34
note_on channel=1 note=39 velocity=74 time=0
note_on channel=1 note=39 velocity=0 time=56
note_on channel=1 note=51 velocity=0 time=0
note_on channel=1 note=58 velocity=69 time=4
note_on channel=1 note=54 velocity=71 time=0
note_on channel=1 note=63 velocity=66 time=0
note_on channel=1 note=63 velocity=0 time=25
note_on channel=1 note=58 velocity=0 time=1
note_on channel=1 note=54 velocity=0 time=1
note_on channel=1 note=46 velocity=76 time=33
note_on channel=1 note=58 velocity=79 time=0
note_on channel=1 note=58 velocity=0 time=56
note_on channel=1 note=46 velocity=0 time=1
note_on channel=1 note=58 velocity=69 time=3
note_on channel=1 note=62 velocity=70 time=0
note_on channel=1 note=53 velocity=71 time=0
note_on channel=1 note=58 velocity=0 time=25
note_on channel=1 note=53 velocity=0 time=1
note_on channel=1 note=62 velocity=0 time=0
note_on channel=1 note=41 velocity=76 time=34
note_on channel=1 note=41 velocity=0 time=56
note_on channel=1 note=58 velocity=69 time=4
note_on channel=1 note=62 velocity=69 time=0
note_on channel=1 note=53 velocity=66 time=0
note_on channel=1 note=58 velocity=0 time=25
note_on channel=1 note=53 velocity=0 time=2
note_on channel=1 note=62 velocity=0 time=0
note_on channel=1 note=46 velocity=78 time=33
note_on channel=1 note=46 velocity=0 time=57
note_on channel=1 note=58 velocity=69 time=3
note_on channel=1 note=53 velocity=69 time=0
note_on channel=1 note=62 velocity=69 time=0
note_on channel=1 note=58 velocity=0 time=25
note_on channel=1 note=62 velocity=0 time=2
note_on channel=1 note=53 velocity=0 time=0
note_on channel=1 note=41 velocity=74 time=33
note_on channel=1 note=41 velocity=0 time=58
note_on channel=1 note=62 velocity=71 time=2
note_on channel=1 note=58 velocity=70 time=0
note_on channel=1 note=53 velocity=68 time=0
note_on channel=1 note=62 velocity=0 time=25
note_on channel=1 note=53 velocity=0 time=2
note_on channel=1 note=58 velocity=0 time=0
note_on channel=1 note=42 velocity=73 time=33
note_on channel=1 note=42 velocity=0 time=56
note_on channel=1 note=57 velocity=68 time=4
note_on channel=1 note=60 velocity=68 time=0
note_on channel=1 note=62 velocity=68 time=0
note_on channel=1 note=60 velocity=0 time=25
note_on channel=1 note=57 velocity=0 time=0
note_on channel=1 note=62 velocity=0 time=2
note_on channel=1 note=43 velocity=74 time=33
note_on channel=1 note=43 velocity=0 time=58
note_on channel=1 note=55 velocity=66 time=2
note_on channel=1 note=62 velocity=68 time=0
note_on channel=1 note=58 velocity=71 time=0
note_on channel=1 note=58 velocity=0 time=25
note_on channel=1 note=55 velocity=0 time=1
note_on channel=1 note=62 velocity=0 time=1
note_on channel=1 note=52 velocity=77 time=33
note_on channel=1 note=52 velocity=0 time=56
note_on channel=1 note=58 velocity=66 time=4
note_on channel=1 note=64 velocity=69 time=0
note_on channel=1 note=60 velocity=72 time=0
note_on channel=1 note=64 velocity=0 time=25
note_on channel=1 note=58 velocity=0 time=0
note_on channel=1 note=60 velocity=0 time=2
note_on channel=1 note=48 velocity=78 time=33
note_on channel=1 note=48 velocity=0 time=56
note_on channel=1 note=64 velocity=72 time=4
note_on channel=1 note=58 velocity=72 time=0
note_on channel=1 note=60 velocity=71 time=0
note_on channel=1 note=58 velocity=0 time=25
note_on channel=1 note=64 velocity=0 time=0
note_on channel=1 note=60 velocity=0 time=1
note_on channel=1 note=53 velocity=78 time=34
note_on channel=1 note=60 velocity=78 time=0
note_on channel=1 note=63 velocity=73 time=0
note_on channel=1 note=57 velocity=77 time=0
note_on channel=1 note=60 velocity=0 time=50
note_on channel=1 note=63 velocity=0 time=1
note_on channel=1 note=53 velocity=0 time=1
note_on channel=1 note=57 velocity=0 time=0
note_on channel=1 note=41 velocity=76 time=8
note_on channel=1 note=53 velocity=76 time=0
note_on channel=1 note=53 velocity=0 time=52
note_on channel=1 note=41 velocity=0 time=0
note_on channel=1 note=43 velocity=82 time=8
note_on channel=1 note=55 velocity=82 time=0
note_on channel=1 note=55 velocity=0 time=56
note_on channel=1 note=43 velocity=0 time=1
note_on channel=1 note=57 velocity=78 time=3
note_on channel=1 note=45 velocity=78 time=0
note_on channel=1 note=45 velocity=0 time=51
note_on channel=1 note=57 velocity=0 time=2
note_on channel=1 note=46 velocity=77 time=7
note_on channel=1 note=58 velocity=73 time=0
note_on channel=1 note=58 velocity=0 time=54
note_on channel=1 note=46 velocity=0 time=2
note_on channel=1 note=53 velocity=69 time=4
note_on channel=1 note=58 velocity=66 time=0
note_on channel=1 note=62 velocity=70 time=0
note_on channel=1 note=62 velocity=0 time=25
note_on channel=1 note=58 velocity=0 time=0
note_on channel=1 note=53 velocity=0 time=2
note_on channel=1 note=41 velocity=75 time=33
note_on channel=1 note=41 velocity=0 time=56
note_on channel=1 note=62 velocity=65 time=4
note_on channel=1 note=53 velocity=70 time=0
note_on channel=1 note=58 velocity=70 time=0
note_on channel=1 note=62 velocity=0 time=25
note_on channel=1 note=58 velocity=0 time=1
note_on channel=1 note=53 velocity=0 time=1
note_on channel=1 note=46 velocity=72 time=33
note_on channel=1 note=46 velocity=0 time=58
note_on channel=1 note=58 velocity=68 time=2
note_on channel=1 note=62 velocity=67 time=0
note_on channel=1 note=53 velocity=68 time=0
note_on channel=1 note=53 velocity=0 time=25
note_on channel=1 note=62 velocity=0 time=0
note_on channel=1 note=58 velocity=0 time=1
note_on channel=1 note=41 velocity=73 time=34
note_on channel=1 note=41 velocity=0 time=58
note_on channel=1 note=62 velocity=66 time=2
note_on channel=1 note=58 velocity=69 time=0
note_on channel=1 note=53 velocity=71 time=0
note_on channel=1 note=62 velocity=0 time=25
note_on channel=1 note=53 velocity=0 time=1
note_on channel=1 note=58 velocity=0 time=0
note_on channel=1 note=39 velocity=77 time=34
note_on channel=1 note=51 velocity=71 time=0
note_on channel=1 note=51 velocity=0 time=56
note_on channel=1 note=39 velocity=0 time=2
note_on channel=1 note=55 velocity=64 time=2
note_on channel=1 note=63 velocity=68 time=0
note_on channel=1 note=58 velocity=65 time=0
note_on channel=1 note=63 velocity=0 time=25
note_on channel=1 note=58 velocity=0 time=1
note_on channel=1 note=55 velocity=0 time=1
note_on channel=1 note=51 velocity=68 time=33
note_on channel=1 note=39 velocity=73 time=0
note_on channel=1 note=39 velocity=0 time=57
note_on channel=1 note=51 velocity=0 time=1
note_on channel=1 note=63 velocity=69 time=2
note_on channel=1 note=54 velocity=66 time=0
note_on channel=1 note=58 velocity=67 time=0
note_on channel=1 note=63 velocity=0 time=25
note_on channel=1 note=58 velocity=0 time=1
note_on channel=1 note=54 velocity=0 time=0
note_on channel=1 note=46 velocity=76 time=34
note_on channel=1 note=46 velocity=0 time=57
note_on channel=1 note=58 velocity=67 time=3
note_on channel=1 note=62 velocity=66 time=0
note_on channel=1 note=53 velocity=66 time=0
note_on channel=1 note=53 velocity=0 time=25
note_on channel=1 note=62 velocity=0 time=1
note_on channel=1 note=58 velocity=0 time=1
note_on channel=1 note=41 velocity=74 time=33
note_on channel=1 note=41 velocity=0 time=56
note_on channel=1 note=62 velocity=71 time=4
note_on channel=1 note=53 velocity=64 time=0
note_on channel=1 note=58 velocity=66 time=0
note_on channel=1 note=53 velocity=0 time=25
note_on channel=1 note=62 velocity=0 time=1
note_on channel=1 note=58 velocity=0 time=1
note_on channel=1 note=51 velocity=76 time=33
note_on channel=1 note=39 velocity=72 time=0
note_on channel=1 note=39 velocity=0 time=58
note_on channel=1 note=51 velocity=0 time=0
note_on channel=1 note=63 velocity=64 time=2
note_on channel=1 note=55 velocity=66 time=0
note_on channel=1 note=58 velocity=64 time=0
note_on channel=1 note=58 velocity=0 time=25
note_on channel=1 note=55 velocity=0 time=1
note_on channel=1 note=63 velocity=0 time=1
note_on channel=1 note=42 velocity=69 time=33
note_on channel=1 note=54 velocity=72 time=0
note_on channel=1 note=42 velocity=0 time=56
note_on channel=1 note=54 velocity=0 time=1
note_on channel=1 note=63 velocity=66 time=3
note_on channel=1 note=54 velocity=64 time=0
note_on channel=1 note=58 velocity=66 time=0
note_on channel=1 note=58 velocity=0 time=25
note_on channel=1 note=63 velocity=0 time=0
note_on channel=1 note=54 velocity=0 time=1
note_on channel=1 note=41 velocity=75 time=34
note_on channel=1 note=53 velocity=74 time=0
note_on channel=1 note=53 velocity=0 time=56
note_on channel=1 note=41 velocity=0 time=2
note_on channel=1 note=58 velocity=67 time=2
note_on channel=1 note=62 velocity=66 time=0
note_on channel=1 note=53 velocity=69 time=0
note_on channel=1 note=62 velocity=0 time=26
note_on channel=1 note=53 velocity=0 time=1
note_on channel=1 note=58 velocity=0 time=0
note_on channel=1 note=41 velocity=76 time=33
note_on channel=1 note=41 velocity=0 time=58
note_on channel=1 note=62 velocity=67 time=2
note_on channel=1 note=58 velocity=64 time=0
note_on channel=1 note=53 velocity=67 time=0
note_on channel=1 note=53 velocity=0 time=25
note_on channel=1 note=58 velocity=0 time=0
note_on channel=1 note=62 velocity=0 time=1
note_on channel=1 note=48 velocity=72 time=34
note_on channel=1 note=48 velocity=0 time=56
note_on channel=1 note=60 velocity=69 time=4
note_on channel=1 note=58 velocity=69 time=0
note_on channel=1 note=58 velocity=0 time=27
note_on channel=1 note=60 velocity=0 time=0
note_on channel=1 note=53 velocity=74 time=33
note_on channel=1 note=53 velocity=0 time=57
note_on channel=1 note=60 velocity=76 time=3
note_on channel=1 note=57 velocity=76 time=0
note_on channel=1 note=60 velocity=0 time=25
note_on channel=1 note=57 velocity=0 time=2
note_on channel=1 note=58 velocity=80 time=33
note_on channel=1 note=46 velocity=80 time=0
note_on channel=1 note=46 velocity=0 time=57
note_on channel=1 note=58 velocity=0 time=1
note_on channel=1 note=45 velocity=74 time=2
note_on channel=1 note=57 velocity=74 time=0
note_on channel=1 note=57 velocity=0 time=51
note_on channel=1 note=45 velocity=0 time=2
note_on channel=1 note=55 velocity=72 time=7
note_on channel=1 note=43 velocity=75 time=0
note_on channel=1 note=55 velocity=0 time=57
note_on channel=1 note=43 velocity=0 time=2
note_on channel=1 note=41 velocity=73 time=1
note_on channel=1 note=53 velocity=73 time=0
note_on channel=1 note=53 velocity=0 time=50
note_on channel=1 note=41 velocity=0 time=2
note_on channel=1 note=46 velocity=78 time=8
note_on channel=1 note=46 velocity=0 time=59
note_on channel=1 note=62 velocity=70 time=1
note_on channel=1 note=53 velocity=69 time=0
note_on channel=1 note=58 velocity=67 time=0
note_on channel=1 note=58 velocity=0 time=25
note_on channel=1 note=62 velocity=0 time=0
note_on channel=1 note=53 velocity=0 time=1
note_on channel=1 note=41 velocity=73 time=34
note_on channel=1 note=41 velocity=0 time=57
note_on channel=1 note=58 velocity=71 time=3
note_on channel=1 note=53 velocity=69 time=0
note_on channel=1 note=62 velocity=70 time=0
note_on channel=1 note=62 velocity=0 time=25
note_on channel=1 note=53 velocity=0 time=0
note_on channel=1 note=58 velocity=0 time=1
note_on channel=1 note=46 velocity=77 time=34
note_on channel=1 note=46 velocity=0 time=57
note_on channel=1 note=58 velocity=70 time=3
note_on channel=1 note=53 velocity=72 time=0
note_on channel=1 note=62 velocity=73 time=0
note_on channel=1 note=53 velocity=0 time=26
note_on channel=1 note=58 velocity=0 time=0
note_on channel=1 note=62 velocity=0 time=1
note_on channel=1 note=41 velocity=78 time=33
note_on channel=1 note=41 velocity=0 time=57
note_on channel=1 note=62 velocity=67 time=3
note_on channel=1 note=58 velocity=70 time=0
note_on channel=1 note=53 velocity=72 time=0
note_on channel=1 note=53 velocity=0 time=26
note_on channel=1 note=58 velocity=0 time=0
note_on channel=1 note=62 velocity=0 time=0
note_on channel=1 note=39 velocity=75 time=34
note_on channel=1 note=51 velocity=77 time=0
note_on channel=1 note=51 velocity=0 time=57
note_on channel=1 note=39 velocity=0 time=2
note_on channel=1 note=58 velocity=67 time=1
note_on channel=1 note=55 velocity=70 time=0
note_on channel=1 note=63 velocity=69 time=0
note_on channel=1 note=63 velocity=0 time=25
note_on channel=1 note=55 velocity=0 time=0
note_on channel=1 note=58 velocity=0 time=1
note_on channel=1 note=51 velocity=72 time=34
note_on channel=1 note=39 velocity=70 time=0
note_on channel=1 note=39 velocity=0 time=56
note_on channel=1 note=51 velocity=0 time=0
note_on channel=1 note=58 velocity=69 time=4
note_on channel=1 note=54 velocity=71 time=0
note_on channel=1 note=63 velocity=66 time=0
note_on channel=1 note=63 velocity=0 time=25
note_on channel=1 note=58 velocity=0 time=1
note_on channel=1 note=54 velocity=0 time=1
note_on channel=1 note=46 velocity=76 time=33
note_on channel=1 note=58 velocity=79 time=0
note_on channel=1 note=58 velocity=0 time=56
note_on channel=1 note=46 velocity=0 time=1
note_on channel=1 note=58 velocity=69 time=3
note_on channel=1 note=62 velocity=70 time=0
note_on channel=1 note=53 velocity=71 time=0
note_on channel=1 note=58 velocity=0 time=25
note_on channel=1 note=53 velocity=0 time=1
note_on channel=1 note=62 velocity=0 time=0
note_on channel=1 note=41 velocity=76 time=34
note_on channel=1 note=41 velocity=0 time=56
note_on channel=1 note=58 velocity=69 time=4
note_on channel=1 note=62 velocity=69 time=0
note_on channel=1 note=53 velocity=66 time=0
note_on channel=1 note=58 velocity=0 time=25
note_on channel=1 note=53 velocity=0 time=2
note_on channel=1 note=62 velocity=0 time=0
note_on channel=1 note=46 velocity=78 time=33
note_on channel=1 note=46 velocity=0 time=57
note_on channel=1 note=58 velocity=69 time=3
note_on channel=1 note=53 velocity=69 time=0
note_on channel=1 note=62 velocity=69 time=0
note_on channel=1 note=58 velocity=0 time=25
note_on channel=1 note=62 velocity=0 time=2
note_on channel=1 note=53 velocity=0 time=0
note_on channel=1 note=41 velocity=74 time=33
note_on channel=1 note=41 velocity=0 time=58
note_on channel=1 note=62 velocity=71 time=2
note_on channel=1 note=58 velocity=70 time=0
note_on channel=1 note=53 velocity=68 time=0
note_on channel=1 note=62 velocity=0 time=25
note_on channel=1 note=53 velocity=0 time=2
note_on channel=1 note=58 velocity=0 time=0
note_on channel=1 note=42 velocity=73 time=33
note_on channel=1 note=42 velocity=0 time=56
note_on channel=1 note=57 velocity=68 time=4
note_on channel=1 note=60 velocity=68 time=0
note_on channel=1 note=62 velocity=68 time=0
note_on channel=1 note=60 velocity=0 time=25
note_on channel=1 note=57 velocity=0 time=0
note_on channel=1 note=62 velocity=0 time=2
note_on channel=1 note=43 velocity=74 time=33
note_on channel=1 note=43 velocity=0 time=58
note_on channel=1 note=55 velocity=66 time=2
note_on channel=1 note=62 velocity=68 time=0
note_on channel=1 note=58 velocity=71 time=0
note_on channel=1 note=58 velocity=0 time=25
note_on channel=1 note=55 velocity=0 time=1
note_on channel=1 note=62 velocity=0 time=1
note_on channel=1 note=52 velocity=77 time=33
note_on channel=1 note=52 velocity=0 time=56
note_on channel=1 note=58 velocity=66 time=4
note_on channel=1 note=64 velocity=69 time=0
note_on channel=1 note=60 velocity=72 time=0
note_on channel=1 note=64 velocity=0 time=25
note_on channel=1 note=58 velocity=0 time=0
note_on channel=1 note=60 velocity=0 time=2
note_on channel=1 note=48 velocity=78 time=33
note_on channel=1 note=48 velocity=0 time=56
note_on channel=1 note=64 velocity=72 time=4
note_on channel=1 note=58 velocity=72 time=0
note_on channel=1 note=60 velocity=71 time=0
note_on channel=1 note=58 velocity=0 time=25
note_on channel=1 note=64 velocity=0 time=0
note_on channel=1 note=60 velocity=0 time=1
note_on channel=1 note=53 velocity=78 time=34
note_on channel=1 note=60 velocity=78 time=0
note_on channel=1 note=63 velocity=73 time=0
note_on channel=1 note=57 velocity=77 time=0
note_on channel=1 note=60 velocity=0 time=50
note_on channel=1 note=63 velocity=0 time=1
note_on channel=1 note=53 velocity=0 time=1
note_on channel=1 note=57 velocity=0 time=0
note_on channel=1 note=41 velocity=76 time=8
note_on channel=1 note=53 velocity=76 time=0
note_on channel=1 note=53 velocity=0 time=52
note_on channel=1 note=41 velocity=0 time=0
note_on channel=1 note=43 velocity=82 time=8
note_on channel=1 note=55 velocity=82 time=0
note_on channel=1 note=55 velocity=0 time=56
note_on channel=1 note=43 velocity=0 time=1
note_on channel=1 note=57 velocity=78 time=3
note_on channel=1 note=45 velocity=78 time=0
note_on channel=1 note=45 velocity=0 time=51
note_on channel=1 note=57 velocity=0 time=2
note_on channel=1 note=46 velocity=77 time=7
note_on channel=1 note=58 velocity=73 time=0
note_on channel=1 note=58 velocity=0 time=54
note_on channel=1 note=46 velocity=0 time=2
note_on channel=1 note=53 velocity=69 time=4
note_on channel=1 note=58 velocity=66 time=0
note_on channel=1 note=62 velocity=70 time=0
note_on channel=1 note=62 velocity=0 time=25
note_on channel=1 note=58 velocity=0 time=0
note_on channel=1 note=53 velocity=0 time=2
note_on channel=1 note=41 velocity=75 time=33
note_on channel=1 note=41 velocity=0 time=56
note_on channel=1 note=62 velocity=65 time=4
note_on channel=1 note=53 velocity=70 time=0
note_on channel=1 note=58 velocity=70 time=0
note_on channel=1 note=62 velocity=0 time=25
note_on channel=1 note=58 velocity=0 time=1
note_on channel=1 note=53 velocity=0 time=1
note_on channel=1 note=46 velocity=72 time=33
note_on channel=1 note=46 velocity=0 time=58
note_on channel=1 note=58 velocity=68 time=2
note_on channel=1 note=62 velocity=67 time=0
note_on channel=1 note=53 velocity=68 time=0
note_on channel=1 note=53 velocity=0 time=25
note_on channel=1 note=62 velocity=0 time=0
note_on channel=1 note=58 velocity=0 time=1
note_on channel=1 note=41 velocity=73 time=34
note_on channel=1 note=41 velocity=0 time=58
note_on channel=1 note=62 velocity=66 time=2
note_on channel=1 note=58 velocity=69 time=0
note_on channel=1 note=53 velocity=71 time=0
note_on channel=1 note=62 velocity=0 time=25
note_on channel=1 note=53 velocity=0 time=1
note_on channel=1 note=58 velocity=0 time=0
note_on channel=1 note=39 velocity=77 time=34
note_on channel=1 note=51 velocity=71 time=0
note_on channel=1 note=51 velocity=0 time=56
note_on channel=1 note=39 velocity=0 time=2
note_on channel=1 note=55 velocity=64 time=2
note_on channel=1 note=63 velocity=68 time=0
note_on channel=1 note=58 velocity=65 time=0
note_on channel=1 note=63 velocity=0 time=25
note_on channel=1 note=58 velocity=0 time=1
note_on channel=1 note=55 velocity=0 time=1
note_on channel=1 note=51 velocity=68 time=33
note_on channel=1 note=39 velocity=73 time=0
note_on channel=1 note=39 velocity=0 time=57
note_on channel=1 note=51 velocity=0 time=1
note_on channel=1 note=63 velocity=69 time=2
note_on channel=1 note=54 velocity=66 time=0
note_on channel=1 note=58 velocity=67 time=0
note_on channel=1 note=63 velocity=0 time=25
note_on channel=1 note=58 velocity=0 time=1
note_on channel=1 note=54 velocity=0 time=0
note_on channel=1 note=46 velocity=76 time=34
note_on channel=1 note=46 velocity=0 time=57
note_on channel=1 note=58 velocity=67 time=3
note_on channel=1 note=62 velocity=66 time=0
note_on channel=1 note=53 velocity=66 time=0
note_on channel=1 note=53 velocity=0 time=25
note_on channel=1 note=62 velocity=0 time=1
note_on channel=1 note=58 velocity=0 time=1
note_on channel=1 note=41 velocity=74 time=33
note_on channel=1 note=41 velocity=0 time=56
note_on channel=1 note=62 velocity=71 time=4
note_on channel=1 note=53 velocity=64 time=0
note_on channel=1 note=58 velocity=66 time=0
note_on channel=1 note=53 velocity=0 time=25
note_on channel=1 note=62 velocity=0 time=1
note_on channel=1 note=58 velocity=0 time=1
note_on channel=1 note=51 velocity=76 time=33
note_on channel=1 note=39 velocity=72 time=0
note_on channel=1 note=39 velocity=0 time=58
note_on channel=1 note=51 velocity=0 time=0
note_on channel=1 note=63 velocity=64 time=2
note_on channel=1 note=55 velocity=66 time=0
note_on channel=1 note=58 velocity=64 time=0
note_on channel=1 note=58 velocity=0 time=25
note_on channel=1 note=55 velocity=0 time=1
note_on channel=1 note=63 velocity=0 time=1
note_on channel=1 note=42 velocity=69 time=33
note_on channel=1 note=54 velocity=72 time=0
note_on channel=1 note=42 velocity=0 time=56
note_on channel=1 note=54 velocity=0 time=1
note_on channel=1 note=63 velocity=66 time=3
note_on channel=1 note=54 velocity=64 time=0
note_on channel=1 note=58 velocity=66 time=0
note_on channel=1 note=58 velocity=0 time=25
note_on channel=1 note=63 velocity=0 time=0
note_on channel=1 note=54 velocity=0 time=1
note_on channel=1 note=41 velocity=75 time=34
note_on channel=1 note=53 velocity=74 time=0
note_on channel=1 note=53 velocity=0 time=56
note_on channel=1 note=41 velocity=0 time=2
note_on channel=1 note=58 velocity=67 time=2
note_on channel=1 note=62 velocity=66 time=0
note_on channel=1 note=53 velocity=69 time=0
note_on channel=1 note=62 velocity=0 time=26
note_on channel=1 note=53 velocity=0 time=1
note_on channel=1 note=58 velocity=0 time=0
note_on channel=1 note=41 velocity=76 time=33
note_on channel=1 note=41 velocity=0 time=58
note_on channel=1 note=62 velocity=67 time=2
note_on channel=1 note=58 velocity=64 time=0
note_on channel=1 note=53 velocity=67 time=0
note_on channel=1 note=53 velocity=0 time=25
note_on channel=1 note=58 velocity=0 time=0
note_on channel=1 note=62 velocity=0 time=1
note_on channel=1 note=48 velocity=72 time=34
note_on channel=1 note=48 velocity=0 time=56
note_on channel=1 note=60 velocity=69 time=4
note_on channel=1 note=58 velocity=69 time=0
note_on channel=1 note=58 velocity=0 time=27
note_on channel=1 note=60 velocity=0 time=0
note_on channel=1 note=53 velocity=81 time=33
note_on channel=1 note=53 velocity=0 time=57
note_on channel=1 note=60 velocity=80 time=3
note_on channel=1 note=57 velocity=80 time=0
note_on channel=1 note=60 velocity=0 time=25
note_on channel=1 note=57 velocity=0 time=2
note_on channel=1 note=46 velocity=86 time=33
note_on channel=1 note=58 velocity=84 time=0
note_on channel=1 note=58 velocity=0 time=56
note_on channel=1 note=46 velocity=0 time=0
note_on channel=1 note=62 velocity=86 time=64
note_on channel=1 note=50 velocity=86 time=0
note_on channel=1 note=50 velocity=0 time=57
note_on channel=1 note=62 velocity=0 time=2
note_on channel=1 note=49 velocity=81 time=1
note_on channel=1 note=61 velocity=75 time=0
note_on channel=1 note=61 velocity=0 time=56
note_on channel=1 note=49 velocity=0 time=3
note_on channel=1 note=48 velocity=87 time=1
note_on channel=1 note=60 velocity=89 time=0
note_on channel=1 note=48 velocity=0 time=57
note_on channel=1 note=60 velocity=0 time=1
note_on channel=1 note=53 velocity=78 time=2
note_on channel=1 note=63 velocity=74 time=0
note_on channel=1 note=57 velocity=79 time=0
note_on channel=1 note=57 velocity=0 time=26
note_on channel=1 note=63 velocity=0 time=0
note_on channel=1 note=53 velocity=0 time=0
note_on channel=1 note=41 velocity=81 time=34
note_on channel=1 note=41 velocity=0 time=59
note_on channel=1 note=60 velocity=80 time=1
note_on channel=1 note=63 velocity=77 time=0
note_on channel=1 note=53 velocity=74 time=0
note_on channel=1 note=53 velocity=0 time=26
note_on channel=1 note=63 velocity=0 time=1
note_on channel=1 note=60 velocity=0 time=0
note_on channel=1 note=45 velocity=84 time=33
note_on channel=1 note=45 velocity=0 time=57
note_on channel=1 note=63 velocity=75 time=3
note_on channel=1 note=60 velocity=75 time=0
note_on channel=1 note=53 velocity=78 time=0
note_on channel=1 note=53 velocity=0 time=26
note_on channel=1 note=60 velocity=0 time=0
note_on channel=1 note=63 velocity=0 time=1
note_on channel=1 note=41 velocity=81 time=33
note_on channel=1 note=41 velocity=0 time=57
note_on channel=1 note=53 velocity=78 time=3
note_on channel=1 note=57 velocity=78 time=0
note_on channel=1 note=63 velocity=78 time=0
note_on channel=1 note=63 velocity=0 time=26
note_on channel=1 note=57 velocity=0 time=0
note_on channel=1 note=53 velocity=0 time=0
note_on channel=1 note=46 velocity=89 time=34
note_on channel=1 note=46 velocity=0 time=58
note_on channel=1 note=62 velocity=83 time=2
note_on channel=1 note=53 velocity=83 time=0
note_on channel=1 note=58 velocity=83 time=0
note_on channel=1 note=58 velocity=0 time=25
note_on channel=1 note=53 velocity=0 time=0
note_on channel=1 note=62 velocity=0 time=1
note_on channel=1 note=41 velocity=86 time=34
note_on channel=1 note=41 velocity=0 time=56
note_on channel=1 note=53 velocity=78 time=4
note_on channel=1 note=62 velocity=77 time=0
note_on channel=1 note=58 velocity=80 time=0
note_on channel=1 note=58 velocity=0 time=26
note_on channel=1 note=62 velocity=0 time=0
note_on channel=1 note=53 velocity=0 time=0
note_on channel=1 note=46 velocity=84 time=34
note_on channel=1 note=46 velocity=0 time=58
note_on channel=1 note=62 velocity=75 time=2
note_on channel=1 note=58 velocity=77 time=0
note_on channel=1 note=53 velocity=75 time=0
note_on channel=1 note=53 velocity=0 time=26
note_on channel=1 note=62 velocity=0 time=0
note_on channel=1 note=58 velocity=0 time=1
note_on channel=1 note=41 velocity=84 time=33
note_on channel=1 note=41 velocity=0 time=59
note_on channel=1 note=58 velocity=80 time=1
note_on channel=1 note=53 velocity=75 time=0
note_on channel=1 note=62 velocity=75 time=0
note_on channel=1 note=62 velocity=0 time=25
note_on channel=1 note=53 velocity=0 time=1
note_on channel=1 note=58 velocity=0 time=0
note_on channel=1 note=48 velocity=86 time=34
note_on channel=1 note=48 velocity=0 time=58
note_on channel=1 note=57 velocity=75 time=2
note_on channel=1 note=63 velocity=76 time=0
note_on channel=1 note=53 velocity=75 time=0
note_on channel=1 note=57 velocity=0 time=25
note_on channel=1 note=53 velocity=0 time=1
note_on channel=1 note=63 velocity=0 time=0
note_on channel=1 note=41 velocity=81 time=34
note_on channel=1 note=41 velocity=0 time=57
note_on channel=1 note=53 velocity=79 time=3
note_on channel=1 note=63 velocity=78 time=0
note_on channel=1 note=57 velocity=78 time=0
note_on channel=1 note=57 velocity=0 time=25
note_on channel=1 note=53 velocity=0 time=1
note_on channel=1 note=63 velocity=0 time=1
note_on channel=1 note=45 velocity=83 time=33
note_on channel=1 note=45 velocity=0 time=56
note_on channel=1 note=60 velocity=77 time=4
note_on channel=1 note=53 velocity=79 time=0
note_on channel=1 note=63 velocity=78 time=0
note_on channel=1 note=63 velocity=0 time=26
note_on channel=1 note=60 velocity=0 time=0
note_on channel=1 note=53 velocity=0 time=1
note_on channel=1 note=41 velocity=83 time=33
note_on channel=1 note=41 velocity=0 time=58
note_on channel=1 note=63 velocity=78 time=2
note_on channel=1 note=53 velocity=76 time=0
note_on channel=1 note=57 velocity=78 time=0
note_on channel=1 note=53 velocity=0 time=25
note_on channel=1 note=57 velocity=0 time=1
note_on channel=1 note=63 velocity=0 time=1
note_on channel=1 note=46 velocity=88 time=33
note_on channel=1 note=46 velocity=0 time=56
note_on channel=1 note=58 velocity=80 time=4
note_on channel=1 note=53 velocity=80 time=0
note_on channel=1 note=62 velocity=74 time=0
note_on channel=1 note=53 velocity=0 time=26
note_on channel=1 note=58 velocity=0 time=0
note_on channel=1 note=62 velocity=0 time=1
note_on channel=1 note=58 velocity=93 time=33
note_on channel=1 note=61 velocity=93 time=0
note_on channel=1 note=52 velocity=93 time=0
note_on channel=1 note=58 velocity=0 time=115
note_on channel=1 note=52 velocity=0 time=1
note_on channel=1 note=61 velocity=0 time=0
note_on channel=1 note=58 velocity=89 time=4
note_on channel=1 note=62 velocity=88 time=0
note_on channel=1 note=53 velocity=89 time=0
note_on channel=1 note=53 velocity=0 time=57
note_on channel=1 note=58 velocity=0 time=0
note_on channel=1 note=62 velocity=0 time=2
note_on channel=1 note=41 velocity=83 time=1
note_on channel=1 note=53 velocity=79 time=0
note_on channel=1 note=53 velocity=0 time=58
note_on channel=1 note=41 velocity=0 time=0
note_on channel=1 note=50 velocity=91 time=2
note_on channel=1 note=62 velocity=91 time=0
note_on channel=1 note=62 velocity=0 time=57
note_on channel=1 note=50 velocity=0 time=1
note_on channel=1 note=61 velocity=85 time=2
note_on channel=1 note=49 velocity=85 time=0
note_on channel=1 note=61 velocity=0 time=50
note_on channel=1 note=49 velocity=0 time=1
note_on channel=1 note=48 velocity=89 time=9
note_on channel=1 note=60 velocity=87 time=0
note_on channel=1 note=60 velocity=0 time=56
note_on channel=1 note=48 velocity=0 time=2
note_on channel=1 note=63 velocity=81 time=2
note_on channel=1 note=57 velocity=77 time=0
note_on channel=1 note=53 velocity=81 time=0
note_on channel=1 note=53 velocity=0 time=26
note_on channel=1 note=57 velocity=0 time=0
note_on channel=1 note=63 velocity=0 time=1
note_on channel=1 note=41 velocity=83 time=33
note_on channel=1 note=41 velocity=0 time=56
note_on channel=1 note=60 velocity=82 time=4
note_on channel=1 note=63 velocity=83 time=0
note_on channel=1 note=53 velocity=82 time=0
note_on channel=1 note=63 velocity=0 time=26
note_on channel=1 note=60 velocity=0 time=0
note_on channel=1 note=53 velocity=0 time=1
note_on channel=1 note=45 velocity=85 time=33
note_on channel=1 note=45 velocity=0 time=57
note_on channel=1 note=63 velocity=80 time=3
note_on channel=1 note=53 velocity=77 time=0
note_on channel=1 note=60 velocity=81 time=0
note_on channel=1 note=60 velocity=0 time=26
note_on channel=1 note=63 velocity=0 time=0
note_on channel=1 note=53 velocity=0 time=1
note_on channel=1 note=41 velocity=84 time=33
note_on channel=1 note=41 velocity=0 time=57
note_on channel=1 note=63 velocity=77 time=3
note_on channel=1 note=53 velocity=81 time=0
note_on channel=1 note=57 velocity=81 time=0
note_on channel=1 note=57 velocity=0 time=26
note_on channel=1 note=63 velocity=0 time=0
note_on channel=1 note=53 velocity=0 time=1
note_on channel=1 note=46 velocity=88 time=33
note_on channel=1 note=46 velocity=0 time=57
note_on channel=1 note=53 velocity=81 time=3
note_on channel=1 note=62 velocity=78 time=0
note_on channel=1 note=58 velocity=77 time=0
note_on channel=1 note=62 velocity=0 time=26
note_on channel=1 note=53 velocity=0 time=0
note_on channel=1 note=58 velocity=0 time=1
note_on channel=1 note=41 velocity=86 time=33
note_on channel=1 note=41 velocity=0 time=58
note_on channel=1 note=62 velocity=80 time=2
note_on channel=1 note=53 velocity=82 time=0
note_on channel=1 note=58 velocity=81 time=0
note_on channel=1 note=62 velocity=0 time=26
note_on channel=1 note=58 velocity=0 time=1
note_on channel=1 note=53 velocity=0 time=0
note_on channel=1 note=58 velocity=86 time=33
note_on channel=1 note=46 velocity=90 time=0
note_on channel=1 note=46 velocity=0 time=57
note_on channel=1 note=58 velocity=0 time=1
note_on channel=1 note=56 velocity=81 time=2
note_on channel=1 note=44 velocity=79 time=0
note_on channel=1 note=56 velocity=0 time=50
note_on channel=1 note=44 velocity=0 time=2
note_on channel=1 note=55 velocity=83 time=8
note_on channel=1 note=43 velocity=86 time=0
note_on channel=1 note=43 velocity=0 time=58
note_on channel=1 note=55 velocity=0 time=1
note_on channel=1 note=41 velocity=77 time=1
note_on channel=1 note=53 velocity=77 time=0
note_on channel=1 note=41 velocity=0 time=50
note_on channel=1 note=53 velocity=0 time=1
note_on channel=1 note=51 velocity=84 time=9
note_on channel=1 note=39 velocity=84 time=0
note_on channel=1 note=39 velocity=0 time=56
note_on channel=1 note=51 velocity=0 time=1
note_on channel=1 note=58 velocity=79 time=3
note_on channel=1 note=63 velocity=83 time=0
note_on channel=1 note=55 velocity=80 time=0
note_on channel=1 note=58 velocity=0 time=26
note_on channel=1 note=55 velocity=0 time=1
note_on channel=1 note=63 velocity=0 time=0
note_on channel=1 note=54 velocity=86 time=33
note_on channel=1 note=42 velocity=81 time=0
note_on channel=1 note=42 velocity=0 time=57
note_on channel=1 note=54 velocity=0 time=1
note_on channel=1 note=63 velocity=82 time=2
note_on channel=1 note=54 velocity=83 time=0
note_on channel=1 note=58 velocity=79 time=0
note_on channel=1 note=58 velocity=0 time=26
note_on channel=1 note=54 velocity=0 time=0
note_on channel=1 note=63 velocity=0 time=0
note_on channel=1 note=41 velocity=85 time=34
note_on channel=1 note=53 velocity=85 time=0
note_on channel=1 note=53 velocity=0 time=56
note_on channel=1 note=41 velocity=0 time=3
note_on channel=1 note=62 velocity=78 time=1
note_on channel=1 note=53 velocity=82 time=0
note_on channel=1 note=58 velocity=79 time=0
note_on channel=1 note=53 velocity=0 time=26
note_on channel=1 note=62 velocity=0 time=0
note_on channel=1 note=58 velocity=0 time=1
note_on channel=1 note=41 velocity=86 time=33
note_on channel=1 note=41 velocity=0 time=59
note_on channel=1 note=58 velocity=82 time=1
note_on channel=1 note=62 velocity=82 time=0
note_on channel=1 note=53 velocity=81 time=0
note_on channel=1 note=53 velocity=0 time=25
note_on channel=1 note=58 velocity=0 time=1
note_on channel=1 note=62 velocity=0 time=1
note_on channel=1 note=48 velocity=88 time=33
note_on channel=1 note=48 velocity=0 time=56
note_on channel=1 note=58 velocity=82 time=4
note_on channel=1 note=60 velocity=82 time=0
note_on channel=1 note=60 velocity=0 time=26
note_on channel=1 note=58 velocity=0 time=1
note_on channel=1 note=53 velocity=88 time=33
note_on channel=1 note=53 velocity=0 time=56
note_on channel=1 note=57 velocity=78 time=4
note_on channel=1 note=60 velocity=81 time=0
note_on channel=1 note=60 velocity=0 time=26
note_on channel=1 note=57 velocity=0 time=0
note_on channel=1 note=46 velocity=88 time=34
note_on channel=1 note=58 velocity=90 time=0
note_on channel=1 note=46 velocity=0 time=58
note_on channel=1 note=58 velocity=0 time=1
note_on channel=1 note=50 velocity=104 time=61
note_on channel=1 note=62 velocity=104 time=0
note_on channel=1 note=62 velocity=0 time=56
note_on channel=1 note=50 velocity=0 time=1
note_on channel=1 note=61 velocity=94 time=3
note_on channel=1 note=49 velocity=96 time=0
note_on channel=1 note=61 velocity=0 time=49
note_on channel=1 note=49 velocity=0 time=3
note_on channel=1 note=48 velocity=95 time=8
note_on channel=1 note=60 velocity=97 time=0
note_on channel=1 note=48 velocity=0 time=57
note_on channel=1 note=60 velocity=0 time=1
note_on channel=1 note=53 velocity=85 time=2
note_on channel=1 note=63 velocity=81 time=0
note_on channel=1 note=57 velocity=86 time=0
note_on channel=1 note=57 velocity=0 time=26
note_on channel=1 note=63 velocity=0 time=0
note_on channel=1 note=53 velocity=0 time=0
note_on channel=1 note=41 velocity=89 time=34
note_on channel=1 note=41 velocity=0 time=59
note_on channel=1 note=60 velocity=88 time=1
note_on channel=1 note=63 velocity=84 time=0
note_on channel=1 note=53 velocity=81 time=0
note_on channel=1 note=53 velocity=0 time=26
note_on channel=1 note=63 velocity=0 time=1
note_on channel=1 note=60 velocity=0 time=0
note_on channel=1 note=45 velocity=92 time=33
note_on channel=1 note=45 velocity=0 time=57
note_on channel=1 note=63 velocity=82 time=3
note_on channel=1 note=60 velocity=82 time=0
note_on channel=1 note=53 velocity=85 time=0
note_on channel=1 note=53 velocity=0 time=26
note_on channel=1 note=60 velocity=0 time=0
note_on channel=1 note=63 velocity=0 time=1
note_on channel=1 note=41 velocity=89 time=33
note_on channel=1 note=41 velocity=0 time=57
note_on channel=1 note=53 velocity=85 time=3
note_on channel=1 note=57 velocity=85 time=0
note_on channel=1 note=63 velocity=85 time=0
note_on channel=1 note=63 velocity=0 time=26
note_on channel=1 note=57 velocity=0 time=0
note_on channel=1 note=53 velocity=0 time=0
note_on channel=1 note=46 velocity=97 time=34
note_on channel=1 note=46 velocity=0 time=58
note_on channel=1 note=62 velocity=90 time=2
note_on channel=1 note=53 velocity=90 time=0
note_on channel=1 note=58 velocity=90 time=0
note_on channel=1 note=58 velocity=0 time=25
note_on channel=1 note=53 velocity=0 time=0
note_on channel=1 note=62 velocity=0 time=1
note_on channel=1 note=41 velocity=93 time=34
note_on channel=1 note=41 velocity=0 time=56
note_on channel=1 note=53 velocity=85 time=4
note_on channel=1 note=62 velocity=83 time=0
note_on channel=1 note=58 velocity=87 time=0
note_on channel=1 note=58 velocity=0 time=26
note_on channel=1 note=62 velocity=0 time=0
note_on channel=1 note=53 velocity=0 time=0
note_on channel=1 note=46 velocity=91 time=34
note_on channel=1 note=46 velocity=0 time=58
note_on channel=1 note=62 velocity=81 time=2
note_on channel=1 note=58 velocity=83 time=0
note_on channel=1 note=53 velocity=81 time=0
note_on channel=1 note=53 velocity=0 time=26
note_on channel=1 note=62 velocity=0 time=0
note_on channel=1 note=58 velocity=0 time=1
note_on channel=1 note=41 velocity=91 time=33
note_on channel=1 note=41 velocity=0 time=59
note_on channel=1 note=58 velocity=87 time=1
note_on channel=1 note=53 velocity=81 time=0
note_on channel=1 note=62 velocity=81 time=0
note_on channel=1 note=62 velocity=0 time=25
note_on channel=1 note=53 velocity=0 time=1
note_on channel=1 note=58 velocity=0 time=0
note_on channel=1 note=48 velocity=93 time=34
note_on channel=1 note=48 velocity=0 time=58
note_on channel=1 note=57 velocity=81 time=2
note_on channel=1 note=63 velocity=82 time=0
note_on channel=1 note=53 velocity=81 time=0
note_on channel=1 note=57 velocity=0 time=25
note_on channel=1 note=53 velocity=0 time=1
note_on channel=1 note=63 velocity=0 time=0
note_on channel=1 note=41 velocity=88 time=34
note_on channel=1 note=41 velocity=0 time=57
note_on channel=1 note=53 velocity=85 time=3
note_on channel=1 note=63 velocity=84 time=0
note_on channel=1 note=57 velocity=84 time=0
note_on channel=1 note=57 velocity=0 time=25
note_on channel=1 note=53 velocity=0 time=1
note_on channel=1 note=63 velocity=0 time=1
note_on channel=1 note=45 velocity=89 time=33
note_on channel=1 note=45 velocity=0 time=56
note_on channel=1 note=60 velocity=83 time=4
note_on channel=1 note=53 velocity=85 time=0
note_on channel=1 note=63 velocity=84 time=0
note_on channel=1 note=63 velocity=0 time=26
note_on channel=1 note=60 velocity=0 time=0
note_on channel=1 note=53 velocity=0 time=1
note_on channel=1 note=41 velocity=89 time=33
note_on channel=1 note=41 velocity=0 time=58
note_on channel=1 note=63 velocity=84 time=2
note_on channel=1 note=53 velocity=82 time=0
note_on channel=1 note=57 velocity=84 time=0
note_on channel=1 note=53 velocity=0 time=25
note_on channel=1 note=57 velocity=0 time=1
note_on channel=1 note=63 velocity=0 time=1
note_on channel=1 note=46 velocity=95 time=33
note_on channel=1 note=46 velocity=0 time=56
note_on channel=1 note=58 velocity=86 time=4
note_on channel=1 note=53 velocity=86 time=0
note_on channel=1 note=62 velocity=79 time=0
note_on channel=1 note=53 velocity=0 time=26
note_on channel=1 note=58 velocity=0 time=0
note_on channel=1 note=62 velocity=0 time=1
note_on channel=1 note=58 velocity=100 time=33
note_on channel=1 note=61 velocity=100 time=0
note_on channel=1 note=52 velocity=100 time=0
note_on channel=1 note=58 velocity=0 time=115
note_on channel=1 note=52 velocity=0 time=1
note_on channel=1 note=61 velocity=0 time=0
note_on channel=1 note=58 velocity=96 time=4
note_on channel=1 note=62 velocity=95 time=0
note_on channel=1 note=53 velocity=96 time=0
note_on channel=1 note=53 velocity=0 time=57
note_on channel=1 note=58 velocity=0 time=0
note_on channel=1 note=62 velocity=0 time=2
note_on channel=1 note=41 velocity=89 time=1
note_on channel=1 note=53 velocity=85 time=0
note_on channel=1 note=53 velocity=0 time=58
note_on channel=1 note=41 velocity=0 time=0
note_on channel=1 note=50 velocity=97 time=2
note_on channel=1 note=62 velocity=97 time=0
note_on channel=1 note=62 velocity=0 time=57
note_on channel=1 note=50 velocity=0 time=1
note_on channel=1 note=61 velocity=90 time=2
note_on channel=1 note=49 velocity=90 time=0
note_on channel=1 note=61 velocity=0 time=50
note_on channel=1 note=49 velocity=0 time=1
note_on channel=1 note=48 velocity=95 time=9
note_on channel=1 note=60 velocity=93 time=0
note_on channel=1 note=60 velocity=0 time=56
note_on channel=1 note=48 velocity=0 time=2
note_on channel=1 note=63 velocity=86 time=2
note_on channel=1 note=57 velocity=82 time=0
note_on channel=1 note=53 velocity=86 time=0
note_on channel=1 note=53 velocity=0 time=26
note_on channel=1 note=57 velocity=0 time=0
note_on channel=1 note=63 velocity=0 time=1
note_on channel=1 note=41 velocity=88 time=33
note_on channel=1 note=41 velocity=0 time=56
note_on channel=1 note=60 velocity=87 time=4
note_on channel=1 note=63 velocity=88 time=0
note_on channel=1 note=53 velocity=87 time=0
note_on channel=1 note=63 velocity=0 time=26
note_on channel=1 note=60 velocity=0 time=0
note_on channel=1 note=53 velocity=0 time=1
note_on channel=1 note=45 velocity=90 time=33
note_on channel=1 note=45 velocity=0 time=57
note_on channel=1 note=63 velocity=85 time=3
note_on channel=1 note=53 velocity=82 time=0
note_on channel=1 note=60 velocity=86 time=0
note_on channel=1 note=60 velocity=0 time=26
note_on channel=1 note=63 velocity=0 time=0
note_on channel=1 note=53 velocity=0 time=1
note_on channel=1 note=41 velocity=89 time=33
note_on channel=1 note=41 velocity=0 time=57
note_on channel=1 note=63 velocity=82 time=3
note_on channel=1 note=53 velocity=86 time=0
note_on channel=1 note=57 velocity=86 time=0
note_on channel=1 note=57 velocity=0 time=26
note_on channel=1 note=63 velocity=0 time=0
note_on channel=1 note=53 velocity=0 time=1
note_on channel=1 note=46 velocity=94 time=33
note_on channel=1 note=46 velocity=0 time=57
note_on channel=1 note=53 velocity=85 time=3
note_on channel=1 note=62 velocity=82 time=0
note_on channel=1 note=58 velocity=81 time=0
note_on channel=1 note=62 velocity=0 time=26
note_on channel=1 note=53 velocity=0 time=0
note_on channel=1 note=58 velocity=0 time=1
note_on channel=1 note=41 velocity=91 time=33
note_on channel=1 note=41 velocity=0 time=58
note_on channel=1 note=62 velocity=84 time=2
note_on channel=1 note=53 velocity=86 time=0
note_on channel=1 note=58 velocity=85 time=0
note_on channel=1 note=62 velocity=0 time=26
note_on channel=1 note=58 velocity=0 time=1
note_on channel=1 note=53 velocity=0 time=0
note_on channel=1 note=58 velocity=91 time=33
note_on channel=1 note=46 velocity=95 time=0
note_on channel=1 note=46 velocity=0 time=57
note_on channel=1 note=58 velocity=0 time=1
note_on channel=1 note=56 velocity=85 time=2
note_on channel=1 note=44 velocity=83 time=0
note_on channel=1 note=56 velocity=0 time=50
note_on channel=1 note=44 velocity=0 time=2
note_on channel=1 note=55 velocity=87 time=8
note_on channel=1 note=43 velocity=91 time=0
note_on channel=1 note=43 velocity=0 time=58
note_on channel=1 note=55 velocity=0 time=1
note_on channel=1 note=41 velocity=81 time=1
note_on channel=1 note=53 velocity=81 time=0
note_on channel=1 note=41 velocity=0 time=50
note_on channel=1 note=53 velocity=0 time=1
note_on channel=1 note=51 velocity=89 time=9
note_on channel=1 note=39 velocity=89 time=0
note_on channel=1 note=39 velocity=0 time=56
note_on channel=1 note=51 velocity=0 time=1
note_on channel=1 note=58 velocity=83 time=3
note_on channel=1 note=63 velocity=87 time=0
note_on channel=1 note=55 velocity=84 time=0
note_on channel=1 note=58 velocity=0 time=26
note_on channel=1 note=55 velocity=0 time=1
note_on channel=1 note=63 velocity=0 time=0
note_on channel=1 note=54 velocity=91 time=33
note_on channel=1 note=42 velocity=85 time=0
note_on channel=1 note=42 velocity=0 time=57
note_on channel=1 note=54 velocity=0 time=1
note_on channel=1 note=63 velocity=86 time=2
note_on channel=1 note=54 velocity=87 time=0
note_on channel=1 note=58 velocity=83 time=0
note_on channel=1 note=58 velocity=0 time=26
note_on channel=1 note=54 velocity=0 time=0
note_on channel=1 note=63 velocity=0 time=0
note_on channel=1 note=41 velocity=89 time=34
note_on channel=1 note=53 velocity=89 time=0
note_on channel=1 note=53 velocity=0 time=56
note_on channel=1 note=41 velocity=0 time=3
note_on channel=1 note=62 velocity=81 time=1
note_on channel=1 note=53 velocity=86 time=0
note_on channel=1 note=58 velocity=82 time=0
note_on channel=1 note=53 velocity=0 time=26
note_on channel=1 note=62 velocity=0 time=0
note_on channel=1 note=58 velocity=0 time=1
note_on channel=1 note=41 velocity=90 time=33
note_on channel=1 note=41 velocity=0 time=59
note_on channel=1 note=58 velocity=86 time=1
note_on channel=1 note=62 velocity=86 time=0
note_on channel=1 note=53 velocity=85 time=0
note_on channel=1 note=53 velocity=0 time=25
note_on channel=1 note=58 velocity=0 time=1
note_on channel=1 note=62 velocity=0 time=1
note_on channel=1 note=48 velocity=92 time=33
note_on channel=1 note=48 velocity=0 time=56
note_on channel=1 note=58 velocity=86 time=4
note_on channel=1 note=60 velocity=86 time=0
note_on channel=1 note=60 velocity=0 time=26
note_on channel=1 note=58 velocity=0 time=1
note_on channel=1 note=53 velocity=92 time=33
note_on channel=1 note=53 velocity=0 time=56
note_on channel=1 note=57 velocity=81 time=4
note_on channel=1 note=60 velocity=85 time=0
note_on channel=1 note=60 velocity=0 time=26
note_on channel=1 note=57 velocity=0 time=0
note_on channel=1 note=46 velocity=100 time=34
note_on channel=1 note=58 velocity=97 time=0
note_on channel=1 note=46 velocity=0 time=56
note_on channel=1 note=58 velocity=0 time=2
note_on channel=1 note=41 velocity=93 time=2
note_on channel=1 note=53 velocity=93 time=0
note_on channel=1 note=41 velocity=0 time=57
note_on channel=1 note=53 velocity=0 time=1
note_on channel=1 note=46 velocity=101 time=2
note_on channel=1 note=34 velocity=101 time=0
note_on channel=1 note=34 velocity=0 time=56
note_on channel=1 note=46 velocity=0 time=3
control_change channel=1 control=120 value=127 time=181
<meta message end_of_track time=0>
<meta message midi_port port=0 time=0>
<meta message track_name name='W. S. Trachtman - MIDI File' time=0>
<meta message end_of_track time=0>
<meta message track_name name='The Easy Winners' time=0>
<meta message track_name name='by Scott Joplin (1901)' time=0>
<meta message copyright text='Copyright  1998 by Warren Trachtman' time=0>
<meta message text text='Warren Trachtman\n' time=0>
<meta message text text='Copyright + 1998 by Warren Trachtman\n' time=0>
<meta message text text='All Rights Reserved\n' time=0>
<meta message smpte_offset frame_rate=25 hours=32 minutes=0 seconds=3 frames=0 sub_frames=0 time=0>
<meta message time_signature numerator=2 denominator=4 clocks_per_click=24 notated_32nd_notes_per_beat=8 time=0>
<meta message key_signature key='Ab' time=0>
<meta message set_tempo tempo=645161 time=0>
<meta message marker text='W.S.Trachtman - MIDI file' time=0>
<meta message set_tempo tempo=631579 time=390>
<meta message set_tempo tempo=634921 time=21>
<meta message set_tempo tempo=638298 time=21>
<meta message set_tempo tempo=641711 time=21>
<meta message set_tempo tempo=645161 time=21>
<meta message set_tempo tempo=648649 time=21>
<meta message set_tempo tempo=652174 time=21>
<meta message set_tempo tempo=655738 time=21>
<meta message set_tempo tempo=659341 time=21>
<meta message set_tempo tempo=662983 time=21>
<meta message set_tempo tempo=666667 time=21>
<meta message set_tempo tempo=652174 time=1>
<meta message set_tempo tempo=631579 time=59>
<meta message set_tempo tempo=634921 time=30>
<meta message set_tempo tempo=638298 time=30>
<meta message set_tempo tempo=641711 time=30>
<meta message set_tempo tempo=645161 time=30>
<meta message set_tempo tempo=648649 time=30>
<meta message set_tempo tempo=652174 time=30>
<meta message set_tempo tempo=655738 time=30>
<meta message set_tempo tempo=659341 time=30>
<meta message set_tempo tempo=655738 time=30>
<meta message set_tempo tempo=666667 time=30>
<meta message set_tempo tempo=652174 time=1>
<meta message set_tempo tempo=645161 time=239>
<meta message marker text='A1' time=0>
<meta message set_tempo tempo=631579 time=570>
<meta message set_tempo tempo=634921 time=18>
<meta message set_tempo tempo=638298 time=18>
<meta message set_tempo tempo=641711 time=18>
<meta message set_tempo tempo=645161 time=18>
<meta message set_tempo tempo=648649 time=18>
<meta message set_tempo tempo=652174 time=18>
<meta message set_tempo tempo=655738 time=18>
<meta message set_tempo tempo=659341 time=18>
<meta message set_tempo tempo=662983 time=18>
<meta message set_tempo tempo=666667 time=18>
<meta message set_tempo tempo=645161 time=1>
<meta message set_tempo tempo=631579 time=449>
<meta message set_tempo tempo=634921 time=21>
<meta message set_tempo tempo=638298 time=21>
<meta message set_tempo tempo=641711 time=21>
<meta message set_tempo tempo=645161 time=21>
<meta message set_tempo tempo=648649 time=21>
<meta message set_tempo tempo=652174 time=21>
<meta message set_tempo tempo=655738 time=21>
<meta message set_tempo tempo=659341 time=21>
<meta message set_tempo tempo=662983 time=21>
<meta message set_tempo tempo=666667 time=21>
<meta message set_tempo tempo=645161 time=1>
<meta message set_tempo tempo=631579 time=29>
<meta message set_tempo tempo=634921 time=26>
<meta message set_tempo tempo=638298 time=27>
<meta message set_tempo tempo=641711 time=26>
<meta message set_tempo tempo=645161 time=27>
<meta message set_tempo tempo=648649 time=27>
<meta message set_tempo tempo=652174 time=26>
<meta message set_tempo tempo=655738 time=27>
<meta message set_tempo tempo=659341 time=26>
<meta message set_tempo tempo=662983 time=27>
<meta message set_tempo tempo=666667 time=27>
<meta message set_tempo tempo=645161 time=1>
<meta message set_tempo tempo=631579 time=693>
<meta message set_tempo tempo=634921 time=40>
<meta message set_tempo tempo=638298 time=41>
<meta message set_tempo tempo=641711 time=40>
<meta message set_tempo tempo=645161 time=41>
<meta message set_tempo tempo=648649 time=40>
<meta message set_tempo tempo=652174 time=41>
<meta message set_tempo tempo=655738 time=40>
<meta message set_tempo tempo=659341 time=41>
<meta message set_tempo tempo=662983 time=40>
<meta message set_tempo tempo=666667 time=41>
<meta message set_tempo tempo=645161 time=1>
<meta message set_tempo tempo=631579 time=74>
<meta message set_tempo tempo=634921 time=43>
<meta message set_tempo tempo=638298 time=44>
<meta message set_tempo tempo=641711 time=43>
<meta message set_tempo tempo=645161 time=44>
<meta message set_tempo tempo=648649 time=43>
<meta message set_tempo tempo=652174 time=44>
<meta message set_tempo tempo=655738 time=43>
<meta message set_tempo tempo=659341 time=44>
<meta message set_tempo tempo=662983 time=43>
<meta message set_tempo tempo=666667 time=44>
<meta message set_tempo tempo=645161 time=1>
<meta message set_tempo tempo=631579 time=44>
<meta message set_tempo tempo=634921 time=28>
<meta message set_tempo tempo=638298 time=29>
<meta message set_tempo tempo=641711 time=28>
<meta message set_tempo tempo=645161 time=29>
<meta message set_tempo tempo=648649 time=28>
<meta message set_tempo tempo=652174 time=29>
<meta message set_tempo tempo=655738 time=28>
<meta message set_tempo tempo=659341 time=29>
<meta message set_tempo tempo=662983 time=28>
<meta message set_tempo tempo=666667 time=29>
<meta message set_tempo tempo=645161 time=1>
<meta message set_tempo tempo=631579 time=434>
<meta message set_tempo tempo=634921 time=21>
<meta message set_tempo tempo=638298 time=21>
<meta message set_tempo tempo=641711 time=21>
<meta message set_tempo tempo=645161 time=21>
<meta message set_tempo tempo=648649 time=22>
<meta message set_tempo tempo=652174 time=21>
<meta message set_tempo tempo=655738 time=21>
<meta message set_tempo tempo=659341 time=21>
<meta message set_tempo tempo=662983 time=21>
<meta message set_tempo tempo=666667 time=22>
<meta message set_tempo tempo=645161 time=1>
<meta message set_tempo tempo=631579 time=27>
<meta message set_tempo tempo=634921 time=28>
<meta message set_tempo tempo=638298 time=29>
<meta message set_tempo tempo=641711 time=28>
<meta message set_tempo tempo=645161 time=29>
<meta message set_tempo tempo=648649 time=28>
<meta message set_tempo tempo=652174 time=29>
<meta message set_tempo tempo=655738 time=28>
<meta message set_tempo tempo=659341 time=29>
<meta message set_tempo tempo=662983 time=28>
<meta message set_tempo tempo=666667 time=29>
<meta message set_tempo tempo=645161 time=1>
<meta message set_tempo tempo=631579 time=434>
<meta message set_tempo tempo=634921 time=22>
<meta message set_tempo tempo=638298 time=23>
<meta message set_tempo tempo=641711 time=22>
<meta message set_tempo tempo=645161 time=23>
<meta message set_tempo tempo=648649 time=22>
<meta message set_tempo tempo=652174 time=23>
<meta message set_tempo tempo=655738 time=22>
<meta message set_tempo tempo=659341 time=23>
<meta message set_tempo tempo=662983 time=22>
<meta message set_tempo tempo=666667 time=23>
<meta message set_tempo tempo=645161 time=1>
<meta message set_tempo tempo=631579 time=14>
<meta message set_tempo tempo=634921 time=37>
<meta message set_tempo tempo=638298 time=38>
<meta message set_tempo tempo=641711 time=37>
<meta message set_tempo tempo=645161 time=38>
<meta message set_tempo tempo=648649 time=37>
<meta message set_tempo tempo=652174 time=38>
<meta message set_tempo tempo=655738 time=37>
<meta message set_tempo tempo=659341 time=38>
<meta message set_tempo tempo=662983 time=37>
<meta message set_tempo tempo=666667 time=38>
<meta message set_tempo tempo=645161 time=1>
<meta message set_tempo tempo=631579 time=344>
<meta message set_tempo tempo=634921 time=21>
<meta message set_tempo tempo=638298 time=21>
<meta message set_tempo tempo=641711 time=21>
<meta message set_tempo tempo=645161 time=21>
<meta message set_tempo tempo=648649 time=21>
<meta message set_tempo tempo=652174 time=21>
<meta message set_tempo tempo=655738 time=21>
<meta message set_tempo tempo=659341 time=21>
<meta message set_tempo tempo=662983 time=21>
<meta message set_tempo tempo=666667 time=21>
<meta message set_tempo tempo=645161 time=1>
<meta message set_tempo tempo=631579 time=29>
<meta message set_tempo tempo=634921 time=40>
<meta message set_tempo tempo=638298 time=41>
<meta message set_tempo tempo=641711 time=40>
<meta message set_tempo tempo=645161 time=41>
<meta message set_tempo tempo=648649 time=40>
<meta message set_tempo tempo=652174 time=41>
<meta message set_tempo tempo=655738 time=40>
<meta message set_tempo tempo=659341 time=41>
<meta message set_tempo tempo=662983 time=40>
<meta message set_tempo tempo=666667 time=41>
<meta message set_tempo tempo=645161 time=1>
<meta message set_tempo tempo=631579 time=314>
<meta message set_tempo tempo=634921 time=19>
<meta message set_tempo tempo=638298 time=20>
<meta message set_tempo tempo=641711 time=19>
<meta message set_tempo tempo=645161 time=20>
<meta message set_tempo tempo=648649 time=19>
<meta message set_tempo tempo=652174 time=20>
<meta message set_tempo tempo=655738 time=19>
<meta message set_tempo tempo=659341 time=20>
<meta message set_tempo tempo=662983 time=19>
<meta message set_tempo tempo=666667 time=20>
<meta message set_tempo tempo=645161 time=1>
<meta message set_tempo tempo=631579 time=44>
<meta message set_tempo tempo=634921 time=40>
<meta message set_tempo tempo=638298 time=41>
<meta message set_tempo tempo=641711 time=40>
<meta message set_tempo tempo=645161 time=41>
<meta message set_tempo tempo=648649 time=40>
<meta message set_tempo tempo=652174 time=41>
<meta message set_tempo tempo=655738 time=40>
<meta message set_tempo tempo=666667 time=41>
<meta message set_tempo tempo=685714 time=40>
<meta message set_tempo tempo=666667 time=41>
<meta message set_tempo tempo=645161 time=1>
<meta message marker text='B1' time=74>
<meta message set_tempo tempo=631579 time=150>
<meta message set_tempo tempo=634921 time=25>
<meta message set_tempo tempo=638298 time=26>
<meta message set_tempo tempo=641711 time=25>
<meta message set_tempo tempo=645161 time=26>
<meta message set_tempo tempo=648649 time=25>
<meta message set_tempo tempo=652174 time=26>
<meta message set_tempo tempo=655738 time=25>
<meta message set_tempo tempo=659341 time=26>
<meta message set_tempo tempo=662983 time=25>
<meta message set_tempo tempo=666667 time=26>
<meta message set_tempo tempo=645161 time=1>
<meta message set_tempo tempo=631579 time=104>
<meta message set_tempo tempo=634921 time=37>
<meta message set_tempo tempo=638298 time=38>
<meta message set_tempo tempo=641711 time=37>
<meta message set_tempo tempo=645161 time=38>
<meta message set_tempo tempo=648649 time=37>
<meta message set_tempo tempo=652174 time=38>
<meta message set_tempo tempo=655738 time=37>
<meta message set_tempo tempo=659341 time=38>
<meta message set_tempo tempo=662983 time=37>
<meta message set_tempo tempo=666667 time=38>
<meta message set_tempo tempo=631579 time=1>
<meta message set_tempo tempo=631579 time=404>
<meta message set_tempo tempo=634921 time=21>
<meta message set_tempo tempo=638298 time=21>
<meta message set_tempo tempo=641711 time=21>
<meta message set_tempo tempo=645161 time=21>
<meta message set_tempo tempo=648649 time=21>
<meta message set_tempo tempo=652174 time=21>
<meta message set_tempo tempo=655738 time=21>
<meta message set_tempo tempo=659341 time=21>
<meta message set_tempo tempo=662983 time=21>
<meta message set_tempo tempo=666667 time=21>
<meta message set_tempo tempo=631579 time=1>
<meta message set_tempo tempo=631579 time=269>
<meta message set_tempo tempo=634921 time=28>
<meta message set_tempo tempo=638298 time=29>
<meta message set_tempo tempo=641711 time=28>
<meta message set_tempo tempo=645161 time=29>
<meta message set_tempo tempo=648649 time=28>
<meta message set_tempo tempo=652174 time=29>
<meta message set_tempo tempo=655738 time=28>
<meta message set_tempo tempo=659341 time=29>
<meta message set_tempo tempo=662983 time=28>
<meta message set_tempo tempo=666667 time=29>
<meta message set_tempo tempo=631579 time=1>
<meta message set_tempo tempo=631579 time=14>
<meta message set_tempo tempo=634921 time=22>
<meta message set_tempo tempo=638298 time=23>
<meta message set_tempo tempo=641711 time=22>
<meta message set_tempo tempo=645161 time=23>
<meta message set_tempo tempo=648649 time=22>
<meta message set_tempo tempo=652174 time=23>
<meta message set_tempo tempo=655738 time=22>
<meta message set_tempo tempo=659341 time=23>
<meta message set_tempo tempo=662983 time=22>
<meta message set_tempo tempo=666667 time=23>
<meta message set_tempo tempo=631579 time=1>
<meta message set_tempo tempo=631579 time=344>
<meta message set_tempo tempo=634921 time=22>
<meta message set_tempo tempo=638298 time=23>
<meta message set_tempo tempo=641711 time=22>
<meta message set_tempo tempo=645161 time=23>
<meta message set_tempo tempo=648649 time=22>
<meta message set_tempo tempo=652174 time=23>
<meta message set_tempo tempo=655738 time=22>
<meta message set_tempo tempo=659341 time=23>
<meta message set_tempo tempo=662983 time=22>
<meta message set_tempo tempo=666667 time=23>
<meta message set_tempo tempo=631579 time=1>
<meta message set_tempo tempo=634921 time=401>
<meta message set_tempo tempo=631579 time=93>
<meta message set_tempo tempo=634921 time=40>
<meta message set_tempo tempo=638298 time=41>
<meta message set_tempo tempo=641711 time=41>
<meta message set_tempo tempo=645161 time=40>
<meta message set_tempo tempo=648649 time=41>
<meta message set_tempo tempo=652174 time=41>
<meta message set_tempo tempo=655738 time=40>
<meta message set_tempo tempo=659341 time=41>
<meta message set_tempo tempo=662983 time=41>
<meta message set_tempo tempo=666667 time=41>
<meta message set_tempo tempo=634921 time=1>
<meta message marker text='B2' time=72>
<meta message set_tempo tempo=631579 time=510>
<meta message set_tempo tempo=634921 time=36>
<meta message set_tempo tempo=638298 time=36>
<meta message set_tempo tempo=641711 time=36>
<meta message set_tempo tempo=645161 time=36>
<meta message set_tempo tempo=648649 time=36>
<meta message set_tempo tempo=652174 time=36>
<meta message set_tempo tempo=655738 time=36>
<meta message set_tempo tempo=659341 time=36>
<meta message set_tempo tempo=662983 time=36>
<meta message set_tempo tempo=666667 time=36>
<meta message set_tempo tempo=634921 time=1>
<meta message set_tempo tempo=631579 time=419>
<meta message set_tempo tempo=634921 time=21>
<meta message set_tempo tempo=638298 time=21>
<meta message set_tempo tempo=641711 time=21>
<meta message set_tempo tempo=645161 time=21>
<meta message set_tempo tempo=648649 time=21>
<meta message set_tempo tempo=652174 time=21>
<meta message set_tempo tempo=655738 time=21>
<meta message set_tempo tempo=659341 time=21>
<meta message set_tempo tempo=662983 time=21>
<meta message set_tempo tempo=666667 time=21>
<meta message set_tempo tempo=634921 time=1>
<meta message set_tempo tempo=631579 time=269>
<meta message set_tempo tempo=634921 time=13>
<meta message set_tempo tempo=638298 time=14>
<meta message set_tempo tempo=641711 time=13>
<meta message set_tempo tempo=645161 time=14>
<meta message set_tempo tempo=648649 time=13>
<meta message set_tempo tempo=652174 time=14>
<meta message set_tempo tempo=655738 time=13>
<meta message set_tempo tempo=659341 time=14>
<meta message set_tempo tempo=662983 time=13>
<meta message set_tempo tempo=666667 time=14>
<meta message set_tempo tempo=634921 time=1>
<meta message set_tempo tempo=631579 time=14>
<meta message set_tempo tempo=634921 time=18>
<meta message set_tempo tempo=638298 time=18>
<meta message set_tempo tempo=641711 time=18>
<meta message set_tempo tempo=645161 time=18>
<meta message set_tempo tempo=648649 time=18>
<meta message set_tempo tempo=652174 time=18>
<meta message set_tempo tempo=655738 time=18>
<meta message set_tempo tempo=659341 time=18>
<meta message set_tempo tempo=662983 time=18>
<meta message set_tempo tempo=666667 time=18>
<meta message set_tempo tempo=634921 time=1>
<meta message set_tempo tempo=631579 time=59>
<meta message set_tempo tempo=634921 time=22>
<meta message set_tempo tempo=638298 time=23>
<meta message set_tempo tempo=641711 time=22>
<meta message set_tempo tempo=645161 time=23>
<meta message set_tempo tempo=648649 time=22>
<meta message set_tempo tempo=652174 time=23>
<meta message set_tempo tempo=655738 time=22>
<meta message set_tempo tempo=659341 time=23>
<meta message set_tempo tempo=662983 time=22>
<meta message set_tempo tempo=666667 time=23>
<meta message set_tempo tempo=638298 time=1>
<meta message set_tempo tempo=631579 time=254>
<meta message set_tempo tempo=634921 time=13>
<meta message set_tempo tempo=638298 time=14>
<meta message set_tempo tempo=641711 time=13>
<meta message set_tempo tempo=645161 time=14>
<meta message set_tempo tempo=648649 time=13>
<meta message set_tempo tempo=652174 time=14>
<meta message set_tempo tempo=655738 time=13>
<meta message set_tempo tempo=659341 time=14>
<meta message set_tempo tempo=662983 time=13>
<meta message set_tempo tempo=666667 time=14>
<meta message set_tempo tempo=638298 time=1>
<meta message set_tempo tempo=631579 time=584>
<meta message set_tempo tempo=634921 time=13>
<meta message set_tempo tempo=638298 time=14>
<meta message set_tempo tempo=641711 time=13>
<meta message set_tempo tempo=645161 time=14>
<meta message set_tempo tempo=648649 time=13>
<meta message set_tempo tempo=652174 time=14>
<meta message set_tempo tempo=655738 time=13>
<meta message set_tempo tempo=659341 time=14>
<meta message set_tempo tempo=662983 time=13>
<meta message set_tempo tempo=666667 time=14>
<meta message set_tempo tempo=638298 time=1>
<meta message set_tempo tempo=631579 time=104>
<meta message set_tempo tempo=634921 time=16>
<meta message set_tempo tempo=638298 time=17>
<meta message set_tempo tempo=641711 time=16>
<meta message set_tempo tempo=645161 time=17>
<meta message set_tempo tempo=648649 time=16>
<meta message set_tempo tempo=652174 time=17>
<meta message set_tempo tempo=655738 time=16>
<meta message set_tempo tempo=659341 time=17>
<meta message set_tempo tempo=662983 time=16>
<meta message set_tempo tempo=666667 time=17>
<meta message set_tempo tempo=638298 time=1>
<meta message set_tempo tempo=631579 time=314>
<meta message set_tempo tempo=634921 time=22>
<meta message set_tempo tempo=638298 time=23>
<meta message set_tempo tempo=641711 time=22>
<meta message set_tempo tempo=645161 time=23>
<meta message set_tempo tempo=648649 time=22>
<meta message set_tempo tempo=652174 time=23>
<meta message set_tempo tempo=655738 time=22>
<meta message set_tempo tempo=659341 time=23>
<meta message set_tempo tempo=662983 time=22>
<meta message set_tempo tempo=666667 time=23>
<meta message set_tempo tempo=638298 time=1>
<meta message set_tempo tempo=631579 time=14>
<meta message set_tempo tempo=634921 time=28>
<meta message set_tempo tempo=638298 time=29>
<meta message set_tempo tempo=641711 time=28>
<meta message set_tempo tempo=645161 time=29>
<meta message set_tempo tempo=648649 time=28>
<meta message set_tempo tempo=652174 time=29>
<meta message set_tempo tempo=655738 time=28>
<meta message set_tempo tempo=659341 time=29>
<meta message set_tempo tempo=662983 time=28>
<meta message set_tempo tempo=666667 time=29>
<meta message set_tempo tempo=638298 time=1>
<meta message set_tempo tempo=631579 time=194>
<meta message set_tempo tempo=634921 time=46>
<meta message set_tempo tempo=638298 time=47>
<meta message set_tempo tempo=641711 time=46>
<meta message set_tempo tempo=645161 time=47>
<meta message set_tempo tempo=648649 time=46>
<meta message set_tempo tempo=652174 time=47>
<meta message set_tempo tempo=655738 time=46>
<meta message set_tempo tempo=659341 time=47>
<meta message set_tempo tempo=662983 time=46>
<meta message set_tempo tempo=666667 time=47>
<meta message set_tempo tempo=641711 time=1>
<meta message set_tempo tempo=631579 time=14>
<meta message set_tempo tempo=634921 time=37>
<meta message set_tempo tempo=638298 time=38>
<meta message set_tempo tempo=641711 time=37>
<meta message set_tempo tempo=645161 time=38>
<meta message set_tempo tempo=648649 time=37>
<meta message set_tempo tempo=652174 time=38>
<meta message set_tempo tempo=655738 time=37>
<meta message set_tempo tempo=659341 time=38>
<meta message set_tempo tempo=670391 time=37>
<meta message set_tempo tempo=666667 time=38>
<meta message set_tempo tempo=641711 time=1>
<meta message set_tempo tempo=641711 time=104>
<meta message set_tempo tempo=645161 time=66>
<meta message set_tempo tempo=648649 time=66>
<meta message set_tempo tempo=652174 time=67>
<meta message set_tempo tempo=655738 time=66>
<meta message set_tempo tempo=659341 time=67>
<meta message set_tempo tempo=662983 time=66>
<meta message set_tempo tempo=666667 time=67>
<meta message set_tempo tempo=641711 time=1>
<meta message set_tempo tempo=628272 time=14>
<meta message set_tempo tempo=631579 time=37>
<meta message set_tempo tempo=634921 time=37>
<meta message set_tempo tempo=638298 time=37>
<meta message set_tempo tempo=641711 time=37>
<meta message set_tempo tempo=645161 time=37>
<meta message set_tempo tempo=648649 time=38>
<meta message set_tempo tempo=652174 time=37>
<meta message set_tempo tempo=655738 time=37>
<meta message set_tempo tempo=659341 time=37>
<meta message set_tempo tempo=662983 time=37>
<meta message set_tempo tempo=666667 time=38>
<meta message set_tempo tempo=641711 time=1>
<meta message set_tempo tempo=631579 time=70>
<meta message set_tempo tempo=634921 time=43>
<meta message set_tempo tempo=638298 time=44>
<meta message set_tempo tempo=641711 time=43>
<meta message set_tempo tempo=645161 time=44>
<meta message set_tempo tempo=648649 time=43>
<meta message set_tempo tempo=652174 time=44>
<meta message set_tempo tempo=655738 time=43>
<meta message set_tempo tempo=659341 time=44>
<meta message set_tempo tempo=662983 time=43>
<meta message set_tempo tempo=666667 time=44>
<meta message set_tempo tempo=641711 time=1>
<meta message set_tempo tempo=631579 time=14>
<meta message set_tempo tempo=634921 time=45>
<meta message set_tempo tempo=638298 time=45>
<meta message set_tempo tempo=641711 time=45>
<meta message set_tempo tempo=645161 time=45>
<meta message set_tempo tempo=648649 time=45>
<meta message set_tempo tempo=652174 time=45>
<meta message set_tempo tempo=655738 time=45>
<meta message set_tempo tempo=659341 time=45>
<meta message set_tempo tempo=662983 time=45>
<meta message set_tempo tempo=666667 time=45>
<meta message set_tempo tempo=641711 time=1>
<meta message key_signature key='Db' time=59>
<meta message marker text='Trans' time=0>
<meta message set_tempo tempo=645161 time=18>
<meta message set_tempo tempo=659341 time=42>
<meta message set_tempo tempo=645161 time=90>
<meta message set_tempo tempo=659341 time=150>
<meta message set_tempo tempo=645161 time=90>
<meta message set_tempo tempo=631579 time=90>
<meta message set_tempo tempo=634921 time=28>
<meta message set_tempo tempo=638298 time=29>
<meta message set_tempo tempo=641711 time=28>
<meta message set_tempo tempo=645161 time=29>
<meta message set_tempo tempo=648649 time=28>
<meta message set_tempo tempo=652174 time=29>
<meta message set_tempo tempo=655738 time=28>
<meta message set_tempo tempo=659341 time=29>
<meta message set_tempo tempo=662983 time=28>
<meta message set_tempo tempo=666667 time=29>
<meta message set_tempo tempo=645161 time=1>
<meta message marker text='C1' time=194>
<meta message set_tempo tempo=631579 time=1740>
<meta message set_tempo tempo=634921 time=10>
<meta message set_tempo tempo=638298 time=11>
<meta message set_tempo tempo=641711 time=10>
<meta message set_tempo tempo=645161 time=11>
<meta message set_tempo tempo=648649 time=10>
<meta message set_tempo tempo=652174 time=11>
<meta message set_tempo tempo=655738 time=10>
<meta message set_tempo tempo=659341 time=11>
<meta message set_tempo tempo=662983 time=10>
<meta message set_tempo tempo=666667 time=11>
<meta message set_tempo tempo=648649 time=1>
<meta message set_tempo tempo=631579 time=1304>
<meta message set_tempo tempo=634921 time=49>
<meta message set_tempo tempo=638298 time=50>
<meta message set_tempo tempo=641711 time=49>
<meta message set_tempo tempo=645161 time=50>
<meta message set_tempo tempo=648649 time=49>
<meta message set_tempo tempo=652174 time=50>
<meta message set_tempo tempo=662983 time=49>
<meta message set_tempo tempo=674157 time=50>
<meta message set_tempo tempo=677966 time=49>
<meta message set_tempo tempo=666667 time=50>
<meta message set_tempo tempo=641711 time=1>
<meta message set_tempo tempo=685714 time=104>
<meta message set_tempo tempo=645161 time=30>
<meta message set_tempo tempo=652174 time=792>
<meta message set_tempo tempo=638298 time=708>
<meta message set_tempo tempo=641711 time=33>
<meta message set_tempo tempo=645161 time=34>
<meta message set_tempo tempo=648649 time=34>
<meta message set_tempo tempo=652174 time=34>
<meta message set_tempo tempo=655738 time=33>
<meta message set_tempo tempo=659341 time=34>
<meta message set_tempo tempo=662983 time=34>
<meta message set_tempo tempo=666667 time=34>
<meta message set_tempo tempo=652174 time=1>
<meta message set_tempo tempo=638298 time=959>
<meta message set_tempo tempo=641711 time=19>
<meta message set_tempo tempo=645161 time=20>
<meta message set_tempo tempo=648649 time=19>
<meta message set_tempo tempo=652174 time=20>
<meta message set_tempo tempo=655738 time=19>
<meta message set_tempo tempo=659341 time=20>
<meta message set_tempo tempo=662983 time=19>
<meta message set_tempo tempo=666667 time=20>
<meta message set_tempo tempo=670391 time=19>
<meta message set_tempo tempo=674157 time=20>
<meta message set_tempo tempo=652174 time=1>
<meta message set_tempo tempo=638298 time=284>
<meta message set_tempo tempo=641711 time=48>
<meta message set_tempo tempo=645161 time=49>
<meta message set_tempo tempo=648649 time=49>
<meta message set_tempo tempo=652174 time=49>
<meta message set_tempo tempo=655738 time=48>
<meta message set_tempo tempo=659341 time=49>
<meta message set_tempo tempo=662983 time=49>
<meta message set_tempo tempo=666667 time=49>
<meta message set_tempo tempo=670391 time=48>
<meta message set_tempo tempo=674157 time=49>
<meta message set_tempo tempo=677966 time=49>
<meta message set_tempo tempo=681818 time=49>
<meta message set_tempo tempo=648649 time=1>
<meta message marker text='D1' time=104>
<meta message set_tempo tempo=638298 time=240>
<meta message set_tempo tempo=641711 time=16>
<meta message set_tempo tempo=645161 time=16>
<meta message set_tempo tempo=648649 time=16>
<meta message set_tempo tempo=652174 time=17>
<meta message set_tempo tempo=655738 time=16>
<meta message set_tempo tempo=659341 time=16>
<meta message set_tempo tempo=662983 time=16>
<meta message set_tempo tempo=666667 time=17>
<meta message set_tempo tempo=648649 time=1>
<meta message set_tempo tempo=659341 time=2035>
<meta message set_tempo tempo=638298 time=744>
<meta message set_tempo tempo=641711 time=69>
<meta message set_tempo tempo=645161 time=69>
<meta message set_tempo tempo=648649 time=70>
<meta message set_tempo tempo=652174 time=69>
<meta message set_tempo tempo=655738 time=69>
<meta message set_tempo tempo=659341 time=70>
<meta message set_tempo tempo=662983 time=69>
<meta message set_tempo tempo=666667 time=70>
<meta message set_tempo tempo=659341 time=1>
<meta message set_tempo tempo=649210 time=17>
<meta message set_tempo tempo=631579 time=27>
<meta message set_tempo tempo=634921 time=31>
<meta message set_tempo tempo=638298 time=32>
<meta message set_tempo tempo=641711 time=31>
<meta message set_tempo tempo=645161 time=32>
<meta message set_tempo tempo=648649 time=31>
<meta message set_tempo tempo=652174 time=32>
<meta message set_tempo tempo=655738 time=31>
<meta message set_tempo tempo=659341 time=32>
<meta message set_tempo tempo=662983 time=31>
<meta message set_tempo tempo=666667 time=32>
<meta message set_tempo tempo=649210 time=1>
<meta message set_tempo tempo=631579 time=164>
<meta message set_tempo tempo=634921 time=27>
<meta message set_tempo tempo=638298 time=27>
<meta message set_tempo tempo=641711 time=27>
<meta message set_tempo tempo=645161 time=27>
<meta message set_tempo tempo=648649 time=27>
<meta message set_tempo tempo=652174 time=27>
<meta message set_tempo tempo=655738 time=27>
<meta message set_tempo tempo=659341 time=27>
<meta message set_tempo tempo=662983 time=27>
<meta message set_tempo tempo=666667 time=27>
<meta message set_tempo tempo=649210 time=1>
<meta message set_tempo tempo=645786 time=662>
<meta message set_tempo tempo=631579 time=507>
<meta message set_tempo tempo=634921 time=30>
<meta message set_tempo tempo=638298 time=30>
<meta message set_tempo tempo=641711 time=30>
<meta message set_tempo tempo=645161 time=30>
<meta message set_tempo tempo=648649 time=30>
<meta message set_tempo tempo=652174 time=30>
<meta message set_tempo tempo=655738 time=30>
<meta message set_tempo tempo=659341 time=30>
<meta message set_tempo tempo=662983 time=30>
<meta message set_tempo tempo=666667 time=30>
<meta message set_tempo tempo=645786 time=1>
<meta message set_tempo tempo=631579 time=179>
<meta message set_tempo tempo=634921 time=30>
<meta message set_tempo tempo=638298 time=30>
<meta message set_tempo tempo=641711 time=30>
<meta message set_tempo tempo=645161 time=30>
<meta message set_tempo tempo=648649 time=30>
<meta message set_tempo tempo=652174 time=30>
<meta message set_tempo tempo=655738 time=30>
<meta message set_tempo tempo=659341 time=30>
<meta message set_tempo tempo=662983 time=30>
<meta message set_tempo tempo=666667 time=30>
<meta message set_tempo tempo=645786 time=1>
<meta message set_tempo tempo=638298 time=539>
<meta message set_tempo tempo=641711 time=50>
<meta message set_tempo tempo=645161 time=50>
<meta message set_tempo tempo=648649 time=50>
<meta message set_tempo tempo=652174 time=50>
<meta message set_tempo tempo=655738 time=50>
<meta message set_tempo tempo=659341 time=50>
<meta message set_tempo tempo=662983 time=50>
<meta message set_tempo tempo=666667 time=50>
<meta message set_tempo tempo=670391 time=50>
<meta message set_tempo tempo=674157 time=50>
<meta message set_tempo tempo=677966 time=50>
<meta message set_tempo tempo=681818 time=50>
<meta message set_tempo tempo=660429 time=1>
<meta message set_tempo tempo=664158 time=11>
<meta message set_tempo tempo=645786 time=1>
<meta message set_tempo tempo=666667 time=318>
<meta message set_tempo tempo=600000 time=1>
<meta message end_of_track time=0>
<meta message midi_port port=0 time=0>
<meta message track_name name='The Easy Winners' time=0>
control_change channel=0 control=0 value=0 time=0
control_change channel=0 control=32 value=0 time=0
program_change channel=0 program=0 time=0
control_change channel=0 control=7 value=127 time=0
control_change channel=0 control=10 value=84 time=0
control_change channel=0 control=121 value=0 time=0
control_change channel=0 control=1 value=0 time=0
control_change channel=0 control=64 value=0 time=37
aftertouch channel=0 value=0 time=1
pitchwheel channel=0 pitch=0 time=0
control_change channel=0 control=93 value=12 time=5
control_change channel=0 control=91 value=21 time=0
control_change channel=0 control=10 value=63 time=196
note_on channel=0 note=63 velocity=71 time=1
<meta message lyrics text='The ' time=0>
control_change channel=0 control=10 value=72 time=59
note_on channel=0 note=72 velocity=95 time=1
<meta message lyrics text='Easy ' time=0>
note_on channel=0 note=63 velocity=0 time=7
note_on channel=0 note=72 velocity=0 time=73
note_on channel=0 note=70 velocity=71 time=12
<meta message lyrics text='Winners; ' time=0>
note_on channel=0 note=70 velocity=0 time=25
control_change channel=0 control=10 value=68 time=2
note_on channel=0 note=68 velocity=78 time=1
<meta message lyrics text='by ' time=0>
note_on channel=0 note=68 velocity=0 time=31
note_on channel=0 note=67 velocity=71 time=1
<meta message lyrics text='Scott ' time=0>
note_on channel=0 note=67 velocity=0 time=25
note_on channel=0 note=65 velocity=79 time=3
<meta message lyrics text='Joplin ' time=0>
control_change channel=0 control=10 value=63 time=31
note_on channel=0 note=63 velocity=96 time=1
<meta message lyrics text='; ' time=0>
note_on channel=0 note=65 velocity=0 time=9
note_on channel=0 note=63 velocity=0 time=41
note_on channel=0 note=61 velocity=71 time=10
<meta message lyrics text='Sequenced ' time=0>
note_on channel=0 note=60 velocity=87 time=28
<meta message lyrics text='by ' time=0>
note_on channel=0 note=61 velocity=0 time=3
control_change channel=0 control=10 value=58 time=56
note_on channel=0 note=58 velocity=81 time=1
<meta message lyrics text='Warren ' time=0>
note_on channel=0 note=60 velocity=0 time=7
note_on channel=0 note=58 velocity=0 time=24
note_on channel=0 note=56 velocity=71 time=1
<meta message lyrics text='S. ' time=0>
note_on channel=0 note=56 velocity=0 time=25
note_on channel=0 note=55 velocity=82 time=3
<meta message lyrics text='Trachtman ' time=0>
note_on channel=0 note=56 velocity=79 time=32
<meta message lyrics text='(rev3/98) ' time=0>
note_on channel=0 note=58 velocity=87 time=28
<meta message lyrics text='; ' time=0>
<meta message lyrics text='\r' time=0>
note_on channel=0 note=55 velocity=0 time=2
note_on channel=0 note=56 velocity=0 time=16
note_on channel=0 note=60 velocity=81 time=14
note_on channel=0 note=58 velocity=0 time=25
note_on channel=0 note=61 velocity=95 time=3
note_on channel=0 note=60 velocity=0 time=18
control_change channel=0 control=10 value=63 time=13
note_on channel=0 note=63 velocity=84 time=1
note_on channel=0 note=65 velocity=97 time=28
note_on channel=0 note=61 velocity=0 time=2
note_on channel=0 note=63 velocity=0 time=27
control_change channel=0 control=10 value=67 time=2
note_on channel=0 note=67 velocity=88 time=1
note_on channel=0 note=65 velocity=0 time=14
note_on channel=0 note=68 velocity=105 time=14
note_on channel=0 note=67 velocity=0 time=29
note_on channel=0 note=68 velocity=0 time=54
note_on channel=0 note=68 velocity=78 time=157
note_on channel=0 note=72 velocity=78 time=0
note_on channel=0 note=72 velocity=0 time=54
note_on channel=0 note=68 velocity=0 time=0
note_on channel=0 note=68 velocity=61 time=6
note_on channel=0 note=72 velocity=61 time=0
note_on channel=0 note=72 velocity=0 time=80
note_on channel=0 note=68 velocity=0 time=0
control_change channel=0 control=10 value=73 time=39
note_on channel=0 note=72 velocity=61 time=1
note_on channel=0 note=75 velocity=61 time=0
note_on channel=0 note=75 velocity=0 time=40
note_on channel=0 note=72 velocity=0 time=0
note_on channel=0 note=77 velocity=81 time=20
note_on channel=0 note=71 velocity=81 time=0
note_on channel=0 note=72 velocity=61 time=32
note_on channel=0 note=75 velocity=61 time=0
note_on channel=0 note=71 velocity=0 time=18
note_on channel=0 note=77 velocity=0 time=0
note_on channel=0 note=72 velocity=0 time=22
note_on channel=0 note=75 velocity=0 time=0
note_on channel=0 note=77 velocity=63 time=20
note_on channel=0 note=71 velocity=63 time=0
note_on channel=0 note=72 velocity=83 time=28
note_on channel=0 note=75 velocity=83 time=0
note_on channel=0 note=71 velocity=0 time=18
note_on channel=0 note=77 velocity=0 time=0
note_on channel=0 note=72 velocity=0 time=9
note_on channel=0 note=75 velocity=0 time=0
note_on channel=0 note=71 velocity=57 time=5
note_on channel=0 note=77 velocity=57 time=0
note_on channel=0 note=75 velocity=68 time=28
note_on channel=0 note=72 velocity=68 time=0
note_on channel=0 note=77 velocity=0 time=18
note_on channel=0 note=71 velocity=0 time=0
note_on channel=0 note=75 velocity=0 time=22
note_on channel=0 note=72 velocity=0 time=0
control_change channel=0 control=10 value=79 time=19
note_on channel=0 note=82 velocity=82 time=1
note_on channel=0 note=76 velocity=82 time=0
note_on channel=0 note=80 velocity=71 time=32
note_on channel=0 note=77 velocity=71 time=0
note_on channel=0 note=76 velocity=0 time=18
note_on channel=0 note=82 velocity=0 time=0
note_on channel=0 note=80 velocity=0 time=22
note_on channel=0 note=77 velocity=0 time=0
note_on channel=0 note=76 velocity=62 time=20
note_on channel=0 note=82 velocity=62 time=0
note_on channel=0 note=77 velocity=83 time=28
note_on channel=0 note=80 velocity=83 time=0
note_on channel=0 note=82 velocity=0 time=18
note_on channel=0 note=76 velocity=0 time=0
note_on channel=0 note=77 velocity=0 time=14
note_on channel=0 note=80 velocity=0 time=0
note_on channel=0 note=76 velocity=62 time=0
note_on channel=0 note=82 velocity=62 time=0
note_on channel=0 note=80 velocity=69 time=28
note_on channel=0 note=77 velocity=69 time=0
note_on channel=0 note=82 velocity=0 time=18
note_on channel=0 note=76 velocity=0 time=0
note_on channel=0 note=80 velocity=0 time=6
note_on channel=0 note=77 velocity=0 time=0
control_change channel=0 control=10 value=73 time=7
note_on channel=0 note=75 velocity=85 time=1
note_on channel=0 note=72 velocity=85 time=0
control_change channel=0 control=10 value=63 time=87
note_on channel=0 note=63 velocity=67 time=1
note_on channel=0 note=65 velocity=53 time=32
note_on channel=0 note=63 velocity=0 time=14
control_change channel=0 control=10 value=67 time=13
note_on channel=0 note=67 velocity=61 time=1
note_on channel=0 note=65 velocity=0 time=18
note_on channel=0 note=68 velocity=56 time=14
note_on channel=0 note=75 velocity=0 time=10
note_on channel=0 note=72 velocity=0 time=0
note_on channel=0 note=67 velocity=0 time=13
note_on channel=0 note=70 velocity=69 time=5
note_on channel=0 note=68 velocity=0 time=18
control_change channel=0 control=10 value=71 time=13
note_on channel=0 note=71 velocity=61 time=1
note_on channel=0 note=70 velocity=0 time=14
note_on channel=0 note=68 velocity=73 time=14
note_on channel=0 note=72 velocity=73 time=0
note_on channel=0 note=71 velocity=0 time=3
note_on channel=0 note=72 velocity=0 time=51
note_on channel=0 note=68 velocity=0 time=0
note_on channel=0 note=72 velocity=61 time=6
note_on channel=0 note=68 velocity=61 time=0
note_on channel=0 note=68 velocity=0 time=80
note_on channel=0 note=72 velocity=0 time=0
note_on channel=0 note=75 velocity=64 time=40
note_on channel=0 note=72 velocity=64 time=0
note_on channel=0 note=72 velocity=0 time=40
note_on channel=0 note=75 velocity=0 time=0
note_on channel=0 note=71 velocity=77 time=20
note_on channel=0 note=77 velocity=77 time=0
note_on channel=0 note=75 velocity=61 time=32
note_on channel=0 note=72 velocity=61 time=0
note_on channel=0 note=77 velocity=0 time=18
note_on channel=0 note=71 velocity=0 time=0
note_on channel=0 note=75 velocity=0 time=22
note_on channel=0 note=72 velocity=0 time=0
note_on channel=0 note=77 velocity=70 time=20
note_on channel=0 note=71 velocity=70 time=0
note_on channel=0 note=72 velocity=83 time=28
note_on channel=0 note=75 velocity=83 time=0
note_on channel=0 note=71 velocity=0 time=18
note_on channel=0 note=77 velocity=0 time=0
note_on channel=0 note=72 velocity=0 time=9
note_on channel=0 note=75 velocity=0 time=0
note_on channel=0 note=72 velocity=76 time=5
note_on channel=0 note=75 velocity=76 time=0
note_on channel=0 note=75 velocity=0 time=20
note_on channel=0 note=72 velocity=0 time=0
note_on channel=0 note=72 velocity=62 time=8
note_on channel=0 note=75 velocity=62 time=0
note_on channel=0 note=75 velocity=0 time=40
note_on channel=0 note=72 velocity=0 time=0
control_change channel=0 control=10 value=75 time=19
note_on channel=0 note=75 velocity=83 time=1
control_change channel=0 control=10 value=68 time=31
note_on channel=0 note=70 velocity=67 time=1
note_on channel=0 note=67 velocity=67 time=0
note_on channel=0 note=75 velocity=0 time=9
note_on channel=0 note=70 velocity=0 time=31
control_change channel=0 control=10 value=75 time=19
note_on channel=0 note=67 velocity=0 time=1
note_on channel=0 note=75 velocity=71 time=0
note_on channel=0 note=75 velocity=0 time=20
control_change channel=0 control=10 value=71 time=7
note_on channel=0 note=68 velocity=83 time=1
note_on channel=0 note=74 velocity=83 time=0
control_change channel=0 control=10 value=75 time=31
note_on channel=0 note=75 velocity=69 time=1
note_on channel=0 note=74 velocity=0 time=9
note_on channel=0 note=68 velocity=0 time=13
note_on channel=0 note=77 velocity=73 time=6
note_on channel=0 note=68 velocity=73 time=0
note_on channel=0 note=75 velocity=0 time=3
control_change channel=0 control=10 value=71 time=56
note_on channel=0 note=67 velocity=81 time=1
note_on channel=0 note=75 velocity=81 time=0
note_on channel=0 note=68 velocity=0 time=1
note_on channel=0 note=77 velocity=0 time=0
note_on channel=0 note=67 velocity=0 time=139
note_on channel=0 note=75 velocity=0 time=0
control_change channel=0 control=10 value=63 time=11
note_on channel=0 note=63 velocity=61 time=1
control_change channel=0 control=10 value=67 time=27
note_on channel=0 note=67 velocity=73 time=1
note_on channel=0 note=63 velocity=0 time=3
control_change channel=0 control=10 value=73 time=28
note_on channel=0 note=73 velocity=61 time=1
note_on channel=0 note=67 velocity=0 time=6
note_on channel=0 note=72 velocity=81 time=22
note_on channel=0 note=68 velocity=81 time=0
note_on channel=0 note=73 velocity=0 time=3
note_on channel=0 note=68 velocity=0 time=51
note_on channel=0 note=72 velocity=0 time=0
note_on channel=0 note=72 velocity=64 time=6
note_on channel=0 note=68 velocity=64 time=0
note_on channel=0 note=68 velocity=0 time=80
note_on channel=0 note=72 velocity=0 time=0
note_on channel=0 note=72 velocity=65 time=40
note_on channel=0 note=75 velocity=65 time=0
note_on channel=0 note=75 velocity=0 time=40
note_on channel=0 note=72 velocity=0 time=0
note_on channel=0 note=71 velocity=83 time=20
note_on channel=0 note=77 velocity=83 time=0
note_on channel=0 note=72 velocity=61 time=32
note_on channel=0 note=75 velocity=61 time=0
note_on channel=0 note=77 velocity=0 time=18
note_on channel=0 note=71 velocity=0 time=0
note_on channel=0 note=72 velocity=0 time=22
note_on channel=0 note=75 velocity=0 time=0
note_on channel=0 note=77 velocity=73 time=20
note_on channel=0 note=71 velocity=73 time=0
note_on channel=0 note=75 velocity=84 time=28
note_on channel=0 note=72 velocity=84 time=0
note_on channel=0 note=71 velocity=0 time=18
note_on channel=0 note=77 velocity=0 time=0
note_on channel=0 note=75 velocity=0 time=9
note_on channel=0 note=72 velocity=0 time=0
note_on channel=0 note=71 velocity=65 time=5
note_on channel=0 note=77 velocity=65 time=0
note_on channel=0 note=72 velocity=70 time=28
note_on channel=0 note=75 velocity=70 time=0
note_on channel=0 note=77 velocity=0 time=18
note_on channel=0 note=71 velocity=0 time=0
note_on channel=0 note=72 velocity=0 time=22
note_on channel=0 note=75 velocity=0 time=0
control_change channel=0 control=10 value=79 time=19
note_on channel=0 note=76 velocity=83 time=1
note_on channel=0 note=82 velocity=83 time=0
note_on channel=0 note=80 velocity=64 time=32
note_on channel=0 note=77 velocity=64 time=0
note_on channel=0 note=82 velocity=0 time=18
note_on channel=0 note=76 velocity=0 time=0
note_on channel=0 note=80 velocity=0 time=22
note_on channel=0 note=77 velocity=0 time=0
note_on channel=0 note=82 velocity=71 time=20
note_on channel=0 note=76 velocity=71 time=0
note_on channel=0 note=80 velocity=83 time=28
note_on channel=0 note=77 velocity=83 time=0
note_on channel=0 note=76 velocity=0 time=18
note_on channel=0 note=82 velocity=0 time=0
note_on channel=0 note=80 velocity=0 time=7
note_on channel=0 note=77 velocity=0 time=0
note_on channel=0 note=77 velocity=65 time=7
note_on channel=0 note=80 velocity=65 time=0
note_on channel=0 note=80 velocity=0 time=20
note_on channel=0 note=77 velocity=0 time=0
note_on channel=0 note=79 velocity=71 time=8
note_on channel=0 note=82 velocity=71 time=0
note_on channel=0 note=77 velocity=71 time=0
note_on channel=0 note=79 velocity=0 time=20
note_on channel=0 note=84 velocity=93 time=12
note_on channel=0 note=76 velocity=93 time=0
note_on channel=0 note=79 velocity=93 time=0
note_on channel=0 note=77 velocity=0 time=6
note_on channel=0 note=82 velocity=0 time=0
control_change channel=0 control=10 value=72 time=53
note_on channel=0 note=72 velocity=67 time=1
note_on channel=0 note=76 velocity=0 time=10
note_on channel=0 note=79 velocity=0 time=0
control_change channel=0 control=10 value=76 time=17
note_on channel=0 note=76 velocity=74 time=1
note_on channel=0 note=72 velocity=0 time=18
note_on channel=0 note=84 velocity=0 time=11
note_on channel=0 note=79 velocity=70 time=3
note_on channel=0 note=76 velocity=0 time=26
control_change channel=0 control=10 value=84 time=1
note_on channel=0 note=84 velocity=92 time=1
note_on channel=0 note=79 velocity=0 time=19
note_on channel=0 note=84 velocity=0 time=35
control_change channel=0 control=10 value=79 time=5
note_on channel=0 note=79 velocity=68 time=1
note_on channel=0 note=80 velocity=61 time=32
note_on channel=0 note=79 velocity=0 time=15
note_on channel=0 note=82 velocity=83 time=13
note_on channel=0 note=76 velocity=83 time=0
note_on channel=0 note=80 velocity=0 time=3
note_on channel=0 note=80 velocity=67 time=29
note_on channel=0 note=77 velocity=67 time=0
note_on channel=0 note=76 velocity=0 time=18
note_on channel=0 note=82 velocity=0 time=0
note_on channel=0 note=80 velocity=0 time=22
note_on channel=0 note=77 velocity=0 time=0
note_on channel=0 note=82 velocity=68 time=20
note_on channel=0 note=76 velocity=68 time=0
note_on channel=0 note=77 velocity=83 time=28
note_on channel=0 note=80 velocity=83 time=0
note_on channel=0 note=76 velocity=0 time=18
note_on channel=0 note=82 velocity=0 time=0
note_on channel=0 note=77 velocity=0 time=9
note_on channel=0 note=80 velocity=0 time=0
note_on channel=0 note=82 velocity=68 time=5
note_on channel=0 note=76 velocity=68 time=0
note_on channel=0 note=77 velocity=70 time=28
note_on channel=0 note=80 velocity=70 time=0
note_on channel=0 note=76 velocity=0 time=18
note_on channel=0 note=82 velocity=0 time=0
note_on channel=0 note=77 velocity=0 time=2
note_on channel=0 note=80 velocity=0 time=0
control_change channel=0 control=10 value=73 time=11
note_on channel=0 note=75 velocity=99 time=1
note_on channel=0 note=72 velocity=99 time=0
note_on channel=0 note=72 velocity=0 time=50
note_on channel=0 note=75 velocity=0 time=0
note_on channel=0 note=77 velocity=69 time=10
note_on channel=0 note=73 velocity=69 time=0
note_on channel=0 note=73 velocity=0 time=20
note_on channel=0 note=77 velocity=0 time=0
note_on channel=0 note=72 velocity=82 time=8
note_on channel=0 note=75 velocity=82 time=0
note_on channel=0 note=75 velocity=0 time=31
note_on channel=0 note=72 velocity=0 time=0
note_on channel=0 note=70 velocity=62 time=1
note_on channel=0 note=73 velocity=62 time=0
note_on channel=0 note=73 velocity=0 time=20
note_on channel=0 note=70 velocity=0 time=0
note_on channel=0 note=68 velocity=69 time=8
note_on channel=0 note=72 velocity=69 time=0
note_on channel=0 note=72 velocity=0 time=27
note_on channel=0 note=75 velocity=84 time=5
note_on channel=0 note=72 velocity=84 time=0
note_on channel=0 note=68 velocity=0 time=9
note_on channel=0 note=72 velocity=0 time=31
note_on channel=0 note=75 velocity=0 time=0
note_on channel=0 note=72 velocity=64 time=20
note_on channel=0 note=75 velocity=64 time=0
note_on channel=0 note=75 velocity=0 time=20
note_on channel=0 note=72 velocity=0 time=0
note_on channel=0 note=75 velocity=82 time=8
note_on channel=0 note=69 velocity=82 time=0
note_on channel=0 note=73 velocity=69 time=32
note_on channel=0 note=70 velocity=69 time=0
note_on channel=0 note=69 velocity=0 time=18
note_on channel=0 note=75 velocity=0 time=0
note_on channel=0 note=73 velocity=0 time=22
note_on channel=0 note=70 velocity=0 time=0
note_on channel=0 note=69 velocity=78 time=20
note_on channel=0 note=75 velocity=78 time=0
note_on channel=0 note=73 velocity=87 time=28
note_on channel=0 note=70 velocity=87 time=0
note_on channel=0 note=75 velocity=0 time=18
note_on channel=0 note=69 velocity=0 time=0
control_change channel=0 control=10 value=66 time=13
note_on channel=0 note=67 velocity=66 time=1
note_on channel=0 note=61 velocity=66 time=0
note_on channel=0 note=72 velocity=66 time=0
note_on channel=0 note=73 velocity=0 time=9
note_on channel=0 note=70 velocity=0 time=0
note_on channel=0 note=61 velocity=0 time=11
note_on channel=0 note=67 velocity=0 time=0
note_on channel=0 note=70 velocity=75 time=8
note_on channel=0 note=61 velocity=75 time=0
note_on channel=0 note=67 velocity=75 time=0
note_on channel=0 note=72 velocity=0 time=10
note_on channel=0 note=70 velocity=0 time=40
note_on channel=0 note=61 velocity=0 time=0
note_on channel=0 note=67 velocity=0 time=0
note_on channel=0 note=60 velocity=84 time=10
note_on channel=0 note=68 velocity=84 time=0
note_on channel=0 note=68 velocity=0 time=160
note_on channel=0 note=60 velocity=0 time=0
control_change channel=0 control=10 value=70 time=79
note_on channel=0 note=68 velocity=91 time=1
note_on channel=0 note=72 velocity=91 time=0
note_on channel=0 note=72 velocity=0 time=54
note_on channel=0 note=68 velocity=0 time=0
note_on channel=0 note=68 velocity=70 time=6
note_on channel=0 note=72 velocity=70 time=0
note_on channel=0 note=72 velocity=0 time=80
note_on channel=0 note=68 velocity=0 time=0
note_on channel=0 note=75 velocity=70 time=40
note_on channel=0 note=72 velocity=70 time=0
note_on channel=0 note=72 velocity=0 time=40
note_on channel=0 note=75 velocity=0 time=0
control_change channel=0 control=10 value=74 time=19
note_on channel=0 note=71 velocity=94 time=1
note_on channel=0 note=77 velocity=94 time=0
note_on channel=0 note=72 velocity=70 time=32
note_on channel=0 note=75 velocity=70 time=0
note_on channel=0 note=77 velocity=0 time=18
note_on channel=0 note=71 velocity=0 time=0
note_on channel=0 note=72 velocity=0 time=22
note_on channel=0 note=75 velocity=0 time=0
note_on channel=0 note=71 velocity=75 time=20
note_on channel=0 note=77 velocity=75 time=0
note_on channel=0 note=72 velocity=96 time=28
note_on channel=0 note=75 velocity=96 time=0
note_on channel=0 note=77 velocity=0 time=18
note_on channel=0 note=71 velocity=0 time=0
note_on channel=0 note=72 velocity=0 time=9
note_on channel=0 note=75 velocity=0 time=0
note_on channel=0 note=77 velocity=68 time=5
note_on channel=0 note=71 velocity=68 time=0
note_on channel=0 note=75 velocity=80 time=28
note_on channel=0 note=72 velocity=80 time=0
note_on channel=0 note=71 velocity=0 time=18
note_on channel=0 note=77 velocity=0 time=0
note_on channel=0 note=75 velocity=0 time=22
note_on channel=0 note=72 velocity=0 time=0
control_change channel=0 control=10 value=79 time=19
note_on channel=0 note=82 velocity=100 time=1
note_on channel=0 note=76 velocity=100 time=0
note_on channel=0 note=80 velocity=89 time=32
note_on channel=0 note=77 velocity=89 time=0
note_on channel=0 note=76 velocity=0 time=18
note_on channel=0 note=82 velocity=0 time=0
note_on channel=0 note=80 velocity=0 time=22
note_on channel=0 note=77 velocity=0 time=0
note_on channel=0 note=76 velocity=77 time=20
note_on channel=0 note=82 velocity=77 time=0
note_on channel=0 note=80 velocity=101 time=28
note_on channel=0 note=77 velocity=101 time=0
note_on channel=0 note=82 velocity=0 time=18
note_on channel=0 note=76 velocity=0 time=0
note_on channel=0 note=80 velocity=0 time=14
note_on channel=0 note=77 velocity=0 time=0
note_on channel=0 note=76 velocity=77 time=0
note_on channel=0 note=82 velocity=77 time=0
note_on channel=0 note=77 velocity=85 time=28
note_on channel=0 note=80 velocity=85 time=0
note_on channel=0 note=82 velocity=0 time=18
note_on channel=0 note=76 velocity=0 time=0
note_on channel=0 note=77 velocity=0 time=6
note_on channel=0 note=80 velocity=0 time=0
control_change channel=0 control=10 value=73 time=7
note_on channel=0 note=75 velocity=103 time=1
note_on channel=0 note=72 velocity=103 time=0
control_change channel=0 control=10 value=63 time=87
note_on channel=0 note=63 velocity=78 time=1
note_on channel=0 note=65 velocity=63 time=32
note_on channel=0 note=63 velocity=0 time=14
control_change channel=0 control=10 value=67 time=13
note_on channel=0 note=67 velocity=70 time=1
note_on channel=0 note=65 velocity=0 time=18
note_on channel=0 note=68 velocity=67 time=14
note_on channel=0 note=75 velocity=0 time=10
note_on channel=0 note=72 velocity=0 time=0
note_on channel=0 note=70 velocity=81 time=18
note_on channel=0 note=67 velocity=0 time=2
note_on channel=0 note=68 velocity=0 time=16
control_change channel=0 control=10 value=71 time=13
note_on channel=0 note=71 velocity=70 time=1
note_on channel=0 note=70 velocity=0 time=14
note_on channel=0 note=72 velocity=98 time=14
note_on channel=0 note=68 velocity=98 time=0
note_on channel=0 note=71 velocity=0 time=3
note_on channel=0 note=68 velocity=0 time=51
note_on channel=0 note=72 velocity=0 time=0
note_on channel=0 note=68 velocity=80 time=6
note_on channel=0 note=72 velocity=80 time=0
note_on channel=0 note=72 velocity=0 time=80
note_on channel=0 note=68 velocity=0 time=0
note_on channel=0 note=75 velocity=76 time=40
note_on channel=0 note=72 velocity=76 time=0
note_on channel=0 note=72 velocity=0 time=40
note_on channel=0 note=75 velocity=0 time=0
note_on channel=0 note=77 velocity=90 time=20
note_on channel=0 note=71 velocity=90 time=0
note_on channel=0 note=75 velocity=70 time=32
note_on channel=0 note=72 velocity=70 time=0
note_on channel=0 note=71 velocity=0 time=18
note_on channel=0 note=77 velocity=0 time=0
note_on channel=0 note=75 velocity=0 time=22
note_on channel=0 note=72 velocity=0 time=0
note_on channel=0 note=77 velocity=82 time=20
note_on channel=0 note=71 velocity=82 time=0
note_on channel=0 note=72 velocity=96 time=28
note_on channel=0 note=75 velocity=96 time=0
note_on channel=0 note=71 velocity=0 time=18
note_on channel=0 note=77 velocity=0 time=0
note_on channel=0 note=72 velocity=0 time=9
note_on channel=0 note=75 velocity=0 time=0
note_on channel=0 note=75 velocity=88 time=5
note_on channel=0 note=72 velocity=88 time=0
note_on channel=0 note=72 velocity=0 time=20
note_on channel=0 note=75 velocity=0 time=0
note_on channel=0 note=72 velocity=77 time=8
note_on channel=0 note=75 velocity=77 time=0
note_on channel=0 note=75 velocity=0 time=40
note_on channel=0 note=72 velocity=0 time=0
control_change channel=0 control=10 value=75 time=19
note_on channel=0 note=75 velocity=101 time=1
control_change channel=0 control=10 value=68 time=31
note_on channel=0 note=67 velocity=82 time=1
note_on channel=0 note=70 velocity=82 time=0
note_on channel=0 note=75 velocity=0 time=9
note_on channel=0 note=70 velocity=0 time=31
control_change channel=0 control=10 value=75 time=19
note_on channel=0 note=67 velocity=0 time=1
note_on channel=0 note=75 velocity=87 time=0
note_on channel=0 note=75 velocity=0 time=20
control_change channel=0 control=10 value=71 time=7
note_on channel=0 note=74 velocity=101 time=1
note_on channel=0 note=68 velocity=101 time=0
control_change channel=0 control=10 value=75 time=31
note_on channel=0 note=75 velocity=85 time=1
note_on channel=0 note=74 velocity=0 time=9
note_on channel=0 note=68 velocity=0 time=13
note_on channel=0 note=68 velocity=91 time=6
note_on channel=0 note=77 velocity=91 time=0
note_on channel=0 note=75 velocity=0 time=3
control_change channel=0 control=10 value=71 time=56
note_on channel=0 note=75 velocity=99 time=1
note_on channel=0 note=67 velocity=99 time=0
note_on channel=0 note=77 velocity=0 time=1
note_on channel=0 note=68 velocity=0 time=0
note_on channel=0 note=75 velocity=0 time=139
note_on channel=0 note=67 velocity=0 time=0
control_change channel=0 control=10 value=63 time=11
note_on channel=0 note=63 velocity=70 time=1
control_change channel=0 control=10 value=67 time=27
note_on channel=0 note=67 velocity=86 time=1
note_on channel=0 note=63 velocity=0 time=3
control_change channel=0 control=10 value=73 time=28
note_on channel=0 note=73 velocity=70 time=1
note_on channel=0 note=67 velocity=0 time=6
note_on channel=0 note=72 velocity=94 time=22
note_on channel=0 note=68 velocity=94 time=0
note_on channel=0 note=73 velocity=0 time=3
note_on channel=0 note=68 velocity=0 time=51
note_on channel=0 note=72 velocity=0 time=0
note_on channel=0 note=68 velocity=76 time=6
note_on channel=0 note=72 velocity=76 time=0
note_on channel=0 note=72 velocity=0 time=80
note_on channel=0 note=68 velocity=0 time=0
note_on channel=0 note=72 velocity=77 time=40
note_on channel=0 note=75 velocity=77 time=0
note_on channel=0 note=75 velocity=0 time=40
note_on channel=0 note=72 velocity=0 time=0
note_on channel=0 note=71 velocity=96 time=20
note_on channel=0 note=77 velocity=96 time=0
note_on channel=0 note=72 velocity=70 time=32
note_on channel=0 note=75 velocity=70 time=0
note_on channel=0 note=77 velocity=0 time=18
note_on channel=0 note=71 velocity=0 time=0
note_on channel=0 note=72 velocity=0 time=22
note_on channel=0 note=75 velocity=0 time=0
note_on channel=0 note=71 velocity=86 time=20
note_on channel=0 note=77 velocity=86 time=0
note_on channel=0 note=75 velocity=97 time=28
note_on channel=0 note=72 velocity=97 time=0
note_on channel=0 note=77 velocity=0 time=18
note_on channel=0 note=71 velocity=0 time=0
note_on channel=0 note=75 velocity=0 time=9
note_on channel=0 note=72 velocity=0 time=0
note_on channel=0 note=71 velocity=77 time=5
note_on channel=0 note=77 velocity=77 time=0
note_on channel=0 note=72 velocity=82 time=28
note_on channel=0 note=75 velocity=82 time=0
note_on channel=0 note=77 velocity=0 time=18
note_on channel=0 note=71 velocity=0 time=0
note_on channel=0 note=72 velocity=0 time=22
note_on channel=0 note=75 velocity=0 time=0
control_change channel=0 control=10 value=79 time=19
note_on channel=0 note=76 velocity=92 time=1
note_on channel=0 note=82 velocity=92 time=0
note_on channel=0 note=80 velocity=72 time=32
note_on channel=0 note=77 velocity=72 time=0
note_on channel=0 note=82 velocity=0 time=18
note_on channel=0 note=76 velocity=0 time=0
note_on channel=0 note=80 velocity=0 time=22
note_on channel=0 note=77 velocity=0 time=0
note_on channel=0 note=82 velocity=82 time=20
note_on channel=0 note=76 velocity=82 time=0
note_on channel=0 note=77 velocity=94 time=28
note_on channel=0 note=80 velocity=94 time=0
note_on channel=0 note=76 velocity=0 time=18
note_on channel=0 note=82 velocity=0 time=0
note_on channel=0 note=77 velocity=0 time=7
note_on channel=0 note=80 velocity=0 time=0
note_on channel=0 note=80 velocity=76 time=7
note_on channel=0 note=77 velocity=76 time=0
note_on channel=0 note=77 velocity=0 time=20
note_on channel=0 note=80 velocity=0 time=0
note_on channel=0 note=82 velocity=84 time=8
note_on channel=0 note=77 velocity=84 time=0
note_on channel=0 note=79 velocity=84 time=0
note_on channel=0 note=79 velocity=0 time=20
note_on channel=0 note=79 velocity=96 time=12
note_on channel=0 note=84 velocity=96 time=0
note_on channel=0 note=76 velocity=96 time=0
note_on channel=0 note=77 velocity=0 time=6
note_on channel=0 note=82 velocity=0 time=0
control_change channel=0 control=10 value=72 time=53
note_on channel=0 note=72 velocity=79 time=1
note_on channel=0 note=76 velocity=0 time=10
note_on channel=0 note=79 velocity=0 time=0
control_change channel=0 control=10 value=76 time=17
note_on channel=0 note=76 velocity=88 time=1
note_on channel=0 note=72 velocity=0 time=18
note_on channel=0 note=84 velocity=0 time=11
note_on channel=0 note=79 velocity=84 time=3
note_on channel=0 note=76 velocity=0 time=26
control_change channel=0 control=10 value=84 time=1
note_on channel=0 note=84 velocity=108 time=1
note_on channel=0 note=79 velocity=0 time=19
note_on channel=0 note=84 velocity=0 time=35
control_change channel=0 control=10 value=79 time=5
note_on channel=0 note=79 velocity=80 time=1
note_on channel=0 note=80 velocity=70 time=32
note_on channel=0 note=79 velocity=0 time=15
note_on channel=0 note=82 velocity=92 time=13
note_on channel=0 note=76 velocity=92 time=0
note_on channel=0 note=80 velocity=0 time=3
note_on channel=0 note=80 velocity=74 time=29
note_on channel=0 note=77 velocity=74 time=0
note_on channel=0 note=76 velocity=0 time=18
note_on channel=0 note=82 velocity=0 time=0
note_on channel=0 note=80 velocity=0 time=22
note_on channel=0 note=77 velocity=0 time=0
note_on channel=0 note=82 velocity=76 time=20
note_on channel=0 note=76 velocity=76 time=0
note_on channel=0 note=77 velocity=92 time=28
note_on channel=0 note=80 velocity=92 time=0
note_on channel=0 note=76 velocity=0 time=18
note_on channel=0 note=82 velocity=0 time=0
note_on channel=0 note=77 velocity=0 time=9
note_on channel=0 note=80 velocity=0 time=0
note_on channel=0 note=82 velocity=76 time=5
note_on channel=0 note=76 velocity=76 time=0
note_on channel=0 note=77 velocity=78 time=28
note_on channel=0 note=80 velocity=78 time=0
note_on channel=0 note=76 velocity=0 time=18
note_on channel=0 note=82 velocity=0 time=0
note_on channel=0 note=77 velocity=0 time=2
note_on channel=0 note=80 velocity=0 time=0
control_change channel=0 control=10 value=73 time=11
note_on channel=0 note=72 velocity=96 time=1
note_on channel=0 note=75 velocity=96 time=0
note_on channel=0 note=75 velocity=0 time=50
note_on channel=0 note=72 velocity=0 time=0
note_on channel=0 note=77 velocity=77 time=10
note_on channel=0 note=73 velocity=77 time=0
note_on channel=0 note=73 velocity=0 time=20
note_on channel=0 note=77 velocity=0 time=0
note_on channel=0 note=75 velocity=91 time=8
note_on channel=0 note=72 velocity=91 time=0
note_on channel=0 note=72 velocity=0 time=31
note_on channel=0 note=75 velocity=0 time=0
note_on channel=0 note=73 velocity=70 time=1
note_on channel=0 note=70 velocity=70 time=0
note_on channel=0 note=70 velocity=0 time=20
note_on channel=0 note=73 velocity=0 time=0
note_on channel=0 note=68 velocity=77 time=8
note_on channel=0 note=72 velocity=77 time=0
note_on channel=0 note=72 velocity=0 time=27
note_on channel=0 note=75 velocity=93 time=5
note_on channel=0 note=72 velocity=93 time=0
note_on channel=0 note=68 velocity=0 time=9
note_on channel=0 note=72 velocity=0 time=31
note_on channel=0 note=75 velocity=0 time=0
note_on channel=0 note=72 velocity=76 time=20
note_on channel=0 note=75 velocity=76 time=0
note_on channel=0 note=75 velocity=0 time=20
note_on channel=0 note=72 velocity=0 time=0
note_on channel=0 note=75 velocity=95 time=8
note_on channel=0 note=69 velocity=95 time=0
note_on channel=0 note=73 velocity=81 time=32
note_on channel=0 note=70 velocity=81 time=0
note_on channel=0 note=69 velocity=0 time=18
note_on channel=0 note=75 velocity=0 time=0
note_on channel=0 note=73 velocity=0 time=22
note_on channel=0 note=70 velocity=0 time=0
note_on channel=0 note=69 velocity=91 time=20
note_on channel=0 note=75 velocity=91 time=0
note_on channel=0 note=73 velocity=100 time=28
note_on channel=0 note=70 velocity=100 time=0
note_on channel=0 note=75 velocity=0 time=18
note_on channel=0 note=69 velocity=0 time=0
control_change channel=0 control=10 value=66 time=13
note_on channel=0 note=61 velocity=78 time=1
note_on channel=0 note=67 velocity=78 time=0
note_on channel=0 note=72 velocity=78 time=0
note_on channel=0 note=73 velocity=0 time=9
note_on channel=0 note=70 velocity=0 time=0
note_on channel=0 note=67 velocity=0 time=11
note_on channel=0 note=61 velocity=0 time=0
note_on channel=0 note=61 velocity=88 time=8
note_on channel=0 note=70 velocity=88 time=0
note_on channel=0 note=67 velocity=88 time=0
note_on channel=0 note=72 velocity=0 time=10
note_on channel=0 note=61 velocity=0 time=40
note_on channel=0 note=70 velocity=0 time=0
note_on channel=0 note=67 velocity=0 time=0
note_on channel=0 note=60 velocity=96 time=10
note_on channel=0 note=68 velocity=96 time=0
note_on channel=0 note=68 velocity=0 time=107
note_on channel=0 note=60 velocity=0 time=0
control_change channel=0 control=10 value=73 time=12
note_on channel=0 note=80 velocity=108 time=1
note_on channel=0 note=75 velocity=108 time=0
note_on channel=0 note=72 velocity=108 time=0
note_on channel=0 note=68 velocity=108 time=0
note_on channel=0 note=68 velocity=0 time=54
note_on channel=0 note=80 velocity=0 time=0
note_on channel=0 note=75 velocity=0 time=0
note_on channel=0 note=72 velocity=0 time=0
control_change channel=0 control=10 value=63 time=5
note_on channel=0 note=63 velocity=78 time=1
note_on channel=0 note=64 velocity=70 time=32
note_on channel=0 note=63 velocity=0 time=6
note_on channel=0 note=65 velocity=83 time=22
note_on channel=0 note=64 velocity=0 time=3
note_on channel=0 note=66 velocity=76 time=29
note_on channel=0 note=65 velocity=0 time=9
control_change channel=0 control=10 value=67 time=18
note_on channel=0 note=67 velocity=82 time=1
note_on channel=0 note=66 velocity=0 time=3
note_on channel=0 note=67 velocity=0 time=17
note_on channel=0 note=67 velocity=91 time=12
note_on channel=0 note=70 velocity=91 time=0
note_on channel=0 note=70 velocity=0 time=50
note_on channel=0 note=67 velocity=0 time=0
control_change channel=0 control=10 value=75 time=9
note_on channel=0 note=75 velocity=70 time=1
note_on channel=0 note=73 velocity=82 time=28
note_on channel=0 note=75 velocity=0 time=3
control_change channel=0 control=10 value=70 time=28
note_on channel=0 note=70 velocity=70 time=1
note_on channel=0 note=73 velocity=0 time=6
note_on channel=0 note=70 velocity=0 time=19
control_change channel=0 control=10 value=65 time=2
note_on channel=0 note=65 velocity=93 time=1
note_on channel=0 note=66 velocity=77 time=32
note_on channel=0 note=65 velocity=0 time=9
note_on channel=0 note=67 velocity=87 time=19
note_on channel=0 note=66 velocity=0 time=3
note_on channel=0 note=67 velocity=0 time=17
control_change channel=0 control=10 value=69 time=11
note_on channel=0 note=72 velocity=108 time=1
note_on channel=0 note=67 velocity=108 time=0
note_on channel=0 note=67 velocity=0 time=50
note_on channel=0 note=72 velocity=0 time=0
note_on channel=0 note=70 velocity=70 time=10
control_change channel=0 control=10 value=65 time=27
note_on channel=0 note=65 velocity=78 time=1
note_on channel=0 note=70 velocity=0 time=3
note_on channel=0 note=67 velocity=77 time=29
note_on channel=0 note=65 velocity=0 time=6
note_on channel=0 note=68 velocity=95 time=22
note_on channel=0 note=67 velocity=0 time=3
note_on channel=0 note=63 velocity=69 time=29
note_on channel=0 note=68 velocity=0 time=1
note_on channel=0 note=65 velocity=79 time=27
note_on channel=0 note=63 velocity=0 time=3
note_on channel=0 note=67 velocity=74 time=29
note_on channel=0 note=65 velocity=0 time=6
note_on channel=0 note=68 velocity=89 time=22
note_on channel=0 note=67 velocity=0 time=3
control_change channel=0 control=10 value=69 time=28
note_on channel=0 note=69 velocity=77 time=1
note_on channel=0 note=68 velocity=0 time=9
note_on channel=0 note=70 velocity=93 time=19
note_on channel=0 note=69 velocity=0 time=3
note_on channel=0 note=71 velocity=83 time=29
note_on channel=0 note=70 velocity=0 time=6
note_on channel=0 note=71 velocity=0 time=19
note_on channel=0 note=72 velocity=95 time=3
note_on channel=0 note=71 velocity=81 time=32
note_on channel=0 note=72 velocity=0 time=9
note_on channel=0 note=72 velocity=92 time=19
note_on channel=0 note=71 velocity=0 time=3
note_on channel=0 note=72 velocity=0 time=17
control_change channel=0 control=10 value=74 time=11
note_on channel=0 note=77 velocity=108 time=1
note_on channel=0 note=72 velocity=108 time=0
note_on channel=0 note=72 velocity=0 time=50
note_on channel=0 note=77 velocity=0 time=0
note_on channel=0 note=75 velocity=81 time=10
control_change channel=0 control=10 value=70 time=27
note_on channel=0 note=70 velocity=89 time=1
note_on channel=0 note=75 velocity=0 time=3
note_on channel=0 note=72 velocity=69 time=29
note_on channel=0 note=70 velocity=0 time=6
note_on channel=0 note=73 velocity=101 time=22
note_on channel=0 note=72 velocity=0 time=3
control_change channel=0 control=10 value=82 time=28
note_on channel=0 note=82 velocity=89 time=1
note_on channel=0 note=73 velocity=0 time=9
note_on channel=0 note=82 velocity=0 time=31
control_change channel=0 control=10 value=72 time=19
note_on channel=0 note=72 velocity=82 time=1
note_on channel=0 note=73 velocity=103 time=28
note_on channel=0 note=72 velocity=0 time=3
control_change channel=0 control=10 value=82 time=28
note_on channel=0 note=82 velocity=87 time=1
note_on channel=0 note=73 velocity=0 time=9
note_on channel=0 note=82 velocity=0 time=31
control_change channel=0 control=10 value=72 time=19
note_on channel=0 note=72 velocity=77 time=1
note_on channel=0 note=73 velocity=98 time=28
note_on channel=0 note=72 velocity=0 time=3
control_change channel=0 control=10 value=82 time=28
note_on channel=0 note=82 velocity=80 time=1
note_on channel=0 note=73 velocity=0 time=9
note_on channel=0 note=82 velocity=0 time=31
note_on channel=0 note=80 velocity=85 time=20
note_on channel=0 note=79 velocity=95 time=28
note_on channel=0 note=80 velocity=0 time=3
control_change channel=0 control=10 value=77 time=28
note_on channel=0 note=77 velocity=79 time=1
note_on channel=0 note=79 velocity=0 time=9
note_on channel=0 note=75 velocity=81 time=19
note_on channel=0 note=77 velocity=0 time=3
control_change channel=0 control=10 value=73 time=28
note_on channel=0 note=73 velocity=69 time=1
note_on channel=0 note=75 velocity=0 time=6
note_on channel=0 note=72 velocity=92 time=22
note_on channel=0 note=73 velocity=0 time=3
control_change channel=0 control=10 value=80 time=28
note_on channel=0 note=80 velocity=80 time=1
note_on channel=0 note=72 velocity=0 time=9
note_on channel=0 note=80 velocity=0 time=31
control_change channel=0 control=10 value=71 time=19
note_on channel=0 note=71 velocity=77 time=1
note_on channel=0 note=72 velocity=97 time=28
note_on channel=0 note=71 velocity=0 time=3
control_change channel=0 control=10 value=80 time=28
note_on channel=0 note=80 velocity=77 time=1
note_on channel=0 note=72 velocity=0 time=9
note_on channel=0 note=80 velocity=0 time=31
control_change channel=0 control=10 value=71 time=19
note_on channel=0 note=71 velocity=82 time=1
note_on channel=0 note=72 velocity=100 time=28
note_on channel=0 note=71 velocity=0 time=3
control_change channel=0 control=10 value=80 time=28
note_on channel=0 note=80 velocity=80 time=1
note_on channel=0 note=72 velocity=0 time=9
note_on channel=0 note=80 velocity=0 time=31
note_on channel=0 note=77 velocity=80 time=20
control_change channel=0 control=10 value=75 time=27
note_on channel=0 note=75 velocity=96 time=1
note_on channel=0 note=77 velocity=0 time=3
note_on channel=0 note=72 velocity=80 time=29
note_on channel=0 note=75 velocity=0 time=9
control_change channel=0 control=10 value=70 time=18
note_on channel=0 note=70 velocity=86 time=1
note_on channel=0 note=72 velocity=0 time=3
note_on channel=0 note=68 velocity=79 time=29
note_on channel=0 note=70 velocity=0 time=6
note_on channel=0 note=68 velocity=0 time=14
note_on channel=0 note=67 velocity=97 time=8
note_on channel=0 note=68 velocity=81 time=32
note_on channel=0 note=67 velocity=0 time=9
note_on channel=0 note=69 velocity=87 time=19
note_on channel=0 note=68 velocity=0 time=3
note_on channel=0 note=69 velocity=0 time=22
note_on channel=0 note=69 velocity=100 time=7
note_on channel=0 note=77 velocity=100 time=0
note_on channel=0 note=77 velocity=0 time=50
note_on channel=0 note=69 velocity=0 time=0
control_change channel=0 control=10 value=75 time=9
note_on channel=0 note=75 velocity=80 time=1
note_on channel=0 note=72 velocity=86 time=28
note_on channel=0 note=75 velocity=0 time=3
control_change channel=0 control=10 value=69 time=28
note_on channel=0 note=69 velocity=69 time=1
note_on channel=0 note=72 velocity=0 time=6
note_on channel=0 note=67 velocity=97 time=22
note_on channel=0 note=69 velocity=0 time=3
note_on channel=0 note=68 velocity=80 time=29
note_on channel=0 note=67 velocity=0 time=9
note_on channel=0 note=69 velocity=87 time=19
note_on channel=0 note=68 velocity=0 time=3
note_on channel=0 note=69 velocity=0 time=17
control_change channel=0 control=10 value=73 time=11
note_on channel=0 note=69 velocity=100 time=1
note_on channel=0 note=77 velocity=100 time=0
note_on channel=0 note=77 velocity=0 time=50
note_on channel=0 note=69 velocity=0 time=0
note_on channel=0 note=72 velocity=69 time=10
note_on channel=0 note=75 velocity=69 time=0
note_on channel=0 note=77 velocity=87 time=28
note_on channel=0 note=69 velocity=87 time=0
note_on channel=0 note=75 velocity=0 time=3
note_on channel=0 note=72 velocity=0 time=0
note_on channel=0 note=72 velocity=76 time=29
note_on channel=0 note=75 velocity=76 time=0
note_on channel=0 note=77 velocity=0 time=6
note_on channel=0 note=69 velocity=0 time=0
note_on channel=0 note=72 velocity=0 time=14
note_on channel=0 note=75 velocity=0 time=0
note_on channel=0 note=73 velocity=94 time=8
note_on channel=0 note=70 velocity=94 time=0
note_on channel=0 note=69 velocity=80 time=32
note_on channel=0 note=72 velocity=80 time=0
note_on channel=0 note=70 velocity=0 time=9
note_on channel=0 note=73 velocity=0 time=0
note_on channel=0 note=70 velocity=83 time=19
note_on channel=0 note=73 velocity=83 time=0
note_on channel=0 note=69 velocity=0 time=3
note_on channel=0 note=72 velocity=0 time=0
control_change channel=0 control=10 value=65 time=28
note_on channel=0 note=65 velocity=106 time=1
note_on channel=0 note=70 velocity=0 time=6
note_on channel=0 note=73 velocity=0 time=0
note_on channel=0 note=65 velocity=0 time=44
control_change channel=0 control=10 value=69 time=9
note_on channel=0 note=69 velocity=69 time=1
note_on channel=0 note=70 velocity=80 time=28
note_on channel=0 note=69 velocity=0 time=3
control_change channel=0 control=10 value=73 time=28
note_on channel=0 note=73 velocity=79 time=1
note_on channel=0 note=70 velocity=0 time=6
control_change channel=0 control=10 value=77 time=21
note_on channel=0 note=77 velocity=98 time=1
note_on channel=0 note=73 velocity=0 time=3
control_change channel=0 control=10 value=72 time=28
note_on channel=0 note=72 velocity=77 time=1
note_on channel=0 note=77 velocity=0 time=9
note_on channel=0 note=73 velocity=83 time=19
note_on channel=0 note=72 velocity=0 time=3
note_on channel=0 note=70 velocity=113 time=29
note_on channel=0 note=73 velocity=0 time=6
note_on channel=0 note=70 velocity=0 time=44
control_change channel=0 control=10 value=65 time=9
note_on channel=0 note=65 velocity=77 time=1
note_on channel=0 note=65 velocity=0 time=25
control_change channel=0 control=10 value=61 time=2
note_on channel=0 note=61 velocity=83 time=1
note_on channel=0 note=61 velocity=0 time=31
note_on channel=0 note=58 velocity=76 time=1
note_on channel=0 note=58 velocity=0 time=20
note_on channel=0 note=59 velocity=87 time=8
note_on channel=0 note=62 velocity=76 time=32
note_on channel=0 note=59 velocity=0 time=1
note_on channel=0 note=62 velocity=0 time=24
control_change channel=0 control=10 value=65 time=2
note_on channel=0 note=65 velocity=83 time=1
note_on channel=0 note=65 velocity=0 time=31
note_on channel=0 note=68 velocity=81 time=1
note_on channel=0 note=68 velocity=0 time=25
control_change channel=0 control=10 value=71 time=2
note_on channel=0 note=71 velocity=101 time=1
note_on channel=0 note=71 velocity=0 time=27
note_on channel=0 note=71 velocity=83 time=5
note_on channel=0 note=71 velocity=0 time=40
note_on channel=0 note=71 velocity=113 time=20
note_on channel=0 note=74 velocity=79 time=60
note_on channel=0 note=65 velocity=79 time=0
note_on channel=0 note=71 velocity=0 time=2
note_on channel=0 note=65 velocity=0 time=18
note_on channel=0 note=74 velocity=0 time=5
note_on channel=0 note=77 velocity=95 time=3
note_on channel=0 note=68 velocity=95 time=0
note_on channel=0 note=68 velocity=0 time=20
note_on channel=0 note=77 velocity=0 time=11
control_change channel=0 control=10 value=75 time=0
note_on channel=0 note=80 velocity=86 time=1
note_on channel=0 note=71 velocity=86 time=0
note_on channel=0 note=71 velocity=0 time=20
note_on channel=0 note=80 velocity=0 time=5
note_on channel=0 note=74 velocity=104 time=3
note_on channel=0 note=83 velocity=104 time=0
note_on channel=0 note=83 velocity=0 time=54
note_on channel=0 note=74 velocity=0 time=0
note_on channel=0 note=68 velocity=96 time=66
note_on channel=0 note=84 velocity=96 time=0
note_on channel=0 note=75 velocity=96 time=0
control_change channel=0 control=10 value=80 time=31
note_on channel=0 note=80 velocity=80 time=1
note_on channel=0 note=84 velocity=0 time=9
note_on channel=0 note=68 velocity=0 time=13
note_on channel=0 note=75 velocity=0 time=0
note_on channel=0 note=80 velocity=0 time=3
control_change channel=0 control=10 value=75 time=2
note_on channel=0 note=75 velocity=86 time=1
note_on channel=0 note=75 velocity=0 time=31
note_on channel=0 note=72 velocity=99 time=1
note_on channel=0 note=72 velocity=0 time=50
control_change channel=0 control=10 value=68 time=9
note_on channel=0 note=68 velocity=76 time=1
note_on channel=0 note=68 velocity=0 time=25
control_change channel=0 control=10 value=60 time=2
note_on channel=0 note=60 velocity=86 time=1
note_on channel=0 note=60 velocity=0 time=31
note_on channel=0 note=63 velocity=76 time=1
note_on channel=0 note=63 velocity=0 time=20
control_change channel=0 control=10 value=65 time=7
note_on channel=0 note=63 velocity=106 time=1
note_on channel=0 note=67 velocity=106 time=0
note_on channel=0 note=61 velocity=106 time=0
note_on channel=0 note=70 velocity=106 time=0
note_on channel=0 note=70 velocity=0 time=27
note_on channel=0 note=63 velocity=0 time=0
note_on channel=0 note=67 velocity=0 time=0
note_on channel=0 note=61 velocity=0 time=0
note_on channel=0 note=70 velocity=92 time=5
note_on channel=0 note=63 velocity=92 time=0
note_on channel=0 note=67 velocity=92 time=0
note_on channel=0 note=61 velocity=92 time=0
note_on channel=0 note=61 velocity=0 time=40
note_on channel=0 note=70 velocity=0 time=0
note_on channel=0 note=63 velocity=0 time=0
note_on channel=0 note=67 velocity=0 time=0
note_on channel=0 note=68 velocity=95 time=20
note_on channel=0 note=63 velocity=95 time=0
note_on channel=0 note=60 velocity=95 time=0
note_on channel=0 note=60 velocity=0 time=70
note_on channel=0 note=63 velocity=0 time=0
note_on channel=0 note=68 velocity=0 time=0
note_on channel=0 note=63 velocity=69 time=18
note_on channel=0 note=63 velocity=0 time=25
note_on channel=0 note=64 velocity=65 time=7
note_on channel=0 note=64 velocity=0 time=20
note_on channel=0 note=65 velocity=82 time=8
note_on channel=0 note=66 velocity=75 time=32
note_on channel=0 note=65 velocity=0 time=9
note_on channel=0 note=67 velocity=81 time=19
note_on channel=0 note=66 velocity=0 time=3
note_on channel=0 note=67 velocity=0 time=17
note_on channel=0 note=70 velocity=90 time=12
note_on channel=0 note=67 velocity=90 time=0
note_on channel=0 note=67 velocity=0 time=50
note_on channel=0 note=70 velocity=0 time=0
control_change channel=0 control=10 value=75 time=9
note_on channel=0 note=75 velocity=69 time=1
note_on channel=0 note=73 velocity=81 time=28
note_on channel=0 note=75 velocity=0 time=3
control_change channel=0 control=10 value=70 time=28
note_on channel=0 note=70 velocity=69 time=1
note_on channel=0 note=73 velocity=0 time=6
note_on channel=0 note=70 velocity=0 time=19
control_change channel=0 control=10 value=65 time=2
note_on channel=0 note=65 velocity=92 time=1
note_on channel=0 note=66 velocity=76 time=32
note_on channel=0 note=65 velocity=0 time=9
note_on channel=0 note=67 velocity=86 time=19
note_on channel=0 note=66 velocity=0 time=3
note_on channel=0 note=67 velocity=0 time=17
control_change channel=0 control=10 value=69 time=11
note_on channel=0 note=72 velocity=107 time=1
note_on channel=0 note=67 velocity=107 time=0
note_on channel=0 note=67 velocity=0 time=50
note_on channel=0 note=72 velocity=0 time=0
note_on channel=0 note=70 velocity=69 time=10
control_change channel=0 control=10 value=65 time=27
note_on channel=0 note=65 velocity=77 time=1
note_on channel=0 note=70 velocity=0 time=3
note_on channel=0 note=67 velocity=76 time=29
note_on channel=0 note=65 velocity=0 time=6
note_on channel=0 note=68 velocity=95 time=22
note_on channel=0 note=67 velocity=0 time=3
note_on channel=0 note=63 velocity=69 time=29
note_on channel=0 note=68 velocity=0 time=1
note_on channel=0 note=65 velocity=79 time=27
note_on channel=0 note=63 velocity=0 time=3
note_on channel=0 note=67 velocity=74 time=29
note_on channel=0 note=65 velocity=0 time=6
note_on channel=0 note=68 velocity=89 time=22
note_on channel=0 note=67 velocity=0 time=3
control_change channel=0 control=10 value=69 time=28
note_on channel=0 note=69 velocity=77 time=1
note_on channel=0 note=68 velocity=0 time=9
note_on channel=0 note=70 velocity=93 time=19
note_on channel=0 note=69 velocity=0 time=3
note_on channel=0 note=71 velocity=83 time=29
note_on channel=0 note=70 velocity=0 time=6
note_on channel=0 note=71 velocity=0 time=19
note_on channel=0 note=72 velocity=95 time=3
note_on channel=0 note=71 velocity=81 time=32
note_on channel=0 note=72 velocity=0 time=9
note_on channel=0 note=72 velocity=92 time=19
note_on channel=0 note=71 velocity=0 time=3
note_on channel=0 note=72 velocity=0 time=17
control_change channel=0 control=10 value=74 time=11
note_on channel=0 note=72 velocity=108 time=1
note_on channel=0 note=77 velocity=108 time=0
note_on channel=0 note=77 velocity=0 time=50
note_on channel=0 note=72 velocity=0 time=0
note_on channel=0 note=75 velocity=81 time=10
control_change channel=0 control=10 value=70 time=27
note_on channel=0 note=70 velocity=84 time=1
note_on channel=0 note=75 velocity=0 time=3
note_on channel=0 note=72 velocity=65 time=29
note_on channel=0 note=70 velocity=0 time=6
note_on channel=0 note=73 velocity=95 time=22
note_on channel=0 note=72 velocity=0 time=3
control_change channel=0 control=10 value=82 time=28
note_on channel=0 note=82 velocity=84 time=1
note_on channel=0 note=73 velocity=0 time=9
note_on channel=0 note=82 velocity=0 time=31
control_change channel=0 control=10 value=72 time=19
note_on channel=0 note=72 velocity=77 time=1
note_on channel=0 note=73 velocity=97 time=28
note_on channel=0 note=72 velocity=0 time=3
control_change channel=0 control=10 value=82 time=28
note_on channel=0 note=82 velocity=82 time=1
note_on channel=0 note=73 velocity=0 time=9
note_on channel=0 note=82 velocity=0 time=31
control_change channel=0 control=10 value=72 time=19
note_on channel=0 note=72 velocity=73 time=1
note_on channel=0 note=73 velocity=93 time=28
note_on channel=0 note=72 velocity=0 time=3
control_change channel=0 control=10 value=82 time=28
note_on channel=0 note=82 velocity=76 time=1
note_on channel=0 note=73 velocity=0 time=9
note_on channel=0 note=82 velocity=0 time=31
note_on channel=0 note=80 velocity=80 time=20
note_on channel=0 note=79 velocity=89 time=28
note_on channel=0 note=80 velocity=0 time=3
control_change channel=0 control=10 value=77 time=28
note_on channel=0 note=77 velocity=74 time=1
note_on channel=0 note=79 velocity=0 time=9
note_on channel=0 note=75 velocity=76 time=19
note_on channel=0 note=77 velocity=0 time=3
control_change channel=0 control=10 value=73 time=28
note_on channel=0 note=73 velocity=69 time=1
note_on channel=0 note=75 velocity=0 time=6
note_on channel=0 note=72 velocity=91 time=22
note_on channel=0 note=73 velocity=0 time=3
control_change channel=0 control=10 value=80 time=28
note_on channel=0 note=80 velocity=79 time=1
note_on channel=0 note=72 velocity=0 time=9
note_on channel=0 note=80 velocity=0 time=31
control_change channel=0 control=10 value=71 time=19
note_on channel=0 note=71 velocity=76 time=1
note_on channel=0 note=72 velocity=96 time=28
note_on channel=0 note=71 velocity=0 time=3
control_change channel=0 control=10 value=80 time=28
note_on channel=0 note=80 velocity=76 time=1
note_on channel=0 note=72 velocity=0 time=9
note_on channel=0 note=80 velocity=0 time=31
control_change channel=0 control=10 value=71 time=19
note_on channel=0 note=71 velocity=81 time=1
note_on channel=0 note=72 velocity=99 time=28
note_on channel=0 note=71 velocity=0 time=3
control_change channel=0 control=10 value=80 time=28
note_on channel=0 note=80 velocity=79 time=1
note_on channel=0 note=72 velocity=0 time=9
note_on channel=0 note=80 velocity=0 time=31
note_on channel=0 note=77 velocity=79 time=20
control_change channel=0 control=10 value=75 time=27
note_on channel=0 note=75 velocity=95 time=1
note_on channel=0 note=77 velocity=0 time=3
note_on channel=0 note=72 velocity=79 time=29
note_on channel=0 note=75 velocity=0 time=9
control_change channel=0 control=10 value=70 time=18
note_on channel=0 note=70 velocity=85 time=1
note_on channel=0 note=72 velocity=0 time=3
note_on channel=0 note=68 velocity=78 time=29
note_on channel=0 note=70 velocity=0 time=6
note_on channel=0 note=68 velocity=0 time=14
note_on channel=0 note=67 velocity=96 time=8
note_on channel=0 note=68 velocity=80 time=32
note_on channel=0 note=67 velocity=0 time=9
note_on channel=0 note=69 velocity=86 time=19
note_on channel=0 note=68 velocity=0 time=3
note_on channel=0 note=69 velocity=0 time=22
note_on channel=0 note=77 velocity=99 time=7
note_on channel=0 note=69 velocity=99 time=0
note_on channel=0 note=69 velocity=0 time=50
note_on channel=0 note=77 velocity=0 time=0
control_change channel=0 control=10 value=75 time=9
note_on channel=0 note=75 velocity=79 time=1
note_on channel=0 note=72 velocity=85 time=28
note_on channel=0 note=75 velocity=0 time=3
control_change channel=0 control=10 value=69 time=28
note_on channel=0 note=69 velocity=69 time=1
note_on channel=0 note=72 velocity=0 time=6
note_on channel=0 note=67 velocity=96 time=22
note_on channel=0 note=69 velocity=0 time=3
note_on channel=0 note=68 velocity=79 time=29
note_on channel=0 note=67 velocity=0 time=9
note_on channel=0 note=69 velocity=86 time=19
note_on channel=0 note=68 velocity=0 time=3
note_on channel=0 note=69 velocity=0 time=17
control_change channel=0 control=10 value=73 time=11
note_on channel=0 note=77 velocity=99 time=1
note_on channel=0 note=69 velocity=99 time=0
note_on channel=0 note=69 velocity=0 time=50
note_on channel=0 note=77 velocity=0 time=0
note_on channel=0 note=75 velocity=69 time=10
note_on channel=0 note=72 velocity=69 time=0
note_on channel=0 note=69 velocity=86 time=28
note_on channel=0 note=77 velocity=86 time=0
note_on channel=0 note=72 velocity=0 time=3
note_on channel=0 note=75 velocity=0 time=0
note_on channel=0 note=75 velocity=75 time=29
note_on channel=0 note=72 velocity=75 time=0
note_on channel=0 note=69 velocity=0 time=6
note_on channel=0 note=77 velocity=0 time=0
note_on channel=0 note=75 velocity=0 time=14
note_on channel=0 note=72 velocity=0 time=0
note_on channel=0 note=70 velocity=93 time=8
note_on channel=0 note=73 velocity=93 time=0
note_on channel=0 note=72 velocity=79 time=32
note_on channel=0 note=69 velocity=79 time=0
note_on channel=0 note=73 velocity=0 time=9
note_on channel=0 note=70 velocity=0 time=0
note_on channel=0 note=73 velocity=82 time=19
note_on channel=0 note=70 velocity=82 time=0
note_on channel=0 note=72 velocity=0 time=3
note_on channel=0 note=69 velocity=0 time=0
control_change channel=0 control=10 value=65 time=28
note_on channel=0 note=65 velocity=105 time=1
note_on channel=0 note=73 velocity=0 time=6
note_on channel=0 note=70 velocity=0 time=0
note_on channel=0 note=65 velocity=0 time=44
control_change channel=0 control=10 value=69 time=9
note_on channel=0 note=69 velocity=69 time=1
note_on channel=0 note=70 velocity=79 time=28
note_on channel=0 note=69 velocity=0 time=3
control_change channel=0 control=10 value=73 time=28
note_on channel=0 note=73 velocity=78 time=1
note_on channel=0 note=70 velocity=0 time=6
control_change channel=0 control=10 value=77 time=21
note_on channel=0 note=77 velocity=97 time=1
note_on channel=0 note=73 velocity=0 time=3
control_change channel=0 control=10 value=72 time=28
note_on channel=0 note=72 velocity=76 time=1
note_on channel=0 note=77 velocity=0 time=1
note_on channel=0 note=72 velocity=0 time=24
note_on channel=0 note=73 velocity=82 time=3
note_on channel=0 note=73 velocity=0 time=31
note_on channel=0 note=70 velocity=105 time=1
note_on channel=0 note=70 velocity=0 time=50
control_change channel=0 control=10 value=65 time=9
note_on channel=0 note=65 velocity=76 time=1
note_on channel=0 note=65 velocity=0 time=25
control_change channel=0 control=10 value=61 time=2
note_on channel=0 note=61 velocity=82 time=1
note_on channel=0 note=61 velocity=0 time=31
note_on channel=0 note=58 velocity=75 time=1
note_on channel=0 note=58 velocity=0 time=20
note_on channel=0 note=59 velocity=81 time=8
note_on channel=0 note=62 velocity=71 time=32
note_on channel=0 note=59 velocity=0 time=1
note_on channel=0 note=62 velocity=0 time=24
control_change channel=0 control=10 value=65 time=2
note_on channel=0 note=65 velocity=77 time=1
note_on channel=0 note=65 velocity=0 time=31
note_on channel=0 note=68 velocity=74 time=1
note_on channel=0 note=68 velocity=0 time=25
control_change channel=0 control=10 value=71 time=2
note_on channel=0 note=71 velocity=91 time=1
note_on channel=0 note=71 velocity=0 time=27
note_on channel=0 note=71 velocity=75 time=5
note_on channel=0 note=71 velocity=0 time=40
note_on channel=0 note=71 velocity=99 time=20
note_on channel=0 note=74 velocity=67 time=60
note_on channel=0 note=65 velocity=67 time=0
note_on channel=0 note=71 velocity=0 time=2
note_on channel=0 note=65 velocity=0 time=18
note_on channel=0 note=74 velocity=0 time=5
note_on channel=0 note=77 velocity=80 time=3
note_on channel=0 note=68 velocity=80 time=0
note_on channel=0 note=68 velocity=0 time=20
note_on channel=0 note=77 velocity=0 time=11
control_change channel=0 control=10 value=75 time=0
note_on channel=0 note=80 velocity=71 time=1
note_on channel=0 note=71 velocity=71 time=0
note_on channel=0 note=71 velocity=0 time=20
note_on channel=0 note=80 velocity=0 time=5
note_on channel=0 note=83 velocity=85 time=3
note_on channel=0 note=74 velocity=85 time=0
note_on channel=0 note=74 velocity=0 time=54
note_on channel=0 note=83 velocity=0 time=0
note_on channel=0 note=75 velocity=88 time=66
note_on channel=0 note=84 velocity=88 time=0
note_on channel=0 note=68 velocity=88 time=0
control_change channel=0 control=10 value=80 time=31
note_on channel=0 note=80 velocity=73 time=1
note_on channel=0 note=84 velocity=0 time=9
note_on channel=0 note=75 velocity=0 time=13
note_on channel=0 note=68 velocity=0 time=0
note_on channel=0 note=80 velocity=0 time=3
control_change channel=0 control=10 value=75 time=2
note_on channel=0 note=75 velocity=79 time=1
note_on channel=0 note=75 velocity=0 time=31
note_on channel=0 note=72 velocity=91 time=1
note_on channel=0 note=72 velocity=0 time=50
control_change channel=0 control=10 value=68 time=9
note_on channel=0 note=68 velocity=69 time=1
note_on channel=0 note=68 velocity=0 time=25
control_change channel=0 control=10 value=60 time=2
note_on channel=0 note=60 velocity=79 time=1
note_on channel=0 note=60 velocity=0 time=31
note_on channel=0 note=63 velocity=69 time=1
note_on channel=0 note=63 velocity=0 time=20
control_change channel=0 control=10 value=65 time=7
note_on channel=0 note=61 velocity=97 time=1
note_on channel=0 note=70 velocity=97 time=0
note_on channel=0 note=63 velocity=97 time=0
note_on channel=0 note=67 velocity=97 time=0
note_on channel=0 note=67 velocity=0 time=27
note_on channel=0 note=61 velocity=0 time=0
note_on channel=0 note=70 velocity=0 time=0
note_on channel=0 note=63 velocity=0 time=0
note_on channel=0 note=67 velocity=84 time=5
note_on channel=0 note=70 velocity=84 time=0
note_on channel=0 note=61 velocity=84 time=0
note_on channel=0 note=63 velocity=84 time=0
note_on channel=0 note=63 velocity=0 time=40
note_on channel=0 note=67 velocity=0 time=0
note_on channel=0 note=70 velocity=0 time=0
note_on channel=0 note=61 velocity=0 time=0
note_on channel=0 note=60 velocity=87 time=20
note_on channel=0 note=63 velocity=87 time=0
note_on channel=0 note=68 velocity=87 time=0
note_on channel=0 note=68 velocity=0 time=70
note_on channel=0 note=63 velocity=0 time=0
note_on channel=0 note=60 velocity=0 time=0
note_on channel=0 note=63 velocity=69 time=18
note_on channel=0 note=63 velocity=0 time=40
control_change channel=0 control=10 value=70 time=19
note_on channel=0 note=72 velocity=89 time=1
note_on channel=0 note=68 velocity=89 time=0
note_on channel=0 note=68 velocity=0 time=54
note_on channel=0 note=72 velocity=0 time=0
note_on channel=0 note=68 velocity=69 time=6
note_on channel=0 note=72 velocity=69 time=0
note_on channel=0 note=72 velocity=0 time=80
note_on channel=0 note=68 velocity=0 time=0
note_on channel=0 note=72 velocity=69 time=40
note_on channel=0 note=75 velocity=69 time=0
note_on channel=0 note=75 velocity=0 time=40
note_on channel=0 note=72 velocity=0 time=0
control_change channel=0 control=10 value=74 time=19
note_on channel=0 note=77 velocity=92 time=1
note_on channel=0 note=71 velocity=92 time=0
note_on channel=0 note=72 velocity=69 time=32
note_on channel=0 note=75 velocity=69 time=0
note_on channel=0 note=71 velocity=0 time=18
note_on channel=0 note=77 velocity=0 time=0
note_on channel=0 note=72 velocity=0 time=22
note_on channel=0 note=75 velocity=0 time=0
note_on channel=0 note=71 velocity=73 time=20
note_on channel=0 note=77 velocity=73 time=0
note_on channel=0 note=72 velocity=94 time=28
note_on channel=0 note=75 velocity=94 time=0
note_on channel=0 note=77 velocity=0 time=18
note_on channel=0 note=71 velocity=0 time=0
note_on channel=0 note=72 velocity=0 time=9
note_on channel=0 note=75 velocity=0 time=0
note_on channel=0 note=71 velocity=67 time=5
note_on channel=0 note=77 velocity=67 time=0
note_on channel=0 note=72 velocity=78 time=28
note_on channel=0 note=75 velocity=78 time=0
note_on channel=0 note=77 velocity=0 time=18
note_on channel=0 note=71 velocity=0 time=0
note_on channel=0 note=72 velocity=0 time=22
note_on channel=0 note=75 velocity=0 time=0
control_change channel=0 control=10 value=79 time=19
note_on channel=0 note=82 velocity=93 time=1
note_on channel=0 note=76 velocity=93 time=0
note_on channel=0 note=77 velocity=82 time=32
note_on channel=0 note=80 velocity=82 time=0
note_on channel=0 note=76 velocity=0 time=18
note_on channel=0 note=82 velocity=0 time=0
note_on channel=0 note=77 velocity=0 time=22
note_on channel=0 note=80 velocity=0 time=0
note_on channel=0 note=82 velocity=72 time=20
note_on channel=0 note=76 velocity=72 time=0
note_on channel=0 note=80 velocity=94 time=28
note_on channel=0 note=77 velocity=94 time=0
note_on channel=0 note=76 velocity=0 time=18
note_on channel=0 note=82 velocity=0 time=0
note_on channel=0 note=80 velocity=0 time=14
note_on channel=0 note=77 velocity=0 time=0
note_on channel=0 note=82 velocity=72 time=0
note_on channel=0 note=76 velocity=72 time=0
note_on channel=0 note=77 velocity=79 time=28
note_on channel=0 note=80 velocity=79 time=0
note_on channel=0 note=76 velocity=0 time=18
note_on channel=0 note=82 velocity=0 time=0
note_on channel=0 note=77 velocity=0 time=6
note_on channel=0 note=80 velocity=0 time=0
control_change channel=0 control=10 value=73 time=7
note_on channel=0 note=75 velocity=96 time=1
note_on channel=0 note=72 velocity=96 time=0
control_change channel=0 control=10 value=63 time=87
note_on channel=0 note=63 velocity=76 time=1
note_on channel=0 note=65 velocity=62 time=32
note_on channel=0 note=63 velocity=0 time=14
control_change channel=0 control=10 value=67 time=13
note_on channel=0 note=67 velocity=69 time=1
note_on channel=0 note=65 velocity=0 time=18
note_on channel=0 note=68 velocity=66 time=14
note_on channel=0 note=75 velocity=0 time=10
note_on channel=0 note=72 velocity=0 time=0
note_on channel=0 note=70 velocity=79 time=18
note_on channel=0 note=67 velocity=0 time=2
note_on channel=0 note=68 velocity=0 time=16
control_change channel=0 control=10 value=71 time=13
note_on channel=0 note=71 velocity=69 time=1
note_on channel=0 note=70 velocity=0 time=14
note_on channel=0 note=72 velocity=84 time=14
note_on channel=0 note=68 velocity=84 time=0
note_on channel=0 note=71 velocity=0 time=3
note_on channel=0 note=68 velocity=0 time=51
note_on channel=0 note=72 velocity=0 time=0
note_on channel=0 note=68 velocity=69 time=6
note_on channel=0 note=72 velocity=69 time=0
note_on channel=0 note=72 velocity=0 time=80
note_on channel=0 note=68 velocity=0 time=0
note_on channel=0 note=72 velocity=74 time=40
note_on channel=0 note=75 velocity=74 time=0
note_on channel=0 note=75 velocity=0 time=40
note_on channel=0 note=72 velocity=0 time=0
note_on channel=0 note=77 velocity=88 time=20
note_on channel=0 note=71 velocity=88 time=0
note_on channel=0 note=75 velocity=69 time=32
note_on channel=0 note=72 velocity=69 time=0
note_on channel=0 note=71 velocity=0 time=18
note_on channel=0 note=77 velocity=0 time=0
note_on channel=0 note=75 velocity=0 time=22
note_on channel=0 note=72 velocity=0 time=0
note_on channel=0 note=71 velocity=80 time=20
note_on channel=0 note=77 velocity=80 time=0
note_on channel=0 note=72 velocity=94 time=28
note_on channel=0 note=75 velocity=94 time=0
note_on channel=0 note=77 velocity=0 time=18
note_on channel=0 note=71 velocity=0 time=0
note_on channel=0 note=72 velocity=0 time=9
note_on channel=0 note=75 velocity=0 time=0
note_on channel=0 note=75 velocity=86 time=5
note_on channel=0 note=72 velocity=86 time=0
note_on channel=0 note=72 velocity=0 time=20
note_on channel=0 note=75 velocity=0 time=0
note_on channel=0 note=72 velocity=71 time=8
note_on channel=0 note=75 velocity=71 time=0
note_on channel=0 note=75 velocity=0 time=40
note_on channel=0 note=72 velocity=0 time=0
control_change channel=0 control=10 value=75 time=19
note_on channel=0 note=75 velocity=94 time=1
control_change channel=0 control=10 value=68 time=31
note_on channel=0 note=70 velocity=76 time=1
note_on channel=0 note=67 velocity=76 time=0
note_on channel=0 note=75 velocity=0 time=9
note_on channel=0 note=70 velocity=0 time=31
control_change channel=0 control=10 value=75 time=19
note_on channel=0 note=67 velocity=0 time=1
note_on channel=0 note=75 velocity=81 time=0
note_on channel=0 note=75 velocity=0 time=20
control_change channel=0 control=10 value=71 time=7
note_on channel=0 note=74 velocity=94 time=1
note_on channel=0 note=68 velocity=94 time=0
control_change channel=0 control=10 value=75 time=31
note_on channel=0 note=75 velocity=79 time=1
note_on channel=0 note=74 velocity=0 time=9
note_on channel=0 note=68 velocity=0 time=13
note_on channel=0 note=68 velocity=84 time=6
note_on channel=0 note=77 velocity=84 time=0
note_on channel=0 note=75 velocity=0 time=3
control_change channel=0 control=10 value=71 time=56
note_on channel=0 note=67 velocity=92 time=1
note_on channel=0 note=75 velocity=92 time=0
note_on channel=0 note=77 velocity=0 time=1
note_on channel=0 note=68 velocity=0 time=0
note_on channel=0 note=67 velocity=0 time=139
note_on channel=0 note=75 velocity=0 time=0
control_change channel=0 control=10 value=63 time=11
note_on channel=0 note=63 velocity=69 time=1
control_change channel=0 control=10 value=67 time=27
note_on channel=0 note=67 velocity=84 time=1
note_on channel=0 note=63 velocity=0 time=3
control_change channel=0 control=10 value=73 time=28
note_on channel=0 note=73 velocity=69 time=1
note_on channel=0 note=67 velocity=0 time=6
note_on channel=0 note=72 velocity=92 time=22
note_on channel=0 note=68 velocity=92 time=0
note_on channel=0 note=73 velocity=0 time=3
note_on channel=0 note=68 velocity=0 time=51
note_on channel=0 note=72 velocity=0 time=0
note_on channel=0 note=68 velocity=74 time=6
note_on channel=0 note=72 velocity=74 time=0
note_on channel=0 note=72 velocity=0 time=80
note_on channel=0 note=68 velocity=0 time=0
note_on channel=0 note=72 velocity=75 time=40
note_on channel=0 note=75 velocity=75 time=0
note_on channel=0 note=75 velocity=0 time=40
note_on channel=0 note=72 velocity=0 time=0
note_on channel=0 note=77 velocity=93 time=20
note_on channel=0 note=71 velocity=93 time=0
note_on channel=0 note=75 velocity=68 time=32
note_on channel=0 note=72 velocity=68 time=0
note_on channel=0 note=71 velocity=0 time=18
note_on channel=0 note=77 velocity=0 time=0
note_on channel=0 note=75 velocity=0 time=22
note_on channel=0 note=72 velocity=0 time=0
note_on channel=0 note=71 velocity=83 time=20
note_on channel=0 note=77 velocity=83 time=0
note_on channel=0 note=72 velocity=94 time=28
note_on channel=0 note=75 velocity=94 time=0
note_on channel=0 note=77 velocity=0 time=18
note_on channel=0 note=71 velocity=0 time=0
note_on channel=0 note=72 velocity=0 time=9
note_on channel=0 note=75 velocity=0 time=0
note_on channel=0 note=77 velocity=75 time=5
note_on channel=0 note=71 velocity=75 time=0
note_on channel=0 note=72 velocity=79 time=28
note_on channel=0 note=75 velocity=79 time=0
note_on channel=0 note=71 velocity=0 time=18
note_on channel=0 note=77 velocity=0 time=0
note_on channel=0 note=72 velocity=0 time=22
note_on channel=0 note=75 velocity=0 time=0
control_change channel=0 control=10 value=79 time=19
note_on channel=0 note=82 velocity=93 time=1
note_on channel=0 note=76 velocity=93 time=0
note_on channel=0 note=80 velocity=74 time=32
note_on channel=0 note=77 velocity=74 time=0
note_on channel=0 note=76 velocity=0 time=18
note_on channel=0 note=82 velocity=0 time=0
note_on channel=0 note=80 velocity=0 time=22
note_on channel=0 note=77 velocity=0 time=0
note_on channel=0 note=76 velocity=81 time=20
note_on channel=0 note=82 velocity=81 time=0
note_on channel=0 note=77 velocity=93 time=28
note_on channel=0 note=80 velocity=93 time=0
note_on channel=0 note=82 velocity=0 time=18
note_on channel=0 note=76 velocity=0 time=0
note_on channel=0 note=77 velocity=0 time=7
note_on channel=0 note=80 velocity=0 time=0
note_on channel=0 note=77 velocity=75 time=7
note_on channel=0 note=80 velocity=75 time=0
note_on channel=0 note=80 velocity=0 time=20
note_on channel=0 note=77 velocity=0 time=0
note_on channel=0 note=77 velocity=81 time=8
note_on channel=0 note=82 velocity=81 time=0
note_on channel=0 note=79 velocity=81 time=0
note_on channel=0 note=79 velocity=0 time=20
note_on channel=0 note=84 velocity=93 time=12
note_on channel=0 note=79 velocity=93 time=0
note_on channel=0 note=76 velocity=93 time=0
note_on channel=0 note=82 velocity=0 time=6
note_on channel=0 note=77 velocity=0 time=0
control_change channel=0 control=10 value=72 time=53
note_on channel=0 note=72 velocity=76 time=1
note_on channel=0 note=79 velocity=0 time=10
note_on channel=0 note=76 velocity=0 time=0
control_change channel=0 control=10 value=76 time=17
note_on channel=0 note=76 velocity=84 time=1
note_on channel=0 note=72 velocity=0 time=18
note_on channel=0 note=84 velocity=0 time=11
note_on channel=0 note=79 velocity=79 time=3
note_on channel=0 note=76 velocity=0 time=26
control_change channel=0 control=10 value=84 time=1
note_on channel=0 note=84 velocity=101 time=1
note_on channel=0 note=79 velocity=0 time=19
note_on channel=0 note=84 velocity=0 time=35
control_change channel=0 control=10 value=79 time=5
note_on channel=0 note=79 velocity=77 time=1
note_on channel=0 note=80 velocity=68 time=32
note_on channel=0 note=79 velocity=0 time=15
note_on channel=0 note=82 velocity=93 time=13
note_on channel=0 note=76 velocity=93 time=0
note_on channel=0 note=80 velocity=0 time=3
note_on channel=0 note=77 velocity=76 time=29
note_on channel=0 note=80 velocity=76 time=0
note_on channel=0 note=76 velocity=0 time=18
note_on channel=0 note=82 velocity=0 time=0
note_on channel=0 note=77 velocity=0 time=22
note_on channel=0 note=80 velocity=0 time=0
note_on channel=0 note=82 velocity=77 time=20
note_on channel=0 note=76 velocity=77 time=0
note_on channel=0 note=77 velocity=93 time=28
note_on channel=0 note=80 velocity=93 time=0
note_on channel=0 note=76 velocity=0 time=18
note_on channel=0 note=82 velocity=0 time=0
note_on channel=0 note=77 velocity=0 time=9
note_on channel=0 note=80 velocity=0 time=0
note_on channel=0 note=82 velocity=77 time=5
note_on channel=0 note=76 velocity=77 time=0
note_on channel=0 note=80 velocity=79 time=28
note_on channel=0 note=77 velocity=79 time=0
note_on channel=0 note=76 velocity=0 time=18
note_on channel=0 note=82 velocity=0 time=0
note_on channel=0 note=80 velocity=0 time=2
note_on channel=0 note=77 velocity=0 time=0
control_change channel=0 control=10 value=73 time=11
note_on channel=0 note=72 velocity=98 time=1
note_on channel=0 note=75 velocity=98 time=0
note_on channel=0 note=75 velocity=0 time=50
note_on channel=0 note=72 velocity=0 time=0
note_on channel=0 note=77 velocity=78 time=10
note_on channel=0 note=73 velocity=78 time=0
note_on channel=0 note=73 velocity=0 time=20
note_on channel=0 note=77 velocity=0 time=0
note_on channel=0 note=72 velocity=92 time=8
note_on channel=0 note=75 velocity=92 time=0
note_on channel=0 note=75 velocity=0 time=31
note_on channel=0 note=72 velocity=0 time=0
note_on channel=0 note=73 velocity=71 time=1
note_on channel=0 note=70 velocity=71 time=0
note_on channel=0 note=70 velocity=0 time=20
note_on channel=0 note=73 velocity=0 time=0
note_on channel=0 note=72 velocity=78 time=8
note_on channel=0 note=68 velocity=78 time=0
note_on channel=0 note=72 velocity=0 time=27
note_on channel=0 note=75 velocity=94 time=5
note_on channel=0 note=72 velocity=94 time=0
note_on channel=0 note=68 velocity=0 time=9
note_on channel=0 note=72 velocity=0 time=31
note_on channel=0 note=75 velocity=0 time=0
note_on channel=0 note=72 velocity=74 time=20
note_on channel=0 note=75 velocity=74 time=0
note_on channel=0 note=75 velocity=0 time=20
note_on channel=0 note=72 velocity=0 time=0
note_on channel=0 note=75 velocity=107 time=8
note_on channel=0 note=69 velocity=107 time=0
note_on channel=0 note=73 velocity=80 time=32
note_on channel=0 note=70 velocity=80 time=0
note_on channel=0 note=69 velocity=0 time=18
note_on channel=0 note=75 velocity=0 time=0
note_on channel=0 note=73 velocity=0 time=22
note_on channel=0 note=70 velocity=0 time=0
note_on channel=0 note=69 velocity=88 time=20
note_on channel=0 note=75 velocity=88 time=0
note_on channel=0 note=70 velocity=97 time=28
note_on channel=0 note=73 velocity=97 time=0
note_on channel=0 note=75 velocity=0 time=18
note_on channel=0 note=69 velocity=0 time=0
control_change channel=0 control=10 value=66 time=13
note_on channel=0 note=67 velocity=76 time=1
note_on channel=0 note=61 velocity=76 time=0
note_on channel=0 note=72 velocity=76 time=0
note_on channel=0 note=70 velocity=0 time=9
note_on channel=0 note=73 velocity=0 time=0
note_on channel=0 note=61 velocity=0 time=11
note_on channel=0 note=67 velocity=0 time=0
note_on channel=0 note=61 velocity=85 time=8
note_on channel=0 note=70 velocity=85 time=0
note_on channel=0 note=67 velocity=85 time=0
note_on channel=0 note=72 velocity=0 time=10
note_on channel=0 note=61 velocity=0 time=40
note_on channel=0 note=70 velocity=0 time=0
note_on channel=0 note=67 velocity=0 time=0
note_on channel=0 note=68 velocity=93 time=10
note_on channel=0 note=60 velocity=93 time=0
note_on channel=0 note=60 velocity=0 time=107
note_on channel=0 note=68 velocity=0 time=0
control_change channel=0 control=10 value=73 time=12
note_on channel=0 note=75 velocity=105 time=1
note_on channel=0 note=72 velocity=105 time=0
note_on channel=0 note=80 velocity=105 time=0
note_on channel=0 note=68 velocity=105 time=0
note_on channel=0 note=68 velocity=0 time=54
note_on channel=0 note=75 velocity=0 time=0
note_on channel=0 note=72 velocity=0 time=0
note_on channel=0 note=80 velocity=0 time=0
note_on channel=0 note=73 velocity=92 time=66
note_on channel=0 note=73 velocity=0 time=54
note_on channel=0 note=73 velocity=68 time=6
note_on channel=0 note=73 velocity=0 time=80
control_change channel=0 control=10 value=68 time=11
note_on channel=0 note=68 velocity=74 time=1
control_change channel=0 control=10 value=73 time=27
note_on channel=0 note=73 velocity=83 time=1
note_on channel=0 note=68 velocity=0 time=10
note_on channel=0 note=75 velocity=76 time=22
note_on channel=0 note=73 velocity=0 time=15
note_on channel=0 note=77 velocity=95 time=13
note_on channel=0 note=65 velocity=95 time=0
note_on channel=0 note=75 velocity=0 time=10
note_on channel=0 note=65 velocity=0 time=44
note_on channel=0 note=77 velocity=0 time=0
note_on channel=0 note=65 velocity=78 time=6
note_on channel=0 note=77 velocity=78 time=0
note_on channel=0 note=77 velocity=0 time=80
note_on channel=0 note=65 velocity=0 time=0
control_change channel=0 control=10 value=62 time=11
note_on channel=0 note=68 velocity=68 time=1
note_on channel=0 note=56 velocity=68 time=0
control_change channel=0 control=10 value=67 time=27
note_on channel=0 note=61 velocity=80 time=1
note_on channel=0 note=73 velocity=80 time=0
note_on channel=0 note=56 velocity=0 time=10
note_on channel=0 note=68 velocity=0 time=0
control_change channel=0 control=10 value=71 time=21
note_on channel=0 note=65 velocity=74 time=1
note_on channel=0 note=77 velocity=74 time=0
note_on channel=0 note=61 velocity=0 time=15
note_on channel=0 note=73 velocity=0 time=0
note_on channel=0 note=78 velocity=101 time=13
note_on channel=0 note=80 velocity=101 time=0
note_on channel=0 note=68 velocity=101 time=0
note_on channel=0 note=72 velocity=101 time=0
note_on channel=0 note=65 velocity=0 time=3
note_on channel=0 note=77 velocity=0 time=0
note_on channel=0 note=78 velocity=0 time=24
control_change channel=0 control=10 value=79 time=4
note_on channel=0 note=84 velocity=74 time=1
note_on channel=0 note=78 velocity=74 time=0
note_on channel=0 note=75 velocity=74 time=0
note_on channel=0 note=80 velocity=0 time=9
note_on channel=0 note=72 velocity=0 time=0
note_on channel=0 note=78 velocity=0 time=31
note_on channel=0 note=84 velocity=0 time=0
note_on channel=0 note=75 velocity=0 time=0
note_on channel=0 note=72 velocity=109 time=20
note_on channel=0 note=78 velocity=109 time=0
note_on channel=0 note=82 velocity=109 time=0
note_on channel=0 note=68 velocity=0 time=15
note_on channel=0 note=72 velocity=0 time=35
note_on channel=0 note=78 velocity=0 time=0
note_on channel=0 note=82 velocity=0 time=0
note_on channel=0 note=80 velocity=68 time=10
note_on channel=0 note=72 velocity=68 time=0
note_on channel=0 note=78 velocity=68 time=0
note_on channel=0 note=72 velocity=0 time=20
control_change channel=0 control=10 value=68 time=7
note_on channel=0 note=72 velocity=79 time=1
note_on channel=0 note=68 velocity=79 time=0
note_on channel=0 note=66 velocity=79 time=0
note_on channel=0 note=78 velocity=0 time=10
note_on channel=0 note=80 velocity=0 time=0
note_on channel=0 note=68 velocity=0 time=40
note_on channel=0 note=73 velocity=92 time=10
note_on channel=0 note=65 velocity=92 time=0
note_on channel=0 note=68 velocity=92 time=0
note_on channel=0 note=72 velocity=0 time=2
note_on channel=0 note=66 velocity=0 time=0
note_on channel=0 note=65 velocity=0 time=81
note_on channel=0 note=73 velocity=0 time=0
note_on channel=0 note=68 velocity=0 time=0
note_on channel=0 note=68 velocity=74 time=97
note_on channel=0 note=68 velocity=0 time=31
note_on channel=0 note=69 velocity=69 time=1
note_on channel=0 note=69 velocity=0 time=25
note_on channel=0 note=70 velocity=90 time=3
control_change channel=0 control=10 value=78 time=31
note_on channel=0 note=78 velocity=71 time=1
note_on channel=0 note=70 velocity=0 time=1
note_on channel=0 note=78 velocity=0 time=39
note_on channel=0 note=75 velocity=72 time=20
control_change channel=0 control=10 value=69 time=27
note_on channel=0 note=69 velocity=95 time=1
note_on channel=0 note=75 velocity=0 time=3
control_change channel=0 control=10 value=78 time=28
note_on channel=0 note=78 velocity=77 time=1
note_on channel=0 note=69 velocity=0 time=1
note_on channel=0 note=78 velocity=0 time=39
note_on channel=0 note=75 velocity=70 time=20
control_change channel=0 control=10 value=68 time=27
note_on channel=0 note=68 velocity=92 time=1
note_on channel=0 note=75 velocity=0 time=3
control_change channel=0 control=10 value=73 time=28
note_on channel=0 note=73 velocity=70 time=1
note_on channel=0 note=68 velocity=0 time=1
note_on channel=0 note=73 velocity=0 time=19
control_change channel=0 control=10 value=77 time=7
note_on channel=0 note=77 velocity=78 time=1
note_on channel=0 note=77 velocity=0 time=25
control_change channel=0 control=10 value=82 time=6
note_on channel=0 note=82 velocity=92 time=1
note_on channel=0 note=80 velocity=68 time=60
note_on channel=0 note=82 velocity=0 time=2
note_on channel=0 note=80 velocity=0 time=18
control_change channel=0 control=10 value=77 time=7
note_on channel=0 note=77 velocity=75 time=1
note_on channel=0 note=77 velocity=0 time=25
control_change channel=0 control=10 value=73 time=6
note_on channel=0 note=73 velocity=63 time=1
note_on channel=0 note=73 velocity=0 time=20
note_on channel=0 note=72 velocity=86 time=8
control_change channel=0 control=10 value=80 time=31
note_on channel=0 note=80 velocity=70 time=1
note_on channel=0 note=72 velocity=0 time=1
note_on channel=0 note=80 velocity=0 time=19
control_change channel=0 control=10 value=75 time=7
note_on channel=0 note=75 velocity=78 time=1
note_on channel=0 note=75 velocity=0 time=25
note_on channel=0 note=72 velocity=70 time=7
note_on channel=0 note=72 velocity=0 time=20
control_change channel=0 control=10 value=70 time=7
note_on channel=0 note=70 velocity=78 time=1
note_on channel=0 note=72 velocity=88 time=32
note_on channel=0 note=70 velocity=0 time=1
note_on channel=0 note=72 velocity=0 time=49
note_on channel=0 note=68 velocity=69 time=10
note_on channel=0 note=73 velocity=89 time=28
note_on channel=0 note=68 velocity=0 time=3
note_on channel=0 note=73 velocity=0 time=24
note_on channel=0 note=73 velocity=70 time=5
note_on channel=0 note=73 velocity=0 time=20
control_change channel=0 control=10 value=77 time=7
note_on channel=0 note=77 velocity=75 time=1
note_on channel=0 note=77 velocity=0 time=25
note_on channel=0 note=80 velocity=78 time=7
note_on channel=0 note=80 velocity=0 time=20
control_change channel=0 control=10 value=85 time=7
note_on channel=0 note=85 velocity=98 time=1
note_on channel=0 note=82 velocity=74 time=32
note_on channel=0 note=85 velocity=0 time=9
note_on channel=0 note=82 velocity=0 time=16
control_change channel=0 control=10 value=80 time=2
note_on channel=0 note=80 velocity=78 time=1
note_on channel=0 note=80 velocity=0 time=31
note_on channel=0 note=77 velocity=71 time=1
note_on channel=0 note=77 velocity=0 time=25
control_change channel=0 control=10 value=70 time=2
note_on channel=0 note=70 velocity=88 time=1
control_change channel=0 control=10 value=78 time=31
note_on channel=0 note=78 velocity=72 time=1
note_on channel=0 note=70 velocity=0 time=9
note_on channel=0 note=78 velocity=0 time=31
note_on channel=0 note=75 velocity=74 time=20
control_change channel=0 control=10 value=69 time=27
note_on channel=0 note=69 velocity=92 time=1
note_on channel=0 note=75 velocity=0 time=3
control_change channel=0 control=10 value=78 time=28
note_on channel=0 note=78 velocity=73 time=1
note_on channel=0 note=69 velocity=0 time=9
note_on channel=0 note=78 velocity=0 time=31
note_on channel=0 note=75 velocity=63 time=20
control_change channel=0 control=10 value=68 time=27
note_on channel=0 note=68 velocity=83 time=1
note_on channel=0 note=75 velocity=0 time=3
control_change channel=0 control=10 value=73 time=28
note_on channel=0 note=73 velocity=63 time=1
note_on channel=0 note=68 velocity=0 time=9
note_on channel=0 note=73 velocity=0 time=16
control_change channel=0 control=10 value=77 time=2
note_on channel=0 note=77 velocity=70 time=1
note_on channel=0 note=77 velocity=0 time=31
control_change channel=0 control=10 value=82 time=0
note_on channel=0 note=82 velocity=91 time=1
note_on channel=0 note=80 velocity=63 time=60
note_on channel=0 note=82 velocity=0 time=2
note_on channel=0 note=80 velocity=0 time=23
control_change channel=0 control=10 value=77 time=2
note_on channel=0 note=77 velocity=79 time=1
note_on channel=0 note=77 velocity=0 time=31
control_change channel=0 control=10 value=73 time=0
note_on channel=0 note=73 velocity=71 time=1
note_on channel=0 note=73 velocity=0 time=25
note_on channel=0 note=75 velocity=81 time=3
control_change channel=0 control=10 value=77 time=31
note_on channel=0 note=77 velocity=73 time=1
note_on channel=0 note=75 velocity=0 time=9
note_on channel=0 note=77 velocity=0 time=16
note_on channel=0 note=75 velocity=87 time=3
note_on channel=0 note=75 velocity=0 time=31
control_change channel=0 control=10 value=73 time=0
note_on channel=0 note=73 velocity=73 time=1
note_on channel=0 note=73 velocity=0 time=25
note_on channel=0 note=72 velocity=91 time=3
note_on channel=0 note=73 velocity=97 time=32
note_on channel=0 note=72 velocity=0 time=9
note_on channel=0 note=73 velocity=0 time=41
note_on channel=0 note=70 velocity=70 time=10
control_change channel=0 control=10 value=68 time=27
note_on channel=0 note=68 velocity=79 time=1
note_on channel=0 note=70 velocity=0 time=3
note_on channel=0 note=68 velocity=0 time=51
control_change channel=0 control=10 value=74 time=5
note_on channel=0 note=71 velocity=96 time=1
note_on channel=0 note=77 velocity=96 time=0
note_on channel=0 note=72 velocity=86 time=32
note_on channel=0 note=75 velocity=86 time=0
note_on channel=0 note=77 velocity=0 time=5
note_on channel=0 note=71 velocity=0 time=0
note_on channel=0 note=72 velocity=0 time=15
note_on channel=0 note=75 velocity=0 time=0
note_on channel=0 note=72 velocity=106 time=8
note_on channel=0 note=80 velocity=106 time=0
note_on channel=0 note=80 velocity=0 time=54
note_on channel=0 note=72 velocity=0 time=0
control_change channel=0 control=10 value=69 time=5
note_on channel=0 note=68 velocity=79 time=1
note_on channel=0 note=71 velocity=79 time=0
note_on channel=0 note=71 velocity=0 time=40
note_on channel=0 note=68 velocity=0 time=0
note_on channel=0 note=70 velocity=87 time=20
control_change channel=0 control=10 value=78 time=31
note_on channel=0 note=78 velocity=68 time=1
note_on channel=0 note=78 velocity=0 time=40
note_on channel=0 note=75 velocity=77 time=20
note_on channel=0 note=70 velocity=0 time=15
note_on channel=0 note=75 velocity=0 time=10
control_change channel=0 control=10 value=69 time=2
note_on channel=0 note=69 velocity=89 time=1
control_change channel=0 control=10 value=78 time=31
note_on channel=0 note=78 velocity=75 time=1
note_on channel=0 note=78 velocity=0 time=40
note_on channel=0 note=75 velocity=67 time=20
note_on channel=0 note=69 velocity=0 time=15
note_on channel=0 note=75 velocity=0 time=10
control_change channel=0 control=10 value=68 time=34
note_on channel=0 note=68 velocity=77 time=1
control_change channel=0 control=10 value=73 time=27
note_on channel=0 note=73 velocity=82 time=1
note_on channel=0 note=68 velocity=0 time=3
control_change channel=0 control=10 value=77 time=28
note_on channel=0 note=77 velocity=75 time=1
note_on channel=0 note=73 velocity=0 time=6
control_change channel=0 control=10 value=82 time=21
note_on channel=0 note=82 velocity=93 time=1
note_on channel=0 note=77 velocity=0 time=3
note_on channel=0 note=80 velocity=78 time=29
note_on channel=0 note=82 velocity=0 time=19
control_change channel=0 control=10 value=77 time=8
note_on channel=0 note=77 velocity=80 time=1
note_on channel=0 note=80 velocity=0 time=3
control_change channel=0 control=10 value=73 time=28
note_on channel=0 note=73 velocity=67 time=1
note_on channel=0 note=77 velocity=0 time=6
note_on channel=0 note=73 velocity=0 time=14
note_on channel=0 note=72 velocity=97 time=8
control_change channel=0 control=10 value=80 time=31
note_on channel=0 note=80 velocity=74 time=1
note_on channel=0 note=72 velocity=0 time=9
control_change channel=0 control=10 value=75 time=18
note_on channel=0 note=75 velocity=84 time=1
note_on channel=0 note=80 velocity=0 time=3
note_on channel=0 note=72 velocity=77 time=29
note_on channel=0 note=75 velocity=0 time=6
control_change channel=0 control=10 value=70 time=21
note_on channel=0 note=70 velocity=84 time=1
note_on channel=0 note=72 velocity=0 time=3
note_on channel=0 note=72 velocity=98 time=29
note_on channel=0 note=70 velocity=0 time=19
note_on channel=0 note=72 velocity=0 time=21
note_on channel=0 note=68 velocity=77 time=20
note_on channel=0 note=68 velocity=0 time=25
note_on channel=0 note=73 velocity=67 time=35
control_change channel=0 control=10 value=77 time=27
note_on channel=0 note=77 velocity=79 time=1
note_on channel=0 note=73 velocity=0 time=3
note_on channel=0 note=80 velocity=75 time=29
note_on channel=0 note=77 velocity=0 time=6
control_change channel=0 control=10 value=81 time=21
note_on channel=0 note=77 velocity=91 time=1
note_on channel=0 note=85 velocity=91 time=0
note_on channel=0 note=80 velocity=0 time=3
note_on channel=0 note=82 velocity=79 time=29
note_on channel=0 note=85 velocity=0 time=19
control_change channel=0 control=10 value=75 time=8
note_on channel=0 note=71 velocity=84 time=1
note_on channel=0 note=80 velocity=84 time=0
note_on channel=0 note=82 velocity=0 time=3
note_on channel=0 note=77 velocity=0 time=4
note_on channel=0 note=77 velocity=79 time=25
note_on channel=0 note=80 velocity=0 time=6
note_on channel=0 note=71 velocity=0 time=2
note_on channel=0 note=77 velocity=0 time=12
control_change channel=0 control=10 value=70 time=7
note_on channel=0 note=70 velocity=105 time=1
control_change channel=0 control=10 value=78 time=31
note_on channel=0 note=78 velocity=86 time=1
note_on channel=0 note=78 velocity=0 time=40
note_on channel=0 note=75 velocity=79 time=20
note_on channel=0 note=70 velocity=0 time=15
control_change channel=0 control=10 value=69 time=12
note_on channel=0 note=69 velocity=104 time=1
note_on channel=0 note=75 velocity=0 time=3
control_change channel=0 control=10 value=78 time=28
note_on channel=0 note=78 velocity=91 time=1
note_on channel=0 note=78 velocity=0 time=40
note_on channel=0 note=75 velocity=89 time=20
note_on channel=0 note=69 velocity=0 time=15
note_on channel=0 note=75 velocity=0 time=16
control_change channel=0 control=10 value=68 time=28
note_on channel=0 note=68 velocity=77 time=1
note_on channel=0 note=68 velocity=0 time=25
control_change channel=0 control=10 value=73 time=2
note_on channel=0 note=73 velocity=89 time=1
note_on channel=0 note=73 velocity=0 time=31
control_change channel=0 control=10 value=77 time=0
note_on channel=0 note=77 velocity=78 time=1
note_on channel=0 note=77 velocity=0 time=25
control_change channel=0 control=10 value=82 time=2
note_on channel=0 note=82 velocity=95 time=1
note_on channel=0 note=80 velocity=77 time=32
note_on channel=0 note=82 velocity=0 time=9
note_on channel=0 note=80 velocity=0 time=16
control_change channel=0 control=10 value=77 time=2
note_on channel=0 note=77 velocity=84 time=1
note_on channel=0 note=77 velocity=0 time=31
control_change channel=0 control=10 value=68 time=0
note_on channel=0 note=68 velocity=80 time=1
note_on channel=0 note=67 velocity=95 time=28
note_on channel=0 note=68 velocity=0 time=10
note_on channel=0 note=70 velocity=84 time=22
note_on channel=0 note=73 velocity=84 time=0
note_on channel=0 note=73 velocity=0 time=74
note_on channel=0 note=70 velocity=0 time=0
note_on channel=0 note=67 velocity=0 time=1
note_on channel=0 note=66 velocity=92 time=13
control_change channel=0 control=10 value=73 time=31
note_on channel=0 note=72 velocity=79 time=1
note_on channel=0 note=75 velocity=79 time=0
note_on channel=0 note=66 velocity=0 time=48
note_on channel=0 note=75 velocity=0 time=2
note_on channel=0 note=72 velocity=0 time=0
control_change channel=0 control=10 value=69 time=9
note_on channel=0 note=73 velocity=90 time=1
note_on channel=0 note=65 velocity=90 time=0
note_on channel=0 note=65 velocity=0 time=70
note_on channel=0 note=73 velocity=0 time=0
control_change channel=0 control=10 value=77 time=17
note_on channel=0 note=77 velocity=72 time=1
control_change channel=0 control=10 value=73 time=31
note_on channel=0 note=73 velocity=62 time=1
note_on channel=0 note=77 velocity=0 time=6
note_on channel=0 note=75 velocity=73 time=22
note_on channel=0 note=73 velocity=0 time=10
control_change channel=0 control=10 value=77 time=21
note_on channel=0 note=77 velocity=90 time=1
note_on channel=0 note=75 velocity=0 time=13
note_on channel=0 note=77 velocity=0 time=12
control_change channel=0 control=10 value=68 time=2
note_on channel=0 note=68 velocity=79 time=1
note_on channel=0 note=69 velocity=76 time=32
note_on channel=0 note=68 velocity=0 time=6
note_on channel=0 note=70 velocity=93 time=22
note_on channel=0 note=69 velocity=0 time=3
control_change channel=0 control=10 value=78 time=28
note_on channel=0 note=78 velocity=80 time=1
note_on channel=0 note=70 velocity=0 time=1
note_on channel=0 note=78 velocity=0 time=39
note_on channel=0 note=75 velocity=78 time=20
control_change channel=0 control=10 value=69 time=27
note_on channel=0 note=69 velocity=102 time=1
note_on channel=0 note=75 velocity=0 time=3
control_change channel=0 control=10 value=78 time=28
note_on channel=0 note=78 velocity=82 time=1
note_on channel=0 note=69 velocity=0 time=1
note_on channel=0 note=78 velocity=0 time=39
note_on channel=0 note=75 velocity=75 time=20
control_change channel=0 control=10 value=68 time=27
note_on channel=0 note=68 velocity=98 time=1
note_on channel=0 note=75 velocity=0 time=3
control_change channel=0 control=10 value=73 time=28
note_on channel=0 note=73 velocity=75 time=1
note_on channel=0 note=68 velocity=0 time=1
note_on channel=0 note=73 velocity=0 time=19
control_change channel=0 control=10 value=77 time=7
note_on channel=0 note=77 velocity=83 time=1
note_on channel=0 note=77 velocity=0 time=25
control_change channel=0 control=10 value=82 time=6
note_on channel=0 note=82 velocity=98 time=1
note_on channel=0 note=80 velocity=73 time=60
note_on channel=0 note=82 velocity=0 time=2
note_on channel=0 note=80 velocity=0 time=18
control_change channel=0 control=10 value=77 time=7
note_on channel=0 note=77 velocity=80 time=1
note_on channel=0 note=77 velocity=0 time=25
control_change channel=0 control=10 value=73 time=6
note_on channel=0 note=73 velocity=67 time=1
note_on channel=0 note=73 velocity=0 time=20
note_on channel=0 note=72 velocity=92 time=8
control_change channel=0 control=10 value=80 time=31
note_on channel=0 note=80 velocity=75 time=1
note_on channel=0 note=72 velocity=0 time=1
note_on channel=0 note=80 velocity=0 time=19
control_change channel=0 control=10 value=75 time=7
note_on channel=0 note=75 velocity=83 time=1
note_on channel=0 note=75 velocity=0 time=25
note_on channel=0 note=72 velocity=75 time=7
note_on channel=0 note=72 velocity=0 time=20
control_change channel=0 control=10 value=70 time=7
note_on channel=0 note=70 velocity=83 time=1
note_on channel=0 note=72 velocity=94 time=32
note_on channel=0 note=70 velocity=0 time=1
note_on channel=0 note=72 velocity=0 time=49
note_on channel=0 note=68 velocity=74 time=10
note_on channel=0 note=73 velocity=95 time=28
note_on channel=0 note=68 velocity=0 time=3
note_on channel=0 note=73 velocity=0 time=24
note_on channel=0 note=73 velocity=75 time=5
note_on channel=0 note=73 velocity=0 time=20
control_change channel=0 control=10 value=77 time=7
note_on channel=0 note=77 velocity=80 time=1
note_on channel=0 note=77 velocity=0 time=25
note_on channel=0 note=80 velocity=83 time=7
note_on channel=0 note=80 velocity=0 time=20
control_change channel=0 control=10 value=85 time=7
note_on channel=0 note=85 velocity=105 time=1
note_on channel=0 note=82 velocity=79 time=32
note_on channel=0 note=85 velocity=0 time=9
note_on channel=0 note=82 velocity=0 time=16
control_change channel=0 control=10 value=80 time=2
note_on channel=0 note=80 velocity=83 time=1
note_on channel=0 note=80 velocity=0 time=31
note_on channel=0 note=77 velocity=77 time=1
note_on channel=0 note=77 velocity=0 time=25
control_change channel=0 control=10 value=70 time=2
note_on channel=0 note=70 velocity=94 time=1
control_change channel=0 control=10 value=78 time=31
note_on channel=0 note=78 velocity=78 time=1
note_on channel=0 note=70 velocity=0 time=9
note_on channel=0 note=78 velocity=0 time=31
note_on channel=0 note=75 velocity=79 time=20
control_change channel=0 control=10 value=69 time=27
note_on channel=0 note=69 velocity=98 time=1
note_on channel=0 note=75 velocity=0 time=3
control_change channel=0 control=10 value=78 time=28
note_on channel=0 note=78 velocity=78 time=1
note_on channel=0 note=69 velocity=0 time=9
note_on channel=0 note=78 velocity=0 time=31
note_on channel=0 note=75 velocity=67 time=20
control_change channel=0 control=10 value=68 time=27
note_on channel=0 note=68 velocity=89 time=1
note_on channel=0 note=75 velocity=0 time=3
control_change channel=0 control=10 value=73 time=28
note_on channel=0 note=73 velocity=67 time=1
note_on channel=0 note=68 velocity=0 time=9
note_on channel=0 note=73 velocity=0 time=16
control_change channel=0 control=10 value=77 time=2
note_on channel=0 note=77 velocity=75 time=1
note_on channel=0 note=77 velocity=0 time=31
control_change channel=0 control=10 value=82 time=0
note_on channel=0 note=82 velocity=97 time=1
note_on channel=0 note=80 velocity=67 time=60
note_on channel=0 note=82 velocity=0 time=2
note_on channel=0 note=80 velocity=0 time=23
control_change channel=0 control=10 value=77 time=2
note_on channel=0 note=77 velocity=84 time=1
note_on channel=0 note=77 velocity=0 time=31
control_change channel=0 control=10 value=73 time=0
note_on channel=0 note=73 velocity=77 time=1
note_on channel=0 note=73 velocity=0 time=25
note_on channel=0 note=75 velocity=87 time=3
control_change channel=0 control=10 value=77 time=31
note_on channel=0 note=77 velocity=78 time=1
note_on channel=0 note=75 velocity=0 time=9
note_on channel=0 note=77 velocity=0 time=16
note_on channel=0 note=75 velocity=93 time=3
note_on channel=0 note=75 velocity=0 time=31
control_change channel=0 control=10 value=73 time=0
note_on channel=0 note=73 velocity=78 time=1
note_on channel=0 note=73 velocity=0 time=25
note_on channel=0 note=72 velocity=97 time=3
note_on channel=0 note=73 velocity=104 time=32
note_on channel=0 note=72 velocity=0 time=9
note_on channel=0 note=73 velocity=0 time=41
note_on channel=0 note=70 velocity=67 time=10
control_change channel=0 control=10 value=68 time=27
note_on channel=0 note=68 velocity=84 time=1
note_on channel=0 note=70 velocity=0 time=3
note_on channel=0 note=68 velocity=0 time=51
control_change channel=0 control=10 value=74 time=5
note_on channel=0 note=71 velocity=96 time=1
note_on channel=0 note=77 velocity=96 time=0
note_on channel=0 note=72 velocity=87 time=32
note_on channel=0 note=75 velocity=87 time=0
note_on channel=0 note=77 velocity=0 time=5
note_on channel=0 note=71 velocity=0 time=0
note_on channel=0 note=72 velocity=0 time=15
note_on channel=0 note=75 velocity=0 time=0
note_on channel=0 note=80 velocity=116 time=8
note_on channel=0 note=72 velocity=116 time=0
note_on channel=0 note=72 velocity=0 time=54
note_on channel=0 note=80 velocity=0 time=0
control_change channel=0 control=10 value=69 time=5
note_on channel=0 note=68 velocity=78 time=1
note_on channel=0 note=71 velocity=78 time=0
note_on channel=0 note=71 velocity=0 time=40
note_on channel=0 note=68 velocity=0 time=0
note_on channel=0 note=70 velocity=86 time=20
control_change channel=0 control=10 value=78 time=31
note_on channel=0 note=78 velocity=67 time=1
note_on channel=0 note=78 velocity=0 time=40
note_on channel=0 note=75 velocity=77 time=20
note_on channel=0 note=70 velocity=0 time=15
note_on channel=0 note=75 velocity=0 time=10
control_change channel=0 control=10 value=69 time=2
note_on channel=0 note=69 velocity=89 time=1
control_change channel=0 control=10 value=78 time=31
note_on channel=0 note=78 velocity=75 time=1
note_on channel=0 note=78 velocity=0 time=40
note_on channel=0 note=75 velocity=67 time=20
note_on channel=0 note=69 velocity=0 time=15
note_on channel=0 note=75 velocity=0 time=10
control_change channel=0 control=10 value=68 time=34
note_on channel=0 note=68 velocity=77 time=1
control_change channel=0 control=10 value=73 time=27
note_on channel=0 note=73 velocity=82 time=1
note_on channel=0 note=68 velocity=0 time=3
control_change channel=0 control=10 value=77 time=28
note_on channel=0 note=77 velocity=75 time=1
note_on channel=0 note=73 velocity=0 time=6
control_change channel=0 control=10 value=82 time=21
note_on channel=0 note=82 velocity=93 time=1
note_on channel=0 note=77 velocity=0 time=3
note_on channel=0 note=80 velocity=78 time=29
note_on channel=0 note=82 velocity=0 time=19
control_change channel=0 control=10 value=77 time=8
note_on channel=0 note=77 velocity=80 time=1
note_on channel=0 note=80 velocity=0 time=3
control_change channel=0 control=10 value=73 time=28
note_on channel=0 note=73 velocity=67 time=1
note_on channel=0 note=77 velocity=0 time=6
note_on channel=0 note=73 velocity=0 time=14
note_on channel=0 note=72 velocity=97 time=8
control_change channel=0 control=10 value=80 time=31
note_on channel=0 note=80 velocity=74 time=1
note_on channel=0 note=72 velocity=0 time=9
control_change channel=0 control=10 value=75 time=18
note_on channel=0 note=75 velocity=84 time=1
note_on channel=0 note=80 velocity=0 time=3
note_on channel=0 note=72 velocity=77 time=29
note_on channel=0 note=75 velocity=0 time=6
control_change channel=0 control=10 value=70 time=21
note_on channel=0 note=70 velocity=84 time=1
note_on channel=0 note=72 velocity=0 time=3
note_on channel=0 note=72 velocity=98 time=29
note_on channel=0 note=70 velocity=0 time=19
note_on channel=0 note=72 velocity=0 time=21
note_on channel=0 note=68 velocity=77 time=20
note_on channel=0 note=68 velocity=0 time=25
note_on channel=0 note=73 velocity=67 time=35
control_change channel=0 control=10 value=77 time=27
note_on channel=0 note=77 velocity=79 time=1
note_on channel=0 note=73 velocity=0 time=3
note_on channel=0 note=80 velocity=75 time=29
note_on channel=0 note=77 velocity=0 time=6
control_change channel=0 control=10 value=81 time=21
note_on channel=0 note=85 velocity=91 time=1
note_on channel=0 note=77 velocity=91 time=0
note_on channel=0 note=80 velocity=0 time=3
note_on channel=0 note=82 velocity=79 time=29
note_on channel=0 note=85 velocity=0 time=19
control_change channel=0 control=10 value=75 time=8
note_on channel=0 note=71 velocity=84 time=1
note_on channel=0 note=80 velocity=84 time=0
note_on channel=0 note=82 velocity=0 time=3
note_on channel=0 note=77 velocity=0 time=4
note_on channel=0 note=77 velocity=79 time=25
note_on channel=0 note=80 velocity=0 time=6
note_on channel=0 note=71 velocity=0 time=2
note_on channel=0 note=77 velocity=0 time=12
control_change channel=0 control=10 value=70 time=7
note_on channel=0 note=70 velocity=94 time=1
control_change channel=0 control=10 value=78 time=31
note_on channel=0 note=78 velocity=74 time=1
note_on channel=0 note=78 velocity=0 time=40
note_on channel=0 note=75 velocity=79 time=20
note_on channel=0 note=70 velocity=0 time=15
control_change channel=0 control=10 value=69 time=12
note_on channel=0 note=69 velocity=94 time=1
note_on channel=0 note=75 velocity=0 time=3
control_change channel=0 control=10 value=78 time=28
note_on channel=0 note=78 velocity=83 time=1
note_on channel=0 note=78 velocity=0 time=40
note_on channel=0 note=75 velocity=77 time=20
note_on channel=0 note=69 velocity=0 time=15
note_on channel=0 note=75 velocity=0 time=16
control_change channel=0 control=10 value=68 time=28
note_on channel=0 note=68 velocity=76 time=1
note_on channel=0 note=68 velocity=0 time=25
control_change channel=0 control=10 value=73 time=2
note_on channel=0 note=73 velocity=88 time=1
note_on channel=0 note=73 velocity=0 time=31
control_change channel=0 control=10 value=77 time=0
note_on channel=0 note=77 velocity=77 time=1
note_on channel=0 note=77 velocity=0 time=25
control_change channel=0 control=10 value=82 time=2
note_on channel=0 note=82 velocity=94 time=1
note_on channel=0 note=80 velocity=76 time=32
note_on channel=0 note=82 velocity=0 time=9
note_on channel=0 note=80 velocity=0 time=16
control_change channel=0 control=10 value=77 time=2
note_on channel=0 note=77 velocity=83 time=1
note_on channel=0 note=77 velocity=0 time=31
control_change channel=0 control=10 value=68 time=0
note_on channel=0 note=68 velocity=79 time=1
note_on channel=0 note=67 velocity=94 time=28
note_on channel=0 note=68 velocity=0 time=10
note_on channel=0 note=70 velocity=83 time=22
note_on channel=0 note=73 velocity=83 time=0
note_on channel=0 note=73 velocity=0 time=74
note_on channel=0 note=70 velocity=0 time=0
note_on channel=0 note=67 velocity=0 time=1
note_on channel=0 note=66 velocity=91 time=13
control_change channel=0 control=10 value=73 time=31
note_on channel=0 note=72 velocity=79 time=1
note_on channel=0 note=75 velocity=79 time=0
note_on channel=0 note=66 velocity=0 time=48
note_on channel=0 note=75 velocity=0 time=2
note_on channel=0 note=72 velocity=0 time=0
control_change channel=0 control=10 value=69 time=9
note_on channel=0 note=65 velocity=96 time=1
note_on channel=0 note=73 velocity=96 time=0
note_on channel=0 note=73 velocity=0 time=166
note_on channel=0 note=65 velocity=0 time=0
control_change channel=0 control=10 value=74 time=13
note_on channel=0 note=80 velocity=71 time=1
note_on channel=0 note=68 velocity=71 time=0
note_on channel=0 note=70 velocity=79 time=28
note_on channel=0 note=82 velocity=79 time=0
note_on channel=0 note=68 velocity=0 time=3
note_on channel=0 note=80 velocity=0 time=0
note_on channel=0 note=83 velocity=72 time=29
note_on channel=0 note=71 velocity=72 time=0
note_on channel=0 note=70 velocity=0 time=6
note_on channel=0 note=82 velocity=0 time=0
control_change channel=0 control=10 value=78 time=21
note_on channel=0 note=84 velocity=99 time=1
note_on channel=0 note=72 velocity=99 time=0
note_on channel=0 note=78 velocity=99 time=0
note_on channel=0 note=83 velocity=0 time=3
note_on channel=0 note=71 velocity=0 time=0
note_on channel=0 note=72 velocity=0 time=51
note_on channel=0 note=84 velocity=0 time=0
note_on channel=0 note=78 velocity=0 time=0
control_change channel=0 control=10 value=74 time=5
note_on channel=0 note=80 velocity=76 time=1
note_on channel=0 note=68 velocity=76 time=0
note_on channel=0 note=78 velocity=81 time=32
note_on channel=0 note=82 velocity=81 time=0
note_on channel=0 note=70 velocity=81 time=0
note_on channel=0 note=68 velocity=0 time=6
note_on channel=0 note=80 velocity=0 time=0
note_on channel=0 note=82 velocity=0 time=104
note_on channel=0 note=78 velocity=0 time=0
note_on channel=0 note=70 velocity=0 time=0
control_change channel=0 control=10 value=78 time=37
note_on channel=0 note=84 velocity=89 time=1
note_on channel=0 note=78 velocity=89 time=0
note_on channel=0 note=72 velocity=89 time=0
note_on channel=0 note=72 velocity=0 time=54
note_on channel=0 note=78 velocity=0 time=0
note_on channel=0 note=84 velocity=0 time=0
control_change channel=0 control=10 value=74 time=5
note_on channel=0 note=80 velocity=66 time=1
note_on channel=0 note=68 velocity=66 time=0
note_on channel=0 note=82 velocity=83 time=32
note_on channel=0 note=78 velocity=83 time=0
note_on channel=0 note=70 velocity=83 time=0
note_on channel=0 note=68 velocity=0 time=6
note_on channel=0 note=80 velocity=0 time=0
note_on channel=0 note=78 velocity=0 time=44
note_on channel=0 note=82 velocity=0 time=0
note_on channel=0 note=70 velocity=0 time=0
note_on channel=0 note=80 velocity=61 time=10
note_on channel=0 note=68 velocity=61 time=0
note_on channel=0 note=70 velocity=74 time=28
note_on channel=0 note=82 velocity=74 time=0
note_on channel=0 note=68 velocity=0 time=3
note_on channel=0 note=80 velocity=0 time=0
control_change channel=0 control=10 value=78 time=28
note_on channel=0 note=84 velocity=66 time=1
note_on channel=0 note=72 velocity=66 time=0
note_on channel=0 note=70 velocity=0 time=6
note_on channel=0 note=82 velocity=0 time=0
note_on channel=0 note=77 velocity=89 time=22
note_on channel=0 note=85 velocity=89 time=0
note_on channel=0 note=73 velocity=89 time=0
note_on channel=0 note=84 velocity=0 time=3
note_on channel=0 note=72 velocity=0 time=0
note_on channel=0 note=85 velocity=0 time=51
note_on channel=0 note=77 velocity=0 time=0
note_on channel=0 note=73 velocity=0 time=0
note_on channel=0 note=77 velocity=66 time=6
note_on channel=0 note=80 velocity=66 time=0
note_on channel=0 note=68 velocity=66 time=0
note_on channel=0 note=77 velocity=0 time=20
note_on channel=0 note=70 velocity=79 time=12
note_on channel=0 note=77 velocity=79 time=0
note_on channel=0 note=82 velocity=79 time=0
note_on channel=0 note=68 velocity=0 time=6
note_on channel=0 note=80 velocity=0 time=0
note_on channel=0 note=77 velocity=0 time=104
note_on channel=0 note=70 velocity=0 time=0
note_on channel=0 note=82 velocity=0 time=0
note_on channel=0 note=73 velocity=86 time=38
note_on channel=0 note=85 velocity=86 time=0
note_on channel=0 note=77 velocity=86 time=0
note_on channel=0 note=77 velocity=0 time=54
note_on channel=0 note=85 velocity=0 time=0
note_on channel=0 note=73 velocity=0 time=0
note_on channel=0 note=77 velocity=66 time=6
note_on channel=0 note=68 velocity=66 time=0
note_on channel=0 note=80 velocity=66 time=0
note_on channel=0 note=77 velocity=0 time=20
note_on channel=0 note=70 velocity=77 time=12
note_on channel=0 note=82 velocity=77 time=0
note_on channel=0 note=77 velocity=77 time=0
note_on channel=0 note=80 velocity=0 time=6
note_on channel=0 note=68 velocity=0 time=0
note_on channel=0 note=82 velocity=0 time=104
note_on channel=0 note=70 velocity=0 time=0
note_on channel=0 note=77 velocity=0 time=0
control_change channel=0 control=10 value=82 time=97
note_on channel=0 note=82 velocity=66 time=1
control_change channel=0 control=10 value=76 time=31
note_on channel=0 note=78 velocity=90 time=1
note_on channel=0 note=80 velocity=90 time=0
note_on channel=0 note=72 velocity=90 time=0
note_on channel=0 note=82 velocity=0 time=6
note_on channel=0 note=78 velocity=0 time=104
note_on channel=0 note=80 velocity=0 time=0
note_on channel=0 note=72 velocity=0 time=0
control_change channel=0 control=10 value=82 time=97
note_on channel=0 note=82 velocity=74 time=1
control_change channel=0 control=10 value=76 time=31
note_on channel=0 note=72 velocity=89 time=1
note_on channel=0 note=80 velocity=89 time=0
note_on channel=0 note=78 velocity=89 time=0
note_on channel=0 note=82 velocity=0 time=6
note_on channel=0 note=72 velocity=0 time=104
note_on channel=0 note=80 velocity=0 time=0
note_on channel=0 note=78 velocity=0 time=0
control_change channel=0 control=10 value=82 time=97
note_on channel=0 note=82 velocity=82 time=1
control_change channel=0 control=10 value=76 time=31
note_on channel=0 note=73 velocity=96 time=1
note_on channel=0 note=80 velocity=96 time=0
note_on channel=0 note=77 velocity=96 time=0
note_on channel=0 note=82 velocity=0 time=6
note_on channel=0 note=73 velocity=0 time=104
note_on channel=0 note=80 velocity=0 time=0
note_on channel=0 note=77 velocity=0 time=0
control_change channel=0 control=10 value=82 time=97
note_on channel=0 note=82 velocity=77 time=1
control_change channel=0 control=10 value=76 time=31
note_on channel=0 note=77 velocity=95 time=1
note_on channel=0 note=73 velocity=95 time=0
note_on channel=0 note=80 velocity=95 time=0
note_on channel=0 note=82 velocity=0 time=6
note_on channel=0 note=77 velocity=0 time=44
note_on channel=0 note=73 velocity=0 time=0
note_on channel=0 note=80 velocity=0 time=0
note_on channel=0 note=68 velocity=66 time=10
note_on channel=0 note=80 velocity=66 time=0
note_on channel=0 note=82 velocity=79 time=28
note_on channel=0 note=70 velocity=79 time=0
note_on channel=0 note=80 velocity=0 time=3
note_on channel=0 note=68 velocity=0 time=0
note_on channel=0 note=71 velocity=76 time=29
note_on channel=0 note=83 velocity=76 time=0
note_on channel=0 note=82 velocity=0 time=6
note_on channel=0 note=70 velocity=0 time=0
note_on channel=0 note=84 velocity=90 time=22
note_on channel=0 note=78 velocity=90 time=0
note_on channel=0 note=72 velocity=90 time=0
note_on channel=0 note=71 velocity=0 time=3
note_on channel=0 note=83 velocity=0 time=0
note_on channel=0 note=78 velocity=0 time=51
note_on channel=0 note=84 velocity=0 time=0
note_on channel=0 note=72 velocity=0 time=0
note_on channel=0 note=80 velocity=66 time=6
note_on channel=0 note=68 velocity=66 time=0
note_on channel=0 note=78 velocity=81 time=32
note_on channel=0 note=70 velocity=81 time=0
note_on channel=0 note=82 velocity=81 time=0
note_on channel=0 note=68 velocity=0 time=6
note_on channel=0 note=80 velocity=0 time=0
note_on channel=0 note=70 velocity=0 time=104
note_on channel=0 note=78 velocity=0 time=0
note_on channel=0 note=82 velocity=0 time=0
note_on channel=0 note=72 velocity=93 time=38
note_on channel=0 note=78 velocity=93 time=0
note_on channel=0 note=84 velocity=93 time=0
note_on channel=0 note=84 velocity=0 time=54
note_on channel=0 note=78 velocity=0 time=0
note_on channel=0 note=72 velocity=0 time=0
note_on channel=0 note=80 velocity=66 time=6
note_on channel=0 note=68 velocity=66 time=0
note_on channel=0 note=82 velocity=83 time=32
note_on channel=0 note=70 velocity=83 time=0
note_on channel=0 note=78 velocity=83 time=0
note_on channel=0 note=68 velocity=0 time=6
note_on channel=0 note=80 velocity=0 time=0
note_on channel=0 note=70 velocity=0 time=44
note_on channel=0 note=82 velocity=0 time=0
note_on channel=0 note=78 velocity=0 time=0
note_on channel=0 note=80 velocity=73 time=10
note_on channel=0 note=68 velocity=73 time=0
note_on channel=0 note=82 velocity=83 time=28
note_on channel=0 note=70 velocity=83 time=0
note_on channel=0 note=68 velocity=0 time=3
note_on channel=0 note=80 velocity=0 time=0
note_on channel=0 note=72 velocity=79 time=29
note_on channel=0 note=84 velocity=79 time=0
note_on channel=0 note=82 velocity=0 time=6
note_on channel=0 note=70 velocity=0 time=0
note_on channel=0 note=73 velocity=103 time=22
note_on channel=0 note=85 velocity=103 time=0
note_on channel=0 note=77 velocity=103 time=0
note_on channel=0 note=72 velocity=0 time=3
note_on channel=0 note=84 velocity=0 time=0
note_on channel=0 note=85 velocity=0 time=51
note_on channel=0 note=73 velocity=0 time=0
note_on channel=0 note=77 velocity=0 time=0
note_on channel=0 note=80 velocity=79 time=6
note_on channel=0 note=77 velocity=79 time=0
note_on channel=0 note=68 velocity=79 time=0
note_on channel=0 note=77 velocity=0 time=20
note_on channel=0 note=82 velocity=96 time=12
note_on channel=0 note=70 velocity=96 time=0
note_on channel=0 note=77 velocity=96 time=0
note_on channel=0 note=68 velocity=0 time=6
note_on channel=0 note=80 velocity=0 time=0
note_on channel=0 note=70 velocity=0 time=104
note_on channel=0 note=82 velocity=0 time=0
note_on channel=0 note=77 velocity=0 time=0
note_on channel=0 note=73 velocity=66 time=70
note_on channel=0 note=77 velocity=74 time=28
note_on channel=0 note=73 velocity=0 time=3
control_change channel=0 control=10 value=80 time=28
note_on channel=0 note=80 velocity=61 time=1
note_on channel=0 note=77 velocity=0 time=6
note_on channel=0 note=85 velocity=86 time=22
note_on channel=0 note=77 velocity=86 time=0
note_on channel=0 note=80 velocity=0 time=3
note_on channel=0 note=82 velocity=63 time=29
note_on channel=0 note=85 velocity=0 time=10
note_on channel=0 note=77 velocity=0 time=12
control_change channel=0 control=10 value=75 time=5
note_on channel=0 note=71 velocity=79 time=1
note_on channel=0 note=80 velocity=79 time=0
note_on channel=0 note=82 velocity=0 time=3
note_on channel=0 note=77 velocity=66 time=29
note_on channel=0 note=80 velocity=0 time=6
note_on channel=0 note=71 velocity=0 time=11
note_on channel=0 note=77 velocity=0 time=8
control_change channel=0 control=10 value=70 time=2
note_on channel=0 note=70 velocity=88 time=1
control_change channel=0 control=10 value=78 time=31
note_on channel=0 note=78 velocity=74 time=1
note_on channel=0 note=78 velocity=0 time=40
note_on channel=0 note=75 velocity=66 time=20
note_on channel=0 note=70 velocity=0 time=15
control_change channel=0 control=10 value=69 time=12
note_on channel=0 note=69 velocity=93 time=1
note_on channel=0 note=75 velocity=0 time=10
control_change channel=0 control=10 value=78 time=21
note_on channel=0 note=78 velocity=78 time=1
note_on channel=0 note=78 velocity=0 time=40
note_on channel=0 note=75 velocity=66 time=20
note_on channel=0 note=69 velocity=0 time=15
note_on channel=0 note=75 velocity=0 time=5
control_change channel=0 control=10 value=68 time=39
note_on channel=0 note=68 velocity=74 time=1
control_change channel=0 control=10 value=73 time=27
note_on channel=0 note=73 velocity=83 time=1
note_on channel=0 note=68 velocity=0 time=3
control_change channel=0 control=10 value=77 time=28
note_on channel=0 note=77 velocity=74 time=1
note_on channel=0 note=73 velocity=0 time=6
control_change channel=0 control=10 value=82 time=21
note_on channel=0 note=82 velocity=91 time=1
note_on channel=0 note=77 velocity=0 time=3
note_on channel=0 note=80 velocity=74 time=29
note_on channel=0 note=82 velocity=0 time=10
control_change channel=0 control=10 value=77 time=17
note_on channel=0 note=77 velocity=79 time=1
note_on channel=0 note=80 velocity=0 time=3
control_change channel=0 control=10 value=68 time=28
note_on channel=0 note=68 velocity=74 time=1
note_on channel=0 note=77 velocity=0 time=6
note_on channel=0 note=68 velocity=0 time=14
note_on channel=0 note=67 velocity=99 time=8
note_on channel=0 note=73 velocity=78 time=32
note_on channel=0 note=70 velocity=78 time=0
note_on channel=0 note=70 velocity=0 time=74
note_on channel=0 note=73 velocity=0 time=0
note_on channel=0 note=67 velocity=0 time=1
note_on channel=0 note=66 velocity=101 time=13
control_change channel=0 control=10 value=73 time=31
note_on channel=0 note=75 velocity=79 time=1
note_on channel=0 note=72 velocity=79 time=0
note_on channel=0 note=66 velocity=0 time=48
note_on channel=0 note=72 velocity=0 time=1
note_on channel=0 note=75 velocity=0 time=0
control_change channel=0 control=10 value=69 time=10
note_on channel=0 note=65 velocity=94 time=1
note_on channel=0 note=73 velocity=94 time=0
note_on channel=0 note=73 velocity=0 time=170
note_on channel=0 note=65 velocity=0 time=0
control_change channel=0 control=10 value=74 time=9
note_on channel=0 note=68 velocity=74 time=1
note_on channel=0 note=80 velocity=74 time=0
note_on channel=0 note=70 velocity=87 time=28
note_on channel=0 note=82 velocity=87 time=0
note_on channel=0 note=80 velocity=0 time=3
note_on channel=0 note=68 velocity=0 time=0
note_on channel=0 note=71 velocity=83 time=29
note_on channel=0 note=83 velocity=83 time=0
note_on channel=0 note=70 velocity=0 time=6
note_on channel=0 note=82 velocity=0 time=0
control_change channel=0 control=10 value=78 time=21
note_on channel=0 note=78 velocity=111 time=1
note_on channel=0 note=84 velocity=111 time=0
note_on channel=0 note=72 velocity=111 time=0
note_on channel=0 note=71 velocity=0 time=3
note_on channel=0 note=83 velocity=0 time=0
note_on channel=0 note=84 velocity=0 time=51
note_on channel=0 note=78 velocity=0 time=0
note_on channel=0 note=72 velocity=0 time=0
control_change channel=0 control=10 value=74 time=5
note_on channel=0 note=68 velocity=85 time=1
note_on channel=0 note=80 velocity=85 time=0
note_on channel=0 note=78 velocity=91 time=32
note_on channel=0 note=70 velocity=91 time=0
note_on channel=0 note=82 velocity=91 time=0
note_on channel=0 note=80 velocity=0 time=6
note_on channel=0 note=68 velocity=0 time=0
note_on channel=0 note=70 velocity=0 time=104
note_on channel=0 note=78 velocity=0 time=0
note_on channel=0 note=82 velocity=0 time=0
control_change channel=0 control=10 value=78 time=37
note_on channel=0 note=84 velocity=99 time=1
note_on channel=0 note=78 velocity=99 time=0
note_on channel=0 note=72 velocity=99 time=0
note_on channel=0 note=72 velocity=0 time=54
note_on channel=0 note=78 velocity=0 time=0
note_on channel=0 note=84 velocity=0 time=0
control_change channel=0 control=10 value=74 time=5
note_on channel=0 note=68 velocity=74 time=1
note_on channel=0 note=80 velocity=74 time=0
note_on channel=0 note=70 velocity=93 time=32
note_on channel=0 note=82 velocity=93 time=0
note_on channel=0 note=78 velocity=93 time=0
note_on channel=0 note=80 velocity=0 time=6
note_on channel=0 note=68 velocity=0 time=0
note_on channel=0 note=82 velocity=0 time=44
note_on channel=0 note=70 velocity=0 time=0
note_on channel=0 note=78 velocity=0 time=0
note_on channel=0 note=68 velocity=68 time=10
note_on channel=0 note=80 velocity=68 time=0
note_on channel=0 note=70 velocity=83 time=28
note_on channel=0 note=82 velocity=83 time=0
note_on channel=0 note=80 velocity=0 time=3
note_on channel=0 note=68 velocity=0 time=0
control_change channel=0 control=10 value=78 time=28
note_on channel=0 note=84 velocity=74 time=1
note_on channel=0 note=72 velocity=74 time=0
note_on channel=0 note=70 velocity=0 time=6
note_on channel=0 note=82 velocity=0 time=0
note_on channel=0 note=85 velocity=99 time=22
note_on channel=0 note=77 velocity=99 time=0
note_on channel=0 note=73 velocity=99 time=0
note_on channel=0 note=84 velocity=0 time=3
note_on channel=0 note=72 velocity=0 time=0
note_on channel=0 note=77 velocity=0 time=51
note_on channel=0 note=85 velocity=0 time=0
note_on channel=0 note=73 velocity=0 time=0
note_on channel=0 note=80 velocity=74 time=6
note_on channel=0 note=68 velocity=74 time=0
note_on channel=0 note=77 velocity=74 time=0
note_on channel=0 note=77 velocity=0 time=20
note_on channel=0 note=82 velocity=88 time=12
note_on channel=0 note=70 velocity=88 time=0
note_on channel=0 note=77 velocity=88 time=0
note_on channel=0 note=68 velocity=0 time=6
note_on channel=0 note=80 velocity=0 time=0
note_on channel=0 note=70 velocity=0 time=104
note_on channel=0 note=82 velocity=0 time=0
note_on channel=0 note=77 velocity=0 time=0
note_on channel=0 note=77 velocity=96 time=38
note_on channel=0 note=73 velocity=96 time=0
note_on channel=0 note=85 velocity=96 time=0
note_on channel=0 note=85 velocity=0 time=54
note_on channel=0 note=73 velocity=0 time=0
note_on channel=0 note=77 velocity=0 time=0
note_on channel=0 note=80 velocity=74 time=6
note_on channel=0 note=77 velocity=74 time=0
note_on channel=0 note=68 velocity=74 time=0
note_on channel=0 note=77 velocity=0 time=20
note_on channel=0 note=70 velocity=86 time=12
note_on channel=0 note=82 velocity=86 time=0
note_on channel=0 note=77 velocity=86 time=0
note_on channel=0 note=68 velocity=0 time=6
note_on channel=0 note=80 velocity=0 time=0
note_on channel=0 note=82 velocity=0 time=104
note_on channel=0 note=70 velocity=0 time=0
note_on channel=0 note=77 velocity=0 time=0
control_change channel=0 control=10 value=82 time=97
note_on channel=0 note=82 velocity=74 time=1
control_change channel=0 control=10 value=76 time=31
note_on channel=0 note=78 velocity=100 time=1
note_on channel=0 note=80 velocity=100 time=0
note_on channel=0 note=72 velocity=100 time=0
note_on channel=0 note=82 velocity=0 time=6
note_on channel=0 note=78 velocity=0 time=104
note_on channel=0 note=80 velocity=0 time=0
note_on channel=0 note=72 velocity=0 time=0
control_change channel=0 control=10 value=82 time=97
note_on channel=0 note=82 velocity=83 time=1
control_change channel=0 control=10 value=76 time=31
note_on channel=0 note=72 velocity=99 time=1
note_on channel=0 note=78 velocity=99 time=0
note_on channel=0 note=80 velocity=99 time=0
note_on channel=0 note=82 velocity=0 time=6
note_on channel=0 note=72 velocity=0 time=104
note_on channel=0 note=78 velocity=0 time=0
note_on channel=0 note=80 velocity=0 time=0
control_change channel=0 control=10 value=82 time=97
note_on channel=0 note=82 velocity=92 time=1
control_change channel=0 control=10 value=76 time=31
note_on channel=0 note=73 velocity=108 time=1
note_on channel=0 note=80 velocity=108 time=0
note_on channel=0 note=77 velocity=108 time=0
note_on channel=0 note=82 velocity=0 time=6
note_on channel=0 note=73 velocity=0 time=104
note_on channel=0 note=80 velocity=0 time=0
note_on channel=0 note=77 velocity=0 time=0
control_change channel=0 control=10 value=82 time=97
note_on channel=0 note=82 velocity=86 time=1
control_change channel=0 control=10 value=76 time=31
note_on channel=0 note=77 velocity=107 time=1
note_on channel=0 note=73 velocity=107 time=0
note_on channel=0 note=80 velocity=107 time=0
note_on channel=0 note=82 velocity=0 time=6
note_on channel=0 note=77 velocity=0 time=44
note_on channel=0 note=73 velocity=0 time=0
note_on channel=0 note=80 velocity=0 time=0
note_on channel=0 note=68 velocity=74 time=10
note_on channel=0 note=80 velocity=74 time=0
note_on channel=0 note=70 velocity=88 time=28
note_on channel=0 note=82 velocity=88 time=0
note_on channel=0 note=80 velocity=0 time=3
note_on channel=0 note=68 velocity=0 time=0
note_on channel=0 note=71 velocity=85 time=29
note_on channel=0 note=83 velocity=85 time=0
note_on channel=0 note=70 velocity=0 time=6
note_on channel=0 note=82 velocity=0 time=0
note_on channel=0 note=84 velocity=100 time=22
note_on channel=0 note=78 velocity=100 time=0
note_on channel=0 note=72 velocity=100 time=0
note_on channel=0 note=71 velocity=0 time=3
note_on channel=0 note=83 velocity=0 time=0
note_on channel=0 note=78 velocity=0 time=51
note_on channel=0 note=84 velocity=0 time=0
note_on channel=0 note=72 velocity=0 time=0
note_on channel=0 note=80 velocity=74 time=6
note_on channel=0 note=68 velocity=74 time=0
note_on channel=0 note=70 velocity=91 time=32
note_on channel=0 note=78 velocity=91 time=0
note_on channel=0 note=82 velocity=91 time=0
note_on channel=0 note=68 velocity=0 time=6
note_on channel=0 note=80 velocity=0 time=0
note_on channel=0 note=78 velocity=0 time=104
note_on channel=0 note=70 velocity=0 time=0
note_on channel=0 note=82 velocity=0 time=0
note_on channel=0 note=78 velocity=104 time=38
note_on channel=0 note=84 velocity=104 time=0
note_on channel=0 note=72 velocity=104 time=0
note_on channel=0 note=72 velocity=0 time=54
note_on channel=0 note=84 velocity=0 time=0
note_on channel=0 note=78 velocity=0 time=0
note_on channel=0 note=80 velocity=74 time=6
note_on channel=0 note=68 velocity=74 time=0
note_on channel=0 note=70 velocity=93 time=32
note_on channel=0 note=78 velocity=93 time=0
note_on channel=0 note=82 velocity=93 time=0
note_on channel=0 note=68 velocity=0 time=6
note_on channel=0 note=80 velocity=0 time=0
note_on channel=0 note=78 velocity=0 time=44
note_on channel=0 note=70 velocity=0 time=0
note_on channel=0 note=82 velocity=0 time=0
note_on channel=0 note=80 velocity=78 time=10
note_on channel=0 note=68 velocity=78 time=0
note_on channel=0 note=70 velocity=89 time=28
note_on channel=0 note=82 velocity=89 time=0
note_on channel=0 note=68 velocity=0 time=3
note_on channel=0 note=80 velocity=0 time=0
note_on channel=0 note=72 velocity=84 time=29
note_on channel=0 note=84 velocity=84 time=0
note_on channel=0 note=70 velocity=0 time=6
note_on channel=0 note=82 velocity=0 time=0
note_on channel=0 note=73 velocity=110 time=22
note_on channel=0 note=85 velocity=110 time=0
note_on channel=0 note=77 velocity=110 time=0
note_on channel=0 note=72 velocity=0 time=3
note_on channel=0 note=84 velocity=0 time=0
note_on channel=0 note=85 velocity=0 time=51
note_on channel=0 note=73 velocity=0 time=0
note_on channel=0 note=77 velocity=0 time=0
note_on channel=0 note=80 velocity=85 time=6
note_on channel=0 note=77 velocity=85 time=0
note_on channel=0 note=68 velocity=85 time=0
note_on channel=0 note=77 velocity=0 time=20
note_on channel=0 note=82 velocity=103 time=12
note_on channel=0 note=70 velocity=103 time=0
note_on channel=0 note=77 velocity=103 time=0
note_on channel=0 note=68 velocity=0 time=6
note_on channel=0 note=80 velocity=0 time=0
note_on channel=0 note=70 velocity=0 time=104
note_on channel=0 note=82 velocity=0 time=0
note_on channel=0 note=77 velocity=0 time=0
note_on channel=0 note=73 velocity=74 time=70
note_on channel=0 note=77 velocity=83 time=28
note_on channel=0 note=73 velocity=0 time=3
control_change channel=0 control=10 value=80 time=28
note_on channel=0 note=80 velocity=68 time=1
note_on channel=0 note=77 velocity=0 time=6
note_on channel=0 note=77 velocity=96 time=22
note_on channel=0 note=85 velocity=96 time=0
note_on channel=0 note=80 velocity=0 time=3
note_on channel=0 note=82 velocity=70 time=29
note_on channel=0 note=85 velocity=0 time=10
note_on channel=0 note=77 velocity=0 time=12
control_change channel=0 control=10 value=75 time=5
note_on channel=0 note=80 velocity=88 time=1
note_on channel=0 note=71 velocity=88 time=0
note_on channel=0 note=82 velocity=0 time=3
note_on channel=0 note=77 velocity=74 time=29
note_on channel=0 note=80 velocity=0 time=6
note_on channel=0 note=71 velocity=0 time=11
note_on channel=0 note=77 velocity=0 time=8
control_change channel=0 control=10 value=70 time=2
note_on channel=0 note=70 velocity=98 time=1
control_change channel=0 control=10 value=78 time=31
note_on channel=0 note=78 velocity=83 time=1
note_on channel=0 note=78 velocity=0 time=40
note_on channel=0 note=75 velocity=74 time=20
note_on channel=0 note=70 velocity=0 time=15
control_change channel=0 control=10 value=69 time=12
note_on channel=0 note=69 velocity=104 time=1
note_on channel=0 note=75 velocity=0 time=10
control_change channel=0 control=10 value=78 time=21
note_on channel=0 note=78 velocity=87 time=1
note_on channel=0 note=78 velocity=0 time=40
note_on channel=0 note=75 velocity=74 time=20
note_on channel=0 note=69 velocity=0 time=15
note_on channel=0 note=75 velocity=0 time=5
control_change channel=0 control=10 value=68 time=39
note_on channel=0 note=68 velocity=83 time=1
control_change channel=0 control=10 value=73 time=27
note_on channel=0 note=73 velocity=93 time=1
note_on channel=0 note=68 velocity=0 time=3
control_change channel=0 control=10 value=77 time=28
note_on channel=0 note=77 velocity=83 time=1
note_on channel=0 note=73 velocity=0 time=6
control_change channel=0 control=10 value=82 time=21
note_on channel=0 note=82 velocity=101 time=1
note_on channel=0 note=77 velocity=0 time=3
note_on channel=0 note=80 velocity=83 time=29
note_on channel=0 note=82 velocity=0 time=10
control_change channel=0 control=10 value=77 time=17
note_on channel=0 note=77 velocity=89 time=1
note_on channel=0 note=80 velocity=0 time=3
control_change channel=0 control=10 value=68 time=28
note_on channel=0 note=68 velocity=83 time=1
note_on channel=0 note=77 velocity=0 time=6
note_on channel=0 note=68 velocity=0 time=14
note_on channel=0 note=67 velocity=111 time=8
note_on channel=0 note=70 velocity=87 time=32
note_on channel=0 note=73 velocity=87 time=0
note_on channel=0 note=73 velocity=0 time=74
note_on channel=0 note=70 velocity=0 time=0
note_on channel=0 note=67 velocity=0 time=1
note_on channel=0 note=66 velocity=113 time=13
control_change channel=0 control=10 value=73 time=31
note_on channel=0 note=72 velocity=89 time=1
note_on channel=0 note=75 velocity=89 time=0
note_on channel=0 note=66 velocity=0 time=48
note_on channel=0 note=75 velocity=0 time=1
note_on channel=0 note=72 velocity=0 time=0
control_change channel=0 control=10 value=69 time=10
note_on channel=0 note=73 velocity=106 time=1
note_on channel=0 note=65 velocity=106 time=0
note_on channel=0 note=65 velocity=0 time=140
note_on channel=0 note=73 velocity=0 time=0
control_change channel=0 control=10 value=78 time=7
note_on channel=0 note=85 velocity=117 time=1
note_on channel=0 note=73 velocity=117 time=0
note_on channel=0 note=80 velocity=117 time=0
note_on channel=0 note=77 velocity=117 time=0
note_on channel=0 note=77 velocity=0 time=66
note_on channel=0 note=85 velocity=0 time=0
note_on channel=0 note=73 velocity=0 time=0
note_on channel=0 note=80 velocity=0 time=0
control_change channel=0 control=120 value=127 time=294
<meta message end_of_track time=0>
<meta message midi_port port=0 time=0>
<meta message track_name name='by Scott Joplin (1901)' time=0>
control_change channel=1 control=0 value=0 time=0
control_change channel=1 control=32 value=0 time=0
program_change channel=1 program=0 time=0
control_change channel=1 control=7 value=127 time=0
control_change channel=1 control=10 value=44 time=0
control_change channel=1 control=121 value=0 time=0
control_change channel=1 control=1 value=0 time=0
pitchwheel channel=1 pitch=0 time=37
control_change channel=1 control=64 value=0 time=1
aftertouch channel=1 value=0 time=1
control_change channel=1 control=93 value=12 time=4
control_change channel=1 control=91 value=21 time=0
control_change channel=1 control=10 value=51 time=196
note_on channel=1 note=51 velocity=75 time=1
note_on channel=1 note=51 velocity=0 time=54
control_change channel=1 control=10 value=60 time=5
note_on channel=1 note=60 velocity=94 time=1
note_on channel=1 note=60 velocity=0 time=80
note_on channel=1 note=58 velocity=75 time=12
note_on channel=1 note=58 velocity=0 time=25
control_change channel=1 control=10 value=56 time=2
note_on channel=1 note=56 velocity=82 time=1
note_on channel=1 note=55 velocity=78 time=32
note_on channel=1 note=56 velocity=0 time=1
note_on channel=1 note=55 velocity=0 time=24
note_on channel=1 note=53 velocity=84 time=3
control_change channel=1 control=10 value=51 time=31
note_on channel=1 note=51 velocity=91 time=1
note_on channel=1 note=53 velocity=0 time=13
note_on channel=1 note=51 velocity=0 time=37
note_on channel=1 note=49 velocity=75 time=10
note_on channel=1 note=48 velocity=86 time=28
note_on channel=1 note=49 velocity=0 time=5
note_on channel=1 note=48 velocity=0 time=49
control_change channel=1 control=10 value=46 time=5
note_on channel=1 note=46 velocity=83 time=1
note_on channel=1 note=44 velocity=76 time=32
note_on channel=1 note=46 velocity=0 time=1
note_on channel=1 note=44 velocity=0 time=24
control_change channel=1 control=10 value=39 time=2
note_on channel=1 note=39 velocity=90 time=1
note_on channel=1 note=39 velocity=0 time=107
control_change channel=1 control=10 value=51 time=12
note_on channel=1 note=51 velocity=91 time=1
note_on channel=1 note=49 velocity=79 time=32
note_on channel=1 note=51 velocity=0 time=18
note_on channel=1 note=48 velocity=81 time=10
note_on channel=1 note=49 velocity=0 time=15
control_change channel=1 control=10 value=46 time=16
note_on channel=1 note=46 velocity=71 time=1
note_on channel=1 note=48 velocity=0 time=18
note_on channel=1 note=44 velocity=82 time=10
note_on channel=1 note=46 velocity=0 time=15
note_on channel=1 note=44 velocity=0 time=39
control_change channel=1 control=10 value=55 time=5
note_on channel=1 note=60 velocity=68 time=1
note_on channel=1 note=56 velocity=68 time=0
note_on channel=1 note=51 velocity=68 time=0
note_on channel=1 note=51 velocity=0 time=22
note_on channel=1 note=56 velocity=0 time=0
note_on channel=1 note=60 velocity=0 time=0
control_change channel=1 control=10 value=39 time=37
note_on channel=1 note=39 velocity=75 time=1
note_on channel=1 note=39 velocity=0 time=54
control_change channel=1 control=10 value=55 time=5
note_on channel=1 note=56 velocity=68 time=1
note_on channel=1 note=51 velocity=68 time=0
note_on channel=1 note=60 velocity=68 time=0
note_on channel=1 note=60 velocity=0 time=22
note_on channel=1 note=51 velocity=0 time=0
note_on channel=1 note=56 velocity=0 time=0
control_change channel=1 control=10 value=44 time=37
note_on channel=1 note=44 velocity=66 time=1
note_on channel=1 note=44 velocity=0 time=54
control_change channel=1 control=10 value=55 time=5
note_on channel=1 note=60 velocity=59 time=1
note_on channel=1 note=51 velocity=59 time=0
note_on channel=1 note=56 velocity=59 time=0
note_on channel=1 note=56 velocity=0 time=22
note_on channel=1 note=51 velocity=0 time=0
note_on channel=1 note=60 velocity=0 time=0
control_change channel=1 control=10 value=39 time=37
note_on channel=1 note=39 velocity=66 time=1
note_on channel=1 note=39 velocity=0 time=54
control_change channel=1 control=10 value=55 time=5
note_on channel=1 note=56 velocity=59 time=1
note_on channel=1 note=51 velocity=59 time=0
note_on channel=1 note=60 velocity=59 time=0
note_on channel=1 note=60 velocity=0 time=22
note_on channel=1 note=51 velocity=0 time=0
note_on channel=1 note=56 velocity=0 time=0
control_change channel=1 control=10 value=44 time=37
note_on channel=1 note=44 velocity=66 time=1
note_on channel=1 note=44 velocity=0 time=54
control_change channel=1 control=10 value=55 time=5
note_on channel=1 note=51 velocity=59 time=1
note_on channel=1 note=60 velocity=59 time=0
note_on channel=1 note=56 velocity=59 time=0
note_on channel=1 note=56 velocity=0 time=22
note_on channel=1 note=60 velocity=0 time=0
note_on channel=1 note=51 velocity=0 time=0
control_change channel=1 control=10 value=39 time=37
note_on channel=1 note=39 velocity=66 time=1
note_on channel=1 note=39 velocity=0 time=54
control_change channel=1 control=10 value=55 time=5
note_on channel=1 note=60 velocity=59 time=1
note_on channel=1 note=51 velocity=59 time=0
note_on channel=1 note=56 velocity=59 time=0
note_on channel=1 note=56 velocity=0 time=22
note_on channel=1 note=51 velocity=0 time=0
note_on channel=1 note=60 velocity=0 time=0
control_change channel=1 control=10 value=37 time=37
note_on channel=1 note=37 velocity=66 time=1
note_on channel=1 note=37 velocity=0 time=54
control_change channel=1 control=10 value=56 time=5
note_on channel=1 note=53 velocity=59 time=1
note_on channel=1 note=56 velocity=59 time=0
note_on channel=1 note=61 velocity=59 time=0
note_on channel=1 note=61 velocity=0 time=22
note_on channel=1 note=56 velocity=0 time=0
note_on channel=1 note=53 velocity=0 time=0
control_change channel=1 control=10 value=37 time=37
note_on channel=1 note=37 velocity=66 time=1
note_on channel=1 note=37 velocity=0 time=54
control_change channel=1 control=10 value=56 time=5
note_on channel=1 note=61 velocity=59 time=1
note_on channel=1 note=53 velocity=59 time=0
note_on channel=1 note=56 velocity=59 time=0
note_on channel=1 note=56 velocity=0 time=22
note_on channel=1 note=53 velocity=0 time=0
note_on channel=1 note=61 velocity=0 time=0
control_change channel=1 control=10 value=44 time=37
note_on channel=1 note=44 velocity=66 time=1
note_on channel=1 note=44 velocity=0 time=54
control_change channel=1 control=10 value=55 time=5
note_on channel=1 note=51 velocity=59 time=1
note_on channel=1 note=56 velocity=59 time=0
note_on channel=1 note=60 velocity=59 time=0
note_on channel=1 note=60 velocity=0 time=22
note_on channel=1 note=56 velocity=0 time=0
note_on channel=1 note=51 velocity=0 time=0
control_change channel=1 control=10 value=39 time=37
note_on channel=1 note=39 velocity=66 time=1
note_on channel=1 note=39 velocity=0 time=54
control_change channel=1 control=10 value=55 time=5
note_on channel=1 note=60 velocity=59 time=1
note_on channel=1 note=56 velocity=59 time=0
note_on channel=1 note=51 velocity=59 time=0
note_on channel=1 note=51 velocity=0 time=22
note_on channel=1 note=56 velocity=0 time=0
note_on channel=1 note=60 velocity=0 time=0
control_change channel=1 control=10 value=44 time=37
note_on channel=1 note=44 velocity=66 time=1
note_on channel=1 note=44 velocity=0 time=54
control_change channel=1 control=10 value=55 time=5
note_on channel=1 note=51 velocity=59 time=1
note_on channel=1 note=56 velocity=59 time=0
note_on channel=1 note=60 velocity=59 time=0
note_on channel=1 note=60 velocity=0 time=22
note_on channel=1 note=56 velocity=0 time=0
note_on channel=1 note=51 velocity=0 time=0
control_change channel=1 control=10 value=39 time=37
note_on channel=1 note=39 velocity=66 time=1
note_on channel=1 note=39 velocity=0 time=54
control_change channel=1 control=10 value=55 time=5
note_on channel=1 note=51 velocity=59 time=1
note_on channel=1 note=60 velocity=59 time=0
note_on channel=1 note=56 velocity=59 time=0
note_on channel=1 note=56 velocity=0 time=22
note_on channel=1 note=60 velocity=0 time=0
note_on channel=1 note=51 velocity=0 time=0
control_change channel=1 control=10 value=44 time=37
note_on channel=1 note=44 velocity=66 time=1
note_on channel=1 note=44 velocity=0 time=54
control_change channel=1 control=10 value=55 time=5
note_on channel=1 note=56 velocity=59 time=1
note_on channel=1 note=51 velocity=59 time=0
note_on channel=1 note=60 velocity=59 time=0
note_on channel=1 note=60 velocity=0 time=22
note_on channel=1 note=51 velocity=0 time=0
note_on channel=1 note=56 velocity=0 time=0
control_change channel=1 control=10 value=45 time=37
note_on channel=1 note=45 velocity=66 time=1
note_on channel=1 note=45 velocity=0 time=54
control_change channel=1 control=10 value=58 time=5
note_on channel=1 note=63 velocity=59 time=1
note_on channel=1 note=57 velocity=59 time=0
note_on channel=1 note=54 velocity=59 time=0
note_on channel=1 note=54 velocity=0 time=22
note_on channel=1 note=57 velocity=0 time=0
note_on channel=1 note=63 velocity=0 time=0
control_change channel=1 control=10 value=46 time=37
note_on channel=1 note=46 velocity=66 time=1
note_on channel=1 note=46 velocity=0 time=54
control_change channel=1 control=10 value=58 time=5
note_on channel=1 note=58 velocity=59 time=1
note_on channel=1 note=55 velocity=59 time=0
note_on channel=1 note=63 velocity=59 time=0
note_on channel=1 note=63 velocity=0 time=22
note_on channel=1 note=55 velocity=0 time=0
note_on channel=1 note=58 velocity=0 time=0
control_change channel=1 control=10 value=46 time=37
note_on channel=1 note=46 velocity=66 time=1
note_on channel=1 note=46 velocity=0 time=54
control_change channel=1 control=10 value=60 time=5
note_on channel=1 note=62 velocity=60 time=1
note_on channel=1 note=58 velocity=60 time=0
note_on channel=1 note=58 velocity=0 time=30
note_on channel=1 note=62 velocity=0 time=0
note_on channel=1 note=51 velocity=75 time=30
note_on channel=1 note=63 velocity=75 time=0
note_on channel=1 note=63 velocity=0 time=54
note_on channel=1 note=51 velocity=0 time=0
control_change channel=1 control=10 value=55 time=5
note_on channel=1 note=49 velocity=68 time=1
note_on channel=1 note=61 velocity=68 time=0
note_on channel=1 note=61 velocity=0 time=40
note_on channel=1 note=49 velocity=0 time=0
note_on channel=1 note=60 velocity=73 time=20
note_on channel=1 note=48 velocity=73 time=0
note_on channel=1 note=48 velocity=0 time=54
note_on channel=1 note=60 velocity=0 time=0
note_on channel=1 note=58 velocity=64 time=6
note_on channel=1 note=46 velocity=64 time=0
note_on channel=1 note=46 velocity=0 time=40
note_on channel=1 note=58 velocity=0 time=0
control_change channel=1 control=10 value=50 time=19
note_on channel=1 note=56 velocity=66 time=1
note_on channel=1 note=44 velocity=66 time=0
note_on channel=1 note=44 velocity=0 time=54
note_on channel=1 note=56 velocity=0 time=0
control_change channel=1 control=10 value=55 time=5
note_on channel=1 note=51 velocity=59 time=1
note_on channel=1 note=56 velocity=59 time=0
note_on channel=1 note=60 velocity=59 time=0
note_on channel=1 note=60 velocity=0 time=22
note_on channel=1 note=56 velocity=0 time=0
note_on channel=1 note=51 velocity=0 time=0
control_change channel=1 control=10 value=39 time=37
note_on channel=1 note=39 velocity=66 time=1
note_on channel=1 note=39 velocity=0 time=54
control_change channel=1 control=10 value=55 time=5
note_on channel=1 note=56 velocity=59 time=1
note_on channel=1 note=51 velocity=59 time=0
note_on channel=1 note=60 velocity=59 time=0
note_on channel=1 note=60 velocity=0 time=22
note_on channel=1 note=51 velocity=0 time=0
note_on channel=1 note=56 velocity=0 time=0
control_change channel=1 control=10 value=44 time=37
note_on channel=1 note=44 velocity=66 time=1
note_on channel=1 note=44 velocity=0 time=54
control_change channel=1 control=10 value=55 time=5
note_on channel=1 note=56 velocity=59 time=1
note_on channel=1 note=60 velocity=59 time=0
note_on channel=1 note=51 velocity=59 time=0
note_on channel=1 note=51 velocity=0 time=22
note_on channel=1 note=60 velocity=0 time=0
note_on channel=1 note=56 velocity=0 time=0
control_change channel=1 control=10 value=39 time=37
note_on channel=1 note=39 velocity=66 time=1
note_on channel=1 note=39 velocity=0 time=54
control_change channel=1 control=10 value=55 time=5
note_on channel=1 note=51 velocity=59 time=1
note_on channel=1 note=60 velocity=59 time=0
note_on channel=1 note=56 velocity=59 time=0
note_on channel=1 note=56 velocity=0 time=22
note_on channel=1 note=60 velocity=0 time=0
note_on channel=1 note=51 velocity=0 time=0
control_change channel=1 control=10 value=37 time=37
note_on channel=1 note=37 velocity=71 time=1
note_on channel=1 note=37 velocity=0 time=54
control_change channel=1 control=10 value=56 time=5
note_on channel=1 note=56 velocity=69 time=1
note_on channel=1 note=61 velocity=69 time=0
note_on channel=1 note=53 velocity=69 time=0
note_on channel=1 note=53 velocity=0 time=30
note_on channel=1 note=61 velocity=0 time=0
note_on channel=1 note=56 velocity=0 time=0
note_on channel=1 note=49 velocity=80 time=30
note_on channel=1 note=61 velocity=80 time=0
note_on channel=1 note=61 velocity=0 time=54
note_on channel=1 note=49 velocity=0 time=0
note_on channel=1 note=61 velocity=74 time=6
note_on channel=1 note=49 velocity=74 time=0
note_on channel=1 note=49 velocity=0 time=30
note_on channel=1 note=61 velocity=0 time=0
note_on channel=1 note=60 velocity=70 time=30
note_on channel=1 note=48 velocity=70 time=0
note_on channel=1 note=48 velocity=0 time=54
note_on channel=1 note=60 velocity=0 time=0
control_change channel=1 control=10 value=49 time=5
note_on channel=1 note=55 velocity=73 time=1
note_on channel=1 note=43 velocity=73 time=0
note_on channel=1 note=43 velocity=0 time=40
note_on channel=1 note=55 velocity=0 time=0
control_change channel=1 control=10 value=42 time=19
note_on channel=1 note=36 velocity=80 time=1
note_on channel=1 note=48 velocity=80 time=0
note_on channel=1 note=48 velocity=0 time=67
note_on channel=1 note=36 velocity=0 time=0
note_on channel=1 note=49 velocity=66 time=53
note_on channel=1 note=37 velocity=66 time=0
note_on channel=1 note=37 velocity=0 time=54
note_on channel=1 note=49 velocity=0 time=0
control_change channel=1 control=10 value=56 time=5
note_on channel=1 note=56 velocity=59 time=1
note_on channel=1 note=61 velocity=59 time=0
note_on channel=1 note=53 velocity=59 time=0
note_on channel=1 note=53 velocity=0 time=22
note_on channel=1 note=61 velocity=0 time=0
note_on channel=1 note=56 velocity=0 time=0
control_change channel=1 control=10 value=43 time=37
note_on channel=1 note=37 velocity=66 time=1
note_on channel=1 note=49 velocity=66 time=0
note_on channel=1 note=49 velocity=0 time=54
note_on channel=1 note=37 velocity=0 time=0
control_change channel=1 control=10 value=56 time=5
note_on channel=1 note=53 velocity=59 time=1
note_on channel=1 note=61 velocity=59 time=0
note_on channel=1 note=56 velocity=59 time=0
note_on channel=1 note=56 velocity=0 time=22
note_on channel=1 note=61 velocity=0 time=0
note_on channel=1 note=53 velocity=0 time=0
control_change channel=1 control=10 value=50 time=37
note_on channel=1 note=44 velocity=66 time=1
note_on channel=1 note=56 velocity=66 time=0
note_on channel=1 note=56 velocity=0 time=54
note_on channel=1 note=44 velocity=0 time=0
control_change channel=1 control=10 value=55 time=5
note_on channel=1 note=51 velocity=59 time=1
note_on channel=1 note=60 velocity=59 time=0
note_on channel=1 note=56 velocity=59 time=0
note_on channel=1 note=56 velocity=0 time=22
note_on channel=1 note=60 velocity=0 time=0
note_on channel=1 note=51 velocity=0 time=0
control_change channel=1 control=10 value=50 time=37
note_on channel=1 note=44 velocity=66 time=1
note_on channel=1 note=56 velocity=66 time=0
note_on channel=1 note=56 velocity=0 time=54
note_on channel=1 note=44 velocity=0 time=0
control_change channel=1 control=10 value=55 time=5
note_on channel=1 note=56 velocity=59 time=1
note_on channel=1 note=60 velocity=59 time=0
note_on channel=1 note=51 velocity=59 time=0
note_on channel=1 note=51 velocity=0 time=22
note_on channel=1 note=60 velocity=0 time=0
note_on channel=1 note=56 velocity=0 time=0
control_change channel=1 control=10 value=45 time=37
note_on channel=1 note=39 velocity=66 time=1
note_on channel=1 note=51 velocity=66 time=0
note_on channel=1 note=51 velocity=0 time=54
note_on channel=1 note=39 velocity=0 time=0
control_change channel=1 control=10 value=55 time=5
note_on channel=1 note=51 velocity=59 time=1
note_on channel=1 note=61 velocity=59 time=0
note_on channel=1 note=55 velocity=59 time=0
note_on channel=1 note=55 velocity=0 time=22
note_on channel=1 note=61 velocity=0 time=0
note_on channel=1 note=51 velocity=0 time=0
control_change channel=1 control=10 value=45 time=37
note_on channel=1 note=39 velocity=72 time=1
note_on channel=1 note=51 velocity=72 time=0
note_on channel=1 note=51 velocity=0 time=45
note_on channel=1 note=39 velocity=0 time=0
note_on channel=1 note=51 velocity=59 time=15
note_on channel=1 note=39 velocity=59 time=0
note_on channel=1 note=39 velocity=0 time=34
note_on channel=1 note=51 velocity=0 time=0
note_on channel=1 note=51 velocity=65 time=26
note_on channel=1 note=44 velocity=65 time=0
note_on channel=1 note=44 velocity=0 time=54
control_change channel=1 control=10 value=39 time=5
note_on channel=1 note=39 velocity=67 time=1
note_on channel=1 note=39 velocity=0 time=40
note_on channel=1 note=41 velocity=74 time=20
note_on channel=1 note=41 velocity=0 time=54
note_on channel=1 note=51 velocity=0 time=1
control_change channel=1 control=10 value=43 time=4
note_on channel=1 note=43 velocity=71 time=1
note_on channel=1 note=43 velocity=0 time=40
note_on channel=1 note=44 velocity=74 time=20
note_on channel=1 note=44 velocity=0 time=54
control_change channel=1 control=10 value=55 time=5
note_on channel=1 note=60 velocity=67 time=1
note_on channel=1 note=51 velocity=67 time=0
note_on channel=1 note=56 velocity=67 time=0
note_on channel=1 note=56 velocity=0 time=22
note_on channel=1 note=51 velocity=0 time=0
note_on channel=1 note=60 velocity=0 time=0
control_change channel=1 control=10 value=39 time=37
note_on channel=1 note=39 velocity=74 time=1
note_on channel=1 note=39 velocity=0 time=54
control_change channel=1 control=10 value=55 time=5
note_on channel=1 note=56 velocity=67 time=1
note_on channel=1 note=51 velocity=67 time=0
note_on channel=1 note=60 velocity=67 time=0
note_on channel=1 note=60 velocity=0 time=22
note_on channel=1 note=51 velocity=0 time=0
note_on channel=1 note=56 velocity=0 time=0
control_change channel=1 control=10 value=44 time=37
note_on channel=1 note=44 velocity=74 time=1
note_on channel=1 note=44 velocity=0 time=54
control_change channel=1 control=10 value=55 time=5
note_on channel=1 note=56 velocity=67 time=1
note_on channel=1 note=60 velocity=67 time=0
note_on channel=1 note=51 velocity=67 time=0
note_on channel=1 note=51 velocity=0 time=22
note_on channel=1 note=60 velocity=0 time=0
note_on channel=1 note=56 velocity=0 time=0
control_change channel=1 control=10 value=39 time=37
note_on channel=1 note=39 velocity=74 time=1
note_on channel=1 note=39 velocity=0 time=54
control_change channel=1 control=10 value=55 time=5
note_on channel=1 note=60 velocity=67 time=1
note_on channel=1 note=51 velocity=67 time=0
note_on channel=1 note=56 velocity=67 time=0
note_on channel=1 note=56 velocity=0 time=22
note_on channel=1 note=51 velocity=0 time=0
note_on channel=1 note=60 velocity=0 time=0
control_change channel=1 control=10 value=37 time=37
note_on channel=1 note=37 velocity=78 time=1
note_on channel=1 note=37 velocity=0 time=54
control_change channel=1 control=10 value=56 time=5
note_on channel=1 note=56 velocity=71 time=1
note_on channel=1 note=61 velocity=71 time=0
note_on channel=1 note=53 velocity=71 time=0
note_on channel=1 note=53 velocity=0 time=22
note_on channel=1 note=61 velocity=0 time=0
note_on channel=1 note=56 velocity=0 time=0
control_change channel=1 control=10 value=37 time=37
note_on channel=1 note=37 velocity=78 time=1
note_on channel=1 note=37 velocity=0 time=54
control_change channel=1 control=10 value=56 time=5
note_on channel=1 note=56 velocity=71 time=1
note_on channel=1 note=61 velocity=71 time=0
note_on channel=1 note=53 velocity=71 time=0
note_on channel=1 note=53 velocity=0 time=22
note_on channel=1 note=61 velocity=0 time=0
note_on channel=1 note=56 velocity=0 time=0
control_change channel=1 control=10 value=44 time=37
note_on channel=1 note=44 velocity=78 time=1
note_on channel=1 note=44 velocity=0 time=54
control_change channel=1 control=10 value=55 time=5
note_on channel=1 note=51 velocity=67 time=1
note_on channel=1 note=56 velocity=67 time=0
note_on channel=1 note=60 velocity=67 time=0
note_on channel=1 note=60 velocity=0 time=22
note_on channel=1 note=56 velocity=0 time=0
note_on channel=1 note=51 velocity=0 time=0
control_change channel=1 control=10 value=39 time=37
note_on channel=1 note=39 velocity=74 time=1
note_on channel=1 note=39 velocity=0 time=54
control_change channel=1 control=10 value=55 time=5
note_on channel=1 note=56 velocity=67 time=1
note_on channel=1 note=51 velocity=67 time=0
note_on channel=1 note=60 velocity=67 time=0
note_on channel=1 note=60 velocity=0 time=22
note_on channel=1 note=51 velocity=0 time=0
note_on channel=1 note=56 velocity=0 time=0
control_change channel=1 control=10 value=44 time=37
note_on channel=1 note=44 velocity=74 time=1
note_on channel=1 note=44 velocity=0 time=54
control_change channel=1 control=10 value=55 time=5
note_on channel=1 note=51 velocity=67 time=1
note_on channel=1 note=60 velocity=67 time=0
note_on channel=1 note=56 velocity=67 time=0
note_on channel=1 note=56 velocity=0 time=22
note_on channel=1 note=60 velocity=0 time=0
note_on channel=1 note=51 velocity=0 time=0
control_change channel=1 control=10 value=39 time=37
note_on channel=1 note=39 velocity=74 time=1
note_on channel=1 note=39 velocity=0 time=54
control_change channel=1 control=10 value=55 time=5
note_on channel=1 note=60 velocity=67 time=1
note_on channel=1 note=51 velocity=67 time=0
note_on channel=1 note=56 velocity=67 time=0
note_on channel=1 note=56 velocity=0 time=22
note_on channel=1 note=51 velocity=0 time=0
note_on channel=1 note=60 velocity=0 time=0
control_change channel=1 control=10 value=44 time=37
note_on channel=1 note=44 velocity=74 time=1
note_on channel=1 note=44 velocity=0 time=54
control_change channel=1 control=10 value=55 time=5
note_on channel=1 note=56 velocity=67 time=1
note_on channel=1 note=51 velocity=67 time=0
note_on channel=1 note=60 velocity=67 time=0
note_on channel=1 note=60 velocity=0 time=22
note_on channel=1 note=51 velocity=0 time=0
note_on channel=1 note=56 velocity=0 time=0
control_change channel=1 control=10 value=45 time=37
note_on channel=1 note=45 velocity=74 time=1
note_on channel=1 note=45 velocity=0 time=54
control_change channel=1 control=10 value=58 time=5
note_on channel=1 note=54 velocity=67 time=1
note_on channel=1 note=63 velocity=67 time=0
note_on channel=1 note=57 velocity=67 time=0
note_on channel=1 note=57 velocity=0 time=22
note_on channel=1 note=63 velocity=0 time=0
note_on channel=1 note=54 velocity=0 time=0
control_change channel=1 control=10 value=46 time=37
note_on channel=1 note=46 velocity=78 time=1
note_on channel=1 note=46 velocity=0 time=54
control_change channel=1 control=10 value=58 time=5
note_on channel=1 note=58 velocity=71 time=1
note_on channel=1 note=63 velocity=71 time=0
note_on channel=1 note=55 velocity=71 time=0
note_on channel=1 note=55 velocity=0 time=22
note_on channel=1 note=63 velocity=0 time=0
note_on channel=1 note=58 velocity=0 time=0
control_change channel=1 control=10 value=46 time=37
note_on channel=1 note=46 velocity=78 time=1
note_on channel=1 note=46 velocity=0 time=54
control_change channel=1 control=10 value=60 time=5
note_on channel=1 note=58 velocity=72 time=1
note_on channel=1 note=62 velocity=72 time=0
note_on channel=1 note=62 velocity=0 time=30
note_on channel=1 note=58 velocity=0 time=0
note_on channel=1 note=63 velocity=90 time=30
note_on channel=1 note=51 velocity=90 time=0
note_on channel=1 note=51 velocity=0 time=54
note_on channel=1 note=63 velocity=0 time=0
control_change channel=1 control=10 value=55 time=5
note_on channel=1 note=49 velocity=80 time=1
note_on channel=1 note=61 velocity=80 time=0
note_on channel=1 note=61 velocity=0 time=40
note_on channel=1 note=49 velocity=0 time=0
note_on channel=1 note=60 velocity=85 time=20
note_on channel=1 note=48 velocity=85 time=0
note_on channel=1 note=48 velocity=0 time=54
note_on channel=1 note=60 velocity=0 time=0
note_on channel=1 note=58 velocity=72 time=6
note_on channel=1 note=46 velocity=72 time=0
note_on channel=1 note=46 velocity=0 time=40
note_on channel=1 note=58 velocity=0 time=0
control_change channel=1 control=10 value=50 time=19
note_on channel=1 note=56 velocity=74 time=1
note_on channel=1 note=44 velocity=74 time=0
note_on channel=1 note=44 velocity=0 time=54
note_on channel=1 note=56 velocity=0 time=0
control_change channel=1 control=10 value=55 time=5
note_on channel=1 note=51 velocity=67 time=1
note_on channel=1 note=56 velocity=67 time=0
note_on channel=1 note=60 velocity=67 time=0
note_on channel=1 note=60 velocity=0 time=22
note_on channel=1 note=56 velocity=0 time=0
note_on channel=1 note=51 velocity=0 time=0
control_change channel=1 control=10 value=39 time=37
note_on channel=1 note=39 velocity=74 time=1
note_on channel=1 note=39 velocity=0 time=54
control_change channel=1 control=10 value=55 time=5
note_on channel=1 note=56 velocity=67 time=1
note_on channel=1 note=60 velocity=67 time=0
note_on channel=1 note=51 velocity=67 time=0
note_on channel=1 note=51 velocity=0 time=22
note_on channel=1 note=60 velocity=0 time=0
note_on channel=1 note=56 velocity=0 time=0
control_change channel=1 control=10 value=44 time=37
note_on channel=1 note=44 velocity=74 time=1
note_on channel=1 note=44 velocity=0 time=54
control_change channel=1 control=10 value=55 time=5
note_on channel=1 note=56 velocity=67 time=1
note_on channel=1 note=51 velocity=67 time=0
note_on channel=1 note=60 velocity=67 time=0
note_on channel=1 note=60 velocity=0 time=22
note_on channel=1 note=51 velocity=0 time=0
note_on channel=1 note=56 velocity=0 time=0
control_change channel=1 control=10 value=39 time=37
note_on channel=1 note=39 velocity=74 time=1
note_on channel=1 note=39 velocity=0 time=54
control_change channel=1 control=10 value=55 time=5
note_on channel=1 note=51 velocity=67 time=1
note_on channel=1 note=60 velocity=67 time=0
note_on channel=1 note=56 velocity=67 time=0
note_on channel=1 note=56 velocity=0 time=22
note_on channel=1 note=60 velocity=0 time=0
note_on channel=1 note=51 velocity=0 time=0
control_change channel=1 control=10 value=37 time=37
note_on channel=1 note=37 velocity=71 time=1
note_on channel=1 note=37 velocity=0 time=54
control_change channel=1 control=10 value=56 time=5
note_on channel=1 note=56 velocity=65 time=1
note_on channel=1 note=53 velocity=65 time=0
note_on channel=1 note=61 velocity=65 time=0
note_on channel=1 note=61 velocity=0 time=30
note_on channel=1 note=53 velocity=0 time=0
note_on channel=1 note=56 velocity=0 time=0
note_on channel=1 note=49 velocity=83 time=30
note_on channel=1 note=61 velocity=83 time=0
note_on channel=1 note=61 velocity=0 time=54
note_on channel=1 note=49 velocity=0 time=0
note_on channel=1 note=61 velocity=78 time=6
note_on channel=1 note=49 velocity=78 time=0
note_on channel=1 note=49 velocity=0 time=30
note_on channel=1 note=61 velocity=0 time=0
note_on channel=1 note=60 velocity=74 time=30
note_on channel=1 note=48 velocity=74 time=0
note_on channel=1 note=48 velocity=0 time=54
note_on channel=1 note=60 velocity=0 time=0
control_change channel=1 control=10 value=49 time=5
note_on channel=1 note=55 velocity=78 time=1
note_on channel=1 note=43 velocity=78 time=0
note_on channel=1 note=43 velocity=0 time=40
note_on channel=1 note=55 velocity=0 time=0
control_change channel=1 control=10 value=42 time=19
note_on channel=1 note=36 velocity=86 time=1
note_on channel=1 note=48 velocity=86 time=0
note_on channel=1 note=48 velocity=0 time=67
note_on channel=1 note=36 velocity=0 time=0
note_on channel=1 note=49 velocity=71 time=53
note_on channel=1 note=37 velocity=71 time=0
note_on channel=1 note=37 velocity=0 time=54
note_on channel=1 note=49 velocity=0 time=0
control_change channel=1 control=10 value=56 time=5
note_on channel=1 note=53 velocity=64 time=1
note_on channel=1 note=61 velocity=64 time=0
note_on channel=1 note=56 velocity=64 time=0
note_on channel=1 note=56 velocity=0 time=22
note_on channel=1 note=61 velocity=0 time=0
note_on channel=1 note=53 velocity=0 time=0
control_change channel=1 control=10 value=43 time=37
note_on channel=1 note=37 velocity=71 time=1
note_on channel=1 note=49 velocity=71 time=0
note_on channel=1 note=49 velocity=0 time=54
note_on channel=1 note=37 velocity=0 time=0
control_change channel=1 control=10 value=56 time=5
note_on channel=1 note=53 velocity=64 time=1
note_on channel=1 note=61 velocity=64 time=0
note_on channel=1 note=56 velocity=64 time=0
note_on channel=1 note=56 velocity=0 time=22
note_on channel=1 note=61 velocity=0 time=0
note_on channel=1 note=53 velocity=0 time=0
control_change channel=1 control=10 value=50 time=37
note_on channel=1 note=44 velocity=71 time=1
note_on channel=1 note=56 velocity=71 time=0
note_on channel=1 note=56 velocity=0 time=54
note_on channel=1 note=44 velocity=0 time=0
control_change channel=1 control=10 value=55 time=5
note_on channel=1 note=56 velocity=64 time=1
note_on channel=1 note=60 velocity=64 time=0
note_on channel=1 note=51 velocity=64 time=0
note_on channel=1 note=51 velocity=0 time=22
note_on channel=1 note=60 velocity=0 time=0
note_on channel=1 note=56 velocity=0 time=0
control_change channel=1 control=10 value=50 time=37
note_on channel=1 note=44 velocity=71 time=1
note_on channel=1 note=56 velocity=71 time=0
note_on channel=1 note=56 velocity=0 time=54
note_on channel=1 note=44 velocity=0 time=0
control_change channel=1 control=10 value=55 time=5
note_on channel=1 note=51 velocity=63 time=1
note_on channel=1 note=60 velocity=63 time=0
note_on channel=1 note=56 velocity=63 time=0
note_on channel=1 note=56 velocity=0 time=22
note_on channel=1 note=60 velocity=0 time=0
note_on channel=1 note=51 velocity=0 time=0
control_change channel=1 control=10 value=45 time=37
note_on channel=1 note=39 velocity=74 time=1
note_on channel=1 note=51 velocity=74 time=0
note_on channel=1 note=51 velocity=0 time=54
note_on channel=1 note=39 velocity=0 time=0
control_change channel=1 control=10 value=55 time=5
note_on channel=1 note=51 velocity=67 time=1
note_on channel=1 note=61 velocity=67 time=0
note_on channel=1 note=55 velocity=67 time=0
note_on channel=1 note=55 velocity=0 time=22
note_on channel=1 note=61 velocity=0 time=0
note_on channel=1 note=51 velocity=0 time=0
control_change channel=1 control=10 value=45 time=37
note_on channel=1 note=51 velocity=81 time=1
note_on channel=1 note=39 velocity=81 time=0
note_on channel=1 note=39 velocity=0 time=45
note_on channel=1 note=51 velocity=0 time=0
note_on channel=1 note=51 velocity=68 time=15
note_on channel=1 note=39 velocity=68 time=0
note_on channel=1 note=39 velocity=0 time=34
note_on channel=1 note=51 velocity=0 time=0
control_change channel=1 control=10 value=50 time=25
note_on channel=1 note=44 velocity=84 time=1
note_on channel=1 note=56 velocity=84 time=0
note_on channel=1 note=56 velocity=0 time=54
note_on channel=1 note=44 velocity=0 time=0
control_change channel=1 control=10 value=45 time=5
note_on channel=1 note=39 velocity=79 time=1
note_on channel=1 note=51 velocity=79 time=0
note_on channel=1 note=51 velocity=0 time=40
note_on channel=1 note=39 velocity=0 time=0
control_change channel=1 control=10 value=38 time=19
note_on channel=1 note=44 velocity=92 time=1
note_on channel=1 note=32 velocity=92 time=0
note_on channel=1 note=32 velocity=0 time=54
note_on channel=1 note=44 velocity=0 time=0
control_change channel=1 control=10 value=45 time=65
note_on channel=1 note=51 velocity=74 time=1
note_on channel=1 note=39 velocity=74 time=0
note_on channel=1 note=39 velocity=0 time=54
note_on channel=1 note=51 velocity=0 time=0
control_change channel=1 control=10 value=56 time=5
note_on channel=1 note=61 velocity=67 time=1
note_on channel=1 note=51 velocity=67 time=0
note_on channel=1 note=58 velocity=67 time=0
note_on channel=1 note=58 velocity=0 time=21
note_on channel=1 note=51 velocity=0 time=0
note_on channel=1 note=61 velocity=0 time=0
control_change channel=1 control=10 value=49 time=38
note_on channel=1 note=43 velocity=74 time=1
note_on channel=1 note=55 velocity=74 time=0
note_on channel=1 note=55 velocity=0 time=54
note_on channel=1 note=43 velocity=0 time=0
control_change channel=1 control=10 value=55 time=5
note_on channel=1 note=51 velocity=67 time=1
note_on channel=1 note=55 velocity=67 time=0
note_on channel=1 note=61 velocity=67 time=0
note_on channel=1 note=61 velocity=0 time=21
note_on channel=1 note=55 velocity=0 time=0
note_on channel=1 note=51 velocity=0 time=0
note_on channel=1 note=58 velocity=74 time=39
note_on channel=1 note=46 velocity=74 time=0
note_on channel=1 note=46 velocity=0 time=54
note_on channel=1 note=58 velocity=0 time=0
note_on channel=1 note=61 velocity=67 time=6
note_on channel=1 note=58 velocity=67 time=0
note_on channel=1 note=55 velocity=67 time=0
note_on channel=1 note=51 velocity=67 time=0
note_on channel=1 note=51 velocity=0 time=21
note_on channel=1 note=61 velocity=0 time=0
note_on channel=1 note=58 velocity=0 time=0
note_on channel=1 note=55 velocity=0 time=0
note_on channel=1 note=58 velocity=81 time=39
note_on channel=1 note=46 velocity=81 time=0
note_on channel=1 note=46 velocity=0 time=54
note_on channel=1 note=58 velocity=0 time=0
note_on channel=1 note=47 velocity=74 time=6
note_on channel=1 note=59 velocity=74 time=0
note_on channel=1 note=59 velocity=0 time=40
note_on channel=1 note=47 velocity=0 time=0
note_on channel=1 note=48 velocity=75 time=20
note_on channel=1 note=60 velocity=75 time=0
note_on channel=1 note=60 velocity=0 time=54
note_on channel=1 note=48 velocity=0 time=0
note_on channel=1 note=56 velocity=66 time=6
note_on channel=1 note=51 velocity=66 time=0
note_on channel=1 note=60 velocity=66 time=0
note_on channel=1 note=60 velocity=0 time=21
note_on channel=1 note=51 velocity=0 time=0
note_on channel=1 note=56 velocity=0 time=0
control_change channel=1 control=10 value=45 time=38
note_on channel=1 note=39 velocity=73 time=1
note_on channel=1 note=51 velocity=73 time=0
note_on channel=1 note=51 velocity=0 time=54
note_on channel=1 note=39 velocity=0 time=0
control_change channel=1 control=10 value=55 time=5
note_on channel=1 note=60 velocity=66 time=1
note_on channel=1 note=56 velocity=66 time=0
note_on channel=1 note=51 velocity=66 time=0
note_on channel=1 note=51 velocity=0 time=21
note_on channel=1 note=56 velocity=0 time=0
note_on channel=1 note=60 velocity=0 time=0
control_change channel=1 control=10 value=50 time=38
note_on channel=1 note=44 velocity=73 time=1
note_on channel=1 note=56 velocity=73 time=0
note_on channel=1 note=56 velocity=0 time=54
note_on channel=1 note=44 velocity=0 time=0
control_change channel=1 control=10 value=55 time=5
note_on channel=1 note=51 velocity=66 time=1
note_on channel=1 note=56 velocity=66 time=0
note_on channel=1 note=60 velocity=66 time=0
note_on channel=1 note=60 velocity=0 time=21
note_on channel=1 note=56 velocity=0 time=0
note_on channel=1 note=51 velocity=0 time=0
control_change channel=1 control=10 value=45 time=38
note_on channel=1 note=51 velocity=73 time=1
note_on channel=1 note=39 velocity=73 time=0
note_on channel=1 note=39 velocity=0 time=54
note_on channel=1 note=51 velocity=0 time=0
control_change channel=1 control=10 value=55 time=5
note_on channel=1 note=51 velocity=66 time=1
note_on channel=1 note=56 velocity=66 time=0
note_on channel=1 note=60 velocity=66 time=0
note_on channel=1 note=60 velocity=0 time=21
note_on channel=1 note=56 velocity=0 time=0
note_on channel=1 note=51 velocity=0 time=0
note_on channel=1 note=58 velocity=73 time=39
note_on channel=1 note=46 velocity=73 time=0
note_on channel=1 note=46 velocity=0 time=54
note_on channel=1 note=58 velocity=0 time=0
note_on channel=1 note=51 velocity=66 time=6
note_on channel=1 note=61 velocity=66 time=0
note_on channel=1 note=55 velocity=66 time=0
note_on channel=1 note=55 velocity=0 time=21
note_on channel=1 note=61 velocity=0 time=0
note_on channel=1 note=51 velocity=0 time=0
control_change channel=1 control=10 value=45 time=38
note_on channel=1 note=39 velocity=73 time=1
note_on channel=1 note=51 velocity=73 time=0
note_on channel=1 note=51 velocity=0 time=54
note_on channel=1 note=39 velocity=0 time=0
control_change channel=1 control=10 value=55 time=5
note_on channel=1 note=51 velocity=66 time=1
note_on channel=1 note=55 velocity=66 time=0
note_on channel=1 note=61 velocity=66 time=0
note_on channel=1 note=61 velocity=0 time=21
note_on channel=1 note=55 velocity=0 time=0
note_on channel=1 note=51 velocity=0 time=0
note_on channel=1 note=46 velocity=73 time=39
note_on channel=1 note=58 velocity=73 time=0
note_on channel=1 note=58 velocity=0 time=54
note_on channel=1 note=46 velocity=0 time=0
note_on channel=1 note=61 velocity=66 time=6
note_on channel=1 note=51 velocity=66 time=0
note_on channel=1 note=55 velocity=66 time=0
note_on channel=1 note=55 velocity=0 time=21
note_on channel=1 note=51 velocity=0 time=0
note_on channel=1 note=61 velocity=0 time=0
control_change channel=1 control=10 value=45 time=38
note_on channel=1 note=51 velocity=82 time=1
note_on channel=1 note=39 velocity=82 time=0
note_on channel=1 note=39 velocity=0 time=54
note_on channel=1 note=51 velocity=0 time=0
control_change channel=1 control=10 value=49 time=5
note_on channel=1 note=55 velocity=76 time=1
note_on channel=1 note=43 velocity=76 time=0
note_on channel=1 note=43 velocity=0 time=40
note_on channel=1 note=55 velocity=0 time=0
note_on channel=1 note=56 velocity=73 time=20
note_on channel=1 note=44 velocity=73 time=0
note_on channel=1 note=44 velocity=0 time=54
note_on channel=1 note=56 velocity=0 time=0
control_change channel=1 control=10 value=55 time=5
note_on channel=1 note=51 velocity=66 time=1
note_on channel=1 note=56 velocity=66 time=0
note_on channel=1 note=60 velocity=66 time=0
note_on channel=1 note=60 velocity=0 time=21
note_on channel=1 note=56 velocity=0 time=0
note_on channel=1 note=51 velocity=0 time=0
control_change channel=1 control=10 value=45 time=38
note_on channel=1 note=39 velocity=73 time=1
note_on channel=1 note=51 velocity=73 time=0
note_on channel=1 note=51 velocity=0 time=54
note_on channel=1 note=39 velocity=0 time=0
control_change channel=1 control=10 value=55 time=5
note_on channel=1 note=60 velocity=66 time=1
note_on channel=1 note=56 velocity=66 time=0
note_on channel=1 note=51 velocity=66 time=0
note_on channel=1 note=51 velocity=0 time=21
note_on channel=1 note=56 velocity=0 time=0
note_on channel=1 note=60 velocity=0 time=0
control_change channel=1 control=10 value=50 time=38
note_on channel=1 note=56 velocity=73 time=1
note_on channel=1 note=44 velocity=73 time=0
note_on channel=1 note=44 velocity=0 time=54
note_on channel=1 note=56 velocity=0 time=0
control_change channel=1 control=10 value=55 time=5
note_on channel=1 note=51 velocity=66 time=1
note_on channel=1 note=56 velocity=66 time=0
note_on channel=1 note=60 velocity=66 time=0
note_on channel=1 note=60 velocity=0 time=21
note_on channel=1 note=56 velocity=0 time=0
note_on channel=1 note=51 velocity=0 time=0
control_change channel=1 control=10 value=45 time=38
note_on channel=1 note=39 velocity=73 time=1
note_on channel=1 note=51 velocity=73 time=0
note_on channel=1 note=51 velocity=0 time=54
note_on channel=1 note=39 velocity=0 time=0
control_change channel=1 control=10 value=55 time=5
note_on channel=1 note=51 velocity=66 time=1
note_on channel=1 note=60 velocity=66 time=0
note_on channel=1 note=56 velocity=66 time=0
note_on channel=1 note=56 velocity=0 time=21
note_on channel=1 note=60 velocity=0 time=0
note_on channel=1 note=51 velocity=0 time=0
control_change channel=1 control=10 value=47 time=38
note_on channel=1 note=53 velocity=73 time=1
note_on channel=1 note=41 velocity=73 time=0
note_on channel=1 note=41 velocity=0 time=54
note_on channel=1 note=53 velocity=0 time=0
control_change channel=1 control=10 value=57 time=5
note_on channel=1 note=63 velocity=66 time=1
note_on channel=1 note=57 velocity=66 time=0
note_on channel=1 note=53 velocity=66 time=0
note_on channel=1 note=53 velocity=0 time=21
note_on channel=1 note=57 velocity=0 time=0
note_on channel=1 note=63 velocity=0 time=0
control_change channel=1 control=10 value=51 time=38
note_on channel=1 note=57 velocity=73 time=1
note_on channel=1 note=45 velocity=73 time=0
note_on channel=1 note=45 velocity=0 time=54
note_on channel=1 note=57 velocity=0 time=0
control_change channel=1 control=10 value=57 time=5
note_on channel=1 note=57 velocity=66 time=1
note_on channel=1 note=53 velocity=66 time=0
note_on channel=1 note=63 velocity=66 time=0
note_on channel=1 note=63 velocity=0 time=21
note_on channel=1 note=53 velocity=0 time=0
note_on channel=1 note=57 velocity=0 time=0
note_on channel=1 note=60 velocity=73 time=39
note_on channel=1 note=48 velocity=73 time=0
note_on channel=1 note=48 velocity=0 time=54
note_on channel=1 note=60 velocity=0 time=0
note_on channel=1 note=57 velocity=66 time=6
note_on channel=1 note=63 velocity=66 time=0
note_on channel=1 note=53 velocity=66 time=0
note_on channel=1 note=53 velocity=0 time=21
note_on channel=1 note=63 velocity=0 time=0
note_on channel=1 note=57 velocity=0 time=0
control_change channel=1 control=10 value=47 time=38
note_on channel=1 note=53 velocity=73 time=1
note_on channel=1 note=41 velocity=73 time=0
note_on channel=1 note=41 velocity=0 time=54
note_on channel=1 note=53 velocity=0 time=0
control_change channel=1 control=10 value=57 time=5
note_on channel=1 note=57 velocity=66 time=1
note_on channel=1 note=63 velocity=66 time=0
note_on channel=1 note=53 velocity=66 time=0
note_on channel=1 note=53 velocity=0 time=21
note_on channel=1 note=63 velocity=0 time=0
note_on channel=1 note=57 velocity=0 time=0
control_change channel=1 control=10 value=46 time=38
note_on channel=1 note=46 velocity=73 time=1
note_on channel=1 note=46 velocity=0 time=54
control_change channel=1 control=10 value=57 time=5
note_on channel=1 note=58 velocity=66 time=1
note_on channel=1 note=61 velocity=66 time=0
note_on channel=1 note=53 velocity=66 time=0
note_on channel=1 note=53 velocity=0 time=21
note_on channel=1 note=61 velocity=0 time=0
note_on channel=1 note=58 velocity=0 time=0
control_change channel=1 control=10 value=49 time=38
note_on channel=1 note=49 velocity=73 time=1
note_on channel=1 note=49 velocity=0 time=54
control_change channel=1 control=10 value=57 time=5
note_on channel=1 note=53 velocity=66 time=1
note_on channel=1 note=61 velocity=66 time=0
note_on channel=1 note=58 velocity=66 time=0
note_on channel=1 note=58 velocity=0 time=21
note_on channel=1 note=61 velocity=0 time=0
note_on channel=1 note=53 velocity=0 time=0
control_change channel=1 control=10 value=46 time=38
note_on channel=1 note=46 velocity=73 time=1
note_on channel=1 note=46 velocity=0 time=54
control_change channel=1 control=10 value=55 time=5
note_on channel=1 note=58 velocity=84 time=1
note_on channel=1 note=53 velocity=84 time=0
note_on channel=1 note=53 velocity=0 time=33
note_on channel=1 note=58 velocity=0 time=0
note_on channel=1 note=58 velocity=73 time=27
note_on channel=1 note=53 velocity=73 time=0
note_on channel=1 note=49 velocity=73 time=0
note_on channel=1 note=49 velocity=0 time=107
note_on channel=1 note=53 velocity=0 time=0
note_on channel=1 note=58 velocity=0 time=0
control_change channel=1 control=10 value=50 time=12
note_on channel=1 note=50 velocity=80 time=1
note_on channel=1 note=53 velocity=68 time=32
note_on channel=1 note=50 velocity=0 time=1
note_on channel=1 note=53 velocity=0 time=24
control_change channel=1 control=10 value=56 time=2
note_on channel=1 note=56 velocity=73 time=1
note_on channel=1 note=56 velocity=0 time=31
note_on channel=1 note=59 velocity=69 time=1
note_on channel=1 note=59 velocity=0 time=25
control_change channel=1 control=10 value=62 time=2
note_on channel=1 note=62 velocity=88 time=1
note_on channel=1 note=62 velocity=0 time=25
note_on channel=1 note=62 velocity=80 time=7
note_on channel=1 note=62 velocity=0 time=32
note_on channel=1 note=62 velocity=96 time=28
note_on channel=1 note=62 velocity=0 time=64
control_change channel=1 control=10 value=45 time=443
note_on channel=1 note=51 velocity=86 time=1
note_on channel=1 note=39 velocity=86 time=0
note_on channel=1 note=39 velocity=0 time=54
note_on channel=1 note=51 velocity=0 time=0
note_on channel=1 note=51 velocity=73 time=6
note_on channel=1 note=39 velocity=73 time=0
note_on channel=1 note=39 velocity=0 time=40
note_on channel=1 note=51 velocity=0 time=0
control_change channel=1 control=10 value=50 time=19
note_on channel=1 note=44 velocity=84 time=1
note_on channel=1 note=56 velocity=84 time=0
note_on channel=1 note=56 velocity=0 time=54
note_on channel=1 note=44 velocity=0 time=0
control_change channel=1 control=10 value=45 time=65
note_on channel=1 note=51 velocity=73 time=1
note_on channel=1 note=39 velocity=73 time=0
note_on channel=1 note=39 velocity=0 time=54
note_on channel=1 note=51 velocity=0 time=0
control_change channel=1 control=10 value=56 time=5
note_on channel=1 note=58 velocity=66 time=1
note_on channel=1 note=51 velocity=66 time=0
note_on channel=1 note=61 velocity=66 time=0
note_on channel=1 note=61 velocity=0 time=21
note_on channel=1 note=51 velocity=0 time=0
note_on channel=1 note=58 velocity=0 time=0
control_change channel=1 control=10 value=49 time=38
note_on channel=1 note=55 velocity=73 time=1
note_on channel=1 note=43 velocity=73 time=0
note_on channel=1 note=43 velocity=0 time=54
note_on channel=1 note=55 velocity=0 time=0
control_change channel=1 control=10 value=55 time=5
note_on channel=1 note=51 velocity=66 time=1
note_on channel=1 note=55 velocity=66 time=0
note_on channel=1 note=61 velocity=66 time=0
note_on channel=1 note=61 velocity=0 time=21
note_on channel=1 note=55 velocity=0 time=0
note_on channel=1 note=51 velocity=0 time=0
note_on channel=1 note=58 velocity=73 time=39
note_on channel=1 note=46 velocity=73 time=0
note_on channel=1 note=46 velocity=0 time=54
note_on channel=1 note=58 velocity=0 time=0
note_on channel=1 note=61 velocity=66 time=6
note_on channel=1 note=58 velocity=66 time=0
note_on channel=1 note=55 velocity=66 time=0
note_on channel=1 note=51 velocity=66 time=0
note_on channel=1 note=51 velocity=0 time=21
note_on channel=1 note=61 velocity=0 time=0
note_on channel=1 note=58 velocity=0 time=0
note_on channel=1 note=55 velocity=0 time=0
note_on channel=1 note=46 velocity=80 time=39
note_on channel=1 note=58 velocity=80 time=0
note_on channel=1 note=58 velocity=0 time=54
note_on channel=1 note=46 velocity=0 time=0
note_on channel=1 note=47 velocity=73 time=6
note_on channel=1 note=59 velocity=73 time=0
note_on channel=1 note=59 velocity=0 time=40
note_on channel=1 note=47 velocity=0 time=0
note_on channel=1 note=60 velocity=75 time=20
note_on channel=1 note=48 velocity=75 time=0
note_on channel=1 note=48 velocity=0 time=54
note_on channel=1 note=60 velocity=0 time=0
note_on channel=1 note=56 velocity=66 time=6
note_on channel=1 note=51 velocity=66 time=0
note_on channel=1 note=60 velocity=66 time=0
note_on channel=1 note=60 velocity=0 time=21
note_on channel=1 note=51 velocity=0 time=0
note_on channel=1 note=56 velocity=0 time=0
control_change channel=1 control=10 value=45 time=38
note_on channel=1 note=51 velocity=73 time=1
note_on channel=1 note=39 velocity=73 time=0
note_on channel=1 note=39 velocity=0 time=54
note_on channel=1 note=51 velocity=0 time=0
control_change channel=1 control=10 value=55 time=5
note_on channel=1 note=60 velocity=66 time=1
note_on channel=1 note=56 velocity=66 time=0
note_on channel=1 note=51 velocity=66 time=0
note_on channel=1 note=51 velocity=0 time=21
note_on channel=1 note=56 velocity=0 time=0
note_on channel=1 note=60 velocity=0 time=0
control_change channel=1 control=10 value=50 time=38
note_on channel=1 note=44 velocity=73 time=1
note_on channel=1 note=56 velocity=73 time=0
note_on channel=1 note=56 velocity=0 time=54
note_on channel=1 note=44 velocity=0 time=0
control_change channel=1 control=10 value=55 time=5
note_on channel=1 note=51 velocity=66 time=1
note_on channel=1 note=56 velocity=66 time=0
note_on channel=1 note=60 velocity=66 time=0
note_on channel=1 note=60 velocity=0 time=21
note_on channel=1 note=56 velocity=0 time=0
note_on channel=1 note=51 velocity=0 time=0
control_change channel=1 control=10 value=45 time=38
note_on channel=1 note=39 velocity=73 time=1
note_on channel=1 note=51 velocity=73 time=0
note_on channel=1 note=51 velocity=0 time=54
note_on channel=1 note=39 velocity=0 time=0
control_change channel=1 control=10 value=55 time=5
note_on channel=1 note=60 velocity=62 time=1
note_on channel=1 note=51 velocity=62 time=0
note_on channel=1 note=56 velocity=62 time=0
note_on channel=1 note=56 velocity=0 time=21
note_on channel=1 note=51 velocity=0 time=0
note_on channel=1 note=60 velocity=0 time=0
note_on channel=1 note=58 velocity=69 time=39
note_on channel=1 note=46 velocity=69 time=0
note_on channel=1 note=46 velocity=0 time=54
note_on channel=1 note=58 velocity=0 time=0
note_on channel=1 note=61 velocity=62 time=6
note_on channel=1 note=51 velocity=62 time=0
note_on channel=1 note=55 velocity=62 time=0
note_on channel=1 note=55 velocity=0 time=21
note_on channel=1 note=51 velocity=0 time=0
note_on channel=1 note=61 velocity=0 time=0
control_change channel=1 control=10 value=45 time=38
note_on channel=1 note=51 velocity=69 time=1
note_on channel=1 note=39 velocity=69 time=0
note_on channel=1 note=39 velocity=0 time=54
note_on channel=1 note=51 velocity=0 time=0
control_change channel=1 control=10 value=55 time=5
note_on channel=1 note=51 velocity=62 time=1
note_on channel=1 note=55 velocity=62 time=0
note_on channel=1 note=61 velocity=62 time=0
note_on channel=1 note=61 velocity=0 time=21
note_on channel=1 note=55 velocity=0 time=0
note_on channel=1 note=51 velocity=0 time=0
note_on channel=1 note=46 velocity=69 time=39
note_on channel=1 note=58 velocity=69 time=0
note_on channel=1 note=58 velocity=0 time=54
note_on channel=1 note=46 velocity=0 time=0
note_on channel=1 note=55 velocity=62 time=6
note_on channel=1 note=51 velocity=62 time=0
note_on channel=1 note=61 velocity=62 time=0
note_on channel=1 note=61 velocity=0 time=21
note_on channel=1 note=51 velocity=0 time=0
note_on channel=1 note=55 velocity=0 time=0
control_change channel=1 control=10 value=45 time=38
note_on channel=1 note=39 velocity=76 time=1
note_on channel=1 note=51 velocity=76 time=0
note_on channel=1 note=51 velocity=0 time=54
note_on channel=1 note=39 velocity=0 time=0
control_change channel=1 control=10 value=49 time=5
note_on channel=1 note=55 velocity=71 time=1
note_on channel=1 note=43 velocity=71 time=0
note_on channel=1 note=43 velocity=0 time=40
note_on channel=1 note=55 velocity=0 time=0
note_on channel=1 note=56 velocity=72 time=20
note_on channel=1 note=44 velocity=72 time=0
note_on channel=1 note=44 velocity=0 time=54
note_on channel=1 note=56 velocity=0 time=0
control_change channel=1 control=10 value=55 time=5
note_on channel=1 note=51 velocity=66 time=1
note_on channel=1 note=60 velocity=66 time=0
note_on channel=1 note=56 velocity=66 time=0
note_on channel=1 note=56 velocity=0 time=21
note_on channel=1 note=60 velocity=0 time=0
note_on channel=1 note=51 velocity=0 time=0
control_change channel=1 control=10 value=45 time=38
note_on channel=1 note=51 velocity=72 time=1
note_on channel=1 note=39 velocity=72 time=0
note_on channel=1 note=39 velocity=0 time=54
note_on channel=1 note=51 velocity=0 time=0
control_change channel=1 control=10 value=55 time=5
note_on channel=1 note=56 velocity=66 time=1
note_on channel=1 note=51 velocity=66 time=0
note_on channel=1 note=60 velocity=66 time=0
note_on channel=1 note=60 velocity=0 time=21
note_on channel=1 note=51 velocity=0 time=0
note_on channel=1 note=56 velocity=0 time=0
control_change channel=1 control=10 value=50 time=38
note_on channel=1 note=56 velocity=72 time=1
note_on channel=1 note=44 velocity=72 time=0
note_on channel=1 note=44 velocity=0 time=54
note_on channel=1 note=56 velocity=0 time=0
control_change channel=1 control=10 value=55 time=5
note_on channel=1 note=60 velocity=66 time=1
note_on channel=1 note=51 velocity=66 time=0
note_on channel=1 note=56 velocity=66 time=0
note_on channel=1 note=56 velocity=0 time=21
note_on channel=1 note=51 velocity=0 time=0
note_on channel=1 note=60 velocity=0 time=0
control_change channel=1 control=10 value=45 time=38
note_on channel=1 note=39 velocity=72 time=1
note_on channel=1 note=51 velocity=72 time=0
note_on channel=1 note=51 velocity=0 time=54
note_on channel=1 note=39 velocity=0 time=0
control_change channel=1 control=10 value=55 time=5
note_on channel=1 note=51 velocity=66 time=1
note_on channel=1 note=56 velocity=66 time=0
note_on channel=1 note=60 velocity=66 time=0
note_on channel=1 note=60 velocity=0 time=21
note_on channel=1 note=56 velocity=0 time=0
note_on channel=1 note=51 velocity=0 time=0
control_change channel=1 control=10 value=47 time=38
note_on channel=1 note=41 velocity=72 time=1
note_on channel=1 note=53 velocity=72 time=0
note_on channel=1 note=53 velocity=0 time=54
note_on channel=1 note=41 velocity=0 time=0
control_change channel=1 control=10 value=57 time=5
note_on channel=1 note=57 velocity=66 time=1
note_on channel=1 note=53 velocity=66 time=0
note_on channel=1 note=63 velocity=66 time=0
note_on channel=1 note=63 velocity=0 time=21
note_on channel=1 note=53 velocity=0 time=0
note_on channel=1 note=57 velocity=0 time=0
control_change channel=1 control=10 value=51 time=38
note_on channel=1 note=45 velocity=72 time=1
note_on channel=1 note=57 velocity=72 time=0
note_on channel=1 note=57 velocity=0 time=54
note_on channel=1 note=45 velocity=0 time=0
control_change channel=1 control=10 value=57 time=5
note_on channel=1 note=57 velocity=66 time=1
note_on channel=1 note=53 velocity=66 time=0
note_on channel=1 note=63 velocity=66 time=0
note_on channel=1 note=63 velocity=0 time=21
note_on channel=1 note=53 velocity=0 time=0
note_on channel=1 note=57 velocity=0 time=0
note_on channel=1 note=60 velocity=72 time=39
note_on channel=1 note=48 velocity=72 time=0
note_on channel=1 note=48 velocity=0 time=54
note_on channel=1 note=60 velocity=0 time=0
note_on channel=1 note=57 velocity=66 time=6
note_on channel=1 note=53 velocity=66 time=0
note_on channel=1 note=63 velocity=66 time=0
note_on channel=1 note=63 velocity=0 time=21
note_on channel=1 note=53 velocity=0 time=0
note_on channel=1 note=57 velocity=0 time=0
control_change channel=1 control=10 value=47 time=38
note_on channel=1 note=41 velocity=72 time=1
note_on channel=1 note=53 velocity=72 time=0
note_on channel=1 note=53 velocity=0 time=54
note_on channel=1 note=41 velocity=0 time=0
control_change channel=1 control=10 value=57 time=5
note_on channel=1 note=53 velocity=66 time=1
note_on channel=1 note=57 velocity=66 time=0
note_on channel=1 note=63 velocity=66 time=0
note_on channel=1 note=63 velocity=0 time=21
note_on channel=1 note=57 velocity=0 time=0
note_on channel=1 note=53 velocity=0 time=0
control_change channel=1 control=10 value=46 time=38
note_on channel=1 note=46 velocity=72 time=1
note_on channel=1 note=46 velocity=0 time=54
control_change channel=1 control=10 value=57 time=5
note_on channel=1 note=58 velocity=66 time=1
note_on channel=1 note=61 velocity=66 time=0
note_on channel=1 note=53 velocity=66 time=0
note_on channel=1 note=53 velocity=0 time=21
note_on channel=1 note=61 velocity=0 time=0
note_on channel=1 note=58 velocity=0 time=0
control_change channel=1 control=10 value=49 time=38
note_on channel=1 note=49 velocity=72 time=1
note_on channel=1 note=49 velocity=0 time=54
control_change channel=1 control=10 value=57 time=5
note_on channel=1 note=61 velocity=66 time=1
note_on channel=1 note=53 velocity=66 time=0
note_on channel=1 note=58 velocity=66 time=0
note_on channel=1 note=58 velocity=0 time=21
note_on channel=1 note=53 velocity=0 time=0
note_on channel=1 note=61 velocity=0 time=0
control_change channel=1 control=10 value=46 time=38
note_on channel=1 note=46 velocity=72 time=1
note_on channel=1 note=46 velocity=0 time=54
control_change channel=1 control=10 value=55 time=5
note_on channel=1 note=58 velocity=83 time=1
note_on channel=1 note=53 velocity=83 time=0
note_on channel=1 note=53 velocity=0 time=33
note_on channel=1 note=58 velocity=0 time=0
note_on channel=1 note=58 velocity=72 time=27
note_on channel=1 note=53 velocity=72 time=0
note_on channel=1 note=49 velocity=72 time=0
note_on channel=1 note=49 velocity=0 time=107
note_on channel=1 note=53 velocity=0 time=0
note_on channel=1 note=58 velocity=0 time=0
control_change channel=1 control=10 value=50 time=12
note_on channel=1 note=50 velocity=75 time=1
note_on channel=1 note=53 velocity=64 time=32
note_on channel=1 note=50 velocity=0 time=1
note_on channel=1 note=53 velocity=0 time=24
control_change channel=1 control=10 value=56 time=2
note_on channel=1 note=56 velocity=67 time=1
note_on channel=1 note=56 velocity=0 time=31
note_on channel=1 note=59 velocity=64 time=1
note_on channel=1 note=59 velocity=0 time=25
control_change channel=1 control=10 value=62 time=2
note_on channel=1 note=62 velocity=80 time=1
note_on channel=1 note=62 velocity=0 time=25
note_on channel=1 note=62 velocity=72 time=7
note_on channel=1 note=62 velocity=0 time=32
note_on channel=1 note=62 velocity=84 time=28
note_on channel=1 note=62 velocity=0 time=64
control_change channel=1 control=10 value=45 time=443
note_on channel=1 note=51 velocity=83 time=1
note_on channel=1 note=39 velocity=83 time=0
note_on channel=1 note=39 velocity=0 time=54
note_on channel=1 note=51 velocity=0 time=0
note_on channel=1 note=39 velocity=73 time=6
note_on channel=1 note=51 velocity=73 time=0
note_on channel=1 note=51 velocity=0 time=40
note_on channel=1 note=39 velocity=0 time=0
control_change channel=1 control=10 value=50 time=19
note_on channel=1 note=44 velocity=79 time=1
note_on channel=1 note=56 velocity=79 time=0
note_on channel=1 note=56 velocity=0 time=54
note_on channel=1 note=44 velocity=0 time=0
control_change channel=1 control=10 value=44 time=65
note_on channel=1 note=44 velocity=72 time=1
note_on channel=1 note=44 velocity=0 time=54
control_change channel=1 control=10 value=55 time=5
note_on channel=1 note=51 velocity=66 time=1
note_on channel=1 note=56 velocity=66 time=0
note_on channel=1 note=60 velocity=66 time=0
note_on channel=1 note=60 velocity=0 time=22
note_on channel=1 note=56 velocity=0 time=0
note_on channel=1 note=51 velocity=0 time=0
control_change channel=1 control=10 value=39 time=37
note_on channel=1 note=39 velocity=72 time=1
note_on channel=1 note=39 velocity=0 time=54
control_change channel=1 control=10 value=55 time=5
note_on channel=1 note=56 velocity=66 time=1
note_on channel=1 note=51 velocity=66 time=0
note_on channel=1 note=60 velocity=66 time=0
note_on channel=1 note=60 velocity=0 time=22
note_on channel=1 note=51 velocity=0 time=0
note_on channel=1 note=56 velocity=0 time=0
control_change channel=1 control=10 value=44 time=37
note_on channel=1 note=44 velocity=72 time=1
note_on channel=1 note=44 velocity=0 time=54
control_change channel=1 control=10 value=55 time=5
note_on channel=1 note=60 velocity=66 time=1
note_on channel=1 note=51 velocity=66 time=0
note_on channel=1 note=56 velocity=66 time=0
note_on channel=1 note=56 velocity=0 time=22
note_on channel=1 note=51 velocity=0 time=0
note_on channel=1 note=60 velocity=0 time=0
control_change channel=1 control=10 value=39 time=37
note_on channel=1 note=39 velocity=72 time=1
note_on channel=1 note=39 velocity=0 time=54
control_change channel=1 control=10 value=55 time=5
note_on channel=1 note=60 velocity=66 time=1
note_on channel=1 note=51 velocity=66 time=0
note_on channel=1 note=56 velocity=66 time=0
note_on channel=1 note=56 velocity=0 time=22
note_on channel=1 note=51 velocity=0 time=0
note_on channel=1 note=60 velocity=0 time=0
control_change channel=1 control=10 value=37 time=37
note_on channel=1 note=37 velocity=72 time=1
note_on channel=1 note=37 velocity=0 time=54
control_change channel=1 control=10 value=56 time=5
note_on channel=1 note=61 velocity=66 time=1
note_on channel=1 note=53 velocity=66 time=0
note_on channel=1 note=56 velocity=66 time=0
note_on channel=1 note=56 velocity=0 time=22
note_on channel=1 note=53 velocity=0 time=0
note_on channel=1 note=61 velocity=0 time=0
control_change channel=1 control=10 value=37 time=37
note_on channel=1 note=37 velocity=72 time=1
note_on channel=1 note=37 velocity=0 time=54
control_change channel=1 control=10 value=56 time=5
note_on channel=1 note=56 velocity=66 time=1
note_on channel=1 note=61 velocity=66 time=0
note_on channel=1 note=53 velocity=66 time=0
note_on channel=1 note=53 velocity=0 time=22
note_on channel=1 note=61 velocity=0 time=0
note_on channel=1 note=56 velocity=0 time=0
control_change channel=1 control=10 value=44 time=37
note_on channel=1 note=44 velocity=72 time=1
note_on channel=1 note=44 velocity=0 time=54
control_change channel=1 control=10 value=55 time=5
note_on channel=1 note=51 velocity=66 time=1
note_on channel=1 note=56 velocity=66 time=0
note_on channel=1 note=60 velocity=66 time=0
note_on channel=1 note=60 velocity=0 time=22
note_on channel=1 note=56 velocity=0 time=0
note_on channel=1 note=51 velocity=0 time=0
control_change channel=1 control=10 value=39 time=37
note_on channel=1 note=39 velocity=72 time=1
note_on channel=1 note=39 velocity=0 time=54
control_change channel=1 control=10 value=55 time=5
note_on channel=1 note=56 velocity=66 time=1
note_on channel=1 note=51 velocity=66 time=0
note_on channel=1 note=60 velocity=66 time=0
note_on channel=1 note=60 velocity=0 time=22
note_on channel=1 note=51 velocity=0 time=0
note_on channel=1 note=56 velocity=0 time=0
control_change channel=1 control=10 value=44 time=37
note_on channel=1 note=44 velocity=72 time=1
note_on channel=1 note=44 velocity=0 time=54
control_change channel=1 control=10 value=55 time=5
note_on channel=1 note=51 velocity=66 time=1
note_on channel=1 note=60 velocity=66 time=0
note_on channel=1 note=56 velocity=66 time=0
note_on channel=1 note=56 velocity=0 time=22
note_on channel=1 note=60 velocity=0 time=0
note_on channel=1 note=51 velocity=0 time=0
control_change channel=1 control=10 value=39 time=37
note_on channel=1 note=39 velocity=72 time=1
note_on channel=1 note=39 velocity=0 time=54
control_change channel=1 control=10 value=55 time=5
note_on channel=1 note=60 velocity=66 time=1
note_on channel=1 note=51 velocity=66 time=0
note_on channel=1 note=56 velocity=66 time=0
note_on channel=1 note=56 velocity=0 time=22
note_on channel=1 note=51 velocity=0 time=0
note_on channel=1 note=60 velocity=0 time=0
control_change channel=1 control=10 value=44 time=37
note_on channel=1 note=44 velocity=72 time=1
note_on channel=1 note=44 velocity=0 time=54
control_change channel=1 control=10 value=55 time=5
note_on channel=1 note=56 velocity=66 time=1
note_on channel=1 note=60 velocity=66 time=0
note_on channel=1 note=51 velocity=66 time=0
note_on channel=1 note=51 velocity=0 time=22
note_on channel=1 note=60 velocity=0 time=0
note_on channel=1 note=56 velocity=0 time=0
control_change channel=1 control=10 value=45 time=37
note_on channel=1 note=45 velocity=72 time=1
note_on channel=1 note=45 velocity=0 time=54
control_change channel=1 control=10 value=58 time=5
note_on channel=1 note=63 velocity=66 time=1
note_on channel=1 note=57 velocity=66 time=0
note_on channel=1 note=54 velocity=66 time=0
note_on channel=1 note=54 velocity=0 time=22
note_on channel=1 note=57 velocity=0 time=0
note_on channel=1 note=63 velocity=0 time=0
control_change channel=1 control=10 value=46 time=37
note_on channel=1 note=46 velocity=72 time=1
note_on channel=1 note=46 velocity=0 time=54
control_change channel=1 control=10 value=58 time=5
note_on channel=1 note=55 velocity=66 time=1
note_on channel=1 note=63 velocity=66 time=0
note_on channel=1 note=58 velocity=66 time=0
note_on channel=1 note=58 velocity=0 time=22
note_on channel=1 note=63 velocity=0 time=0
note_on channel=1 note=55 velocity=0 time=0
control_change channel=1 control=10 value=46 time=37
note_on channel=1 note=46 velocity=72 time=1
note_on channel=1 note=46 velocity=0 time=54
control_change channel=1 control=10 value=60 time=5
note_on channel=1 note=58 velocity=67 time=1
note_on channel=1 note=62 velocity=67 time=0
note_on channel=1 note=62 velocity=0 time=30
note_on channel=1 note=58 velocity=0 time=0
note_on channel=1 note=63 velocity=83 time=30
note_on channel=1 note=51 velocity=83 time=0
note_on channel=1 note=51 velocity=0 time=54
note_on channel=1 note=63 velocity=0 time=0
control_change channel=1 control=10 value=55 time=5
note_on channel=1 note=61 velocity=74 time=1
note_on channel=1 note=49 velocity=74 time=0
note_on channel=1 note=49 velocity=0 time=40
note_on channel=1 note=61 velocity=0 time=0
note_on channel=1 note=60 velocity=79 time=20
note_on channel=1 note=48 velocity=79 time=0
note_on channel=1 note=48 velocity=0 time=54
note_on channel=1 note=60 velocity=0 time=0
note_on channel=1 note=58 velocity=71 time=6
note_on channel=1 note=46 velocity=71 time=0
note_on channel=1 note=46 velocity=0 time=40
note_on channel=1 note=58 velocity=0 time=0
control_change channel=1 control=10 value=50 time=19
note_on channel=1 note=44 velocity=72 time=1
note_on channel=1 note=56 velocity=72 time=0
note_on channel=1 note=56 velocity=0 time=54
note_on channel=1 note=44 velocity=0 time=0
control_change channel=1 control=10 value=55 time=5
note_on channel=1 note=56 velocity=66 time=1
note_on channel=1 note=60 velocity=66 time=0
note_on channel=1 note=51 velocity=66 time=0
note_on channel=1 note=51 velocity=0 time=22
note_on channel=1 note=60 velocity=0 time=0
note_on channel=1 note=56 velocity=0 time=0
control_change channel=1 control=10 value=39 time=37
note_on channel=1 note=39 velocity=72 time=1
note_on channel=1 note=39 velocity=0 time=54
control_change channel=1 control=10 value=55 time=5
note_on channel=1 note=51 velocity=66 time=1
note_on channel=1 note=56 velocity=66 time=0
note_on channel=1 note=60 velocity=66 time=0
note_on channel=1 note=60 velocity=0 time=22
note_on channel=1 note=56 velocity=0 time=0
note_on channel=1 note=51 velocity=0 time=0
control_change channel=1 control=10 value=44 time=37
note_on channel=1 note=44 velocity=72 time=1
note_on channel=1 note=44 velocity=0 time=54
control_change channel=1 control=10 value=55 time=5
note_on channel=1 note=56 velocity=65 time=1
note_on channel=1 note=60 velocity=65 time=0
note_on channel=1 note=51 velocity=65 time=0
note_on channel=1 note=51 velocity=0 time=22
note_on channel=1 note=60 velocity=0 time=0
note_on channel=1 note=56 velocity=0 time=0
control_change channel=1 control=10 value=39 time=37
note_on channel=1 note=39 velocity=72 time=1
note_on channel=1 note=39 velocity=0 time=54
control_change channel=1 control=10 value=55 time=5
note_on channel=1 note=51 velocity=65 time=1
note_on channel=1 note=60 velocity=65 time=0
note_on channel=1 note=56 velocity=65 time=0
note_on channel=1 note=56 velocity=0 time=22
note_on channel=1 note=60 velocity=0 time=0
note_on channel=1 note=51 velocity=0 time=0
control_change channel=1 control=10 value=37 time=37
note_on channel=1 note=37 velocity=72 time=1
note_on channel=1 note=37 velocity=0 time=54
control_change channel=1 control=10 value=56 time=5
note_on channel=1 note=56 velocity=66 time=1
note_on channel=1 note=61 velocity=66 time=0
note_on channel=1 note=53 velocity=66 time=0
note_on channel=1 note=53 velocity=0 time=30
note_on channel=1 note=61 velocity=0 time=0
note_on channel=1 note=56 velocity=0 time=0
note_on channel=1 note=49 velocity=82 time=30
note_on channel=1 note=61 velocity=82 time=0
note_on channel=1 note=61 velocity=0 time=54
note_on channel=1 note=49 velocity=0 time=0
note_on channel=1 note=61 velocity=76 time=6
note_on channel=1 note=49 velocity=76 time=0
note_on channel=1 note=49 velocity=0 time=30
note_on channel=1 note=61 velocity=0 time=0
note_on channel=1 note=48 velocity=72 time=30
note_on channel=1 note=60 velocity=72 time=0
note_on channel=1 note=60 velocity=0 time=54
note_on channel=1 note=48 velocity=0 time=0
control_change channel=1 control=10 value=49 time=5
note_on channel=1 note=55 velocity=75 time=1
note_on channel=1 note=43 velocity=75 time=0
note_on channel=1 note=43 velocity=0 time=40
note_on channel=1 note=55 velocity=0 time=0
control_change channel=1 control=10 value=42 time=19
note_on channel=1 note=36 velocity=80 time=1
note_on channel=1 note=48 velocity=80 time=0
note_on channel=1 note=48 velocity=0 time=67
note_on channel=1 note=36 velocity=0 time=0
note_on channel=1 note=49 velocity=72 time=53
note_on channel=1 note=37 velocity=72 time=0
note_on channel=1 note=37 velocity=0 time=54
note_on channel=1 note=49 velocity=0 time=0
control_change channel=1 control=10 value=56 time=5
note_on channel=1 note=61 velocity=65 time=1
note_on channel=1 note=53 velocity=65 time=0
note_on channel=1 note=56 velocity=65 time=0
note_on channel=1 note=56 velocity=0 time=22
note_on channel=1 note=53 velocity=0 time=0
note_on channel=1 note=61 velocity=0 time=0
control_change channel=1 control=10 value=43 time=37
note_on channel=1 note=37 velocity=72 time=1
note_on channel=1 note=49 velocity=72 time=0
note_on channel=1 note=49 velocity=0 time=54
note_on channel=1 note=37 velocity=0 time=0
control_change channel=1 control=10 value=56 time=5
note_on channel=1 note=53 velocity=65 time=1
note_on channel=1 note=61 velocity=65 time=0
note_on channel=1 note=56 velocity=65 time=0
note_on channel=1 note=56 velocity=0 time=22
note_on channel=1 note=61 velocity=0 time=0
note_on channel=1 note=53 velocity=0 time=0
control_change channel=1 control=10 value=50 time=37
note_on channel=1 note=56 velocity=72 time=1
note_on channel=1 note=44 velocity=72 time=0
note_on channel=1 note=44 velocity=0 time=54
note_on channel=1 note=56 velocity=0 time=0
control_change channel=1 control=10 value=55 time=5
note_on channel=1 note=60 velocity=65 time=1
note_on channel=1 note=51 velocity=65 time=0
note_on channel=1 note=56 velocity=65 time=0
note_on channel=1 note=56 velocity=0 time=22
note_on channel=1 note=51 velocity=0 time=0
note_on channel=1 note=60 velocity=0 time=0
control_change channel=1 control=10 value=50 time=37
note_on channel=1 note=56 velocity=72 time=1
note_on channel=1 note=44 velocity=72 time=0
note_on channel=1 note=44 velocity=0 time=54
note_on channel=1 note=56 velocity=0 time=0
control_change channel=1 control=10 value=55 time=5
note_on channel=1 note=51 velocity=65 time=1
note_on channel=1 note=56 velocity=65 time=0
note_on channel=1 note=60 velocity=65 time=0
note_on channel=1 note=60 velocity=0 time=22
note_on channel=1 note=56 velocity=0 time=0
note_on channel=1 note=51 velocity=0 time=0
control_change channel=1 control=10 value=45 time=37
note_on channel=1 note=39 velocity=72 time=1
note_on channel=1 note=51 velocity=72 time=0
note_on channel=1 note=51 velocity=0 time=54
note_on channel=1 note=39 velocity=0 time=0
control_change channel=1 control=10 value=55 time=5
note_on channel=1 note=51 velocity=65 time=1
note_on channel=1 note=61 velocity=65 time=0
note_on channel=1 note=55 velocity=65 time=0
note_on channel=1 note=55 velocity=0 time=22
note_on channel=1 note=61 velocity=0 time=0
note_on channel=1 note=51 velocity=0 time=0
control_change channel=1 control=10 value=45 time=37
note_on channel=1 note=51 velocity=78 time=1
note_on channel=1 note=39 velocity=78 time=0
note_on channel=1 note=39 velocity=0 time=45
note_on channel=1 note=51 velocity=0 time=0
note_on channel=1 note=51 velocity=66 time=15
note_on channel=1 note=39 velocity=66 time=0
note_on channel=1 note=39 velocity=0 time=34
note_on channel=1 note=51 velocity=0 time=0
control_change channel=1 control=10 value=50 time=25
note_on channel=1 note=44 velocity=81 time=1
note_on channel=1 note=56 velocity=81 time=0
note_on channel=1 note=56 velocity=0 time=54
note_on channel=1 note=44 velocity=0 time=0
control_change channel=1 control=10 value=45 time=5
note_on channel=1 note=39 velocity=76 time=1
note_on channel=1 note=51 velocity=76 time=0
note_on channel=1 note=51 velocity=0 time=40
note_on channel=1 note=39 velocity=0 time=0
control_change channel=1 control=10 value=38 time=19
note_on channel=1 note=32 velocity=89 time=1
note_on channel=1 note=44 velocity=89 time=0
note_on channel=1 note=44 velocity=0 time=54
note_on channel=1 note=32 velocity=0 time=0
control_change channel=1 control=10 value=61 time=65
note_on channel=1 note=61 velocity=87 time=1
note_on channel=1 note=61 velocity=0 time=54
note_on channel=1 note=61 velocity=72 time=6
note_on channel=1 note=61 velocity=0 time=80
control_change channel=1 control=10 value=56 time=11
note_on channel=1 note=56 velocity=72 time=1
note_on channel=1 note=56 velocity=0 time=25
control_change channel=1 control=10 value=61 time=2
note_on channel=1 note=61 velocity=76 time=1
note_on channel=1 note=61 velocity=0 time=31
note_on channel=1 note=63 velocity=72 time=1
note_on channel=1 note=63 velocity=0 time=25
control_change channel=1 control=10 value=50 time=362
note_on channel=1 note=44 velocity=82 time=1
note_on channel=1 note=56 velocity=82 time=0
note_on channel=1 note=56 velocity=0 time=54
note_on channel=1 note=44 velocity=0 time=0
note_on channel=1 note=44 velocity=71 time=6
note_on channel=1 note=56 velocity=71 time=0
note_on channel=1 note=56 velocity=0 time=40
note_on channel=1 note=44 velocity=0 time=0
control_change channel=1 control=10 value=43 time=19
note_on channel=1 note=37 velocity=77 time=1
note_on channel=1 note=49 velocity=77 time=0
note_on channel=1 note=49 velocity=0 time=54
note_on channel=1 note=37 velocity=0 time=0
note_on channel=1 note=49 velocity=75 time=6
note_on channel=1 note=37 velocity=75 time=0
note_on channel=1 note=37 velocity=0 time=40
note_on channel=1 note=49 velocity=0 time=0
note_on channel=1 note=39 velocity=83 time=20
note_on channel=1 note=51 velocity=83 time=0
note_on channel=1 note=51 velocity=0 time=54
note_on channel=1 note=39 velocity=0 time=0
control_change channel=1 control=10 value=47 time=5
note_on channel=1 note=41 velocity=71 time=1
note_on channel=1 note=53 velocity=71 time=0
note_on channel=1 note=53 velocity=0 time=40
note_on channel=1 note=41 velocity=0 time=0
note_on channel=1 note=54 velocity=74 time=20
note_on channel=1 note=42 velocity=74 time=0
note_on channel=1 note=42 velocity=0 time=54
note_on channel=1 note=54 velocity=0 time=0
control_change channel=1 control=10 value=61 time=5
note_on channel=1 note=61 velocity=76 time=1
note_on channel=1 note=66 velocity=76 time=0
note_on channel=1 note=58 velocity=76 time=0
note_on channel=1 note=58 velocity=0 time=22
note_on channel=1 note=66 velocity=0 time=0
note_on channel=1 note=61 velocity=0 time=0
control_change channel=1 control=10 value=57 time=37
note_on channel=1 note=51 velocity=74 time=1
note_on channel=1 note=63 velocity=74 time=0
note_on channel=1 note=63 velocity=0 time=54
note_on channel=1 note=51 velocity=0 time=0
note_on channel=1 note=52 velocity=68 time=6
note_on channel=1 note=64 velocity=68 time=0
note_on channel=1 note=64 velocity=0 time=40
note_on channel=1 note=52 velocity=0 time=0
note_on channel=1 note=65 velocity=66 time=20
note_on channel=1 note=53 velocity=66 time=0
note_on channel=1 note=53 velocity=0 time=54
note_on channel=1 note=65 velocity=0 time=0
note_on channel=1 note=56 velocity=76 time=6
note_on channel=1 note=61 velocity=76 time=0
note_on channel=1 note=65 velocity=76 time=0
note_on channel=1 note=65 velocity=0 time=22
note_on channel=1 note=61 velocity=0 time=0
note_on channel=1 note=56 velocity=0 time=0
note_on channel=1 note=49 velocity=66 time=38
note_on channel=1 note=61 velocity=66 time=0
note_on channel=1 note=61 velocity=0 time=54
note_on channel=1 note=49 velocity=0 time=0
note_on channel=1 note=56 velocity=76 time=6
note_on channel=1 note=61 velocity=76 time=0
note_on channel=1 note=65 velocity=76 time=0
note_on channel=1 note=65 velocity=0 time=22
note_on channel=1 note=61 velocity=0 time=0
note_on channel=1 note=56 velocity=0 time=0
control_change channel=1 control=10 value=50 time=37
note_on channel=1 note=44 velocity=66 time=1
note_on channel=1 note=56 velocity=66 time=0
note_on channel=1 note=56 velocity=0 time=54
note_on channel=1 note=44 velocity=0 time=0
control_change channel=1 control=10 value=60 time=5
note_on channel=1 note=66 velocity=76 time=1
note_on channel=1 note=56 velocity=76 time=0
note_on channel=1 note=60 velocity=76 time=0
note_on channel=1 note=60 velocity=0 time=22
note_on channel=1 note=56 velocity=0 time=0
note_on channel=1 note=66 velocity=0 time=0
note_on channel=1 note=51 velocity=71 time=38
note_on channel=1 note=63 velocity=71 time=0
note_on channel=1 note=63 velocity=0 time=54
note_on channel=1 note=51 velocity=0 time=0
note_on channel=1 note=52 velocity=66 time=6
note_on channel=1 note=64 velocity=66 time=0
note_on channel=1 note=64 velocity=0 time=40
note_on channel=1 note=52 velocity=0 time=0
note_on channel=1 note=53 velocity=73 time=20
note_on channel=1 note=65 velocity=73 time=0
note_on channel=1 note=65 velocity=0 time=54
note_on channel=1 note=53 velocity=0 time=0
control_change channel=1 control=10 value=55 time=5
note_on channel=1 note=61 velocity=66 time=1
note_on channel=1 note=49 velocity=66 time=0
note_on channel=1 note=49 velocity=0 time=40
note_on channel=1 note=61 velocity=0 time=0
control_change channel=1 control=10 value=50 time=19
note_on channel=1 note=56 velocity=82 time=1
note_on channel=1 note=44 velocity=82 time=0
note_on channel=1 note=44 velocity=0 time=54
note_on channel=1 note=56 velocity=0 time=0
note_on channel=1 note=41 velocity=72 time=6
note_on channel=1 note=53 velocity=72 time=0
note_on channel=1 note=53 velocity=0 time=40
note_on channel=1 note=41 velocity=0 time=0
note_on channel=1 note=42 velocity=74 time=20
note_on channel=1 note=54 velocity=74 time=0
note_on channel=1 note=54 velocity=0 time=54
note_on channel=1 note=42 velocity=0 time=0
control_change channel=1 control=10 value=61 time=5
note_on channel=1 note=61 velocity=76 time=1
note_on channel=1 note=58 velocity=76 time=0
note_on channel=1 note=66 velocity=76 time=0
note_on channel=1 note=66 velocity=0 time=22
note_on channel=1 note=58 velocity=0 time=0
note_on channel=1 note=61 velocity=0 time=0
control_change channel=1 control=10 value=57 time=37
note_on channel=1 note=51 velocity=71 time=1
note_on channel=1 note=63 velocity=71 time=0
note_on channel=1 note=63 velocity=0 time=54
note_on channel=1 note=51 velocity=0 time=0
note_on channel=1 note=64 velocity=66 time=6
note_on channel=1 note=52 velocity=66 time=0
note_on channel=1 note=52 velocity=0 time=40
note_on channel=1 note=64 velocity=0 time=0
note_on channel=1 note=65 velocity=75 time=20
note_on channel=1 note=53 velocity=75 time=0
note_on channel=1 note=53 velocity=0 time=54
note_on channel=1 note=65 velocity=0 time=0
note_on channel=1 note=61 velocity=71 time=6
note_on channel=1 note=65 velocity=71 time=0
note_on channel=1 note=56 velocity=71 time=0
note_on channel=1 note=56 velocity=0 time=22
note_on channel=1 note=65 velocity=0 time=0
note_on channel=1 note=61 velocity=0 time=0
note_on channel=1 note=61 velocity=66 time=38
note_on channel=1 note=49 velocity=66 time=0
note_on channel=1 note=49 velocity=0 time=54
note_on channel=1 note=61 velocity=0 time=0
note_on channel=1 note=61 velocity=76 time=6
note_on channel=1 note=65 velocity=76 time=0
note_on channel=1 note=56 velocity=76 time=0
note_on channel=1 note=56 velocity=0 time=22
note_on channel=1 note=65 velocity=0 time=0
note_on channel=1 note=61 velocity=0 time=0
control_change channel=1 control=10 value=52 time=37
note_on channel=1 note=46 velocity=81 time=1
note_on channel=1 note=58 velocity=81 time=0
note_on channel=1 note=58 velocity=0 time=54
note_on channel=1 note=46 velocity=0 time=0
control_change channel=1 control=10 value=63 time=5
note_on channel=1 note=61 velocity=85 time=1
note_on channel=1 note=67 velocity=85 time=0
note_on channel=1 note=63 velocity=85 time=0
note_on channel=1 note=63 velocity=0 time=22
note_on channel=1 note=67 velocity=0 time=0
note_on channel=1 note=61 velocity=0 time=0
control_change channel=1 control=10 value=45 time=37
note_on channel=1 note=39 velocity=82 time=1
note_on channel=1 note=51 velocity=82 time=0
note_on channel=1 note=51 velocity=0 time=54
note_on channel=1 note=39 velocity=0 time=0
control_change channel=1 control=10 value=63 time=5
note_on channel=1 note=63 velocity=85 time=1
note_on channel=1 note=67 velocity=85 time=0
note_on channel=1 note=61 velocity=85 time=0
note_on channel=1 note=61 velocity=0 time=22
note_on channel=1 note=67 velocity=0 time=0
note_on channel=1 note=63 velocity=0 time=0
control_change channel=1 control=10 value=59 time=37
note_on channel=1 note=60 velocity=83 time=1
note_on channel=1 note=63 velocity=83 time=0
note_on channel=1 note=56 velocity=83 time=1
note_on channel=1 note=63 velocity=0 time=53
note_on channel=1 note=60 velocity=0 time=0
note_on channel=1 note=56 velocity=0 time=1
control_change channel=1 control=10 value=50 time=4
note_on channel=1 note=50 velocity=88 time=1
note_on channel=1 note=51 velocity=82 time=32
note_on channel=1 note=50 velocity=0 time=8
note_on channel=1 note=51 velocity=0 time=19
control_change channel=1 control=10 value=44 time=0
note_on channel=1 note=44 velocity=102 time=1
note_on channel=1 note=44 velocity=0 time=54
control_change channel=1 control=10 value=57 time=5
note_on channel=1 note=53 velocity=77 time=1
note_on channel=1 note=61 velocity=77 time=0
note_on channel=1 note=61 velocity=0 time=40
note_on channel=1 note=53 velocity=0 time=0
control_change channel=1 control=10 value=48 time=19
note_on channel=1 note=42 velocity=79 time=1
note_on channel=1 note=54 velocity=79 time=0
note_on channel=1 note=54 velocity=0 time=54
note_on channel=1 note=42 velocity=0 time=0
control_change channel=1 control=10 value=61 time=5
note_on channel=1 note=66 velocity=82 time=1
note_on channel=1 note=61 velocity=82 time=0
note_on channel=1 note=58 velocity=82 time=0
note_on channel=1 note=58 velocity=0 time=22
note_on channel=1 note=61 velocity=0 time=0
note_on channel=1 note=66 velocity=0 time=0
control_change channel=1 control=10 value=57 time=37
note_on channel=1 note=51 velocity=83 time=1
note_on channel=1 note=63 velocity=83 time=0
note_on channel=1 note=63 velocity=0 time=54
note_on channel=1 note=51 velocity=0 time=0
note_on channel=1 note=52 velocity=81 time=6
note_on channel=1 note=64 velocity=81 time=0
note_on channel=1 note=64 velocity=0 time=40
note_on channel=1 note=52 velocity=0 time=0
note_on channel=1 note=53 velocity=94 time=20
note_on channel=1 note=65 velocity=94 time=0
note_on channel=1 note=65 velocity=0 time=54
note_on channel=1 note=53 velocity=0 time=0
note_on channel=1 note=56 velocity=86 time=6
note_on channel=1 note=65 velocity=86 time=0
note_on channel=1 note=61 velocity=86 time=0
note_on channel=1 note=61 velocity=0 time=22
note_on channel=1 note=65 velocity=0 time=0
note_on channel=1 note=56 velocity=0 time=0
note_on channel=1 note=61 velocity=78 time=38
note_on channel=1 note=49 velocity=78 time=0
note_on channel=1 note=49 velocity=0 time=54
note_on channel=1 note=61 velocity=0 time=0
note_on channel=1 note=65 velocity=81 time=6
note_on channel=1 note=61 velocity=81 time=0
note_on channel=1 note=56 velocity=81 time=0
note_on channel=1 note=56 velocity=0 time=22
note_on channel=1 note=61 velocity=0 time=0
note_on channel=1 note=65 velocity=0 time=0
control_change channel=1 control=10 value=50 time=37
note_on channel=1 note=44 velocity=71 time=1
note_on channel=1 note=56 velocity=71 time=0
note_on channel=1 note=56 velocity=0 time=54
note_on channel=1 note=44 velocity=0 time=0
control_change channel=1 control=10 value=60 time=5
note_on channel=1 note=56 velocity=82 time=1
note_on channel=1 note=66 velocity=82 time=0
note_on channel=1 note=60 velocity=82 time=0
note_on channel=1 note=60 velocity=0 time=22
note_on channel=1 note=66 velocity=0 time=0
note_on channel=1 note=56 velocity=0 time=0
note_on channel=1 note=51 velocity=86 time=38
note_on channel=1 note=63 velocity=86 time=0
note_on channel=1 note=63 velocity=0 time=54
note_on channel=1 note=51 velocity=0 time=0
note_on channel=1 note=64 velocity=81 time=6
note_on channel=1 note=52 velocity=81 time=0
note_on channel=1 note=52 velocity=0 time=40
note_on channel=1 note=64 velocity=0 time=0
note_on channel=1 note=65 velocity=100 time=20
note_on channel=1 note=53 velocity=100 time=0
note_on channel=1 note=53 velocity=0 time=54
note_on channel=1 note=65 velocity=0 time=0
control_change channel=1 control=10 value=55 time=5
note_on channel=1 note=61 velocity=79 time=1
note_on channel=1 note=49 velocity=79 time=0
note_on channel=1 note=49 velocity=0 time=40
note_on channel=1 note=61 velocity=0 time=0
control_change channel=1 control=10 value=50 time=19
note_on channel=1 note=44 velocity=83 time=1
note_on channel=1 note=56 velocity=83 time=0
note_on channel=1 note=56 velocity=0 time=54
note_on channel=1 note=44 velocity=0 time=0
note_on channel=1 note=53 velocity=71 time=6
note_on channel=1 note=41 velocity=71 time=0
note_on channel=1 note=41 velocity=0 time=40
note_on channel=1 note=53 velocity=0 time=0
note_on channel=1 note=42 velocity=78 time=20
note_on channel=1 note=54 velocity=78 time=0
note_on channel=1 note=54 velocity=0 time=54
note_on channel=1 note=42 velocity=0 time=0
note_on channel=1 note=58 velocity=71 time=6
note_on channel=1 note=46 velocity=71 time=0
note_on channel=1 note=46 velocity=0 time=40
note_on channel=1 note=58 velocity=0 time=0
control_change channel=1 control=10 value=57 time=19
note_on channel=1 note=63 velocity=77 time=1
note_on channel=1 note=51 velocity=77 time=0
note_on channel=1 note=51 velocity=0 time=54
note_on channel=1 note=63 velocity=0 time=0
note_on channel=1 note=54 velocity=71 time=6
note_on channel=1 note=66 velocity=71 time=0
note_on channel=1 note=66 velocity=0 time=40
note_on channel=1 note=54 velocity=0 time=0
note_on channel=1 note=65 velocity=96 time=20
note_on channel=1 note=53 velocity=96 time=0
note_on channel=1 note=53 velocity=0 time=54
note_on channel=1 note=65 velocity=0 time=0
note_on channel=1 note=61 velocity=81 time=6
note_on channel=1 note=49 velocity=81 time=0
note_on channel=1 note=49 velocity=0 time=40
note_on channel=1 note=61 velocity=0 time=0
control_change channel=1 control=10 value=50 time=19
note_on channel=1 note=56 velocity=83 time=1
note_on channel=1 note=44 velocity=83 time=0
note_on channel=1 note=44 velocity=0 time=54
note_on channel=1 note=56 velocity=0 time=0
control_change channel=1 control=10 value=55 time=5
note_on channel=1 note=61 velocity=76 time=1
note_on channel=1 note=49 velocity=76 time=0
note_on channel=1 note=49 velocity=0 time=40
note_on channel=1 note=61 velocity=0 time=0
note_on channel=1 note=46 velocity=82 time=20
note_on channel=1 note=58 velocity=82 time=0
note_on channel=1 note=58 velocity=0 time=54
note_on channel=1 note=46 velocity=0 time=0
control_change channel=1 control=10 value=45 time=5
note_on channel=1 note=39 velocity=91 time=1
note_on channel=1 note=51 velocity=91 time=0
note_on channel=1 note=51 velocity=0 time=40
note_on channel=1 note=39 velocity=0 time=0
control_change channel=1 control=10 value=38 time=19
note_on channel=1 note=32 velocity=86 time=1
note_on channel=1 note=44 velocity=86 time=0
note_on channel=1 note=44 velocity=0 time=107
note_on channel=1 note=32 velocity=0 time=0
control_change channel=1 control=10 value=43 time=12
note_on channel=1 note=49 velocity=82 time=1
note_on channel=1 note=37 velocity=82 time=0
note_on channel=1 note=37 velocity=0 time=54
note_on channel=1 note=49 velocity=0 time=0
control_change channel=1 control=10 value=55 time=5
note_on channel=1 note=49 velocity=78 time=1
note_on channel=1 note=61 velocity=78 time=0
note_on channel=1 note=61 velocity=0 time=40
note_on channel=1 note=49 velocity=0 time=0
control_change channel=1 control=10 value=50 time=19
note_on channel=1 note=56 velocity=73 time=1
note_on channel=1 note=44 velocity=73 time=0
note_on channel=1 note=44 velocity=0 time=54
note_on channel=1 note=56 velocity=0 time=0
note_on channel=1 note=41 velocity=81 time=6
note_on channel=1 note=53 velocity=81 time=0
note_on channel=1 note=53 velocity=0 time=40
note_on channel=1 note=41 velocity=0 time=0
note_on channel=1 note=54 velocity=79 time=20
note_on channel=1 note=42 velocity=79 time=0
note_on channel=1 note=42 velocity=0 time=54
note_on channel=1 note=54 velocity=0 time=0
control_change channel=1 control=10 value=61 time=5
note_on channel=1 note=61 velocity=81 time=1
note_on channel=1 note=58 velocity=81 time=0
note_on channel=1 note=66 velocity=81 time=0
note_on channel=1 note=66 velocity=0 time=22
note_on channel=1 note=58 velocity=0 time=0
note_on channel=1 note=61 velocity=0 time=0
control_change channel=1 control=10 value=57 time=37
note_on channel=1 note=63 velocity=79 time=1
note_on channel=1 note=51 velocity=79 time=0
note_on channel=1 note=51 velocity=0 time=54
note_on channel=1 note=63 velocity=0 time=0
note_on channel=1 note=52 velocity=73 time=6
note_on channel=1 note=64 velocity=73 time=0
note_on channel=1 note=64 velocity=0 time=40
note_on channel=1 note=52 velocity=0 time=0
note_on channel=1 note=65 velocity=71 time=20
note_on channel=1 note=53 velocity=71 time=0
note_on channel=1 note=53 velocity=0 time=54
note_on channel=1 note=65 velocity=0 time=0
note_on channel=1 note=56 velocity=81 time=6
note_on channel=1 note=61 velocity=81 time=0
note_on channel=1 note=65 velocity=81 time=0
note_on channel=1 note=65 velocity=0 time=22
note_on channel=1 note=61 velocity=0 time=0
note_on channel=1 note=56 velocity=0 time=0
note_on channel=1 note=49 velocity=71 time=38
note_on channel=1 note=61 velocity=71 time=0
note_on channel=1 note=61 velocity=0 time=54
note_on channel=1 note=49 velocity=0 time=0
note_on channel=1 note=56 velocity=81 time=6
note_on channel=1 note=61 velocity=81 time=0
note_on channel=1 note=65 velocity=81 time=0
note_on channel=1 note=65 velocity=0 time=22
note_on channel=1 note=61 velocity=0 time=0
note_on channel=1 note=56 velocity=0 time=0
control_change channel=1 control=10 value=50 time=37
note_on channel=1 note=44 velocity=71 time=1
note_on channel=1 note=56 velocity=71 time=0
note_on channel=1 note=56 velocity=0 time=54
note_on channel=1 note=44 velocity=0 time=0
control_change channel=1 control=10 value=60 time=5
note_on channel=1 note=66 velocity=81 time=1
note_on channel=1 note=60 velocity=81 time=0
note_on channel=1 note=56 velocity=81 time=0
note_on channel=1 note=56 velocity=0 time=22
note_on channel=1 note=60 velocity=0 time=0
note_on channel=1 note=66 velocity=0 time=0
note_on channel=1 note=63 velocity=77 time=38
note_on channel=1 note=51 velocity=77 time=0
note_on channel=1 note=51 velocity=0 time=54
note_on channel=1 note=63 velocity=0 time=0
note_on channel=1 note=64 velocity=71 time=6
note_on channel=1 note=52 velocity=71 time=0
note_on channel=1 note=52 velocity=0 time=40
note_on channel=1 note=64 velocity=0 time=0
note_on channel=1 note=53 velocity=78 time=20
note_on channel=1 note=65 velocity=78 time=0
note_on channel=1 note=65 velocity=0 time=54
note_on channel=1 note=53 velocity=0 time=0
control_change channel=1 control=10 value=55 time=5
note_on channel=1 note=61 velocity=71 time=1
note_on channel=1 note=49 velocity=71 time=0
note_on channel=1 note=49 velocity=0 time=40
note_on channel=1 note=61 velocity=0 time=0
control_change channel=1 control=10 value=50 time=19
note_on channel=1 note=44 velocity=88 time=1
note_on channel=1 note=56 velocity=88 time=0
note_on channel=1 note=56 velocity=0 time=54
note_on channel=1 note=44 velocity=0 time=0
note_on channel=1 note=53 velocity=78 time=6
note_on channel=1 note=41 velocity=78 time=0
note_on channel=1 note=41 velocity=0 time=40
note_on channel=1 note=53 velocity=0 time=0
note_on channel=1 note=42 velocity=79 time=20
note_on channel=1 note=54 velocity=79 time=0
note_on channel=1 note=54 velocity=0 time=54
note_on channel=1 note=42 velocity=0 time=0
control_change channel=1 control=10 value=61 time=5
note_on channel=1 note=66 velocity=81 time=1
note_on channel=1 note=58 velocity=81 time=0
note_on channel=1 note=61 velocity=81 time=0
note_on channel=1 note=61 velocity=0 time=22
note_on channel=1 note=58 velocity=0 time=0
note_on channel=1 note=66 velocity=0 time=0
control_change channel=1 control=10 value=57 time=37
note_on channel=1 note=51 velocity=77 time=1
note_on channel=1 note=63 velocity=77 time=0
note_on channel=1 note=63 velocity=0 time=54
note_on channel=1 note=51 velocity=0 time=0
note_on channel=1 note=64 velocity=71 time=6
note_on channel=1 note=52 velocity=71 time=0
note_on channel=1 note=52 velocity=0 time=40
note_on channel=1 note=64 velocity=0 time=0
note_on channel=1 note=65 velocity=80 time=20
note_on channel=1 note=53 velocity=80 time=0
note_on channel=1 note=53 velocity=0 time=54
note_on channel=1 note=65 velocity=0 time=0
note_on channel=1 note=56 velocity=81 time=6
note_on channel=1 note=61 velocity=81 time=0
note_on channel=1 note=65 velocity=81 time=0
note_on channel=1 note=65 velocity=0 time=22
note_on channel=1 note=61 velocity=0 time=0
note_on channel=1 note=56 velocity=0 time=0
note_on channel=1 note=61 velocity=71 time=38
note_on channel=1 note=49 velocity=71 time=0
note_on channel=1 note=49 velocity=0 time=54
note_on channel=1 note=61 velocity=0 time=0
note_on channel=1 note=56 velocity=81 time=6
note_on channel=1 note=61 velocity=81 time=0
note_on channel=1 note=65 velocity=81 time=0
note_on channel=1 note=65 velocity=0 time=22
note_on channel=1 note=61 velocity=0 time=0
note_on channel=1 note=56 velocity=0 time=0
control_change channel=1 control=10 value=52 time=37
note_on channel=1 note=46 velocity=71 time=1
note_on channel=1 note=58 velocity=71 time=0
note_on channel=1 note=58 velocity=0 time=54
note_on channel=1 note=46 velocity=0 time=0
control_change channel=1 control=10 value=63 time=5
note_on channel=1 note=61 velocity=81 time=1
note_on channel=1 note=67 velocity=81 time=0
note_on channel=1 note=63 velocity=81 time=0
note_on channel=1 note=63 velocity=0 time=22
note_on channel=1 note=67 velocity=0 time=0
note_on channel=1 note=61 velocity=0 time=0
control_change channel=1 control=10 value=45 time=37
note_on channel=1 note=39 velocity=71 time=1
note_on channel=1 note=51 velocity=71 time=0
note_on channel=1 note=51 velocity=0 time=54
note_on channel=1 note=39 velocity=0 time=0
control_change channel=1 control=10 value=63 time=5
note_on channel=1 note=67 velocity=81 time=1
note_on channel=1 note=61 velocity=81 time=0
note_on channel=1 note=63 velocity=81 time=0
note_on channel=1 note=63 velocity=0 time=22
note_on channel=1 note=61 velocity=0 time=0
note_on channel=1 note=67 velocity=0 time=0
control_change channel=1 control=10 value=59 time=37
note_on channel=1 note=63 velocity=89 time=1
note_on channel=1 note=60 velocity=89 time=0
note_on channel=1 note=56 velocity=89 time=1
note_on channel=1 note=60 velocity=0 time=53
note_on channel=1 note=63 velocity=0 time=0
note_on channel=1 note=56 velocity=0 time=1
control_change channel=1 control=10 value=50 time=4
note_on channel=1 note=50 velocity=99 time=1
note_on channel=1 note=51 velocity=94 time=32
note_on channel=1 note=50 velocity=0 time=8
note_on channel=1 note=51 velocity=0 time=19
control_change channel=1 control=10 value=44 time=0
note_on channel=1 note=44 velocity=109 time=1
note_on channel=1 note=44 velocity=0 time=54
control_change channel=1 control=10 value=57 time=5
note_on channel=1 note=53 velocity=77 time=1
note_on channel=1 note=61 velocity=77 time=0
note_on channel=1 note=61 velocity=0 time=40
note_on channel=1 note=53 velocity=0 time=0
control_change channel=1 control=10 value=48 time=19
note_on channel=1 note=54 velocity=78 time=1
note_on channel=1 note=42 velocity=78 time=0
note_on channel=1 note=42 velocity=0 time=54
note_on channel=1 note=54 velocity=0 time=0
control_change channel=1 control=10 value=61 time=5
note_on channel=1 note=66 velocity=81 time=1
note_on channel=1 note=61 velocity=81 time=0
note_on channel=1 note=58 velocity=81 time=0
note_on channel=1 note=58 velocity=0 time=22
note_on channel=1 note=61 velocity=0 time=0
note_on channel=1 note=66 velocity=0 time=0
control_change channel=1 control=10 value=57 time=37
note_on channel=1 note=63 velocity=83 time=1
note_on channel=1 note=51 velocity=83 time=0
note_on channel=1 note=51 velocity=0 time=54
note_on channel=1 note=63 velocity=0 time=0
note_on channel=1 note=52 velocity=81 time=6
note_on channel=1 note=64 velocity=81 time=0
note_on channel=1 note=64 velocity=0 time=40
note_on channel=1 note=52 velocity=0 time=0
note_on channel=1 note=65 velocity=94 time=20
note_on channel=1 note=53 velocity=94 time=0
note_on channel=1 note=53 velocity=0 time=54
note_on channel=1 note=65 velocity=0 time=0
note_on channel=1 note=56 velocity=86 time=6
note_on channel=1 note=61 velocity=86 time=0
note_on channel=1 note=65 velocity=86 time=0
note_on channel=1 note=65 velocity=0 time=22
note_on channel=1 note=61 velocity=0 time=0
note_on channel=1 note=56 velocity=0 time=0
note_on channel=1 note=61 velocity=78 time=38
note_on channel=1 note=49 velocity=78 time=0
note_on channel=1 note=49 velocity=0 time=54
note_on channel=1 note=61 velocity=0 time=0
note_on channel=1 note=61 velocity=81 time=6
note_on channel=1 note=56 velocity=81 time=0
note_on channel=1 note=65 velocity=81 time=0
note_on channel=1 note=65 velocity=0 time=22
note_on channel=1 note=56 velocity=0 time=0
note_on channel=1 note=61 velocity=0 time=0
control_change channel=1 control=10 value=50 time=37
note_on channel=1 note=44 velocity=71 time=1
note_on channel=1 note=56 velocity=71 time=0
note_on channel=1 note=56 velocity=0 time=54
note_on channel=1 note=44 velocity=0 time=0
control_change channel=1 control=10 value=60 time=5
note_on channel=1 note=66 velocity=82 time=1
note_on channel=1 note=60 velocity=82 time=0
note_on channel=1 note=56 velocity=82 time=0
note_on channel=1 note=56 velocity=0 time=22
note_on channel=1 note=60 velocity=0 time=0
note_on channel=1 note=66 velocity=0 time=0
note_on channel=1 note=63 velocity=90 time=38
note_on channel=1 note=51 velocity=90 time=0
note_on channel=1 note=51 velocity=0 time=54
note_on channel=1 note=63 velocity=0 time=0
note_on channel=1 note=64 velocity=85 time=6
note_on channel=1 note=52 velocity=85 time=0
note_on channel=1 note=52 velocity=0 time=40
note_on channel=1 note=64 velocity=0 time=0
note_on channel=1 note=65 velocity=106 time=20
note_on channel=1 note=53 velocity=106 time=0
note_on channel=1 note=53 velocity=0 time=54
note_on channel=1 note=65 velocity=0 time=0
control_change channel=1 control=10 value=55 time=5
note_on channel=1 note=49 velocity=86 time=1
note_on channel=1 note=61 velocity=86 time=0
note_on channel=1 note=61 velocity=0 time=40
note_on channel=1 note=49 velocity=0 time=0
control_change channel=1 control=10 value=50 time=19
note_on channel=1 note=56 velocity=91 time=1
note_on channel=1 note=44 velocity=91 time=0
note_on channel=1 note=44 velocity=0 time=54
note_on channel=1 note=56 velocity=0 time=0
note_on channel=1 note=41 velocity=75 time=6
note_on channel=1 note=53 velocity=75 time=0
note_on channel=1 note=53 velocity=0 time=40
note_on channel=1 note=41 velocity=0 time=0
note_on channel=1 note=42 velocity=78 time=20
note_on channel=1 note=54 velocity=78 time=0
note_on channel=1 note=54 velocity=0 time=54
note_on channel=1 note=42 velocity=0 time=0
note_on channel=1 note=46 velocity=70 time=6
note_on channel=1 note=58 velocity=70 time=0
note_on channel=1 note=58 velocity=0 time=40
note_on channel=1 note=46 velocity=0 time=0
control_change channel=1 control=10 value=57 time=19
note_on channel=1 note=63 velocity=76 time=1
note_on channel=1 note=51 velocity=76 time=0
note_on channel=1 note=51 velocity=0 time=54
note_on channel=1 note=63 velocity=0 time=0
note_on channel=1 note=66 velocity=70 time=6
note_on channel=1 note=54 velocity=70 time=0
note_on channel=1 note=54 velocity=0 time=40
note_on channel=1 note=66 velocity=0 time=0
note_on channel=1 note=65 velocity=95 time=20
note_on channel=1 note=53 velocity=95 time=0
note_on channel=1 note=53 velocity=0 time=54
note_on channel=1 note=65 velocity=0 time=0
note_on channel=1 note=49 velocity=80 time=6
note_on channel=1 note=61 velocity=80 time=0
note_on channel=1 note=61 velocity=0 time=40
note_on channel=1 note=49 velocity=0 time=0
control_change channel=1 control=10 value=50 time=19
note_on channel=1 note=56 velocity=82 time=1
note_on channel=1 note=44 velocity=82 time=0
note_on channel=1 note=44 velocity=0 time=54
note_on channel=1 note=56 velocity=0 time=0
control_change channel=1 control=10 value=55 time=5
note_on channel=1 note=49 velocity=75 time=1
note_on channel=1 note=61 velocity=75 time=0
note_on channel=1 note=61 velocity=0 time=40
note_on channel=1 note=49 velocity=0 time=0
note_on channel=1 note=46 velocity=81 time=20
note_on channel=1 note=58 velocity=81 time=0
note_on channel=1 note=58 velocity=0 time=54
note_on channel=1 note=46 velocity=0 time=0
control_change channel=1 control=10 value=45 time=5
note_on channel=1 note=39 velocity=90 time=1
note_on channel=1 note=51 velocity=90 time=0
note_on channel=1 note=51 velocity=0 time=40
note_on channel=1 note=39 velocity=0 time=0
control_change channel=1 control=10 value=38 time=19
note_on channel=1 note=32 velocity=85 time=1
note_on channel=1 note=44 velocity=85 time=0
note_on channel=1 note=44 velocity=0 time=107
note_on channel=1 note=32 velocity=0 time=0
control_change channel=1 control=10 value=43 time=12
note_on channel=1 note=49 velocity=91 time=1
note_on channel=1 note=37 velocity=91 time=0
note_on channel=1 note=37 velocity=0 time=54
note_on channel=1 note=49 velocity=0 time=0
note_on channel=1 note=44 velocity=78 time=6
note_on channel=1 note=44 velocity=0 time=37
control_change channel=1 control=10 value=37 time=22
note_on channel=1 note=37 velocity=92 time=1
note_on channel=1 note=37 velocity=0 time=84
control_change channel=1 control=10 value=57 time=35
note_on channel=1 note=51 velocity=70 time=1
note_on channel=1 note=63 velocity=70 time=0
note_on channel=1 note=63 velocity=0 time=54
note_on channel=1 note=51 velocity=0 time=0
note_on channel=1 note=56 velocity=64 time=6
note_on channel=1 note=60 velocity=64 time=0
note_on channel=1 note=66 velocity=64 time=0
note_on channel=1 note=66 velocity=0 time=22
note_on channel=1 note=60 velocity=0 time=0
note_on channel=1 note=56 velocity=0 time=0
control_change channel=1 control=10 value=50 time=37
note_on channel=1 note=56 velocity=70 time=1
note_on channel=1 note=44 velocity=70 time=0
note_on channel=1 note=44 velocity=0 time=54
note_on channel=1 note=56 velocity=0 time=0
control_change channel=1 control=10 value=60 time=5
note_on channel=1 note=66 velocity=64 time=1
note_on channel=1 note=56 velocity=64 time=0
note_on channel=1 note=60 velocity=64 time=0
note_on channel=1 note=60 velocity=0 time=22
note_on channel=1 note=56 velocity=0 time=0
note_on channel=1 note=66 velocity=0 time=0
control_change channel=1 control=10 value=45 time=37
note_on channel=1 note=39 velocity=70 time=1
note_on channel=1 note=51 velocity=70 time=0
note_on channel=1 note=51 velocity=0 time=54
note_on channel=1 note=39 velocity=0 time=0
control_change channel=1 control=10 value=60 time=5
note_on channel=1 note=66 velocity=64 time=1
note_on channel=1 note=60 velocity=64 time=0
note_on channel=1 note=56 velocity=64 time=0
note_on channel=1 note=56 velocity=0 time=22
note_on channel=1 note=60 velocity=0 time=0
note_on channel=1 note=66 velocity=0 time=0
control_change channel=1 control=10 value=45 time=37
note_on channel=1 note=39 velocity=73 time=1
note_on channel=1 note=51 velocity=73 time=0
control_change channel=1 control=10 value=50 time=31
note_on channel=1 note=44 velocity=85 time=1
note_on channel=1 note=56 velocity=85 time=0
note_on channel=1 note=51 velocity=0 time=23
note_on channel=1 note=39 velocity=0 time=0
note_on channel=1 note=55 velocity=88 time=5
note_on channel=1 note=43 velocity=88 time=0
note_on channel=1 note=44 velocity=0 time=4
note_on channel=1 note=56 velocity=0 time=0
note_on channel=1 note=42 velocity=81 time=28
note_on channel=1 note=54 velocity=81 time=0
note_on channel=1 note=55 velocity=0 time=9
note_on channel=1 note=43 velocity=0 time=0
note_on channel=1 note=53 velocity=79 time=19
note_on channel=1 note=41 velocity=79 time=0
note_on channel=1 note=42 velocity=0 time=4
note_on channel=1 note=54 velocity=0 time=0
note_on channel=1 note=53 velocity=0 time=50
note_on channel=1 note=41 velocity=0 time=0
control_change channel=1 control=10 value=60 time=5
note_on channel=1 note=56 velocity=70 time=1
note_on channel=1 note=61 velocity=70 time=0
note_on channel=1 note=65 velocity=70 time=0
note_on channel=1 note=65 velocity=0 time=22
note_on channel=1 note=61 velocity=0 time=0
note_on channel=1 note=56 velocity=0 time=0
control_change channel=1 control=10 value=55 time=37
note_on channel=1 note=49 velocity=70 time=1
note_on channel=1 note=61 velocity=70 time=0
note_on channel=1 note=61 velocity=0 time=54
note_on channel=1 note=49 velocity=0 time=0
control_change channel=1 control=10 value=60 time=5
note_on channel=1 note=61 velocity=64 time=1
note_on channel=1 note=65 velocity=64 time=0
note_on channel=1 note=56 velocity=64 time=0
note_on channel=1 note=56 velocity=0 time=22
note_on channel=1 note=65 velocity=0 time=0
note_on channel=1 note=61 velocity=0 time=0
control_change channel=1 control=10 value=50 time=37
note_on channel=1 note=44 velocity=70 time=1
note_on channel=1 note=56 velocity=70 time=0
note_on channel=1 note=56 velocity=0 time=54
note_on channel=1 note=44 velocity=0 time=0
control_change channel=1 control=10 value=60 time=5
note_on channel=1 note=61 velocity=64 time=1
note_on channel=1 note=65 velocity=64 time=0
note_on channel=1 note=56 velocity=64 time=0
note_on channel=1 note=56 velocity=0 time=22
note_on channel=1 note=65 velocity=0 time=0
note_on channel=1 note=61 velocity=0 time=0
control_change channel=1 control=10 value=55 time=37
note_on channel=1 note=61 velocity=70 time=1
note_on channel=1 note=49 velocity=70 time=0
note_on channel=1 note=49 velocity=0 time=54
note_on channel=1 note=61 velocity=0 time=0
note_on channel=1 note=62 velocity=70 time=6
note_on channel=1 note=50 velocity=70 time=0
note_on channel=1 note=50 velocity=0 time=40
note_on channel=1 note=62 velocity=0 time=0
note_on channel=1 note=51 velocity=76 time=20
note_on channel=1 note=63 velocity=76 time=0
note_on channel=1 note=63 velocity=0 time=54
note_on channel=1 note=51 velocity=0 time=0
control_change channel=1 control=10 value=60 time=5
note_on channel=1 note=60 velocity=66 time=1
note_on channel=1 note=56 velocity=66 time=0
note_on channel=1 note=66 velocity=66 time=0
note_on channel=1 note=66 velocity=0 time=22
note_on channel=1 note=56 velocity=0 time=0
note_on channel=1 note=60 velocity=0 time=0
control_change channel=1 control=10 value=50 time=37
note_on channel=1 note=56 velocity=70 time=1
note_on channel=1 note=44 velocity=70 time=0
note_on channel=1 note=44 velocity=0 time=54
note_on channel=1 note=56 velocity=0 time=0
control_change channel=1 control=10 value=60 time=5
note_on channel=1 note=66 velocity=64 time=1
note_on channel=1 note=60 velocity=64 time=0
note_on channel=1 note=56 velocity=64 time=0
note_on channel=1 note=56 velocity=0 time=22
note_on channel=1 note=60 velocity=0 time=0
note_on channel=1 note=66 velocity=0 time=0
note_on channel=1 note=63 velocity=70 time=38
note_on channel=1 note=51 velocity=70 time=0
note_on channel=1 note=51 velocity=0 time=54
note_on channel=1 note=63 velocity=0 time=0
note_on channel=1 note=56 velocity=64 time=6
note_on channel=1 note=60 velocity=64 time=0
note_on channel=1 note=66 velocity=64 time=0
note_on channel=1 note=66 velocity=0 time=22
note_on channel=1 note=60 velocity=0 time=0
note_on channel=1 note=56 velocity=0 time=0
control_change channel=1 control=10 value=50 time=37
note_on channel=1 note=56 velocity=70 time=1
note_on channel=1 note=44 velocity=70 time=0
note_on channel=1 note=44 velocity=0 time=54
note_on channel=1 note=56 velocity=0 time=0
control_change channel=1 control=10 value=60 time=5
note_on channel=1 note=60 velocity=64 time=1
note_on channel=1 note=56 velocity=64 time=0
note_on channel=1 note=66 velocity=64 time=0
note_on channel=1 note=66 velocity=0 time=22
note_on channel=1 note=56 velocity=0 time=0
note_on channel=1 note=60 velocity=0 time=0
control_change channel=1 control=10 value=55 time=37
note_on channel=1 note=49 velocity=70 time=1
note_on channel=1 note=61 velocity=70 time=0
note_on channel=1 note=61 velocity=0 time=54
note_on channel=1 note=49 velocity=0 time=0
control_change channel=1 control=10 value=60 time=5
note_on channel=1 note=61 velocity=64 time=1
note_on channel=1 note=65 velocity=64 time=0
note_on channel=1 note=56 velocity=64 time=0
note_on channel=1 note=56 velocity=0 time=22
note_on channel=1 note=65 velocity=0 time=0
note_on channel=1 note=61 velocity=0 time=0
control_change channel=1 control=10 value=50 time=37
note_on channel=1 note=56 velocity=70 time=1
note_on channel=1 note=44 velocity=70 time=0
note_on channel=1 note=44 velocity=0 time=54
note_on channel=1 note=56 velocity=0 time=0
control_change channel=1 control=10 value=60 time=5
note_on channel=1 note=61 velocity=64 time=1
note_on channel=1 note=56 velocity=64 time=0
note_on channel=1 note=65 velocity=64 time=0
note_on channel=1 note=65 velocity=0 time=22
note_on channel=1 note=56 velocity=0 time=0
note_on channel=1 note=61 velocity=0 time=0
control_change channel=1 control=10 value=55 time=37
note_on channel=1 note=49 velocity=70 time=1
note_on channel=1 note=61 velocity=70 time=0
note_on channel=1 note=61 velocity=0 time=54
note_on channel=1 note=49 velocity=0 time=0
control_change channel=1 control=10 value=60 time=5
note_on channel=1 note=61 velocity=64 time=1
note_on channel=1 note=56 velocity=64 time=0
note_on channel=1 note=65 velocity=64 time=0
note_on channel=1 note=65 velocity=0 time=22
note_on channel=1 note=56 velocity=0 time=0
note_on channel=1 note=61 velocity=0 time=0
note_on channel=1 note=53 velocity=85 time=38
note_on channel=1 note=65 velocity=85 time=0
note_on channel=1 note=65 velocity=0 time=54
note_on channel=1 note=53 velocity=0 time=0
note_on channel=1 note=52 velocity=74 time=6
note_on channel=1 note=64 velocity=74 time=0
note_on channel=1 note=64 velocity=0 time=40
note_on channel=1 note=52 velocity=0 time=0
note_on channel=1 note=63 velocity=76 time=20
note_on channel=1 note=51 velocity=76 time=0
note_on channel=1 note=51 velocity=0 time=54
note_on channel=1 note=63 velocity=0 time=0
note_on channel=1 note=60 velocity=66 time=6
note_on channel=1 note=66 velocity=66 time=0
note_on channel=1 note=56 velocity=66 time=0
note_on channel=1 note=56 velocity=0 time=22
note_on channel=1 note=66 velocity=0 time=0
note_on channel=1 note=60 velocity=0 time=0
control_change channel=1 control=10 value=50 time=37
note_on channel=1 note=56 velocity=70 time=1
note_on channel=1 note=44 velocity=70 time=0
note_on channel=1 note=44 velocity=0 time=54
note_on channel=1 note=56 velocity=0 time=0
control_change channel=1 control=10 value=60 time=5
note_on channel=1 note=60 velocity=64 time=1
note_on channel=1 note=66 velocity=64 time=0
note_on channel=1 note=56 velocity=64 time=0
note_on channel=1 note=56 velocity=0 time=22
note_on channel=1 note=66 velocity=0 time=0
note_on channel=1 note=60 velocity=0 time=0
control_change channel=1 control=10 value=45 time=37
note_on channel=1 note=51 velocity=70 time=1
note_on channel=1 note=39 velocity=70 time=0
note_on channel=1 note=39 velocity=0 time=54
note_on channel=1 note=51 velocity=0 time=0
control_change channel=1 control=10 value=60 time=5
note_on channel=1 note=60 velocity=64 time=1
note_on channel=1 note=56 velocity=64 time=0
note_on channel=1 note=66 velocity=64 time=0
note_on channel=1 note=66 velocity=0 time=22
note_on channel=1 note=56 velocity=0 time=0
note_on channel=1 note=60 velocity=0 time=0
control_change channel=1 control=10 value=45 time=37
note_on channel=1 note=39 velocity=73 time=1
note_on channel=1 note=51 velocity=73 time=0
control_change channel=1 control=10 value=50 time=31
note_on channel=1 note=56 velocity=82 time=1
note_on channel=1 note=44 velocity=82 time=0
note_on channel=1 note=51 velocity=0 time=2
note_on channel=1 note=39 velocity=0 time=0
note_on channel=1 note=55 velocity=85 time=26
note_on channel=1 note=43 velocity=85 time=0
note_on channel=1 note=56 velocity=0 time=4
note_on channel=1 note=44 velocity=0 time=0
note_on channel=1 note=42 velocity=78 time=28
note_on channel=1 note=54 velocity=78 time=0
note_on channel=1 note=55 velocity=0 time=9
note_on channel=1 note=43 velocity=0 time=0
note_on channel=1 note=53 velocity=79 time=19
note_on channel=1 note=41 velocity=79 time=0
note_on channel=1 note=42 velocity=0 time=4
note_on channel=1 note=54 velocity=0 time=0
note_on channel=1 note=53 velocity=0 time=50
note_on channel=1 note=41 velocity=0 time=0
control_change channel=1 control=10 value=60 time=5
note_on channel=1 note=65 velocity=67 time=1
note_on channel=1 note=61 velocity=67 time=0
note_on channel=1 note=56 velocity=67 time=0
note_on channel=1 note=56 velocity=0 time=22
note_on channel=1 note=61 velocity=0 time=0
note_on channel=1 note=65 velocity=0 time=0
control_change channel=1 control=10 value=55 time=37
note_on channel=1 note=49 velocity=70 time=1
note_on channel=1 note=61 velocity=70 time=0
note_on channel=1 note=61 velocity=0 time=54
note_on channel=1 note=49 velocity=0 time=0
control_change channel=1 control=10 value=60 time=5
note_on channel=1 note=61 velocity=64 time=1
note_on channel=1 note=56 velocity=64 time=0
note_on channel=1 note=65 velocity=64 time=0
note_on channel=1 note=65 velocity=0 time=22
note_on channel=1 note=56 velocity=0 time=0
note_on channel=1 note=61 velocity=0 time=0
note_on channel=1 note=53 velocity=77 time=38
note_on channel=1 note=65 velocity=77 time=0
note_on channel=1 note=65 velocity=0 time=54
note_on channel=1 note=53 velocity=0 time=0
control_change channel=1 control=10 value=55 time=5
note_on channel=1 note=61 velocity=70 time=1
note_on channel=1 note=49 velocity=70 time=0
note_on channel=1 note=49 velocity=0 time=40
note_on channel=1 note=61 velocity=0 time=0
control_change channel=1 control=10 value=50 time=19
note_on channel=1 note=56 velocity=72 time=1
note_on channel=1 note=44 velocity=72 time=0
note_on channel=1 note=44 velocity=0 time=54
note_on channel=1 note=56 velocity=0 time=0
note_on channel=1 note=53 velocity=66 time=6
note_on channel=1 note=41 velocity=66 time=0
note_on channel=1 note=41 velocity=0 time=40
note_on channel=1 note=53 velocity=0 time=0
note_on channel=1 note=42 velocity=77 time=20
note_on channel=1 note=54 velocity=77 time=0
note_on channel=1 note=54 velocity=0 time=54
note_on channel=1 note=42 velocity=0 time=0
note_on channel=1 note=46 velocity=70 time=6
note_on channel=1 note=58 velocity=70 time=0
note_on channel=1 note=58 velocity=0 time=40
note_on channel=1 note=46 velocity=0 time=0
control_change channel=1 control=10 value=57 time=19
note_on channel=1 note=51 velocity=74 time=1
note_on channel=1 note=63 velocity=74 time=0
note_on channel=1 note=63 velocity=0 time=54
note_on channel=1 note=51 velocity=0 time=0
note_on channel=1 note=66 velocity=70 time=6
note_on channel=1 note=54 velocity=70 time=0
note_on channel=1 note=54 velocity=0 time=40
note_on channel=1 note=66 velocity=0 time=0
note_on channel=1 note=65 velocity=81 time=20
note_on channel=1 note=53 velocity=81 time=0
note_on channel=1 note=53 velocity=0 time=54
note_on channel=1 note=65 velocity=0 time=0
note_on channel=1 note=61 velocity=77 time=6
note_on channel=1 note=49 velocity=77 time=0
note_on channel=1 note=49 velocity=0 time=40
note_on channel=1 note=61 velocity=0 time=0
control_change channel=1 control=10 value=50 time=19
note_on channel=1 note=44 velocity=77 time=1
note_on channel=1 note=56 velocity=77 time=0
note_on channel=1 note=56 velocity=0 time=54
note_on channel=1 note=44 velocity=0 time=0
control_change channel=1 control=10 value=55 time=5
note_on channel=1 note=49 velocity=70 time=1
note_on channel=1 note=61 velocity=70 time=0
note_on channel=1 note=61 velocity=0 time=40
note_on channel=1 note=49 velocity=0 time=0
note_on channel=1 note=46 velocity=76 time=20
note_on channel=1 note=58 velocity=76 time=0
note_on channel=1 note=58 velocity=0 time=54
note_on channel=1 note=46 velocity=0 time=0
control_change channel=1 control=10 value=45 time=5
note_on channel=1 note=51 velocity=70 time=1
note_on channel=1 note=39 velocity=70 time=0
note_on channel=1 note=39 velocity=0 time=40
note_on channel=1 note=51 velocity=0 time=0
control_change channel=1 control=10 value=38 time=19
note_on channel=1 note=44 velocity=74 time=1
note_on channel=1 note=32 velocity=74 time=0
note_on channel=1 note=32 velocity=0 time=107
note_on channel=1 note=44 velocity=0 time=0
control_change channel=1 control=10 value=43 time=12
note_on channel=1 note=37 velocity=85 time=1
note_on channel=1 note=49 velocity=85 time=0
note_on channel=1 note=49 velocity=0 time=54
note_on channel=1 note=37 velocity=0 time=0
control_change channel=1 control=10 value=50 time=5
note_on channel=1 note=44 velocity=79 time=1
note_on channel=1 note=56 velocity=79 time=0
note_on channel=1 note=56 velocity=0 time=40
note_on channel=1 note=44 velocity=0 time=0
control_change channel=1 control=10 value=59 time=19
note_on channel=1 note=53 velocity=90 time=1
note_on channel=1 note=65 velocity=90 time=0
note_on channel=1 note=65 velocity=0 time=54
note_on channel=1 note=53 velocity=0 time=0
note_on channel=1 note=64 velocity=95 time=6
note_on channel=1 note=52 velocity=95 time=0
note_on channel=1 note=52 velocity=0 time=40
note_on channel=1 note=64 velocity=0 time=0
note_on channel=1 note=63 velocity=82 time=20
note_on channel=1 note=51 velocity=82 time=0
note_on channel=1 note=51 velocity=0 time=54
note_on channel=1 note=63 velocity=0 time=0
note_on channel=1 note=56 velocity=73 time=6
note_on channel=1 note=66 velocity=73 time=0
note_on channel=1 note=60 velocity=73 time=0
note_on channel=1 note=60 velocity=0 time=22
note_on channel=1 note=66 velocity=0 time=0
note_on channel=1 note=56 velocity=0 time=0
control_change channel=1 control=10 value=50 time=37
note_on channel=1 note=56 velocity=82 time=1
note_on channel=1 note=44 velocity=82 time=0
note_on channel=1 note=44 velocity=0 time=54
note_on channel=1 note=56 velocity=0 time=0
control_change channel=1 control=10 value=60 time=5
note_on channel=1 note=66 velocity=73 time=1
note_on channel=1 note=56 velocity=73 time=0
note_on channel=1 note=60 velocity=73 time=0
note_on channel=1 note=60 velocity=0 time=22
note_on channel=1 note=56 velocity=0 time=0
note_on channel=1 note=66 velocity=0 time=0
control_change channel=1 control=10 value=45 time=37
note_on channel=1 note=51 velocity=82 time=1
note_on channel=1 note=39 velocity=82 time=0
note_on channel=1 note=39 velocity=0 time=54
note_on channel=1 note=51 velocity=0 time=0
control_change channel=1 control=10 value=60 time=5
note_on channel=1 note=56 velocity=73 time=1
note_on channel=1 note=66 velocity=73 time=0
note_on channel=1 note=60 velocity=73 time=0
note_on channel=1 note=60 velocity=0 time=22
note_on channel=1 note=66 velocity=0 time=0
note_on channel=1 note=56 velocity=0 time=0
control_change channel=1 control=10 value=45 time=37
note_on channel=1 note=51 velocity=85 time=1
note_on channel=1 note=39 velocity=85 time=0
control_change channel=1 control=10 value=50 time=31
note_on channel=1 note=56 velocity=98 time=1
note_on channel=1 note=44 velocity=98 time=0
note_on channel=1 note=39 velocity=0 time=23
note_on channel=1 note=51 velocity=0 time=0
note_on channel=1 note=55 velocity=101 time=5
note_on channel=1 note=43 velocity=101 time=0
note_on channel=1 note=56 velocity=0 time=4
note_on channel=1 note=44 velocity=0 time=0
note_on channel=1 note=42 velocity=94 time=28
note_on channel=1 note=54 velocity=94 time=0
note_on channel=1 note=55 velocity=0 time=9
note_on channel=1 note=43 velocity=0 time=0
note_on channel=1 note=53 velocity=91 time=19
note_on channel=1 note=41 velocity=91 time=0
note_on channel=1 note=42 velocity=0 time=4
note_on channel=1 note=54 velocity=0 time=0
note_on channel=1 note=53 velocity=0 time=50
note_on channel=1 note=41 velocity=0 time=0
control_change channel=1 control=10 value=60 time=5
note_on channel=1 note=56 velocity=82 time=1
note_on channel=1 note=61 velocity=82 time=0
note_on channel=1 note=65 velocity=82 time=0
note_on channel=1 note=65 velocity=0 time=22
note_on channel=1 note=61 velocity=0 time=0
note_on channel=1 note=56 velocity=0 time=0
control_change channel=1 control=10 value=55 time=37
note_on channel=1 note=49 velocity=82 time=1
note_on channel=1 note=61 velocity=82 time=0
note_on channel=1 note=61 velocity=0 time=54
note_on channel=1 note=49 velocity=0 time=0
control_change channel=1 control=10 value=60 time=5
note_on channel=1 note=56 velocity=73 time=1
note_on channel=1 note=61 velocity=73 time=0
note_on channel=1 note=65 velocity=73 time=0
note_on channel=1 note=65 velocity=0 time=22
note_on channel=1 note=61 velocity=0 time=0
note_on channel=1 note=56 velocity=0 time=0
control_change channel=1 control=10 value=50 time=37
note_on channel=1 note=44 velocity=82 time=1
note_on channel=1 note=56 velocity=82 time=0
note_on channel=1 note=56 velocity=0 time=54
note_on channel=1 note=44 velocity=0 time=0
control_change channel=1 control=10 value=60 time=5
note_on channel=1 note=61 velocity=73 time=1
note_on channel=1 note=65 velocity=73 time=0
note_on channel=1 note=56 velocity=73 time=0
note_on channel=1 note=56 velocity=0 time=22
note_on channel=1 note=65 velocity=0 time=0
note_on channel=1 note=61 velocity=0 time=0
control_change channel=1 control=10 value=55 time=37
note_on channel=1 note=49 velocity=93 time=1
note_on channel=1 note=61 velocity=93 time=0
note_on channel=1 note=61 velocity=0 time=54
note_on channel=1 note=49 velocity=0 time=0
note_on channel=1 note=62 velocity=89 time=6
note_on channel=1 note=50 velocity=89 time=0
note_on channel=1 note=50 velocity=0 time=40
note_on channel=1 note=62 velocity=0 time=0
note_on channel=1 note=63 velocity=90 time=20
note_on channel=1 note=51 velocity=90 time=0
note_on channel=1 note=51 velocity=0 time=54
note_on channel=1 note=63 velocity=0 time=0
control_change channel=1 control=10 value=60 time=5
note_on channel=1 note=60 velocity=77 time=1
note_on channel=1 note=56 velocity=77 time=0
note_on channel=1 note=66 velocity=77 time=0
note_on channel=1 note=66 velocity=0 time=22
note_on channel=1 note=56 velocity=0 time=0
note_on channel=1 note=60 velocity=0 time=0
control_change channel=1 control=10 value=50 time=37
note_on channel=1 note=44 velocity=89 time=1
note_on channel=1 note=56 velocity=89 time=0
note_on channel=1 note=56 velocity=0 time=54
note_on channel=1 note=44 velocity=0 time=0
control_change channel=1 control=10 value=60 time=5
note_on channel=1 note=66 velocity=73 time=1
note_on channel=1 note=60 velocity=73 time=0
note_on channel=1 note=56 velocity=73 time=0
note_on channel=1 note=56 velocity=0 time=22
note_on channel=1 note=60 velocity=0 time=0
note_on channel=1 note=66 velocity=0 time=0
note_on channel=1 note=51 velocity=82 time=38
note_on channel=1 note=63 velocity=82 time=0
note_on channel=1 note=63 velocity=0 time=54
note_on channel=1 note=51 velocity=0 time=0
note_on channel=1 note=60 velocity=73 time=6
note_on channel=1 note=56 velocity=73 time=0
note_on channel=1 note=66 velocity=73 time=0
note_on channel=1 note=66 velocity=0 time=22
note_on channel=1 note=56 velocity=0 time=0
note_on channel=1 note=60 velocity=0 time=0
control_change channel=1 control=10 value=50 time=37
note_on channel=1 note=56 velocity=89 time=1
note_on channel=1 note=44 velocity=89 time=0
note_on channel=1 note=44 velocity=0 time=54
note_on channel=1 note=56 velocity=0 time=0
control_change channel=1 control=10 value=60 time=5
note_on channel=1 note=66 velocity=73 time=1
note_on channel=1 note=56 velocity=73 time=0
note_on channel=1 note=60 velocity=73 time=0
note_on channel=1 note=60 velocity=0 time=22
note_on channel=1 note=56 velocity=0 time=0
note_on channel=1 note=66 velocity=0 time=0
control_change channel=1 control=10 value=55 time=37
note_on channel=1 note=49 velocity=82 time=1
note_on channel=1 note=61 velocity=82 time=0
note_on channel=1 note=61 velocity=0 time=54
note_on channel=1 note=49 velocity=0 time=0
control_change channel=1 control=10 value=60 time=5
note_on channel=1 note=65 velocity=73 time=1
note_on channel=1 note=61 velocity=73 time=0
note_on channel=1 note=56 velocity=73 time=0
note_on channel=1 note=56 velocity=0 time=22
note_on channel=1 note=61 velocity=0 time=0
note_on channel=1 note=65 velocity=0 time=0
control_change channel=1 control=10 value=50 time=37
note_on channel=1 note=44 velocity=82 time=1
note_on channel=1 note=56 velocity=82 time=0
note_on channel=1 note=56 velocity=0 time=54
note_on channel=1 note=44 velocity=0 time=0
control_change channel=1 control=10 value=60 time=5
note_on channel=1 note=65 velocity=73 time=1
note_on channel=1 note=61 velocity=73 time=0
note_on channel=1 note=56 velocity=73 time=0
note_on channel=1 note=56 velocity=0 time=22
note_on channel=1 note=61 velocity=0 time=0
note_on channel=1 note=65 velocity=0 time=0
control_change channel=1 control=10 value=55 time=37
note_on channel=1 note=49 velocity=82 time=1
note_on channel=1 note=61 velocity=82 time=0
note_on channel=1 note=61 velocity=0 time=54
note_on channel=1 note=49 velocity=0 time=0
control_change channel=1 control=10 value=60 time=5
note_on channel=1 note=56 velocity=73 time=1
note_on channel=1 note=65 velocity=73 time=0
note_on channel=1 note=61 velocity=73 time=0
note_on channel=1 note=61 velocity=0 time=22
note_on channel=1 note=65 velocity=0 time=0
note_on channel=1 note=56 velocity=0 time=0
note_on channel=1 note=65 velocity=98 time=38
note_on channel=1 note=53 velocity=98 time=0
note_on channel=1 note=53 velocity=0 time=54
note_on channel=1 note=65 velocity=0 time=0
note_on channel=1 note=52 velocity=86 time=6
note_on channel=1 note=64 velocity=86 time=0
note_on channel=1 note=64 velocity=0 time=40
note_on channel=1 note=52 velocity=0 time=0
note_on channel=1 note=63 velocity=88 time=20
note_on channel=1 note=51 velocity=88 time=0
note_on channel=1 note=51 velocity=0 time=54
note_on channel=1 note=63 velocity=0 time=0
note_on channel=1 note=66 velocity=76 time=6
note_on channel=1 note=56 velocity=76 time=0
note_on channel=1 note=60 velocity=76 time=0
note_on channel=1 note=60 velocity=0 time=22
note_on channel=1 note=56 velocity=0 time=0
note_on channel=1 note=66 velocity=0 time=0
control_change channel=1 control=10 value=50 time=37
note_on channel=1 note=56 velocity=82 time=1
note_on channel=1 note=44 velocity=82 time=0
note_on channel=1 note=44 velocity=0 time=54
note_on channel=1 note=56 velocity=0 time=0
control_change channel=1 control=10 value=60 time=5
note_on channel=1 note=66 velocity=73 time=1
note_on channel=1 note=60 velocity=73 time=0
note_on channel=1 note=56 velocity=73 time=0
note_on channel=1 note=56 velocity=0 time=22
note_on channel=1 note=60 velocity=0 time=0
note_on channel=1 note=66 velocity=0 time=0
control_change channel=1 control=10 value=45 time=37
note_on channel=1 note=39 velocity=82 time=1
note_on channel=1 note=51 velocity=82 time=0
note_on channel=1 note=51 velocity=0 time=54
note_on channel=1 note=39 velocity=0 time=0
control_change channel=1 control=10 value=60 time=5
note_on channel=1 note=60 velocity=73 time=1
note_on channel=1 note=56 velocity=73 time=0
note_on channel=1 note=66 velocity=73 time=0
note_on channel=1 note=66 velocity=0 time=22
note_on channel=1 note=56 velocity=0 time=0
note_on channel=1 note=60 velocity=0 time=0
control_change channel=1 control=10 value=45 time=37
note_on channel=1 note=39 velocity=85 time=1
note_on channel=1 note=51 velocity=85 time=0
control_change channel=1 control=10 value=50 time=31
note_on channel=1 note=44 velocity=91 time=1
note_on channel=1 note=56 velocity=91 time=0
note_on channel=1 note=51 velocity=0 time=2
note_on channel=1 note=39 velocity=0 time=0
note_on channel=1 note=55 velocity=94 time=26
note_on channel=1 note=43 velocity=94 time=0
note_on channel=1 note=44 velocity=0 time=4
note_on channel=1 note=56 velocity=0 time=0
note_on channel=1 note=42 velocity=86 time=28
note_on channel=1 note=54 velocity=86 time=0
note_on channel=1 note=55 velocity=0 time=9
note_on channel=1 note=43 velocity=0 time=0
note_on channel=1 note=53 velocity=87 time=19
note_on channel=1 note=41 velocity=87 time=0
note_on channel=1 note=42 velocity=0 time=4
note_on channel=1 note=54 velocity=0 time=0
note_on channel=1 note=53 velocity=0 time=50
note_on channel=1 note=41 velocity=0 time=0
control_change channel=1 control=10 value=60 time=5
note_on channel=1 note=65 velocity=74 time=1
note_on channel=1 note=56 velocity=74 time=0
note_on channel=1 note=61 velocity=74 time=0
note_on channel=1 note=61 velocity=0 time=22
note_on channel=1 note=56 velocity=0 time=0
note_on channel=1 note=65 velocity=0 time=0
control_change channel=1 control=10 value=55 time=37
note_on channel=1 note=61 velocity=78 time=1
note_on channel=1 note=49 velocity=78 time=0
note_on channel=1 note=49 velocity=0 time=54
note_on channel=1 note=61 velocity=0 time=0
control_change channel=1 control=10 value=60 time=5
note_on channel=1 note=61 velocity=70 time=1
note_on channel=1 note=56 velocity=70 time=0
note_on channel=1 note=65 velocity=70 time=0
note_on channel=1 note=65 velocity=0 time=22
note_on channel=1 note=56 velocity=0 time=0
note_on channel=1 note=61 velocity=0 time=0
note_on channel=1 note=53 velocity=89 time=38
note_on channel=1 note=65 velocity=89 time=0
note_on channel=1 note=65 velocity=0 time=54
note_on channel=1 note=53 velocity=0 time=0
control_change channel=1 control=10 value=55 time=5
note_on channel=1 note=49 velocity=82 time=1
note_on channel=1 note=61 velocity=82 time=0
note_on channel=1 note=61 velocity=0 time=40
note_on channel=1 note=49 velocity=0 time=0
control_change channel=1 control=10 value=50 time=19
note_on channel=1 note=56 velocity=84 time=1
note_on channel=1 note=44 velocity=84 time=0
note_on channel=1 note=44 velocity=0 time=54
note_on channel=1 note=56 velocity=0 time=0
note_on channel=1 note=53 velocity=76 time=6
note_on channel=1 note=41 velocity=76 time=0
note_on channel=1 note=41 velocity=0 time=40
note_on channel=1 note=53 velocity=0 time=0
note_on channel=1 note=42 velocity=89 time=20
note_on channel=1 note=54 velocity=89 time=0
note_on channel=1 note=54 velocity=0 time=54
note_on channel=1 note=42 velocity=0 time=0
note_on channel=1 note=46 velocity=82 time=6
note_on channel=1 note=58 velocity=82 time=0
note_on channel=1 note=58 velocity=0 time=40
note_on channel=1 note=46 velocity=0 time=0
control_change channel=1 control=10 value=57 time=19
note_on channel=1 note=51 velocity=86 time=1
note_on channel=1 note=63 velocity=86 time=0
note_on channel=1 note=63 velocity=0 time=54
note_on channel=1 note=51 velocity=0 time=0
note_on channel=1 note=66 velocity=82 time=6
note_on channel=1 note=54 velocity=82 time=0
note_on channel=1 note=54 velocity=0 time=40
note_on channel=1 note=66 velocity=0 time=0
note_on channel=1 note=53 velocity=94 time=20
note_on channel=1 note=65 velocity=94 time=0
note_on channel=1 note=65 velocity=0 time=54
note_on channel=1 note=53 velocity=0 time=0
note_on channel=1 note=61 velocity=89 time=6
note_on channel=1 note=49 velocity=89 time=0
note_on channel=1 note=49 velocity=0 time=40
note_on channel=1 note=61 velocity=0 time=0
control_change channel=1 control=10 value=50 time=19
note_on channel=1 note=56 velocity=89 time=1
note_on channel=1 note=44 velocity=89 time=0
note_on channel=1 note=44 velocity=0 time=54
note_on channel=1 note=56 velocity=0 time=0
control_change channel=1 control=10 value=55 time=5
note_on channel=1 note=61 velocity=82 time=1
note_on channel=1 note=49 velocity=82 time=0
note_on channel=1 note=49 velocity=0 time=40
note_on channel=1 note=61 velocity=0 time=0
note_on channel=1 note=58 velocity=88 time=20
note_on channel=1 note=46 velocity=88 time=0
note_on channel=1 note=46 velocity=0 time=54
note_on channel=1 note=58 velocity=0 time=0
control_change channel=1 control=10 value=45 time=5
note_on channel=1 note=51 velocity=82 time=1
note_on channel=1 note=39 velocity=82 time=0
note_on channel=1 note=39 velocity=0 time=40
note_on channel=1 note=51 velocity=0 time=0
control_change channel=1 control=10 value=38 time=19
note_on channel=1 note=44 velocity=86 time=1
note_on channel=1 note=32 velocity=86 time=0
note_on channel=1 note=32 velocity=0 time=107
note_on channel=1 note=44 velocity=0 time=0
control_change channel=1 control=10 value=43 time=12
note_on channel=1 note=49 velocity=91 time=1
note_on channel=1 note=37 velocity=91 time=0
note_on channel=1 note=37 velocity=0 time=54
note_on channel=1 note=49 velocity=0 time=0
note_on channel=1 note=44 velocity=86 time=6
note_on channel=1 note=44 velocity=0 time=40
control_change channel=1 control=10 value=37 time=19
note_on channel=1 note=37 velocity=99 time=1
note_on channel=1 note=37 velocity=0 time=66
control_change channel=1 control=120 value=127 time=294
<meta message end_of_track time=0>
<meta message midi_port port=0 time=0>
<meta message track_name name='W.S.Trachtman - MIDI file' time=0>
note_on channel=0 note=37 velocity=1 time=36600
note_on channel=0 note=37 velocity=0 time=120
<meta message end_of_track time=0>
<meta message track_name name='Elite Syncopations' time=0>
<meta message track_name name='by Scott Joplin' time=0>
<meta message copyright text='Copyright  1997 by Warren Trachtman' time=0>
<meta message text text='All Rights Reserved\n' time=0>
<meta message smpte_offset frame_rate=25 hours=32 minutes=0 seconds=3 frames=0 sub_frames=0 time=0>
<meta message time_signature numerator=2 denominator=4 clocks_per_click=24 notated_32nd_notes_per_beat=8 time=0>
<meta message key_signature key='F' time=0>
<meta message set_tempo tempo=618557 time=0>
<meta message marker text='W.S.Trachtman - MIDI file' time=0>
<meta message marker text='A1' time=1200>
<meta message marker text='A2' time=3840>
<meta message marker text='B1' time=3840>
<meta message marker text='B2' time=3840>
<meta message marker text='A3' time=3840>
<meta message key_signature key='Bb' time=3840>
<meta message marker text='C1' time=0>
<meta message marker text='C2' time=3840>
<meta message set_tempo tempo=612245 time=3660>
<meta message marker text='D1' time=180>
<meta message marker text='D2' time=3840>
<meta message set_tempo tempo=588235 time=3840>
<meta message end_of_track time=0>
<meta message midi_port port=0 time=0>
<meta message track_name name='Elite Syncopations ' time=0>
program_change channel=0 program=0 time=0
control_change channel=0 control=7 value=127 time=0
control_change channel=0 control=10 value=91 time=0
control_change channel=0 control=121 value=0 time=5
control_change channel=0 control=1 value=0 time=26
control_change channel=0 control=64 value=0 time=4
aftertouch channel=0 value=0 time=20
pitchwheel channel=0 pitch=0 time=6
control_change channel=0 control=93 value=12 time=2
control_change channel=0 control=91 value=28 time=0
control_change channel=0 control=7 value=127 time=29
control_change channel=0 control=10 value=84 time=3
note_on channel=0 note=72 velocity=95 time=146
note_on channel=0 note=84 velocity=95 time=0
<meta message lyrics text='Elite ' time=0>
note_on channel=0 note=84 velocity=0 time=28
note_on channel=0 note=72 velocity=0 time=0
note_on channel=0 note=69 velocity=85 time=2
note_on channel=0 note=81 velocity=85 time=0
<meta message lyrics text='Syncopations ' time=0>
note_on channel=0 note=81 velocity=0 time=20
note_on channel=0 note=69 velocity=0 time=0
note_on channel=0 note=67 velocity=90 time=9
note_on channel=0 note=79 velocity=90 time=0
note_on channel=0 note=79 velocity=0 time=24
note_on channel=0 note=67 velocity=0 time=0
note_on channel=0 note=65 velocity=85 time=7
note_on channel=0 note=77 velocity=85 time=0
<meta message lyrics text='by ' time=0>
note_on channel=0 note=77 velocity=0 time=51
note_on channel=0 note=65 velocity=0 time=0
note_on channel=0 note=69 velocity=73 time=9
note_on channel=0 note=81 velocity=73 time=0
<meta message lyrics text='Scott ' time=0>
note_on channel=0 note=81 velocity=0 time=20
note_on channel=0 note=69 velocity=0 time=0
note_on channel=0 note=67 velocity=78 time=9
note_on channel=0 note=79 velocity=78 time=0
<meta message lyrics text='Joplin ' time=0>
note_on channel=0 note=79 velocity=0 time=24
note_on channel=0 note=67 velocity=0 time=0
note_on channel=0 note=65 velocity=74 time=7
note_on channel=0 note=77 velocity=74 time=0
<meta message lyrics text='(1902) ' time=0>
note_on channel=0 note=77 velocity=0 time=20
note_on channel=0 note=65 velocity=0 time=0
note_on channel=0 note=79 velocity=87 time=9
note_on channel=0 note=67 velocity=87 time=0
<meta message lyrics text='; ' time=0>
note_on channel=0 note=67 velocity=0 time=26
note_on channel=0 note=79 velocity=0 time=0
note_on channel=0 note=77 velocity=75 time=5
note_on channel=0 note=65 velocity=75 time=0
<meta message lyrics text='Sequenced ' time=0>
note_on channel=0 note=65 velocity=0 time=20
note_on channel=0 note=77 velocity=0 time=0
note_on channel=0 note=74 velocity=82 time=9
note_on channel=0 note=62 velocity=82 time=0
<meta message lyrics text='by ' time=0>
note_on channel=0 note=62 velocity=0 time=24
note_on channel=0 note=74 velocity=0 time=0
note_on channel=0 note=72 velocity=88 time=7
note_on channel=0 note=60 velocity=88 time=0
<meta message lyrics text='W. ' time=0>
note_on channel=0 note=60 velocity=0 time=51
note_on channel=0 note=72 velocity=0 time=0
note_on channel=0 note=65 velocity=79 time=9
<meta message lyrics text='S. ' time=0>
note_on channel=0 note=65 velocity=0 time=20
note_on channel=0 note=67 velocity=83 time=9
<meta message lyrics text='Trachtman ' time=0>
note_on channel=0 note=67 velocity=0 time=24
note_on channel=0 note=69 velocity=81 time=7
<meta message lyrics text='(rev' time=0>
note_on channel=0 note=69 velocity=0 time=20
note_on channel=0 note=60 velocity=87 time=9
<meta message lyrics text='4/97) ' time=0>
<meta message lyrics text='\r' time=0>
note_on channel=0 note=60 velocity=0 time=24
note_on channel=0 note=67 velocity=95 time=7
note_on channel=0 note=67 velocity=0 time=40
note_on channel=0 note=65 velocity=78 time=20
note_on channel=0 note=65 velocity=0 time=24
note_on channel=0 note=64 velocity=85 time=5
note_on channel=0 note=64 velocity=0 time=53
note_on channel=0 note=67 velocity=87 time=7
note_on channel=0 note=67 velocity=0 time=40
note_on channel=0 note=64 velocity=92 time=20
note_on channel=0 note=67 velocity=92 time=0
note_on channel=0 note=72 velocity=92 time=0
note_on channel=0 note=72 velocity=0 time=58
note_on channel=0 note=67 velocity=0 time=0
note_on channel=0 note=64 velocity=0 time=0
note_on channel=0 note=60 velocity=83 time=33
note_on channel=0 note=60 velocity=0 time=20
note_on channel=0 note=62 velocity=90 time=40
note_on channel=0 note=62 velocity=0 time=20
note_on channel=0 note=64 velocity=90 time=40
note_on channel=0 note=64 velocity=0 time=20
note_on channel=0 note=65 velocity=89 time=40
note_on channel=0 note=65 velocity=0 time=28
note_on channel=0 note=74 velocity=86 time=1
note_on channel=0 note=65 velocity=89 time=31
note_on channel=0 note=69 velocity=89 time=0
note_on channel=0 note=72 velocity=89 time=0
note_on channel=0 note=74 velocity=0 time=1
note_on channel=0 note=65 velocity=0 time=54
note_on channel=0 note=69 velocity=0 time=0
note_on channel=0 note=72 velocity=0 time=0
note_on channel=0 note=74 velocity=83 time=5
note_on channel=0 note=63 velocity=90 time=29
note_on channel=0 note=69 velocity=90 time=0
note_on channel=0 note=72 velocity=90 time=0
note_on channel=0 note=74 velocity=0 time=3
note_on channel=0 note=63 velocity=0 time=37
note_on channel=0 note=69 velocity=0 time=0
note_on channel=0 note=72 velocity=0 time=0
note_on channel=0 note=64 velocity=84 time=51
note_on channel=0 note=64 velocity=0 time=28
note_on channel=0 note=74 velocity=77 time=1
note_on channel=0 note=64 velocity=84 time=31
note_on channel=0 note=70 velocity=84 time=0
note_on channel=0 note=72 velocity=84 time=0
note_on channel=0 note=74 velocity=0 time=1
note_on channel=0 note=64 velocity=0 time=54
note_on channel=0 note=70 velocity=0 time=0
note_on channel=0 note=72 velocity=0 time=0
note_on channel=0 note=74 velocity=77 time=5
note_on channel=0 note=64 velocity=84 time=29
note_on channel=0 note=70 velocity=84 time=0
note_on channel=0 note=72 velocity=84 time=0
note_on channel=0 note=74 velocity=0 time=3
note_on channel=0 note=64 velocity=0 time=37
note_on channel=0 note=70 velocity=0 time=0
note_on channel=0 note=72 velocity=0 time=0
note_on channel=0 note=65 velocity=96 time=51
note_on channel=0 note=69 velocity=96 time=0
note_on channel=0 note=72 velocity=96 time=0
note_on channel=0 note=72 velocity=0 time=23
note_on channel=0 note=69 velocity=0 time=0
note_on channel=0 note=65 velocity=0 time=0
note_on channel=0 note=69 velocity=95 time=37
note_on channel=0 note=72 velocity=95 time=0
note_on channel=0 note=72 velocity=0 time=20
note_on channel=0 note=69 velocity=0 time=0
note_on channel=0 note=71 velocity=89 time=40
note_on channel=0 note=68 velocity=89 time=0
note_on channel=0 note=68 velocity=0 time=22
note_on channel=0 note=71 velocity=0 time=0
note_on channel=0 note=70 velocity=78 time=38
note_on channel=0 note=67 velocity=78 time=0
note_on channel=0 note=67 velocity=0 time=29
note_on channel=0 note=70 velocity=0 time=0
note_on channel=0 note=65 velocity=90 time=0
note_on channel=0 note=69 velocity=90 time=0
note_on channel=0 note=69 velocity=0 time=29
note_on channel=0 note=72 velocity=86 time=2
note_on channel=0 note=65 velocity=0 time=14
note_on channel=0 note=72 velocity=0 time=8
note_on channel=0 note=68 velocity=89 time=7
note_on channel=0 note=74 velocity=89 time=0
note_on channel=0 note=74 velocity=0 time=29
note_on channel=0 note=77 velocity=99 time=2
note_on channel=0 note=68 velocity=0 time=14
note_on channel=0 note=77 velocity=0 time=8
note_on channel=0 note=67 velocity=92 time=7
note_on channel=0 note=72 velocity=92 time=0
note_on channel=0 note=76 velocity=92 time=0
note_on channel=0 note=76 velocity=0 time=54
note_on channel=0 note=72 velocity=0 time=0
note_on channel=0 note=67 velocity=0 time=0
note_on channel=0 note=79 velocity=96 time=6
note_on channel=0 note=76 velocity=96 time=0
note_on channel=0 note=70 velocity=96 time=0
note_on channel=0 note=70 velocity=0 time=40
note_on channel=0 note=76 velocity=0 time=0
note_on channel=0 note=79 velocity=0 time=0
note_on channel=0 note=69 velocity=93 time=20
note_on channel=0 note=77 velocity=93 time=0
note_on channel=0 note=81 velocity=93 time=0
note_on channel=0 note=81 velocity=0 time=29
note_on channel=0 note=77 velocity=0 time=0
note_on channel=0 note=69 velocity=0 time=0
note_on channel=0 note=80 velocity=85 time=2
note_on channel=0 note=80 velocity=0 time=25
note_on channel=0 note=81 velocity=89 time=4
note_on channel=0 note=81 velocity=0 time=29
note_on channel=0 note=84 velocity=96 time=2
note_on channel=0 note=84 velocity=0 time=44
note_on channel=0 note=81 velocity=83 time=16
note_on channel=0 note=81 velocity=0 time=25
note_on channel=0 note=79 velocity=87 time=4
note_on channel=0 note=79 velocity=0 time=29
note_on channel=0 note=77 velocity=78 time=2
note_on channel=0 note=77 velocity=0 time=25
note_on channel=0 note=79 velocity=90 time=4
note_on channel=0 note=79 velocity=0 time=29
note_on channel=0 note=77 velocity=78 time=2
note_on channel=0 note=77 velocity=0 time=25
note_on channel=0 note=74 velocity=84 time=4
note_on channel=0 note=74 velocity=0 time=29
note_on channel=0 note=77 velocity=92 time=2
note_on channel=0 note=77 velocity=0 time=44
note_on channel=0 note=74 velocity=78 time=16
note_on channel=0 note=74 velocity=0 time=25
note_on channel=0 note=72 velocity=85 time=4
note_on channel=0 note=72 velocity=0 time=29
note_on channel=0 note=69 velocity=78 time=2
note_on channel=0 note=69 velocity=0 time=25
note_on channel=0 note=67 velocity=87 time=4
note_on channel=0 note=67 velocity=0 time=29
note_on channel=0 note=79 velocity=91 time=2
note_on channel=0 note=79 velocity=0 time=25
note_on channel=0 note=77 velocity=85 time=4
note_on channel=0 note=77 velocity=0 time=29
note_on channel=0 note=76 velocity=85 time=2
note_on channel=0 note=76 velocity=0 time=25
note_on channel=0 note=74 velocity=91 time=4
note_on channel=0 note=74 velocity=0 time=29
note_on channel=0 note=69 velocity=94 time=2
note_on channel=0 note=69 velocity=0 time=44
note_on channel=0 note=71 velocity=77 time=16
note_on channel=0 note=71 velocity=0 time=29
note_on channel=0 note=72 velocity=92 time=0
note_on channel=0 note=72 velocity=0 time=50
note_on channel=0 note=72 velocity=104 time=70
note_on channel=0 note=76 velocity=104 time=0
note_on channel=0 note=84 velocity=104 time=0
note_on channel=0 note=84 velocity=0 time=50
note_on channel=0 note=76 velocity=0 time=0
note_on channel=0 note=72 velocity=0 time=0
note_on channel=0 note=65 velocity=88 time=101
note_on channel=0 note=65 velocity=0 time=28
note_on channel=0 note=74 velocity=85 time=1
note_on channel=0 note=65 velocity=88 time=31
note_on channel=0 note=69 velocity=88 time=0
note_on channel=0 note=72 velocity=88 time=0
note_on channel=0 note=74 velocity=0 time=1
note_on channel=0 note=65 velocity=0 time=54
note_on channel=0 note=69 velocity=0 time=0
note_on channel=0 note=72 velocity=0 time=0
note_on channel=0 note=74 velocity=82 time=5
note_on channel=0 note=63 velocity=89 time=29
note_on channel=0 note=69 velocity=89 time=0
note_on channel=0 note=72 velocity=89 time=0
note_on channel=0 note=74 velocity=0 time=3
note_on channel=0 note=63 velocity=0 time=37
note_on channel=0 note=69 velocity=0 time=0
note_on channel=0 note=72 velocity=0 time=0
note_on channel=0 note=64 velocity=83 time=51
note_on channel=0 note=64 velocity=0 time=28
note_on channel=0 note=74 velocity=76 time=1
note_on channel=0 note=64 velocity=83 time=31
note_on channel=0 note=70 velocity=83 time=0
note_on channel=0 note=72 velocity=83 time=0
note_on channel=0 note=74 velocity=0 time=1
note_on channel=0 note=64 velocity=0 time=54
note_on channel=0 note=70 velocity=0 time=0
note_on channel=0 note=72 velocity=0 time=0
note_on channel=0 note=74 velocity=76 time=5
note_on channel=0 note=64 velocity=83 time=29
note_on channel=0 note=70 velocity=83 time=0
note_on channel=0 note=72 velocity=83 time=0
note_on channel=0 note=74 velocity=0 time=3
note_on channel=0 note=64 velocity=0 time=37
note_on channel=0 note=70 velocity=0 time=0
note_on channel=0 note=72 velocity=0 time=0
note_on channel=0 note=65 velocity=95 time=51
note_on channel=0 note=69 velocity=95 time=0
note_on channel=0 note=72 velocity=95 time=0
note_on channel=0 note=72 velocity=0 time=23
note_on channel=0 note=69 velocity=0 time=0
note_on channel=0 note=65 velocity=0 time=0
note_on channel=0 note=69 velocity=94 time=37
note_on channel=0 note=72 velocity=94 time=0
note_on channel=0 note=72 velocity=0 time=20
note_on channel=0 note=69 velocity=0 time=0
note_on channel=0 note=71 velocity=88 time=40
note_on channel=0 note=68 velocity=88 time=0
note_on channel=0 note=68 velocity=0 time=22
note_on channel=0 note=71 velocity=0 time=0
note_on channel=0 note=70 velocity=77 time=38
note_on channel=0 note=67 velocity=77 time=0
note_on channel=0 note=67 velocity=0 time=29
note_on channel=0 note=70 velocity=0 time=0
note_on channel=0 note=65 velocity=89 time=0
note_on channel=0 note=69 velocity=89 time=0
note_on channel=0 note=69 velocity=0 time=29
note_on channel=0 note=72 velocity=85 time=2
note_on channel=0 note=65 velocity=0 time=14
note_on channel=0 note=72 velocity=0 time=8
note_on channel=0 note=68 velocity=88 time=7
note_on channel=0 note=74 velocity=88 time=0
note_on channel=0 note=74 velocity=0 time=29
note_on channel=0 note=77 velocity=98 time=2
note_on channel=0 note=68 velocity=0 time=14
note_on channel=0 note=77 velocity=0 time=8
note_on channel=0 note=67 velocity=91 time=7
note_on channel=0 note=72 velocity=91 time=0
note_on channel=0 note=76 velocity=91 time=0
note_on channel=0 note=76 velocity=0 time=54
note_on channel=0 note=72 velocity=0 time=0
note_on channel=0 note=67 velocity=0 time=0
note_on channel=0 note=79 velocity=95 time=6
note_on channel=0 note=76 velocity=95 time=0
note_on channel=0 note=70 velocity=95 time=0
note_on channel=0 note=70 velocity=0 time=40
note_on channel=0 note=76 velocity=0 time=0
note_on channel=0 note=79 velocity=0 time=0
note_on channel=0 note=69 velocity=92 time=20
note_on channel=0 note=77 velocity=92 time=0
note_on channel=0 note=81 velocity=92 time=0
note_on channel=0 note=81 velocity=0 time=29
note_on channel=0 note=77 velocity=0 time=0
note_on channel=0 note=69 velocity=0 time=0
note_on channel=0 note=80 velocity=84 time=2
note_on channel=0 note=80 velocity=0 time=25
note_on channel=0 note=81 velocity=88 time=4
note_on channel=0 note=81 velocity=0 time=29
note_on channel=0 note=84 velocity=95 time=2
note_on channel=0 note=84 velocity=0 time=44
note_on channel=0 note=81 velocity=82 time=16
note_on channel=0 note=81 velocity=0 time=25
note_on channel=0 note=79 velocity=86 time=4
note_on channel=0 note=79 velocity=0 time=29
note_on channel=0 note=77 velocity=77 time=2
note_on channel=0 note=77 velocity=0 time=25
note_on channel=0 note=79 velocity=89 time=4
note_on channel=0 note=79 velocity=0 time=29
note_on channel=0 note=77 velocity=77 time=2
note_on channel=0 note=77 velocity=0 time=25
note_on channel=0 note=74 velocity=83 time=4
note_on channel=0 note=74 velocity=0 time=29
note_on channel=0 note=72 velocity=91 time=2
note_on channel=0 note=72 velocity=0 time=44
note_on channel=0 note=74 velocity=77 time=16
note_on channel=0 note=74 velocity=0 time=25
note_on channel=0 note=69 velocity=84 time=4
note_on channel=0 note=69 velocity=0 time=29
note_on channel=0 note=67 velocity=77 time=2
note_on channel=0 note=67 velocity=0 time=25
note_on channel=0 note=59 velocity=94 time=4
note_on channel=0 note=65 velocity=94 time=0
note_on channel=0 note=67 velocity=86 time=31
note_on channel=0 note=65 velocity=0 time=5
note_on channel=0 note=59 velocity=0 time=0
note_on channel=0 note=67 velocity=0 time=23
note_on channel=0 note=59 velocity=99 time=1
note_on channel=0 note=65 velocity=99 time=0
note_on channel=0 note=69 velocity=99 time=0
note_on channel=0 note=69 velocity=0 time=45
note_on channel=0 note=65 velocity=0 time=0
note_on channel=0 note=59 velocity=0 time=0
note_on channel=0 note=58 velocity=96 time=15
note_on channel=0 note=64 velocity=96 time=0
note_on channel=0 note=67 velocity=96 time=0
note_on channel=0 note=67 velocity=0 time=27
note_on channel=0 note=64 velocity=0 time=0
note_on channel=0 note=58 velocity=0 time=0
note_on channel=0 note=67 velocity=87 time=4
note_on channel=0 note=64 velocity=87 time=0
note_on channel=0 note=58 velocity=87 time=0
note_on channel=0 note=58 velocity=0 time=45
note_on channel=0 note=64 velocity=0 time=0
note_on channel=0 note=67 velocity=0 time=0
note_on channel=0 note=58 velocity=83 time=15
note_on channel=0 note=60 velocity=83 time=0
note_on channel=0 note=57 velocity=89 time=29
note_on channel=0 note=65 velocity=89 time=0
note_on channel=0 note=60 velocity=0 time=3
note_on channel=0 note=58 velocity=0 time=0
note_on channel=0 note=57 velocity=0 time=47
note_on channel=0 note=65 velocity=0 time=0
note_on channel=0 note=60 velocity=85 time=41
note_on channel=0 note=60 velocity=0 time=25
note_on channel=0 note=62 velocity=90 time=35
note_on channel=0 note=62 velocity=0 time=22
note_on channel=0 note=64 velocity=88 time=38
note_on channel=0 note=64 velocity=0 time=22
note_on channel=0 note=65 velocity=88 time=38
note_on channel=0 note=65 velocity=0 time=28
note_on channel=0 note=74 velocity=85 time=1
note_on channel=0 note=65 velocity=88 time=31
note_on channel=0 note=69 velocity=88 time=0
note_on channel=0 note=72 velocity=88 time=0
note_on channel=0 note=74 velocity=0 time=1
note_on channel=0 note=65 velocity=0 time=54
note_on channel=0 note=69 velocity=0 time=0
note_on channel=0 note=72 velocity=0 time=0
note_on channel=0 note=74 velocity=82 time=5
note_on channel=0 note=63 velocity=89 time=29
note_on channel=0 note=69 velocity=89 time=0
note_on channel=0 note=72 velocity=89 time=0
note_on channel=0 note=74 velocity=0 time=3
note_on channel=0 note=63 velocity=0 time=37
note_on channel=0 note=69 velocity=0 time=0
note_on channel=0 note=72 velocity=0 time=0
note_on channel=0 note=64 velocity=83 time=51
note_on channel=0 note=64 velocity=0 time=28
note_on channel=0 note=74 velocity=76 time=1
note_on channel=0 note=64 velocity=83 time=31
note_on channel=0 note=70 velocity=83 time=0
note_on channel=0 note=72 velocity=83 time=0
note_on channel=0 note=74 velocity=0 time=1
note_on channel=0 note=64 velocity=0 time=54
note_on channel=0 note=70 velocity=0 time=0
note_on channel=0 note=72 velocity=0 time=0
note_on channel=0 note=74 velocity=76 time=5
note_on channel=0 note=64 velocity=83 time=29
note_on channel=0 note=70 velocity=83 time=0
note_on channel=0 note=72 velocity=83 time=0
note_on channel=0 note=74 velocity=0 time=3
note_on channel=0 note=64 velocity=0 time=37
note_on channel=0 note=70 velocity=0 time=0
note_on channel=0 note=72 velocity=0 time=0
note_on channel=0 note=65 velocity=95 time=51
note_on channel=0 note=69 velocity=95 time=0
note_on channel=0 note=72 velocity=95 time=0
note_on channel=0 note=72 velocity=0 time=23
note_on channel=0 note=69 velocity=0 time=0
note_on channel=0 note=65 velocity=0 time=0
note_on channel=0 note=69 velocity=93 time=37
note_on channel=0 note=72 velocity=93 time=0
note_on channel=0 note=72 velocity=0 time=20
note_on channel=0 note=69 velocity=0 time=0
note_on channel=0 note=71 velocity=87 time=40
note_on channel=0 note=68 velocity=87 time=0
note_on channel=0 note=68 velocity=0 time=22
note_on channel=0 note=71 velocity=0 time=0
note_on channel=0 note=70 velocity=76 time=38
note_on channel=0 note=67 velocity=76 time=0
note_on channel=0 note=67 velocity=0 time=29
note_on channel=0 note=70 velocity=0 time=0
note_on channel=0 note=65 velocity=88 time=0
note_on channel=0 note=69 velocity=88 time=0
note_on channel=0 note=69 velocity=0 time=29
note_on channel=0 note=72 velocity=84 time=2
note_on channel=0 note=65 velocity=0 time=14
note_on channel=0 note=72 velocity=0 time=8
note_on channel=0 note=68 velocity=87 time=7
note_on channel=0 note=74 velocity=87 time=0
note_on channel=0 note=74 velocity=0 time=29
note_on channel=0 note=77 velocity=97 time=2
note_on channel=0 note=68 velocity=0 time=14
note_on channel=0 note=77 velocity=0 time=8
note_on channel=0 note=67 velocity=90 time=7
note_on channel=0 note=72 velocity=90 time=0
note_on channel=0 note=76 velocity=90 time=0
note_on channel=0 note=76 velocity=0 time=54
note_on channel=0 note=72 velocity=0 time=0
note_on channel=0 note=67 velocity=0 time=0
note_on channel=0 note=79 velocity=94 time=6
note_on channel=0 note=76 velocity=94 time=0
note_on channel=0 note=70 velocity=94 time=0
note_on channel=0 note=70 velocity=0 time=40
note_on channel=0 note=76 velocity=0 time=0
note_on channel=0 note=79 velocity=0 time=0
note_on channel=0 note=69 velocity=91 time=20
note_on channel=0 note=77 velocity=91 time=0
note_on channel=0 note=81 velocity=91 time=0
note_on channel=0 note=81 velocity=0 time=29
note_on channel=0 note=77 velocity=0 time=0
note_on channel=0 note=69 velocity=0 time=0
note_on channel=0 note=80 velocity=83 time=2
note_on channel=0 note=80 velocity=0 time=25
note_on channel=0 note=81 velocity=87 time=4
note_on channel=0 note=81 velocity=0 time=29
note_on channel=0 note=84 velocity=94 time=2
note_on channel=0 note=84 velocity=0 time=44
note_on channel=0 note=81 velocity=81 time=16
note_on channel=0 note=81 velocity=0 time=25
note_on channel=0 note=79 velocity=85 time=4
note_on channel=0 note=79 velocity=0 time=29
note_on channel=0 note=77 velocity=76 time=2
note_on channel=0 note=77 velocity=0 time=25
note_on channel=0 note=79 velocity=88 time=4
note_on channel=0 note=79 velocity=0 time=29
note_on channel=0 note=77 velocity=76 time=2
note_on channel=0 note=77 velocity=0 time=25
note_on channel=0 note=74 velocity=82 time=4
note_on channel=0 note=74 velocity=0 time=29
note_on channel=0 note=77 velocity=90 time=2
note_on channel=0 note=77 velocity=0 time=44
note_on channel=0 note=74 velocity=76 time=16
note_on channel=0 note=74 velocity=0 time=25
note_on channel=0 note=72 velocity=83 time=4
note_on channel=0 note=72 velocity=0 time=29
note_on channel=0 note=69 velocity=76 time=2
note_on channel=0 note=69 velocity=0 time=25
note_on channel=0 note=67 velocity=85 time=4
note_on channel=0 note=67 velocity=0 time=29
note_on channel=0 note=79 velocity=89 time=2
note_on channel=0 note=79 velocity=0 time=25
note_on channel=0 note=77 velocity=83 time=4
note_on channel=0 note=77 velocity=0 time=29
note_on channel=0 note=76 velocity=83 time=2
note_on channel=0 note=76 velocity=0 time=25
note_on channel=0 note=74 velocity=89 time=4
note_on channel=0 note=74 velocity=0 time=29
note_on channel=0 note=69 velocity=93 time=2
note_on channel=0 note=69 velocity=0 time=44
note_on channel=0 note=71 velocity=76 time=16
note_on channel=0 note=71 velocity=0 time=29
note_on channel=0 note=72 velocity=91 time=0
note_on channel=0 note=72 velocity=0 time=50
note_on channel=0 note=72 velocity=103 time=70
note_on channel=0 note=76 velocity=103 time=0
note_on channel=0 note=84 velocity=103 time=0
note_on channel=0 note=84 velocity=0 time=50
note_on channel=0 note=76 velocity=0 time=0
note_on channel=0 note=72 velocity=0 time=0
note_on channel=0 note=65 velocity=87 time=101
note_on channel=0 note=65 velocity=0 time=28
note_on channel=0 note=74 velocity=84 time=1
note_on channel=0 note=65 velocity=87 time=31
note_on channel=0 note=69 velocity=87 time=0
note_on channel=0 note=72 velocity=87 time=0
note_on channel=0 note=74 velocity=0 time=1
note_on channel=0 note=65 velocity=0 time=54
note_on channel=0 note=69 velocity=0 time=0
note_on channel=0 note=72 velocity=0 time=0
note_on channel=0 note=74 velocity=81 time=5
note_on channel=0 note=63 velocity=88 time=29
note_on channel=0 note=69 velocity=88 time=0
note_on channel=0 note=72 velocity=88 time=0
note_on channel=0 note=74 velocity=0 time=3
note_on channel=0 note=63 velocity=0 time=37
note_on channel=0 note=69 velocity=0 time=0
note_on channel=0 note=72 velocity=0 time=0
note_on channel=0 note=64 velocity=82 time=51
note_on channel=0 note=64 velocity=0 time=28
note_on channel=0 note=74 velocity=75 time=1
note_on channel=0 note=64 velocity=82 time=31
note_on channel=0 note=70 velocity=82 time=0
note_on channel=0 note=72 velocity=82 time=0
note_on channel=0 note=74 velocity=0 time=1
note_on channel=0 note=64 velocity=0 time=54
note_on channel=0 note=70 velocity=0 time=0
note_on channel=0 note=72 velocity=0 time=0
note_on channel=0 note=74 velocity=75 time=5
note_on channel=0 note=64 velocity=82 time=29
note_on channel=0 note=70 velocity=82 time=0
note_on channel=0 note=72 velocity=82 time=0
note_on channel=0 note=74 velocity=0 time=3
note_on channel=0 note=64 velocity=0 time=37
note_on channel=0 note=70 velocity=0 time=0
note_on channel=0 note=72 velocity=0 time=0
note_on channel=0 note=65 velocity=94 time=51
note_on channel=0 note=69 velocity=94 time=0
note_on channel=0 note=72 velocity=94 time=0
note_on channel=0 note=72 velocity=0 time=23
note_on channel=0 note=69 velocity=0 time=0
note_on channel=0 note=65 velocity=0 time=0
note_on channel=0 note=69 velocity=93 time=37
note_on channel=0 note=72 velocity=93 time=0
note_on channel=0 note=72 velocity=0 time=20
note_on channel=0 note=69 velocity=0 time=0
note_on channel=0 note=71 velocity=87 time=40
note_on channel=0 note=68 velocity=87 time=0
note_on channel=0 note=68 velocity=0 time=22
note_on channel=0 note=71 velocity=0 time=0
note_on channel=0 note=70 velocity=76 time=38
note_on channel=0 note=67 velocity=76 time=0
note_on channel=0 note=67 velocity=0 time=29
note_on channel=0 note=70 velocity=0 time=0
note_on channel=0 note=65 velocity=88 time=0
note_on channel=0 note=69 velocity=88 time=0
note_on channel=0 note=69 velocity=0 time=29
note_on channel=0 note=72 velocity=84 time=2
note_on channel=0 note=65 velocity=0 time=14
note_on channel=0 note=72 velocity=0 time=8
note_on channel=0 note=68 velocity=87 time=7
note_on channel=0 note=74 velocity=87 time=0
note_on channel=0 note=74 velocity=0 time=29
note_on channel=0 note=77 velocity=97 time=2
note_on channel=0 note=68 velocity=0 time=14
note_on channel=0 note=77 velocity=0 time=8
note_on channel=0 note=67 velocity=90 time=7
note_on channel=0 note=72 velocity=90 time=0
note_on channel=0 note=76 velocity=90 time=0
note_on channel=0 note=76 velocity=0 time=54
note_on channel=0 note=72 velocity=0 time=0
note_on channel=0 note=67 velocity=0 time=0
note_on channel=0 note=79 velocity=94 time=6
note_on channel=0 note=76 velocity=94 time=0
note_on channel=0 note=70 velocity=94 time=0
note_on channel=0 note=70 velocity=0 time=40
note_on channel=0 note=76 velocity=0 time=0
note_on channel=0 note=79 velocity=0 time=0
note_on channel=0 note=69 velocity=91 time=20
note_on channel=0 note=77 velocity=91 time=0
note_on channel=0 note=81 velocity=91 time=0
note_on channel=0 note=81 velocity=0 time=29
note_on channel=0 note=77 velocity=0 time=0
note_on channel=0 note=69 velocity=0 time=0
note_on channel=0 note=80 velocity=83 time=2
note_on channel=0 note=80 velocity=0 time=25
note_on channel=0 note=81 velocity=87 time=4
note_on channel=0 note=81 velocity=0 time=29
note_on channel=0 note=84 velocity=94 time=2
note_on channel=0 note=84 velocity=0 time=44
note_on channel=0 note=81 velocity=81 time=16
note_on channel=0 note=81 velocity=0 time=25
note_on channel=0 note=79 velocity=85 time=4
note_on channel=0 note=79 velocity=0 time=29
note_on channel=0 note=77 velocity=76 time=2
note_on channel=0 note=77 velocity=0 time=25
note_on channel=0 note=79 velocity=88 time=4
note_on channel=0 note=79 velocity=0 time=29
note_on channel=0 note=77 velocity=76 time=2
note_on channel=0 note=77 velocity=0 time=25
note_on channel=0 note=74 velocity=82 time=4
note_on channel=0 note=74 velocity=0 time=29
note_on channel=0 note=72 velocity=90 time=2
note_on channel=0 note=72 velocity=0 time=44
note_on channel=0 note=74 velocity=88 time=16
note_on channel=0 note=74 velocity=0 time=25
note_on channel=0 note=69 velocity=83 time=4
note_on channel=0 note=69 velocity=0 time=29
note_on channel=0 note=67 velocity=76 time=2
note_on channel=0 note=67 velocity=0 time=25
note_on channel=0 note=59 velocity=93 time=4
note_on channel=0 note=65 velocity=93 time=0
note_on channel=0 note=67 velocity=85 time=31
note_on channel=0 note=65 velocity=0 time=5
note_on channel=0 note=59 velocity=0 time=0
note_on channel=0 note=67 velocity=0 time=23
note_on channel=0 note=59 velocity=97 time=1
note_on channel=0 note=65 velocity=97 time=0
note_on channel=0 note=69 velocity=97 time=0
note_on channel=0 note=69 velocity=0 time=45
note_on channel=0 note=65 velocity=0 time=0
note_on channel=0 note=59 velocity=0 time=0
note_on channel=0 note=58 velocity=95 time=15
note_on channel=0 note=64 velocity=95 time=0
note_on channel=0 note=67 velocity=95 time=0
note_on channel=0 note=67 velocity=0 time=27
note_on channel=0 note=64 velocity=0 time=0
note_on channel=0 note=58 velocity=0 time=0
note_on channel=0 note=67 velocity=86 time=4
note_on channel=0 note=64 velocity=86 time=0
note_on channel=0 note=58 velocity=86 time=0
note_on channel=0 note=58 velocity=0 time=45
note_on channel=0 note=64 velocity=0 time=0
note_on channel=0 note=67 velocity=0 time=0
note_on channel=0 note=58 velocity=82 time=15
note_on channel=0 note=60 velocity=82 time=0
note_on channel=0 note=57 velocity=88 time=29
note_on channel=0 note=65 velocity=88 time=0
note_on channel=0 note=60 velocity=0 time=3
note_on channel=0 note=58 velocity=0 time=0
note_on channel=0 note=57 velocity=0 time=47
note_on channel=0 note=65 velocity=0 time=0
note_on channel=0 note=72 velocity=93 time=10
note_on channel=0 note=72 velocity=0 time=25
note_on channel=0 note=72 velocity=86 time=6
note_on channel=0 note=72 velocity=0 time=20
note_on channel=0 note=72 velocity=88 time=9
note_on channel=0 note=72 velocity=0 time=51
note_on channel=0 note=72 velocity=84 time=9
note_on channel=0 note=72 velocity=0 time=40
note_on channel=0 note=76 velocity=89 time=20
note_on channel=0 note=76 velocity=0 time=29
note_on channel=0 note=74 velocity=80 time=2
note_on channel=0 note=74 velocity=0 time=24
note_on channel=0 note=72 velocity=84 time=5
note_on channel=0 note=72 velocity=0 time=29
note_on channel=0 note=70 velocity=78 time=2
note_on channel=0 note=70 velocity=0 time=24
note_on channel=0 note=69 velocity=79 time=5
note_on channel=0 note=69 velocity=0 time=29
note_on channel=0 note=70 velocity=92 time=2
note_on channel=0 note=70 velocity=0 time=48
note_on channel=0 note=67 velocity=79 time=12
note_on channel=0 note=67 velocity=0 time=24
note_on channel=0 note=65 velocity=82 time=5
note_on channel=0 note=65 velocity=0 time=29
note_on channel=0 note=67 velocity=75 time=2
note_on channel=0 note=67 velocity=0 time=24
note_on channel=0 note=69 velocity=82 time=5
note_on channel=0 note=69 velocity=0 time=29
note_on channel=0 note=60 velocity=88 time=2
note_on channel=0 note=60 velocity=0 time=48
note_on channel=0 note=69 velocity=87 time=12
note_on channel=0 note=69 velocity=0 time=24
note_on channel=0 note=67 velocity=80 time=5
note_on channel=0 note=67 velocity=0 time=29
note_on channel=0 note=65 velocity=81 time=2
note_on channel=0 note=65 velocity=0 time=24
note_on channel=0 note=64 velocity=87 time=5
note_on channel=0 note=64 velocity=0 time=29
note_on channel=0 note=65 velocity=81 time=2
note_on channel=0 note=65 velocity=0 time=24
note_on channel=0 note=67 velocity=88 time=5
note_on channel=0 note=67 velocity=0 time=29
note_on channel=0 note=60 velocity=91 time=2
note_on channel=0 note=60 velocity=0 time=48
note_on channel=0 note=70 velocity=80 time=12
note_on channel=0 note=70 velocity=0 time=24
note_on channel=0 note=69 velocity=84 time=5
note_on channel=0 note=69 velocity=0 time=29
note_on channel=0 note=67 velocity=75 time=2
note_on channel=0 note=67 velocity=0 time=24
note_on channel=0 note=65 velocity=88 time=5
note_on channel=0 note=65 velocity=0 time=29
note_on channel=0 note=69 velocity=79 time=2
note_on channel=0 note=69 velocity=0 time=24
note_on channel=0 note=74 velocity=91 time=5
note_on channel=0 note=74 velocity=0 time=29
note_on channel=0 note=72 velocity=89 time=2
note_on channel=0 note=72 velocity=0 time=72
note_on channel=0 note=72 velocity=77 time=17
note_on channel=0 note=72 velocity=0 time=48
note_on channel=0 note=76 velocity=91 time=12
note_on channel=0 note=76 velocity=0 time=29
note_on channel=0 note=74 velocity=83 time=2
note_on channel=0 note=74 velocity=0 time=24
note_on channel=0 note=72 velocity=85 time=5
note_on channel=0 note=72 velocity=0 time=29
note_on channel=0 note=70 velocity=77 time=2
note_on channel=0 note=70 velocity=0 time=24
note_on channel=0 note=69 velocity=82 time=5
note_on channel=0 note=69 velocity=0 time=29
note_on channel=0 note=70 velocity=91 time=2
note_on channel=0 note=70 velocity=0 time=48
note_on channel=0 note=64 velocity=79 time=12
note_on channel=0 note=64 velocity=0 time=24
note_on channel=0 note=65 velocity=85 time=5
note_on channel=0 note=65 velocity=0 time=29
note_on channel=0 note=64 velocity=81 time=2
note_on channel=0 note=64 velocity=0 time=24
note_on channel=0 note=65 velocity=79 time=5
note_on channel=0 note=65 velocity=0 time=29
note_on channel=0 note=69 velocity=90 time=2
note_on channel=0 note=69 velocity=0 time=48
note_on channel=0 note=69 velocity=79 time=12
note_on channel=0 note=69 velocity=0 time=24
note_on channel=0 note=67 velocity=80 time=5
note_on channel=0 note=67 velocity=0 time=29
note_on channel=0 note=65 velocity=78 time=2
note_on channel=0 note=65 velocity=0 time=24
note_on channel=0 note=64 velocity=82 time=5
note_on channel=0 note=64 velocity=0 time=29
note_on channel=0 note=72 velocity=90 time=2
note_on channel=0 note=72 velocity=0 time=24
note_on channel=0 note=71 velocity=83 time=5
note_on channel=0 note=71 velocity=0 time=29
note_on channel=0 note=69 velocity=81 time=2
note_on channel=0 note=69 velocity=0 time=24
note_on channel=0 note=68 velocity=85 time=5
note_on channel=0 note=68 velocity=0 time=29
note_on channel=0 note=71 velocity=92 time=2
note_on channel=0 note=71 velocity=0 time=48
note_on channel=0 note=64 velocity=81 time=12
note_on channel=0 note=64 velocity=0 time=29
note_on channel=0 note=69 velocity=89 time=0
note_on channel=0 note=69 velocity=0 time=56
note_on channel=0 note=64 velocity=96 time=64
note_on channel=0 note=70 velocity=96 time=0
note_on channel=0 note=72 velocity=96 time=0
note_on channel=0 note=72 velocity=0 time=96
note_on channel=0 note=70 velocity=0 time=0
note_on channel=0 note=64 velocity=0 time=0
note_on channel=0 note=76 velocity=89 time=24
note_on channel=0 note=76 velocity=0 time=29
note_on channel=0 note=74 velocity=80 time=2
note_on channel=0 note=74 velocity=0 time=24
note_on channel=0 note=72 velocity=84 time=5
note_on channel=0 note=72 velocity=0 time=29
note_on channel=0 note=70 velocity=78 time=2
note_on channel=0 note=70 velocity=0 time=24
note_on channel=0 note=69 velocity=79 time=5
note_on channel=0 note=69 velocity=0 time=29
note_on channel=0 note=70 velocity=92 time=2
note_on channel=0 note=70 velocity=0 time=48
note_on channel=0 note=67 velocity=79 time=12
note_on channel=0 note=67 velocity=0 time=24
note_on channel=0 note=65 velocity=82 time=5
note_on channel=0 note=65 velocity=0 time=29
note_on channel=0 note=67 velocity=75 time=2
note_on channel=0 note=67 velocity=0 time=24
note_on channel=0 note=69 velocity=82 time=5
note_on channel=0 note=69 velocity=0 time=29
note_on channel=0 note=60 velocity=88 time=2
note_on channel=0 note=60 velocity=0 time=48
note_on channel=0 note=69 velocity=86 time=12
note_on channel=0 note=69 velocity=0 time=24
note_on channel=0 note=67 velocity=79 time=5
note_on channel=0 note=67 velocity=0 time=29
note_on channel=0 note=65 velocity=80 time=2
note_on channel=0 note=65 velocity=0 time=24
note_on channel=0 note=64 velocity=86 time=5
note_on channel=0 note=64 velocity=0 time=29
note_on channel=0 note=65 velocity=80 time=2
note_on channel=0 note=65 velocity=0 time=24
note_on channel=0 note=67 velocity=87 time=5
note_on channel=0 note=67 velocity=0 time=29
note_on channel=0 note=60 velocity=90 time=2
note_on channel=0 note=60 velocity=0 time=48
note_on channel=0 note=70 velocity=79 time=12
note_on channel=0 note=70 velocity=0 time=24
note_on channel=0 note=69 velocity=83 time=5
note_on channel=0 note=69 velocity=0 time=29
note_on channel=0 note=67 velocity=74 time=2
note_on channel=0 note=67 velocity=0 time=24
note_on channel=0 note=65 velocity=87 time=5
note_on channel=0 note=65 velocity=0 time=29
note_on channel=0 note=69 velocity=78 time=2
note_on channel=0 note=69 velocity=0 time=24
note_on channel=0 note=74 velocity=90 time=5
note_on channel=0 note=74 velocity=0 time=29
note_on channel=0 note=72 velocity=88 time=2
note_on channel=0 note=72 velocity=0 time=72
note_on channel=0 note=72 velocity=80 time=17
note_on channel=0 note=72 velocity=0 time=48
note_on channel=0 note=74 velocity=82 time=12
note_on channel=0 note=70 velocity=82 time=0
note_on channel=0 note=79 velocity=98 time=31
note_on channel=0 note=70 velocity=0 time=5
note_on channel=0 note=74 velocity=0 time=0
note_on channel=0 note=79 velocity=0 time=48
note_on channel=0 note=74 velocity=96 time=7
note_on channel=0 note=70 velocity=96 time=0
note_on channel=0 note=70 velocity=0 time=59
note_on channel=0 note=74 velocity=0 time=0
note_on channel=0 note=79 velocity=85 time=1
note_on channel=0 note=74 velocity=89 time=29
note_on channel=0 note=70 velocity=89 time=0
note_on channel=0 note=79 velocity=0 time=7
note_on channel=0 note=70 velocity=0 time=41
note_on channel=0 note=74 velocity=0 time=0
note_on channel=0 note=69 velocity=82 time=12
note_on channel=0 note=72 velocity=82 time=0
note_on channel=0 note=77 velocity=90 time=31
note_on channel=0 note=72 velocity=0 time=5
note_on channel=0 note=69 velocity=0 time=0
note_on channel=0 note=77 velocity=0 time=48
note_on channel=0 note=72 velocity=87 time=7
note_on channel=0 note=69 velocity=87 time=0
note_on channel=0 note=69 velocity=0 time=59
note_on channel=0 note=72 velocity=0 time=0
note_on channel=0 note=77 velocity=79 time=1
note_on channel=0 note=72 velocity=82 time=29
note_on channel=0 note=69 velocity=82 time=0
note_on channel=0 note=77 velocity=0 time=7
note_on channel=0 note=69 velocity=0 time=41
note_on channel=0 note=72 velocity=0 time=0
note_on channel=0 note=70 velocity=83 time=12
note_on channel=0 note=67 velocity=74 time=31
note_on channel=0 note=70 velocity=0 time=5
note_on channel=0 note=74 velocity=86 time=24
note_on channel=0 note=67 velocity=0 time=1
note_on channel=0 note=72 velocity=88 time=30
note_on channel=0 note=74 velocity=0 time=5
note_on channel=0 note=72 velocity=0 time=43
note_on channel=0 note=70 velocity=76 time=12
note_on channel=0 note=64 velocity=83 time=29
note_on channel=0 note=70 velocity=0 time=3
note_on channel=0 note=64 velocity=0 time=50
note_on channel=0 note=65 velocity=92 time=7
note_on channel=0 note=65 velocity=0 time=58
note_on channel=0 note=84 velocity=93 time=2
note_on channel=0 note=84 velocity=0 time=27
note_on channel=0 note=84 velocity=87 time=4
note_on channel=0 note=84 velocity=0 time=24
note_on channel=0 note=84 velocity=90 time=5
note_on channel=0 note=84 velocity=0 time=53
note_on channel=0 note=84 velocity=86 time=7
note_on channel=0 note=84 velocity=0 time=48
note_on channel=0 note=88 velocity=95 time=12
note_on channel=0 note=88 velocity=0 time=29
note_on channel=0 note=86 velocity=86 time=2
note_on channel=0 note=86 velocity=0 time=24
note_on channel=0 note=84 velocity=90 time=5
note_on channel=0 note=84 velocity=0 time=29
note_on channel=0 note=82 velocity=84 time=2
note_on channel=0 note=82 velocity=0 time=24
note_on channel=0 note=81 velocity=85 time=5
note_on channel=0 note=81 velocity=0 time=29
note_on channel=0 note=82 velocity=97 time=2
note_on channel=0 note=82 velocity=0 time=48
note_on channel=0 note=79 velocity=85 time=12
note_on channel=0 note=79 velocity=0 time=24
note_on channel=0 note=77 velocity=88 time=5
note_on channel=0 note=77 velocity=0 time=29
note_on channel=0 note=79 velocity=80 time=2
note_on channel=0 note=79 velocity=0 time=24
note_on channel=0 note=81 velocity=88 time=5
note_on channel=0 note=81 velocity=0 time=29
note_on channel=0 note=72 velocity=94 time=2
note_on channel=0 note=72 velocity=0 time=48
note_on channel=0 note=81 velocity=93 time=12
note_on channel=0 note=81 velocity=0 time=24
note_on channel=0 note=79 velocity=86 time=5
note_on channel=0 note=79 velocity=0 time=29
note_on channel=0 note=77 velocity=87 time=2
note_on channel=0 note=77 velocity=0 time=24
note_on channel=0 note=76 velocity=93 time=5
note_on channel=0 note=76 velocity=0 time=29
note_on channel=0 note=77 velocity=87 time=2
note_on channel=0 note=77 velocity=0 time=24
note_on channel=0 note=79 velocity=94 time=5
note_on channel=0 note=79 velocity=0 time=29
note_on channel=0 note=72 velocity=96 time=2
note_on channel=0 note=72 velocity=0 time=48
note_on channel=0 note=82 velocity=86 time=12
note_on channel=0 note=82 velocity=0 time=24
note_on channel=0 note=81 velocity=90 time=5
note_on channel=0 note=81 velocity=0 time=29
note_on channel=0 note=79 velocity=81 time=2
note_on channel=0 note=79 velocity=0 time=24
note_on channel=0 note=77 velocity=94 time=5
note_on channel=0 note=77 velocity=0 time=29
note_on channel=0 note=81 velocity=85 time=2
note_on channel=0 note=81 velocity=0 time=24
note_on channel=0 note=86 velocity=96 time=5
note_on channel=0 note=86 velocity=0 time=29
note_on channel=0 note=84 velocity=95 time=2
note_on channel=0 note=84 velocity=0 time=72
note_on channel=0 note=84 velocity=83 time=17
note_on channel=0 note=84 velocity=0 time=48
note_on channel=0 note=88 velocity=96 time=12
note_on channel=0 note=88 velocity=0 time=29
note_on channel=0 note=86 velocity=89 time=2
note_on channel=0 note=86 velocity=0 time=24
note_on channel=0 note=84 velocity=91 time=5
note_on channel=0 note=84 velocity=0 time=29
note_on channel=0 note=82 velocity=83 time=2
note_on channel=0 note=82 velocity=0 time=24
note_on channel=0 note=81 velocity=88 time=5
note_on channel=0 note=81 velocity=0 time=29
note_on channel=0 note=82 velocity=96 time=2
note_on channel=0 note=82 velocity=0 time=48
note_on channel=0 note=76 velocity=85 time=12
note_on channel=0 note=76 velocity=0 time=24
note_on channel=0 note=77 velocity=91 time=5
note_on channel=0 note=77 velocity=0 time=29
note_on channel=0 note=76 velocity=86 time=2
note_on channel=0 note=76 velocity=0 time=24
note_on channel=0 note=77 velocity=84 time=5
note_on channel=0 note=77 velocity=0 time=29
note_on channel=0 note=81 velocity=95 time=2
note_on channel=0 note=81 velocity=0 time=48
note_on channel=0 note=81 velocity=84 time=12
note_on channel=0 note=81 velocity=0 time=24
note_on channel=0 note=79 velocity=85 time=5
note_on channel=0 note=79 velocity=0 time=29
note_on channel=0 note=77 velocity=83 time=2
note_on channel=0 note=77 velocity=0 time=24
note_on channel=0 note=76 velocity=87 time=5
note_on channel=0 note=76 velocity=0 time=29
note_on channel=0 note=84 velocity=95 time=2
note_on channel=0 note=84 velocity=0 time=24
note_on channel=0 note=83 velocity=88 time=5
note_on channel=0 note=83 velocity=0 time=29
note_on channel=0 note=81 velocity=86 time=2
note_on channel=0 note=81 velocity=0 time=24
note_on channel=0 note=80 velocity=90 time=5
note_on channel=0 note=80 velocity=0 time=29
note_on channel=0 note=83 velocity=96 time=2
note_on channel=0 note=83 velocity=0 time=48
note_on channel=0 note=76 velocity=86 time=12
note_on channel=0 note=76 velocity=0 time=29
note_on channel=0 note=81 velocity=94 time=0
note_on channel=0 note=81 velocity=0 time=56
note_on channel=0 note=76 velocity=101 time=64
note_on channel=0 note=82 velocity=101 time=0
note_on channel=0 note=84 velocity=101 time=0
note_on channel=0 note=84 velocity=0 time=96
note_on channel=0 note=82 velocity=0 time=0
note_on channel=0 note=76 velocity=0 time=0
note_on channel=0 note=88 velocity=94 time=24
note_on channel=0 note=88 velocity=0 time=29
note_on channel=0 note=86 velocity=85 time=2
note_on channel=0 note=86 velocity=0 time=24
note_on channel=0 note=84 velocity=89 time=5
note_on channel=0 note=84 velocity=0 time=29
note_on channel=0 note=82 velocity=83 time=2
note_on channel=0 note=82 velocity=0 time=24
note_on channel=0 note=81 velocity=84 time=5
note_on channel=0 note=81 velocity=0 time=29
note_on channel=0 note=82 velocity=96 time=2
note_on channel=0 note=82 velocity=0 time=48
note_on channel=0 note=79 velocity=84 time=12
note_on channel=0 note=79 velocity=0 time=24
note_on channel=0 note=77 velocity=87 time=5
note_on channel=0 note=77 velocity=0 time=29
note_on channel=0 note=79 velocity=79 time=2
note_on channel=0 note=79 velocity=0 time=24
note_on channel=0 note=81 velocity=87 time=5
note_on channel=0 note=81 velocity=0 time=29
note_on channel=0 note=72 velocity=93 time=2
note_on channel=0 note=72 velocity=0 time=48
note_on channel=0 note=81 velocity=92 time=12
note_on channel=0 note=81 velocity=0 time=24
note_on channel=0 note=79 velocity=85 time=5
note_on channel=0 note=79 velocity=0 time=29
note_on channel=0 note=77 velocity=86 time=2
note_on channel=0 note=77 velocity=0 time=24
note_on channel=0 note=76 velocity=92 time=5
note_on channel=0 note=76 velocity=0 time=29
note_on channel=0 note=77 velocity=86 time=2
note_on channel=0 note=77 velocity=0 time=24
note_on channel=0 note=79 velocity=93 time=5
note_on channel=0 note=79 velocity=0 time=29
note_on channel=0 note=72 velocity=96 time=2
note_on channel=0 note=72 velocity=0 time=48
note_on channel=0 note=82 velocity=85 time=12
note_on channel=0 note=82 velocity=0 time=24
note_on channel=0 note=81 velocity=89 time=5
note_on channel=0 note=81 velocity=0 time=29
note_on channel=0 note=79 velocity=80 time=2
note_on channel=0 note=79 velocity=0 time=24
note_on channel=0 note=77 velocity=93 time=5
note_on channel=0 note=77 velocity=0 time=29
note_on channel=0 note=81 velocity=84 time=2
note_on channel=0 note=81 velocity=0 time=24
note_on channel=0 note=86 velocity=96 time=5
note_on channel=0 note=86 velocity=0 time=29
note_on channel=0 note=84 velocity=94 time=2
note_on channel=0 note=84 velocity=0 time=72
note_on channel=0 note=84 velocity=86 time=17
note_on channel=0 note=84 velocity=0 time=48
note_on channel=0 note=86 velocity=88 time=12
note_on channel=0 note=82 velocity=88 time=0
note_on channel=0 note=91 velocity=105 time=31
note_on channel=0 note=82 velocity=0 time=5
note_on channel=0 note=86 velocity=0 time=0
note_on channel=0 note=91 velocity=0 time=48
note_on channel=0 note=86 velocity=102 time=7
note_on channel=0 note=82 velocity=102 time=0
note_on channel=0 note=82 velocity=0 time=59
note_on channel=0 note=86 velocity=0 time=0
note_on channel=0 note=91 velocity=91 time=1
note_on channel=0 note=86 velocity=95 time=29
note_on channel=0 note=82 velocity=95 time=0
note_on channel=0 note=91 velocity=0 time=7
note_on channel=0 note=82 velocity=0 time=41
note_on channel=0 note=86 velocity=0 time=0
note_on channel=0 note=81 velocity=88 time=12
note_on channel=0 note=84 velocity=88 time=0
note_on channel=0 note=89 velocity=96 time=31
note_on channel=0 note=84 velocity=0 time=5
note_on channel=0 note=81 velocity=0 time=0
note_on channel=0 note=89 velocity=0 time=48
note_on channel=0 note=84 velocity=93 time=7
note_on channel=0 note=81 velocity=93 time=0
note_on channel=0 note=81 velocity=0 time=59
note_on channel=0 note=84 velocity=0 time=0
note_on channel=0 note=89 velocity=85 time=1
note_on channel=0 note=84 velocity=88 time=29
note_on channel=0 note=81 velocity=88 time=0
note_on channel=0 note=89 velocity=0 time=7
note_on channel=0 note=81 velocity=0 time=41
note_on channel=0 note=84 velocity=0 time=0
note_on channel=0 note=82 velocity=89 time=12
note_on channel=0 note=79 velocity=79 time=31
note_on channel=0 note=82 velocity=0 time=5
note_on channel=0 note=86 velocity=92 time=24
note_on channel=0 note=79 velocity=0 time=1
note_on channel=0 note=84 velocity=94 time=30
note_on channel=0 note=86 velocity=0 time=5
note_on channel=0 note=84 velocity=0 time=43
note_on channel=0 note=82 velocity=82 time=12
note_on channel=0 note=76 velocity=89 time=29
note_on channel=0 note=82 velocity=0 time=3
note_on channel=0 note=76 velocity=0 time=50
note_on channel=0 note=77 velocity=97 time=7
note_on channel=0 note=77 velocity=0 time=58
note_on channel=0 note=60 velocity=82 time=33
note_on channel=0 note=60 velocity=0 time=25
note_on channel=0 note=62 velocity=87 time=35
note_on channel=0 note=62 velocity=0 time=22
note_on channel=0 note=64 velocity=85 time=38
note_on channel=0 note=64 velocity=0 time=22
note_on channel=0 note=65 velocity=85 time=38
note_on channel=0 note=65 velocity=0 time=28
note_on channel=0 note=74 velocity=82 time=1
note_on channel=0 note=65 velocity=85 time=31
note_on channel=0 note=69 velocity=85 time=0
note_on channel=0 note=72 velocity=85 time=0
note_on channel=0 note=74 velocity=0 time=1
note_on channel=0 note=65 velocity=0 time=54
note_on channel=0 note=69 velocity=0 time=0
note_on channel=0 note=72 velocity=0 time=0
note_on channel=0 note=74 velocity=79 time=5
note_on channel=0 note=63 velocity=85 time=29
note_on channel=0 note=69 velocity=85 time=0
note_on channel=0 note=72 velocity=85 time=0
note_on channel=0 note=74 velocity=0 time=3
note_on channel=0 note=63 velocity=0 time=37
note_on channel=0 note=69 velocity=0 time=0
note_on channel=0 note=72 velocity=0 time=0
note_on channel=0 note=64 velocity=79 time=51
note_on channel=0 note=64 velocity=0 time=28
note_on channel=0 note=74 velocity=72 time=1
note_on channel=0 note=64 velocity=79 time=31
note_on channel=0 note=70 velocity=79 time=0
note_on channel=0 note=72 velocity=79 time=0
note_on channel=0 note=74 velocity=0 time=1
note_on channel=0 note=64 velocity=0 time=54
note_on channel=0 note=70 velocity=0 time=0
note_on channel=0 note=72 velocity=0 time=0
note_on channel=0 note=74 velocity=72 time=5
note_on channel=0 note=64 velocity=79 time=29
note_on channel=0 note=70 velocity=79 time=0
note_on channel=0 note=72 velocity=79 time=0
note_on channel=0 note=74 velocity=0 time=3
note_on channel=0 note=64 velocity=0 time=37
note_on channel=0 note=70 velocity=0 time=0
note_on channel=0 note=72 velocity=0 time=0
note_on channel=0 note=65 velocity=91 time=51
note_on channel=0 note=69 velocity=91 time=0
note_on channel=0 note=72 velocity=91 time=0
note_on channel=0 note=72 velocity=0 time=23
note_on channel=0 note=69 velocity=0 time=0
note_on channel=0 note=65 velocity=0 time=0
note_on channel=0 note=69 velocity=90 time=37
note_on channel=0 note=72 velocity=90 time=0
note_on channel=0 note=72 velocity=0 time=20
note_on channel=0 note=69 velocity=0 time=0
note_on channel=0 note=71 velocity=84 time=40
note_on channel=0 note=68 velocity=84 time=0
note_on channel=0 note=68 velocity=0 time=22
note_on channel=0 note=71 velocity=0 time=0
note_on channel=0 note=70 velocity=73 time=38
note_on channel=0 note=67 velocity=73 time=0
note_on channel=0 note=67 velocity=0 time=29
note_on channel=0 note=70 velocity=0 time=0
note_on channel=0 note=65 velocity=85 time=0
note_on channel=0 note=69 velocity=85 time=0
note_on channel=0 note=69 velocity=0 time=29
note_on channel=0 note=72 velocity=81 time=2
note_on channel=0 note=65 velocity=0 time=14
note_on channel=0 note=72 velocity=0 time=8
note_on channel=0 note=68 velocity=84 time=7
note_on channel=0 note=74 velocity=84 time=0
note_on channel=0 note=74 velocity=0 time=29
note_on channel=0 note=77 velocity=93 time=2
note_on channel=0 note=68 velocity=0 time=14
note_on channel=0 note=77 velocity=0 time=8
note_on channel=0 note=67 velocity=87 time=7
note_on channel=0 note=72 velocity=87 time=0
note_on channel=0 note=76 velocity=87 time=0
note_on channel=0 note=76 velocity=0 time=54
note_on channel=0 note=72 velocity=0 time=0
note_on channel=0 note=67 velocity=0 time=0
note_on channel=0 note=79 velocity=91 time=6
note_on channel=0 note=76 velocity=91 time=0
note_on channel=0 note=70 velocity=91 time=0
note_on channel=0 note=70 velocity=0 time=40
note_on channel=0 note=76 velocity=0 time=0
note_on channel=0 note=79 velocity=0 time=0
note_on channel=0 note=69 velocity=88 time=20
note_on channel=0 note=77 velocity=88 time=0
note_on channel=0 note=81 velocity=88 time=0
note_on channel=0 note=81 velocity=0 time=29
note_on channel=0 note=77 velocity=0 time=0
note_on channel=0 note=69 velocity=0 time=0
note_on channel=0 note=80 velocity=80 time=2
note_on channel=0 note=80 velocity=0 time=25
note_on channel=0 note=81 velocity=84 time=4
note_on channel=0 note=81 velocity=0 time=29
note_on channel=0 note=84 velocity=91 time=2
note_on channel=0 note=84 velocity=0 time=44
note_on channel=0 note=81 velocity=78 time=16
note_on channel=0 note=81 velocity=0 time=25
note_on channel=0 note=79 velocity=82 time=4
note_on channel=0 note=79 velocity=0 time=29
note_on channel=0 note=77 velocity=73 time=2
note_on channel=0 note=77 velocity=0 time=25
note_on channel=0 note=79 velocity=85 time=4
note_on channel=0 note=79 velocity=0 time=29
note_on channel=0 note=77 velocity=73 time=2
note_on channel=0 note=77 velocity=0 time=25
note_on channel=0 note=74 velocity=79 time=4
note_on channel=0 note=74 velocity=0 time=29
note_on channel=0 note=77 velocity=87 time=2
note_on channel=0 note=77 velocity=0 time=44
note_on channel=0 note=74 velocity=73 time=16
note_on channel=0 note=74 velocity=0 time=25
note_on channel=0 note=72 velocity=80 time=4
note_on channel=0 note=72 velocity=0 time=29
note_on channel=0 note=69 velocity=73 time=2
note_on channel=0 note=69 velocity=0 time=25
note_on channel=0 note=67 velocity=82 time=4
note_on channel=0 note=67 velocity=0 time=29
note_on channel=0 note=79 velocity=86 time=2
note_on channel=0 note=79 velocity=0 time=25
note_on channel=0 note=77 velocity=80 time=4
note_on channel=0 note=77 velocity=0 time=29
note_on channel=0 note=76 velocity=80 time=2
note_on channel=0 note=76 velocity=0 time=25
note_on channel=0 note=74 velocity=86 time=4
note_on channel=0 note=74 velocity=0 time=29
note_on channel=0 note=69 velocity=90 time=2
note_on channel=0 note=69 velocity=0 time=44
note_on channel=0 note=71 velocity=73 time=16
note_on channel=0 note=71 velocity=0 time=29
note_on channel=0 note=72 velocity=88 time=0
note_on channel=0 note=72 velocity=0 time=50
note_on channel=0 note=72 velocity=98 time=70
note_on channel=0 note=76 velocity=98 time=0
note_on channel=0 note=84 velocity=98 time=0
note_on channel=0 note=84 velocity=0 time=50
note_on channel=0 note=76 velocity=0 time=0
note_on channel=0 note=72 velocity=0 time=0
note_on channel=0 note=65 velocity=84 time=101
note_on channel=0 note=65 velocity=0 time=28
note_on channel=0 note=74 velocity=81 time=1
note_on channel=0 note=65 velocity=84 time=31
note_on channel=0 note=69 velocity=84 time=0
note_on channel=0 note=72 velocity=84 time=0
note_on channel=0 note=74 velocity=0 time=1
note_on channel=0 note=65 velocity=0 time=54
note_on channel=0 note=69 velocity=0 time=0
note_on channel=0 note=72 velocity=0 time=0
note_on channel=0 note=74 velocity=78 time=5
note_on channel=0 note=63 velocity=85 time=29
note_on channel=0 note=69 velocity=85 time=0
note_on channel=0 note=72 velocity=85 time=0
note_on channel=0 note=74 velocity=0 time=3
note_on channel=0 note=63 velocity=0 time=37
note_on channel=0 note=69 velocity=0 time=0
note_on channel=0 note=72 velocity=0 time=0
note_on channel=0 note=64 velocity=79 time=51
note_on channel=0 note=64 velocity=0 time=28
note_on channel=0 note=74 velocity=72 time=1
note_on channel=0 note=64 velocity=79 time=31
note_on channel=0 note=70 velocity=79 time=0
note_on channel=0 note=72 velocity=79 time=0
note_on channel=0 note=74 velocity=0 time=1
note_on channel=0 note=64 velocity=0 time=54
note_on channel=0 note=70 velocity=0 time=0
note_on channel=0 note=72 velocity=0 time=0
note_on channel=0 note=74 velocity=72 time=5
note_on channel=0 note=64 velocity=79 time=29
note_on channel=0 note=70 velocity=79 time=0
note_on channel=0 note=72 velocity=79 time=0
note_on channel=0 note=74 velocity=0 time=3
note_on channel=0 note=64 velocity=0 time=37
note_on channel=0 note=70 velocity=0 time=0
note_on channel=0 note=72 velocity=0 time=0
note_on channel=0 note=65 velocity=91 time=51
note_on channel=0 note=69 velocity=91 time=0
note_on channel=0 note=72 velocity=91 time=0
note_on channel=0 note=72 velocity=0 time=23
note_on channel=0 note=69 velocity=0 time=0
note_on channel=0 note=65 velocity=0 time=0
note_on channel=0 note=69 velocity=90 time=37
note_on channel=0 note=72 velocity=90 time=0
note_on channel=0 note=72 velocity=0 time=20
note_on channel=0 note=69 velocity=0 time=0
note_on channel=0 note=71 velocity=84 time=40
note_on channel=0 note=68 velocity=84 time=0
note_on channel=0 note=68 velocity=0 time=22
note_on channel=0 note=71 velocity=0 time=0
note_on channel=0 note=70 velocity=73 time=38
note_on channel=0 note=67 velocity=73 time=0
note_on channel=0 note=67 velocity=0 time=29
note_on channel=0 note=70 velocity=0 time=0
note_on channel=0 note=65 velocity=85 time=0
note_on channel=0 note=69 velocity=85 time=0
note_on channel=0 note=69 velocity=0 time=29
note_on channel=0 note=72 velocity=81 time=2
note_on channel=0 note=65 velocity=0 time=14
note_on channel=0 note=72 velocity=0 time=8
note_on channel=0 note=68 velocity=84 time=7
note_on channel=0 note=74 velocity=84 time=0
note_on channel=0 note=74 velocity=0 time=29
note_on channel=0 note=77 velocity=93 time=2
note_on channel=0 note=68 velocity=0 time=14
note_on channel=0 note=77 velocity=0 time=8
note_on channel=0 note=67 velocity=87 time=7
note_on channel=0 note=72 velocity=87 time=0
note_on channel=0 note=76 velocity=87 time=0
note_on channel=0 note=76 velocity=0 time=54
note_on channel=0 note=72 velocity=0 time=0
note_on channel=0 note=67 velocity=0 time=0
note_on channel=0 note=79 velocity=91 time=6
note_on channel=0 note=76 velocity=91 time=0
note_on channel=0 note=70 velocity=91 time=0
note_on channel=0 note=70 velocity=0 time=40
note_on channel=0 note=76 velocity=0 time=0
note_on channel=0 note=79 velocity=0 time=0
note_on channel=0 note=69 velocity=88 time=20
note_on channel=0 note=77 velocity=88 time=0
note_on channel=0 note=81 velocity=88 time=0
note_on channel=0 note=81 velocity=0 time=29
note_on channel=0 note=77 velocity=0 time=0
note_on channel=0 note=69 velocity=0 time=0
note_on channel=0 note=80 velocity=80 time=2
note_on channel=0 note=80 velocity=0 time=25
note_on channel=0 note=81 velocity=84 time=4
note_on channel=0 note=81 velocity=0 time=29
note_on channel=0 note=84 velocity=90 time=2
note_on channel=0 note=84 velocity=0 time=44
note_on channel=0 note=81 velocity=77 time=16
note_on channel=0 note=81 velocity=0 time=25
note_on channel=0 note=79 velocity=81 time=4
note_on channel=0 note=79 velocity=0 time=29
note_on channel=0 note=77 velocity=72 time=2
note_on channel=0 note=77 velocity=0 time=25
note_on channel=0 note=79 velocity=84 time=4
note_on channel=0 note=79 velocity=0 time=29
note_on channel=0 note=77 velocity=72 time=2
note_on channel=0 note=77 velocity=0 time=25
note_on channel=0 note=74 velocity=78 time=4
note_on channel=0 note=74 velocity=0 time=29
note_on channel=0 note=72 velocity=86 time=2
note_on channel=0 note=72 velocity=0 time=44
note_on channel=0 note=74 velocity=84 time=16
note_on channel=0 note=74 velocity=0 time=25
note_on channel=0 note=69 velocity=79 time=4
note_on channel=0 note=69 velocity=0 time=29
note_on channel=0 note=67 velocity=72 time=2
note_on channel=0 note=67 velocity=0 time=25
note_on channel=0 note=59 velocity=89 time=4
note_on channel=0 note=65 velocity=89 time=0
note_on channel=0 note=67 velocity=81 time=31
note_on channel=0 note=65 velocity=0 time=5
note_on channel=0 note=59 velocity=0 time=0
note_on channel=0 note=67 velocity=0 time=23
note_on channel=0 note=59 velocity=93 time=1
note_on channel=0 note=65 velocity=93 time=0
note_on channel=0 note=69 velocity=93 time=0
note_on channel=0 note=69 velocity=0 time=45
note_on channel=0 note=65 velocity=0 time=0
note_on channel=0 note=59 velocity=0 time=0
note_on channel=0 note=58 velocity=91 time=15
note_on channel=0 note=64 velocity=91 time=0
note_on channel=0 note=67 velocity=91 time=0
note_on channel=0 note=67 velocity=0 time=27
note_on channel=0 note=64 velocity=0 time=0
note_on channel=0 note=58 velocity=0 time=0
note_on channel=0 note=67 velocity=82 time=4
note_on channel=0 note=64 velocity=82 time=0
note_on channel=0 note=58 velocity=82 time=0
note_on channel=0 note=58 velocity=0 time=45
note_on channel=0 note=64 velocity=0 time=0
note_on channel=0 note=67 velocity=0 time=0
note_on channel=0 note=58 velocity=78 time=15
note_on channel=0 note=60 velocity=78 time=0
note_on channel=0 note=57 velocity=84 time=29
note_on channel=0 note=65 velocity=84 time=0
note_on channel=0 note=60 velocity=0 time=3
note_on channel=0 note=58 velocity=0 time=0
note_on channel=0 note=57 velocity=0 time=62
note_on channel=0 note=65 velocity=0 time=0
note_on channel=0 note=69 velocity=91 time=55
note_on channel=0 note=75 velocity=91 time=0
note_on channel=0 note=77 velocity=91 time=0
note_on channel=0 note=77 velocity=0 time=91
note_on channel=0 note=75 velocity=0 time=0
note_on channel=0 note=69 velocity=0 time=0
note_on channel=0 note=70 velocity=80 time=29
note_on channel=0 note=74 velocity=80 time=0
note_on channel=0 note=74 velocity=0 time=31
note_on channel=0 note=70 velocity=0 time=0
note_on channel=0 note=79 velocity=73 time=0
note_on channel=0 note=79 velocity=0 time=26
note_on channel=0 note=77 velocity=80 time=3
note_on channel=0 note=77 velocity=0 time=31
note_on channel=0 note=75 velocity=72 time=0
note_on channel=0 note=75 velocity=0 time=26
note_on channel=0 note=74 velocity=78 time=3
note_on channel=0 note=74 velocity=0 time=31
note_on channel=0 note=72 velocity=72 time=0
note_on channel=0 note=72 velocity=0 time=26
note_on channel=0 note=70 velocity=72 time=3
note_on channel=0 note=70 velocity=0 time=31
note_on channel=0 note=74 velocity=82 time=0
note_on channel=0 note=74 velocity=0 time=26
note_on channel=0 note=72 velocity=84 time=3
note_on channel=0 note=72 velocity=0 time=31
note_on channel=0 note=70 velocity=75 time=0
note_on channel=0 note=70 velocity=0 time=26
note_on channel=0 note=67 velocity=80 time=3
note_on channel=0 note=67 velocity=0 time=31
note_on channel=0 note=65 velocity=87 time=0
note_on channel=0 note=65 velocity=0 time=52
note_on channel=0 note=82 velocity=92 time=8
note_on channel=0 note=82 velocity=0 time=52
note_on channel=0 note=79 velocity=77 time=8
note_on channel=0 note=79 velocity=0 time=26
note_on channel=0 note=77 velocity=80 time=3
note_on channel=0 note=77 velocity=0 time=31
note_on channel=0 note=79 velocity=77 time=0
note_on channel=0 note=79 velocity=0 time=26
note_on channel=0 note=77 velocity=80 time=3
note_on channel=0 note=77 velocity=0 time=31
note_on channel=0 note=74 velocity=76 time=0
note_on channel=0 note=74 velocity=0 time=26
note_on channel=0 note=70 velocity=78 time=3
note_on channel=0 note=70 velocity=0 time=31
note_on channel=0 note=72 velocity=74 time=0
note_on channel=0 note=72 velocity=0 time=26
note_on channel=0 note=74 velocity=80 time=3
note_on channel=0 note=74 velocity=0 time=31
note_on channel=0 note=72 velocity=83 time=0
note_on channel=0 note=69 velocity=83 time=0
note_on channel=0 note=69 velocity=0 time=195
note_on channel=0 note=72 velocity=0 time=0
note_on channel=0 note=65 velocity=73 time=14
note_on channel=0 note=65 velocity=0 time=52
note_on channel=0 note=74 velocity=79 time=8
note_on channel=0 note=74 velocity=0 time=31
note_on channel=0 note=79 velocity=76 time=0
note_on channel=0 note=79 velocity=0 time=26
note_on channel=0 note=77 velocity=79 time=3
note_on channel=0 note=77 velocity=0 time=31
note_on channel=0 note=75 velocity=75 time=0
note_on channel=0 note=75 velocity=0 time=26
note_on channel=0 note=74 velocity=82 time=3
note_on channel=0 note=74 velocity=0 time=31
note_on channel=0 note=75 velocity=76 time=0
note_on channel=0 note=75 velocity=0 time=26
note_on channel=0 note=74 velocity=78 time=3
note_on channel=0 note=74 velocity=0 time=31
note_on channel=0 note=72 velocity=74 time=0
note_on channel=0 note=72 velocity=0 time=26
note_on channel=0 note=70 velocity=84 time=3
note_on channel=0 note=70 velocity=0 time=31
note_on channel=0 note=69 velocity=74 time=0
note_on channel=0 note=69 velocity=0 time=26
note_on channel=0 note=67 velocity=76 time=3
note_on channel=0 note=67 velocity=0 time=31
note_on channel=0 note=70 velocity=86 time=0
note_on channel=0 note=70 velocity=0 time=52
note_on channel=0 note=74 velocity=81 time=8
note_on channel=0 note=74 velocity=0 time=26
note_on channel=0 note=72 velocity=74 time=3
note_on channel=0 note=72 velocity=0 time=31
note_on channel=0 note=70 velocity=75 time=0
note_on channel=0 note=70 velocity=0 time=26
note_on channel=0 note=69 velocity=81 time=3
note_on channel=0 note=69 velocity=0 time=31
note_on channel=0 note=74 velocity=78 time=0
note_on channel=0 note=74 velocity=0 time=26
note_on channel=0 note=77 velocity=78 time=3
note_on channel=0 note=77 velocity=0 time=31
note_on channel=0 note=81 velocity=90 time=0
note_on channel=0 note=81 velocity=0 time=26
note_on channel=0 note=79 velocity=82 time=3
note_on channel=0 note=79 velocity=0 time=31
note_on channel=0 note=77 velocity=89 time=0
note_on channel=0 note=77 velocity=0 time=52
note_on channel=0 note=76 velocity=83 time=8
note_on channel=0 note=74 velocity=88 time=29
note_on channel=0 note=76 velocity=0 time=2
note_on channel=0 note=74 velocity=0 time=61
note_on channel=0 note=69 velocity=93 time=57
note_on channel=0 note=75 velocity=93 time=0
note_on channel=0 note=77 velocity=93 time=0
note_on channel=0 note=77 velocity=0 time=103
note_on channel=0 note=75 velocity=0 time=0
note_on channel=0 note=69 velocity=0 time=0
note_on channel=0 note=70 velocity=79 time=17
note_on channel=0 note=74 velocity=79 time=0
note_on channel=0 note=74 velocity=0 time=31
note_on channel=0 note=70 velocity=0 time=0
note_on channel=0 note=79 velocity=72 time=0
note_on channel=0 note=79 velocity=0 time=26
note_on channel=0 note=77 velocity=79 time=3
note_on channel=0 note=77 velocity=0 time=31
note_on channel=0 note=75 velocity=72 time=0
note_on channel=0 note=75 velocity=0 time=26
note_on channel=0 note=74 velocity=77 time=3
note_on channel=0 note=74 velocity=0 time=31
note_on channel=0 note=72 velocity=72 time=0
note_on channel=0 note=72 velocity=0 time=26
note_on channel=0 note=70 velocity=72 time=3
note_on channel=0 note=70 velocity=0 time=31
note_on channel=0 note=74 velocity=81 time=0
note_on channel=0 note=74 velocity=0 time=26
note_on channel=0 note=72 velocity=83 time=3
note_on channel=0 note=72 velocity=0 time=31
note_on channel=0 note=70 velocity=74 time=0
note_on channel=0 note=70 velocity=0 time=26
note_on channel=0 note=67 velocity=79 time=3
note_on channel=0 note=67 velocity=0 time=31
note_on channel=0 note=65 velocity=86 time=0
note_on channel=0 note=65 velocity=0 time=52
note_on channel=0 note=82 velocity=91 time=8
note_on channel=0 note=82 velocity=0 time=52
note_on channel=0 note=79 velocity=76 time=8
note_on channel=0 note=79 velocity=0 time=26
note_on channel=0 note=77 velocity=79 time=3
note_on channel=0 note=77 velocity=0 time=31
note_on channel=0 note=79 velocity=76 time=0
note_on channel=0 note=79 velocity=0 time=26
note_on channel=0 note=77 velocity=79 time=3
note_on channel=0 note=77 velocity=0 time=31
note_on channel=0 note=74 velocity=75 time=0
note_on channel=0 note=74 velocity=0 time=26
note_on channel=0 note=70 velocity=77 time=3
note_on channel=0 note=70 velocity=0 time=31
note_on channel=0 note=72 velocity=73 time=0
note_on channel=0 note=72 velocity=0 time=26
note_on channel=0 note=74 velocity=79 time=3
note_on channel=0 note=74 velocity=0 time=31
note_on channel=0 note=72 velocity=82 time=0
note_on channel=0 note=69 velocity=82 time=0
note_on channel=0 note=69 velocity=0 time=195
note_on channel=0 note=72 velocity=0 time=0
note_on channel=0 note=65 velocity=72 time=14
note_on channel=0 note=65 velocity=0 time=52
note_on channel=0 note=74 velocity=78 time=8
note_on channel=0 note=74 velocity=0 time=29
note_on channel=0 note=73 velocity=72 time=2
note_on channel=0 note=73 velocity=0 time=24
note_on channel=0 note=74 velocity=77 time=5
note_on channel=0 note=74 velocity=0 time=29
note_on channel=0 note=75 velocity=75 time=2
note_on channel=0 note=75 velocity=0 time=24
note_on channel=0 note=77 velocity=80 time=5
note_on channel=0 note=77 velocity=0 time=29
note_on channel=0 note=76 velocity=75 time=2
note_on channel=0 note=76 velocity=0 time=24
note_on channel=0 note=77 velocity=78 time=5
note_on channel=0 note=77 velocity=0 time=29
note_on channel=0 note=78 velocity=75 time=2
note_on channel=0 note=78 velocity=0 time=24
note_on channel=0 note=79 velocity=87 time=5
note_on channel=0 note=79 velocity=0 time=29
note_on channel=0 note=78 velocity=77 time=2
note_on channel=0 note=78 velocity=0 time=24
note_on channel=0 note=79 velocity=82 time=5
note_on channel=0 note=79 velocity=0 time=29
note_on channel=0 note=82 velocity=91 time=2
note_on channel=0 note=82 velocity=0 time=48
note_on channel=0 note=82 velocity=86 time=12
note_on channel=0 note=82 velocity=0 time=24
note_on channel=0 note=81 velocity=87 time=5
note_on channel=0 note=81 velocity=0 time=29
note_on channel=0 note=79 velocity=79 time=2
note_on channel=0 note=79 velocity=0 time=24
note_on channel=0 note=77 velocity=81 time=5
note_on channel=0 note=77 velocity=0 time=29
note_on channel=0 note=86 velocity=88 time=2
note_on channel=0 note=86 velocity=0 time=24
note_on channel=0 note=82 velocity=78 time=5
note_on channel=0 note=82 velocity=0 time=29
note_on channel=0 note=77 velocity=71 time=2
note_on channel=0 note=77 velocity=0 time=24
note_on channel=0 note=79 velocity=80 time=5
note_on channel=0 note=79 velocity=0 time=29
note_on channel=0 note=75 velocity=75 time=2
note_on channel=0 note=75 velocity=0 time=24
note_on channel=0 note=72 velocity=80 time=5
note_on channel=0 note=72 velocity=0 time=29
note_on channel=0 note=69 velocity=75 time=2
note_on channel=0 note=69 velocity=0 time=24
note_on channel=0 note=70 velocity=81 time=5
note_on channel=0 note=70 velocity=0 time=48
note_on channel=0 note=64 velocity=77 time=12
note_on channel=0 note=65 velocity=72 time=31
note_on channel=0 note=64 velocity=0 time=8
note_on channel=0 note=67 velocity=83 time=21
note_on channel=0 note=65 velocity=0 time=3
note_on channel=0 note=69 velocity=78 time=28
note_on channel=0 note=67 velocity=0 time=8
note_on channel=0 note=70 velocity=84 time=21
note_on channel=0 note=69 velocity=0 time=3
note_on channel=0 note=72 velocity=78 time=28
note_on channel=0 note=70 velocity=0 time=8
note_on channel=0 note=70 velocity=86 time=21
note_on channel=0 note=74 velocity=86 time=0
note_on channel=0 note=72 velocity=0 time=3
note_on channel=0 note=74 velocity=0 time=28
note_on channel=0 note=70 velocity=0 time=0
note_on channel=0 note=79 velocity=79 time=0
note_on channel=0 note=79 velocity=0 time=26
note_on channel=0 note=77 velocity=86 time=3
note_on channel=0 note=77 velocity=0 time=31
note_on channel=0 note=75 velocity=77 time=0
note_on channel=0 note=75 velocity=0 time=26
note_on channel=0 note=74 velocity=84 time=3
note_on channel=0 note=74 velocity=0 time=31
note_on channel=0 note=72 velocity=77 time=0
note_on channel=0 note=72 velocity=0 time=26
note_on channel=0 note=70 velocity=78 time=3
note_on channel=0 note=70 velocity=0 time=31
note_on channel=0 note=74 velocity=88 time=0
note_on channel=0 note=74 velocity=0 time=26
note_on channel=0 note=72 velocity=90 time=3
note_on channel=0 note=72 velocity=0 time=31
note_on channel=0 note=70 velocity=81 time=0
note_on channel=0 note=70 velocity=0 time=26
note_on channel=0 note=67 velocity=86 time=3
note_on channel=0 note=67 velocity=0 time=31
note_on channel=0 note=65 velocity=93 time=0
note_on channel=0 note=65 velocity=0 time=52
note_on channel=0 note=82 velocity=97 time=8
note_on channel=0 note=82 velocity=0 time=52
note_on channel=0 note=79 velocity=83 time=8
note_on channel=0 note=79 velocity=0 time=26
note_on channel=0 note=77 velocity=86 time=3
note_on channel=0 note=77 velocity=0 time=31
note_on channel=0 note=79 velocity=83 time=0
note_on channel=0 note=79 velocity=0 time=26
note_on channel=0 note=77 velocity=86 time=3
note_on channel=0 note=77 velocity=0 time=31
note_on channel=0 note=74 velocity=82 time=0
note_on channel=0 note=74 velocity=0 time=26
note_on channel=0 note=70 velocity=84 time=3
note_on channel=0 note=70 velocity=0 time=31
note_on channel=0 note=72 velocity=80 time=0
note_on channel=0 note=72 velocity=0 time=26
note_on channel=0 note=74 velocity=86 time=3
note_on channel=0 note=74 velocity=0 time=31
note_on channel=0 note=72 velocity=89 time=0
note_on channel=0 note=69 velocity=89 time=0
note_on channel=0 note=69 velocity=0 time=195
note_on channel=0 note=72 velocity=0 time=0
note_on channel=0 note=65 velocity=78 time=14
note_on channel=0 note=65 velocity=0 time=52
note_on channel=0 note=74 velocity=84 time=8
note_on channel=0 note=74 velocity=0 time=31
note_on channel=0 note=79 velocity=81 time=0
note_on channel=0 note=79 velocity=0 time=26
note_on channel=0 note=77 velocity=84 time=3
note_on channel=0 note=77 velocity=0 time=31
note_on channel=0 note=75 velocity=80 time=0
note_on channel=0 note=75 velocity=0 time=26
note_on channel=0 note=74 velocity=87 time=3
note_on channel=0 note=74 velocity=0 time=31
note_on channel=0 note=75 velocity=81 time=0
note_on channel=0 note=75 velocity=0 time=26
note_on channel=0 note=74 velocity=83 time=3
note_on channel=0 note=74 velocity=0 time=31
note_on channel=0 note=72 velocity=79 time=0
note_on channel=0 note=72 velocity=0 time=26
note_on channel=0 note=70 velocity=89 time=3
note_on channel=0 note=70 velocity=0 time=31
note_on channel=0 note=69 velocity=79 time=0
note_on channel=0 note=69 velocity=0 time=26
note_on channel=0 note=67 velocity=81 time=3
note_on channel=0 note=67 velocity=0 time=31
note_on channel=0 note=70 velocity=91 time=0
note_on channel=0 note=70 velocity=0 time=52
note_on channel=0 note=74 velocity=86 time=8
note_on channel=0 note=74 velocity=0 time=26
note_on channel=0 note=72 velocity=79 time=3
note_on channel=0 note=72 velocity=0 time=31
note_on channel=0 note=70 velocity=80 time=0
note_on channel=0 note=70 velocity=0 time=26
note_on channel=0 note=69 velocity=86 time=3
note_on channel=0 note=69 velocity=0 time=31
note_on channel=0 note=74 velocity=83 time=0
note_on channel=0 note=74 velocity=0 time=26
note_on channel=0 note=77 velocity=83 time=3
note_on channel=0 note=77 velocity=0 time=31
note_on channel=0 note=81 velocity=95 time=0
note_on channel=0 note=81 velocity=0 time=26
note_on channel=0 note=79 velocity=87 time=3
note_on channel=0 note=79 velocity=0 time=31
note_on channel=0 note=77 velocity=94 time=0
note_on channel=0 note=77 velocity=0 time=52
note_on channel=0 note=76 velocity=88 time=8
note_on channel=0 note=74 velocity=93 time=29
note_on channel=0 note=76 velocity=0 time=2
note_on channel=0 note=74 velocity=0 time=61
note_on channel=0 note=69 velocity=98 time=57
note_on channel=0 note=75 velocity=98 time=0
note_on channel=0 note=77 velocity=98 time=0
note_on channel=0 note=77 velocity=0 time=103
note_on channel=0 note=75 velocity=0 time=0
note_on channel=0 note=69 velocity=0 time=0
note_on channel=0 note=70 velocity=85 time=17
note_on channel=0 note=74 velocity=85 time=0
note_on channel=0 note=74 velocity=0 time=31
note_on channel=0 note=70 velocity=0 time=0
note_on channel=0 note=79 velocity=78 time=0
note_on channel=0 note=79 velocity=0 time=26
note_on channel=0 note=77 velocity=85 time=3
note_on channel=0 note=77 velocity=0 time=31
note_on channel=0 note=75 velocity=76 time=0
note_on channel=0 note=75 velocity=0 time=26
note_on channel=0 note=74 velocity=83 time=3
note_on channel=0 note=74 velocity=0 time=31
note_on channel=0 note=72 velocity=76 time=0
note_on channel=0 note=72 velocity=0 time=26
note_on channel=0 note=70 velocity=77 time=3
note_on channel=0 note=70 velocity=0 time=31
note_on channel=0 note=74 velocity=87 time=0
note_on channel=0 note=74 velocity=0 time=26
note_on channel=0 note=72 velocity=89 time=3
note_on channel=0 note=72 velocity=0 time=31
note_on channel=0 note=70 velocity=80 time=0
note_on channel=0 note=70 velocity=0 time=26
note_on channel=0 note=67 velocity=85 time=3
note_on channel=0 note=67 velocity=0 time=31
note_on channel=0 note=65 velocity=92 time=0
note_on channel=0 note=65 velocity=0 time=52
note_on channel=0 note=82 velocity=96 time=8
note_on channel=0 note=82 velocity=0 time=52
note_on channel=0 note=79 velocity=82 time=8
note_on channel=0 note=79 velocity=0 time=26
note_on channel=0 note=77 velocity=85 time=3
note_on channel=0 note=77 velocity=0 time=31
note_on channel=0 note=79 velocity=82 time=0
note_on channel=0 note=79 velocity=0 time=26
note_on channel=0 note=77 velocity=85 time=3
note_on channel=0 note=77 velocity=0 time=31
note_on channel=0 note=74 velocity=81 time=0
note_on channel=0 note=74 velocity=0 time=26
note_on channel=0 note=70 velocity=83 time=3
note_on channel=0 note=70 velocity=0 time=31
note_on channel=0 note=72 velocity=79 time=0
note_on channel=0 note=72 velocity=0 time=26
note_on channel=0 note=74 velocity=85 time=3
note_on channel=0 note=74 velocity=0 time=31
note_on channel=0 note=72 velocity=88 time=0
note_on channel=0 note=69 velocity=88 time=0
note_on channel=0 note=69 velocity=0 time=195
note_on channel=0 note=72 velocity=0 time=0
note_on channel=0 note=65 velocity=78 time=14
note_on channel=0 note=65 velocity=0 time=52
note_on channel=0 note=74 velocity=84 time=8
note_on channel=0 note=74 velocity=0 time=29
note_on channel=0 note=73 velocity=77 time=2
note_on channel=0 note=73 velocity=0 time=24
note_on channel=0 note=74 velocity=83 time=5
note_on channel=0 note=74 velocity=0 time=29
note_on channel=0 note=75 velocity=81 time=2
note_on channel=0 note=75 velocity=0 time=24
note_on channel=0 note=77 velocity=86 time=5
note_on channel=0 note=77 velocity=0 time=29
note_on channel=0 note=76 velocity=81 time=2
note_on channel=0 note=76 velocity=0 time=24
note_on channel=0 note=77 velocity=84 time=5
note_on channel=0 note=77 velocity=0 time=29
note_on channel=0 note=78 velocity=81 time=2
note_on channel=0 note=78 velocity=0 time=24
note_on channel=0 note=79 velocity=93 time=5
note_on channel=0 note=79 velocity=0 time=29
note_on channel=0 note=78 velocity=83 time=2
note_on channel=0 note=78 velocity=0 time=24
note_on channel=0 note=79 velocity=88 time=5
note_on channel=0 note=79 velocity=0 time=29
note_on channel=0 note=82 velocity=96 time=2
note_on channel=0 note=82 velocity=0 time=48
note_on channel=0 note=82 velocity=92 time=12
note_on channel=0 note=82 velocity=0 time=24
note_on channel=0 note=81 velocity=93 time=5
note_on channel=0 note=81 velocity=0 time=29
note_on channel=0 note=79 velocity=85 time=2
note_on channel=0 note=79 velocity=0 time=24
note_on channel=0 note=77 velocity=87 time=5
note_on channel=0 note=77 velocity=0 time=29
note_on channel=0 note=86 velocity=94 time=2
note_on channel=0 note=86 velocity=0 time=24
note_on channel=0 note=82 velocity=84 time=5
note_on channel=0 note=82 velocity=0 time=29
note_on channel=0 note=77 velocity=74 time=2
note_on channel=0 note=77 velocity=0 time=24
note_on channel=0 note=79 velocity=86 time=5
note_on channel=0 note=79 velocity=0 time=29
note_on channel=0 note=75 velocity=81 time=2
note_on channel=0 note=75 velocity=0 time=24
note_on channel=0 note=72 velocity=86 time=5
note_on channel=0 note=72 velocity=0 time=29
note_on channel=0 note=69 velocity=81 time=2
note_on channel=0 note=69 velocity=0 time=24
note_on channel=0 note=70 velocity=72 time=5
note_on channel=0 note=70 velocity=0 time=120
note_on channel=0 note=70 velocity=84 time=91
note_on channel=0 note=82 velocity=84 time=0
note_on channel=0 note=82 velocity=0 time=57
note_on channel=0 note=70 velocity=0 time=0
note_on channel=0 note=75 velocity=72 time=3
note_on channel=0 note=75 velocity=0 time=29
note_on channel=0 note=84 velocity=85 time=0
note_on channel=0 note=72 velocity=85 time=0
note_on channel=0 note=75 velocity=72 time=31
note_on channel=0 note=72 velocity=0 time=3
note_on channel=0 note=84 velocity=0 time=0
note_on channel=0 note=75 velocity=0 time=26
note_on channel=0 note=79 velocity=79 time=0
note_on channel=0 note=82 velocity=87 time=31
note_on channel=0 note=70 velocity=87 time=0
note_on channel=0 note=79 velocity=0 time=3
note_on channel=0 note=70 velocity=0 time=47
note_on channel=0 note=82 velocity=0 time=0
note_on channel=0 note=75 velocity=72 time=10
note_on channel=0 note=75 velocity=0 time=29
note_on channel=0 note=84 velocity=85 time=0
note_on channel=0 note=72 velocity=85 time=0
note_on channel=0 note=75 velocity=72 time=31
note_on channel=0 note=72 velocity=0 time=3
note_on channel=0 note=84 velocity=0 time=0
note_on channel=0 note=75 velocity=0 time=26
note_on channel=0 note=79 velocity=79 time=0
note_on channel=0 note=82 velocity=84 time=31
note_on channel=0 note=70 velocity=84 time=0
note_on channel=0 note=79 velocity=0 time=3
note_on channel=0 note=72 velocity=95 time=57
note_on channel=0 note=84 velocity=95 time=0
note_on channel=0 note=70 velocity=0 time=1
note_on channel=0 note=82 velocity=0 time=0
note_on channel=0 note=72 velocity=0 time=49
note_on channel=0 note=84 velocity=0 time=0
note_on channel=0 note=82 velocity=72 time=10
note_on channel=0 note=70 velocity=72 time=0
note_on channel=0 note=70 velocity=0 time=29
note_on channel=0 note=82 velocity=0 time=0
note_on channel=0 note=77 velocity=82 time=0
note_on channel=0 note=65 velocity=82 time=0
note_on channel=0 note=70 velocity=72 time=31
note_on channel=0 note=65 velocity=0 time=3
note_on channel=0 note=77 velocity=0 time=0
note_on channel=0 note=70 velocity=0 time=26
note_on channel=0 note=79 velocity=82 time=0
note_on channel=0 note=67 velocity=82 time=0
note_on channel=0 note=70 velocity=72 time=31
note_on channel=0 note=67 velocity=0 time=3
note_on channel=0 note=79 velocity=0 time=0
note_on channel=0 note=70 velocity=0 time=26
note_on channel=0 note=74 velocity=80 time=0
note_on channel=0 note=77 velocity=93 time=31
note_on channel=0 note=65 velocity=93 time=0
note_on channel=0 note=74 velocity=0 time=3
note_on channel=0 note=65 velocity=0 time=47
note_on channel=0 note=77 velocity=0 time=0
note_on channel=0 note=70 velocity=72 time=10
note_on channel=0 note=70 velocity=0 time=29
note_on channel=0 note=79 velocity=84 time=0
note_on channel=0 note=67 velocity=84 time=0
note_on channel=0 note=70 velocity=72 time=31
note_on channel=0 note=67 velocity=0 time=3
note_on channel=0 note=79 velocity=0 time=0
note_on channel=0 note=70 velocity=0 time=26
note_on channel=0 note=74 velocity=81 time=0
note_on channel=0 note=77 velocity=88 time=31
note_on channel=0 note=65 velocity=88 time=0
note_on channel=0 note=74 velocity=0 time=3
note_on channel=0 note=67 velocity=95 time=57
note_on channel=0 note=79 velocity=95 time=0
note_on channel=0 note=65 velocity=0 time=1
note_on channel=0 note=77 velocity=0 time=0
note_on channel=0 note=67 velocity=0 time=49
note_on channel=0 note=79 velocity=0 time=0
note_on channel=0 note=70 velocity=72 time=10
note_on channel=0 note=70 velocity=0 time=29
note_on channel=0 note=77 velocity=83 time=0
note_on channel=0 note=65 velocity=83 time=0
note_on channel=0 note=69 velocity=78 time=31
note_on channel=0 note=65 velocity=0 time=3
note_on channel=0 note=77 velocity=0 time=0
note_on channel=0 note=69 velocity=0 time=26
note_on channel=0 note=79 velocity=86 time=0
note_on channel=0 note=67 velocity=86 time=0
note_on channel=0 note=69 velocity=72 time=31
note_on channel=0 note=67 velocity=0 time=3
note_on channel=0 note=79 velocity=0 time=0
note_on channel=0 note=69 velocity=0 time=26
note_on channel=0 note=72 velocity=80 time=0
note_on channel=0 note=77 velocity=86 time=31
note_on channel=0 note=65 velocity=86 time=0
note_on channel=0 note=72 velocity=0 time=3
note_on channel=0 note=65 velocity=0 time=47
note_on channel=0 note=77 velocity=0 time=0
note_on channel=0 note=69 velocity=72 time=10
note_on channel=0 note=69 velocity=0 time=29
note_on channel=0 note=79 velocity=80 time=0
note_on channel=0 note=67 velocity=80 time=0
note_on channel=0 note=69 velocity=72 time=31
note_on channel=0 note=67 velocity=0 time=3
note_on channel=0 note=79 velocity=0 time=0
note_on channel=0 note=69 velocity=0 time=26
note_on channel=0 note=72 velocity=76 time=0
note_on channel=0 note=77 velocity=81 time=31
note_on channel=0 note=65 velocity=81 time=0
note_on channel=0 note=72 velocity=0 time=3
note_on channel=0 note=79 velocity=90 time=57
note_on channel=0 note=67 velocity=90 time=0
note_on channel=0 note=65 velocity=0 time=1
note_on channel=0 note=77 velocity=0 time=0
note_on channel=0 note=79 velocity=0 time=49
note_on channel=0 note=67 velocity=0 time=0
note_on channel=0 note=69 velocity=72 time=10
note_on channel=0 note=69 velocity=0 time=29
note_on channel=0 note=77 velocity=82 time=0
note_on channel=0 note=65 velocity=82 time=0
note_on channel=0 note=70 velocity=76 time=31
note_on channel=0 note=65 velocity=0 time=3
note_on channel=0 note=77 velocity=0 time=0
note_on channel=0 note=70 velocity=0 time=26
note_on channel=0 note=79 velocity=88 time=0
note_on channel=0 note=67 velocity=88 time=0
note_on channel=0 note=70 velocity=78 time=31
note_on channel=0 note=67 velocity=0 time=3
note_on channel=0 note=79 velocity=0 time=0
note_on channel=0 note=70 velocity=0 time=26
note_on channel=0 note=74 velocity=84 time=0
note_on channel=0 note=77 velocity=91 time=31
note_on channel=0 note=65 velocity=91 time=0
note_on channel=0 note=74 velocity=0 time=3
note_on channel=0 note=65 velocity=0 time=47
note_on channel=0 note=77 velocity=0 time=0
note_on channel=0 note=70 velocity=72 time=10
note_on channel=0 note=70 velocity=0 time=29
note_on channel=0 note=79 velocity=83 time=0
note_on channel=0 note=67 velocity=83 time=0
note_on channel=0 note=70 velocity=72 time=31
note_on channel=0 note=67 velocity=0 time=3
note_on channel=0 note=79 velocity=0 time=0
note_on channel=0 note=70 velocity=0 time=26
note_on channel=0 note=74 velocity=77 time=0
note_on channel=0 note=77 velocity=89 time=31
note_on channel=0 note=65 velocity=89 time=0
note_on channel=0 note=74 velocity=0 time=3
note_on channel=0 note=65 velocity=0 time=52
note_on channel=0 note=77 velocity=0 time=0
note_on channel=0 note=77 velocity=84 time=5
note_on channel=0 note=65 velocity=84 time=0
note_on channel=0 note=65 velocity=0 time=50
note_on channel=0 note=77 velocity=0 time=0
note_on channel=0 note=82 velocity=89 time=10
note_on channel=0 note=70 velocity=89 time=0
note_on channel=0 note=70 velocity=0 time=56
note_on channel=0 note=82 velocity=0 time=0
note_on channel=0 note=75 velocity=72 time=4
note_on channel=0 note=75 velocity=0 time=28
note_on channel=0 note=84 velocity=82 time=1
note_on channel=0 note=72 velocity=82 time=0
note_on channel=0 note=75 velocity=74 time=31
note_on channel=0 note=72 velocity=0 time=2
note_on channel=0 note=84 velocity=0 time=0
note_on channel=0 note=75 velocity=0 time=26
note_on channel=0 note=79 velocity=77 time=1
note_on channel=0 note=82 velocity=90 time=31
note_on channel=0 note=70 velocity=90 time=0
note_on channel=0 note=79 velocity=0 time=2
note_on channel=0 note=70 velocity=0 time=48
note_on channel=0 note=82 velocity=0 time=0
note_on channel=0 note=75 velocity=72 time=10
note_on channel=0 note=75 velocity=0 time=28
note_on channel=0 note=84 velocity=83 time=1
note_on channel=0 note=72 velocity=83 time=0
note_on channel=0 note=75 velocity=72 time=31
note_on channel=0 note=72 velocity=0 time=2
note_on channel=0 note=84 velocity=0 time=0
note_on channel=0 note=75 velocity=0 time=26
note_on channel=0 note=79 velocity=77 time=1
note_on channel=0 note=82 velocity=81 time=31
note_on channel=0 note=70 velocity=81 time=0
note_on channel=0 note=79 velocity=0 time=2
note_on channel=0 note=72 velocity=91 time=58
note_on channel=0 note=84 velocity=91 time=0
note_on channel=0 note=70 velocity=0 time=1
note_on channel=0 note=82 velocity=0 time=0
note_on channel=0 note=72 velocity=0 time=49
note_on channel=0 note=84 velocity=0 time=0
note_on channel=0 note=82 velocity=72 time=10
note_on channel=0 note=70 velocity=72 time=0
note_on channel=0 note=70 velocity=0 time=28
note_on channel=0 note=82 velocity=0 time=0
note_on channel=0 note=77 velocity=79 time=1
note_on channel=0 note=65 velocity=79 time=0
note_on channel=0 note=70 velocity=72 time=31
note_on channel=0 note=65 velocity=0 time=2
note_on channel=0 note=77 velocity=0 time=0
note_on channel=0 note=70 velocity=0 time=26
note_on channel=0 note=79 velocity=79 time=1
note_on channel=0 note=67 velocity=79 time=0
note_on channel=0 note=70 velocity=74 time=31
note_on channel=0 note=67 velocity=0 time=2
note_on channel=0 note=79 velocity=0 time=0
note_on channel=0 note=70 velocity=0 time=26
note_on channel=0 note=74 velocity=79 time=1
note_on channel=0 note=77 velocity=87 time=31
note_on channel=0 note=65 velocity=87 time=0
note_on channel=0 note=74 velocity=0 time=2
note_on channel=0 note=65 velocity=0 time=48
note_on channel=0 note=77 velocity=0 time=0
note_on channel=0 note=70 velocity=72 time=10
note_on channel=0 note=70 velocity=0 time=28
note_on channel=0 note=79 velocity=91 time=1
note_on channel=0 note=67 velocity=91 time=0
note_on channel=0 note=70 velocity=77 time=31
note_on channel=0 note=67 velocity=0 time=2
note_on channel=0 note=79 velocity=0 time=0
note_on channel=0 note=70 velocity=0 time=26
note_on channel=0 note=74 velocity=78 time=1
note_on channel=0 note=77 velocity=92 time=31
note_on channel=0 note=65 velocity=92 time=0
note_on channel=0 note=74 velocity=0 time=2
note_on channel=0 note=65 velocity=0 time=54
note_on channel=0 note=77 velocity=0 time=0
note_on channel=0 note=65 velocity=86 time=4
note_on channel=0 note=77 velocity=86 time=0
note_on channel=0 note=77 velocity=0 time=50
note_on channel=0 note=65 velocity=0 time=0
note_on channel=0 note=73 velocity=102 time=10
note_on channel=0 note=64 velocity=102 time=0
note_on channel=0 note=64 velocity=0 time=56
note_on channel=0 note=73 velocity=0 time=0
note_on channel=0 note=70 velocity=88 time=4
note_on channel=0 note=70 velocity=0 time=28
note_on channel=0 note=64 velocity=93 time=1
note_on channel=0 note=73 velocity=93 time=0
note_on channel=0 note=70 velocity=75 time=31
note_on channel=0 note=73 velocity=0 time=2
note_on channel=0 note=64 velocity=0 time=0
note_on channel=0 note=70 velocity=0 time=26
note_on channel=0 note=72 velocity=86 time=1
note_on channel=0 note=64 velocity=92 time=31
note_on channel=0 note=73 velocity=92 time=0
note_on channel=0 note=72 velocity=0 time=2
note_on channel=0 note=73 velocity=0 time=48
note_on channel=0 note=64 velocity=0 time=0
note_on channel=0 note=70 velocity=75 time=10
note_on channel=0 note=70 velocity=0 time=28
note_on channel=0 note=74 velocity=87 time=1
note_on channel=0 note=65 velocity=87 time=0
note_on channel=0 note=70 velocity=75 time=31
note_on channel=0 note=65 velocity=0 time=2
note_on channel=0 note=74 velocity=0 time=0
note_on channel=0 note=70 velocity=0 time=26
note_on channel=0 note=72 velocity=82 time=1
note_on channel=0 note=74 velocity=94 time=31
note_on channel=0 note=65 velocity=94 time=0
note_on channel=0 note=72 velocity=0 time=2
note_on channel=0 note=65 velocity=0 time=54
note_on channel=0 note=74 velocity=0 time=0
note_on channel=0 note=74 velocity=87 time=4
note_on channel=0 note=65 velocity=87 time=0
note_on channel=0 note=65 velocity=0 time=50
note_on channel=0 note=74 velocity=0 time=0
note_on channel=0 note=77 velocity=96 time=10
note_on channel=0 note=65 velocity=96 time=0
note_on channel=0 note=65 velocity=0 time=56
note_on channel=0 note=77 velocity=0 time=0
note_on channel=0 note=72 velocity=84 time=4
note_on channel=0 note=72 velocity=0 time=28
note_on channel=0 note=79 velocity=90 time=1
note_on channel=0 note=67 velocity=90 time=0
note_on channel=0 note=72 velocity=82 time=31
note_on channel=0 note=67 velocity=0 time=2
note_on channel=0 note=79 velocity=0 time=0
note_on channel=0 note=72 velocity=0 time=26
note_on channel=0 note=75 velocity=86 time=1
note_on channel=0 note=81 velocity=91 time=31
note_on channel=0 note=69 velocity=91 time=0
note_on channel=0 note=75 velocity=0 time=2
note_on channel=0 note=69 velocity=0 time=48
note_on channel=0 note=81 velocity=0 time=0
note_on channel=0 note=70 velocity=96 time=10
note_on channel=0 note=82 velocity=96 time=0
note_on channel=0 note=82 velocity=0 time=61
note_on channel=0 note=70 velocity=0 time=0
note_on channel=0 note=70 velocity=84 time=179
note_on channel=0 note=82 velocity=84 time=0
note_on channel=0 note=82 velocity=0 time=57
note_on channel=0 note=70 velocity=0 time=0
note_on channel=0 note=75 velocity=72 time=3
note_on channel=0 note=75 velocity=0 time=29
note_on channel=0 note=84 velocity=85 time=0
note_on channel=0 note=72 velocity=85 time=0
note_on channel=0 note=75 velocity=72 time=31
note_on channel=0 note=72 velocity=0 time=3
note_on channel=0 note=84 velocity=0 time=0
note_on channel=0 note=75 velocity=0 time=26
note_on channel=0 note=79 velocity=79 time=0
note_on channel=0 note=82 velocity=87 time=31
note_on channel=0 note=70 velocity=87 time=0
note_on channel=0 note=79 velocity=0 time=3
note_on channel=0 note=70 velocity=0 time=47
note_on channel=0 note=82 velocity=0 time=0
note_on channel=0 note=75 velocity=72 time=10
note_on channel=0 note=75 velocity=0 time=29
note_on channel=0 note=84 velocity=85 time=0
note_on channel=0 note=72 velocity=85 time=0
note_on channel=0 note=75 velocity=72 time=31
note_on channel=0 note=72 velocity=0 time=3
note_on channel=0 note=84 velocity=0 time=0
note_on channel=0 note=75 velocity=0 time=26
note_on channel=0 note=79 velocity=79 time=0
note_on channel=0 note=82 velocity=84 time=31
note_on channel=0 note=70 velocity=84 time=0
note_on channel=0 note=79 velocity=0 time=3
note_on channel=0 note=72 velocity=95 time=57
note_on channel=0 note=84 velocity=95 time=0
note_on channel=0 note=70 velocity=0 time=1
note_on channel=0 note=82 velocity=0 time=0
note_on channel=0 note=72 velocity=0 time=49
note_on channel=0 note=84 velocity=0 time=0
note_on channel=0 note=82 velocity=72 time=10
note_on channel=0 note=70 velocity=72 time=0
note_on channel=0 note=70 velocity=0 time=29
note_on channel=0 note=82 velocity=0 time=0
note_on channel=0 note=77 velocity=82 time=0
note_on channel=0 note=65 velocity=82 time=0
note_on channel=0 note=70 velocity=72 time=31
note_on channel=0 note=65 velocity=0 time=3
note_on channel=0 note=77 velocity=0 time=0
note_on channel=0 note=70 velocity=0 time=26
note_on channel=0 note=79 velocity=82 time=0
note_on channel=0 note=67 velocity=82 time=0
note_on channel=0 note=70 velocity=72 time=31
note_on channel=0 note=67 velocity=0 time=3
note_on channel=0 note=79 velocity=0 time=0
note_on channel=0 note=70 velocity=0 time=26
note_on channel=0 note=74 velocity=80 time=0
note_on channel=0 note=77 velocity=93 time=31
note_on channel=0 note=65 velocity=93 time=0
note_on channel=0 note=74 velocity=0 time=3
note_on channel=0 note=65 velocity=0 time=47
note_on channel=0 note=77 velocity=0 time=0
note_on channel=0 note=70 velocity=72 time=10
note_on channel=0 note=70 velocity=0 time=29
note_on channel=0 note=79 velocity=84 time=0
note_on channel=0 note=67 velocity=84 time=0
note_on channel=0 note=70 velocity=72 time=31
note_on channel=0 note=67 velocity=0 time=3
note_on channel=0 note=79 velocity=0 time=0
note_on channel=0 note=70 velocity=0 time=26
note_on channel=0 note=74 velocity=81 time=0
note_on channel=0 note=77 velocity=88 time=31
note_on channel=0 note=65 velocity=88 time=0
note_on channel=0 note=74 velocity=0 time=3
note_on channel=0 note=67 velocity=95 time=57
note_on channel=0 note=79 velocity=95 time=0
note_on channel=0 note=65 velocity=0 time=1
note_on channel=0 note=77 velocity=0 time=0
note_on channel=0 note=67 velocity=0 time=49
note_on channel=0 note=79 velocity=0 time=0
note_on channel=0 note=70 velocity=72 time=10
note_on channel=0 note=70 velocity=0 time=29
note_on channel=0 note=77 velocity=83 time=0
note_on channel=0 note=65 velocity=83 time=0
note_on channel=0 note=69 velocity=78 time=31
note_on channel=0 note=65 velocity=0 time=3
note_on channel=0 note=77 velocity=0 time=0
note_on channel=0 note=69 velocity=0 time=26
note_on channel=0 note=79 velocity=86 time=0
note_on channel=0 note=67 velocity=86 time=0
note_on channel=0 note=69 velocity=72 time=31
note_on channel=0 note=67 velocity=0 time=3
note_on channel=0 note=79 velocity=0 time=0
note_on channel=0 note=69 velocity=0 time=26
note_on channel=0 note=72 velocity=80 time=0
note_on channel=0 note=77 velocity=86 time=31
note_on channel=0 note=65 velocity=86 time=0
note_on channel=0 note=72 velocity=0 time=3
note_on channel=0 note=65 velocity=0 time=47
note_on channel=0 note=77 velocity=0 time=0
note_on channel=0 note=69 velocity=72 time=10
note_on channel=0 note=69 velocity=0 time=29
note_on channel=0 note=79 velocity=80 time=0
note_on channel=0 note=67 velocity=80 time=0
note_on channel=0 note=69 velocity=72 time=31
note_on channel=0 note=67 velocity=0 time=3
note_on channel=0 note=79 velocity=0 time=0
note_on channel=0 note=69 velocity=0 time=26
note_on channel=0 note=72 velocity=76 time=0
note_on channel=0 note=77 velocity=81 time=31
note_on channel=0 note=65 velocity=81 time=0
note_on channel=0 note=72 velocity=0 time=3
note_on channel=0 note=79 velocity=90 time=57
note_on channel=0 note=67 velocity=90 time=0
note_on channel=0 note=65 velocity=0 time=1
note_on channel=0 note=77 velocity=0 time=0
note_on channel=0 note=79 velocity=0 time=49
note_on channel=0 note=67 velocity=0 time=0
note_on channel=0 note=69 velocity=72 time=10
note_on channel=0 note=69 velocity=0 time=29
note_on channel=0 note=77 velocity=82 time=0
note_on channel=0 note=65 velocity=82 time=0
note_on channel=0 note=70 velocity=76 time=31
note_on channel=0 note=65 velocity=0 time=3
note_on channel=0 note=77 velocity=0 time=0
note_on channel=0 note=70 velocity=0 time=26
note_on channel=0 note=79 velocity=88 time=0
note_on channel=0 note=67 velocity=88 time=0
note_on channel=0 note=70 velocity=78 time=31
note_on channel=0 note=67 velocity=0 time=3
note_on channel=0 note=79 velocity=0 time=0
note_on channel=0 note=70 velocity=0 time=26
note_on channel=0 note=74 velocity=84 time=0
note_on channel=0 note=77 velocity=91 time=31
note_on channel=0 note=65 velocity=91 time=0
note_on channel=0 note=74 velocity=0 time=3
note_on channel=0 note=65 velocity=0 time=47
note_on channel=0 note=77 velocity=0 time=0
note_on channel=0 note=70 velocity=72 time=10
note_on channel=0 note=70 velocity=0 time=29
note_on channel=0 note=79 velocity=83 time=0
note_on channel=0 note=67 velocity=83 time=0
note_on channel=0 note=70 velocity=72 time=31
note_on channel=0 note=67 velocity=0 time=3
note_on channel=0 note=79 velocity=0 time=0
note_on channel=0 note=70 velocity=0 time=26
note_on channel=0 note=74 velocity=77 time=0
note_on channel=0 note=77 velocity=89 time=31
note_on channel=0 note=65 velocity=89 time=0
note_on channel=0 note=74 velocity=0 time=3
note_on channel=0 note=65 velocity=0 time=52
note_on channel=0 note=77 velocity=0 time=0
note_on channel=0 note=77 velocity=84 time=5
note_on channel=0 note=65 velocity=84 time=0
note_on channel=0 note=65 velocity=0 time=50
note_on channel=0 note=77 velocity=0 time=0
note_on channel=0 note=82 velocity=89 time=10
note_on channel=0 note=70 velocity=89 time=0
note_on channel=0 note=70 velocity=0 time=56
note_on channel=0 note=82 velocity=0 time=0
note_on channel=0 note=75 velocity=72 time=4
note_on channel=0 note=75 velocity=0 time=28
note_on channel=0 note=84 velocity=82 time=1
note_on channel=0 note=72 velocity=82 time=0
note_on channel=0 note=75 velocity=74 time=31
note_on channel=0 note=72 velocity=0 time=2
note_on channel=0 note=84 velocity=0 time=0
note_on channel=0 note=75 velocity=0 time=26
note_on channel=0 note=79 velocity=77 time=1
note_on channel=0 note=82 velocity=90 time=31
note_on channel=0 note=70 velocity=90 time=0
note_on channel=0 note=79 velocity=0 time=2
note_on channel=0 note=70 velocity=0 time=48
note_on channel=0 note=82 velocity=0 time=0
note_on channel=0 note=75 velocity=72 time=10
note_on channel=0 note=75 velocity=0 time=28
note_on channel=0 note=84 velocity=83 time=1
note_on channel=0 note=72 velocity=83 time=0
note_on channel=0 note=75 velocity=72 time=31
note_on channel=0 note=72 velocity=0 time=2
note_on channel=0 note=84 velocity=0 time=0
note_on channel=0 note=75 velocity=0 time=26
note_on channel=0 note=79 velocity=77 time=1
note_on channel=0 note=82 velocity=81 time=31
note_on channel=0 note=70 velocity=81 time=0
note_on channel=0 note=79 velocity=0 time=2
note_on channel=0 note=72 velocity=91 time=58
note_on channel=0 note=84 velocity=91 time=0
note_on channel=0 note=70 velocity=0 time=1
note_on channel=0 note=82 velocity=0 time=0
note_on channel=0 note=72 velocity=0 time=49
note_on channel=0 note=84 velocity=0 time=0
note_on channel=0 note=82 velocity=72 time=10
note_on channel=0 note=70 velocity=72 time=0
note_on channel=0 note=70 velocity=0 time=28
note_on channel=0 note=82 velocity=0 time=0
note_on channel=0 note=77 velocity=79 time=1
note_on channel=0 note=65 velocity=79 time=0
note_on channel=0 note=70 velocity=72 time=31
note_on channel=0 note=65 velocity=0 time=2
note_on channel=0 note=77 velocity=0 time=0
note_on channel=0 note=70 velocity=0 time=26
note_on channel=0 note=79 velocity=79 time=1
note_on channel=0 note=67 velocity=79 time=0
note_on channel=0 note=70 velocity=74 time=31
note_on channel=0 note=67 velocity=0 time=2
note_on channel=0 note=79 velocity=0 time=0
note_on channel=0 note=70 velocity=0 time=26
note_on channel=0 note=74 velocity=79 time=1
note_on channel=0 note=77 velocity=87 time=31
note_on channel=0 note=65 velocity=87 time=0
note_on channel=0 note=74 velocity=0 time=2
note_on channel=0 note=65 velocity=0 time=48
note_on channel=0 note=77 velocity=0 time=0
note_on channel=0 note=70 velocity=72 time=10
note_on channel=0 note=70 velocity=0 time=28
note_on channel=0 note=79 velocity=91 time=1
note_on channel=0 note=67 velocity=91 time=0
note_on channel=0 note=70 velocity=77 time=31
note_on channel=0 note=67 velocity=0 time=2
note_on channel=0 note=79 velocity=0 time=0
note_on channel=0 note=70 velocity=0 time=26
note_on channel=0 note=74 velocity=78 time=1
note_on channel=0 note=77 velocity=92 time=31
note_on channel=0 note=65 velocity=92 time=0
note_on channel=0 note=74 velocity=0 time=2
note_on channel=0 note=65 velocity=0 time=54
note_on channel=0 note=77 velocity=0 time=0
note_on channel=0 note=65 velocity=86 time=4
note_on channel=0 note=77 velocity=86 time=0
note_on channel=0 note=77 velocity=0 time=50
note_on channel=0 note=65 velocity=0 time=0
note_on channel=0 note=73 velocity=102 time=10
note_on channel=0 note=64 velocity=102 time=0
note_on channel=0 note=64 velocity=0 time=56
note_on channel=0 note=73 velocity=0 time=0
note_on channel=0 note=70 velocity=88 time=4
note_on channel=0 note=70 velocity=0 time=28
note_on channel=0 note=64 velocity=93 time=1
note_on channel=0 note=73 velocity=93 time=0
note_on channel=0 note=70 velocity=75 time=31
note_on channel=0 note=73 velocity=0 time=2
note_on channel=0 note=64 velocity=0 time=0
note_on channel=0 note=70 velocity=0 time=26
note_on channel=0 note=72 velocity=86 time=1
note_on channel=0 note=64 velocity=92 time=31
note_on channel=0 note=73 velocity=92 time=0
note_on channel=0 note=72 velocity=0 time=2
note_on channel=0 note=73 velocity=0 time=48
note_on channel=0 note=64 velocity=0 time=0
note_on channel=0 note=70 velocity=75 time=10
note_on channel=0 note=70 velocity=0 time=28
note_on channel=0 note=74 velocity=87 time=1
note_on channel=0 note=65 velocity=87 time=0
note_on channel=0 note=70 velocity=75 time=31
note_on channel=0 note=65 velocity=0 time=2
note_on channel=0 note=74 velocity=0 time=0
note_on channel=0 note=70 velocity=0 time=26
note_on channel=0 note=72 velocity=82 time=1
note_on channel=0 note=74 velocity=94 time=31
note_on channel=0 note=65 velocity=94 time=0
note_on channel=0 note=72 velocity=0 time=2
note_on channel=0 note=65 velocity=0 time=54
note_on channel=0 note=74 velocity=0 time=0
note_on channel=0 note=74 velocity=87 time=4
note_on channel=0 note=65 velocity=87 time=0
note_on channel=0 note=65 velocity=0 time=50
note_on channel=0 note=74 velocity=0 time=0
note_on channel=0 note=77 velocity=96 time=10
note_on channel=0 note=65 velocity=96 time=0
note_on channel=0 note=65 velocity=0 time=56
note_on channel=0 note=77 velocity=0 time=0
note_on channel=0 note=72 velocity=84 time=4
note_on channel=0 note=72 velocity=0 time=28
note_on channel=0 note=79 velocity=90 time=1
note_on channel=0 note=67 velocity=90 time=0
note_on channel=0 note=72 velocity=82 time=31
note_on channel=0 note=67 velocity=0 time=2
note_on channel=0 note=79 velocity=0 time=0
note_on channel=0 note=72 velocity=0 time=26
note_on channel=0 note=75 velocity=86 time=1
note_on channel=0 note=81 velocity=91 time=31
note_on channel=0 note=69 velocity=91 time=0
note_on channel=0 note=75 velocity=0 time=2
note_on channel=0 note=69 velocity=0 time=48
note_on channel=0 note=81 velocity=0 time=0
note_on channel=0 note=70 velocity=96 time=10
note_on channel=0 note=82 velocity=96 time=0
note_on channel=0 note=82 velocity=0 time=61
note_on channel=0 note=70 velocity=0 time=0
note_on channel=0 note=82 velocity=97 time=88
note_on channel=0 note=74 velocity=97 time=0
note_on channel=0 note=70 velocity=97 time=0
note_on channel=0 note=70 velocity=0 time=75
note_on channel=0 note=74 velocity=0 time=0
note_on channel=0 note=82 velocity=0 time=0
<meta message end_of_track time=0>
<meta message midi_port port=0 time=0>
<meta message track_name name='by Scott Joplin (1902)' time=0>
program_change channel=1 program=0 time=0
control_change channel=1 control=7 value=127 time=0
control_change channel=1 control=10 value=35 time=0
control_change channel=1 control=121 value=0 time=10
control_change channel=1 control=1 value=0 time=21
control_change channel=1 control=64 value=0 time=9
aftertouch channel=1 value=0 time=13
pitchwheel channel=1 pitch=0 time=8
control_change channel=1 control=93 value=12 time=2
control_change channel=1 control=91 value=28 time=0
control_change channel=1 control=7 value=127 time=28
control_change channel=1 control=10 value=44 time=4
note_on channel=1 note=53 velocity=78 time=536
note_on channel=1 note=53 velocity=0 time=20
note_on channel=1 note=55 velocity=84 time=9
note_on channel=1 note=55 velocity=0 time=24
note_on channel=1 note=57 velocity=78 time=7
note_on channel=1 note=57 velocity=0 time=20
note_on channel=1 note=48 velocity=85 time=9
note_on channel=1 note=48 velocity=0 time=24
note_on channel=1 note=55 velocity=93 time=7
note_on channel=1 note=55 velocity=0 time=40
note_on channel=1 note=53 velocity=78 time=20
note_on channel=1 note=53 velocity=0 time=24
note_on channel=1 note=52 velocity=88 time=5
note_on channel=1 note=52 velocity=0 time=53
note_on channel=1 note=55 velocity=86 time=7
note_on channel=1 note=55 velocity=0 time=40
note_on channel=1 note=60 velocity=94 time=20
note_on channel=1 note=60 velocity=0 time=57
note_on channel=1 note=48 velocity=85 time=3
note_on channel=1 note=36 velocity=85 time=0
note_on channel=1 note=36 velocity=0 time=46
note_on channel=1 note=48 velocity=0 time=0
note_on channel=1 note=38 velocity=78 time=14
note_on channel=1 note=50 velocity=78 time=0
note_on channel=1 note=50 velocity=0 time=40
note_on channel=1 note=38 velocity=0 time=0
note_on channel=1 note=52 velocity=85 time=20
note_on channel=1 note=40 velocity=85 time=0
note_on channel=1 note=40 velocity=0 time=40
note_on channel=1 note=52 velocity=0 time=0
note_on channel=1 note=53 velocity=101 time=20
note_on channel=1 note=41 velocity=101 time=0
note_on channel=1 note=41 velocity=0 time=145
note_on channel=1 note=53 velocity=0 time=0
note_on channel=1 note=54 velocity=85 time=35
note_on channel=1 note=42 velocity=85 time=0
note_on channel=1 note=42 velocity=0 time=59
note_on channel=1 note=54 velocity=0 time=0
note_on channel=1 note=55 velocity=90 time=1
note_on channel=1 note=43 velocity=90 time=0
note_on channel=1 note=43 velocity=0 time=120
note_on channel=1 note=55 velocity=0 time=0
note_on channel=1 note=56 velocity=78 time=60
note_on channel=1 note=44 velocity=78 time=0
note_on channel=1 note=44 velocity=0 time=59
note_on channel=1 note=56 velocity=0 time=0
note_on channel=1 note=57 velocity=86 time=1
note_on channel=1 note=45 velocity=86 time=0
note_on channel=1 note=45 velocity=0 time=49
note_on channel=1 note=57 velocity=0 time=0
note_on channel=1 note=63 velocity=91 time=11
note_on channel=1 note=51 velocity=91 time=0
note_on channel=1 note=51 velocity=0 time=40
note_on channel=1 note=63 velocity=0 time=0
note_on channel=1 note=62 velocity=93 time=20
note_on channel=1 note=50 velocity=93 time=0
note_on channel=1 note=50 velocity=0 time=49
note_on channel=1 note=62 velocity=0 time=0
note_on channel=1 note=61 velocity=83 time=11
note_on channel=1 note=49 velocity=83 time=0
note_on channel=1 note=49 velocity=0 time=40
note_on channel=1 note=61 velocity=0 time=0
note_on channel=1 note=60 velocity=88 time=20
note_on channel=1 note=48 velocity=88 time=0
note_on channel=1 note=48 velocity=0 time=49
note_on channel=1 note=60 velocity=0 time=0
note_on channel=1 note=59 velocity=82 time=11
note_on channel=1 note=47 velocity=82 time=0
note_on channel=1 note=47 velocity=0 time=40
note_on channel=1 note=59 velocity=0 time=0
note_on channel=1 note=58 velocity=87 time=20
note_on channel=1 note=46 velocity=87 time=0
note_on channel=1 note=46 velocity=0 time=49
note_on channel=1 note=58 velocity=0 time=0
note_on channel=1 note=48 velocity=104 time=11
note_on channel=1 note=36 velocity=104 time=0
note_on channel=1 note=36 velocity=0 time=40
note_on channel=1 note=48 velocity=0 time=0
note_on channel=1 note=41 velocity=84 time=20
note_on channel=1 note=41 velocity=0 time=56
note_on channel=1 note=57 velocity=78 time=4
note_on channel=1 note=60 velocity=78 time=0
note_on channel=1 note=65 velocity=78 time=0
note_on channel=1 note=65 velocity=0 time=29
note_on channel=1 note=60 velocity=0 time=0
note_on channel=1 note=57 velocity=0 time=0
note_on channel=1 note=45 velocity=84 time=31
note_on channel=1 note=45 velocity=0 time=56
note_on channel=1 note=57 velocity=78 time=4
note_on channel=1 note=60 velocity=78 time=0
note_on channel=1 note=65 velocity=78 time=0
note_on channel=1 note=65 velocity=0 time=29
note_on channel=1 note=60 velocity=0 time=0
note_on channel=1 note=57 velocity=0 time=0
note_on channel=1 note=46 velocity=84 time=31
note_on channel=1 note=46 velocity=0 time=56
note_on channel=1 note=58 velocity=78 time=4
note_on channel=1 note=62 velocity=78 time=0
note_on channel=1 note=65 velocity=78 time=0
note_on channel=1 note=65 velocity=0 time=29
note_on channel=1 note=62 velocity=0 time=0
note_on channel=1 note=58 velocity=0 time=0
note_on channel=1 note=45 velocity=84 time=31
note_on channel=1 note=45 velocity=0 time=56
note_on channel=1 note=57 velocity=78 time=4
note_on channel=1 note=60 velocity=78 time=0
note_on channel=1 note=65 velocity=78 time=0
note_on channel=1 note=65 velocity=0 time=29
note_on channel=1 note=60 velocity=0 time=0
note_on channel=1 note=57 velocity=0 time=0
note_on channel=1 note=47 velocity=84 time=31
note_on channel=1 note=47 velocity=0 time=56
note_on channel=1 note=55 velocity=78 time=4
note_on channel=1 note=59 velocity=78 time=0
note_on channel=1 note=65 velocity=78 time=0
note_on channel=1 note=65 velocity=0 time=29
note_on channel=1 note=59 velocity=0 time=0
note_on channel=1 note=55 velocity=0 time=0
note_on channel=1 note=43 velocity=84 time=31
note_on channel=1 note=43 velocity=0 time=56
note_on channel=1 note=65 velocity=77 time=4
note_on channel=1 note=59 velocity=77 time=0
note_on channel=1 note=55 velocity=77 time=0
note_on channel=1 note=55 velocity=0 time=29
note_on channel=1 note=59 velocity=0 time=0
note_on channel=1 note=65 velocity=0 time=0
note_on channel=1 note=60 velocity=77 time=31
note_on channel=1 note=64 velocity=77 time=0
note_on channel=1 note=64 velocity=0 time=50
note_on channel=1 note=60 velocity=0 time=0
note_on channel=1 note=60 velocity=104 time=70
note_on channel=1 note=48 velocity=104 time=0
note_on channel=1 note=48 velocity=0 time=45
note_on channel=1 note=60 velocity=0 time=0
note_on channel=1 note=48 velocity=87 time=15
note_on channel=1 note=36 velocity=87 time=0
note_on channel=1 note=36 velocity=0 time=52
note_on channel=1 note=48 velocity=0 time=0
note_on channel=1 note=53 velocity=100 time=8
note_on channel=1 note=41 velocity=100 time=0
note_on channel=1 note=41 velocity=0 time=145
note_on channel=1 note=53 velocity=0 time=0
note_on channel=1 note=54 velocity=84 time=35
note_on channel=1 note=42 velocity=84 time=0
note_on channel=1 note=42 velocity=0 time=59
note_on channel=1 note=54 velocity=0 time=0
note_on channel=1 note=55 velocity=89 time=1
note_on channel=1 note=43 velocity=89 time=0
note_on channel=1 note=43 velocity=0 time=120
note_on channel=1 note=55 velocity=0 time=0
note_on channel=1 note=56 velocity=77 time=60
note_on channel=1 note=44 velocity=77 time=0
note_on channel=1 note=44 velocity=0 time=59
note_on channel=1 note=56 velocity=0 time=0
note_on channel=1 note=57 velocity=85 time=1
note_on channel=1 note=45 velocity=85 time=0
note_on channel=1 note=45 velocity=0 time=49
note_on channel=1 note=57 velocity=0 time=0
note_on channel=1 note=63 velocity=90 time=11
note_on channel=1 note=51 velocity=90 time=0
note_on channel=1 note=51 velocity=0 time=40
note_on channel=1 note=63 velocity=0 time=0
note_on channel=1 note=62 velocity=92 time=20
note_on channel=1 note=50 velocity=92 time=0
note_on channel=1 note=50 velocity=0 time=49
note_on channel=1 note=62 velocity=0 time=0
note_on channel=1 note=61 velocity=82 time=11
note_on channel=1 note=49 velocity=82 time=0
note_on channel=1 note=49 velocity=0 time=40
note_on channel=1 note=61 velocity=0 time=0
note_on channel=1 note=60 velocity=87 time=20
note_on channel=1 note=48 velocity=87 time=0
note_on channel=1 note=48 velocity=0 time=49
note_on channel=1 note=60 velocity=0 time=0
note_on channel=1 note=59 velocity=81 time=11
note_on channel=1 note=47 velocity=81 time=0
note_on channel=1 note=47 velocity=0 time=40
note_on channel=1 note=59 velocity=0 time=0
note_on channel=1 note=58 velocity=86 time=20
note_on channel=1 note=46 velocity=86 time=0
note_on channel=1 note=46 velocity=0 time=49
note_on channel=1 note=58 velocity=0 time=0
note_on channel=1 note=48 velocity=103 time=11
note_on channel=1 note=36 velocity=103 time=0
note_on channel=1 note=36 velocity=0 time=40
note_on channel=1 note=48 velocity=0 time=0
note_on channel=1 note=41 velocity=83 time=20
note_on channel=1 note=41 velocity=0 time=56
note_on channel=1 note=57 velocity=77 time=4
note_on channel=1 note=60 velocity=77 time=0
note_on channel=1 note=65 velocity=77 time=0
note_on channel=1 note=65 velocity=0 time=29
note_on channel=1 note=60 velocity=0 time=0
note_on channel=1 note=57 velocity=0 time=0
note_on channel=1 note=45 velocity=83 time=31
note_on channel=1 note=45 velocity=0 time=56
note_on channel=1 note=57 velocity=77 time=4
note_on channel=1 note=60 velocity=77 time=0
note_on channel=1 note=65 velocity=77 time=0
note_on channel=1 note=65 velocity=0 time=29
note_on channel=1 note=60 velocity=0 time=0
note_on channel=1 note=57 velocity=0 time=0
note_on channel=1 note=46 velocity=83 time=31
note_on channel=1 note=46 velocity=0 time=56
note_on channel=1 note=58 velocity=77 time=4
note_on channel=1 note=62 velocity=77 time=0
note_on channel=1 note=65 velocity=77 time=0
note_on channel=1 note=65 velocity=0 time=29
note_on channel=1 note=62 velocity=0 time=0
note_on channel=1 note=58 velocity=0 time=0
note_on channel=1 note=45 velocity=83 time=31
note_on channel=1 note=45 velocity=0 time=56
note_on channel=1 note=57 velocity=77 time=4
note_on channel=1 note=60 velocity=77 time=0
note_on channel=1 note=65 velocity=77 time=0
note_on channel=1 note=65 velocity=0 time=29
note_on channel=1 note=60 velocity=0 time=0
note_on channel=1 note=57 velocity=0 time=0
note_on channel=1 note=50 velocity=95 time=31
note_on channel=1 note=38 velocity=95 time=0
note_on channel=1 note=38 velocity=0 time=47
note_on channel=1 note=50 velocity=0 time=0
note_on channel=1 note=38 velocity=87 time=13
note_on channel=1 note=50 velocity=87 time=0
note_on channel=1 note=50 velocity=0 time=40
note_on channel=1 note=38 velocity=0 time=0
note_on channel=1 note=48 velocity=93 time=20
note_on channel=1 note=36 velocity=93 time=0
note_on channel=1 note=36 velocity=0 time=47
note_on channel=1 note=48 velocity=0 time=0
note_on channel=1 note=40 velocity=88 time=13
note_on channel=1 note=52 velocity=88 time=0
note_on channel=1 note=52 velocity=0 time=40
note_on channel=1 note=40 velocity=0 time=0
note_on channel=1 note=53 velocity=97 time=20
note_on channel=1 note=41 velocity=97 time=0
note_on channel=1 note=41 velocity=0 time=47
note_on channel=1 note=53 velocity=0 time=0
note_on channel=1 note=48 velocity=88 time=13
note_on channel=1 note=36 velocity=88 time=0
note_on channel=1 note=36 velocity=0 time=40
note_on channel=1 note=48 velocity=0 time=0
note_on channel=1 note=38 velocity=92 time=20
note_on channel=1 note=50 velocity=92 time=0
note_on channel=1 note=50 velocity=0 time=47
note_on channel=1 note=38 velocity=0 time=0
note_on channel=1 note=52 velocity=88 time=13
note_on channel=1 note=40 velocity=88 time=0
note_on channel=1 note=40 velocity=0 time=40
note_on channel=1 note=52 velocity=0 time=0
note_on channel=1 note=53 velocity=100 time=20
note_on channel=1 note=41 velocity=100 time=0
note_on channel=1 note=41 velocity=0 time=145
note_on channel=1 note=53 velocity=0 time=0
note_on channel=1 note=54 velocity=84 time=35
note_on channel=1 note=42 velocity=84 time=0
note_on channel=1 note=42 velocity=0 time=59
note_on channel=1 note=54 velocity=0 time=0
note_on channel=1 note=55 velocity=89 time=1
note_on channel=1 note=43 velocity=89 time=0
note_on channel=1 note=43 velocity=0 time=120
note_on channel=1 note=55 velocity=0 time=0
note_on channel=1 note=56 velocity=77 time=60
note_on channel=1 note=44 velocity=77 time=0
note_on channel=1 note=44 velocity=0 time=59
note_on channel=1 note=56 velocity=0 time=0
note_on channel=1 note=57 velocity=85 time=1
note_on channel=1 note=45 velocity=85 time=0
note_on channel=1 note=45 velocity=0 time=49
note_on channel=1 note=57 velocity=0 time=0
note_on channel=1 note=63 velocity=89 time=11
note_on channel=1 note=51 velocity=89 time=0
note_on channel=1 note=51 velocity=0 time=40
note_on channel=1 note=63 velocity=0 time=0
note_on channel=1 note=62 velocity=91 time=20
note_on channel=1 note=50 velocity=91 time=0
note_on channel=1 note=50 velocity=0 time=49
note_on channel=1 note=62 velocity=0 time=0
note_on channel=1 note=61 velocity=81 time=11
note_on channel=1 note=49 velocity=81 time=0
note_on channel=1 note=49 velocity=0 time=40
note_on channel=1 note=61 velocity=0 time=0
note_on channel=1 note=60 velocity=86 time=20
note_on channel=1 note=48 velocity=86 time=0
note_on channel=1 note=48 velocity=0 time=49
note_on channel=1 note=60 velocity=0 time=0
note_on channel=1 note=59 velocity=80 time=11
note_on channel=1 note=47 velocity=80 time=0
note_on channel=1 note=47 velocity=0 time=40
note_on channel=1 note=59 velocity=0 time=0
note_on channel=1 note=58 velocity=85 time=20
note_on channel=1 note=46 velocity=85 time=0
note_on channel=1 note=46 velocity=0 time=49
note_on channel=1 note=58 velocity=0 time=0
note_on channel=1 note=48 velocity=102 time=11
note_on channel=1 note=36 velocity=102 time=0
note_on channel=1 note=36 velocity=0 time=40
note_on channel=1 note=48 velocity=0 time=0
note_on channel=1 note=41 velocity=82 time=20
note_on channel=1 note=41 velocity=0 time=56
note_on channel=1 note=57 velocity=76 time=4
note_on channel=1 note=60 velocity=76 time=0
note_on channel=1 note=65 velocity=76 time=0
note_on channel=1 note=65 velocity=0 time=29
note_on channel=1 note=60 velocity=0 time=0
note_on channel=1 note=57 velocity=0 time=0
note_on channel=1 note=45 velocity=82 time=31
note_on channel=1 note=45 velocity=0 time=56
note_on channel=1 note=57 velocity=76 time=4
note_on channel=1 note=60 velocity=76 time=0
note_on channel=1 note=65 velocity=76 time=0
note_on channel=1 note=65 velocity=0 time=29
note_on channel=1 note=60 velocity=0 time=0
note_on channel=1 note=57 velocity=0 time=0
note_on channel=1 note=46 velocity=82 time=31
note_on channel=1 note=46 velocity=0 time=56
note_on channel=1 note=58 velocity=76 time=4
note_on channel=1 note=62 velocity=76 time=0
note_on channel=1 note=65 velocity=76 time=0
note_on channel=1 note=65 velocity=0 time=29
note_on channel=1 note=62 velocity=0 time=0
note_on channel=1 note=58 velocity=0 time=0
note_on channel=1 note=45 velocity=82 time=31
note_on channel=1 note=45 velocity=0 time=56
note_on channel=1 note=57 velocity=76 time=4
note_on channel=1 note=60 velocity=76 time=0
note_on channel=1 note=65 velocity=76 time=0
note_on channel=1 note=65 velocity=0 time=29
note_on channel=1 note=60 velocity=0 time=0
note_on channel=1 note=57 velocity=0 time=0
note_on channel=1 note=47 velocity=82 time=31
note_on channel=1 note=47 velocity=0 time=56
note_on channel=1 note=55 velocity=76 time=4
note_on channel=1 note=59 velocity=76 time=0
note_on channel=1 note=65 velocity=76 time=0
note_on channel=1 note=65 velocity=0 time=29
note_on channel=1 note=59 velocity=0 time=0
note_on channel=1 note=55 velocity=0 time=0
note_on channel=1 note=43 velocity=82 time=31
note_on channel=1 note=43 velocity=0 time=56
note_on channel=1 note=65 velocity=76 time=4
note_on channel=1 note=59 velocity=76 time=0
note_on channel=1 note=55 velocity=76 time=0
note_on channel=1 note=55 velocity=0 time=29
note_on channel=1 note=59 velocity=0 time=0
note_on channel=1 note=65 velocity=0 time=0
note_on channel=1 note=60 velocity=76 time=31
note_on channel=1 note=64 velocity=76 time=0
note_on channel=1 note=64 velocity=0 time=50
note_on channel=1 note=60 velocity=0 time=0
note_on channel=1 note=60 velocity=103 time=70
note_on channel=1 note=48 velocity=103 time=0
note_on channel=1 note=48 velocity=0 time=45
note_on channel=1 note=60 velocity=0 time=0
note_on channel=1 note=48 velocity=86 time=15
note_on channel=1 note=36 velocity=86 time=0
note_on channel=1 note=36 velocity=0 time=52
note_on channel=1 note=48 velocity=0 time=0
note_on channel=1 note=53 velocity=99 time=8
note_on channel=1 note=41 velocity=99 time=0
note_on channel=1 note=41 velocity=0 time=145
note_on channel=1 note=53 velocity=0 time=0
note_on channel=1 note=54 velocity=83 time=35
note_on channel=1 note=42 velocity=83 time=0
note_on channel=1 note=42 velocity=0 time=59
note_on channel=1 note=54 velocity=0 time=0
note_on channel=1 note=55 velocity=88 time=1
note_on channel=1 note=43 velocity=88 time=0
note_on channel=1 note=43 velocity=0 time=120
note_on channel=1 note=55 velocity=0 time=0
note_on channel=1 note=56 velocity=76 time=60
note_on channel=1 note=44 velocity=76 time=0
note_on channel=1 note=44 velocity=0 time=59
note_on channel=1 note=56 velocity=0 time=0
note_on channel=1 note=57 velocity=84 time=1
note_on channel=1 note=45 velocity=84 time=0
note_on channel=1 note=45 velocity=0 time=49
note_on channel=1 note=57 velocity=0 time=0
note_on channel=1 note=63 velocity=89 time=11
note_on channel=1 note=51 velocity=89 time=0
note_on channel=1 note=51 velocity=0 time=40
note_on channel=1 note=63 velocity=0 time=0
note_on channel=1 note=62 velocity=91 time=20
note_on channel=1 note=50 velocity=91 time=0
note_on channel=1 note=50 velocity=0 time=49
note_on channel=1 note=62 velocity=0 time=0
note_on channel=1 note=61 velocity=81 time=11
note_on channel=1 note=49 velocity=81 time=0
note_on channel=1 note=49 velocity=0 time=40
note_on channel=1 note=61 velocity=0 time=0
note_on channel=1 note=60 velocity=86 time=20
note_on channel=1 note=48 velocity=86 time=0
note_on channel=1 note=48 velocity=0 time=49
note_on channel=1 note=60 velocity=0 time=0
note_on channel=1 note=59 velocity=80 time=11
note_on channel=1 note=47 velocity=80 time=0
note_on channel=1 note=47 velocity=0 time=40
note_on channel=1 note=59 velocity=0 time=0
note_on channel=1 note=58 velocity=85 time=20
note_on channel=1 note=46 velocity=85 time=0
note_on channel=1 note=46 velocity=0 time=49
note_on channel=1 note=58 velocity=0 time=0
note_on channel=1 note=48 velocity=102 time=11
note_on channel=1 note=36 velocity=102 time=0
note_on channel=1 note=36 velocity=0 time=40
note_on channel=1 note=48 velocity=0 time=0
note_on channel=1 note=41 velocity=82 time=20
note_on channel=1 note=41 velocity=0 time=56
note_on channel=1 note=57 velocity=76 time=4
note_on channel=1 note=60 velocity=76 time=0
note_on channel=1 note=65 velocity=76 time=0
note_on channel=1 note=65 velocity=0 time=29
note_on channel=1 note=60 velocity=0 time=0
note_on channel=1 note=57 velocity=0 time=0
note_on channel=1 note=45 velocity=82 time=31
note_on channel=1 note=45 velocity=0 time=56
note_on channel=1 note=57 velocity=76 time=4
note_on channel=1 note=60 velocity=76 time=0
note_on channel=1 note=65 velocity=76 time=0
note_on channel=1 note=65 velocity=0 time=29
note_on channel=1 note=60 velocity=0 time=0
note_on channel=1 note=57 velocity=0 time=0
note_on channel=1 note=46 velocity=82 time=31
note_on channel=1 note=46 velocity=0 time=56
note_on channel=1 note=58 velocity=76 time=4
note_on channel=1 note=62 velocity=76 time=0
note_on channel=1 note=65 velocity=76 time=0
note_on channel=1 note=65 velocity=0 time=29
note_on channel=1 note=62 velocity=0 time=0
note_on channel=1 note=58 velocity=0 time=0
note_on channel=1 note=45 velocity=82 time=31
note_on channel=1 note=45 velocity=0 time=56
note_on channel=1 note=57 velocity=76 time=4
note_on channel=1 note=60 velocity=76 time=0
note_on channel=1 note=65 velocity=76 time=0
note_on channel=1 note=65 velocity=0 time=29
note_on channel=1 note=60 velocity=0 time=0
note_on channel=1 note=57 velocity=0 time=0
note_on channel=1 note=50 velocity=94 time=31
note_on channel=1 note=38 velocity=94 time=0
note_on channel=1 note=38 velocity=0 time=47
note_on channel=1 note=50 velocity=0 time=0
note_on channel=1 note=38 velocity=86 time=13
note_on channel=1 note=50 velocity=86 time=0
note_on channel=1 note=50 velocity=0 time=40
note_on channel=1 note=38 velocity=0 time=0
note_on channel=1 note=48 velocity=92 time=20
note_on channel=1 note=36 velocity=92 time=0
note_on channel=1 note=36 velocity=0 time=47
note_on channel=1 note=48 velocity=0 time=0
note_on channel=1 note=40 velocity=87 time=13
note_on channel=1 note=52 velocity=87 time=0
note_on channel=1 note=52 velocity=0 time=40
note_on channel=1 note=40 velocity=0 time=0
note_on channel=1 note=53 velocity=96 time=20
note_on channel=1 note=41 velocity=96 time=0
note_on channel=1 note=41 velocity=0 time=47
note_on channel=1 note=53 velocity=0 time=0
note_on channel=1 note=55 velocity=71 time=193
note_on channel=1 note=55 velocity=0 time=57
note_on channel=1 note=58 velocity=65 time=3
note_on channel=1 note=64 velocity=65 time=0
note_on channel=1 note=60 velocity=65 time=0
note_on channel=1 note=60 velocity=0 time=29
note_on channel=1 note=64 velocity=0 time=0
note_on channel=1 note=58 velocity=0 time=0
note_on channel=1 note=48 velocity=71 time=31
note_on channel=1 note=48 velocity=0 time=57
note_on channel=1 note=58 velocity=65 time=3
note_on channel=1 note=60 velocity=65 time=0
note_on channel=1 note=64 velocity=65 time=0
note_on channel=1 note=64 velocity=0 time=29
note_on channel=1 note=60 velocity=0 time=0
note_on channel=1 note=58 velocity=0 time=0
note_on channel=1 note=53 velocity=71 time=31
note_on channel=1 note=53 velocity=0 time=57
note_on channel=1 note=57 velocity=65 time=3
note_on channel=1 note=60 velocity=65 time=0
note_on channel=1 note=60 velocity=0 time=29
note_on channel=1 note=57 velocity=0 time=0
note_on channel=1 note=48 velocity=71 time=31
note_on channel=1 note=48 velocity=0 time=57
note_on channel=1 note=57 velocity=65 time=3
note_on channel=1 note=60 velocity=65 time=0
note_on channel=1 note=60 velocity=0 time=29
note_on channel=1 note=57 velocity=0 time=0
note_on channel=1 note=55 velocity=71 time=31
note_on channel=1 note=55 velocity=0 time=57
note_on channel=1 note=58 velocity=65 time=3
note_on channel=1 note=60 velocity=65 time=0
note_on channel=1 note=60 velocity=0 time=29
note_on channel=1 note=58 velocity=0 time=0
note_on channel=1 note=48 velocity=71 time=31
note_on channel=1 note=48 velocity=0 time=57
note_on channel=1 note=58 velocity=65 time=3
note_on channel=1 note=60 velocity=65 time=0
note_on channel=1 note=60 velocity=0 time=29
note_on channel=1 note=58 velocity=0 time=0
note_on channel=1 note=53 velocity=71 time=31
note_on channel=1 note=53 velocity=0 time=57
note_on channel=1 note=57 velocity=65 time=3
note_on channel=1 note=60 velocity=65 time=0
note_on channel=1 note=60 velocity=0 time=29
note_on channel=1 note=57 velocity=0 time=0
note_on channel=1 note=57 velocity=71 time=31
note_on channel=1 note=57 velocity=0 time=57
note_on channel=1 note=60 velocity=65 time=3
note_on channel=1 note=65 velocity=65 time=0
note_on channel=1 note=65 velocity=0 time=29
note_on channel=1 note=60 velocity=0 time=0
note_on channel=1 note=55 velocity=71 time=31
note_on channel=1 note=55 velocity=0 time=57
note_on channel=1 note=58 velocity=65 time=3
note_on channel=1 note=60 velocity=65 time=0
note_on channel=1 note=64 velocity=65 time=0
note_on channel=1 note=64 velocity=0 time=29
note_on channel=1 note=60 velocity=0 time=0
note_on channel=1 note=58 velocity=0 time=0
note_on channel=1 note=52 velocity=71 time=31
note_on channel=1 note=52 velocity=0 time=57
note_on channel=1 note=55 velocity=65 time=3
note_on channel=1 note=58 velocity=65 time=0
note_on channel=1 note=61 velocity=65 time=0
note_on channel=1 note=61 velocity=0 time=29
note_on channel=1 note=58 velocity=0 time=0
note_on channel=1 note=55 velocity=0 time=0
note_on channel=1 note=50 velocity=71 time=31
note_on channel=1 note=50 velocity=0 time=57
note_on channel=1 note=53 velocity=65 time=3
note_on channel=1 note=57 velocity=65 time=0
note_on channel=1 note=62 velocity=65 time=0
note_on channel=1 note=62 velocity=0 time=29
note_on channel=1 note=57 velocity=0 time=0
note_on channel=1 note=53 velocity=0 time=0
note_on channel=1 note=50 velocity=71 time=31
note_on channel=1 note=50 velocity=0 time=57
note_on channel=1 note=53 velocity=65 time=3
note_on channel=1 note=57 velocity=65 time=0
note_on channel=1 note=62 velocity=65 time=0
note_on channel=1 note=62 velocity=0 time=29
note_on channel=1 note=57 velocity=0 time=0
note_on channel=1 note=53 velocity=0 time=0
note_on channel=1 note=52 velocity=71 time=31
note_on channel=1 note=52 velocity=0 time=57
note_on channel=1 note=57 velocity=65 time=3
note_on channel=1 note=60 velocity=65 time=0
note_on channel=1 note=60 velocity=0 time=29
note_on channel=1 note=57 velocity=0 time=0
note_on channel=1 note=52 velocity=71 time=31
note_on channel=1 note=52 velocity=0 time=57
note_on channel=1 note=56 velocity=65 time=3
note_on channel=1 note=62 velocity=65 time=0
note_on channel=1 note=62 velocity=0 time=29
note_on channel=1 note=56 velocity=0 time=0
note_on channel=1 note=60 velocity=71 time=31
note_on channel=1 note=57 velocity=71 time=0
note_on channel=1 note=57 velocity=0 time=69
note_on channel=1 note=60 velocity=0 time=0
note_on channel=1 note=60 velocity=79 time=51
note_on channel=1 note=48 velocity=79 time=0
note_on channel=1 note=48 velocity=0 time=113
note_on channel=1 note=60 velocity=0 time=0
note_on channel=1 note=55 velocity=71 time=7
note_on channel=1 note=55 velocity=0 time=57
note_on channel=1 note=58 velocity=65 time=3
note_on channel=1 note=64 velocity=65 time=0
note_on channel=1 note=60 velocity=65 time=0
note_on channel=1 note=60 velocity=0 time=29
note_on channel=1 note=64 velocity=0 time=0
note_on channel=1 note=58 velocity=0 time=0
note_on channel=1 note=48 velocity=71 time=31
note_on channel=1 note=48 velocity=0 time=57
note_on channel=1 note=58 velocity=65 time=3
note_on channel=1 note=60 velocity=65 time=0
note_on channel=1 note=64 velocity=65 time=0
note_on channel=1 note=64 velocity=0 time=29
note_on channel=1 note=60 velocity=0 time=0
note_on channel=1 note=58 velocity=0 time=0
note_on channel=1 note=53 velocity=71 time=31
note_on channel=1 note=53 velocity=0 time=57
note_on channel=1 note=57 velocity=65 time=3
note_on channel=1 note=60 velocity=65 time=0
note_on channel=1 note=60 velocity=0 time=29
note_on channel=1 note=57 velocity=0 time=0
note_on channel=1 note=48 velocity=70 time=31
note_on channel=1 note=48 velocity=0 time=57
note_on channel=1 note=57 velocity=64 time=3
note_on channel=1 note=60 velocity=64 time=0
note_on channel=1 note=60 velocity=0 time=29
note_on channel=1 note=57 velocity=0 time=0
note_on channel=1 note=55 velocity=70 time=31
note_on channel=1 note=55 velocity=0 time=57
note_on channel=1 note=58 velocity=64 time=3
note_on channel=1 note=60 velocity=64 time=0
note_on channel=1 note=60 velocity=0 time=29
note_on channel=1 note=58 velocity=0 time=0
note_on channel=1 note=48 velocity=70 time=31
note_on channel=1 note=48 velocity=0 time=57
note_on channel=1 note=58 velocity=64 time=3
note_on channel=1 note=60 velocity=64 time=0
note_on channel=1 note=60 velocity=0 time=29
note_on channel=1 note=58 velocity=0 time=0
note_on channel=1 note=53 velocity=70 time=31
note_on channel=1 note=53 velocity=0 time=57
note_on channel=1 note=57 velocity=64 time=3
note_on channel=1 note=60 velocity=64 time=0
note_on channel=1 note=60 velocity=0 time=29
note_on channel=1 note=57 velocity=0 time=0
note_on channel=1 note=48 velocity=70 time=31
note_on channel=1 note=48 velocity=0 time=57
note_on channel=1 note=60 velocity=64 time=3
note_on channel=1 note=57 velocity=64 time=0
note_on channel=1 note=57 velocity=0 time=29
note_on channel=1 note=60 velocity=0 time=0
note_on channel=1 note=46 velocity=70 time=31
note_on channel=1 note=46 velocity=0 time=57
note_on channel=1 note=55 velocity=64 time=3
note_on channel=1 note=58 velocity=64 time=0
note_on channel=1 note=62 velocity=64 time=0
note_on channel=1 note=62 velocity=0 time=29
note_on channel=1 note=58 velocity=0 time=0
note_on channel=1 note=55 velocity=0 time=0
note_on channel=1 note=46 velocity=70 time=31
note_on channel=1 note=46 velocity=0 time=57
note_on channel=1 note=55 velocity=64 time=3
note_on channel=1 note=58 velocity=64 time=0
note_on channel=1 note=62 velocity=64 time=0
note_on channel=1 note=62 velocity=0 time=29
note_on channel=1 note=58 velocity=0 time=0
note_on channel=1 note=55 velocity=0 time=0
note_on channel=1 note=48 velocity=70 time=31
note_on channel=1 note=48 velocity=0 time=57
note_on channel=1 note=57 velocity=64 time=3
note_on channel=1 note=60 velocity=64 time=0
note_on channel=1 note=60 velocity=0 time=29
note_on channel=1 note=57 velocity=0 time=0
note_on channel=1 note=48 velocity=70 time=31
note_on channel=1 note=48 velocity=0 time=57
note_on channel=1 note=57 velocity=64 time=3
note_on channel=1 note=60 velocity=64 time=0
note_on channel=1 note=60 velocity=0 time=29
note_on channel=1 note=57 velocity=0 time=0
note_on channel=1 note=48 velocity=70 time=31
note_on channel=1 note=48 velocity=0 time=57
note_on channel=1 note=58 velocity=64 time=3
note_on channel=1 note=60 velocity=64 time=0
note_on channel=1 note=64 velocity=64 time=0
note_on channel=1 note=64 velocity=0 time=29
note_on channel=1 note=60 velocity=0 time=0
note_on channel=1 note=58 velocity=0 time=0
note_on channel=1 note=48 velocity=70 time=31
note_on channel=1 note=48 velocity=0 time=57
note_on channel=1 note=58 velocity=64 time=3
note_on channel=1 note=60 velocity=64 time=0
note_on channel=1 note=55 velocity=64 time=0
note_on channel=1 note=55 velocity=0 time=29
note_on channel=1 note=60 velocity=0 time=0
note_on channel=1 note=58 velocity=0 time=0
note_on channel=1 note=60 velocity=70 time=31
note_on channel=1 note=57 velocity=70 time=0
note_on channel=1 note=53 velocity=70 time=0
note_on channel=1 note=53 velocity=0 time=57
note_on channel=1 note=57 velocity=0 time=0
note_on channel=1 note=60 velocity=0 time=0
note_on channel=1 note=55 velocity=75 time=183
note_on channel=1 note=55 velocity=0 time=57
note_on channel=1 note=58 velocity=70 time=3
note_on channel=1 note=64 velocity=70 time=0
note_on channel=1 note=60 velocity=70 time=0
note_on channel=1 note=60 velocity=0 time=29
note_on channel=1 note=64 velocity=0 time=0
note_on channel=1 note=58 velocity=0 time=0
note_on channel=1 note=48 velocity=75 time=31
note_on channel=1 note=48 velocity=0 time=57
note_on channel=1 note=58 velocity=70 time=3
note_on channel=1 note=60 velocity=70 time=0
note_on channel=1 note=64 velocity=70 time=0
note_on channel=1 note=64 velocity=0 time=29
note_on channel=1 note=60 velocity=0 time=0
note_on channel=1 note=58 velocity=0 time=0
note_on channel=1 note=53 velocity=75 time=31
note_on channel=1 note=53 velocity=0 time=57
note_on channel=1 note=57 velocity=70 time=3
note_on channel=1 note=60 velocity=70 time=0
note_on channel=1 note=60 velocity=0 time=29
note_on channel=1 note=57 velocity=0 time=0
note_on channel=1 note=48 velocity=75 time=31
note_on channel=1 note=48 velocity=0 time=57
note_on channel=1 note=57 velocity=70 time=3
note_on channel=1 note=60 velocity=70 time=0
note_on channel=1 note=60 velocity=0 time=29
note_on channel=1 note=57 velocity=0 time=0
note_on channel=1 note=55 velocity=75 time=31
note_on channel=1 note=55 velocity=0 time=57
note_on channel=1 note=58 velocity=70 time=3
note_on channel=1 note=60 velocity=70 time=0
note_on channel=1 note=60 velocity=0 time=29
note_on channel=1 note=58 velocity=0 time=0
note_on channel=1 note=48 velocity=75 time=31
note_on channel=1 note=48 velocity=0 time=57
note_on channel=1 note=58 velocity=70 time=3
note_on channel=1 note=60 velocity=70 time=0
note_on channel=1 note=60 velocity=0 time=29
note_on channel=1 note=58 velocity=0 time=0
note_on channel=1 note=53 velocity=75 time=31
note_on channel=1 note=53 velocity=0 time=57
note_on channel=1 note=57 velocity=70 time=3
note_on channel=1 note=60 velocity=70 time=0
note_on channel=1 note=60 velocity=0 time=29
note_on channel=1 note=57 velocity=0 time=0
note_on channel=1 note=57 velocity=75 time=31
note_on channel=1 note=57 velocity=0 time=57
note_on channel=1 note=60 velocity=70 time=3
note_on channel=1 note=65 velocity=70 time=0
note_on channel=1 note=65 velocity=0 time=29
note_on channel=1 note=60 velocity=0 time=0
note_on channel=1 note=55 velocity=75 time=31
note_on channel=1 note=55 velocity=0 time=57
note_on channel=1 note=58 velocity=70 time=3
note_on channel=1 note=60 velocity=70 time=0
note_on channel=1 note=64 velocity=70 time=0
note_on channel=1 note=64 velocity=0 time=29
note_on channel=1 note=60 velocity=0 time=0
note_on channel=1 note=58 velocity=0 time=0
note_on channel=1 note=52 velocity=75 time=31
note_on channel=1 note=52 velocity=0 time=57
note_on channel=1 note=55 velocity=70 time=3
note_on channel=1 note=58 velocity=70 time=0
note_on channel=1 note=61 velocity=70 time=0
note_on channel=1 note=61 velocity=0 time=29
note_on channel=1 note=58 velocity=0 time=0
note_on channel=1 note=55 velocity=0 time=0
note_on channel=1 note=50 velocity=75 time=31
note_on channel=1 note=50 velocity=0 time=57
note_on channel=1 note=53 velocity=69 time=3
note_on channel=1 note=57 velocity=69 time=0
note_on channel=1 note=62 velocity=69 time=0
note_on channel=1 note=62 velocity=0 time=29
note_on channel=1 note=57 velocity=0 time=0
note_on channel=1 note=53 velocity=0 time=0
note_on channel=1 note=50 velocity=74 time=31
note_on channel=1 note=50 velocity=0 time=57
note_on channel=1 note=53 velocity=69 time=3
note_on channel=1 note=57 velocity=69 time=0
note_on channel=1 note=62 velocity=69 time=0
note_on channel=1 note=62 velocity=0 time=29
note_on channel=1 note=57 velocity=0 time=0
note_on channel=1 note=53 velocity=0 time=0
note_on channel=1 note=52 velocity=74 time=31
note_on channel=1 note=52 velocity=0 time=57
note_on channel=1 note=57 velocity=69 time=3
note_on channel=1 note=60 velocity=69 time=0
note_on channel=1 note=60 velocity=0 time=29
note_on channel=1 note=57 velocity=0 time=0
note_on channel=1 note=52 velocity=74 time=31
note_on channel=1 note=52 velocity=0 time=57
note_on channel=1 note=56 velocity=69 time=3
note_on channel=1 note=62 velocity=69 time=0
note_on channel=1 note=62 velocity=0 time=29
note_on channel=1 note=56 velocity=0 time=0
note_on channel=1 note=60 velocity=74 time=31
note_on channel=1 note=57 velocity=74 time=0
note_on channel=1 note=57 velocity=0 time=69
note_on channel=1 note=60 velocity=0 time=0
note_on channel=1 note=60 velocity=84 time=51
note_on channel=1 note=48 velocity=84 time=0
note_on channel=1 note=48 velocity=0 time=113
note_on channel=1 note=60 velocity=0 time=0
note_on channel=1 note=55 velocity=74 time=7
note_on channel=1 note=55 velocity=0 time=57
note_on channel=1 note=58 velocity=69 time=3
note_on channel=1 note=64 velocity=69 time=0
note_on channel=1 note=60 velocity=69 time=0
note_on channel=1 note=60 velocity=0 time=29
note_on channel=1 note=64 velocity=0 time=0
note_on channel=1 note=58 velocity=0 time=0
note_on channel=1 note=48 velocity=74 time=31
note_on channel=1 note=48 velocity=0 time=57
note_on channel=1 note=58 velocity=69 time=3
note_on channel=1 note=60 velocity=69 time=0
note_on channel=1 note=64 velocity=69 time=0
note_on channel=1 note=64 velocity=0 time=29
note_on channel=1 note=60 velocity=0 time=0
note_on channel=1 note=58 velocity=0 time=0
note_on channel=1 note=53 velocity=74 time=31
note_on channel=1 note=53 velocity=0 time=57
note_on channel=1 note=57 velocity=69 time=3
note_on channel=1 note=60 velocity=69 time=0
note_on channel=1 note=60 velocity=0 time=29
note_on channel=1 note=57 velocity=0 time=0
note_on channel=1 note=48 velocity=74 time=31
note_on channel=1 note=48 velocity=0 time=57
note_on channel=1 note=57 velocity=69 time=3
note_on channel=1 note=60 velocity=69 time=0
note_on channel=1 note=60 velocity=0 time=29
note_on channel=1 note=57 velocity=0 time=0
note_on channel=1 note=55 velocity=74 time=31
note_on channel=1 note=55 velocity=0 time=57
note_on channel=1 note=58 velocity=69 time=3
note_on channel=1 note=60 velocity=69 time=0
note_on channel=1 note=60 velocity=0 time=29
note_on channel=1 note=58 velocity=0 time=0
note_on channel=1 note=48 velocity=74 time=31
note_on channel=1 note=48 velocity=0 time=57
note_on channel=1 note=58 velocity=69 time=3
note_on channel=1 note=60 velocity=69 time=0
note_on channel=1 note=60 velocity=0 time=29
note_on channel=1 note=58 velocity=0 time=0
note_on channel=1 note=53 velocity=74 time=31
note_on channel=1 note=53 velocity=0 time=57
note_on channel=1 note=57 velocity=69 time=3
note_on channel=1 note=60 velocity=69 time=0
note_on channel=1 note=60 velocity=0 time=29
note_on channel=1 note=57 velocity=0 time=0
note_on channel=1 note=48 velocity=74 time=31
note_on channel=1 note=48 velocity=0 time=57
note_on channel=1 note=60 velocity=69 time=3
note_on channel=1 note=57 velocity=69 time=0
note_on channel=1 note=57 velocity=0 time=29
note_on channel=1 note=60 velocity=0 time=0
note_on channel=1 note=46 velocity=74 time=31
note_on channel=1 note=46 velocity=0 time=57
note_on channel=1 note=55 velocity=69 time=3
note_on channel=1 note=58 velocity=69 time=0
note_on channel=1 note=62 velocity=69 time=0
note_on channel=1 note=62 velocity=0 time=29
note_on channel=1 note=58 velocity=0 time=0
note_on channel=1 note=55 velocity=0 time=0
note_on channel=1 note=46 velocity=74 time=31
note_on channel=1 note=46 velocity=0 time=57
note_on channel=1 note=55 velocity=69 time=3
note_on channel=1 note=58 velocity=69 time=0
note_on channel=1 note=62 velocity=69 time=0
note_on channel=1 note=62 velocity=0 time=29
note_on channel=1 note=58 velocity=0 time=0
note_on channel=1 note=55 velocity=0 time=0
note_on channel=1 note=48 velocity=74 time=31
note_on channel=1 note=48 velocity=0 time=57
note_on channel=1 note=57 velocity=69 time=3
note_on channel=1 note=60 velocity=69 time=0
note_on channel=1 note=60 velocity=0 time=29
note_on channel=1 note=57 velocity=0 time=0
note_on channel=1 note=48 velocity=74 time=31
note_on channel=1 note=48 velocity=0 time=57
note_on channel=1 note=57 velocity=69 time=3
note_on channel=1 note=60 velocity=69 time=0
note_on channel=1 note=60 velocity=0 time=29
note_on channel=1 note=57 velocity=0 time=0
note_on channel=1 note=48 velocity=74 time=31
note_on channel=1 note=48 velocity=0 time=57
note_on channel=1 note=58 velocity=69 time=3
note_on channel=1 note=60 velocity=69 time=0
note_on channel=1 note=64 velocity=69 time=0
note_on channel=1 note=64 velocity=0 time=29
note_on channel=1 note=60 velocity=0 time=0
note_on channel=1 note=58 velocity=0 time=0
note_on channel=1 note=48 velocity=74 time=31
note_on channel=1 note=48 velocity=0 time=57
note_on channel=1 note=58 velocity=69 time=3
note_on channel=1 note=60 velocity=69 time=0
note_on channel=1 note=55 velocity=69 time=0
note_on channel=1 note=55 velocity=0 time=29
note_on channel=1 note=60 velocity=0 time=0
note_on channel=1 note=58 velocity=0 time=0
note_on channel=1 note=60 velocity=74 time=31
note_on channel=1 note=57 velocity=74 time=0
note_on channel=1 note=53 velocity=74 time=0
note_on channel=1 note=53 velocity=0 time=57
note_on channel=1 note=57 velocity=0 time=0
note_on channel=1 note=60 velocity=0 time=0
note_on channel=1 note=48 velocity=85 time=3
note_on channel=1 note=36 velocity=85 time=0
note_on channel=1 note=36 velocity=0 time=40
note_on channel=1 note=48 velocity=0 time=0
note_on channel=1 note=38 velocity=89 time=20
note_on channel=1 note=50 velocity=89 time=0
note_on channel=1 note=50 velocity=0 time=47
note_on channel=1 note=38 velocity=0 time=0
note_on channel=1 note=52 velocity=85 time=13
note_on channel=1 note=40 velocity=85 time=0
note_on channel=1 note=40 velocity=0 time=40
note_on channel=1 note=52 velocity=0 time=0
note_on channel=1 note=53 velocity=96 time=20
note_on channel=1 note=41 velocity=96 time=0
note_on channel=1 note=41 velocity=0 time=145
note_on channel=1 note=53 velocity=0 time=0
note_on channel=1 note=54 velocity=80 time=35
note_on channel=1 note=42 velocity=80 time=0
note_on channel=1 note=42 velocity=0 time=59
note_on channel=1 note=54 velocity=0 time=0
note_on channel=1 note=55 velocity=85 time=1
note_on channel=1 note=43 velocity=85 time=0
note_on channel=1 note=43 velocity=0 time=120
note_on channel=1 note=55 velocity=0 time=0
note_on channel=1 note=56 velocity=73 time=60
note_on channel=1 note=44 velocity=73 time=0
note_on channel=1 note=44 velocity=0 time=59
note_on channel=1 note=56 velocity=0 time=0
note_on channel=1 note=57 velocity=81 time=1
note_on channel=1 note=45 velocity=81 time=0
note_on channel=1 note=45 velocity=0 time=49
note_on channel=1 note=57 velocity=0 time=0
note_on channel=1 note=63 velocity=86 time=11
note_on channel=1 note=51 velocity=86 time=0
note_on channel=1 note=51 velocity=0 time=40
note_on channel=1 note=63 velocity=0 time=0
note_on channel=1 note=62 velocity=88 time=20
note_on channel=1 note=50 velocity=88 time=0
note_on channel=1 note=50 velocity=0 time=49
note_on channel=1 note=62 velocity=0 time=0
note_on channel=1 note=61 velocity=78 time=11
note_on channel=1 note=49 velocity=78 time=0
note_on channel=1 note=49 velocity=0 time=40
note_on channel=1 note=61 velocity=0 time=0
note_on channel=1 note=60 velocity=83 time=20
note_on channel=1 note=48 velocity=83 time=0
note_on channel=1 note=48 velocity=0 time=49
note_on channel=1 note=60 velocity=0 time=0
note_on channel=1 note=59 velocity=77 time=11
note_on channel=1 note=47 velocity=77 time=0
note_on channel=1 note=47 velocity=0 time=40
note_on channel=1 note=59 velocity=0 time=0
note_on channel=1 note=58 velocity=82 time=20
note_on channel=1 note=46 velocity=82 time=0
note_on channel=1 note=46 velocity=0 time=49
note_on channel=1 note=58 velocity=0 time=0
note_on channel=1 note=48 velocity=97 time=11
note_on channel=1 note=36 velocity=97 time=0
note_on channel=1 note=36 velocity=0 time=40
note_on channel=1 note=48 velocity=0 time=0
note_on channel=1 note=41 velocity=79 time=20
note_on channel=1 note=41 velocity=0 time=56
note_on channel=1 note=57 velocity=73 time=4
note_on channel=1 note=60 velocity=73 time=0
note_on channel=1 note=65 velocity=73 time=0
note_on channel=1 note=65 velocity=0 time=29
note_on channel=1 note=60 velocity=0 time=0
note_on channel=1 note=57 velocity=0 time=0
note_on channel=1 note=45 velocity=79 time=31
note_on channel=1 note=45 velocity=0 time=56
note_on channel=1 note=57 velocity=73 time=4
note_on channel=1 note=60 velocity=73 time=0
note_on channel=1 note=65 velocity=73 time=0
note_on channel=1 note=65 velocity=0 time=29
note_on channel=1 note=60 velocity=0 time=0
note_on channel=1 note=57 velocity=0 time=0
note_on channel=1 note=46 velocity=79 time=31
note_on channel=1 note=46 velocity=0 time=56
note_on channel=1 note=58 velocity=73 time=4
note_on channel=1 note=62 velocity=73 time=0
note_on channel=1 note=65 velocity=73 time=0
note_on channel=1 note=65 velocity=0 time=29
note_on channel=1 note=62 velocity=0 time=0
note_on channel=1 note=58 velocity=0 time=0
note_on channel=1 note=45 velocity=79 time=31
note_on channel=1 note=45 velocity=0 time=56
note_on channel=1 note=57 velocity=73 time=4
note_on channel=1 note=60 velocity=73 time=0
note_on channel=1 note=65 velocity=73 time=0
note_on channel=1 note=65 velocity=0 time=29
note_on channel=1 note=60 velocity=0 time=0
note_on channel=1 note=57 velocity=0 time=0
note_on channel=1 note=47 velocity=79 time=31
note_on channel=1 note=47 velocity=0 time=56
note_on channel=1 note=55 velocity=73 time=4
note_on channel=1 note=59 velocity=73 time=0
note_on channel=1 note=65 velocity=73 time=0
note_on channel=1 note=65 velocity=0 time=29
note_on channel=1 note=59 velocity=0 time=0
note_on channel=1 note=55 velocity=0 time=0
note_on channel=1 note=43 velocity=79 time=31
note_on channel=1 note=43 velocity=0 time=56
note_on channel=1 note=65 velocity=73 time=4
note_on channel=1 note=59 velocity=73 time=0
note_on channel=1 note=55 velocity=73 time=0
note_on channel=1 note=55 velocity=0 time=29
note_on channel=1 note=59 velocity=0 time=0
note_on channel=1 note=65 velocity=0 time=0
note_on channel=1 note=60 velocity=73 time=31
note_on channel=1 note=64 velocity=73 time=0
note_on channel=1 note=64 velocity=0 time=50
note_on channel=1 note=60 velocity=0 time=0
note_on channel=1 note=60 velocity=98 time=70
note_on channel=1 note=48 velocity=98 time=0
note_on channel=1 note=48 velocity=0 time=45
note_on channel=1 note=60 velocity=0 time=0
note_on channel=1 note=48 velocity=83 time=15
note_on channel=1 note=36 velocity=83 time=0
note_on channel=1 note=36 velocity=0 time=52
note_on channel=1 note=48 velocity=0 time=0
note_on channel=1 note=53 velocity=95 time=8
note_on channel=1 note=41 velocity=95 time=0
note_on channel=1 note=41 velocity=0 time=145
note_on channel=1 note=53 velocity=0 time=0
note_on channel=1 note=54 velocity=80 time=35
note_on channel=1 note=42 velocity=80 time=0
note_on channel=1 note=42 velocity=0 time=59
note_on channel=1 note=54 velocity=0 time=0
note_on channel=1 note=55 velocity=85 time=1
note_on channel=1 note=43 velocity=85 time=0
note_on channel=1 note=43 velocity=0 time=120
note_on channel=1 note=55 velocity=0 time=0
note_on channel=1 note=56 velocity=73 time=60
note_on channel=1 note=44 velocity=73 time=0
note_on channel=1 note=44 velocity=0 time=59
note_on channel=1 note=56 velocity=0 time=0
note_on channel=1 note=57 velocity=81 time=1
note_on channel=1 note=45 velocity=81 time=0
note_on channel=1 note=45 velocity=0 time=49
note_on channel=1 note=57 velocity=0 time=0
note_on channel=1 note=63 velocity=86 time=11
note_on channel=1 note=51 velocity=86 time=0
note_on channel=1 note=51 velocity=0 time=40
note_on channel=1 note=63 velocity=0 time=0
note_on channel=1 note=62 velocity=88 time=20
note_on channel=1 note=50 velocity=88 time=0
note_on channel=1 note=50 velocity=0 time=49
note_on channel=1 note=62 velocity=0 time=0
note_on channel=1 note=61 velocity=78 time=11
note_on channel=1 note=49 velocity=78 time=0
note_on channel=1 note=49 velocity=0 time=40
note_on channel=1 note=61 velocity=0 time=0
note_on channel=1 note=60 velocity=83 time=20
note_on channel=1 note=48 velocity=83 time=0
note_on channel=1 note=48 velocity=0 time=49
note_on channel=1 note=60 velocity=0 time=0
note_on channel=1 note=59 velocity=77 time=11
note_on channel=1 note=47 velocity=77 time=0
note_on channel=1 note=47 velocity=0 time=40
note_on channel=1 note=59 velocity=0 time=0
note_on channel=1 note=58 velocity=82 time=20
note_on channel=1 note=46 velocity=82 time=0
note_on channel=1 note=46 velocity=0 time=49
note_on channel=1 note=58 velocity=0 time=0
note_on channel=1 note=48 velocity=97 time=11
note_on channel=1 note=36 velocity=97 time=0
note_on channel=1 note=36 velocity=0 time=40
note_on channel=1 note=48 velocity=0 time=0
note_on channel=1 note=41 velocity=79 time=20
note_on channel=1 note=41 velocity=0 time=56
note_on channel=1 note=57 velocity=73 time=4
note_on channel=1 note=60 velocity=73 time=0
note_on channel=1 note=65 velocity=73 time=0
note_on channel=1 note=65 velocity=0 time=29
note_on channel=1 note=60 velocity=0 time=0
note_on channel=1 note=57 velocity=0 time=0
note_on channel=1 note=45 velocity=78 time=31
note_on channel=1 note=45 velocity=0 time=56
note_on channel=1 note=57 velocity=72 time=4
note_on channel=1 note=60 velocity=72 time=0
note_on channel=1 note=65 velocity=72 time=0
note_on channel=1 note=65 velocity=0 time=29
note_on channel=1 note=60 velocity=0 time=0
note_on channel=1 note=57 velocity=0 time=0
note_on channel=1 note=46 velocity=78 time=31
note_on channel=1 note=46 velocity=0 time=56
note_on channel=1 note=58 velocity=72 time=4
note_on channel=1 note=62 velocity=72 time=0
note_on channel=1 note=65 velocity=72 time=0
note_on channel=1 note=65 velocity=0 time=29
note_on channel=1 note=62 velocity=0 time=0
note_on channel=1 note=58 velocity=0 time=0
note_on channel=1 note=45 velocity=78 time=31
note_on channel=1 note=45 velocity=0 time=56
note_on channel=1 note=57 velocity=72 time=4
note_on channel=1 note=60 velocity=72 time=0
note_on channel=1 note=65 velocity=72 time=0
note_on channel=1 note=65 velocity=0 time=29
note_on channel=1 note=60 velocity=0 time=0
note_on channel=1 note=57 velocity=0 time=0
note_on channel=1 note=50 velocity=90 time=31
note_on channel=1 note=38 velocity=90 time=0
note_on channel=1 note=38 velocity=0 time=47
note_on channel=1 note=50 velocity=0 time=0
note_on channel=1 note=38 velocity=82 time=13
note_on channel=1 note=50 velocity=82 time=0
note_on channel=1 note=50 velocity=0 time=40
note_on channel=1 note=38 velocity=0 time=0
note_on channel=1 note=48 velocity=88 time=20
note_on channel=1 note=36 velocity=88 time=0
note_on channel=1 note=36 velocity=0 time=54
note_on channel=1 note=48 velocity=0 time=0
note_on channel=1 note=40 velocity=83 time=6
note_on channel=1 note=52 velocity=83 time=0
note_on channel=1 note=52 velocity=0 time=46
note_on channel=1 note=40 velocity=0 time=0
note_on channel=1 note=53 velocity=92 time=14
note_on channel=1 note=41 velocity=92 time=0
note_on channel=1 note=41 velocity=0 time=62
note_on channel=1 note=53 velocity=0 time=0
note_on channel=1 note=53 velocity=96 time=58
note_on channel=1 note=41 velocity=96 time=0
note_on channel=1 note=41 velocity=0 time=91
note_on channel=1 note=53 velocity=0 time=0
note_on channel=1 note=46 velocity=68 time=29
note_on channel=1 note=46 velocity=0 time=56
note_on channel=1 note=53 velocity=62 time=4
note_on channel=1 note=58 velocity=62 time=0
note_on channel=1 note=62 velocity=62 time=0
note_on channel=1 note=62 velocity=0 time=35
note_on channel=1 note=58 velocity=0 time=0
note_on channel=1 note=53 velocity=0 time=0
note_on channel=1 note=50 velocity=68 time=25
note_on channel=1 note=50 velocity=0 time=56
note_on channel=1 note=53 velocity=62 time=4
note_on channel=1 note=58 velocity=62 time=0
note_on channel=1 note=62 velocity=62 time=0
note_on channel=1 note=62 velocity=0 time=35
note_on channel=1 note=58 velocity=0 time=0
note_on channel=1 note=53 velocity=0 time=0
note_on channel=1 note=51 velocity=68 time=25
note_on channel=1 note=51 velocity=0 time=56
note_on channel=1 note=55 velocity=62 time=4
note_on channel=1 note=58 velocity=62 time=0
note_on channel=1 note=63 velocity=62 time=0
note_on channel=1 note=63 velocity=0 time=35
note_on channel=1 note=58 velocity=0 time=0
note_on channel=1 note=55 velocity=0 time=0
note_on channel=1 note=50 velocity=68 time=25
note_on channel=1 note=50 velocity=0 time=56
note_on channel=1 note=53 velocity=62 time=4
note_on channel=1 note=58 velocity=62 time=0
note_on channel=1 note=62 velocity=62 time=0
note_on channel=1 note=62 velocity=0 time=35
note_on channel=1 note=58 velocity=0 time=0
note_on channel=1 note=53 velocity=0 time=0
note_on channel=1 note=46 velocity=68 time=25
note_on channel=1 note=46 velocity=0 time=56
note_on channel=1 note=53 velocity=62 time=4
note_on channel=1 note=58 velocity=62 time=0
note_on channel=1 note=62 velocity=62 time=0
note_on channel=1 note=62 velocity=0 time=35
note_on channel=1 note=58 velocity=0 time=0
note_on channel=1 note=53 velocity=0 time=0
note_on channel=1 note=48 velocity=68 time=25
note_on channel=1 note=48 velocity=0 time=56
note_on channel=1 note=58 velocity=62 time=4
note_on channel=1 note=60 velocity=62 time=0
note_on channel=1 note=64 velocity=62 time=0
note_on channel=1 note=64 velocity=0 time=35
note_on channel=1 note=60 velocity=0 time=0
note_on channel=1 note=58 velocity=0 time=0
note_on channel=1 note=63 velocity=68 time=25
note_on channel=1 note=57 velocity=68 time=0
note_on channel=1 note=53 velocity=68 time=0
note_on channel=1 note=53 velocity=0 time=56
note_on channel=1 note=57 velocity=0 time=0
note_on channel=1 note=63 velocity=0 time=0
note_on channel=1 note=41 velocity=72 time=4
note_on channel=1 note=53 velocity=72 time=0
note_on channel=1 note=53 velocity=0 time=49
note_on channel=1 note=41 velocity=0 time=0
note_on channel=1 note=55 velocity=71 time=11
note_on channel=1 note=43 velocity=71 time=0
note_on channel=1 note=43 velocity=0 time=56
note_on channel=1 note=55 velocity=0 time=0
note_on channel=1 note=45 velocity=68 time=4
note_on channel=1 note=57 velocity=68 time=0
note_on channel=1 note=57 velocity=0 time=49
note_on channel=1 note=45 velocity=0 time=0
note_on channel=1 note=58 velocity=68 time=11
note_on channel=1 note=46 velocity=68 time=0
note_on channel=1 note=46 velocity=0 time=56
note_on channel=1 note=58 velocity=0 time=0
note_on channel=1 note=53 velocity=62 time=4
note_on channel=1 note=58 velocity=62 time=0
note_on channel=1 note=62 velocity=62 time=0
note_on channel=1 note=62 velocity=0 time=35
note_on channel=1 note=58 velocity=0 time=0
note_on channel=1 note=53 velocity=0 time=0
note_on channel=1 note=50 velocity=68 time=25
note_on channel=1 note=50 velocity=0 time=56
note_on channel=1 note=54 velocity=62 time=4
note_on channel=1 note=60 velocity=62 time=0
note_on channel=1 note=62 velocity=62 time=0
note_on channel=1 note=62 velocity=0 time=35
note_on channel=1 note=60 velocity=0 time=0
note_on channel=1 note=54 velocity=0 time=0
note_on channel=1 note=55 velocity=68 time=25
note_on channel=1 note=55 velocity=0 time=56
note_on channel=1 note=58 velocity=62 time=4
note_on channel=1 note=62 velocity=62 time=0
note_on channel=1 note=62 velocity=0 time=35
note_on channel=1 note=58 velocity=0 time=0
note_on channel=1 note=55 velocity=68 time=25
note_on channel=1 note=55 velocity=0 time=56
note_on channel=1 note=58 velocity=62 time=4
note_on channel=1 note=62 velocity=62 time=0
note_on channel=1 note=62 velocity=0 time=35
note_on channel=1 note=58 velocity=0 time=0
note_on channel=1 note=57 velocity=68 time=25
note_on channel=1 note=57 velocity=0 time=56
note_on channel=1 note=62 velocity=62 time=4
note_on channel=1 note=65 velocity=62 time=0
note_on channel=1 note=65 velocity=0 time=35
note_on channel=1 note=62 velocity=0 time=0
note_on channel=1 note=57 velocity=68 time=25
note_on channel=1 note=57 velocity=0 time=56
note_on channel=1 note=61 velocity=72 time=4
note_on channel=1 note=67 velocity=72 time=0
note_on channel=1 note=67 velocity=0 time=56
note_on channel=1 note=61 velocity=0 time=0
note_on channel=1 note=62 velocity=68 time=4
note_on channel=1 note=65 velocity=68 time=0
note_on channel=1 note=65 velocity=0 time=56
note_on channel=1 note=62 velocity=0 time=0
note_on channel=1 note=53 velocity=76 time=64
note_on channel=1 note=41 velocity=76 time=0
note_on channel=1 note=41 velocity=0 time=111
note_on channel=1 note=53 velocity=0 time=0
note_on channel=1 note=46 velocity=67 time=9
note_on channel=1 note=34 velocity=67 time=0
note_on channel=1 note=34 velocity=0 time=56
note_on channel=1 note=46 velocity=0 time=0
note_on channel=1 note=53 velocity=61 time=4
note_on channel=1 note=58 velocity=61 time=0
note_on channel=1 note=62 velocity=61 time=0
note_on channel=1 note=62 velocity=0 time=35
note_on channel=1 note=58 velocity=0 time=0
note_on channel=1 note=53 velocity=0 time=0
note_on channel=1 note=50 velocity=67 time=25
note_on channel=1 note=50 velocity=0 time=56
note_on channel=1 note=53 velocity=61 time=4
note_on channel=1 note=58 velocity=61 time=0
note_on channel=1 note=62 velocity=61 time=0
note_on channel=1 note=62 velocity=0 time=35
note_on channel=1 note=58 velocity=0 time=0
note_on channel=1 note=53 velocity=0 time=0
note_on channel=1 note=51 velocity=67 time=25
note_on channel=1 note=51 velocity=0 time=56
note_on channel=1 note=55 velocity=61 time=4
note_on channel=1 note=58 velocity=61 time=0
note_on channel=1 note=63 velocity=61 time=0
note_on channel=1 note=63 velocity=0 time=35
note_on channel=1 note=58 velocity=0 time=0
note_on channel=1 note=55 velocity=0 time=0
note_on channel=1 note=50 velocity=67 time=25
note_on channel=1 note=50 velocity=0 time=56
note_on channel=1 note=53 velocity=61 time=4
note_on channel=1 note=58 velocity=61 time=0
note_on channel=1 note=62 velocity=61 time=0
note_on channel=1 note=62 velocity=0 time=35
note_on channel=1 note=58 velocity=0 time=0
note_on channel=1 note=53 velocity=0 time=0
note_on channel=1 note=46 velocity=67 time=25
note_on channel=1 note=46 velocity=0 time=56
note_on channel=1 note=53 velocity=61 time=4
note_on channel=1 note=58 velocity=61 time=0
note_on channel=1 note=62 velocity=61 time=0
note_on channel=1 note=62 velocity=0 time=35
note_on channel=1 note=58 velocity=0 time=0
note_on channel=1 note=53 velocity=0 time=0
note_on channel=1 note=48 velocity=67 time=25
note_on channel=1 note=48 velocity=0 time=56
note_on channel=1 note=58 velocity=64 time=4
note_on channel=1 note=60 velocity=64 time=0
note_on channel=1 note=64 velocity=64 time=0
note_on channel=1 note=64 velocity=0 time=40
note_on channel=1 note=60 velocity=0 time=0
note_on channel=1 note=58 velocity=0 time=0
note_on channel=1 note=63 velocity=67 time=20
note_on channel=1 note=57 velocity=67 time=0
note_on channel=1 note=53 velocity=67 time=0
note_on channel=1 note=53 velocity=0 time=56
note_on channel=1 note=57 velocity=0 time=0
note_on channel=1 note=63 velocity=0 time=0
note_on channel=1 note=41 velocity=73 time=4
note_on channel=1 note=53 velocity=73 time=0
note_on channel=1 note=53 velocity=0 time=48
note_on channel=1 note=41 velocity=0 time=0
note_on channel=1 note=55 velocity=72 time=12
note_on channel=1 note=43 velocity=72 time=0
note_on channel=1 note=43 velocity=0 time=48
note_on channel=1 note=55 velocity=0 time=8
note_on channel=1 note=45 velocity=69 time=4
note_on channel=1 note=57 velocity=69 time=0
note_on channel=1 note=57 velocity=0 time=48
note_on channel=1 note=45 velocity=0 time=0
note_on channel=1 note=58 velocity=67 time=12
note_on channel=1 note=46 velocity=67 time=0
note_on channel=1 note=46 velocity=0 time=56
note_on channel=1 note=58 velocity=0 time=0
note_on channel=1 note=53 velocity=61 time=4
note_on channel=1 note=58 velocity=61 time=0
note_on channel=1 note=62 velocity=61 time=0
note_on channel=1 note=62 velocity=0 time=35
note_on channel=1 note=58 velocity=0 time=0
note_on channel=1 note=53 velocity=0 time=0
note_on channel=1 note=50 velocity=67 time=25
note_on channel=1 note=50 velocity=0 time=56
note_on channel=1 note=53 velocity=61 time=4
note_on channel=1 note=58 velocity=61 time=0
note_on channel=1 note=62 velocity=61 time=0
note_on channel=1 note=62 velocity=0 time=35
note_on channel=1 note=58 velocity=0 time=0
note_on channel=1 note=53 velocity=0 time=0
note_on channel=1 note=51 velocity=67 time=25
note_on channel=1 note=51 velocity=0 time=56
note_on channel=1 note=55 velocity=61 time=4
note_on channel=1 note=58 velocity=61 time=0
note_on channel=1 note=63 velocity=61 time=0
note_on channel=1 note=63 velocity=0 time=35
note_on channel=1 note=58 velocity=0 time=0
note_on channel=1 note=55 velocity=0 time=0
note_on channel=1 note=52 velocity=67 time=25
note_on channel=1 note=52 velocity=0 time=56
note_on channel=1 note=55 velocity=61 time=4
note_on channel=1 note=58 velocity=61 time=0
note_on channel=1 note=61 velocity=61 time=0
note_on channel=1 note=61 velocity=0 time=35
note_on channel=1 note=58 velocity=0 time=0
note_on channel=1 note=55 velocity=0 time=0
note_on channel=1 note=53 velocity=67 time=25
note_on channel=1 note=53 velocity=0 time=56
note_on channel=1 note=58 velocity=61 time=4
note_on channel=1 note=62 velocity=61 time=0
note_on channel=1 note=62 velocity=0 time=35
note_on channel=1 note=58 velocity=0 time=0
note_on channel=1 note=41 velocity=74 time=25
note_on channel=1 note=41 velocity=0 time=56
note_on channel=1 note=53 velocity=71 time=4
note_on channel=1 note=57 velocity=71 time=0
note_on channel=1 note=63 velocity=71 time=0
note_on channel=1 note=63 velocity=0 time=48
note_on channel=1 note=57 velocity=0 time=0
note_on channel=1 note=53 velocity=0 time=0
note_on channel=1 note=62 velocity=72 time=12
note_on channel=1 note=58 velocity=72 time=0
note_on channel=1 note=58 velocity=0 time=56
note_on channel=1 note=62 velocity=0 time=0
note_on channel=1 note=46 velocity=72 time=184
note_on channel=1 note=46 velocity=0 time=56
note_on channel=1 note=53 velocity=67 time=4
note_on channel=1 note=58 velocity=67 time=0
note_on channel=1 note=62 velocity=67 time=0
note_on channel=1 note=62 velocity=0 time=35
note_on channel=1 note=58 velocity=0 time=0
note_on channel=1 note=53 velocity=0 time=0
note_on channel=1 note=50 velocity=72 time=25
note_on channel=1 note=50 velocity=0 time=56
note_on channel=1 note=53 velocity=67 time=4
note_on channel=1 note=58 velocity=67 time=0
note_on channel=1 note=62 velocity=67 time=0
note_on channel=1 note=62 velocity=0 time=35
note_on channel=1 note=58 velocity=0 time=0
note_on channel=1 note=53 velocity=0 time=0
note_on channel=1 note=51 velocity=72 time=25
note_on channel=1 note=51 velocity=0 time=56
note_on channel=1 note=55 velocity=67 time=4
note_on channel=1 note=58 velocity=67 time=0
note_on channel=1 note=63 velocity=67 time=0
note_on channel=1 note=63 velocity=0 time=35
note_on channel=1 note=58 velocity=0 time=0
note_on channel=1 note=55 velocity=0 time=0
note_on channel=1 note=50 velocity=72 time=25
note_on channel=1 note=50 velocity=0 time=56
note_on channel=1 note=53 velocity=67 time=4
note_on channel=1 note=58 velocity=67 time=0
note_on channel=1 note=62 velocity=67 time=0
note_on channel=1 note=62 velocity=0 time=35
note_on channel=1 note=58 velocity=0 time=0
note_on channel=1 note=53 velocity=0 time=0
note_on channel=1 note=46 velocity=72 time=25
note_on channel=1 note=46 velocity=0 time=56
note_on channel=1 note=53 velocity=67 time=4
note_on channel=1 note=58 velocity=67 time=0
note_on channel=1 note=62 velocity=67 time=0
note_on channel=1 note=62 velocity=0 time=35
note_on channel=1 note=58 velocity=0 time=0
note_on channel=1 note=53 velocity=0 time=0
note_on channel=1 note=48 velocity=72 time=25
note_on channel=1 note=48 velocity=0 time=56
note_on channel=1 note=58 velocity=67 time=4
note_on channel=1 note=60 velocity=67 time=0
note_on channel=1 note=64 velocity=67 time=0
note_on channel=1 note=64 velocity=0 time=35
note_on channel=1 note=60 velocity=0 time=0
note_on channel=1 note=58 velocity=0 time=0
note_on channel=1 note=63 velocity=72 time=25
note_on channel=1 note=57 velocity=72 time=0
note_on channel=1 note=53 velocity=72 time=0
note_on channel=1 note=53 velocity=0 time=56
note_on channel=1 note=57 velocity=0 time=0
note_on channel=1 note=63 velocity=0 time=0
note_on channel=1 note=41 velocity=78 time=4
note_on channel=1 note=53 velocity=78 time=0
note_on channel=1 note=53 velocity=0 time=49
note_on channel=1 note=41 velocity=0 time=0
note_on channel=1 note=55 velocity=75 time=11
note_on channel=1 note=43 velocity=75 time=0
note_on channel=1 note=43 velocity=0 time=56
note_on channel=1 note=55 velocity=0 time=0
note_on channel=1 note=45 velocity=72 time=4
note_on channel=1 note=57 velocity=72 time=0
note_on channel=1 note=57 velocity=0 time=49
note_on channel=1 note=45 velocity=0 time=0
note_on channel=1 note=58 velocity=72 time=11
note_on channel=1 note=46 velocity=72 time=0
note_on channel=1 note=46 velocity=0 time=56
note_on channel=1 note=58 velocity=0 time=0
note_on channel=1 note=53 velocity=66 time=4
note_on channel=1 note=58 velocity=66 time=0
note_on channel=1 note=62 velocity=66 time=0
note_on channel=1 note=62 velocity=0 time=35
note_on channel=1 note=58 velocity=0 time=0
note_on channel=1 note=53 velocity=0 time=0
note_on channel=1 note=50 velocity=72 time=25
note_on channel=1 note=50 velocity=0 time=56
note_on channel=1 note=54 velocity=66 time=4
note_on channel=1 note=60 velocity=66 time=0
note_on channel=1 note=62 velocity=66 time=0
note_on channel=1 note=62 velocity=0 time=35
note_on channel=1 note=60 velocity=0 time=0
note_on channel=1 note=54 velocity=0 time=0
note_on channel=1 note=55 velocity=72 time=25
note_on channel=1 note=55 velocity=0 time=56
note_on channel=1 note=58 velocity=66 time=4
note_on channel=1 note=62 velocity=66 time=0
note_on channel=1 note=62 velocity=0 time=35
note_on channel=1 note=58 velocity=0 time=0
note_on channel=1 note=55 velocity=72 time=25
note_on channel=1 note=55 velocity=0 time=56
note_on channel=1 note=58 velocity=66 time=4
note_on channel=1 note=62 velocity=66 time=0
note_on channel=1 note=62 velocity=0 time=35
note_on channel=1 note=58 velocity=0 time=0
note_on channel=1 note=57 velocity=72 time=25
note_on channel=1 note=57 velocity=0 time=56
note_on channel=1 note=62 velocity=66 time=4
note_on channel=1 note=65 velocity=66 time=0
note_on channel=1 note=65 velocity=0 time=35
note_on channel=1 note=62 velocity=0 time=0
note_on channel=1 note=57 velocity=72 time=25
note_on channel=1 note=57 velocity=0 time=56
note_on channel=1 note=61 velocity=77 time=4
note_on channel=1 note=67 velocity=77 time=0
note_on channel=1 note=67 velocity=0 time=56
note_on channel=1 note=61 velocity=0 time=0
note_on channel=1 note=62 velocity=72 time=4
note_on channel=1 note=65 velocity=72 time=0
note_on channel=1 note=65 velocity=0 time=56
note_on channel=1 note=62 velocity=0 time=0
note_on channel=1 note=53 velocity=81 time=64
note_on channel=1 note=41 velocity=81 time=0
note_on channel=1 note=41 velocity=0 time=111
note_on channel=1 note=53 velocity=0 time=0
note_on channel=1 note=46 velocity=72 time=9
note_on channel=1 note=34 velocity=72 time=0
note_on channel=1 note=34 velocity=0 time=56
note_on channel=1 note=46 velocity=0 time=0
note_on channel=1 note=53 velocity=66 time=4
note_on channel=1 note=58 velocity=66 time=0
note_on channel=1 note=62 velocity=66 time=0
note_on channel=1 note=62 velocity=0 time=35
note_on channel=1 note=58 velocity=0 time=0
note_on channel=1 note=53 velocity=0 time=0
note_on channel=1 note=50 velocity=72 time=25
note_on channel=1 note=50 velocity=0 time=56
note_on channel=1 note=53 velocity=66 time=4
note_on channel=1 note=58 velocity=66 time=0
note_on channel=1 note=62 velocity=66 time=0
note_on channel=1 note=62 velocity=0 time=35
note_on channel=1 note=58 velocity=0 time=0
note_on channel=1 note=53 velocity=0 time=0
note_on channel=1 note=51 velocity=72 time=25
note_on channel=1 note=51 velocity=0 time=56
note_on channel=1 note=55 velocity=66 time=4
note_on channel=1 note=58 velocity=66 time=0
note_on channel=1 note=63 velocity=66 time=0
note_on channel=1 note=63 velocity=0 time=35
note_on channel=1 note=58 velocity=0 time=0
note_on channel=1 note=55 velocity=0 time=0
note_on channel=1 note=50 velocity=72 time=25
note_on channel=1 note=50 velocity=0 time=56
note_on channel=1 note=53 velocity=66 time=4
note_on channel=1 note=58 velocity=66 time=0
note_on channel=1 note=62 velocity=66 time=0
note_on channel=1 note=62 velocity=0 time=35
note_on channel=1 note=58 velocity=0 time=0
note_on channel=1 note=53 velocity=0 time=0
note_on channel=1 note=46 velocity=72 time=25
note_on channel=1 note=46 velocity=0 time=56
note_on channel=1 note=53 velocity=66 time=4
note_on channel=1 note=58 velocity=66 time=0
note_on channel=1 note=62 velocity=66 time=0
note_on channel=1 note=62 velocity=0 time=35
note_on channel=1 note=58 velocity=0 time=0
note_on channel=1 note=53 velocity=0 time=0
note_on channel=1 note=48 velocity=72 time=25
note_on channel=1 note=48 velocity=0 time=56
note_on channel=1 note=58 velocity=69 time=4
note_on channel=1 note=60 velocity=69 time=0
note_on channel=1 note=64 velocity=69 time=0
note_on channel=1 note=64 velocity=0 time=40
note_on channel=1 note=60 velocity=0 time=0
note_on channel=1 note=58 velocity=0 time=0
note_on channel=1 note=63 velocity=72 time=20
note_on channel=1 note=57 velocity=72 time=0
note_on channel=1 note=53 velocity=72 time=0
note_on channel=1 note=53 velocity=0 time=56
note_on channel=1 note=57 velocity=0 time=0
note_on channel=1 note=63 velocity=0 time=0
note_on channel=1 note=41 velocity=79 time=4
note_on channel=1 note=53 velocity=79 time=0
note_on channel=1 note=53 velocity=0 time=48
note_on channel=1 note=41 velocity=0 time=0
note_on channel=1 note=55 velocity=75 time=12
note_on channel=1 note=43 velocity=75 time=0
note_on channel=1 note=43 velocity=0 time=48
note_on channel=1 note=55 velocity=0 time=8
note_on channel=1 note=45 velocity=73 time=4
note_on channel=1 note=57 velocity=73 time=0
note_on channel=1 note=57 velocity=0 time=48
note_on channel=1 note=45 velocity=0 time=0
note_on channel=1 note=58 velocity=72 time=12
note_on channel=1 note=46 velocity=72 time=0
note_on channel=1 note=46 velocity=0 time=56
note_on channel=1 note=58 velocity=0 time=0
note_on channel=1 note=53 velocity=66 time=4
note_on channel=1 note=58 velocity=66 time=0
note_on channel=1 note=62 velocity=66 time=0
note_on channel=1 note=62 velocity=0 time=35
note_on channel=1 note=58 velocity=0 time=0
note_on channel=1 note=53 velocity=0 time=0
note_on channel=1 note=50 velocity=72 time=25
note_on channel=1 note=50 velocity=0 time=56
note_on channel=1 note=53 velocity=66 time=4
note_on channel=1 note=58 velocity=66 time=0
note_on channel=1 note=62 velocity=66 time=0
note_on channel=1 note=62 velocity=0 time=35
note_on channel=1 note=58 velocity=0 time=0
note_on channel=1 note=53 velocity=0 time=0
note_on channel=1 note=51 velocity=72 time=25
note_on channel=1 note=51 velocity=0 time=56
note_on channel=1 note=55 velocity=66 time=4
note_on channel=1 note=58 velocity=66 time=0
note_on channel=1 note=63 velocity=66 time=0
note_on channel=1 note=63 velocity=0 time=35
note_on channel=1 note=58 velocity=0 time=0
note_on channel=1 note=55 velocity=0 time=0
note_on channel=1 note=52 velocity=72 time=25
note_on channel=1 note=52 velocity=0 time=56
note_on channel=1 note=55 velocity=66 time=4
note_on channel=1 note=58 velocity=66 time=0
note_on channel=1 note=61 velocity=66 time=0
note_on channel=1 note=61 velocity=0 time=35
note_on channel=1 note=58 velocity=0 time=0
note_on channel=1 note=55 velocity=0 time=0
note_on channel=1 note=53 velocity=72 time=25
note_on channel=1 note=53 velocity=0 time=56
note_on channel=1 note=58 velocity=66 time=4
note_on channel=1 note=62 velocity=66 time=0
note_on channel=1 note=62 velocity=0 time=35
note_on channel=1 note=58 velocity=0 time=0
note_on channel=1 note=41 velocity=80 time=25
note_on channel=1 note=41 velocity=0 time=56
note_on channel=1 note=53 velocity=74 time=4
note_on channel=1 note=57 velocity=74 time=0
note_on channel=1 note=63 velocity=74 time=0
note_on channel=1 note=63 velocity=0 time=48
note_on channel=1 note=57 velocity=0 time=0
note_on channel=1 note=53 velocity=0 time=0
note_on channel=1 note=62 velocity=72 time=12
note_on channel=1 note=58 velocity=72 time=0
note_on channel=1 note=58 velocity=0 time=46
note_on channel=1 note=62 velocity=0 time=0
note_on channel=1 note=46 velocity=91 time=14
note_on channel=1 note=34 velocity=91 time=0
note_on channel=1 note=34 velocity=0 time=40
note_on channel=1 note=46 velocity=0 time=0
note_on channel=1 note=36 velocity=93 time=20
note_on channel=1 note=48 velocity=93 time=0
note_on channel=1 note=48 velocity=0 time=46
note_on channel=1 note=36 velocity=0 time=0
note_on channel=1 note=50 velocity=88 time=14
note_on channel=1 note=38 velocity=88 time=0
note_on channel=1 note=38 velocity=0 time=40
note_on channel=1 note=50 velocity=0 time=0
note_on channel=1 note=51 velocity=87 time=20
note_on channel=1 note=39 velocity=87 time=0
note_on channel=1 note=39 velocity=0 time=56
note_on channel=1 note=51 velocity=0 time=0
note_on channel=1 note=55 velocity=86 time=4
note_on channel=1 note=58 velocity=86 time=0
note_on channel=1 note=63 velocity=86 time=0
note_on channel=1 note=63 velocity=0 time=41
note_on channel=1 note=58 velocity=0 time=0
note_on channel=1 note=55 velocity=0 time=0
note_on channel=1 note=55 velocity=82 time=19
note_on channel=1 note=58 velocity=82 time=0
note_on channel=1 note=63 velocity=82 time=0
note_on channel=1 note=63 velocity=0 time=48
note_on channel=1 note=58 velocity=0 time=0
note_on channel=1 note=55 velocity=0 time=0
note_on channel=1 note=50 velocity=72 time=12
note_on channel=1 note=38 velocity=72 time=0
note_on channel=1 note=38 velocity=0 time=48
note_on channel=1 note=50 velocity=0 time=0
note_on channel=1 note=39 velocity=83 time=12
note_on channel=1 note=51 velocity=83 time=0
note_on channel=1 note=51 velocity=0 time=56
note_on channel=1 note=39 velocity=0 time=0
note_on channel=1 note=53 velocity=80 time=4
note_on channel=1 note=41 velocity=80 time=0
note_on channel=1 note=41 velocity=0 time=48
note_on channel=1 note=53 velocity=0 time=0
note_on channel=1 note=43 velocity=80 time=12
note_on channel=1 note=55 velocity=80 time=0
note_on channel=1 note=55 velocity=0 time=56
note_on channel=1 note=43 velocity=0 time=0
note_on channel=1 note=57 velocity=80 time=4
note_on channel=1 note=45 velocity=80 time=0
note_on channel=1 note=45 velocity=0 time=48
note_on channel=1 note=57 velocity=0 time=0
note_on channel=1 note=46 velocity=83 time=12
note_on channel=1 note=58 velocity=83 time=0
note_on channel=1 note=58 velocity=0 time=56
note_on channel=1 note=46 velocity=0 time=0
note_on channel=1 note=53 velocity=85 time=4
note_on channel=1 note=58 velocity=85 time=0
note_on channel=1 note=62 velocity=85 time=0
note_on channel=1 note=62 velocity=0 time=41
note_on channel=1 note=58 velocity=0 time=0
note_on channel=1 note=53 velocity=0 time=0
note_on channel=1 note=62 velocity=80 time=19
note_on channel=1 note=58 velocity=80 time=0
note_on channel=1 note=53 velocity=80 time=0
note_on channel=1 note=53 velocity=0 time=48
note_on channel=1 note=58 velocity=0 time=0
note_on channel=1 note=62 velocity=0 time=0
note_on channel=1 note=49 velocity=72 time=12
note_on channel=1 note=61 velocity=72 time=0
note_on channel=1 note=61 velocity=0 time=48
note_on channel=1 note=49 velocity=0 time=0
note_on channel=1 note=62 velocity=73 time=12
note_on channel=1 note=50 velocity=73 time=0
note_on channel=1 note=50 velocity=0 time=56
note_on channel=1 note=62 velocity=0 time=0
note_on channel=1 note=53 velocity=81 time=4
note_on channel=1 note=58 velocity=81 time=0
note_on channel=1 note=62 velocity=81 time=0
note_on channel=1 note=62 velocity=0 time=41
note_on channel=1 note=58 velocity=0 time=0
note_on channel=1 note=53 velocity=0 time=0
note_on channel=1 note=62 velocity=78 time=19
note_on channel=1 note=58 velocity=78 time=0
note_on channel=1 note=53 velocity=78 time=0
note_on channel=1 note=53 velocity=0 time=48
note_on channel=1 note=58 velocity=0 time=0
note_on channel=1 note=62 velocity=0 time=0
note_on channel=1 note=53 velocity=72 time=12
note_on channel=1 note=41 velocity=72 time=0
note_on channel=1 note=41 velocity=0 time=48
note_on channel=1 note=53 velocity=0 time=0
note_on channel=1 note=60 velocity=73 time=12
note_on channel=1 note=48 velocity=73 time=0
note_on channel=1 note=48 velocity=0 time=56
note_on channel=1 note=60 velocity=0 time=0
note_on channel=1 note=53 velocity=84 time=4
note_on channel=1 note=57 velocity=84 time=0
note_on channel=1 note=63 velocity=84 time=0
note_on channel=1 note=63 velocity=0 time=41
note_on channel=1 note=57 velocity=0 time=0
note_on channel=1 note=53 velocity=0 time=0
note_on channel=1 note=63 velocity=78 time=19
note_on channel=1 note=57 velocity=78 time=0
note_on channel=1 note=53 velocity=78 time=0
note_on channel=1 note=53 velocity=0 time=48
note_on channel=1 note=57 velocity=0 time=0
note_on channel=1 note=63 velocity=0 time=0
note_on channel=1 note=53 velocity=70 time=12
note_on channel=1 note=41 velocity=70 time=0
note_on channel=1 note=41 velocity=0 time=48
note_on channel=1 note=53 velocity=0 time=0
note_on channel=1 note=60 velocity=72 time=12
note_on channel=1 note=48 velocity=72 time=0
note_on channel=1 note=48 velocity=0 time=56
note_on channel=1 note=60 velocity=0 time=0
note_on channel=1 note=53 velocity=80 time=4
note_on channel=1 note=57 velocity=80 time=0
note_on channel=1 note=63 velocity=80 time=0
note_on channel=1 note=63 velocity=0 time=48
note_on channel=1 note=57 velocity=0 time=0
note_on channel=1 note=53 velocity=0 time=0
note_on channel=1 note=60 velocity=77 time=12
note_on channel=1 note=48 velocity=77 time=0
note_on channel=1 note=48 velocity=0 time=56
note_on channel=1 note=60 velocity=0 time=0
note_on channel=1 note=61 velocity=74 time=4
note_on channel=1 note=49 velocity=74 time=0
note_on channel=1 note=49 velocity=0 time=48
note_on channel=1 note=61 velocity=0 time=0
note_on channel=1 note=62 velocity=76 time=12
note_on channel=1 note=50 velocity=76 time=0
note_on channel=1 note=50 velocity=0 time=56
note_on channel=1 note=62 velocity=0 time=0
note_on channel=1 note=62 velocity=83 time=4
note_on channel=1 note=58 velocity=83 time=0
note_on channel=1 note=53 velocity=83 time=0
note_on channel=1 note=53 velocity=0 time=41
note_on channel=1 note=58 velocity=0 time=0
note_on channel=1 note=62 velocity=0 time=0
note_on channel=1 note=62 velocity=79 time=19
note_on channel=1 note=58 velocity=79 time=0
note_on channel=1 note=53 velocity=79 time=0
note_on channel=1 note=53 velocity=0 time=48
note_on channel=1 note=58 velocity=0 time=0
note_on channel=1 note=62 velocity=0 time=0
note_on channel=1 note=53 velocity=71 time=12
note_on channel=1 note=41 velocity=71 time=0
note_on channel=1 note=41 velocity=0 time=48
note_on channel=1 note=53 velocity=0 time=0
note_on channel=1 note=58 velocity=72 time=12
note_on channel=1 note=46 velocity=72 time=0
note_on channel=1 note=46 velocity=0 time=56
note_on channel=1 note=58 velocity=0 time=0
note_on channel=1 note=53 velocity=81 time=4
note_on channel=1 note=58 velocity=81 time=0
note_on channel=1 note=62 velocity=81 time=0
note_on channel=1 note=62 velocity=0 time=41
note_on channel=1 note=58 velocity=0 time=0
note_on channel=1 note=53 velocity=0 time=0
note_on channel=1 note=62 velocity=78 time=19
note_on channel=1 note=58 velocity=78 time=0
note_on channel=1 note=53 velocity=78 time=0
note_on channel=1 note=53 velocity=0 time=48
note_on channel=1 note=58 velocity=0 time=0
note_on channel=1 note=62 velocity=0 time=0
note_on channel=1 note=50 velocity=71 time=12
note_on channel=1 note=38 velocity=71 time=0
note_on channel=1 note=38 velocity=0 time=48
note_on channel=1 note=50 velocity=0 time=0
note_on channel=1 note=51 velocity=74 time=12
note_on channel=1 note=39 velocity=74 time=0
note_on channel=1 note=39 velocity=0 time=56
note_on channel=1 note=51 velocity=0 time=0
note_on channel=1 note=55 velocity=80 time=4
note_on channel=1 note=58 velocity=80 time=0
note_on channel=1 note=63 velocity=80 time=0
note_on channel=1 note=63 velocity=0 time=41
note_on channel=1 note=58 velocity=0 time=0
note_on channel=1 note=55 velocity=0 time=0
note_on channel=1 note=55 velocity=76 time=19
note_on channel=1 note=58 velocity=76 time=0
note_on channel=1 note=63 velocity=76 time=0
note_on channel=1 note=63 velocity=0 time=48
note_on channel=1 note=58 velocity=0 time=0
note_on channel=1 note=55 velocity=0 time=0
note_on channel=1 note=50 velocity=72 time=12
note_on channel=1 note=38 velocity=72 time=0
note_on channel=1 note=38 velocity=0 time=56
note_on channel=1 note=50 velocity=0 time=0
note_on channel=1 note=39 velocity=81 time=4
note_on channel=1 note=51 velocity=81 time=0
note_on channel=1 note=51 velocity=0 time=56
note_on channel=1 note=39 velocity=0 time=0
note_on channel=1 note=53 velocity=75 time=4
note_on channel=1 note=41 velocity=75 time=0
note_on channel=1 note=41 velocity=0 time=48
note_on channel=1 note=53 velocity=0 time=0
note_on channel=1 note=43 velocity=79 time=12
note_on channel=1 note=55 velocity=79 time=0
note_on channel=1 note=55 velocity=0 time=56
note_on channel=1 note=43 velocity=0 time=0
note_on channel=1 note=57 velocity=77 time=4
note_on channel=1 note=45 velocity=77 time=0
note_on channel=1 note=45 velocity=0 time=48
note_on channel=1 note=57 velocity=0 time=0
note_on channel=1 note=46 velocity=78 time=12
note_on channel=1 note=58 velocity=78 time=0
note_on channel=1 note=58 velocity=0 time=56
note_on channel=1 note=46 velocity=0 time=0
note_on channel=1 note=53 velocity=72 time=4
note_on channel=1 note=58 velocity=72 time=0
note_on channel=1 note=62 velocity=72 time=0
note_on channel=1 note=62 velocity=0 time=48
note_on channel=1 note=58 velocity=0 time=0
note_on channel=1 note=53 velocity=0 time=0
note_on channel=1 note=41 velocity=75 time=12
note_on channel=1 note=41 velocity=0 time=56
note_on channel=1 note=53 velocity=71 time=4
note_on channel=1 note=58 velocity=71 time=0
note_on channel=1 note=62 velocity=71 time=0
note_on channel=1 note=62 velocity=0 time=48
note_on channel=1 note=58 velocity=0 time=0
note_on channel=1 note=53 velocity=0 time=0
note_on channel=1 note=46 velocity=77 time=12
note_on channel=1 note=46 velocity=0 time=56
note_on channel=1 note=53 velocity=71 time=4
note_on channel=1 note=58 velocity=71 time=0
note_on channel=1 note=62 velocity=71 time=0
note_on channel=1 note=62 velocity=0 time=48
note_on channel=1 note=58 velocity=0 time=0
note_on channel=1 note=53 velocity=0 time=0
note_on channel=1 note=41 velocity=76 time=12
note_on channel=1 note=41 velocity=0 time=56
note_on channel=1 note=53 velocity=71 time=4
note_on channel=1 note=58 velocity=71 time=0
note_on channel=1 note=62 velocity=71 time=0
note_on channel=1 note=62 velocity=0 time=48
note_on channel=1 note=58 velocity=0 time=0
note_on channel=1 note=53 velocity=0 time=0
note_on channel=1 note=54 velocity=77 time=12
note_on channel=1 note=42 velocity=77 time=0
note_on channel=1 note=42 velocity=0 time=56
note_on channel=1 note=54 velocity=0 time=0
note_on channel=1 note=61 velocity=82 time=4
note_on channel=1 note=49 velocity=82 time=0
note_on channel=1 note=49 velocity=0 time=48
note_on channel=1 note=61 velocity=0 time=0
note_on channel=1 note=58 velocity=85 time=12
note_on channel=1 note=46 velocity=85 time=0
note_on channel=1 note=46 velocity=0 time=56
note_on channel=1 note=58 velocity=0 time=0
note_on channel=1 note=43 velocity=82 time=4
note_on channel=1 note=55 velocity=82 time=0
note_on channel=1 note=55 velocity=0 time=48
note_on channel=1 note=43 velocity=0 time=0
note_on channel=1 note=53 velocity=86 time=12
note_on channel=1 note=41 velocity=86 time=0
note_on channel=1 note=41 velocity=0 time=56
note_on channel=1 note=53 velocity=0 time=0
note_on channel=1 note=62 velocity=92 time=4
note_on channel=1 note=50 velocity=92 time=0
note_on channel=1 note=50 velocity=0 time=48
note_on channel=1 note=62 velocity=0 time=0
note_on channel=1 note=58 velocity=88 time=12
note_on channel=1 note=46 velocity=88 time=0
note_on channel=1 note=46 velocity=0 time=56
note_on channel=1 note=58 velocity=0 time=0
note_on channel=1 note=41 velocity=88 time=4
note_on channel=1 note=53 velocity=88 time=0
note_on channel=1 note=53 velocity=0 time=48
note_on channel=1 note=41 velocity=0 time=0
note_on channel=1 note=60 velocity=93 time=12
note_on channel=1 note=48 velocity=93 time=0
note_on channel=1 note=48 velocity=0 time=56
note_on channel=1 note=60 velocity=0 time=0
note_on channel=1 note=53 velocity=83 time=4
note_on channel=1 note=57 velocity=83 time=0
note_on channel=1 note=63 velocity=83 time=0
note_on channel=1 note=63 velocity=0 time=48
note_on channel=1 note=57 velocity=0 time=0
note_on channel=1 note=53 velocity=0 time=0
note_on channel=1 note=53 velocity=88 time=12
note_on channel=1 note=41 velocity=88 time=0
note_on channel=1 note=41 velocity=0 time=56
note_on channel=1 note=53 velocity=0 time=0
note_on channel=1 note=53 velocity=80 time=4
note_on channel=1 note=57 velocity=80 time=0
note_on channel=1 note=63 velocity=80 time=0
note_on channel=1 note=63 velocity=0 time=48
note_on channel=1 note=57 velocity=0 time=0
note_on channel=1 note=53 velocity=0 time=0
note_on channel=1 note=62 velocity=90 time=12
note_on channel=1 note=58 velocity=90 time=0
note_on channel=1 note=58 velocity=0 time=56
note_on channel=1 note=62 velocity=0 time=0
note_on channel=1 note=46 velocity=89 time=4
note_on channel=1 note=34 velocity=89 time=0
note_on channel=1 note=34 velocity=0 time=40
note_on channel=1 note=46 velocity=0 time=0
note_on channel=1 note=36 velocity=91 time=20
note_on channel=1 note=48 velocity=91 time=0
note_on channel=1 note=48 velocity=0 time=46
note_on channel=1 note=36 velocity=0 time=0
note_on channel=1 note=50 velocity=83 time=14
note_on channel=1 note=38 velocity=83 time=0
note_on channel=1 note=38 velocity=0 time=40
note_on channel=1 note=50 velocity=0 time=0
note_on channel=1 note=51 velocity=87 time=20
note_on channel=1 note=39 velocity=87 time=0
note_on channel=1 note=39 velocity=0 time=56
note_on channel=1 note=51 velocity=0 time=0
note_on channel=1 note=55 velocity=86 time=4
note_on channel=1 note=58 velocity=86 time=0
note_on channel=1 note=63 velocity=86 time=0
note_on channel=1 note=63 velocity=0 time=41
note_on channel=1 note=58 velocity=0 time=0
note_on channel=1 note=55 velocity=0 time=0
note_on channel=1 note=55 velocity=82 time=19
note_on channel=1 note=58 velocity=82 time=0
note_on channel=1 note=63 velocity=82 time=0
note_on channel=1 note=63 velocity=0 time=48
note_on channel=1 note=58 velocity=0 time=0
note_on channel=1 note=55 velocity=0 time=0
note_on channel=1 note=50 velocity=72 time=12
note_on channel=1 note=38 velocity=72 time=0
note_on channel=1 note=38 velocity=0 time=48
note_on channel=1 note=50 velocity=0 time=0
note_on channel=1 note=39 velocity=83 time=12
note_on channel=1 note=51 velocity=83 time=0
note_on channel=1 note=51 velocity=0 time=56
note_on channel=1 note=39 velocity=0 time=0
note_on channel=1 note=53 velocity=80 time=4
note_on channel=1 note=41 velocity=80 time=0
note_on channel=1 note=41 velocity=0 time=48
note_on channel=1 note=53 velocity=0 time=0
note_on channel=1 note=43 velocity=80 time=12
note_on channel=1 note=55 velocity=80 time=0
note_on channel=1 note=55 velocity=0 time=56
note_on channel=1 note=43 velocity=0 time=0
note_on channel=1 note=57 velocity=80 time=4
note_on channel=1 note=45 velocity=80 time=0
note_on channel=1 note=45 velocity=0 time=48
note_on channel=1 note=57 velocity=0 time=0
note_on channel=1 note=46 velocity=83 time=12
note_on channel=1 note=58 velocity=83 time=0
note_on channel=1 note=58 velocity=0 time=56
note_on channel=1 note=46 velocity=0 time=0
note_on channel=1 note=53 velocity=85 time=4
note_on channel=1 note=58 velocity=85 time=0
note_on channel=1 note=62 velocity=85 time=0
note_on channel=1 note=62 velocity=0 time=41
note_on channel=1 note=58 velocity=0 time=0
note_on channel=1 note=53 velocity=0 time=0
note_on channel=1 note=62 velocity=80 time=19
note_on channel=1 note=58 velocity=80 time=0
note_on channel=1 note=53 velocity=80 time=0
note_on channel=1 note=53 velocity=0 time=48
note_on channel=1 note=58 velocity=0 time=0
note_on channel=1 note=62 velocity=0 time=0
note_on channel=1 note=49 velocity=72 time=12
note_on channel=1 note=61 velocity=72 time=0
note_on channel=1 note=61 velocity=0 time=48
note_on channel=1 note=49 velocity=0 time=0
note_on channel=1 note=62 velocity=73 time=12
note_on channel=1 note=50 velocity=73 time=0
note_on channel=1 note=50 velocity=0 time=56
note_on channel=1 note=62 velocity=0 time=0
note_on channel=1 note=53 velocity=81 time=4
note_on channel=1 note=58 velocity=81 time=0
note_on channel=1 note=62 velocity=81 time=0
note_on channel=1 note=62 velocity=0 time=41
note_on channel=1 note=58 velocity=0 time=0
note_on channel=1 note=53 velocity=0 time=0
note_on channel=1 note=62 velocity=78 time=19
note_on channel=1 note=58 velocity=78 time=0
note_on channel=1 note=53 velocity=78 time=0
note_on channel=1 note=53 velocity=0 time=48
note_on channel=1 note=58 velocity=0 time=0
note_on channel=1 note=62 velocity=0 time=0
note_on channel=1 note=53 velocity=72 time=12
note_on channel=1 note=41 velocity=72 time=0
note_on channel=1 note=41 velocity=0 time=48
note_on channel=1 note=53 velocity=0 time=0
note_on channel=1 note=60 velocity=73 time=12
note_on channel=1 note=48 velocity=73 time=0
note_on channel=1 note=48 velocity=0 time=56
note_on channel=1 note=60 velocity=0 time=0
note_on channel=1 note=53 velocity=84 time=4
note_on channel=1 note=57 velocity=84 time=0
note_on channel=1 note=63 velocity=84 time=0
note_on channel=1 note=63 velocity=0 time=41
note_on channel=1 note=57 velocity=0 time=0
note_on channel=1 note=53 velocity=0 time=0
note_on channel=1 note=63 velocity=78 time=19
note_on channel=1 note=57 velocity=78 time=0
note_on channel=1 note=53 velocity=78 time=0
note_on channel=1 note=53 velocity=0 time=48
note_on channel=1 note=57 velocity=0 time=0
note_on channel=1 note=63 velocity=0 time=0
note_on channel=1 note=53 velocity=70 time=12
note_on channel=1 note=41 velocity=70 time=0
note_on channel=1 note=41 velocity=0 time=48
note_on channel=1 note=53 velocity=0 time=0
note_on channel=1 note=60 velocity=72 time=12
note_on channel=1 note=48 velocity=72 time=0
note_on channel=1 note=48 velocity=0 time=56
note_on channel=1 note=60 velocity=0 time=0
note_on channel=1 note=53 velocity=80 time=4
note_on channel=1 note=57 velocity=80 time=0
note_on channel=1 note=63 velocity=80 time=0
note_on channel=1 note=63 velocity=0 time=48
note_on channel=1 note=57 velocity=0 time=0
note_on channel=1 note=53 velocity=0 time=0
note_on channel=1 note=60 velocity=77 time=12
note_on channel=1 note=48 velocity=77 time=0
note_on channel=1 note=48 velocity=0 time=56
note_on channel=1 note=60 velocity=0 time=0
note_on channel=1 note=61 velocity=74 time=4
note_on channel=1 note=49 velocity=74 time=0
note_on channel=1 note=49 velocity=0 time=48
note_on channel=1 note=61 velocity=0 time=0
note_on channel=1 note=62 velocity=76 time=12
note_on channel=1 note=50 velocity=76 time=0
note_on channel=1 note=50 velocity=0 time=56
note_on channel=1 note=62 velocity=0 time=0
note_on channel=1 note=62 velocity=83 time=4
note_on channel=1 note=58 velocity=83 time=0
note_on channel=1 note=53 velocity=83 time=0
note_on channel=1 note=53 velocity=0 time=41
note_on channel=1 note=58 velocity=0 time=0
note_on channel=1 note=62 velocity=0 time=0
note_on channel=1 note=62 velocity=79 time=19
note_on channel=1 note=58 velocity=79 time=0
note_on channel=1 note=53 velocity=79 time=0
note_on channel=1 note=53 velocity=0 time=48
note_on channel=1 note=58 velocity=0 time=0
note_on channel=1 note=62 velocity=0 time=0
note_on channel=1 note=53 velocity=71 time=12
note_on channel=1 note=41 velocity=71 time=0
note_on channel=1 note=41 velocity=0 time=48
note_on channel=1 note=53 velocity=0 time=0
note_on channel=1 note=58 velocity=72 time=12
note_on channel=1 note=46 velocity=72 time=0
note_on channel=1 note=46 velocity=0 time=56
note_on channel=1 note=58 velocity=0 time=0
note_on channel=1 note=53 velocity=81 time=4
note_on channel=1 note=58 velocity=81 time=0
note_on channel=1 note=62 velocity=81 time=0
note_on channel=1 note=62 velocity=0 time=41
note_on channel=1 note=58 velocity=0 time=0
note_on channel=1 note=53 velocity=0 time=0
note_on channel=1 note=62 velocity=78 time=19
note_on channel=1 note=58 velocity=78 time=0
note_on channel=1 note=53 velocity=78 time=0
note_on channel=1 note=53 velocity=0 time=48
note_on channel=1 note=58 velocity=0 time=0
note_on channel=1 note=62 velocity=0 time=0
note_on channel=1 note=50 velocity=71 time=12
note_on channel=1 note=38 velocity=71 time=0
note_on channel=1 note=38 velocity=0 time=48
note_on channel=1 note=50 velocity=0 time=0
note_on channel=1 note=51 velocity=74 time=12
note_on channel=1 note=39 velocity=74 time=0
note_on channel=1 note=39 velocity=0 time=56
note_on channel=1 note=51 velocity=0 time=0
note_on channel=1 note=55 velocity=80 time=4
note_on channel=1 note=58 velocity=80 time=0
note_on channel=1 note=63 velocity=80 time=0
note_on channel=1 note=63 velocity=0 time=41
note_on channel=1 note=58 velocity=0 time=0
note_on channel=1 note=55 velocity=0 time=0
note_on channel=1 note=55 velocity=76 time=19
note_on channel=1 note=58 velocity=76 time=0
note_on channel=1 note=63 velocity=76 time=0
note_on channel=1 note=63 velocity=0 time=48
note_on channel=1 note=58 velocity=0 time=0
note_on channel=1 note=55 velocity=0 time=0
note_on channel=1 note=50 velocity=72 time=12
note_on channel=1 note=38 velocity=72 time=0
note_on channel=1 note=38 velocity=0 time=56
note_on channel=1 note=50 velocity=0 time=0
note_on channel=1 note=39 velocity=81 time=4
note_on channel=1 note=51 velocity=81 time=0
note_on channel=1 note=51 velocity=0 time=56
note_on channel=1 note=39 velocity=0 time=0
note_on channel=1 note=53 velocity=75 time=4
note_on channel=1 note=41 velocity=75 time=0
note_on channel=1 note=41 velocity=0 time=48
note_on channel=1 note=53 velocity=0 time=0
note_on channel=1 note=43 velocity=79 time=12
note_on channel=1 note=55 velocity=79 time=0
note_on channel=1 note=55 velocity=0 time=56
note_on channel=1 note=43 velocity=0 time=0
note_on channel=1 note=57 velocity=77 time=4
note_on channel=1 note=45 velocity=77 time=0
note_on channel=1 note=45 velocity=0 time=48
note_on channel=1 note=57 velocity=0 time=0
note_on channel=1 note=46 velocity=78 time=12
note_on channel=1 note=58 velocity=78 time=0
note_on channel=1 note=58 velocity=0 time=56
note_on channel=1 note=46 velocity=0 time=0
note_on channel=1 note=53 velocity=72 time=4
note_on channel=1 note=58 velocity=72 time=0
note_on channel=1 note=62 velocity=72 time=0
note_on channel=1 note=62 velocity=0 time=48
note_on channel=1 note=58 velocity=0 time=0
note_on channel=1 note=53 velocity=0 time=0
note_on channel=1 note=41 velocity=75 time=12
note_on channel=1 note=41 velocity=0 time=56
note_on channel=1 note=53 velocity=71 time=4
note_on channel=1 note=58 velocity=71 time=0
note_on channel=1 note=62 velocity=71 time=0
note_on channel=1 note=62 velocity=0 time=48
note_on channel=1 note=58 velocity=0 time=0
note_on channel=1 note=53 velocity=0 time=0
note_on channel=1 note=46 velocity=77 time=12
note_on channel=1 note=46 velocity=0 time=56
note_on channel=1 note=53 velocity=71 time=4
note_on channel=1 note=58 velocity=71 time=0
note_on channel=1 note=62 velocity=71 time=0
note_on channel=1 note=62 velocity=0 time=48
note_on channel=1 note=58 velocity=0 time=0
note_on channel=1 note=53 velocity=0 time=0
note_on channel=1 note=41 velocity=76 time=12
note_on channel=1 note=41 velocity=0 time=56
note_on channel=1 note=53 velocity=71 time=4
note_on channel=1 note=58 velocity=71 time=0
note_on channel=1 note=62 velocity=71 time=0
note_on channel=1 note=62 velocity=0 time=48
note_on channel=1 note=58 velocity=0 time=0
note_on channel=1 note=53 velocity=0 time=0
note_on channel=1 note=54 velocity=77 time=12
note_on channel=1 note=42 velocity=77 time=0
note_on channel=1 note=42 velocity=0 time=56
note_on channel=1 note=54 velocity=0 time=0
note_on channel=1 note=61 velocity=82 time=4
note_on channel=1 note=49 velocity=82 time=0
note_on channel=1 note=49 velocity=0 time=48
note_on channel=1 note=61 velocity=0 time=0
note_on channel=1 note=58 velocity=85 time=12
note_on channel=1 note=46 velocity=85 time=0
note_on channel=1 note=46 velocity=0 time=56
note_on channel=1 note=58 velocity=0 time=0
note_on channel=1 note=43 velocity=82 time=4
note_on channel=1 note=55 velocity=82 time=0
note_on channel=1 note=55 velocity=0 time=48
note_on channel=1 note=43 velocity=0 time=0
note_on channel=1 note=53 velocity=86 time=12
note_on channel=1 note=41 velocity=86 time=0
note_on channel=1 note=41 velocity=0 time=56
note_on channel=1 note=53 velocity=0 time=0
note_on channel=1 note=62 velocity=92 time=4
note_on channel=1 note=50 velocity=92 time=0
note_on channel=1 note=50 velocity=0 time=48
note_on channel=1 note=62 velocity=0 time=0
note_on channel=1 note=58 velocity=88 time=12
note_on channel=1 note=46 velocity=88 time=0
note_on channel=1 note=46 velocity=0 time=56
note_on channel=1 note=58 velocity=0 time=0
note_on channel=1 note=41 velocity=88 time=4
note_on channel=1 note=53 velocity=88 time=0
note_on channel=1 note=53 velocity=0 time=48
note_on channel=1 note=41 velocity=0 time=0
note_on channel=1 note=60 velocity=93 time=12
note_on channel=1 note=48 velocity=93 time=0
note_on channel=1 note=48 velocity=0 time=56
note_on channel=1 note=60 velocity=0 time=0
note_on channel=1 note=53 velocity=83 time=4
note_on channel=1 note=57 velocity=83 time=0
note_on channel=1 note=63 velocity=83 time=0
note_on channel=1 note=63 velocity=0 time=48
note_on channel=1 note=57 velocity=0 time=0
note_on channel=1 note=53 velocity=0 time=0
note_on channel=1 note=53 velocity=88 time=12
note_on channel=1 note=41 velocity=88 time=0
note_on channel=1 note=41 velocity=0 time=56
note_on channel=1 note=53 velocity=0 time=0
note_on channel=1 note=53 velocity=80 time=4
note_on channel=1 note=57 velocity=80 time=0
note_on channel=1 note=63 velocity=80 time=0
note_on channel=1 note=63 velocity=0 time=48
note_on channel=1 note=57 velocity=0 time=0
note_on channel=1 note=53 velocity=0 time=0
note_on channel=1 note=62 velocity=90 time=12
note_on channel=1 note=58 velocity=90 time=0
note_on channel=1 note=58 velocity=0 time=56
note_on channel=1 note=62 velocity=0 time=0
note_on channel=1 note=53 velocity=87 time=4
note_on channel=1 note=41 velocity=87 time=0
note_on channel=1 note=41 velocity=0 time=40
note_on channel=1 note=53 velocity=0 time=0
note_on channel=1 note=46 velocity=95 time=20
note_on channel=1 note=34 velocity=95 time=0
note_on channel=1 note=34 velocity=0 time=78
note_on channel=1 note=46 velocity=0 time=0
<meta message end_of_track time=0>
<meta message midi_port port=0 time=0>
<meta message track_name name='W.S.Trachtman - MIDI file' time=0>
program_change channel=2 program=0 time=0
note_on channel=2 note=46 velocity=1 time=35640
note_on channel=2 note=46 velocity=0 time=40
<meta message end_of_track time=0>
<meta message track_name name='The Entertainer' time=0>
<meta message copyright text='Copyright  1996 by Warren Trachtman' time=0>
<meta message text text='Warren Trachtman\n' time=0>
<meta message smpte_offset frame_rate=25 hours=32 minutes=0 seconds=3 frames=0 sub_frames=0 time=0>
<meta message time_signature numerator=2 denominator=4 clocks_per_click=24 notated_32nd_notes_per_beat=8 time=0>
<meta message key_signature key='C' time=0>
<meta message set_tempo tempo=688152 time=0>
<meta message marker text='W.S.Trachtman - MIDI file' time=0>
<meta message set_tempo tempo=704804 time=1080>
<meta message marker text='A1' time=120>
<meta message marker text='A2' time=3840>
<meta message set_tempo tempo=769724 time=3720>
<meta message set_tempo tempo=696379 time=30>
<meta message marker text='B1' time=90>
<meta message marker text='B2' time=3840>
<meta message set_tempo tempo=759686 time=3720>
<meta message set_tempo tempo=713352 time=60>
<meta message marker text='A3' time=60>
<meta message set_tempo tempo=704804 time=3840>
<meta message marker text='C1' time=0>
<meta message set_tempo tempo=713352 time=7680>
<meta message set_tempo tempo=704804 time=960>
<meta message set_tempo tempo=722892 time=7622>
<meta message end_of_track time=0>
<meta message midi_port port=0 time=0>
<meta message track_name name='The Entertainer' time=0>
control_change channel=0 control=0 value=0 time=0
control_change channel=0 control=32 value=0 time=0
program_change channel=0 program=0 time=0
control_change channel=0 control=7 value=127 time=0
control_change channel=0 control=10 value=84 time=0
control_change channel=0 control=121 value=0 time=0
control_change channel=0 control=1 value=0 time=0
control_change channel=0 control=64 value=0 time=37
aftertouch channel=0 value=0 time=1
pitchwheel channel=0 pitch=0 time=0
control_change channel=0 control=74 value=78 time=2
control_change channel=0 control=71 value=72 time=2
control_change channel=0 control=93 value=12 time=1
control_change channel=0 control=91 value=21 time=0
note_on channel=0 note=86 velocity=81 time=197
note_on channel=0 note=74 velocity=81 time=0
<meta message lyrics text='The ' time=0>
note_on channel=0 note=88 velocity=89 time=30
note_on channel=0 note=76 velocity=89 time=0
<meta message lyrics text='Entertainer ' time=0>
note_on channel=0 note=74 velocity=0 time=6
note_on channel=0 note=86 velocity=0 time=0
note_on channel=0 note=88 velocity=0 time=23
note_on channel=0 note=76 velocity=0 time=0
note_on channel=0 note=84 velocity=75 time=1
note_on channel=0 note=72 velocity=75 time=0
<meta message lyrics text='(A ' time=0>
note_on channel=0 note=81 velocity=81 time=30
note_on channel=0 note=69 velocity=81 time=0
<meta message lyrics text='Ragtime ' time=0>
note_on channel=0 note=72 velocity=0 time=6
note_on channel=0 note=84 velocity=0 time=0
note_on channel=0 note=81 velocity=0 time=48
note_on channel=0 note=69 velocity=0 time=0
note_on channel=0 note=83 velocity=75 time=6
note_on channel=0 note=71 velocity=75 time=0
<meta message lyrics text='Two' time=0>
note_on channel=0 note=79 velocity=71 time=30
note_on channel=0 note=67 velocity=71 time=0
<meta message lyrics text='Step) ' time=0>
note_on channel=0 note=71 velocity=0 time=6
note_on channel=0 note=83 velocity=0 time=0
note_on channel=0 note=79 velocity=0 time=48
note_on channel=0 note=67 velocity=0 time=0
note_on channel=0 note=74 velocity=75 time=6
<meta message lyrics text='; ' time=0>
note_on channel=0 note=76 velocity=89 time=30
<meta message lyrics text='by ' time=0>
note_on channel=0 note=74 velocity=0 time=6
note_on channel=0 note=76 velocity=0 time=23
note_on channel=0 note=72 velocity=76 time=1
<meta message lyrics text='Scott ' time=0>
note_on channel=0 note=69 velocity=79 time=30
<meta message lyrics text='Joplin ' time=0>
note_on channel=0 note=72 velocity=0 time=6
note_on channel=0 note=69 velocity=0 time=48
note_on channel=0 note=71 velocity=74 time=6
<meta message lyrics text='(1902) ' time=0>
note_on channel=0 note=67 velocity=77 time=30
<meta message lyrics text='; ' time=0>
note_on channel=0 note=71 velocity=0 time=6
note_on channel=0 note=67 velocity=0 time=48
note_on channel=0 note=62 velocity=72 time=6
<meta message lyrics text='Sequenced ' time=0>
note_on channel=0 note=64 velocity=89 time=30
<meta message lyrics text='by ' time=0>
note_on channel=0 note=62 velocity=0 time=6
note_on channel=0 note=64 velocity=0 time=23
note_on channel=0 note=60 velocity=77 time=1
<meta message lyrics text='W. ' time=0>
note_on channel=0 note=57 velocity=85 time=30
<meta message lyrics text='S. ' time=0>
note_on channel=0 note=60 velocity=0 time=6
note_on channel=0 note=57 velocity=0 time=48
note_on channel=0 note=59 velocity=77 time=6
<meta message lyrics text='Trachtman ' time=0>
note_on channel=0 note=57 velocity=81 time=30
<meta message lyrics text='(10/96) ' time=0>
<meta message lyrics text='\r' time=0>
note_on channel=0 note=59 velocity=0 time=6
note_on channel=0 note=57 velocity=0 time=23
note_on channel=0 note=56 velocity=77 time=1
note_on channel=0 note=55 velocity=79 time=30
note_on channel=0 note=56 velocity=0 time=6
note_on channel=0 note=55 velocity=0 time=52
note_on channel=0 note=67 velocity=101 time=62
note_on channel=0 note=71 velocity=101 time=0
note_on channel=0 note=74 velocity=101 time=0
note_on channel=0 note=79 velocity=101 time=0
note_on channel=0 note=79 velocity=0 time=58
note_on channel=0 note=67 velocity=0 time=0
note_on channel=0 note=71 velocity=0 time=0
note_on channel=0 note=74 velocity=0 time=0
note_on channel=0 note=62 velocity=55 time=2
note_on channel=0 note=63 velocity=59 time=30
note_on channel=0 note=62 velocity=0 time=5
note_on channel=0 note=63 velocity=0 time=24
note_on channel=0 note=64 velocity=56 time=1
note_on channel=0 note=72 velocity=63 time=30
note_on channel=0 note=64 velocity=0 time=4
note_on channel=0 note=72 velocity=0 time=51
note_on channel=0 note=64 velocity=57 time=5
note_on channel=0 note=72 velocity=62 time=30
note_on channel=0 note=64 velocity=0 time=4
note_on channel=0 note=72 velocity=0 time=51
note_on channel=0 note=64 velocity=62 time=5
note_on channel=0 note=72 velocity=65 time=30
note_on channel=0 note=64 velocity=0 time=4
note_on channel=0 note=72 velocity=0 time=162
note_on channel=0 note=72 velocity=72 time=14
note_on channel=0 note=76 velocity=72 time=0
note_on channel=0 note=84 velocity=72 time=0
note_on channel=0 note=84 velocity=0 time=29
note_on channel=0 note=76 velocity=0 time=0
note_on channel=0 note=72 velocity=0 time=0
note_on channel=0 note=74 velocity=81 time=1
note_on channel=0 note=86 velocity=81 time=0
note_on channel=0 note=77 velocity=81 time=0
note_on channel=0 note=75 velocity=75 time=30
note_on channel=0 note=87 velocity=75 time=0
note_on channel=0 note=78 velocity=75 time=0
note_on channel=0 note=77 velocity=0 time=5
note_on channel=0 note=74 velocity=0 time=0
note_on channel=0 note=86 velocity=0 time=0
note_on channel=0 note=75 velocity=0 time=24
note_on channel=0 note=87 velocity=0 time=0
note_on channel=0 note=78 velocity=0 time=0
note_on channel=0 note=76 velocity=89 time=1
note_on channel=0 note=79 velocity=89 time=0
note_on channel=0 note=88 velocity=89 time=0
note_on channel=0 note=88 velocity=0 time=26
note_on channel=0 note=79 velocity=0 time=0
note_on channel=0 note=76 velocity=0 time=0
note_on channel=0 note=72 velocity=76 time=4
note_on channel=0 note=76 velocity=76 time=0
note_on channel=0 note=84 velocity=76 time=0
note_on channel=0 note=84 velocity=0 time=29
note_on channel=0 note=76 velocity=0 time=0
note_on channel=0 note=72 velocity=0 time=0
note_on channel=0 note=74 velocity=79 time=1
note_on channel=0 note=77 velocity=79 time=0
note_on channel=0 note=86 velocity=79 time=0
note_on channel=0 note=76 velocity=91 time=30
note_on channel=0 note=79 velocity=91 time=0
note_on channel=0 note=88 velocity=91 time=0
note_on channel=0 note=86 velocity=0 time=5
note_on channel=0 note=74 velocity=0 time=0
note_on channel=0 note=77 velocity=0 time=0
note_on channel=0 note=76 velocity=0 time=45
note_on channel=0 note=79 velocity=0 time=0
note_on channel=0 note=88 velocity=0 time=0
note_on channel=0 note=71 velocity=75 time=10
note_on channel=0 note=74 velocity=75 time=0
note_on channel=0 note=83 velocity=75 time=0
note_on channel=0 note=83 velocity=0 time=29
note_on channel=0 note=74 velocity=0 time=0
note_on channel=0 note=71 velocity=0 time=0
note_on channel=0 note=74 velocity=81 time=1
note_on channel=0 note=77 velocity=81 time=0
note_on channel=0 note=86 velocity=81 time=0
note_on channel=0 note=86 velocity=0 time=53
note_on channel=0 note=77 velocity=0 time=0
note_on channel=0 note=74 velocity=0 time=0
note_on channel=0 note=72 velocity=81 time=7
note_on channel=0 note=76 velocity=81 time=0
note_on channel=0 note=84 velocity=81 time=0
note_on channel=0 note=84 velocity=0 time=175
note_on channel=0 note=76 velocity=0 time=0
note_on channel=0 note=72 velocity=0 time=0
note_on channel=0 note=62 velocity=74 time=5
note_on channel=0 note=63 velocity=59 time=30
note_on channel=0 note=62 velocity=0 time=7
note_on channel=0 note=63 velocity=0 time=22
note_on channel=0 note=64 velocity=62 time=1
note_on channel=0 note=72 velocity=74 time=30
note_on channel=0 note=64 velocity=0 time=4
note_on channel=0 note=72 velocity=0 time=51
note_on channel=0 note=64 velocity=62 time=5
note_on channel=0 note=72 velocity=77 time=30
note_on channel=0 note=64 velocity=0 time=4
note_on channel=0 note=72 velocity=0 time=51
note_on channel=0 note=64 velocity=58 time=5
note_on channel=0 note=72 velocity=74 time=30
note_on channel=0 note=64 velocity=0 time=4
note_on channel=0 note=72 velocity=0 time=190
note_on channel=0 note=69 velocity=91 time=16
note_on channel=0 note=72 velocity=91 time=0
note_on channel=0 note=81 velocity=91 time=0
note_on channel=0 note=72 velocity=0 time=27
note_on channel=0 note=72 velocity=76 time=3
note_on channel=0 note=67 velocity=76 time=0
note_on channel=0 note=79 velocity=76 time=0
note_on channel=0 note=81 velocity=0 time=5
note_on channel=0 note=69 velocity=0 time=0
note_on channel=0 note=72 velocity=0 time=21
note_on channel=0 note=67 velocity=0 time=3
note_on channel=0 note=79 velocity=0 time=0
note_on channel=0 note=66 velocity=84 time=1
note_on channel=0 note=78 velocity=84 time=0
note_on channel=0 note=72 velocity=84 time=0
note_on channel=0 note=72 velocity=0 time=29
note_on channel=0 note=69 velocity=89 time=1
note_on channel=0 note=81 velocity=89 time=0
note_on channel=0 note=78 velocity=0 time=5
note_on channel=0 note=66 velocity=0 time=0
note_on channel=0 note=69 velocity=0 time=24
note_on channel=0 note=81 velocity=0 time=0
note_on channel=0 note=72 velocity=84 time=1
note_on channel=0 note=84 velocity=84 time=0
note_on channel=0 note=88 velocity=95 time=30
note_on channel=0 note=76 velocity=95 time=0
note_on channel=0 note=84 velocity=0 time=5
note_on channel=0 note=72 velocity=0 time=0
note_on channel=0 note=88 velocity=0 time=50
note_on channel=0 note=76 velocity=0 time=0
note_on channel=0 note=86 velocity=79 time=5
note_on channel=0 note=74 velocity=79 time=0
note_on channel=0 note=74 velocity=0 time=29
note_on channel=0 note=86 velocity=0 time=0
note_on channel=0 note=84 velocity=91 time=1
note_on channel=0 note=72 velocity=91 time=0
note_on channel=0 note=81 velocity=84 time=30
note_on channel=0 note=69 velocity=84 time=0
note_on channel=0 note=72 velocity=0 time=5
note_on channel=0 note=84 velocity=0 time=0
note_on channel=0 note=81 velocity=0 time=24
note_on channel=0 note=69 velocity=0 time=0
note_on channel=0 note=74 velocity=97 time=1
note_on channel=0 note=77 velocity=97 time=0
note_on channel=0 note=86 velocity=97 time=0
note_on channel=0 note=86 velocity=0 time=175
note_on channel=0 note=77 velocity=0 time=0
note_on channel=0 note=74 velocity=0 time=0
note_on channel=0 note=62 velocity=74 time=5
note_on channel=0 note=63 velocity=62 time=30
note_on channel=0 note=62 velocity=0 time=5
note_on channel=0 note=63 velocity=0 time=24
note_on channel=0 note=64 velocity=64 time=1
note_on channel=0 note=72 velocity=74 time=30
note_on channel=0 note=64 velocity=0 time=5
note_on channel=0 note=72 velocity=0 time=53
note_on channel=0 note=64 velocity=63 time=2
note_on channel=0 note=72 velocity=75 time=30
note_on channel=0 note=64 velocity=0 time=5
note_on channel=0 note=72 velocity=0 time=53
note_on channel=0 note=64 velocity=59 time=2
note_on channel=0 note=72 velocity=69 time=30
note_on channel=0 note=64 velocity=0 time=5
note_on channel=0 note=72 velocity=0 time=170
note_on channel=0 note=72 velocity=79 time=5
note_on channel=0 note=76 velocity=79 time=0
note_on channel=0 note=84 velocity=79 time=0
note_on channel=0 note=84 velocity=0 time=29
note_on channel=0 note=76 velocity=0 time=0
note_on channel=0 note=72 velocity=0 time=0
note_on channel=0 note=74 velocity=75 time=1
note_on channel=0 note=86 velocity=75 time=0
note_on channel=0 note=77 velocity=75 time=0
note_on channel=0 note=75 velocity=81 time=30
note_on channel=0 note=87 velocity=81 time=0
note_on channel=0 note=78 velocity=81 time=0
note_on channel=0 note=77 velocity=0 time=5
note_on channel=0 note=74 velocity=0 time=0
note_on channel=0 note=86 velocity=0 time=0
note_on channel=0 note=75 velocity=0 time=24
note_on channel=0 note=87 velocity=0 time=0
note_on channel=0 note=78 velocity=0 time=0
note_on channel=0 note=76 velocity=89 time=1
note_on channel=0 note=79 velocity=89 time=0
note_on channel=0 note=88 velocity=89 time=0
note_on channel=0 note=88 velocity=0 time=24
note_on channel=0 note=79 velocity=0 time=0
note_on channel=0 note=76 velocity=0 time=0
note_on channel=0 note=72 velocity=76 time=6
note_on channel=0 note=76 velocity=76 time=0
note_on channel=0 note=84 velocity=76 time=0
note_on channel=0 note=84 velocity=0 time=29
note_on channel=0 note=76 velocity=0 time=0
note_on channel=0 note=72 velocity=0 time=0
note_on channel=0 note=74 velocity=79 time=1
note_on channel=0 note=77 velocity=79 time=0
note_on channel=0 note=86 velocity=79 time=0
note_on channel=0 note=76 velocity=90 time=30
note_on channel=0 note=79 velocity=90 time=0
note_on channel=0 note=88 velocity=90 time=0
note_on channel=0 note=86 velocity=0 time=5
note_on channel=0 note=74 velocity=0 time=0
note_on channel=0 note=77 velocity=0 time=0
note_on channel=0 note=76 velocity=0 time=49
note_on channel=0 note=79 velocity=0 time=0
note_on channel=0 note=88 velocity=0 time=0
note_on channel=0 note=71 velocity=77 time=6
note_on channel=0 note=74 velocity=77 time=0
note_on channel=0 note=83 velocity=77 time=0
note_on channel=0 note=74 velocity=0 time=26
note_on channel=0 note=74 velocity=89 time=4
note_on channel=0 note=77 velocity=89 time=0
note_on channel=0 note=86 velocity=89 time=0
note_on channel=0 note=83 velocity=0 time=5
note_on channel=0 note=71 velocity=0 time=0
note_on channel=0 note=77 velocity=0 time=49
note_on channel=0 note=74 velocity=0 time=0
note_on channel=0 note=86 velocity=0 time=0
note_on channel=0 note=72 velocity=98 time=6
note_on channel=0 note=76 velocity=98 time=0
note_on channel=0 note=84 velocity=98 time=0
note_on channel=0 note=84 velocity=0 time=175
note_on channel=0 note=76 velocity=0 time=0
note_on channel=0 note=72 velocity=0 time=0
note_on channel=0 note=84 velocity=79 time=5
note_on channel=0 note=72 velocity=79 time=0
note_on channel=0 note=74 velocity=75 time=30
note_on channel=0 note=86 velocity=75 time=0
note_on channel=0 note=72 velocity=0 time=6
note_on channel=0 note=84 velocity=0 time=0
note_on channel=0 note=74 velocity=0 time=23
note_on channel=0 note=86 velocity=0 time=0
note_on channel=0 note=88 velocity=89 time=1
note_on channel=0 note=76 velocity=89 time=0
note_on channel=0 note=76 velocity=0 time=29
note_on channel=0 note=88 velocity=0 time=0
note_on channel=0 note=84 velocity=74 time=1
note_on channel=0 note=72 velocity=74 time=0
note_on channel=0 note=72 velocity=0 time=29
note_on channel=0 note=84 velocity=0 time=0
note_on channel=0 note=86 velocity=82 time=1
note_on channel=0 note=74 velocity=82 time=0
note_on channel=0 note=88 velocity=91 time=30
note_on channel=0 note=76 velocity=91 time=0
note_on channel=0 note=74 velocity=0 time=6
note_on channel=0 note=86 velocity=0 time=0
note_on channel=0 note=88 velocity=0 time=48
note_on channel=0 note=76 velocity=0 time=0
note_on channel=0 note=84 velocity=72 time=6
note_on channel=0 note=72 velocity=72 time=0
note_on channel=0 note=72 velocity=0 time=29
note_on channel=0 note=84 velocity=0 time=0
note_on channel=0 note=86 velocity=89 time=1
note_on channel=0 note=74 velocity=89 time=0
note_on channel=0 note=84 velocity=75 time=30
note_on channel=0 note=72 velocity=75 time=0
note_on channel=0 note=74 velocity=0 time=6
note_on channel=0 note=86 velocity=0 time=0
note_on channel=0 note=84 velocity=0 time=23
note_on channel=0 note=72 velocity=0 time=0
note_on channel=0 note=76 velocity=94 time=1
note_on channel=0 note=88 velocity=94 time=0
note_on channel=0 note=88 velocity=0 time=29
note_on channel=0 note=76 velocity=0 time=0
note_on channel=0 note=72 velocity=75 time=1
note_on channel=0 note=84 velocity=75 time=0
note_on channel=0 note=84 velocity=0 time=29
note_on channel=0 note=72 velocity=0 time=0
note_on channel=0 note=74 velocity=89 time=1
note_on channel=0 note=86 velocity=89 time=0
note_on channel=0 note=76 velocity=96 time=30
note_on channel=0 note=88 velocity=96 time=0
note_on channel=0 note=86 velocity=0 time=6
note_on channel=0 note=74 velocity=0 time=0
note_on channel=0 note=76 velocity=0 time=48
note_on channel=0 note=88 velocity=0 time=0
note_on channel=0 note=72 velocity=74 time=6
note_on channel=0 note=84 velocity=74 time=0
note_on channel=0 note=84 velocity=0 time=29
note_on channel=0 note=72 velocity=0 time=0
note_on channel=0 note=74 velocity=83 time=1
note_on channel=0 note=86 velocity=83 time=0
note_on channel=0 note=72 velocity=77 time=30
note_on channel=0 note=84 velocity=77 time=0
note_on channel=0 note=86 velocity=0 time=6
note_on channel=0 note=74 velocity=0 time=0
note_on channel=0 note=72 velocity=0 time=23
note_on channel=0 note=84 velocity=0 time=0
note_on channel=0 note=76 velocity=90 time=1
note_on channel=0 note=79 velocity=90 time=0
note_on channel=0 note=88 velocity=90 time=0
note_on channel=0 note=88 velocity=0 time=29
note_on channel=0 note=79 velocity=0 time=0
note_on channel=0 note=76 velocity=0 time=0
note_on channel=0 note=72 velocity=74 time=1
note_on channel=0 note=76 velocity=74 time=0
note_on channel=0 note=84 velocity=74 time=0
note_on channel=0 note=84 velocity=0 time=29
note_on channel=0 note=76 velocity=0 time=0
note_on channel=0 note=72 velocity=0 time=0
note_on channel=0 note=74 velocity=78 time=1
note_on channel=0 note=77 velocity=78 time=0
note_on channel=0 note=86 velocity=78 time=0
note_on channel=0 note=76 velocity=89 time=30
note_on channel=0 note=79 velocity=89 time=0
note_on channel=0 note=88 velocity=89 time=0
note_on channel=0 note=86 velocity=0 time=6
note_on channel=0 note=74 velocity=0 time=0
note_on channel=0 note=77 velocity=0 time=0
note_on channel=0 note=76 velocity=0 time=48
note_on channel=0 note=79 velocity=0 time=0
note_on channel=0 note=88 velocity=0 time=0
note_on channel=0 note=71 velocity=76 time=6
note_on channel=0 note=74 velocity=76 time=0
note_on channel=0 note=83 velocity=76 time=0
note_on channel=0 note=74 velocity=0 time=29
note_on channel=0 note=74 velocity=89 time=1
note_on channel=0 note=77 velocity=89 time=0
note_on channel=0 note=86 velocity=89 time=0
note_on channel=0 note=83 velocity=0 time=6
note_on channel=0 note=71 velocity=0 time=0
note_on channel=0 note=77 velocity=0 time=47
note_on channel=0 note=74 velocity=0 time=0
note_on channel=0 note=86 velocity=0 time=0
note_on channel=0 note=72 velocity=96 time=7
note_on channel=0 note=76 velocity=96 time=0
note_on channel=0 note=84 velocity=96 time=0
note_on channel=0 note=84 velocity=0 time=175
note_on channel=0 note=76 velocity=0 time=0
note_on channel=0 note=72 velocity=0 time=0
note_on channel=0 note=62 velocity=74 time=5
note_on channel=0 note=62 velocity=0 time=29
note_on channel=0 note=63 velocity=74 time=1
note_on channel=0 note=63 velocity=0 time=29
note_on channel=0 note=64 velocity=56 time=1
note_on channel=0 note=72 velocity=63 time=30
note_on channel=0 note=64 velocity=0 time=4
note_on channel=0 note=72 velocity=0 time=51
note_on channel=0 note=64 velocity=57 time=5
note_on channel=0 note=72 velocity=62 time=30
note_on channel=0 note=64 velocity=0 time=4
note_on channel=0 note=72 velocity=0 time=51
note_on channel=0 note=64 velocity=62 time=5
note_on channel=0 note=72 velocity=65 time=30
note_on channel=0 note=64 velocity=0 time=4
note_on channel=0 note=72 velocity=0 time=162
note_on channel=0 note=72 velocity=72 time=14
note_on channel=0 note=76 velocity=72 time=0
note_on channel=0 note=84 velocity=72 time=0
note_on channel=0 note=84 velocity=0 time=29
note_on channel=0 note=76 velocity=0 time=0
note_on channel=0 note=72 velocity=0 time=0
note_on channel=0 note=74 velocity=81 time=1
note_on channel=0 note=86 velocity=81 time=0
note_on channel=0 note=77 velocity=81 time=0
note_on channel=0 note=75 velocity=75 time=30
note_on channel=0 note=87 velocity=75 time=0
note_on channel=0 note=78 velocity=75 time=0
note_on channel=0 note=77 velocity=0 time=5
note_on channel=0 note=74 velocity=0 time=0
note_on channel=0 note=86 velocity=0 time=0
note_on channel=0 note=75 velocity=0 time=24
note_on channel=0 note=87 velocity=0 time=0
note_on channel=0 note=78 velocity=0 time=0
note_on channel=0 note=76 velocity=89 time=1
note_on channel=0 note=79 velocity=89 time=0
note_on channel=0 note=88 velocity=89 time=0
note_on channel=0 note=88 velocity=0 time=26
note_on channel=0 note=79 velocity=0 time=0
note_on channel=0 note=76 velocity=0 time=0
note_on channel=0 note=72 velocity=76 time=4
note_on channel=0 note=76 velocity=76 time=0
note_on channel=0 note=84 velocity=76 time=0
note_on channel=0 note=84 velocity=0 time=29
note_on channel=0 note=76 velocity=0 time=0
note_on channel=0 note=72 velocity=0 time=0
note_on channel=0 note=74 velocity=79 time=1
note_on channel=0 note=77 velocity=79 time=0
note_on channel=0 note=86 velocity=79 time=0
note_on channel=0 note=76 velocity=91 time=30
note_on channel=0 note=79 velocity=91 time=0
note_on channel=0 note=88 velocity=91 time=0
note_on channel=0 note=86 velocity=0 time=5
note_on channel=0 note=74 velocity=0 time=0
note_on channel=0 note=77 velocity=0 time=0
note_on channel=0 note=76 velocity=0 time=45
note_on channel=0 note=79 velocity=0 time=0
note_on channel=0 note=88 velocity=0 time=0
note_on channel=0 note=71 velocity=75 time=10
note_on channel=0 note=74 velocity=75 time=0
note_on channel=0 note=83 velocity=75 time=0
note_on channel=0 note=83 velocity=0 time=29
note_on channel=0 note=74 velocity=0 time=0
note_on channel=0 note=71 velocity=0 time=0
note_on channel=0 note=74 velocity=81 time=1
note_on channel=0 note=77 velocity=81 time=0
note_on channel=0 note=86 velocity=81 time=0
note_on channel=0 note=86 velocity=0 time=53
note_on channel=0 note=77 velocity=0 time=0
note_on channel=0 note=74 velocity=0 time=0
note_on channel=0 note=72 velocity=81 time=7
note_on channel=0 note=76 velocity=81 time=0
note_on channel=0 note=84 velocity=81 time=0
note_on channel=0 note=84 velocity=0 time=175
note_on channel=0 note=76 velocity=0 time=0
note_on channel=0 note=72 velocity=0 time=0
note_on channel=0 note=62 velocity=74 time=5
note_on channel=0 note=63 velocity=59 time=30
note_on channel=0 note=62 velocity=0 time=7
note_on channel=0 note=63 velocity=0 time=22
note_on channel=0 note=64 velocity=62 time=1
note_on channel=0 note=72 velocity=74 time=30
note_on channel=0 note=64 velocity=0 time=4
note_on channel=0 note=72 velocity=0 time=51
note_on channel=0 note=64 velocity=62 time=5
note_on channel=0 note=72 velocity=77 time=30
note_on channel=0 note=64 velocity=0 time=4
note_on channel=0 note=72 velocity=0 time=51
note_on channel=0 note=64 velocity=58 time=5
note_on channel=0 note=72 velocity=74 time=30
note_on channel=0 note=64 velocity=0 time=4
note_on channel=0 note=72 velocity=0 time=190
note_on channel=0 note=69 velocity=91 time=16
note_on channel=0 note=72 velocity=91 time=0
note_on channel=0 note=81 velocity=91 time=0
note_on channel=0 note=72 velocity=0 time=27
note_on channel=0 note=72 velocity=76 time=3
note_on channel=0 note=67 velocity=76 time=0
note_on channel=0 note=79 velocity=76 time=0
note_on channel=0 note=81 velocity=0 time=5
note_on channel=0 note=69 velocity=0 time=0
note_on channel=0 note=72 velocity=0 time=21
note_on channel=0 note=67 velocity=0 time=3
note_on channel=0 note=79 velocity=0 time=0
note_on channel=0 note=66 velocity=84 time=1
note_on channel=0 note=78 velocity=84 time=0
note_on channel=0 note=72 velocity=84 time=0
note_on channel=0 note=72 velocity=0 time=29
note_on channel=0 note=69 velocity=89 time=1
note_on channel=0 note=81 velocity=89 time=0
note_on channel=0 note=78 velocity=0 time=5
note_on channel=0 note=66 velocity=0 time=0
note_on channel=0 note=69 velocity=0 time=24
note_on channel=0 note=81 velocity=0 time=0
note_on channel=0 note=72 velocity=84 time=1
note_on channel=0 note=84 velocity=84 time=0
note_on channel=0 note=88 velocity=95 time=30
note_on channel=0 note=76 velocity=95 time=0
note_on channel=0 note=84 velocity=0 time=5
note_on channel=0 note=72 velocity=0 time=0
note_on channel=0 note=88 velocity=0 time=50
note_on channel=0 note=76 velocity=0 time=0
note_on channel=0 note=86 velocity=79 time=5
note_on channel=0 note=74 velocity=79 time=0
note_on channel=0 note=74 velocity=0 time=29
note_on channel=0 note=86 velocity=0 time=0
note_on channel=0 note=84 velocity=91 time=1
note_on channel=0 note=72 velocity=91 time=0
note_on channel=0 note=81 velocity=84 time=30
note_on channel=0 note=69 velocity=84 time=0
note_on channel=0 note=72 velocity=0 time=5
note_on channel=0 note=84 velocity=0 time=0
note_on channel=0 note=81 velocity=0 time=24
note_on channel=0 note=69 velocity=0 time=0
note_on channel=0 note=74 velocity=97 time=1
note_on channel=0 note=77 velocity=97 time=0
note_on channel=0 note=86 velocity=97 time=0
note_on channel=0 note=86 velocity=0 time=175
note_on channel=0 note=77 velocity=0 time=0
note_on channel=0 note=74 velocity=0 time=0
note_on channel=0 note=62 velocity=74 time=5
note_on channel=0 note=63 velocity=62 time=30
note_on channel=0 note=62 velocity=0 time=5
note_on channel=0 note=63 velocity=0 time=24
note_on channel=0 note=64 velocity=64 time=1
note_on channel=0 note=72 velocity=74 time=30
note_on channel=0 note=64 velocity=0 time=5
note_on channel=0 note=72 velocity=0 time=53
note_on channel=0 note=64 velocity=63 time=2
note_on channel=0 note=72 velocity=75 time=30
note_on channel=0 note=64 velocity=0 time=5
note_on channel=0 note=72 velocity=0 time=53
note_on channel=0 note=64 velocity=59 time=2
note_on channel=0 note=72 velocity=69 time=30
note_on channel=0 note=64 velocity=0 time=5
note_on channel=0 note=72 velocity=0 time=170
note_on channel=0 note=72 velocity=78 time=5
note_on channel=0 note=76 velocity=78 time=0
note_on channel=0 note=84 velocity=78 time=0
note_on channel=0 note=84 velocity=0 time=29
note_on channel=0 note=76 velocity=0 time=0
note_on channel=0 note=72 velocity=0 time=0
note_on channel=0 note=74 velocity=74 time=1
note_on channel=0 note=86 velocity=74 time=0
note_on channel=0 note=77 velocity=74 time=0
note_on channel=0 note=75 velocity=80 time=30
note_on channel=0 note=87 velocity=80 time=0
note_on channel=0 note=78 velocity=80 time=0
note_on channel=0 note=77 velocity=0 time=5
note_on channel=0 note=74 velocity=0 time=0
note_on channel=0 note=86 velocity=0 time=0
note_on channel=0 note=75 velocity=0 time=24
note_on channel=0 note=87 velocity=0 time=0
note_on channel=0 note=78 velocity=0 time=0
note_on channel=0 note=76 velocity=88 time=1
note_on channel=0 note=79 velocity=88 time=0
note_on channel=0 note=88 velocity=88 time=0
note_on channel=0 note=88 velocity=0 time=24
note_on channel=0 note=79 velocity=0 time=0
note_on channel=0 note=76 velocity=0 time=0
note_on channel=0 note=72 velocity=75 time=6
note_on channel=0 note=76 velocity=75 time=0
note_on channel=0 note=84 velocity=75 time=0
note_on channel=0 note=84 velocity=0 time=29
note_on channel=0 note=76 velocity=0 time=0
note_on channel=0 note=72 velocity=0 time=0
note_on channel=0 note=74 velocity=78 time=1
note_on channel=0 note=77 velocity=78 time=0
note_on channel=0 note=86 velocity=78 time=0
note_on channel=0 note=76 velocity=89 time=30
note_on channel=0 note=79 velocity=89 time=0
note_on channel=0 note=88 velocity=89 time=0
note_on channel=0 note=86 velocity=0 time=5
note_on channel=0 note=74 velocity=0 time=0
note_on channel=0 note=77 velocity=0 time=0
note_on channel=0 note=76 velocity=0 time=49
note_on channel=0 note=79 velocity=0 time=0
note_on channel=0 note=88 velocity=0 time=0
note_on channel=0 note=71 velocity=76 time=6
note_on channel=0 note=74 velocity=76 time=0
note_on channel=0 note=83 velocity=76 time=0
note_on channel=0 note=74 velocity=0 time=26
note_on channel=0 note=74 velocity=88 time=4
note_on channel=0 note=77 velocity=88 time=0
note_on channel=0 note=86 velocity=88 time=0
note_on channel=0 note=83 velocity=0 time=5
note_on channel=0 note=71 velocity=0 time=0
note_on channel=0 note=77 velocity=0 time=49
note_on channel=0 note=74 velocity=0 time=0
note_on channel=0 note=86 velocity=0 time=0
note_on channel=0 note=72 velocity=97 time=6
note_on channel=0 note=76 velocity=97 time=0
note_on channel=0 note=84 velocity=97 time=0
note_on channel=0 note=84 velocity=0 time=175
note_on channel=0 note=76 velocity=0 time=0
note_on channel=0 note=72 velocity=0 time=0
note_on channel=0 note=84 velocity=78 time=5
note_on channel=0 note=72 velocity=78 time=0
note_on channel=0 note=74 velocity=74 time=30
note_on channel=0 note=86 velocity=74 time=0
note_on channel=0 note=72 velocity=0 time=6
note_on channel=0 note=84 velocity=0 time=0
note_on channel=0 note=74 velocity=0 time=23
note_on channel=0 note=86 velocity=0 time=0
note_on channel=0 note=88 velocity=88 time=1
note_on channel=0 note=76 velocity=88 time=0
note_on channel=0 note=76 velocity=0 time=29
note_on channel=0 note=88 velocity=0 time=0
note_on channel=0 note=84 velocity=73 time=1
note_on channel=0 note=72 velocity=73 time=0
note_on channel=0 note=72 velocity=0 time=29
note_on channel=0 note=84 velocity=0 time=0
note_on channel=0 note=86 velocity=81 time=1
note_on channel=0 note=74 velocity=81 time=0
note_on channel=0 note=88 velocity=90 time=30
note_on channel=0 note=76 velocity=90 time=0
note_on channel=0 note=74 velocity=0 time=6
note_on channel=0 note=86 velocity=0 time=0
note_on channel=0 note=88 velocity=0 time=48
note_on channel=0 note=76 velocity=0 time=0
note_on channel=0 note=84 velocity=71 time=6
note_on channel=0 note=72 velocity=71 time=0
note_on channel=0 note=72 velocity=0 time=29
note_on channel=0 note=84 velocity=0 time=0
note_on channel=0 note=86 velocity=88 time=1
note_on channel=0 note=74 velocity=88 time=0
note_on channel=0 note=84 velocity=74 time=30
note_on channel=0 note=72 velocity=74 time=0
note_on channel=0 note=74 velocity=0 time=6
note_on channel=0 note=86 velocity=0 time=0
note_on channel=0 note=84 velocity=0 time=23
note_on channel=0 note=72 velocity=0 time=0
note_on channel=0 note=76 velocity=93 time=1
note_on channel=0 note=88 velocity=93 time=0
note_on channel=0 note=88 velocity=0 time=29
note_on channel=0 note=76 velocity=0 time=0
note_on channel=0 note=72 velocity=74 time=1
note_on channel=0 note=84 velocity=74 time=0
note_on channel=0 note=84 velocity=0 time=29
note_on channel=0 note=72 velocity=0 time=0
note_on channel=0 note=74 velocity=88 time=1
note_on channel=0 note=86 velocity=88 time=0
note_on channel=0 note=76 velocity=95 time=30
note_on channel=0 note=88 velocity=95 time=0
note_on channel=0 note=86 velocity=0 time=6
note_on channel=0 note=74 velocity=0 time=0
note_on channel=0 note=76 velocity=0 time=48
note_on channel=0 note=88 velocity=0 time=0
note_on channel=0 note=72 velocity=73 time=6
note_on channel=0 note=84 velocity=73 time=0
note_on channel=0 note=84 velocity=0 time=29
note_on channel=0 note=72 velocity=0 time=0
note_on channel=0 note=74 velocity=82 time=1
note_on channel=0 note=86 velocity=82 time=0
note_on channel=0 note=72 velocity=76 time=30
note_on channel=0 note=84 velocity=76 time=0
note_on channel=0 note=86 velocity=0 time=6
note_on channel=0 note=74 velocity=0 time=0
note_on channel=0 note=72 velocity=0 time=23
note_on channel=0 note=84 velocity=0 time=0
note_on channel=0 note=76 velocity=89 time=1
note_on channel=0 note=79 velocity=89 time=0
note_on channel=0 note=88 velocity=89 time=0
note_on channel=0 note=88 velocity=0 time=29
note_on channel=0 note=79 velocity=0 time=0
note_on channel=0 note=76 velocity=0 time=0
note_on channel=0 note=72 velocity=73 time=1
note_on channel=0 note=76 velocity=73 time=0
note_on channel=0 note=84 velocity=73 time=0
note_on channel=0 note=84 velocity=0 time=29
note_on channel=0 note=76 velocity=0 time=0
note_on channel=0 note=72 velocity=0 time=0
note_on channel=0 note=74 velocity=77 time=1
note_on channel=0 note=77 velocity=77 time=0
note_on channel=0 note=86 velocity=77 time=0
note_on channel=0 note=76 velocity=88 time=30
note_on channel=0 note=79 velocity=88 time=0
note_on channel=0 note=88 velocity=88 time=0
note_on channel=0 note=86 velocity=0 time=6
note_on channel=0 note=74 velocity=0 time=0
note_on channel=0 note=77 velocity=0 time=0
note_on channel=0 note=76 velocity=0 time=48
note_on channel=0 note=79 velocity=0 time=0
note_on channel=0 note=88 velocity=0 time=0
note_on channel=0 note=71 velocity=75 time=6
note_on channel=0 note=74 velocity=75 time=0
note_on channel=0 note=83 velocity=75 time=0
note_on channel=0 note=74 velocity=0 time=29
note_on channel=0 note=74 velocity=88 time=1
note_on channel=0 note=77 velocity=88 time=0
note_on channel=0 note=86 velocity=88 time=0
note_on channel=0 note=83 velocity=0 time=6
note_on channel=0 note=71 velocity=0 time=0
note_on channel=0 note=77 velocity=0 time=47
note_on channel=0 note=74 velocity=0 time=0
note_on channel=0 note=86 velocity=0 time=0
note_on channel=0 note=72 velocity=95 time=7
note_on channel=0 note=76 velocity=95 time=0
note_on channel=0 note=84 velocity=95 time=0
note_on channel=0 note=84 velocity=0 time=135
note_on channel=0 note=76 velocity=0 time=0
note_on channel=0 note=72 velocity=0 time=0
note_on channel=0 note=64 velocity=78 time=15
note_on channel=0 note=76 velocity=78 time=0
note_on channel=0 note=72 velocity=78 time=0
note_on channel=0 note=72 velocity=0 time=29
note_on channel=0 note=76 velocity=0 time=0
note_on channel=0 note=64 velocity=0 time=0
note_on channel=0 note=65 velocity=88 time=1
note_on channel=0 note=74 velocity=88 time=0
note_on channel=0 note=77 velocity=88 time=0
note_on channel=0 note=66 velocity=81 time=30
note_on channel=0 note=78 velocity=81 time=0
note_on channel=0 note=75 velocity=81 time=0
note_on channel=0 note=77 velocity=0 time=5
note_on channel=0 note=65 velocity=0 time=0
note_on channel=0 note=74 velocity=0 time=0
note_on channel=0 note=66 velocity=0 time=24
note_on channel=0 note=78 velocity=0 time=0
note_on channel=0 note=75 velocity=0 time=0
note_on channel=0 note=79 velocity=93 time=1
note_on channel=0 note=76 velocity=93 time=0
note_on channel=0 note=67 velocity=93 time=0
note_on channel=0 note=67 velocity=0 time=55
note_on channel=0 note=76 velocity=0 time=0
note_on channel=0 note=79 velocity=0 time=0
note_on channel=0 note=69 velocity=88 time=5
note_on channel=0 note=76 velocity=88 time=0
note_on channel=0 note=81 velocity=88 time=0
note_on channel=0 note=76 velocity=0 time=27
note_on channel=0 note=67 velocity=93 time=3
note_on channel=0 note=79 velocity=93 time=0
note_on channel=0 note=76 velocity=93 time=0
note_on channel=0 note=81 velocity=0 time=5
note_on channel=0 note=69 velocity=0 time=0
note_on channel=0 note=79 velocity=0 time=50
note_on channel=0 note=67 velocity=0 time=0
note_on channel=0 note=76 velocity=0 time=0
note_on channel=0 note=64 velocity=71 time=5
note_on channel=0 note=76 velocity=71 time=0
note_on channel=0 note=72 velocity=71 time=0
note_on channel=0 note=72 velocity=0 time=29
note_on channel=0 note=76 velocity=0 time=0
note_on channel=0 note=64 velocity=0 time=0
note_on channel=0 note=65 velocity=75 time=1
note_on channel=0 note=77 velocity=75 time=0
note_on channel=0 note=74 velocity=75 time=0
note_on channel=0 note=66 velocity=74 time=30
note_on channel=0 note=78 velocity=74 time=0
note_on channel=0 note=75 velocity=74 time=0
note_on channel=0 note=74 velocity=0 time=6
note_on channel=0 note=65 velocity=0 time=0
note_on channel=0 note=77 velocity=0 time=0
note_on channel=0 note=66 velocity=0 time=23
note_on channel=0 note=78 velocity=0 time=0
note_on channel=0 note=75 velocity=0 time=0
note_on channel=0 note=79 velocity=80 time=1
note_on channel=0 note=76 velocity=80 time=0
note_on channel=0 note=67 velocity=80 time=0
note_on channel=0 note=67 velocity=0 time=51
note_on channel=0 note=76 velocity=0 time=0
note_on channel=0 note=79 velocity=0 time=0
note_on channel=0 note=69 velocity=86 time=9
note_on channel=0 note=81 velocity=86 time=0
note_on channel=0 note=76 velocity=86 time=0
note_on channel=0 note=76 velocity=0 time=29
note_on channel=0 note=67 velocity=77 time=1
note_on channel=0 note=76 velocity=77 time=0
note_on channel=0 note=79 velocity=77 time=0
note_on channel=0 note=81 velocity=0 time=6
note_on channel=0 note=69 velocity=0 time=0
note_on channel=0 note=76 velocity=0 time=49
note_on channel=0 note=67 velocity=0 time=0
note_on channel=0 note=79 velocity=0 time=0
note_on channel=0 note=76 velocity=77 time=5
note_on channel=0 note=76 velocity=0 time=29
note_on channel=0 note=72 velocity=81 time=1
note_on channel=0 note=67 velocity=74 time=30
note_on channel=0 note=72 velocity=0 time=6
note_on channel=0 note=67 velocity=0 time=23
note_on channel=0 note=69 velocity=88 time=1
note_on channel=0 note=71 velocity=77 time=30
note_on channel=0 note=69 velocity=0 time=6
note_on channel=0 note=71 velocity=0 time=23
note_on channel=0 note=72 velocity=84 time=1
note_on channel=0 note=74 velocity=80 time=30
note_on channel=0 note=72 velocity=0 time=6
note_on channel=0 note=74 velocity=0 time=23
note_on channel=0 note=76 velocity=93 time=1
note_on channel=0 note=74 velocity=84 time=30
note_on channel=0 note=76 velocity=0 time=6
note_on channel=0 note=74 velocity=0 time=23
note_on channel=0 note=72 velocity=86 time=1
note_on channel=0 note=74 velocity=83 time=30
note_on channel=0 note=72 velocity=0 time=6
note_on channel=0 note=74 velocity=0 time=23
note_on channel=0 note=67 velocity=97 time=1
note_on channel=0 note=67 velocity=0 time=29
note_on channel=0 note=76 velocity=80 time=1
note_on channel=0 note=76 velocity=0 time=29
note_on channel=0 note=77 velocity=86 time=1
note_on channel=0 note=79 velocity=80 time=30
note_on channel=0 note=77 velocity=0 time=6
note_on channel=0 note=79 velocity=0 time=23
note_on channel=0 note=81 velocity=93 time=1
note_on channel=0 note=79 velocity=84 time=30
note_on channel=0 note=81 velocity=0 time=6
note_on channel=0 note=79 velocity=0 time=23
note_on channel=0 note=76 velocity=86 time=1
note_on channel=0 note=77 velocity=93 time=30
note_on channel=0 note=76 velocity=0 time=6
note_on channel=0 note=77 velocity=0 time=23
note_on channel=0 note=79 velocity=91 time=1
note_on channel=0 note=76 velocity=91 time=0
note_on channel=0 note=67 velocity=91 time=0
note_on channel=0 note=67 velocity=0 time=52
note_on channel=0 note=76 velocity=0 time=0
note_on channel=0 note=79 velocity=0 time=0
note_on channel=0 note=69 velocity=77 time=8
note_on channel=0 note=76 velocity=77 time=0
note_on channel=0 note=81 velocity=77 time=0
note_on channel=0 note=76 velocity=0 time=25
note_on channel=0 note=67 velocity=86 time=5
note_on channel=0 note=79 velocity=86 time=0
note_on channel=0 note=76 velocity=86 time=0
note_on channel=0 note=81 velocity=0 time=6
note_on channel=0 note=69 velocity=0 time=0
note_on channel=0 note=79 velocity=0 time=46
note_on channel=0 note=67 velocity=0 time=0
note_on channel=0 note=76 velocity=0 time=0
note_on channel=0 note=64 velocity=70 time=8
note_on channel=0 note=76 velocity=70 time=0
note_on channel=0 note=72 velocity=70 time=0
note_on channel=0 note=72 velocity=0 time=29
note_on channel=0 note=76 velocity=0 time=0
note_on channel=0 note=64 velocity=0 time=0
note_on channel=0 note=65 velocity=77 time=1
note_on channel=0 note=77 velocity=77 time=0
note_on channel=0 note=74 velocity=77 time=0
note_on channel=0 note=66 velocity=73 time=30
note_on channel=0 note=78 velocity=73 time=0
note_on channel=0 note=75 velocity=73 time=0
note_on channel=0 note=74 velocity=0 time=6
note_on channel=0 note=65 velocity=0 time=0
note_on channel=0 note=77 velocity=0 time=0
note_on channel=0 note=66 velocity=0 time=23
note_on channel=0 note=78 velocity=0 time=0
note_on channel=0 note=75 velocity=0 time=0
note_on channel=0 note=67 velocity=82 time=1
note_on channel=0 note=79 velocity=82 time=0
note_on channel=0 note=76 velocity=82 time=0
note_on channel=0 note=76 velocity=0 time=52
note_on channel=0 note=79 velocity=0 time=0
note_on channel=0 note=67 velocity=0 time=0
note_on channel=0 note=69 velocity=88 time=8
note_on channel=0 note=76 velocity=88 time=0
note_on channel=0 note=81 velocity=88 time=0
note_on channel=0 note=76 velocity=0 time=25
note_on channel=0 note=67 velocity=76 time=5
note_on channel=0 note=79 velocity=76 time=0
note_on channel=0 note=76 velocity=76 time=0
note_on channel=0 note=81 velocity=0 time=6
note_on channel=0 note=69 velocity=0 time=0
note_on channel=0 note=79 velocity=0 time=46
note_on channel=0 note=67 velocity=0 time=0
note_on channel=0 note=76 velocity=0 time=0
note_on channel=0 note=79 velocity=68 time=8
note_on channel=0 note=79 velocity=0 time=29
note_on channel=0 note=81 velocity=73 time=1
note_on channel=0 note=82 velocity=67 time=30
note_on channel=0 note=81 velocity=0 time=6
note_on channel=0 note=82 velocity=0 time=23
note_on channel=0 note=79 velocity=86 time=1
note_on channel=0 note=74 velocity=86 time=0
note_on channel=0 note=83 velocity=86 time=0
note_on channel=0 note=83 velocity=0 time=25
note_on channel=0 note=74 velocity=0 time=0
note_on channel=0 note=79 velocity=0 time=0
note_on channel=0 note=79 velocity=80 time=5
note_on channel=0 note=74 velocity=80 time=0
note_on channel=0 note=83 velocity=80 time=0
note_on channel=0 note=83 velocity=0 time=52
note_on channel=0 note=74 velocity=0 time=0
note_on channel=0 note=79 velocity=0 time=0
note_on channel=0 note=78 velocity=80 time=8
note_on channel=0 note=72 velocity=80 time=0
note_on channel=0 note=83 velocity=80 time=0
note_on channel=0 note=83 velocity=0 time=55
note_on channel=0 note=72 velocity=0 time=0
note_on channel=0 note=78 velocity=0 time=0
note_on channel=0 note=81 velocity=76 time=5
note_on channel=0 note=81 velocity=0 time=29
note_on channel=0 note=72 velocity=81 time=1
note_on channel=0 note=78 velocity=81 time=0
note_on channel=0 note=74 velocity=71 time=30
note_on channel=0 note=78 velocity=0 time=6
note_on channel=0 note=72 velocity=0 time=0
note_on channel=0 note=74 velocity=0 time=23
note_on channel=0 note=71 velocity=77 time=1
note_on channel=0 note=79 velocity=77 time=0
note_on channel=0 note=79 velocity=0 time=137
note_on channel=0 note=71 velocity=0 time=0
note_on channel=0 note=76 velocity=64 time=13
note_on channel=0 note=72 velocity=64 time=0
note_on channel=0 note=64 velocity=64 time=0
note_on channel=0 note=64 velocity=0 time=29
note_on channel=0 note=72 velocity=0 time=0
note_on channel=0 note=76 velocity=0 time=0
note_on channel=0 note=77 velocity=71 time=1
note_on channel=0 note=74 velocity=71 time=0
note_on channel=0 note=65 velocity=71 time=0
note_on channel=0 note=78 velocity=68 time=30
note_on channel=0 note=75 velocity=68 time=0
note_on channel=0 note=66 velocity=68 time=0
note_on channel=0 note=65 velocity=0 time=5
note_on channel=0 note=77 velocity=0 time=0
note_on channel=0 note=74 velocity=0 time=0
note_on channel=0 note=78 velocity=0 time=24
note_on channel=0 note=75 velocity=0 time=0
note_on channel=0 note=66 velocity=0 time=0
note_on channel=0 note=67 velocity=64 time=1
note_on channel=0 note=79 velocity=64 time=0
note_on channel=0 note=76 velocity=64 time=0
note_on channel=0 note=76 velocity=0 time=49
note_on channel=0 note=79 velocity=0 time=0
note_on channel=0 note=67 velocity=0 time=0
note_on channel=0 note=69 velocity=75 time=11
note_on channel=0 note=76 velocity=75 time=0
note_on channel=0 note=81 velocity=75 time=0
note_on channel=0 note=76 velocity=0 time=26
note_on channel=0 note=67 velocity=66 time=4
note_on channel=0 note=79 velocity=66 time=0
note_on channel=0 note=76 velocity=66 time=0
note_on channel=0 note=81 velocity=0 time=5
note_on channel=0 note=69 velocity=0 time=0
note_on channel=0 note=79 velocity=0 time=48
note_on channel=0 note=67 velocity=0 time=0
note_on channel=0 note=76 velocity=0 time=0
note_on channel=0 note=64 velocity=58 time=7
note_on channel=0 note=76 velocity=58 time=0
note_on channel=0 note=72 velocity=58 time=0
note_on channel=0 note=72 velocity=0 time=29
note_on channel=0 note=76 velocity=0 time=0
note_on channel=0 note=64 velocity=0 time=0
note_on channel=0 note=65 velocity=62 time=1
note_on channel=0 note=74 velocity=62 time=0
note_on channel=0 note=77 velocity=62 time=0
note_on channel=0 note=66 velocity=58 time=30
note_on channel=0 note=75 velocity=58 time=0
note_on channel=0 note=78 velocity=58 time=0
note_on channel=0 note=77 velocity=0 time=5
note_on channel=0 note=65 velocity=0 time=0
note_on channel=0 note=74 velocity=0 time=0
note_on channel=0 note=66 velocity=0 time=24
note_on channel=0 note=75 velocity=0 time=0
note_on channel=0 note=78 velocity=0 time=0
note_on channel=0 note=79 velocity=68 time=1
note_on channel=0 note=76 velocity=68 time=0
note_on channel=0 note=67 velocity=68 time=0
note_on channel=0 note=67 velocity=0 time=49
note_on channel=0 note=76 velocity=0 time=0
note_on channel=0 note=79 velocity=0 time=0
note_on channel=0 note=69 velocity=77 time=11
note_on channel=0 note=76 velocity=77 time=0
note_on channel=0 note=81 velocity=77 time=0
note_on channel=0 note=76 velocity=0 time=26
note_on channel=0 note=67 velocity=67 time=4
note_on channel=0 note=79 velocity=67 time=0
note_on channel=0 note=76 velocity=67 time=0
note_on channel=0 note=81 velocity=0 time=5
note_on channel=0 note=69 velocity=0 time=0
note_on channel=0 note=79 velocity=0 time=48
note_on channel=0 note=67 velocity=0 time=0
note_on channel=0 note=76 velocity=0 time=0
note_on channel=0 note=76 velocity=70 time=7
note_on channel=0 note=76 velocity=0 time=29
note_on channel=0 note=72 velocity=62 time=1
note_on channel=0 note=67 velocity=66 time=30
note_on channel=0 note=72 velocity=0 time=5
note_on channel=0 note=67 velocity=0 time=24
note_on channel=0 note=69 velocity=67 time=1
note_on channel=0 note=71 velocity=64 time=30
note_on channel=0 note=69 velocity=0 time=5
note_on channel=0 note=71 velocity=0 time=24
note_on channel=0 note=72 velocity=71 time=1
note_on channel=0 note=74 velocity=67 time=30
note_on channel=0 note=72 velocity=0 time=5
note_on channel=0 note=74 velocity=0 time=24
note_on channel=0 note=76 velocity=81 time=1
note_on channel=0 note=74 velocity=71 time=30
note_on channel=0 note=76 velocity=0 time=5
note_on channel=0 note=74 velocity=0 time=24
note_on channel=0 note=72 velocity=74 time=1
note_on channel=0 note=74 velocity=70 time=30
note_on channel=0 note=72 velocity=0 time=5
note_on channel=0 note=74 velocity=0 time=24
note_on channel=0 note=72 velocity=77 time=1
note_on channel=0 note=72 velocity=0 time=140
note_on channel=0 note=67 velocity=71 time=10
note_on channel=0 note=67 velocity=0 time=29
note_on channel=0 note=66 velocity=74 time=1
note_on channel=0 note=67 velocity=71 time=30
note_on channel=0 note=66 velocity=0 time=6
note_on channel=0 note=67 velocity=0 time=23
note_on channel=0 note=72 velocity=86 time=1
note_on channel=0 note=72 velocity=0 time=53
note_on channel=0 note=69 velocity=78 time=7
note_on channel=0 note=72 velocity=89 time=30
note_on channel=0 note=69 velocity=0 time=6
note_on channel=0 note=72 velocity=0 time=47
note_on channel=0 note=69 velocity=74 time=7
note_on channel=0 note=69 velocity=0 time=29
note_on channel=0 note=72 velocity=85 time=1
note_on channel=0 note=69 velocity=74 time=30
note_on channel=0 note=72 velocity=0 time=6
note_on channel=0 note=69 velocity=0 time=23
note_on channel=0 note=67 velocity=88 time=1
note_on channel=0 note=72 velocity=80 time=30
note_on channel=0 note=67 velocity=0 time=6
note_on channel=0 note=72 velocity=0 time=23
note_on channel=0 note=76 velocity=92 time=1
note_on channel=0 note=79 velocity=103 time=30
note_on channel=0 note=76 velocity=0 time=6
note_on channel=0 note=79 velocity=0 time=45
note_on channel=0 note=76 velocity=96 time=9
note_on channel=0 note=76 velocity=0 time=29
note_on channel=0 note=72 velocity=102 time=1
note_on channel=0 note=67 velocity=98 time=30
note_on channel=0 note=72 velocity=0 time=6
note_on channel=0 note=67 velocity=0 time=23
note_on channel=0 note=69 velocity=83 time=1
note_on channel=0 note=66 velocity=83 time=0
note_on channel=0 note=66 velocity=0 time=56
note_on channel=0 note=69 velocity=0 time=2
note_on channel=0 note=66 velocity=83 time=2
note_on channel=0 note=72 velocity=83 time=0
note_on channel=0 note=72 velocity=0 time=53
note_on channel=0 note=66 velocity=0 time=0
note_on channel=0 note=76 velocity=88 time=7
note_on channel=0 note=65 velocity=88 time=0
note_on channel=0 note=65 velocity=0 time=27
note_on channel=0 note=65 velocity=82 time=3
note_on channel=0 note=74 velocity=82 time=0
note_on channel=0 note=76 velocity=0 time=13
note_on channel=0 note=74 velocity=0 time=40
note_on channel=0 note=65 velocity=0 time=0
note_on channel=0 note=64 velocity=86 time=7
note_on channel=0 note=72 velocity=86 time=0
note_on channel=0 note=72 velocity=0 time=175
note_on channel=0 note=64 velocity=0 time=0
note_on channel=0 note=84 velocity=77 time=5
note_on channel=0 note=76 velocity=77 time=0
note_on channel=0 note=88 velocity=77 time=0
note_on channel=0 note=88 velocity=0 time=29
note_on channel=0 note=76 velocity=0 time=0
note_on channel=0 note=84 velocity=0 time=0
note_on channel=0 note=86 velocity=86 time=1
note_on channel=0 note=77 velocity=86 time=0
note_on channel=0 note=89 velocity=86 time=0
note_on channel=0 note=87 velocity=83 time=30
note_on channel=0 note=78 velocity=83 time=0
note_on channel=0 note=90 velocity=83 time=0
note_on channel=0 note=89 velocity=0 time=6
note_on channel=0 note=86 velocity=0 time=0
note_on channel=0 note=77 velocity=0 time=0
note_on channel=0 note=87 velocity=0 time=23
note_on channel=0 note=78 velocity=0 time=0
note_on channel=0 note=90 velocity=0 time=0
note_on channel=0 note=91 velocity=91 time=1
note_on channel=0 note=88 velocity=91 time=0
note_on channel=0 note=79 velocity=91 time=0
note_on channel=0 note=79 velocity=0 time=55
note_on channel=0 note=88 velocity=0 time=0
note_on channel=0 note=91 velocity=0 time=0
note_on channel=0 note=81 velocity=86 time=5
note_on channel=0 note=88 velocity=86 time=0
note_on channel=0 note=93 velocity=86 time=0
note_on channel=0 note=88 velocity=0 time=27
note_on channel=0 note=79 velocity=91 time=3
note_on channel=0 note=91 velocity=91 time=0
note_on channel=0 note=88 velocity=91 time=0
note_on channel=0 note=93 velocity=0 time=5
note_on channel=0 note=81 velocity=0 time=0
note_on channel=0 note=91 velocity=0 time=50
note_on channel=0 note=79 velocity=0 time=0
note_on channel=0 note=88 velocity=0 time=0
note_on channel=0 note=76 velocity=70 time=5
note_on channel=0 note=88 velocity=70 time=0
note_on channel=0 note=84 velocity=70 time=0
note_on channel=0 note=84 velocity=0 time=29
note_on channel=0 note=88 velocity=0 time=0
note_on channel=0 note=76 velocity=0 time=0
note_on channel=0 note=77 velocity=74 time=1
note_on channel=0 note=89 velocity=74 time=0
note_on channel=0 note=86 velocity=74 time=0
note_on channel=0 note=78 velocity=73 time=30
note_on channel=0 note=90 velocity=73 time=0
note_on channel=0 note=87 velocity=73 time=0
note_on channel=0 note=86 velocity=0 time=6
note_on channel=0 note=77 velocity=0 time=0
note_on channel=0 note=89 velocity=0 time=0
note_on channel=0 note=78 velocity=0 time=23
note_on channel=0 note=90 velocity=0 time=0
note_on channel=0 note=87 velocity=0 time=0
note_on channel=0 note=91 velocity=78 time=1
note_on channel=0 note=88 velocity=78 time=0
note_on channel=0 note=79 velocity=78 time=0
note_on channel=0 note=79 velocity=0 time=51
note_on channel=0 note=88 velocity=0 time=0
note_on channel=0 note=91 velocity=0 time=0
note_on channel=0 note=81 velocity=86 time=9
note_on channel=0 note=93 velocity=86 time=0
note_on channel=0 note=88 velocity=86 time=0
note_on channel=0 note=88 velocity=0 time=29
note_on channel=0 note=79 velocity=77 time=1
note_on channel=0 note=88 velocity=77 time=0
note_on channel=0 note=91 velocity=77 time=0
note_on channel=0 note=93 velocity=0 time=6
note_on channel=0 note=81 velocity=0 time=0
note_on channel=0 note=88 velocity=0 time=49
note_on channel=0 note=79 velocity=0 time=0
note_on channel=0 note=91 velocity=0 time=0
note_on channel=0 note=88 velocity=77 time=5
note_on channel=0 note=88 velocity=0 time=29
note_on channel=0 note=84 velocity=81 time=1
note_on channel=0 note=79 velocity=74 time=30
note_on channel=0 note=84 velocity=0 time=6
note_on channel=0 note=79 velocity=0 time=23
note_on channel=0 note=81 velocity=88 time=1
note_on channel=0 note=83 velocity=77 time=30
note_on channel=0 note=81 velocity=0 time=6
note_on channel=0 note=83 velocity=0 time=23
note_on channel=0 note=84 velocity=84 time=1
note_on channel=0 note=86 velocity=80 time=30
note_on channel=0 note=84 velocity=0 time=6
note_on channel=0 note=86 velocity=0 time=23
note_on channel=0 note=88 velocity=93 time=1
note_on channel=0 note=86 velocity=84 time=30
note_on channel=0 note=88 velocity=0 time=6
note_on channel=0 note=86 velocity=0 time=23
note_on channel=0 note=84 velocity=86 time=1
note_on channel=0 note=86 velocity=83 time=30
note_on channel=0 note=84 velocity=0 time=6
note_on channel=0 note=86 velocity=0 time=23
note_on channel=0 note=79 velocity=97 time=1
note_on channel=0 note=79 velocity=0 time=29
note_on channel=0 note=88 velocity=80 time=1
note_on channel=0 note=88 velocity=0 time=29
note_on channel=0 note=89 velocity=86 time=1
note_on channel=0 note=91 velocity=80 time=30
note_on channel=0 note=89 velocity=0 time=6
note_on channel=0 note=91 velocity=0 time=23
note_on channel=0 note=93 velocity=93 time=1
note_on channel=0 note=91 velocity=84 time=30
note_on channel=0 note=93 velocity=0 time=6
note_on channel=0 note=91 velocity=0 time=23
note_on channel=0 note=88 velocity=86 time=1
note_on channel=0 note=89 velocity=93 time=30
note_on channel=0 note=88 velocity=0 time=6
note_on channel=0 note=89 velocity=0 time=23
note_on channel=0 note=91 velocity=91 time=1
note_on channel=0 note=88 velocity=91 time=0
note_on channel=0 note=79 velocity=91 time=0
note_on channel=0 note=79 velocity=0 time=52
note_on channel=0 note=88 velocity=0 time=0
note_on channel=0 note=91 velocity=0 time=0
note_on channel=0 note=81 velocity=77 time=8
note_on channel=0 note=88 velocity=77 time=0
note_on channel=0 note=93 velocity=77 time=0
note_on channel=0 note=88 velocity=0 time=25
note_on channel=0 note=79 velocity=86 time=5
note_on channel=0 note=91 velocity=86 time=0
note_on channel=0 note=88 velocity=86 time=0
note_on channel=0 note=93 velocity=0 time=6
note_on channel=0 note=81 velocity=0 time=0
note_on channel=0 note=91 velocity=0 time=46
note_on channel=0 note=79 velocity=0 time=0
note_on channel=0 note=88 velocity=0 time=0
note_on channel=0 note=76 velocity=70 time=8
note_on channel=0 note=88 velocity=70 time=0
note_on channel=0 note=84 velocity=70 time=0
note_on channel=0 note=84 velocity=0 time=29
note_on channel=0 note=88 velocity=0 time=0
note_on channel=0 note=76 velocity=0 time=0
note_on channel=0 note=77 velocity=77 time=1
note_on channel=0 note=89 velocity=77 time=0
note_on channel=0 note=86 velocity=77 time=0
note_on channel=0 note=78 velocity=73 time=30
note_on channel=0 note=90 velocity=73 time=0
note_on channel=0 note=87 velocity=73 time=0
note_on channel=0 note=86 velocity=0 time=6
note_on channel=0 note=77 velocity=0 time=0
note_on channel=0 note=89 velocity=0 time=0
note_on channel=0 note=78 velocity=0 time=23
note_on channel=0 note=90 velocity=0 time=0
note_on channel=0 note=87 velocity=0 time=0
note_on channel=0 note=79 velocity=82 time=1
note_on channel=0 note=91 velocity=82 time=0
note_on channel=0 note=88 velocity=82 time=0
note_on channel=0 note=88 velocity=0 time=52
note_on channel=0 note=91 velocity=0 time=0
note_on channel=0 note=79 velocity=0 time=0
note_on channel=0 note=81 velocity=88 time=8
note_on channel=0 note=88 velocity=88 time=0
note_on channel=0 note=93 velocity=88 time=0
note_on channel=0 note=88 velocity=0 time=25
note_on channel=0 note=79 velocity=76 time=5
note_on channel=0 note=91 velocity=76 time=0
note_on channel=0 note=88 velocity=76 time=0
note_on channel=0 note=93 velocity=0 time=6
note_on channel=0 note=81 velocity=0 time=0
note_on channel=0 note=91 velocity=0 time=46
note_on channel=0 note=79 velocity=0 time=0
note_on channel=0 note=88 velocity=0 time=0
note_on channel=0 note=91 velocity=68 time=8
note_on channel=0 note=91 velocity=0 time=29
note_on channel=0 note=93 velocity=73 time=1
note_on channel=0 note=94 velocity=67 time=30
note_on channel=0 note=93 velocity=0 time=6
note_on channel=0 note=94 velocity=0 time=23
note_on channel=0 note=91 velocity=86 time=1
note_on channel=0 note=86 velocity=86 time=0
note_on channel=0 note=95 velocity=86 time=0
note_on channel=0 note=95 velocity=0 time=25
note_on channel=0 note=86 velocity=0 time=0
note_on channel=0 note=91 velocity=0 time=0
note_on channel=0 note=91 velocity=80 time=5
note_on channel=0 note=86 velocity=80 time=0
note_on channel=0 note=95 velocity=80 time=0
note_on channel=0 note=95 velocity=0 time=52
note_on channel=0 note=86 velocity=0 time=0
note_on channel=0 note=91 velocity=0 time=0
note_on channel=0 note=90 velocity=80 time=8
note_on channel=0 note=84 velocity=80 time=0
note_on channel=0 note=95 velocity=80 time=0
note_on channel=0 note=95 velocity=0 time=55
note_on channel=0 note=84 velocity=0 time=0
note_on channel=0 note=90 velocity=0 time=0
note_on channel=0 note=93 velocity=76 time=5
note_on channel=0 note=93 velocity=0 time=29
note_on channel=0 note=84 velocity=81 time=1
note_on channel=0 note=90 velocity=81 time=0
note_on channel=0 note=86 velocity=71 time=30
note_on channel=0 note=90 velocity=0 time=6
note_on channel=0 note=84 velocity=0 time=0
note_on channel=0 note=86 velocity=0 time=23
note_on channel=0 note=83 velocity=77 time=1
note_on channel=0 note=91 velocity=77 time=0
note_on channel=0 note=91 velocity=0 time=137
note_on channel=0 note=83 velocity=0 time=0
note_on channel=0 note=88 velocity=64 time=13
note_on channel=0 note=84 velocity=64 time=0
note_on channel=0 note=76 velocity=64 time=0
note_on channel=0 note=76 velocity=0 time=29
note_on channel=0 note=84 velocity=0 time=0
note_on channel=0 note=88 velocity=0 time=0
note_on channel=0 note=89 velocity=71 time=1
note_on channel=0 note=86 velocity=71 time=0
note_on channel=0 note=77 velocity=71 time=0
note_on channel=0 note=90 velocity=68 time=30
note_on channel=0 note=87 velocity=68 time=0
note_on channel=0 note=78 velocity=68 time=0
note_on channel=0 note=77 velocity=0 time=5
note_on channel=0 note=89 velocity=0 time=0
note_on channel=0 note=86 velocity=0 time=0
note_on channel=0 note=90 velocity=0 time=24
note_on channel=0 note=87 velocity=0 time=0
note_on channel=0 note=78 velocity=0 time=0
note_on channel=0 note=79 velocity=75 time=1
note_on channel=0 note=91 velocity=75 time=0
note_on channel=0 note=88 velocity=75 time=0
note_on channel=0 note=88 velocity=0 time=49
note_on channel=0 note=91 velocity=0 time=0
note_on channel=0 note=79 velocity=0 time=0
note_on channel=0 note=81 velocity=85 time=11
note_on channel=0 note=88 velocity=85 time=0
note_on channel=0 note=93 velocity=85 time=0
note_on channel=0 note=88 velocity=0 time=26
note_on channel=0 note=79 velocity=75 time=4
note_on channel=0 note=91 velocity=75 time=0
note_on channel=0 note=88 velocity=75 time=0
note_on channel=0 note=93 velocity=0 time=5
note_on channel=0 note=81 velocity=0 time=0
note_on channel=0 note=91 velocity=0 time=48
note_on channel=0 note=79 velocity=0 time=0
note_on channel=0 note=88 velocity=0 time=0
note_on channel=0 note=76 velocity=65 time=7
note_on channel=0 note=88 velocity=65 time=0
note_on channel=0 note=84 velocity=65 time=0
note_on channel=0 note=84 velocity=0 time=29
note_on channel=0 note=88 velocity=0 time=0
note_on channel=0 note=76 velocity=0 time=0
note_on channel=0 note=77 velocity=70 time=1
note_on channel=0 note=86 velocity=70 time=0
note_on channel=0 note=89 velocity=70 time=0
note_on channel=0 note=78 velocity=66 time=30
note_on channel=0 note=87 velocity=66 time=0
note_on channel=0 note=90 velocity=66 time=0
note_on channel=0 note=89 velocity=0 time=5
note_on channel=0 note=77 velocity=0 time=0
note_on channel=0 note=86 velocity=0 time=0
note_on channel=0 note=78 velocity=0 time=24
note_on channel=0 note=87 velocity=0 time=0
note_on channel=0 note=90 velocity=0 time=0
note_on channel=0 note=91 velocity=75 time=1
note_on channel=0 note=88 velocity=75 time=0
note_on channel=0 note=79 velocity=75 time=0
note_on channel=0 note=79 velocity=0 time=49
note_on channel=0 note=88 velocity=0 time=0
note_on channel=0 note=91 velocity=0 time=0
note_on channel=0 note=81 velocity=85 time=11
note_on channel=0 note=88 velocity=85 time=0
note_on channel=0 note=93 velocity=85 time=0
note_on channel=0 note=88 velocity=0 time=26
note_on channel=0 note=79 velocity=73 time=4
note_on channel=0 note=91 velocity=73 time=0
note_on channel=0 note=88 velocity=73 time=0
note_on channel=0 note=93 velocity=0 time=5
note_on channel=0 note=81 velocity=0 time=0
note_on channel=0 note=91 velocity=0 time=48
note_on channel=0 note=79 velocity=0 time=0
note_on channel=0 note=88 velocity=0 time=0
note_on channel=0 note=88 velocity=75 time=7
note_on channel=0 note=88 velocity=0 time=29
note_on channel=0 note=84 velocity=67 time=1
note_on channel=0 note=79 velocity=70 time=30
note_on channel=0 note=84 velocity=0 time=5
note_on channel=0 note=79 velocity=0 time=24
note_on channel=0 note=81 velocity=73 time=1
note_on channel=0 note=83 velocity=69 time=30
note_on channel=0 note=81 velocity=0 time=5
note_on channel=0 note=83 velocity=0 time=24
note_on channel=0 note=84 velocity=75 time=1
note_on channel=0 note=86 velocity=72 time=30
note_on channel=0 note=84 velocity=0 time=5
note_on channel=0 note=86 velocity=0 time=24
note_on channel=0 note=88 velocity=85 time=1
note_on channel=0 note=86 velocity=75 time=30
note_on channel=0 note=88 velocity=0 time=5
note_on channel=0 note=86 velocity=0 time=24
note_on channel=0 note=84 velocity=76 time=1
note_on channel=0 note=86 velocity=73 time=30
note_on channel=0 note=84 velocity=0 time=5
note_on channel=0 note=86 velocity=0 time=24
note_on channel=0 note=84 velocity=80 time=1
note_on channel=0 note=84 velocity=0 time=140
note_on channel=0 note=79 velocity=72 time=10
note_on channel=0 note=79 velocity=0 time=29
note_on channel=0 note=78 velocity=75 time=1
note_on channel=0 note=79 velocity=72 time=30
note_on channel=0 note=78 velocity=0 time=6
note_on channel=0 note=79 velocity=0 time=23
note_on channel=0 note=84 velocity=88 time=1
note_on channel=0 note=84 velocity=0 time=53
note_on channel=0 note=81 velocity=78 time=7
note_on channel=0 note=84 velocity=90 time=30
note_on channel=0 note=81 velocity=0 time=6
note_on channel=0 note=84 velocity=0 time=47
note_on channel=0 note=81 velocity=75 time=7
note_on channel=0 note=81 velocity=0 time=29
note_on channel=0 note=84 velocity=87 time=1
note_on channel=0 note=81 velocity=75 time=30
note_on channel=0 note=84 velocity=0 time=6
note_on channel=0 note=81 velocity=0 time=23
note_on channel=0 note=79 velocity=87 time=1
note_on channel=0 note=84 velocity=79 time=30
note_on channel=0 note=79 velocity=0 time=6
note_on channel=0 note=84 velocity=0 time=23
note_on channel=0 note=88 velocity=91 time=1
note_on channel=0 note=91 velocity=102 time=30
note_on channel=0 note=88 velocity=0 time=6
note_on channel=0 note=91 velocity=0 time=45
note_on channel=0 note=88 velocity=95 time=9
note_on channel=0 note=88 velocity=0 time=29
note_on channel=0 note=84 velocity=101 time=1
note_on channel=0 note=79 velocity=97 time=30
note_on channel=0 note=84 velocity=0 time=6
note_on channel=0 note=79 velocity=0 time=23
note_on channel=0 note=81 velocity=82 time=1
note_on channel=0 note=78 velocity=82 time=0
note_on channel=0 note=78 velocity=0 time=56
note_on channel=0 note=81 velocity=0 time=2
note_on channel=0 note=78 velocity=82 time=2
note_on channel=0 note=84 velocity=82 time=0
note_on channel=0 note=84 velocity=0 time=53
note_on channel=0 note=78 velocity=0 time=0
note_on channel=0 note=88 velocity=87 time=7
note_on channel=0 note=77 velocity=87 time=0
note_on channel=0 note=77 velocity=0 time=27
note_on channel=0 note=77 velocity=81 time=3
note_on channel=0 note=86 velocity=81 time=0
note_on channel=0 note=88 velocity=0 time=13
note_on channel=0 note=86 velocity=0 time=40
note_on channel=0 note=77 velocity=0 time=0
note_on channel=0 note=76 velocity=85 time=7
note_on channel=0 note=84 velocity=85 time=0
note_on channel=0 note=84 velocity=0 time=175
note_on channel=0 note=76 velocity=0 time=0
note_on channel=0 note=62 velocity=63 time=35
note_on channel=0 note=62 velocity=0 time=29
note_on channel=0 note=63 velocity=59 time=1
note_on channel=0 note=63 velocity=0 time=29
note_on channel=0 note=64 velocity=53 time=1
note_on channel=0 note=72 velocity=60 time=30
note_on channel=0 note=64 velocity=0 time=4
note_on channel=0 note=72 velocity=0 time=51
note_on channel=0 note=64 velocity=54 time=5
note_on channel=0 note=72 velocity=59 time=30
note_on channel=0 note=64 velocity=0 time=4
note_on channel=0 note=72 velocity=0 time=51
note_on channel=0 note=64 velocity=59 time=5
note_on channel=0 note=72 velocity=62 time=30
note_on channel=0 note=64 velocity=0 time=4
note_on channel=0 note=72 velocity=0 time=162
note_on channel=0 note=72 velocity=69 time=14
note_on channel=0 note=76 velocity=69 time=0
note_on channel=0 note=84 velocity=69 time=0
note_on channel=0 note=84 velocity=0 time=29
note_on channel=0 note=76 velocity=0 time=0
note_on channel=0 note=72 velocity=0 time=0
note_on channel=0 note=74 velocity=77 time=1
note_on channel=0 note=86 velocity=77 time=0
note_on channel=0 note=77 velocity=77 time=0
note_on channel=0 note=75 velocity=72 time=30
note_on channel=0 note=87 velocity=72 time=0
note_on channel=0 note=78 velocity=72 time=0
note_on channel=0 note=77 velocity=0 time=5
note_on channel=0 note=74 velocity=0 time=0
note_on channel=0 note=86 velocity=0 time=0
note_on channel=0 note=75 velocity=0 time=24
note_on channel=0 note=87 velocity=0 time=0
note_on channel=0 note=78 velocity=0 time=0
note_on channel=0 note=76 velocity=85 time=1
note_on channel=0 note=79 velocity=85 time=0
note_on channel=0 note=88 velocity=85 time=0
note_on channel=0 note=88 velocity=0 time=26
note_on channel=0 note=79 velocity=0 time=0
note_on channel=0 note=76 velocity=0 time=0
note_on channel=0 note=72 velocity=73 time=4
note_on channel=0 note=76 velocity=73 time=0
note_on channel=0 note=84 velocity=73 time=0
note_on channel=0 note=84 velocity=0 time=29
note_on channel=0 note=76 velocity=0 time=0
note_on channel=0 note=72 velocity=0 time=0
note_on channel=0 note=74 velocity=76 time=1
note_on channel=0 note=77 velocity=76 time=0
note_on channel=0 note=86 velocity=76 time=0
note_on channel=0 note=76 velocity=88 time=30
note_on channel=0 note=79 velocity=88 time=0
note_on channel=0 note=88 velocity=88 time=0
note_on channel=0 note=86 velocity=0 time=5
note_on channel=0 note=74 velocity=0 time=0
note_on channel=0 note=77 velocity=0 time=0
note_on channel=0 note=76 velocity=0 time=45
note_on channel=0 note=79 velocity=0 time=0
note_on channel=0 note=88 velocity=0 time=0
note_on channel=0 note=71 velocity=72 time=10
note_on channel=0 note=74 velocity=72 time=0
note_on channel=0 note=83 velocity=72 time=0
note_on channel=0 note=83 velocity=0 time=29
note_on channel=0 note=74 velocity=0 time=0
note_on channel=0 note=71 velocity=0 time=0
note_on channel=0 note=74 velocity=77 time=1
note_on channel=0 note=77 velocity=77 time=0
note_on channel=0 note=86 velocity=77 time=0
note_on channel=0 note=86 velocity=0 time=53
note_on channel=0 note=77 velocity=0 time=0
note_on channel=0 note=74 velocity=0 time=0
note_on channel=0 note=72 velocity=77 time=7
note_on channel=0 note=76 velocity=77 time=0
note_on channel=0 note=84 velocity=77 time=0
note_on channel=0 note=84 velocity=0 time=175
note_on channel=0 note=76 velocity=0 time=0
note_on channel=0 note=72 velocity=0 time=0
note_on channel=0 note=62 velocity=70 time=5
note_on channel=0 note=63 velocity=59 time=30
note_on channel=0 note=62 velocity=0 time=7
note_on channel=0 note=63 velocity=0 time=22
note_on channel=0 note=64 velocity=63 time=1
note_on channel=0 note=72 velocity=70 time=30
note_on channel=0 note=64 velocity=0 time=4
note_on channel=0 note=72 velocity=0 time=51
note_on channel=0 note=64 velocity=61 time=5
note_on channel=0 note=72 velocity=74 time=30
note_on channel=0 note=64 velocity=0 time=4
note_on channel=0 note=72 velocity=0 time=51
note_on channel=0 note=64 velocity=58 time=5
note_on channel=0 note=72 velocity=70 time=30
note_on channel=0 note=64 velocity=0 time=4
note_on channel=0 note=72 velocity=0 time=190
note_on channel=0 note=69 velocity=88 time=16
note_on channel=0 note=72 velocity=88 time=0
note_on channel=0 note=81 velocity=88 time=0
note_on channel=0 note=72 velocity=0 time=27
note_on channel=0 note=72 velocity=73 time=3
note_on channel=0 note=67 velocity=73 time=0
note_on channel=0 note=79 velocity=73 time=0
note_on channel=0 note=81 velocity=0 time=5
note_on channel=0 note=69 velocity=0 time=0
note_on channel=0 note=72 velocity=0 time=21
note_on channel=0 note=67 velocity=0 time=3
note_on channel=0 note=79 velocity=0 time=0
note_on channel=0 note=66 velocity=81 time=1
note_on channel=0 note=78 velocity=81 time=0
note_on channel=0 note=72 velocity=81 time=0
note_on channel=0 note=72 velocity=0 time=29
note_on channel=0 note=69 velocity=85 time=1
note_on channel=0 note=81 velocity=85 time=0
note_on channel=0 note=78 velocity=0 time=5
note_on channel=0 note=66 velocity=0 time=0
note_on channel=0 note=69 velocity=0 time=24
note_on channel=0 note=81 velocity=0 time=0
note_on channel=0 note=72 velocity=81 time=1
note_on channel=0 note=84 velocity=81 time=0
note_on channel=0 note=88 velocity=92 time=30
note_on channel=0 note=76 velocity=92 time=0
note_on channel=0 note=84 velocity=0 time=5
note_on channel=0 note=72 velocity=0 time=0
note_on channel=0 note=88 velocity=0 time=50
note_on channel=0 note=76 velocity=0 time=0
note_on channel=0 note=86 velocity=76 time=5
note_on channel=0 note=74 velocity=76 time=0
note_on channel=0 note=74 velocity=0 time=29
note_on channel=0 note=86 velocity=0 time=0
note_on channel=0 note=84 velocity=88 time=1
note_on channel=0 note=72 velocity=88 time=0
note_on channel=0 note=81 velocity=81 time=30
note_on channel=0 note=69 velocity=81 time=0
note_on channel=0 note=72 velocity=0 time=5
note_on channel=0 note=84 velocity=0 time=0
note_on channel=0 note=81 velocity=0 time=24
note_on channel=0 note=69 velocity=0 time=0
note_on channel=0 note=74 velocity=94 time=1
note_on channel=0 note=77 velocity=94 time=0
note_on channel=0 note=86 velocity=94 time=0
note_on channel=0 note=86 velocity=0 time=175
note_on channel=0 note=77 velocity=0 time=0
note_on channel=0 note=74 velocity=0 time=0
note_on channel=0 note=62 velocity=69 time=5
note_on channel=0 note=63 velocity=57 time=30
note_on channel=0 note=62 velocity=0 time=5
note_on channel=0 note=63 velocity=0 time=24
note_on channel=0 note=64 velocity=60 time=1
note_on channel=0 note=72 velocity=69 time=30
note_on channel=0 note=64 velocity=0 time=5
note_on channel=0 note=72 velocity=0 time=53
note_on channel=0 note=64 velocity=59 time=2
note_on channel=0 note=72 velocity=70 time=30
note_on channel=0 note=64 velocity=0 time=5
note_on channel=0 note=72 velocity=0 time=53
note_on channel=0 note=64 velocity=55 time=2
note_on channel=0 note=72 velocity=65 time=30
note_on channel=0 note=64 velocity=0 time=5
note_on channel=0 note=72 velocity=0 time=170
note_on channel=0 note=72 velocity=75 time=5
note_on channel=0 note=76 velocity=75 time=0
note_on channel=0 note=84 velocity=75 time=0
note_on channel=0 note=84 velocity=0 time=29
note_on channel=0 note=76 velocity=0 time=0
note_on channel=0 note=72 velocity=0 time=0
note_on channel=0 note=74 velocity=70 time=1
note_on channel=0 note=86 velocity=70 time=0
note_on channel=0 note=77 velocity=70 time=0
note_on channel=0 note=75 velocity=76 time=30
note_on channel=0 note=87 velocity=76 time=0
note_on channel=0 note=78 velocity=76 time=0
note_on channel=0 note=77 velocity=0 time=5
note_on channel=0 note=74 velocity=0 time=0
note_on channel=0 note=86 velocity=0 time=0
note_on channel=0 note=75 velocity=0 time=24
note_on channel=0 note=87 velocity=0 time=0
note_on channel=0 note=78 velocity=0 time=0
note_on channel=0 note=76 velocity=83 time=1
note_on channel=0 note=79 velocity=83 time=0
note_on channel=0 note=88 velocity=83 time=0
note_on channel=0 note=88 velocity=0 time=24
note_on channel=0 note=79 velocity=0 time=0
note_on channel=0 note=76 velocity=0 time=0
note_on channel=0 note=72 velocity=72 time=6
note_on channel=0 note=76 velocity=72 time=0
note_on channel=0 note=84 velocity=72 time=0
note_on channel=0 note=84 velocity=0 time=29
note_on channel=0 note=76 velocity=0 time=0
note_on channel=0 note=72 velocity=0 time=0
note_on channel=0 note=74 velocity=75 time=1
note_on channel=0 note=77 velocity=75 time=0
note_on channel=0 note=86 velocity=75 time=0
note_on channel=0 note=76 velocity=85 time=30
note_on channel=0 note=79 velocity=85 time=0
note_on channel=0 note=88 velocity=85 time=0
note_on channel=0 note=86 velocity=0 time=5
note_on channel=0 note=74 velocity=0 time=0
note_on channel=0 note=77 velocity=0 time=0
note_on channel=0 note=76 velocity=0 time=49
note_on channel=0 note=79 velocity=0 time=0
note_on channel=0 note=88 velocity=0 time=0
note_on channel=0 note=71 velocity=73 time=6
note_on channel=0 note=74 velocity=73 time=0
note_on channel=0 note=83 velocity=73 time=0
note_on channel=0 note=74 velocity=0 time=26
note_on channel=0 note=74 velocity=83 time=4
note_on channel=0 note=77 velocity=83 time=0
note_on channel=0 note=86 velocity=83 time=0
note_on channel=0 note=83 velocity=0 time=5
note_on channel=0 note=71 velocity=0 time=0
note_on channel=0 note=77 velocity=0 time=49
note_on channel=0 note=74 velocity=0 time=0
note_on channel=0 note=86 velocity=0 time=0
note_on channel=0 note=72 velocity=94 time=6
note_on channel=0 note=76 velocity=94 time=0
note_on channel=0 note=84 velocity=94 time=0
note_on channel=0 note=84 velocity=0 time=175
note_on channel=0 note=76 velocity=0 time=0
note_on channel=0 note=72 velocity=0 time=0
note_on channel=0 note=84 velocity=75 time=5
note_on channel=0 note=72 velocity=75 time=0
note_on channel=0 note=74 velocity=70 time=30
note_on channel=0 note=86 velocity=70 time=0
note_on channel=0 note=72 velocity=0 time=6
note_on channel=0 note=84 velocity=0 time=0
note_on channel=0 note=74 velocity=0 time=23
note_on channel=0 note=86 velocity=0 time=0
note_on channel=0 note=88 velocity=83 time=1
note_on channel=0 note=76 velocity=83 time=0
note_on channel=0 note=76 velocity=0 time=29
note_on channel=0 note=88 velocity=0 time=0
note_on channel=0 note=84 velocity=69 time=1
note_on channel=0 note=72 velocity=69 time=0
note_on channel=0 note=72 velocity=0 time=29
note_on channel=0 note=84 velocity=0 time=0
note_on channel=0 note=86 velocity=77 time=1
note_on channel=0 note=74 velocity=77 time=0
note_on channel=0 note=88 velocity=87 time=30
note_on channel=0 note=76 velocity=87 time=0
note_on channel=0 note=74 velocity=0 time=6
note_on channel=0 note=86 velocity=0 time=0
note_on channel=0 note=88 velocity=0 time=48
note_on channel=0 note=76 velocity=0 time=0
note_on channel=0 note=84 velocity=67 time=6
note_on channel=0 note=72 velocity=67 time=0
note_on channel=0 note=72 velocity=0 time=29
note_on channel=0 note=84 velocity=0 time=0
note_on channel=0 note=86 velocity=83 time=1
note_on channel=0 note=74 velocity=83 time=0
note_on channel=0 note=84 velocity=70 time=30
note_on channel=0 note=72 velocity=70 time=0
note_on channel=0 note=74 velocity=0 time=6
note_on channel=0 note=86 velocity=0 time=0
note_on channel=0 note=84 velocity=0 time=23
note_on channel=0 note=72 velocity=0 time=0
note_on channel=0 note=76 velocity=89 time=1
note_on channel=0 note=88 velocity=89 time=0
note_on channel=0 note=88 velocity=0 time=29
note_on channel=0 note=76 velocity=0 time=0
note_on channel=0 note=72 velocity=70 time=1
note_on channel=0 note=84 velocity=70 time=0
note_on channel=0 note=84 velocity=0 time=29
note_on channel=0 note=72 velocity=0 time=0
note_on channel=0 note=74 velocity=83 time=1
note_on channel=0 note=86 velocity=83 time=0
note_on channel=0 note=76 velocity=92 time=30
note_on channel=0 note=88 velocity=92 time=0
note_on channel=0 note=86 velocity=0 time=6
note_on channel=0 note=74 velocity=0 time=0
note_on channel=0 note=76 velocity=0 time=48
note_on channel=0 note=88 velocity=0 time=0
note_on channel=0 note=72 velocity=69 time=6
note_on channel=0 note=84 velocity=69 time=0
note_on channel=0 note=84 velocity=0 time=29
note_on channel=0 note=72 velocity=0 time=0
note_on channel=0 note=74 velocity=79 time=1
note_on channel=0 note=86 velocity=79 time=0
note_on channel=0 note=72 velocity=73 time=30
note_on channel=0 note=84 velocity=73 time=0
note_on channel=0 note=86 velocity=0 time=6
note_on channel=0 note=74 velocity=0 time=0
note_on channel=0 note=72 velocity=0 time=23
note_on channel=0 note=84 velocity=0 time=0
note_on channel=0 note=76 velocity=85 time=1
note_on channel=0 note=79 velocity=85 time=0
note_on channel=0 note=88 velocity=85 time=0
note_on channel=0 note=88 velocity=0 time=29
note_on channel=0 note=79 velocity=0 time=0
note_on channel=0 note=76 velocity=0 time=0
note_on channel=0 note=72 velocity=69 time=1
note_on channel=0 note=76 velocity=69 time=0
note_on channel=0 note=84 velocity=69 time=0
note_on channel=0 note=84 velocity=0 time=29
note_on channel=0 note=76 velocity=0 time=0
note_on channel=0 note=72 velocity=0 time=0
note_on channel=0 note=74 velocity=74 time=1
note_on channel=0 note=77 velocity=74 time=0
note_on channel=0 note=86 velocity=74 time=0
note_on channel=0 note=76 velocity=83 time=30
note_on channel=0 note=79 velocity=83 time=0
note_on channel=0 note=88 velocity=83 time=0
note_on channel=0 note=86 velocity=0 time=6
note_on channel=0 note=74 velocity=0 time=0
note_on channel=0 note=77 velocity=0 time=0
note_on channel=0 note=76 velocity=0 time=48
note_on channel=0 note=79 velocity=0 time=0
note_on channel=0 note=88 velocity=0 time=0
note_on channel=0 note=71 velocity=72 time=6
note_on channel=0 note=74 velocity=72 time=0
note_on channel=0 note=83 velocity=72 time=0
note_on channel=0 note=74 velocity=0 time=29
note_on channel=0 note=74 velocity=83 time=1
note_on channel=0 note=77 velocity=83 time=0
note_on channel=0 note=86 velocity=83 time=0
note_on channel=0 note=83 velocity=0 time=6
note_on channel=0 note=71 velocity=0 time=0
note_on channel=0 note=77 velocity=0 time=47
note_on channel=0 note=74 velocity=0 time=0
note_on channel=0 note=86 velocity=0 time=0
note_on channel=0 note=72 velocity=89 time=7
note_on channel=0 note=76 velocity=89 time=0
note_on channel=0 note=84 velocity=89 time=0
note_on channel=0 note=84 velocity=0 time=108
note_on channel=0 note=76 velocity=0 time=0
note_on channel=0 note=72 velocity=0 time=0
note_on channel=0 note=76 velocity=96 time=12
note_on channel=0 note=84 velocity=96 time=0
note_on channel=0 note=72 velocity=96 time=0
note_on channel=0 note=72 velocity=0 time=58
note_on channel=0 note=84 velocity=0 time=0
note_on channel=0 note=76 velocity=0 time=0
note_on channel=0 note=81 velocity=74 time=62
note_on channel=0 note=77 velocity=74 time=0
note_on channel=0 note=80 velocity=66 time=30
note_on channel=0 note=77 velocity=0 time=6
note_on channel=0 note=81 velocity=0 time=0
note_on channel=0 note=80 velocity=0 time=23
note_on channel=0 note=81 velocity=74 time=1
note_on channel=0 note=77 velocity=74 time=0
note_on channel=0 note=77 velocity=0 time=106
note_on channel=0 note=81 velocity=0 time=0
note_on channel=0 note=77 velocity=79 time=14
note_on channel=0 note=81 velocity=79 time=0
note_on channel=0 note=84 velocity=79 time=0
note_on channel=0 note=84 velocity=0 time=53
note_on channel=0 note=81 velocity=0 time=0
note_on channel=0 note=77 velocity=0 time=0
note_on channel=0 note=77 velocity=85 time=7
note_on channel=0 note=82 velocity=85 time=0
note_on channel=0 note=86 velocity=85 time=0
note_on channel=0 note=70 velocity=70 time=60
note_on channel=0 note=69 velocity=66 time=30
note_on channel=0 note=70 velocity=0 time=6
note_on channel=0 note=69 velocity=0 time=23
note_on channel=0 note=70 velocity=74 time=1
note_on channel=0 note=72 velocity=70 time=30
note_on channel=0 note=70 velocity=0 time=6
note_on channel=0 note=72 velocity=0 time=23
note_on channel=0 note=74 velocity=81 time=1
note_on channel=0 note=86 velocity=0 time=32
note_on channel=0 note=77 velocity=0 time=0
note_on channel=0 note=82 velocity=0 time=0
note_on channel=0 note=74 velocity=0 time=22
note_on channel=0 note=74 velocity=74 time=6
note_on channel=0 note=77 velocity=74 time=0
note_on channel=0 note=76 velocity=66 time=30
note_on channel=0 note=77 velocity=0 time=6
note_on channel=0 note=74 velocity=0 time=0
note_on channel=0 note=76 velocity=0 time=23
note_on channel=0 note=74 velocity=74 time=1
note_on channel=0 note=77 velocity=74 time=0
note_on channel=0 note=77 velocity=0 time=107
note_on channel=0 note=74 velocity=0 time=0
note_on channel=0 note=77 velocity=80 time=13
note_on channel=0 note=81 velocity=80 time=0
note_on channel=0 note=81 velocity=0 time=53
note_on channel=0 note=77 velocity=0 time=0
note_on channel=0 note=74 velocity=85 time=7
note_on channel=0 note=79 velocity=85 time=0
note_on channel=0 note=82 velocity=85 time=0
note_on channel=0 note=67 velocity=69 time=60
note_on channel=0 note=66 velocity=65 time=30
note_on channel=0 note=67 velocity=0 time=6
note_on channel=0 note=66 velocity=0 time=23
note_on channel=0 note=67 velocity=70 time=1
note_on channel=0 note=69 velocity=70 time=30
note_on channel=0 note=67 velocity=0 time=6
note_on channel=0 note=69 velocity=0 time=23
note_on channel=0 note=70 velocity=74 time=1
note_on channel=0 note=82 velocity=0 time=8
note_on channel=0 note=74 velocity=0 time=0
note_on channel=0 note=79 velocity=0 time=0
note_on channel=0 note=79 velocity=79 time=22
note_on channel=0 note=70 velocity=0 time=23
note_on channel=0 note=79 velocity=0 time=6
note_on channel=0 note=74 velocity=74 time=1
note_on channel=0 note=74 velocity=0 time=53
note_on channel=0 note=79 velocity=87 time=7
note_on channel=0 note=74 velocity=74 time=30
note_on channel=0 note=79 velocity=0 time=6
note_on channel=0 note=74 velocity=0 time=47
note_on channel=0 note=79 velocity=85 time=7
note_on channel=0 note=74 velocity=74 time=30
note_on channel=0 note=79 velocity=0 time=6
note_on channel=0 note=74 velocity=0 time=47
note_on channel=0 note=72 velocity=85 time=7
note_on channel=0 note=72 velocity=0 time=116
note_on channel=0 note=77 velocity=90 time=4
note_on channel=0 note=77 velocity=0 time=107
note_on channel=0 note=76 velocity=74 time=13
note_on channel=0 note=80 velocity=72 time=30
note_on channel=0 note=76 velocity=0 time=5
note_on channel=0 note=80 velocity=0 time=24
note_on channel=0 note=83 velocity=82 time=1
note_on channel=0 note=88 velocity=90 time=30
note_on channel=0 note=83 velocity=0 time=5
note_on channel=0 note=88 velocity=0 time=48
note_on channel=0 note=86 velocity=81 time=7
note_on channel=0 note=86 velocity=0 time=29
note_on channel=0 note=83 velocity=82 time=1
note_on channel=0 note=84 velocity=73 time=30
note_on channel=0 note=83 velocity=0 time=5
note_on channel=0 note=84 velocity=0 time=24
note_on channel=0 note=81 velocity=81 time=1
note_on channel=0 note=81 velocity=0 time=116
note_on channel=0 note=82 velocity=93 time=4
note_on channel=0 note=82 velocity=0 time=107
note_on channel=0 note=81 velocity=73 time=13
note_on channel=0 note=77 velocity=73 time=0
note_on channel=0 note=80 velocity=69 time=30
note_on channel=0 note=77 velocity=0 time=5
note_on channel=0 note=81 velocity=0 time=0
note_on channel=0 note=80 velocity=0 time=24
note_on channel=0 note=81 velocity=73 time=1
note_on channel=0 note=77 velocity=73 time=0
note_on channel=0 note=77 velocity=0 time=107
note_on channel=0 note=81 velocity=0 time=0
note_on channel=0 note=77 velocity=79 time=13
note_on channel=0 note=81 velocity=79 time=0
note_on channel=0 note=84 velocity=79 time=0
note_on channel=0 note=84 velocity=0 time=53
note_on channel=0 note=81 velocity=0 time=0
note_on channel=0 note=77 velocity=0 time=0
note_on channel=0 note=77 velocity=92 time=7
note_on channel=0 note=82 velocity=92 time=0
note_on channel=0 note=86 velocity=92 time=0
note_on channel=0 note=70 velocity=68 time=60
note_on channel=0 note=69 velocity=64 time=30
note_on channel=0 note=70 velocity=0 time=5
note_on channel=0 note=69 velocity=0 time=24
note_on channel=0 note=70 velocity=69 time=1
note_on channel=0 note=72 velocity=73 time=30
note_on channel=0 note=70 velocity=0 time=5
note_on channel=0 note=72 velocity=0 time=24
note_on channel=0 note=74 velocity=79 time=1
note_on channel=0 note=86 velocity=0 time=34
note_on channel=0 note=77 velocity=0 time=0
note_on channel=0 note=82 velocity=0 time=0
note_on channel=0 note=74 velocity=0 time=19
note_on channel=0 note=74 velocity=65 time=7
note_on channel=0 note=77 velocity=65 time=0
note_on channel=0 note=76 velocity=59 time=30
note_on channel=0 note=77 velocity=0 time=5
note_on channel=0 note=74 velocity=0 time=0
note_on channel=0 note=76 velocity=0 time=24
note_on channel=0 note=74 velocity=65 time=1
note_on channel=0 note=77 velocity=65 time=0
note_on channel=0 note=77 velocity=0 time=107
note_on channel=0 note=74 velocity=0 time=0
note_on channel=0 note=77 velocity=65 time=13
note_on channel=0 note=81 velocity=65 time=0
note_on channel=0 note=81 velocity=0 time=53
note_on channel=0 note=77 velocity=0 time=0
note_on channel=0 note=74 velocity=79 time=7
note_on channel=0 note=79 velocity=79 time=0
note_on channel=0 note=82 velocity=79 time=0
note_on channel=0 note=67 velocity=63 time=60
note_on channel=0 note=66 velocity=61 time=30
note_on channel=0 note=67 velocity=0 time=5
note_on channel=0 note=66 velocity=0 time=24
note_on channel=0 note=67 velocity=66 time=1
note_on channel=0 note=69 velocity=62 time=30
note_on channel=0 note=67 velocity=0 time=5
note_on channel=0 note=69 velocity=0 time=24
note_on channel=0 note=70 velocity=72 time=1
note_on channel=0 note=82 velocity=0 time=8
note_on channel=0 note=74 velocity=0 time=0
note_on channel=0 note=79 velocity=0 time=0
note_on channel=0 note=79 velocity=84 time=22
note_on channel=0 note=70 velocity=0 time=23
note_on channel=0 note=79 velocity=0 time=6
note_on channel=0 note=74 velocity=73 time=1
note_on channel=0 note=74 velocity=0 time=53
note_on channel=0 note=79 velocity=84 time=7
note_on channel=0 note=74 velocity=73 time=30
note_on channel=0 note=79 velocity=0 time=5
note_on channel=0 note=74 velocity=0 time=48
note_on channel=0 note=79 velocity=86 time=7
note_on channel=0 note=74 velocity=75 time=30
note_on channel=0 note=79 velocity=0 time=5
note_on channel=0 note=74 velocity=0 time=48
note_on channel=0 note=72 velocity=84 time=7
note_on channel=0 note=72 velocity=0 time=116
note_on channel=0 note=68 velocity=98 time=4
note_on channel=0 note=71 velocity=98 time=0
note_on channel=0 note=77 velocity=98 time=0
note_on channel=0 note=77 velocity=0 time=80
note_on channel=0 note=71 velocity=0 time=0
note_on channel=0 note=68 velocity=0 time=0
note_on channel=0 note=77 velocity=73 time=10
note_on channel=0 note=77 velocity=0 time=27
note_on channel=0 note=69 velocity=84 time=3
note_on channel=0 note=81 velocity=84 time=0
note_on channel=0 note=72 velocity=84 time=0
note_on channel=0 note=72 velocity=0 time=27
note_on channel=0 note=72 velocity=93 time=3
note_on channel=0 note=84 velocity=93 time=0
note_on channel=0 note=81 velocity=0 time=5
note_on channel=0 note=69 velocity=0 time=0
note_on channel=0 note=72 velocity=0 time=48
note_on channel=0 note=84 velocity=0 time=0
note_on channel=0 note=79 velocity=84 time=7
note_on channel=0 note=70 velocity=84 time=0
note_on channel=0 note=70 velocity=0 time=53
note_on channel=0 note=79 velocity=0 time=0
note_on channel=0 note=72 velocity=76 time=7
note_on channel=0 note=72 velocity=0 time=29
note_on channel=0 note=70 velocity=79 time=1
note_on channel=0 note=74 velocity=79 time=0
note_on channel=0 note=76 velocity=73 time=30
note_on channel=0 note=74 velocity=0 time=5
note_on channel=0 note=70 velocity=0 time=0
note_on channel=0 note=76 velocity=0 time=24
note_on channel=0 note=69 velocity=84 time=1
note_on channel=0 note=77 velocity=84 time=0
note_on channel=0 note=77 velocity=0 time=58
note_on channel=0 note=69 velocity=0 time=0
note_on channel=0 note=71 velocity=69 time=2
note_on channel=0 note=72 velocity=63 time=30
note_on channel=0 note=71 velocity=0 time=13
note_on channel=0 note=74 velocity=73 time=17
note_on channel=0 note=72 velocity=0 time=5
note_on channel=0 note=76 velocity=66 time=25
note_on channel=0 note=74 velocity=0 time=13
note_on channel=0 note=77 velocity=79 time=17
note_on channel=0 note=76 velocity=0 time=5
note_on channel=0 note=79 velocity=76 time=25
note_on channel=0 note=77 velocity=0 time=13
note_on channel=0 note=81 velocity=73 time=17
note_on channel=0 note=77 velocity=73 time=0
note_on channel=0 note=79 velocity=0 time=5
note_on channel=0 note=80 velocity=65 time=25
note_on channel=0 note=77 velocity=0 time=6
note_on channel=0 note=81 velocity=0 time=0
note_on channel=0 note=80 velocity=0 time=23
note_on channel=0 note=81 velocity=73 time=1
note_on channel=0 note=77 velocity=73 time=0
note_on channel=0 note=77 velocity=0 time=106
note_on channel=0 note=81 velocity=0 time=0
note_on channel=0 note=77 velocity=78 time=14
note_on channel=0 note=81 velocity=78 time=0
note_on channel=0 note=84 velocity=78 time=0
note_on channel=0 note=84 velocity=0 time=53
note_on channel=0 note=81 velocity=0 time=0
note_on channel=0 note=77 velocity=0 time=0
note_on channel=0 note=77 velocity=84 time=7
note_on channel=0 note=82 velocity=84 time=0
note_on channel=0 note=86 velocity=84 time=0
note_on channel=0 note=70 velocity=69 time=60
note_on channel=0 note=69 velocity=65 time=30
note_on channel=0 note=70 velocity=0 time=6
note_on channel=0 note=69 velocity=0 time=23
note_on channel=0 note=70 velocity=73 time=1
note_on channel=0 note=72 velocity=69 time=30
note_on channel=0 note=70 velocity=0 time=6
note_on channel=0 note=72 velocity=0 time=23
note_on channel=0 note=74 velocity=80 time=1
note_on channel=0 note=86 velocity=0 time=32
note_on channel=0 note=77 velocity=0 time=0
note_on channel=0 note=82 velocity=0 time=0
note_on channel=0 note=74 velocity=0 time=22
note_on channel=0 note=74 velocity=73 time=6
note_on channel=0 note=77 velocity=73 time=0
note_on channel=0 note=76 velocity=65 time=30
note_on channel=0 note=77 velocity=0 time=6
note_on channel=0 note=74 velocity=0 time=0
note_on channel=0 note=76 velocity=0 time=23
note_on channel=0 note=74 velocity=73 time=1
note_on channel=0 note=77 velocity=73 time=0
note_on channel=0 note=77 velocity=0 time=107
note_on channel=0 note=74 velocity=0 time=0
note_on channel=0 note=77 velocity=79 time=13
note_on channel=0 note=81 velocity=79 time=0
note_on channel=0 note=81 velocity=0 time=53
note_on channel=0 note=77 velocity=0 time=0
note_on channel=0 note=74 velocity=84 time=7
note_on channel=0 note=79 velocity=84 time=0
note_on channel=0 note=82 velocity=84 time=0
note_on channel=0 note=67 velocity=68 time=60
note_on channel=0 note=66 velocity=64 time=30
note_on channel=0 note=67 velocity=0 time=6
note_on channel=0 note=66 velocity=0 time=23
note_on channel=0 note=67 velocity=69 time=1
note_on channel=0 note=69 velocity=69 time=30
note_on channel=0 note=67 velocity=0 time=6
note_on channel=0 note=69 velocity=0 time=23
note_on channel=0 note=70 velocity=73 time=1
note_on channel=0 note=82 velocity=0 time=8
note_on channel=0 note=74 velocity=0 time=0
note_on channel=0 note=79 velocity=0 time=0
note_on channel=0 note=79 velocity=78 time=22
note_on channel=0 note=70 velocity=0 time=23
note_on channel=0 note=79 velocity=0 time=6
note_on channel=0 note=74 velocity=73 time=1
note_on channel=0 note=74 velocity=0 time=53
note_on channel=0 note=79 velocity=86 time=7
note_on channel=0 note=74 velocity=73 time=30
note_on channel=0 note=79 velocity=0 time=6
note_on channel=0 note=74 velocity=0 time=47
note_on channel=0 note=79 velocity=84 time=7
note_on channel=0 note=74 velocity=73 time=30
note_on channel=0 note=79 velocity=0 time=6
note_on channel=0 note=74 velocity=0 time=47
note_on channel=0 note=72 velocity=84 time=7
note_on channel=0 note=72 velocity=0 time=116
note_on channel=0 note=77 velocity=89 time=4
note_on channel=0 note=77 velocity=0 time=107
note_on channel=0 note=76 velocity=73 time=13
note_on channel=0 note=80 velocity=71 time=30
note_on channel=0 note=76 velocity=0 time=5
note_on channel=0 note=80 velocity=0 time=24
note_on channel=0 note=83 velocity=81 time=1
note_on channel=0 note=88 velocity=89 time=30
note_on channel=0 note=83 velocity=0 time=5
note_on channel=0 note=88 velocity=0 time=48
note_on channel=0 note=86 velocity=80 time=7
note_on channel=0 note=86 velocity=0 time=29
note_on channel=0 note=83 velocity=82 time=1
note_on channel=0 note=84 velocity=73 time=30
note_on channel=0 note=83 velocity=0 time=5
note_on channel=0 note=84 velocity=0 time=24
note_on channel=0 note=81 velocity=81 time=1
note_on channel=0 note=81 velocity=0 time=116
note_on channel=0 note=82 velocity=93 time=4
note_on channel=0 note=82 velocity=0 time=107
note_on channel=0 note=81 velocity=73 time=13
note_on channel=0 note=77 velocity=73 time=0
note_on channel=0 note=80 velocity=69 time=30
note_on channel=0 note=77 velocity=0 time=5
note_on channel=0 note=81 velocity=0 time=0
note_on channel=0 note=80 velocity=0 time=24
note_on channel=0 note=81 velocity=73 time=1
note_on channel=0 note=77 velocity=73 time=0
note_on channel=0 note=77 velocity=0 time=107
note_on channel=0 note=81 velocity=0 time=0
note_on channel=0 note=77 velocity=79 time=13
note_on channel=0 note=81 velocity=79 time=0
note_on channel=0 note=84 velocity=79 time=0
note_on channel=0 note=84 velocity=0 time=53
note_on channel=0 note=81 velocity=0 time=0
note_on channel=0 note=77 velocity=0 time=0
note_on channel=0 note=77 velocity=92 time=7
note_on channel=0 note=82 velocity=92 time=0
note_on channel=0 note=86 velocity=92 time=0
note_on channel=0 note=70 velocity=68 time=60
note_on channel=0 note=69 velocity=64 time=30
note_on channel=0 note=70 velocity=0 time=5
note_on channel=0 note=69 velocity=0 time=24
note_on channel=0 note=70 velocity=69 time=1
note_on channel=0 note=72 velocity=73 time=30
note_on channel=0 note=70 velocity=0 time=5
note_on channel=0 note=72 velocity=0 time=24
note_on channel=0 note=74 velocity=79 time=1
note_on channel=0 note=86 velocity=0 time=34
note_on channel=0 note=77 velocity=0 time=0
note_on channel=0 note=82 velocity=0 time=0
note_on channel=0 note=74 velocity=0 time=19
note_on channel=0 note=74 velocity=65 time=7
note_on channel=0 note=77 velocity=65 time=0
note_on channel=0 note=76 velocity=59 time=30
note_on channel=0 note=77 velocity=0 time=5
note_on channel=0 note=74 velocity=0 time=0
note_on channel=0 note=76 velocity=0 time=24
note_on channel=0 note=74 velocity=65 time=1
note_on channel=0 note=77 velocity=65 time=0
note_on channel=0 note=77 velocity=0 time=107
note_on channel=0 note=74 velocity=0 time=0
note_on channel=0 note=77 velocity=65 time=13
note_on channel=0 note=81 velocity=65 time=0
note_on channel=0 note=81 velocity=0 time=53
note_on channel=0 note=77 velocity=0 time=0
note_on channel=0 note=74 velocity=79 time=7
note_on channel=0 note=79 velocity=79 time=0
note_on channel=0 note=82 velocity=79 time=0
note_on channel=0 note=67 velocity=63 time=60
note_on channel=0 note=66 velocity=61 time=30
note_on channel=0 note=67 velocity=0 time=5
note_on channel=0 note=66 velocity=0 time=24
note_on channel=0 note=67 velocity=66 time=1
note_on channel=0 note=69 velocity=62 time=30
note_on channel=0 note=67 velocity=0 time=5
note_on channel=0 note=69 velocity=0 time=24
note_on channel=0 note=70 velocity=72 time=1
note_on channel=0 note=82 velocity=0 time=8
note_on channel=0 note=74 velocity=0 time=0
note_on channel=0 note=79 velocity=0 time=0
note_on channel=0 note=79 velocity=84 time=22
note_on channel=0 note=70 velocity=0 time=23
note_on channel=0 note=79 velocity=0 time=6
note_on channel=0 note=74 velocity=73 time=1
note_on channel=0 note=74 velocity=0 time=53
note_on channel=0 note=79 velocity=84 time=7
note_on channel=0 note=74 velocity=73 time=30
note_on channel=0 note=79 velocity=0 time=5
note_on channel=0 note=74 velocity=0 time=48
note_on channel=0 note=79 velocity=86 time=7
note_on channel=0 note=74 velocity=75 time=30
note_on channel=0 note=79 velocity=0 time=5
note_on channel=0 note=74 velocity=0 time=48
note_on channel=0 note=72 velocity=84 time=7
note_on channel=0 note=72 velocity=0 time=116
note_on channel=0 note=68 velocity=98 time=4
note_on channel=0 note=71 velocity=98 time=0
note_on channel=0 note=77 velocity=98 time=0
note_on channel=0 note=77 velocity=0 time=80
note_on channel=0 note=71 velocity=0 time=0
note_on channel=0 note=68 velocity=0 time=0
note_on channel=0 note=77 velocity=72 time=10
note_on channel=0 note=77 velocity=0 time=27
note_on channel=0 note=69 velocity=82 time=3
note_on channel=0 note=81 velocity=82 time=0
note_on channel=0 note=72 velocity=82 time=0
note_on channel=0 note=72 velocity=0 time=27
note_on channel=0 note=72 velocity=92 time=3
note_on channel=0 note=84 velocity=92 time=0
note_on channel=0 note=81 velocity=0 time=5
note_on channel=0 note=69 velocity=0 time=0
note_on channel=0 note=72 velocity=0 time=48
note_on channel=0 note=84 velocity=0 time=0
note_on channel=0 note=79 velocity=82 time=7
note_on channel=0 note=70 velocity=82 time=0
note_on channel=0 note=70 velocity=0 time=53
note_on channel=0 note=79 velocity=0 time=0
note_on channel=0 note=72 velocity=75 time=7
note_on channel=0 note=72 velocity=0 time=29
note_on channel=0 note=70 velocity=78 time=1
note_on channel=0 note=74 velocity=78 time=0
note_on channel=0 note=76 velocity=72 time=30
note_on channel=0 note=74 velocity=0 time=5
note_on channel=0 note=70 velocity=0 time=0
note_on channel=0 note=76 velocity=0 time=24
note_on channel=0 note=69 velocity=82 time=1
note_on channel=0 note=77 velocity=82 time=0
note_on channel=0 note=77 velocity=0 time=58
note_on channel=0 note=69 velocity=0 time=0
note_on channel=0 note=77 velocity=96 time=62
note_on channel=0 note=81 velocity=96 time=0
note_on channel=0 note=84 velocity=96 time=0
note_on channel=0 note=89 velocity=96 time=0
note_on channel=0 note=89 velocity=0 time=58
note_on channel=0 note=77 velocity=0 time=0
note_on channel=0 note=81 velocity=0 time=0
note_on channel=0 note=84 velocity=0 time=0
note_on channel=0 note=72 velocity=81 time=62
note_on channel=0 note=72 velocity=0 time=51
note_on channel=0 note=69 velocity=72 time=9
note_on channel=0 note=72 velocity=91 time=30
note_on channel=0 note=69 velocity=0 time=11
note_on channel=0 note=72 velocity=0 time=42
note_on channel=0 note=69 velocity=82 time=7
note_on channel=0 note=72 velocity=91 time=30
note_on channel=0 note=69 velocity=0 time=7
note_on channel=0 note=69 velocity=79 time=23
note_on channel=0 note=72 velocity=0 time=11
note_on channel=0 note=69 velocity=0 time=18
note_on channel=0 note=67 velocity=91 time=1
note_on channel=0 note=72 velocity=81 time=30
note_on channel=0 note=67 velocity=0 time=5
note_on channel=0 note=72 velocity=0 time=24
note_on channel=0 note=76 velocity=88 time=1
note_on channel=0 note=79 velocity=98 time=30
note_on channel=0 note=76 velocity=0 time=5
note_on channel=0 note=79 velocity=0 time=48
note_on channel=0 note=76 velocity=88 time=7
note_on channel=0 note=76 velocity=0 time=29
note_on channel=0 note=72 velocity=94 time=1
note_on channel=0 note=67 velocity=81 time=30
note_on channel=0 note=72 velocity=0 time=5
note_on channel=0 note=67 velocity=0 time=24
note_on channel=0 note=66 velocity=92 time=1
note_on channel=0 note=69 velocity=92 time=0
note_on channel=0 note=66 velocity=0 time=53
note_on channel=0 note=69 velocity=0 time=5
note_on channel=0 note=66 velocity=89 time=2
note_on channel=0 note=72 velocity=89 time=0
note_on channel=0 note=72 velocity=0 time=53
note_on channel=0 note=66 velocity=0 time=0
note_on channel=0 note=76 velocity=98 time=7
note_on channel=0 note=65 velocity=98 time=0
note_on channel=0 note=65 velocity=0 time=25
note_on channel=0 note=65 velocity=93 time=5
note_on channel=0 note=74 velocity=93 time=0
note_on channel=0 note=76 velocity=0 time=5
note_on channel=0 note=74 velocity=0 time=48
note_on channel=0 note=65 velocity=0 time=0
note_on channel=0 note=72 velocity=92 time=7
note_on channel=0 note=64 velocity=92 time=0
note_on channel=0 note=64 velocity=0 time=133
note_on channel=0 note=72 velocity=0 time=0
note_on channel=0 note=72 velocity=115 time=17
note_on channel=0 note=76 velocity=115 time=0
note_on channel=0 note=79 velocity=115 time=0
note_on channel=0 note=84 velocity=115 time=0
note_on channel=0 note=84 velocity=0 time=58
note_on channel=0 note=72 velocity=0 time=0
note_on channel=0 note=76 velocity=0 time=0
note_on channel=0 note=79 velocity=0 time=0
note_on channel=0 note=62 velocity=82 time=62
note_on channel=0 note=65 velocity=82 time=0
note_on channel=0 note=65 velocity=0 time=54
note_on channel=0 note=62 velocity=0 time=0
note_on channel=0 note=64 velocity=75 time=6
note_on channel=0 note=61 velocity=75 time=0
note_on channel=0 note=62 velocity=86 time=30
note_on channel=0 note=65 velocity=86 time=0
note_on channel=0 note=61 velocity=0 time=9
note_on channel=0 note=64 velocity=0 time=0
note_on channel=0 note=62 velocity=0 time=45
note_on channel=0 note=65 velocity=0 time=0
note_on channel=0 note=64 velocity=72 time=6
note_on channel=0 note=61 velocity=72 time=0
note_on channel=0 note=62 velocity=80 time=30
note_on channel=0 note=65 velocity=80 time=0
note_on channel=0 note=61 velocity=0 time=9
note_on channel=0 note=64 velocity=0 time=0
note_on channel=0 note=62 velocity=0 time=49
note_on channel=0 note=65 velocity=0 time=0
note_on channel=0 note=69 velocity=76 time=32
note_on channel=0 note=69 velocity=0 time=29
note_on channel=0 note=65 velocity=92 time=1
note_on channel=0 note=74 velocity=92 time=0
note_on channel=0 note=69 velocity=75 time=30
note_on channel=0 note=74 velocity=0 time=9
note_on channel=0 note=65 velocity=0 time=0
note_on channel=0 note=69 velocity=0 time=20
note_on channel=0 note=72 velocity=79 time=1
note_on channel=0 note=74 velocity=90 time=30
note_on channel=0 note=72 velocity=0 time=9
note_on channel=0 note=74 velocity=0 time=20
note_on channel=0 note=72 velocity=81 time=1
note_on channel=0 note=69 velocity=78 time=30
note_on channel=0 note=72 velocity=0 time=9
note_on channel=0 note=69 velocity=0 time=20
note_on channel=0 note=64 velocity=85 time=1
note_on channel=0 note=67 velocity=85 time=0
note_on channel=0 note=67 velocity=0 time=54
note_on channel=0 note=64 velocity=0 time=0
note_on channel=0 note=66 velocity=79 time=6
note_on channel=0 note=63 velocity=79 time=0
note_on channel=0 note=64 velocity=92 time=30
note_on channel=0 note=67 velocity=92 time=0
note_on channel=0 note=63 velocity=0 time=9
note_on channel=0 note=66 velocity=0 time=0
note_on channel=0 note=64 velocity=0 time=45
note_on channel=0 note=67 velocity=0 time=0
note_on channel=0 note=66 velocity=79 time=6
note_on channel=0 note=63 velocity=79 time=0
note_on channel=0 note=64 velocity=86 time=30
note_on channel=0 note=67 velocity=86 time=0
note_on channel=0 note=63 velocity=0 time=9
note_on channel=0 note=66 velocity=0 time=0
note_on channel=0 note=64 velocity=0 time=49
note_on channel=0 note=67 velocity=0 time=0
note_on channel=0 note=72 velocity=85 time=32
note_on channel=0 note=72 velocity=0 time=29
note_on channel=0 note=67 velocity=94 time=1
note_on channel=0 note=76 velocity=94 time=0
note_on channel=0 note=72 velocity=77 time=30
note_on channel=0 note=76 velocity=0 time=9
note_on channel=0 note=67 velocity=0 time=0
note_on channel=0 note=72 velocity=0 time=20
note_on channel=0 note=74 velocity=81 time=1
note_on channel=0 note=76 velocity=90 time=30
note_on channel=0 note=74 velocity=0 time=9
note_on channel=0 note=76 velocity=0 time=20
note_on channel=0 note=74 velocity=80 time=1
note_on channel=0 note=72 velocity=77 time=30
note_on channel=0 note=74 velocity=0 time=9
note_on channel=0 note=72 velocity=0 time=20
note_on channel=0 note=71 velocity=86 time=1
note_on channel=0 note=74 velocity=86 time=0
note_on channel=0 note=74 velocity=0 time=54
note_on channel=0 note=71 velocity=0 time=0
note_on channel=0 note=73 velocity=78 time=6
note_on channel=0 note=70 velocity=78 time=0
note_on channel=0 note=71 velocity=92 time=30
note_on channel=0 note=74 velocity=92 time=0
note_on channel=0 note=70 velocity=0 time=9
note_on channel=0 note=73 velocity=0 time=0
note_on channel=0 note=71 velocity=0 time=45
note_on channel=0 note=74 velocity=0 time=0
note_on channel=0 note=73 velocity=75 time=6
note_on channel=0 note=70 velocity=75 time=0
note_on channel=0 note=71 velocity=85 time=30
note_on channel=0 note=74 velocity=85 time=0
note_on channel=0 note=70 velocity=0 time=9
note_on channel=0 note=73 velocity=0 time=0
note_on channel=0 note=71 velocity=0 time=49
note_on channel=0 note=74 velocity=0 time=0
note_on channel=0 note=77 velocity=81 time=32
note_on channel=0 note=77 velocity=0 time=29
note_on channel=0 note=71 velocity=94 time=1
note_on channel=0 note=81 velocity=94 time=0
note_on channel=0 note=77 velocity=78 time=30
note_on channel=0 note=81 velocity=0 time=9
note_on channel=0 note=71 velocity=0 time=0
note_on channel=0 note=77 velocity=0 time=20
note_on channel=0 note=79 velocity=81 time=1
note_on channel=0 note=81 velocity=92 time=30
note_on channel=0 note=79 velocity=0 time=9
note_on channel=0 note=81 velocity=0 time=20
note_on channel=0 note=79 velocity=85 time=1
note_on channel=0 note=77 velocity=80 time=30
note_on channel=0 note=79 velocity=0 time=9
note_on channel=0 note=77 velocity=0 time=20
note_on channel=0 note=84 velocity=93 time=1
note_on channel=0 note=72 velocity=93 time=0
note_on channel=0 note=72 velocity=0 time=25
note_on channel=0 note=84 velocity=0 time=0
note_on channel=0 note=84 velocity=88 time=5
note_on channel=0 note=72 velocity=88 time=0
note_on channel=0 note=72 velocity=0 time=27
note_on channel=0 note=84 velocity=0 time=0
note_on channel=0 note=72 velocity=83 time=3
note_on channel=0 note=84 velocity=83 time=0
note_on channel=0 note=84 velocity=0 time=116
note_on channel=0 note=72 velocity=0 time=0
note_on channel=0 note=81 velocity=92 time=4
note_on channel=0 note=72 velocity=92 time=0
note_on channel=0 note=72 velocity=0 time=54
note_on channel=0 note=81 velocity=0 time=0
note_on channel=0 note=79 velocity=85 time=6
note_on channel=0 note=72 velocity=85 time=0
note_on channel=0 note=72 velocity=0 time=53
note_on channel=0 note=79 velocity=0 time=0
note_on channel=0 note=67 velocity=85 time=7
note_on channel=0 note=64 velocity=85 time=0
note_on channel=0 note=64 velocity=0 time=23
note_on channel=0 note=67 velocity=0 time=0
note_on channel=0 note=64 velocity=80 time=7
note_on channel=0 note=67 velocity=80 time=0
note_on channel=0 note=67 velocity=0 time=27
note_on channel=0 note=64 velocity=0 time=0
note_on channel=0 note=67 velocity=73 time=3
note_on channel=0 note=64 velocity=73 time=0
note_on channel=0 note=64 velocity=0 time=54
note_on channel=0 note=67 velocity=0 time=0
note_on channel=0 note=64 velocity=72 time=6
note_on channel=0 note=67 velocity=72 time=0
note_on channel=0 note=67 velocity=0 time=53
note_on channel=0 note=64 velocity=0 time=0
note_on channel=0 note=62 velocity=79 time=7
note_on channel=0 note=65 velocity=79 time=0
note_on channel=0 note=65 velocity=0 time=53
note_on channel=0 note=62 velocity=0 time=0
note_on channel=0 note=64 velocity=72 time=7
note_on channel=0 note=61 velocity=72 time=0
note_on channel=0 note=62 velocity=87 time=30
note_on channel=0 note=65 velocity=87 time=0
note_on channel=0 note=61 velocity=0 time=8
note_on channel=0 note=64 velocity=0 time=0
note_on channel=0 note=62 velocity=0 time=45
note_on channel=0 note=65 velocity=0 time=0
note_on channel=0 note=64 velocity=79 time=7
note_on channel=0 note=61 velocity=79 time=0
note_on channel=0 note=62 velocity=81 time=30
note_on channel=0 note=65 velocity=81 time=0
note_on channel=0 note=61 velocity=0 time=8
note_on channel=0 note=64 velocity=0 time=0
note_on channel=0 note=62 velocity=0 time=50
note_on channel=0 note=65 velocity=0 time=0
note_on channel=0 note=69 velocity=78 time=32
note_on channel=0 note=69 velocity=0 time=29
note_on channel=0 note=65 velocity=90 time=1
note_on channel=0 note=74 velocity=90 time=0
note_on channel=0 note=69 velocity=78 time=30
note_on channel=0 note=74 velocity=0 time=8
note_on channel=0 note=65 velocity=0 time=0
note_on channel=0 note=69 velocity=0 time=21
note_on channel=0 note=72 velocity=81 time=1
note_on channel=0 note=74 velocity=92 time=30
note_on channel=0 note=72 velocity=0 time=8
note_on channel=0 note=74 velocity=0 time=21
note_on channel=0 note=72 velocity=80 time=1
note_on channel=0 note=69 velocity=88 time=30
note_on channel=0 note=72 velocity=0 time=8
note_on channel=0 note=69 velocity=0 time=21
note_on channel=0 note=64 velocity=92 time=1
note_on channel=0 note=67 velocity=92 time=0
note_on channel=0 note=67 velocity=0 time=53
note_on channel=0 note=64 velocity=0 time=0
note_on channel=0 note=66 velocity=74 time=7
note_on channel=0 note=63 velocity=74 time=0
note_on channel=0 note=64 velocity=91 time=30
note_on channel=0 note=67 velocity=91 time=0
note_on channel=0 note=63 velocity=0 time=8
note_on channel=0 note=66 velocity=0 time=0
note_on channel=0 note=64 velocity=0 time=45
note_on channel=0 note=67 velocity=0 time=0
note_on channel=0 note=66 velocity=80 time=7
note_on channel=0 note=63 velocity=80 time=0
note_on channel=0 note=64 velocity=88 time=30
note_on channel=0 note=67 velocity=88 time=0
note_on channel=0 note=63 velocity=0 time=8
note_on channel=0 note=66 velocity=0 time=0
note_on channel=0 note=64 velocity=0 time=50
note_on channel=0 note=67 velocity=0 time=0
note_on channel=0 note=72 velocity=79 time=32
note_on channel=0 note=72 velocity=0 time=29
note_on channel=0 note=67 velocity=92 time=1
note_on channel=0 note=76 velocity=92 time=0
note_on channel=0 note=72 velocity=81 time=30
note_on channel=0 note=76 velocity=0 time=8
note_on channel=0 note=67 velocity=0 time=0
note_on channel=0 note=72 velocity=0 time=21
note_on channel=0 note=74 velocity=86 time=1
note_on channel=0 note=76 velocity=92 time=30
note_on channel=0 note=74 velocity=0 time=8
note_on channel=0 note=76 velocity=0 time=21
note_on channel=0 note=74 velocity=75 time=1
note_on channel=0 note=72 velocity=83 time=30
note_on channel=0 note=74 velocity=0 time=8
note_on channel=0 note=72 velocity=0 time=21
note_on channel=0 note=69 velocity=105 time=1
note_on channel=0 note=68 velocity=91 time=30
note_on channel=0 note=69 velocity=0 time=8
note_on channel=0 note=68 velocity=0 time=21
note_on channel=0 note=69 velocity=96 time=1
note_on channel=0 note=69 velocity=0 time=25
note_on channel=0 note=69 velocity=105 time=5
note_on channel=0 note=79 velocity=105 time=0
note_on channel=0 note=69 velocity=0 time=53
note_on channel=0 note=79 velocity=0 time=5
note_on channel=0 note=77 velocity=98 time=2
note_on channel=0 note=69 velocity=98 time=0
note_on channel=0 note=69 velocity=0 time=53
note_on channel=0 note=77 velocity=0 time=0
note_on channel=0 note=69 velocity=79 time=7
note_on channel=0 note=72 velocity=79 time=0
note_on channel=0 note=72 velocity=0 time=29
note_on channel=0 note=69 velocity=0 time=0
note_on channel=0 note=76 velocity=91 time=1
note_on channel=0 note=67 velocity=91 time=0
note_on channel=0 note=75 velocity=79 time=30
note_on channel=0 note=67 velocity=0 time=8
note_on channel=0 note=76 velocity=0 time=0
note_on channel=0 note=75 velocity=0 time=21
note_on channel=0 note=76 velocity=88 time=1
note_on channel=0 note=81 velocity=92 time=30
note_on channel=0 note=76 velocity=0 time=8
note_on channel=0 note=81 velocity=0 time=45
note_on channel=0 note=84 velocity=105 time=7
note_on channel=0 note=84 velocity=0 time=29
note_on channel=0 note=79 velocity=92 time=1
note_on channel=0 note=76 velocity=94 time=30
note_on channel=0 note=79 velocity=0 time=8
note_on channel=0 note=76 velocity=0 time=21
note_on channel=0 note=72 velocity=88 time=1
note_on channel=0 note=66 velocity=88 time=0
note_on channel=0 note=66 velocity=0 time=53
note_on channel=0 note=72 velocity=0 time=0
note_on channel=0 note=66 velocity=79 time=7
note_on channel=0 note=72 velocity=79 time=0
note_on channel=0 note=72 velocity=0 time=53
note_on channel=0 note=66 velocity=0 time=0
note_on channel=0 note=71 velocity=94 time=7
note_on channel=0 note=76 velocity=94 time=0
note_on channel=0 note=65 velocity=94 time=0
note_on channel=0 note=65 velocity=0 time=26
note_on channel=0 note=71 velocity=0 time=0
note_on channel=0 note=71 velocity=90 time=4
note_on channel=0 note=65 velocity=90 time=0
note_on channel=0 note=74 velocity=90 time=0
note_on channel=0 note=76 velocity=0 time=8
note_on channel=0 note=71 velocity=0 time=45
note_on channel=0 note=65 velocity=0 time=0
note_on channel=0 note=74 velocity=0 time=0
note_on channel=0 note=67 velocity=92 time=7
note_on channel=0 note=72 velocity=92 time=0
note_on channel=0 note=64 velocity=92 time=0
note_on channel=0 note=64 velocity=0 time=73
note_on channel=0 note=72 velocity=0 time=0
note_on channel=0 note=67 velocity=0 time=0
note_on channel=0 note=64 velocity=81 time=17
note_on channel=0 note=67 velocity=81 time=0
note_on channel=0 note=67 velocity=0 time=23
note_on channel=0 note=64 velocity=0 time=0
note_on channel=0 note=64 velocity=78 time=7
note_on channel=0 note=67 velocity=78 time=0
note_on channel=0 note=67 velocity=0 time=25
note_on channel=0 note=64 velocity=0 time=0
note_on channel=0 note=67 velocity=73 time=5
note_on channel=0 note=64 velocity=73 time=0
note_on channel=0 note=64 velocity=0 time=48
note_on channel=0 note=67 velocity=0 time=0
note_on channel=0 note=64 velocity=72 time=12
note_on channel=0 note=67 velocity=72 time=0
note_on channel=0 note=67 velocity=0 time=53
note_on channel=0 note=64 velocity=0 time=0
note_on channel=0 note=62 velocity=81 time=7
note_on channel=0 note=65 velocity=81 time=0
note_on channel=0 note=65 velocity=0 time=54
note_on channel=0 note=62 velocity=0 time=0
note_on channel=0 note=64 velocity=74 time=6
note_on channel=0 note=61 velocity=74 time=0
note_on channel=0 note=62 velocity=85 time=30
note_on channel=0 note=65 velocity=85 time=0
note_on channel=0 note=61 velocity=0 time=9
note_on channel=0 note=64 velocity=0 time=0
note_on channel=0 note=62 velocity=0 time=45
note_on channel=0 note=65 velocity=0 time=0
note_on channel=0 note=64 velocity=72 time=6
note_on channel=0 note=61 velocity=72 time=0
note_on channel=0 note=62 velocity=79 time=30
note_on channel=0 note=65 velocity=79 time=0
note_on channel=0 note=61 velocity=0 time=9
note_on channel=0 note=64 velocity=0 time=0
note_on channel=0 note=62 velocity=0 time=49
note_on channel=0 note=65 velocity=0 time=0
note_on channel=0 note=69 velocity=75 time=32
note_on channel=0 note=69 velocity=0 time=29
note_on channel=0 note=65 velocity=92 time=1
note_on channel=0 note=74 velocity=92 time=0
note_on channel=0 note=69 velocity=75 time=30
note_on channel=0 note=74 velocity=0 time=9
note_on channel=0 note=65 velocity=0 time=0
note_on channel=0 note=69 velocity=0 time=20
note_on channel=0 note=72 velocity=79 time=1
note_on channel=0 note=74 velocity=90 time=30
note_on channel=0 note=72 velocity=0 time=9
note_on channel=0 note=74 velocity=0 time=20
note_on channel=0 note=72 velocity=81 time=1
note_on channel=0 note=69 velocity=78 time=30
note_on channel=0 note=72 velocity=0 time=9
note_on channel=0 note=69 velocity=0 time=20
note_on channel=0 note=64 velocity=85 time=1
note_on channel=0 note=67 velocity=85 time=0
note_on channel=0 note=67 velocity=0 time=54
note_on channel=0 note=64 velocity=0 time=0
note_on channel=0 note=66 velocity=79 time=6
note_on channel=0 note=63 velocity=79 time=0
note_on channel=0 note=64 velocity=92 time=30
note_on channel=0 note=67 velocity=92 time=0
note_on channel=0 note=63 velocity=0 time=9
note_on channel=0 note=66 velocity=0 time=0
note_on channel=0 note=64 velocity=0 time=45
note_on channel=0 note=67 velocity=0 time=0
note_on channel=0 note=66 velocity=79 time=6
note_on channel=0 note=63 velocity=79 time=0
note_on channel=0 note=64 velocity=86 time=30
note_on channel=0 note=67 velocity=86 time=0
note_on channel=0 note=63 velocity=0 time=9
note_on channel=0 note=66 velocity=0 time=0
note_on channel=0 note=64 velocity=0 time=49
note_on channel=0 note=67 velocity=0 time=0
note_on channel=0 note=72 velocity=85 time=32
note_on channel=0 note=72 velocity=0 time=29
note_on channel=0 note=67 velocity=94 time=1
note_on channel=0 note=76 velocity=94 time=0
note_on channel=0 note=72 velocity=77 time=30
note_on channel=0 note=76 velocity=0 time=9
note_on channel=0 note=67 velocity=0 time=0
note_on channel=0 note=72 velocity=0 time=20
note_on channel=0 note=74 velocity=81 time=1
note_on channel=0 note=76 velocity=90 time=30
note_on channel=0 note=74 velocity=0 time=9
note_on channel=0 note=76 velocity=0 time=20
note_on channel=0 note=74 velocity=80 time=1
note_on channel=0 note=72 velocity=77 time=30
note_on channel=0 note=74 velocity=0 time=9
note_on channel=0 note=72 velocity=0 time=20
note_on channel=0 note=71 velocity=86 time=1
note_on channel=0 note=74 velocity=86 time=0
note_on channel=0 note=74 velocity=0 time=54
note_on channel=0 note=71 velocity=0 time=0
note_on channel=0 note=73 velocity=78 time=6
note_on channel=0 note=70 velocity=78 time=0
note_on channel=0 note=71 velocity=92 time=30
note_on channel=0 note=74 velocity=92 time=0
note_on channel=0 note=70 velocity=0 time=9
note_on channel=0 note=73 velocity=0 time=0
note_on channel=0 note=71 velocity=0 time=45
note_on channel=0 note=74 velocity=0 time=0
note_on channel=0 note=73 velocity=75 time=6
note_on channel=0 note=70 velocity=75 time=0
note_on channel=0 note=71 velocity=85 time=30
note_on channel=0 note=74 velocity=85 time=0
note_on channel=0 note=70 velocity=0 time=9
note_on channel=0 note=73 velocity=0 time=0
note_on channel=0 note=71 velocity=0 time=49
note_on channel=0 note=74 velocity=0 time=0
note_on channel=0 note=77 velocity=81 time=32
note_on channel=0 note=77 velocity=0 time=29
note_on channel=0 note=71 velocity=94 time=1
note_on channel=0 note=81 velocity=94 time=0
note_on channel=0 note=77 velocity=78 time=30
note_on channel=0 note=81 velocity=0 time=9
note_on channel=0 note=71 velocity=0 time=0
note_on channel=0 note=77 velocity=0 time=20
note_on channel=0 note=79 velocity=81 time=1
note_on channel=0 note=81 velocity=92 time=30
note_on channel=0 note=79 velocity=0 time=9
note_on channel=0 note=81 velocity=0 time=20
note_on channel=0 note=79 velocity=85 time=1
note_on channel=0 note=77 velocity=80 time=30
note_on channel=0 note=79 velocity=0 time=9
note_on channel=0 note=77 velocity=0 time=20
note_on channel=0 note=84 velocity=93 time=1
note_on channel=0 note=72 velocity=93 time=0
note_on channel=0 note=72 velocity=0 time=25
note_on channel=0 note=84 velocity=0 time=0
note_on channel=0 note=84 velocity=88 time=5
note_on channel=0 note=72 velocity=88 time=0
note_on channel=0 note=72 velocity=0 time=27
note_on channel=0 note=84 velocity=0 time=0
note_on channel=0 note=72 velocity=83 time=3
note_on channel=0 note=84 velocity=83 time=0
note_on channel=0 note=84 velocity=0 time=116
note_on channel=0 note=72 velocity=0 time=0
note_on channel=0 note=81 velocity=92 time=4
note_on channel=0 note=72 velocity=92 time=0
note_on channel=0 note=72 velocity=0 time=54
note_on channel=0 note=81 velocity=0 time=0
note_on channel=0 note=79 velocity=85 time=6
note_on channel=0 note=72 velocity=85 time=0
note_on channel=0 note=72 velocity=0 time=53
note_on channel=0 note=79 velocity=0 time=0
note_on channel=0 note=67 velocity=85 time=7
note_on channel=0 note=64 velocity=85 time=0
note_on channel=0 note=64 velocity=0 time=23
note_on channel=0 note=67 velocity=0 time=0
note_on channel=0 note=64 velocity=80 time=7
note_on channel=0 note=67 velocity=80 time=0
note_on channel=0 note=67 velocity=0 time=27
note_on channel=0 note=64 velocity=0 time=0
note_on channel=0 note=67 velocity=73 time=3
note_on channel=0 note=64 velocity=73 time=0
note_on channel=0 note=64 velocity=0 time=54
note_on channel=0 note=67 velocity=0 time=0
note_on channel=0 note=64 velocity=72 time=6
note_on channel=0 note=67 velocity=72 time=0
note_on channel=0 note=67 velocity=0 time=53
note_on channel=0 note=64 velocity=0 time=0
note_on channel=0 note=62 velocity=79 time=7
note_on channel=0 note=65 velocity=79 time=0
note_on channel=0 note=65 velocity=0 time=53
note_on channel=0 note=62 velocity=0 time=0
note_on channel=0 note=64 velocity=72 time=7
note_on channel=0 note=61 velocity=72 time=0
note_on channel=0 note=62 velocity=87 time=30
note_on channel=0 note=65 velocity=87 time=0
note_on channel=0 note=61 velocity=0 time=8
note_on channel=0 note=64 velocity=0 time=0
note_on channel=0 note=62 velocity=0 time=45
note_on channel=0 note=65 velocity=0 time=0
note_on channel=0 note=64 velocity=79 time=7
note_on channel=0 note=61 velocity=79 time=0
note_on channel=0 note=62 velocity=81 time=30
note_on channel=0 note=65 velocity=81 time=0
note_on channel=0 note=61 velocity=0 time=8
note_on channel=0 note=64 velocity=0 time=0
note_on channel=0 note=62 velocity=0 time=50
note_on channel=0 note=65 velocity=0 time=0
note_on channel=0 note=69 velocity=78 time=32
note_on channel=0 note=69 velocity=0 time=29
note_on channel=0 note=65 velocity=90 time=1
note_on channel=0 note=74 velocity=90 time=0
note_on channel=0 note=69 velocity=78 time=30
note_on channel=0 note=74 velocity=0 time=8
note_on channel=0 note=65 velocity=0 time=0
note_on channel=0 note=69 velocity=0 time=21
note_on channel=0 note=72 velocity=81 time=1
note_on channel=0 note=74 velocity=92 time=30
note_on channel=0 note=72 velocity=0 time=8
note_on channel=0 note=74 velocity=0 time=21
note_on channel=0 note=72 velocity=80 time=1
note_on channel=0 note=69 velocity=88 time=30
note_on channel=0 note=72 velocity=0 time=8
note_on channel=0 note=69 velocity=0 time=21
note_on channel=0 note=64 velocity=92 time=1
note_on channel=0 note=67 velocity=92 time=0
note_on channel=0 note=67 velocity=0 time=53
note_on channel=0 note=64 velocity=0 time=0
note_on channel=0 note=66 velocity=74 time=7
note_on channel=0 note=63 velocity=74 time=0
note_on channel=0 note=64 velocity=91 time=30
note_on channel=0 note=67 velocity=91 time=0
note_on channel=0 note=63 velocity=0 time=8
note_on channel=0 note=66 velocity=0 time=0
note_on channel=0 note=64 velocity=0 time=45
note_on channel=0 note=67 velocity=0 time=0
note_on channel=0 note=66 velocity=80 time=7
note_on channel=0 note=63 velocity=80 time=0
note_on channel=0 note=64 velocity=88 time=30
note_on channel=0 note=67 velocity=88 time=0
note_on channel=0 note=63 velocity=0 time=8
note_on channel=0 note=66 velocity=0 time=0
note_on channel=0 note=64 velocity=0 time=50
note_on channel=0 note=67 velocity=0 time=0
note_on channel=0 note=72 velocity=79 time=32
note_on channel=0 note=72 velocity=0 time=29
note_on channel=0 note=67 velocity=92 time=1
note_on channel=0 note=76 velocity=92 time=0
note_on channel=0 note=72 velocity=81 time=30
note_on channel=0 note=76 velocity=0 time=8
note_on channel=0 note=67 velocity=0 time=0
note_on channel=0 note=72 velocity=0 time=21
note_on channel=0 note=74 velocity=86 time=1
note_on channel=0 note=76 velocity=92 time=30
note_on channel=0 note=74 velocity=0 time=8
note_on channel=0 note=76 velocity=0 time=21
note_on channel=0 note=74 velocity=75 time=1
note_on channel=0 note=72 velocity=83 time=30
note_on channel=0 note=74 velocity=0 time=8
note_on channel=0 note=72 velocity=0 time=21
note_on channel=0 note=69 velocity=94 time=1
note_on channel=0 note=68 velocity=80 time=30
note_on channel=0 note=69 velocity=0 time=8
note_on channel=0 note=68 velocity=0 time=21
note_on channel=0 note=69 velocity=88 time=1
note_on channel=0 note=69 velocity=0 time=25
note_on channel=0 note=69 velocity=94 time=5
note_on channel=0 note=79 velocity=94 time=0
note_on channel=0 note=69 velocity=0 time=53
note_on channel=0 note=79 velocity=0 time=5
note_on channel=0 note=77 velocity=91 time=2
note_on channel=0 note=69 velocity=91 time=0
note_on channel=0 note=69 velocity=0 time=53
note_on channel=0 note=77 velocity=0 time=0
note_on channel=0 note=69 velocity=79 time=7
note_on channel=0 note=72 velocity=79 time=0
note_on channel=0 note=72 velocity=0 time=29
note_on channel=0 note=69 velocity=0 time=0
note_on channel=0 note=76 velocity=91 time=1
note_on channel=0 note=67 velocity=91 time=0
note_on channel=0 note=75 velocity=79 time=30
note_on channel=0 note=67 velocity=0 time=8
note_on channel=0 note=76 velocity=0 time=0
note_on channel=0 note=75 velocity=0 time=21
note_on channel=0 note=76 velocity=88 time=1
note_on channel=0 note=81 velocity=92 time=30
note_on channel=0 note=76 velocity=0 time=8
note_on channel=0 note=81 velocity=0 time=45
note_on channel=0 note=84 velocity=105 time=7
note_on channel=0 note=84 velocity=0 time=29
note_on channel=0 note=79 velocity=92 time=1
note_on channel=0 note=76 velocity=94 time=30
note_on channel=0 note=79 velocity=0 time=8
note_on channel=0 note=76 velocity=0 time=21
note_on channel=0 note=72 velocity=88 time=1
note_on channel=0 note=66 velocity=88 time=0
note_on channel=0 note=66 velocity=0 time=53
note_on channel=0 note=72 velocity=0 time=0
note_on channel=0 note=66 velocity=79 time=7
note_on channel=0 note=72 velocity=79 time=0
note_on channel=0 note=72 velocity=0 time=53
note_on channel=0 note=66 velocity=0 time=0
note_on channel=0 note=71 velocity=94 time=7
note_on channel=0 note=76 velocity=94 time=0
note_on channel=0 note=65 velocity=94 time=0
note_on channel=0 note=65 velocity=0 time=26
note_on channel=0 note=71 velocity=0 time=0
note_on channel=0 note=71 velocity=90 time=4
note_on channel=0 note=65 velocity=90 time=0
note_on channel=0 note=74 velocity=90 time=0
note_on channel=0 note=76 velocity=0 time=8
note_on channel=0 note=71 velocity=0 time=45
note_on channel=0 note=65 velocity=0 time=0
note_on channel=0 note=74 velocity=0 time=0
note_on channel=0 note=67 velocity=92 time=7
note_on channel=0 note=72 velocity=92 time=0
note_on channel=0 note=64 velocity=92 time=0
note_on channel=0 note=64 velocity=0 time=73
note_on channel=0 note=72 velocity=0 time=0
note_on channel=0 note=67 velocity=0 time=0
note_on channel=0 note=79 velocity=106 time=77
note_on channel=0 note=72 velocity=106 time=0
note_on channel=0 note=84 velocity=106 time=0
note_on channel=0 note=76 velocity=106 time=0
note_on channel=0 note=76 velocity=0 time=58
note_on channel=0 note=79 velocity=0 time=0
note_on channel=0 note=72 velocity=0 time=0
note_on channel=0 note=84 velocity=0 time=0
<meta message end_of_track time=0>
<meta message midi_port port=0 time=0>
<meta message track_name name='by Scott Joplin (1902)' time=0>
control_change channel=1 control=0 value=0 time=0
control_change channel=1 control=32 value=0 time=0
program_change channel=1 program=0 time=0
control_change channel=1 control=7 value=127 time=0
control_change channel=1 control=10 value=44 time=0
control_change channel=1 control=121 value=0 time=0
control_change channel=1 control=1 value=0 time=0
pitchwheel channel=1 pitch=0 time=37
control_change channel=1 control=64 value=0 time=1
aftertouch channel=1 value=0 time=1
control_change channel=1 control=74 value=78 time=1
control_change channel=1 control=71 value=72 time=1
control_change channel=1 control=93 value=12 time=2
control_change channel=1 control=91 value=21 time=0
note_on channel=1 note=62 velocity=82 time=437
note_on channel=1 note=64 velocity=91 time=30
note_on channel=1 note=62 velocity=0 time=6
note_on channel=1 note=64 velocity=0 time=23
note_on channel=1 note=60 velocity=81 time=1
note_on channel=1 note=57 velocity=86 time=30
note_on channel=1 note=60 velocity=0 time=6
note_on channel=1 note=57 velocity=0 time=48
note_on channel=1 note=59 velocity=77 time=6
note_on channel=1 note=55 velocity=82 time=30
note_on channel=1 note=59 velocity=0 time=6
note_on channel=1 note=55 velocity=0 time=48
note_on channel=1 note=50 velocity=81 time=6
note_on channel=1 note=52 velocity=91 time=30
note_on channel=1 note=50 velocity=0 time=6
note_on channel=1 note=52 velocity=0 time=23
note_on channel=1 note=48 velocity=80 time=1
note_on channel=1 note=45 velocity=83 time=30
note_on channel=1 note=48 velocity=0 time=6
note_on channel=1 note=45 velocity=0 time=48
note_on channel=1 note=47 velocity=82 time=6
note_on channel=1 note=45 velocity=78 time=30
note_on channel=1 note=47 velocity=0 time=6
note_on channel=1 note=45 velocity=0 time=23
note_on channel=1 note=44 velocity=82 time=1
note_on channel=1 note=43 velocity=85 time=30
note_on channel=1 note=44 velocity=0 time=6
note_on channel=1 note=43 velocity=0 time=52
note_on channel=1 note=31 velocity=82 time=62
note_on channel=1 note=43 velocity=82 time=0
note_on channel=1 note=43 velocity=0 time=58
note_on channel=1 note=31 velocity=0 time=0
note_on channel=1 note=48 velocity=66 time=62
note_on channel=1 note=48 velocity=0 time=48
note_on channel=1 note=52 velocity=60 time=12
note_on channel=1 note=55 velocity=60 time=0
note_on channel=1 note=60 velocity=60 time=0
note_on channel=1 note=60 velocity=0 time=31
note_on channel=1 note=55 velocity=0 time=0
note_on channel=1 note=52 velocity=0 time=0
note_on channel=1 note=55 velocity=66 time=29
note_on channel=1 note=43 velocity=66 time=0
note_on channel=1 note=43 velocity=0 time=48
note_on channel=1 note=55 velocity=0 time=0
note_on channel=1 note=60 velocity=60 time=12
note_on channel=1 note=55 velocity=60 time=0
note_on channel=1 note=58 velocity=60 time=0
note_on channel=1 note=58 velocity=0 time=31
note_on channel=1 note=55 velocity=0 time=0
note_on channel=1 note=60 velocity=0 time=0
note_on channel=1 note=53 velocity=66 time=29
note_on channel=1 note=41 velocity=66 time=0
note_on channel=1 note=41 velocity=0 time=48
note_on channel=1 note=53 velocity=0 time=0
note_on channel=1 note=57 velocity=60 time=12
note_on channel=1 note=60 velocity=60 time=0
note_on channel=1 note=60 velocity=0 time=31
note_on channel=1 note=57 velocity=0 time=0
note_on channel=1 note=52 velocity=66 time=29
note_on channel=1 note=40 velocity=66 time=0
note_on channel=1 note=40 velocity=0 time=48
note_on channel=1 note=52 velocity=0 time=0
note_on channel=1 note=60 velocity=70 time=12
note_on channel=1 note=55 velocity=70 time=0
note_on channel=1 note=55 velocity=0 time=31
note_on channel=1 note=60 velocity=0 time=0
note_on channel=1 note=43 velocity=77 time=29
note_on channel=1 note=43 velocity=0 time=48
note_on channel=1 note=55 velocity=70 time=12
note_on channel=1 note=52 velocity=70 time=0
note_on channel=1 note=60 velocity=70 time=0
note_on channel=1 note=60 velocity=0 time=31
note_on channel=1 note=52 velocity=0 time=0
note_on channel=1 note=55 velocity=0 time=0
note_on channel=1 note=43 velocity=77 time=29
note_on channel=1 note=43 velocity=0 time=48
note_on channel=1 note=53 velocity=70 time=12
note_on channel=1 note=55 velocity=70 time=0
note_on channel=1 note=59 velocity=70 time=0
note_on channel=1 note=59 velocity=0 time=31
note_on channel=1 note=55 velocity=0 time=0
note_on channel=1 note=53 velocity=0 time=0
note_on channel=1 note=48 velocity=77 time=29
note_on channel=1 note=48 velocity=0 time=48
note_on channel=1 note=52 velocity=77 time=12
note_on channel=1 note=55 velocity=77 time=0
note_on channel=1 note=60 velocity=77 time=0
note_on channel=1 note=60 velocity=0 time=36
note_on channel=1 note=55 velocity=0 time=0
note_on channel=1 note=52 velocity=0 time=0
note_on channel=1 note=60 velocity=73 time=24
note_on channel=1 note=55 velocity=73 time=0
note_on channel=1 note=52 velocity=73 time=0
note_on channel=1 note=52 velocity=0 time=48
note_on channel=1 note=55 velocity=0 time=0
note_on channel=1 note=60 velocity=0 time=0
note_on channel=1 note=55 velocity=60 time=12
note_on channel=1 note=59 velocity=60 time=0
note_on channel=1 note=59 velocity=0 time=31
note_on channel=1 note=55 velocity=0 time=0
note_on channel=1 note=48 velocity=66 time=29
note_on channel=1 note=48 velocity=0 time=48
note_on channel=1 note=52 velocity=60 time=12
note_on channel=1 note=60 velocity=60 time=0
note_on channel=1 note=55 velocity=60 time=0
note_on channel=1 note=55 velocity=0 time=31
note_on channel=1 note=60 velocity=0 time=0
note_on channel=1 note=52 velocity=0 time=0
note_on channel=1 note=55 velocity=66 time=29
note_on channel=1 note=43 velocity=66 time=0
note_on channel=1 note=43 velocity=0 time=48
note_on channel=1 note=55 velocity=0 time=0
note_on channel=1 note=60 velocity=60 time=12
note_on channel=1 note=58 velocity=60 time=0
note_on channel=1 note=55 velocity=60 time=0
note_on channel=1 note=55 velocity=0 time=31
note_on channel=1 note=58 velocity=0 time=0
note_on channel=1 note=60 velocity=0 time=0
note_on channel=1 note=53 velocity=66 time=29
note_on channel=1 note=41 velocity=66 time=0
note_on channel=1 note=41 velocity=0 time=48
note_on channel=1 note=53 velocity=0 time=0
note_on channel=1 note=57 velocity=60 time=12
note_on channel=1 note=60 velocity=60 time=0
note_on channel=1 note=60 velocity=0 time=31
note_on channel=1 note=57 velocity=0 time=0
note_on channel=1 note=40 velocity=66 time=29
note_on channel=1 note=52 velocity=66 time=0
note_on channel=1 note=52 velocity=0 time=48
note_on channel=1 note=40 velocity=0 time=0
note_on channel=1 note=39 velocity=78 time=12
note_on channel=1 note=51 velocity=78 time=0
note_on channel=1 note=51 velocity=0 time=37
note_on channel=1 note=39 velocity=0 time=0
note_on channel=1 note=38 velocity=77 time=23
note_on channel=1 note=50 velocity=77 time=0
note_on channel=1 note=50 velocity=0 time=48
note_on channel=1 note=38 velocity=0 time=0
note_on channel=1 note=50 velocity=70 time=12
note_on channel=1 note=54 velocity=70 time=0
note_on channel=1 note=57 velocity=70 time=0
note_on channel=1 note=60 velocity=70 time=0
note_on channel=1 note=60 velocity=0 time=31
note_on channel=1 note=50 velocity=0 time=0
note_on channel=1 note=54 velocity=0 time=0
note_on channel=1 note=57 velocity=0 time=0
note_on channel=1 note=50 velocity=77 time=29
note_on channel=1 note=50 velocity=0 time=48
note_on channel=1 note=54 velocity=70 time=12
note_on channel=1 note=57 velocity=70 time=0
note_on channel=1 note=60 velocity=70 time=0
note_on channel=1 note=60 velocity=0 time=31
note_on channel=1 note=57 velocity=0 time=0
note_on channel=1 note=54 velocity=0 time=0
note_on channel=1 note=59 velocity=77 time=29
note_on channel=1 note=55 velocity=77 time=0
note_on channel=1 note=55 velocity=0 time=48
note_on channel=1 note=59 velocity=0 time=0
note_on channel=1 note=55 velocity=80 time=12
note_on channel=1 note=43 velocity=80 time=0
note_on channel=1 note=43 velocity=0 time=37
note_on channel=1 note=55 velocity=0 time=0
note_on channel=1 note=57 velocity=77 time=23
note_on channel=1 note=45 velocity=77 time=0
note_on channel=1 note=45 velocity=0 time=48
note_on channel=1 note=57 velocity=0 time=0
note_on channel=1 note=59 velocity=68 time=12
note_on channel=1 note=47 velocity=68 time=0
note_on channel=1 note=47 velocity=0 time=37
note_on channel=1 note=59 velocity=0 time=0
note_on channel=1 note=48 velocity=66 time=23
note_on channel=1 note=48 velocity=0 time=48
note_on channel=1 note=52 velocity=60 time=12
note_on channel=1 note=55 velocity=60 time=0
note_on channel=1 note=60 velocity=60 time=0
note_on channel=1 note=60 velocity=0 time=31
note_on channel=1 note=55 velocity=0 time=0
note_on channel=1 note=52 velocity=0 time=0
note_on channel=1 note=55 velocity=66 time=29
note_on channel=1 note=43 velocity=66 time=0
note_on channel=1 note=43 velocity=0 time=48
note_on channel=1 note=55 velocity=0 time=0
note_on channel=1 note=60 velocity=60 time=12
note_on channel=1 note=55 velocity=60 time=0
note_on channel=1 note=58 velocity=60 time=0
note_on channel=1 note=58 velocity=0 time=31
note_on channel=1 note=55 velocity=0 time=0
note_on channel=1 note=60 velocity=0 time=0
note_on channel=1 note=53 velocity=66 time=29
note_on channel=1 note=41 velocity=66 time=0
note_on channel=1 note=41 velocity=0 time=48
note_on channel=1 note=53 velocity=0 time=0
note_on channel=1 note=57 velocity=60 time=12
note_on channel=1 note=60 velocity=60 time=0
note_on channel=1 note=60 velocity=0 time=31
note_on channel=1 note=57 velocity=0 time=0
note_on channel=1 note=52 velocity=66 time=29
note_on channel=1 note=40 velocity=66 time=0
note_on channel=1 note=40 velocity=0 time=48
note_on channel=1 note=52 velocity=0 time=0
note_on channel=1 note=60 velocity=70 time=12
note_on channel=1 note=55 velocity=70 time=0
note_on channel=1 note=55 velocity=0 time=31
note_on channel=1 note=60 velocity=0 time=0
note_on channel=1 note=43 velocity=77 time=29
note_on channel=1 note=43 velocity=0 time=48
note_on channel=1 note=55 velocity=70 time=12
note_on channel=1 note=52 velocity=70 time=0
note_on channel=1 note=60 velocity=70 time=0
note_on channel=1 note=60 velocity=0 time=31
note_on channel=1 note=52 velocity=0 time=0
note_on channel=1 note=55 velocity=0 time=0
note_on channel=1 note=43 velocity=77 time=29
note_on channel=1 note=43 velocity=0 time=48
note_on channel=1 note=53 velocity=70 time=12
note_on channel=1 note=55 velocity=70 time=0
note_on channel=1 note=59 velocity=70 time=0
note_on channel=1 note=59 velocity=0 time=31
note_on channel=1 note=55 velocity=0 time=0
note_on channel=1 note=53 velocity=0 time=0
note_on channel=1 note=48 velocity=77 time=29
note_on channel=1 note=48 velocity=0 time=48
note_on channel=1 note=52 velocity=70 time=12
note_on channel=1 note=55 velocity=70 time=0
note_on channel=1 note=60 velocity=70 time=0
note_on channel=1 note=60 velocity=0 time=31
note_on channel=1 note=55 velocity=0 time=0
note_on channel=1 note=52 velocity=0 time=0
note_on channel=1 note=60 velocity=83 time=29
note_on channel=1 note=55 velocity=83 time=0
note_on channel=1 note=64 velocity=83 time=0
note_on channel=1 note=64 velocity=0 time=48
note_on channel=1 note=55 velocity=0 time=0
note_on channel=1 note=60 velocity=0 time=0
note_on channel=1 note=48 velocity=77 time=72
note_on channel=1 note=60 velocity=77 time=0
note_on channel=1 note=60 velocity=0 time=48
note_on channel=1 note=48 velocity=0 time=0
note_on channel=1 note=55 velocity=70 time=12
note_on channel=1 note=60 velocity=70 time=0
note_on channel=1 note=64 velocity=70 time=0
note_on channel=1 note=64 velocity=0 time=31
note_on channel=1 note=60 velocity=0 time=0
note_on channel=1 note=55 velocity=0 time=0
note_on channel=1 note=46 velocity=77 time=29
note_on channel=1 note=58 velocity=77 time=0
note_on channel=1 note=58 velocity=0 time=48
note_on channel=1 note=46 velocity=0 time=0
note_on channel=1 note=64 velocity=70 time=12
note_on channel=1 note=60 velocity=70 time=0
note_on channel=1 note=55 velocity=70 time=0
note_on channel=1 note=55 velocity=0 time=31
note_on channel=1 note=60 velocity=0 time=0
note_on channel=1 note=64 velocity=0 time=0
note_on channel=1 note=45 velocity=77 time=29
note_on channel=1 note=57 velocity=77 time=0
note_on channel=1 note=57 velocity=0 time=48
note_on channel=1 note=45 velocity=0 time=0
note_on channel=1 note=57 velocity=70 time=12
note_on channel=1 note=60 velocity=70 time=0
note_on channel=1 note=65 velocity=70 time=0
note_on channel=1 note=65 velocity=0 time=31
note_on channel=1 note=60 velocity=0 time=0
note_on channel=1 note=57 velocity=0 time=0
note_on channel=1 note=44 velocity=77 time=29
note_on channel=1 note=56 velocity=77 time=0
note_on channel=1 note=56 velocity=0 time=48
note_on channel=1 note=44 velocity=0 time=0
note_on channel=1 note=65 velocity=70 time=12
note_on channel=1 note=60 velocity=70 time=0
note_on channel=1 note=56 velocity=70 time=0
note_on channel=1 note=56 velocity=0 time=31
note_on channel=1 note=60 velocity=0 time=0
note_on channel=1 note=65 velocity=0 time=0
note_on channel=1 note=43 velocity=77 time=29
note_on channel=1 note=55 velocity=77 time=0
note_on channel=1 note=55 velocity=0 time=48
note_on channel=1 note=43 velocity=0 time=0
note_on channel=1 note=55 velocity=70 time=12
note_on channel=1 note=60 velocity=70 time=0
note_on channel=1 note=64 velocity=70 time=0
note_on channel=1 note=64 velocity=0 time=31
note_on channel=1 note=60 velocity=0 time=0
note_on channel=1 note=55 velocity=0 time=0
note_on channel=1 note=43 velocity=77 time=29
note_on channel=1 note=43 velocity=0 time=48
note_on channel=1 note=59 velocity=70 time=12
note_on channel=1 note=55 velocity=70 time=0
note_on channel=1 note=55 velocity=0 time=31
note_on channel=1 note=59 velocity=0 time=0
note_on channel=1 note=55 velocity=77 time=29
note_on channel=1 note=48 velocity=77 time=0
note_on channel=1 note=60 velocity=77 time=0
note_on channel=1 note=60 velocity=0 time=48
note_on channel=1 note=48 velocity=0 time=0
note_on channel=1 note=55 velocity=0 time=0
note_on channel=1 note=43 velocity=80 time=12
note_on channel=1 note=55 velocity=80 time=0
note_on channel=1 note=55 velocity=0 time=37
note_on channel=1 note=43 velocity=0 time=0
note_on channel=1 note=57 velocity=77 time=23
note_on channel=1 note=45 velocity=77 time=0
note_on channel=1 note=45 velocity=0 time=48
note_on channel=1 note=57 velocity=0 time=0
note_on channel=1 note=47 velocity=68 time=12
note_on channel=1 note=59 velocity=68 time=0
note_on channel=1 note=59 velocity=0 time=37
note_on channel=1 note=47 velocity=0 time=0
note_on channel=1 note=48 velocity=66 time=23
note_on channel=1 note=48 velocity=0 time=48
note_on channel=1 note=52 velocity=60 time=12
note_on channel=1 note=55 velocity=60 time=0
note_on channel=1 note=60 velocity=60 time=0
note_on channel=1 note=60 velocity=0 time=31
note_on channel=1 note=55 velocity=0 time=0
note_on channel=1 note=52 velocity=0 time=0
note_on channel=1 note=55 velocity=66 time=29
note_on channel=1 note=43 velocity=66 time=0
note_on channel=1 note=43 velocity=0 time=48
note_on channel=1 note=55 velocity=0 time=0
note_on channel=1 note=60 velocity=60 time=12
note_on channel=1 note=55 velocity=60 time=0
note_on channel=1 note=58 velocity=60 time=0
note_on channel=1 note=58 velocity=0 time=31
note_on channel=1 note=55 velocity=0 time=0
note_on channel=1 note=60 velocity=0 time=0
note_on channel=1 note=53 velocity=66 time=29
note_on channel=1 note=41 velocity=66 time=0
note_on channel=1 note=41 velocity=0 time=48
note_on channel=1 note=53 velocity=0 time=0
note_on channel=1 note=57 velocity=60 time=12
note_on channel=1 note=60 velocity=60 time=0
note_on channel=1 note=60 velocity=0 time=31
note_on channel=1 note=57 velocity=0 time=0
note_on channel=1 note=52 velocity=66 time=29
note_on channel=1 note=40 velocity=66 time=0
note_on channel=1 note=40 velocity=0 time=48
note_on channel=1 note=52 velocity=0 time=0
note_on channel=1 note=60 velocity=70 time=12
note_on channel=1 note=55 velocity=70 time=0
note_on channel=1 note=55 velocity=0 time=31
note_on channel=1 note=60 velocity=0 time=0
note_on channel=1 note=43 velocity=77 time=29
note_on channel=1 note=43 velocity=0 time=48
note_on channel=1 note=55 velocity=70 time=12
note_on channel=1 note=52 velocity=70 time=0
note_on channel=1 note=60 velocity=70 time=0
note_on channel=1 note=60 velocity=0 time=31
note_on channel=1 note=52 velocity=0 time=0
note_on channel=1 note=55 velocity=0 time=0
note_on channel=1 note=43 velocity=77 time=29
note_on channel=1 note=43 velocity=0 time=48
note_on channel=1 note=53 velocity=70 time=12
note_on channel=1 note=55 velocity=70 time=0
note_on channel=1 note=59 velocity=70 time=0
note_on channel=1 note=59 velocity=0 time=31
note_on channel=1 note=55 velocity=0 time=0
note_on channel=1 note=53 velocity=0 time=0
note_on channel=1 note=48 velocity=77 time=29
note_on channel=1 note=48 velocity=0 time=48
note_on channel=1 note=52 velocity=77 time=12
note_on channel=1 note=55 velocity=77 time=0
note_on channel=1 note=60 velocity=77 time=0
note_on channel=1 note=60 velocity=0 time=36
note_on channel=1 note=55 velocity=0 time=0
note_on channel=1 note=52 velocity=0 time=0
note_on channel=1 note=60 velocity=73 time=24
note_on channel=1 note=55 velocity=73 time=0
note_on channel=1 note=52 velocity=73 time=0
note_on channel=1 note=52 velocity=0 time=48
note_on channel=1 note=55 velocity=0 time=0
note_on channel=1 note=60 velocity=0 time=0
note_on channel=1 note=55 velocity=60 time=12
note_on channel=1 note=59 velocity=60 time=0
note_on channel=1 note=59 velocity=0 time=31
note_on channel=1 note=55 velocity=0 time=0
note_on channel=1 note=48 velocity=66 time=29
note_on channel=1 note=48 velocity=0 time=48
note_on channel=1 note=52 velocity=60 time=12
note_on channel=1 note=60 velocity=60 time=0
note_on channel=1 note=55 velocity=60 time=0
note_on channel=1 note=55 velocity=0 time=31
note_on channel=1 note=60 velocity=0 time=0
note_on channel=1 note=52 velocity=0 time=0
note_on channel=1 note=55 velocity=66 time=29
note_on channel=1 note=43 velocity=66 time=0
note_on channel=1 note=43 velocity=0 time=48
note_on channel=1 note=55 velocity=0 time=0
note_on channel=1 note=60 velocity=60 time=12
note_on channel=1 note=58 velocity=60 time=0
note_on channel=1 note=55 velocity=60 time=0
note_on channel=1 note=55 velocity=0 time=31
note_on channel=1 note=58 velocity=0 time=0
note_on channel=1 note=60 velocity=0 time=0
note_on channel=1 note=53 velocity=66 time=29
note_on channel=1 note=41 velocity=66 time=0
note_on channel=1 note=41 velocity=0 time=48
note_on channel=1 note=53 velocity=0 time=0
note_on channel=1 note=57 velocity=60 time=12
note_on channel=1 note=60 velocity=60 time=0
note_on channel=1 note=60 velocity=0 time=31
note_on channel=1 note=57 velocity=0 time=0
note_on channel=1 note=40 velocity=66 time=29
note_on channel=1 note=52 velocity=66 time=0
note_on channel=1 note=52 velocity=0 time=48
note_on channel=1 note=40 velocity=0 time=0
note_on channel=1 note=39 velocity=78 time=12
note_on channel=1 note=51 velocity=78 time=0
note_on channel=1 note=51 velocity=0 time=37
note_on channel=1 note=39 velocity=0 time=0
note_on channel=1 note=38 velocity=77 time=23
note_on channel=1 note=50 velocity=77 time=0
note_on channel=1 note=50 velocity=0 time=48
note_on channel=1 note=38 velocity=0 time=0
note_on channel=1 note=50 velocity=70 time=12
note_on channel=1 note=54 velocity=70 time=0
note_on channel=1 note=57 velocity=70 time=0
note_on channel=1 note=60 velocity=70 time=0
note_on channel=1 note=60 velocity=0 time=31
note_on channel=1 note=50 velocity=0 time=0
note_on channel=1 note=54 velocity=0 time=0
note_on channel=1 note=57 velocity=0 time=0
note_on channel=1 note=50 velocity=77 time=29
note_on channel=1 note=50 velocity=0 time=48
note_on channel=1 note=54 velocity=70 time=12
note_on channel=1 note=57 velocity=70 time=0
note_on channel=1 note=60 velocity=70 time=0
note_on channel=1 note=60 velocity=0 time=31
note_on channel=1 note=57 velocity=0 time=0
note_on channel=1 note=54 velocity=0 time=0
note_on channel=1 note=59 velocity=77 time=29
note_on channel=1 note=55 velocity=77 time=0
note_on channel=1 note=55 velocity=0 time=48
note_on channel=1 note=59 velocity=0 time=0
note_on channel=1 note=55 velocity=80 time=12
note_on channel=1 note=43 velocity=80 time=0
note_on channel=1 note=43 velocity=0 time=37
note_on channel=1 note=55 velocity=0 time=0
note_on channel=1 note=57 velocity=77 time=23
note_on channel=1 note=45 velocity=77 time=0
note_on channel=1 note=45 velocity=0 time=48
note_on channel=1 note=57 velocity=0 time=0
note_on channel=1 note=59 velocity=68 time=12
note_on channel=1 note=47 velocity=68 time=0
note_on channel=1 note=47 velocity=0 time=37
note_on channel=1 note=59 velocity=0 time=0
note_on channel=1 note=48 velocity=66 time=23
note_on channel=1 note=48 velocity=0 time=48
note_on channel=1 note=52 velocity=60 time=12
note_on channel=1 note=55 velocity=60 time=0
note_on channel=1 note=60 velocity=60 time=0
note_on channel=1 note=60 velocity=0 time=31
note_on channel=1 note=55 velocity=0 time=0
note_on channel=1 note=52 velocity=0 time=0
note_on channel=1 note=55 velocity=66 time=29
note_on channel=1 note=43 velocity=66 time=0
note_on channel=1 note=43 velocity=0 time=48
note_on channel=1 note=55 velocity=0 time=0
note_on channel=1 note=60 velocity=60 time=12
note_on channel=1 note=55 velocity=60 time=0
note_on channel=1 note=58 velocity=60 time=0
note_on channel=1 note=58 velocity=0 time=31
note_on channel=1 note=55 velocity=0 time=0
note_on channel=1 note=60 velocity=0 time=0
note_on channel=1 note=53 velocity=66 time=29
note_on channel=1 note=41 velocity=66 time=0
note_on channel=1 note=41 velocity=0 time=48
note_on channel=1 note=53 velocity=0 time=0
note_on channel=1 note=57 velocity=60 time=12
note_on channel=1 note=60 velocity=60 time=0
note_on channel=1 note=60 velocity=0 time=31
note_on channel=1 note=57 velocity=0 time=0
note_on channel=1 note=52 velocity=66 time=29
note_on channel=1 note=40 velocity=66 time=0
note_on channel=1 note=40 velocity=0 time=48
note_on channel=1 note=52 velocity=0 time=0
note_on channel=1 note=60 velocity=69 time=12
note_on channel=1 note=55 velocity=69 time=0
note_on channel=1 note=55 velocity=0 time=31
note_on channel=1 note=60 velocity=0 time=0
note_on channel=1 note=43 velocity=76 time=29
note_on channel=1 note=43 velocity=0 time=48
note_on channel=1 note=55 velocity=69 time=12
note_on channel=1 note=52 velocity=69 time=0
note_on channel=1 note=60 velocity=69 time=0
note_on channel=1 note=60 velocity=0 time=31
note_on channel=1 note=52 velocity=0 time=0
note_on channel=1 note=55 velocity=0 time=0
note_on channel=1 note=43 velocity=76 time=29
note_on channel=1 note=43 velocity=0 time=48
note_on channel=1 note=53 velocity=69 time=12
note_on channel=1 note=55 velocity=69 time=0
note_on channel=1 note=59 velocity=69 time=0
note_on channel=1 note=59 velocity=0 time=31
note_on channel=1 note=55 velocity=0 time=0
note_on channel=1 note=53 velocity=0 time=0
note_on channel=1 note=48 velocity=76 time=29
note_on channel=1 note=48 velocity=0 time=48
note_on channel=1 note=52 velocity=69 time=12
note_on channel=1 note=55 velocity=69 time=0
note_on channel=1 note=60 velocity=69 time=0
note_on channel=1 note=60 velocity=0 time=31
note_on channel=1 note=55 velocity=0 time=0
note_on channel=1 note=52 velocity=0 time=0
note_on channel=1 note=60 velocity=82 time=29
note_on channel=1 note=55 velocity=82 time=0
note_on channel=1 note=64 velocity=82 time=0
note_on channel=1 note=64 velocity=0 time=48
note_on channel=1 note=55 velocity=0 time=0
note_on channel=1 note=60 velocity=0 time=0
note_on channel=1 note=48 velocity=76 time=72
note_on channel=1 note=60 velocity=76 time=0
note_on channel=1 note=60 velocity=0 time=48
note_on channel=1 note=48 velocity=0 time=0
note_on channel=1 note=55 velocity=69 time=12
note_on channel=1 note=60 velocity=69 time=0
note_on channel=1 note=64 velocity=69 time=0
note_on channel=1 note=64 velocity=0 time=31
note_on channel=1 note=60 velocity=0 time=0
note_on channel=1 note=55 velocity=0 time=0
note_on channel=1 note=46 velocity=76 time=29
note_on channel=1 note=58 velocity=76 time=0
note_on channel=1 note=58 velocity=0 time=48
note_on channel=1 note=46 velocity=0 time=0
note_on channel=1 note=64 velocity=69 time=12
note_on channel=1 note=60 velocity=69 time=0
note_on channel=1 note=55 velocity=69 time=0
note_on channel=1 note=55 velocity=0 time=31
note_on channel=1 note=60 velocity=0 time=0
note_on channel=1 note=64 velocity=0 time=0
note_on channel=1 note=45 velocity=76 time=29
note_on channel=1 note=57 velocity=76 time=0
note_on channel=1 note=57 velocity=0 time=48
note_on channel=1 note=45 velocity=0 time=0
note_on channel=1 note=57 velocity=69 time=12
note_on channel=1 note=60 velocity=69 time=0
note_on channel=1 note=65 velocity=69 time=0
note_on channel=1 note=65 velocity=0 time=31
note_on channel=1 note=60 velocity=0 time=0
note_on channel=1 note=57 velocity=0 time=0
note_on channel=1 note=44 velocity=76 time=29
note_on channel=1 note=56 velocity=76 time=0
note_on channel=1 note=56 velocity=0 time=48
note_on channel=1 note=44 velocity=0 time=0
note_on channel=1 note=65 velocity=69 time=12
note_on channel=1 note=60 velocity=69 time=0
note_on channel=1 note=56 velocity=69 time=0
note_on channel=1 note=56 velocity=0 time=31
note_on channel=1 note=60 velocity=0 time=0
note_on channel=1 note=65 velocity=0 time=0
note_on channel=1 note=43 velocity=76 time=29
note_on channel=1 note=55 velocity=76 time=0
note_on channel=1 note=55 velocity=0 time=48
note_on channel=1 note=43 velocity=0 time=0
note_on channel=1 note=55 velocity=69 time=12
note_on channel=1 note=60 velocity=69 time=0
note_on channel=1 note=64 velocity=69 time=0
note_on channel=1 note=64 velocity=0 time=31
note_on channel=1 note=60 velocity=0 time=0
note_on channel=1 note=55 velocity=0 time=0
note_on channel=1 note=43 velocity=76 time=29
note_on channel=1 note=43 velocity=0 time=48
note_on channel=1 note=59 velocity=69 time=12
note_on channel=1 note=55 velocity=69 time=0
note_on channel=1 note=55 velocity=0 time=31
note_on channel=1 note=59 velocity=0 time=0
note_on channel=1 note=55 velocity=76 time=29
note_on channel=1 note=48 velocity=76 time=0
note_on channel=1 note=60 velocity=76 time=0
note_on channel=1 note=60 velocity=0 time=48
note_on channel=1 note=48 velocity=0 time=0
note_on channel=1 note=55 velocity=0 time=0
note_on channel=1 note=43 velocity=81 time=12
note_on channel=1 note=55 velocity=81 time=0
note_on channel=1 note=55 velocity=0 time=48
note_on channel=1 note=43 velocity=0 time=0
note_on channel=1 note=36 velocity=87 time=12
note_on channel=1 note=48 velocity=87 time=0
note_on channel=1 note=48 velocity=0 time=47
note_on channel=1 note=36 velocity=0 time=0
note_on channel=1 note=48 velocity=80 time=73
note_on channel=1 note=36 velocity=80 time=0
note_on channel=1 note=36 velocity=0 time=49
note_on channel=1 note=48 velocity=0 time=0
note_on channel=1 note=55 velocity=74 time=11
note_on channel=1 note=60 velocity=74 time=0
note_on channel=1 note=64 velocity=74 time=0
note_on channel=1 note=64 velocity=0 time=31
note_on channel=1 note=60 velocity=0 time=0
note_on channel=1 note=55 velocity=0 time=0
note_on channel=1 note=43 velocity=80 time=29
note_on channel=1 note=43 velocity=0 time=49
note_on channel=1 note=64 velocity=74 time=11
note_on channel=1 note=60 velocity=74 time=0
note_on channel=1 note=55 velocity=74 time=0
note_on channel=1 note=55 velocity=0 time=31
note_on channel=1 note=60 velocity=0 time=0
note_on channel=1 note=64 velocity=0 time=0
note_on channel=1 note=48 velocity=80 time=29
note_on channel=1 note=48 velocity=0 time=49
note_on channel=1 note=55 velocity=73 time=11
note_on channel=1 note=60 velocity=73 time=0
note_on channel=1 note=64 velocity=73 time=0
note_on channel=1 note=64 velocity=0 time=31
note_on channel=1 note=60 velocity=0 time=0
note_on channel=1 note=55 velocity=0 time=0
note_on channel=1 note=43 velocity=79 time=29
note_on channel=1 note=43 velocity=0 time=49
note_on channel=1 note=64 velocity=73 time=11
note_on channel=1 note=60 velocity=73 time=0
note_on channel=1 note=55 velocity=73 time=0
note_on channel=1 note=55 velocity=0 time=31
note_on channel=1 note=60 velocity=0 time=0
note_on channel=1 note=64 velocity=0 time=0
note_on channel=1 note=41 velocity=79 time=29
note_on channel=1 note=41 velocity=0 time=49
note_on channel=1 note=57 velocity=73 time=11
note_on channel=1 note=60 velocity=73 time=0
note_on channel=1 note=65 velocity=73 time=0
note_on channel=1 note=65 velocity=0 time=31
note_on channel=1 note=60 velocity=0 time=0
note_on channel=1 note=57 velocity=0 time=0
note_on channel=1 note=53 velocity=79 time=29
note_on channel=1 note=53 velocity=0 time=49
note_on channel=1 note=65 velocity=73 time=11
note_on channel=1 note=56 velocity=73 time=0
note_on channel=1 note=60 velocity=73 time=0
note_on channel=1 note=60 velocity=0 time=31
note_on channel=1 note=56 velocity=0 time=0
note_on channel=1 note=65 velocity=0 time=0
note_on channel=1 note=52 velocity=79 time=29
note_on channel=1 note=52 velocity=0 time=49
note_on channel=1 note=60 velocity=73 time=11
note_on channel=1 note=55 velocity=73 time=0
note_on channel=1 note=64 velocity=73 time=0
note_on channel=1 note=64 velocity=0 time=31
note_on channel=1 note=55 velocity=0 time=0
note_on channel=1 note=60 velocity=0 time=0
note_on channel=1 note=43 velocity=79 time=29
note_on channel=1 note=43 velocity=0 time=49
note_on channel=1 note=55 velocity=73 time=11
note_on channel=1 note=60 velocity=73 time=0
note_on channel=1 note=64 velocity=73 time=0
note_on channel=1 note=64 velocity=0 time=31
note_on channel=1 note=60 velocity=0 time=0
note_on channel=1 note=55 velocity=0 time=0
note_on channel=1 note=48 velocity=79 time=29
note_on channel=1 note=48 velocity=0 time=49
note_on channel=1 note=55 velocity=73 time=11
note_on channel=1 note=60 velocity=73 time=0
note_on channel=1 note=64 velocity=73 time=0
note_on channel=1 note=64 velocity=0 time=31
note_on channel=1 note=60 velocity=0 time=0
note_on channel=1 note=55 velocity=0 time=0
note_on channel=1 note=43 velocity=79 time=29
note_on channel=1 note=43 velocity=0 time=49
note_on channel=1 note=64 velocity=73 time=11
note_on channel=1 note=60 velocity=73 time=0
note_on channel=1 note=55 velocity=73 time=0
note_on channel=1 note=55 velocity=0 time=31
note_on channel=1 note=60 velocity=0 time=0
note_on channel=1 note=64 velocity=0 time=0
note_on channel=1 note=48 velocity=79 time=29
note_on channel=1 note=48 velocity=0 time=49
note_on channel=1 note=55 velocity=73 time=11
note_on channel=1 note=60 velocity=73 time=0
note_on channel=1 note=64 velocity=73 time=0
note_on channel=1 note=64 velocity=0 time=31
note_on channel=1 note=60 velocity=0 time=0
note_on channel=1 note=55 velocity=0 time=0
note_on channel=1 note=52 velocity=91 time=29
note_on channel=1 note=52 velocity=0 time=49
note_on channel=1 note=51 velocity=83 time=11
note_on channel=1 note=51 velocity=0 time=40
note_on channel=1 note=50 velocity=83 time=20
note_on channel=1 note=50 velocity=0 time=49
note_on channel=1 note=55 velocity=73 time=11
note_on channel=1 note=59 velocity=73 time=0
note_on channel=1 note=62 velocity=73 time=0
note_on channel=1 note=62 velocity=0 time=31
note_on channel=1 note=59 velocity=0 time=0
note_on channel=1 note=55 velocity=0 time=0
note_on channel=1 note=50 velocity=79 time=29
note_on channel=1 note=50 velocity=0 time=49
note_on channel=1 note=57 velocity=73 time=11
note_on channel=1 note=60 velocity=73 time=0
note_on channel=1 note=62 velocity=73 time=0
note_on channel=1 note=62 velocity=0 time=31
note_on channel=1 note=60 velocity=0 time=0
note_on channel=1 note=57 velocity=0 time=0
note_on channel=1 note=62 velocity=79 time=29
note_on channel=1 note=59 velocity=79 time=0
note_on channel=1 note=55 velocity=79 time=0
note_on channel=1 note=55 velocity=0 time=49
note_on channel=1 note=59 velocity=0 time=0
note_on channel=1 note=62 velocity=0 time=0
note_on channel=1 note=53 velocity=89 time=11
note_on channel=1 note=41 velocity=89 time=0
note_on channel=1 note=41 velocity=0 time=42
note_on channel=1 note=53 velocity=0 time=0
note_on channel=1 note=40 velocity=83 time=18
note_on channel=1 note=52 velocity=83 time=0
note_on channel=1 note=52 velocity=0 time=49
note_on channel=1 note=40 velocity=0 time=0
note_on channel=1 note=50 velocity=87 time=11
note_on channel=1 note=38 velocity=87 time=0
note_on channel=1 note=38 velocity=0 time=42
note_on channel=1 note=50 velocity=0 time=0
note_on channel=1 note=48 velocity=77 time=18
note_on channel=1 note=36 velocity=77 time=0
note_on channel=1 note=36 velocity=0 time=49
note_on channel=1 note=48 velocity=0 time=0
note_on channel=1 note=60 velocity=66 time=11
note_on channel=1 note=64 velocity=66 time=0
note_on channel=1 note=55 velocity=66 time=0
note_on channel=1 note=55 velocity=0 time=31
note_on channel=1 note=64 velocity=0 time=0
note_on channel=1 note=60 velocity=0 time=0
note_on channel=1 note=43 velocity=72 time=29
note_on channel=1 note=43 velocity=0 time=49
note_on channel=1 note=55 velocity=67 time=11
note_on channel=1 note=60 velocity=67 time=0
note_on channel=1 note=64 velocity=67 time=0
note_on channel=1 note=64 velocity=0 time=31
note_on channel=1 note=60 velocity=0 time=0
note_on channel=1 note=55 velocity=0 time=0
note_on channel=1 note=48 velocity=73 time=29
note_on channel=1 note=48 velocity=0 time=49
note_on channel=1 note=60 velocity=67 time=11
note_on channel=1 note=64 velocity=67 time=0
note_on channel=1 note=55 velocity=67 time=0
note_on channel=1 note=55 velocity=0 time=31
note_on channel=1 note=64 velocity=0 time=0
note_on channel=1 note=60 velocity=0 time=0
note_on channel=1 note=43 velocity=74 time=29
note_on channel=1 note=43 velocity=0 time=49
note_on channel=1 note=52 velocity=68 time=11
note_on channel=1 note=60 velocity=68 time=0
note_on channel=1 note=60 velocity=0 time=31
note_on channel=1 note=52 velocity=0 time=0
note_on channel=1 note=41 velocity=74 time=29
note_on channel=1 note=41 velocity=0 time=49
note_on channel=1 note=65 velocity=70 time=11
note_on channel=1 note=57 velocity=70 time=0
note_on channel=1 note=60 velocity=70 time=0
note_on channel=1 note=60 velocity=0 time=31
note_on channel=1 note=57 velocity=0 time=0
note_on channel=1 note=65 velocity=0 time=0
note_on channel=1 note=53 velocity=75 time=29
note_on channel=1 note=53 velocity=0 time=49
note_on channel=1 note=60 velocity=70 time=11
note_on channel=1 note=56 velocity=70 time=0
note_on channel=1 note=65 velocity=70 time=0
note_on channel=1 note=65 velocity=0 time=31
note_on channel=1 note=56 velocity=0 time=0
note_on channel=1 note=60 velocity=0 time=0
note_on channel=1 note=52 velocity=76 time=29
note_on channel=1 note=52 velocity=0 time=49
note_on channel=1 note=64 velocity=71 time=11
note_on channel=1 note=55 velocity=71 time=0
note_on channel=1 note=60 velocity=71 time=0
note_on channel=1 note=60 velocity=0 time=31
note_on channel=1 note=55 velocity=0 time=0
note_on channel=1 note=64 velocity=0 time=0
note_on channel=1 note=48 velocity=77 time=29
note_on channel=1 note=48 velocity=0 time=49
note_on channel=1 note=58 velocity=67 time=11
note_on channel=1 note=60 velocity=67 time=0
note_on channel=1 note=64 velocity=67 time=0
note_on channel=1 note=64 velocity=0 time=31
note_on channel=1 note=60 velocity=0 time=0
note_on channel=1 note=58 velocity=0 time=0
note_on channel=1 note=65 velocity=78 time=29
note_on channel=1 note=60 velocity=78 time=0
note_on channel=1 note=57 velocity=78 time=0
note_on channel=1 note=53 velocity=78 time=0
note_on channel=1 note=53 velocity=0 time=49
note_on channel=1 note=65 velocity=0 time=0
note_on channel=1 note=60 velocity=0 time=0
note_on channel=1 note=57 velocity=0 time=0
note_on channel=1 note=53 velocity=73 time=11
note_on channel=1 note=57 velocity=73 time=0
note_on channel=1 note=60 velocity=73 time=0
note_on channel=1 note=65 velocity=73 time=0
note_on channel=1 note=65 velocity=0 time=36
note_on channel=1 note=53 velocity=0 time=0
note_on channel=1 note=57 velocity=0 time=0
note_on channel=1 note=60 velocity=0 time=0
note_on channel=1 note=63 velocity=78 time=24
note_on channel=1 note=60 velocity=78 time=0
note_on channel=1 note=57 velocity=78 time=0
note_on channel=1 note=54 velocity=78 time=0
note_on channel=1 note=54 velocity=0 time=49
note_on channel=1 note=63 velocity=0 time=0
note_on channel=1 note=60 velocity=0 time=0
note_on channel=1 note=57 velocity=0 time=0
note_on channel=1 note=54 velocity=73 time=11
note_on channel=1 note=57 velocity=73 time=0
note_on channel=1 note=60 velocity=73 time=0
note_on channel=1 note=63 velocity=73 time=0
note_on channel=1 note=63 velocity=0 time=36
note_on channel=1 note=54 velocity=0 time=0
note_on channel=1 note=57 velocity=0 time=0
note_on channel=1 note=60 velocity=0 time=0
note_on channel=1 note=55 velocity=84 time=24
note_on channel=1 note=60 velocity=84 time=0
note_on channel=1 note=64 velocity=84 time=0
note_on channel=1 note=64 velocity=0 time=49
note_on channel=1 note=60 velocity=0 time=0
note_on channel=1 note=55 velocity=0 time=0
note_on channel=1 note=55 velocity=83 time=11
note_on channel=1 note=60 velocity=83 time=0
note_on channel=1 note=64 velocity=83 time=0
note_on channel=1 note=64 velocity=0 time=36
note_on channel=1 note=60 velocity=0 time=0
note_on channel=1 note=55 velocity=0 time=0
note_on channel=1 note=55 velocity=92 time=24
note_on channel=1 note=60 velocity=92 time=0
note_on channel=1 note=64 velocity=92 time=0
note_on channel=1 note=64 velocity=0 time=49
note_on channel=1 note=60 velocity=0 time=0
note_on channel=1 note=55 velocity=0 time=0
note_on channel=1 note=55 velocity=88 time=11
note_on channel=1 note=60 velocity=88 time=0
note_on channel=1 note=64 velocity=88 time=0
note_on channel=1 note=64 velocity=0 time=36
note_on channel=1 note=60 velocity=0 time=0
note_on channel=1 note=55 velocity=0 time=0
note_on channel=1 note=60 velocity=79 time=24
note_on channel=1 note=50 velocity=79 time=0
note_on channel=1 note=50 velocity=0 time=49
note_on channel=1 note=60 velocity=0 time=0
note_on channel=1 note=50 velocity=77 time=11
note_on channel=1 note=57 velocity=77 time=0
note_on channel=1 note=57 velocity=0 time=42
note_on channel=1 note=50 velocity=0 time=0
note_on channel=1 note=55 velocity=84 time=18
note_on channel=1 note=59 velocity=84 time=0
note_on channel=1 note=59 velocity=0 time=49
note_on channel=1 note=55 velocity=0 time=0
note_on channel=1 note=55 velocity=81 time=11
note_on channel=1 note=59 velocity=81 time=0
note_on channel=1 note=59 velocity=0 time=36
note_on channel=1 note=55 velocity=0 time=0
note_on channel=1 note=60 velocity=99 time=24
note_on channel=1 note=48 velocity=99 time=0
note_on channel=1 note=48 velocity=0 time=49
note_on channel=1 note=60 velocity=0 time=0
note_on channel=1 note=43 velocity=95 time=11
note_on channel=1 note=55 velocity=95 time=0
note_on channel=1 note=55 velocity=0 time=42
note_on channel=1 note=43 velocity=0 time=0
note_on channel=1 note=52 velocity=98 time=18
note_on channel=1 note=40 velocity=98 time=0
note_on channel=1 note=40 velocity=0 time=49
note_on channel=1 note=52 velocity=0 time=0
note_on channel=1 note=38 velocity=94 time=11
note_on channel=1 note=50 velocity=94 time=0
note_on channel=1 note=50 velocity=0 time=42
note_on channel=1 note=38 velocity=0 time=0
note_on channel=1 note=48 velocity=79 time=18
note_on channel=1 note=36 velocity=79 time=0
note_on channel=1 note=36 velocity=0 time=49
note_on channel=1 note=48 velocity=0 time=0
note_on channel=1 note=55 velocity=73 time=11
note_on channel=1 note=60 velocity=73 time=0
note_on channel=1 note=64 velocity=73 time=0
note_on channel=1 note=64 velocity=0 time=31
note_on channel=1 note=60 velocity=0 time=0
note_on channel=1 note=55 velocity=0 time=0
note_on channel=1 note=43 velocity=79 time=29
note_on channel=1 note=43 velocity=0 time=49
note_on channel=1 note=64 velocity=73 time=11
note_on channel=1 note=60 velocity=73 time=0
note_on channel=1 note=55 velocity=73 time=0
note_on channel=1 note=55 velocity=0 time=31
note_on channel=1 note=60 velocity=0 time=0
note_on channel=1 note=64 velocity=0 time=0
note_on channel=1 note=48 velocity=79 time=29
note_on channel=1 note=48 velocity=0 time=49
note_on channel=1 note=55 velocity=73 time=11
note_on channel=1 note=60 velocity=73 time=0
note_on channel=1 note=64 velocity=73 time=0
note_on channel=1 note=64 velocity=0 time=31
note_on channel=1 note=60 velocity=0 time=0
note_on channel=1 note=55 velocity=0 time=0
note_on channel=1 note=43 velocity=79 time=29
note_on channel=1 note=43 velocity=0 time=49
note_on channel=1 note=64 velocity=73 time=11
note_on channel=1 note=60 velocity=73 time=0
note_on channel=1 note=55 velocity=73 time=0
note_on channel=1 note=55 velocity=0 time=31
note_on channel=1 note=60 velocity=0 time=0
note_on channel=1 note=64 velocity=0 time=0
note_on channel=1 note=41 velocity=79 time=29
note_on channel=1 note=41 velocity=0 time=49
note_on channel=1 note=57 velocity=73 time=11
note_on channel=1 note=60 velocity=73 time=0
note_on channel=1 note=65 velocity=73 time=0
note_on channel=1 note=65 velocity=0 time=31
note_on channel=1 note=60 velocity=0 time=0
note_on channel=1 note=57 velocity=0 time=0
note_on channel=1 note=53 velocity=79 time=29
note_on channel=1 note=53 velocity=0 time=49
note_on channel=1 note=65 velocity=73 time=11
note_on channel=1 note=56 velocity=73 time=0
note_on channel=1 note=60 velocity=73 time=0
note_on channel=1 note=60 velocity=0 time=31
note_on channel=1 note=56 velocity=0 time=0
note_on channel=1 note=65 velocity=0 time=0
note_on channel=1 note=52 velocity=79 time=29
note_on channel=1 note=52 velocity=0 time=49
note_on channel=1 note=60 velocity=73 time=11
note_on channel=1 note=55 velocity=73 time=0
note_on channel=1 note=64 velocity=73 time=0
note_on channel=1 note=64 velocity=0 time=31
note_on channel=1 note=55 velocity=0 time=0
note_on channel=1 note=60 velocity=0 time=0
note_on channel=1 note=43 velocity=79 time=29
note_on channel=1 note=43 velocity=0 time=49
note_on channel=1 note=55 velocity=73 time=11
note_on channel=1 note=60 velocity=73 time=0
note_on channel=1 note=64 velocity=73 time=0
note_on channel=1 note=64 velocity=0 time=31
note_on channel=1 note=60 velocity=0 time=0
note_on channel=1 note=55 velocity=0 time=0
note_on channel=1 note=48 velocity=79 time=29
note_on channel=1 note=48 velocity=0 time=49
note_on channel=1 note=55 velocity=73 time=11
note_on channel=1 note=60 velocity=73 time=0
note_on channel=1 note=64 velocity=73 time=0
note_on channel=1 note=64 velocity=0 time=31
note_on channel=1 note=60 velocity=0 time=0
note_on channel=1 note=55 velocity=0 time=0
note_on channel=1 note=43 velocity=79 time=29
note_on channel=1 note=43 velocity=0 time=49
note_on channel=1 note=64 velocity=73 time=11
note_on channel=1 note=60 velocity=73 time=0
note_on channel=1 note=55 velocity=73 time=0
note_on channel=1 note=55 velocity=0 time=31
note_on channel=1 note=60 velocity=0 time=0
note_on channel=1 note=64 velocity=0 time=0
note_on channel=1 note=48 velocity=79 time=29
note_on channel=1 note=48 velocity=0 time=49
note_on channel=1 note=55 velocity=73 time=11
note_on channel=1 note=60 velocity=73 time=0
note_on channel=1 note=64 velocity=73 time=0
note_on channel=1 note=64 velocity=0 time=31
note_on channel=1 note=60 velocity=0 time=0
note_on channel=1 note=55 velocity=0 time=0
note_on channel=1 note=52 velocity=100 time=29
note_on channel=1 note=52 velocity=0 time=49
note_on channel=1 note=51 velocity=91 time=11
note_on channel=1 note=51 velocity=0 time=40
note_on channel=1 note=50 velocity=89 time=20
note_on channel=1 note=50 velocity=0 time=49
note_on channel=1 note=55 velocity=73 time=11
note_on channel=1 note=59 velocity=73 time=0
note_on channel=1 note=62 velocity=73 time=0
note_on channel=1 note=62 velocity=0 time=31
note_on channel=1 note=59 velocity=0 time=0
note_on channel=1 note=55 velocity=0 time=0
note_on channel=1 note=50 velocity=79 time=29
note_on channel=1 note=50 velocity=0 time=49
note_on channel=1 note=57 velocity=73 time=11
note_on channel=1 note=60 velocity=73 time=0
note_on channel=1 note=62 velocity=73 time=0
note_on channel=1 note=62 velocity=0 time=31
note_on channel=1 note=60 velocity=0 time=0
note_on channel=1 note=57 velocity=0 time=0
note_on channel=1 note=62 velocity=79 time=29
note_on channel=1 note=59 velocity=79 time=0
note_on channel=1 note=55 velocity=79 time=0
note_on channel=1 note=55 velocity=0 time=49
note_on channel=1 note=59 velocity=0 time=0
note_on channel=1 note=62 velocity=0 time=0
note_on channel=1 note=53 velocity=89 time=11
note_on channel=1 note=41 velocity=89 time=0
note_on channel=1 note=41 velocity=0 time=42
note_on channel=1 note=53 velocity=0 time=0
note_on channel=1 note=40 velocity=83 time=18
note_on channel=1 note=52 velocity=83 time=0
note_on channel=1 note=52 velocity=0 time=49
note_on channel=1 note=40 velocity=0 time=0
note_on channel=1 note=50 velocity=87 time=11
note_on channel=1 note=38 velocity=87 time=0
note_on channel=1 note=38 velocity=0 time=42
note_on channel=1 note=50 velocity=0 time=0
note_on channel=1 note=48 velocity=85 time=18
note_on channel=1 note=36 velocity=85 time=0
note_on channel=1 note=36 velocity=0 time=49
note_on channel=1 note=48 velocity=0 time=0
note_on channel=1 note=60 velocity=72 time=11
note_on channel=1 note=64 velocity=72 time=0
note_on channel=1 note=55 velocity=72 time=0
note_on channel=1 note=55 velocity=0 time=31
note_on channel=1 note=64 velocity=0 time=0
note_on channel=1 note=60 velocity=0 time=0
note_on channel=1 note=43 velocity=78 time=29
note_on channel=1 note=43 velocity=0 time=49
note_on channel=1 note=55 velocity=72 time=11
note_on channel=1 note=60 velocity=72 time=0
note_on channel=1 note=64 velocity=72 time=0
note_on channel=1 note=64 velocity=0 time=31
note_on channel=1 note=60 velocity=0 time=0
note_on channel=1 note=55 velocity=0 time=0
note_on channel=1 note=48 velocity=78 time=29
note_on channel=1 note=48 velocity=0 time=49
note_on channel=1 note=60 velocity=72 time=11
note_on channel=1 note=64 velocity=72 time=0
note_on channel=1 note=55 velocity=72 time=0
note_on channel=1 note=55 velocity=0 time=31
note_on channel=1 note=64 velocity=0 time=0
note_on channel=1 note=60 velocity=0 time=0
note_on channel=1 note=43 velocity=78 time=29
note_on channel=1 note=43 velocity=0 time=49
note_on channel=1 note=52 velocity=72 time=11
note_on channel=1 note=60 velocity=72 time=0
note_on channel=1 note=60 velocity=0 time=31
note_on channel=1 note=52 velocity=0 time=0
note_on channel=1 note=41 velocity=78 time=29
note_on channel=1 note=41 velocity=0 time=49
note_on channel=1 note=65 velocity=72 time=11
note_on channel=1 note=57 velocity=72 time=0
note_on channel=1 note=60 velocity=72 time=0
note_on channel=1 note=60 velocity=0 time=31
note_on channel=1 note=57 velocity=0 time=0
note_on channel=1 note=65 velocity=0 time=0
note_on channel=1 note=53 velocity=78 time=29
note_on channel=1 note=53 velocity=0 time=49
note_on channel=1 note=60 velocity=72 time=11
note_on channel=1 note=56 velocity=72 time=0
note_on channel=1 note=65 velocity=72 time=0
note_on channel=1 note=65 velocity=0 time=31
note_on channel=1 note=56 velocity=0 time=0
note_on channel=1 note=60 velocity=0 time=0
note_on channel=1 note=52 velocity=78 time=29
note_on channel=1 note=52 velocity=0 time=49
note_on channel=1 note=64 velocity=72 time=11
note_on channel=1 note=55 velocity=72 time=0
note_on channel=1 note=60 velocity=72 time=0
note_on channel=1 note=60 velocity=0 time=31
note_on channel=1 note=55 velocity=0 time=0
note_on channel=1 note=64 velocity=0 time=0
note_on channel=1 note=48 velocity=78 time=29
note_on channel=1 note=48 velocity=0 time=49
note_on channel=1 note=58 velocity=66 time=11
note_on channel=1 note=60 velocity=66 time=0
note_on channel=1 note=64 velocity=66 time=0
note_on channel=1 note=64 velocity=0 time=31
note_on channel=1 note=60 velocity=0 time=0
note_on channel=1 note=58 velocity=0 time=0
note_on channel=1 note=65 velocity=77 time=29
note_on channel=1 note=60 velocity=77 time=0
note_on channel=1 note=57 velocity=77 time=0
note_on channel=1 note=53 velocity=77 time=0
note_on channel=1 note=53 velocity=0 time=49
note_on channel=1 note=65 velocity=0 time=0
note_on channel=1 note=60 velocity=0 time=0
note_on channel=1 note=57 velocity=0 time=0
note_on channel=1 note=53 velocity=72 time=11
note_on channel=1 note=57 velocity=72 time=0
note_on channel=1 note=60 velocity=72 time=0
note_on channel=1 note=65 velocity=72 time=0
note_on channel=1 note=65 velocity=0 time=36
note_on channel=1 note=53 velocity=0 time=0
note_on channel=1 note=57 velocity=0 time=0
note_on channel=1 note=60 velocity=0 time=0
note_on channel=1 note=63 velocity=77 time=24
note_on channel=1 note=60 velocity=77 time=0
note_on channel=1 note=57 velocity=77 time=0
note_on channel=1 note=54 velocity=77 time=0
note_on channel=1 note=54 velocity=0 time=49
note_on channel=1 note=63 velocity=0 time=0
note_on channel=1 note=60 velocity=0 time=0
note_on channel=1 note=57 velocity=0 time=0
note_on channel=1 note=54 velocity=72 time=11
note_on channel=1 note=57 velocity=72 time=0
note_on channel=1 note=60 velocity=72 time=0
note_on channel=1 note=63 velocity=72 time=0
note_on channel=1 note=63 velocity=0 time=36
note_on channel=1 note=54 velocity=0 time=0
note_on channel=1 note=57 velocity=0 time=0
note_on channel=1 note=60 velocity=0 time=0
note_on channel=1 note=55 velocity=83 time=24
note_on channel=1 note=60 velocity=83 time=0
note_on channel=1 note=64 velocity=83 time=0
note_on channel=1 note=64 velocity=0 time=49
note_on channel=1 note=60 velocity=0 time=0
note_on channel=1 note=55 velocity=0 time=0
note_on channel=1 note=55 velocity=82 time=11
note_on channel=1 note=60 velocity=82 time=0
note_on channel=1 note=64 velocity=82 time=0
note_on channel=1 note=64 velocity=0 time=36
note_on channel=1 note=60 velocity=0 time=0
note_on channel=1 note=55 velocity=0 time=0
note_on channel=1 note=55 velocity=91 time=24
note_on channel=1 note=60 velocity=91 time=0
note_on channel=1 note=64 velocity=91 time=0
note_on channel=1 note=64 velocity=0 time=49
note_on channel=1 note=60 velocity=0 time=0
note_on channel=1 note=55 velocity=0 time=0
note_on channel=1 note=55 velocity=87 time=11
note_on channel=1 note=60 velocity=87 time=0
note_on channel=1 note=64 velocity=87 time=0
note_on channel=1 note=64 velocity=0 time=36
note_on channel=1 note=60 velocity=0 time=0
note_on channel=1 note=55 velocity=0 time=0
note_on channel=1 note=60 velocity=78 time=24
note_on channel=1 note=50 velocity=78 time=0
note_on channel=1 note=50 velocity=0 time=49
note_on channel=1 note=60 velocity=0 time=0
note_on channel=1 note=50 velocity=76 time=11
note_on channel=1 note=57 velocity=76 time=0
note_on channel=1 note=57 velocity=0 time=42
note_on channel=1 note=50 velocity=0 time=0
note_on channel=1 note=55 velocity=83 time=18
note_on channel=1 note=59 velocity=83 time=0
note_on channel=1 note=59 velocity=0 time=49
note_on channel=1 note=55 velocity=0 time=0
note_on channel=1 note=55 velocity=80 time=11
note_on channel=1 note=59 velocity=80 time=0
note_on channel=1 note=59 velocity=0 time=36
note_on channel=1 note=55 velocity=0 time=0
note_on channel=1 note=60 velocity=98 time=24
note_on channel=1 note=48 velocity=98 time=0
note_on channel=1 note=48 velocity=0 time=49
note_on channel=1 note=60 velocity=0 time=0
note_on channel=1 note=43 velocity=88 time=11
note_on channel=1 note=55 velocity=88 time=0
note_on channel=1 note=55 velocity=0 time=58
note_on channel=1 note=43 velocity=0 time=0
note_on channel=1 note=48 velocity=88 time=2
note_on channel=1 note=36 velocity=88 time=0
note_on channel=1 note=36 velocity=0 time=58
note_on channel=1 note=48 velocity=0 time=0
note_on channel=1 note=48 velocity=63 time=62
note_on channel=1 note=48 velocity=0 time=48
note_on channel=1 note=52 velocity=57 time=12
note_on channel=1 note=55 velocity=57 time=0
note_on channel=1 note=60 velocity=57 time=0
note_on channel=1 note=60 velocity=0 time=31
note_on channel=1 note=55 velocity=0 time=0
note_on channel=1 note=52 velocity=0 time=0
note_on channel=1 note=55 velocity=63 time=29
note_on channel=1 note=43 velocity=63 time=0
note_on channel=1 note=43 velocity=0 time=48
note_on channel=1 note=55 velocity=0 time=0
note_on channel=1 note=60 velocity=57 time=12
note_on channel=1 note=55 velocity=57 time=0
note_on channel=1 note=58 velocity=57 time=0
note_on channel=1 note=58 velocity=0 time=31
note_on channel=1 note=55 velocity=0 time=0
note_on channel=1 note=60 velocity=0 time=0
note_on channel=1 note=53 velocity=63 time=29
note_on channel=1 note=41 velocity=63 time=0
note_on channel=1 note=41 velocity=0 time=48
note_on channel=1 note=53 velocity=0 time=0
note_on channel=1 note=57 velocity=57 time=12
note_on channel=1 note=60 velocity=57 time=0
note_on channel=1 note=60 velocity=0 time=31
note_on channel=1 note=57 velocity=0 time=0
note_on channel=1 note=52 velocity=63 time=29
note_on channel=1 note=40 velocity=63 time=0
note_on channel=1 note=40 velocity=0 time=48
note_on channel=1 note=52 velocity=0 time=0
note_on channel=1 note=60 velocity=67 time=12
note_on channel=1 note=55 velocity=67 time=0
note_on channel=1 note=55 velocity=0 time=31
note_on channel=1 note=60 velocity=0 time=0
note_on channel=1 note=43 velocity=74 time=29
note_on channel=1 note=43 velocity=0 time=48
note_on channel=1 note=55 velocity=67 time=12
note_on channel=1 note=52 velocity=67 time=0
note_on channel=1 note=60 velocity=67 time=0
note_on channel=1 note=60 velocity=0 time=31
note_on channel=1 note=52 velocity=0 time=0
note_on channel=1 note=55 velocity=0 time=0
note_on channel=1 note=43 velocity=74 time=29
note_on channel=1 note=43 velocity=0 time=48
note_on channel=1 note=53 velocity=67 time=12
note_on channel=1 note=55 velocity=67 time=0
note_on channel=1 note=59 velocity=67 time=0
note_on channel=1 note=59 velocity=0 time=31
note_on channel=1 note=55 velocity=0 time=0
note_on channel=1 note=53 velocity=0 time=0
note_on channel=1 note=48 velocity=74 time=29
note_on channel=1 note=48 velocity=0 time=48
note_on channel=1 note=52 velocity=74 time=12
note_on channel=1 note=55 velocity=74 time=0
note_on channel=1 note=60 velocity=74 time=0
note_on channel=1 note=60 velocity=0 time=36
note_on channel=1 note=55 velocity=0 time=0
note_on channel=1 note=52 velocity=0 time=0
note_on channel=1 note=60 velocity=70 time=24
note_on channel=1 note=55 velocity=70 time=0
note_on channel=1 note=52 velocity=70 time=0
note_on channel=1 note=52 velocity=0 time=48
note_on channel=1 note=55 velocity=0 time=0
note_on channel=1 note=60 velocity=0 time=0
note_on channel=1 note=55 velocity=57 time=12
note_on channel=1 note=59 velocity=57 time=0
note_on channel=1 note=59 velocity=0 time=31
note_on channel=1 note=55 velocity=0 time=0
note_on channel=1 note=48 velocity=63 time=29
note_on channel=1 note=48 velocity=0 time=48
note_on channel=1 note=52 velocity=57 time=12
note_on channel=1 note=60 velocity=57 time=0
note_on channel=1 note=55 velocity=57 time=0
note_on channel=1 note=55 velocity=0 time=31
note_on channel=1 note=60 velocity=0 time=0
note_on channel=1 note=52 velocity=0 time=0
note_on channel=1 note=55 velocity=63 time=29
note_on channel=1 note=43 velocity=63 time=0
note_on channel=1 note=43 velocity=0 time=48
note_on channel=1 note=55 velocity=0 time=0
note_on channel=1 note=60 velocity=57 time=12
note_on channel=1 note=58 velocity=57 time=0
note_on channel=1 note=55 velocity=57 time=0
note_on channel=1 note=55 velocity=0 time=31
note_on channel=1 note=58 velocity=0 time=0
note_on channel=1 note=60 velocity=0 time=0
note_on channel=1 note=53 velocity=63 time=29
note_on channel=1 note=41 velocity=63 time=0
note_on channel=1 note=41 velocity=0 time=48
note_on channel=1 note=53 velocity=0 time=0
note_on channel=1 note=57 velocity=57 time=12
note_on channel=1 note=60 velocity=57 time=0
note_on channel=1 note=60 velocity=0 time=31
note_on channel=1 note=57 velocity=0 time=0
note_on channel=1 note=40 velocity=63 time=29
note_on channel=1 note=52 velocity=63 time=0
note_on channel=1 note=52 velocity=0 time=48
note_on channel=1 note=40 velocity=0 time=0
note_on channel=1 note=39 velocity=75 time=12
note_on channel=1 note=51 velocity=75 time=0
note_on channel=1 note=51 velocity=0 time=37
note_on channel=1 note=39 velocity=0 time=0
note_on channel=1 note=38 velocity=74 time=23
note_on channel=1 note=50 velocity=74 time=0
note_on channel=1 note=50 velocity=0 time=48
note_on channel=1 note=38 velocity=0 time=0
note_on channel=1 note=50 velocity=67 time=12
note_on channel=1 note=54 velocity=67 time=0
note_on channel=1 note=57 velocity=67 time=0
note_on channel=1 note=60 velocity=67 time=0
note_on channel=1 note=60 velocity=0 time=31
note_on channel=1 note=50 velocity=0 time=0
note_on channel=1 note=54 velocity=0 time=0
note_on channel=1 note=57 velocity=0 time=0
note_on channel=1 note=50 velocity=74 time=29
note_on channel=1 note=50 velocity=0 time=48
note_on channel=1 note=54 velocity=67 time=12
note_on channel=1 note=57 velocity=67 time=0
note_on channel=1 note=60 velocity=67 time=0
note_on channel=1 note=60 velocity=0 time=31
note_on channel=1 note=57 velocity=0 time=0
note_on channel=1 note=54 velocity=0 time=0
note_on channel=1 note=59 velocity=74 time=29
note_on channel=1 note=55 velocity=74 time=0
note_on channel=1 note=55 velocity=0 time=48
note_on channel=1 note=59 velocity=0 time=0
note_on channel=1 note=55 velocity=77 time=12
note_on channel=1 note=43 velocity=77 time=0
note_on channel=1 note=43 velocity=0 time=37
note_on channel=1 note=55 velocity=0 time=0
note_on channel=1 note=57 velocity=73 time=23
note_on channel=1 note=45 velocity=73 time=0
note_on channel=1 note=45 velocity=0 time=48
note_on channel=1 note=57 velocity=0 time=0
note_on channel=1 note=59 velocity=64 time=12
note_on channel=1 note=47 velocity=64 time=0
note_on channel=1 note=47 velocity=0 time=37
note_on channel=1 note=59 velocity=0 time=0
note_on channel=1 note=48 velocity=62 time=23
note_on channel=1 note=48 velocity=0 time=48
note_on channel=1 note=52 velocity=56 time=12
note_on channel=1 note=55 velocity=56 time=0
note_on channel=1 note=60 velocity=56 time=0
note_on channel=1 note=60 velocity=0 time=31
note_on channel=1 note=55 velocity=0 time=0
note_on channel=1 note=52 velocity=0 time=0
note_on channel=1 note=55 velocity=62 time=29
note_on channel=1 note=43 velocity=62 time=0
note_on channel=1 note=43 velocity=0 time=48
note_on channel=1 note=55 velocity=0 time=0
note_on channel=1 note=60 velocity=56 time=12
note_on channel=1 note=55 velocity=56 time=0
note_on channel=1 note=58 velocity=56 time=0
note_on channel=1 note=58 velocity=0 time=31
note_on channel=1 note=55 velocity=0 time=0
note_on channel=1 note=60 velocity=0 time=0
note_on channel=1 note=53 velocity=62 time=29
note_on channel=1 note=41 velocity=62 time=0
note_on channel=1 note=41 velocity=0 time=48
note_on channel=1 note=53 velocity=0 time=0
note_on channel=1 note=57 velocity=56 time=12
note_on channel=1 note=60 velocity=56 time=0
note_on channel=1 note=60 velocity=0 time=31
note_on channel=1 note=57 velocity=0 time=0
note_on channel=1 note=52 velocity=62 time=29
note_on channel=1 note=40 velocity=62 time=0
note_on channel=1 note=40 velocity=0 time=48
note_on channel=1 note=52 velocity=0 time=0
note_on channel=1 note=60 velocity=66 time=12
note_on channel=1 note=55 velocity=66 time=0
note_on channel=1 note=55 velocity=0 time=31
note_on channel=1 note=60 velocity=0 time=0
note_on channel=1 note=43 velocity=73 time=29
note_on channel=1 note=43 velocity=0 time=48
note_on channel=1 note=55 velocity=66 time=12
note_on channel=1 note=52 velocity=66 time=0
note_on channel=1 note=60 velocity=66 time=0
note_on channel=1 note=60 velocity=0 time=31
note_on channel=1 note=52 velocity=0 time=0
note_on channel=1 note=55 velocity=0 time=0
note_on channel=1 note=43 velocity=73 time=29
note_on channel=1 note=43 velocity=0 time=48
note_on channel=1 note=53 velocity=66 time=12
note_on channel=1 note=55 velocity=66 time=0
note_on channel=1 note=59 velocity=66 time=0
note_on channel=1 note=59 velocity=0 time=31
note_on channel=1 note=55 velocity=0 time=0
note_on channel=1 note=53 velocity=0 time=0
note_on channel=1 note=48 velocity=73 time=29
note_on channel=1 note=48 velocity=0 time=48
note_on channel=1 note=52 velocity=66 time=12
note_on channel=1 note=55 velocity=66 time=0
note_on channel=1 note=60 velocity=66 time=0
note_on channel=1 note=60 velocity=0 time=31
note_on channel=1 note=55 velocity=0 time=0
note_on channel=1 note=52 velocity=0 time=0
note_on channel=1 note=60 velocity=73 time=29
note_on channel=1 note=55 velocity=73 time=0
note_on channel=1 note=64 velocity=73 time=0
note_on channel=1 note=64 velocity=0 time=48
note_on channel=1 note=55 velocity=0 time=0
note_on channel=1 note=60 velocity=0 time=0
note_on channel=1 note=48 velocity=73 time=72
note_on channel=1 note=60 velocity=73 time=0
note_on channel=1 note=60 velocity=0 time=48
note_on channel=1 note=48 velocity=0 time=0
note_on channel=1 note=55 velocity=66 time=12
note_on channel=1 note=60 velocity=66 time=0
note_on channel=1 note=64 velocity=66 time=0
note_on channel=1 note=64 velocity=0 time=31
note_on channel=1 note=60 velocity=0 time=0
note_on channel=1 note=55 velocity=0 time=0
note_on channel=1 note=46 velocity=73 time=29
note_on channel=1 note=58 velocity=73 time=0
note_on channel=1 note=58 velocity=0 time=48
note_on channel=1 note=46 velocity=0 time=0
note_on channel=1 note=64 velocity=66 time=12
note_on channel=1 note=60 velocity=66 time=0
note_on channel=1 note=55 velocity=66 time=0
note_on channel=1 note=55 velocity=0 time=31
note_on channel=1 note=60 velocity=0 time=0
note_on channel=1 note=64 velocity=0 time=0
note_on channel=1 note=45 velocity=73 time=29
note_on channel=1 note=57 velocity=73 time=0
note_on channel=1 note=57 velocity=0 time=48
note_on channel=1 note=45 velocity=0 time=0
note_on channel=1 note=57 velocity=66 time=12
note_on channel=1 note=60 velocity=66 time=0
note_on channel=1 note=65 velocity=66 time=0
note_on channel=1 note=65 velocity=0 time=31
note_on channel=1 note=60 velocity=0 time=0
note_on channel=1 note=57 velocity=0 time=0
note_on channel=1 note=44 velocity=73 time=29
note_on channel=1 note=56 velocity=73 time=0
note_on channel=1 note=56 velocity=0 time=48
note_on channel=1 note=44 velocity=0 time=0
note_on channel=1 note=65 velocity=66 time=12
note_on channel=1 note=60 velocity=66 time=0
note_on channel=1 note=56 velocity=66 time=0
note_on channel=1 note=56 velocity=0 time=31
note_on channel=1 note=60 velocity=0 time=0
note_on channel=1 note=65 velocity=0 time=0
note_on channel=1 note=43 velocity=73 time=29
note_on channel=1 note=55 velocity=73 time=0
note_on channel=1 note=55 velocity=0 time=48
note_on channel=1 note=43 velocity=0 time=0
note_on channel=1 note=55 velocity=66 time=12
note_on channel=1 note=60 velocity=66 time=0
note_on channel=1 note=64 velocity=66 time=0
note_on channel=1 note=64 velocity=0 time=31
note_on channel=1 note=60 velocity=0 time=0
note_on channel=1 note=55 velocity=0 time=0
note_on channel=1 note=43 velocity=73 time=29
note_on channel=1 note=43 velocity=0 time=48
note_on channel=1 note=59 velocity=66 time=12
note_on channel=1 note=55 velocity=66 time=0
note_on channel=1 note=55 velocity=0 time=31
note_on channel=1 note=59 velocity=0 time=0
note_on channel=1 note=55 velocity=83 time=29
note_on channel=1 note=48 velocity=83 time=0
note_on channel=1 note=60 velocity=83 time=0
note_on channel=1 note=60 velocity=0 time=54
note_on channel=1 note=48 velocity=0 time=0
note_on channel=1 note=55 velocity=0 time=0
note_on channel=1 note=43 velocity=84 time=6
note_on channel=1 note=55 velocity=84 time=0
note_on channel=1 note=55 velocity=0 time=47
note_on channel=1 note=43 velocity=0 time=0
note_on channel=1 note=36 velocity=87 time=13
note_on channel=1 note=48 velocity=87 time=0
note_on channel=1 note=48 velocity=0 time=54
note_on channel=1 note=36 velocity=0 time=0
note_on channel=1 note=41 velocity=79 time=66
note_on channel=1 note=41 velocity=0 time=50
note_on channel=1 note=65 velocity=72 time=10
note_on channel=1 note=60 velocity=72 time=0
note_on channel=1 note=57 velocity=72 time=0
note_on channel=1 note=57 velocity=0 time=32
note_on channel=1 note=60 velocity=0 time=0
note_on channel=1 note=65 velocity=0 time=0
note_on channel=1 note=48 velocity=88 time=28
note_on channel=1 note=48 velocity=0 time=50
note_on channel=1 note=65 velocity=72 time=10
note_on channel=1 note=57 velocity=72 time=0
note_on channel=1 note=60 velocity=72 time=0
note_on channel=1 note=60 velocity=0 time=32
note_on channel=1 note=57 velocity=0 time=0
note_on channel=1 note=65 velocity=0 time=0
note_on channel=1 note=46 velocity=79 time=28
note_on channel=1 note=46 velocity=0 time=50
note_on channel=1 note=65 velocity=72 time=10
note_on channel=1 note=58 velocity=72 time=0
note_on channel=1 note=62 velocity=72 time=0
note_on channel=1 note=62 velocity=0 time=32
note_on channel=1 note=58 velocity=0 time=0
note_on channel=1 note=65 velocity=0 time=0
note_on channel=1 note=53 velocity=79 time=28
note_on channel=1 note=53 velocity=0 time=50
note_on channel=1 note=65 velocity=72 time=10
note_on channel=1 note=58 velocity=72 time=0
note_on channel=1 note=62 velocity=72 time=0
note_on channel=1 note=62 velocity=0 time=32
note_on channel=1 note=58 velocity=0 time=0
note_on channel=1 note=65 velocity=0 time=0
note_on channel=1 note=38 velocity=79 time=28
note_on channel=1 note=38 velocity=0 time=50
note_on channel=1 note=65 velocity=72 time=10
note_on channel=1 note=57 velocity=72 time=0
note_on channel=1 note=62 velocity=72 time=0
note_on channel=1 note=62 velocity=0 time=32
note_on channel=1 note=57 velocity=0 time=0
note_on channel=1 note=65 velocity=0 time=0
note_on channel=1 note=45 velocity=88 time=28
note_on channel=1 note=45 velocity=0 time=50
note_on channel=1 note=65 velocity=72 time=10
note_on channel=1 note=62 velocity=72 time=0
note_on channel=1 note=57 velocity=72 time=0
note_on channel=1 note=57 velocity=0 time=32
note_on channel=1 note=62 velocity=0 time=0
note_on channel=1 note=65 velocity=0 time=0
note_on channel=1 note=43 velocity=79 time=28
note_on channel=1 note=43 velocity=0 time=50
note_on channel=1 note=58 velocity=72 time=10
note_on channel=1 note=55 velocity=72 time=0
note_on channel=1 note=55 velocity=0 time=32
note_on channel=1 note=58 velocity=0 time=0
note_on channel=1 note=50 velocity=79 time=28
note_on channel=1 note=50 velocity=0 time=50
note_on channel=1 note=55 velocity=72 time=10
note_on channel=1 note=58 velocity=72 time=0
note_on channel=1 note=58 velocity=0 time=32
note_on channel=1 note=55 velocity=0 time=0
note_on channel=1 note=58 velocity=79 time=28
note_on channel=1 note=46 velocity=79 time=0
note_on channel=1 note=46 velocity=0 time=50
note_on channel=1 note=58 velocity=0 time=0
note_on channel=1 note=58 velocity=72 time=10
note_on channel=1 note=62 velocity=72 time=0
note_on channel=1 note=62 velocity=0 time=32
note_on channel=1 note=58 velocity=0 time=0
note_on channel=1 note=55 velocity=88 time=28
note_on channel=1 note=43 velocity=88 time=0
note_on channel=1 note=43 velocity=0 time=50
note_on channel=1 note=55 velocity=0 time=0
note_on channel=1 note=44 velocity=91 time=10
note_on channel=1 note=56 velocity=91 time=0
note_on channel=1 note=56 velocity=0 time=41
note_on channel=1 note=44 velocity=0 time=0
note_on channel=1 note=57 velocity=83 time=19
note_on channel=1 note=45 velocity=83 time=0
note_on channel=1 note=45 velocity=0 time=50
note_on channel=1 note=57 velocity=0 time=0
note_on channel=1 note=65 velocity=76 time=10
note_on channel=1 note=57 velocity=76 time=0
note_on channel=1 note=60 velocity=76 time=0
note_on channel=1 note=60 velocity=0 time=32
note_on channel=1 note=57 velocity=0 time=0
note_on channel=1 note=65 velocity=0 time=0
note_on channel=1 note=50 velocity=79 time=28
note_on channel=1 note=50 velocity=0 time=50
note_on channel=1 note=65 velocity=72 time=10
note_on channel=1 note=62 velocity=72 time=0
note_on channel=1 note=57 velocity=72 time=0
note_on channel=1 note=57 velocity=0 time=32
note_on channel=1 note=62 velocity=0 time=0
note_on channel=1 note=65 velocity=0 time=0
note_on channel=1 note=52 velocity=79 time=28
note_on channel=1 note=52 velocity=0 time=50
note_on channel=1 note=59 velocity=72 time=10
note_on channel=1 note=62 velocity=72 time=0
note_on channel=1 note=64 velocity=72 time=0
note_on channel=1 note=64 velocity=0 time=32
note_on channel=1 note=62 velocity=0 time=0
note_on channel=1 note=59 velocity=0 time=0
note_on channel=1 note=56 velocity=79 time=28
note_on channel=1 note=56 velocity=0 time=50
note_on channel=1 note=59 velocity=71 time=10
note_on channel=1 note=62 velocity=71 time=0
note_on channel=1 note=64 velocity=71 time=0
note_on channel=1 note=64 velocity=0 time=32
note_on channel=1 note=62 velocity=0 time=0
note_on channel=1 note=59 velocity=0 time=0
note_on channel=1 note=57 velocity=83 time=28
note_on channel=1 note=64 velocity=83 time=0
note_on channel=1 note=60 velocity=83 time=0
note_on channel=1 note=60 velocity=0 time=101
note_on channel=1 note=64 velocity=0 time=0
note_on channel=1 note=57 velocity=0 time=0
note_on channel=1 note=60 velocity=92 time=19
note_on channel=1 note=64 velocity=92 time=0
note_on channel=1 note=55 velocity=92 time=0
note_on channel=1 note=55 velocity=0 time=55
note_on channel=1 note=48 velocity=89 time=5
note_on channel=1 note=64 velocity=0 time=41
note_on channel=1 note=60 velocity=0 time=0
note_on channel=1 note=48 velocity=0 time=4
note_on channel=1 note=41 velocity=83 time=15
note_on channel=1 note=41 velocity=0 time=50
note_on channel=1 note=65 velocity=75 time=10
note_on channel=1 note=60 velocity=75 time=0
note_on channel=1 note=57 velocity=75 time=0
note_on channel=1 note=57 velocity=0 time=32
note_on channel=1 note=60 velocity=0 time=0
note_on channel=1 note=65 velocity=0 time=0
note_on channel=1 note=48 velocity=87 time=28
note_on channel=1 note=48 velocity=0 time=50
note_on channel=1 note=65 velocity=71 time=10
note_on channel=1 note=57 velocity=71 time=0
note_on channel=1 note=60 velocity=71 time=0
note_on channel=1 note=60 velocity=0 time=32
note_on channel=1 note=57 velocity=0 time=0
note_on channel=1 note=65 velocity=0 time=0
note_on channel=1 note=46 velocity=78 time=28
note_on channel=1 note=46 velocity=0 time=50
note_on channel=1 note=65 velocity=71 time=10
note_on channel=1 note=58 velocity=71 time=0
note_on channel=1 note=62 velocity=71 time=0
note_on channel=1 note=62 velocity=0 time=32
note_on channel=1 note=58 velocity=0 time=0
note_on channel=1 note=65 velocity=0 time=0
note_on channel=1 note=53 velocity=78 time=28
note_on channel=1 note=53 velocity=0 time=50
note_on channel=1 note=65 velocity=71 time=10
note_on channel=1 note=58 velocity=71 time=0
note_on channel=1 note=62 velocity=71 time=0
note_on channel=1 note=62 velocity=0 time=32
note_on channel=1 note=58 velocity=0 time=0
note_on channel=1 note=65 velocity=0 time=0
note_on channel=1 note=38 velocity=78 time=28
note_on channel=1 note=38 velocity=0 time=50
note_on channel=1 note=65 velocity=71 time=10
note_on channel=1 note=57 velocity=71 time=0
note_on channel=1 note=62 velocity=71 time=0
note_on channel=1 note=62 velocity=0 time=32
note_on channel=1 note=57 velocity=0 time=0
note_on channel=1 note=65 velocity=0 time=0
note_on channel=1 note=45 velocity=87 time=28
note_on channel=1 note=45 velocity=0 time=50
note_on channel=1 note=65 velocity=71 time=10
note_on channel=1 note=62 velocity=71 time=0
note_on channel=1 note=57 velocity=71 time=0
note_on channel=1 note=57 velocity=0 time=32
note_on channel=1 note=62 velocity=0 time=0
note_on channel=1 note=65 velocity=0 time=0
note_on channel=1 note=43 velocity=78 time=28
note_on channel=1 note=43 velocity=0 time=50
note_on channel=1 note=58 velocity=71 time=10
note_on channel=1 note=55 velocity=71 time=0
note_on channel=1 note=55 velocity=0 time=32
note_on channel=1 note=58 velocity=0 time=0
note_on channel=1 note=50 velocity=78 time=28
note_on channel=1 note=50 velocity=0 time=50
note_on channel=1 note=55 velocity=71 time=10
note_on channel=1 note=58 velocity=71 time=0
note_on channel=1 note=58 velocity=0 time=32
note_on channel=1 note=55 velocity=0 time=0
note_on channel=1 note=58 velocity=78 time=28
note_on channel=1 note=46 velocity=78 time=0
note_on channel=1 note=46 velocity=0 time=50
note_on channel=1 note=58 velocity=0 time=0
note_on channel=1 note=58 velocity=71 time=10
note_on channel=1 note=62 velocity=71 time=0
note_on channel=1 note=62 velocity=0 time=32
note_on channel=1 note=58 velocity=0 time=0
note_on channel=1 note=55 velocity=78 time=28
note_on channel=1 note=43 velocity=78 time=0
note_on channel=1 note=43 velocity=0 time=50
note_on channel=1 note=55 velocity=0 time=0
note_on channel=1 note=44 velocity=78 time=10
note_on channel=1 note=56 velocity=78 time=0
note_on channel=1 note=56 velocity=0 time=41
note_on channel=1 note=44 velocity=0 time=0
note_on channel=1 note=57 velocity=89 time=19
note_on channel=1 note=45 velocity=89 time=0
note_on channel=1 note=45 velocity=0 time=30
note_on channel=1 note=57 velocity=0 time=0
note_on channel=1 note=41 velocity=94 time=0
note_on channel=1 note=53 velocity=94 time=0
note_on channel=1 note=53 velocity=0 time=25
note_on channel=1 note=41 velocity=0 time=0
note_on channel=1 note=52 velocity=89 time=5
note_on channel=1 note=40 velocity=89 time=0
note_on channel=1 note=40 velocity=0 time=30
note_on channel=1 note=52 velocity=0 time=0
note_on channel=1 note=38 velocity=91 time=0
note_on channel=1 note=50 velocity=91 time=0
note_on channel=1 note=50 velocity=0 time=25
note_on channel=1 note=38 velocity=0 time=0
note_on channel=1 note=49 velocity=97 time=5
note_on channel=1 note=37 velocity=97 time=0
note_on channel=1 note=37 velocity=0 time=101
note_on channel=1 note=49 velocity=0 time=0
note_on channel=1 note=48 velocity=78 time=19
note_on channel=1 note=36 velocity=78 time=0
note_on channel=1 note=36 velocity=0 time=50
note_on channel=1 note=48 velocity=0 time=0
note_on channel=1 note=60 velocity=71 time=10
note_on channel=1 note=57 velocity=71 time=0
note_on channel=1 note=65 velocity=71 time=0
note_on channel=1 note=65 velocity=0 time=32
note_on channel=1 note=57 velocity=0 time=0
note_on channel=1 note=60 velocity=0 time=0
note_on channel=1 note=60 velocity=87 time=28
note_on channel=1 note=48 velocity=87 time=0
note_on channel=1 note=48 velocity=0 time=54
note_on channel=1 note=60 velocity=0 time=4
note_on channel=1 note=48 velocity=90 time=2
note_on channel=1 note=36 velocity=90 time=0
note_on channel=1 note=36 velocity=0 time=50
note_on channel=1 note=48 velocity=0 time=0
note_on channel=1 note=53 velocity=82 time=10
note_on channel=1 note=41 velocity=82 time=0
note_on channel=1 note=41 velocity=0 time=58
note_on channel=1 note=53 velocity=0 time=0
note_on channel=1 note=41 velocity=78 time=182
note_on channel=1 note=41 velocity=0 time=50
note_on channel=1 note=65 velocity=71 time=10
note_on channel=1 note=60 velocity=71 time=0
note_on channel=1 note=57 velocity=71 time=0
note_on channel=1 note=57 velocity=0 time=32
note_on channel=1 note=60 velocity=0 time=0
note_on channel=1 note=65 velocity=0 time=0
note_on channel=1 note=48 velocity=87 time=28
note_on channel=1 note=48 velocity=0 time=50
note_on channel=1 note=65 velocity=71 time=10
note_on channel=1 note=57 velocity=71 time=0
note_on channel=1 note=60 velocity=71 time=0
note_on channel=1 note=60 velocity=0 time=32
note_on channel=1 note=57 velocity=0 time=0
note_on channel=1 note=65 velocity=0 time=0
note_on channel=1 note=46 velocity=78 time=28
note_on channel=1 note=46 velocity=0 time=50
note_on channel=1 note=65 velocity=71 time=10
note_on channel=1 note=58 velocity=71 time=0
note_on channel=1 note=62 velocity=71 time=0
note_on channel=1 note=62 velocity=0 time=32
note_on channel=1 note=58 velocity=0 time=0
note_on channel=1 note=65 velocity=0 time=0
note_on channel=1 note=53 velocity=78 time=28
note_on channel=1 note=53 velocity=0 time=50
note_on channel=1 note=65 velocity=71 time=10
note_on channel=1 note=58 velocity=71 time=0
note_on channel=1 note=62 velocity=71 time=0
note_on channel=1 note=62 velocity=0 time=32
note_on channel=1 note=58 velocity=0 time=0
note_on channel=1 note=65 velocity=0 time=0
note_on channel=1 note=38 velocity=78 time=28
note_on channel=1 note=38 velocity=0 time=50
note_on channel=1 note=65 velocity=71 time=10
note_on channel=1 note=57 velocity=71 time=0
note_on channel=1 note=62 velocity=71 time=0
note_on channel=1 note=62 velocity=0 time=32
note_on channel=1 note=57 velocity=0 time=0
note_on channel=1 note=65 velocity=0 time=0
note_on channel=1 note=45 velocity=87 time=28
note_on channel=1 note=45 velocity=0 time=50
note_on channel=1 note=65 velocity=71 time=10
note_on channel=1 note=62 velocity=71 time=0
note_on channel=1 note=57 velocity=71 time=0
note_on channel=1 note=57 velocity=0 time=32
note_on channel=1 note=62 velocity=0 time=0
note_on channel=1 note=65 velocity=0 time=0
note_on channel=1 note=43 velocity=78 time=28
note_on channel=1 note=43 velocity=0 time=50
note_on channel=1 note=58 velocity=71 time=10
note_on channel=1 note=55 velocity=71 time=0
note_on channel=1 note=55 velocity=0 time=32
note_on channel=1 note=58 velocity=0 time=0
note_on channel=1 note=50 velocity=78 time=28
note_on channel=1 note=50 velocity=0 time=50
note_on channel=1 note=55 velocity=71 time=10
note_on channel=1 note=58 velocity=71 time=0
note_on channel=1 note=58 velocity=0 time=32
note_on channel=1 note=55 velocity=0 time=0
note_on channel=1 note=58 velocity=78 time=28
note_on channel=1 note=46 velocity=78 time=0
note_on channel=1 note=46 velocity=0 time=50
note_on channel=1 note=58 velocity=0 time=0
note_on channel=1 note=58 velocity=71 time=10
note_on channel=1 note=62 velocity=71 time=0
note_on channel=1 note=62 velocity=0 time=32
note_on channel=1 note=58 velocity=0 time=0
note_on channel=1 note=55 velocity=87 time=28
note_on channel=1 note=43 velocity=87 time=0
note_on channel=1 note=43 velocity=0 time=50
note_on channel=1 note=55 velocity=0 time=0
note_on channel=1 note=44 velocity=90 time=10
note_on channel=1 note=56 velocity=90 time=0
note_on channel=1 note=56 velocity=0 time=41
note_on channel=1 note=44 velocity=0 time=0
note_on channel=1 note=57 velocity=82 time=19
note_on channel=1 note=45 velocity=82 time=0
note_on channel=1 note=45 velocity=0 time=50
note_on channel=1 note=57 velocity=0 time=0
note_on channel=1 note=65 velocity=75 time=10
note_on channel=1 note=57 velocity=75 time=0
note_on channel=1 note=60 velocity=75 time=0
note_on channel=1 note=60 velocity=0 time=32
note_on channel=1 note=57 velocity=0 time=0
note_on channel=1 note=65 velocity=0 time=0
note_on channel=1 note=50 velocity=78 time=28
note_on channel=1 note=50 velocity=0 time=50
note_on channel=1 note=65 velocity=71 time=10
note_on channel=1 note=62 velocity=71 time=0
note_on channel=1 note=57 velocity=71 time=0
note_on channel=1 note=57 velocity=0 time=32
note_on channel=1 note=62 velocity=0 time=0
note_on channel=1 note=65 velocity=0 time=0
note_on channel=1 note=52 velocity=78 time=28
note_on channel=1 note=52 velocity=0 time=50
note_on channel=1 note=59 velocity=71 time=10
note_on channel=1 note=62 velocity=71 time=0
note_on channel=1 note=64 velocity=71 time=0
note_on channel=1 note=64 velocity=0 time=32
note_on channel=1 note=62 velocity=0 time=0
note_on channel=1 note=59 velocity=0 time=0
note_on channel=1 note=56 velocity=78 time=28
note_on channel=1 note=56 velocity=0 time=50
note_on channel=1 note=59 velocity=71 time=10
note_on channel=1 note=62 velocity=71 time=0
note_on channel=1 note=64 velocity=71 time=0
note_on channel=1 note=64 velocity=0 time=32
note_on channel=1 note=62 velocity=0 time=0
note_on channel=1 note=59 velocity=0 time=0
note_on channel=1 note=57 velocity=83 time=28
note_on channel=1 note=64 velocity=83 time=0
note_on channel=1 note=60 velocity=83 time=0
note_on channel=1 note=60 velocity=0 time=101
note_on channel=1 note=64 velocity=0 time=0
note_on channel=1 note=57 velocity=0 time=0
note_on channel=1 note=60 velocity=92 time=19
note_on channel=1 note=64 velocity=92 time=0
note_on channel=1 note=55 velocity=92 time=0
note_on channel=1 note=55 velocity=0 time=55
note_on channel=1 note=48 velocity=89 time=5
note_on channel=1 note=64 velocity=0 time=41
note_on channel=1 note=60 velocity=0 time=0
note_on channel=1 note=48 velocity=0 time=4
note_on channel=1 note=41 velocity=83 time=15
note_on channel=1 note=41 velocity=0 time=50
note_on channel=1 note=65 velocity=75 time=10
note_on channel=1 note=60 velocity=75 time=0
note_on channel=1 note=57 velocity=75 time=0
note_on channel=1 note=57 velocity=0 time=32
note_on channel=1 note=60 velocity=0 time=0
note_on channel=1 note=65 velocity=0 time=0
note_on channel=1 note=48 velocity=87 time=28
note_on channel=1 note=48 velocity=0 time=50
note_on channel=1 note=65 velocity=71 time=10
note_on channel=1 note=57 velocity=71 time=0
note_on channel=1 note=60 velocity=71 time=0
note_on channel=1 note=60 velocity=0 time=32
note_on channel=1 note=57 velocity=0 time=0
note_on channel=1 note=65 velocity=0 time=0
note_on channel=1 note=46 velocity=78 time=28
note_on channel=1 note=46 velocity=0 time=50
note_on channel=1 note=65 velocity=71 time=10
note_on channel=1 note=58 velocity=71 time=0
note_on channel=1 note=62 velocity=71 time=0
note_on channel=1 note=62 velocity=0 time=32
note_on channel=1 note=58 velocity=0 time=0
note_on channel=1 note=65 velocity=0 time=0
note_on channel=1 note=53 velocity=78 time=28
note_on channel=1 note=53 velocity=0 time=50
note_on channel=1 note=65 velocity=71 time=10
note_on channel=1 note=58 velocity=71 time=0
note_on channel=1 note=62 velocity=71 time=0
note_on channel=1 note=62 velocity=0 time=32
note_on channel=1 note=58 velocity=0 time=0
note_on channel=1 note=65 velocity=0 time=0
note_on channel=1 note=38 velocity=78 time=28
note_on channel=1 note=38 velocity=0 time=50
note_on channel=1 note=65 velocity=71 time=10
note_on channel=1 note=57 velocity=71 time=0
note_on channel=1 note=62 velocity=71 time=0
note_on channel=1 note=62 velocity=0 time=32
note_on channel=1 note=57 velocity=0 time=0
note_on channel=1 note=65 velocity=0 time=0
note_on channel=1 note=45 velocity=87 time=28
note_on channel=1 note=45 velocity=0 time=50
note_on channel=1 note=65 velocity=71 time=10
note_on channel=1 note=62 velocity=71 time=0
note_on channel=1 note=57 velocity=71 time=0
note_on channel=1 note=57 velocity=0 time=32
note_on channel=1 note=62 velocity=0 time=0
note_on channel=1 note=65 velocity=0 time=0
note_on channel=1 note=43 velocity=78 time=28
note_on channel=1 note=43 velocity=0 time=50
note_on channel=1 note=58 velocity=71 time=10
note_on channel=1 note=55 velocity=71 time=0
note_on channel=1 note=55 velocity=0 time=32
note_on channel=1 note=58 velocity=0 time=0
note_on channel=1 note=50 velocity=78 time=28
note_on channel=1 note=50 velocity=0 time=50
note_on channel=1 note=55 velocity=71 time=10
note_on channel=1 note=58 velocity=71 time=0
note_on channel=1 note=58 velocity=0 time=32
note_on channel=1 note=55 velocity=0 time=0
note_on channel=1 note=58 velocity=78 time=28
note_on channel=1 note=46 velocity=78 time=0
note_on channel=1 note=46 velocity=0 time=50
note_on channel=1 note=58 velocity=0 time=0
note_on channel=1 note=58 velocity=71 time=10
note_on channel=1 note=62 velocity=71 time=0
note_on channel=1 note=62 velocity=0 time=32
note_on channel=1 note=58 velocity=0 time=0
note_on channel=1 note=55 velocity=78 time=28
note_on channel=1 note=43 velocity=78 time=0
note_on channel=1 note=43 velocity=0 time=50
note_on channel=1 note=55 velocity=0 time=0
note_on channel=1 note=44 velocity=78 time=10
note_on channel=1 note=56 velocity=78 time=0
note_on channel=1 note=56 velocity=0 time=41
note_on channel=1 note=44 velocity=0 time=0
note_on channel=1 note=57 velocity=89 time=19
note_on channel=1 note=45 velocity=89 time=0
note_on channel=1 note=45 velocity=0 time=30
note_on channel=1 note=57 velocity=0 time=0
note_on channel=1 note=41 velocity=94 time=0
note_on channel=1 note=53 velocity=94 time=0
note_on channel=1 note=53 velocity=0 time=25
note_on channel=1 note=41 velocity=0 time=0
note_on channel=1 note=52 velocity=89 time=5
note_on channel=1 note=40 velocity=89 time=0
note_on channel=1 note=40 velocity=0 time=30
note_on channel=1 note=52 velocity=0 time=0
note_on channel=1 note=38 velocity=91 time=0
note_on channel=1 note=50 velocity=91 time=0
note_on channel=1 note=50 velocity=0 time=25
note_on channel=1 note=38 velocity=0 time=0
note_on channel=1 note=49 velocity=97 time=5
note_on channel=1 note=37 velocity=97 time=0
note_on channel=1 note=37 velocity=0 time=101
note_on channel=1 note=49 velocity=0 time=0
note_on channel=1 note=48 velocity=77 time=19
note_on channel=1 note=36 velocity=77 time=0
note_on channel=1 note=36 velocity=0 time=50
note_on channel=1 note=48 velocity=0 time=0
note_on channel=1 note=60 velocity=70 time=10
note_on channel=1 note=57 velocity=70 time=0
note_on channel=1 note=65 velocity=70 time=0
note_on channel=1 note=65 velocity=0 time=32
note_on channel=1 note=57 velocity=0 time=0
note_on channel=1 note=60 velocity=0 time=0
note_on channel=1 note=60 velocity=77 time=28
note_on channel=1 note=48 velocity=77 time=0
note_on channel=1 note=48 velocity=0 time=58
note_on channel=1 note=60 velocity=0 time=0
note_on channel=1 note=48 velocity=75 time=2
note_on channel=1 note=36 velocity=75 time=0
note_on channel=1 note=36 velocity=0 time=50
note_on channel=1 note=48 velocity=0 time=0
note_on channel=1 note=53 velocity=84 time=10
note_on channel=1 note=41 velocity=84 time=0
note_on channel=1 note=41 velocity=0 time=58
note_on channel=1 note=53 velocity=0 time=0
note_on channel=1 note=41 velocity=94 time=62
note_on channel=1 note=29 velocity=94 time=0
note_on channel=1 note=29 velocity=0 time=58
note_on channel=1 note=41 velocity=0 time=0
note_on channel=1 note=65 velocity=83 time=62
note_on channel=1 note=60 velocity=83 time=0
note_on channel=1 note=57 velocity=83 time=0
note_on channel=1 note=53 velocity=83 time=0
note_on channel=1 note=53 velocity=0 time=50
note_on channel=1 note=65 velocity=0 time=0
note_on channel=1 note=60 velocity=0 time=0
note_on channel=1 note=57 velocity=0 time=0
note_on channel=1 note=65 velocity=77 time=10
note_on channel=1 note=53 velocity=77 time=0
note_on channel=1 note=57 velocity=77 time=0
note_on channel=1 note=60 velocity=77 time=0
note_on channel=1 note=60 velocity=0 time=43
note_on channel=1 note=65 velocity=0 time=0
note_on channel=1 note=53 velocity=0 time=0
note_on channel=1 note=57 velocity=0 time=0
note_on channel=1 note=60 velocity=86 time=17
note_on channel=1 note=63 velocity=86 time=0
note_on channel=1 note=57 velocity=86 time=0
note_on channel=1 note=54 velocity=86 time=0
note_on channel=1 note=54 velocity=0 time=50
note_on channel=1 note=60 velocity=0 time=0
note_on channel=1 note=63 velocity=0 time=0
note_on channel=1 note=57 velocity=0 time=0
note_on channel=1 note=54 velocity=77 time=10
note_on channel=1 note=57 velocity=77 time=0
note_on channel=1 note=60 velocity=77 time=0
note_on channel=1 note=63 velocity=77 time=0
note_on channel=1 note=63 velocity=0 time=43
note_on channel=1 note=54 velocity=0 time=0
note_on channel=1 note=57 velocity=0 time=0
note_on channel=1 note=60 velocity=0 time=0
note_on channel=1 note=64 velocity=86 time=17
note_on channel=1 note=60 velocity=86 time=0
note_on channel=1 note=55 velocity=86 time=0
note_on channel=1 note=55 velocity=0 time=50
note_on channel=1 note=60 velocity=0 time=0
note_on channel=1 note=64 velocity=0 time=0
note_on channel=1 note=55 velocity=77 time=10
note_on channel=1 note=60 velocity=77 time=0
note_on channel=1 note=64 velocity=77 time=0
note_on channel=1 note=64 velocity=0 time=43
note_on channel=1 note=60 velocity=0 time=0
note_on channel=1 note=55 velocity=0 time=0
note_on channel=1 note=64 velocity=83 time=17
note_on channel=1 note=60 velocity=83 time=0
note_on channel=1 note=55 velocity=83 time=0
note_on channel=1 note=55 velocity=0 time=50
note_on channel=1 note=60 velocity=0 time=0
note_on channel=1 note=64 velocity=0 time=0
note_on channel=1 note=55 velocity=77 time=10
note_on channel=1 note=60 velocity=77 time=0
note_on channel=1 note=64 velocity=77 time=0
note_on channel=1 note=64 velocity=0 time=43
note_on channel=1 note=60 velocity=0 time=0
note_on channel=1 note=55 velocity=0 time=0
note_on channel=1 note=60 velocity=88 time=17
note_on channel=1 note=50 velocity=88 time=0
note_on channel=1 note=50 velocity=0 time=50
note_on channel=1 note=60 velocity=0 time=0
note_on channel=1 note=50 velocity=83 time=10
note_on channel=1 note=57 velocity=83 time=0
note_on channel=1 note=57 velocity=0 time=43
note_on channel=1 note=50 velocity=0 time=0
note_on channel=1 note=55 velocity=89 time=17
note_on channel=1 note=59 velocity=89 time=0
note_on channel=1 note=59 velocity=0 time=50
note_on channel=1 note=55 velocity=0 time=0
note_on channel=1 note=59 velocity=85 time=10
note_on channel=1 note=55 velocity=85 time=0
note_on channel=1 note=55 velocity=0 time=43
note_on channel=1 note=59 velocity=0 time=0
note_on channel=1 note=60 velocity=77 time=17
note_on channel=1 note=48 velocity=77 time=0
note_on channel=1 note=48 velocity=0 time=92
note_on channel=1 note=60 velocity=0 time=0
note_on channel=1 note=48 velocity=107 time=28
note_on channel=1 note=36 velocity=107 time=0
note_on channel=1 note=36 velocity=0 time=50
note_on channel=1 note=48 velocity=0 time=0
note_on channel=1 note=41 velocity=85 time=70
note_on channel=1 note=41 velocity=0 time=58
note_on channel=1 note=53 velocity=77 time=2
note_on channel=1 note=57 velocity=77 time=0
note_on channel=1 note=57 velocity=0 time=37
note_on channel=1 note=53 velocity=0 time=0
note_on channel=1 note=45 velocity=85 time=23
note_on channel=1 note=45 velocity=0 time=58
note_on channel=1 note=57 velocity=77 time=2
note_on channel=1 note=53 velocity=77 time=0
note_on channel=1 note=53 velocity=0 time=37
note_on channel=1 note=57 velocity=0 time=0
note_on channel=1 note=41 velocity=85 time=23
note_on channel=1 note=41 velocity=0 time=58
note_on channel=1 note=53 velocity=76 time=2
note_on channel=1 note=57 velocity=76 time=0
note_on channel=1 note=57 velocity=0 time=37
note_on channel=1 note=53 velocity=0 time=0
note_on channel=1 note=45 velocity=84 time=23
note_on channel=1 note=45 velocity=0 time=58
note_on channel=1 note=57 velocity=76 time=2
note_on channel=1 note=53 velocity=76 time=0
note_on channel=1 note=53 velocity=0 time=37
note_on channel=1 note=57 velocity=0 time=0
note_on channel=1 note=48 velocity=84 time=23
note_on channel=1 note=48 velocity=0 time=58
note_on channel=1 note=52 velocity=76 time=2
note_on channel=1 note=55 velocity=76 time=0
note_on channel=1 note=60 velocity=76 time=0
note_on channel=1 note=60 velocity=0 time=37
note_on channel=1 note=55 velocity=0 time=0
note_on channel=1 note=52 velocity=0 time=0
note_on channel=1 note=43 velocity=84 time=23
note_on channel=1 note=43 velocity=0 time=58
note_on channel=1 note=60 velocity=76 time=2
note_on channel=1 note=55 velocity=76 time=0
note_on channel=1 note=52 velocity=76 time=0
note_on channel=1 note=52 velocity=0 time=37
note_on channel=1 note=55 velocity=0 time=0
note_on channel=1 note=60 velocity=0 time=0
note_on channel=1 note=48 velocity=84 time=23
note_on channel=1 note=48 velocity=0 time=58
note_on channel=1 note=52 velocity=76 time=2
note_on channel=1 note=55 velocity=76 time=0
note_on channel=1 note=60 velocity=76 time=0
note_on channel=1 note=60 velocity=0 time=37
note_on channel=1 note=55 velocity=0 time=0
note_on channel=1 note=52 velocity=0 time=0
note_on channel=1 note=43 velocity=84 time=23
note_on channel=1 note=43 velocity=0 time=58
note_on channel=1 note=60 velocity=76 time=2
note_on channel=1 note=55 velocity=76 time=0
note_on channel=1 note=52 velocity=76 time=0
note_on channel=1 note=52 velocity=0 time=37
note_on channel=1 note=55 velocity=0 time=0
note_on channel=1 note=60 velocity=0 time=0
note_on channel=1 note=43 velocity=84 time=23
note_on channel=1 note=43 velocity=0 time=58
note_on channel=1 note=59 velocity=76 time=2
note_on channel=1 note=55 velocity=76 time=0
note_on channel=1 note=53 velocity=76 time=0
note_on channel=1 note=53 velocity=0 time=37
note_on channel=1 note=55 velocity=0 time=0
note_on channel=1 note=59 velocity=0 time=0
note_on channel=1 note=47 velocity=84 time=23
note_on channel=1 note=47 velocity=0 time=58
note_on channel=1 note=53 velocity=76 time=2
note_on channel=1 note=55 velocity=76 time=0
note_on channel=1 note=59 velocity=76 time=0
note_on channel=1 note=59 velocity=0 time=37
note_on channel=1 note=55 velocity=0 time=0
note_on channel=1 note=53 velocity=0 time=0
note_on channel=1 note=43 velocity=84 time=23
note_on channel=1 note=43 velocity=0 time=58
note_on channel=1 note=59 velocity=76 time=2
note_on channel=1 note=55 velocity=76 time=0
note_on channel=1 note=53 velocity=76 time=0
note_on channel=1 note=53 velocity=0 time=37
note_on channel=1 note=55 velocity=0 time=0
note_on channel=1 note=59 velocity=0 time=0
note_on channel=1 note=50 velocity=84 time=23
note_on channel=1 note=50 velocity=0 time=58
note_on channel=1 note=53 velocity=76 time=2
note_on channel=1 note=55 velocity=76 time=0
note_on channel=1 note=59 velocity=76 time=0
note_on channel=1 note=59 velocity=0 time=37
note_on channel=1 note=55 velocity=0 time=0
note_on channel=1 note=53 velocity=0 time=0
note_on channel=1 note=51 velocity=90 time=23
note_on channel=1 note=54 velocity=90 time=0
note_on channel=1 note=60 velocity=90 time=0
note_on channel=1 note=60 velocity=0 time=46
note_on channel=1 note=54 velocity=0 time=0
note_on channel=1 note=51 velocity=0 time=0
note_on channel=1 note=60 velocity=84 time=14
note_on channel=1 note=54 velocity=84 time=0
note_on channel=1 note=51 velocity=84 time=0
note_on channel=1 note=51 velocity=0 time=109
note_on channel=1 note=54 velocity=0 time=0
note_on channel=1 note=60 velocity=0 time=0
note_on channel=1 note=51 velocity=87 time=11
note_on channel=1 note=54 velocity=87 time=0
note_on channel=1 note=60 velocity=87 time=0
note_on channel=1 note=60 velocity=0 time=46
note_on channel=1 note=54 velocity=0 time=0
note_on channel=1 note=51 velocity=0 time=0
note_on channel=1 note=60 velocity=92 time=14
note_on channel=1 note=55 velocity=92 time=0
note_on channel=1 note=52 velocity=92 time=0
note_on channel=1 note=52 velocity=0 time=58
note_on channel=1 note=55 velocity=0 time=0
note_on channel=1 note=60 velocity=0 time=0
note_on channel=1 note=41 velocity=84 time=182
note_on channel=1 note=41 velocity=0 time=58
note_on channel=1 note=53 velocity=76 time=2
note_on channel=1 note=57 velocity=76 time=0
note_on channel=1 note=57 velocity=0 time=37
note_on channel=1 note=53 velocity=0 time=0
note_on channel=1 note=45 velocity=84 time=23
note_on channel=1 note=45 velocity=0 time=58
note_on channel=1 note=57 velocity=76 time=2
note_on channel=1 note=53 velocity=76 time=0
note_on channel=1 note=53 velocity=0 time=37
note_on channel=1 note=57 velocity=0 time=0
note_on channel=1 note=41 velocity=84 time=23
note_on channel=1 note=41 velocity=0 time=58
note_on channel=1 note=53 velocity=76 time=2
note_on channel=1 note=57 velocity=76 time=0
note_on channel=1 note=57 velocity=0 time=37
note_on channel=1 note=53 velocity=0 time=0
note_on channel=1 note=45 velocity=84 time=23
note_on channel=1 note=45 velocity=0 time=58
note_on channel=1 note=57 velocity=76 time=2
note_on channel=1 note=53 velocity=76 time=0
note_on channel=1 note=53 velocity=0 time=37
note_on channel=1 note=57 velocity=0 time=0
note_on channel=1 note=48 velocity=84 time=23
note_on channel=1 note=48 velocity=0 time=58
note_on channel=1 note=52 velocity=76 time=2
note_on channel=1 note=55 velocity=76 time=0
note_on channel=1 note=60 velocity=76 time=0
note_on channel=1 note=60 velocity=0 time=37
note_on channel=1 note=55 velocity=0 time=0
note_on channel=1 note=52 velocity=0 time=0
note_on channel=1 note=43 velocity=84 time=23
note_on channel=1 note=43 velocity=0 time=58
note_on channel=1 note=60 velocity=76 time=2
note_on channel=1 note=55 velocity=76 time=0
note_on channel=1 note=52 velocity=76 time=0
note_on channel=1 note=52 velocity=0 time=37
note_on channel=1 note=55 velocity=0 time=0
note_on channel=1 note=60 velocity=0 time=0
note_on channel=1 note=48 velocity=84 time=23
note_on channel=1 note=48 velocity=0 time=58
note_on channel=1 note=52 velocity=76 time=2
note_on channel=1 note=55 velocity=76 time=0
note_on channel=1 note=60 velocity=76 time=0
note_on channel=1 note=60 velocity=0 time=37
note_on channel=1 note=55 velocity=0 time=0
note_on channel=1 note=52 velocity=0 time=0
note_on channel=1 note=43 velocity=84 time=23
note_on channel=1 note=43 velocity=0 time=58
note_on channel=1 note=60 velocity=76 time=2
note_on channel=1 note=55 velocity=76 time=0
note_on channel=1 note=52 velocity=76 time=0
note_on channel=1 note=52 velocity=0 time=37
note_on channel=1 note=55 velocity=0 time=0
note_on channel=1 note=60 velocity=0 time=0
note_on channel=1 note=53 velocity=91 time=23
note_on channel=1 note=41 velocity=91 time=0
note_on channel=1 note=41 velocity=0 time=58
note_on channel=1 note=53 velocity=0 time=0
note_on channel=1 note=50 velocity=95 time=2
note_on channel=1 note=38 velocity=95 time=0
note_on channel=1 note=38 velocity=0 time=48
note_on channel=1 note=50 velocity=0 time=0
note_on channel=1 note=52 velocity=88 time=12
note_on channel=1 note=40 velocity=88 time=0
note_on channel=1 note=40 velocity=0 time=58
note_on channel=1 note=52 velocity=0 time=0
note_on channel=1 note=53 velocity=88 time=2
note_on channel=1 note=41 velocity=88 time=0
note_on channel=1 note=41 velocity=0 time=48
note_on channel=1 note=53 velocity=0 time=0
note_on channel=1 note=55 velocity=95 time=12
note_on channel=1 note=43 velocity=95 time=0
note_on channel=1 note=43 velocity=0 time=58
note_on channel=1 note=55 velocity=0 time=0
note_on channel=1 note=55 velocity=94 time=2
note_on channel=1 note=60 velocity=94 time=0
note_on channel=1 note=64 velocity=94 time=0
note_on channel=1 note=64 velocity=0 time=48
note_on channel=1 note=60 velocity=0 time=0
note_on channel=1 note=55 velocity=0 time=0
note_on channel=1 note=63 velocity=90 time=12
note_on channel=1 note=60 velocity=90 time=0
note_on channel=1 note=54 velocity=90 time=0
note_on channel=1 note=54 velocity=0 time=58
note_on channel=1 note=60 velocity=0 time=0
note_on channel=1 note=63 velocity=0 time=0
note_on channel=1 note=55 velocity=91 time=2
note_on channel=1 note=60 velocity=91 time=0
note_on channel=1 note=64 velocity=91 time=0
note_on channel=1 note=64 velocity=0 time=48
note_on channel=1 note=60 velocity=0 time=0
note_on channel=1 note=55 velocity=0 time=0
note_on channel=1 note=57 velocity=84 time=12
note_on channel=1 note=45 velocity=84 time=0
note_on channel=1 note=45 velocity=0 time=58
note_on channel=1 note=57 velocity=0 time=0
note_on channel=1 note=50 velocity=96 time=2
note_on channel=1 note=38 velocity=96 time=0
note_on channel=1 note=38 velocity=0 time=48
note_on channel=1 note=50 velocity=0 time=0
note_on channel=1 note=43 velocity=93 time=12
note_on channel=1 note=55 velocity=93 time=0
note_on channel=1 note=55 velocity=0 time=58
note_on channel=1 note=43 velocity=0 time=0
note_on channel=1 note=59 velocity=94 time=2
note_on channel=1 note=47 velocity=94 time=0
note_on channel=1 note=47 velocity=0 time=48
note_on channel=1 note=59 velocity=0 time=0
note_on channel=1 note=48 velocity=102 time=12
note_on channel=1 note=60 velocity=102 time=0
note_on channel=1 note=60 velocity=0 time=58
note_on channel=1 note=48 velocity=0 time=0
note_on channel=1 note=41 velocity=84 time=182
note_on channel=1 note=41 velocity=0 time=58
note_on channel=1 note=53 velocity=76 time=2
note_on channel=1 note=57 velocity=76 time=0
note_on channel=1 note=57 velocity=0 time=37
note_on channel=1 note=53 velocity=0 time=0
note_on channel=1 note=45 velocity=84 time=23
note_on channel=1 note=45 velocity=0 time=58
note_on channel=1 note=57 velocity=76 time=2
note_on channel=1 note=53 velocity=76 time=0
note_on channel=1 note=53 velocity=0 time=37
note_on channel=1 note=57 velocity=0 time=0
note_on channel=1 note=41 velocity=84 time=23
note_on channel=1 note=41 velocity=0 time=58
note_on channel=1 note=53 velocity=76 time=2
note_on channel=1 note=57 velocity=76 time=0
note_on channel=1 note=57 velocity=0 time=37
note_on channel=1 note=53 velocity=0 time=0
note_on channel=1 note=45 velocity=84 time=23
note_on channel=1 note=45 velocity=0 time=58
note_on channel=1 note=57 velocity=76 time=2
note_on channel=1 note=53 velocity=76 time=0
note_on channel=1 note=53 velocity=0 time=37
note_on channel=1 note=57 velocity=0 time=0
note_on channel=1 note=48 velocity=84 time=23
note_on channel=1 note=48 velocity=0 time=58
note_on channel=1 note=52 velocity=76 time=2
note_on channel=1 note=55 velocity=76 time=0
note_on channel=1 note=60 velocity=76 time=0
note_on channel=1 note=60 velocity=0 time=37
note_on channel=1 note=55 velocity=0 time=0
note_on channel=1 note=52 velocity=0 time=0
note_on channel=1 note=43 velocity=84 time=23
note_on channel=1 note=43 velocity=0 time=58
note_on channel=1 note=60 velocity=76 time=2
note_on channel=1 note=55 velocity=76 time=0
note_on channel=1 note=52 velocity=76 time=0
note_on channel=1 note=52 velocity=0 time=37
note_on channel=1 note=55 velocity=0 time=0
note_on channel=1 note=60 velocity=0 time=0
note_on channel=1 note=48 velocity=84 time=23
note_on channel=1 note=48 velocity=0 time=58
note_on channel=1 note=52 velocity=76 time=2
note_on channel=1 note=55 velocity=76 time=0
note_on channel=1 note=60 velocity=76 time=0
note_on channel=1 note=60 velocity=0 time=37
note_on channel=1 note=55 velocity=0 time=0
note_on channel=1 note=52 velocity=0 time=0
note_on channel=1 note=43 velocity=84 time=23
note_on channel=1 note=43 velocity=0 time=58
note_on channel=1 note=60 velocity=76 time=2
note_on channel=1 note=55 velocity=76 time=0
note_on channel=1 note=52 velocity=76 time=0
note_on channel=1 note=52 velocity=0 time=37
note_on channel=1 note=55 velocity=0 time=0
note_on channel=1 note=60 velocity=0 time=0
note_on channel=1 note=43 velocity=84 time=23
note_on channel=1 note=43 velocity=0 time=58
note_on channel=1 note=59 velocity=76 time=2
note_on channel=1 note=55 velocity=76 time=0
note_on channel=1 note=53 velocity=76 time=0
note_on channel=1 note=53 velocity=0 time=37
note_on channel=1 note=55 velocity=0 time=0
note_on channel=1 note=59 velocity=0 time=0
note_on channel=1 note=47 velocity=84 time=23
note_on channel=1 note=47 velocity=0 time=58
note_on channel=1 note=53 velocity=76 time=2
note_on channel=1 note=55 velocity=76 time=0
note_on channel=1 note=59 velocity=76 time=0
note_on channel=1 note=59 velocity=0 time=37
note_on channel=1 note=55 velocity=0 time=0
note_on channel=1 note=53 velocity=0 time=0
note_on channel=1 note=43 velocity=84 time=23
note_on channel=1 note=43 velocity=0 time=58
note_on channel=1 note=59 velocity=76 time=2
note_on channel=1 note=55 velocity=76 time=0
note_on channel=1 note=53 velocity=76 time=0
note_on channel=1 note=53 velocity=0 time=37
note_on channel=1 note=55 velocity=0 time=0
note_on channel=1 note=59 velocity=0 time=0
note_on channel=1 note=50 velocity=84 time=23
note_on channel=1 note=50 velocity=0 time=58
note_on channel=1 note=53 velocity=76 time=2
note_on channel=1 note=55 velocity=76 time=0
note_on channel=1 note=59 velocity=76 time=0
note_on channel=1 note=59 velocity=0 time=37
note_on channel=1 note=55 velocity=0 time=0
note_on channel=1 note=53 velocity=0 time=0
note_on channel=1 note=51 velocity=90 time=23
note_on channel=1 note=54 velocity=90 time=0
note_on channel=1 note=60 velocity=90 time=0
note_on channel=1 note=60 velocity=0 time=46
note_on channel=1 note=54 velocity=0 time=0
note_on channel=1 note=51 velocity=0 time=0
note_on channel=1 note=60 velocity=84 time=14
note_on channel=1 note=54 velocity=84 time=0
note_on channel=1 note=51 velocity=84 time=0
note_on channel=1 note=51 velocity=0 time=109
note_on channel=1 note=54 velocity=0 time=0
note_on channel=1 note=60 velocity=0 time=0
note_on channel=1 note=51 velocity=87 time=11
note_on channel=1 note=54 velocity=87 time=0
note_on channel=1 note=60 velocity=87 time=0
note_on channel=1 note=60 velocity=0 time=46
note_on channel=1 note=54 velocity=0 time=0
note_on channel=1 note=51 velocity=0 time=0
note_on channel=1 note=60 velocity=92 time=14
note_on channel=1 note=55 velocity=92 time=0
note_on channel=1 note=52 velocity=92 time=0
note_on channel=1 note=52 velocity=0 time=58
note_on channel=1 note=55 velocity=0 time=0
note_on channel=1 note=60 velocity=0 time=0
note_on channel=1 note=41 velocity=84 time=182
note_on channel=1 note=41 velocity=0 time=58
note_on channel=1 note=53 velocity=76 time=2
note_on channel=1 note=57 velocity=76 time=0
note_on channel=1 note=57 velocity=0 time=37
note_on channel=1 note=53 velocity=0 time=0
note_on channel=1 note=45 velocity=84 time=23
note_on channel=1 note=45 velocity=0 time=58
note_on channel=1 note=57 velocity=76 time=2
note_on channel=1 note=53 velocity=76 time=0
note_on channel=1 note=53 velocity=0 time=37
note_on channel=1 note=57 velocity=0 time=0
note_on channel=1 note=41 velocity=84 time=23
note_on channel=1 note=41 velocity=0 time=58
note_on channel=1 note=53 velocity=76 time=2
note_on channel=1 note=57 velocity=76 time=0
note_on channel=1 note=57 velocity=0 time=37
note_on channel=1 note=53 velocity=0 time=0
note_on channel=1 note=45 velocity=84 time=23
note_on channel=1 note=45 velocity=0 time=58
note_on channel=1 note=57 velocity=76 time=2
note_on channel=1 note=53 velocity=76 time=0
note_on channel=1 note=53 velocity=0 time=37
note_on channel=1 note=57 velocity=0 time=0
note_on channel=1 note=48 velocity=84 time=23
note_on channel=1 note=48 velocity=0 time=58
note_on channel=1 note=52 velocity=76 time=2
note_on channel=1 note=55 velocity=76 time=0
note_on channel=1 note=60 velocity=76 time=0
note_on channel=1 note=60 velocity=0 time=37
note_on channel=1 note=55 velocity=0 time=0
note_on channel=1 note=52 velocity=0 time=0
note_on channel=1 note=43 velocity=84 time=23
note_on channel=1 note=43 velocity=0 time=58
note_on channel=1 note=60 velocity=76 time=2
note_on channel=1 note=55 velocity=76 time=0
note_on channel=1 note=52 velocity=76 time=0
note_on channel=1 note=52 velocity=0 time=37
note_on channel=1 note=55 velocity=0 time=0
note_on channel=1 note=60 velocity=0 time=0
note_on channel=1 note=48 velocity=84 time=23
note_on channel=1 note=48 velocity=0 time=58
note_on channel=1 note=52 velocity=76 time=2
note_on channel=1 note=55 velocity=76 time=0
note_on channel=1 note=60 velocity=76 time=0
note_on channel=1 note=60 velocity=0 time=37
note_on channel=1 note=55 velocity=0 time=0
note_on channel=1 note=52 velocity=0 time=0
note_on channel=1 note=43 velocity=84 time=23
note_on channel=1 note=43 velocity=0 time=58
note_on channel=1 note=60 velocity=76 time=2
note_on channel=1 note=55 velocity=76 time=0
note_on channel=1 note=52 velocity=76 time=0
note_on channel=1 note=52 velocity=0 time=37
note_on channel=1 note=55 velocity=0 time=0
note_on channel=1 note=60 velocity=0 time=0
note_on channel=1 note=53 velocity=91 time=23
note_on channel=1 note=41 velocity=91 time=0
note_on channel=1 note=41 velocity=0 time=58
note_on channel=1 note=53 velocity=0 time=0
note_on channel=1 note=50 velocity=95 time=2
note_on channel=1 note=38 velocity=95 time=0
note_on channel=1 note=38 velocity=0 time=48
note_on channel=1 note=50 velocity=0 time=0
note_on channel=1 note=52 velocity=88 time=12
note_on channel=1 note=40 velocity=88 time=0
note_on channel=1 note=40 velocity=0 time=58
note_on channel=1 note=52 velocity=0 time=0
note_on channel=1 note=53 velocity=88 time=2
note_on channel=1 note=41 velocity=88 time=0
note_on channel=1 note=41 velocity=0 time=48
note_on channel=1 note=53 velocity=0 time=0
note_on channel=1 note=55 velocity=95 time=12
note_on channel=1 note=43 velocity=95 time=0
note_on channel=1 note=43 velocity=0 time=58
note_on channel=1 note=55 velocity=0 time=0
note_on channel=1 note=55 velocity=94 time=2
note_on channel=1 note=60 velocity=94 time=0
note_on channel=1 note=64 velocity=94 time=0
note_on channel=1 note=64 velocity=0 time=48
note_on channel=1 note=60 velocity=0 time=0
note_on channel=1 note=55 velocity=0 time=0
note_on channel=1 note=63 velocity=90 time=12
note_on channel=1 note=60 velocity=90 time=0
note_on channel=1 note=54 velocity=90 time=0
note_on channel=1 note=54 velocity=0 time=58
note_on channel=1 note=60 velocity=0 time=0
note_on channel=1 note=63 velocity=0 time=0
note_on channel=1 note=55 velocity=91 time=2
note_on channel=1 note=60 velocity=91 time=0
note_on channel=1 note=64 velocity=91 time=0
note_on channel=1 note=64 velocity=0 time=48
note_on channel=1 note=60 velocity=0 time=0
note_on channel=1 note=55 velocity=0 time=0
note_on channel=1 note=57 velocity=84 time=12
note_on channel=1 note=45 velocity=84 time=0
note_on channel=1 note=45 velocity=0 time=58
note_on channel=1 note=57 velocity=0 time=0
note_on channel=1 note=50 velocity=96 time=2
note_on channel=1 note=38 velocity=96 time=0
note_on channel=1 note=38 velocity=0 time=48
note_on channel=1 note=50 velocity=0 time=0
note_on channel=1 note=43 velocity=93 time=12
note_on channel=1 note=55 velocity=93 time=0
note_on channel=1 note=55 velocity=0 time=58
note_on channel=1 note=43 velocity=0 time=0
note_on channel=1 note=59 velocity=94 time=2
note_on channel=1 note=47 velocity=94 time=0
note_on channel=1 note=47 velocity=0 time=48
note_on channel=1 note=59 velocity=0 time=0
note_on channel=1 note=48 velocity=97 time=12
note_on channel=1 note=60 velocity=97 time=0
note_on channel=1 note=60 velocity=0 time=58
note_on channel=1 note=48 velocity=0 time=0
note_on channel=1 note=43 velocity=92 time=2
note_on channel=1 note=55 velocity=92 time=0
note_on channel=1 note=55 velocity=0 time=49
note_on channel=1 note=43 velocity=0 time=0
note_on channel=1 note=48 velocity=106 time=11
note_on channel=1 note=36 velocity=106 time=0
note_on channel=1 note=36 velocity=0 time=58
note_on channel=1 note=48 velocity=0 time=0
<meta message end_of_track time=0>
<meta message midi_port port=0 time=0>
<meta message track_name name='W. S. Trachtman - MIDI File' time=0>
program_change channel=2 program=0 time=0
note_on channel=2 note=36 velocity=1 time=36600
note_on channel=2 note=48 velocity=1 time=0
note_on channel=2 note=48 velocity=0 time=60
note_on channel=2 note=36 velocity=0 time=0
<meta message end_of_track time=0>
<meta message time_signature numerator=2 denominator=4 clocks_per_click=24 notated_32nd_notes_per_beat=8 time=0>
<meta message key_signature key='C' time=0>
<meta message set_tempo tempo=612245 time=0>
<meta message marker text='W.S.Trachtman - MIDI file' time=0>
<meta message end_of_track time=0>
<meta message midi_port port=0 time=0>
<meta message track_name name='The Favorite : Rag 2-Step' time=0>
program_change channel=0 program=0 time=0
control_change channel=0 control=7 value=127 time=0
control_change channel=0 control=10 value=90 time=0
control_change channel=0 control=121 value=0 time=4
control_change channel=0 control=1 value=0 time=20
control_change channel=0 control=64 value=0 time=4
aftertouch channel=0 value=0 time=16
pitchwheel channel=0 pitch=0 time=5
control_change channel=0 control=93 value=12 time=2
control_change channel=0 control=91 value=21 time=0
control_change channel=0 control=7 value=127 time=23
control_change channel=0 control=10 value=84 time=2
<meta message lyrics text='The ' time=117>
note_on channel=0 note=70 velocity=80 time=0
note_on channel=0 note=70 velocity=0 time=16
<meta message lyrics text='Favorite ' time=7>
note_on channel=0 note=69 velocity=80 time=0
note_on channel=0 note=69 velocity=0 time=32
note_on channel=0 note=70 velocity=80 time=16
note_on channel=0 note=70 velocity=0 time=16
<meta message lyrics text='by ' time=8>
note_on channel=0 note=72 velocity=80 time=0
note_on channel=0 note=72 velocity=0 time=16
<meta message lyrics text='Scott ' time=8>
note_on channel=0 note=74 velocity=80 time=0
note_on channel=0 note=74 velocity=0 time=16
<meta message lyrics text='Joplin ' time=8>
note_on channel=0 note=72 velocity=80 time=0
note_on channel=0 note=72 velocity=0 time=32
<meta message lyrics text='(1904) ' time=16>
note_on channel=0 note=65 velocity=80 time=0
note_on channel=0 note=65 velocity=0 time=16
<meta message lyrics text='; ' time=8>
note_on channel=0 note=67 velocity=80 time=0
note_on channel=0 note=67 velocity=0 time=16
<meta message lyrics text='Sequenced ' time=8>
note_on channel=0 note=63 velocity=80 time=0
note_on channel=0 note=63 velocity=0 time=16
<meta message lyrics text='by ' time=8>
note_on channel=0 note=62 velocity=80 time=0
note_on channel=0 note=62 velocity=0 time=32
<meta message lyrics text='W. ' time=16>
note_on channel=0 note=70 velocity=80 time=0
note_on channel=0 note=70 velocity=0 time=16
<meta message lyrics text='S. ' time=8>
note_on channel=0 note=67 velocity=80 time=0
note_on channel=0 note=67 velocity=0 time=16
<meta message lyrics text='Trachtman ' time=8>
<meta message lyrics text='' time=0>
<meta message lyrics text='\r' time=0>
note_on channel=0 note=64 velocity=80 time=0
note_on channel=0 note=64 velocity=0 time=16
note_on channel=0 note=65 velocity=80 time=8
note_on channel=0 note=65 velocity=0 time=32
note_on channel=0 note=72 velocity=80 time=16
note_on channel=0 note=66 velocity=80 time=0
note_on channel=0 note=63 velocity=80 time=0
note_on channel=0 note=63 velocity=0 time=32
note_on channel=0 note=66 velocity=0 time=0
note_on channel=0 note=72 velocity=0 time=0
note_on channel=0 note=61 velocity=80 time=16
note_on channel=0 note=65 velocity=80 time=0
note_on channel=0 note=73 velocity=80 time=0
note_on channel=0 note=73 velocity=0 time=32
note_on channel=0 note=65 velocity=0 time=0
note_on channel=0 note=61 velocity=0 time=0
note_on channel=0 note=78 velocity=80 time=16
note_on channel=0 note=72 velocity=80 time=0
note_on channel=0 note=70 velocity=80 time=0
note_on channel=0 note=70 velocity=0 time=32
note_on channel=0 note=72 velocity=0 time=0
note_on channel=0 note=78 velocity=0 time=0
note_on channel=0 note=69 velocity=80 time=16
note_on channel=0 note=72 velocity=80 time=0
note_on channel=0 note=77 velocity=80 time=0
note_on channel=0 note=77 velocity=0 time=32
note_on channel=0 note=72 velocity=0 time=0
note_on channel=0 note=69 velocity=0 time=0
note_on channel=0 note=75 velocity=80 time=112
note_on channel=0 note=72 velocity=80 time=0
note_on channel=0 note=72 velocity=0 time=32
note_on channel=0 note=75 velocity=0 time=0
note_on channel=0 note=74 velocity=80 time=16
note_on channel=0 note=70 velocity=80 time=0
note_on channel=0 note=70 velocity=0 time=32
note_on channel=0 note=74 velocity=0 time=0
note_on channel=0 note=82 velocity=80 time=16
note_on channel=0 note=82 velocity=0 time=16
note_on channel=0 note=79 velocity=80 time=8
note_on channel=0 note=79 velocity=0 time=32
note_on channel=0 note=77 velocity=80 time=16
note_on channel=0 note=77 velocity=0 time=16
note_on channel=0 note=74 velocity=80 time=8
note_on channel=0 note=74 velocity=0 time=16
note_on channel=0 note=70 velocity=80 time=8
note_on channel=0 note=70 velocity=0 time=16
note_on channel=0 note=69 velocity=80 time=8
note_on channel=0 note=69 velocity=0 time=16
note_on channel=0 note=77 velocity=80 time=8
note_on channel=0 note=77 velocity=0 time=32
note_on channel=0 note=79 velocity=80 time=16
note_on channel=0 note=79 velocity=0 time=16
note_on channel=0 note=72 velocity=80 time=8
note_on channel=0 note=69 velocity=80 time=0
note_on channel=0 note=72 velocity=0 time=32
note_on channel=0 note=75 velocity=80 time=16
note_on channel=0 note=69 velocity=0 time=16
note_on channel=0 note=75 velocity=0 time=16
note_on channel=0 note=74 velocity=80 time=16
note_on channel=0 note=70 velocity=80 time=0
note_on channel=0 note=70 velocity=0 time=32
note_on channel=0 note=74 velocity=0 time=0
note_on channel=0 note=82 velocity=80 time=16
note_on channel=0 note=82 velocity=0 time=16
note_on channel=0 note=79 velocity=80 time=8
note_on channel=0 note=79 velocity=0 time=32
note_on channel=0 note=77 velocity=80 time=16
note_on channel=0 note=77 velocity=0 time=16
note_on channel=0 note=74 velocity=80 time=8
note_on channel=0 note=74 velocity=0 time=16
note_on channel=0 note=70 velocity=80 time=8
note_on channel=0 note=70 velocity=0 time=16
note_on channel=0 note=69 velocity=80 time=8
note_on channel=0 note=69 velocity=0 time=16
note_on channel=0 note=77 velocity=80 time=8
note_on channel=0 note=77 velocity=0 time=32
note_on channel=0 note=79 velocity=80 time=16
note_on channel=0 note=79 velocity=0 time=16
note_on channel=0 note=72 velocity=80 time=8
note_on channel=0 note=69 velocity=80 time=0
note_on channel=0 note=72 velocity=0 time=32
note_on channel=0 note=65 velocity=80 time=16
note_on channel=0 note=69 velocity=0 time=16
note_on channel=0 note=65 velocity=0 time=16
note_on channel=0 note=64 velocity=80 time=16
note_on channel=0 note=73 velocity=80 time=11
note_on channel=0 note=64 velocity=0 time=1
note_on channel=0 note=73 velocity=0 time=11
note_on channel=0 note=70 velocity=80 time=1
note_on channel=0 note=70 velocity=0 time=12
note_on channel=0 note=67 velocity=80 time=12
note_on channel=0 note=67 velocity=0 time=32
note_on channel=0 note=65 velocity=80 time=16
note_on channel=0 note=70 velocity=80 time=12
note_on channel=0 note=65 velocity=0 time=2
note_on channel=0 note=74 velocity=80 time=10
note_on channel=0 note=70 velocity=0 time=2
note_on channel=0 note=74 velocity=0 time=12
note_on channel=0 note=77 velocity=80 time=10
note_on channel=0 note=77 velocity=0 time=32
note_on channel=0 note=64 velocity=80 time=16
note_on channel=0 note=73 velocity=80 time=11
note_on channel=0 note=64 velocity=0 time=1
note_on channel=0 note=73 velocity=0 time=11
note_on channel=0 note=70 velocity=80 time=1
note_on channel=0 note=70 velocity=0 time=12
note_on channel=0 note=67 velocity=80 time=12
note_on channel=0 note=67 velocity=0 time=32
note_on channel=0 note=65 velocity=80 time=16
note_on channel=0 note=70 velocity=80 time=12
note_on channel=0 note=65 velocity=0 time=2
note_on channel=0 note=74 velocity=80 time=10
note_on channel=0 note=70 velocity=0 time=2
note_on channel=0 note=74 velocity=0 time=12
note_on channel=0 note=77 velocity=80 time=10
note_on channel=0 note=77 velocity=0 time=16
note_on channel=0 note=75 velocity=80 time=8
note_on channel=0 note=75 velocity=0 time=16
note_on channel=0 note=79 velocity=80 time=8
note_on channel=0 note=69 velocity=80 time=0
note_on channel=0 note=69 velocity=0 time=16
note_on channel=0 note=79 velocity=0 time=0
note_on channel=0 note=75 velocity=80 time=8
note_on channel=0 note=75 velocity=0 time=16
note_on channel=0 note=79 velocity=80 time=8
note_on channel=0 note=69 velocity=80 time=0
note_on channel=0 note=69 velocity=0 time=16
note_on channel=0 note=79 velocity=0 time=0
note_on channel=0 note=72 velocity=80 time=8
note_on channel=0 note=72 velocity=0 time=16
note_on channel=0 note=75 velocity=80 time=8
note_on channel=0 note=75 velocity=0 time=16
note_on channel=0 note=77 velocity=80 time=8
note_on channel=0 note=77 velocity=0 time=16
note_on channel=0 note=75 velocity=80 time=8
note_on channel=0 note=75 velocity=0 time=16
note_on channel=0 note=72 velocity=80 time=8
note_on channel=0 note=72 velocity=0 time=16
note_on channel=0 note=74 velocity=80 time=8
note_on channel=0 note=74 velocity=0 time=16
note_on channel=0 note=73 velocity=80 time=8
note_on channel=0 note=73 velocity=0 time=16
note_on channel=0 note=74 velocity=80 time=8
note_on channel=0 note=74 velocity=0 time=16
note_on channel=0 note=70 velocity=80 time=8
note_on channel=0 note=70 velocity=0 time=16
note_on channel=0 note=72 velocity=80 time=8
note_on channel=0 note=72 velocity=0 time=16
note_on channel=0 note=71 velocity=80 time=8
note_on channel=0 note=71 velocity=0 time=16
note_on channel=0 note=72 velocity=80 time=8
note_on channel=0 note=72 velocity=0 time=16
note_on channel=0 note=65 velocity=80 time=8
note_on channel=0 note=65 velocity=0 time=16
note_on channel=0 note=74 velocity=80 time=8
note_on channel=0 note=70 velocity=80 time=0
note_on channel=0 note=70 velocity=0 time=32
note_on channel=0 note=74 velocity=0 time=0
note_on channel=0 note=82 velocity=80 time=16
note_on channel=0 note=82 velocity=0 time=16
note_on channel=0 note=79 velocity=80 time=8
note_on channel=0 note=79 velocity=0 time=32
note_on channel=0 note=77 velocity=80 time=16
note_on channel=0 note=77 velocity=0 time=16
note_on channel=0 note=74 velocity=80 time=8
note_on channel=0 note=74 velocity=0 time=16
note_on channel=0 note=70 velocity=80 time=8
note_on channel=0 note=70 velocity=0 time=16
note_on channel=0 note=69 velocity=80 time=8
note_on channel=0 note=69 velocity=0 time=16
note_on channel=0 note=77 velocity=80 time=8
note_on channel=0 note=77 velocity=0 time=32
note_on channel=0 note=79 velocity=80 time=16
note_on channel=0 note=79 velocity=0 time=16
note_on channel=0 note=72 velocity=80 time=8
note_on channel=0 note=69 velocity=80 time=0
note_on channel=0 note=72 velocity=0 time=32
note_on channel=0 note=75 velocity=80 time=16
note_on channel=0 note=69 velocity=0 time=16
note_on channel=0 note=75 velocity=0 time=16
note_on channel=0 note=74 velocity=80 time=16
note_on channel=0 note=70 velocity=80 time=0
note_on channel=0 note=70 velocity=0 time=32
note_on channel=0 note=74 velocity=0 time=0
note_on channel=0 note=82 velocity=80 time=16
note_on channel=0 note=82 velocity=0 time=16
note_on channel=0 note=79 velocity=80 time=8
note_on channel=0 note=79 velocity=0 time=32
note_on channel=0 note=77 velocity=80 time=16
note_on channel=0 note=77 velocity=0 time=16
note_on channel=0 note=74 velocity=80 time=8
note_on channel=0 note=74 velocity=0 time=16
note_on channel=0 note=70 velocity=80 time=8
note_on channel=0 note=70 velocity=0 time=16
note_on channel=0 note=69 velocity=80 time=8
note_on channel=0 note=69 velocity=0 time=16
note_on channel=0 note=77 velocity=80 time=8
note_on channel=0 note=77 velocity=0 time=32
note_on channel=0 note=79 velocity=80 time=16
note_on channel=0 note=79 velocity=0 time=16
note_on channel=0 note=72 velocity=80 time=8
note_on channel=0 note=69 velocity=80 time=0
note_on channel=0 note=72 velocity=0 time=32
note_on channel=0 note=65 velocity=80 time=16
note_on channel=0 note=69 velocity=0 time=16
note_on channel=0 note=65 velocity=0 time=16
note_on channel=0 note=64 velocity=80 time=16
note_on channel=0 note=73 velocity=80 time=11
note_on channel=0 note=64 velocity=0 time=1
note_on channel=0 note=73 velocity=0 time=11
note_on channel=0 note=70 velocity=80 time=1
note_on channel=0 note=70 velocity=0 time=12
note_on channel=0 note=67 velocity=80 time=12
note_on channel=0 note=67 velocity=0 time=32
note_on channel=0 note=65 velocity=80 time=16
note_on channel=0 note=70 velocity=80 time=12
note_on channel=0 note=65 velocity=0 time=2
note_on channel=0 note=74 velocity=80 time=10
note_on channel=0 note=70 velocity=0 time=2
note_on channel=0 note=74 velocity=0 time=12
note_on channel=0 note=77 velocity=80 time=10
note_on channel=0 note=77 velocity=0 time=32
note_on channel=0 note=64 velocity=80 time=16
note_on channel=0 note=73 velocity=80 time=11
note_on channel=0 note=64 velocity=0 time=1
note_on channel=0 note=73 velocity=0 time=11
note_on channel=0 note=70 velocity=80 time=1
note_on channel=0 note=70 velocity=0 time=12
note_on channel=0 note=67 velocity=80 time=12
note_on channel=0 note=67 velocity=0 time=32
note_on channel=0 note=65 velocity=80 time=16
note_on channel=0 note=70 velocity=80 time=12
note_on channel=0 note=65 velocity=0 time=2
note_on channel=0 note=74 velocity=80 time=10
note_on channel=0 note=70 velocity=0 time=2
note_on channel=0 note=74 velocity=0 time=12
note_on channel=0 note=77 velocity=80 time=10
note_on channel=0 note=77 velocity=0 time=16
note_on channel=0 note=75 velocity=80 time=8
note_on channel=0 note=75 velocity=0 time=16
note_on channel=0 note=79 velocity=80 time=8
note_on channel=0 note=69 velocity=80 time=0
note_on channel=0 note=69 velocity=0 time=16
note_on channel=0 note=79 velocity=0 time=0
note_on channel=0 note=75 velocity=80 time=8
note_on channel=0 note=75 velocity=0 time=16
note_on channel=0 note=79 velocity=80 time=8
note_on channel=0 note=69 velocity=80 time=0
note_on channel=0 note=69 velocity=0 time=16
note_on channel=0 note=79 velocity=0 time=0
note_on channel=0 note=72 velocity=80 time=8
note_on channel=0 note=72 velocity=0 time=16
note_on channel=0 note=75 velocity=80 time=8
note_on channel=0 note=75 velocity=0 time=16
note_on channel=0 note=77 velocity=80 time=8
note_on channel=0 note=77 velocity=0 time=16
note_on channel=0 note=75 velocity=80 time=8
note_on channel=0 note=75 velocity=0 time=16
note_on channel=0 note=72 velocity=80 time=8
note_on channel=0 note=72 velocity=0 time=16
note_on channel=0 note=70 velocity=80 time=8
note_on channel=0 note=70 velocity=0 time=96
note_on channel=0 note=75 velocity=80 time=48
note_on channel=0 note=72 velocity=80 time=0
note_on channel=0 note=72 velocity=0 time=32
note_on channel=0 note=75 velocity=0 time=0
note_on channel=0 note=74 velocity=80 time=16
note_on channel=0 note=70 velocity=80 time=0
note_on channel=0 note=70 velocity=0 time=32
note_on channel=0 note=74 velocity=0 time=0
note_on channel=0 note=82 velocity=80 time=16
note_on channel=0 note=82 velocity=0 time=16
note_on channel=0 note=79 velocity=80 time=8
note_on channel=0 note=79 velocity=0 time=32
note_on channel=0 note=77 velocity=80 time=16
note_on channel=0 note=77 velocity=0 time=16
note_on channel=0 note=74 velocity=80 time=8
note_on channel=0 note=74 velocity=0 time=16
note_on channel=0 note=70 velocity=80 time=8
note_on channel=0 note=70 velocity=0 time=16
note_on channel=0 note=69 velocity=80 time=8
note_on channel=0 note=69 velocity=0 time=16
note_on channel=0 note=77 velocity=80 time=8
note_on channel=0 note=77 velocity=0 time=32
note_on channel=0 note=79 velocity=80 time=16
note_on channel=0 note=79 velocity=0 time=16
note_on channel=0 note=72 velocity=80 time=8
note_on channel=0 note=69 velocity=80 time=0
note_on channel=0 note=72 velocity=0 time=32
note_on channel=0 note=75 velocity=80 time=16
note_on channel=0 note=69 velocity=0 time=16
note_on channel=0 note=75 velocity=0 time=16
note_on channel=0 note=74 velocity=80 time=16
note_on channel=0 note=70 velocity=80 time=0
note_on channel=0 note=70 velocity=0 time=32
note_on channel=0 note=74 velocity=0 time=0
note_on channel=0 note=82 velocity=80 time=16
note_on channel=0 note=82 velocity=0 time=16
note_on channel=0 note=79 velocity=80 time=8
note_on channel=0 note=79 velocity=0 time=32
note_on channel=0 note=77 velocity=80 time=16
note_on channel=0 note=77 velocity=0 time=16
note_on channel=0 note=74 velocity=80 time=8
note_on channel=0 note=74 velocity=0 time=16
note_on channel=0 note=70 velocity=80 time=8
note_on channel=0 note=70 velocity=0 time=16
note_on channel=0 note=69 velocity=80 time=8
note_on channel=0 note=69 velocity=0 time=16
note_on channel=0 note=77 velocity=80 time=8
note_on channel=0 note=77 velocity=0 time=32
note_on channel=0 note=79 velocity=80 time=16
note_on channel=0 note=79 velocity=0 time=16
note_on channel=0 note=72 velocity=80 time=8
note_on channel=0 note=69 velocity=80 time=0
note_on channel=0 note=72 velocity=0 time=32
note_on channel=0 note=65 velocity=80 time=16
note_on channel=0 note=69 velocity=0 time=16
note_on channel=0 note=65 velocity=0 time=16
note_on channel=0 note=64 velocity=80 time=16
note_on channel=0 note=73 velocity=80 time=11
note_on channel=0 note=64 velocity=0 time=1
note_on channel=0 note=73 velocity=0 time=11
note_on channel=0 note=70 velocity=80 time=1
note_on channel=0 note=70 velocity=0 time=12
note_on channel=0 note=67 velocity=80 time=12
note_on channel=0 note=67 velocity=0 time=32
note_on channel=0 note=65 velocity=80 time=16
note_on channel=0 note=70 velocity=80 time=12
note_on channel=0 note=65 velocity=0 time=2
note_on channel=0 note=74 velocity=80 time=10
note_on channel=0 note=70 velocity=0 time=2
note_on channel=0 note=74 velocity=0 time=12
note_on channel=0 note=77 velocity=80 time=10
note_on channel=0 note=77 velocity=0 time=32
note_on channel=0 note=64 velocity=80 time=16
note_on channel=0 note=73 velocity=80 time=11
note_on channel=0 note=64 velocity=0 time=1
note_on channel=0 note=73 velocity=0 time=11
note_on channel=0 note=70 velocity=80 time=1
note_on channel=0 note=70 velocity=0 time=12
note_on channel=0 note=67 velocity=80 time=12
note_on channel=0 note=67 velocity=0 time=32
note_on channel=0 note=65 velocity=80 time=16
note_on channel=0 note=70 velocity=80 time=12
note_on channel=0 note=65 velocity=0 time=2
note_on channel=0 note=74 velocity=80 time=10
note_on channel=0 note=70 velocity=0 time=2
note_on channel=0 note=74 velocity=0 time=12
note_on channel=0 note=77 velocity=80 time=10
note_on channel=0 note=77 velocity=0 time=16
note_on channel=0 note=75 velocity=80 time=8
note_on channel=0 note=75 velocity=0 time=16
note_on channel=0 note=79 velocity=80 time=8
note_on channel=0 note=69 velocity=80 time=0
note_on channel=0 note=69 velocity=0 time=16
note_on channel=0 note=79 velocity=0 time=0
note_on channel=0 note=75 velocity=80 time=8
note_on channel=0 note=75 velocity=0 time=16
note_on channel=0 note=79 velocity=80 time=8
note_on channel=0 note=69 velocity=80 time=0
note_on channel=0 note=69 velocity=0 time=16
note_on channel=0 note=79 velocity=0 time=0
note_on channel=0 note=72 velocity=80 time=8
note_on channel=0 note=72 velocity=0 time=16
note_on channel=0 note=75 velocity=80 time=8
note_on channel=0 note=75 velocity=0 time=16
note_on channel=0 note=77 velocity=80 time=8
note_on channel=0 note=77 velocity=0 time=16
note_on channel=0 note=75 velocity=80 time=8
note_on channel=0 note=75 velocity=0 time=16
note_on channel=0 note=72 velocity=80 time=8
note_on channel=0 note=72 velocity=0 time=16
note_on channel=0 note=74 velocity=80 time=8
note_on channel=0 note=74 velocity=0 time=16
note_on channel=0 note=73 velocity=80 time=8
note_on channel=0 note=73 velocity=0 time=16
note_on channel=0 note=74 velocity=80 time=8
note_on channel=0 note=74 velocity=0 time=16
note_on channel=0 note=70 velocity=80 time=8
note_on channel=0 note=70 velocity=0 time=16
note_on channel=0 note=72 velocity=80 time=8
note_on channel=0 note=72 velocity=0 time=16
note_on channel=0 note=71 velocity=80 time=8
note_on channel=0 note=71 velocity=0 time=16
note_on channel=0 note=72 velocity=80 time=8
note_on channel=0 note=72 velocity=0 time=16
note_on channel=0 note=65 velocity=80 time=8
note_on channel=0 note=65 velocity=0 time=16
note_on channel=0 note=74 velocity=80 time=8
note_on channel=0 note=70 velocity=80 time=0
note_on channel=0 note=70 velocity=0 time=32
note_on channel=0 note=74 velocity=0 time=0
note_on channel=0 note=82 velocity=80 time=16
note_on channel=0 note=82 velocity=0 time=16
note_on channel=0 note=79 velocity=80 time=8
note_on channel=0 note=79 velocity=0 time=32
note_on channel=0 note=77 velocity=80 time=16
note_on channel=0 note=77 velocity=0 time=16
note_on channel=0 note=74 velocity=80 time=8
note_on channel=0 note=74 velocity=0 time=16
note_on channel=0 note=70 velocity=80 time=8
note_on channel=0 note=70 velocity=0 time=16
note_on channel=0 note=69 velocity=80 time=8
note_on channel=0 note=69 velocity=0 time=16
note_on channel=0 note=77 velocity=80 time=8
note_on channel=0 note=77 velocity=0 time=32
note_on channel=0 note=79 velocity=80 time=16
note_on channel=0 note=79 velocity=0 time=16
note_on channel=0 note=72 velocity=80 time=8
note_on channel=0 note=69 velocity=80 time=0
note_on channel=0 note=72 velocity=0 time=32
note_on channel=0 note=75 velocity=80 time=16
note_on channel=0 note=69 velocity=0 time=16
note_on channel=0 note=75 velocity=0 time=16
note_on channel=0 note=74 velocity=80 time=16
note_on channel=0 note=70 velocity=80 time=0
note_on channel=0 note=70 velocity=0 time=32
note_on channel=0 note=74 velocity=0 time=0
note_on channel=0 note=82 velocity=80 time=16
note_on channel=0 note=82 velocity=0 time=16
note_on channel=0 note=79 velocity=80 time=8
note_on channel=0 note=79 velocity=0 time=32
note_on channel=0 note=77 velocity=80 time=16
note_on channel=0 note=77 velocity=0 time=16
note_on channel=0 note=74 velocity=80 time=8
note_on channel=0 note=74 velocity=0 time=16
note_on channel=0 note=70 velocity=80 time=8
note_on channel=0 note=70 velocity=0 time=16
note_on channel=0 note=69 velocity=80 time=8
note_on channel=0 note=69 velocity=0 time=16
note_on channel=0 note=77 velocity=80 time=8
note_on channel=0 note=77 velocity=0 time=32
note_on channel=0 note=79 velocity=80 time=16
note_on channel=0 note=79 velocity=0 time=16
note_on channel=0 note=72 velocity=80 time=8
note_on channel=0 note=69 velocity=80 time=0
note_on channel=0 note=72 velocity=0 time=32
note_on channel=0 note=65 velocity=80 time=16
note_on channel=0 note=69 velocity=0 time=16
note_on channel=0 note=65 velocity=0 time=16
note_on channel=0 note=64 velocity=80 time=16
note_on channel=0 note=73 velocity=80 time=11
note_on channel=0 note=64 velocity=0 time=1
note_on channel=0 note=73 velocity=0 time=11
note_on channel=0 note=70 velocity=80 time=1
note_on channel=0 note=70 velocity=0 time=12
note_on channel=0 note=67 velocity=80 time=12
note_on channel=0 note=67 velocity=0 time=32
note_on channel=0 note=65 velocity=80 time=16
note_on channel=0 note=70 velocity=80 time=12
note_on channel=0 note=65 velocity=0 time=2
note_on channel=0 note=74 velocity=80 time=10
note_on channel=0 note=70 velocity=0 time=2
note_on channel=0 note=74 velocity=0 time=12
note_on channel=0 note=77 velocity=80 time=10
note_on channel=0 note=77 velocity=0 time=32
note_on channel=0 note=64 velocity=80 time=16
note_on channel=0 note=73 velocity=80 time=11
note_on channel=0 note=64 velocity=0 time=1
note_on channel=0 note=73 velocity=0 time=11
note_on channel=0 note=70 velocity=80 time=1
note_on channel=0 note=70 velocity=0 time=12
note_on channel=0 note=67 velocity=80 time=12
note_on channel=0 note=67 velocity=0 time=32
note_on channel=0 note=65 velocity=80 time=16
note_on channel=0 note=70 velocity=80 time=12
note_on channel=0 note=65 velocity=0 time=2
note_on channel=0 note=74 velocity=80 time=10
note_on channel=0 note=70 velocity=0 time=2
note_on channel=0 note=74 velocity=0 time=12
note_on channel=0 note=77 velocity=80 time=10
note_on channel=0 note=77 velocity=0 time=16
note_on channel=0 note=75 velocity=80 time=8
note_on channel=0 note=75 velocity=0 time=16
note_on channel=0 note=79 velocity=80 time=8
note_on channel=0 note=69 velocity=80 time=0
note_on channel=0 note=69 velocity=0 time=16
note_on channel=0 note=79 velocity=0 time=0
note_on channel=0 note=75 velocity=80 time=8
note_on channel=0 note=75 velocity=0 time=16
note_on channel=0 note=79 velocity=80 time=8
note_on channel=0 note=69 velocity=80 time=0
note_on channel=0 note=69 velocity=0 time=16
note_on channel=0 note=79 velocity=0 time=0
note_on channel=0 note=72 velocity=80 time=8
note_on channel=0 note=72 velocity=0 time=16
note_on channel=0 note=75 velocity=80 time=8
note_on channel=0 note=75 velocity=0 time=16
note_on channel=0 note=77 velocity=80 time=8
note_on channel=0 note=77 velocity=0 time=16
note_on channel=0 note=75 velocity=80 time=8
note_on channel=0 note=75 velocity=0 time=16
note_on channel=0 note=72 velocity=80 time=8
note_on channel=0 note=72 velocity=0 time=16
note_on channel=0 note=70 velocity=80 time=8
note_on channel=0 note=70 velocity=0 time=64
note_on channel=0 note=74 velocity=80 time=32
note_on channel=0 note=70 velocity=80 time=0
note_on channel=0 note=82 velocity=80 time=0
note_on channel=0 note=82 velocity=0 time=32
note_on channel=0 note=70 velocity=0 time=0
note_on channel=0 note=74 velocity=0 time=0
note_on channel=0 note=74 velocity=80 time=64
note_on channel=0 note=74 velocity=0 time=32
note_on channel=0 note=79 velocity=80 time=16
note_on channel=0 note=79 velocity=0 time=16
note_on channel=0 note=74 velocity=80 time=8
note_on channel=0 note=74 velocity=0 time=32
note_on channel=0 note=73 velocity=80 time=16
note_on channel=0 note=73 velocity=0 time=16
note_on channel=0 note=74 velocity=80 time=8
note_on channel=0 note=74 velocity=0 time=32
note_on channel=0 note=75 velocity=80 time=16
note_on channel=0 note=75 velocity=0 time=32
note_on channel=0 note=74 velocity=80 time=16
note_on channel=0 note=74 velocity=0 time=16
note_on channel=0 note=72 velocity=80 time=8
note_on channel=0 note=72 velocity=0 time=32
note_on channel=0 note=79 velocity=80 time=16
note_on channel=0 note=79 velocity=0 time=16
note_on channel=0 note=75 velocity=80 time=8
note_on channel=0 note=75 velocity=0 time=16
note_on channel=0 note=72 velocity=80 time=8
note_on channel=0 note=72 velocity=0 time=16
note_on channel=0 note=74 velocity=80 time=8
note_on channel=0 note=74 velocity=0 time=32
note_on channel=0 note=79 velocity=80 time=16
note_on channel=0 note=79 velocity=0 time=16
note_on channel=0 note=74 velocity=80 time=8
note_on channel=0 note=74 velocity=0 time=32
note_on channel=0 note=73 velocity=80 time=16
note_on channel=0 note=73 velocity=0 time=16
note_on channel=0 note=74 velocity=80 time=8
note_on channel=0 note=74 velocity=0 time=32
note_on channel=0 note=75 velocity=80 time=16
note_on channel=0 note=75 velocity=0 time=32
note_on channel=0 note=74 velocity=80 time=16
note_on channel=0 note=74 velocity=0 time=16
note_on channel=0 note=72 velocity=80 time=8
note_on channel=0 note=72 velocity=0 time=48
note_on channel=0 note=74 velocity=80 time=24
note_on channel=0 note=74 velocity=0 time=32
note_on channel=0 note=72 velocity=80 time=16
note_on channel=0 note=72 velocity=0 time=16
note_on channel=0 note=70 velocity=80 time=8
note_on channel=0 note=70 velocity=0 time=16
note_on channel=0 note=69 velocity=80 time=8
note_on channel=0 note=69 velocity=0 time=16
note_on channel=0 note=70 velocity=80 time=8
note_on channel=0 note=70 velocity=0 time=16
note_on channel=0 note=67 velocity=80 time=8
note_on channel=0 note=67 velocity=0 time=32
note_on channel=0 note=62 velocity=80 time=16
note_on channel=0 note=62 velocity=0 time=32
note_on channel=0 note=63 velocity=80 time=16
note_on channel=0 note=63 velocity=0 time=16
note_on channel=0 note=62 velocity=80 time=8
note_on channel=0 note=62 velocity=0 time=16
note_on channel=0 note=60 velocity=80 time=8
note_on channel=0 note=60 velocity=0 time=16
note_on channel=0 note=62 velocity=80 time=8
note_on channel=0 note=62 velocity=0 time=16
note_on channel=0 note=58 velocity=80 time=8
note_on channel=0 note=58 velocity=0 time=32
note_on channel=0 note=62 velocity=80 time=16
note_on channel=0 note=67 velocity=80 time=0
note_on channel=0 note=70 velocity=80 time=0
note_on channel=0 note=70 velocity=0 time=32
note_on channel=0 note=67 velocity=0 time=0
note_on channel=0 note=62 velocity=0 time=0
note_on channel=0 note=67 velocity=80 time=16
note_on channel=0 note=70 velocity=80 time=0
note_on channel=0 note=72 velocity=80 time=0
note_on channel=0 note=72 velocity=0 time=64
note_on channel=0 note=70 velocity=0 time=0
note_on channel=0 note=67 velocity=0 time=0
note_on channel=0 note=67 velocity=80 time=32
note_on channel=0 note=70 velocity=80 time=0
note_on channel=0 note=75 velocity=80 time=0
note_on channel=0 note=75 velocity=0 time=64
note_on channel=0 note=70 velocity=0 time=0
note_on channel=0 note=67 velocity=0 time=0
note_on channel=0 note=74 velocity=80 time=32
note_on channel=0 note=69 velocity=80 time=0
note_on channel=0 note=66 velocity=80 time=0
note_on channel=0 note=66 velocity=0 time=32
note_on channel=0 note=69 velocity=0 time=0
note_on channel=0 note=74 velocity=0 time=0
note_on channel=0 note=74 velocity=80 time=64
note_on channel=0 note=78 velocity=80 time=0
note_on channel=0 note=81 velocity=80 time=0
note_on channel=0 note=86 velocity=80 time=0
note_on channel=0 note=86 velocity=0 time=64
note_on channel=0 note=74 velocity=0 time=0
note_on channel=0 note=78 velocity=0 time=0
note_on channel=0 note=81 velocity=0 time=0
note_on channel=0 note=74 velocity=80 time=32
note_on channel=0 note=74 velocity=0 time=32
note_on channel=0 note=79 velocity=80 time=16
note_on channel=0 note=79 velocity=0 time=16
note_on channel=0 note=74 velocity=80 time=8
note_on channel=0 note=74 velocity=0 time=32
note_on channel=0 note=73 velocity=80 time=16
note_on channel=0 note=73 velocity=0 time=16
note_on channel=0 note=74 velocity=80 time=8
note_on channel=0 note=74 velocity=0 time=32
note_on channel=0 note=75 velocity=80 time=16
note_on channel=0 note=75 velocity=0 time=32
note_on channel=0 note=74 velocity=80 time=16
note_on channel=0 note=74 velocity=0 time=16
note_on channel=0 note=72 velocity=80 time=8
note_on channel=0 note=72 velocity=0 time=32
note_on channel=0 note=79 velocity=80 time=16
note_on channel=0 note=79 velocity=0 time=16
note_on channel=0 note=75 velocity=80 time=8
note_on channel=0 note=75 velocity=0 time=16
note_on channel=0 note=72 velocity=80 time=8
note_on channel=0 note=72 velocity=0 time=16
note_on channel=0 note=74 velocity=80 time=8
note_on channel=0 note=74 velocity=0 time=32
note_on channel=0 note=79 velocity=80 time=16
note_on channel=0 note=79 velocity=0 time=16
note_on channel=0 note=74 velocity=80 time=8
note_on channel=0 note=74 velocity=0 time=32
note_on channel=0 note=73 velocity=80 time=16
note_on channel=0 note=73 velocity=0 time=16
note_on channel=0 note=74 velocity=80 time=8
note_on channel=0 note=74 velocity=0 time=32
note_on channel=0 note=75 velocity=80 time=16
note_on channel=0 note=75 velocity=0 time=32
note_on channel=0 note=74 velocity=80 time=16
note_on channel=0 note=74 velocity=0 time=16
note_on channel=0 note=72 velocity=80 time=8
note_on channel=0 note=72 velocity=0 time=48
note_on channel=0 note=63 velocity=80 time=24
note_on channel=0 note=63 velocity=0 time=32
note_on channel=0 note=67 velocity=80 time=16
note_on channel=0 note=67 velocity=0 time=16
note_on channel=0 note=66 velocity=80 time=8
note_on channel=0 note=66 velocity=0 time=16
note_on channel=0 note=67 velocity=80 time=8
note_on channel=0 note=67 velocity=0 time=16
note_on channel=0 note=69 velocity=80 time=8
note_on channel=0 note=69 velocity=0 time=16
note_on channel=0 note=70 velocity=80 time=8
note_on channel=0 note=70 velocity=0 time=16
note_on channel=0 note=69 velocity=80 time=8
note_on channel=0 note=69 velocity=0 time=16
note_on channel=0 note=70 velocity=80 time=8
note_on channel=0 note=70 velocity=0 time=16
note_on channel=0 note=72 velocity=80 time=8
note_on channel=0 note=72 velocity=0 time=16
note_on channel=0 note=74 velocity=80 time=8
note_on channel=0 note=74 velocity=0 time=32
note_on channel=0 note=77 velocity=80 time=16
note_on channel=0 note=74 velocity=80 time=0
note_on channel=0 note=70 velocity=80 time=0
note_on channel=0 note=65 velocity=80 time=0
note_on channel=0 note=65 velocity=0 time=64
note_on channel=0 note=77 velocity=0 time=0
note_on channel=0 note=74 velocity=0 time=0
note_on channel=0 note=70 velocity=0 time=0
note_on channel=0 note=67 velocity=80 time=32
note_on channel=0 note=70 velocity=80 time=0
note_on channel=0 note=73 velocity=80 time=0
note_on channel=0 note=79 velocity=80 time=0
note_on channel=0 note=79 velocity=0 time=32
note_on channel=0 note=67 velocity=0 time=0
note_on channel=0 note=70 velocity=0 time=0
note_on channel=0 note=73 velocity=0 time=0
note_on channel=0 note=65 velocity=80 time=16
note_on channel=0 note=70 velocity=80 time=0
note_on channel=0 note=74 velocity=80 time=0
note_on channel=0 note=74 velocity=0 time=64
note_on channel=0 note=70 velocity=0 time=0
note_on channel=0 note=65 velocity=0 time=0
note_on channel=0 note=64 velocity=80 time=32
note_on channel=0 note=70 velocity=80 time=0
note_on channel=0 note=74 velocity=80 time=0
note_on channel=0 note=74 velocity=0 time=32
note_on channel=0 note=70 velocity=0 time=0
note_on channel=0 note=64 velocity=0 time=0
note_on channel=0 note=72 velocity=80 time=16
note_on channel=0 note=65 velocity=80 time=0
note_on channel=0 note=63 velocity=80 time=0
note_on channel=0 note=63 velocity=0 time=32
note_on channel=0 note=65 velocity=0 time=0
note_on channel=0 note=72 velocity=0 time=0
note_on channel=0 note=62 velocity=80 time=16
note_on channel=0 note=70 velocity=80 time=0
note_on channel=0 note=70 velocity=0 time=64
note_on channel=0 note=62 velocity=0 time=0
note_on channel=0 note=74 velocity=80 time=32
note_on channel=0 note=66 velocity=80 time=0
note_on channel=0 note=62 velocity=80 time=0
note_on channel=0 note=62 velocity=0 time=64
note_on channel=0 note=66 velocity=0 time=0
note_on channel=0 note=74 velocity=0 time=0
note_on channel=0 note=74 velocity=80 time=32
note_on channel=0 note=74 velocity=0 time=32
note_on channel=0 note=79 velocity=80 time=16
note_on channel=0 note=79 velocity=0 time=16
note_on channel=0 note=74 velocity=80 time=8
note_on channel=0 note=74 velocity=0 time=32
note_on channel=0 note=73 velocity=80 time=16
note_on channel=0 note=73 velocity=0 time=16
note_on channel=0 note=74 velocity=80 time=8
note_on channel=0 note=74 velocity=0 time=32
note_on channel=0 note=75 velocity=80 time=16
note_on channel=0 note=75 velocity=0 time=32
note_on channel=0 note=74 velocity=80 time=16
note_on channel=0 note=74 velocity=0 time=16
note_on channel=0 note=72 velocity=80 time=8
note_on channel=0 note=72 velocity=0 time=32
note_on channel=0 note=79 velocity=80 time=16
note_on channel=0 note=79 velocity=0 time=16
note_on channel=0 note=75 velocity=80 time=8
note_on channel=0 note=75 velocity=0 time=16
note_on channel=0 note=72 velocity=80 time=8
note_on channel=0 note=72 velocity=0 time=16
note_on channel=0 note=74 velocity=80 time=8
note_on channel=0 note=74 velocity=0 time=32
note_on channel=0 note=79 velocity=80 time=16
note_on channel=0 note=79 velocity=0 time=16
note_on channel=0 note=74 velocity=80 time=8
note_on channel=0 note=74 velocity=0 time=32
note_on channel=0 note=73 velocity=80 time=16
note_on channel=0 note=73 velocity=0 time=16
note_on channel=0 note=74 velocity=80 time=8
note_on channel=0 note=74 velocity=0 time=32
note_on channel=0 note=75 velocity=80 time=16
note_on channel=0 note=75 velocity=0 time=32
note_on channel=0 note=74 velocity=80 time=16
note_on channel=0 note=74 velocity=0 time=16
note_on channel=0 note=72 velocity=80 time=8
note_on channel=0 note=72 velocity=0 time=48
note_on channel=0 note=74 velocity=80 time=24
note_on channel=0 note=74 velocity=0 time=32
note_on channel=0 note=72 velocity=80 time=16
note_on channel=0 note=72 velocity=0 time=16
note_on channel=0 note=70 velocity=80 time=8
note_on channel=0 note=70 velocity=0 time=16
note_on channel=0 note=69 velocity=80 time=8
note_on channel=0 note=69 velocity=0 time=16
note_on channel=0 note=70 velocity=80 time=8
note_on channel=0 note=70 velocity=0 time=16
note_on channel=0 note=67 velocity=80 time=8
note_on channel=0 note=67 velocity=0 time=32
note_on channel=0 note=62 velocity=80 time=16
note_on channel=0 note=62 velocity=0 time=32
note_on channel=0 note=63 velocity=80 time=16
note_on channel=0 note=63 velocity=0 time=16
note_on channel=0 note=62 velocity=80 time=8
note_on channel=0 note=62 velocity=0 time=16
note_on channel=0 note=60 velocity=80 time=8
note_on channel=0 note=60 velocity=0 time=16
note_on channel=0 note=62 velocity=80 time=8
note_on channel=0 note=62 velocity=0 time=16
note_on channel=0 note=58 velocity=80 time=8
note_on channel=0 note=58 velocity=0 time=32
note_on channel=0 note=62 velocity=80 time=16
note_on channel=0 note=67 velocity=80 time=0
note_on channel=0 note=70 velocity=80 time=0
note_on channel=0 note=70 velocity=0 time=32
note_on channel=0 note=67 velocity=0 time=0
note_on channel=0 note=62 velocity=0 time=0
note_on channel=0 note=67 velocity=80 time=16
note_on channel=0 note=70 velocity=80 time=0
note_on channel=0 note=72 velocity=80 time=0
note_on channel=0 note=72 velocity=0 time=64
note_on channel=0 note=70 velocity=0 time=0
note_on channel=0 note=67 velocity=0 time=0
note_on channel=0 note=67 velocity=80 time=32
note_on channel=0 note=70 velocity=80 time=0
note_on channel=0 note=75 velocity=80 time=0
note_on channel=0 note=75 velocity=0 time=64
note_on channel=0 note=70 velocity=0 time=0
note_on channel=0 note=67 velocity=0 time=0
note_on channel=0 note=74 velocity=80 time=32
note_on channel=0 note=69 velocity=80 time=0
note_on channel=0 note=66 velocity=80 time=0
note_on channel=0 note=66 velocity=0 time=32
note_on channel=0 note=69 velocity=0 time=0
note_on channel=0 note=74 velocity=0 time=0
note_on channel=0 note=74 velocity=80 time=64
note_on channel=0 note=78 velocity=80 time=0
note_on channel=0 note=81 velocity=80 time=0
note_on channel=0 note=86 velocity=80 time=0
note_on channel=0 note=86 velocity=0 time=64
note_on channel=0 note=74 velocity=0 time=0
note_on channel=0 note=78 velocity=0 time=0
note_on channel=0 note=81 velocity=0 time=0
note_on channel=0 note=74 velocity=80 time=32
note_on channel=0 note=74 velocity=0 time=32
note_on channel=0 note=79 velocity=80 time=16
note_on channel=0 note=79 velocity=0 time=16
note_on channel=0 note=74 velocity=80 time=8
note_on channel=0 note=74 velocity=0 time=32
note_on channel=0 note=73 velocity=80 time=16
note_on channel=0 note=73 velocity=0 time=16
note_on channel=0 note=74 velocity=80 time=8
note_on channel=0 note=74 velocity=0 time=32
note_on channel=0 note=75 velocity=80 time=16
note_on channel=0 note=75 velocity=0 time=32
note_on channel=0 note=74 velocity=80 time=16
note_on channel=0 note=74 velocity=0 time=16
note_on channel=0 note=72 velocity=80 time=8
note_on channel=0 note=72 velocity=0 time=32
note_on channel=0 note=79 velocity=80 time=16
note_on channel=0 note=79 velocity=0 time=16
note_on channel=0 note=75 velocity=80 time=8
note_on channel=0 note=75 velocity=0 time=16
note_on channel=0 note=72 velocity=80 time=8
note_on channel=0 note=72 velocity=0 time=16
note_on channel=0 note=74 velocity=80 time=8
note_on channel=0 note=74 velocity=0 time=32
note_on channel=0 note=79 velocity=80 time=16
note_on channel=0 note=79 velocity=0 time=16
note_on channel=0 note=74 velocity=80 time=8
note_on channel=0 note=74 velocity=0 time=32
note_on channel=0 note=73 velocity=80 time=16
note_on channel=0 note=73 velocity=0 time=16
note_on channel=0 note=74 velocity=80 time=8
note_on channel=0 note=74 velocity=0 time=32
note_on channel=0 note=75 velocity=80 time=16
note_on channel=0 note=75 velocity=0 time=32
note_on channel=0 note=74 velocity=80 time=16
note_on channel=0 note=74 velocity=0 time=16
note_on channel=0 note=72 velocity=80 time=8
note_on channel=0 note=72 velocity=0 time=48
note_on channel=0 note=63 velocity=80 time=24
note_on channel=0 note=63 velocity=0 time=32
note_on channel=0 note=67 velocity=80 time=16
note_on channel=0 note=67 velocity=0 time=16
note_on channel=0 note=66 velocity=80 time=8
note_on channel=0 note=66 velocity=0 time=16
note_on channel=0 note=67 velocity=80 time=8
note_on channel=0 note=67 velocity=0 time=16
note_on channel=0 note=69 velocity=80 time=8
note_on channel=0 note=69 velocity=0 time=16
note_on channel=0 note=70 velocity=80 time=8
note_on channel=0 note=70 velocity=0 time=16
note_on channel=0 note=69 velocity=80 time=8
note_on channel=0 note=69 velocity=0 time=16
note_on channel=0 note=70 velocity=80 time=8
note_on channel=0 note=70 velocity=0 time=16
note_on channel=0 note=72 velocity=80 time=8
note_on channel=0 note=72 velocity=0 time=16
note_on channel=0 note=74 velocity=80 time=8
note_on channel=0 note=74 velocity=0 time=32
note_on channel=0 note=77 velocity=80 time=16
note_on channel=0 note=74 velocity=80 time=0
note_on channel=0 note=70 velocity=80 time=0
note_on channel=0 note=65 velocity=80 time=0
note_on channel=0 note=65 velocity=0 time=64
note_on channel=0 note=77 velocity=0 time=0
note_on channel=0 note=74 velocity=0 time=0
note_on channel=0 note=70 velocity=0 time=0
note_on channel=0 note=67 velocity=80 time=32
note_on channel=0 note=70 velocity=80 time=0
note_on channel=0 note=73 velocity=80 time=0
note_on channel=0 note=79 velocity=80 time=0
note_on channel=0 note=79 velocity=0 time=32
note_on channel=0 note=67 velocity=0 time=0
note_on channel=0 note=70 velocity=0 time=0
note_on channel=0 note=73 velocity=0 time=0
note_on channel=0 note=65 velocity=80 time=16
note_on channel=0 note=70 velocity=80 time=0
note_on channel=0 note=74 velocity=80 time=0
note_on channel=0 note=74 velocity=0 time=64
note_on channel=0 note=70 velocity=0 time=0
note_on channel=0 note=65 velocity=0 time=0
note_on channel=0 note=64 velocity=80 time=32
note_on channel=0 note=70 velocity=80 time=0
note_on channel=0 note=74 velocity=80 time=0
note_on channel=0 note=74 velocity=0 time=32
note_on channel=0 note=70 velocity=0 time=0
note_on channel=0 note=64 velocity=0 time=0
note_on channel=0 note=72 velocity=80 time=16
note_on channel=0 note=65 velocity=80 time=0
note_on channel=0 note=63 velocity=80 time=0
note_on channel=0 note=63 velocity=0 time=32
note_on channel=0 note=65 velocity=0 time=0
note_on channel=0 note=72 velocity=0 time=0
note_on channel=0 note=62 velocity=80 time=16
note_on channel=0 note=70 velocity=80 time=0
note_on channel=0 note=70 velocity=0 time=64
note_on channel=0 note=62 velocity=0 time=0
note_on channel=0 note=69 velocity=80 time=32
note_on channel=0 note=77 velocity=80 time=0
note_on channel=0 note=77 velocity=0 time=32
note_on channel=0 note=75 velocity=80 time=16
note_on channel=0 note=69 velocity=0 time=16
note_on channel=0 note=75 velocity=0 time=16
note_on channel=0 note=74 velocity=80 time=16
note_on channel=0 note=70 velocity=80 time=0
note_on channel=0 note=70 velocity=0 time=32
note_on channel=0 note=74 velocity=0 time=0
note_on channel=0 note=82 velocity=80 time=16
note_on channel=0 note=82 velocity=0 time=16
note_on channel=0 note=79 velocity=80 time=8
note_on channel=0 note=79 velocity=0 time=32
note_on channel=0 note=77 velocity=80 time=16
note_on channel=0 note=77 velocity=0 time=16
note_on channel=0 note=74 velocity=80 time=8
note_on channel=0 note=74 velocity=0 time=16
note_on channel=0 note=70 velocity=80 time=8
note_on channel=0 note=70 velocity=0 time=16
note_on channel=0 note=69 velocity=80 time=8
note_on channel=0 note=69 velocity=0 time=16
note_on channel=0 note=77 velocity=80 time=8
note_on channel=0 note=77 velocity=0 time=32
note_on channel=0 note=79 velocity=80 time=16
note_on channel=0 note=79 velocity=0 time=16
note_on channel=0 note=72 velocity=80 time=8
note_on channel=0 note=69 velocity=80 time=0
note_on channel=0 note=72 velocity=0 time=32
note_on channel=0 note=75 velocity=80 time=16
note_on channel=0 note=69 velocity=0 time=16
note_on channel=0 note=75 velocity=0 time=16
note_on channel=0 note=74 velocity=80 time=16
note_on channel=0 note=70 velocity=80 time=0
note_on channel=0 note=70 velocity=0 time=32
note_on channel=0 note=74 velocity=0 time=0
note_on channel=0 note=82 velocity=80 time=16
note_on channel=0 note=82 velocity=0 time=16
note_on channel=0 note=79 velocity=80 time=8
note_on channel=0 note=79 velocity=0 time=32
note_on channel=0 note=77 velocity=80 time=16
note_on channel=0 note=77 velocity=0 time=16
note_on channel=0 note=74 velocity=80 time=8
note_on channel=0 note=74 velocity=0 time=16
note_on channel=0 note=70 velocity=80 time=8
note_on channel=0 note=70 velocity=0 time=16
note_on channel=0 note=69 velocity=80 time=8
note_on channel=0 note=69 velocity=0 time=16
note_on channel=0 note=77 velocity=80 time=8
note_on channel=0 note=77 velocity=0 time=32
note_on channel=0 note=79 velocity=80 time=16
note_on channel=0 note=79 velocity=0 time=16
note_on channel=0 note=72 velocity=80 time=8
note_on channel=0 note=69 velocity=80 time=0
note_on channel=0 note=72 velocity=0 time=32
note_on channel=0 note=65 velocity=80 time=16
note_on channel=0 note=69 velocity=0 time=16
note_on channel=0 note=65 velocity=0 time=16
note_on channel=0 note=64 velocity=80 time=16
note_on channel=0 note=73 velocity=80 time=11
note_on channel=0 note=64 velocity=0 time=1
note_on channel=0 note=73 velocity=0 time=11
note_on channel=0 note=70 velocity=80 time=1
note_on channel=0 note=70 velocity=0 time=12
note_on channel=0 note=67 velocity=80 time=12
note_on channel=0 note=67 velocity=0 time=32
note_on channel=0 note=65 velocity=80 time=16
note_on channel=0 note=70 velocity=80 time=12
note_on channel=0 note=65 velocity=0 time=2
note_on channel=0 note=74 velocity=80 time=10
note_on channel=0 note=70 velocity=0 time=2
note_on channel=0 note=74 velocity=0 time=12
note_on channel=0 note=77 velocity=80 time=10
note_on channel=0 note=77 velocity=0 time=32
note_on channel=0 note=64 velocity=80 time=16
note_on channel=0 note=73 velocity=80 time=11
note_on channel=0 note=64 velocity=0 time=1
note_on channel=0 note=73 velocity=0 time=11
note_on channel=0 note=70 velocity=80 time=1
note_on channel=0 note=70 velocity=0 time=12
note_on channel=0 note=67 velocity=80 time=12
note_on channel=0 note=67 velocity=0 time=32
note_on channel=0 note=65 velocity=80 time=16
note_on channel=0 note=70 velocity=80 time=12
note_on channel=0 note=65 velocity=0 time=2
note_on channel=0 note=74 velocity=80 time=10
note_on channel=0 note=70 velocity=0 time=2
note_on channel=0 note=74 velocity=0 time=12
note_on channel=0 note=77 velocity=80 time=10
note_on channel=0 note=77 velocity=0 time=16
note_on channel=0 note=75 velocity=80 time=8
note_on channel=0 note=75 velocity=0 time=16
note_on channel=0 note=79 velocity=80 time=8
note_on channel=0 note=69 velocity=80 time=0
note_on channel=0 note=69 velocity=0 time=16
note_on channel=0 note=79 velocity=0 time=0
note_on channel=0 note=75 velocity=80 time=8
note_on channel=0 note=75 velocity=0 time=16
note_on channel=0 note=79 velocity=80 time=8
note_on channel=0 note=69 velocity=80 time=0
note_on channel=0 note=69 velocity=0 time=16
note_on channel=0 note=79 velocity=0 time=0
note_on channel=0 note=72 velocity=80 time=8
note_on channel=0 note=72 velocity=0 time=16
note_on channel=0 note=75 velocity=80 time=8
note_on channel=0 note=75 velocity=0 time=16
note_on channel=0 note=77 velocity=80 time=8
note_on channel=0 note=77 velocity=0 time=16
note_on channel=0 note=75 velocity=80 time=8
note_on channel=0 note=75 velocity=0 time=16
note_on channel=0 note=72 velocity=80 time=8
note_on channel=0 note=72 velocity=0 time=16
note_on channel=0 note=74 velocity=80 time=8
note_on channel=0 note=74 velocity=0 time=16
note_on channel=0 note=73 velocity=80 time=8
note_on channel=0 note=73 velocity=0 time=16
note_on channel=0 note=74 velocity=80 time=8
note_on channel=0 note=74 velocity=0 time=16
note_on channel=0 note=70 velocity=80 time=8
note_on channel=0 note=70 velocity=0 time=16
note_on channel=0 note=72 velocity=80 time=8
note_on channel=0 note=72 velocity=0 time=16
note_on channel=0 note=71 velocity=80 time=8
note_on channel=0 note=71 velocity=0 time=16
note_on channel=0 note=72 velocity=80 time=8
note_on channel=0 note=72 velocity=0 time=16
note_on channel=0 note=65 velocity=80 time=8
note_on channel=0 note=65 velocity=0 time=16
note_on channel=0 note=74 velocity=80 time=8
note_on channel=0 note=70 velocity=80 time=0
note_on channel=0 note=70 velocity=0 time=32
note_on channel=0 note=74 velocity=0 time=0
note_on channel=0 note=82 velocity=80 time=16
note_on channel=0 note=82 velocity=0 time=16
note_on channel=0 note=79 velocity=80 time=8
note_on channel=0 note=79 velocity=0 time=32
note_on channel=0 note=77 velocity=80 time=16
note_on channel=0 note=77 velocity=0 time=16
note_on channel=0 note=74 velocity=80 time=8
note_on channel=0 note=74 velocity=0 time=16
note_on channel=0 note=70 velocity=80 time=8
note_on channel=0 note=70 velocity=0 time=16
note_on channel=0 note=69 velocity=80 time=8
note_on channel=0 note=69 velocity=0 time=16
note_on channel=0 note=77 velocity=80 time=8
note_on channel=0 note=77 velocity=0 time=32
note_on channel=0 note=79 velocity=80 time=16
note_on channel=0 note=79 velocity=0 time=16
note_on channel=0 note=72 velocity=80 time=8
note_on channel=0 note=69 velocity=80 time=0
note_on channel=0 note=72 velocity=0 time=32
note_on channel=0 note=75 velocity=80 time=16
note_on channel=0 note=69 velocity=0 time=16
note_on channel=0 note=75 velocity=0 time=16
note_on channel=0 note=74 velocity=80 time=16
note_on channel=0 note=70 velocity=80 time=0
note_on channel=0 note=70 velocity=0 time=32
note_on channel=0 note=74 velocity=0 time=0
note_on channel=0 note=82 velocity=80 time=16
note_on channel=0 note=82 velocity=0 time=16
note_on channel=0 note=79 velocity=80 time=8
note_on channel=0 note=79 velocity=0 time=32
note_on channel=0 note=77 velocity=80 time=16
note_on channel=0 note=77 velocity=0 time=16
note_on channel=0 note=74 velocity=80 time=8
note_on channel=0 note=74 velocity=0 time=16
note_on channel=0 note=70 velocity=80 time=8
note_on channel=0 note=70 velocity=0 time=16
note_on channel=0 note=69 velocity=80 time=8
note_on channel=0 note=69 velocity=0 time=16
note_on channel=0 note=77 velocity=80 time=8
note_on channel=0 note=77 velocity=0 time=32
note_on channel=0 note=79 velocity=80 time=16
note_on channel=0 note=79 velocity=0 time=16
note_on channel=0 note=72 velocity=80 time=8
note_on channel=0 note=69 velocity=80 time=0
note_on channel=0 note=72 velocity=0 time=32
note_on channel=0 note=65 velocity=80 time=16
note_on channel=0 note=69 velocity=0 time=16
note_on channel=0 note=65 velocity=0 time=16
note_on channel=0 note=64 velocity=80 time=16
note_on channel=0 note=73 velocity=80 time=11
note_on channel=0 note=64 velocity=0 time=1
note_on channel=0 note=73 velocity=0 time=11
note_on channel=0 note=70 velocity=80 time=1
note_on channel=0 note=70 velocity=0 time=12
note_on channel=0 note=67 velocity=80 time=12
note_on channel=0 note=67 velocity=0 time=32
note_on channel=0 note=65 velocity=80 time=16
note_on channel=0 note=70 velocity=80 time=12
note_on channel=0 note=65 velocity=0 time=2
note_on channel=0 note=74 velocity=80 time=10
note_on channel=0 note=70 velocity=0 time=2
note_on channel=0 note=74 velocity=0 time=12
note_on channel=0 note=77 velocity=80 time=10
note_on channel=0 note=77 velocity=0 time=32
note_on channel=0 note=64 velocity=80 time=16
note_on channel=0 note=73 velocity=80 time=11
note_on channel=0 note=64 velocity=0 time=1
note_on channel=0 note=73 velocity=0 time=11
note_on channel=0 note=70 velocity=80 time=1
note_on channel=0 note=70 velocity=0 time=12
note_on channel=0 note=67 velocity=80 time=12
note_on channel=0 note=67 velocity=0 time=32
note_on channel=0 note=65 velocity=80 time=16
note_on channel=0 note=70 velocity=80 time=12
note_on channel=0 note=65 velocity=0 time=2
note_on channel=0 note=74 velocity=80 time=10
note_on channel=0 note=70 velocity=0 time=2
note_on channel=0 note=74 velocity=0 time=12
note_on channel=0 note=77 velocity=80 time=10
note_on channel=0 note=77 velocity=0 time=16
note_on channel=0 note=75 velocity=80 time=8
note_on channel=0 note=75 velocity=0 time=16
note_on channel=0 note=79 velocity=80 time=8
note_on channel=0 note=69 velocity=80 time=0
note_on channel=0 note=69 velocity=0 time=16
note_on channel=0 note=79 velocity=0 time=0
note_on channel=0 note=75 velocity=80 time=8
note_on channel=0 note=75 velocity=0 time=16
note_on channel=0 note=79 velocity=80 time=8
note_on channel=0 note=69 velocity=80 time=0
note_on channel=0 note=69 velocity=0 time=16
note_on channel=0 note=79 velocity=0 time=0
note_on channel=0 note=72 velocity=80 time=8
note_on channel=0 note=72 velocity=0 time=16
note_on channel=0 note=75 velocity=80 time=8
note_on channel=0 note=75 velocity=0 time=16
note_on channel=0 note=77 velocity=80 time=8
note_on channel=0 note=77 velocity=0 time=16
note_on channel=0 note=75 velocity=80 time=8
note_on channel=0 note=75 velocity=0 time=16
note_on channel=0 note=72 velocity=80 time=8
note_on channel=0 note=72 velocity=0 time=16
note_on channel=0 note=70 velocity=80 time=8
note_on channel=0 note=70 velocity=0 time=64
note_on channel=0 note=74 velocity=80 time=32
note_on channel=0 note=70 velocity=80 time=0
note_on channel=0 note=82 velocity=80 time=0
note_on channel=0 note=82 velocity=0 time=32
note_on channel=0 note=70 velocity=0 time=0
note_on channel=0 note=74 velocity=0 time=0
note_on channel=0 note=67 velocity=80 time=64
note_on channel=0 note=75 velocity=80 time=0
note_on channel=0 note=79 velocity=80 time=0
note_on channel=0 note=79 velocity=0 time=64
note_on channel=0 note=75 velocity=0 time=0
note_on channel=0 note=67 velocity=0 time=0
note_on channel=0 note=66 velocity=80 time=32
note_on channel=0 note=75 velocity=80 time=0
note_on channel=0 note=78 velocity=80 time=0
note_on channel=0 note=78 velocity=0 time=64
note_on channel=0 note=75 velocity=0 time=0
note_on channel=0 note=66 velocity=0 time=0
note_on channel=0 note=67 velocity=80 time=32
note_on channel=0 note=75 velocity=80 time=0
note_on channel=0 note=79 velocity=80 time=0
note_on channel=0 note=79 velocity=0 time=64
note_on channel=0 note=75 velocity=0 time=0
note_on channel=0 note=67 velocity=0 time=0
note_on channel=0 note=70 velocity=80 time=32
note_on channel=0 note=79 velocity=80 time=0
note_on channel=0 note=82 velocity=80 time=0
note_on channel=0 note=82 velocity=0 time=64
note_on channel=0 note=79 velocity=0 time=0
note_on channel=0 note=70 velocity=0 time=0
note_on channel=0 note=75 velocity=80 time=56
note_on channel=0 note=75 velocity=0 time=16
note_on channel=0 note=68 velocity=80 time=8
note_on channel=0 note=80 velocity=80 time=0
note_on channel=0 note=80 velocity=0 time=16
note_on channel=0 note=68 velocity=0 time=0
note_on channel=0 note=75 velocity=80 time=8
note_on channel=0 note=75 velocity=0 time=16
note_on channel=0 note=77 velocity=80 time=8
note_on channel=0 note=77 velocity=0 time=16
note_on channel=0 note=80 velocity=80 time=8
note_on channel=0 note=68 velocity=80 time=0
note_on channel=0 note=68 velocity=0 time=32
note_on channel=0 note=80 velocity=0 time=0
note_on channel=0 note=75 velocity=80 time=16
note_on channel=0 note=75 velocity=0 time=16
note_on channel=0 note=67 velocity=80 time=8
note_on channel=0 note=75 velocity=80 time=0
note_on channel=0 note=79 velocity=80 time=0
note_on channel=0 note=79 velocity=0 time=64
note_on channel=0 note=75 velocity=0 time=0
note_on channel=0 note=67 velocity=0 time=0
note_on channel=0 note=70 velocity=80 time=32
note_on channel=0 note=74 velocity=80 time=0
note_on channel=0 note=82 velocity=80 time=0
note_on channel=0 note=82 velocity=0 time=64
note_on channel=0 note=74 velocity=0 time=0
note_on channel=0 note=70 velocity=0 time=0
note_on channel=0 note=67 velocity=80 time=32
note_on channel=0 note=75 velocity=80 time=0
note_on channel=0 note=79 velocity=80 time=0
note_on channel=0 note=79 velocity=0 time=64
note_on channel=0 note=75 velocity=0 time=0
note_on channel=0 note=67 velocity=0 time=0
note_on channel=0 note=66 velocity=80 time=32
note_on channel=0 note=75 velocity=80 time=0
note_on channel=0 note=78 velocity=80 time=0
note_on channel=0 note=78 velocity=0 time=32
note_on channel=0 note=75 velocity=0 time=0
note_on channel=0 note=66 velocity=0 time=0
note_on channel=0 note=67 velocity=80 time=16
note_on channel=0 note=75 velocity=80 time=0
note_on channel=0 note=79 velocity=80 time=0
note_on channel=0 note=79 velocity=0 time=32
note_on channel=0 note=75 velocity=0 time=0
note_on channel=0 note=67 velocity=0 time=0
note_on channel=0 note=70 velocity=80 time=16
note_on channel=0 note=74 velocity=80 time=0
note_on channel=0 note=79 velocity=80 time=0
note_on channel=0 note=82 velocity=80 time=0
note_on channel=0 note=82 velocity=0 time=64
note_on channel=0 note=70 velocity=0 time=0
note_on channel=0 note=74 velocity=0 time=0
note_on channel=0 note=79 velocity=0 time=0
note_on channel=0 note=74 velocity=80 time=32
note_on channel=0 note=79 velocity=80 time=0
note_on channel=0 note=82 velocity=80 time=0
note_on channel=0 note=86 velocity=80 time=0
note_on channel=0 note=86 velocity=0 time=64
note_on channel=0 note=74 velocity=0 time=0
note_on channel=0 note=79 velocity=0 time=0
note_on channel=0 note=82 velocity=0 time=0
note_on channel=0 note=78 velocity=80 time=56
note_on channel=0 note=78 velocity=0 time=16
note_on channel=0 note=74 velocity=80 time=8
note_on channel=0 note=86 velocity=80 time=0
note_on channel=0 note=86 velocity=0 time=16
note_on channel=0 note=74 velocity=0 time=0
note_on channel=0 note=78 velocity=80 time=8
note_on channel=0 note=78 velocity=0 time=16
note_on channel=0 note=81 velocity=80 time=8
note_on channel=0 note=81 velocity=0 time=16
note_on channel=0 note=84 velocity=80 time=8
note_on channel=0 note=84 velocity=0 time=16
note_on channel=0 note=82 velocity=80 time=8
note_on channel=0 note=82 velocity=0 time=16
note_on channel=0 note=81 velocity=80 time=8
note_on channel=0 note=81 velocity=0 time=16
note_on channel=0 note=79 velocity=80 time=8
note_on channel=0 note=79 velocity=0 time=64
note_on channel=0 note=82 velocity=80 time=32
note_on channel=0 note=74 velocity=80 time=0
note_on channel=0 note=70 velocity=80 time=0
note_on channel=0 note=70 velocity=0 time=64
note_on channel=0 note=74 velocity=0 time=0
note_on channel=0 note=82 velocity=0 time=0
note_on channel=0 note=67 velocity=80 time=32
note_on channel=0 note=75 velocity=80 time=0
note_on channel=0 note=79 velocity=80 time=0
note_on channel=0 note=79 velocity=0 time=64
note_on channel=0 note=75 velocity=0 time=0
note_on channel=0 note=67 velocity=0 time=0
note_on channel=0 note=66 velocity=80 time=32
note_on channel=0 note=75 velocity=80 time=0
note_on channel=0 note=78 velocity=80 time=0
note_on channel=0 note=78 velocity=0 time=64
note_on channel=0 note=75 velocity=0 time=0
note_on channel=0 note=66 velocity=0 time=0
note_on channel=0 note=67 velocity=80 time=32
note_on channel=0 note=75 velocity=80 time=0
note_on channel=0 note=79 velocity=80 time=0
note_on channel=0 note=79 velocity=0 time=64
note_on channel=0 note=75 velocity=0 time=0
note_on channel=0 note=67 velocity=0 time=0
note_on channel=0 note=70 velocity=80 time=32
note_on channel=0 note=79 velocity=80 time=0
note_on channel=0 note=82 velocity=80 time=0
note_on channel=0 note=82 velocity=0 time=64
note_on channel=0 note=79 velocity=0 time=0
note_on channel=0 note=70 velocity=0 time=0
note_on channel=0 note=75 velocity=80 time=56
note_on channel=0 note=75 velocity=0 time=16
note_on channel=0 note=68 velocity=80 time=8
note_on channel=0 note=80 velocity=80 time=0
note_on channel=0 note=80 velocity=0 time=16
note_on channel=0 note=68 velocity=0 time=0
note_on channel=0 note=75 velocity=80 time=8
note_on channel=0 note=75 velocity=0 time=16
note_on channel=0 note=77 velocity=80 time=8
note_on channel=0 note=77 velocity=0 time=16
note_on channel=0 note=80 velocity=80 time=8
note_on channel=0 note=68 velocity=80 time=0
note_on channel=0 note=68 velocity=0 time=32
note_on channel=0 note=80 velocity=0 time=0
note_on channel=0 note=75 velocity=80 time=16
note_on channel=0 note=75 velocity=0 time=16
note_on channel=0 note=67 velocity=80 time=8
note_on channel=0 note=75 velocity=80 time=0
note_on channel=0 note=79 velocity=80 time=0
note_on channel=0 note=79 velocity=0 time=64
note_on channel=0 note=75 velocity=0 time=0
note_on channel=0 note=67 velocity=0 time=0
note_on channel=0 note=70 velocity=80 time=32
note_on channel=0 note=82 velocity=80 time=0
note_on channel=0 note=79 velocity=80 time=0
note_on channel=0 note=79 velocity=0 time=64
note_on channel=0 note=82 velocity=0 time=0
note_on channel=0 note=70 velocity=0 time=0
note_on channel=0 note=75 velocity=80 time=56
note_on channel=0 note=75 velocity=0 time=16
note_on channel=0 note=68 velocity=80 time=8
note_on channel=0 note=80 velocity=80 time=0
note_on channel=0 note=80 velocity=0 time=16
note_on channel=0 note=68 velocity=0 time=0
note_on channel=0 note=75 velocity=80 time=8
note_on channel=0 note=75 velocity=0 time=16
note_on channel=0 note=77 velocity=80 time=8
note_on channel=0 note=77 velocity=0 time=16
note_on channel=0 note=80 velocity=80 time=8
note_on channel=0 note=68 velocity=80 time=0
note_on channel=0 note=68 velocity=0 time=32
note_on channel=0 note=80 velocity=0 time=0
note_on channel=0 note=75 velocity=80 time=16
note_on channel=0 note=75 velocity=0 time=16
note_on channel=0 note=67 velocity=80 time=8
note_on channel=0 note=75 velocity=80 time=0
note_on channel=0 note=79 velocity=80 time=0
note_on channel=0 note=79 velocity=0 time=64
note_on channel=0 note=75 velocity=0 time=0
note_on channel=0 note=67 velocity=0 time=0
note_on channel=0 note=72 velocity=80 time=32
note_on channel=0 note=75 velocity=80 time=0
note_on channel=0 note=84 velocity=80 time=0
note_on channel=0 note=84 velocity=0 time=64
note_on channel=0 note=75 velocity=0 time=0
note_on channel=0 note=72 velocity=0 time=0
note_on channel=0 note=82 velocity=80 time=32
note_on channel=0 note=70 velocity=80 time=0
note_on channel=0 note=70 velocity=0 time=16
note_on channel=0 note=82 velocity=0 time=0
note_on channel=0 note=75 velocity=80 time=8
note_on channel=0 note=75 velocity=0 time=16
note_on channel=0 note=79 velocity=80 time=8
note_on channel=0 note=70 velocity=80 time=0
note_on channel=0 note=70 velocity=0 time=32
note_on channel=0 note=79 velocity=0 time=0
note_on channel=0 note=69 velocity=80 time=16
note_on channel=0 note=75 velocity=80 time=0
note_on channel=0 note=79 velocity=80 time=0
note_on channel=0 note=79 velocity=0 time=32
note_on channel=0 note=75 velocity=0 time=0
note_on channel=0 note=69 velocity=0 time=0
note_on channel=0 note=77 velocity=80 time=16
note_on channel=0 note=74 velocity=80 time=0
note_on channel=0 note=68 velocity=80 time=0
note_on channel=0 note=68 velocity=0 time=32
note_on channel=0 note=74 velocity=0 time=0
note_on channel=0 note=77 velocity=0 time=0
note_on channel=0 note=75 velocity=80 time=16
note_on channel=0 note=67 velocity=80 time=0
note_on channel=0 note=67 velocity=0 time=32
note_on channel=0 note=75 velocity=0 time=0
note_on channel=0 note=70 velocity=80 time=16
note_on channel=0 note=70 velocity=0 time=16
note_on channel=0 note=72 velocity=80 time=8
note_on channel=0 note=72 velocity=0 time=16
note_on channel=0 note=74 velocity=80 time=8
note_on channel=0 note=74 velocity=0 time=16
note_on channel=0 note=75 velocity=80 time=8
note_on channel=0 note=75 velocity=0 time=16
note_on channel=0 note=77 velocity=80 time=8
note_on channel=0 note=77 velocity=0 time=16
note_on channel=0 note=78 velocity=80 time=8
note_on channel=0 note=78 velocity=0 time=16
note_on channel=0 note=67 velocity=80 time=8
note_on channel=0 note=75 velocity=80 time=0
note_on channel=0 note=79 velocity=80 time=0
note_on channel=0 note=79 velocity=0 time=64
note_on channel=0 note=75 velocity=0 time=0
note_on channel=0 note=67 velocity=0 time=0
note_on channel=0 note=66 velocity=80 time=32
note_on channel=0 note=75 velocity=80 time=0
note_on channel=0 note=78 velocity=80 time=0
note_on channel=0 note=78 velocity=0 time=64
note_on channel=0 note=75 velocity=0 time=0
note_on channel=0 note=66 velocity=0 time=0
note_on channel=0 note=67 velocity=80 time=32
note_on channel=0 note=75 velocity=80 time=0
note_on channel=0 note=79 velocity=80 time=0
note_on channel=0 note=79 velocity=0 time=64
note_on channel=0 note=75 velocity=0 time=0
note_on channel=0 note=67 velocity=0 time=0
note_on channel=0 note=70 velocity=80 time=32
note_on channel=0 note=79 velocity=80 time=0
note_on channel=0 note=82 velocity=80 time=0
note_on channel=0 note=82 velocity=0 time=64
note_on channel=0 note=79 velocity=0 time=0
note_on channel=0 note=70 velocity=0 time=0
note_on channel=0 note=75 velocity=80 time=56
note_on channel=0 note=75 velocity=0 time=16
note_on channel=0 note=68 velocity=80 time=8
note_on channel=0 note=80 velocity=80 time=0
note_on channel=0 note=80 velocity=0 time=16
note_on channel=0 note=68 velocity=0 time=0
note_on channel=0 note=75 velocity=80 time=8
note_on channel=0 note=75 velocity=0 time=16
note_on channel=0 note=77 velocity=80 time=8
note_on channel=0 note=77 velocity=0 time=16
note_on channel=0 note=80 velocity=80 time=8
note_on channel=0 note=68 velocity=80 time=0
note_on channel=0 note=68 velocity=0 time=32
note_on channel=0 note=80 velocity=0 time=0
note_on channel=0 note=75 velocity=80 time=16
note_on channel=0 note=75 velocity=0 time=16
note_on channel=0 note=67 velocity=80 time=8
note_on channel=0 note=75 velocity=80 time=0
note_on channel=0 note=79 velocity=80 time=0
note_on channel=0 note=79 velocity=0 time=64
note_on channel=0 note=75 velocity=0 time=0
note_on channel=0 note=67 velocity=0 time=0
note_on channel=0 note=70 velocity=80 time=32
note_on channel=0 note=74 velocity=80 time=0
note_on channel=0 note=82 velocity=80 time=0
note_on channel=0 note=82 velocity=0 time=64
note_on channel=0 note=74 velocity=0 time=0
note_on channel=0 note=70 velocity=0 time=0
note_on channel=0 note=67 velocity=80 time=32
note_on channel=0 note=75 velocity=80 time=0
note_on channel=0 note=79 velocity=80 time=0
note_on channel=0 note=79 velocity=0 time=64
note_on channel=0 note=75 velocity=0 time=0
note_on channel=0 note=67 velocity=0 time=0
note_on channel=0 note=66 velocity=80 time=32
note_on channel=0 note=75 velocity=80 time=0
note_on channel=0 note=78 velocity=80 time=0
note_on channel=0 note=78 velocity=0 time=32
note_on channel=0 note=75 velocity=0 time=0
note_on channel=0 note=66 velocity=0 time=0
note_on channel=0 note=67 velocity=80 time=16
note_on channel=0 note=75 velocity=80 time=0
note_on channel=0 note=79 velocity=80 time=0
note_on channel=0 note=79 velocity=0 time=32
note_on channel=0 note=75 velocity=0 time=0
note_on channel=0 note=67 velocity=0 time=0
note_on channel=0 note=70 velocity=80 time=16
note_on channel=0 note=74 velocity=80 time=0
note_on channel=0 note=79 velocity=80 time=0
note_on channel=0 note=82 velocity=80 time=0
note_on channel=0 note=82 velocity=0 time=64
note_on channel=0 note=70 velocity=0 time=0
note_on channel=0 note=74 velocity=0 time=0
note_on channel=0 note=79 velocity=0 time=0
note_on channel=0 note=74 velocity=80 time=32
note_on channel=0 note=79 velocity=80 time=0
note_on channel=0 note=82 velocity=80 time=0
note_on channel=0 note=86 velocity=80 time=0
note_on channel=0 note=86 velocity=0 time=64
note_on channel=0 note=74 velocity=0 time=0
note_on channel=0 note=79 velocity=0 time=0
note_on channel=0 note=82 velocity=0 time=0
note_on channel=0 note=78 velocity=80 time=56
note_on channel=0 note=78 velocity=0 time=16
note_on channel=0 note=74 velocity=80 time=8
note_on channel=0 note=86 velocity=80 time=0
note_on channel=0 note=86 velocity=0 time=16
note_on channel=0 note=74 velocity=0 time=0
note_on channel=0 note=78 velocity=80 time=8
note_on channel=0 note=78 velocity=0 time=16
note_on channel=0 note=81 velocity=80 time=8
note_on channel=0 note=81 velocity=0 time=16
note_on channel=0 note=84 velocity=80 time=8
note_on channel=0 note=84 velocity=0 time=16
note_on channel=0 note=82 velocity=80 time=8
note_on channel=0 note=82 velocity=0 time=16
note_on channel=0 note=81 velocity=80 time=8
note_on channel=0 note=81 velocity=0 time=16
note_on channel=0 note=79 velocity=80 time=8
note_on channel=0 note=79 velocity=0 time=64
note_on channel=0 note=82 velocity=80 time=32
note_on channel=0 note=74 velocity=80 time=0
note_on channel=0 note=70 velocity=80 time=0
note_on channel=0 note=70 velocity=0 time=64
note_on channel=0 note=74 velocity=0 time=0
note_on channel=0 note=82 velocity=0 time=0
note_on channel=0 note=67 velocity=80 time=32
note_on channel=0 note=75 velocity=80 time=0
note_on channel=0 note=79 velocity=80 time=0
note_on channel=0 note=79 velocity=0 time=64
note_on channel=0 note=75 velocity=0 time=0
note_on channel=0 note=67 velocity=0 time=0
note_on channel=0 note=66 velocity=80 time=32
note_on channel=0 note=75 velocity=80 time=0
note_on channel=0 note=78 velocity=80 time=0
note_on channel=0 note=78 velocity=0 time=64
note_on channel=0 note=75 velocity=0 time=0
note_on channel=0 note=66 velocity=0 time=0
note_on channel=0 note=67 velocity=80 time=32
note_on channel=0 note=75 velocity=80 time=0
note_on channel=0 note=79 velocity=80 time=0
note_on channel=0 note=79 velocity=0 time=64
note_on channel=0 note=75 velocity=0 time=0
note_on channel=0 note=67 velocity=0 time=0
note_on channel=0 note=70 velocity=80 time=32
note_on channel=0 note=79 velocity=80 time=0
note_on channel=0 note=82 velocity=80 time=0
note_on channel=0 note=82 velocity=0 time=64
note_on channel=0 note=79 velocity=0 time=0
note_on channel=0 note=70 velocity=0 time=0
note_on channel=0 note=75 velocity=80 time=56
note_on channel=0 note=75 velocity=0 time=16
note_on channel=0 note=68 velocity=80 time=8
note_on channel=0 note=80 velocity=80 time=0
note_on channel=0 note=80 velocity=0 time=16
note_on channel=0 note=68 velocity=0 time=0
note_on channel=0 note=75 velocity=80 time=8
note_on channel=0 note=75 velocity=0 time=16
note_on channel=0 note=77 velocity=80 time=8
note_on channel=0 note=77 velocity=0 time=16
note_on channel=0 note=80 velocity=80 time=8
note_on channel=0 note=68 velocity=80 time=0
note_on channel=0 note=68 velocity=0 time=32
note_on channel=0 note=80 velocity=0 time=0
note_on channel=0 note=75 velocity=80 time=16
note_on channel=0 note=75 velocity=0 time=16
note_on channel=0 note=67 velocity=80 time=8
note_on channel=0 note=75 velocity=80 time=0
note_on channel=0 note=79 velocity=80 time=0
note_on channel=0 note=79 velocity=0 time=64
note_on channel=0 note=75 velocity=0 time=0
note_on channel=0 note=67 velocity=0 time=0
note_on channel=0 note=70 velocity=80 time=32
note_on channel=0 note=82 velocity=80 time=0
note_on channel=0 note=79 velocity=80 time=0
note_on channel=0 note=79 velocity=0 time=64
note_on channel=0 note=82 velocity=0 time=0
note_on channel=0 note=70 velocity=0 time=0
note_on channel=0 note=75 velocity=80 time=56
note_on channel=0 note=75 velocity=0 time=16
note_on channel=0 note=68 velocity=80 time=8
note_on channel=0 note=80 velocity=80 time=0
note_on channel=0 note=80 velocity=0 time=16
note_on channel=0 note=68 velocity=0 time=0
note_on channel=0 note=75 velocity=80 time=8
note_on channel=0 note=75 velocity=0 time=16
note_on channel=0 note=77 velocity=80 time=8
note_on channel=0 note=77 velocity=0 time=16
note_on channel=0 note=80 velocity=80 time=8
note_on channel=0 note=68 velocity=80 time=0
note_on channel=0 note=68 velocity=0 time=32
note_on channel=0 note=80 velocity=0 time=0
note_on channel=0 note=75 velocity=80 time=16
note_on channel=0 note=75 velocity=0 time=16
note_on channel=0 note=67 velocity=80 time=8
note_on channel=0 note=75 velocity=80 time=0
note_on channel=0 note=79 velocity=80 time=0
note_on channel=0 note=79 velocity=0 time=64
note_on channel=0 note=75 velocity=0 time=0
note_on channel=0 note=67 velocity=0 time=0
note_on channel=0 note=72 velocity=80 time=32
note_on channel=0 note=75 velocity=80 time=0
note_on channel=0 note=84 velocity=80 time=0
note_on channel=0 note=84 velocity=0 time=64
note_on channel=0 note=75 velocity=0 time=0
note_on channel=0 note=72 velocity=0 time=0
note_on channel=0 note=82 velocity=80 time=32
note_on channel=0 note=70 velocity=80 time=0
note_on channel=0 note=70 velocity=0 time=16
note_on channel=0 note=82 velocity=0 time=0
note_on channel=0 note=75 velocity=80 time=8
note_on channel=0 note=75 velocity=0 time=16
note_on channel=0 note=79 velocity=80 time=8
note_on channel=0 note=70 velocity=80 time=0
note_on channel=0 note=70 velocity=0 time=32
note_on channel=0 note=79 velocity=0 time=0
note_on channel=0 note=69 velocity=80 time=16
note_on channel=0 note=75 velocity=80 time=0
note_on channel=0 note=79 velocity=80 time=0
note_on channel=0 note=79 velocity=0 time=32
note_on channel=0 note=75 velocity=0 time=0
note_on channel=0 note=69 velocity=0 time=0
note_on channel=0 note=77 velocity=80 time=16
note_on channel=0 note=74 velocity=80 time=0
note_on channel=0 note=68 velocity=80 time=0
note_on channel=0 note=68 velocity=0 time=32
note_on channel=0 note=74 velocity=0 time=0
note_on channel=0 note=77 velocity=0 time=0
note_on channel=0 note=75 velocity=80 time=16
note_on channel=0 note=67 velocity=80 time=0
note_on channel=0 note=67 velocity=0 time=32
note_on channel=0 note=75 velocity=0 time=0
note_on channel=0 note=82 velocity=80 time=16
note_on channel=0 note=70 velocity=80 time=0
note_on channel=0 note=70 velocity=0 time=16
note_on channel=0 note=82 velocity=0 time=0
note_on channel=0 note=70 velocity=80 time=8
note_on channel=0 note=82 velocity=80 time=0
note_on channel=0 note=82 velocity=0 time=16
note_on channel=0 note=70 velocity=0 time=0
note_on channel=0 note=82 velocity=80 time=8
note_on channel=0 note=70 velocity=80 time=0
note_on channel=0 note=70 velocity=0 time=32
note_on channel=0 note=82 velocity=0 time=0
note_on channel=0 note=70 velocity=80 time=16
note_on channel=0 note=82 velocity=80 time=0
note_on channel=0 note=82 velocity=0 time=32
note_on channel=0 note=70 velocity=0 time=0
note_on channel=0 note=74 velocity=80 time=16
note_on channel=0 note=80 velocity=80 time=0
note_on channel=0 note=86 velocity=80 time=0
note_on channel=0 note=86 velocity=0 time=64
note_on channel=0 note=80 velocity=0 time=0
note_on channel=0 note=74 velocity=0 time=0
note_on channel=0 note=77 velocity=80 time=32
note_on channel=0 note=80 velocity=80 time=0
note_on channel=0 note=89 velocity=80 time=0
note_on channel=0 note=89 velocity=0 time=64
note_on channel=0 note=80 velocity=0 time=0
note_on channel=0 note=77 velocity=0 time=0
note_on channel=0 note=79 velocity=80 time=32
note_on channel=0 note=82 velocity=80 time=0
note_on channel=0 note=91 velocity=80 time=0
note_on channel=0 note=91 velocity=0 time=64
note_on channel=0 note=82 velocity=0 time=0
note_on channel=0 note=79 velocity=0 time=0
note_on channel=0 note=77 velocity=80 time=32
note_on channel=0 note=80 velocity=80 time=0
note_on channel=0 note=89 velocity=80 time=0
note_on channel=0 note=89 velocity=0 time=64
note_on channel=0 note=80 velocity=0 time=0
note_on channel=0 note=77 velocity=0 time=0
note_on channel=0 note=75 velocity=80 time=32
note_on channel=0 note=79 velocity=80 time=0
note_on channel=0 note=87 velocity=80 time=0
note_on channel=0 note=87 velocity=0 time=32
note_on channel=0 note=79 velocity=0 time=0
note_on channel=0 note=75 velocity=0 time=0
note_on channel=0 note=72 velocity=80 time=16
note_on channel=0 note=79 velocity=80 time=0
note_on channel=0 note=84 velocity=80 time=0
note_on channel=0 note=84 velocity=0 time=32
note_on channel=0 note=79 velocity=0 time=0
note_on channel=0 note=72 velocity=0 time=0
note_on channel=0 note=70 velocity=80 time=16
note_on channel=0 note=79 velocity=80 time=0
note_on channel=0 note=82 velocity=80 time=0
note_on channel=0 note=82 velocity=0 time=128
note_on channel=0 note=79 velocity=0 time=0
note_on channel=0 note=70 velocity=0 time=0
note_on channel=0 note=75 velocity=80 time=16
note_on channel=0 note=75 velocity=0 time=16
note_on channel=0 note=77 velocity=80 time=8
note_on channel=0 note=77 velocity=0 time=16
note_on channel=0 note=79 velocity=80 time=8
note_on channel=0 note=79 velocity=0 time=16
note_on channel=0 note=80 velocity=80 time=8
note_on channel=0 note=80 velocity=0 time=16
note_on channel=0 note=82 velocity=80 time=8
note_on channel=0 note=82 velocity=0 time=16
note_on channel=0 note=84 velocity=80 time=8
note_on channel=0 note=84 velocity=0 time=16
note_on channel=0 note=74 velocity=80 time=8
note_on channel=0 note=80 velocity=80 time=0
note_on channel=0 note=86 velocity=80 time=0
note_on channel=0 note=86 velocity=0 time=32
note_on channel=0 note=80 velocity=0 time=0
note_on channel=0 note=74 velocity=0 time=0
note_on channel=0 note=84 velocity=80 time=16
note_on channel=0 note=80 velocity=80 time=0
note_on channel=0 note=72 velocity=80 time=0
note_on channel=0 note=72 velocity=0 time=32
note_on channel=0 note=80 velocity=0 time=0
note_on channel=0 note=84 velocity=0 time=0
note_on channel=0 note=70 velocity=80 time=16
note_on channel=0 note=80 velocity=80 time=0
note_on channel=0 note=82 velocity=80 time=0
note_on channel=0 note=82 velocity=0 time=128
note_on channel=0 note=80 velocity=0 time=0
note_on channel=0 note=70 velocity=0 time=0
note_on channel=0 note=77 velocity=80 time=16
note_on channel=0 note=77 velocity=0 time=16
note_on channel=0 note=79 velocity=80 time=8
note_on channel=0 note=79 velocity=0 time=16
note_on channel=0 note=80 velocity=80 time=8
note_on channel=0 note=80 velocity=0 time=16
note_on channel=0 note=82 velocity=80 time=8
note_on channel=0 note=82 velocity=0 time=16
note_on channel=0 note=84 velocity=80 time=8
note_on channel=0 note=84 velocity=0 time=16
note_on channel=0 note=86 velocity=80 time=8
note_on channel=0 note=86 velocity=0 time=16
note_on channel=0 note=75 velocity=80 time=8
note_on channel=0 note=79 velocity=80 time=0
note_on channel=0 note=87 velocity=80 time=0
note_on channel=0 note=87 velocity=0 time=32
note_on channel=0 note=79 velocity=0 time=0
note_on channel=0 note=75 velocity=0 time=0
note_on channel=0 note=84 velocity=80 time=16
note_on channel=0 note=79 velocity=80 time=0
note_on channel=0 note=72 velocity=80 time=0
note_on channel=0 note=72 velocity=0 time=32
note_on channel=0 note=79 velocity=0 time=0
note_on channel=0 note=84 velocity=0 time=0
note_on channel=0 note=70 velocity=80 time=16
note_on channel=0 note=79 velocity=80 time=0
note_on channel=0 note=82 velocity=80 time=0
note_on channel=0 note=82 velocity=0 time=128
note_on channel=0 note=79 velocity=0 time=0
note_on channel=0 note=70 velocity=0 time=0
note_on channel=0 note=70 velocity=80 time=16
note_on channel=0 note=82 velocity=80 time=0
note_on channel=0 note=82 velocity=0 time=16
note_on channel=0 note=70 velocity=0 time=0
note_on channel=0 note=70 velocity=80 time=8
note_on channel=0 note=82 velocity=80 time=0
note_on channel=0 note=82 velocity=0 time=16
note_on channel=0 note=70 velocity=0 time=0
note_on channel=0 note=82 velocity=80 time=8
note_on channel=0 note=70 velocity=80 time=0
note_on channel=0 note=70 velocity=0 time=32
note_on channel=0 note=82 velocity=0 time=0
note_on channel=0 note=82 velocity=80 time=16
note_on channel=0 note=70 velocity=80 time=0
note_on channel=0 note=70 velocity=0 time=32
note_on channel=0 note=82 velocity=0 time=0
note_on channel=0 note=74 velocity=80 time=16
note_on channel=0 note=80 velocity=80 time=0
note_on channel=0 note=86 velocity=80 time=0
note_on channel=0 note=86 velocity=0 time=64
note_on channel=0 note=80 velocity=0 time=0
note_on channel=0 note=74 velocity=0 time=0
note_on channel=0 note=77 velocity=80 time=32
note_on channel=0 note=80 velocity=80 time=0
note_on channel=0 note=89 velocity=80 time=0
note_on channel=0 note=89 velocity=0 time=64
note_on channel=0 note=80 velocity=0 time=0
note_on channel=0 note=77 velocity=0 time=0
note_on channel=0 note=79 velocity=80 time=32
note_on channel=0 note=82 velocity=80 time=0
note_on channel=0 note=91 velocity=80 time=0
note_on channel=0 note=91 velocity=0 time=64
note_on channel=0 note=82 velocity=0 time=0
note_on channel=0 note=79 velocity=0 time=0
note_on channel=0 note=77 velocity=80 time=32
note_on channel=0 note=80 velocity=80 time=0
note_on channel=0 note=89 velocity=80 time=0
note_on channel=0 note=89 velocity=0 time=64
note_on channel=0 note=80 velocity=0 time=0
note_on channel=0 note=77 velocity=0 time=0
note_on channel=0 note=75 velocity=80 time=32
note_on channel=0 note=79 velocity=80 time=0
note_on channel=0 note=87 velocity=80 time=0
note_on channel=0 note=87 velocity=0 time=32
note_on channel=0 note=79 velocity=0 time=0
note_on channel=0 note=75 velocity=0 time=0
note_on channel=0 note=72 velocity=80 time=16
note_on channel=0 note=79 velocity=80 time=0
note_on channel=0 note=84 velocity=80 time=0
note_on channel=0 note=84 velocity=0 time=32
note_on channel=0 note=79 velocity=0 time=0
note_on channel=0 note=72 velocity=0 time=0
note_on channel=0 note=70 velocity=80 time=16
note_on channel=0 note=79 velocity=80 time=0
note_on channel=0 note=82 velocity=80 time=0
note_on channel=0 note=82 velocity=0 time=64
note_on channel=0 note=79 velocity=0 time=0
note_on channel=0 note=70 velocity=0 time=0
note_on channel=0 note=67 velocity=80 time=32
note_on channel=0 note=75 velocity=80 time=0
note_on channel=0 note=79 velocity=80 time=0
note_on channel=0 note=79 velocity=0 time=64
note_on channel=0 note=75 velocity=0 time=0
note_on channel=0 note=67 velocity=0 time=0
note_on channel=0 note=82 velocity=80 time=32
note_on channel=0 note=79 velocity=80 time=0
note_on channel=0 note=70 velocity=80 time=0
note_on channel=0 note=70 velocity=0 time=64
note_on channel=0 note=79 velocity=0 time=0
note_on channel=0 note=82 velocity=0 time=0
note_on channel=0 note=75 velocity=80 time=56
note_on channel=0 note=75 velocity=0 time=16
note_on channel=0 note=80 velocity=80 time=8
note_on channel=0 note=68 velocity=80 time=0
note_on channel=0 note=68 velocity=0 time=16
note_on channel=0 note=80 velocity=0 time=0
note_on channel=0 note=75 velocity=80 time=8
note_on channel=0 note=75 velocity=0 time=16
note_on channel=0 note=77 velocity=80 time=8
note_on channel=0 note=77 velocity=0 time=16
note_on channel=0 note=80 velocity=80 time=8
note_on channel=0 note=68 velocity=80 time=0
note_on channel=0 note=68 velocity=0 time=32
note_on channel=0 note=80 velocity=0 time=0
note_on channel=0 note=75 velocity=80 time=16
note_on channel=0 note=75 velocity=0 time=16
note_on channel=0 note=67 velocity=80 time=8
note_on channel=0 note=75 velocity=80 time=0
note_on channel=0 note=79 velocity=80 time=0
note_on channel=0 note=79 velocity=0 time=64
note_on channel=0 note=75 velocity=0 time=0
note_on channel=0 note=67 velocity=0 time=0
note_on channel=0 note=75 velocity=80 time=32
note_on channel=0 note=72 velocity=80 time=0
note_on channel=0 note=84 velocity=80 time=0
note_on channel=0 note=84 velocity=0 time=64
note_on channel=0 note=72 velocity=0 time=0
note_on channel=0 note=75 velocity=0 time=0
note_on channel=0 note=70 velocity=80 time=32
note_on channel=0 note=82 velocity=80 time=0
note_on channel=0 note=82 velocity=0 time=16
note_on channel=0 note=70 velocity=0 time=0
note_on channel=0 note=75 velocity=80 time=8
note_on channel=0 note=75 velocity=0 time=16
note_on channel=0 note=79 velocity=80 time=8
note_on channel=0 note=70 velocity=80 time=0
note_on channel=0 note=70 velocity=0 time=32
note_on channel=0 note=79 velocity=0 time=0
note_on channel=0 note=79 velocity=80 time=16
note_on channel=0 note=75 velocity=80 time=0
note_on channel=0 note=69 velocity=80 time=0
note_on channel=0 note=69 velocity=0 time=32
note_on channel=0 note=75 velocity=0 time=0
note_on channel=0 note=79 velocity=0 time=0
note_on channel=0 note=68 velocity=80 time=16
note_on channel=0 note=74 velocity=80 time=0
note_on channel=0 note=77 velocity=80 time=0
note_on channel=0 note=77 velocity=0 time=32
note_on channel=0 note=74 velocity=0 time=0
note_on channel=0 note=68 velocity=0 time=0
note_on channel=0 note=75 velocity=80 time=16
note_on channel=0 note=67 velocity=80 time=0
note_on channel=0 note=67 velocity=0 time=32
note_on channel=0 note=75 velocity=0 time=0
note_on channel=0 note=82 velocity=80 time=16
note_on channel=0 note=70 velocity=80 time=0
note_on channel=0 note=70 velocity=0 time=16
note_on channel=0 note=82 velocity=0 time=0
note_on channel=0 note=70 velocity=80 time=8
note_on channel=0 note=82 velocity=80 time=0
note_on channel=0 note=82 velocity=0 time=16
note_on channel=0 note=70 velocity=0 time=0
note_on channel=0 note=82 velocity=80 time=8
note_on channel=0 note=70 velocity=80 time=0
note_on channel=0 note=70 velocity=0 time=32
note_on channel=0 note=82 velocity=0 time=0
note_on channel=0 note=70 velocity=80 time=16
note_on channel=0 note=82 velocity=80 time=0
note_on channel=0 note=82 velocity=0 time=32
note_on channel=0 note=70 velocity=0 time=0
note_on channel=0 note=74 velocity=80 time=16
note_on channel=0 note=80 velocity=80 time=0
note_on channel=0 note=86 velocity=80 time=0
note_on channel=0 note=86 velocity=0 time=64
note_on channel=0 note=80 velocity=0 time=0
note_on channel=0 note=74 velocity=0 time=0
note_on channel=0 note=77 velocity=80 time=32
note_on channel=0 note=80 velocity=80 time=0
note_on channel=0 note=89 velocity=80 time=0
note_on channel=0 note=89 velocity=0 time=64
note_on channel=0 note=80 velocity=0 time=0
note_on channel=0 note=77 velocity=0 time=0
note_on channel=0 note=79 velocity=80 time=32
note_on channel=0 note=82 velocity=80 time=0
note_on channel=0 note=91 velocity=80 time=0
note_on channel=0 note=91 velocity=0 time=64
note_on channel=0 note=82 velocity=0 time=0
note_on channel=0 note=79 velocity=0 time=0
note_on channel=0 note=77 velocity=80 time=32
note_on channel=0 note=80 velocity=80 time=0
note_on channel=0 note=89 velocity=80 time=0
note_on channel=0 note=89 velocity=0 time=64
note_on channel=0 note=80 velocity=0 time=0
note_on channel=0 note=77 velocity=0 time=0
note_on channel=0 note=75 velocity=80 time=32
note_on channel=0 note=79 velocity=80 time=0
note_on channel=0 note=87 velocity=80 time=0
note_on channel=0 note=87 velocity=0 time=32
note_on channel=0 note=79 velocity=0 time=0
note_on channel=0 note=75 velocity=0 time=0
note_on channel=0 note=72 velocity=80 time=16
note_on channel=0 note=79 velocity=80 time=0
note_on channel=0 note=84 velocity=80 time=0
note_on channel=0 note=84 velocity=0 time=32
note_on channel=0 note=79 velocity=0 time=0
note_on channel=0 note=72 velocity=0 time=0
note_on channel=0 note=70 velocity=80 time=16
note_on channel=0 note=79 velocity=80 time=0
note_on channel=0 note=82 velocity=80 time=0
note_on channel=0 note=82 velocity=0 time=128
note_on channel=0 note=79 velocity=0 time=0
note_on channel=0 note=70 velocity=0 time=0
note_on channel=0 note=75 velocity=80 time=16
note_on channel=0 note=75 velocity=0 time=16
note_on channel=0 note=77 velocity=80 time=8
note_on channel=0 note=77 velocity=0 time=16
note_on channel=0 note=79 velocity=80 time=8
note_on channel=0 note=79 velocity=0 time=16
note_on channel=0 note=80 velocity=80 time=8
note_on channel=0 note=80 velocity=0 time=16
note_on channel=0 note=82 velocity=80 time=8
note_on channel=0 note=82 velocity=0 time=16
note_on channel=0 note=84 velocity=80 time=8
note_on channel=0 note=84 velocity=0 time=16
note_on channel=0 note=74 velocity=80 time=8
note_on channel=0 note=80 velocity=80 time=0
note_on channel=0 note=86 velocity=80 time=0
note_on channel=0 note=86 velocity=0 time=32
note_on channel=0 note=80 velocity=0 time=0
note_on channel=0 note=74 velocity=0 time=0
note_on channel=0 note=84 velocity=80 time=16
note_on channel=0 note=80 velocity=80 time=0
note_on channel=0 note=72 velocity=80 time=0
note_on channel=0 note=72 velocity=0 time=32
note_on channel=0 note=80 velocity=0 time=0
note_on channel=0 note=84 velocity=0 time=0
note_on channel=0 note=70 velocity=80 time=16
note_on channel=0 note=80 velocity=80 time=0
note_on channel=0 note=82 velocity=80 time=0
note_on channel=0 note=82 velocity=0 time=128
note_on channel=0 note=80 velocity=0 time=0
note_on channel=0 note=70 velocity=0 time=0
note_on channel=0 note=77 velocity=80 time=16
note_on channel=0 note=77 velocity=0 time=16
note_on channel=0 note=79 velocity=80 time=8
note_on channel=0 note=79 velocity=0 time=16
note_on channel=0 note=80 velocity=80 time=8
note_on channel=0 note=80 velocity=0 time=16
note_on channel=0 note=82 velocity=80 time=8
note_on channel=0 note=82 velocity=0 time=16
note_on channel=0 note=84 velocity=80 time=8
note_on channel=0 note=84 velocity=0 time=16
note_on channel=0 note=86 velocity=80 time=8
note_on channel=0 note=86 velocity=0 time=16
note_on channel=0 note=75 velocity=80 time=8
note_on channel=0 note=79 velocity=80 time=0
note_on channel=0 note=87 velocity=80 time=0
note_on channel=0 note=87 velocity=0 time=32
note_on channel=0 note=79 velocity=0 time=0
note_on channel=0 note=75 velocity=0 time=0
note_on channel=0 note=84 velocity=80 time=16
note_on channel=0 note=79 velocity=80 time=0
note_on channel=0 note=72 velocity=80 time=0
note_on channel=0 note=72 velocity=0 time=32
note_on channel=0 note=79 velocity=0 time=0
note_on channel=0 note=84 velocity=0 time=0
note_on channel=0 note=70 velocity=80 time=16
note_on channel=0 note=79 velocity=80 time=0
note_on channel=0 note=82 velocity=80 time=0
note_on channel=0 note=82 velocity=0 time=128
note_on channel=0 note=79 velocity=0 time=0
note_on channel=0 note=70 velocity=0 time=0
note_on channel=0 note=70 velocity=80 time=16
note_on channel=0 note=82 velocity=80 time=0
note_on channel=0 note=82 velocity=0 time=16
note_on channel=0 note=70 velocity=0 time=0
note_on channel=0 note=70 velocity=80 time=8
note_on channel=0 note=82 velocity=80 time=0
note_on channel=0 note=82 velocity=0 time=16
note_on channel=0 note=70 velocity=0 time=0
note_on channel=0 note=82 velocity=80 time=8
note_on channel=0 note=70 velocity=80 time=0
note_on channel=0 note=70 velocity=0 time=32
note_on channel=0 note=82 velocity=0 time=0
note_on channel=0 note=82 velocity=80 time=16
note_on channel=0 note=70 velocity=80 time=0
note_on channel=0 note=70 velocity=0 time=32
note_on channel=0 note=82 velocity=0 time=0
note_on channel=0 note=74 velocity=80 time=16
note_on channel=0 note=80 velocity=80 time=0
note_on channel=0 note=86 velocity=80 time=0
note_on channel=0 note=86 velocity=0 time=64
note_on channel=0 note=80 velocity=0 time=0
note_on channel=0 note=74 velocity=0 time=0
note_on channel=0 note=77 velocity=80 time=32
note_on channel=0 note=80 velocity=80 time=0
note_on channel=0 note=89 velocity=80 time=0
note_on channel=0 note=89 velocity=0 time=64
note_on channel=0 note=80 velocity=0 time=0
note_on channel=0 note=77 velocity=0 time=0
note_on channel=0 note=79 velocity=80 time=32
note_on channel=0 note=82 velocity=80 time=0
note_on channel=0 note=91 velocity=80 time=0
note_on channel=0 note=91 velocity=0 time=64
note_on channel=0 note=82 velocity=0 time=0
note_on channel=0 note=79 velocity=0 time=0
note_on channel=0 note=77 velocity=80 time=32
note_on channel=0 note=80 velocity=80 time=0
note_on channel=0 note=89 velocity=80 time=0
note_on channel=0 note=89 velocity=0 time=64
note_on channel=0 note=80 velocity=0 time=0
note_on channel=0 note=77 velocity=0 time=0
note_on channel=0 note=75 velocity=80 time=32
note_on channel=0 note=79 velocity=80 time=0
note_on channel=0 note=87 velocity=80 time=0
note_on channel=0 note=87 velocity=0 time=32
note_on channel=0 note=79 velocity=0 time=0
note_on channel=0 note=75 velocity=0 time=0
note_on channel=0 note=72 velocity=80 time=16
note_on channel=0 note=79 velocity=80 time=0
note_on channel=0 note=84 velocity=80 time=0
note_on channel=0 note=84 velocity=0 time=32
note_on channel=0 note=79 velocity=0 time=0
note_on channel=0 note=72 velocity=0 time=0
note_on channel=0 note=70 velocity=80 time=16
note_on channel=0 note=79 velocity=80 time=0
note_on channel=0 note=82 velocity=80 time=0
note_on channel=0 note=82 velocity=0 time=64
note_on channel=0 note=79 velocity=0 time=0
note_on channel=0 note=70 velocity=0 time=0
note_on channel=0 note=67 velocity=80 time=32
note_on channel=0 note=75 velocity=80 time=0
note_on channel=0 note=79 velocity=80 time=0
note_on channel=0 note=79 velocity=0 time=64
note_on channel=0 note=75 velocity=0 time=0
note_on channel=0 note=67 velocity=0 time=0
note_on channel=0 note=82 velocity=80 time=32
note_on channel=0 note=79 velocity=80 time=0
note_on channel=0 note=70 velocity=80 time=0
note_on channel=0 note=70 velocity=0 time=64
note_on channel=0 note=79 velocity=0 time=0
note_on channel=0 note=82 velocity=0 time=0
note_on channel=0 note=75 velocity=80 time=56
note_on channel=0 note=75 velocity=0 time=16
note_on channel=0 note=80 velocity=80 time=8
note_on channel=0 note=68 velocity=80 time=0
note_on channel=0 note=68 velocity=0 time=16
note_on channel=0 note=80 velocity=0 time=0
note_on channel=0 note=75 velocity=80 time=8
note_on channel=0 note=75 velocity=0 time=16
note_on channel=0 note=77 velocity=80 time=8
note_on channel=0 note=77 velocity=0 time=16
note_on channel=0 note=80 velocity=80 time=8
note_on channel=0 note=68 velocity=80 time=0
note_on channel=0 note=68 velocity=0 time=32
note_on channel=0 note=80 velocity=0 time=0
note_on channel=0 note=75 velocity=80 time=16
note_on channel=0 note=75 velocity=0 time=16
note_on channel=0 note=67 velocity=80 time=8
note_on channel=0 note=75 velocity=80 time=0
note_on channel=0 note=79 velocity=80 time=0
note_on channel=0 note=79 velocity=0 time=64
note_on channel=0 note=75 velocity=0 time=0
note_on channel=0 note=67 velocity=0 time=0
note_on channel=0 note=75 velocity=80 time=32
note_on channel=0 note=72 velocity=80 time=0
note_on channel=0 note=84 velocity=80 time=0
note_on channel=0 note=84 velocity=0 time=64
note_on channel=0 note=72 velocity=0 time=0
note_on channel=0 note=75 velocity=0 time=0
note_on channel=0 note=70 velocity=80 time=32
note_on channel=0 note=82 velocity=80 time=0
note_on channel=0 note=82 velocity=0 time=16
note_on channel=0 note=70 velocity=0 time=0
note_on channel=0 note=75 velocity=80 time=8
note_on channel=0 note=75 velocity=0 time=16
note_on channel=0 note=79 velocity=80 time=8
note_on channel=0 note=70 velocity=80 time=0
note_on channel=0 note=70 velocity=0 time=32
note_on channel=0 note=79 velocity=0 time=0
note_on channel=0 note=79 velocity=80 time=16
note_on channel=0 note=75 velocity=80 time=0
note_on channel=0 note=69 velocity=80 time=0
note_on channel=0 note=69 velocity=0 time=32
note_on channel=0 note=75 velocity=0 time=0
note_on channel=0 note=79 velocity=0 time=0
note_on channel=0 note=68 velocity=80 time=16
note_on channel=0 note=74 velocity=80 time=0
note_on channel=0 note=77 velocity=80 time=0
note_on channel=0 note=77 velocity=0 time=32
note_on channel=0 note=74 velocity=0 time=0
note_on channel=0 note=68 velocity=0 time=0
note_on channel=0 note=75 velocity=80 time=16
note_on channel=0 note=67 velocity=80 time=0
note_on channel=0 note=67 velocity=0 time=64
note_on channel=0 note=75 velocity=0 time=0
note_on channel=0 note=75 velocity=80 time=32
note_on channel=0 note=79 velocity=80 time=0
note_on channel=0 note=87 velocity=80 time=0
note_on channel=0 note=87 velocity=0 time=32
note_on channel=0 note=79 velocity=0 time=0
note_on channel=0 note=75 velocity=0 time=0
<meta message end_of_track time=0>
<meta message midi_port port=0 time=0>
<meta message track_name name='by Scott Joplin (1904)' time=0>
program_change channel=1 program=0 time=0
control_change channel=1 control=7 value=127 time=0
control_change channel=1 control=10 value=32 time=0
control_change channel=1 control=121 value=0 time=8
control_change channel=1 control=1 value=0 time=16
control_change channel=1 control=64 value=0 time=8
aftertouch channel=1 value=0 time=11
pitchwheel channel=1 pitch=0 time=6
control_change channel=1 control=93 value=12 time=2
control_change channel=1 control=91 value=21 time=0
control_change channel=1 control=7 value=127 time=21
control_change channel=1 control=10 value=44 time=4
note_on channel=1 note=58 velocity=80 time=117
note_on channel=1 note=58 velocity=0 time=16
note_on channel=1 note=57 velocity=80 time=7
note_on channel=1 note=57 velocity=0 time=32
note_on channel=1 note=58 velocity=80 time=16
note_on channel=1 note=58 velocity=0 time=16
note_on channel=1 note=60 velocity=80 time=8
note_on channel=1 note=60 velocity=0 time=16
note_on channel=1 note=62 velocity=80 time=8
note_on channel=1 note=62 velocity=0 time=16
note_on channel=1 note=60 velocity=80 time=8
note_on channel=1 note=60 velocity=0 time=32
note_on channel=1 note=53 velocity=80 time=16
note_on channel=1 note=53 velocity=0 time=16
note_on channel=1 note=55 velocity=80 time=8
note_on channel=1 note=55 velocity=0 time=16
note_on channel=1 note=51 velocity=80 time=8
note_on channel=1 note=51 velocity=0 time=16
note_on channel=1 note=50 velocity=80 time=8
note_on channel=1 note=50 velocity=0 time=32
note_on channel=1 note=55 velocity=80 time=16
note_on channel=1 note=52 velocity=80 time=0
note_on channel=1 note=52 velocity=0 time=16
note_on channel=1 note=55 velocity=0 time=0
note_on channel=1 note=58 velocity=80 time=8
note_on channel=1 note=49 velocity=80 time=0
note_on channel=1 note=49 velocity=0 time=32
note_on channel=1 note=58 velocity=0 time=0
note_on channel=1 note=57 velocity=80 time=16
note_on channel=1 note=50 velocity=80 time=0
note_on channel=1 note=50 velocity=0 time=32
note_on channel=1 note=57 velocity=0 time=0
note_on channel=1 note=57 velocity=80 time=16
note_on channel=1 note=45 velocity=80 time=0
note_on channel=1 note=45 velocity=0 time=32
note_on channel=1 note=57 velocity=0 time=0
note_on channel=1 note=46 velocity=80 time=16
note_on channel=1 note=58 velocity=80 time=0
note_on channel=1 note=58 velocity=0 time=32
note_on channel=1 note=46 velocity=0 time=0
note_on channel=1 note=52 velocity=80 time=16
note_on channel=1 note=40 velocity=80 time=0
note_on channel=1 note=40 velocity=0 time=32
note_on channel=1 note=52 velocity=0 time=0
note_on channel=1 note=53 velocity=80 time=16
note_on channel=1 note=41 velocity=80 time=0
note_on channel=1 note=41 velocity=0 time=32
note_on channel=1 note=53 velocity=0 time=0
note_on channel=1 note=53 velocity=80 time=16
note_on channel=1 note=41 velocity=80 time=0
note_on channel=1 note=41 velocity=0 time=32
note_on channel=1 note=53 velocity=0 time=0
note_on channel=1 note=43 velocity=80 time=16
note_on channel=1 note=55 velocity=80 time=0
note_on channel=1 note=55 velocity=0 time=32
note_on channel=1 note=43 velocity=0 time=0
note_on channel=1 note=57 velocity=80 time=16
note_on channel=1 note=45 velocity=80 time=0
note_on channel=1 note=45 velocity=0 time=32
note_on channel=1 note=57 velocity=0 time=0
note_on channel=1 note=58 velocity=80 time=16
note_on channel=1 note=46 velocity=80 time=0
note_on channel=1 note=46 velocity=0 time=32
note_on channel=1 note=58 velocity=0 time=0
note_on channel=1 note=58 velocity=80 time=16
note_on channel=1 note=62 velocity=80 time=0
note_on channel=1 note=53 velocity=80 time=0
note_on channel=1 note=53 velocity=0 time=32
note_on channel=1 note=62 velocity=0 time=0
note_on channel=1 note=58 velocity=0 time=0
note_on channel=1 note=41 velocity=80 time=16
note_on channel=1 note=41 velocity=0 time=32
note_on channel=1 note=53 velocity=80 time=16
note_on channel=1 note=58 velocity=80 time=0
note_on channel=1 note=62 velocity=80 time=0
note_on channel=1 note=62 velocity=0 time=32
note_on channel=1 note=58 velocity=0 time=0
note_on channel=1 note=53 velocity=0 time=0
note_on channel=1 note=48 velocity=80 time=16
note_on channel=1 note=48 velocity=0 time=32
note_on channel=1 note=53 velocity=80 time=16
note_on channel=1 note=57 velocity=80 time=0
note_on channel=1 note=63 velocity=80 time=0
note_on channel=1 note=63 velocity=0 time=32
note_on channel=1 note=57 velocity=0 time=0
note_on channel=1 note=53 velocity=0 time=0
note_on channel=1 note=41 velocity=80 time=16
note_on channel=1 note=41 velocity=0 time=32
note_on channel=1 note=53 velocity=80 time=16
note_on channel=1 note=57 velocity=80 time=0
note_on channel=1 note=60 velocity=80 time=0
note_on channel=1 note=60 velocity=0 time=32
note_on channel=1 note=57 velocity=0 time=0
note_on channel=1 note=53 velocity=0 time=0
note_on channel=1 note=46 velocity=80 time=16
note_on channel=1 note=46 velocity=0 time=32
note_on channel=1 note=58 velocity=80 time=16
note_on channel=1 note=62 velocity=80 time=0
note_on channel=1 note=53 velocity=80 time=0
note_on channel=1 note=53 velocity=0 time=32
note_on channel=1 note=62 velocity=0 time=0
note_on channel=1 note=58 velocity=0 time=0
note_on channel=1 note=41 velocity=80 time=16
note_on channel=1 note=41 velocity=0 time=32
note_on channel=1 note=53 velocity=80 time=16
note_on channel=1 note=58 velocity=80 time=0
note_on channel=1 note=62 velocity=80 time=0
note_on channel=1 note=62 velocity=0 time=32
note_on channel=1 note=58 velocity=0 time=0
note_on channel=1 note=53 velocity=0 time=0
note_on channel=1 note=48 velocity=80 time=16
note_on channel=1 note=48 velocity=0 time=32
note_on channel=1 note=53 velocity=80 time=16
note_on channel=1 note=57 velocity=80 time=0
note_on channel=1 note=63 velocity=80 time=0
note_on channel=1 note=63 velocity=0 time=32
note_on channel=1 note=57 velocity=0 time=0
note_on channel=1 note=53 velocity=0 time=0
note_on channel=1 note=41 velocity=80 time=16
note_on channel=1 note=41 velocity=0 time=32
note_on channel=1 note=53 velocity=80 time=16
note_on channel=1 note=53 velocity=0 time=32
note_on channel=1 note=55 velocity=80 time=16
note_on channel=1 note=55 velocity=0 time=32
note_on channel=1 note=49 velocity=80 time=16
note_on channel=1 note=49 velocity=0 time=32
note_on channel=1 note=50 velocity=80 time=16
note_on channel=1 note=50 velocity=0 time=64
note_on channel=1 note=55 velocity=80 time=32
note_on channel=1 note=55 velocity=0 time=32
note_on channel=1 note=49 velocity=80 time=16
note_on channel=1 note=49 velocity=0 time=32
note_on channel=1 note=50 velocity=80 time=16
note_on channel=1 note=50 velocity=0 time=64
note_on channel=1 note=48 velocity=80 time=32
note_on channel=1 note=48 velocity=0 time=32
note_on channel=1 note=53 velocity=80 time=16
note_on channel=1 note=57 velocity=80 time=0
note_on channel=1 note=63 velocity=80 time=0
note_on channel=1 note=63 velocity=0 time=32
note_on channel=1 note=57 velocity=0 time=0
note_on channel=1 note=53 velocity=0 time=0
note_on channel=1 note=41 velocity=80 time=16
note_on channel=1 note=41 velocity=0 time=32
note_on channel=1 note=53 velocity=80 time=16
note_on channel=1 note=57 velocity=80 time=0
note_on channel=1 note=63 velocity=80 time=0
note_on channel=1 note=63 velocity=0 time=32
note_on channel=1 note=57 velocity=0 time=0
note_on channel=1 note=53 velocity=0 time=0
note_on channel=1 note=46 velocity=80 time=16
note_on channel=1 note=46 velocity=0 time=32
note_on channel=1 note=53 velocity=80 time=16
note_on channel=1 note=58 velocity=80 time=0
note_on channel=1 note=62 velocity=80 time=0
note_on channel=1 note=62 velocity=0 time=32
note_on channel=1 note=58 velocity=0 time=0
note_on channel=1 note=53 velocity=0 time=0
note_on channel=1 note=41 velocity=80 time=16
note_on channel=1 note=41 velocity=0 time=32
note_on channel=1 note=53 velocity=80 time=16
note_on channel=1 note=57 velocity=80 time=0
note_on channel=1 note=63 velocity=80 time=0
note_on channel=1 note=63 velocity=0 time=32
note_on channel=1 note=57 velocity=0 time=0
note_on channel=1 note=53 velocity=0 time=0
note_on channel=1 note=58 velocity=80 time=16
note_on channel=1 note=46 velocity=80 time=0
note_on channel=1 note=46 velocity=0 time=32
note_on channel=1 note=58 velocity=0 time=0
note_on channel=1 note=58 velocity=80 time=16
note_on channel=1 note=62 velocity=80 time=0
note_on channel=1 note=53 velocity=80 time=0
note_on channel=1 note=53 velocity=0 time=32
note_on channel=1 note=62 velocity=0 time=0
note_on channel=1 note=58 velocity=0 time=0
note_on channel=1 note=41 velocity=80 time=16
note_on channel=1 note=41 velocity=0 time=32
note_on channel=1 note=53 velocity=80 time=16
note_on channel=1 note=58 velocity=80 time=0
note_on channel=1 note=62 velocity=80 time=0
note_on channel=1 note=62 velocity=0 time=32
note_on channel=1 note=58 velocity=0 time=0
note_on channel=1 note=53 velocity=0 time=0
note_on channel=1 note=48 velocity=80 time=16
note_on channel=1 note=48 velocity=0 time=32
note_on channel=1 note=53 velocity=80 time=16
note_on channel=1 note=57 velocity=80 time=0
note_on channel=1 note=63 velocity=80 time=0
note_on channel=1 note=63 velocity=0 time=32
note_on channel=1 note=57 velocity=0 time=0
note_on channel=1 note=53 velocity=0 time=0
note_on channel=1 note=41 velocity=80 time=16
note_on channel=1 note=41 velocity=0 time=32
note_on channel=1 note=53 velocity=80 time=16
note_on channel=1 note=57 velocity=80 time=0
note_on channel=1 note=60 velocity=80 time=0
note_on channel=1 note=60 velocity=0 time=32
note_on channel=1 note=57 velocity=0 time=0
note_on channel=1 note=53 velocity=0 time=0
note_on channel=1 note=46 velocity=80 time=16
note_on channel=1 note=46 velocity=0 time=32
note_on channel=1 note=58 velocity=80 time=16
note_on channel=1 note=62 velocity=80 time=0
note_on channel=1 note=53 velocity=80 time=0
note_on channel=1 note=53 velocity=0 time=32
note_on channel=1 note=62 velocity=0 time=0
note_on channel=1 note=58 velocity=0 time=0
note_on channel=1 note=41 velocity=80 time=16
note_on channel=1 note=41 velocity=0 time=32
note_on channel=1 note=53 velocity=80 time=16
note_on channel=1 note=58 velocity=80 time=0
note_on channel=1 note=62 velocity=80 time=0
note_on channel=1 note=62 velocity=0 time=32
note_on channel=1 note=58 velocity=0 time=0
note_on channel=1 note=53 velocity=0 time=0
note_on channel=1 note=48 velocity=80 time=16
note_on channel=1 note=48 velocity=0 time=32
note_on channel=1 note=53 velocity=80 time=16
note_on channel=1 note=57 velocity=80 time=0
note_on channel=1 note=63 velocity=80 time=0
note_on channel=1 note=63 velocity=0 time=32
note_on channel=1 note=57 velocity=0 time=0
note_on channel=1 note=53 velocity=0 time=0
note_on channel=1 note=41 velocity=80 time=16
note_on channel=1 note=41 velocity=0 time=32
note_on channel=1 note=53 velocity=80 time=16
note_on channel=1 note=53 velocity=0 time=32
note_on channel=1 note=55 velocity=80 time=16
note_on channel=1 note=55 velocity=0 time=32
note_on channel=1 note=49 velocity=80 time=16
note_on channel=1 note=49 velocity=0 time=32
note_on channel=1 note=50 velocity=80 time=16
note_on channel=1 note=50 velocity=0 time=64
note_on channel=1 note=55 velocity=80 time=32
note_on channel=1 note=55 velocity=0 time=32
note_on channel=1 note=49 velocity=80 time=16
note_on channel=1 note=49 velocity=0 time=32
note_on channel=1 note=50 velocity=80 time=16
note_on channel=1 note=50 velocity=0 time=64
note_on channel=1 note=48 velocity=80 time=32
note_on channel=1 note=48 velocity=0 time=32
note_on channel=1 note=53 velocity=80 time=16
note_on channel=1 note=57 velocity=80 time=0
note_on channel=1 note=63 velocity=80 time=0
note_on channel=1 note=63 velocity=0 time=32
note_on channel=1 note=57 velocity=0 time=0
note_on channel=1 note=53 velocity=0 time=0
note_on channel=1 note=41 velocity=80 time=16
note_on channel=1 note=41 velocity=0 time=32
note_on channel=1 note=53 velocity=80 time=16
note_on channel=1 note=57 velocity=80 time=0
note_on channel=1 note=63 velocity=80 time=0
note_on channel=1 note=63 velocity=0 time=32
note_on channel=1 note=57 velocity=0 time=0
note_on channel=1 note=53 velocity=0 time=0
note_on channel=1 note=62 velocity=80 time=16
note_on channel=1 note=58 velocity=80 time=0
note_on channel=1 note=58 velocity=0 time=32
note_on channel=1 note=53 velocity=80 time=16
note_on channel=1 note=41 velocity=80 time=0
note_on channel=1 note=41 velocity=0 time=32
note_on channel=1 note=53 velocity=0 time=0
note_on channel=1 note=62 velocity=0 time=16
note_on channel=1 note=43 velocity=80 time=0
note_on channel=1 note=55 velocity=80 time=0
note_on channel=1 note=55 velocity=0 time=32
note_on channel=1 note=43 velocity=0 time=0
note_on channel=1 note=57 velocity=80 time=16
note_on channel=1 note=45 velocity=80 time=0
note_on channel=1 note=45 velocity=0 time=32
note_on channel=1 note=57 velocity=0 time=0
note_on channel=1 note=58 velocity=80 time=16
note_on channel=1 note=46 velocity=80 time=0
note_on channel=1 note=46 velocity=0 time=32
note_on channel=1 note=58 velocity=0 time=0
note_on channel=1 note=58 velocity=80 time=16
note_on channel=1 note=62 velocity=80 time=0
note_on channel=1 note=53 velocity=80 time=0
note_on channel=1 note=53 velocity=0 time=32
note_on channel=1 note=62 velocity=0 time=0
note_on channel=1 note=58 velocity=0 time=0
note_on channel=1 note=41 velocity=80 time=16
note_on channel=1 note=41 velocity=0 time=32
note_on channel=1 note=53 velocity=80 time=16
note_on channel=1 note=58 velocity=80 time=0
note_on channel=1 note=62 velocity=80 time=0
note_on channel=1 note=62 velocity=0 time=32
note_on channel=1 note=58 velocity=0 time=0
note_on channel=1 note=53 velocity=0 time=0
note_on channel=1 note=48 velocity=80 time=16
note_on channel=1 note=48 velocity=0 time=32
note_on channel=1 note=53 velocity=80 time=16
note_on channel=1 note=57 velocity=80 time=0
note_on channel=1 note=63 velocity=80 time=0
note_on channel=1 note=63 velocity=0 time=32
note_on channel=1 note=57 velocity=0 time=0
note_on channel=1 note=53 velocity=0 time=0
note_on channel=1 note=41 velocity=80 time=16
note_on channel=1 note=41 velocity=0 time=32
note_on channel=1 note=53 velocity=80 time=16
note_on channel=1 note=57 velocity=80 time=0
note_on channel=1 note=60 velocity=80 time=0
note_on channel=1 note=60 velocity=0 time=32
note_on channel=1 note=57 velocity=0 time=0
note_on channel=1 note=53 velocity=0 time=0
note_on channel=1 note=46 velocity=80 time=16
note_on channel=1 note=46 velocity=0 time=32
note_on channel=1 note=58 velocity=80 time=16
note_on channel=1 note=62 velocity=80 time=0
note_on channel=1 note=53 velocity=80 time=0
note_on channel=1 note=53 velocity=0 time=32
note_on channel=1 note=62 velocity=0 time=0
note_on channel=1 note=58 velocity=0 time=0
note_on channel=1 note=41 velocity=80 time=16
note_on channel=1 note=41 velocity=0 time=32
note_on channel=1 note=53 velocity=80 time=16
note_on channel=1 note=58 velocity=80 time=0
note_on channel=1 note=62 velocity=80 time=0
note_on channel=1 note=62 velocity=0 time=32
note_on channel=1 note=58 velocity=0 time=0
note_on channel=1 note=53 velocity=0 time=0
note_on channel=1 note=48 velocity=80 time=16
note_on channel=1 note=48 velocity=0 time=32
note_on channel=1 note=53 velocity=80 time=16
note_on channel=1 note=57 velocity=80 time=0
note_on channel=1 note=63 velocity=80 time=0
note_on channel=1 note=63 velocity=0 time=32
note_on channel=1 note=57 velocity=0 time=0
note_on channel=1 note=53 velocity=0 time=0
note_on channel=1 note=41 velocity=80 time=16
note_on channel=1 note=41 velocity=0 time=32
note_on channel=1 note=53 velocity=80 time=16
note_on channel=1 note=53 velocity=0 time=32
note_on channel=1 note=55 velocity=80 time=16
note_on channel=1 note=55 velocity=0 time=32
note_on channel=1 note=49 velocity=80 time=16
note_on channel=1 note=49 velocity=0 time=32
note_on channel=1 note=50 velocity=80 time=16
note_on channel=1 note=50 velocity=0 time=64
note_on channel=1 note=55 velocity=80 time=32
note_on channel=1 note=55 velocity=0 time=32
note_on channel=1 note=49 velocity=80 time=16
note_on channel=1 note=49 velocity=0 time=32
note_on channel=1 note=50 velocity=80 time=16
note_on channel=1 note=50 velocity=0 time=64
note_on channel=1 note=48 velocity=80 time=32
note_on channel=1 note=48 velocity=0 time=32
note_on channel=1 note=53 velocity=80 time=16
note_on channel=1 note=57 velocity=80 time=0
note_on channel=1 note=63 velocity=80 time=0
note_on channel=1 note=63 velocity=0 time=32
note_on channel=1 note=57 velocity=0 time=0
note_on channel=1 note=53 velocity=0 time=0
note_on channel=1 note=41 velocity=80 time=16
note_on channel=1 note=41 velocity=0 time=32
note_on channel=1 note=53 velocity=80 time=16
note_on channel=1 note=57 velocity=80 time=0
note_on channel=1 note=63 velocity=80 time=0
note_on channel=1 note=63 velocity=0 time=32
note_on channel=1 note=57 velocity=0 time=0
note_on channel=1 note=53 velocity=0 time=0
note_on channel=1 note=46 velocity=80 time=16
note_on channel=1 note=46 velocity=0 time=32
note_on channel=1 note=53 velocity=80 time=16
note_on channel=1 note=58 velocity=80 time=0
note_on channel=1 note=62 velocity=80 time=0
note_on channel=1 note=62 velocity=0 time=32
note_on channel=1 note=58 velocity=0 time=0
note_on channel=1 note=53 velocity=0 time=0
note_on channel=1 note=41 velocity=80 time=16
note_on channel=1 note=41 velocity=0 time=32
note_on channel=1 note=53 velocity=80 time=16
note_on channel=1 note=57 velocity=80 time=0
note_on channel=1 note=63 velocity=80 time=0
note_on channel=1 note=63 velocity=0 time=32
note_on channel=1 note=57 velocity=0 time=0
note_on channel=1 note=53 velocity=0 time=0
note_on channel=1 note=58 velocity=80 time=16
note_on channel=1 note=46 velocity=80 time=0
note_on channel=1 note=46 velocity=0 time=32
note_on channel=1 note=58 velocity=0 time=0
note_on channel=1 note=58 velocity=80 time=16
note_on channel=1 note=62 velocity=80 time=0
note_on channel=1 note=53 velocity=80 time=0
note_on channel=1 note=53 velocity=0 time=32
note_on channel=1 note=62 velocity=0 time=0
note_on channel=1 note=58 velocity=0 time=0
note_on channel=1 note=41 velocity=80 time=16
note_on channel=1 note=41 velocity=0 time=32
note_on channel=1 note=53 velocity=80 time=16
note_on channel=1 note=58 velocity=80 time=0
note_on channel=1 note=62 velocity=80 time=0
note_on channel=1 note=62 velocity=0 time=32
note_on channel=1 note=58 velocity=0 time=0
note_on channel=1 note=53 velocity=0 time=0
note_on channel=1 note=48 velocity=80 time=16
note_on channel=1 note=48 velocity=0 time=32
note_on channel=1 note=53 velocity=80 time=16
note_on channel=1 note=57 velocity=80 time=0
note_on channel=1 note=63 velocity=80 time=0
note_on channel=1 note=63 velocity=0 time=32
note_on channel=1 note=57 velocity=0 time=0
note_on channel=1 note=53 velocity=0 time=0
note_on channel=1 note=41 velocity=80 time=16
note_on channel=1 note=41 velocity=0 time=32
note_on channel=1 note=53 velocity=80 time=16
note_on channel=1 note=57 velocity=80 time=0
note_on channel=1 note=60 velocity=80 time=0
note_on channel=1 note=60 velocity=0 time=32
note_on channel=1 note=57 velocity=0 time=0
note_on channel=1 note=53 velocity=0 time=0
note_on channel=1 note=46 velocity=80 time=16
note_on channel=1 note=46 velocity=0 time=32
note_on channel=1 note=58 velocity=80 time=16
note_on channel=1 note=62 velocity=80 time=0
note_on channel=1 note=53 velocity=80 time=0
note_on channel=1 note=53 velocity=0 time=32
note_on channel=1 note=62 velocity=0 time=0
note_on channel=1 note=58 velocity=0 time=0
note_on channel=1 note=41 velocity=80 time=16
note_on channel=1 note=41 velocity=0 time=32
note_on channel=1 note=53 velocity=80 time=16
note_on channel=1 note=58 velocity=80 time=0
note_on channel=1 note=62 velocity=80 time=0
note_on channel=1 note=62 velocity=0 time=32
note_on channel=1 note=58 velocity=0 time=0
note_on channel=1 note=53 velocity=0 time=0
note_on channel=1 note=48 velocity=80 time=16
note_on channel=1 note=48 velocity=0 time=32
note_on channel=1 note=53 velocity=80 time=16
note_on channel=1 note=57 velocity=80 time=0
note_on channel=1 note=63 velocity=80 time=0
note_on channel=1 note=63 velocity=0 time=32
note_on channel=1 note=57 velocity=0 time=0
note_on channel=1 note=53 velocity=0 time=0
note_on channel=1 note=41 velocity=80 time=16
note_on channel=1 note=41 velocity=0 time=32
note_on channel=1 note=53 velocity=80 time=16
note_on channel=1 note=53 velocity=0 time=32
note_on channel=1 note=55 velocity=80 time=16
note_on channel=1 note=55 velocity=0 time=32
note_on channel=1 note=49 velocity=80 time=16
note_on channel=1 note=49 velocity=0 time=32
note_on channel=1 note=50 velocity=80 time=16
note_on channel=1 note=50 velocity=0 time=64
note_on channel=1 note=55 velocity=80 time=32
note_on channel=1 note=55 velocity=0 time=32
note_on channel=1 note=49 velocity=80 time=16
note_on channel=1 note=49 velocity=0 time=32
note_on channel=1 note=50 velocity=80 time=16
note_on channel=1 note=50 velocity=0 time=64
note_on channel=1 note=48 velocity=80 time=32
note_on channel=1 note=48 velocity=0 time=32
note_on channel=1 note=53 velocity=80 time=16
note_on channel=1 note=57 velocity=80 time=0
note_on channel=1 note=63 velocity=80 time=0
note_on channel=1 note=63 velocity=0 time=32
note_on channel=1 note=57 velocity=0 time=0
note_on channel=1 note=53 velocity=0 time=0
note_on channel=1 note=41 velocity=80 time=16
note_on channel=1 note=41 velocity=0 time=32
note_on channel=1 note=53 velocity=80 time=16
note_on channel=1 note=57 velocity=80 time=0
note_on channel=1 note=63 velocity=80 time=0
note_on channel=1 note=63 velocity=0 time=32
note_on channel=1 note=57 velocity=0 time=0
note_on channel=1 note=53 velocity=0 time=0
note_on channel=1 note=58 velocity=80 time=16
note_on channel=1 note=62 velocity=80 time=0
note_on channel=1 note=58 velocity=0 time=32
note_on channel=1 note=53 velocity=80 time=16
note_on channel=1 note=41 velocity=80 time=0
note_on channel=1 note=62 velocity=0 time=16
note_on channel=1 note=41 velocity=0 time=16
note_on channel=1 note=53 velocity=0 time=0
note_on channel=1 note=46 velocity=80 time=16
note_on channel=1 note=34 velocity=80 time=0
note_on channel=1 note=34 velocity=0 time=32
note_on channel=1 note=46 velocity=0 time=0
note_on channel=1 note=43 velocity=80 time=64
note_on channel=1 note=43 velocity=0 time=32
note_on channel=1 note=55 velocity=80 time=16
note_on channel=1 note=58 velocity=80 time=0
note_on channel=1 note=62 velocity=80 time=0
note_on channel=1 note=62 velocity=0 time=32
note_on channel=1 note=58 velocity=0 time=0
note_on channel=1 note=55 velocity=0 time=0
note_on channel=1 note=50 velocity=80 time=16
note_on channel=1 note=50 velocity=0 time=32
note_on channel=1 note=55 velocity=80 time=16
note_on channel=1 note=58 velocity=80 time=0
note_on channel=1 note=62 velocity=80 time=0
note_on channel=1 note=62 velocity=0 time=32
note_on channel=1 note=58 velocity=0 time=0
note_on channel=1 note=55 velocity=0 time=0
note_on channel=1 note=48 velocity=80 time=16
note_on channel=1 note=48 velocity=0 time=32
note_on channel=1 note=55 velocity=80 time=16
note_on channel=1 note=60 velocity=80 time=0
note_on channel=1 note=63 velocity=80 time=0
note_on channel=1 note=63 velocity=0 time=32
note_on channel=1 note=60 velocity=0 time=0
note_on channel=1 note=55 velocity=0 time=0
note_on channel=1 note=48 velocity=80 time=16
note_on channel=1 note=48 velocity=0 time=32
note_on channel=1 note=60 velocity=80 time=16
note_on channel=1 note=63 velocity=80 time=0
note_on channel=1 note=55 velocity=80 time=0
note_on channel=1 note=55 velocity=0 time=32
note_on channel=1 note=63 velocity=0 time=0
note_on channel=1 note=60 velocity=0 time=0
note_on channel=1 note=43 velocity=80 time=16
note_on channel=1 note=43 velocity=0 time=32
note_on channel=1 note=55 velocity=80 time=16
note_on channel=1 note=58 velocity=80 time=0
note_on channel=1 note=62 velocity=80 time=0
note_on channel=1 note=62 velocity=0 time=32
note_on channel=1 note=58 velocity=0 time=0
note_on channel=1 note=55 velocity=0 time=0
note_on channel=1 note=50 velocity=80 time=16
note_on channel=1 note=50 velocity=0 time=32
note_on channel=1 note=55 velocity=80 time=16
note_on channel=1 note=58 velocity=80 time=0
note_on channel=1 note=62 velocity=80 time=0
note_on channel=1 note=62 velocity=0 time=32
note_on channel=1 note=58 velocity=0 time=0
note_on channel=1 note=55 velocity=0 time=0
note_on channel=1 note=48 velocity=80 time=16
note_on channel=1 note=48 velocity=0 time=32
note_on channel=1 note=55 velocity=80 time=16
note_on channel=1 note=60 velocity=80 time=0
note_on channel=1 note=63 velocity=80 time=0
note_on channel=1 note=63 velocity=0 time=32
note_on channel=1 note=60 velocity=0 time=0
note_on channel=1 note=55 velocity=0 time=0
note_on channel=1 note=55 velocity=80 time=16
note_on channel=1 note=60 velocity=80 time=0
note_on channel=1 note=63 velocity=80 time=0
note_on channel=1 note=63 velocity=0 time=32
note_on channel=1 note=60 velocity=0 time=0
note_on channel=1 note=55 velocity=0 time=0
note_on channel=1 note=62 velocity=80 time=16
note_on channel=1 note=62 velocity=0 time=32
note_on channel=1 note=63 velocity=80 time=16
note_on channel=1 note=63 velocity=0 time=16
note_on channel=1 note=62 velocity=80 time=8
note_on channel=1 note=62 velocity=0 time=16
note_on channel=1 note=60 velocity=80 time=8
note_on channel=1 note=60 velocity=0 time=16
note_on channel=1 note=62 velocity=80 time=8
note_on channel=1 note=62 velocity=0 time=16
note_on channel=1 note=58 velocity=80 time=8
note_on channel=1 note=58 velocity=0 time=32
note_on channel=1 note=50 velocity=80 time=16
note_on channel=1 note=50 velocity=0 time=32
note_on channel=1 note=60 velocity=80 time=16
note_on channel=1 note=60 velocity=0 time=16
note_on channel=1 note=58 velocity=80 time=8
note_on channel=1 note=58 velocity=0 time=16
note_on channel=1 note=57 velocity=80 time=8
note_on channel=1 note=57 velocity=0 time=16
note_on channel=1 note=58 velocity=80 time=8
note_on channel=1 note=58 velocity=0 time=16
note_on channel=1 note=55 velocity=80 time=8
note_on channel=1 note=55 velocity=0 time=32
note_on channel=1 note=55 velocity=80 time=16
note_on channel=1 note=43 velocity=80 time=0
note_on channel=1 note=43 velocity=0 time=32
note_on channel=1 note=55 velocity=0 time=0
note_on channel=1 note=51 velocity=80 time=16
note_on channel=1 note=39 velocity=80 time=0
note_on channel=1 note=39 velocity=0 time=64
note_on channel=1 note=51 velocity=0 time=0
note_on channel=1 note=37 velocity=80 time=32
note_on channel=1 note=49 velocity=80 time=0
note_on channel=1 note=49 velocity=0 time=64
note_on channel=1 note=37 velocity=0 time=0
note_on channel=1 note=50 velocity=80 time=32
note_on channel=1 note=38 velocity=80 time=0
note_on channel=1 note=38 velocity=0 time=32
note_on channel=1 note=50 velocity=0 time=0
note_on channel=1 note=50 velocity=80 time=64
note_on channel=1 note=38 velocity=80 time=0
note_on channel=1 note=38 velocity=0 time=64
note_on channel=1 note=50 velocity=0 time=0
note_on channel=1 note=43 velocity=80 time=32
note_on channel=1 note=43 velocity=0 time=32
note_on channel=1 note=55 velocity=80 time=16
note_on channel=1 note=58 velocity=80 time=0
note_on channel=1 note=62 velocity=80 time=0
note_on channel=1 note=62 velocity=0 time=32
note_on channel=1 note=58 velocity=0 time=0
note_on channel=1 note=55 velocity=0 time=0
note_on channel=1 note=50 velocity=80 time=16
note_on channel=1 note=50 velocity=0 time=32
note_on channel=1 note=55 velocity=80 time=16
note_on channel=1 note=58 velocity=80 time=0
note_on channel=1 note=62 velocity=80 time=0
note_on channel=1 note=62 velocity=0 time=32
note_on channel=1 note=58 velocity=0 time=0
note_on channel=1 note=55 velocity=0 time=0
note_on channel=1 note=48 velocity=80 time=16
note_on channel=1 note=48 velocity=0 time=32
note_on channel=1 note=55 velocity=80 time=16
note_on channel=1 note=60 velocity=80 time=0
note_on channel=1 note=63 velocity=80 time=0
note_on channel=1 note=63 velocity=0 time=32
note_on channel=1 note=60 velocity=0 time=0
note_on channel=1 note=55 velocity=0 time=0
note_on channel=1 note=48 velocity=80 time=16
note_on channel=1 note=48 velocity=0 time=32
note_on channel=1 note=60 velocity=80 time=16
note_on channel=1 note=63 velocity=80 time=0
note_on channel=1 note=55 velocity=80 time=0
note_on channel=1 note=55 velocity=0 time=32
note_on channel=1 note=63 velocity=0 time=0
note_on channel=1 note=60 velocity=0 time=0
note_on channel=1 note=43 velocity=80 time=16
note_on channel=1 note=43 velocity=0 time=32
note_on channel=1 note=55 velocity=80 time=16
note_on channel=1 note=58 velocity=80 time=0
note_on channel=1 note=62 velocity=80 time=0
note_on channel=1 note=62 velocity=0 time=32
note_on channel=1 note=58 velocity=0 time=0
note_on channel=1 note=55 velocity=0 time=0
note_on channel=1 note=50 velocity=80 time=16
note_on channel=1 note=50 velocity=0 time=32
note_on channel=1 note=55 velocity=80 time=16
note_on channel=1 note=58 velocity=80 time=0
note_on channel=1 note=62 velocity=80 time=0
note_on channel=1 note=62 velocity=0 time=32
note_on channel=1 note=58 velocity=0 time=0
note_on channel=1 note=55 velocity=0 time=0
note_on channel=1 note=48 velocity=80 time=16
note_on channel=1 note=48 velocity=0 time=32
note_on channel=1 note=55 velocity=80 time=16
note_on channel=1 note=60 velocity=80 time=0
note_on channel=1 note=63 velocity=80 time=0
note_on channel=1 note=63 velocity=0 time=32
note_on channel=1 note=60 velocity=0 time=0
note_on channel=1 note=55 velocity=0 time=0
note_on channel=1 note=55 velocity=80 time=16
note_on channel=1 note=60 velocity=80 time=0
note_on channel=1 note=63 velocity=80 time=0
note_on channel=1 note=63 velocity=0 time=32
note_on channel=1 note=60 velocity=0 time=0
note_on channel=1 note=55 velocity=0 time=0
note_on channel=1 note=51 velocity=80 time=64
note_on channel=1 note=39 velocity=80 time=0
note_on channel=1 note=39 velocity=0 time=32
note_on channel=1 note=51 velocity=0 time=0
note_on channel=1 note=55 velocity=80 time=16
note_on channel=1 note=60 velocity=80 time=0
note_on channel=1 note=63 velocity=80 time=0
note_on channel=1 note=63 velocity=0 time=32
note_on channel=1 note=60 velocity=0 time=0
note_on channel=1 note=55 velocity=0 time=0
note_on channel=1 note=52 velocity=80 time=16
note_on channel=1 note=40 velocity=80 time=0
note_on channel=1 note=40 velocity=0 time=32
note_on channel=1 note=52 velocity=0 time=0
note_on channel=1 note=55 velocity=80 time=16
note_on channel=1 note=58 velocity=80 time=0
note_on channel=1 note=61 velocity=80 time=0
note_on channel=1 note=61 velocity=0 time=32
note_on channel=1 note=58 velocity=0 time=0
note_on channel=1 note=55 velocity=0 time=0
note_on channel=1 note=53 velocity=80 time=16
note_on channel=1 note=41 velocity=80 time=0
note_on channel=1 note=41 velocity=0 time=32
note_on channel=1 note=53 velocity=0 time=0
note_on channel=1 note=53 velocity=80 time=16
note_on channel=1 note=58 velocity=80 time=0
note_on channel=1 note=62 velocity=80 time=0
note_on channel=1 note=62 velocity=0 time=32
note_on channel=1 note=58 velocity=0 time=0
note_on channel=1 note=53 velocity=0 time=0
note_on channel=1 note=52 velocity=80 time=16
note_on channel=1 note=40 velocity=80 time=0
note_on channel=1 note=40 velocity=0 time=32
note_on channel=1 note=52 velocity=0 time=0
note_on channel=1 note=52 velocity=80 time=16
note_on channel=1 note=55 velocity=80 time=0
note_on channel=1 note=61 velocity=80 time=0
note_on channel=1 note=58 velocity=80 time=0
note_on channel=1 note=58 velocity=0 time=32
note_on channel=1 note=52 velocity=0 time=0
note_on channel=1 note=55 velocity=0 time=0
note_on channel=1 note=61 velocity=0 time=0
note_on channel=1 note=53 velocity=80 time=16
note_on channel=1 note=41 velocity=80 time=0
note_on channel=1 note=41 velocity=0 time=32
note_on channel=1 note=53 velocity=0 time=0
note_on channel=1 note=42 velocity=80 time=16
note_on channel=1 note=54 velocity=80 time=0
note_on channel=1 note=54 velocity=0 time=32
note_on channel=1 note=42 velocity=0 time=0
note_on channel=1 note=55 velocity=80 time=16
note_on channel=1 note=43 velocity=80 time=0
note_on channel=1 note=43 velocity=0 time=32
note_on channel=1 note=55 velocity=0 time=0
note_on channel=1 note=57 velocity=80 time=16
note_on channel=1 note=45 velocity=80 time=0
note_on channel=1 note=45 velocity=0 time=32
note_on channel=1 note=57 velocity=0 time=0
note_on channel=1 note=58 velocity=80 time=16
note_on channel=1 note=46 velocity=80 time=0
note_on channel=1 note=46 velocity=0 time=64
note_on channel=1 note=58 velocity=0 time=0
note_on channel=1 note=50 velocity=80 time=32
note_on channel=1 note=38 velocity=80 time=0
note_on channel=1 note=38 velocity=0 time=64
note_on channel=1 note=50 velocity=0 time=0
note_on channel=1 note=43 velocity=80 time=32
note_on channel=1 note=43 velocity=0 time=32
note_on channel=1 note=55 velocity=80 time=16
note_on channel=1 note=58 velocity=80 time=0
note_on channel=1 note=62 velocity=80 time=0
note_on channel=1 note=62 velocity=0 time=32
note_on channel=1 note=58 velocity=0 time=0
note_on channel=1 note=55 velocity=0 time=0
note_on channel=1 note=50 velocity=80 time=16
note_on channel=1 note=50 velocity=0 time=32
note_on channel=1 note=55 velocity=80 time=16
note_on channel=1 note=58 velocity=80 time=0
note_on channel=1 note=62 velocity=80 time=0
note_on channel=1 note=62 velocity=0 time=32
note_on channel=1 note=58 velocity=0 time=0
note_on channel=1 note=55 velocity=0 time=0
note_on channel=1 note=48 velocity=80 time=16
note_on channel=1 note=48 velocity=0 time=32
note_on channel=1 note=55 velocity=80 time=16
note_on channel=1 note=60 velocity=80 time=0
note_on channel=1 note=63 velocity=80 time=0
note_on channel=1 note=63 velocity=0 time=32
note_on channel=1 note=60 velocity=0 time=0
note_on channel=1 note=55 velocity=0 time=0
note_on channel=1 note=48 velocity=80 time=16
note_on channel=1 note=48 velocity=0 time=32
note_on channel=1 note=60 velocity=80 time=16
note_on channel=1 note=63 velocity=80 time=0
note_on channel=1 note=55 velocity=80 time=0
note_on channel=1 note=55 velocity=0 time=32
note_on channel=1 note=63 velocity=0 time=0
note_on channel=1 note=60 velocity=0 time=0
note_on channel=1 note=43 velocity=80 time=16
note_on channel=1 note=43 velocity=0 time=32
note_on channel=1 note=55 velocity=80 time=16
note_on channel=1 note=58 velocity=80 time=0
note_on channel=1 note=62 velocity=80 time=0
note_on channel=1 note=62 velocity=0 time=32
note_on channel=1 note=58 velocity=0 time=0
note_on channel=1 note=55 velocity=0 time=0
note_on channel=1 note=50 velocity=80 time=16
note_on channel=1 note=50 velocity=0 time=32
note_on channel=1 note=55 velocity=80 time=16
note_on channel=1 note=58 velocity=80 time=0
note_on channel=1 note=62 velocity=80 time=0
note_on channel=1 note=62 velocity=0 time=32
note_on channel=1 note=58 velocity=0 time=0
note_on channel=1 note=55 velocity=0 time=0
note_on channel=1 note=48 velocity=80 time=16
note_on channel=1 note=48 velocity=0 time=32
note_on channel=1 note=55 velocity=80 time=16
note_on channel=1 note=60 velocity=80 time=0
note_on channel=1 note=63 velocity=80 time=0
note_on channel=1 note=63 velocity=0 time=32
note_on channel=1 note=60 velocity=0 time=0
note_on channel=1 note=55 velocity=0 time=0
note_on channel=1 note=55 velocity=80 time=16
note_on channel=1 note=60 velocity=80 time=0
note_on channel=1 note=63 velocity=80 time=0
note_on channel=1 note=63 velocity=0 time=32
note_on channel=1 note=60 velocity=0 time=0
note_on channel=1 note=55 velocity=0 time=0
note_on channel=1 note=62 velocity=80 time=16
note_on channel=1 note=62 velocity=0 time=32
note_on channel=1 note=63 velocity=80 time=16
note_on channel=1 note=63 velocity=0 time=16
note_on channel=1 note=62 velocity=80 time=8
note_on channel=1 note=62 velocity=0 time=16
note_on channel=1 note=60 velocity=80 time=8
note_on channel=1 note=60 velocity=0 time=16
note_on channel=1 note=62 velocity=80 time=8
note_on channel=1 note=62 velocity=0 time=16
note_on channel=1 note=58 velocity=80 time=8
note_on channel=1 note=58 velocity=0 time=32
note_on channel=1 note=50 velocity=80 time=16
note_on channel=1 note=50 velocity=0 time=32
note_on channel=1 note=60 velocity=80 time=16
note_on channel=1 note=60 velocity=0 time=16
note_on channel=1 note=58 velocity=80 time=8
note_on channel=1 note=58 velocity=0 time=16
note_on channel=1 note=57 velocity=80 time=8
note_on channel=1 note=57 velocity=0 time=16
note_on channel=1 note=58 velocity=80 time=8
note_on channel=1 note=58 velocity=0 time=16
note_on channel=1 note=55 velocity=80 time=8
note_on channel=1 note=55 velocity=0 time=32
note_on channel=1 note=55 velocity=80 time=16
note_on channel=1 note=43 velocity=80 time=0
note_on channel=1 note=43 velocity=0 time=32
note_on channel=1 note=55 velocity=0 time=0
note_on channel=1 note=51 velocity=80 time=16
note_on channel=1 note=39 velocity=80 time=0
note_on channel=1 note=39 velocity=0 time=64
note_on channel=1 note=51 velocity=0 time=0
note_on channel=1 note=37 velocity=80 time=32
note_on channel=1 note=49 velocity=80 time=0
note_on channel=1 note=49 velocity=0 time=64
note_on channel=1 note=37 velocity=0 time=0
note_on channel=1 note=50 velocity=80 time=32
note_on channel=1 note=38 velocity=80 time=0
note_on channel=1 note=38 velocity=0 time=32
note_on channel=1 note=50 velocity=0 time=0
note_on channel=1 note=50 velocity=80 time=64
note_on channel=1 note=38 velocity=80 time=0
note_on channel=1 note=38 velocity=0 time=64
note_on channel=1 note=50 velocity=0 time=0
note_on channel=1 note=43 velocity=80 time=32
note_on channel=1 note=43 velocity=0 time=32
note_on channel=1 note=55 velocity=80 time=16
note_on channel=1 note=58 velocity=80 time=0
note_on channel=1 note=62 velocity=80 time=0
note_on channel=1 note=62 velocity=0 time=32
note_on channel=1 note=58 velocity=0 time=0
note_on channel=1 note=55 velocity=0 time=0
note_on channel=1 note=50 velocity=80 time=16
note_on channel=1 note=50 velocity=0 time=32
note_on channel=1 note=55 velocity=80 time=16
note_on channel=1 note=58 velocity=80 time=0
note_on channel=1 note=62 velocity=80 time=0
note_on channel=1 note=62 velocity=0 time=32
note_on channel=1 note=58 velocity=0 time=0
note_on channel=1 note=55 velocity=0 time=0
note_on channel=1 note=48 velocity=80 time=16
note_on channel=1 note=48 velocity=0 time=32
note_on channel=1 note=55 velocity=80 time=16
note_on channel=1 note=60 velocity=80 time=0
note_on channel=1 note=63 velocity=80 time=0
note_on channel=1 note=63 velocity=0 time=32
note_on channel=1 note=60 velocity=0 time=0
note_on channel=1 note=55 velocity=0 time=0
note_on channel=1 note=48 velocity=80 time=16
note_on channel=1 note=48 velocity=0 time=32
note_on channel=1 note=60 velocity=80 time=16
note_on channel=1 note=63 velocity=80 time=0
note_on channel=1 note=55 velocity=80 time=0
note_on channel=1 note=55 velocity=0 time=32
note_on channel=1 note=63 velocity=0 time=0
note_on channel=1 note=60 velocity=0 time=0
note_on channel=1 note=43 velocity=80 time=16
note_on channel=1 note=43 velocity=0 time=32
note_on channel=1 note=55 velocity=80 time=16
note_on channel=1 note=58 velocity=80 time=0
note_on channel=1 note=62 velocity=80 time=0
note_on channel=1 note=62 velocity=0 time=32
note_on channel=1 note=58 velocity=0 time=0
note_on channel=1 note=55 velocity=0 time=0
note_on channel=1 note=50 velocity=80 time=16
note_on channel=1 note=50 velocity=0 time=32
note_on channel=1 note=55 velocity=80 time=16
note_on channel=1 note=58 velocity=80 time=0
note_on channel=1 note=62 velocity=80 time=0
note_on channel=1 note=62 velocity=0 time=32
note_on channel=1 note=58 velocity=0 time=0
note_on channel=1 note=55 velocity=0 time=0
note_on channel=1 note=48 velocity=80 time=16
note_on channel=1 note=48 velocity=0 time=32
note_on channel=1 note=55 velocity=80 time=16
note_on channel=1 note=60 velocity=80 time=0
note_on channel=1 note=63 velocity=80 time=0
note_on channel=1 note=63 velocity=0 time=32
note_on channel=1 note=60 velocity=0 time=0
note_on channel=1 note=55 velocity=0 time=0
note_on channel=1 note=55 velocity=80 time=16
note_on channel=1 note=60 velocity=80 time=0
note_on channel=1 note=63 velocity=80 time=0
note_on channel=1 note=63 velocity=0 time=32
note_on channel=1 note=60 velocity=0 time=0
note_on channel=1 note=55 velocity=0 time=0
note_on channel=1 note=51 velocity=80 time=64
note_on channel=1 note=39 velocity=80 time=0
note_on channel=1 note=39 velocity=0 time=32
note_on channel=1 note=51 velocity=0 time=0
note_on channel=1 note=55 velocity=80 time=16
note_on channel=1 note=60 velocity=80 time=0
note_on channel=1 note=63 velocity=80 time=0
note_on channel=1 note=63 velocity=0 time=32
note_on channel=1 note=60 velocity=0 time=0
note_on channel=1 note=55 velocity=0 time=0
note_on channel=1 note=52 velocity=80 time=16
note_on channel=1 note=40 velocity=80 time=0
note_on channel=1 note=40 velocity=0 time=32
note_on channel=1 note=52 velocity=0 time=0
note_on channel=1 note=55 velocity=80 time=16
note_on channel=1 note=58 velocity=80 time=0
note_on channel=1 note=61 velocity=80 time=0
note_on channel=1 note=61 velocity=0 time=32
note_on channel=1 note=58 velocity=0 time=0
note_on channel=1 note=55 velocity=0 time=0
note_on channel=1 note=53 velocity=80 time=16
note_on channel=1 note=41 velocity=80 time=0
note_on channel=1 note=41 velocity=0 time=32
note_on channel=1 note=53 velocity=0 time=0
note_on channel=1 note=53 velocity=80 time=16
note_on channel=1 note=58 velocity=80 time=0
note_on channel=1 note=62 velocity=80 time=0
note_on channel=1 note=62 velocity=0 time=32
note_on channel=1 note=58 velocity=0 time=0
note_on channel=1 note=53 velocity=0 time=0
note_on channel=1 note=52 velocity=80 time=16
note_on channel=1 note=40 velocity=80 time=0
note_on channel=1 note=40 velocity=0 time=32
note_on channel=1 note=52 velocity=0 time=0
note_on channel=1 note=52 velocity=80 time=16
note_on channel=1 note=55 velocity=80 time=0
note_on channel=1 note=61 velocity=80 time=0
note_on channel=1 note=58 velocity=80 time=0
note_on channel=1 note=58 velocity=0 time=32
note_on channel=1 note=52 velocity=0 time=0
note_on channel=1 note=55 velocity=0 time=0
note_on channel=1 note=61 velocity=0 time=0
note_on channel=1 note=53 velocity=80 time=16
note_on channel=1 note=41 velocity=80 time=0
note_on channel=1 note=41 velocity=0 time=32
note_on channel=1 note=53 velocity=0 time=0
note_on channel=1 note=42 velocity=80 time=16
note_on channel=1 note=54 velocity=80 time=0
note_on channel=1 note=54 velocity=0 time=32
note_on channel=1 note=42 velocity=0 time=0
note_on channel=1 note=55 velocity=80 time=16
note_on channel=1 note=43 velocity=80 time=0
note_on channel=1 note=43 velocity=0 time=32
note_on channel=1 note=55 velocity=0 time=0
note_on channel=1 note=57 velocity=80 time=16
note_on channel=1 note=45 velocity=80 time=0
note_on channel=1 note=45 velocity=0 time=32
note_on channel=1 note=57 velocity=0 time=0
note_on channel=1 note=58 velocity=80 time=16
note_on channel=1 note=46 velocity=80 time=0
note_on channel=1 note=46 velocity=0 time=64
note_on channel=1 note=58 velocity=0 time=0
note_on channel=1 note=53 velocity=80 time=32
note_on channel=1 note=41 velocity=80 time=0
note_on channel=1 note=41 velocity=0 time=64
note_on channel=1 note=53 velocity=0 time=0
note_on channel=1 note=46 velocity=80 time=32
note_on channel=1 note=46 velocity=0 time=32
note_on channel=1 note=58 velocity=80 time=16
note_on channel=1 note=62 velocity=80 time=0
note_on channel=1 note=53 velocity=80 time=0
note_on channel=1 note=53 velocity=0 time=32
note_on channel=1 note=62 velocity=0 time=0
note_on channel=1 note=58 velocity=0 time=0
note_on channel=1 note=41 velocity=80 time=16
note_on channel=1 note=41 velocity=0 time=32
note_on channel=1 note=53 velocity=80 time=16
note_on channel=1 note=58 velocity=80 time=0
note_on channel=1 note=62 velocity=80 time=0
note_on channel=1 note=62 velocity=0 time=32
note_on channel=1 note=58 velocity=0 time=0
note_on channel=1 note=53 velocity=0 time=0
note_on channel=1 note=48 velocity=80 time=16
note_on channel=1 note=48 velocity=0 time=32
note_on channel=1 note=53 velocity=80 time=16
note_on channel=1 note=57 velocity=80 time=0
note_on channel=1 note=63 velocity=80 time=0
note_on channel=1 note=63 velocity=0 time=32
note_on channel=1 note=57 velocity=0 time=0
note_on channel=1 note=53 velocity=0 time=0
note_on channel=1 note=41 velocity=80 time=16
note_on channel=1 note=41 velocity=0 time=32
note_on channel=1 note=53 velocity=80 time=16
note_on channel=1 note=57 velocity=80 time=0
note_on channel=1 note=60 velocity=80 time=0
note_on channel=1 note=60 velocity=0 time=32
note_on channel=1 note=57 velocity=0 time=0
note_on channel=1 note=53 velocity=0 time=0
note_on channel=1 note=46 velocity=80 time=16
note_on channel=1 note=46 velocity=0 time=32
note_on channel=1 note=58 velocity=80 time=16
note_on channel=1 note=62 velocity=80 time=0
note_on channel=1 note=53 velocity=80 time=0
note_on channel=1 note=53 velocity=0 time=32
note_on channel=1 note=62 velocity=0 time=0
note_on channel=1 note=58 velocity=0 time=0
note_on channel=1 note=41 velocity=80 time=16
note_on channel=1 note=41 velocity=0 time=32
note_on channel=1 note=53 velocity=80 time=16
note_on channel=1 note=58 velocity=80 time=0
note_on channel=1 note=62 velocity=80 time=0
note_on channel=1 note=62 velocity=0 time=32
note_on channel=1 note=58 velocity=0 time=0
note_on channel=1 note=53 velocity=0 time=0
note_on channel=1 note=48 velocity=80 time=16
note_on channel=1 note=48 velocity=0 time=32
note_on channel=1 note=53 velocity=80 time=16
note_on channel=1 note=57 velocity=80 time=0
note_on channel=1 note=63 velocity=80 time=0
note_on channel=1 note=63 velocity=0 time=32
note_on channel=1 note=57 velocity=0 time=0
note_on channel=1 note=53 velocity=0 time=0
note_on channel=1 note=41 velocity=80 time=16
note_on channel=1 note=41 velocity=0 time=32
note_on channel=1 note=53 velocity=80 time=16
note_on channel=1 note=53 velocity=0 time=32
note_on channel=1 note=55 velocity=80 time=16
note_on channel=1 note=55 velocity=0 time=32
note_on channel=1 note=49 velocity=80 time=16
note_on channel=1 note=49 velocity=0 time=32
note_on channel=1 note=50 velocity=80 time=16
note_on channel=1 note=50 velocity=0 time=64
note_on channel=1 note=55 velocity=80 time=32
note_on channel=1 note=55 velocity=0 time=32
note_on channel=1 note=49 velocity=80 time=16
note_on channel=1 note=49 velocity=0 time=32
note_on channel=1 note=50 velocity=80 time=16
note_on channel=1 note=50 velocity=0 time=64
note_on channel=1 note=48 velocity=80 time=32
note_on channel=1 note=48 velocity=0 time=32
note_on channel=1 note=53 velocity=80 time=16
note_on channel=1 note=57 velocity=80 time=0
note_on channel=1 note=63 velocity=80 time=0
note_on channel=1 note=63 velocity=0 time=32
note_on channel=1 note=57 velocity=0 time=0
note_on channel=1 note=53 velocity=0 time=0
note_on channel=1 note=41 velocity=80 time=16
note_on channel=1 note=41 velocity=0 time=32
note_on channel=1 note=53 velocity=80 time=16
note_on channel=1 note=57 velocity=80 time=0
note_on channel=1 note=63 velocity=80 time=0
note_on channel=1 note=63 velocity=0 time=32
note_on channel=1 note=57 velocity=0 time=0
note_on channel=1 note=53 velocity=0 time=0
note_on channel=1 note=46 velocity=80 time=16
note_on channel=1 note=46 velocity=0 time=32
note_on channel=1 note=53 velocity=80 time=16
note_on channel=1 note=58 velocity=80 time=0
note_on channel=1 note=62 velocity=80 time=0
note_on channel=1 note=62 velocity=0 time=32
note_on channel=1 note=58 velocity=0 time=0
note_on channel=1 note=53 velocity=0 time=0
note_on channel=1 note=41 velocity=80 time=16
note_on channel=1 note=41 velocity=0 time=32
note_on channel=1 note=53 velocity=80 time=16
note_on channel=1 note=57 velocity=80 time=0
note_on channel=1 note=63 velocity=80 time=0
note_on channel=1 note=63 velocity=0 time=32
note_on channel=1 note=57 velocity=0 time=0
note_on channel=1 note=53 velocity=0 time=0
note_on channel=1 note=58 velocity=80 time=16
note_on channel=1 note=46 velocity=80 time=0
note_on channel=1 note=46 velocity=0 time=32
note_on channel=1 note=58 velocity=0 time=0
note_on channel=1 note=58 velocity=80 time=16
note_on channel=1 note=62 velocity=80 time=0
note_on channel=1 note=53 velocity=80 time=0
note_on channel=1 note=53 velocity=0 time=32
note_on channel=1 note=62 velocity=0 time=0
note_on channel=1 note=58 velocity=0 time=0
note_on channel=1 note=41 velocity=80 time=16
note_on channel=1 note=41 velocity=0 time=32
note_on channel=1 note=53 velocity=80 time=16
note_on channel=1 note=58 velocity=80 time=0
note_on channel=1 note=62 velocity=80 time=0
note_on channel=1 note=62 velocity=0 time=32
note_on channel=1 note=58 velocity=0 time=0
note_on channel=1 note=53 velocity=0 time=0
note_on channel=1 note=48 velocity=80 time=16
note_on channel=1 note=48 velocity=0 time=32
note_on channel=1 note=53 velocity=80 time=16
note_on channel=1 note=57 velocity=80 time=0
note_on channel=1 note=63 velocity=80 time=0
note_on channel=1 note=63 velocity=0 time=32
note_on channel=1 note=57 velocity=0 time=0
note_on channel=1 note=53 velocity=0 time=0
note_on channel=1 note=41 velocity=80 time=16
note_on channel=1 note=41 velocity=0 time=32
note_on channel=1 note=53 velocity=80 time=16
note_on channel=1 note=57 velocity=80 time=0
note_on channel=1 note=60 velocity=80 time=0
note_on channel=1 note=60 velocity=0 time=32
note_on channel=1 note=57 velocity=0 time=0
note_on channel=1 note=53 velocity=0 time=0
note_on channel=1 note=46 velocity=80 time=16
note_on channel=1 note=46 velocity=0 time=32
note_on channel=1 note=58 velocity=80 time=16
note_on channel=1 note=62 velocity=80 time=0
note_on channel=1 note=53 velocity=80 time=0
note_on channel=1 note=53 velocity=0 time=32
note_on channel=1 note=62 velocity=0 time=0
note_on channel=1 note=58 velocity=0 time=0
note_on channel=1 note=41 velocity=80 time=16
note_on channel=1 note=41 velocity=0 time=32
note_on channel=1 note=53 velocity=80 time=16
note_on channel=1 note=58 velocity=80 time=0
note_on channel=1 note=62 velocity=80 time=0
note_on channel=1 note=62 velocity=0 time=32
note_on channel=1 note=58 velocity=0 time=0
note_on channel=1 note=53 velocity=0 time=0
note_on channel=1 note=48 velocity=80 time=16
note_on channel=1 note=48 velocity=0 time=32
note_on channel=1 note=53 velocity=80 time=16
note_on channel=1 note=57 velocity=80 time=0
note_on channel=1 note=63 velocity=80 time=0
note_on channel=1 note=63 velocity=0 time=32
note_on channel=1 note=57 velocity=0 time=0
note_on channel=1 note=53 velocity=0 time=0
note_on channel=1 note=41 velocity=80 time=16
note_on channel=1 note=41 velocity=0 time=32
note_on channel=1 note=53 velocity=80 time=16
note_on channel=1 note=53 velocity=0 time=32
note_on channel=1 note=55 velocity=80 time=16
note_on channel=1 note=55 velocity=0 time=32
note_on channel=1 note=49 velocity=80 time=16
note_on channel=1 note=49 velocity=0 time=32
note_on channel=1 note=50 velocity=80 time=16
note_on channel=1 note=50 velocity=0 time=64
note_on channel=1 note=55 velocity=80 time=32
note_on channel=1 note=55 velocity=0 time=32
note_on channel=1 note=49 velocity=80 time=16
note_on channel=1 note=49 velocity=0 time=32
note_on channel=1 note=50 velocity=80 time=16
note_on channel=1 note=50 velocity=0 time=64
note_on channel=1 note=48 velocity=80 time=32
note_on channel=1 note=48 velocity=0 time=32
note_on channel=1 note=53 velocity=80 time=16
note_on channel=1 note=57 velocity=80 time=0
note_on channel=1 note=63 velocity=80 time=0
note_on channel=1 note=63 velocity=0 time=32
note_on channel=1 note=57 velocity=0 time=0
note_on channel=1 note=53 velocity=0 time=0
note_on channel=1 note=41 velocity=80 time=16
note_on channel=1 note=41 velocity=0 time=32
note_on channel=1 note=53 velocity=80 time=16
note_on channel=1 note=57 velocity=80 time=0
note_on channel=1 note=63 velocity=80 time=0
note_on channel=1 note=63 velocity=0 time=32
note_on channel=1 note=57 velocity=0 time=0
note_on channel=1 note=53 velocity=0 time=0
note_on channel=1 note=58 velocity=80 time=16
note_on channel=1 note=62 velocity=80 time=0
note_on channel=1 note=58 velocity=0 time=32
note_on channel=1 note=53 velocity=80 time=16
note_on channel=1 note=41 velocity=80 time=0
note_on channel=1 note=62 velocity=0 time=16
note_on channel=1 note=41 velocity=0 time=16
note_on channel=1 note=53 velocity=0 time=0
note_on channel=1 note=46 velocity=80 time=16
note_on channel=1 note=34 velocity=80 time=0
note_on channel=1 note=34 velocity=0 time=32
note_on channel=1 note=46 velocity=0 time=0
note_on channel=1 note=51 velocity=80 time=64
note_on channel=1 note=51 velocity=0 time=32
note_on channel=1 note=55 velocity=80 time=16
note_on channel=1 note=58 velocity=80 time=0
note_on channel=1 note=63 velocity=80 time=0
note_on channel=1 note=63 velocity=0 time=32
note_on channel=1 note=58 velocity=0 time=0
note_on channel=1 note=55 velocity=0 time=0
note_on channel=1 note=51 velocity=80 time=16
note_on channel=1 note=51 velocity=0 time=32
note_on channel=1 note=57 velocity=80 time=16
note_on channel=1 note=60 velocity=80 time=0
note_on channel=1 note=63 velocity=80 time=0
note_on channel=1 note=63 velocity=0 time=32
note_on channel=1 note=60 velocity=0 time=0
note_on channel=1 note=57 velocity=0 time=0
note_on channel=1 note=51 velocity=80 time=16
note_on channel=1 note=51 velocity=0 time=32
note_on channel=1 note=55 velocity=80 time=16
note_on channel=1 note=58 velocity=80 time=0
note_on channel=1 note=63 velocity=80 time=0
note_on channel=1 note=63 velocity=0 time=32
note_on channel=1 note=58 velocity=0 time=0
note_on channel=1 note=55 velocity=0 time=0
note_on channel=1 note=63 velocity=80 time=16
note_on channel=1 note=51 velocity=80 time=0
note_on channel=1 note=51 velocity=0 time=32
note_on channel=1 note=63 velocity=0 time=0
note_on channel=1 note=49 velocity=80 time=16
note_on channel=1 note=61 velocity=80 time=0
note_on channel=1 note=61 velocity=0 time=32
note_on channel=1 note=49 velocity=0 time=0
note_on channel=1 note=60 velocity=80 time=16
note_on channel=1 note=48 velocity=80 time=0
note_on channel=1 note=48 velocity=0 time=32
note_on channel=1 note=60 velocity=0 time=0
note_on channel=1 note=56 velocity=80 time=16
note_on channel=1 note=60 velocity=80 time=0
note_on channel=1 note=63 velocity=80 time=0
note_on channel=1 note=63 velocity=0 time=32
note_on channel=1 note=60 velocity=0 time=0
note_on channel=1 note=56 velocity=0 time=0
note_on channel=1 note=60 velocity=80 time=16
note_on channel=1 note=48 velocity=80 time=0
note_on channel=1 note=48 velocity=0 time=32
note_on channel=1 note=60 velocity=0 time=0
note_on channel=1 note=47 velocity=80 time=16
note_on channel=1 note=59 velocity=80 time=0
note_on channel=1 note=59 velocity=0 time=32
note_on channel=1 note=47 velocity=0 time=0
note_on channel=1 note=58 velocity=80 time=16
note_on channel=1 note=46 velocity=80 time=0
note_on channel=1 note=46 velocity=0 time=32
note_on channel=1 note=58 velocity=0 time=0
note_on channel=1 note=55 velocity=80 time=16
note_on channel=1 note=58 velocity=80 time=0
note_on channel=1 note=63 velocity=80 time=0
note_on channel=1 note=63 velocity=0 time=32
note_on channel=1 note=58 velocity=0 time=0
note_on channel=1 note=55 velocity=0 time=0
note_on channel=1 note=53 velocity=80 time=16
note_on channel=1 note=41 velocity=80 time=0
note_on channel=1 note=41 velocity=0 time=32
note_on channel=1 note=53 velocity=0 time=0
note_on channel=1 note=34 velocity=80 time=16
note_on channel=1 note=46 velocity=80 time=0
note_on channel=1 note=46 velocity=0 time=32
note_on channel=1 note=34 velocity=0 time=0
note_on channel=1 note=51 velocity=80 time=16
note_on channel=1 note=39 velocity=80 time=0
note_on channel=1 note=39 velocity=0 time=32
note_on channel=1 note=51 velocity=0 time=0
note_on channel=1 note=55 velocity=80 time=16
note_on channel=1 note=58 velocity=80 time=0
note_on channel=1 note=63 velocity=80 time=0
note_on channel=1 note=63 velocity=0 time=32
note_on channel=1 note=58 velocity=0 time=0
note_on channel=1 note=55 velocity=0 time=0
note_on channel=1 note=51 velocity=80 time=16
note_on channel=1 note=51 velocity=0 time=32
note_on channel=1 note=55 velocity=80 time=16
note_on channel=1 note=58 velocity=80 time=0
note_on channel=1 note=63 velocity=80 time=0
note_on channel=1 note=63 velocity=0 time=32
note_on channel=1 note=58 velocity=0 time=0
note_on channel=1 note=55 velocity=0 time=0
note_on channel=1 note=50 velocity=80 time=16
note_on channel=1 note=50 velocity=0 time=32
note_on channel=1 note=55 velocity=80 time=16
note_on channel=1 note=58 velocity=80 time=0
note_on channel=1 note=62 velocity=80 time=0
note_on channel=1 note=62 velocity=0 time=32
note_on channel=1 note=58 velocity=0 time=0
note_on channel=1 note=55 velocity=0 time=0
note_on channel=1 note=50 velocity=80 time=16
note_on channel=1 note=50 velocity=0 time=32
note_on channel=1 note=55 velocity=80 time=16
note_on channel=1 note=58 velocity=80 time=0
note_on channel=1 note=62 velocity=80 time=0
note_on channel=1 note=62 velocity=0 time=32
note_on channel=1 note=58 velocity=0 time=0
note_on channel=1 note=55 velocity=0 time=0
note_on channel=1 note=50 velocity=80 time=16
note_on channel=1 note=50 velocity=0 time=32
note_on channel=1 note=54 velocity=80 time=16
note_on channel=1 note=62 velocity=80 time=0
note_on channel=1 note=60 velocity=80 time=0
note_on channel=1 note=60 velocity=0 time=32
note_on channel=1 note=62 velocity=0 time=0
note_on channel=1 note=54 velocity=0 time=0
note_on channel=1 note=50 velocity=80 time=16
note_on channel=1 note=50 velocity=0 time=32
note_on channel=1 note=54 velocity=80 time=16
note_on channel=1 note=60 velocity=80 time=0
note_on channel=1 note=62 velocity=80 time=0
note_on channel=1 note=62 velocity=0 time=32
note_on channel=1 note=60 velocity=0 time=0
note_on channel=1 note=54 velocity=0 time=0
note_on channel=1 note=55 velocity=80 time=16
note_on channel=1 note=58 velocity=80 time=0
note_on channel=1 note=62 velocity=80 time=0
note_on channel=1 note=62 velocity=0 time=64
note_on channel=1 note=58 velocity=0 time=0
note_on channel=1 note=55 velocity=0 time=0
note_on channel=1 note=53 velocity=80 time=32
note_on channel=1 note=41 velocity=80 time=0
note_on channel=1 note=41 velocity=0 time=32
note_on channel=1 note=53 velocity=0 time=0
note_on channel=1 note=46 velocity=80 time=16
note_on channel=1 note=34 velocity=80 time=0
note_on channel=1 note=34 velocity=0 time=32
note_on channel=1 note=46 velocity=0 time=0
note_on channel=1 note=51 velocity=80 time=16
note_on channel=1 note=39 velocity=80 time=0
note_on channel=1 note=39 velocity=0 time=32
note_on channel=1 note=51 velocity=0 time=0
note_on channel=1 note=55 velocity=80 time=16
note_on channel=1 note=58 velocity=80 time=0
note_on channel=1 note=63 velocity=80 time=0
note_on channel=1 note=63 velocity=0 time=32
note_on channel=1 note=58 velocity=0 time=0
note_on channel=1 note=55 velocity=0 time=0
note_on channel=1 note=51 velocity=80 time=16
note_on channel=1 note=51 velocity=0 time=32
note_on channel=1 note=57 velocity=80 time=16
note_on channel=1 note=60 velocity=80 time=0
note_on channel=1 note=63 velocity=80 time=0
note_on channel=1 note=63 velocity=0 time=32
note_on channel=1 note=60 velocity=0 time=0
note_on channel=1 note=57 velocity=0 time=0
note_on channel=1 note=51 velocity=80 time=16
note_on channel=1 note=51 velocity=0 time=32
note_on channel=1 note=55 velocity=80 time=16
note_on channel=1 note=58 velocity=80 time=0
note_on channel=1 note=63 velocity=80 time=0
note_on channel=1 note=63 velocity=0 time=32
note_on channel=1 note=58 velocity=0 time=0
note_on channel=1 note=55 velocity=0 time=0
note_on channel=1 note=63 velocity=80 time=16
note_on channel=1 note=51 velocity=80 time=0
note_on channel=1 note=51 velocity=0 time=32
note_on channel=1 note=63 velocity=0 time=0
note_on channel=1 note=49 velocity=80 time=16
note_on channel=1 note=61 velocity=80 time=0
note_on channel=1 note=61 velocity=0 time=32
note_on channel=1 note=49 velocity=0 time=0
note_on channel=1 note=60 velocity=80 time=16
note_on channel=1 note=48 velocity=80 time=0
note_on channel=1 note=48 velocity=0 time=32
note_on channel=1 note=60 velocity=0 time=0
note_on channel=1 note=56 velocity=80 time=16
note_on channel=1 note=60 velocity=80 time=0
note_on channel=1 note=63 velocity=80 time=0
note_on channel=1 note=63 velocity=0 time=32
note_on channel=1 note=60 velocity=0 time=0
note_on channel=1 note=56 velocity=0 time=0
note_on channel=1 note=60 velocity=80 time=16
note_on channel=1 note=48 velocity=80 time=0
note_on channel=1 note=48 velocity=0 time=32
note_on channel=1 note=60 velocity=0 time=0
note_on channel=1 note=47 velocity=80 time=16
note_on channel=1 note=59 velocity=80 time=0
note_on channel=1 note=59 velocity=0 time=32
note_on channel=1 note=47 velocity=0 time=0
note_on channel=1 note=58 velocity=80 time=16
note_on channel=1 note=46 velocity=80 time=0
note_on channel=1 note=46 velocity=0 time=32
note_on channel=1 note=58 velocity=0 time=0
note_on channel=1 note=55 velocity=80 time=16
note_on channel=1 note=58 velocity=80 time=0
note_on channel=1 note=63 velocity=80 time=0
note_on channel=1 note=63 velocity=0 time=32
note_on channel=1 note=58 velocity=0 time=0
note_on channel=1 note=55 velocity=0 time=0
note_on channel=1 note=63 velocity=80 time=16
note_on channel=1 note=51 velocity=80 time=0
note_on channel=1 note=51 velocity=0 time=32
note_on channel=1 note=63 velocity=0 time=0
note_on channel=1 note=49 velocity=80 time=16
note_on channel=1 note=61 velocity=80 time=0
note_on channel=1 note=61 velocity=0 time=32
note_on channel=1 note=49 velocity=0 time=0
note_on channel=1 note=60 velocity=80 time=16
note_on channel=1 note=48 velocity=80 time=0
note_on channel=1 note=48 velocity=0 time=32
note_on channel=1 note=60 velocity=0 time=0
note_on channel=1 note=56 velocity=80 time=16
note_on channel=1 note=60 velocity=80 time=0
note_on channel=1 note=63 velocity=80 time=0
note_on channel=1 note=63 velocity=0 time=32
note_on channel=1 note=60 velocity=0 time=0
note_on channel=1 note=56 velocity=0 time=0
note_on channel=1 note=60 velocity=80 time=16
note_on channel=1 note=48 velocity=80 time=0
note_on channel=1 note=48 velocity=0 time=32
note_on channel=1 note=60 velocity=0 time=0
note_on channel=1 note=47 velocity=80 time=16
note_on channel=1 note=59 velocity=80 time=0
note_on channel=1 note=59 velocity=0 time=32
note_on channel=1 note=47 velocity=0 time=0
note_on channel=1 note=58 velocity=80 time=16
note_on channel=1 note=46 velocity=80 time=0
note_on channel=1 note=46 velocity=0 time=32
note_on channel=1 note=58 velocity=0 time=0
note_on channel=1 note=55 velocity=80 time=16
note_on channel=1 note=58 velocity=80 time=0
note_on channel=1 note=63 velocity=80 time=0
note_on channel=1 note=63 velocity=0 time=32
note_on channel=1 note=58 velocity=0 time=0
note_on channel=1 note=55 velocity=0 time=0
note_on channel=1 note=57 velocity=80 time=16
note_on channel=1 note=45 velocity=80 time=0
note_on channel=1 note=45 velocity=0 time=32
note_on channel=1 note=57 velocity=0 time=0
note_on channel=1 note=54 velocity=80 time=16
note_on channel=1 note=60 velocity=80 time=0
note_on channel=1 note=63 velocity=80 time=0
note_on channel=1 note=63 velocity=0 time=32
note_on channel=1 note=60 velocity=0 time=0
note_on channel=1 note=54 velocity=0 time=0
note_on channel=1 note=58 velocity=80 time=16
note_on channel=1 note=46 velocity=80 time=0
note_on channel=1 note=46 velocity=0 time=32
note_on channel=1 note=58 velocity=0 time=0
note_on channel=1 note=55 velocity=80 time=16
note_on channel=1 note=58 velocity=80 time=0
note_on channel=1 note=63 velocity=80 time=0
note_on channel=1 note=63 velocity=0 time=32
note_on channel=1 note=58 velocity=0 time=0
note_on channel=1 note=55 velocity=0 time=0
note_on channel=1 note=53 velocity=80 time=16
note_on channel=1 note=41 velocity=80 time=0
note_on channel=1 note=41 velocity=0 time=32
note_on channel=1 note=53 velocity=0 time=0
note_on channel=1 note=46 velocity=80 time=16
note_on channel=1 note=34 velocity=80 time=0
note_on channel=1 note=34 velocity=0 time=32
note_on channel=1 note=46 velocity=0 time=0
note_on channel=1 note=51 velocity=80 time=16
note_on channel=1 note=39 velocity=80 time=0
note_on channel=1 note=39 velocity=0 time=32
note_on channel=1 note=51 velocity=0 time=0
note_on channel=1 note=51 velocity=80 time=160
note_on channel=1 note=51 velocity=0 time=32
note_on channel=1 note=55 velocity=80 time=16
note_on channel=1 note=58 velocity=80 time=0
note_on channel=1 note=63 velocity=80 time=0
note_on channel=1 note=63 velocity=0 time=32
note_on channel=1 note=58 velocity=0 time=0
note_on channel=1 note=55 velocity=0 time=0
note_on channel=1 note=51 velocity=80 time=16
note_on channel=1 note=51 velocity=0 time=32
note_on channel=1 note=57 velocity=80 time=16
note_on channel=1 note=60 velocity=80 time=0
note_on channel=1 note=63 velocity=80 time=0
note_on channel=1 note=63 velocity=0 time=32
note_on channel=1 note=60 velocity=0 time=0
note_on channel=1 note=57 velocity=0 time=0
note_on channel=1 note=51 velocity=80 time=16
note_on channel=1 note=51 velocity=0 time=32
note_on channel=1 note=55 velocity=80 time=16
note_on channel=1 note=58 velocity=80 time=0
note_on channel=1 note=63 velocity=80 time=0
note_on channel=1 note=63 velocity=0 time=32
note_on channel=1 note=58 velocity=0 time=0
note_on channel=1 note=55 velocity=0 time=0
note_on channel=1 note=63 velocity=80 time=16
note_on channel=1 note=51 velocity=80 time=0
note_on channel=1 note=51 velocity=0 time=32
note_on channel=1 note=63 velocity=0 time=0
note_on channel=1 note=49 velocity=80 time=16
note_on channel=1 note=61 velocity=80 time=0
note_on channel=1 note=61 velocity=0 time=32
note_on channel=1 note=49 velocity=0 time=0
note_on channel=1 note=60 velocity=80 time=16
note_on channel=1 note=48 velocity=80 time=0
note_on channel=1 note=48 velocity=0 time=32
note_on channel=1 note=60 velocity=0 time=0
note_on channel=1 note=56 velocity=80 time=16
note_on channel=1 note=60 velocity=80 time=0
note_on channel=1 note=63 velocity=80 time=0
note_on channel=1 note=63 velocity=0 time=32
note_on channel=1 note=60 velocity=0 time=0
note_on channel=1 note=56 velocity=0 time=0
note_on channel=1 note=60 velocity=80 time=16
note_on channel=1 note=48 velocity=80 time=0
note_on channel=1 note=48 velocity=0 time=32
note_on channel=1 note=60 velocity=0 time=0
note_on channel=1 note=47 velocity=80 time=16
note_on channel=1 note=59 velocity=80 time=0
note_on channel=1 note=59 velocity=0 time=32
note_on channel=1 note=47 velocity=0 time=0
note_on channel=1 note=58 velocity=80 time=16
note_on channel=1 note=46 velocity=80 time=0
note_on channel=1 note=46 velocity=0 time=32
note_on channel=1 note=58 velocity=0 time=0
note_on channel=1 note=55 velocity=80 time=16
note_on channel=1 note=58 velocity=80 time=0
note_on channel=1 note=63 velocity=80 time=0
note_on channel=1 note=63 velocity=0 time=32
note_on channel=1 note=58 velocity=0 time=0
note_on channel=1 note=55 velocity=0 time=0
note_on channel=1 note=53 velocity=80 time=16
note_on channel=1 note=41 velocity=80 time=0
note_on channel=1 note=41 velocity=0 time=32
note_on channel=1 note=53 velocity=0 time=0
note_on channel=1 note=34 velocity=80 time=16
note_on channel=1 note=46 velocity=80 time=0
note_on channel=1 note=46 velocity=0 time=32
note_on channel=1 note=34 velocity=0 time=0
note_on channel=1 note=51 velocity=80 time=16
note_on channel=1 note=39 velocity=80 time=0
note_on channel=1 note=39 velocity=0 time=32
note_on channel=1 note=51 velocity=0 time=0
note_on channel=1 note=55 velocity=80 time=16
note_on channel=1 note=58 velocity=80 time=0
note_on channel=1 note=63 velocity=80 time=0
note_on channel=1 note=63 velocity=0 time=32
note_on channel=1 note=58 velocity=0 time=0
note_on channel=1 note=55 velocity=0 time=0
note_on channel=1 note=51 velocity=80 time=16
note_on channel=1 note=51 velocity=0 time=32
note_on channel=1 note=55 velocity=80 time=16
note_on channel=1 note=58 velocity=80 time=0
note_on channel=1 note=63 velocity=80 time=0
note_on channel=1 note=63 velocity=0 time=32
note_on channel=1 note=58 velocity=0 time=0
note_on channel=1 note=55 velocity=0 time=0
note_on channel=1 note=50 velocity=80 time=16
note_on channel=1 note=50 velocity=0 time=32
note_on channel=1 note=55 velocity=80 time=16
note_on channel=1 note=58 velocity=80 time=0
note_on channel=1 note=62 velocity=80 time=0
note_on channel=1 note=62 velocity=0 time=32
note_on channel=1 note=58 velocity=0 time=0
note_on channel=1 note=55 velocity=0 time=0
note_on channel=1 note=50 velocity=80 time=16
note_on channel=1 note=50 velocity=0 time=32
note_on channel=1 note=55 velocity=80 time=16
note_on channel=1 note=58 velocity=80 time=0
note_on channel=1 note=62 velocity=80 time=0
note_on channel=1 note=62 velocity=0 time=32
note_on channel=1 note=58 velocity=0 time=0
note_on channel=1 note=55 velocity=0 time=0
note_on channel=1 note=50 velocity=80 time=16
note_on channel=1 note=50 velocity=0 time=32
note_on channel=1 note=54 velocity=80 time=16
note_on channel=1 note=62 velocity=80 time=0
note_on channel=1 note=60 velocity=80 time=0
note_on channel=1 note=60 velocity=0 time=32
note_on channel=1 note=62 velocity=0 time=0
note_on channel=1 note=54 velocity=0 time=0
note_on channel=1 note=50 velocity=80 time=16
note_on channel=1 note=50 velocity=0 time=32
note_on channel=1 note=54 velocity=80 time=16
note_on channel=1 note=60 velocity=80 time=0
note_on channel=1 note=62 velocity=80 time=0
note_on channel=1 note=62 velocity=0 time=32
note_on channel=1 note=60 velocity=0 time=0
note_on channel=1 note=54 velocity=0 time=0
note_on channel=1 note=55 velocity=80 time=16
note_on channel=1 note=58 velocity=80 time=0
note_on channel=1 note=62 velocity=80 time=0
note_on channel=1 note=62 velocity=0 time=64
note_on channel=1 note=58 velocity=0 time=0
note_on channel=1 note=55 velocity=0 time=0
note_on channel=1 note=53 velocity=80 time=32
note_on channel=1 note=41 velocity=80 time=0
note_on channel=1 note=41 velocity=0 time=32
note_on channel=1 note=53 velocity=0 time=0
note_on channel=1 note=46 velocity=80 time=16
note_on channel=1 note=34 velocity=80 time=0
note_on channel=1 note=34 velocity=0 time=32
note_on channel=1 note=46 velocity=0 time=0
note_on channel=1 note=51 velocity=80 time=16
note_on channel=1 note=39 velocity=80 time=0
note_on channel=1 note=39 velocity=0 time=32
note_on channel=1 note=51 velocity=0 time=0
note_on channel=1 note=55 velocity=80 time=16
note_on channel=1 note=58 velocity=80 time=0
note_on channel=1 note=63 velocity=80 time=0
note_on channel=1 note=63 velocity=0 time=32
note_on channel=1 note=58 velocity=0 time=0
note_on channel=1 note=55 velocity=0 time=0
note_on channel=1 note=51 velocity=80 time=16
note_on channel=1 note=51 velocity=0 time=32
note_on channel=1 note=57 velocity=80 time=16
note_on channel=1 note=60 velocity=80 time=0
note_on channel=1 note=63 velocity=80 time=0
note_on channel=1 note=63 velocity=0 time=32
note_on channel=1 note=60 velocity=0 time=0
note_on channel=1 note=57 velocity=0 time=0
note_on channel=1 note=51 velocity=80 time=16
note_on channel=1 note=51 velocity=0 time=32
note_on channel=1 note=55 velocity=80 time=16
note_on channel=1 note=58 velocity=80 time=0
note_on channel=1 note=63 velocity=80 time=0
note_on channel=1 note=63 velocity=0 time=32
note_on channel=1 note=58 velocity=0 time=0
note_on channel=1 note=55 velocity=0 time=0
note_on channel=1 note=63 velocity=80 time=16
note_on channel=1 note=51 velocity=80 time=0
note_on channel=1 note=51 velocity=0 time=32
note_on channel=1 note=63 velocity=0 time=0
note_on channel=1 note=49 velocity=80 time=16
note_on channel=1 note=61 velocity=80 time=0
note_on channel=1 note=61 velocity=0 time=32
note_on channel=1 note=49 velocity=0 time=0
note_on channel=1 note=60 velocity=80 time=16
note_on channel=1 note=48 velocity=80 time=0
note_on channel=1 note=48 velocity=0 time=32
note_on channel=1 note=60 velocity=0 time=0
note_on channel=1 note=56 velocity=80 time=16
note_on channel=1 note=60 velocity=80 time=0
note_on channel=1 note=63 velocity=80 time=0
note_on channel=1 note=63 velocity=0 time=32
note_on channel=1 note=60 velocity=0 time=0
note_on channel=1 note=56 velocity=0 time=0
note_on channel=1 note=60 velocity=80 time=16
note_on channel=1 note=48 velocity=80 time=0
note_on channel=1 note=48 velocity=0 time=32
note_on channel=1 note=60 velocity=0 time=0
note_on channel=1 note=47 velocity=80 time=16
note_on channel=1 note=59 velocity=80 time=0
note_on channel=1 note=59 velocity=0 time=32
note_on channel=1 note=47 velocity=0 time=0
note_on channel=1 note=58 velocity=80 time=16
note_on channel=1 note=46 velocity=80 time=0
note_on channel=1 note=46 velocity=0 time=32
note_on channel=1 note=58 velocity=0 time=0
note_on channel=1 note=55 velocity=80 time=16
note_on channel=1 note=58 velocity=80 time=0
note_on channel=1 note=63 velocity=80 time=0
note_on channel=1 note=63 velocity=0 time=32
note_on channel=1 note=58 velocity=0 time=0
note_on channel=1 note=55 velocity=0 time=0
note_on channel=1 note=63 velocity=80 time=16
note_on channel=1 note=51 velocity=80 time=0
note_on channel=1 note=51 velocity=0 time=32
note_on channel=1 note=63 velocity=0 time=0
note_on channel=1 note=49 velocity=80 time=16
note_on channel=1 note=61 velocity=80 time=0
note_on channel=1 note=61 velocity=0 time=32
note_on channel=1 note=49 velocity=0 time=0
note_on channel=1 note=60 velocity=80 time=16
note_on channel=1 note=48 velocity=80 time=0
note_on channel=1 note=48 velocity=0 time=32
note_on channel=1 note=60 velocity=0 time=0
note_on channel=1 note=56 velocity=80 time=16
note_on channel=1 note=60 velocity=80 time=0
note_on channel=1 note=63 velocity=80 time=0
note_on channel=1 note=63 velocity=0 time=32
note_on channel=1 note=60 velocity=0 time=0
note_on channel=1 note=56 velocity=0 time=0
note_on channel=1 note=60 velocity=80 time=16
note_on channel=1 note=48 velocity=80 time=0
note_on channel=1 note=48 velocity=0 time=32
note_on channel=1 note=60 velocity=0 time=0
note_on channel=1 note=47 velocity=80 time=16
note_on channel=1 note=59 velocity=80 time=0
note_on channel=1 note=59 velocity=0 time=32
note_on channel=1 note=47 velocity=0 time=0
note_on channel=1 note=58 velocity=80 time=16
note_on channel=1 note=46 velocity=80 time=0
note_on channel=1 note=46 velocity=0 time=32
note_on channel=1 note=58 velocity=0 time=0
note_on channel=1 note=55 velocity=80 time=16
note_on channel=1 note=58 velocity=80 time=0
note_on channel=1 note=63 velocity=80 time=0
note_on channel=1 note=63 velocity=0 time=32
note_on channel=1 note=58 velocity=0 time=0
note_on channel=1 note=55 velocity=0 time=0
note_on channel=1 note=57 velocity=80 time=16
note_on channel=1 note=45 velocity=80 time=0
note_on channel=1 note=45 velocity=0 time=32
note_on channel=1 note=57 velocity=0 time=0
note_on channel=1 note=54 velocity=80 time=16
note_on channel=1 note=60 velocity=80 time=0
note_on channel=1 note=63 velocity=80 time=0
note_on channel=1 note=63 velocity=0 time=32
note_on channel=1 note=60 velocity=0 time=0
note_on channel=1 note=54 velocity=0 time=0
note_on channel=1 note=58 velocity=80 time=16
note_on channel=1 note=46 velocity=80 time=0
note_on channel=1 note=46 velocity=0 time=32
note_on channel=1 note=58 velocity=0 time=0
note_on channel=1 note=55 velocity=80 time=16
note_on channel=1 note=58 velocity=80 time=0
note_on channel=1 note=63 velocity=80 time=0
note_on channel=1 note=63 velocity=0 time=32
note_on channel=1 note=58 velocity=0 time=0
note_on channel=1 note=55 velocity=0 time=0
note_on channel=1 note=53 velocity=80 time=16
note_on channel=1 note=41 velocity=80 time=0
note_on channel=1 note=41 velocity=0 time=32
note_on channel=1 note=53 velocity=0 time=0
note_on channel=1 note=46 velocity=80 time=16
note_on channel=1 note=34 velocity=80 time=0
note_on channel=1 note=34 velocity=0 time=32
note_on channel=1 note=46 velocity=0 time=0
note_on channel=1 note=51 velocity=80 time=16
note_on channel=1 note=39 velocity=80 time=0
note_on channel=1 note=39 velocity=0 time=32
note_on channel=1 note=51 velocity=0 time=0
note_on channel=1 note=53 velocity=80 time=160
note_on channel=1 note=53 velocity=0 time=32
note_on channel=1 note=56 velocity=80 time=16
note_on channel=1 note=58 velocity=80 time=0
note_on channel=1 note=62 velocity=80 time=0
note_on channel=1 note=62 velocity=0 time=32
note_on channel=1 note=58 velocity=0 time=0
note_on channel=1 note=56 velocity=0 time=0
note_on channel=1 note=46 velocity=80 time=16
note_on channel=1 note=46 velocity=0 time=32
note_on channel=1 note=56 velocity=80 time=16
note_on channel=1 note=58 velocity=80 time=0
note_on channel=1 note=62 velocity=80 time=0
note_on channel=1 note=62 velocity=0 time=32
note_on channel=1 note=58 velocity=0 time=0
note_on channel=1 note=56 velocity=0 time=0
note_on channel=1 note=50 velocity=80 time=16
note_on channel=1 note=50 velocity=0 time=32
note_on channel=1 note=56 velocity=80 time=16
note_on channel=1 note=58 velocity=80 time=0
note_on channel=1 note=62 velocity=80 time=0
note_on channel=1 note=62 velocity=0 time=32
note_on channel=1 note=58 velocity=0 time=0
note_on channel=1 note=56 velocity=0 time=0
note_on channel=1 note=46 velocity=80 time=16
note_on channel=1 note=46 velocity=0 time=32
note_on channel=1 note=56 velocity=80 time=16
note_on channel=1 note=58 velocity=80 time=0
note_on channel=1 note=62 velocity=80 time=0
note_on channel=1 note=62 velocity=0 time=32
note_on channel=1 note=58 velocity=0 time=0
note_on channel=1 note=56 velocity=0 time=0
note_on channel=1 note=51 velocity=80 time=16
note_on channel=1 note=51 velocity=0 time=32
note_on channel=1 note=55 velocity=80 time=16
note_on channel=1 note=58 velocity=80 time=0
note_on channel=1 note=63 velocity=80 time=0
note_on channel=1 note=63 velocity=0 time=32
note_on channel=1 note=58 velocity=0 time=0
note_on channel=1 note=55 velocity=0 time=0
note_on channel=1 note=46 velocity=80 time=16
note_on channel=1 note=46 velocity=0 time=32
note_on channel=1 note=55 velocity=80 time=16
note_on channel=1 note=58 velocity=80 time=0
note_on channel=1 note=63 velocity=80 time=0
note_on channel=1 note=63 velocity=0 time=32
note_on channel=1 note=58 velocity=0 time=0
note_on channel=1 note=55 velocity=0 time=0
note_on channel=1 note=51 velocity=80 time=16
note_on channel=1 note=51 velocity=0 time=32
note_on channel=1 note=55 velocity=80 time=16
note_on channel=1 note=58 velocity=80 time=0
note_on channel=1 note=63 velocity=80 time=0
note_on channel=1 note=63 velocity=0 time=32
note_on channel=1 note=58 velocity=0 time=0
note_on channel=1 note=55 velocity=0 time=0
note_on channel=1 note=46 velocity=80 time=16
note_on channel=1 note=46 velocity=0 time=32
note_on channel=1 note=55 velocity=80 time=16
note_on channel=1 note=58 velocity=80 time=0
note_on channel=1 note=63 velocity=80 time=0
note_on channel=1 note=63 velocity=0 time=32
note_on channel=1 note=58 velocity=0 time=0
note_on channel=1 note=55 velocity=0 time=0
note_on channel=1 note=53 velocity=80 time=16
note_on channel=1 note=53 velocity=0 time=32
note_on channel=1 note=56 velocity=80 time=16
note_on channel=1 note=58 velocity=80 time=0
note_on channel=1 note=62 velocity=80 time=0
note_on channel=1 note=62 velocity=0 time=32
note_on channel=1 note=58 velocity=0 time=0
note_on channel=1 note=56 velocity=0 time=0
note_on channel=1 note=46 velocity=80 time=16
note_on channel=1 note=46 velocity=0 time=32
note_on channel=1 note=56 velocity=80 time=16
note_on channel=1 note=58 velocity=80 time=0
note_on channel=1 note=62 velocity=80 time=0
note_on channel=1 note=62 velocity=0 time=32
note_on channel=1 note=58 velocity=0 time=0
note_on channel=1 note=56 velocity=0 time=0
note_on channel=1 note=50 velocity=80 time=16
note_on channel=1 note=50 velocity=0 time=32
note_on channel=1 note=56 velocity=80 time=16
note_on channel=1 note=58 velocity=80 time=0
note_on channel=1 note=62 velocity=80 time=0
note_on channel=1 note=62 velocity=0 time=32
note_on channel=1 note=58 velocity=0 time=0
note_on channel=1 note=56 velocity=0 time=0
note_on channel=1 note=46 velocity=80 time=16
note_on channel=1 note=46 velocity=0 time=32
note_on channel=1 note=56 velocity=80 time=16
note_on channel=1 note=58 velocity=80 time=0
note_on channel=1 note=62 velocity=80 time=0
note_on channel=1 note=62 velocity=0 time=32
note_on channel=1 note=58 velocity=0 time=0
note_on channel=1 note=56 velocity=0 time=0
note_on channel=1 note=51 velocity=80 time=16
note_on channel=1 note=51 velocity=0 time=32
note_on channel=1 note=55 velocity=80 time=16
note_on channel=1 note=58 velocity=80 time=0
note_on channel=1 note=63 velocity=80 time=0
note_on channel=1 note=63 velocity=0 time=32
note_on channel=1 note=58 velocity=0 time=0
note_on channel=1 note=55 velocity=0 time=0
note_on channel=1 note=46 velocity=80 time=16
note_on channel=1 note=46 velocity=0 time=32
note_on channel=1 note=55 velocity=80 time=16
note_on channel=1 note=58 velocity=80 time=0
note_on channel=1 note=63 velocity=80 time=0
note_on channel=1 note=63 velocity=0 time=32
note_on channel=1 note=58 velocity=0 time=0
note_on channel=1 note=55 velocity=0 time=0
note_on channel=1 note=63 velocity=80 time=16
note_on channel=1 note=58 velocity=80 time=0
note_on channel=1 note=55 velocity=80 time=0
note_on channel=1 note=51 velocity=80 time=0
note_on channel=1 note=51 velocity=0 time=32
note_on channel=1 note=63 velocity=0 time=0
note_on channel=1 note=58 velocity=0 time=0
note_on channel=1 note=55 velocity=0 time=0
note_on channel=1 note=53 velocity=80 time=160
note_on channel=1 note=53 velocity=0 time=32
note_on channel=1 note=56 velocity=80 time=16
note_on channel=1 note=58 velocity=80 time=0
note_on channel=1 note=62 velocity=80 time=0
note_on channel=1 note=62 velocity=0 time=32
note_on channel=1 note=58 velocity=0 time=0
note_on channel=1 note=56 velocity=0 time=0
note_on channel=1 note=46 velocity=80 time=16
note_on channel=1 note=46 velocity=0 time=32
note_on channel=1 note=56 velocity=80 time=16
note_on channel=1 note=58 velocity=80 time=0
note_on channel=1 note=62 velocity=80 time=0
note_on channel=1 note=62 velocity=0 time=32
note_on channel=1 note=58 velocity=0 time=0
note_on channel=1 note=56 velocity=0 time=0
note_on channel=1 note=50 velocity=80 time=16
note_on channel=1 note=50 velocity=0 time=32
note_on channel=1 note=56 velocity=80 time=16
note_on channel=1 note=58 velocity=80 time=0
note_on channel=1 note=62 velocity=80 time=0
note_on channel=1 note=62 velocity=0 time=32
note_on channel=1 note=58 velocity=0 time=0
note_on channel=1 note=56 velocity=0 time=0
note_on channel=1 note=46 velocity=80 time=16
note_on channel=1 note=46 velocity=0 time=32
note_on channel=1 note=56 velocity=80 time=16
note_on channel=1 note=58 velocity=80 time=0
note_on channel=1 note=62 velocity=80 time=0
note_on channel=1 note=62 velocity=0 time=32
note_on channel=1 note=58 velocity=0 time=0
note_on channel=1 note=56 velocity=0 time=0
note_on channel=1 note=51 velocity=80 time=16
note_on channel=1 note=51 velocity=0 time=32
note_on channel=1 note=55 velocity=80 time=16
note_on channel=1 note=58 velocity=80 time=0
note_on channel=1 note=63 velocity=80 time=0
note_on channel=1 note=63 velocity=0 time=32
note_on channel=1 note=58 velocity=0 time=0
note_on channel=1 note=55 velocity=0 time=0
note_on channel=1 note=46 velocity=80 time=16
note_on channel=1 note=46 velocity=0 time=32
note_on channel=1 note=55 velocity=80 time=16
note_on channel=1 note=58 velocity=80 time=0
note_on channel=1 note=63 velocity=80 time=0
note_on channel=1 note=63 velocity=0 time=32
note_on channel=1 note=58 velocity=0 time=0
note_on channel=1 note=55 velocity=0 time=0
note_on channel=1 note=51 velocity=80 time=16
note_on channel=1 note=51 velocity=0 time=32
note_on channel=1 note=55 velocity=80 time=16
note_on channel=1 note=58 velocity=80 time=0
note_on channel=1 note=63 velocity=80 time=0
note_on channel=1 note=63 velocity=0 time=32
note_on channel=1 note=58 velocity=0 time=0
note_on channel=1 note=55 velocity=0 time=0
note_on channel=1 note=63 velocity=80 time=16
note_on channel=1 note=51 velocity=80 time=0
note_on channel=1 note=51 velocity=0 time=32
note_on channel=1 note=63 velocity=0 time=0
note_on channel=1 note=49 velocity=80 time=16
note_on channel=1 note=61 velocity=80 time=0
note_on channel=1 note=61 velocity=0 time=32
note_on channel=1 note=49 velocity=0 time=0
note_on channel=1 note=60 velocity=80 time=16
note_on channel=1 note=48 velocity=80 time=0
note_on channel=1 note=48 velocity=0 time=32
note_on channel=1 note=60 velocity=0 time=0
note_on channel=1 note=56 velocity=80 time=16
note_on channel=1 note=60 velocity=80 time=0
note_on channel=1 note=63 velocity=80 time=0
note_on channel=1 note=63 velocity=0 time=32
note_on channel=1 note=60 velocity=0 time=0
note_on channel=1 note=56 velocity=0 time=0
note_on channel=1 note=60 velocity=80 time=16
note_on channel=1 note=48 velocity=80 time=0
note_on channel=1 note=48 velocity=0 time=32
note_on channel=1 note=60 velocity=0 time=0
note_on channel=1 note=47 velocity=80 time=16
note_on channel=1 note=59 velocity=80 time=0
note_on channel=1 note=59 velocity=0 time=32
note_on channel=1 note=47 velocity=0 time=0
note_on channel=1 note=58 velocity=80 time=16
note_on channel=1 note=46 velocity=80 time=0
note_on channel=1 note=46 velocity=0 time=32
note_on channel=1 note=58 velocity=0 time=0
note_on channel=1 note=55 velocity=80 time=16
note_on channel=1 note=58 velocity=80 time=0
note_on channel=1 note=63 velocity=80 time=0
note_on channel=1 note=63 velocity=0 time=32
note_on channel=1 note=58 velocity=0 time=0
note_on channel=1 note=55 velocity=0 time=0
note_on channel=1 note=57 velocity=80 time=16
note_on channel=1 note=45 velocity=80 time=0
note_on channel=1 note=45 velocity=0 time=32
note_on channel=1 note=57 velocity=0 time=0
note_on channel=1 note=54 velocity=80 time=16
note_on channel=1 note=60 velocity=80 time=0
note_on channel=1 note=63 velocity=80 time=0
note_on channel=1 note=63 velocity=0 time=32
note_on channel=1 note=60 velocity=0 time=0
note_on channel=1 note=54 velocity=0 time=0
note_on channel=1 note=58 velocity=80 time=16
note_on channel=1 note=46 velocity=80 time=0
note_on channel=1 note=46 velocity=0 time=32
note_on channel=1 note=58 velocity=0 time=0
note_on channel=1 note=55 velocity=80 time=16
note_on channel=1 note=58 velocity=80 time=0
note_on channel=1 note=63 velocity=80 time=0
note_on channel=1 note=63 velocity=0 time=32
note_on channel=1 note=58 velocity=0 time=0
note_on channel=1 note=55 velocity=0 time=0
note_on channel=1 note=53 velocity=80 time=16
note_on channel=1 note=41 velocity=80 time=0
note_on channel=1 note=41 velocity=0 time=32
note_on channel=1 note=53 velocity=0 time=0
note_on channel=1 note=46 velocity=80 time=16
note_on channel=1 note=34 velocity=80 time=0
note_on channel=1 note=34 velocity=0 time=32
note_on channel=1 note=46 velocity=0 time=0
note_on channel=1 note=51 velocity=80 time=16
note_on channel=1 note=39 velocity=80 time=0
note_on channel=1 note=39 velocity=0 time=32
note_on channel=1 note=51 velocity=0 time=0
note_on channel=1 note=53 velocity=80 time=160
note_on channel=1 note=53 velocity=0 time=32
note_on channel=1 note=56 velocity=80 time=16
note_on channel=1 note=58 velocity=80 time=0
note_on channel=1 note=62 velocity=80 time=0
note_on channel=1 note=62 velocity=0 time=32
note_on channel=1 note=58 velocity=0 time=0
note_on channel=1 note=56 velocity=0 time=0
note_on channel=1 note=46 velocity=80 time=16
note_on channel=1 note=46 velocity=0 time=32
note_on channel=1 note=56 velocity=80 time=16
note_on channel=1 note=58 velocity=80 time=0
note_on channel=1 note=62 velocity=80 time=0
note_on channel=1 note=62 velocity=0 time=32
note_on channel=1 note=58 velocity=0 time=0
note_on channel=1 note=56 velocity=0 time=0
note_on channel=1 note=50 velocity=80 time=16
note_on channel=1 note=50 velocity=0 time=32
note_on channel=1 note=56 velocity=80 time=16
note_on channel=1 note=58 velocity=80 time=0
note_on channel=1 note=62 velocity=80 time=0
note_on channel=1 note=62 velocity=0 time=32
note_on channel=1 note=58 velocity=0 time=0
note_on channel=1 note=56 velocity=0 time=0
note_on channel=1 note=46 velocity=80 time=16
note_on channel=1 note=46 velocity=0 time=32
note_on channel=1 note=56 velocity=80 time=16
note_on channel=1 note=58 velocity=80 time=0
note_on channel=1 note=62 velocity=80 time=0
note_on channel=1 note=62 velocity=0 time=32
note_on channel=1 note=58 velocity=0 time=0
note_on channel=1 note=56 velocity=0 time=0
note_on channel=1 note=51 velocity=80 time=16
note_on channel=1 note=51 velocity=0 time=32
note_on channel=1 note=55 velocity=80 time=16
note_on channel=1 note=58 velocity=80 time=0
note_on channel=1 note=63 velocity=80 time=0
note_on channel=1 note=63 velocity=0 time=32
note_on channel=1 note=58 velocity=0 time=0
note_on channel=1 note=55 velocity=0 time=0
note_on channel=1 note=46 velocity=80 time=16
note_on channel=1 note=46 velocity=0 time=32
note_on channel=1 note=55 velocity=80 time=16
note_on channel=1 note=58 velocity=80 time=0
note_on channel=1 note=63 velocity=80 time=0
note_on channel=1 note=63 velocity=0 time=32
note_on channel=1 note=58 velocity=0 time=0
note_on channel=1 note=55 velocity=0 time=0
note_on channel=1 note=51 velocity=80 time=16
note_on channel=1 note=51 velocity=0 time=32
note_on channel=1 note=55 velocity=80 time=16
note_on channel=1 note=58 velocity=80 time=0
note_on channel=1 note=63 velocity=80 time=0
note_on channel=1 note=63 velocity=0 time=32
note_on channel=1 note=58 velocity=0 time=0
note_on channel=1 note=55 velocity=0 time=0
note_on channel=1 note=46 velocity=80 time=16
note_on channel=1 note=46 velocity=0 time=32
note_on channel=1 note=55 velocity=80 time=16
note_on channel=1 note=58 velocity=80 time=0
note_on channel=1 note=63 velocity=80 time=0
note_on channel=1 note=63 velocity=0 time=32
note_on channel=1 note=58 velocity=0 time=0
note_on channel=1 note=55 velocity=0 time=0
note_on channel=1 note=53 velocity=80 time=16
note_on channel=1 note=53 velocity=0 time=32
note_on channel=1 note=56 velocity=80 time=16
note_on channel=1 note=58 velocity=80 time=0
note_on channel=1 note=62 velocity=80 time=0
note_on channel=1 note=62 velocity=0 time=32
note_on channel=1 note=58 velocity=0 time=0
note_on channel=1 note=56 velocity=0 time=0
note_on channel=1 note=46 velocity=80 time=16
note_on channel=1 note=46 velocity=0 time=32
note_on channel=1 note=56 velocity=80 time=16
note_on channel=1 note=58 velocity=80 time=0
note_on channel=1 note=62 velocity=80 time=0
note_on channel=1 note=62 velocity=0 time=32
note_on channel=1 note=58 velocity=0 time=0
note_on channel=1 note=56 velocity=0 time=0
note_on channel=1 note=50 velocity=80 time=16
note_on channel=1 note=50 velocity=0 time=32
note_on channel=1 note=56 velocity=80 time=16
note_on channel=1 note=58 velocity=80 time=0
note_on channel=1 note=62 velocity=80 time=0
note_on channel=1 note=62 velocity=0 time=32
note_on channel=1 note=58 velocity=0 time=0
note_on channel=1 note=56 velocity=0 time=0
note_on channel=1 note=46 velocity=80 time=16
note_on channel=1 note=46 velocity=0 time=32
note_on channel=1 note=56 velocity=80 time=16
note_on channel=1 note=58 velocity=80 time=0
note_on channel=1 note=62 velocity=80 time=0
note_on channel=1 note=62 velocity=0 time=32
note_on channel=1 note=58 velocity=0 time=0
note_on channel=1 note=56 velocity=0 time=0
note_on channel=1 note=51 velocity=80 time=16
note_on channel=1 note=51 velocity=0 time=32
note_on channel=1 note=55 velocity=80 time=16
note_on channel=1 note=58 velocity=80 time=0
note_on channel=1 note=63 velocity=80 time=0
note_on channel=1 note=63 velocity=0 time=32
note_on channel=1 note=58 velocity=0 time=0
note_on channel=1 note=55 velocity=0 time=0
note_on channel=1 note=46 velocity=80 time=16
note_on channel=1 note=46 velocity=0 time=32
note_on channel=1 note=55 velocity=80 time=16
note_on channel=1 note=58 velocity=80 time=0
note_on channel=1 note=63 velocity=80 time=0
note_on channel=1 note=63 velocity=0 time=32
note_on channel=1 note=58 velocity=0 time=0
note_on channel=1 note=55 velocity=0 time=0
note_on channel=1 note=63 velocity=80 time=16
note_on channel=1 note=58 velocity=80 time=0
note_on channel=1 note=55 velocity=80 time=0
note_on channel=1 note=51 velocity=80 time=0
note_on channel=1 note=51 velocity=0 time=32
note_on channel=1 note=63 velocity=0 time=0
note_on channel=1 note=58 velocity=0 time=0
note_on channel=1 note=55 velocity=0 time=0
note_on channel=1 note=53 velocity=80 time=160
note_on channel=1 note=53 velocity=0 time=32
note_on channel=1 note=56 velocity=80 time=16
note_on channel=1 note=58 velocity=80 time=0
note_on channel=1 note=62 velocity=80 time=0
note_on channel=1 note=62 velocity=0 time=32
note_on channel=1 note=58 velocity=0 time=0
note_on channel=1 note=56 velocity=0 time=0
note_on channel=1 note=46 velocity=80 time=16
note_on channel=1 note=46 velocity=0 time=32
note_on channel=1 note=56 velocity=80 time=16
note_on channel=1 note=58 velocity=80 time=0
note_on channel=1 note=62 velocity=80 time=0
note_on channel=1 note=62 velocity=0 time=32
note_on channel=1 note=58 velocity=0 time=0
note_on channel=1 note=56 velocity=0 time=0
note_on channel=1 note=50 velocity=80 time=16
note_on channel=1 note=50 velocity=0 time=32
note_on channel=1 note=56 velocity=80 time=16
note_on channel=1 note=58 velocity=80 time=0
note_on channel=1 note=62 velocity=80 time=0
note_on channel=1 note=62 velocity=0 time=32
note_on channel=1 note=58 velocity=0 time=0
note_on channel=1 note=56 velocity=0 time=0
note_on channel=1 note=46 velocity=80 time=16
note_on channel=1 note=46 velocity=0 time=32
note_on channel=1 note=56 velocity=80 time=16
note_on channel=1 note=58 velocity=80 time=0
note_on channel=1 note=62 velocity=80 time=0
note_on channel=1 note=62 velocity=0 time=32
note_on channel=1 note=58 velocity=0 time=0
note_on channel=1 note=56 velocity=0 time=0
note_on channel=1 note=51 velocity=80 time=16
note_on channel=1 note=51 velocity=0 time=32
note_on channel=1 note=55 velocity=80 time=16
note_on channel=1 note=58 velocity=80 time=0
note_on channel=1 note=63 velocity=80 time=0
note_on channel=1 note=63 velocity=0 time=32
note_on channel=1 note=58 velocity=0 time=0
note_on channel=1 note=55 velocity=0 time=0
note_on channel=1 note=46 velocity=80 time=16
note_on channel=1 note=46 velocity=0 time=32
note_on channel=1 note=55 velocity=80 time=16
note_on channel=1 note=58 velocity=80 time=0
note_on channel=1 note=63 velocity=80 time=0
note_on channel=1 note=63 velocity=0 time=32
note_on channel=1 note=58 velocity=0 time=0
note_on channel=1 note=55 velocity=0 time=0
note_on channel=1 note=51 velocity=80 time=16
note_on channel=1 note=51 velocity=0 time=32
note_on channel=1 note=55 velocity=80 time=16
note_on channel=1 note=58 velocity=80 time=0
note_on channel=1 note=63 velocity=80 time=0
note_on channel=1 note=63 velocity=0 time=32
note_on channel=1 note=58 velocity=0 time=0
note_on channel=1 note=55 velocity=0 time=0
note_on channel=1 note=63 velocity=80 time=16
note_on channel=1 note=51 velocity=80 time=0
note_on channel=1 note=51 velocity=0 time=32
note_on channel=1 note=63 velocity=0 time=0
note_on channel=1 note=49 velocity=80 time=16
note_on channel=1 note=61 velocity=80 time=0
note_on channel=1 note=61 velocity=0 time=32
note_on channel=1 note=49 velocity=0 time=0
note_on channel=1 note=60 velocity=80 time=16
note_on channel=1 note=48 velocity=80 time=0
note_on channel=1 note=48 velocity=0 time=32
note_on channel=1 note=60 velocity=0 time=0
note_on channel=1 note=56 velocity=80 time=16
note_on channel=1 note=60 velocity=80 time=0
note_on channel=1 note=63 velocity=80 time=0
note_on channel=1 note=63 velocity=0 time=32
note_on channel=1 note=60 velocity=0 time=0
note_on channel=1 note=56 velocity=0 time=0
note_on channel=1 note=60 velocity=80 time=16
note_on channel=1 note=48 velocity=80 time=0
note_on channel=1 note=48 velocity=0 time=32
note_on channel=1 note=60 velocity=0 time=0
note_on channel=1 note=47 velocity=80 time=16
note_on channel=1 note=59 velocity=80 time=0
note_on channel=1 note=59 velocity=0 time=32
note_on channel=1 note=47 velocity=0 time=0
note_on channel=1 note=58 velocity=80 time=16
note_on channel=1 note=46 velocity=80 time=0
note_on channel=1 note=46 velocity=0 time=32
note_on channel=1 note=58 velocity=0 time=0
note_on channel=1 note=55 velocity=80 time=16
note_on channel=1 note=58 velocity=80 time=0
note_on channel=1 note=63 velocity=80 time=0
note_on channel=1 note=63 velocity=0 time=32
note_on channel=1 note=58 velocity=0 time=0
note_on channel=1 note=55 velocity=0 time=0
note_on channel=1 note=57 velocity=80 time=16
note_on channel=1 note=45 velocity=80 time=0
note_on channel=1 note=45 velocity=0 time=32
note_on channel=1 note=57 velocity=0 time=0
note_on channel=1 note=54 velocity=80 time=16
note_on channel=1 note=60 velocity=80 time=0
note_on channel=1 note=63 velocity=80 time=0
note_on channel=1 note=63 velocity=0 time=32
note_on channel=1 note=60 velocity=0 time=0
note_on channel=1 note=54 velocity=0 time=0
note_on channel=1 note=58 velocity=80 time=16
note_on channel=1 note=46 velocity=80 time=0
note_on channel=1 note=46 velocity=0 time=32
note_on channel=1 note=58 velocity=0 time=0
note_on channel=1 note=55 velocity=80 time=16
note_on channel=1 note=58 velocity=80 time=0
note_on channel=1 note=63 velocity=80 time=0
note_on channel=1 note=63 velocity=0 time=32
note_on channel=1 note=58 velocity=0 time=0
note_on channel=1 note=55 velocity=0 time=0
note_on channel=1 note=53 velocity=80 time=16
note_on channel=1 note=41 velocity=80 time=0
note_on channel=1 note=41 velocity=0 time=32
note_on channel=1 note=53 velocity=0 time=0
note_on channel=1 note=46 velocity=80 time=16
note_on channel=1 note=34 velocity=80 time=0
note_on channel=1 note=34 velocity=0 time=32
note_on channel=1 note=46 velocity=0 time=0
note_on channel=1 note=51 velocity=80 time=16
note_on channel=1 note=39 velocity=80 time=0
note_on channel=1 note=39 velocity=0 time=32
note_on channel=1 note=51 velocity=0 time=0
note_on channel=1 note=46 velocity=80 time=16
note_on channel=1 note=46 velocity=0 time=32
note_on channel=1 note=39 velocity=80 time=16
note_on channel=1 note=39 velocity=0 time=32
<meta message end_of_track time=0>
<meta message midi_port port=0 time=0>
<meta message track_name name='W.S.Trachtman - MIDI file' time=0>
program_change channel=2 program=0 time=0
control_change channel=2 control=7 value=127 time=0
note_on channel=2 note=40 velocity=1 time=28512
note_on channel=2 note=40 velocity=0 time=32
<meta message end_of_track time=0>
<meta message track_name name='untitled' time=0>
<meta message smpte_offset frame_rate=25 hours=32 minutes=0 seconds=3 frames=0 sub_frames=0 time=0>
<meta message time_signature numerator=2 denominator=4 clocks_per_click=24 notated_32nd_notes_per_beat=8 time=0>
<meta message key_signature key='C' time=0>
<meta message set_tempo tempo=560748 time=0>
<meta message marker text='W.S.Trachtman - MIDI file' time=0>
<meta message key_signature key='F' time=13248>
<meta message key_signature key='C' time=6144>
<meta message end_of_track time=0>
<meta message midi_port port=0 time=0>
<meta message track_name name='Felicity Rag' time=0>
program_change channel=0 program=0 time=0
control_change channel=0 control=7 value=127 time=0
control_change channel=0 control=10 value=90 time=0
control_change channel=0 control=121 value=0 time=4
control_change channel=0 control=1 value=0 time=20
control_change channel=0 control=64 value=0 time=4
aftertouch channel=0 value=0 time=16
pitchwheel channel=0 pitch=0 time=5
control_change channel=0 control=93 value=12 time=2
control_change channel=0 control=91 value=21 time=0
control_change channel=0 control=7 value=127 time=23
control_change channel=0 control=10 value=84 time=2
note_on channel=0 note=62 velocity=80 time=500
<meta message lyrics text='Felicity ' time=0>
note_on channel=0 note=62 velocity=0 time=32
note_on channel=0 note=61 velocity=80 time=16
<meta message lyrics text='Rag ' time=0>
note_on channel=0 note=61 velocity=0 time=16
note_on channel=0 note=62 velocity=80 time=8
note_on channel=0 note=62 velocity=0 time=16
note_on channel=0 note=63 velocity=80 time=8
<meta message lyrics text='by ' time=0>
note_on channel=0 note=63 velocity=0 time=16
note_on channel=0 note=64 velocity=80 time=8
<meta message lyrics text='Scott ' time=0>
note_on channel=0 note=64 velocity=0 time=16
note_on channel=0 note=65 velocity=80 time=8
<meta message lyrics text='Joplin ' time=0>
note_on channel=0 note=65 velocity=0 time=16
note_on channel=0 note=66 velocity=80 time=8
<meta message lyrics text='& ' time=0>
note_on channel=0 note=66 velocity=0 time=16
note_on channel=0 note=67 velocity=80 time=8
<meta message lyrics text='Scott ' time=0>
note_on channel=0 note=67 velocity=0 time=32
note_on channel=0 note=67 velocity=80 time=64
note_on channel=0 note=71 velocity=80 time=0
note_on channel=0 note=74 velocity=80 time=0
note_on channel=0 note=79 velocity=80 time=0
<meta message lyrics text='Hayden ' time=0>
note_on channel=0 note=79 velocity=0 time=32
note_on channel=0 note=67 velocity=0 time=0
note_on channel=0 note=71 velocity=0 time=0
note_on channel=0 note=74 velocity=0 time=0
note_on channel=0 note=67 velocity=80 time=64
note_on channel=0 note=72 velocity=80 time=0
note_on channel=0 note=76 velocity=80 time=0
<meta message lyrics text='(1911) ' time=0>
<meta message lyrics text=' ' time=0>
<meta message lyrics text='\r' time=0>
note_on channel=0 note=76 velocity=0 time=16
note_on channel=0 note=72 velocity=0 time=0
note_on channel=0 note=67 velocity=0 time=0
note_on channel=0 note=66 velocity=80 time=8
note_on channel=0 note=72 velocity=80 time=0
note_on channel=0 note=75 velocity=80 time=0
note_on channel=0 note=75 velocity=0 time=16
note_on channel=0 note=72 velocity=0 time=0
note_on channel=0 note=66 velocity=0 time=0
note_on channel=0 note=76 velocity=80 time=8
note_on channel=0 note=72 velocity=80 time=0
note_on channel=0 note=67 velocity=80 time=0
<meta message lyrics text='; ' time=0>
note_on channel=0 note=67 velocity=0 time=16
note_on channel=0 note=72 velocity=0 time=0
note_on channel=0 note=76 velocity=0 time=0
note_on channel=0 note=69 velocity=80 time=8
note_on channel=0 note=72 velocity=80 time=0
note_on channel=0 note=76 velocity=80 time=0
note_on channel=0 note=81 velocity=80 time=0
<meta message lyrics text='Sequenced ' time=0>
note_on channel=0 note=81 velocity=0 time=32
note_on channel=0 note=69 velocity=0 time=0
note_on channel=0 note=72 velocity=0 time=0
note_on channel=0 note=76 velocity=0 time=0
note_on channel=0 note=79 velocity=80 time=16
<meta message lyrics text='by ' time=0>
note_on channel=0 note=79 velocity=0 time=16
note_on channel=0 note=76 velocity=80 time=8
<meta message lyrics text='W. ' time=0>
note_on channel=0 note=76 velocity=0 time=16
note_on channel=0 note=72 velocity=80 time=8
<meta message lyrics text='S. ' time=0>
note_on channel=0 note=72 velocity=0 time=16
note_on channel=0 note=74 velocity=80 time=8
note_on channel=0 note=65 velocity=80 time=0
note_on channel=0 note=71 velocity=80 time=0
<meta message lyrics text='Trachtman ' time=0>
<meta message lyrics text=' ' time=0>
<meta message lyrics text='\r' time=0>
note_on channel=0 note=74 velocity=0 time=32
note_on channel=0 note=71 velocity=0 time=16
note_on channel=0 note=65 velocity=0 time=0
note_on channel=0 note=76 velocity=80 time=0
note_on channel=0 note=76 velocity=0 time=16
note_on channel=0 note=67 velocity=80 time=8
note_on channel=0 note=64 velocity=80 time=0
note_on channel=0 note=72 velocity=80 time=0
note_on channel=0 note=72 velocity=0 time=32
note_on channel=0 note=64 velocity=0 time=0
note_on channel=0 note=67 velocity=0 time=0
note_on channel=0 note=72 velocity=80 time=16
note_on channel=0 note=72 velocity=0 time=16
note_on channel=0 note=71 velocity=80 time=8
note_on channel=0 note=71 velocity=0 time=16
note_on channel=0 note=70 velocity=80 time=8
note_on channel=0 note=70 velocity=0 time=16
note_on channel=0 note=69 velocity=80 time=8
note_on channel=0 note=69 velocity=0 time=16
note_on channel=0 note=68 velocity=80 time=8
note_on channel=0 note=68 velocity=0 time=16
note_on channel=0 note=69 velocity=80 time=8
note_on channel=0 note=69 velocity=0 time=16
note_on channel=0 note=72 velocity=80 time=8
note_on channel=0 note=72 velocity=0 time=16
note_on channel=0 note=76 velocity=80 time=8
note_on channel=0 note=65 velocity=80 time=0
note_on channel=0 note=76 velocity=0 time=16
note_on channel=0 note=74 velocity=80 time=8
note_on channel=0 note=65 velocity=0 time=8
note_on channel=0 note=74 velocity=0 time=8
note_on channel=0 note=72 velocity=80 time=8
note_on channel=0 note=65 velocity=80 time=0
note_on channel=0 note=72 velocity=0 time=16
note_on channel=0 note=69 velocity=80 time=8
note_on channel=0 note=65 velocity=0 time=8
note_on channel=0 note=69 velocity=0 time=8
note_on channel=0 note=64 velocity=80 time=8
note_on channel=0 note=72 velocity=80 time=0
note_on channel=0 note=72 velocity=0 time=32
note_on channel=0 note=64 velocity=0 time=0
note_on channel=0 note=69 velocity=80 time=16
note_on channel=0 note=64 velocity=80 time=0
note_on channel=0 note=64 velocity=0 time=16
note_on channel=0 note=69 velocity=0 time=0
note_on channel=0 note=67 velocity=80 time=8
note_on channel=0 note=64 velocity=80 time=0
note_on channel=0 note=64 velocity=0 time=32
note_on channel=0 note=67 velocity=0 time=0
note_on channel=0 note=79 velocity=80 time=16
note_on channel=0 note=79 velocity=0 time=16
note_on channel=0 note=76 velocity=80 time=8
note_on channel=0 note=76 velocity=0 time=16
note_on channel=0 note=72 velocity=80 time=8
note_on channel=0 note=72 velocity=0 time=16
note_on channel=0 note=69 velocity=80 time=8
note_on channel=0 note=69 velocity=0 time=16
note_on channel=0 note=68 velocity=80 time=8
note_on channel=0 note=68 velocity=0 time=16
note_on channel=0 note=69 velocity=80 time=8
note_on channel=0 note=69 velocity=0 time=16
note_on channel=0 note=72 velocity=80 time=8
note_on channel=0 note=72 velocity=0 time=16
note_on channel=0 note=76 velocity=80 time=8
note_on channel=0 note=65 velocity=80 time=0
note_on channel=0 note=76 velocity=0 time=16
note_on channel=0 note=74 velocity=80 time=8
note_on channel=0 note=65 velocity=0 time=8
note_on channel=0 note=74 velocity=0 time=8
note_on channel=0 note=72 velocity=80 time=8
note_on channel=0 note=65 velocity=80 time=0
note_on channel=0 note=72 velocity=0 time=16
note_on channel=0 note=69 velocity=80 time=8
note_on channel=0 note=65 velocity=0 time=8
note_on channel=0 note=69 velocity=0 time=8
note_on channel=0 note=64 velocity=80 time=8
note_on channel=0 note=67 velocity=80 time=0
note_on channel=0 note=76 velocity=80 time=0
note_on channel=0 note=76 velocity=0 time=16
note_on channel=0 note=67 velocity=0 time=0
note_on channel=0 note=64 velocity=0 time=0
note_on channel=0 note=75 velocity=80 time=8
note_on channel=0 note=66 velocity=80 time=0
note_on channel=0 note=63 velocity=80 time=0
note_on channel=0 note=63 velocity=0 time=16
note_on channel=0 note=66 velocity=0 time=0
note_on channel=0 note=75 velocity=0 time=0
note_on channel=0 note=64 velocity=80 time=8
note_on channel=0 note=67 velocity=80 time=0
note_on channel=0 note=76 velocity=80 time=0
note_on channel=0 note=76 velocity=0 time=16
note_on channel=0 note=67 velocity=0 time=0
note_on channel=0 note=64 velocity=0 time=0
note_on channel=0 note=69 velocity=80 time=8
note_on channel=0 note=72 velocity=80 time=0
note_on channel=0 note=76 velocity=80 time=0
note_on channel=0 note=81 velocity=80 time=0
note_on channel=0 note=81 velocity=0 time=32
note_on channel=0 note=69 velocity=0 time=0
note_on channel=0 note=72 velocity=0 time=0
note_on channel=0 note=76 velocity=0 time=0
note_on channel=0 note=76 velocity=80 time=16
note_on channel=0 note=76 velocity=0 time=16
note_on channel=0 note=72 velocity=80 time=8
note_on channel=0 note=72 velocity=0 time=16
note_on channel=0 note=67 velocity=80 time=8
note_on channel=0 note=67 velocity=0 time=16
note_on channel=0 note=69 velocity=80 time=8
note_on channel=0 note=69 velocity=0 time=16
note_on channel=0 note=70 velocity=80 time=8
note_on channel=0 note=70 velocity=0 time=16
note_on channel=0 note=71 velocity=80 time=8
note_on channel=0 note=71 velocity=0 time=16
note_on channel=0 note=71 velocity=80 time=8
note_on channel=0 note=77 velocity=80 time=0
note_on channel=0 note=81 velocity=80 time=0
note_on channel=0 note=81 velocity=0 time=48
note_on channel=0 note=77 velocity=0 time=0
note_on channel=0 note=71 velocity=0 time=0
note_on channel=0 note=79 velocity=80 time=24
note_on channel=0 note=77 velocity=80 time=0
note_on channel=0 note=71 velocity=80 time=0
note_on channel=0 note=71 velocity=0 time=32
note_on channel=0 note=77 velocity=0 time=0
note_on channel=0 note=79 velocity=0 time=0
note_on channel=0 note=77 velocity=80 time=16
note_on channel=0 note=83 velocity=80 time=0
note_on channel=0 note=88 velocity=80 time=0
note_on channel=0 note=88 velocity=0 time=32
note_on channel=0 note=83 velocity=0 time=0
note_on channel=0 note=77 velocity=0 time=0
note_on channel=0 note=77 velocity=80 time=16
note_on channel=0 note=83 velocity=80 time=0
note_on channel=0 note=86 velocity=80 time=0
note_on channel=0 note=86 velocity=0 time=32
note_on channel=0 note=83 velocity=0 time=0
note_on channel=0 note=77 velocity=0 time=0
note_on channel=0 note=86 velocity=80 time=16
note_on channel=0 note=79 velocity=80 time=0
note_on channel=0 note=76 velocity=80 time=0
note_on channel=0 note=76 velocity=0 time=32
note_on channel=0 note=79 velocity=0 time=0
note_on channel=0 note=86 velocity=0 time=0
note_on channel=0 note=76 velocity=80 time=16
note_on channel=0 note=79 velocity=80 time=0
note_on channel=0 note=84 velocity=80 time=0
note_on channel=0 note=84 velocity=0 time=32
note_on channel=0 note=79 velocity=0 time=0
note_on channel=0 note=76 velocity=0 time=0
note_on channel=0 note=67 velocity=80 time=16
note_on channel=0 note=72 velocity=80 time=0
note_on channel=0 note=76 velocity=80 time=0
note_on channel=0 note=76 velocity=0 time=16
note_on channel=0 note=72 velocity=0 time=0
note_on channel=0 note=67 velocity=0 time=0
note_on channel=0 note=66 velocity=80 time=8
note_on channel=0 note=72 velocity=80 time=0
note_on channel=0 note=75 velocity=80 time=0
note_on channel=0 note=75 velocity=0 time=16
note_on channel=0 note=72 velocity=0 time=0
note_on channel=0 note=66 velocity=0 time=0
note_on channel=0 note=76 velocity=80 time=8
note_on channel=0 note=72 velocity=80 time=0
note_on channel=0 note=67 velocity=80 time=0
note_on channel=0 note=67 velocity=0 time=16
note_on channel=0 note=72 velocity=0 time=0
note_on channel=0 note=76 velocity=0 time=0
note_on channel=0 note=69 velocity=80 time=8
note_on channel=0 note=72 velocity=80 time=0
note_on channel=0 note=76 velocity=80 time=0
note_on channel=0 note=81 velocity=80 time=0
note_on channel=0 note=81 velocity=0 time=32
note_on channel=0 note=69 velocity=0 time=0
note_on channel=0 note=72 velocity=0 time=0
note_on channel=0 note=76 velocity=0 time=0
note_on channel=0 note=79 velocity=80 time=16
note_on channel=0 note=79 velocity=0 time=16
note_on channel=0 note=76 velocity=80 time=8
note_on channel=0 note=76 velocity=0 time=16
note_on channel=0 note=72 velocity=80 time=8
note_on channel=0 note=72 velocity=0 time=16
note_on channel=0 note=74 velocity=80 time=8
note_on channel=0 note=65 velocity=80 time=0
note_on channel=0 note=71 velocity=80 time=0
note_on channel=0 note=74 velocity=0 time=32
note_on channel=0 note=71 velocity=0 time=16
note_on channel=0 note=65 velocity=0 time=0
note_on channel=0 note=76 velocity=80 time=0
note_on channel=0 note=76 velocity=0 time=16
note_on channel=0 note=67 velocity=80 time=8
note_on channel=0 note=64 velocity=80 time=0
note_on channel=0 note=72 velocity=80 time=0
note_on channel=0 note=72 velocity=0 time=32
note_on channel=0 note=64 velocity=0 time=0
note_on channel=0 note=67 velocity=0 time=0
note_on channel=0 note=72 velocity=80 time=16
note_on channel=0 note=72 velocity=0 time=16
note_on channel=0 note=71 velocity=80 time=8
note_on channel=0 note=71 velocity=0 time=16
note_on channel=0 note=70 velocity=80 time=8
note_on channel=0 note=70 velocity=0 time=16
note_on channel=0 note=69 velocity=80 time=8
note_on channel=0 note=69 velocity=0 time=16
note_on channel=0 note=68 velocity=80 time=8
note_on channel=0 note=68 velocity=0 time=16
note_on channel=0 note=69 velocity=80 time=8
note_on channel=0 note=69 velocity=0 time=16
note_on channel=0 note=72 velocity=80 time=8
note_on channel=0 note=72 velocity=0 time=16
note_on channel=0 note=76 velocity=80 time=8
note_on channel=0 note=65 velocity=80 time=0
note_on channel=0 note=76 velocity=0 time=16
note_on channel=0 note=74 velocity=80 time=8
note_on channel=0 note=65 velocity=0 time=8
note_on channel=0 note=74 velocity=0 time=8
note_on channel=0 note=72 velocity=80 time=8
note_on channel=0 note=65 velocity=80 time=0
note_on channel=0 note=72 velocity=0 time=16
note_on channel=0 note=69 velocity=80 time=8
note_on channel=0 note=65 velocity=0 time=8
note_on channel=0 note=69 velocity=0 time=8
note_on channel=0 note=64 velocity=80 time=8
note_on channel=0 note=72 velocity=80 time=0
note_on channel=0 note=72 velocity=0 time=32
note_on channel=0 note=64 velocity=0 time=0
note_on channel=0 note=69 velocity=80 time=16
note_on channel=0 note=64 velocity=80 time=0
note_on channel=0 note=64 velocity=0 time=16
note_on channel=0 note=69 velocity=0 time=0
note_on channel=0 note=67 velocity=80 time=8
note_on channel=0 note=64 velocity=80 time=0
note_on channel=0 note=64 velocity=0 time=32
note_on channel=0 note=67 velocity=0 time=0
note_on channel=0 note=79 velocity=80 time=16
note_on channel=0 note=79 velocity=0 time=16
note_on channel=0 note=76 velocity=80 time=8
note_on channel=0 note=76 velocity=0 time=16
note_on channel=0 note=72 velocity=80 time=8
note_on channel=0 note=72 velocity=0 time=16
note_on channel=0 note=69 velocity=80 time=8
note_on channel=0 note=69 velocity=0 time=16
note_on channel=0 note=68 velocity=80 time=8
note_on channel=0 note=68 velocity=0 time=16
note_on channel=0 note=69 velocity=80 time=8
note_on channel=0 note=69 velocity=0 time=16
note_on channel=0 note=72 velocity=80 time=8
note_on channel=0 note=72 velocity=0 time=16
note_on channel=0 note=76 velocity=80 time=8
note_on channel=0 note=65 velocity=80 time=0
note_on channel=0 note=76 velocity=0 time=16
note_on channel=0 note=74 velocity=80 time=8
note_on channel=0 note=65 velocity=0 time=8
note_on channel=0 note=74 velocity=0 time=8
note_on channel=0 note=72 velocity=80 time=8
note_on channel=0 note=66 velocity=80 time=0
note_on channel=0 note=72 velocity=0 time=16
note_on channel=0 note=69 velocity=80 time=8
note_on channel=0 note=66 velocity=0 time=8
note_on channel=0 note=69 velocity=0 time=8
note_on channel=0 note=67 velocity=80 time=8
note_on channel=0 note=67 velocity=0 time=16
note_on channel=0 note=72 velocity=80 time=8
note_on channel=0 note=72 velocity=0 time=16
note_on channel=0 note=76 velocity=80 time=8
note_on channel=0 note=76 velocity=0 time=16
note_on channel=0 note=77 velocity=80 time=8
note_on channel=0 note=73 velocity=80 time=0
note_on channel=0 note=67 velocity=80 time=0
note_on channel=0 note=67 velocity=0 time=32
note_on channel=0 note=73 velocity=0 time=0
note_on channel=0 note=77 velocity=0 time=0
note_on channel=0 note=73 velocity=80 time=16
note_on channel=0 note=73 velocity=0 time=16
note_on channel=0 note=76 velocity=80 time=8
note_on channel=0 note=73 velocity=80 time=0
note_on channel=0 note=67 velocity=80 time=0
note_on channel=0 note=67 velocity=0 time=32
note_on channel=0 note=73 velocity=0 time=0
note_on channel=0 note=76 velocity=0 time=0
note_on channel=0 note=66 velocity=80 time=16
note_on channel=0 note=66 velocity=0 time=16
note_on channel=0 note=69 velocity=80 time=8
note_on channel=0 note=69 velocity=0 time=16
note_on channel=0 note=72 velocity=80 time=8
note_on channel=0 note=72 velocity=0 time=16
note_on channel=0 note=76 velocity=80 time=8
note_on channel=0 note=71 velocity=80 time=0
note_on channel=0 note=65 velocity=80 time=0
note_on channel=0 note=65 velocity=0 time=32
note_on channel=0 note=71 velocity=0 time=0
note_on channel=0 note=76 velocity=0 time=0
note_on channel=0 note=71 velocity=80 time=16
note_on channel=0 note=71 velocity=0 time=16
note_on channel=0 note=74 velocity=80 time=8
note_on channel=0 note=71 velocity=80 time=0
note_on channel=0 note=65 velocity=80 time=0
note_on channel=0 note=65 velocity=0 time=32
note_on channel=0 note=71 velocity=0 time=0
note_on channel=0 note=74 velocity=0 time=0
note_on channel=0 note=72 velocity=80 time=16
note_on channel=0 note=67 velocity=80 time=0
note_on channel=0 note=64 velocity=80 time=0
note_on channel=0 note=64 velocity=0 time=96
note_on channel=0 note=67 velocity=0 time=0
note_on channel=0 note=72 velocity=0 time=0
note_on channel=0 note=67 velocity=80 time=48
note_on channel=0 note=71 velocity=80 time=0
note_on channel=0 note=77 velocity=80 time=0
note_on channel=0 note=77 velocity=0 time=32
note_on channel=0 note=71 velocity=0 time=0
note_on channel=0 note=67 velocity=0 time=0
note_on channel=0 note=67 velocity=80 time=16
note_on channel=0 note=72 velocity=80 time=0
note_on channel=0 note=76 velocity=80 time=0
note_on channel=0 note=76 velocity=0 time=16
note_on channel=0 note=72 velocity=0 time=0
note_on channel=0 note=67 velocity=0 time=0
note_on channel=0 note=66 velocity=80 time=8
note_on channel=0 note=72 velocity=80 time=0
note_on channel=0 note=75 velocity=80 time=0
note_on channel=0 note=75 velocity=0 time=16
note_on channel=0 note=72 velocity=0 time=0
note_on channel=0 note=66 velocity=0 time=0
note_on channel=0 note=76 velocity=80 time=8
note_on channel=0 note=72 velocity=80 time=0
note_on channel=0 note=67 velocity=80 time=0
note_on channel=0 note=67 velocity=0 time=16
note_on channel=0 note=72 velocity=0 time=0
note_on channel=0 note=76 velocity=0 time=0
note_on channel=0 note=69 velocity=80 time=8
note_on channel=0 note=72 velocity=80 time=0
note_on channel=0 note=76 velocity=80 time=0
note_on channel=0 note=81 velocity=80 time=0
note_on channel=0 note=81 velocity=0 time=32
note_on channel=0 note=69 velocity=0 time=0
note_on channel=0 note=72 velocity=0 time=0
note_on channel=0 note=76 velocity=0 time=0
note_on channel=0 note=79 velocity=80 time=16
note_on channel=0 note=79 velocity=0 time=16
note_on channel=0 note=76 velocity=80 time=8
note_on channel=0 note=76 velocity=0 time=16
note_on channel=0 note=72 velocity=80 time=8
note_on channel=0 note=72 velocity=0 time=16
note_on channel=0 note=74 velocity=80 time=8
note_on channel=0 note=65 velocity=80 time=0
note_on channel=0 note=71 velocity=80 time=0
note_on channel=0 note=74 velocity=0 time=32
note_on channel=0 note=71 velocity=0 time=16
note_on channel=0 note=65 velocity=0 time=0
note_on channel=0 note=76 velocity=80 time=0
note_on channel=0 note=76 velocity=0 time=16
note_on channel=0 note=67 velocity=80 time=8
note_on channel=0 note=64 velocity=80 time=0
note_on channel=0 note=72 velocity=80 time=0
note_on channel=0 note=72 velocity=0 time=32
note_on channel=0 note=64 velocity=0 time=0
note_on channel=0 note=67 velocity=0 time=0
note_on channel=0 note=72 velocity=80 time=16
note_on channel=0 note=72 velocity=0 time=16
note_on channel=0 note=71 velocity=80 time=8
note_on channel=0 note=71 velocity=0 time=16
note_on channel=0 note=70 velocity=80 time=8
note_on channel=0 note=70 velocity=0 time=16
note_on channel=0 note=69 velocity=80 time=8
note_on channel=0 note=69 velocity=0 time=16
note_on channel=0 note=68 velocity=80 time=8
note_on channel=0 note=68 velocity=0 time=16
note_on channel=0 note=69 velocity=80 time=8
note_on channel=0 note=69 velocity=0 time=16
note_on channel=0 note=72 velocity=80 time=8
note_on channel=0 note=72 velocity=0 time=16
note_on channel=0 note=76 velocity=80 time=8
note_on channel=0 note=65 velocity=80 time=0
note_on channel=0 note=76 velocity=0 time=16
note_on channel=0 note=74 velocity=80 time=8
note_on channel=0 note=65 velocity=0 time=8
note_on channel=0 note=74 velocity=0 time=8
note_on channel=0 note=72 velocity=80 time=8
note_on channel=0 note=65 velocity=80 time=0
note_on channel=0 note=72 velocity=0 time=16
note_on channel=0 note=69 velocity=80 time=8
note_on channel=0 note=65 velocity=0 time=8
note_on channel=0 note=69 velocity=0 time=8
note_on channel=0 note=64 velocity=80 time=8
note_on channel=0 note=72 velocity=80 time=0
note_on channel=0 note=72 velocity=0 time=32
note_on channel=0 note=64 velocity=0 time=0
note_on channel=0 note=69 velocity=80 time=16
note_on channel=0 note=64 velocity=80 time=0
note_on channel=0 note=64 velocity=0 time=16
note_on channel=0 note=69 velocity=0 time=0
note_on channel=0 note=67 velocity=80 time=8
note_on channel=0 note=64 velocity=80 time=0
note_on channel=0 note=64 velocity=0 time=32
note_on channel=0 note=67 velocity=0 time=0
note_on channel=0 note=79 velocity=80 time=16
note_on channel=0 note=79 velocity=0 time=16
note_on channel=0 note=76 velocity=80 time=8
note_on channel=0 note=76 velocity=0 time=16
note_on channel=0 note=72 velocity=80 time=8
note_on channel=0 note=72 velocity=0 time=16
note_on channel=0 note=69 velocity=80 time=8
note_on channel=0 note=69 velocity=0 time=16
note_on channel=0 note=68 velocity=80 time=8
note_on channel=0 note=68 velocity=0 time=16
note_on channel=0 note=69 velocity=80 time=8
note_on channel=0 note=69 velocity=0 time=16
note_on channel=0 note=72 velocity=80 time=8
note_on channel=0 note=72 velocity=0 time=16
note_on channel=0 note=76 velocity=80 time=8
note_on channel=0 note=65 velocity=80 time=0
note_on channel=0 note=76 velocity=0 time=16
note_on channel=0 note=74 velocity=80 time=8
note_on channel=0 note=65 velocity=0 time=8
note_on channel=0 note=74 velocity=0 time=8
note_on channel=0 note=72 velocity=80 time=8
note_on channel=0 note=65 velocity=80 time=0
note_on channel=0 note=72 velocity=0 time=16
note_on channel=0 note=69 velocity=80 time=8
note_on channel=0 note=65 velocity=0 time=8
note_on channel=0 note=69 velocity=0 time=8
note_on channel=0 note=64 velocity=80 time=8
note_on channel=0 note=67 velocity=80 time=0
note_on channel=0 note=76 velocity=80 time=0
note_on channel=0 note=76 velocity=0 time=16
note_on channel=0 note=67 velocity=0 time=0
note_on channel=0 note=64 velocity=0 time=0
note_on channel=0 note=75 velocity=80 time=8
note_on channel=0 note=66 velocity=80 time=0
note_on channel=0 note=63 velocity=80 time=0
note_on channel=0 note=63 velocity=0 time=16
note_on channel=0 note=66 velocity=0 time=0
note_on channel=0 note=75 velocity=0 time=0
note_on channel=0 note=64 velocity=80 time=8
note_on channel=0 note=67 velocity=80 time=0
note_on channel=0 note=76 velocity=80 time=0
note_on channel=0 note=76 velocity=0 time=16
note_on channel=0 note=67 velocity=0 time=0
note_on channel=0 note=64 velocity=0 time=0
note_on channel=0 note=69 velocity=80 time=8
note_on channel=0 note=72 velocity=80 time=0
note_on channel=0 note=76 velocity=80 time=0
note_on channel=0 note=81 velocity=80 time=0
note_on channel=0 note=81 velocity=0 time=32
note_on channel=0 note=69 velocity=0 time=0
note_on channel=0 note=72 velocity=0 time=0
note_on channel=0 note=76 velocity=0 time=0
note_on channel=0 note=76 velocity=80 time=16
note_on channel=0 note=76 velocity=0 time=16
note_on channel=0 note=72 velocity=80 time=8
note_on channel=0 note=72 velocity=0 time=16
note_on channel=0 note=67 velocity=80 time=8
note_on channel=0 note=67 velocity=0 time=16
note_on channel=0 note=69 velocity=80 time=8
note_on channel=0 note=69 velocity=0 time=16
note_on channel=0 note=70 velocity=80 time=8
note_on channel=0 note=70 velocity=0 time=16
note_on channel=0 note=71 velocity=80 time=8
note_on channel=0 note=71 velocity=0 time=16
note_on channel=0 note=71 velocity=80 time=8
note_on channel=0 note=77 velocity=80 time=0
note_on channel=0 note=81 velocity=80 time=0
note_on channel=0 note=81 velocity=0 time=48
note_on channel=0 note=77 velocity=0 time=0
note_on channel=0 note=71 velocity=0 time=0
note_on channel=0 note=79 velocity=80 time=24
note_on channel=0 note=77 velocity=80 time=0
note_on channel=0 note=71 velocity=80 time=0
note_on channel=0 note=71 velocity=0 time=32
note_on channel=0 note=77 velocity=0 time=0
note_on channel=0 note=79 velocity=0 time=0
note_on channel=0 note=77 velocity=80 time=16
note_on channel=0 note=83 velocity=80 time=0
note_on channel=0 note=88 velocity=80 time=0
note_on channel=0 note=88 velocity=0 time=32
note_on channel=0 note=83 velocity=0 time=0
note_on channel=0 note=77 velocity=0 time=0
note_on channel=0 note=77 velocity=80 time=16
note_on channel=0 note=83 velocity=80 time=0
note_on channel=0 note=86 velocity=80 time=0
note_on channel=0 note=86 velocity=0 time=32
note_on channel=0 note=83 velocity=0 time=0
note_on channel=0 note=77 velocity=0 time=0
note_on channel=0 note=86 velocity=80 time=16
note_on channel=0 note=79 velocity=80 time=0
note_on channel=0 note=76 velocity=80 time=0
note_on channel=0 note=76 velocity=0 time=32
note_on channel=0 note=79 velocity=0 time=0
note_on channel=0 note=86 velocity=0 time=0
note_on channel=0 note=76 velocity=80 time=16
note_on channel=0 note=79 velocity=80 time=0
note_on channel=0 note=84 velocity=80 time=0
note_on channel=0 note=84 velocity=0 time=32
note_on channel=0 note=79 velocity=0 time=0
note_on channel=0 note=76 velocity=0 time=0
note_on channel=0 note=67 velocity=80 time=16
note_on channel=0 note=72 velocity=80 time=0
note_on channel=0 note=76 velocity=80 time=0
note_on channel=0 note=76 velocity=0 time=16
note_on channel=0 note=72 velocity=0 time=0
note_on channel=0 note=67 velocity=0 time=0
note_on channel=0 note=66 velocity=80 time=8
note_on channel=0 note=72 velocity=80 time=0
note_on channel=0 note=75 velocity=80 time=0
note_on channel=0 note=75 velocity=0 time=16
note_on channel=0 note=72 velocity=0 time=0
note_on channel=0 note=66 velocity=0 time=0
note_on channel=0 note=76 velocity=80 time=8
note_on channel=0 note=72 velocity=80 time=0
note_on channel=0 note=67 velocity=80 time=0
note_on channel=0 note=67 velocity=0 time=16
note_on channel=0 note=72 velocity=0 time=0
note_on channel=0 note=76 velocity=0 time=0
note_on channel=0 note=69 velocity=80 time=8
note_on channel=0 note=72 velocity=80 time=0
note_on channel=0 note=76 velocity=80 time=0
note_on channel=0 note=81 velocity=80 time=0
note_on channel=0 note=81 velocity=0 time=32
note_on channel=0 note=69 velocity=0 time=0
note_on channel=0 note=72 velocity=0 time=0
note_on channel=0 note=76 velocity=0 time=0
note_on channel=0 note=79 velocity=80 time=16
note_on channel=0 note=79 velocity=0 time=16
note_on channel=0 note=76 velocity=80 time=8
note_on channel=0 note=76 velocity=0 time=16
note_on channel=0 note=72 velocity=80 time=8
note_on channel=0 note=72 velocity=0 time=16
note_on channel=0 note=74 velocity=80 time=8
note_on channel=0 note=65 velocity=80 time=0
note_on channel=0 note=71 velocity=80 time=0
note_on channel=0 note=74 velocity=0 time=32
note_on channel=0 note=71 velocity=0 time=16
note_on channel=0 note=65 velocity=0 time=0
note_on channel=0 note=76 velocity=80 time=0
note_on channel=0 note=76 velocity=0 time=16
note_on channel=0 note=67 velocity=80 time=8
note_on channel=0 note=64 velocity=80 time=0
note_on channel=0 note=72 velocity=80 time=0
note_on channel=0 note=72 velocity=0 time=32
note_on channel=0 note=64 velocity=0 time=0
note_on channel=0 note=67 velocity=0 time=0
note_on channel=0 note=72 velocity=80 time=16
note_on channel=0 note=72 velocity=0 time=16
note_on channel=0 note=71 velocity=80 time=8
note_on channel=0 note=71 velocity=0 time=16
note_on channel=0 note=70 velocity=80 time=8
note_on channel=0 note=70 velocity=0 time=16
note_on channel=0 note=69 velocity=80 time=8
note_on channel=0 note=69 velocity=0 time=16
note_on channel=0 note=68 velocity=80 time=8
note_on channel=0 note=68 velocity=0 time=16
note_on channel=0 note=69 velocity=80 time=8
note_on channel=0 note=69 velocity=0 time=16
note_on channel=0 note=72 velocity=80 time=8
note_on channel=0 note=72 velocity=0 time=16
note_on channel=0 note=76 velocity=80 time=8
note_on channel=0 note=65 velocity=80 time=0
note_on channel=0 note=76 velocity=0 time=16
note_on channel=0 note=74 velocity=80 time=8
note_on channel=0 note=65 velocity=0 time=8
note_on channel=0 note=74 velocity=0 time=8
note_on channel=0 note=72 velocity=80 time=8
note_on channel=0 note=65 velocity=80 time=0
note_on channel=0 note=72 velocity=0 time=16
note_on channel=0 note=69 velocity=80 time=8
note_on channel=0 note=65 velocity=0 time=8
note_on channel=0 note=69 velocity=0 time=8
note_on channel=0 note=64 velocity=80 time=8
note_on channel=0 note=72 velocity=80 time=0
note_on channel=0 note=72 velocity=0 time=32
note_on channel=0 note=64 velocity=0 time=0
note_on channel=0 note=69 velocity=80 time=16
note_on channel=0 note=64 velocity=80 time=0
note_on channel=0 note=64 velocity=0 time=16
note_on channel=0 note=69 velocity=0 time=0
note_on channel=0 note=67 velocity=80 time=8
note_on channel=0 note=64 velocity=80 time=0
note_on channel=0 note=64 velocity=0 time=32
note_on channel=0 note=67 velocity=0 time=0
note_on channel=0 note=79 velocity=80 time=16
note_on channel=0 note=79 velocity=0 time=16
note_on channel=0 note=76 velocity=80 time=8
note_on channel=0 note=76 velocity=0 time=16
note_on channel=0 note=72 velocity=80 time=8
note_on channel=0 note=72 velocity=0 time=16
note_on channel=0 note=69 velocity=80 time=8
note_on channel=0 note=69 velocity=0 time=16
note_on channel=0 note=68 velocity=80 time=8
note_on channel=0 note=68 velocity=0 time=16
note_on channel=0 note=69 velocity=80 time=8
note_on channel=0 note=69 velocity=0 time=16
note_on channel=0 note=72 velocity=80 time=8
note_on channel=0 note=72 velocity=0 time=16
note_on channel=0 note=76 velocity=80 time=8
note_on channel=0 note=65 velocity=80 time=0
note_on channel=0 note=76 velocity=0 time=16
note_on channel=0 note=74 velocity=80 time=8
note_on channel=0 note=65 velocity=0 time=8
note_on channel=0 note=74 velocity=0 time=8
note_on channel=0 note=72 velocity=80 time=8
note_on channel=0 note=66 velocity=80 time=0
note_on channel=0 note=72 velocity=0 time=16
note_on channel=0 note=69 velocity=80 time=8
note_on channel=0 note=66 velocity=0 time=8
note_on channel=0 note=69 velocity=0 time=8
note_on channel=0 note=67 velocity=80 time=8
note_on channel=0 note=67 velocity=0 time=16
note_on channel=0 note=72 velocity=80 time=8
note_on channel=0 note=72 velocity=0 time=16
note_on channel=0 note=76 velocity=80 time=8
note_on channel=0 note=76 velocity=0 time=16
note_on channel=0 note=77 velocity=80 time=8
note_on channel=0 note=73 velocity=80 time=0
note_on channel=0 note=67 velocity=80 time=0
note_on channel=0 note=67 velocity=0 time=32
note_on channel=0 note=73 velocity=0 time=0
note_on channel=0 note=77 velocity=0 time=0
note_on channel=0 note=73 velocity=80 time=16
note_on channel=0 note=73 velocity=0 time=16
note_on channel=0 note=76 velocity=80 time=8
note_on channel=0 note=73 velocity=80 time=0
note_on channel=0 note=67 velocity=80 time=0
note_on channel=0 note=67 velocity=0 time=32
note_on channel=0 note=73 velocity=0 time=0
note_on channel=0 note=76 velocity=0 time=0
note_on channel=0 note=66 velocity=80 time=16
note_on channel=0 note=66 velocity=0 time=16
note_on channel=0 note=69 velocity=80 time=8
note_on channel=0 note=69 velocity=0 time=16
note_on channel=0 note=72 velocity=80 time=8
note_on channel=0 note=72 velocity=0 time=16
note_on channel=0 note=76 velocity=80 time=8
note_on channel=0 note=71 velocity=80 time=0
note_on channel=0 note=65 velocity=80 time=0
note_on channel=0 note=65 velocity=0 time=32
note_on channel=0 note=71 velocity=0 time=0
note_on channel=0 note=76 velocity=0 time=0
note_on channel=0 note=71 velocity=80 time=16
note_on channel=0 note=71 velocity=0 time=16
note_on channel=0 note=74 velocity=80 time=8
note_on channel=0 note=71 velocity=80 time=0
note_on channel=0 note=65 velocity=80 time=0
note_on channel=0 note=65 velocity=0 time=32
note_on channel=0 note=71 velocity=0 time=0
note_on channel=0 note=74 velocity=0 time=0
note_on channel=0 note=72 velocity=80 time=16
note_on channel=0 note=67 velocity=80 time=0
note_on channel=0 note=64 velocity=80 time=0
note_on channel=0 note=64 velocity=0 time=96
note_on channel=0 note=67 velocity=0 time=0
note_on channel=0 note=72 velocity=0 time=0
note_on channel=0 note=69 velocity=80 time=48
note_on channel=0 note=69 velocity=0 time=16
note_on channel=0 note=66 velocity=80 time=8
note_on channel=0 note=66 velocity=0 time=16
note_on channel=0 note=67 velocity=80 time=8
note_on channel=0 note=67 velocity=0 time=16
note_on channel=0 note=69 velocity=80 time=8
note_on channel=0 note=69 velocity=0 time=16
note_on channel=0 note=71 velocity=80 time=8
note_on channel=0 note=71 velocity=0 time=16
note_on channel=0 note=72 velocity=80 time=8
note_on channel=0 note=72 velocity=0 time=16
note_on channel=0 note=74 velocity=80 time=8
note_on channel=0 note=74 velocity=0 time=16
note_on channel=0 note=76 velocity=80 time=8
note_on channel=0 note=76 velocity=0 time=16
note_on channel=0 note=77 velocity=80 time=8
note_on channel=0 note=77 velocity=0 time=32
note_on channel=0 note=69 velocity=80 time=16
note_on channel=0 note=77 velocity=80 time=0
note_on channel=0 note=77 velocity=0 time=32
note_on channel=0 note=69 velocity=0 time=0
note_on channel=0 note=71 velocity=80 time=16
note_on channel=0 note=77 velocity=80 time=0
note_on channel=0 note=77 velocity=0 time=16
note_on channel=0 note=71 velocity=0 time=0
note_on channel=0 note=77 velocity=80 time=8
note_on channel=0 note=69 velocity=80 time=0
note_on channel=0 note=69 velocity=0 time=88
note_on channel=0 note=77 velocity=0 time=0
note_on channel=0 note=67 velocity=80 time=32
note_on channel=0 note=67 velocity=0 time=16
note_on channel=0 note=69 velocity=80 time=8
note_on channel=0 note=69 velocity=0 time=16
note_on channel=0 note=71 velocity=80 time=8
note_on channel=0 note=71 velocity=0 time=16
note_on channel=0 note=72 velocity=80 time=8
note_on channel=0 note=72 velocity=0 time=16
note_on channel=0 note=74 velocity=80 time=8
note_on channel=0 note=74 velocity=0 time=16
note_on channel=0 note=75 velocity=80 time=8
note_on channel=0 note=75 velocity=0 time=16
note_on channel=0 note=76 velocity=80 time=8
note_on channel=0 note=76 velocity=0 time=32
note_on channel=0 note=67 velocity=80 time=16
note_on channel=0 note=76 velocity=80 time=0
note_on channel=0 note=76 velocity=0 time=32
note_on channel=0 note=67 velocity=0 time=0
note_on channel=0 note=69 velocity=80 time=16
note_on channel=0 note=76 velocity=80 time=0
note_on channel=0 note=76 velocity=0 time=16
note_on channel=0 note=69 velocity=0 time=0
note_on channel=0 note=76 velocity=80 time=8
note_on channel=0 note=67 velocity=80 time=0
note_on channel=0 note=67 velocity=0 time=88
note_on channel=0 note=76 velocity=0 time=0
note_on channel=0 note=71 velocity=80 time=32
note_on channel=0 note=77 velocity=80 time=0
note_on channel=0 note=83 velocity=80 time=0
note_on channel=0 note=83 velocity=0 time=32
note_on channel=0 note=77 velocity=0 time=0
note_on channel=0 note=71 velocity=0 time=0
note_on channel=0 note=70 velocity=80 time=16
note_on channel=0 note=82 velocity=80 time=0
note_on channel=0 note=82 velocity=0 time=16
note_on channel=0 note=70 velocity=0 time=0
note_on channel=0 note=71 velocity=80 time=8
note_on channel=0 note=77 velocity=80 time=0
note_on channel=0 note=83 velocity=80 time=0
note_on channel=0 note=83 velocity=0 time=32
note_on channel=0 note=77 velocity=0 time=0
note_on channel=0 note=71 velocity=0 time=0
note_on channel=0 note=70 velocity=80 time=16
note_on channel=0 note=82 velocity=80 time=0
note_on channel=0 note=82 velocity=0 time=16
note_on channel=0 note=70 velocity=0 time=0
note_on channel=0 note=71 velocity=80 time=8
note_on channel=0 note=77 velocity=80 time=0
note_on channel=0 note=83 velocity=80 time=0
note_on channel=0 note=83 velocity=0 time=32
note_on channel=0 note=77 velocity=0 time=0
note_on channel=0 note=71 velocity=0 time=0
note_on channel=0 note=81 velocity=80 time=16
note_on channel=0 note=81 velocity=0 time=16
note_on channel=0 note=77 velocity=80 time=8
note_on channel=0 note=77 velocity=0 time=16
note_on channel=0 note=74 velocity=80 time=8
note_on channel=0 note=74 velocity=0 time=16
note_on channel=0 note=71 velocity=80 time=8
note_on channel=0 note=71 velocity=0 time=16
note_on channel=0 note=69 velocity=80 time=8
note_on channel=0 note=69 velocity=0 time=64
note_on channel=0 note=69 velocity=80 time=32
note_on channel=0 note=76 velocity=80 time=0
note_on channel=0 note=81 velocity=80 time=0
note_on channel=0 note=81 velocity=0 time=32
note_on channel=0 note=76 velocity=0 time=0
note_on channel=0 note=69 velocity=0 time=0
note_on channel=0 note=68 velocity=80 time=16
note_on channel=0 note=80 velocity=80 time=0
note_on channel=0 note=80 velocity=0 time=16
note_on channel=0 note=68 velocity=0 time=0
note_on channel=0 note=69 velocity=80 time=8
note_on channel=0 note=76 velocity=80 time=0
note_on channel=0 note=81 velocity=80 time=0
note_on channel=0 note=81 velocity=0 time=32
note_on channel=0 note=76 velocity=0 time=0
note_on channel=0 note=69 velocity=0 time=0
note_on channel=0 note=68 velocity=80 time=16
note_on channel=0 note=80 velocity=80 time=0
note_on channel=0 note=80 velocity=0 time=16
note_on channel=0 note=68 velocity=0 time=0
note_on channel=0 note=81 velocity=80 time=8
note_on channel=0 note=76 velocity=80 time=0
note_on channel=0 note=69 velocity=80 time=0
note_on channel=0 note=69 velocity=0 time=32
note_on channel=0 note=76 velocity=0 time=0
note_on channel=0 note=81 velocity=0 time=0
note_on channel=0 note=79 velocity=80 time=16
note_on channel=0 note=79 velocity=0 time=16
note_on channel=0 note=76 velocity=80 time=8
note_on channel=0 note=76 velocity=0 time=16
note_on channel=0 note=72 velocity=80 time=8
note_on channel=0 note=72 velocity=0 time=16
note_on channel=0 note=69 velocity=80 time=8
note_on channel=0 note=69 velocity=0 time=16
note_on channel=0 note=67 velocity=80 time=8
note_on channel=0 note=67 velocity=0 time=16
note_on channel=0 note=72 velocity=80 time=8
note_on channel=0 note=72 velocity=0 time=16
note_on channel=0 note=71 velocity=80 time=8
note_on channel=0 note=71 velocity=0 time=16
note_on channel=0 note=69 velocity=80 time=8
note_on channel=0 note=69 velocity=0 time=16
note_on channel=0 note=67 velocity=80 time=8
note_on channel=0 note=67 velocity=0 time=16
note_on channel=0 note=69 velocity=80 time=8
note_on channel=0 note=69 velocity=0 time=16
note_on channel=0 note=71 velocity=80 time=8
note_on channel=0 note=71 velocity=0 time=16
note_on channel=0 note=72 velocity=80 time=8
note_on channel=0 note=72 velocity=0 time=16
note_on channel=0 note=74 velocity=80 time=8
note_on channel=0 note=74 velocity=0 time=16
note_on channel=0 note=76 velocity=80 time=8
note_on channel=0 note=76 velocity=0 time=16
note_on channel=0 note=77 velocity=80 time=8
note_on channel=0 note=77 velocity=0 time=32
note_on channel=0 note=69 velocity=80 time=16
note_on channel=0 note=77 velocity=80 time=0
note_on channel=0 note=77 velocity=0 time=32
note_on channel=0 note=69 velocity=0 time=0
note_on channel=0 note=71 velocity=80 time=16
note_on channel=0 note=77 velocity=80 time=0
note_on channel=0 note=77 velocity=0 time=16
note_on channel=0 note=71 velocity=0 time=0
note_on channel=0 note=77 velocity=80 time=8
note_on channel=0 note=69 velocity=80 time=0
note_on channel=0 note=69 velocity=0 time=88
note_on channel=0 note=77 velocity=0 time=0
note_on channel=0 note=67 velocity=80 time=32
note_on channel=0 note=67 velocity=0 time=16
note_on channel=0 note=69 velocity=80 time=8
note_on channel=0 note=69 velocity=0 time=16
note_on channel=0 note=71 velocity=80 time=8
note_on channel=0 note=71 velocity=0 time=16
note_on channel=0 note=72 velocity=80 time=8
note_on channel=0 note=72 velocity=0 time=16
note_on channel=0 note=74 velocity=80 time=8
note_on channel=0 note=74 velocity=0 time=16
note_on channel=0 note=75 velocity=80 time=8
note_on channel=0 note=75 velocity=0 time=16
note_on channel=0 note=76 velocity=80 time=8
note_on channel=0 note=76 velocity=0 time=32
note_on channel=0 note=67 velocity=80 time=16
note_on channel=0 note=76 velocity=80 time=0
note_on channel=0 note=76 velocity=0 time=32
note_on channel=0 note=67 velocity=0 time=0
note_on channel=0 note=69 velocity=80 time=16
note_on channel=0 note=76 velocity=80 time=0
note_on channel=0 note=76 velocity=0 time=16
note_on channel=0 note=69 velocity=0 time=0
note_on channel=0 note=67 velocity=80 time=8
note_on channel=0 note=76 velocity=80 time=0
note_on channel=0 note=76 velocity=0 time=32
note_on channel=0 note=67 velocity=0 time=0
note_on channel=0 note=72 velocity=80 time=16
note_on channel=0 note=72 velocity=0 time=16
note_on channel=0 note=71 velocity=80 time=8
note_on channel=0 note=71 velocity=0 time=16
note_on channel=0 note=70 velocity=80 time=8
note_on channel=0 note=70 velocity=0 time=16
note_on channel=0 note=69 velocity=80 time=8
note_on channel=0 note=69 velocity=0 time=16
note_on channel=0 note=68 velocity=80 time=8
note_on channel=0 note=68 velocity=0 time=16
note_on channel=0 note=69 velocity=80 time=8
note_on channel=0 note=69 velocity=0 time=16
note_on channel=0 note=72 velocity=80 time=8
note_on channel=0 note=72 velocity=0 time=16
note_on channel=0 note=76 velocity=80 time=8
note_on channel=0 note=65 velocity=80 time=0
note_on channel=0 note=76 velocity=0 time=16
note_on channel=0 note=74 velocity=80 time=8
note_on channel=0 note=65 velocity=0 time=8
note_on channel=0 note=74 velocity=0 time=8
note_on channel=0 note=72 velocity=80 time=8
note_on channel=0 note=66 velocity=80 time=0
note_on channel=0 note=72 velocity=0 time=16
note_on channel=0 note=69 velocity=80 time=8
note_on channel=0 note=66 velocity=0 time=8
note_on channel=0 note=69 velocity=0 time=8
note_on channel=0 note=67 velocity=80 time=8
note_on channel=0 note=67 velocity=0 time=16
note_on channel=0 note=72 velocity=80 time=8
note_on channel=0 note=72 velocity=0 time=16
note_on channel=0 note=76 velocity=80 time=8
note_on channel=0 note=76 velocity=0 time=16
note_on channel=0 note=77 velocity=80 time=8
note_on channel=0 note=73 velocity=80 time=0
note_on channel=0 note=67 velocity=80 time=0
note_on channel=0 note=67 velocity=0 time=32
note_on channel=0 note=73 velocity=0 time=0
note_on channel=0 note=77 velocity=0 time=0
note_on channel=0 note=73 velocity=80 time=16
note_on channel=0 note=73 velocity=0 time=16
note_on channel=0 note=76 velocity=80 time=8
note_on channel=0 note=73 velocity=80 time=0
note_on channel=0 note=67 velocity=80 time=0
note_on channel=0 note=67 velocity=0 time=32
note_on channel=0 note=73 velocity=0 time=0
note_on channel=0 note=76 velocity=0 time=0
note_on channel=0 note=66 velocity=80 time=16
note_on channel=0 note=66 velocity=0 time=16
note_on channel=0 note=69 velocity=80 time=8
note_on channel=0 note=69 velocity=0 time=16
note_on channel=0 note=72 velocity=80 time=8
note_on channel=0 note=72 velocity=0 time=16
note_on channel=0 note=76 velocity=80 time=8
note_on channel=0 note=71 velocity=80 time=0
note_on channel=0 note=65 velocity=80 time=0
note_on channel=0 note=65 velocity=0 time=32
note_on channel=0 note=71 velocity=0 time=0
note_on channel=0 note=76 velocity=0 time=0
note_on channel=0 note=71 velocity=80 time=16
note_on channel=0 note=71 velocity=0 time=16
note_on channel=0 note=74 velocity=80 time=8
note_on channel=0 note=71 velocity=80 time=0
note_on channel=0 note=65 velocity=80 time=0
note_on channel=0 note=65 velocity=0 time=32
note_on channel=0 note=71 velocity=0 time=0
note_on channel=0 note=74 velocity=0 time=0
note_on channel=0 note=72 velocity=80 time=16
note_on channel=0 note=67 velocity=80 time=0
note_on channel=0 note=64 velocity=80 time=0
note_on channel=0 note=64 velocity=0 time=96
note_on channel=0 note=67 velocity=0 time=0
note_on channel=0 note=72 velocity=0 time=0
note_on channel=0 note=69 velocity=80 time=48
note_on channel=0 note=69 velocity=0 time=16
note_on channel=0 note=66 velocity=80 time=8
note_on channel=0 note=66 velocity=0 time=16
note_on channel=0 note=67 velocity=80 time=8
note_on channel=0 note=67 velocity=0 time=16
note_on channel=0 note=69 velocity=80 time=8
note_on channel=0 note=69 velocity=0 time=16
note_on channel=0 note=71 velocity=80 time=8
note_on channel=0 note=71 velocity=0 time=16
note_on channel=0 note=72 velocity=80 time=8
note_on channel=0 note=72 velocity=0 time=16
note_on channel=0 note=74 velocity=80 time=8
note_on channel=0 note=74 velocity=0 time=16
note_on channel=0 note=76 velocity=80 time=8
note_on channel=0 note=76 velocity=0 time=16
note_on channel=0 note=77 velocity=80 time=8
note_on channel=0 note=77 velocity=0 time=32
note_on channel=0 note=69 velocity=80 time=16
note_on channel=0 note=77 velocity=80 time=0
note_on channel=0 note=77 velocity=0 time=32
note_on channel=0 note=69 velocity=0 time=0
note_on channel=0 note=71 velocity=80 time=16
note_on channel=0 note=77 velocity=80 time=0
note_on channel=0 note=77 velocity=0 time=16
note_on channel=0 note=71 velocity=0 time=0
note_on channel=0 note=77 velocity=80 time=8
note_on channel=0 note=69 velocity=80 time=0
note_on channel=0 note=69 velocity=0 time=88
note_on channel=0 note=77 velocity=0 time=0
note_on channel=0 note=67 velocity=80 time=32
note_on channel=0 note=67 velocity=0 time=16
note_on channel=0 note=69 velocity=80 time=8
note_on channel=0 note=69 velocity=0 time=16
note_on channel=0 note=71 velocity=80 time=8
note_on channel=0 note=71 velocity=0 time=16
note_on channel=0 note=72 velocity=80 time=8
note_on channel=0 note=72 velocity=0 time=16
note_on channel=0 note=74 velocity=80 time=8
note_on channel=0 note=74 velocity=0 time=16
note_on channel=0 note=75 velocity=80 time=8
note_on channel=0 note=75 velocity=0 time=16
note_on channel=0 note=76 velocity=80 time=8
note_on channel=0 note=76 velocity=0 time=32
note_on channel=0 note=67 velocity=80 time=16
note_on channel=0 note=76 velocity=80 time=0
note_on channel=0 note=76 velocity=0 time=32
note_on channel=0 note=67 velocity=0 time=0
note_on channel=0 note=69 velocity=80 time=16
note_on channel=0 note=76 velocity=80 time=0
note_on channel=0 note=76 velocity=0 time=16
note_on channel=0 note=69 velocity=0 time=0
note_on channel=0 note=76 velocity=80 time=8
note_on channel=0 note=67 velocity=80 time=0
note_on channel=0 note=67 velocity=0 time=88
note_on channel=0 note=76 velocity=0 time=0
note_on channel=0 note=71 velocity=80 time=32
note_on channel=0 note=77 velocity=80 time=0
note_on channel=0 note=83 velocity=80 time=0
note_on channel=0 note=83 velocity=0 time=32
note_on channel=0 note=77 velocity=0 time=0
note_on channel=0 note=71 velocity=0 time=0
note_on channel=0 note=70 velocity=80 time=16
note_on channel=0 note=82 velocity=80 time=0
note_on channel=0 note=82 velocity=0 time=16
note_on channel=0 note=70 velocity=0 time=0
note_on channel=0 note=71 velocity=80 time=8
note_on channel=0 note=77 velocity=80 time=0
note_on channel=0 note=83 velocity=80 time=0
note_on channel=0 note=83 velocity=0 time=32
note_on channel=0 note=77 velocity=0 time=0
note_on channel=0 note=71 velocity=0 time=0
note_on channel=0 note=70 velocity=80 time=16
note_on channel=0 note=82 velocity=80 time=0
note_on channel=0 note=82 velocity=0 time=16
note_on channel=0 note=70 velocity=0 time=0
note_on channel=0 note=71 velocity=80 time=8
note_on channel=0 note=77 velocity=80 time=0
note_on channel=0 note=83 velocity=80 time=0
note_on channel=0 note=83 velocity=0 time=32
note_on channel=0 note=77 velocity=0 time=0
note_on channel=0 note=71 velocity=0 time=0
note_on channel=0 note=81 velocity=80 time=16
note_on channel=0 note=81 velocity=0 time=16
note_on channel=0 note=77 velocity=80 time=8
note_on channel=0 note=77 velocity=0 time=16
note_on channel=0 note=74 velocity=80 time=8
note_on channel=0 note=74 velocity=0 time=16
note_on channel=0 note=71 velocity=80 time=8
note_on channel=0 note=71 velocity=0 time=16
note_on channel=0 note=69 velocity=80 time=8
note_on channel=0 note=69 velocity=0 time=64
note_on channel=0 note=69 velocity=80 time=32
note_on channel=0 note=76 velocity=80 time=0
note_on channel=0 note=81 velocity=80 time=0
note_on channel=0 note=81 velocity=0 time=32
note_on channel=0 note=76 velocity=0 time=0
note_on channel=0 note=69 velocity=0 time=0
note_on channel=0 note=68 velocity=80 time=16
note_on channel=0 note=80 velocity=80 time=0
note_on channel=0 note=80 velocity=0 time=16
note_on channel=0 note=68 velocity=0 time=0
note_on channel=0 note=69 velocity=80 time=8
note_on channel=0 note=76 velocity=80 time=0
note_on channel=0 note=81 velocity=80 time=0
note_on channel=0 note=81 velocity=0 time=32
note_on channel=0 note=76 velocity=0 time=0
note_on channel=0 note=69 velocity=0 time=0
note_on channel=0 note=68 velocity=80 time=16
note_on channel=0 note=80 velocity=80 time=0
note_on channel=0 note=80 velocity=0 time=16
note_on channel=0 note=68 velocity=0 time=0
note_on channel=0 note=81 velocity=80 time=8
note_on channel=0 note=76 velocity=80 time=0
note_on channel=0 note=69 velocity=80 time=0
note_on channel=0 note=69 velocity=0 time=32
note_on channel=0 note=76 velocity=0 time=0
note_on channel=0 note=81 velocity=0 time=0
note_on channel=0 note=79 velocity=80 time=16
note_on channel=0 note=79 velocity=0 time=16
note_on channel=0 note=76 velocity=80 time=8
note_on channel=0 note=76 velocity=0 time=16
note_on channel=0 note=72 velocity=80 time=8
note_on channel=0 note=72 velocity=0 time=16
note_on channel=0 note=69 velocity=80 time=8
note_on channel=0 note=69 velocity=0 time=16
note_on channel=0 note=67 velocity=80 time=8
note_on channel=0 note=67 velocity=0 time=16
note_on channel=0 note=72 velocity=80 time=8
note_on channel=0 note=72 velocity=0 time=16
note_on channel=0 note=71 velocity=80 time=8
note_on channel=0 note=71 velocity=0 time=16
note_on channel=0 note=69 velocity=80 time=8
note_on channel=0 note=69 velocity=0 time=16
note_on channel=0 note=67 velocity=80 time=8
note_on channel=0 note=67 velocity=0 time=16
note_on channel=0 note=69 velocity=80 time=8
note_on channel=0 note=69 velocity=0 time=16
note_on channel=0 note=71 velocity=80 time=8
note_on channel=0 note=71 velocity=0 time=16
note_on channel=0 note=72 velocity=80 time=8
note_on channel=0 note=72 velocity=0 time=16
note_on channel=0 note=74 velocity=80 time=8
note_on channel=0 note=74 velocity=0 time=16
note_on channel=0 note=76 velocity=80 time=8
note_on channel=0 note=76 velocity=0 time=16
note_on channel=0 note=77 velocity=80 time=8
note_on channel=0 note=77 velocity=0 time=32
note_on channel=0 note=69 velocity=80 time=16
note_on channel=0 note=77 velocity=80 time=0
note_on channel=0 note=77 velocity=0 time=32
note_on channel=0 note=69 velocity=0 time=0
note_on channel=0 note=71 velocity=80 time=16
note_on channel=0 note=77 velocity=80 time=0
note_on channel=0 note=77 velocity=0 time=16
note_on channel=0 note=71 velocity=0 time=0
note_on channel=0 note=77 velocity=80 time=8
note_on channel=0 note=69 velocity=80 time=0
note_on channel=0 note=69 velocity=0 time=88
note_on channel=0 note=77 velocity=0 time=0
note_on channel=0 note=67 velocity=80 time=32
note_on channel=0 note=67 velocity=0 time=16
note_on channel=0 note=69 velocity=80 time=8
note_on channel=0 note=69 velocity=0 time=16
note_on channel=0 note=71 velocity=80 time=8
note_on channel=0 note=71 velocity=0 time=16
note_on channel=0 note=72 velocity=80 time=8
note_on channel=0 note=72 velocity=0 time=16
note_on channel=0 note=74 velocity=80 time=8
note_on channel=0 note=74 velocity=0 time=16
note_on channel=0 note=75 velocity=80 time=8
note_on channel=0 note=75 velocity=0 time=16
note_on channel=0 note=76 velocity=80 time=8
note_on channel=0 note=76 velocity=0 time=32
note_on channel=0 note=67 velocity=80 time=16
note_on channel=0 note=76 velocity=80 time=0
note_on channel=0 note=76 velocity=0 time=32
note_on channel=0 note=67 velocity=0 time=0
note_on channel=0 note=69 velocity=80 time=16
note_on channel=0 note=76 velocity=80 time=0
note_on channel=0 note=76 velocity=0 time=16
note_on channel=0 note=69 velocity=0 time=0
note_on channel=0 note=67 velocity=80 time=8
note_on channel=0 note=76 velocity=80 time=0
note_on channel=0 note=76 velocity=0 time=32
note_on channel=0 note=67 velocity=0 time=0
note_on channel=0 note=72 velocity=80 time=16
note_on channel=0 note=72 velocity=0 time=16
note_on channel=0 note=71 velocity=80 time=8
note_on channel=0 note=71 velocity=0 time=16
note_on channel=0 note=70 velocity=80 time=8
note_on channel=0 note=70 velocity=0 time=16
note_on channel=0 note=69 velocity=80 time=8
note_on channel=0 note=69 velocity=0 time=16
note_on channel=0 note=68 velocity=80 time=8
note_on channel=0 note=68 velocity=0 time=16
note_on channel=0 note=69 velocity=80 time=8
note_on channel=0 note=69 velocity=0 time=16
note_on channel=0 note=72 velocity=80 time=8
note_on channel=0 note=72 velocity=0 time=16
note_on channel=0 note=76 velocity=80 time=8
note_on channel=0 note=65 velocity=80 time=0
note_on channel=0 note=76 velocity=0 time=16
note_on channel=0 note=74 velocity=80 time=8
note_on channel=0 note=65 velocity=0 time=8
note_on channel=0 note=74 velocity=0 time=8
note_on channel=0 note=72 velocity=80 time=8
note_on channel=0 note=66 velocity=80 time=0
note_on channel=0 note=72 velocity=0 time=16
note_on channel=0 note=69 velocity=80 time=8
note_on channel=0 note=66 velocity=0 time=8
note_on channel=0 note=69 velocity=0 time=8
note_on channel=0 note=67 velocity=80 time=8
note_on channel=0 note=67 velocity=0 time=16
note_on channel=0 note=72 velocity=80 time=8
note_on channel=0 note=72 velocity=0 time=16
note_on channel=0 note=76 velocity=80 time=8
note_on channel=0 note=76 velocity=0 time=16
note_on channel=0 note=77 velocity=80 time=8
note_on channel=0 note=73 velocity=80 time=0
note_on channel=0 note=67 velocity=80 time=0
note_on channel=0 note=67 velocity=0 time=32
note_on channel=0 note=73 velocity=0 time=0
note_on channel=0 note=77 velocity=0 time=0
note_on channel=0 note=73 velocity=80 time=16
note_on channel=0 note=73 velocity=0 time=16
note_on channel=0 note=76 velocity=80 time=8
note_on channel=0 note=73 velocity=80 time=0
note_on channel=0 note=67 velocity=80 time=0
note_on channel=0 note=67 velocity=0 time=32
note_on channel=0 note=73 velocity=0 time=0
note_on channel=0 note=76 velocity=0 time=0
note_on channel=0 note=66 velocity=80 time=16
note_on channel=0 note=66 velocity=0 time=16
note_on channel=0 note=69 velocity=80 time=8
note_on channel=0 note=69 velocity=0 time=16
note_on channel=0 note=72 velocity=80 time=8
note_on channel=0 note=72 velocity=0 time=16
note_on channel=0 note=76 velocity=80 time=8
note_on channel=0 note=71 velocity=80 time=0
note_on channel=0 note=65 velocity=80 time=0
note_on channel=0 note=65 velocity=0 time=32
note_on channel=0 note=71 velocity=0 time=0
note_on channel=0 note=76 velocity=0 time=0
note_on channel=0 note=71 velocity=80 time=16
note_on channel=0 note=71 velocity=0 time=16
note_on channel=0 note=74 velocity=80 time=8
note_on channel=0 note=71 velocity=80 time=0
note_on channel=0 note=65 velocity=80 time=0
note_on channel=0 note=65 velocity=0 time=32
note_on channel=0 note=71 velocity=0 time=0
note_on channel=0 note=74 velocity=0 time=0
note_on channel=0 note=64 velocity=80 time=16
note_on channel=0 note=67 velocity=80 time=0
note_on channel=0 note=72 velocity=80 time=0
note_on channel=0 note=72 velocity=0 time=64
note_on channel=0 note=67 velocity=0 time=0
note_on channel=0 note=64 velocity=0 time=0
note_on channel=0 note=72 velocity=80 time=32
note_on channel=0 note=76 velocity=80 time=0
note_on channel=0 note=79 velocity=80 time=0
note_on channel=0 note=84 velocity=80 time=0
note_on channel=0 note=84 velocity=0 time=32
note_on channel=0 note=72 velocity=0 time=0
note_on channel=0 note=76 velocity=0 time=0
note_on channel=0 note=79 velocity=0 time=0
note_on channel=0 note=72 velocity=80 time=64
note_on channel=0 note=72 velocity=0 time=16
note_on channel=0 note=69 velocity=80 time=8
note_on channel=0 note=69 velocity=0 time=16
note_on channel=0 note=65 velocity=80 time=8
note_on channel=0 note=65 velocity=0 time=16
note_on channel=0 note=67 velocity=80 time=8
note_on channel=0 note=67 velocity=0 time=16
note_on channel=0 note=69 velocity=80 time=8
note_on channel=0 note=69 velocity=0 time=16
note_on channel=0 note=77 velocity=80 time=8
note_on channel=0 note=74 velocity=80 time=0
note_on channel=0 note=74 velocity=0 time=32
note_on channel=0 note=77 velocity=0 time=0
note_on channel=0 note=76 velocity=80 time=16
note_on channel=0 note=72 velocity=80 time=0
note_on channel=0 note=72 velocity=0 time=16
note_on channel=0 note=76 velocity=0 time=0
note_on channel=0 note=74 velocity=80 time=8
note_on channel=0 note=70 velocity=80 time=0
note_on channel=0 note=70 velocity=0 time=32
note_on channel=0 note=74 velocity=0 time=0
note_on channel=0 note=72 velocity=80 time=16
note_on channel=0 note=69 velocity=80 time=0
note_on channel=0 note=69 velocity=0 time=16
note_on channel=0 note=72 velocity=0 time=0
note_on channel=0 note=70 velocity=80 time=8
note_on channel=0 note=67 velocity=80 time=0
note_on channel=0 note=67 velocity=0 time=64
note_on channel=0 note=70 velocity=0 time=0
note_on channel=0 note=70 velocity=80 time=32
note_on channel=0 note=70 velocity=0 time=32
note_on channel=0 note=67 velocity=80 time=16
note_on channel=0 note=67 velocity=0 time=16
note_on channel=0 note=64 velocity=80 time=8
note_on channel=0 note=64 velocity=0 time=16
note_on channel=0 note=65 velocity=80 time=8
note_on channel=0 note=65 velocity=0 time=16
note_on channel=0 note=67 velocity=80 time=8
note_on channel=0 note=67 velocity=0 time=16
note_on channel=0 note=76 velocity=80 time=8
note_on channel=0 note=72 velocity=80 time=0
note_on channel=0 note=72 velocity=0 time=32
note_on channel=0 note=76 velocity=0 time=0
note_on channel=0 note=74 velocity=80 time=16
note_on channel=0 note=70 velocity=80 time=0
note_on channel=0 note=70 velocity=0 time=16
note_on channel=0 note=74 velocity=0 time=0
note_on channel=0 note=72 velocity=80 time=8
note_on channel=0 note=69 velocity=80 time=0
note_on channel=0 note=69 velocity=0 time=32
note_on channel=0 note=72 velocity=0 time=0
note_on channel=0 note=70 velocity=80 time=16
note_on channel=0 note=67 velocity=80 time=0
note_on channel=0 note=67 velocity=0 time=16
note_on channel=0 note=70 velocity=0 time=0
note_on channel=0 note=69 velocity=80 time=8
note_on channel=0 note=65 velocity=80 time=0
note_on channel=0 note=65 velocity=0 time=64
note_on channel=0 note=69 velocity=0 time=0
note_on channel=0 note=72 velocity=80 time=32
note_on channel=0 note=72 velocity=0 time=32
note_on channel=0 note=69 velocity=80 time=16
note_on channel=0 note=69 velocity=0 time=16
note_on channel=0 note=65 velocity=80 time=8
note_on channel=0 note=65 velocity=0 time=16
note_on channel=0 note=67 velocity=80 time=8
note_on channel=0 note=67 velocity=0 time=16
note_on channel=0 note=69 velocity=80 time=8
note_on channel=0 note=69 velocity=0 time=16
note_on channel=0 note=72 velocity=80 time=8
note_on channel=0 note=72 velocity=0 time=32
note_on channel=0 note=75 velocity=80 time=16
note_on channel=0 note=75 velocity=0 time=16
note_on channel=0 note=76 velocity=80 time=8
note_on channel=0 note=67 velocity=80 time=0
note_on channel=0 note=75 velocity=80 time=48
note_on channel=0 note=66 velocity=80 time=0
note_on channel=0 note=66 velocity=0 time=16
note_on channel=0 note=75 velocity=0 time=0
note_on channel=0 note=76 velocity=80 time=8
note_on channel=0 note=67 velocity=80 time=0
note_on channel=0 note=67 velocity=0 time=64
note_on channel=0 note=76 velocity=0 time=0
note_on channel=0 note=76 velocity=0 time=24
note_on channel=0 note=67 velocity=0 time=0
note_on channel=0 note=77 velocity=80 time=32
note_on channel=0 note=77 velocity=0 time=16
note_on channel=0 note=74 velocity=80 time=8
note_on channel=0 note=74 velocity=0 time=16
note_on channel=0 note=71 velocity=80 time=8
note_on channel=0 note=71 velocity=0 time=16
note_on channel=0 note=67 velocity=80 time=8
note_on channel=0 note=67 velocity=0 time=32
note_on channel=0 note=77 velocity=80 time=16
note_on channel=0 note=77 velocity=0 time=16
note_on channel=0 note=74 velocity=80 time=8
note_on channel=0 note=74 velocity=0 time=16
note_on channel=0 note=79 velocity=80 time=8
note_on channel=0 note=79 velocity=0 time=16
note_on channel=0 note=72 velocity=80 time=8
note_on channel=0 note=72 velocity=0 time=64
note_on channel=0 note=72 velocity=80 time=32
note_on channel=0 note=76 velocity=80 time=0
note_on channel=0 note=84 velocity=80 time=0
note_on channel=0 note=84 velocity=0 time=32
note_on channel=0 note=76 velocity=0 time=0
note_on channel=0 note=72 velocity=0 time=0
note_on channel=0 note=72 velocity=80 time=64
note_on channel=0 note=72 velocity=0 time=16
note_on channel=0 note=69 velocity=80 time=8
note_on channel=0 note=69 velocity=0 time=16
note_on channel=0 note=65 velocity=80 time=8
note_on channel=0 note=65 velocity=0 time=16
note_on channel=0 note=67 velocity=80 time=8
note_on channel=0 note=67 velocity=0 time=16
note_on channel=0 note=69 velocity=80 time=8
note_on channel=0 note=69 velocity=0 time=16
note_on channel=0 note=77 velocity=80 time=8
note_on channel=0 note=74 velocity=80 time=0
note_on channel=0 note=74 velocity=0 time=32
note_on channel=0 note=77 velocity=0 time=0
note_on channel=0 note=76 velocity=80 time=16
note_on channel=0 note=72 velocity=80 time=0
note_on channel=0 note=72 velocity=0 time=16
note_on channel=0 note=76 velocity=0 time=0
note_on channel=0 note=74 velocity=80 time=8
note_on channel=0 note=70 velocity=80 time=0
note_on channel=0 note=70 velocity=0 time=32
note_on channel=0 note=74 velocity=0 time=0
note_on channel=0 note=72 velocity=80 time=16
note_on channel=0 note=69 velocity=80 time=0
note_on channel=0 note=69 velocity=0 time=16
note_on channel=0 note=72 velocity=0 time=0
note_on channel=0 note=70 velocity=80 time=8
note_on channel=0 note=67 velocity=80 time=0
note_on channel=0 note=67 velocity=0 time=64
note_on channel=0 note=70 velocity=0 time=0
note_on channel=0 note=70 velocity=80 time=32
note_on channel=0 note=70 velocity=0 time=32
note_on channel=0 note=67 velocity=80 time=16
note_on channel=0 note=67 velocity=0 time=16
note_on channel=0 note=64 velocity=80 time=8
note_on channel=0 note=64 velocity=0 time=16
note_on channel=0 note=65 velocity=80 time=8
note_on channel=0 note=65 velocity=0 time=16
note_on channel=0 note=67 velocity=80 time=8
note_on channel=0 note=67 velocity=0 time=16
note_on channel=0 note=76 velocity=80 time=8
note_on channel=0 note=72 velocity=80 time=0
note_on channel=0 note=72 velocity=0 time=32
note_on channel=0 note=76 velocity=0 time=0
note_on channel=0 note=74 velocity=80 time=16
note_on channel=0 note=70 velocity=80 time=0
note_on channel=0 note=70 velocity=0 time=16
note_on channel=0 note=74 velocity=0 time=0
note_on channel=0 note=72 velocity=80 time=8
note_on channel=0 note=69 velocity=80 time=0
note_on channel=0 note=69 velocity=0 time=32
note_on channel=0 note=72 velocity=0 time=0
note_on channel=0 note=70 velocity=80 time=16
note_on channel=0 note=67 velocity=80 time=0
note_on channel=0 note=67 velocity=0 time=16
note_on channel=0 note=70 velocity=0 time=0
note_on channel=0 note=65 velocity=80 time=8
note_on channel=0 note=69 velocity=80 time=0
note_on channel=0 note=69 velocity=0 time=88
note_on channel=0 note=65 velocity=0 time=0
note_on channel=0 note=66 velocity=80 time=32
note_on channel=0 note=66 velocity=0 time=16
note_on channel=0 note=69 velocity=80 time=8
note_on channel=0 note=69 velocity=0 time=16
note_on channel=0 note=72 velocity=80 time=8
note_on channel=0 note=72 velocity=0 time=16
note_on channel=0 note=75 velocity=80 time=8
note_on channel=0 note=66 velocity=80 time=0
note_on channel=0 note=66 velocity=0 time=32
note_on channel=0 note=75 velocity=0 time=0
note_on channel=0 note=74 velocity=80 time=16
note_on channel=0 note=74 velocity=0 time=16
note_on channel=0 note=66 velocity=80 time=8
note_on channel=0 note=72 velocity=80 time=0
note_on channel=0 note=72 velocity=0 time=32
note_on channel=0 note=66 velocity=0 time=0
note_on channel=0 note=70 velocity=80 time=16
note_on channel=0 note=67 velocity=80 time=0
note_on channel=0 note=67 velocity=0 time=16
note_on channel=0 note=70 velocity=0 time=0
note_on channel=0 note=69 velocity=80 time=8
note_on channel=0 note=69 velocity=0 time=16
note_on channel=0 note=70 velocity=80 time=8
note_on channel=0 note=70 velocity=0 time=16
note_on channel=0 note=67 velocity=80 time=8
note_on channel=0 note=70 velocity=80 time=0
note_on channel=0 note=79 velocity=80 time=0
note_on channel=0 note=79 velocity=0 time=32
note_on channel=0 note=70 velocity=0 time=0
note_on channel=0 note=67 velocity=0 time=0
note_on channel=0 note=74 velocity=80 time=16
note_on channel=0 note=74 velocity=0 time=16
note_on channel=0 note=70 velocity=80 time=8
note_on channel=0 note=67 velocity=80 time=0
note_on channel=0 note=67 velocity=0 time=32
note_on channel=0 note=70 velocity=0 time=0
note_on channel=0 note=74 velocity=80 time=16
note_on channel=0 note=69 velocity=80 time=0
note_on channel=0 note=65 velocity=80 time=0
note_on channel=0 note=65 velocity=0 time=16
note_on channel=0 note=69 velocity=0 time=0
note_on channel=0 note=74 velocity=0 time=0
note_on channel=0 note=72 velocity=80 time=8
note_on channel=0 note=69 velocity=80 time=0
note_on channel=0 note=65 velocity=80 time=0
note_on channel=0 note=65 velocity=0 time=32
note_on channel=0 note=69 velocity=0 time=0
note_on channel=0 note=72 velocity=0 time=0
note_on channel=0 note=65 velocity=80 time=16
note_on channel=0 note=69 velocity=80 time=0
note_on channel=0 note=69 velocity=0 time=16
note_on channel=0 note=65 velocity=0 time=0
note_on channel=0 note=64 velocity=80 time=8
note_on channel=0 note=72 velocity=80 time=0
note_on channel=0 note=72 velocity=0 time=16
note_on channel=0 note=64 velocity=0 time=0
note_on channel=0 note=70 velocity=80 time=8
note_on channel=0 note=70 velocity=0 time=16
note_on channel=0 note=64 velocity=80 time=8
note_on channel=0 note=67 velocity=80 time=0
note_on channel=0 note=67 velocity=0 time=32
note_on channel=0 note=64 velocity=0 time=0
note_on channel=0 note=65 velocity=80 time=16
note_on channel=0 note=65 velocity=0 time=32
note_on channel=0 note=65 velocity=80 time=16
note_on channel=0 note=65 velocity=0 time=16
note_on channel=0 note=64 velocity=80 time=8
note_on channel=0 note=64 velocity=0 time=16
note_on channel=0 note=65 velocity=80 time=8
note_on channel=0 note=65 velocity=0 time=16
note_on channel=0 note=67 velocity=80 time=8
note_on channel=0 note=67 velocity=0 time=16
note_on channel=0 note=69 velocity=80 time=8
note_on channel=0 note=69 velocity=0 time=16
note_on channel=0 note=70 velocity=80 time=8
note_on channel=0 note=70 velocity=0 time=16
note_on channel=0 note=72 velocity=80 time=8
note_on channel=0 note=72 velocity=0 time=16
note_on channel=0 note=69 velocity=80 time=8
note_on channel=0 note=69 velocity=0 time=16
note_on channel=0 note=65 velocity=80 time=8
note_on channel=0 note=65 velocity=0 time=16
note_on channel=0 note=67 velocity=80 time=8
note_on channel=0 note=67 velocity=0 time=16
note_on channel=0 note=69 velocity=80 time=8
note_on channel=0 note=69 velocity=0 time=16
note_on channel=0 note=77 velocity=80 time=8
note_on channel=0 note=74 velocity=80 time=0
note_on channel=0 note=74 velocity=0 time=32
note_on channel=0 note=77 velocity=0 time=0
note_on channel=0 note=76 velocity=80 time=16
note_on channel=0 note=72 velocity=80 time=0
note_on channel=0 note=72 velocity=0 time=16
note_on channel=0 note=76 velocity=0 time=0
note_on channel=0 note=74 velocity=80 time=8
note_on channel=0 note=70 velocity=80 time=0
note_on channel=0 note=70 velocity=0 time=32
note_on channel=0 note=74 velocity=0 time=0
note_on channel=0 note=72 velocity=80 time=16
note_on channel=0 note=69 velocity=80 time=0
note_on channel=0 note=69 velocity=0 time=16
note_on channel=0 note=72 velocity=0 time=0
note_on channel=0 note=70 velocity=80 time=8
note_on channel=0 note=67 velocity=80 time=0
note_on channel=0 note=67 velocity=0 time=64
note_on channel=0 note=70 velocity=0 time=0
note_on channel=0 note=70 velocity=80 time=32
note_on channel=0 note=70 velocity=0 time=32
note_on channel=0 note=67 velocity=80 time=16
note_on channel=0 note=67 velocity=0 time=16
note_on channel=0 note=64 velocity=80 time=8
note_on channel=0 note=64 velocity=0 time=16
note_on channel=0 note=65 velocity=80 time=8
note_on channel=0 note=65 velocity=0 time=16
note_on channel=0 note=67 velocity=80 time=8
note_on channel=0 note=67 velocity=0 time=16
note_on channel=0 note=76 velocity=80 time=8
note_on channel=0 note=72 velocity=80 time=0
note_on channel=0 note=72 velocity=0 time=32
note_on channel=0 note=76 velocity=0 time=0
note_on channel=0 note=74 velocity=80 time=16
note_on channel=0 note=70 velocity=80 time=0
note_on channel=0 note=70 velocity=0 time=16
note_on channel=0 note=74 velocity=0 time=0
note_on channel=0 note=72 velocity=80 time=8
note_on channel=0 note=69 velocity=80 time=0
note_on channel=0 note=69 velocity=0 time=32
note_on channel=0 note=72 velocity=0 time=0
note_on channel=0 note=70 velocity=80 time=16
note_on channel=0 note=67 velocity=80 time=0
note_on channel=0 note=67 velocity=0 time=16
note_on channel=0 note=70 velocity=0 time=0
note_on channel=0 note=69 velocity=80 time=8
note_on channel=0 note=65 velocity=80 time=0
note_on channel=0 note=65 velocity=0 time=64
note_on channel=0 note=69 velocity=0 time=0
note_on channel=0 note=72 velocity=80 time=32
note_on channel=0 note=72 velocity=0 time=32
note_on channel=0 note=69 velocity=80 time=16
note_on channel=0 note=69 velocity=0 time=16
note_on channel=0 note=65 velocity=80 time=8
note_on channel=0 note=65 velocity=0 time=16
note_on channel=0 note=67 velocity=80 time=8
note_on channel=0 note=67 velocity=0 time=16
note_on channel=0 note=69 velocity=80 time=8
note_on channel=0 note=69 velocity=0 time=16
note_on channel=0 note=72 velocity=80 time=8
note_on channel=0 note=72 velocity=0 time=32
note_on channel=0 note=75 velocity=80 time=16
note_on channel=0 note=75 velocity=0 time=16
note_on channel=0 note=76 velocity=80 time=8
note_on channel=0 note=67 velocity=80 time=0
note_on channel=0 note=75 velocity=80 time=48
note_on channel=0 note=66 velocity=80 time=0
note_on channel=0 note=66 velocity=0 time=16
note_on channel=0 note=75 velocity=0 time=0
note_on channel=0 note=76 velocity=80 time=8
note_on channel=0 note=67 velocity=80 time=0
note_on channel=0 note=67 velocity=0 time=64
note_on channel=0 note=76 velocity=0 time=0
note_on channel=0 note=76 velocity=0 time=24
note_on channel=0 note=67 velocity=0 time=0
note_on channel=0 note=77 velocity=80 time=32
note_on channel=0 note=77 velocity=0 time=16
note_on channel=0 note=74 velocity=80 time=8
note_on channel=0 note=74 velocity=0 time=16
note_on channel=0 note=71 velocity=80 time=8
note_on channel=0 note=71 velocity=0 time=16
note_on channel=0 note=67 velocity=80 time=8
note_on channel=0 note=67 velocity=0 time=32
note_on channel=0 note=77 velocity=80 time=16
note_on channel=0 note=77 velocity=0 time=16
note_on channel=0 note=74 velocity=80 time=8
note_on channel=0 note=74 velocity=0 time=16
note_on channel=0 note=79 velocity=80 time=8
note_on channel=0 note=79 velocity=0 time=16
note_on channel=0 note=72 velocity=80 time=8
note_on channel=0 note=72 velocity=0 time=64
note_on channel=0 note=72 velocity=80 time=32
note_on channel=0 note=76 velocity=80 time=0
note_on channel=0 note=84 velocity=80 time=0
note_on channel=0 note=84 velocity=0 time=32
note_on channel=0 note=76 velocity=0 time=0
note_on channel=0 note=72 velocity=0 time=0
note_on channel=0 note=72 velocity=80 time=64
note_on channel=0 note=72 velocity=0 time=16
note_on channel=0 note=69 velocity=80 time=8
note_on channel=0 note=69 velocity=0 time=16
note_on channel=0 note=65 velocity=80 time=8
note_on channel=0 note=65 velocity=0 time=16
note_on channel=0 note=67 velocity=80 time=8
note_on channel=0 note=67 velocity=0 time=16
note_on channel=0 note=69 velocity=80 time=8
note_on channel=0 note=69 velocity=0 time=16
note_on channel=0 note=77 velocity=80 time=8
note_on channel=0 note=74 velocity=80 time=0
note_on channel=0 note=74 velocity=0 time=32
note_on channel=0 note=77 velocity=0 time=0
note_on channel=0 note=76 velocity=80 time=16
note_on channel=0 note=72 velocity=80 time=0
note_on channel=0 note=72 velocity=0 time=16
note_on channel=0 note=76 velocity=0 time=0
note_on channel=0 note=74 velocity=80 time=8
note_on channel=0 note=70 velocity=80 time=0
note_on channel=0 note=70 velocity=0 time=32
note_on channel=0 note=74 velocity=0 time=0
note_on channel=0 note=72 velocity=80 time=16
note_on channel=0 note=69 velocity=80 time=0
note_on channel=0 note=69 velocity=0 time=16
note_on channel=0 note=72 velocity=0 time=0
note_on channel=0 note=70 velocity=80 time=8
note_on channel=0 note=67 velocity=80 time=0
note_on channel=0 note=67 velocity=0 time=64
note_on channel=0 note=70 velocity=0 time=0
note_on channel=0 note=70 velocity=80 time=32
note_on channel=0 note=70 velocity=0 time=32
note_on channel=0 note=67 velocity=80 time=16
note_on channel=0 note=67 velocity=0 time=16
note_on channel=0 note=64 velocity=80 time=8
note_on channel=0 note=64 velocity=0 time=16
note_on channel=0 note=65 velocity=80 time=8
note_on channel=0 note=65 velocity=0 time=16
note_on channel=0 note=67 velocity=80 time=8
note_on channel=0 note=67 velocity=0 time=16
note_on channel=0 note=76 velocity=80 time=8
note_on channel=0 note=72 velocity=80 time=0
note_on channel=0 note=72 velocity=0 time=32
note_on channel=0 note=76 velocity=0 time=0
note_on channel=0 note=74 velocity=80 time=16
note_on channel=0 note=70 velocity=80 time=0
note_on channel=0 note=70 velocity=0 time=16
note_on channel=0 note=74 velocity=0 time=0
note_on channel=0 note=72 velocity=80 time=8
note_on channel=0 note=69 velocity=80 time=0
note_on channel=0 note=69 velocity=0 time=32
note_on channel=0 note=72 velocity=0 time=0
note_on channel=0 note=70 velocity=80 time=16
note_on channel=0 note=67 velocity=80 time=0
note_on channel=0 note=67 velocity=0 time=16
note_on channel=0 note=70 velocity=0 time=0
note_on channel=0 note=65 velocity=80 time=8
note_on channel=0 note=69 velocity=80 time=0
note_on channel=0 note=69 velocity=0 time=88
note_on channel=0 note=65 velocity=0 time=0
note_on channel=0 note=66 velocity=80 time=32
note_on channel=0 note=66 velocity=0 time=16
note_on channel=0 note=69 velocity=80 time=8
note_on channel=0 note=69 velocity=0 time=16
note_on channel=0 note=72 velocity=80 time=8
note_on channel=0 note=72 velocity=0 time=16
note_on channel=0 note=75 velocity=80 time=8
note_on channel=0 note=66 velocity=80 time=0
note_on channel=0 note=66 velocity=0 time=32
note_on channel=0 note=75 velocity=0 time=0
note_on channel=0 note=74 velocity=80 time=16
note_on channel=0 note=74 velocity=0 time=16
note_on channel=0 note=66 velocity=80 time=8
note_on channel=0 note=72 velocity=80 time=0
note_on channel=0 note=72 velocity=0 time=32
note_on channel=0 note=66 velocity=0 time=0
note_on channel=0 note=70 velocity=80 time=16
note_on channel=0 note=67 velocity=80 time=0
note_on channel=0 note=67 velocity=0 time=16
note_on channel=0 note=70 velocity=0 time=0
note_on channel=0 note=69 velocity=80 time=8
note_on channel=0 note=69 velocity=0 time=16
note_on channel=0 note=70 velocity=80 time=8
note_on channel=0 note=70 velocity=0 time=16
note_on channel=0 note=67 velocity=80 time=8
note_on channel=0 note=70 velocity=80 time=0
note_on channel=0 note=79 velocity=80 time=0
note_on channel=0 note=79 velocity=0 time=32
note_on channel=0 note=70 velocity=0 time=0
note_on channel=0 note=67 velocity=0 time=0
note_on channel=0 note=74 velocity=80 time=16
note_on channel=0 note=74 velocity=0 time=16
note_on channel=0 note=70 velocity=80 time=8
note_on channel=0 note=67 velocity=80 time=0
note_on channel=0 note=67 velocity=0 time=32
note_on channel=0 note=70 velocity=0 time=0
note_on channel=0 note=74 velocity=80 time=16
note_on channel=0 note=69 velocity=80 time=0
note_on channel=0 note=65 velocity=80 time=0
note_on channel=0 note=65 velocity=0 time=16
note_on channel=0 note=69 velocity=0 time=0
note_on channel=0 note=74 velocity=0 time=0
note_on channel=0 note=72 velocity=80 time=8
note_on channel=0 note=69 velocity=80 time=0
note_on channel=0 note=65 velocity=80 time=0
note_on channel=0 note=65 velocity=0 time=32
note_on channel=0 note=69 velocity=0 time=0
note_on channel=0 note=72 velocity=0 time=0
note_on channel=0 note=65 velocity=80 time=16
note_on channel=0 note=69 velocity=80 time=0
note_on channel=0 note=69 velocity=0 time=16
note_on channel=0 note=65 velocity=0 time=0
note_on channel=0 note=64 velocity=80 time=8
note_on channel=0 note=72 velocity=80 time=0
note_on channel=0 note=72 velocity=0 time=16
note_on channel=0 note=64 velocity=0 time=0
note_on channel=0 note=70 velocity=80 time=8
note_on channel=0 note=70 velocity=0 time=16
note_on channel=0 note=64 velocity=80 time=8
note_on channel=0 note=67 velocity=80 time=0
note_on channel=0 note=67 velocity=0 time=32
note_on channel=0 note=64 velocity=0 time=0
note_on channel=0 note=65 velocity=80 time=16
note_on channel=0 note=65 velocity=0 time=64
note_on channel=0 note=65 velocity=80 time=32
note_on channel=0 note=69 velocity=80 time=0
note_on channel=0 note=77 velocity=80 time=0
note_on channel=0 note=77 velocity=0 time=32
note_on channel=0 note=69 velocity=0 time=0
note_on channel=0 note=65 velocity=0 time=0
note_on channel=0 note=67 velocity=80 time=16
note_on channel=0 note=67 velocity=0 time=32
note_on channel=0 note=76 velocity=80 time=16
note_on channel=0 note=76 velocity=0 time=96
note_on channel=0 note=67 velocity=80 time=48
note_on channel=0 note=67 velocity=0 time=32
note_on channel=0 note=79 velocity=80 time=16
note_on channel=0 note=79 velocity=0 time=96
note_on channel=0 note=67 velocity=80 time=48
note_on channel=0 note=67 velocity=0 time=32
note_on channel=0 note=79 velocity=80 time=16
note_on channel=0 note=79 velocity=0 time=16
note_on channel=0 note=78 velocity=80 time=8
note_on channel=0 note=78 velocity=0 time=16
note_on channel=0 note=79 velocity=80 time=8
note_on channel=0 note=79 velocity=0 time=16
note_on channel=0 note=77 velocity=80 time=8
note_on channel=0 note=77 velocity=0 time=32
note_on channel=0 note=76 velocity=80 time=16
note_on channel=0 note=76 velocity=0 time=16
note_on channel=0 note=74 velocity=80 time=8
note_on channel=0 note=74 velocity=0 time=32
note_on channel=0 note=72 velocity=80 time=16
note_on channel=0 note=72 velocity=0 time=32
note_on channel=0 note=67 velocity=80 time=160
note_on channel=0 note=72 velocity=80 time=0
note_on channel=0 note=76 velocity=80 time=0
note_on channel=0 note=76 velocity=0 time=16
note_on channel=0 note=72 velocity=0 time=0
note_on channel=0 note=67 velocity=0 time=0
note_on channel=0 note=66 velocity=80 time=8
note_on channel=0 note=72 velocity=80 time=0
note_on channel=0 note=75 velocity=80 time=0
note_on channel=0 note=75 velocity=0 time=16
note_on channel=0 note=72 velocity=0 time=0
note_on channel=0 note=66 velocity=0 time=0
note_on channel=0 note=76 velocity=80 time=8
note_on channel=0 note=72 velocity=80 time=0
note_on channel=0 note=67 velocity=80 time=0
note_on channel=0 note=67 velocity=0 time=16
note_on channel=0 note=72 velocity=0 time=0
note_on channel=0 note=76 velocity=0 time=0
note_on channel=0 note=69 velocity=80 time=8
note_on channel=0 note=72 velocity=80 time=0
note_on channel=0 note=76 velocity=80 time=0
note_on channel=0 note=81 velocity=80 time=0
note_on channel=0 note=81 velocity=0 time=32
note_on channel=0 note=69 velocity=0 time=0
note_on channel=0 note=72 velocity=0 time=0
note_on channel=0 note=76 velocity=0 time=0
note_on channel=0 note=79 velocity=80 time=16
note_on channel=0 note=79 velocity=0 time=16
note_on channel=0 note=76 velocity=80 time=8
note_on channel=0 note=76 velocity=0 time=16
note_on channel=0 note=72 velocity=80 time=8
note_on channel=0 note=72 velocity=0 time=16
note_on channel=0 note=74 velocity=80 time=8
note_on channel=0 note=65 velocity=80 time=0
note_on channel=0 note=71 velocity=80 time=0
note_on channel=0 note=74 velocity=0 time=32
note_on channel=0 note=71 velocity=0 time=16
note_on channel=0 note=65 velocity=0 time=0
note_on channel=0 note=76 velocity=80 time=0
note_on channel=0 note=76 velocity=0 time=16
note_on channel=0 note=67 velocity=80 time=8
note_on channel=0 note=64 velocity=80 time=0
note_on channel=0 note=72 velocity=80 time=0
note_on channel=0 note=72 velocity=0 time=32
note_on channel=0 note=64 velocity=0 time=0
note_on channel=0 note=67 velocity=0 time=0
note_on channel=0 note=72 velocity=80 time=16
note_on channel=0 note=72 velocity=0 time=16
note_on channel=0 note=71 velocity=80 time=8
note_on channel=0 note=71 velocity=0 time=16
note_on channel=0 note=70 velocity=80 time=8
note_on channel=0 note=70 velocity=0 time=16
note_on channel=0 note=69 velocity=80 time=8
note_on channel=0 note=69 velocity=0 time=16
note_on channel=0 note=68 velocity=80 time=8
note_on channel=0 note=68 velocity=0 time=16
note_on channel=0 note=69 velocity=80 time=8
note_on channel=0 note=69 velocity=0 time=16
note_on channel=0 note=72 velocity=80 time=8
note_on channel=0 note=72 velocity=0 time=16
note_on channel=0 note=76 velocity=80 time=8
note_on channel=0 note=65 velocity=80 time=0
note_on channel=0 note=76 velocity=0 time=16
note_on channel=0 note=74 velocity=80 time=8
note_on channel=0 note=65 velocity=0 time=8
note_on channel=0 note=74 velocity=0 time=8
note_on channel=0 note=72 velocity=80 time=8
note_on channel=0 note=65 velocity=80 time=0
note_on channel=0 note=72 velocity=0 time=16
note_on channel=0 note=69 velocity=80 time=8
note_on channel=0 note=65 velocity=0 time=8
note_on channel=0 note=69 velocity=0 time=8
note_on channel=0 note=64 velocity=80 time=8
note_on channel=0 note=72 velocity=80 time=0
note_on channel=0 note=72 velocity=0 time=32
note_on channel=0 note=64 velocity=0 time=0
note_on channel=0 note=69 velocity=80 time=16
note_on channel=0 note=64 velocity=80 time=0
note_on channel=0 note=64 velocity=0 time=16
note_on channel=0 note=69 velocity=0 time=0
note_on channel=0 note=67 velocity=80 time=8
note_on channel=0 note=64 velocity=80 time=0
note_on channel=0 note=64 velocity=0 time=32
note_on channel=0 note=67 velocity=0 time=0
note_on channel=0 note=79 velocity=80 time=16
note_on channel=0 note=79 velocity=0 time=16
note_on channel=0 note=76 velocity=80 time=8
note_on channel=0 note=76 velocity=0 time=16
note_on channel=0 note=72 velocity=80 time=8
note_on channel=0 note=72 velocity=0 time=16
note_on channel=0 note=69 velocity=80 time=8
note_on channel=0 note=69 velocity=0 time=16
note_on channel=0 note=68 velocity=80 time=8
note_on channel=0 note=68 velocity=0 time=16
note_on channel=0 note=69 velocity=80 time=8
note_on channel=0 note=69 velocity=0 time=16
note_on channel=0 note=72 velocity=80 time=8
note_on channel=0 note=72 velocity=0 time=16
note_on channel=0 note=76 velocity=80 time=8
note_on channel=0 note=65 velocity=80 time=0
note_on channel=0 note=76 velocity=0 time=16
note_on channel=0 note=74 velocity=80 time=8
note_on channel=0 note=65 velocity=0 time=8
note_on channel=0 note=74 velocity=0 time=8
note_on channel=0 note=72 velocity=80 time=8
note_on channel=0 note=65 velocity=80 time=0
note_on channel=0 note=72 velocity=0 time=16
note_on channel=0 note=69 velocity=80 time=8
note_on channel=0 note=65 velocity=0 time=8
note_on channel=0 note=69 velocity=0 time=8
note_on channel=0 note=64 velocity=80 time=8
note_on channel=0 note=67 velocity=80 time=0
note_on channel=0 note=76 velocity=80 time=0
note_on channel=0 note=76 velocity=0 time=16
note_on channel=0 note=67 velocity=0 time=0
note_on channel=0 note=64 velocity=0 time=0
note_on channel=0 note=75 velocity=80 time=8
note_on channel=0 note=66 velocity=80 time=0
note_on channel=0 note=63 velocity=80 time=0
note_on channel=0 note=63 velocity=0 time=16
note_on channel=0 note=66 velocity=0 time=0
note_on channel=0 note=75 velocity=0 time=0
note_on channel=0 note=64 velocity=80 time=8
note_on channel=0 note=67 velocity=80 time=0
note_on channel=0 note=76 velocity=80 time=0
note_on channel=0 note=76 velocity=0 time=16
note_on channel=0 note=67 velocity=0 time=0
note_on channel=0 note=64 velocity=0 time=0
note_on channel=0 note=69 velocity=80 time=8
note_on channel=0 note=72 velocity=80 time=0
note_on channel=0 note=76 velocity=80 time=0
note_on channel=0 note=81 velocity=80 time=0
note_on channel=0 note=81 velocity=0 time=32
note_on channel=0 note=69 velocity=0 time=0
note_on channel=0 note=72 velocity=0 time=0
note_on channel=0 note=76 velocity=0 time=0
note_on channel=0 note=76 velocity=80 time=16
note_on channel=0 note=76 velocity=0 time=16
note_on channel=0 note=72 velocity=80 time=8
note_on channel=0 note=72 velocity=0 time=16
note_on channel=0 note=67 velocity=80 time=8
note_on channel=0 note=67 velocity=0 time=16
note_on channel=0 note=69 velocity=80 time=8
note_on channel=0 note=69 velocity=0 time=16
note_on channel=0 note=70 velocity=80 time=8
note_on channel=0 note=70 velocity=0 time=16
note_on channel=0 note=71 velocity=80 time=8
note_on channel=0 note=71 velocity=0 time=16
note_on channel=0 note=71 velocity=80 time=8
note_on channel=0 note=77 velocity=80 time=0
note_on channel=0 note=81 velocity=80 time=0
note_on channel=0 note=81 velocity=0 time=48
note_on channel=0 note=77 velocity=0 time=0
note_on channel=0 note=71 velocity=0 time=0
note_on channel=0 note=79 velocity=80 time=24
note_on channel=0 note=77 velocity=80 time=0
note_on channel=0 note=71 velocity=80 time=0
note_on channel=0 note=71 velocity=0 time=32
note_on channel=0 note=77 velocity=0 time=0
note_on channel=0 note=79 velocity=0 time=0
note_on channel=0 note=77 velocity=80 time=16
note_on channel=0 note=83 velocity=80 time=0
note_on channel=0 note=88 velocity=80 time=0
note_on channel=0 note=88 velocity=0 time=32
note_on channel=0 note=83 velocity=0 time=0
note_on channel=0 note=77 velocity=0 time=0
note_on channel=0 note=77 velocity=80 time=16
note_on channel=0 note=83 velocity=80 time=0
note_on channel=0 note=86 velocity=80 time=0
note_on channel=0 note=86 velocity=0 time=32
note_on channel=0 note=83 velocity=0 time=0
note_on channel=0 note=77 velocity=0 time=0
note_on channel=0 note=86 velocity=80 time=16
note_on channel=0 note=79 velocity=80 time=0
note_on channel=0 note=76 velocity=80 time=0
note_on channel=0 note=76 velocity=0 time=32
note_on channel=0 note=79 velocity=0 time=0
note_on channel=0 note=86 velocity=0 time=0
note_on channel=0 note=76 velocity=80 time=16
note_on channel=0 note=79 velocity=80 time=0
note_on channel=0 note=84 velocity=80 time=0
note_on channel=0 note=84 velocity=0 time=32
note_on channel=0 note=79 velocity=0 time=0
note_on channel=0 note=76 velocity=0 time=0
note_on channel=0 note=67 velocity=80 time=16
note_on channel=0 note=72 velocity=80 time=0
note_on channel=0 note=76 velocity=80 time=0
note_on channel=0 note=76 velocity=0 time=16
note_on channel=0 note=72 velocity=0 time=0
note_on channel=0 note=67 velocity=0 time=0
note_on channel=0 note=66 velocity=80 time=8
note_on channel=0 note=72 velocity=80 time=0
note_on channel=0 note=75 velocity=80 time=0
note_on channel=0 note=75 velocity=0 time=16
note_on channel=0 note=72 velocity=0 time=0
note_on channel=0 note=66 velocity=0 time=0
note_on channel=0 note=76 velocity=80 time=8
note_on channel=0 note=72 velocity=80 time=0
note_on channel=0 note=67 velocity=80 time=0
note_on channel=0 note=67 velocity=0 time=16
note_on channel=0 note=72 velocity=0 time=0
note_on channel=0 note=76 velocity=0 time=0
note_on channel=0 note=69 velocity=80 time=8
note_on channel=0 note=72 velocity=80 time=0
note_on channel=0 note=76 velocity=80 time=0
note_on channel=0 note=81 velocity=80 time=0
note_on channel=0 note=81 velocity=0 time=32
note_on channel=0 note=69 velocity=0 time=0
note_on channel=0 note=72 velocity=0 time=0
note_on channel=0 note=76 velocity=0 time=0
note_on channel=0 note=79 velocity=80 time=16
note_on channel=0 note=79 velocity=0 time=16
note_on channel=0 note=76 velocity=80 time=8
note_on channel=0 note=76 velocity=0 time=16
note_on channel=0 note=72 velocity=80 time=8
note_on channel=0 note=72 velocity=0 time=16
note_on channel=0 note=74 velocity=80 time=8
note_on channel=0 note=65 velocity=80 time=0
note_on channel=0 note=71 velocity=80 time=0
note_on channel=0 note=74 velocity=0 time=32
note_on channel=0 note=71 velocity=0 time=16
note_on channel=0 note=65 velocity=0 time=0
note_on channel=0 note=76 velocity=80 time=0
note_on channel=0 note=76 velocity=0 time=16
note_on channel=0 note=67 velocity=80 time=8
note_on channel=0 note=64 velocity=80 time=0
note_on channel=0 note=72 velocity=80 time=0
note_on channel=0 note=72 velocity=0 time=32
note_on channel=0 note=64 velocity=0 time=0
note_on channel=0 note=67 velocity=0 time=0
note_on channel=0 note=72 velocity=80 time=16
note_on channel=0 note=72 velocity=0 time=16
note_on channel=0 note=71 velocity=80 time=8
note_on channel=0 note=71 velocity=0 time=16
note_on channel=0 note=70 velocity=80 time=8
note_on channel=0 note=70 velocity=0 time=16
note_on channel=0 note=69 velocity=80 time=8
note_on channel=0 note=69 velocity=0 time=16
note_on channel=0 note=68 velocity=80 time=8
note_on channel=0 note=68 velocity=0 time=16
note_on channel=0 note=69 velocity=80 time=8
note_on channel=0 note=69 velocity=0 time=16
note_on channel=0 note=72 velocity=80 time=8
note_on channel=0 note=72 velocity=0 time=16
note_on channel=0 note=76 velocity=80 time=8
note_on channel=0 note=65 velocity=80 time=0
note_on channel=0 note=76 velocity=0 time=16
note_on channel=0 note=74 velocity=80 time=8
note_on channel=0 note=65 velocity=0 time=8
note_on channel=0 note=74 velocity=0 time=8
note_on channel=0 note=72 velocity=80 time=8
note_on channel=0 note=65 velocity=80 time=0
note_on channel=0 note=72 velocity=0 time=16
note_on channel=0 note=69 velocity=80 time=8
note_on channel=0 note=65 velocity=0 time=8
note_on channel=0 note=69 velocity=0 time=8
note_on channel=0 note=64 velocity=80 time=8
note_on channel=0 note=72 velocity=80 time=0
note_on channel=0 note=72 velocity=0 time=32
note_on channel=0 note=64 velocity=0 time=0
note_on channel=0 note=69 velocity=80 time=16
note_on channel=0 note=64 velocity=80 time=0
note_on channel=0 note=64 velocity=0 time=16
note_on channel=0 note=69 velocity=0 time=0
note_on channel=0 note=67 velocity=80 time=8
note_on channel=0 note=64 velocity=80 time=0
note_on channel=0 note=64 velocity=0 time=32
note_on channel=0 note=67 velocity=0 time=0
note_on channel=0 note=79 velocity=80 time=16
note_on channel=0 note=79 velocity=0 time=16
note_on channel=0 note=76 velocity=80 time=8
note_on channel=0 note=76 velocity=0 time=16
note_on channel=0 note=72 velocity=80 time=8
note_on channel=0 note=72 velocity=0 time=16
note_on channel=0 note=69 velocity=80 time=8
note_on channel=0 note=69 velocity=0 time=16
note_on channel=0 note=68 velocity=80 time=8
note_on channel=0 note=68 velocity=0 time=16
note_on channel=0 note=69 velocity=80 time=8
note_on channel=0 note=69 velocity=0 time=16
note_on channel=0 note=72 velocity=80 time=8
note_on channel=0 note=72 velocity=0 time=16
note_on channel=0 note=76 velocity=80 time=8
note_on channel=0 note=65 velocity=80 time=0
note_on channel=0 note=76 velocity=0 time=16
note_on channel=0 note=74 velocity=80 time=8
note_on channel=0 note=65 velocity=0 time=8
note_on channel=0 note=74 velocity=0 time=8
note_on channel=0 note=72 velocity=80 time=8
note_on channel=0 note=66 velocity=80 time=0
note_on channel=0 note=72 velocity=0 time=16
note_on channel=0 note=69 velocity=80 time=8
note_on channel=0 note=66 velocity=0 time=8
note_on channel=0 note=69 velocity=0 time=8
note_on channel=0 note=67 velocity=80 time=8
note_on channel=0 note=67 velocity=0 time=16
note_on channel=0 note=72 velocity=80 time=8
note_on channel=0 note=72 velocity=0 time=16
note_on channel=0 note=76 velocity=80 time=8
note_on channel=0 note=76 velocity=0 time=16
note_on channel=0 note=77 velocity=80 time=8
note_on channel=0 note=73 velocity=80 time=0
note_on channel=0 note=67 velocity=80 time=0
note_on channel=0 note=67 velocity=0 time=32
note_on channel=0 note=73 velocity=0 time=0
note_on channel=0 note=77 velocity=0 time=0
note_on channel=0 note=73 velocity=80 time=16
note_on channel=0 note=73 velocity=0 time=16
note_on channel=0 note=76 velocity=80 time=8
note_on channel=0 note=73 velocity=80 time=0
note_on channel=0 note=67 velocity=80 time=0
note_on channel=0 note=67 velocity=0 time=32
note_on channel=0 note=73 velocity=0 time=0
note_on channel=0 note=76 velocity=0 time=0
note_on channel=0 note=66 velocity=80 time=16
note_on channel=0 note=66 velocity=0 time=16
note_on channel=0 note=69 velocity=80 time=8
note_on channel=0 note=69 velocity=0 time=16
note_on channel=0 note=72 velocity=80 time=8
note_on channel=0 note=72 velocity=0 time=16
note_on channel=0 note=76 velocity=80 time=8
note_on channel=0 note=71 velocity=80 time=0
note_on channel=0 note=65 velocity=80 time=0
note_on channel=0 note=65 velocity=0 time=32
note_on channel=0 note=71 velocity=0 time=0
note_on channel=0 note=76 velocity=0 time=0
note_on channel=0 note=71 velocity=80 time=16
note_on channel=0 note=71 velocity=0 time=16
note_on channel=0 note=74 velocity=80 time=8
note_on channel=0 note=71 velocity=80 time=0
note_on channel=0 note=65 velocity=80 time=0
note_on channel=0 note=65 velocity=0 time=32
note_on channel=0 note=71 velocity=0 time=0
note_on channel=0 note=74 velocity=0 time=0
note_on channel=0 note=72 velocity=80 time=16
note_on channel=0 note=67 velocity=80 time=0
note_on channel=0 note=64 velocity=80 time=0
note_on channel=0 note=64 velocity=0 time=96
note_on channel=0 note=67 velocity=0 time=0
note_on channel=0 note=72 velocity=0 time=0
note_on channel=0 note=67 velocity=80 time=48
note_on channel=0 note=71 velocity=80 time=0
note_on channel=0 note=77 velocity=80 time=0
note_on channel=0 note=77 velocity=0 time=32
note_on channel=0 note=71 velocity=0 time=0
note_on channel=0 note=67 velocity=0 time=0
note_on channel=0 note=67 velocity=80 time=16
note_on channel=0 note=72 velocity=80 time=0
note_on channel=0 note=76 velocity=80 time=0
note_on channel=0 note=76 velocity=0 time=16
note_on channel=0 note=72 velocity=0 time=0
note_on channel=0 note=67 velocity=0 time=0
note_on channel=0 note=66 velocity=80 time=8
note_on channel=0 note=72 velocity=80 time=0
note_on channel=0 note=75 velocity=80 time=0
note_on channel=0 note=75 velocity=0 time=16
note_on channel=0 note=72 velocity=0 time=0
note_on channel=0 note=66 velocity=0 time=0
note_on channel=0 note=76 velocity=80 time=8
note_on channel=0 note=72 velocity=80 time=0
note_on channel=0 note=67 velocity=80 time=0
note_on channel=0 note=67 velocity=0 time=16
note_on channel=0 note=72 velocity=0 time=0
note_on channel=0 note=76 velocity=0 time=0
note_on channel=0 note=69 velocity=80 time=8
note_on channel=0 note=72 velocity=80 time=0
note_on channel=0 note=76 velocity=80 time=0
note_on channel=0 note=81 velocity=80 time=0
note_on channel=0 note=81 velocity=0 time=32
note_on channel=0 note=69 velocity=0 time=0
note_on channel=0 note=72 velocity=0 time=0
note_on channel=0 note=76 velocity=0 time=0
note_on channel=0 note=79 velocity=80 time=16
note_on channel=0 note=79 velocity=0 time=16
note_on channel=0 note=76 velocity=80 time=8
note_on channel=0 note=76 velocity=0 time=16
note_on channel=0 note=72 velocity=80 time=8
note_on channel=0 note=72 velocity=0 time=16
note_on channel=0 note=74 velocity=80 time=8
note_on channel=0 note=65 velocity=80 time=0
note_on channel=0 note=71 velocity=80 time=0
note_on channel=0 note=74 velocity=0 time=32
note_on channel=0 note=71 velocity=0 time=16
note_on channel=0 note=65 velocity=0 time=0
note_on channel=0 note=76 velocity=80 time=0
note_on channel=0 note=76 velocity=0 time=16
note_on channel=0 note=67 velocity=80 time=8
note_on channel=0 note=64 velocity=80 time=0
note_on channel=0 note=72 velocity=80 time=0
note_on channel=0 note=72 velocity=0 time=32
note_on channel=0 note=64 velocity=0 time=0
note_on channel=0 note=67 velocity=0 time=0
note_on channel=0 note=72 velocity=80 time=16
note_on channel=0 note=72 velocity=0 time=16
note_on channel=0 note=71 velocity=80 time=8
note_on channel=0 note=71 velocity=0 time=16
note_on channel=0 note=70 velocity=80 time=8
note_on channel=0 note=70 velocity=0 time=16
note_on channel=0 note=69 velocity=80 time=8
note_on channel=0 note=69 velocity=0 time=16
note_on channel=0 note=68 velocity=80 time=8
note_on channel=0 note=68 velocity=0 time=16
note_on channel=0 note=69 velocity=80 time=8
note_on channel=0 note=69 velocity=0 time=16
note_on channel=0 note=72 velocity=80 time=8
note_on channel=0 note=72 velocity=0 time=16
note_on channel=0 note=76 velocity=80 time=8
note_on channel=0 note=65 velocity=80 time=0
note_on channel=0 note=76 velocity=0 time=16
note_on channel=0 note=74 velocity=80 time=8
note_on channel=0 note=65 velocity=0 time=8
note_on channel=0 note=74 velocity=0 time=8
note_on channel=0 note=72 velocity=80 time=8
note_on channel=0 note=65 velocity=80 time=0
note_on channel=0 note=72 velocity=0 time=16
note_on channel=0 note=69 velocity=80 time=8
note_on channel=0 note=65 velocity=0 time=8
note_on channel=0 note=69 velocity=0 time=8
note_on channel=0 note=64 velocity=80 time=8
note_on channel=0 note=72 velocity=80 time=0
note_on channel=0 note=72 velocity=0 time=32
note_on channel=0 note=64 velocity=0 time=0
note_on channel=0 note=69 velocity=80 time=16
note_on channel=0 note=64 velocity=80 time=0
note_on channel=0 note=64 velocity=0 time=16
note_on channel=0 note=69 velocity=0 time=0
note_on channel=0 note=67 velocity=80 time=8
note_on channel=0 note=64 velocity=80 time=0
note_on channel=0 note=64 velocity=0 time=32
note_on channel=0 note=67 velocity=0 time=0
note_on channel=0 note=79 velocity=80 time=16
note_on channel=0 note=79 velocity=0 time=16
note_on channel=0 note=76 velocity=80 time=8
note_on channel=0 note=76 velocity=0 time=16
note_on channel=0 note=72 velocity=80 time=8
note_on channel=0 note=72 velocity=0 time=16
note_on channel=0 note=69 velocity=80 time=8
note_on channel=0 note=69 velocity=0 time=16
note_on channel=0 note=68 velocity=80 time=8
note_on channel=0 note=68 velocity=0 time=16
note_on channel=0 note=69 velocity=80 time=8
note_on channel=0 note=69 velocity=0 time=16
note_on channel=0 note=72 velocity=80 time=8
note_on channel=0 note=72 velocity=0 time=16
note_on channel=0 note=76 velocity=80 time=8
note_on channel=0 note=65 velocity=80 time=0
note_on channel=0 note=76 velocity=0 time=16
note_on channel=0 note=74 velocity=80 time=8
note_on channel=0 note=65 velocity=0 time=8
note_on channel=0 note=74 velocity=0 time=8
note_on channel=0 note=72 velocity=80 time=8
note_on channel=0 note=65 velocity=80 time=0
note_on channel=0 note=72 velocity=0 time=16
note_on channel=0 note=69 velocity=80 time=8
note_on channel=0 note=65 velocity=0 time=8
note_on channel=0 note=69 velocity=0 time=8
note_on channel=0 note=64 velocity=80 time=8
note_on channel=0 note=67 velocity=80 time=0
note_on channel=0 note=76 velocity=80 time=0
note_on channel=0 note=76 velocity=0 time=16
note_on channel=0 note=67 velocity=0 time=0
note_on channel=0 note=64 velocity=0 time=0
note_on channel=0 note=75 velocity=80 time=8
note_on channel=0 note=66 velocity=80 time=0
note_on channel=0 note=63 velocity=80 time=0
note_on channel=0 note=63 velocity=0 time=16
note_on channel=0 note=66 velocity=0 time=0
note_on channel=0 note=75 velocity=0 time=0
note_on channel=0 note=64 velocity=80 time=8
note_on channel=0 note=67 velocity=80 time=0
note_on channel=0 note=76 velocity=80 time=0
note_on channel=0 note=76 velocity=0 time=16
note_on channel=0 note=67 velocity=0 time=0
note_on channel=0 note=64 velocity=0 time=0
note_on channel=0 note=69 velocity=80 time=8
note_on channel=0 note=72 velocity=80 time=0
note_on channel=0 note=76 velocity=80 time=0
note_on channel=0 note=81 velocity=80 time=0
note_on channel=0 note=81 velocity=0 time=32
note_on channel=0 note=69 velocity=0 time=0
note_on channel=0 note=72 velocity=0 time=0
note_on channel=0 note=76 velocity=0 time=0
note_on channel=0 note=76 velocity=80 time=16
note_on channel=0 note=76 velocity=0 time=16
note_on channel=0 note=72 velocity=80 time=8
note_on channel=0 note=72 velocity=0 time=16
note_on channel=0 note=67 velocity=80 time=8
note_on channel=0 note=67 velocity=0 time=16
note_on channel=0 note=69 velocity=80 time=8
note_on channel=0 note=69 velocity=0 time=16
note_on channel=0 note=70 velocity=80 time=8
note_on channel=0 note=70 velocity=0 time=16
note_on channel=0 note=71 velocity=80 time=8
note_on channel=0 note=71 velocity=0 time=16
note_on channel=0 note=71 velocity=80 time=8
note_on channel=0 note=77 velocity=80 time=0
note_on channel=0 note=81 velocity=80 time=0
note_on channel=0 note=81 velocity=0 time=48
note_on channel=0 note=77 velocity=0 time=0
note_on channel=0 note=71 velocity=0 time=0
note_on channel=0 note=79 velocity=80 time=24
note_on channel=0 note=77 velocity=80 time=0
note_on channel=0 note=71 velocity=80 time=0
note_on channel=0 note=71 velocity=0 time=32
note_on channel=0 note=77 velocity=0 time=0
note_on channel=0 note=79 velocity=0 time=0
note_on channel=0 note=77 velocity=80 time=16
note_on channel=0 note=83 velocity=80 time=0
note_on channel=0 note=88 velocity=80 time=0
note_on channel=0 note=88 velocity=0 time=32
note_on channel=0 note=83 velocity=0 time=0
note_on channel=0 note=77 velocity=0 time=0
note_on channel=0 note=77 velocity=80 time=16
note_on channel=0 note=83 velocity=80 time=0
note_on channel=0 note=86 velocity=80 time=0
note_on channel=0 note=86 velocity=0 time=32
note_on channel=0 note=83 velocity=0 time=0
note_on channel=0 note=77 velocity=0 time=0
note_on channel=0 note=86 velocity=80 time=16
note_on channel=0 note=79 velocity=80 time=0
note_on channel=0 note=76 velocity=80 time=0
note_on channel=0 note=76 velocity=0 time=32
note_on channel=0 note=79 velocity=0 time=0
note_on channel=0 note=86 velocity=0 time=0
note_on channel=0 note=76 velocity=80 time=16
note_on channel=0 note=79 velocity=80 time=0
note_on channel=0 note=84 velocity=80 time=0
note_on channel=0 note=84 velocity=0 time=32
note_on channel=0 note=79 velocity=0 time=0
note_on channel=0 note=76 velocity=0 time=0
note_on channel=0 note=67 velocity=80 time=16
note_on channel=0 note=72 velocity=80 time=0
note_on channel=0 note=76 velocity=80 time=0
note_on channel=0 note=76 velocity=0 time=16
note_on channel=0 note=72 velocity=0 time=0
note_on channel=0 note=67 velocity=0 time=0
note_on channel=0 note=66 velocity=80 time=8
note_on channel=0 note=72 velocity=80 time=0
note_on channel=0 note=75 velocity=80 time=0
note_on channel=0 note=75 velocity=0 time=16
note_on channel=0 note=72 velocity=0 time=0
note_on channel=0 note=66 velocity=0 time=0
note_on channel=0 note=76 velocity=80 time=8
note_on channel=0 note=72 velocity=80 time=0
note_on channel=0 note=67 velocity=80 time=0
note_on channel=0 note=67 velocity=0 time=16
note_on channel=0 note=72 velocity=0 time=0
note_on channel=0 note=76 velocity=0 time=0
note_on channel=0 note=69 velocity=80 time=8
note_on channel=0 note=72 velocity=80 time=0
note_on channel=0 note=76 velocity=80 time=0
note_on channel=0 note=81 velocity=80 time=0
note_on channel=0 note=81 velocity=0 time=32
note_on channel=0 note=69 velocity=0 time=0
note_on channel=0 note=72 velocity=0 time=0
note_on channel=0 note=76 velocity=0 time=0
note_on channel=0 note=79 velocity=80 time=16
note_on channel=0 note=79 velocity=0 time=16
note_on channel=0 note=76 velocity=80 time=8
note_on channel=0 note=76 velocity=0 time=16
note_on channel=0 note=72 velocity=80 time=8
note_on channel=0 note=72 velocity=0 time=16
note_on channel=0 note=74 velocity=80 time=8
note_on channel=0 note=65 velocity=80 time=0
note_on channel=0 note=71 velocity=80 time=0
note_on channel=0 note=74 velocity=0 time=32
note_on channel=0 note=71 velocity=0 time=16
note_on channel=0 note=65 velocity=0 time=0
note_on channel=0 note=76 velocity=80 time=0
note_on channel=0 note=76 velocity=0 time=16
note_on channel=0 note=67 velocity=80 time=8
note_on channel=0 note=64 velocity=80 time=0
note_on channel=0 note=72 velocity=80 time=0
note_on channel=0 note=72 velocity=0 time=32
note_on channel=0 note=64 velocity=0 time=0
note_on channel=0 note=67 velocity=0 time=0
note_on channel=0 note=72 velocity=80 time=16
note_on channel=0 note=72 velocity=0 time=16
note_on channel=0 note=71 velocity=80 time=8
note_on channel=0 note=71 velocity=0 time=16
note_on channel=0 note=70 velocity=80 time=8
note_on channel=0 note=70 velocity=0 time=16
note_on channel=0 note=69 velocity=80 time=8
note_on channel=0 note=69 velocity=0 time=16
note_on channel=0 note=68 velocity=80 time=8
note_on channel=0 note=68 velocity=0 time=16
note_on channel=0 note=69 velocity=80 time=8
note_on channel=0 note=69 velocity=0 time=16
note_on channel=0 note=72 velocity=80 time=8
note_on channel=0 note=72 velocity=0 time=16
note_on channel=0 note=76 velocity=80 time=8
note_on channel=0 note=65 velocity=80 time=0
note_on channel=0 note=76 velocity=0 time=16
note_on channel=0 note=74 velocity=80 time=8
note_on channel=0 note=65 velocity=0 time=8
note_on channel=0 note=74 velocity=0 time=8
note_on channel=0 note=72 velocity=80 time=8
note_on channel=0 note=65 velocity=80 time=0
note_on channel=0 note=72 velocity=0 time=16
note_on channel=0 note=69 velocity=80 time=8
note_on channel=0 note=65 velocity=0 time=8
note_on channel=0 note=69 velocity=0 time=8
note_on channel=0 note=64 velocity=80 time=8
note_on channel=0 note=72 velocity=80 time=0
note_on channel=0 note=72 velocity=0 time=32
note_on channel=0 note=64 velocity=0 time=0
note_on channel=0 note=69 velocity=80 time=16
note_on channel=0 note=64 velocity=80 time=0
note_on channel=0 note=64 velocity=0 time=16
note_on channel=0 note=69 velocity=0 time=0
note_on channel=0 note=67 velocity=80 time=8
note_on channel=0 note=64 velocity=80 time=0
note_on channel=0 note=64 velocity=0 time=32
note_on channel=0 note=67 velocity=0 time=0
note_on channel=0 note=79 velocity=80 time=16
note_on channel=0 note=79 velocity=0 time=16
note_on channel=0 note=76 velocity=80 time=8
note_on channel=0 note=76 velocity=0 time=16
note_on channel=0 note=72 velocity=80 time=8
note_on channel=0 note=72 velocity=0 time=16
note_on channel=0 note=69 velocity=80 time=8
note_on channel=0 note=69 velocity=0 time=16
note_on channel=0 note=68 velocity=80 time=8
note_on channel=0 note=68 velocity=0 time=16
note_on channel=0 note=69 velocity=80 time=8
note_on channel=0 note=69 velocity=0 time=16
note_on channel=0 note=72 velocity=80 time=8
note_on channel=0 note=72 velocity=0 time=16
note_on channel=0 note=76 velocity=80 time=8
note_on channel=0 note=65 velocity=80 time=0
note_on channel=0 note=76 velocity=0 time=16
note_on channel=0 note=74 velocity=80 time=8
note_on channel=0 note=65 velocity=0 time=8
note_on channel=0 note=74 velocity=0 time=8
note_on channel=0 note=72 velocity=80 time=8
note_on channel=0 note=66 velocity=80 time=0
note_on channel=0 note=72 velocity=0 time=16
note_on channel=0 note=69 velocity=80 time=8
note_on channel=0 note=66 velocity=0 time=8
note_on channel=0 note=69 velocity=0 time=8
note_on channel=0 note=67 velocity=80 time=8
note_on channel=0 note=67 velocity=0 time=16
note_on channel=0 note=72 velocity=80 time=8
note_on channel=0 note=72 velocity=0 time=16
note_on channel=0 note=76 velocity=80 time=8
note_on channel=0 note=76 velocity=0 time=16
note_on channel=0 note=77 velocity=80 time=8
note_on channel=0 note=73 velocity=80 time=0
note_on channel=0 note=67 velocity=80 time=0
note_on channel=0 note=67 velocity=0 time=32
note_on channel=0 note=73 velocity=0 time=0
note_on channel=0 note=77 velocity=0 time=0
note_on channel=0 note=73 velocity=80 time=16
note_on channel=0 note=73 velocity=0 time=16
note_on channel=0 note=76 velocity=80 time=8
note_on channel=0 note=73 velocity=80 time=0
note_on channel=0 note=67 velocity=80 time=0
note_on channel=0 note=67 velocity=0 time=32
note_on channel=0 note=73 velocity=0 time=0
note_on channel=0 note=76 velocity=0 time=0
note_on channel=0 note=66 velocity=80 time=16
note_on channel=0 note=66 velocity=0 time=16
note_on channel=0 note=69 velocity=80 time=8
note_on channel=0 note=69 velocity=0 time=16
note_on channel=0 note=72 velocity=80 time=8
note_on channel=0 note=72 velocity=0 time=16
note_on channel=0 note=76 velocity=80 time=8
note_on channel=0 note=71 velocity=80 time=0
note_on channel=0 note=65 velocity=80 time=0
note_on channel=0 note=65 velocity=0 time=32
note_on channel=0 note=71 velocity=0 time=0
note_on channel=0 note=76 velocity=0 time=0
note_on channel=0 note=71 velocity=80 time=16
note_on channel=0 note=71 velocity=0 time=16
note_on channel=0 note=74 velocity=80 time=8
note_on channel=0 note=71 velocity=80 time=0
note_on channel=0 note=65 velocity=80 time=0
note_on channel=0 note=65 velocity=0 time=32
note_on channel=0 note=71 velocity=0 time=0
note_on channel=0 note=74 velocity=0 time=0
note_on channel=0 note=64 velocity=80 time=16
note_on channel=0 note=67 velocity=80 time=0
note_on channel=0 note=72 velocity=80 time=0
note_on channel=0 note=72 velocity=0 time=64
note_on channel=0 note=67 velocity=0 time=0
note_on channel=0 note=64 velocity=0 time=0
note_on channel=0 note=72 velocity=80 time=32
note_on channel=0 note=76 velocity=80 time=0
note_on channel=0 note=79 velocity=80 time=0
note_on channel=0 note=84 velocity=80 time=0
note_on channel=0 note=84 velocity=0 time=32
note_on channel=0 note=72 velocity=0 time=0
note_on channel=0 note=76 velocity=0 time=0
note_on channel=0 note=79 velocity=0 time=0
<meta message end_of_track time=0>
<meta message midi_port port=0 time=0>
<meta message track_name name='by S. Joplin & S. Hayden' time=0>
program_change channel=1 program=0 time=0
control_change channel=1 control=7 value=127 time=0
control_change channel=1 control=10 value=33 time=0
control_change channel=1 control=121 value=0 time=8
control_change channel=1 control=1 value=0 time=16
control_change channel=1 control=64 value=0 time=8
aftertouch channel=1 value=0 time=11
pitchwheel channel=1 pitch=0 time=6
control_change channel=1 control=93 value=12 time=2
control_change channel=1 control=91 value=21 time=0
control_change channel=1 control=7 value=127 time=21
control_change channel=1 control=10 value=44 time=4
note_on channel=1 note=55 velocity=80 time=116
note_on channel=1 note=43 velocity=80 time=0
note_on channel=1 note=43 velocity=0 time=48
note_on channel=1 note=55 velocity=0 time=0
note_on channel=1 note=54 velocity=80 time=24
note_on channel=1 note=42 velocity=80 time=0
note_on channel=1 note=42 velocity=0 time=24
note_on channel=1 note=54 velocity=0 time=0
note_on channel=1 note=55 velocity=80 time=0
note_on channel=1 note=43 velocity=80 time=0
note_on channel=1 note=43 velocity=0 time=16
note_on channel=1 note=55 velocity=0 time=0
note_on channel=1 note=56 velocity=80 time=8
note_on channel=1 note=44 velocity=80 time=0
note_on channel=1 note=44 velocity=0 time=16
note_on channel=1 note=56 velocity=0 time=0
note_on channel=1 note=57 velocity=80 time=8
note_on channel=1 note=45 velocity=80 time=0
note_on channel=1 note=45 velocity=0 time=32
note_on channel=1 note=57 velocity=0 time=0
note_on channel=1 note=57 velocity=80 time=16
note_on channel=1 note=45 velocity=80 time=0
note_on channel=1 note=45 velocity=0 time=48
note_on channel=1 note=57 velocity=0 time=0
note_on channel=1 note=56 velocity=80 time=24
note_on channel=1 note=44 velocity=80 time=0
note_on channel=1 note=44 velocity=0 time=16
note_on channel=1 note=56 velocity=0 time=0
note_on channel=1 note=57 velocity=80 time=8
note_on channel=1 note=45 velocity=80 time=0
note_on channel=1 note=45 velocity=0 time=16
note_on channel=1 note=57 velocity=0 time=0
note_on channel=1 note=58 velocity=80 time=8
note_on channel=1 note=46 velocity=80 time=0
note_on channel=1 note=46 velocity=0 time=16
note_on channel=1 note=58 velocity=0 time=0
note_on channel=1 note=59 velocity=80 time=8
note_on channel=1 note=47 velocity=80 time=0
note_on channel=1 note=47 velocity=0 time=32
note_on channel=1 note=59 velocity=0 time=0
note_on channel=1 note=50 velocity=80 time=16
note_on channel=1 note=50 velocity=0 time=32
note_on channel=1 note=49 velocity=80 time=16
note_on channel=1 note=49 velocity=0 time=16
note_on channel=1 note=50 velocity=80 time=8
note_on channel=1 note=50 velocity=0 time=16
note_on channel=1 note=51 velocity=80 time=8
note_on channel=1 note=51 velocity=0 time=16
note_on channel=1 note=52 velocity=80 time=8
note_on channel=1 note=52 velocity=0 time=16
note_on channel=1 note=53 velocity=80 time=8
note_on channel=1 note=53 velocity=0 time=16
note_on channel=1 note=54 velocity=80 time=8
note_on channel=1 note=54 velocity=0 time=16
note_on channel=1 note=55 velocity=80 time=8
note_on channel=1 note=55 velocity=0 time=32
note_on channel=1 note=43 velocity=80 time=64
note_on channel=1 note=31 velocity=80 time=0
note_on channel=1 note=31 velocity=0 time=32
note_on channel=1 note=43 velocity=0 time=0
note_on channel=1 note=48 velocity=80 time=64
note_on channel=1 note=36 velocity=80 time=0
note_on channel=1 note=36 velocity=0 time=32
note_on channel=1 note=48 velocity=0 time=0
note_on channel=1 note=55 velocity=80 time=16
note_on channel=1 note=60 velocity=80 time=0
note_on channel=1 note=64 velocity=80 time=0
note_on channel=1 note=64 velocity=0 time=32
note_on channel=1 note=60 velocity=0 time=0
note_on channel=1 note=55 velocity=0 time=0
note_on channel=1 note=52 velocity=80 time=16
note_on channel=1 note=40 velocity=80 time=0
note_on channel=1 note=40 velocity=0 time=32
note_on channel=1 note=52 velocity=0 time=0
note_on channel=1 note=55 velocity=80 time=16
note_on channel=1 note=60 velocity=80 time=0
note_on channel=1 note=64 velocity=80 time=0
note_on channel=1 note=64 velocity=0 time=32
note_on channel=1 note=60 velocity=0 time=0
note_on channel=1 note=55 velocity=0 time=0
note_on channel=1 note=43 velocity=80 time=16
note_on channel=1 note=31 velocity=80 time=0
note_on channel=1 note=31 velocity=0 time=32
note_on channel=1 note=43 velocity=0 time=0
note_on channel=1 note=55 velocity=80 time=16
note_on channel=1 note=59 velocity=80 time=0
note_on channel=1 note=65 velocity=80 time=0
note_on channel=1 note=65 velocity=0 time=32
note_on channel=1 note=59 velocity=0 time=0
note_on channel=1 note=55 velocity=0 time=0
note_on channel=1 note=48 velocity=80 time=16
note_on channel=1 note=36 velocity=80 time=0
note_on channel=1 note=36 velocity=0 time=32
note_on channel=1 note=48 velocity=0 time=0
note_on channel=1 note=55 velocity=80 time=16
note_on channel=1 note=60 velocity=80 time=0
note_on channel=1 note=64 velocity=80 time=0
note_on channel=1 note=64 velocity=0 time=32
note_on channel=1 note=60 velocity=0 time=0
note_on channel=1 note=55 velocity=0 time=0
note_on channel=1 note=53 velocity=80 time=16
note_on channel=1 note=41 velocity=80 time=0
note_on channel=1 note=41 velocity=0 time=32
note_on channel=1 note=53 velocity=0 time=0
note_on channel=1 note=57 velocity=80 time=16
note_on channel=1 note=60 velocity=80 time=0
note_on channel=1 note=65 velocity=80 time=0
note_on channel=1 note=65 velocity=0 time=32
note_on channel=1 note=60 velocity=0 time=0
note_on channel=1 note=57 velocity=0 time=0
note_on channel=1 note=57 velocity=80 time=16
note_on channel=1 note=45 velocity=80 time=0
note_on channel=1 note=45 velocity=0 time=32
note_on channel=1 note=57 velocity=0 time=0
note_on channel=1 note=44 velocity=80 time=16
note_on channel=1 note=56 velocity=80 time=0
note_on channel=1 note=56 velocity=0 time=32
note_on channel=1 note=44 velocity=0 time=0
note_on channel=1 note=55 velocity=80 time=16
note_on channel=1 note=43 velocity=80 time=0
note_on channel=1 note=43 velocity=0 time=32
note_on channel=1 note=55 velocity=0 time=0
note_on channel=1 note=55 velocity=80 time=16
note_on channel=1 note=60 velocity=80 time=0
note_on channel=1 note=60 velocity=0 time=32
note_on channel=1 note=55 velocity=0 time=0
note_on channel=1 note=48 velocity=80 time=16
note_on channel=1 note=36 velocity=80 time=0
note_on channel=1 note=36 velocity=0 time=32
note_on channel=1 note=48 velocity=0 time=0
note_on channel=1 note=55 velocity=80 time=16
note_on channel=1 note=60 velocity=80 time=0
note_on channel=1 note=64 velocity=80 time=0
note_on channel=1 note=64 velocity=0 time=32
note_on channel=1 note=60 velocity=0 time=0
note_on channel=1 note=55 velocity=0 time=0
note_on channel=1 note=53 velocity=80 time=16
note_on channel=1 note=41 velocity=80 time=0
note_on channel=1 note=41 velocity=0 time=32
note_on channel=1 note=53 velocity=0 time=0
note_on channel=1 note=57 velocity=80 time=16
note_on channel=1 note=60 velocity=80 time=0
note_on channel=1 note=65 velocity=80 time=0
note_on channel=1 note=65 velocity=0 time=32
note_on channel=1 note=60 velocity=0 time=0
note_on channel=1 note=57 velocity=0 time=0
note_on channel=1 note=57 velocity=80 time=16
note_on channel=1 note=45 velocity=80 time=0
note_on channel=1 note=45 velocity=0 time=32
note_on channel=1 note=57 velocity=0 time=0
note_on channel=1 note=44 velocity=80 time=16
note_on channel=1 note=56 velocity=80 time=0
note_on channel=1 note=56 velocity=0 time=32
note_on channel=1 note=44 velocity=0 time=0
note_on channel=1 note=55 velocity=80 time=16
note_on channel=1 note=43 velocity=80 time=0
note_on channel=1 note=43 velocity=0 time=32
note_on channel=1 note=55 velocity=0 time=0
note_on channel=1 note=55 velocity=80 time=16
note_on channel=1 note=60 velocity=80 time=0
note_on channel=1 note=60 velocity=0 time=32
note_on channel=1 note=55 velocity=0 time=0
note_on channel=1 note=52 velocity=80 time=16
note_on channel=1 note=40 velocity=80 time=0
note_on channel=1 note=40 velocity=0 time=32
note_on channel=1 note=52 velocity=0 time=0
note_on channel=1 note=51 velocity=80 time=16
note_on channel=1 note=39 velocity=80 time=0
note_on channel=1 note=39 velocity=0 time=32
note_on channel=1 note=51 velocity=0 time=0
note_on channel=1 note=50 velocity=80 time=16
note_on channel=1 note=38 velocity=80 time=0
note_on channel=1 note=38 velocity=0 time=32
note_on channel=1 note=50 velocity=0 time=0
note_on channel=1 note=55 velocity=80 time=16
note_on channel=1 note=59 velocity=80 time=0
note_on channel=1 note=65 velocity=80 time=0
note_on channel=1 note=65 velocity=0 time=32
note_on channel=1 note=59 velocity=0 time=0
note_on channel=1 note=55 velocity=0 time=0
note_on channel=1 note=43 velocity=80 time=16
note_on channel=1 note=31 velocity=80 time=0
note_on channel=1 note=31 velocity=0 time=32
note_on channel=1 note=43 velocity=0 time=0
note_on channel=1 note=55 velocity=80 time=16
note_on channel=1 note=59 velocity=80 time=0
note_on channel=1 note=65 velocity=80 time=0
note_on channel=1 note=65 velocity=0 time=32
note_on channel=1 note=59 velocity=0 time=0
note_on channel=1 note=55 velocity=0 time=0
note_on channel=1 note=43 velocity=80 time=16
note_on channel=1 note=31 velocity=80 time=0
note_on channel=1 note=31 velocity=0 time=32
note_on channel=1 note=43 velocity=0 time=0
note_on channel=1 note=55 velocity=80 time=16
note_on channel=1 note=59 velocity=80 time=0
note_on channel=1 note=65 velocity=80 time=0
note_on channel=1 note=65 velocity=0 time=32
note_on channel=1 note=59 velocity=0 time=0
note_on channel=1 note=55 velocity=0 time=0
note_on channel=1 note=48 velocity=80 time=16
note_on channel=1 note=36 velocity=80 time=0
note_on channel=1 note=36 velocity=0 time=32
note_on channel=1 note=48 velocity=0 time=0
note_on channel=1 note=55 velocity=80 time=16
note_on channel=1 note=60 velocity=80 time=0
note_on channel=1 note=64 velocity=80 time=0
note_on channel=1 note=64 velocity=0 time=32
note_on channel=1 note=60 velocity=0 time=0
note_on channel=1 note=55 velocity=0 time=0
note_on channel=1 note=48 velocity=80 time=16
note_on channel=1 note=36 velocity=80 time=0
note_on channel=1 note=36 velocity=0 time=32
note_on channel=1 note=48 velocity=0 time=0
note_on channel=1 note=55 velocity=80 time=16
note_on channel=1 note=60 velocity=80 time=0
note_on channel=1 note=64 velocity=80 time=0
note_on channel=1 note=64 velocity=0 time=32
note_on channel=1 note=60 velocity=0 time=0
note_on channel=1 note=55 velocity=0 time=0
note_on channel=1 note=52 velocity=80 time=16
note_on channel=1 note=40 velocity=80 time=0
note_on channel=1 note=40 velocity=0 time=32
note_on channel=1 note=52 velocity=0 time=0
note_on channel=1 note=55 velocity=80 time=16
note_on channel=1 note=60 velocity=80 time=0
note_on channel=1 note=64 velocity=80 time=0
note_on channel=1 note=64 velocity=0 time=32
note_on channel=1 note=60 velocity=0 time=0
note_on channel=1 note=55 velocity=0 time=0
note_on channel=1 note=43 velocity=80 time=16
note_on channel=1 note=31 velocity=80 time=0
note_on channel=1 note=31 velocity=0 time=32
note_on channel=1 note=43 velocity=0 time=0
note_on channel=1 note=55 velocity=80 time=16
note_on channel=1 note=59 velocity=80 time=0
note_on channel=1 note=65 velocity=80 time=0
note_on channel=1 note=65 velocity=0 time=32
note_on channel=1 note=59 velocity=0 time=0
note_on channel=1 note=55 velocity=0 time=0
note_on channel=1 note=48 velocity=80 time=16
note_on channel=1 note=36 velocity=80 time=0
note_on channel=1 note=36 velocity=0 time=32
note_on channel=1 note=48 velocity=0 time=0
note_on channel=1 note=55 velocity=80 time=16
note_on channel=1 note=60 velocity=80 time=0
note_on channel=1 note=64 velocity=80 time=0
note_on channel=1 note=64 velocity=0 time=32
note_on channel=1 note=60 velocity=0 time=0
note_on channel=1 note=55 velocity=0 time=0
note_on channel=1 note=53 velocity=80 time=16
note_on channel=1 note=41 velocity=80 time=0
note_on channel=1 note=41 velocity=0 time=32
note_on channel=1 note=53 velocity=0 time=0
note_on channel=1 note=57 velocity=80 time=16
note_on channel=1 note=60 velocity=80 time=0
note_on channel=1 note=65 velocity=80 time=0
note_on channel=1 note=65 velocity=0 time=32
note_on channel=1 note=60 velocity=0 time=0
note_on channel=1 note=57 velocity=0 time=0
note_on channel=1 note=57 velocity=80 time=16
note_on channel=1 note=45 velocity=80 time=0
note_on channel=1 note=45 velocity=0 time=32
note_on channel=1 note=57 velocity=0 time=0
note_on channel=1 note=44 velocity=80 time=16
note_on channel=1 note=56 velocity=80 time=0
note_on channel=1 note=56 velocity=0 time=32
note_on channel=1 note=44 velocity=0 time=0
note_on channel=1 note=55 velocity=80 time=16
note_on channel=1 note=43 velocity=80 time=0
note_on channel=1 note=43 velocity=0 time=32
note_on channel=1 note=55 velocity=0 time=0
note_on channel=1 note=55 velocity=80 time=16
note_on channel=1 note=60 velocity=80 time=0
note_on channel=1 note=60 velocity=0 time=32
note_on channel=1 note=55 velocity=0 time=0
note_on channel=1 note=48 velocity=80 time=16
note_on channel=1 note=36 velocity=80 time=0
note_on channel=1 note=36 velocity=0 time=32
note_on channel=1 note=48 velocity=0 time=0
note_on channel=1 note=55 velocity=80 time=16
note_on channel=1 note=60 velocity=80 time=0
note_on channel=1 note=64 velocity=80 time=0
note_on channel=1 note=64 velocity=0 time=32
note_on channel=1 note=60 velocity=0 time=0
note_on channel=1 note=55 velocity=0 time=0
note_on channel=1 note=53 velocity=80 time=16
note_on channel=1 note=41 velocity=80 time=0
note_on channel=1 note=41 velocity=0 time=32
note_on channel=1 note=53 velocity=0 time=0
note_on channel=1 note=57 velocity=80 time=16
note_on channel=1 note=60 velocity=80 time=0
note_on channel=1 note=65 velocity=80 time=0
note_on channel=1 note=65 velocity=0 time=32
note_on channel=1 note=60 velocity=0 time=0
note_on channel=1 note=57 velocity=0 time=0
note_on channel=1 note=53 velocity=80 time=16
note_on channel=1 note=41 velocity=80 time=0
note_on channel=1 note=41 velocity=0 time=32
note_on channel=1 note=53 velocity=0 time=0
note_on channel=1 note=51 velocity=80 time=16
note_on channel=1 note=39 velocity=80 time=0
note_on channel=1 note=39 velocity=0 time=32
note_on channel=1 note=51 velocity=0 time=0
note_on channel=1 note=52 velocity=80 time=16
note_on channel=1 note=40 velocity=80 time=0
note_on channel=1 note=40 velocity=0 time=32
note_on channel=1 note=52 velocity=0 time=0
note_on channel=1 note=55 velocity=80 time=16
note_on channel=1 note=60 velocity=80 time=0
note_on channel=1 note=64 velocity=80 time=0
note_on channel=1 note=64 velocity=0 time=32
note_on channel=1 note=60 velocity=0 time=0
note_on channel=1 note=55 velocity=0 time=0
note_on channel=1 note=45 velocity=80 time=16
note_on channel=1 note=33 velocity=80 time=0
note_on channel=1 note=33 velocity=0 time=32
note_on channel=1 note=45 velocity=0 time=0
note_on channel=1 note=57 velocity=80 time=16
note_on channel=1 note=61 velocity=80 time=0
note_on channel=1 note=64 velocity=80 time=0
note_on channel=1 note=64 velocity=0 time=32
note_on channel=1 note=61 velocity=0 time=0
note_on channel=1 note=57 velocity=0 time=0
note_on channel=1 note=50 velocity=80 time=16
note_on channel=1 note=38 velocity=80 time=0
note_on channel=1 note=38 velocity=0 time=32
note_on channel=1 note=50 velocity=0 time=0
note_on channel=1 note=45 velocity=80 time=16
note_on channel=1 note=57 velocity=80 time=0
note_on channel=1 note=57 velocity=0 time=32
note_on channel=1 note=45 velocity=0 time=0
note_on channel=1 note=55 velocity=80 time=16
note_on channel=1 note=43 velocity=80 time=0
note_on channel=1 note=43 velocity=0 time=32
note_on channel=1 note=55 velocity=0 time=0
note_on channel=1 note=43 velocity=80 time=16
note_on channel=1 note=31 velocity=80 time=0
note_on channel=1 note=31 velocity=0 time=32
note_on channel=1 note=43 velocity=0 time=0
note_on channel=1 note=36 velocity=80 time=16
note_on channel=1 note=48 velocity=80 time=0
note_on channel=1 note=48 velocity=0 time=32
note_on channel=1 note=36 velocity=0 time=0
note_on channel=1 note=43 velocity=80 time=16
note_on channel=1 note=55 velocity=80 time=0
note_on channel=1 note=55 velocity=0 time=32
note_on channel=1 note=43 velocity=0 time=0
note_on channel=1 note=52 velocity=80 time=16
note_on channel=1 note=40 velocity=80 time=0
note_on channel=1 note=40 velocity=0 time=32
note_on channel=1 note=52 velocity=0 time=0
note_on channel=1 note=38 velocity=80 time=16
note_on channel=1 note=50 velocity=80 time=0
note_on channel=1 note=50 velocity=0 time=32
note_on channel=1 note=38 velocity=0 time=0
note_on channel=1 note=48 velocity=80 time=16
note_on channel=1 note=36 velocity=80 time=0
note_on channel=1 note=36 velocity=0 time=32
note_on channel=1 note=48 velocity=0 time=0
note_on channel=1 note=55 velocity=80 time=16
note_on channel=1 note=60 velocity=80 time=0
note_on channel=1 note=64 velocity=80 time=0
note_on channel=1 note=64 velocity=0 time=32
note_on channel=1 note=60 velocity=0 time=0
note_on channel=1 note=55 velocity=0 time=0
note_on channel=1 note=52 velocity=80 time=16
note_on channel=1 note=40 velocity=80 time=0
note_on channel=1 note=40 velocity=0 time=32
note_on channel=1 note=52 velocity=0 time=0
note_on channel=1 note=55 velocity=80 time=16
note_on channel=1 note=60 velocity=80 time=0
note_on channel=1 note=64 velocity=80 time=0
note_on channel=1 note=64 velocity=0 time=32
note_on channel=1 note=60 velocity=0 time=0
note_on channel=1 note=55 velocity=0 time=0
note_on channel=1 note=43 velocity=80 time=16
note_on channel=1 note=31 velocity=80 time=0
note_on channel=1 note=31 velocity=0 time=32
note_on channel=1 note=43 velocity=0 time=0
note_on channel=1 note=55 velocity=80 time=16
note_on channel=1 note=59 velocity=80 time=0
note_on channel=1 note=65 velocity=80 time=0
note_on channel=1 note=65 velocity=0 time=32
note_on channel=1 note=59 velocity=0 time=0
note_on channel=1 note=55 velocity=0 time=0
note_on channel=1 note=48 velocity=80 time=16
note_on channel=1 note=36 velocity=80 time=0
note_on channel=1 note=36 velocity=0 time=32
note_on channel=1 note=48 velocity=0 time=0
note_on channel=1 note=55 velocity=80 time=16
note_on channel=1 note=60 velocity=80 time=0
note_on channel=1 note=64 velocity=80 time=0
note_on channel=1 note=64 velocity=0 time=32
note_on channel=1 note=60 velocity=0 time=0
note_on channel=1 note=55 velocity=0 time=0
note_on channel=1 note=53 velocity=80 time=16
note_on channel=1 note=41 velocity=80 time=0
note_on channel=1 note=41 velocity=0 time=32
note_on channel=1 note=53 velocity=0 time=0
note_on channel=1 note=57 velocity=80 time=16
note_on channel=1 note=60 velocity=80 time=0
note_on channel=1 note=65 velocity=80 time=0
note_on channel=1 note=65 velocity=0 time=32
note_on channel=1 note=60 velocity=0 time=0
note_on channel=1 note=57 velocity=0 time=0
note_on channel=1 note=57 velocity=80 time=16
note_on channel=1 note=45 velocity=80 time=0
note_on channel=1 note=45 velocity=0 time=32
note_on channel=1 note=57 velocity=0 time=0
note_on channel=1 note=44 velocity=80 time=16
note_on channel=1 note=56 velocity=80 time=0
note_on channel=1 note=56 velocity=0 time=32
note_on channel=1 note=44 velocity=0 time=0
note_on channel=1 note=55 velocity=80 time=16
note_on channel=1 note=43 velocity=80 time=0
note_on channel=1 note=43 velocity=0 time=32
note_on channel=1 note=55 velocity=0 time=0
note_on channel=1 note=55 velocity=80 time=16
note_on channel=1 note=60 velocity=80 time=0
note_on channel=1 note=60 velocity=0 time=32
note_on channel=1 note=55 velocity=0 time=0
note_on channel=1 note=48 velocity=80 time=16
note_on channel=1 note=36 velocity=80 time=0
note_on channel=1 note=36 velocity=0 time=32
note_on channel=1 note=48 velocity=0 time=0
note_on channel=1 note=55 velocity=80 time=16
note_on channel=1 note=60 velocity=80 time=0
note_on channel=1 note=64 velocity=80 time=0
note_on channel=1 note=64 velocity=0 time=32
note_on channel=1 note=60 velocity=0 time=0
note_on channel=1 note=55 velocity=0 time=0
note_on channel=1 note=53 velocity=80 time=16
note_on channel=1 note=41 velocity=80 time=0
note_on channel=1 note=41 velocity=0 time=32
note_on channel=1 note=53 velocity=0 time=0
note_on channel=1 note=57 velocity=80 time=16
note_on channel=1 note=60 velocity=80 time=0
note_on channel=1 note=65 velocity=80 time=0
note_on channel=1 note=65 velocity=0 time=32
note_on channel=1 note=60 velocity=0 time=0
note_on channel=1 note=57 velocity=0 time=0
note_on channel=1 note=57 velocity=80 time=16
note_on channel=1 note=45 velocity=80 time=0
note_on channel=1 note=45 velocity=0 time=32
note_on channel=1 note=57 velocity=0 time=0
note_on channel=1 note=44 velocity=80 time=16
note_on channel=1 note=56 velocity=80 time=0
note_on channel=1 note=56 velocity=0 time=32
note_on channel=1 note=44 velocity=0 time=0
note_on channel=1 note=55 velocity=80 time=16
note_on channel=1 note=43 velocity=80 time=0
note_on channel=1 note=43 velocity=0 time=32
note_on channel=1 note=55 velocity=0 time=0
note_on channel=1 note=55 velocity=80 time=16
note_on channel=1 note=60 velocity=80 time=0
note_on channel=1 note=60 velocity=0 time=32
note_on channel=1 note=55 velocity=0 time=0
note_on channel=1 note=52 velocity=80 time=16
note_on channel=1 note=40 velocity=80 time=0
note_on channel=1 note=40 velocity=0 time=32
note_on channel=1 note=52 velocity=0 time=0
note_on channel=1 note=51 velocity=80 time=16
note_on channel=1 note=39 velocity=80 time=0
note_on channel=1 note=39 velocity=0 time=32
note_on channel=1 note=51 velocity=0 time=0
note_on channel=1 note=50 velocity=80 time=16
note_on channel=1 note=38 velocity=80 time=0
note_on channel=1 note=38 velocity=0 time=32
note_on channel=1 note=50 velocity=0 time=0
note_on channel=1 note=55 velocity=80 time=16
note_on channel=1 note=59 velocity=80 time=0
note_on channel=1 note=65 velocity=80 time=0
note_on channel=1 note=65 velocity=0 time=32
note_on channel=1 note=59 velocity=0 time=0
note_on channel=1 note=55 velocity=0 time=0
note_on channel=1 note=43 velocity=80 time=16
note_on channel=1 note=31 velocity=80 time=0
note_on channel=1 note=31 velocity=0 time=32
note_on channel=1 note=43 velocity=0 time=0
note_on channel=1 note=55 velocity=80 time=16
note_on channel=1 note=59 velocity=80 time=0
note_on channel=1 note=65 velocity=80 time=0
note_on channel=1 note=65 velocity=0 time=32
note_on channel=1 note=59 velocity=0 time=0
note_on channel=1 note=55 velocity=0 time=0
note_on channel=1 note=43 velocity=80 time=16
note_on channel=1 note=31 velocity=80 time=0
note_on channel=1 note=31 velocity=0 time=32
note_on channel=1 note=43 velocity=0 time=0
note_on channel=1 note=55 velocity=80 time=16
note_on channel=1 note=59 velocity=80 time=0
note_on channel=1 note=65 velocity=80 time=0
note_on channel=1 note=65 velocity=0 time=32
note_on channel=1 note=59 velocity=0 time=0
note_on channel=1 note=55 velocity=0 time=0
note_on channel=1 note=48 velocity=80 time=16
note_on channel=1 note=36 velocity=80 time=0
note_on channel=1 note=36 velocity=0 time=32
note_on channel=1 note=48 velocity=0 time=0
note_on channel=1 note=55 velocity=80 time=16
note_on channel=1 note=60 velocity=80 time=0
note_on channel=1 note=64 velocity=80 time=0
note_on channel=1 note=64 velocity=0 time=32
note_on channel=1 note=60 velocity=0 time=0
note_on channel=1 note=55 velocity=0 time=0
note_on channel=1 note=48 velocity=80 time=16
note_on channel=1 note=36 velocity=80 time=0
note_on channel=1 note=36 velocity=0 time=32
note_on channel=1 note=48 velocity=0 time=0
note_on channel=1 note=55 velocity=80 time=16
note_on channel=1 note=60 velocity=80 time=0
note_on channel=1 note=64 velocity=80 time=0
note_on channel=1 note=64 velocity=0 time=32
note_on channel=1 note=60 velocity=0 time=0
note_on channel=1 note=55 velocity=0 time=0
note_on channel=1 note=52 velocity=80 time=16
note_on channel=1 note=40 velocity=80 time=0
note_on channel=1 note=40 velocity=0 time=32
note_on channel=1 note=52 velocity=0 time=0
note_on channel=1 note=55 velocity=80 time=16
note_on channel=1 note=60 velocity=80 time=0
note_on channel=1 note=64 velocity=80 time=0
note_on channel=1 note=64 velocity=0 time=32
note_on channel=1 note=60 velocity=0 time=0
note_on channel=1 note=55 velocity=0 time=0
note_on channel=1 note=43 velocity=80 time=16
note_on channel=1 note=31 velocity=80 time=0
note_on channel=1 note=31 velocity=0 time=32
note_on channel=1 note=43 velocity=0 time=0
note_on channel=1 note=55 velocity=80 time=16
note_on channel=1 note=59 velocity=80 time=0
note_on channel=1 note=65 velocity=80 time=0
note_on channel=1 note=65 velocity=0 time=32
note_on channel=1 note=59 velocity=0 time=0
note_on channel=1 note=55 velocity=0 time=0
note_on channel=1 note=48 velocity=80 time=16
note_on channel=1 note=36 velocity=80 time=0
note_on channel=1 note=36 velocity=0 time=32
note_on channel=1 note=48 velocity=0 time=0
note_on channel=1 note=55 velocity=80 time=16
note_on channel=1 note=60 velocity=80 time=0
note_on channel=1 note=64 velocity=80 time=0
note_on channel=1 note=64 velocity=0 time=32
note_on channel=1 note=60 velocity=0 time=0
note_on channel=1 note=55 velocity=0 time=0
note_on channel=1 note=53 velocity=80 time=16
note_on channel=1 note=41 velocity=80 time=0
note_on channel=1 note=41 velocity=0 time=32
note_on channel=1 note=53 velocity=0 time=0
note_on channel=1 note=57 velocity=80 time=16
note_on channel=1 note=60 velocity=80 time=0
note_on channel=1 note=65 velocity=80 time=0
note_on channel=1 note=65 velocity=0 time=32
note_on channel=1 note=60 velocity=0 time=0
note_on channel=1 note=57 velocity=0 time=0
note_on channel=1 note=57 velocity=80 time=16
note_on channel=1 note=45 velocity=80 time=0
note_on channel=1 note=45 velocity=0 time=32
note_on channel=1 note=57 velocity=0 time=0
note_on channel=1 note=44 velocity=80 time=16
note_on channel=1 note=56 velocity=80 time=0
note_on channel=1 note=56 velocity=0 time=32
note_on channel=1 note=44 velocity=0 time=0
note_on channel=1 note=55 velocity=80 time=16
note_on channel=1 note=43 velocity=80 time=0
note_on channel=1 note=43 velocity=0 time=32
note_on channel=1 note=55 velocity=0 time=0
note_on channel=1 note=55 velocity=80 time=16
note_on channel=1 note=60 velocity=80 time=0
note_on channel=1 note=60 velocity=0 time=32
note_on channel=1 note=55 velocity=0 time=0
note_on channel=1 note=48 velocity=80 time=16
note_on channel=1 note=36 velocity=80 time=0
note_on channel=1 note=36 velocity=0 time=32
note_on channel=1 note=48 velocity=0 time=0
note_on channel=1 note=55 velocity=80 time=16
note_on channel=1 note=60 velocity=80 time=0
note_on channel=1 note=64 velocity=80 time=0
note_on channel=1 note=64 velocity=0 time=32
note_on channel=1 note=60 velocity=0 time=0
note_on channel=1 note=55 velocity=0 time=0
note_on channel=1 note=53 velocity=80 time=16
note_on channel=1 note=41 velocity=80 time=0
note_on channel=1 note=41 velocity=0 time=32
note_on channel=1 note=53 velocity=0 time=0
note_on channel=1 note=57 velocity=80 time=16
note_on channel=1 note=60 velocity=80 time=0
note_on channel=1 note=65 velocity=80 time=0
note_on channel=1 note=65 velocity=0 time=32
note_on channel=1 note=60 velocity=0 time=0
note_on channel=1 note=57 velocity=0 time=0
note_on channel=1 note=53 velocity=80 time=16
note_on channel=1 note=41 velocity=80 time=0
note_on channel=1 note=41 velocity=0 time=32
note_on channel=1 note=53 velocity=0 time=0
note_on channel=1 note=51 velocity=80 time=16
note_on channel=1 note=39 velocity=80 time=0
note_on channel=1 note=39 velocity=0 time=32
note_on channel=1 note=51 velocity=0 time=0
note_on channel=1 note=52 velocity=80 time=16
note_on channel=1 note=40 velocity=80 time=0
note_on channel=1 note=40 velocity=0 time=32
note_on channel=1 note=52 velocity=0 time=0
note_on channel=1 note=55 velocity=80 time=16
note_on channel=1 note=60 velocity=80 time=0
note_on channel=1 note=64 velocity=80 time=0
note_on channel=1 note=64 velocity=0 time=32
note_on channel=1 note=60 velocity=0 time=0
note_on channel=1 note=55 velocity=0 time=0
note_on channel=1 note=45 velocity=80 time=16
note_on channel=1 note=33 velocity=80 time=0
note_on channel=1 note=33 velocity=0 time=32
note_on channel=1 note=45 velocity=0 time=0
note_on channel=1 note=57 velocity=80 time=16
note_on channel=1 note=61 velocity=80 time=0
note_on channel=1 note=64 velocity=80 time=0
note_on channel=1 note=64 velocity=0 time=32
note_on channel=1 note=61 velocity=0 time=0
note_on channel=1 note=57 velocity=0 time=0
note_on channel=1 note=50 velocity=80 time=16
note_on channel=1 note=38 velocity=80 time=0
note_on channel=1 note=38 velocity=0 time=32
note_on channel=1 note=50 velocity=0 time=0
note_on channel=1 note=45 velocity=80 time=16
note_on channel=1 note=57 velocity=80 time=0
note_on channel=1 note=57 velocity=0 time=32
note_on channel=1 note=45 velocity=0 time=0
note_on channel=1 note=55 velocity=80 time=16
note_on channel=1 note=43 velocity=80 time=0
note_on channel=1 note=43 velocity=0 time=32
note_on channel=1 note=55 velocity=0 time=0
note_on channel=1 note=43 velocity=80 time=16
note_on channel=1 note=31 velocity=80 time=0
note_on channel=1 note=31 velocity=0 time=32
note_on channel=1 note=43 velocity=0 time=0
note_on channel=1 note=36 velocity=80 time=16
note_on channel=1 note=48 velocity=80 time=0
note_on channel=1 note=48 velocity=0 time=32
note_on channel=1 note=36 velocity=0 time=0
note_on channel=1 note=43 velocity=80 time=16
note_on channel=1 note=55 velocity=80 time=0
note_on channel=1 note=55 velocity=0 time=32
note_on channel=1 note=43 velocity=0 time=0
note_on channel=1 note=52 velocity=80 time=16
note_on channel=1 note=40 velocity=80 time=0
note_on channel=1 note=40 velocity=0 time=32
note_on channel=1 note=52 velocity=0 time=0
note_on channel=1 note=39 velocity=80 time=16
note_on channel=1 note=51 velocity=80 time=0
note_on channel=1 note=51 velocity=0 time=32
note_on channel=1 note=39 velocity=0 time=0
note_on channel=1 note=50 velocity=80 time=16
note_on channel=1 note=38 velocity=80 time=0
note_on channel=1 note=38 velocity=0 time=32
note_on channel=1 note=50 velocity=0 time=0
note_on channel=1 note=55 velocity=80 time=16
note_on channel=1 note=59 velocity=80 time=0
note_on channel=1 note=65 velocity=80 time=0
note_on channel=1 note=65 velocity=0 time=32
note_on channel=1 note=59 velocity=0 time=0
note_on channel=1 note=55 velocity=0 time=0
note_on channel=1 note=43 velocity=80 time=16
note_on channel=1 note=31 velocity=80 time=0
note_on channel=1 note=31 velocity=0 time=32
note_on channel=1 note=43 velocity=0 time=0
note_on channel=1 note=55 velocity=80 time=16
note_on channel=1 note=59 velocity=80 time=0
note_on channel=1 note=65 velocity=80 time=0
note_on channel=1 note=65 velocity=0 time=32
note_on channel=1 note=59 velocity=0 time=0
note_on channel=1 note=55 velocity=0 time=0
note_on channel=1 note=50 velocity=80 time=16
note_on channel=1 note=38 velocity=80 time=0
note_on channel=1 note=38 velocity=0 time=32
note_on channel=1 note=50 velocity=0 time=0
note_on channel=1 note=55 velocity=80 time=16
note_on channel=1 note=59 velocity=80 time=0
note_on channel=1 note=65 velocity=80 time=0
note_on channel=1 note=65 velocity=0 time=32
note_on channel=1 note=59 velocity=0 time=0
note_on channel=1 note=55 velocity=0 time=0
note_on channel=1 note=50 velocity=80 time=16
note_on channel=1 note=38 velocity=80 time=0
note_on channel=1 note=38 velocity=0 time=32
note_on channel=1 note=50 velocity=0 time=0
note_on channel=1 note=39 velocity=80 time=16
note_on channel=1 note=51 velocity=80 time=0
note_on channel=1 note=51 velocity=0 time=32
note_on channel=1 note=39 velocity=0 time=0
note_on channel=1 note=52 velocity=80 time=16
note_on channel=1 note=40 velocity=80 time=0
note_on channel=1 note=40 velocity=0 time=32
note_on channel=1 note=52 velocity=0 time=0
note_on channel=1 note=55 velocity=80 time=16
note_on channel=1 note=60 velocity=80 time=0
note_on channel=1 note=64 velocity=80 time=0
note_on channel=1 note=64 velocity=0 time=32
note_on channel=1 note=60 velocity=0 time=0
note_on channel=1 note=55 velocity=0 time=0
note_on channel=1 note=43 velocity=80 time=16
note_on channel=1 note=31 velocity=80 time=0
note_on channel=1 note=31 velocity=0 time=32
note_on channel=1 note=43 velocity=0 time=0
note_on channel=1 note=55 velocity=80 time=16
note_on channel=1 note=60 velocity=80 time=0
note_on channel=1 note=64 velocity=80 time=0
note_on channel=1 note=64 velocity=0 time=32
note_on channel=1 note=60 velocity=0 time=0
note_on channel=1 note=55 velocity=0 time=0
note_on channel=1 note=48 velocity=80 time=16
note_on channel=1 note=36 velocity=80 time=0
note_on channel=1 note=36 velocity=0 time=32
note_on channel=1 note=48 velocity=0 time=0
note_on channel=1 note=55 velocity=80 time=16
note_on channel=1 note=60 velocity=80 time=0
note_on channel=1 note=64 velocity=80 time=0
note_on channel=1 note=64 velocity=0 time=32
note_on channel=1 note=60 velocity=0 time=0
note_on channel=1 note=55 velocity=0 time=0
note_on channel=1 note=48 velocity=80 time=16
note_on channel=1 note=36 velocity=80 time=0
note_on channel=1 note=36 velocity=0 time=32
note_on channel=1 note=48 velocity=0 time=0
note_on channel=1 note=37 velocity=80 time=16
note_on channel=1 note=49 velocity=80 time=0
note_on channel=1 note=49 velocity=0 time=32
note_on channel=1 note=37 velocity=0 time=0
note_on channel=1 note=50 velocity=80 time=16
note_on channel=1 note=38 velocity=80 time=0
note_on channel=1 note=38 velocity=0 time=32
note_on channel=1 note=50 velocity=0 time=0
note_on channel=1 note=55 velocity=80 time=16
note_on channel=1 note=59 velocity=80 time=0
note_on channel=1 note=65 velocity=80 time=0
note_on channel=1 note=65 velocity=0 time=32
note_on channel=1 note=59 velocity=0 time=0
note_on channel=1 note=55 velocity=0 time=0
note_on channel=1 note=43 velocity=80 time=16
note_on channel=1 note=31 velocity=80 time=0
note_on channel=1 note=31 velocity=0 time=32
note_on channel=1 note=43 velocity=0 time=0
note_on channel=1 note=55 velocity=80 time=16
note_on channel=1 note=59 velocity=80 time=0
note_on channel=1 note=65 velocity=80 time=0
note_on channel=1 note=65 velocity=0 time=32
note_on channel=1 note=59 velocity=0 time=0
note_on channel=1 note=55 velocity=0 time=0
note_on channel=1 note=47 velocity=80 time=16
note_on channel=1 note=35 velocity=80 time=0
note_on channel=1 note=35 velocity=0 time=32
note_on channel=1 note=47 velocity=0 time=0
note_on channel=1 note=55 velocity=80 time=16
note_on channel=1 note=59 velocity=80 time=0
note_on channel=1 note=65 velocity=80 time=0
note_on channel=1 note=65 velocity=0 time=32
note_on channel=1 note=59 velocity=0 time=0
note_on channel=1 note=55 velocity=0 time=0
note_on channel=1 note=43 velocity=80 time=16
note_on channel=1 note=31 velocity=80 time=0
note_on channel=1 note=31 velocity=0 time=32
note_on channel=1 note=43 velocity=0 time=0
note_on channel=1 note=55 velocity=80 time=16
note_on channel=1 note=59 velocity=80 time=0
note_on channel=1 note=65 velocity=80 time=0
note_on channel=1 note=65 velocity=0 time=32
note_on channel=1 note=59 velocity=0 time=0
note_on channel=1 note=55 velocity=0 time=0
note_on channel=1 note=48 velocity=80 time=16
note_on channel=1 note=36 velocity=80 time=0
note_on channel=1 note=36 velocity=0 time=32
note_on channel=1 note=48 velocity=0 time=0
note_on channel=1 note=55 velocity=80 time=16
note_on channel=1 note=60 velocity=80 time=0
note_on channel=1 note=64 velocity=80 time=0
note_on channel=1 note=64 velocity=0 time=32
note_on channel=1 note=60 velocity=0 time=0
note_on channel=1 note=55 velocity=0 time=0
note_on channel=1 note=43 velocity=80 time=16
note_on channel=1 note=31 velocity=80 time=0
note_on channel=1 note=31 velocity=0 time=32
note_on channel=1 note=43 velocity=0 time=0
note_on channel=1 note=55 velocity=80 time=16
note_on channel=1 note=60 velocity=80 time=0
note_on channel=1 note=64 velocity=80 time=0
note_on channel=1 note=64 velocity=0 time=32
note_on channel=1 note=60 velocity=0 time=0
note_on channel=1 note=55 velocity=0 time=0
note_on channel=1 note=48 velocity=80 time=16
note_on channel=1 note=36 velocity=80 time=0
note_on channel=1 note=36 velocity=0 time=32
note_on channel=1 note=48 velocity=0 time=0
note_on channel=1 note=55 velocity=80 time=16
note_on channel=1 note=60 velocity=80 time=0
note_on channel=1 note=64 velocity=80 time=0
note_on channel=1 note=64 velocity=0 time=32
note_on channel=1 note=60 velocity=0 time=0
note_on channel=1 note=55 velocity=0 time=0
note_on channel=1 note=52 velocity=80 time=16
note_on channel=1 note=40 velocity=80 time=0
note_on channel=1 note=40 velocity=0 time=32
note_on channel=1 note=52 velocity=0 time=0
note_on channel=1 note=55 velocity=80 time=16
note_on channel=1 note=60 velocity=80 time=0
note_on channel=1 note=64 velocity=80 time=0
note_on channel=1 note=64 velocity=0 time=32
note_on channel=1 note=60 velocity=0 time=0
note_on channel=1 note=55 velocity=0 time=0
note_on channel=1 note=50 velocity=80 time=16
note_on channel=1 note=38 velocity=80 time=0
note_on channel=1 note=38 velocity=0 time=32
note_on channel=1 note=50 velocity=0 time=0
note_on channel=1 note=55 velocity=80 time=16
note_on channel=1 note=59 velocity=80 time=0
note_on channel=1 note=65 velocity=80 time=0
note_on channel=1 note=65 velocity=0 time=32
note_on channel=1 note=59 velocity=0 time=0
note_on channel=1 note=55 velocity=0 time=0
note_on channel=1 note=43 velocity=80 time=16
note_on channel=1 note=31 velocity=80 time=0
note_on channel=1 note=31 velocity=0 time=32
note_on channel=1 note=43 velocity=0 time=0
note_on channel=1 note=55 velocity=80 time=16
note_on channel=1 note=59 velocity=80 time=0
note_on channel=1 note=65 velocity=80 time=0
note_on channel=1 note=65 velocity=0 time=32
note_on channel=1 note=59 velocity=0 time=0
note_on channel=1 note=55 velocity=0 time=0
note_on channel=1 note=50 velocity=80 time=16
note_on channel=1 note=38 velocity=80 time=0
note_on channel=1 note=38 velocity=0 time=32
note_on channel=1 note=50 velocity=0 time=0
note_on channel=1 note=55 velocity=80 time=16
note_on channel=1 note=59 velocity=80 time=0
note_on channel=1 note=65 velocity=80 time=0
note_on channel=1 note=65 velocity=0 time=32
note_on channel=1 note=59 velocity=0 time=0
note_on channel=1 note=55 velocity=0 time=0
note_on channel=1 note=50 velocity=80 time=16
note_on channel=1 note=38 velocity=80 time=0
note_on channel=1 note=38 velocity=0 time=32
note_on channel=1 note=50 velocity=0 time=0
note_on channel=1 note=39 velocity=80 time=16
note_on channel=1 note=51 velocity=80 time=0
note_on channel=1 note=51 velocity=0 time=32
note_on channel=1 note=39 velocity=0 time=0
note_on channel=1 note=52 velocity=80 time=16
note_on channel=1 note=40 velocity=80 time=0
note_on channel=1 note=40 velocity=0 time=32
note_on channel=1 note=52 velocity=0 time=0
note_on channel=1 note=55 velocity=80 time=16
note_on channel=1 note=60 velocity=80 time=0
note_on channel=1 note=64 velocity=80 time=0
note_on channel=1 note=64 velocity=0 time=32
note_on channel=1 note=60 velocity=0 time=0
note_on channel=1 note=55 velocity=0 time=0
note_on channel=1 note=43 velocity=80 time=16
note_on channel=1 note=31 velocity=80 time=0
note_on channel=1 note=31 velocity=0 time=32
note_on channel=1 note=43 velocity=0 time=0
note_on channel=1 note=55 velocity=80 time=16
note_on channel=1 note=60 velocity=80 time=0
note_on channel=1 note=64 velocity=80 time=0
note_on channel=1 note=64 velocity=0 time=32
note_on channel=1 note=60 velocity=0 time=0
note_on channel=1 note=55 velocity=0 time=0
note_on channel=1 note=48 velocity=80 time=16
note_on channel=1 note=36 velocity=80 time=0
note_on channel=1 note=36 velocity=0 time=32
note_on channel=1 note=48 velocity=0 time=0
note_on channel=1 note=55 velocity=80 time=16
note_on channel=1 note=60 velocity=80 time=0
note_on channel=1 note=64 velocity=80 time=0
note_on channel=1 note=64 velocity=0 time=32
note_on channel=1 note=60 velocity=0 time=0
note_on channel=1 note=55 velocity=0 time=0
note_on channel=1 note=52 velocity=80 time=16
note_on channel=1 note=40 velocity=80 time=0
note_on channel=1 note=40 velocity=0 time=32
note_on channel=1 note=52 velocity=0 time=0
note_on channel=1 note=55 velocity=80 time=16
note_on channel=1 note=60 velocity=80 time=0
note_on channel=1 note=64 velocity=80 time=0
note_on channel=1 note=64 velocity=0 time=32
note_on channel=1 note=60 velocity=0 time=0
note_on channel=1 note=55 velocity=0 time=0
note_on channel=1 note=53 velocity=80 time=16
note_on channel=1 note=41 velocity=80 time=0
note_on channel=1 note=41 velocity=0 time=32
note_on channel=1 note=53 velocity=0 time=0
note_on channel=1 note=57 velocity=80 time=16
note_on channel=1 note=60 velocity=80 time=0
note_on channel=1 note=65 velocity=80 time=0
note_on channel=1 note=65 velocity=0 time=32
note_on channel=1 note=60 velocity=0 time=0
note_on channel=1 note=57 velocity=0 time=0
note_on channel=1 note=53 velocity=80 time=16
note_on channel=1 note=41 velocity=80 time=0
note_on channel=1 note=41 velocity=0 time=32
note_on channel=1 note=53 velocity=0 time=0
note_on channel=1 note=51 velocity=80 time=16
note_on channel=1 note=39 velocity=80 time=0
note_on channel=1 note=39 velocity=0 time=32
note_on channel=1 note=51 velocity=0 time=0
note_on channel=1 note=52 velocity=80 time=16
note_on channel=1 note=40 velocity=80 time=0
note_on channel=1 note=40 velocity=0 time=32
note_on channel=1 note=52 velocity=0 time=0
note_on channel=1 note=55 velocity=80 time=16
note_on channel=1 note=60 velocity=80 time=0
note_on channel=1 note=64 velocity=80 time=0
note_on channel=1 note=64 velocity=0 time=32
note_on channel=1 note=60 velocity=0 time=0
note_on channel=1 note=55 velocity=0 time=0
note_on channel=1 note=45 velocity=80 time=16
note_on channel=1 note=33 velocity=80 time=0
note_on channel=1 note=33 velocity=0 time=32
note_on channel=1 note=45 velocity=0 time=0
note_on channel=1 note=57 velocity=80 time=16
note_on channel=1 note=61 velocity=80 time=0
note_on channel=1 note=64 velocity=80 time=0
note_on channel=1 note=64 velocity=0 time=32
note_on channel=1 note=61 velocity=0 time=0
note_on channel=1 note=57 velocity=0 time=0
note_on channel=1 note=50 velocity=80 time=16
note_on channel=1 note=38 velocity=80 time=0
note_on channel=1 note=38 velocity=0 time=32
note_on channel=1 note=50 velocity=0 time=0
note_on channel=1 note=45 velocity=80 time=16
note_on channel=1 note=57 velocity=80 time=0
note_on channel=1 note=57 velocity=0 time=32
note_on channel=1 note=45 velocity=0 time=0
note_on channel=1 note=55 velocity=80 time=16
note_on channel=1 note=43 velocity=80 time=0
note_on channel=1 note=43 velocity=0 time=32
note_on channel=1 note=55 velocity=0 time=0
note_on channel=1 note=43 velocity=80 time=16
note_on channel=1 note=31 velocity=80 time=0
note_on channel=1 note=31 velocity=0 time=32
note_on channel=1 note=43 velocity=0 time=0
note_on channel=1 note=36 velocity=80 time=16
note_on channel=1 note=48 velocity=80 time=0
note_on channel=1 note=48 velocity=0 time=32
note_on channel=1 note=36 velocity=0 time=0
note_on channel=1 note=43 velocity=80 time=16
note_on channel=1 note=55 velocity=80 time=0
note_on channel=1 note=55 velocity=0 time=32
note_on channel=1 note=43 velocity=0 time=0
note_on channel=1 note=52 velocity=80 time=16
note_on channel=1 note=40 velocity=80 time=0
note_on channel=1 note=40 velocity=0 time=32
note_on channel=1 note=52 velocity=0 time=0
note_on channel=1 note=39 velocity=80 time=16
note_on channel=1 note=51 velocity=80 time=0
note_on channel=1 note=51 velocity=0 time=32
note_on channel=1 note=39 velocity=0 time=0
note_on channel=1 note=50 velocity=80 time=16
note_on channel=1 note=38 velocity=80 time=0
note_on channel=1 note=38 velocity=0 time=32
note_on channel=1 note=50 velocity=0 time=0
note_on channel=1 note=55 velocity=80 time=16
note_on channel=1 note=59 velocity=80 time=0
note_on channel=1 note=65 velocity=80 time=0
note_on channel=1 note=65 velocity=0 time=32
note_on channel=1 note=59 velocity=0 time=0
note_on channel=1 note=55 velocity=0 time=0
note_on channel=1 note=43 velocity=80 time=16
note_on channel=1 note=31 velocity=80 time=0
note_on channel=1 note=31 velocity=0 time=32
note_on channel=1 note=43 velocity=0 time=0
note_on channel=1 note=55 velocity=80 time=16
note_on channel=1 note=59 velocity=80 time=0
note_on channel=1 note=65 velocity=80 time=0
note_on channel=1 note=65 velocity=0 time=32
note_on channel=1 note=59 velocity=0 time=0
note_on channel=1 note=55 velocity=0 time=0
note_on channel=1 note=50 velocity=80 time=16
note_on channel=1 note=38 velocity=80 time=0
note_on channel=1 note=38 velocity=0 time=32
note_on channel=1 note=50 velocity=0 time=0
note_on channel=1 note=55 velocity=80 time=16
note_on channel=1 note=59 velocity=80 time=0
note_on channel=1 note=65 velocity=80 time=0
note_on channel=1 note=65 velocity=0 time=32
note_on channel=1 note=59 velocity=0 time=0
note_on channel=1 note=55 velocity=0 time=0
note_on channel=1 note=50 velocity=80 time=16
note_on channel=1 note=38 velocity=80 time=0
note_on channel=1 note=38 velocity=0 time=32
note_on channel=1 note=50 velocity=0 time=0
note_on channel=1 note=39 velocity=80 time=16
note_on channel=1 note=51 velocity=80 time=0
note_on channel=1 note=51 velocity=0 time=32
note_on channel=1 note=39 velocity=0 time=0
note_on channel=1 note=52 velocity=80 time=16
note_on channel=1 note=40 velocity=80 time=0
note_on channel=1 note=40 velocity=0 time=32
note_on channel=1 note=52 velocity=0 time=0
note_on channel=1 note=55 velocity=80 time=16
note_on channel=1 note=60 velocity=80 time=0
note_on channel=1 note=64 velocity=80 time=0
note_on channel=1 note=64 velocity=0 time=32
note_on channel=1 note=60 velocity=0 time=0
note_on channel=1 note=55 velocity=0 time=0
note_on channel=1 note=43 velocity=80 time=16
note_on channel=1 note=31 velocity=80 time=0
note_on channel=1 note=31 velocity=0 time=32
note_on channel=1 note=43 velocity=0 time=0
note_on channel=1 note=55 velocity=80 time=16
note_on channel=1 note=60 velocity=80 time=0
note_on channel=1 note=64 velocity=80 time=0
note_on channel=1 note=64 velocity=0 time=32
note_on channel=1 note=60 velocity=0 time=0
note_on channel=1 note=55 velocity=0 time=0
note_on channel=1 note=48 velocity=80 time=16
note_on channel=1 note=36 velocity=80 time=0
note_on channel=1 note=36 velocity=0 time=32
note_on channel=1 note=48 velocity=0 time=0
note_on channel=1 note=55 velocity=80 time=16
note_on channel=1 note=60 velocity=80 time=0
note_on channel=1 note=64 velocity=80 time=0
note_on channel=1 note=64 velocity=0 time=32
note_on channel=1 note=60 velocity=0 time=0
note_on channel=1 note=55 velocity=0 time=0
note_on channel=1 note=48 velocity=80 time=16
note_on channel=1 note=36 velocity=80 time=0
note_on channel=1 note=36 velocity=0 time=32
note_on channel=1 note=48 velocity=0 time=0
note_on channel=1 note=37 velocity=80 time=16
note_on channel=1 note=49 velocity=80 time=0
note_on channel=1 note=49 velocity=0 time=32
note_on channel=1 note=37 velocity=0 time=0
note_on channel=1 note=50 velocity=80 time=16
note_on channel=1 note=38 velocity=80 time=0
note_on channel=1 note=38 velocity=0 time=32
note_on channel=1 note=50 velocity=0 time=0
note_on channel=1 note=55 velocity=80 time=16
note_on channel=1 note=59 velocity=80 time=0
note_on channel=1 note=65 velocity=80 time=0
note_on channel=1 note=65 velocity=0 time=32
note_on channel=1 note=59 velocity=0 time=0
note_on channel=1 note=55 velocity=0 time=0
note_on channel=1 note=43 velocity=80 time=16
note_on channel=1 note=31 velocity=80 time=0
note_on channel=1 note=31 velocity=0 time=32
note_on channel=1 note=43 velocity=0 time=0
note_on channel=1 note=55 velocity=80 time=16
note_on channel=1 note=59 velocity=80 time=0
note_on channel=1 note=65 velocity=80 time=0
note_on channel=1 note=65 velocity=0 time=32
note_on channel=1 note=59 velocity=0 time=0
note_on channel=1 note=55 velocity=0 time=0
note_on channel=1 note=47 velocity=80 time=16
note_on channel=1 note=35 velocity=80 time=0
note_on channel=1 note=35 velocity=0 time=32
note_on channel=1 note=47 velocity=0 time=0
note_on channel=1 note=55 velocity=80 time=16
note_on channel=1 note=59 velocity=80 time=0
note_on channel=1 note=65 velocity=80 time=0
note_on channel=1 note=65 velocity=0 time=32
note_on channel=1 note=59 velocity=0 time=0
note_on channel=1 note=55 velocity=0 time=0
note_on channel=1 note=43 velocity=80 time=16
note_on channel=1 note=31 velocity=80 time=0
note_on channel=1 note=31 velocity=0 time=32
note_on channel=1 note=43 velocity=0 time=0
note_on channel=1 note=55 velocity=80 time=16
note_on channel=1 note=59 velocity=80 time=0
note_on channel=1 note=65 velocity=80 time=0
note_on channel=1 note=65 velocity=0 time=32
note_on channel=1 note=59 velocity=0 time=0
note_on channel=1 note=55 velocity=0 time=0
note_on channel=1 note=48 velocity=80 time=16
note_on channel=1 note=36 velocity=80 time=0
note_on channel=1 note=36 velocity=0 time=32
note_on channel=1 note=48 velocity=0 time=0
note_on channel=1 note=55 velocity=80 time=16
note_on channel=1 note=60 velocity=80 time=0
note_on channel=1 note=64 velocity=80 time=0
note_on channel=1 note=64 velocity=0 time=32
note_on channel=1 note=60 velocity=0 time=0
note_on channel=1 note=55 velocity=0 time=0
note_on channel=1 note=43 velocity=80 time=16
note_on channel=1 note=31 velocity=80 time=0
note_on channel=1 note=31 velocity=0 time=32
note_on channel=1 note=43 velocity=0 time=0
note_on channel=1 note=55 velocity=80 time=16
note_on channel=1 note=60 velocity=80 time=0
note_on channel=1 note=64 velocity=80 time=0
note_on channel=1 note=64 velocity=0 time=32
note_on channel=1 note=60 velocity=0 time=0
note_on channel=1 note=55 velocity=0 time=0
note_on channel=1 note=48 velocity=80 time=16
note_on channel=1 note=36 velocity=80 time=0
note_on channel=1 note=36 velocity=0 time=32
note_on channel=1 note=48 velocity=0 time=0
note_on channel=1 note=55 velocity=80 time=16
note_on channel=1 note=60 velocity=80 time=0
note_on channel=1 note=64 velocity=80 time=0
note_on channel=1 note=64 velocity=0 time=32
note_on channel=1 note=60 velocity=0 time=0
note_on channel=1 note=55 velocity=0 time=0
note_on channel=1 note=52 velocity=80 time=16
note_on channel=1 note=40 velocity=80 time=0
note_on channel=1 note=40 velocity=0 time=32
note_on channel=1 note=52 velocity=0 time=0
note_on channel=1 note=55 velocity=80 time=16
note_on channel=1 note=60 velocity=80 time=0
note_on channel=1 note=64 velocity=80 time=0
note_on channel=1 note=64 velocity=0 time=32
note_on channel=1 note=60 velocity=0 time=0
note_on channel=1 note=55 velocity=0 time=0
note_on channel=1 note=50 velocity=80 time=16
note_on channel=1 note=38 velocity=80 time=0
note_on channel=1 note=38 velocity=0 time=32
note_on channel=1 note=50 velocity=0 time=0
note_on channel=1 note=55 velocity=80 time=16
note_on channel=1 note=59 velocity=80 time=0
note_on channel=1 note=65 velocity=80 time=0
note_on channel=1 note=65 velocity=0 time=32
note_on channel=1 note=59 velocity=0 time=0
note_on channel=1 note=55 velocity=0 time=0
note_on channel=1 note=43 velocity=80 time=16
note_on channel=1 note=31 velocity=80 time=0
note_on channel=1 note=31 velocity=0 time=32
note_on channel=1 note=43 velocity=0 time=0
note_on channel=1 note=55 velocity=80 time=16
note_on channel=1 note=59 velocity=80 time=0
note_on channel=1 note=65 velocity=80 time=0
note_on channel=1 note=65 velocity=0 time=32
note_on channel=1 note=59 velocity=0 time=0
note_on channel=1 note=55 velocity=0 time=0
note_on channel=1 note=50 velocity=80 time=16
note_on channel=1 note=38 velocity=80 time=0
note_on channel=1 note=38 velocity=0 time=32
note_on channel=1 note=50 velocity=0 time=0
note_on channel=1 note=55 velocity=80 time=16
note_on channel=1 note=59 velocity=80 time=0
note_on channel=1 note=65 velocity=80 time=0
note_on channel=1 note=65 velocity=0 time=32
note_on channel=1 note=59 velocity=0 time=0
note_on channel=1 note=55 velocity=0 time=0
note_on channel=1 note=50 velocity=80 time=16
note_on channel=1 note=38 velocity=80 time=0
note_on channel=1 note=38 velocity=0 time=32
note_on channel=1 note=50 velocity=0 time=0
note_on channel=1 note=39 velocity=80 time=16
note_on channel=1 note=51 velocity=80 time=0
note_on channel=1 note=51 velocity=0 time=32
note_on channel=1 note=39 velocity=0 time=0
note_on channel=1 note=52 velocity=80 time=16
note_on channel=1 note=40 velocity=80 time=0
note_on channel=1 note=40 velocity=0 time=32
note_on channel=1 note=52 velocity=0 time=0
note_on channel=1 note=55 velocity=80 time=16
note_on channel=1 note=60 velocity=80 time=0
note_on channel=1 note=64 velocity=80 time=0
note_on channel=1 note=64 velocity=0 time=32
note_on channel=1 note=60 velocity=0 time=0
note_on channel=1 note=55 velocity=0 time=0
note_on channel=1 note=43 velocity=80 time=16
note_on channel=1 note=31 velocity=80 time=0
note_on channel=1 note=31 velocity=0 time=32
note_on channel=1 note=43 velocity=0 time=0
note_on channel=1 note=55 velocity=80 time=16
note_on channel=1 note=60 velocity=80 time=0
note_on channel=1 note=64 velocity=80 time=0
note_on channel=1 note=64 velocity=0 time=32
note_on channel=1 note=60 velocity=0 time=0
note_on channel=1 note=55 velocity=0 time=0
note_on channel=1 note=48 velocity=80 time=16
note_on channel=1 note=36 velocity=80 time=0
note_on channel=1 note=36 velocity=0 time=32
note_on channel=1 note=48 velocity=0 time=0
note_on channel=1 note=55 velocity=80 time=16
note_on channel=1 note=60 velocity=80 time=0
note_on channel=1 note=64 velocity=80 time=0
note_on channel=1 note=64 velocity=0 time=32
note_on channel=1 note=60 velocity=0 time=0
note_on channel=1 note=55 velocity=0 time=0
note_on channel=1 note=52 velocity=80 time=16
note_on channel=1 note=40 velocity=80 time=0
note_on channel=1 note=40 velocity=0 time=32
note_on channel=1 note=52 velocity=0 time=0
note_on channel=1 note=55 velocity=80 time=16
note_on channel=1 note=60 velocity=80 time=0
note_on channel=1 note=64 velocity=80 time=0
note_on channel=1 note=64 velocity=0 time=32
note_on channel=1 note=60 velocity=0 time=0
note_on channel=1 note=55 velocity=0 time=0
note_on channel=1 note=53 velocity=80 time=16
note_on channel=1 note=41 velocity=80 time=0
note_on channel=1 note=41 velocity=0 time=32
note_on channel=1 note=53 velocity=0 time=0
note_on channel=1 note=57 velocity=80 time=16
note_on channel=1 note=60 velocity=80 time=0
note_on channel=1 note=65 velocity=80 time=0
note_on channel=1 note=65 velocity=0 time=32
note_on channel=1 note=60 velocity=0 time=0
note_on channel=1 note=57 velocity=0 time=0
note_on channel=1 note=53 velocity=80 time=16
note_on channel=1 note=41 velocity=80 time=0
note_on channel=1 note=41 velocity=0 time=32
note_on channel=1 note=53 velocity=0 time=0
note_on channel=1 note=51 velocity=80 time=16
note_on channel=1 note=39 velocity=80 time=0
note_on channel=1 note=39 velocity=0 time=32
note_on channel=1 note=51 velocity=0 time=0
note_on channel=1 note=52 velocity=80 time=16
note_on channel=1 note=40 velocity=80 time=0
note_on channel=1 note=40 velocity=0 time=32
note_on channel=1 note=52 velocity=0 time=0
note_on channel=1 note=55 velocity=80 time=16
note_on channel=1 note=60 velocity=80 time=0
note_on channel=1 note=64 velocity=80 time=0
note_on channel=1 note=64 velocity=0 time=32
note_on channel=1 note=60 velocity=0 time=0
note_on channel=1 note=55 velocity=0 time=0
note_on channel=1 note=45 velocity=80 time=16
note_on channel=1 note=33 velocity=80 time=0
note_on channel=1 note=33 velocity=0 time=32
note_on channel=1 note=45 velocity=0 time=0
note_on channel=1 note=57 velocity=80 time=16
note_on channel=1 note=61 velocity=80 time=0
note_on channel=1 note=64 velocity=80 time=0
note_on channel=1 note=64 velocity=0 time=32
note_on channel=1 note=61 velocity=0 time=0
note_on channel=1 note=57 velocity=0 time=0
note_on channel=1 note=50 velocity=80 time=16
note_on channel=1 note=38 velocity=80 time=0
note_on channel=1 note=38 velocity=0 time=32
note_on channel=1 note=50 velocity=0 time=0
note_on channel=1 note=45 velocity=80 time=16
note_on channel=1 note=57 velocity=80 time=0
note_on channel=1 note=57 velocity=0 time=32
note_on channel=1 note=45 velocity=0 time=0
note_on channel=1 note=55 velocity=80 time=16
note_on channel=1 note=43 velocity=80 time=0
note_on channel=1 note=43 velocity=0 time=32
note_on channel=1 note=55 velocity=0 time=0
note_on channel=1 note=43 velocity=80 time=16
note_on channel=1 note=31 velocity=80 time=0
note_on channel=1 note=31 velocity=0 time=32
note_on channel=1 note=43 velocity=0 time=0
note_on channel=1 note=36 velocity=80 time=16
note_on channel=1 note=36 velocity=0 time=32
note_on channel=1 note=43 velocity=80 time=16
note_on channel=1 note=43 velocity=0 time=32
note_on channel=1 note=36 velocity=80 time=16
note_on channel=1 note=36 velocity=0 time=32
note_on channel=1 note=53 velocity=80 time=64
note_on channel=1 note=53 velocity=0 time=32
note_on channel=1 note=60 velocity=80 time=16
note_on channel=1 note=57 velocity=80 time=0
note_on channel=1 note=57 velocity=0 time=32
note_on channel=1 note=60 velocity=0 time=0
note_on channel=1 note=48 velocity=80 time=16
note_on channel=1 note=48 velocity=0 time=32
note_on channel=1 note=57 velocity=80 time=16
note_on channel=1 note=60 velocity=80 time=0
note_on channel=1 note=60 velocity=0 time=32
note_on channel=1 note=57 velocity=0 time=0
note_on channel=1 note=55 velocity=80 time=16
note_on channel=1 note=55 velocity=0 time=32
note_on channel=1 note=58 velocity=80 time=16
note_on channel=1 note=60 velocity=80 time=0
note_on channel=1 note=60 velocity=0 time=32
note_on channel=1 note=58 velocity=0 time=0
note_on channel=1 note=48 velocity=80 time=16
note_on channel=1 note=48 velocity=0 time=32
note_on channel=1 note=58 velocity=80 time=16
note_on channel=1 note=60 velocity=80 time=0
note_on channel=1 note=60 velocity=0 time=32
note_on channel=1 note=58 velocity=0 time=0
note_on channel=1 note=55 velocity=80 time=16
note_on channel=1 note=55 velocity=0 time=32
note_on channel=1 note=58 velocity=80 time=16
note_on channel=1 note=60 velocity=80 time=0
note_on channel=1 note=60 velocity=0 time=32
note_on channel=1 note=58 velocity=0 time=0
note_on channel=1 note=48 velocity=80 time=16
note_on channel=1 note=48 velocity=0 time=32
note_on channel=1 note=58 velocity=80 time=16
note_on channel=1 note=60 velocity=80 time=0
note_on channel=1 note=60 velocity=0 time=32
note_on channel=1 note=58 velocity=0 time=0
note_on channel=1 note=53 velocity=80 time=16
note_on channel=1 note=53 velocity=0 time=32
note_on channel=1 note=57 velocity=80 time=16
note_on channel=1 note=60 velocity=80 time=0
note_on channel=1 note=60 velocity=0 time=32
note_on channel=1 note=57 velocity=0 time=0
note_on channel=1 note=48 velocity=80 time=16
note_on channel=1 note=48 velocity=0 time=32
note_on channel=1 note=57 velocity=80 time=16
note_on channel=1 note=60 velocity=80 time=0
note_on channel=1 note=60 velocity=0 time=32
note_on channel=1 note=57 velocity=0 time=0
note_on channel=1 note=53 velocity=80 time=16
note_on channel=1 note=53 velocity=80 time=0
note_on channel=1 note=53 velocity=0 time=32
note_on channel=1 note=57 velocity=80 time=16
note_on channel=1 note=60 velocity=80 time=0
note_on channel=1 note=53 velocity=0 time=16
note_on channel=1 note=60 velocity=0 time=16
note_on channel=1 note=57 velocity=0 time=0
note_on channel=1 note=54 velocity=80 time=16
note_on channel=1 note=54 velocity=80 time=0
note_on channel=1 note=54 velocity=0 time=32
note_on channel=1 note=57 velocity=80 time=16
note_on channel=1 note=60 velocity=80 time=0
note_on channel=1 note=63 velocity=80 time=0
note_on channel=1 note=54 velocity=0 time=16
note_on channel=1 note=57 velocity=0 time=16
note_on channel=1 note=60 velocity=0 time=0
note_on channel=1 note=63 velocity=0 time=0
note_on channel=1 note=55 velocity=80 time=16
note_on channel=1 note=55 velocity=0 time=32
note_on channel=1 note=64 velocity=80 time=16
note_on channel=1 note=60 velocity=80 time=0
note_on channel=1 note=60 velocity=0 time=32
note_on channel=1 note=64 velocity=0 time=0
note_on channel=1 note=43 velocity=80 time=16
note_on channel=1 note=43 velocity=0 time=32
note_on channel=1 note=55 velocity=80 time=16
note_on channel=1 note=60 velocity=80 time=0
note_on channel=1 note=64 velocity=80 time=0
note_on channel=1 note=64 velocity=0 time=32
note_on channel=1 note=60 velocity=0 time=0
note_on channel=1 note=55 velocity=0 time=0
note_on channel=1 note=50 velocity=80 time=16
note_on channel=1 note=50 velocity=0 time=32
note_on channel=1 note=55 velocity=80 time=16
note_on channel=1 note=59 velocity=80 time=0
note_on channel=1 note=65 velocity=80 time=0
note_on channel=1 note=65 velocity=0 time=32
note_on channel=1 note=59 velocity=0 time=0
note_on channel=1 note=55 velocity=0 time=0
note_on channel=1 note=43 velocity=80 time=16
note_on channel=1 note=43 velocity=0 time=32
note_on channel=1 note=55 velocity=80 time=16
note_on channel=1 note=59 velocity=80 time=0
note_on channel=1 note=65 velocity=80 time=0
note_on channel=1 note=65 velocity=0 time=32
note_on channel=1 note=59 velocity=0 time=0
note_on channel=1 note=55 velocity=0 time=0
note_on channel=1 note=60 velocity=80 time=16
note_on channel=1 note=64 velocity=80 time=0
note_on channel=1 note=64 velocity=0 time=32
note_on channel=1 note=60 velocity=0 time=0
note_on channel=1 note=55 velocity=80 time=16
note_on channel=1 note=43 velocity=80 time=0
note_on channel=1 note=43 velocity=0 time=32
note_on channel=1 note=55 velocity=0 time=0
note_on channel=1 note=48 velocity=80 time=16
note_on channel=1 note=36 velocity=80 time=0
note_on channel=1 note=36 velocity=0 time=32
note_on channel=1 note=48 velocity=0 time=0
note_on channel=1 note=53 velocity=80 time=64
note_on channel=1 note=53 velocity=0 time=32
note_on channel=1 note=60 velocity=80 time=16
note_on channel=1 note=57 velocity=80 time=0
note_on channel=1 note=57 velocity=0 time=32
note_on channel=1 note=60 velocity=0 time=0
note_on channel=1 note=48 velocity=80 time=16
note_on channel=1 note=48 velocity=0 time=32
note_on channel=1 note=57 velocity=80 time=16
note_on channel=1 note=60 velocity=80 time=0
note_on channel=1 note=60 velocity=0 time=32
note_on channel=1 note=57 velocity=0 time=0
note_on channel=1 note=55 velocity=80 time=16
note_on channel=1 note=55 velocity=0 time=32
note_on channel=1 note=58 velocity=80 time=16
note_on channel=1 note=60 velocity=80 time=0
note_on channel=1 note=60 velocity=0 time=32
note_on channel=1 note=58 velocity=0 time=0
note_on channel=1 note=48 velocity=80 time=16
note_on channel=1 note=48 velocity=0 time=32
note_on channel=1 note=58 velocity=80 time=16
note_on channel=1 note=60 velocity=80 time=0
note_on channel=1 note=60 velocity=0 time=32
note_on channel=1 note=58 velocity=0 time=0
note_on channel=1 note=55 velocity=80 time=16
note_on channel=1 note=55 velocity=0 time=32
note_on channel=1 note=58 velocity=80 time=16
note_on channel=1 note=60 velocity=80 time=0
note_on channel=1 note=60 velocity=0 time=32
note_on channel=1 note=58 velocity=0 time=0
note_on channel=1 note=48 velocity=80 time=16
note_on channel=1 note=48 velocity=0 time=32
note_on channel=1 note=58 velocity=80 time=16
note_on channel=1 note=60 velocity=80 time=0
note_on channel=1 note=60 velocity=0 time=32
note_on channel=1 note=58 velocity=0 time=0
note_on channel=1 note=53 velocity=80 time=16
note_on channel=1 note=53 velocity=0 time=32
note_on channel=1 note=57 velocity=80 time=16
note_on channel=1 note=60 velocity=80 time=0
note_on channel=1 note=60 velocity=0 time=32
note_on channel=1 note=57 velocity=0 time=0
note_on channel=1 note=51 velocity=80 time=16
note_on channel=1 note=51 velocity=0 time=32
note_on channel=1 note=57 velocity=80 time=16
note_on channel=1 note=60 velocity=80 time=0
note_on channel=1 note=53 velocity=80 time=0
note_on channel=1 note=53 velocity=0 time=32
note_on channel=1 note=60 velocity=0 time=0
note_on channel=1 note=57 velocity=0 time=0
note_on channel=1 note=50 velocity=80 time=16
note_on channel=1 note=50 velocity=80 time=0
note_on channel=1 note=50 velocity=0 time=32
note_on channel=1 note=54 velocity=80 time=16
note_on channel=1 note=60 velocity=80 time=0
note_on channel=1 note=62 velocity=80 time=0
note_on channel=1 note=50 velocity=0 time=16
note_on channel=1 note=54 velocity=0 time=16
note_on channel=1 note=60 velocity=0 time=0
note_on channel=1 note=62 velocity=0 time=0
note_on channel=1 note=38 velocity=80 time=16
note_on channel=1 note=38 velocity=80 time=0
note_on channel=1 note=38 velocity=0 time=32
note_on channel=1 note=54 velocity=80 time=16
note_on channel=1 note=60 velocity=80 time=0
note_on channel=1 note=62 velocity=80 time=0
note_on channel=1 note=38 velocity=0 time=16
note_on channel=1 note=54 velocity=0 time=16
note_on channel=1 note=60 velocity=0 time=0
note_on channel=1 note=62 velocity=0 time=0
note_on channel=1 note=43 velocity=80 time=16
note_on channel=1 note=43 velocity=0 time=32
note_on channel=1 note=55 velocity=80 time=16
note_on channel=1 note=58 velocity=80 time=0
note_on channel=1 note=62 velocity=80 time=0
note_on channel=1 note=62 velocity=0 time=32
note_on channel=1 note=58 velocity=0 time=0
note_on channel=1 note=55 velocity=0 time=0
note_on channel=1 note=46 velocity=80 time=16
note_on channel=1 note=46 velocity=0 time=32
note_on channel=1 note=55 velocity=80 time=16
note_on channel=1 note=58 velocity=80 time=0
note_on channel=1 note=62 velocity=80 time=0
note_on channel=1 note=62 velocity=0 time=32
note_on channel=1 note=58 velocity=0 time=0
note_on channel=1 note=55 velocity=0 time=0
note_on channel=1 note=48 velocity=80 time=16
note_on channel=1 note=48 velocity=0 time=32
note_on channel=1 note=57 velocity=80 time=16
note_on channel=1 note=60 velocity=80 time=0
note_on channel=1 note=60 velocity=0 time=32
note_on channel=1 note=57 velocity=0 time=0
note_on channel=1 note=48 velocity=80 time=16
note_on channel=1 note=48 velocity=0 time=32
note_on channel=1 note=58 velocity=80 time=16
note_on channel=1 note=60 velocity=80 time=0
note_on channel=1 note=60 velocity=0 time=32
note_on channel=1 note=58 velocity=0 time=0
note_on channel=1 note=60 velocity=80 time=16
note_on channel=1 note=57 velocity=80 time=0
note_on channel=1 note=53 velocity=80 time=0
note_on channel=1 note=53 velocity=0 time=32
note_on channel=1 note=57 velocity=0 time=0
note_on channel=1 note=60 velocity=0 time=0
note_on channel=1 note=53 velocity=80 time=160
note_on channel=1 note=53 velocity=0 time=32
note_on channel=1 note=60 velocity=80 time=16
note_on channel=1 note=57 velocity=80 time=0
note_on channel=1 note=57 velocity=0 time=32
note_on channel=1 note=60 velocity=0 time=0
note_on channel=1 note=48 velocity=80 time=16
note_on channel=1 note=48 velocity=0 time=32
note_on channel=1 note=57 velocity=80 time=16
note_on channel=1 note=60 velocity=80 time=0
note_on channel=1 note=60 velocity=0 time=32
note_on channel=1 note=57 velocity=0 time=0
note_on channel=1 note=55 velocity=80 time=16
note_on channel=1 note=55 velocity=0 time=32
note_on channel=1 note=58 velocity=80 time=16
note_on channel=1 note=60 velocity=80 time=0
note_on channel=1 note=60 velocity=0 time=32
note_on channel=1 note=58 velocity=0 time=0
note_on channel=1 note=48 velocity=80 time=16
note_on channel=1 note=48 velocity=0 time=32
note_on channel=1 note=58 velocity=80 time=16
note_on channel=1 note=60 velocity=80 time=0
note_on channel=1 note=60 velocity=0 time=32
note_on channel=1 note=58 velocity=0 time=0
note_on channel=1 note=55 velocity=80 time=16
note_on channel=1 note=55 velocity=0 time=32
note_on channel=1 note=58 velocity=80 time=16
note_on channel=1 note=60 velocity=80 time=0
note_on channel=1 note=60 velocity=0 time=32
note_on channel=1 note=58 velocity=0 time=0
note_on channel=1 note=48 velocity=80 time=16
note_on channel=1 note=48 velocity=0 time=32
note_on channel=1 note=58 velocity=80 time=16
note_on channel=1 note=60 velocity=80 time=0
note_on channel=1 note=60 velocity=0 time=32
note_on channel=1 note=58 velocity=0 time=0
note_on channel=1 note=53 velocity=80 time=16
note_on channel=1 note=53 velocity=0 time=32
note_on channel=1 note=57 velocity=80 time=16
note_on channel=1 note=60 velocity=80 time=0
note_on channel=1 note=60 velocity=0 time=32
note_on channel=1 note=57 velocity=0 time=0
note_on channel=1 note=48 velocity=80 time=16
note_on channel=1 note=48 velocity=0 time=32
note_on channel=1 note=57 velocity=80 time=16
note_on channel=1 note=60 velocity=80 time=0
note_on channel=1 note=60 velocity=0 time=32
note_on channel=1 note=57 velocity=0 time=0
note_on channel=1 note=53 velocity=80 time=16
note_on channel=1 note=53 velocity=80 time=0
note_on channel=1 note=53 velocity=0 time=32
note_on channel=1 note=57 velocity=80 time=16
note_on channel=1 note=60 velocity=80 time=0
note_on channel=1 note=53 velocity=0 time=16
note_on channel=1 note=60 velocity=0 time=16
note_on channel=1 note=57 velocity=0 time=0
note_on channel=1 note=54 velocity=80 time=16
note_on channel=1 note=54 velocity=80 time=0
note_on channel=1 note=54 velocity=0 time=32
note_on channel=1 note=57 velocity=80 time=16
note_on channel=1 note=60 velocity=80 time=0
note_on channel=1 note=63 velocity=80 time=0
note_on channel=1 note=54 velocity=0 time=16
note_on channel=1 note=57 velocity=0 time=16
note_on channel=1 note=60 velocity=0 time=0
note_on channel=1 note=63 velocity=0 time=0
note_on channel=1 note=55 velocity=80 time=16
note_on channel=1 note=55 velocity=0 time=32
note_on channel=1 note=64 velocity=80 time=16
note_on channel=1 note=60 velocity=80 time=0
note_on channel=1 note=60 velocity=0 time=32
note_on channel=1 note=64 velocity=0 time=0
note_on channel=1 note=43 velocity=80 time=16
note_on channel=1 note=43 velocity=0 time=32
note_on channel=1 note=55 velocity=80 time=16
note_on channel=1 note=60 velocity=80 time=0
note_on channel=1 note=64 velocity=80 time=0
note_on channel=1 note=64 velocity=0 time=32
note_on channel=1 note=60 velocity=0 time=0
note_on channel=1 note=55 velocity=0 time=0
note_on channel=1 note=50 velocity=80 time=16
note_on channel=1 note=50 velocity=0 time=32
note_on channel=1 note=55 velocity=80 time=16
note_on channel=1 note=59 velocity=80 time=0
note_on channel=1 note=65 velocity=80 time=0
note_on channel=1 note=65 velocity=0 time=32
note_on channel=1 note=59 velocity=0 time=0
note_on channel=1 note=55 velocity=0 time=0
note_on channel=1 note=43 velocity=80 time=16
note_on channel=1 note=43 velocity=0 time=32
note_on channel=1 note=55 velocity=80 time=16
note_on channel=1 note=59 velocity=80 time=0
note_on channel=1 note=65 velocity=80 time=0
note_on channel=1 note=65 velocity=0 time=32
note_on channel=1 note=59 velocity=0 time=0
note_on channel=1 note=55 velocity=0 time=0
note_on channel=1 note=60 velocity=80 time=16
note_on channel=1 note=64 velocity=80 time=0
note_on channel=1 note=64 velocity=0 time=32
note_on channel=1 note=60 velocity=0 time=0
note_on channel=1 note=55 velocity=80 time=16
note_on channel=1 note=43 velocity=80 time=0
note_on channel=1 note=43 velocity=0 time=32
note_on channel=1 note=55 velocity=0 time=0
note_on channel=1 note=48 velocity=80 time=16
note_on channel=1 note=36 velocity=80 time=0
note_on channel=1 note=36 velocity=0 time=32
note_on channel=1 note=48 velocity=0 time=0
note_on channel=1 note=53 velocity=80 time=64
note_on channel=1 note=53 velocity=0 time=32
note_on channel=1 note=60 velocity=80 time=16
note_on channel=1 note=57 velocity=80 time=0
note_on channel=1 note=57 velocity=0 time=32
note_on channel=1 note=60 velocity=0 time=0
note_on channel=1 note=48 velocity=80 time=16
note_on channel=1 note=48 velocity=0 time=32
note_on channel=1 note=57 velocity=80 time=16
note_on channel=1 note=60 velocity=80 time=0
note_on channel=1 note=60 velocity=0 time=32
note_on channel=1 note=57 velocity=0 time=0
note_on channel=1 note=55 velocity=80 time=16
note_on channel=1 note=55 velocity=0 time=32
note_on channel=1 note=58 velocity=80 time=16
note_on channel=1 note=60 velocity=80 time=0
note_on channel=1 note=60 velocity=0 time=32
note_on channel=1 note=58 velocity=0 time=0
note_on channel=1 note=48 velocity=80 time=16
note_on channel=1 note=48 velocity=0 time=32
note_on channel=1 note=58 velocity=80 time=16
note_on channel=1 note=60 velocity=80 time=0
note_on channel=1 note=60 velocity=0 time=32
note_on channel=1 note=58 velocity=0 time=0
note_on channel=1 note=55 velocity=80 time=16
note_on channel=1 note=55 velocity=0 time=32
note_on channel=1 note=58 velocity=80 time=16
note_on channel=1 note=60 velocity=80 time=0
note_on channel=1 note=60 velocity=0 time=32
note_on channel=1 note=58 velocity=0 time=0
note_on channel=1 note=48 velocity=80 time=16
note_on channel=1 note=48 velocity=0 time=32
note_on channel=1 note=58 velocity=80 time=16
note_on channel=1 note=60 velocity=80 time=0
note_on channel=1 note=60 velocity=0 time=32
note_on channel=1 note=58 velocity=0 time=0
note_on channel=1 note=53 velocity=80 time=16
note_on channel=1 note=53 velocity=0 time=32
note_on channel=1 note=57 velocity=80 time=16
note_on channel=1 note=60 velocity=80 time=0
note_on channel=1 note=60 velocity=0 time=32
note_on channel=1 note=57 velocity=0 time=0
note_on channel=1 note=51 velocity=80 time=16
note_on channel=1 note=51 velocity=0 time=32
note_on channel=1 note=57 velocity=80 time=16
note_on channel=1 note=60 velocity=80 time=0
note_on channel=1 note=53 velocity=80 time=0
note_on channel=1 note=53 velocity=0 time=32
note_on channel=1 note=60 velocity=0 time=0
note_on channel=1 note=57 velocity=0 time=0
note_on channel=1 note=50 velocity=80 time=16
note_on channel=1 note=50 velocity=80 time=0
note_on channel=1 note=50 velocity=0 time=32
note_on channel=1 note=54 velocity=80 time=16
note_on channel=1 note=60 velocity=80 time=0
note_on channel=1 note=62 velocity=80 time=0
note_on channel=1 note=50 velocity=0 time=16
note_on channel=1 note=54 velocity=0 time=16
note_on channel=1 note=60 velocity=0 time=0
note_on channel=1 note=62 velocity=0 time=0
note_on channel=1 note=38 velocity=80 time=16
note_on channel=1 note=38 velocity=80 time=0
note_on channel=1 note=38 velocity=0 time=32
note_on channel=1 note=54 velocity=80 time=16
note_on channel=1 note=60 velocity=80 time=0
note_on channel=1 note=62 velocity=80 time=0
note_on channel=1 note=38 velocity=0 time=16
note_on channel=1 note=54 velocity=0 time=16
note_on channel=1 note=60 velocity=0 time=0
note_on channel=1 note=62 velocity=0 time=0
note_on channel=1 note=43 velocity=80 time=16
note_on channel=1 note=43 velocity=0 time=32
note_on channel=1 note=55 velocity=80 time=16
note_on channel=1 note=58 velocity=80 time=0
note_on channel=1 note=62 velocity=80 time=0
note_on channel=1 note=62 velocity=0 time=32
note_on channel=1 note=58 velocity=0 time=0
note_on channel=1 note=55 velocity=0 time=0
note_on channel=1 note=46 velocity=80 time=16
note_on channel=1 note=46 velocity=0 time=32
note_on channel=1 note=55 velocity=80 time=16
note_on channel=1 note=58 velocity=80 time=0
note_on channel=1 note=62 velocity=80 time=0
note_on channel=1 note=62 velocity=0 time=32
note_on channel=1 note=58 velocity=0 time=0
note_on channel=1 note=55 velocity=0 time=0
note_on channel=1 note=48 velocity=80 time=16
note_on channel=1 note=48 velocity=0 time=32
note_on channel=1 note=57 velocity=80 time=16
note_on channel=1 note=60 velocity=80 time=0
note_on channel=1 note=60 velocity=0 time=32
note_on channel=1 note=57 velocity=0 time=0
note_on channel=1 note=48 velocity=80 time=16
note_on channel=1 note=48 velocity=0 time=32
note_on channel=1 note=58 velocity=80 time=16
note_on channel=1 note=60 velocity=80 time=0
note_on channel=1 note=60 velocity=0 time=32
note_on channel=1 note=58 velocity=0 time=0
note_on channel=1 note=60 velocity=80 time=16
note_on channel=1 note=57 velocity=80 time=0
note_on channel=1 note=53 velocity=80 time=0
note_on channel=1 note=53 velocity=0 time=32
note_on channel=1 note=57 velocity=0 time=0
note_on channel=1 note=60 velocity=0 time=0
note_on channel=1 note=48 velocity=80 time=16
note_on channel=1 note=48 velocity=0 time=32
note_on channel=1 note=41 velocity=80 time=16
note_on channel=1 note=41 velocity=0 time=32
note_on channel=1 note=55 velocity=80 time=16
note_on channel=1 note=55 velocity=0 time=32
note_on channel=1 note=60 velocity=80 time=16
note_on channel=1 note=60 velocity=0 time=96
note_on channel=1 note=55 velocity=80 time=48
note_on channel=1 note=55 velocity=0 time=32
note_on channel=1 note=64 velocity=80 time=16
note_on channel=1 note=64 velocity=0 time=96
note_on channel=1 note=55 velocity=80 time=48
note_on channel=1 note=55 velocity=0 time=32
note_on channel=1 note=65 velocity=80 time=16
note_on channel=1 note=59 velocity=80 time=0
note_on channel=1 note=55 velocity=80 time=0
note_on channel=1 note=55 velocity=0 time=32
note_on channel=1 note=59 velocity=0 time=0
note_on channel=1 note=65 velocity=0 time=0
note_on channel=1 note=65 velocity=80 time=16
note_on channel=1 note=59 velocity=80 time=0
note_on channel=1 note=55 velocity=80 time=0
note_on channel=1 note=55 velocity=0 time=32
note_on channel=1 note=59 velocity=0 time=0
note_on channel=1 note=65 velocity=0 time=0
note_on channel=1 note=65 velocity=80 time=16
note_on channel=1 note=59 velocity=80 time=0
note_on channel=1 note=55 velocity=80 time=0
note_on channel=1 note=55 velocity=0 time=32
note_on channel=1 note=59 velocity=0 time=0
note_on channel=1 note=65 velocity=0 time=0
note_on channel=1 note=65 velocity=80 time=16
note_on channel=1 note=59 velocity=80 time=0
note_on channel=1 note=55 velocity=80 time=0
note_on channel=1 note=55 velocity=0 time=32
note_on channel=1 note=59 velocity=0 time=0
note_on channel=1 note=65 velocity=0 time=0
note_on channel=1 note=64 velocity=80 time=16
note_on channel=1 note=60 velocity=80 time=0
note_on channel=1 note=60 velocity=0 time=32
note_on channel=1 note=64 velocity=0 time=0
note_on channel=1 note=43 velocity=80 time=16
note_on channel=1 note=31 velocity=80 time=0
note_on channel=1 note=31 velocity=0 time=32
note_on channel=1 note=43 velocity=0 time=0
note_on channel=1 note=45 velocity=80 time=16
note_on channel=1 note=33 velocity=80 time=0
note_on channel=1 note=33 velocity=0 time=32
note_on channel=1 note=45 velocity=0 time=0
note_on channel=1 note=47 velocity=80 time=16
note_on channel=1 note=35 velocity=80 time=0
note_on channel=1 note=35 velocity=0 time=32
note_on channel=1 note=47 velocity=0 time=0
note_on channel=1 note=48 velocity=80 time=16
note_on channel=1 note=36 velocity=80 time=0
note_on channel=1 note=36 velocity=0 time=32
note_on channel=1 note=48 velocity=0 time=0
note_on channel=1 note=55 velocity=80 time=16
note_on channel=1 note=60 velocity=80 time=0
note_on channel=1 note=64 velocity=80 time=0
note_on channel=1 note=64 velocity=0 time=32
note_on channel=1 note=60 velocity=0 time=0
note_on channel=1 note=55 velocity=0 time=0
note_on channel=1 note=52 velocity=80 time=16
note_on channel=1 note=40 velocity=80 time=0
note_on channel=1 note=40 velocity=0 time=32
note_on channel=1 note=52 velocity=0 time=0
note_on channel=1 note=55 velocity=80 time=16
note_on channel=1 note=60 velocity=80 time=0
note_on channel=1 note=64 velocity=80 time=0
note_on channel=1 note=64 velocity=0 time=32
note_on channel=1 note=60 velocity=0 time=0
note_on channel=1 note=55 velocity=0 time=0
note_on channel=1 note=43 velocity=80 time=16
note_on channel=1 note=31 velocity=80 time=0
note_on channel=1 note=31 velocity=0 time=32
note_on channel=1 note=43 velocity=0 time=0
note_on channel=1 note=55 velocity=80 time=16
note_on channel=1 note=59 velocity=80 time=0
note_on channel=1 note=65 velocity=80 time=0
note_on channel=1 note=65 velocity=0 time=32
note_on channel=1 note=59 velocity=0 time=0
note_on channel=1 note=55 velocity=0 time=0
note_on channel=1 note=48 velocity=80 time=16
note_on channel=1 note=36 velocity=80 time=0
note_on channel=1 note=36 velocity=0 time=32
note_on channel=1 note=48 velocity=0 time=0
note_on channel=1 note=55 velocity=80 time=16
note_on channel=1 note=60 velocity=80 time=0
note_on channel=1 note=64 velocity=80 time=0
note_on channel=1 note=64 velocity=0 time=32
note_on channel=1 note=60 velocity=0 time=0
note_on channel=1 note=55 velocity=0 time=0
note_on channel=1 note=53 velocity=80 time=16
note_on channel=1 note=41 velocity=80 time=0
note_on channel=1 note=41 velocity=0 time=32
note_on channel=1 note=53 velocity=0 time=0
note_on channel=1 note=57 velocity=80 time=16
note_on channel=1 note=60 velocity=80 time=0
note_on channel=1 note=65 velocity=80 time=0
note_on channel=1 note=65 velocity=0 time=32
note_on channel=1 note=60 velocity=0 time=0
note_on channel=1 note=57 velocity=0 time=0
note_on channel=1 note=57 velocity=80 time=16
note_on channel=1 note=45 velocity=80 time=0
note_on channel=1 note=45 velocity=0 time=32
note_on channel=1 note=57 velocity=0 time=0
note_on channel=1 note=44 velocity=80 time=16
note_on channel=1 note=56 velocity=80 time=0
note_on channel=1 note=56 velocity=0 time=32
note_on channel=1 note=44 velocity=0 time=0
note_on channel=1 note=55 velocity=80 time=16
note_on channel=1 note=43 velocity=80 time=0
note_on channel=1 note=43 velocity=0 time=32
note_on channel=1 note=55 velocity=0 time=0
note_on channel=1 note=55 velocity=80 time=16
note_on channel=1 note=60 velocity=80 time=0
note_on channel=1 note=60 velocity=0 time=32
note_on channel=1 note=55 velocity=0 time=0
note_on channel=1 note=48 velocity=80 time=16
note_on channel=1 note=36 velocity=80 time=0
note_on channel=1 note=36 velocity=0 time=32
note_on channel=1 note=48 velocity=0 time=0
note_on channel=1 note=55 velocity=80 time=16
note_on channel=1 note=60 velocity=80 time=0
note_on channel=1 note=64 velocity=80 time=0
note_on channel=1 note=64 velocity=0 time=32
note_on channel=1 note=60 velocity=0 time=0
note_on channel=1 note=55 velocity=0 time=0
note_on channel=1 note=53 velocity=80 time=16
note_on channel=1 note=41 velocity=80 time=0
note_on channel=1 note=41 velocity=0 time=32
note_on channel=1 note=53 velocity=0 time=0
note_on channel=1 note=57 velocity=80 time=16
note_on channel=1 note=60 velocity=80 time=0
note_on channel=1 note=65 velocity=80 time=0
note_on channel=1 note=65 velocity=0 time=32
note_on channel=1 note=60 velocity=0 time=0
note_on channel=1 note=57 velocity=0 time=0
note_on channel=1 note=57 velocity=80 time=16
note_on channel=1 note=45 velocity=80 time=0
note_on channel=1 note=45 velocity=0 time=32
note_on channel=1 note=57 velocity=0 time=0
note_on channel=1 note=44 velocity=80 time=16
note_on channel=1 note=56 velocity=80 time=0
note_on channel=1 note=56 velocity=0 time=32
note_on channel=1 note=44 velocity=0 time=0
note_on channel=1 note=55 velocity=80 time=16
note_on channel=1 note=43 velocity=80 time=0
note_on channel=1 note=43 velocity=0 time=32
note_on channel=1 note=55 velocity=0 time=0
note_on channel=1 note=55 velocity=80 time=16
note_on channel=1 note=60 velocity=80 time=0
note_on channel=1 note=60 velocity=0 time=32
note_on channel=1 note=55 velocity=0 time=0
note_on channel=1 note=52 velocity=80 time=16
note_on channel=1 note=40 velocity=80 time=0
note_on channel=1 note=40 velocity=0 time=32
note_on channel=1 note=52 velocity=0 time=0
note_on channel=1 note=51 velocity=80 time=16
note_on channel=1 note=39 velocity=80 time=0
note_on channel=1 note=39 velocity=0 time=32
note_on channel=1 note=51 velocity=0 time=0
note_on channel=1 note=50 velocity=80 time=16
note_on channel=1 note=38 velocity=80 time=0
note_on channel=1 note=38 velocity=0 time=32
note_on channel=1 note=50 velocity=0 time=0
note_on channel=1 note=55 velocity=80 time=16
note_on channel=1 note=59 velocity=80 time=0
note_on channel=1 note=65 velocity=80 time=0
note_on channel=1 note=65 velocity=0 time=32
note_on channel=1 note=59 velocity=0 time=0
note_on channel=1 note=55 velocity=0 time=0
note_on channel=1 note=43 velocity=80 time=16
note_on channel=1 note=31 velocity=80 time=0
note_on channel=1 note=31 velocity=0 time=32
note_on channel=1 note=43 velocity=0 time=0
note_on channel=1 note=55 velocity=80 time=16
note_on channel=1 note=59 velocity=80 time=0
note_on channel=1 note=65 velocity=80 time=0
note_on channel=1 note=65 velocity=0 time=32
note_on channel=1 note=59 velocity=0 time=0
note_on channel=1 note=55 velocity=0 time=0
note_on channel=1 note=43 velocity=80 time=16
note_on channel=1 note=31 velocity=80 time=0
note_on channel=1 note=31 velocity=0 time=32
note_on channel=1 note=43 velocity=0 time=0
note_on channel=1 note=55 velocity=80 time=16
note_on channel=1 note=59 velocity=80 time=0
note_on channel=1 note=65 velocity=80 time=0
note_on channel=1 note=65 velocity=0 time=32
note_on channel=1 note=59 velocity=0 time=0
note_on channel=1 note=55 velocity=0 time=0
note_on channel=1 note=48 velocity=80 time=16
note_on channel=1 note=36 velocity=80 time=0
note_on channel=1 note=36 velocity=0 time=32
note_on channel=1 note=48 velocity=0 time=0
note_on channel=1 note=55 velocity=80 time=16
note_on channel=1 note=60 velocity=80 time=0
note_on channel=1 note=64 velocity=80 time=0
note_on channel=1 note=64 velocity=0 time=32
note_on channel=1 note=60 velocity=0 time=0
note_on channel=1 note=55 velocity=0 time=0
note_on channel=1 note=48 velocity=80 time=16
note_on channel=1 note=36 velocity=80 time=0
note_on channel=1 note=36 velocity=0 time=32
note_on channel=1 note=48 velocity=0 time=0
note_on channel=1 note=55 velocity=80 time=16
note_on channel=1 note=60 velocity=80 time=0
note_on channel=1 note=64 velocity=80 time=0
note_on channel=1 note=64 velocity=0 time=32
note_on channel=1 note=60 velocity=0 time=0
note_on channel=1 note=55 velocity=0 time=0
note_on channel=1 note=52 velocity=80 time=16
note_on channel=1 note=40 velocity=80 time=0
note_on channel=1 note=40 velocity=0 time=32
note_on channel=1 note=52 velocity=0 time=0
note_on channel=1 note=55 velocity=80 time=16
note_on channel=1 note=60 velocity=80 time=0
note_on channel=1 note=64 velocity=80 time=0
note_on channel=1 note=64 velocity=0 time=32
note_on channel=1 note=60 velocity=0 time=0
note_on channel=1 note=55 velocity=0 time=0
note_on channel=1 note=43 velocity=80 time=16
note_on channel=1 note=31 velocity=80 time=0
note_on channel=1 note=31 velocity=0 time=32
note_on channel=1 note=43 velocity=0 time=0
note_on channel=1 note=55 velocity=80 time=16
note_on channel=1 note=59 velocity=80 time=0
note_on channel=1 note=65 velocity=80 time=0
note_on channel=1 note=65 velocity=0 time=32
note_on channel=1 note=59 velocity=0 time=0
note_on channel=1 note=55 velocity=0 time=0
note_on channel=1 note=48 velocity=80 time=16
note_on channel=1 note=36 velocity=80 time=0
note_on channel=1 note=36 velocity=0 time=32
note_on channel=1 note=48 velocity=0 time=0
note_on channel=1 note=55 velocity=80 time=16
note_on channel=1 note=60 velocity=80 time=0
note_on channel=1 note=64 velocity=80 time=0
note_on channel=1 note=64 velocity=0 time=32
note_on channel=1 note=60 velocity=0 time=0
note_on channel=1 note=55 velocity=0 time=0
note_on channel=1 note=53 velocity=80 time=16
note_on channel=1 note=41 velocity=80 time=0
note_on channel=1 note=41 velocity=0 time=32
note_on channel=1 note=53 velocity=0 time=0
note_on channel=1 note=57 velocity=80 time=16
note_on channel=1 note=60 velocity=80 time=0
note_on channel=1 note=65 velocity=80 time=0
note_on channel=1 note=65 velocity=0 time=32
note_on channel=1 note=60 velocity=0 time=0
note_on channel=1 note=57 velocity=0 time=0
note_on channel=1 note=57 velocity=80 time=16
note_on channel=1 note=45 velocity=80 time=0
note_on channel=1 note=45 velocity=0 time=32
note_on channel=1 note=57 velocity=0 time=0
note_on channel=1 note=44 velocity=80 time=16
note_on channel=1 note=56 velocity=80 time=0
note_on channel=1 note=56 velocity=0 time=32
note_on channel=1 note=44 velocity=0 time=0
note_on channel=1 note=55 velocity=80 time=16
note_on channel=1 note=43 velocity=80 time=0
note_on channel=1 note=43 velocity=0 time=32
note_on channel=1 note=55 velocity=0 time=0
note_on channel=1 note=55 velocity=80 time=16
note_on channel=1 note=60 velocity=80 time=0
note_on channel=1 note=60 velocity=0 time=32
note_on channel=1 note=55 velocity=0 time=0
note_on channel=1 note=48 velocity=80 time=16
note_on channel=1 note=36 velocity=80 time=0
note_on channel=1 note=36 velocity=0 time=32
note_on channel=1 note=48 velocity=0 time=0
note_on channel=1 note=55 velocity=80 time=16
note_on channel=1 note=60 velocity=80 time=0
note_on channel=1 note=64 velocity=80 time=0
note_on channel=1 note=64 velocity=0 time=32
note_on channel=1 note=60 velocity=0 time=0
note_on channel=1 note=55 velocity=0 time=0
note_on channel=1 note=53 velocity=80 time=16
note_on channel=1 note=41 velocity=80 time=0
note_on channel=1 note=41 velocity=0 time=32
note_on channel=1 note=53 velocity=0 time=0
note_on channel=1 note=57 velocity=80 time=16
note_on channel=1 note=60 velocity=80 time=0
note_on channel=1 note=65 velocity=80 time=0
note_on channel=1 note=65 velocity=0 time=32
note_on channel=1 note=60 velocity=0 time=0
note_on channel=1 note=57 velocity=0 time=0
note_on channel=1 note=53 velocity=80 time=16
note_on channel=1 note=41 velocity=80 time=0
note_on channel=1 note=41 velocity=0 time=32
note_on channel=1 note=53 velocity=0 time=0
note_on channel=1 note=51 velocity=80 time=16
note_on channel=1 note=39 velocity=80 time=0
note_on channel=1 note=39 velocity=0 time=32
note_on channel=1 note=51 velocity=0 time=0
note_on channel=1 note=52 velocity=80 time=16
note_on channel=1 note=40 velocity=80 time=0
note_on channel=1 note=40 velocity=0 time=32
note_on channel=1 note=52 velocity=0 time=0
note_on channel=1 note=55 velocity=80 time=16
note_on channel=1 note=60 velocity=80 time=0
note_on channel=1 note=64 velocity=80 time=0
note_on channel=1 note=64 velocity=0 time=32
note_on channel=1 note=60 velocity=0 time=0
note_on channel=1 note=55 velocity=0 time=0
note_on channel=1 note=45 velocity=80 time=16
note_on channel=1 note=33 velocity=80 time=0
note_on channel=1 note=33 velocity=0 time=32
note_on channel=1 note=45 velocity=0 time=0
note_on channel=1 note=57 velocity=80 time=16
note_on channel=1 note=61 velocity=80 time=0
note_on channel=1 note=64 velocity=80 time=0
note_on channel=1 note=64 velocity=0 time=32
note_on channel=1 note=61 velocity=0 time=0
note_on channel=1 note=57 velocity=0 time=0
note_on channel=1 note=50 velocity=80 time=16
note_on channel=1 note=38 velocity=80 time=0
note_on channel=1 note=38 velocity=0 time=32
note_on channel=1 note=50 velocity=0 time=0
note_on channel=1 note=45 velocity=80 time=16
note_on channel=1 note=57 velocity=80 time=0
note_on channel=1 note=57 velocity=0 time=32
note_on channel=1 note=45 velocity=0 time=0
note_on channel=1 note=55 velocity=80 time=16
note_on channel=1 note=43 velocity=80 time=0
note_on channel=1 note=43 velocity=0 time=32
note_on channel=1 note=55 velocity=0 time=0
note_on channel=1 note=43 velocity=80 time=16
note_on channel=1 note=31 velocity=80 time=0
note_on channel=1 note=31 velocity=0 time=32
note_on channel=1 note=43 velocity=0 time=0
note_on channel=1 note=36 velocity=80 time=16
note_on channel=1 note=48 velocity=80 time=0
note_on channel=1 note=48 velocity=0 time=32
note_on channel=1 note=36 velocity=0 time=0
note_on channel=1 note=43 velocity=80 time=16
note_on channel=1 note=55 velocity=80 time=0
note_on channel=1 note=55 velocity=0 time=32
note_on channel=1 note=43 velocity=0 time=0
note_on channel=1 note=52 velocity=80 time=16
note_on channel=1 note=40 velocity=80 time=0
note_on channel=1 note=40 velocity=0 time=32
note_on channel=1 note=52 velocity=0 time=0
note_on channel=1 note=38 velocity=80 time=16
note_on channel=1 note=50 velocity=80 time=0
note_on channel=1 note=50 velocity=0 time=32
note_on channel=1 note=38 velocity=0 time=0
note_on channel=1 note=48 velocity=80 time=16
note_on channel=1 note=36 velocity=80 time=0
note_on channel=1 note=36 velocity=0 time=32
note_on channel=1 note=48 velocity=0 time=0
note_on channel=1 note=55 velocity=80 time=16
note_on channel=1 note=60 velocity=80 time=0
note_on channel=1 note=64 velocity=80 time=0
note_on channel=1 note=64 velocity=0 time=32
note_on channel=1 note=60 velocity=0 time=0
note_on channel=1 note=55 velocity=0 time=0
note_on channel=1 note=52 velocity=80 time=16
note_on channel=1 note=40 velocity=80 time=0
note_on channel=1 note=40 velocity=0 time=32
note_on channel=1 note=52 velocity=0 time=0
note_on channel=1 note=55 velocity=80 time=16
note_on channel=1 note=60 velocity=80 time=0
note_on channel=1 note=64 velocity=80 time=0
note_on channel=1 note=64 velocity=0 time=32
note_on channel=1 note=60 velocity=0 time=0
note_on channel=1 note=55 velocity=0 time=0
note_on channel=1 note=43 velocity=80 time=16
note_on channel=1 note=31 velocity=80 time=0
note_on channel=1 note=31 velocity=0 time=32
note_on channel=1 note=43 velocity=0 time=0
note_on channel=1 note=55 velocity=80 time=16
note_on channel=1 note=59 velocity=80 time=0
note_on channel=1 note=65 velocity=80 time=0
note_on channel=1 note=65 velocity=0 time=32
note_on channel=1 note=59 velocity=0 time=0
note_on channel=1 note=55 velocity=0 time=0
note_on channel=1 note=48 velocity=80 time=16
note_on channel=1 note=36 velocity=80 time=0
note_on channel=1 note=36 velocity=0 time=32
note_on channel=1 note=48 velocity=0 time=0
note_on channel=1 note=55 velocity=80 time=16
note_on channel=1 note=60 velocity=80 time=0
note_on channel=1 note=64 velocity=80 time=0
note_on channel=1 note=64 velocity=0 time=32
note_on channel=1 note=60 velocity=0 time=0
note_on channel=1 note=55 velocity=0 time=0
note_on channel=1 note=53 velocity=80 time=16
note_on channel=1 note=41 velocity=80 time=0
note_on channel=1 note=41 velocity=0 time=32
note_on channel=1 note=53 velocity=0 time=0
note_on channel=1 note=57 velocity=80 time=16
note_on channel=1 note=60 velocity=80 time=0
note_on channel=1 note=65 velocity=80 time=0
note_on channel=1 note=65 velocity=0 time=32
note_on channel=1 note=60 velocity=0 time=0
note_on channel=1 note=57 velocity=0 time=0
note_on channel=1 note=57 velocity=80 time=16
note_on channel=1 note=45 velocity=80 time=0
note_on channel=1 note=45 velocity=0 time=32
note_on channel=1 note=57 velocity=0 time=0
note_on channel=1 note=44 velocity=80 time=16
note_on channel=1 note=56 velocity=80 time=0
note_on channel=1 note=56 velocity=0 time=32
note_on channel=1 note=44 velocity=0 time=0
note_on channel=1 note=55 velocity=80 time=16
note_on channel=1 note=43 velocity=80 time=0
note_on channel=1 note=43 velocity=0 time=32
note_on channel=1 note=55 velocity=0 time=0
note_on channel=1 note=55 velocity=80 time=16
note_on channel=1 note=60 velocity=80 time=0
note_on channel=1 note=60 velocity=0 time=32
note_on channel=1 note=55 velocity=0 time=0
note_on channel=1 note=48 velocity=80 time=16
note_on channel=1 note=36 velocity=80 time=0
note_on channel=1 note=36 velocity=0 time=32
note_on channel=1 note=48 velocity=0 time=0
note_on channel=1 note=55 velocity=80 time=16
note_on channel=1 note=60 velocity=80 time=0
note_on channel=1 note=64 velocity=80 time=0
note_on channel=1 note=64 velocity=0 time=32
note_on channel=1 note=60 velocity=0 time=0
note_on channel=1 note=55 velocity=0 time=0
note_on channel=1 note=53 velocity=80 time=16
note_on channel=1 note=41 velocity=80 time=0
note_on channel=1 note=41 velocity=0 time=32
note_on channel=1 note=53 velocity=0 time=0
note_on channel=1 note=57 velocity=80 time=16
note_on channel=1 note=60 velocity=80 time=0
note_on channel=1 note=65 velocity=80 time=0
note_on channel=1 note=65 velocity=0 time=32
note_on channel=1 note=60 velocity=0 time=0
note_on channel=1 note=57 velocity=0 time=0
note_on channel=1 note=57 velocity=80 time=16
note_on channel=1 note=45 velocity=80 time=0
note_on channel=1 note=45 velocity=0 time=32
note_on channel=1 note=57 velocity=0 time=0
note_on channel=1 note=44 velocity=80 time=16
note_on channel=1 note=56 velocity=80 time=0
note_on channel=1 note=56 velocity=0 time=32
note_on channel=1 note=44 velocity=0 time=0
note_on channel=1 note=55 velocity=80 time=16
note_on channel=1 note=43 velocity=80 time=0
note_on channel=1 note=43 velocity=0 time=32
note_on channel=1 note=55 velocity=0 time=0
note_on channel=1 note=55 velocity=80 time=16
note_on channel=1 note=60 velocity=80 time=0
note_on channel=1 note=60 velocity=0 time=32
note_on channel=1 note=55 velocity=0 time=0
note_on channel=1 note=52 velocity=80 time=16
note_on channel=1 note=40 velocity=80 time=0
note_on channel=1 note=40 velocity=0 time=32
note_on channel=1 note=52 velocity=0 time=0
note_on channel=1 note=51 velocity=80 time=16
note_on channel=1 note=39 velocity=80 time=0
note_on channel=1 note=39 velocity=0 time=32
note_on channel=1 note=51 velocity=0 time=0
note_on channel=1 note=50 velocity=80 time=16
note_on channel=1 note=38 velocity=80 time=0
note_on channel=1 note=38 velocity=0 time=32
note_on channel=1 note=50 velocity=0 time=0
note_on channel=1 note=55 velocity=80 time=16
note_on channel=1 note=59 velocity=80 time=0
note_on channel=1 note=65 velocity=80 time=0
note_on channel=1 note=65 velocity=0 time=32
note_on channel=1 note=59 velocity=0 time=0
note_on channel=1 note=55 velocity=0 time=0
note_on channel=1 note=43 velocity=80 time=16
note_on channel=1 note=31 velocity=80 time=0
note_on channel=1 note=31 velocity=0 time=32
note_on channel=1 note=43 velocity=0 time=0
note_on channel=1 note=55 velocity=80 time=16
note_on channel=1 note=59 velocity=80 time=0
note_on channel=1 note=65 velocity=80 time=0
note_on channel=1 note=65 velocity=0 time=32
note_on channel=1 note=59 velocity=0 time=0
note_on channel=1 note=55 velocity=0 time=0
note_on channel=1 note=43 velocity=80 time=16
note_on channel=1 note=31 velocity=80 time=0
note_on channel=1 note=31 velocity=0 time=32
note_on channel=1 note=43 velocity=0 time=0
note_on channel=1 note=55 velocity=80 time=16
note_on channel=1 note=59 velocity=80 time=0
note_on channel=1 note=65 velocity=80 time=0
note_on channel=1 note=65 velocity=0 time=32
note_on channel=1 note=59 velocity=0 time=0
note_on channel=1 note=55 velocity=0 time=0
note_on channel=1 note=48 velocity=80 time=16
note_on channel=1 note=36 velocity=80 time=0
note_on channel=1 note=36 velocity=0 time=32
note_on channel=1 note=48 velocity=0 time=0
note_on channel=1 note=55 velocity=80 time=16
note_on channel=1 note=60 velocity=80 time=0
note_on channel=1 note=64 velocity=80 time=0
note_on channel=1 note=64 velocity=0 time=32
note_on channel=1 note=60 velocity=0 time=0
note_on channel=1 note=55 velocity=0 time=0
note_on channel=1 note=48 velocity=80 time=16
note_on channel=1 note=36 velocity=80 time=0
note_on channel=1 note=36 velocity=0 time=32
note_on channel=1 note=48 velocity=0 time=0
note_on channel=1 note=55 velocity=80 time=16
note_on channel=1 note=60 velocity=80 time=0
note_on channel=1 note=64 velocity=80 time=0
note_on channel=1 note=64 velocity=0 time=32
note_on channel=1 note=60 velocity=0 time=0
note_on channel=1 note=55 velocity=0 time=0
note_on channel=1 note=52 velocity=80 time=16
note_on channel=1 note=40 velocity=80 time=0
note_on channel=1 note=40 velocity=0 time=32
note_on channel=1 note=52 velocity=0 time=0
note_on channel=1 note=55 velocity=80 time=16
note_on channel=1 note=60 velocity=80 time=0
note_on channel=1 note=64 velocity=80 time=0
note_on channel=1 note=64 velocity=0 time=32
note_on channel=1 note=60 velocity=0 time=0
note_on channel=1 note=55 velocity=0 time=0
note_on channel=1 note=43 velocity=80 time=16
note_on channel=1 note=31 velocity=80 time=0
note_on channel=1 note=31 velocity=0 time=32
note_on channel=1 note=43 velocity=0 time=0
note_on channel=1 note=55 velocity=80 time=16
note_on channel=1 note=59 velocity=80 time=0
note_on channel=1 note=65 velocity=80 time=0
note_on channel=1 note=65 velocity=0 time=32
note_on channel=1 note=59 velocity=0 time=0
note_on channel=1 note=55 velocity=0 time=0
note_on channel=1 note=48 velocity=80 time=16
note_on channel=1 note=36 velocity=80 time=0
note_on channel=1 note=36 velocity=0 time=32
note_on channel=1 note=48 velocity=0 time=0
note_on channel=1 note=55 velocity=80 time=16
note_on channel=1 note=60 velocity=80 time=0
note_on channel=1 note=64 velocity=80 time=0
note_on channel=1 note=64 velocity=0 time=32
note_on channel=1 note=60 velocity=0 time=0
note_on channel=1 note=55 velocity=0 time=0
note_on channel=1 note=53 velocity=80 time=16
note_on channel=1 note=41 velocity=80 time=0
note_on channel=1 note=41 velocity=0 time=32
note_on channel=1 note=53 velocity=0 time=0
note_on channel=1 note=57 velocity=80 time=16
note_on channel=1 note=60 velocity=80 time=0
note_on channel=1 note=65 velocity=80 time=0
note_on channel=1 note=65 velocity=0 time=32
note_on channel=1 note=60 velocity=0 time=0
note_on channel=1 note=57 velocity=0 time=0
note_on channel=1 note=57 velocity=80 time=16
note_on channel=1 note=45 velocity=80 time=0
note_on channel=1 note=45 velocity=0 time=32
note_on channel=1 note=57 velocity=0 time=0
note_on channel=1 note=44 velocity=80 time=16
note_on channel=1 note=56 velocity=80 time=0
note_on channel=1 note=56 velocity=0 time=32
note_on channel=1 note=44 velocity=0 time=0
note_on channel=1 note=55 velocity=80 time=16
note_on channel=1 note=43 velocity=80 time=0
note_on channel=1 note=43 velocity=0 time=32
note_on channel=1 note=55 velocity=0 time=0
note_on channel=1 note=55 velocity=80 time=16
note_on channel=1 note=60 velocity=80 time=0
note_on channel=1 note=60 velocity=0 time=32
note_on channel=1 note=55 velocity=0 time=0
note_on channel=1 note=48 velocity=80 time=16
note_on channel=1 note=36 velocity=80 time=0
note_on channel=1 note=36 velocity=0 time=32
note_on channel=1 note=48 velocity=0 time=0
note_on channel=1 note=55 velocity=80 time=16
note_on channel=1 note=60 velocity=80 time=0
note_on channel=1 note=64 velocity=80 time=0
note_on channel=1 note=64 velocity=0 time=32
note_on channel=1 note=60 velocity=0 time=0
note_on channel=1 note=55 velocity=0 time=0
note_on channel=1 note=53 velocity=80 time=16
note_on channel=1 note=41 velocity=80 time=0
note_on channel=1 note=41 velocity=0 time=32
note_on channel=1 note=53 velocity=0 time=0
note_on channel=1 note=57 velocity=80 time=16
note_on channel=1 note=60 velocity=80 time=0
note_on channel=1 note=65 velocity=80 time=0
note_on channel=1 note=65 velocity=0 time=32
note_on channel=1 note=60 velocity=0 time=0
note_on channel=1 note=57 velocity=0 time=0
note_on channel=1 note=53 velocity=80 time=16
note_on channel=1 note=41 velocity=80 time=0
note_on channel=1 note=41 velocity=0 time=32
note_on channel=1 note=53 velocity=0 time=0
note_on channel=1 note=51 velocity=80 time=16
note_on channel=1 note=39 velocity=80 time=0
note_on channel=1 note=39 velocity=0 time=32
note_on channel=1 note=51 velocity=0 time=0
note_on channel=1 note=52 velocity=80 time=16
note_on channel=1 note=40 velocity=80 time=0
note_on channel=1 note=40 velocity=0 time=32
note_on channel=1 note=52 velocity=0 time=0
note_on channel=1 note=55 velocity=80 time=16
note_on channel=1 note=60 velocity=80 time=0
note_on channel=1 note=64 velocity=80 time=0
note_on channel=1 note=64 velocity=0 time=32
note_on channel=1 note=60 velocity=0 time=0
note_on channel=1 note=55 velocity=0 time=0
note_on channel=1 note=45 velocity=80 time=16
note_on channel=1 note=33 velocity=80 time=0
note_on channel=1 note=33 velocity=0 time=32
note_on channel=1 note=45 velocity=0 time=0
note_on channel=1 note=57 velocity=80 time=16
note_on channel=1 note=61 velocity=80 time=0
note_on channel=1 note=64 velocity=80 time=0
note_on channel=1 note=64 velocity=0 time=32
note_on channel=1 note=61 velocity=0 time=0
note_on channel=1 note=57 velocity=0 time=0
note_on channel=1 note=50 velocity=80 time=16
note_on channel=1 note=38 velocity=80 time=0
note_on channel=1 note=38 velocity=0 time=32
note_on channel=1 note=50 velocity=0 time=0
note_on channel=1 note=45 velocity=80 time=16
note_on channel=1 note=57 velocity=80 time=0
note_on channel=1 note=57 velocity=0 time=32
note_on channel=1 note=45 velocity=0 time=0
note_on channel=1 note=55 velocity=80 time=16
note_on channel=1 note=43 velocity=80 time=0
note_on channel=1 note=43 velocity=0 time=32
note_on channel=1 note=55 velocity=0 time=0
note_on channel=1 note=43 velocity=80 time=16
note_on channel=1 note=31 velocity=80 time=0
note_on channel=1 note=31 velocity=0 time=32
note_on channel=1 note=43 velocity=0 time=0
note_on channel=1 note=36 velocity=80 time=16
note_on channel=1 note=48 velocity=80 time=0
note_on channel=1 note=48 velocity=0 time=32
note_on channel=1 note=36 velocity=0 time=0
note_on channel=1 note=43 velocity=80 time=16
note_on channel=1 note=43 velocity=0 time=32
note_on channel=1 note=36 velocity=80 time=16
note_on channel=1 note=36 velocity=0 time=32
<meta message end_of_track time=0>
<meta message midi_port port=0 time=0>
<meta message track_name name='W.S.Trachtman - MIDI file' time=0>
control_change channel=2 control=0 value=0 time=0
control_change channel=2 control=32 value=0 time=0
program_change channel=2 program=0 time=0
note_on channel=2 note=36 velocity=1 time=26208
note_on channel=2 note=36 velocity=0 time=32
<meta message end_of_track time=0>
<meta message track_name name='Fig Leaf Rag' time=0>
<meta message track_name name='by Scott Joplin (1908)' time=0>
<meta message copyright text='Copyright  1997 by Warren Trachtman' time=0>
<meta message text text='Rights granted to distribute for non-commercial use only.\n' time=0>
<meta message text text='All Other Rights Reserved\n' time=0>
<meta message text text='Warren Trachtman\n' time=0>
<meta message text text='(warren@trachtman.org)\n' time=0>
<meta message smpte_offset frame_rate=25 hours=32 minutes=0 seconds=3 frames=0 sub_frames=0 time=0>
<meta message midi_port port=0 time=0>
sysex data=(67,16,76,0,0,126,0) time=0
<meta message midi_port port=0 time=0>
<meta message time_signature numerator=2 denominator=4 clocks_per_click=24 notated_32nd_notes_per_beat=8 time=0>
<meta message key_signature key='Bb' time=0>
<meta message set_tempo tempo=725602 time=0>
<meta message marker text='W.S.Trachtman - MIDI file - (warren@trachtman.org)' time=0>
<meta message set_tempo tempo=743863 time=420>
<meta message set_tempo tempo=725602 time=60>
<meta message set_tempo tempo=743863 time=180>
<meta message set_tempo tempo=725602 time=60>
<meta message set_tempo tempo=743863 time=150>
<meta message set_tempo tempo=725602 time=60>
<meta message set_tempo tempo=743863 time=30>
<meta message set_tempo tempo=763845 time=120>
<meta message set_tempo tempo=707965 time=120>
<meta message marker text='A1' time=0>
<meta message set_tempo tempo=734394 time=90>
<meta message set_tempo tempo=707965 time=60>
<meta message set_tempo tempo=734394 time=180>
<meta message set_tempo tempo=707965 time=60>
<meta message set_tempo tempo=725338 time=270>
<meta message set_tempo tempo=707965 time=60>
<meta message set_tempo tempo=734394 time=180>
<meta message set_tempo tempo=707965 time=60>
<meta message set_tempo tempo=734394 time=90>
<meta message set_tempo tempo=707965 time=60>
<meta message set_tempo tempo=734394 time=180>
<meta message set_tempo tempo=707965 time=60>
<meta message set_tempo tempo=725338 time=180>
<meta message set_tempo tempo=707965 time=60>
<meta message set_tempo tempo=725338 time=90>
<meta message set_tempo tempo=707965 time=60>
<meta message set_tempo tempo=725338 time=150>
<meta message set_tempo tempo=707965 time=30>
<meta message set_tempo tempo=734394 time=90>
<meta message set_tempo tempo=707965 time=60>
<meta message set_tempo tempo=734394 time=180>
<meta message set_tempo tempo=707965 time=60>
<meta message set_tempo tempo=725338 time=270>
<meta message set_tempo tempo=707965 time=60>
<meta message set_tempo tempo=725338 time=180>
<meta message set_tempo tempo=707965 time=60>
<meta message set_tempo tempo=725338 time=120>
<meta message set_tempo tempo=707965 time=60>
<meta message set_tempo tempo=725338 time=240>
<meta message set_tempo tempo=707965 time=60>
<meta message set_tempo tempo=716589 time=240>
<meta message set_tempo tempo=725338 time=120>
<meta message set_tempo tempo=707965 time=120>
<meta message marker text='A2' time=0>
<meta message set_tempo tempo=734394 time=90>
<meta message set_tempo tempo=707965 time=60>
<meta message set_tempo tempo=734394 time=180>
<meta message set_tempo tempo=707965 time=60>
<meta message set_tempo tempo=725338 time=270>
<meta message set_tempo tempo=707965 time=60>
<meta message set_tempo tempo=725338 time=180>
<meta message set_tempo tempo=707965 time=60>
<meta message set_tempo tempo=734394 time=90>
<meta message set_tempo tempo=707965 time=60>
<meta message set_tempo tempo=734394 time=180>
<meta message set_tempo tempo=707965 time=60>
<meta message set_tempo tempo=725338 time=180>
<meta message set_tempo tempo=707965 time=60>
<meta message set_tempo tempo=725338 time=90>
<meta message set_tempo tempo=707965 time=60>
<meta message set_tempo tempo=734394 time=150>
<meta message set_tempo tempo=707965 time=30>
<meta message set_tempo tempo=734394 time=90>
<meta message set_tempo tempo=707965 time=60>
<meta message set_tempo tempo=734394 time=180>
<meta message set_tempo tempo=707965 time=60>
<meta message set_tempo tempo=725338 time=270>
<meta message set_tempo tempo=707965 time=60>
<meta message set_tempo tempo=725338 time=180>
<meta message set_tempo tempo=707965 time=60>
<meta message set_tempo tempo=716589 time=90>
<meta message set_tempo tempo=707965 time=150>
<meta message set_tempo tempo=725338 time=180>
<meta message set_tempo tempo=707965 time=60>
<meta message set_tempo tempo=744232 time=360>
<meta message set_tempo tempo=707965 time=60>
<meta message marker text='B1' time=60>
<meta message set_tempo tempo=718391 time=1>
<meta message set_tempo tempo=736016 time=359>
<meta message set_tempo tempo=718391 time=60>
<meta message set_tempo tempo=727096 time=300>
<meta message set_tempo tempo=736016 time=60>
<meta message set_tempo tempo=755192 time=60>
<meta message set_tempo tempo=718391 time=60>
<meta message set_tempo tempo=745156 time=390>
<meta message set_tempo tempo=718391 time=30>
<meta message set_tempo tempo=745156 time=360>
<meta message set_tempo tempo=718391 time=60>
<meta message set_tempo tempo=736016 time=60>
<meta message set_tempo tempo=727096 time=60>
<meta message set_tempo tempo=718391 time=60>
<meta message set_tempo tempo=736016 time=360>
<meta message set_tempo tempo=727096 time=60>
<meta message set_tempo tempo=718391 time=60>
<meta message set_tempo tempo=745156 time=240>
<meta message set_tempo tempo=754527 time=45>
<meta message set_tempo tempo=784827 time=75>
<meta message set_tempo tempo=727096 time=60>
<meta message set_tempo tempo=718391 time=60>
<meta message set_tempo tempo=727096 time=90>
<meta message set_tempo tempo=736016 time=90>
<meta message set_tempo tempo=718391 time=60>
<meta message set_tempo tempo=727096 time=90>
<meta message set_tempo tempo=745156 time=90>
<meta message set_tempo tempo=718391 time=60>
<meta message set_tempo tempo=765013 time=240>
<meta message set_tempo tempo=718391 time=60>
<meta message marker text='B2' time=180>
<meta message set_tempo tempo=736016 time=360>
<meta message set_tempo tempo=718391 time=60>
<meta message set_tempo tempo=755192 time=420>
<meta message set_tempo tempo=718391 time=60>
<meta message set_tempo tempo=727096 time=390>
<meta message set_tempo tempo=745156 time=30>
<meta message set_tempo tempo=718391 time=30>
<meta message set_tempo tempo=754527 time=330>
<meta message set_tempo tempo=718391 time=60>
<meta message set_tempo tempo=745156 time=60>
<meta message set_tempo tempo=718391 time=60>
<meta message set_tempo tempo=736016 time=420>
<meta message set_tempo tempo=718391 time=60>
<meta message set_tempo tempo=755192 time=420>
<meta message set_tempo tempo=718391 time=60>
<meta message set_tempo tempo=745156 time=240>
<meta message set_tempo tempo=718391 time=60>
<meta message set_tempo tempo=745156 time=180>
<meta message set_tempo tempo=718391 time=60>
<meta message set_tempo tempo=736287 time=240>
<meta message set_tempo tempo=727185 time=60>
<meta message set_tempo tempo=716418 time=180>
<meta message marker text='A3' time=0>
<meta message set_tempo tempo=733945 time=90>
<meta message set_tempo tempo=716418 time=60>
<meta message set_tempo tempo=733945 time=180>
<meta message set_tempo tempo=716418 time=60>
<meta message set_tempo tempo=733945 time=270>
<meta message set_tempo tempo=716418 time=60>
<meta message set_tempo tempo=733945 time=180>
<meta message set_tempo tempo=716418 time=60>
<meta message set_tempo tempo=733945 time=90>
<meta message set_tempo tempo=716418 time=60>
<meta message set_tempo tempo=733945 time=180>
<meta message set_tempo tempo=716418 time=60>
<meta message set_tempo tempo=743034 time=180>
<meta message set_tempo tempo=716418 time=60>
<meta message set_tempo tempo=733945 time=90>
<meta message set_tempo tempo=716418 time=60>
<meta message set_tempo tempo=743034 time=150>
<meta message set_tempo tempo=716418 time=30>
<meta message set_tempo tempo=733945 time=90>
<meta message set_tempo tempo=716418 time=60>
<meta message set_tempo tempo=733945 time=180>
<meta message set_tempo tempo=716418 time=60>
<meta message set_tempo tempo=743034 time=270>
<meta message set_tempo tempo=716418 time=60>
<meta message set_tempo tempo=733945 time=180>
<meta message set_tempo tempo=716418 time=60>
<meta message set_tempo tempo=743034 time=90>
<meta message set_tempo tempo=716418 time=90>
<meta message set_tempo tempo=733945 time=240>
<meta message set_tempo tempo=716418 time=60>
<meta message set_tempo tempo=725076 time=240>
<meta message set_tempo tempo=733945 time=120>
<meta message key_signature key='Eb' time=120>
<meta message set_tempo tempo=725163 time=0>
<meta message marker text='C1' time=0>
<meta message set_tempo tempo=743126 time=90>
<meta message set_tempo tempo=725163 time=60>
<meta message set_tempo tempo=743126 time=180>
<meta message set_tempo tempo=725163 time=60>
<meta message set_tempo tempo=752540 time=60>
<meta message set_tempo tempo=725163 time=30>
<meta message set_tempo tempo=734035 time=210>
<meta message set_tempo tempo=743126 time=150>
<meta message set_tempo tempo=752540 time=60>
<meta message set_tempo tempo=725163 time=60>
<meta message set_tempo tempo=743126 time=90>
<meta message set_tempo tempo=725163 time=60>
<meta message set_tempo tempo=716418 time=90>
<meta message set_tempo tempo=725076 time=90>
<meta message set_tempo tempo=733945 time=90>
<meta message set_tempo tempo=716418 time=60>
<meta message set_tempo tempo=725076 time=240>
<meta message set_tempo tempo=733945 time=120>
<meta message set_tempo tempo=743034 time=60>
<meta message set_tempo tempo=716418 time=60>
<meta message set_tempo tempo=733945 time=90>
<meta message set_tempo tempo=716418 time=60>
<meta message set_tempo tempo=743034 time=180>
<meta message set_tempo tempo=716418 time=60>
<meta message set_tempo tempo=743034 time=510>
<meta message set_tempo tempo=716418 time=60>
<meta message set_tempo tempo=743034 time=360>
<meta message set_tempo tempo=716418 time=120>
<meta message set_tempo tempo=733945 time=180>
<meta message set_tempo tempo=716418 time=60>
<meta message set_tempo tempo=743034 time=120>
<meta message set_tempo tempo=733945 time=60>
<meta message set_tempo tempo=725163 time=60>
<meta message marker text='C2' time=0>
<meta message set_tempo tempo=743126 time=90>
<meta message set_tempo tempo=725163 time=60>
<meta message set_tempo tempo=743126 time=180>
<meta message set_tempo tempo=725163 time=60>
<meta message set_tempo tempo=752540 time=60>
<meta message set_tempo tempo=725163 time=30>
<meta message set_tempo tempo=734035 time=210>
<meta message set_tempo tempo=743126 time=150>
<meta message set_tempo tempo=752540 time=60>
<meta message set_tempo tempo=725163 time=60>
<meta message set_tempo tempo=743126 time=90>
<meta message set_tempo tempo=725163 time=60>
<meta message set_tempo tempo=716418 time=90>
<meta message set_tempo tempo=725076 time=90>
<meta message set_tempo tempo=733945 time=90>
<meta message set_tempo tempo=725076 time=60>
<meta message set_tempo tempo=743034 time=240>
<meta message set_tempo tempo=771803 time=120>
<meta message set_tempo tempo=743034 time=60>
<meta message set_tempo tempo=716418 time=60>
<meta message set_tempo tempo=733945 time=90>
<meta message set_tempo tempo=716418 time=60>
<meta message set_tempo tempo=743034 time=180>
<meta message set_tempo tempo=716418 time=60>
<meta message set_tempo tempo=743034 time=510>
<meta message set_tempo tempo=716418 time=60>
<meta message set_tempo tempo=743034 time=360>
<meta message set_tempo tempo=716418 time=120>
<meta message set_tempo tempo=733945 time=180>
<meta message set_tempo tempo=716418 time=60>
<meta message set_tempo tempo=743034 time=120>
<meta message set_tempo tempo=743034 time=120>
<meta message marker text='D1' time=0>
<meta message set_tempo tempo=716418 time=60>
<meta message set_tempo tempo=733945 time=270>
<meta message set_tempo tempo=752445 time=30>
<meta message set_tempo tempo=716418 time=30>
<meta message set_tempo tempo=743034 time=90>
<meta message set_tempo tempo=716418 time=60>
<meta message set_tempo tempo=733945 time=270>
<meta message set_tempo tempo=752445 time=30>
<meta message set_tempo tempo=716418 time=30>
<meta message set_tempo tempo=743034 time=90>
<meta message set_tempo tempo=716418 time=60>
<meta message set_tempo tempo=733945 time=270>
<meta message set_tempo tempo=752445 time=30>
<meta message set_tempo tempo=716418 time=30>
<meta message set_tempo tempo=743034 time=90>
<meta message set_tempo tempo=716418 time=60>
<meta message set_tempo tempo=725076 time=120>
<meta message set_tempo tempo=733945 time=60>
<meta message set_tempo tempo=716418 time=60>
<meta message set_tempo tempo=743034 time=60>
<meta message set_tempo tempo=716418 time=60>
<meta message set_tempo tempo=743034 time=60>
<meta message set_tempo tempo=716418 time=60>
<meta message set_tempo tempo=743034 time=270>
<meta message set_tempo tempo=716418 time=60>
<meta message set_tempo tempo=743034 time=90>
<meta message set_tempo tempo=716418 time=60>
<meta message set_tempo tempo=725076 time=270>
<meta message set_tempo tempo=743034 time=30>
<meta message set_tempo tempo=716418 time=60>
<meta message set_tempo tempo=733945 time=150>
<meta message set_tempo tempo=725076 time=90>
<meta message set_tempo tempo=716418 time=60>
<meta message set_tempo tempo=743034 time=150>
<meta message set_tempo tempo=716418 time=90>
<meta message set_tempo tempo=733945 time=90>
<meta message set_tempo tempo=716418 time=90>
<meta message set_tempo tempo=743034 time=60>
<meta message set_tempo tempo=716418 time=180>
<meta message set_tempo tempo=743034 time=60>
<meta message marker text='D2' time=0>
<meta message set_tempo tempo=716418 time=60>
<meta message set_tempo tempo=733945 time=270>
<meta message set_tempo tempo=752445 time=30>
<meta message set_tempo tempo=716418 time=30>
<meta message set_tempo tempo=743034 time=90>
<meta message set_tempo tempo=716418 time=60>
<meta message set_tempo tempo=733945 time=270>
<meta message set_tempo tempo=752445 time=30>
<meta message set_tempo tempo=716418 time=30>
<meta message set_tempo tempo=743034 time=90>
<meta message set_tempo tempo=716418 time=60>
<meta message set_tempo tempo=733945 time=270>
<meta message set_tempo tempo=752445 time=30>
<meta message set_tempo tempo=716418 time=30>
<meta message set_tempo tempo=743034 time=90>
<meta message set_tempo tempo=716418 time=60>
<meta message set_tempo tempo=725076 time=120>
<meta message set_tempo tempo=733945 time=60>
<meta message set_tempo tempo=716418 time=60>
<meta message set_tempo tempo=743034 time=60>
<meta message set_tempo tempo=716418 time=60>
<meta message set_tempo tempo=743034 time=60>
<meta message set_tempo tempo=716418 time=60>
<meta message set_tempo tempo=743034 time=270>
<meta message set_tempo tempo=716418 time=60>
<meta message set_tempo tempo=743034 time=90>
<meta message set_tempo tempo=716418 time=60>
<meta message set_tempo tempo=725076 time=270>
<meta message set_tempo tempo=743034 time=30>
<meta message set_tempo tempo=716418 time=60>
<meta message set_tempo tempo=733945 time=150>
<meta message set_tempo tempo=725076 time=90>
<meta message set_tempo tempo=716418 time=60>
<meta message set_tempo tempo=743034 time=150>
<meta message set_tempo tempo=716418 time=90>
<meta message set_tempo tempo=733945 time=90>
<meta message set_tempo tempo=716418 time=90>
<meta message set_tempo tempo=743034 time=60>
<meta message set_tempo tempo=762002 time=135>
<meta message set_tempo tempo=743494 time=105>
<meta message set_tempo tempo=745619 time=1>
<meta message set_tempo tempo=666667 time=119>
<meta message end_of_track time=0>
<meta message midi_port port=0 time=0>
<meta message track_name name='Fig Leaf Rag' time=0>
program_change channel=0 program=0 time=0
control_change channel=0 control=7 value=127 time=0
control_change channel=0 control=10 value=84 time=0
control_change channel=0 control=121 value=0 time=0
control_change channel=0 control=1 value=0 time=0
control_change channel=0 control=64 value=0 time=37
aftertouch channel=0 value=0 time=1
pitchwheel channel=0 pitch=0 time=0
control_change channel=0 control=74 value=73 time=2
control_change channel=0 control=71 value=70 time=2
control_change channel=0 control=10 value=68 time=197
note_on channel=0 note=67 velocity=75 time=1
note_on channel=0 note=66 velocity=72 time=31
<meta message lyrics text='Leaf ' time=0>
note_on channel=0 note=67 velocity=0 time=4
note_on channel=0 note=65 velocity=75 time=25
<meta message lyrics text='Rag ' time=0>
note_on channel=0 note=66 velocity=0 time=1
control_change channel=0 control=10 value=72 time=28
note_on channel=0 note=70 velocity=81 time=2
<meta message lyrics text='; ' time=0>
note_on channel=0 note=65 velocity=0 time=4
note_on channel=0 note=70 velocity=0 time=46
note_on channel=0 note=69 velocity=75 time=10
<meta message lyrics text='by ' time=0>
note_on channel=0 note=70 velocity=81 time=29
<meta message lyrics text='Scott ' time=0>
note_on channel=0 note=69 velocity=0 time=6
note_on channel=0 note=70 velocity=0 time=44
note_on channel=0 note=72 velocity=85 time=10
<meta message lyrics text='Joplin ' time=0>
note_on channel=0 note=71 velocity=77 time=31
<meta message lyrics text='(1908) ' time=0>
note_on channel=0 note=72 velocity=0 time=4
note_on channel=0 note=70 velocity=80 time=25
<meta message lyrics text='; ' time=0>
note_on channel=0 note=71 velocity=0 time=1
control_change channel=0 control=10 value=77 time=28
note_on channel=0 note=74 velocity=88 time=2
<meta message lyrics text='Sequenced ' time=0>
note_on channel=0 note=70 velocity=0 time=4
note_on channel=0 note=74 velocity=0 time=46
note_on channel=0 note=73 velocity=81 time=10
<meta message lyrics text='by ' time=0>
note_on channel=0 note=74 velocity=84 time=29
<meta message lyrics text='W.S.Trachtman ' time=0>
note_on channel=0 note=73 velocity=0 time=6
note_on channel=0 note=74 velocity=0 time=44
control_change channel=0 control=10 value=81 time=9
note_on channel=0 note=77 velocity=86 time=1
control_change channel=0 control=10 value=75 time=29
note_on channel=0 note=73 velocity=81 time=2
<meta message lyrics text='(warren@trachtman.org) ' time=0>
note_on channel=0 note=77 velocity=0 time=4
note_on channel=0 note=74 velocity=82 time=25
note_on channel=0 note=73 velocity=0 time=1
control_change channel=0 control=10 value=70 time=28
note_on channel=0 note=69 velocity=75 time=2
<meta message lyrics text='rev(7/97) ' time=0>
<meta message lyrics text='\r' time=0>
note_on channel=0 note=74 velocity=0 time=4
note_on channel=0 note=70 velocity=85 time=25
note_on channel=0 note=69 velocity=0 time=1
note_on channel=0 note=67 velocity=79 time=30
note_on channel=0 note=70 velocity=0 time=4
note_on channel=0 note=67 velocity=0 time=46
control_change channel=0 control=10 value=66 time=8
note_on channel=0 note=66 velocity=75 time=2
note_on channel=0 note=65 velocity=86 time=29
note_on channel=0 note=66 velocity=0 time=1
note_on channel=0 note=65 velocity=0 time=83
control_change channel=0 control=10 value=72 time=35
note_on channel=0 note=72 velocity=93 time=1
note_on channel=0 note=65 velocity=93 time=0
note_on channel=0 note=69 velocity=93 time=0
note_on channel=0 note=77 velocity=93 time=0
note_on channel=0 note=77 velocity=0 time=92
note_on channel=0 note=72 velocity=0 time=0
note_on channel=0 note=65 velocity=0 time=0
note_on channel=0 note=69 velocity=0 time=0
control_change channel=0 control=10 value=65 time=27
note_on channel=0 note=65 velocity=75 time=1
control_change channel=0 control=10 value=72 time=29
note_on channel=0 note=70 velocity=72 time=2
note_on channel=0 note=65 velocity=0 time=5
control_change channel=0 control=10 value=77 time=23
note_on channel=0 note=70 velocity=0 time=1
note_on channel=0 note=74 velocity=77 time=0
control_change channel=0 control=10 value=81 time=29
note_on channel=0 note=77 velocity=86 time=2
note_on channel=0 note=74 velocity=0 time=5
note_on channel=0 note=77 velocity=0 time=45
control_change channel=0 control=10 value=72 time=8
note_on channel=0 note=70 velocity=80 time=2
note_on channel=0 note=70 velocity=0 time=29
note_on channel=0 note=72 velocity=82 time=0
control_change channel=0 control=10 value=77 time=29
note_on channel=0 note=74 velocity=75 time=2
note_on channel=0 note=72 velocity=0 time=5
note_on channel=0 note=74 velocity=0 time=20
control_change channel=0 control=10 value=70 time=3
note_on channel=0 note=69 velocity=84 time=1
note_on channel=0 note=70 velocity=75 time=31
note_on channel=0 note=69 velocity=0 time=5
note_on channel=0 note=70 velocity=0 time=24
note_on channel=0 note=67 velocity=81 time=0
control_change channel=0 control=10 value=65 time=29
note_on channel=0 note=65 velocity=93 time=2
note_on channel=0 note=67 velocity=0 time=5
note_on channel=0 note=65 velocity=0 time=45
note_on channel=0 note=66 velocity=79 time=10
note_on channel=0 note=66 velocity=0 time=29
note_on channel=0 note=67 velocity=81 time=0
control_change channel=0 control=10 value=69 time=29
note_on channel=0 note=68 velocity=78 time=2
note_on channel=0 note=67 velocity=0 time=5
note_on channel=0 note=68 velocity=0 time=20
note_on channel=0 note=69 velocity=85 time=4
control_change channel=0 control=10 value=74 time=29
note_on channel=0 note=72 velocity=82 time=2
control_change channel=0 control=10 value=78 time=28
note_on channel=0 note=72 velocity=0 time=1
note_on channel=0 note=75 velocity=85 time=0
note_on channel=0 note=69 velocity=0 time=6
note_on channel=0 note=75 velocity=0 time=19
note_on channel=0 note=75 velocity=94 time=6
note_on channel=0 note=79 velocity=94 time=0
note_on channel=0 note=69 velocity=94 time=0
note_on channel=0 note=69 velocity=0 time=50
note_on channel=0 note=79 velocity=0 time=0
note_on channel=0 note=75 velocity=0 time=0
control_change channel=0 control=10 value=82 time=8
note_on channel=0 note=78 velocity=85 time=2
note_on channel=0 note=78 velocity=0 time=29
note_on channel=0 note=77 velocity=88 time=0
note_on channel=0 note=77 velocity=0 time=50
control_change channel=0 control=10 value=72 time=9
note_on channel=0 note=70 velocity=85 time=1
control_change channel=0 control=10 value=77 time=29
note_on channel=0 note=74 velocity=81 time=2
control_change channel=0 control=10 value=81 time=28
note_on channel=0 note=74 velocity=0 time=1
note_on channel=0 note=77 velocity=85 time=0
note_on channel=0 note=70 velocity=0 time=6
control_change channel=0 control=10 value=77 time=23
note_on channel=0 note=79 velocity=90 time=2
note_on channel=0 note=70 velocity=90 time=0
note_on channel=0 note=74 velocity=90 time=0
note_on channel=0 note=77 velocity=0 time=5
note_on channel=0 note=79 velocity=0 time=45
note_on channel=0 note=70 velocity=0 time=0
note_on channel=0 note=74 velocity=0 time=0
control_change channel=0 control=10 value=82 time=8
note_on channel=0 note=78 velocity=79 time=2
note_on channel=0 note=78 velocity=0 time=29
note_on channel=0 note=77 velocity=85 time=0
note_on channel=0 note=77 velocity=0 time=50
control_change channel=0 control=10 value=65 time=9
note_on channel=0 note=65 velocity=82 time=1
control_change channel=0 control=10 value=72 time=29
note_on channel=0 note=70 velocity=75 time=2
note_on channel=0 note=65 velocity=0 time=7
control_change channel=0 control=10 value=77 time=21
note_on channel=0 note=74 velocity=78 time=1
note_on channel=0 note=70 velocity=0 time=2
control_change channel=0 control=10 value=81 time=27
note_on channel=0 note=77 velocity=89 time=2
note_on channel=0 note=74 velocity=0 time=7
note_on channel=0 note=77 velocity=0 time=43
control_change channel=0 control=10 value=72 time=8
note_on channel=0 note=70 velocity=82 time=2
note_on channel=0 note=72 velocity=85 time=29
note_on channel=0 note=70 velocity=0 time=2
control_change channel=0 control=10 value=77 time=27
note_on channel=0 note=74 velocity=75 time=2
note_on channel=0 note=72 velocity=0 time=7
note_on channel=0 note=74 velocity=0 time=18
control_change channel=0 control=10 value=70 time=3
note_on channel=0 note=69 velocity=85 time=1
note_on channel=0 note=70 velocity=80 time=31
note_on channel=0 note=69 velocity=0 time=7
note_on channel=0 note=67 velocity=86 time=22
note_on channel=0 note=70 velocity=0 time=2
control_change channel=0 control=10 value=65 time=27
note_on channel=0 note=65 velocity=89 time=2
note_on channel=0 note=67 velocity=0 time=7
note_on channel=0 note=65 velocity=0 time=43
note_on channel=0 note=67 velocity=76 time=10
note_on channel=0 note=65 velocity=79 time=29
note_on channel=0 note=68 velocity=79 time=0
note_on channel=0 note=67 velocity=0 time=2
control_change channel=0 control=10 value=77 time=27
note_on channel=0 note=74 velocity=76 time=2
note_on channel=0 note=68 velocity=0 time=7
note_on channel=0 note=65 velocity=0 time=0
control_change channel=0 control=10 value=68 time=21
note_on channel=0 note=65 velocity=82 time=1
note_on channel=0 note=69 velocity=82 time=0
note_on channel=0 note=74 velocity=0 time=2
control_change channel=0 control=10 value=74 time=27
note_on channel=0 note=72 velocity=73 time=2
note_on channel=0 note=69 velocity=0 time=7
control_change channel=0 control=10 value=81 time=21
note_on channel=0 note=77 velocity=78 time=1
note_on channel=0 note=72 velocity=0 time=2
note_on channel=0 note=65 velocity=0 time=6
control_change channel=0 control=10 value=74 time=21
note_on channel=0 note=70 velocity=91 time=2
note_on channel=0 note=74 velocity=91 time=0
note_on channel=0 note=77 velocity=0 time=7
note_on channel=0 note=74 velocity=0 time=43
note_on channel=0 note=70 velocity=0 time=0
control_change channel=0 control=10 value=83 time=8
note_on channel=0 note=79 velocity=81 time=2
control_change channel=0 control=10 value=74 time=28
note_on channel=0 note=72 velocity=86 time=1
note_on channel=0 note=79 velocity=0 time=2
control_change channel=0 control=10 value=86 time=27
note_on channel=0 note=81 velocity=84 time=2
note_on channel=0 note=72 velocity=0 time=7
control_change channel=0 control=10 value=75 time=21
note_on channel=0 note=77 velocity=97 time=1
note_on channel=0 note=69 velocity=97 time=0
note_on channel=0 note=81 velocity=0 time=2
note_on channel=0 note=69 velocity=0 time=48
note_on channel=0 note=77 velocity=0 time=0
note_on channel=0 note=75 velocity=86 time=10
note_on channel=0 note=72 velocity=79 time=31
note_on channel=0 note=75 velocity=0 time=7
control_change channel=0 control=10 value=70 time=21
note_on channel=0 note=69 velocity=80 time=1
note_on channel=0 note=72 velocity=0 time=2
note_on channel=0 note=68 velocity=74 time=29
note_on channel=0 note=69 velocity=0 time=7
note_on channel=0 note=67 velocity=74 time=22
note_on channel=0 note=68 velocity=0 time=2
control_change channel=0 control=10 value=66 time=27
note_on channel=0 note=66 velocity=70 time=2
note_on channel=0 note=67 velocity=0 time=7
note_on channel=0 note=66 velocity=0 time=18
note_on channel=0 note=65 velocity=82 time=4
control_change channel=0 control=10 value=72 time=29
note_on channel=0 note=70 velocity=75 time=2
note_on channel=0 note=65 velocity=0 time=7
control_change channel=0 control=10 value=77 time=21
note_on channel=0 note=74 velocity=80 time=1
note_on channel=0 note=70 velocity=0 time=2
control_change channel=0 control=10 value=81 time=27
note_on channel=0 note=77 velocity=93 time=2
note_on channel=0 note=74 velocity=0 time=7
note_on channel=0 note=77 velocity=0 time=43
control_change channel=0 control=10 value=72 time=8
note_on channel=0 note=70 velocity=79 time=2
note_on channel=0 note=72 velocity=87 time=29
note_on channel=0 note=70 velocity=0 time=2
control_change channel=0 control=10 value=77 time=27
note_on channel=0 note=74 velocity=80 time=2
note_on channel=0 note=72 velocity=0 time=7
note_on channel=0 note=74 velocity=0 time=18
control_change channel=0 control=10 value=70 time=3
note_on channel=0 note=69 velocity=89 time=1
note_on channel=0 note=70 velocity=81 time=31
note_on channel=0 note=69 velocity=0 time=7
note_on channel=0 note=67 velocity=87 time=22
note_on channel=0 note=70 velocity=0 time=2
control_change channel=0 control=10 value=65 time=27
note_on channel=0 note=65 velocity=91 time=2
note_on channel=0 note=67 velocity=0 time=7
note_on channel=0 note=65 velocity=0 time=43
note_on channel=0 note=66 velocity=81 time=10
note_on channel=0 note=67 velocity=87 time=29
note_on channel=0 note=66 velocity=0 time=2
control_change channel=0 control=10 value=69 time=27
note_on channel=0 note=68 velocity=81 time=2
note_on channel=0 note=67 velocity=0 time=7
note_on channel=0 note=68 velocity=0 time=18
note_on channel=0 note=69 velocity=86 time=4
control_change channel=0 control=10 value=74 time=29
note_on channel=0 note=72 velocity=83 time=2
control_change channel=0 control=10 value=78 time=28
note_on channel=0 note=75 velocity=84 time=1
note_on channel=0 note=72 velocity=0 time=2
note_on channel=0 note=69 velocity=0 time=6
note_on channel=0 note=75 velocity=0 time=17
note_on channel=0 note=75 velocity=93 time=6
note_on channel=0 note=79 velocity=93 time=0
note_on channel=0 note=69 velocity=93 time=0
note_on channel=0 note=69 velocity=0 time=50
note_on channel=0 note=79 velocity=0 time=0
note_on channel=0 note=75 velocity=0 time=0
control_change channel=0 control=10 value=82 time=8
note_on channel=0 note=78 velocity=84 time=2
note_on channel=0 note=77 velocity=87 time=29
note_on channel=0 note=78 velocity=0 time=2
note_on channel=0 note=77 velocity=0 time=48
control_change channel=0 control=10 value=72 time=9
note_on channel=0 note=70 velocity=85 time=1
control_change channel=0 control=10 value=77 time=29
note_on channel=0 note=74 velocity=82 time=2
control_change channel=0 control=10 value=81 time=28
note_on channel=0 note=77 velocity=84 time=1
note_on channel=0 note=74 velocity=0 time=2
note_on channel=0 note=70 velocity=0 time=6
control_change channel=0 control=10 value=77 time=21
note_on channel=0 note=70 velocity=96 time=2
note_on channel=0 note=74 velocity=96 time=0
note_on channel=0 note=79 velocity=96 time=0
note_on channel=0 note=77 velocity=0 time=7
note_on channel=0 note=70 velocity=0 time=43
note_on channel=0 note=74 velocity=0 time=0
note_on channel=0 note=79 velocity=0 time=0
control_change channel=0 control=10 value=82 time=8
note_on channel=0 note=78 velocity=89 time=2
control_change channel=0 control=10 value=75 time=28
note_on channel=0 note=74 velocity=93 time=1
note_on channel=0 note=68 velocity=93 time=0
note_on channel=0 note=77 velocity=93 time=0
note_on channel=0 note=78 velocity=0 time=2
note_on channel=0 note=74 velocity=0 time=48
note_on channel=0 note=68 velocity=0 time=0
note_on channel=0 note=77 velocity=0 time=0
note_on channel=0 note=77 velocity=101 time=10
note_on channel=0 note=67 velocity=101 time=0
note_on channel=0 note=72 velocity=101 time=0
note_on channel=0 note=75 velocity=93 time=31
note_on channel=0 note=77 velocity=0 time=8
note_on channel=0 note=67 velocity=0 time=36
note_on channel=0 note=72 velocity=0 time=0
note_on channel=0 note=75 velocity=0 time=2
control_change channel=0 control=10 value=81 time=12
note_on channel=0 note=75 velocity=102 time=2
note_on channel=0 note=79 velocity=109 time=0
note_on channel=0 note=72 velocity=109 time=0
note_on channel=0 note=84 velocity=109 time=0
note_on channel=0 note=84 velocity=0 time=80
note_on channel=0 note=75 velocity=0 time=0
note_on channel=0 note=79 velocity=0 time=0
note_on channel=0 note=72 velocity=0 time=0
control_change channel=0 control=10 value=86 time=8
note_on channel=0 note=87 velocity=100 time=1
note_on channel=0 note=82 velocity=100 time=0
note_on channel=0 note=75 velocity=100 time=0
note_on channel=0 note=75 velocity=0 time=50
note_on channel=0 note=82 velocity=0 time=0
note_on channel=0 note=87 velocity=0 time=0
note_on channel=0 note=74 velocity=106 time=10
note_on channel=0 note=86 velocity=111 time=0
note_on channel=0 note=82 velocity=106 time=0
note_on channel=0 note=82 velocity=0 time=25
note_on channel=0 note=74 velocity=0 time=0
control_change channel=0 control=10 value=78 time=4
note_on channel=0 note=74 velocity=96 time=2
note_on channel=0 note=70 velocity=100 time=0
note_on channel=0 note=82 velocity=100 time=0
note_on channel=0 note=86 velocity=0 time=7
note_on channel=0 note=74 velocity=0 time=43
note_on channel=0 note=70 velocity=0 time=0
note_on channel=0 note=82 velocity=0 time=0
control_change channel=0 control=10 value=74 time=8
note_on channel=0 note=79 velocity=98 time=2
note_on channel=0 note=67 velocity=98 time=0
note_on channel=0 note=71 velocity=98 time=0
note_on channel=0 note=71 velocity=0 time=50
note_on channel=0 note=67 velocity=0 time=0
note_on channel=0 note=79 velocity=0 time=0
control_change channel=0 control=10 value=81 time=8
note_on channel=0 note=77 velocity=94 time=2
control_change channel=0 control=10 value=72 time=28
note_on channel=0 note=65 velocity=98 time=1
note_on channel=0 note=74 velocity=98 time=0
note_on channel=0 note=71 velocity=98 time=0
note_on channel=0 note=77 velocity=0 time=9
note_on channel=0 note=65 velocity=0 time=41
note_on channel=0 note=74 velocity=0 time=0
note_on channel=0 note=71 velocity=0 time=0
note_on channel=0 note=74 velocity=100 time=10
note_on channel=0 note=64 velocity=100 time=0
note_on channel=0 note=70 velocity=100 time=0
note_on channel=0 note=72 velocity=92 time=31
note_on channel=0 note=74 velocity=0 time=6
note_on channel=0 note=64 velocity=0 time=38
note_on channel=0 note=70 velocity=0 time=0
note_on channel=0 note=72 velocity=0 time=2
note_on channel=0 note=69 velocity=95 time=14
note_on channel=0 note=65 velocity=95 time=0
note_on channel=0 note=77 velocity=99 time=0
note_on channel=0 note=77 velocity=0 time=50
note_on channel=0 note=65 velocity=0 time=0
note_on channel=0 note=69 velocity=0 time=0
control_change channel=0 control=10 value=77 time=8
note_on channel=0 note=74 velocity=105 time=2
control_change channel=0 control=10 value=68 time=28
note_on channel=0 note=63 velocity=92 time=1
note_on channel=0 note=72 velocity=92 time=0
note_on channel=0 note=69 velocity=88 time=0
note_on channel=0 note=74 velocity=0 time=8
note_on channel=0 note=63 velocity=0 time=42
note_on channel=0 note=72 velocity=0 time=0
note_on channel=0 note=69 velocity=0 time=0
note_on channel=0 note=70 velocity=97 time=10
note_on channel=0 note=62 velocity=97 time=0
note_on channel=0 note=62 velocity=0 time=101
note_on channel=0 note=70 velocity=0 time=0
control_change channel=0 control=10 value=64 time=18
note_on channel=0 note=65 velocity=88 time=1
note_on channel=0 note=63 velocity=88 time=0
note_on channel=0 note=63 velocity=0 time=101
note_on channel=0 note=65 velocity=0 time=0
note_on channel=0 note=65 velocity=80 time=19
control_change channel=0 control=10 value=72 time=29
note_on channel=0 note=70 velocity=75 time=2
note_on channel=0 note=65 velocity=0 time=5
control_change channel=0 control=10 value=77 time=23
note_on channel=0 note=70 velocity=0 time=1
note_on channel=0 note=74 velocity=81 time=0
control_change channel=0 control=10 value=81 time=29
note_on channel=0 note=77 velocity=93 time=2
note_on channel=0 note=74 velocity=0 time=5
note_on channel=0 note=77 velocity=0 time=45
control_change channel=0 control=10 value=72 time=8
note_on channel=0 note=70 velocity=80 time=2
note_on channel=0 note=70 velocity=0 time=29
note_on channel=0 note=72 velocity=82 time=0
control_change channel=0 control=10 value=77 time=29
note_on channel=0 note=74 velocity=74 time=2
note_on channel=0 note=72 velocity=0 time=5
note_on channel=0 note=74 velocity=0 time=20
control_change channel=0 control=10 value=70 time=3
note_on channel=0 note=69 velocity=83 time=1
note_on channel=0 note=70 velocity=74 time=31
note_on channel=0 note=69 velocity=0 time=5
note_on channel=0 note=70 velocity=0 time=24
note_on channel=0 note=67 velocity=85 time=0
control_change channel=0 control=10 value=65 time=29
note_on channel=0 note=65 velocity=96 time=2
note_on channel=0 note=67 velocity=0 time=5
note_on channel=0 note=65 velocity=0 time=45
note_on channel=0 note=66 velocity=79 time=10
note_on channel=0 note=66 velocity=0 time=29
note_on channel=0 note=67 velocity=81 time=0
control_change channel=0 control=10 value=69 time=29
note_on channel=0 note=68 velocity=78 time=2
note_on channel=0 note=67 velocity=0 time=5
note_on channel=0 note=68 velocity=0 time=20
note_on channel=0 note=69 velocity=88 time=4
control_change channel=0 control=10 value=74 time=29
note_on channel=0 note=72 velocity=85 time=2
control_change channel=0 control=10 value=78 time=28
note_on channel=0 note=72 velocity=0 time=1
note_on channel=0 note=75 velocity=88 time=0
note_on channel=0 note=69 velocity=0 time=6
note_on channel=0 note=75 velocity=0 time=19
note_on channel=0 note=69 velocity=92 time=6
note_on channel=0 note=75 velocity=95 time=1
note_on channel=0 note=79 velocity=98 time=3
note_on channel=0 note=69 velocity=0 time=46
note_on channel=0 note=75 velocity=0 time=1
note_on channel=0 note=79 velocity=0 time=3
control_change channel=0 control=10 value=82 time=4
note_on channel=0 note=78 velocity=88 time=2
note_on channel=0 note=78 velocity=0 time=29
note_on channel=0 note=77 velocity=91 time=0
note_on channel=0 note=77 velocity=0 time=50
control_change channel=0 control=10 value=72 time=9
note_on channel=0 note=70 velocity=88 time=1
control_change channel=0 control=10 value=77 time=29
note_on channel=0 note=74 velocity=84 time=2
control_change channel=0 control=10 value=81 time=28
note_on channel=0 note=74 velocity=0 time=1
note_on channel=0 note=77 velocity=88 time=0
note_on channel=0 note=70 velocity=0 time=6
control_change channel=0 control=10 value=77 time=23
note_on channel=0 note=70 velocity=89 time=2
note_on channel=0 note=74 velocity=93 time=2
note_on channel=0 note=79 velocity=95 time=2
note_on channel=0 note=77 velocity=0 time=1
note_on channel=0 note=70 velocity=0 time=45
note_on channel=0 note=74 velocity=0 time=2
note_on channel=0 note=79 velocity=0 time=2
control_change channel=0 control=10 value=82 time=4
note_on channel=0 note=78 velocity=82 time=2
note_on channel=0 note=78 velocity=0 time=29
note_on channel=0 note=77 velocity=88 time=0
note_on channel=0 note=77 velocity=0 time=50
control_change channel=0 control=10 value=65 time=9
note_on channel=0 note=65 velocity=81 time=1
control_change channel=0 control=10 value=72 time=29
note_on channel=0 note=70 velocity=73 time=2
note_on channel=0 note=65 velocity=0 time=7
control_change channel=0 control=10 value=77 time=21
note_on channel=0 note=74 velocity=76 time=1
note_on channel=0 note=70 velocity=0 time=2
control_change channel=0 control=10 value=81 time=27
note_on channel=0 note=77 velocity=87 time=2
note_on channel=0 note=74 velocity=0 time=7
note_on channel=0 note=77 velocity=0 time=43
control_change channel=0 control=10 value=72 time=8
note_on channel=0 note=70 velocity=81 time=2
note_on channel=0 note=72 velocity=83 time=29
note_on channel=0 note=70 velocity=0 time=2
control_change channel=0 control=10 value=77 time=27
note_on channel=0 note=74 velocity=73 time=2
note_on channel=0 note=72 velocity=0 time=7
note_on channel=0 note=74 velocity=0 time=18
control_change channel=0 control=10 value=70 time=3
note_on channel=0 note=69 velocity=83 time=1
note_on channel=0 note=70 velocity=79 time=31
note_on channel=0 note=69 velocity=0 time=7
note_on channel=0 note=67 velocity=84 time=22
note_on channel=0 note=70 velocity=0 time=2
control_change channel=0 control=10 value=65 time=27
note_on channel=0 note=65 velocity=92 time=2
note_on channel=0 note=67 velocity=0 time=7
note_on channel=0 note=65 velocity=0 time=43
note_on channel=0 note=67 velocity=82 time=10
note_on channel=0 note=65 velocity=85 time=29
note_on channel=0 note=68 velocity=85 time=0
note_on channel=0 note=67 velocity=0 time=2
control_change channel=0 control=10 value=77 time=27
note_on channel=0 note=74 velocity=81 time=2
note_on channel=0 note=68 velocity=0 time=7
note_on channel=0 note=65 velocity=0 time=0
control_change channel=0 control=10 value=68 time=21
note_on channel=0 note=65 velocity=89 time=1
note_on channel=0 note=69 velocity=89 time=0
note_on channel=0 note=74 velocity=0 time=2
control_change channel=0 control=10 value=74 time=27
note_on channel=0 note=72 velocity=80 time=2
note_on channel=0 note=69 velocity=0 time=7
control_change channel=0 control=10 value=81 time=21
note_on channel=0 note=77 velocity=84 time=1
note_on channel=0 note=72 velocity=0 time=2
note_on channel=0 note=65 velocity=0 time=6
control_change channel=0 control=10 value=74 time=21
note_on channel=0 note=70 velocity=98 time=2
note_on channel=0 note=74 velocity=98 time=0
note_on channel=0 note=77 velocity=0 time=7
note_on channel=0 note=74 velocity=0 time=43
note_on channel=0 note=70 velocity=0 time=0
control_change channel=0 control=10 value=83 time=8
note_on channel=0 note=79 velocity=89 time=2
control_change channel=0 control=10 value=74 time=28
note_on channel=0 note=72 velocity=95 time=1
note_on channel=0 note=79 velocity=0 time=2
control_change channel=0 control=10 value=86 time=27
note_on channel=0 note=81 velocity=91 time=2
note_on channel=0 note=72 velocity=0 time=7
control_change channel=0 control=10 value=75 time=21
note_on channel=0 note=69 velocity=101 time=1
note_on channel=0 note=77 velocity=101 time=0
note_on channel=0 note=81 velocity=0 time=2
note_on channel=0 note=77 velocity=0 time=48
note_on channel=0 note=69 velocity=0 time=0
note_on channel=0 note=75 velocity=86 time=10
note_on channel=0 note=72 velocity=80 time=31
note_on channel=0 note=75 velocity=0 time=7
control_change channel=0 control=10 value=70 time=21
note_on channel=0 note=69 velocity=88 time=1
note_on channel=0 note=72 velocity=0 time=2
note_on channel=0 note=68 velocity=76 time=29
note_on channel=0 note=69 velocity=0 time=7
note_on channel=0 note=67 velocity=79 time=22
note_on channel=0 note=68 velocity=0 time=2
control_change channel=0 control=10 value=66 time=27
note_on channel=0 note=66 velocity=71 time=2
note_on channel=0 note=67 velocity=0 time=7
note_on channel=0 note=66 velocity=0 time=18
note_on channel=0 note=65 velocity=81 time=4
control_change channel=0 control=10 value=72 time=29
note_on channel=0 note=70 velocity=73 time=2
note_on channel=0 note=65 velocity=0 time=7
control_change channel=0 control=10 value=77 time=21
note_on channel=0 note=74 velocity=79 time=1
note_on channel=0 note=70 velocity=0 time=2
control_change channel=0 control=10 value=81 time=27
note_on channel=0 note=77 velocity=91 time=2
note_on channel=0 note=74 velocity=0 time=7
note_on channel=0 note=77 velocity=0 time=43
control_change channel=0 control=10 value=72 time=8
note_on channel=0 note=70 velocity=78 time=2
note_on channel=0 note=72 velocity=85 time=29
note_on channel=0 note=70 velocity=0 time=2
control_change channel=0 control=10 value=77 time=27
note_on channel=0 note=74 velocity=78 time=2
note_on channel=0 note=72 velocity=0 time=7
note_on channel=0 note=74 velocity=0 time=18
control_change channel=0 control=10 value=70 time=3
note_on channel=0 note=69 velocity=86 time=1
note_on channel=0 note=70 velocity=79 time=31
note_on channel=0 note=69 velocity=0 time=7
note_on channel=0 note=67 velocity=84 time=22
note_on channel=0 note=70 velocity=0 time=2
control_change channel=0 control=10 value=65 time=27
note_on channel=0 note=65 velocity=92 time=2
note_on channel=0 note=67 velocity=0 time=7
note_on channel=0 note=65 velocity=0 time=43
note_on channel=0 note=66 velocity=79 time=10
note_on channel=0 note=67 velocity=84 time=29
note_on channel=0 note=66 velocity=0 time=2
control_change channel=0 control=10 value=69 time=27
note_on channel=0 note=68 velocity=79 time=2
note_on channel=0 note=67 velocity=0 time=7
note_on channel=0 note=68 velocity=0 time=18
note_on channel=0 note=69 velocity=84 time=4
control_change channel=0 control=10 value=74 time=29
note_on channel=0 note=72 velocity=81 time=2
control_change channel=0 control=10 value=78 time=28
note_on channel=0 note=75 velocity=82 time=1
note_on channel=0 note=72 velocity=0 time=2
note_on channel=0 note=69 velocity=0 time=6
note_on channel=0 note=75 velocity=0 time=17
note_on channel=0 note=75 velocity=91 time=6
note_on channel=0 note=69 velocity=91 time=0
note_on channel=0 note=79 velocity=91 time=0
note_on channel=0 note=79 velocity=0 time=50
note_on channel=0 note=69 velocity=0 time=0
note_on channel=0 note=75 velocity=0 time=0
control_change channel=0 control=10 value=82 time=8
note_on channel=0 note=78 velocity=86 time=2
note_on channel=0 note=77 velocity=89 time=29
note_on channel=0 note=78 velocity=0 time=2
note_on channel=0 note=77 velocity=0 time=48
control_change channel=0 control=10 value=72 time=9
note_on channel=0 note=70 velocity=83 time=1
control_change channel=0 control=10 value=77 time=29
note_on channel=0 note=74 velocity=80 time=2
control_change channel=0 control=10 value=81 time=28
note_on channel=0 note=77 velocity=82 time=1
note_on channel=0 note=74 velocity=0 time=2
note_on channel=0 note=70 velocity=0 time=6
control_change channel=0 control=10 value=77 time=21
note_on channel=0 note=70 velocity=97 time=2
note_on channel=0 note=79 velocity=97 time=0
note_on channel=0 note=74 velocity=97 time=0
note_on channel=0 note=77 velocity=0 time=7
note_on channel=0 note=70 velocity=0 time=43
note_on channel=0 note=79 velocity=0 time=0
note_on channel=0 note=74 velocity=0 time=0
control_change channel=0 control=10 value=82 time=8
note_on channel=0 note=78 velocity=94 time=2
control_change channel=0 control=10 value=75 time=28
note_on channel=0 note=68 velocity=101 time=1
note_on channel=0 note=77 velocity=101 time=0
note_on channel=0 note=74 velocity=101 time=0
note_on channel=0 note=78 velocity=0 time=2
note_on channel=0 note=68 velocity=0 time=48
note_on channel=0 note=77 velocity=0 time=0
note_on channel=0 note=74 velocity=0 time=0
control_change channel=0 control=10 value=70 time=7
note_on channel=0 note=67 velocity=106 time=1
note_on channel=0 note=72 velocity=110 time=4
control_change channel=0 control=10 value=81 time=2
note_on channel=0 note=77 velocity=114 time=1
note_on channel=0 note=75 velocity=97 time=26
note_on channel=0 note=77 velocity=0 time=13
note_on channel=0 note=67 velocity=0 time=29
note_on channel=0 note=72 velocity=0 time=4
note_on channel=0 note=75 velocity=0 time=0
note_on channel=0 note=75 velocity=108 time=14
note_on channel=0 note=79 velocity=113 time=0
note_on channel=0 note=72 velocity=113 time=0
note_on channel=0 note=84 velocity=113 time=0
note_on channel=0 note=84 velocity=0 time=80
note_on channel=0 note=75 velocity=0 time=0
note_on channel=0 note=79 velocity=0 time=0
note_on channel=0 note=72 velocity=0 time=0
control_change channel=0 control=10 value=86 time=8
note_on channel=0 note=82 velocity=105 time=1
note_on channel=0 note=75 velocity=105 time=0
note_on channel=0 note=87 velocity=105 time=0
note_on channel=0 note=87 velocity=0 time=50
note_on channel=0 note=75 velocity=0 time=0
note_on channel=0 note=82 velocity=0 time=0
control_change channel=0 control=10 value=82 time=6
note_on channel=0 note=74 velocity=106 time=2
note_on channel=0 note=82 velocity=106 time=4
control_change channel=0 control=10 value=92 time=3
note_on channel=0 note=86 velocity=116 time=0
note_on channel=0 note=74 velocity=0 time=18
note_on channel=0 note=82 velocity=0 time=2
control_change channel=0 control=10 value=78 time=4
note_on channel=0 note=82 velocity=104 time=2
note_on channel=0 note=70 velocity=104 time=0
note_on channel=0 note=74 velocity=99 time=0
note_on channel=0 note=86 velocity=0 time=12
note_on channel=0 note=82 velocity=0 time=38
note_on channel=0 note=70 velocity=0 time=0
note_on channel=0 note=74 velocity=0 time=0
control_change channel=0 control=10 value=74 time=8
note_on channel=0 note=67 velocity=100 time=2
note_on channel=0 note=79 velocity=100 time=0
note_on channel=0 note=71 velocity=100 time=0
note_on channel=0 note=71 velocity=0 time=50
note_on channel=0 note=79 velocity=0 time=0
note_on channel=0 note=67 velocity=0 time=0
control_change channel=0 control=10 value=81 time=8
note_on channel=0 note=77 velocity=94 time=2
control_change channel=0 control=10 value=72 time=28
note_on channel=0 note=65 velocity=97 time=1
note_on channel=0 note=71 velocity=97 time=0
note_on channel=0 note=74 velocity=97 time=0
note_on channel=0 note=77 velocity=0 time=9
note_on channel=0 note=65 velocity=0 time=41
note_on channel=0 note=71 velocity=0 time=0
note_on channel=0 note=74 velocity=0 time=0
note_on channel=0 note=64 velocity=99 time=9
note_on channel=0 note=70 velocity=105 time=4
note_on channel=0 note=74 velocity=106 time=1
note_on channel=0 note=72 velocity=92 time=27
note_on channel=0 note=74 velocity=0 time=10
note_on channel=0 note=64 velocity=0 time=33
note_on channel=0 note=72 velocity=0 time=3
note_on channel=0 note=70 velocity=0 time=1
note_on channel=0 note=65 velocity=95 time=13
note_on channel=0 note=69 velocity=95 time=0
note_on channel=0 note=77 velocity=100 time=0
note_on channel=0 note=77 velocity=0 time=50
note_on channel=0 note=69 velocity=0 time=0
note_on channel=0 note=65 velocity=0 time=0
control_change channel=0 control=10 value=77 time=8
note_on channel=0 note=74 velocity=107 time=2
control_change channel=0 control=10 value=68 time=28
note_on channel=0 note=72 velocity=93 time=1
note_on channel=0 note=63 velocity=93 time=0
note_on channel=0 note=69 velocity=89 time=0
note_on channel=0 note=74 velocity=0 time=8
note_on channel=0 note=72 velocity=0 time=42
note_on channel=0 note=63 velocity=0 time=0
note_on channel=0 note=69 velocity=0 time=0
note_on channel=0 note=62 velocity=96 time=10
note_on channel=0 note=70 velocity=96 time=0
note_on channel=0 note=70 velocity=0 time=156
note_on channel=0 note=62 velocity=0 time=0
control_change channel=0 control=10 value=73 time=23
note_on channel=0 note=77 velocity=97 time=1
note_on channel=0 note=65 velocity=97 time=0
note_on channel=0 note=65 velocity=0 time=50
note_on channel=0 note=77 velocity=0 time=0
control_change channel=0 control=10 value=83 time=9
note_on channel=0 note=77 velocity=87 time=1
note_on channel=0 note=81 velocity=87 time=0
note_on channel=0 note=81 velocity=0 time=30
note_on channel=0 note=77 velocity=0 time=0
note_on channel=0 note=82 velocity=84 time=1
note_on channel=0 note=79 velocity=84 time=0
note_on channel=0 note=79 velocity=0 time=25
note_on channel=0 note=82 velocity=0 time=0
control_change channel=0 control=10 value=87 time=3
note_on channel=0 note=81 velocity=93 time=1
note_on channel=0 note=84 velocity=93 time=0
note_on channel=0 note=81 velocity=0 time=25
control_change channel=0 control=10 value=83 time=4
note_on channel=0 note=84 velocity=0 time=1
note_on channel=0 note=77 velocity=84 time=1
note_on channel=0 note=81 velocity=84 time=0
note_on channel=0 note=81 velocity=0 time=25
note_on channel=0 note=77 velocity=0 time=0
control_change channel=0 control=10 value=75 time=3
note_on channel=0 note=75 velocity=90 time=1
note_on channel=0 note=72 velocity=90 time=0
note_on channel=0 note=75 velocity=0 time=25
control_change channel=0 control=10 value=81 time=4
note_on channel=0 note=72 velocity=0 time=1
note_on channel=0 note=75 velocity=85 time=1
note_on channel=0 note=79 velocity=85 time=0
note_on channel=0 note=79 velocity=0 time=50
note_on channel=0 note=75 velocity=0 time=0
note_on channel=0 note=77 velocity=93 time=10
note_on channel=0 note=74 velocity=93 time=0
note_on channel=0 note=74 velocity=0 time=50
note_on channel=0 note=77 velocity=0 time=0
control_change channel=0 control=10 value=77 time=8
note_on channel=0 note=73 velocity=84 time=2
note_on channel=0 note=76 velocity=84 time=0
note_on channel=0 note=74 velocity=95 time=29
note_on channel=0 note=77 velocity=95 time=0
note_on channel=0 note=76 velocity=0 time=6
note_on channel=0 note=73 velocity=0 time=0
note_on channel=0 note=74 velocity=0 time=19
note_on channel=0 note=70 velocity=90 time=6
note_on channel=0 note=74 velocity=90 time=0
note_on channel=0 note=77 velocity=0 time=8
note_on channel=0 note=74 velocity=0 time=72
note_on channel=0 note=70 velocity=0 time=0
control_change channel=0 control=10 value=65 time=8
note_on channel=0 note=65 velocity=91 time=1
note_on channel=0 note=65 velocity=0 time=50
control_change channel=0 control=10 value=72 time=9
note_on channel=0 note=72 velocity=89 time=1
note_on channel=0 note=69 velocity=89 time=0
note_on channel=0 note=69 velocity=0 time=30
note_on channel=0 note=72 velocity=0 time=0
note_on channel=0 note=70 velocity=85 time=1
note_on channel=0 note=74 velocity=85 time=0
note_on channel=0 note=74 velocity=0 time=25
note_on channel=0 note=70 velocity=0 time=0
note_on channel=0 note=75 velocity=89 time=4
note_on channel=0 note=72 velocity=89 time=0
note_on channel=0 note=72 velocity=0 time=25
note_on channel=0 note=75 velocity=0 time=5
note_on channel=0 note=72 velocity=85 time=1
note_on channel=0 note=69 velocity=85 time=0
note_on channel=0 note=69 velocity=0 time=25
note_on channel=0 note=72 velocity=0 time=0
control_change channel=0 control=10 value=65 time=3
note_on channel=0 note=67 velocity=87 time=1
note_on channel=0 note=63 velocity=87 time=0
control_change channel=0 control=10 value=70 time=29
note_on channel=0 note=63 velocity=0 time=1
note_on channel=0 note=67 velocity=0 time=0
note_on channel=0 note=69 velocity=97 time=1
note_on channel=0 note=69 velocity=0 time=50
control_change channel=0 control=10 value=64 time=8
note_on channel=0 note=61 velocity=100 time=2
note_on channel=0 note=67 velocity=100 time=0
note_on channel=0 note=67 velocity=0 time=131
note_on channel=0 note=61 velocity=0 time=0
note_on channel=0 note=65 velocity=89 time=18
note_on channel=0 note=62 velocity=89 time=0
note_on channel=0 note=62 velocity=0 time=50
note_on channel=0 note=65 velocity=0 time=0
control_change channel=0 control=10 value=73 time=9
note_on channel=0 note=77 velocity=103 time=1
note_on channel=0 note=65 velocity=103 time=0
note_on channel=0 note=65 velocity=0 time=50
note_on channel=0 note=77 velocity=0 time=0
control_change channel=0 control=10 value=83 time=9
note_on channel=0 note=81 velocity=91 time=1
note_on channel=0 note=77 velocity=91 time=0
note_on channel=0 note=77 velocity=0 time=30
note_on channel=0 note=81 velocity=0 time=0
note_on channel=0 note=82 velocity=88 time=1
note_on channel=0 note=79 velocity=88 time=0
note_on channel=0 note=79 velocity=0 time=25
note_on channel=0 note=82 velocity=0 time=0
control_change channel=0 control=10 value=87 time=3
note_on channel=0 note=81 velocity=94 time=1
note_on channel=0 note=84 velocity=94 time=0
note_on channel=0 note=81 velocity=0 time=25
control_change channel=0 control=10 value=83 time=4
note_on channel=0 note=84 velocity=0 time=1
note_on channel=0 note=81 velocity=84 time=1
note_on channel=0 note=77 velocity=84 time=0
note_on channel=0 note=77 velocity=0 time=25
note_on channel=0 note=81 velocity=0 time=0
control_change channel=0 control=10 value=75 time=3
note_on channel=0 note=72 velocity=87 time=1
note_on channel=0 note=75 velocity=87 time=0
note_on channel=0 note=75 velocity=0 time=25
control_change channel=0 control=10 value=81 time=4
note_on channel=0 note=72 velocity=0 time=1
note_on channel=0 note=79 velocity=91 time=1
note_on channel=0 note=75 velocity=91 time=0
note_on channel=0 note=75 velocity=0 time=50
note_on channel=0 note=79 velocity=0 time=0
note_on channel=0 note=74 velocity=91 time=10
note_on channel=0 note=77 velocity=91 time=0
note_on channel=0 note=77 velocity=0 time=50
note_on channel=0 note=74 velocity=0 time=0
control_change channel=0 control=10 value=77 time=8
note_on channel=0 note=73 velocity=85 time=2
note_on channel=0 note=76 velocity=85 time=0
note_on channel=0 note=77 velocity=98 time=29
note_on channel=0 note=74 velocity=98 time=0
note_on channel=0 note=76 velocity=0 time=6
note_on channel=0 note=73 velocity=0 time=0
note_on channel=0 note=74 velocity=0 time=19
note_on channel=0 note=70 velocity=94 time=6
note_on channel=0 note=74 velocity=94 time=0
note_on channel=0 note=77 velocity=0 time=6
note_on channel=0 note=74 velocity=0 time=44
note_on channel=0 note=70 velocity=0 time=0
control_change channel=0 control=10 value=87 time=8
note_on channel=0 note=82 velocity=78 time=2
note_on channel=0 note=82 velocity=0 time=25
note_on channel=0 note=84 velocity=85 time=4
control_change channel=0 control=10 value=91 time=29
note_on channel=0 note=84 velocity=0 time=1
note_on channel=0 note=85 velocity=78 time=1
note_on channel=0 note=85 velocity=0 time=25
note_on channel=0 note=86 velocity=92 time=4
control_change channel=0 control=10 value=95 time=29
note_on channel=0 note=86 velocity=0 time=1
note_on channel=0 note=88 velocity=88 time=1
note_on channel=0 note=88 velocity=0 time=25
note_on channel=0 note=90 velocity=97 time=4
control_change channel=0 control=10 value=108 time=29
note_on channel=0 note=90 velocity=0 time=1
note_on channel=0 note=98 velocity=94 time=1
note_on channel=0 note=98 velocity=0 time=25
note_on channel=0 note=96 velocity=103 time=4
control_change channel=0 control=10 value=103 time=29
note_on channel=0 note=96 velocity=0 time=1
note_on channel=0 note=94 velocity=92 time=1
note_on channel=0 note=94 velocity=0 time=25
note_on channel=0 note=93 velocity=92 time=4
control_change channel=0 control=10 value=108 time=29
note_on channel=0 note=93 velocity=0 time=1
note_on channel=0 note=98 velocity=92 time=1
note_on channel=0 note=98 velocity=0 time=25
control_change channel=0 control=10 value=99 time=3
note_on channel=0 note=91 velocity=99 time=1
note_on channel=0 note=91 velocity=0 time=50
control_change channel=0 control=10 value=75 time=9
note_on channel=0 note=79 velocity=105 time=1
note_on channel=0 note=67 velocity=105 time=0
note_on channel=0 note=78 velocity=98 time=31
note_on channel=0 note=66 velocity=98 time=0
note_on channel=0 note=67 velocity=0 time=13
note_on channel=0 note=79 velocity=0 time=0
note_on channel=0 note=65 velocity=101 time=16
note_on channel=0 note=77 velocity=101 time=0
note_on channel=0 note=78 velocity=0 time=1
note_on channel=0 note=66 velocity=0 time=0
note_on channel=0 note=65 velocity=0 time=49
note_on channel=0 note=77 velocity=0 time=0
control_change channel=0 control=10 value=81 time=9
note_on channel=0 note=77 velocity=93 time=1
note_on channel=0 note=77 velocity=0 time=46
note_on channel=0 note=77 velocity=89 time=14
note_on channel=0 note=81 velocity=89 time=0
control_change channel=0 control=10 value=85 time=29
note_on channel=0 note=81 velocity=0 time=2
note_on channel=0 note=77 velocity=0 time=0
note_on channel=0 note=82 velocity=84 time=0
note_on channel=0 note=79 velocity=84 time=0
note_on channel=0 note=79 velocity=0 time=25
note_on channel=0 note=82 velocity=0 time=0
note_on channel=0 note=84 velocity=89 time=4
note_on channel=0 note=81 velocity=89 time=0
note_on channel=0 note=81 velocity=0 time=25
note_on channel=0 note=84 velocity=0 time=6
note_on channel=0 note=77 velocity=84 time=0
note_on channel=0 note=81 velocity=84 time=0
note_on channel=0 note=81 velocity=0 time=25
note_on channel=0 note=77 velocity=0 time=0
control_change channel=0 control=10 value=75 time=3
note_on channel=0 note=75 velocity=89 time=1
note_on channel=0 note=72 velocity=89 time=0
note_on channel=0 note=75 velocity=0 time=25
control_change channel=0 control=10 value=81 time=4
note_on channel=0 note=72 velocity=0 time=2
note_on channel=0 note=75 velocity=97 time=0
note_on channel=0 note=79 velocity=97 time=0
note_on channel=0 note=79 velocity=0 time=50
note_on channel=0 note=75 velocity=0 time=0
note_on channel=0 note=74 velocity=100 time=10
note_on channel=0 note=77 velocity=100 time=0
note_on channel=0 note=77 velocity=0 time=50
note_on channel=0 note=74 velocity=0 time=0
control_change channel=0 control=10 value=77 time=8
note_on channel=0 note=73 velocity=89 time=2
note_on channel=0 note=76 velocity=89 time=0
note_on channel=0 note=77 velocity=99 time=29
note_on channel=0 note=74 velocity=99 time=0
note_on channel=0 note=76 velocity=0 time=2
note_on channel=0 note=73 velocity=0 time=0
note_on channel=0 note=74 velocity=0 time=23
note_on channel=0 note=70 velocity=94 time=6
note_on channel=0 note=74 velocity=94 time=0
note_on channel=0 note=77 velocity=0 time=8
note_on channel=0 note=74 velocity=0 time=72
note_on channel=0 note=70 velocity=0 time=0
control_change channel=0 control=10 value=65 time=8
note_on channel=0 note=65 velocity=87 time=1
note_on channel=0 note=65 velocity=0 time=50
control_change channel=0 control=10 value=72 time=9
note_on channel=0 note=72 velocity=87 time=1
note_on channel=0 note=69 velocity=87 time=0
note_on channel=0 note=69 velocity=0 time=31
note_on channel=0 note=72 velocity=0 time=0
note_on channel=0 note=70 velocity=83 time=0
note_on channel=0 note=74 velocity=83 time=0
note_on channel=0 note=74 velocity=0 time=25
note_on channel=0 note=70 velocity=0 time=0
note_on channel=0 note=75 velocity=88 time=4
note_on channel=0 note=72 velocity=88 time=0
note_on channel=0 note=72 velocity=0 time=25
note_on channel=0 note=75 velocity=0 time=6
note_on channel=0 note=72 velocity=85 time=0
note_on channel=0 note=69 velocity=85 time=0
note_on channel=0 note=69 velocity=0 time=25
note_on channel=0 note=72 velocity=0 time=0
control_change channel=0 control=10 value=62 time=3
note_on channel=0 note=60 velocity=87 time=1
note_on channel=0 note=67 velocity=87 time=0
note_on channel=0 note=67 velocity=0 time=31
note_on channel=0 note=60 velocity=0 time=0
note_on channel=0 note=61 velocity=89 time=0
note_on channel=0 note=69 velocity=89 time=0
note_on channel=0 note=69 velocity=0 time=50
control_change channel=0 control=10 value=68 time=8
note_on channel=0 note=67 velocity=93 time=2
note_on channel=0 note=61 velocity=0 time=25
control_change channel=0 control=10 value=64 time=3
note_on channel=0 note=66 velocity=91 time=1
note_on channel=0 note=62 velocity=91 time=0
note_on channel=0 note=67 velocity=0 time=8
note_on channel=0 note=62 velocity=0 time=162
note_on channel=0 note=66 velocity=0 time=0
note_on channel=0 note=62 velocity=87 time=10
note_on channel=0 note=62 velocity=0 time=50
note_on channel=0 note=63 velocity=92 time=10
note_on channel=0 note=65 velocity=86 time=31
note_on channel=0 note=63 velocity=0 time=6
control_change channel=0 control=10 value=68 time=22
note_on channel=0 note=67 velocity=87 time=1
note_on channel=0 note=65 velocity=0 time=2
control_change channel=0 control=10 value=72 time=27
note_on channel=0 note=70 velocity=96 time=2
note_on channel=0 note=67 velocity=0 time=6
note_on channel=0 note=72 velocity=89 time=54
note_on channel=0 note=70 velocity=0 time=2
control_change channel=0 control=10 value=77 time=26
note_on channel=0 note=74 velocity=93 time=1
note_on channel=0 note=72 velocity=0 time=8
note_on channel=0 note=75 velocity=91 time=52
note_on channel=0 note=74 velocity=0 time=2
control_change channel=0 control=10 value=81 time=27
note_on channel=0 note=77 velocity=86 time=2
note_on channel=0 note=75 velocity=0 time=6
note_on channel=0 note=79 velocity=88 time=23
note_on channel=0 note=77 velocity=0 time=2
control_change channel=0 control=10 value=87 time=27
note_on channel=0 note=82 velocity=97 time=2
note_on channel=0 note=79 velocity=0 time=6
note_on channel=0 note=84 velocity=88 time=54
note_on channel=0 note=82 velocity=0 time=2
control_change channel=0 control=10 value=92 time=26
note_on channel=0 note=86 velocity=94 time=1
note_on channel=0 note=84 velocity=0 time=8
control_change channel=0 control=10 value=70 time=51
note_on channel=0 note=65 velocity=102 time=1
note_on channel=0 note=74 velocity=102 time=0
note_on channel=0 note=86 velocity=0 time=2
control_change channel=0 control=10 value=66 time=27
note_on channel=0 note=74 velocity=0 time=2
note_on channel=0 note=65 velocity=0 time=0
note_on channel=0 note=70 velocity=89 time=0
note_on channel=0 note=62 velocity=89 time=0
note_on channel=0 note=62 velocity=0 time=50
note_on channel=0 note=70 velocity=0 time=0
note_on channel=0 note=69 velocity=92 time=10
note_on channel=0 note=72 velocity=92 time=0
note_on channel=0 note=63 velocity=92 time=0
note_on channel=0 note=63 velocity=0 time=50
note_on channel=0 note=72 velocity=0 time=0
note_on channel=0 note=69 velocity=0 time=0
control_change channel=0 control=10 value=77 time=8
note_on channel=0 note=74 velocity=89 time=2
control_change channel=0 control=10 value=69 time=28
note_on channel=0 note=63 velocity=96 time=1
note_on channel=0 note=72 velocity=96 time=0
note_on channel=0 note=69 velocity=96 time=0
note_on channel=0 note=74 velocity=0 time=2
note_on channel=0 note=63 velocity=0 time=48
note_on channel=0 note=72 velocity=0 time=0
note_on channel=0 note=69 velocity=0 time=0
control_change channel=0 control=10 value=65 time=9
note_on channel=0 note=70 velocity=90 time=1
note_on channel=0 note=65 velocity=90 time=0
note_on channel=0 note=62 velocity=90 time=0
note_on channel=0 note=62 velocity=0 time=50
note_on channel=0 note=65 velocity=0 time=0
note_on channel=0 note=70 velocity=0 time=0
control_change channel=0 control=10 value=81 time=9
note_on channel=0 note=77 velocity=88 time=1
note_on channel=0 note=77 velocity=0 time=25
note_on channel=0 note=77 velocity=84 time=6
note_on channel=0 note=77 velocity=0 time=21
note_on channel=0 note=77 velocity=87 time=8
note_on channel=0 note=79 velocity=87 time=0
note_on channel=0 note=79 velocity=0 time=50
note_on channel=0 note=77 velocity=0 time=0
note_on channel=0 note=80 velocity=96 time=10
note_on channel=0 note=77 velocity=96 time=0
note_on channel=0 note=77 velocity=0 time=46
note_on channel=0 note=80 velocity=0 time=0
note_on channel=0 note=77 velocity=85 time=14
note_on channel=0 note=81 velocity=85 time=0
note_on channel=0 note=81 velocity=0 time=22
note_on channel=0 note=77 velocity=0 time=0
control_change channel=0 control=10 value=85 time=7
note_on channel=0 note=79 velocity=82 time=2
note_on channel=0 note=82 velocity=82 time=0
note_on channel=0 note=82 velocity=0 time=19
note_on channel=0 note=79 velocity=0 time=0
note_on channel=0 note=84 velocity=91 time=10
note_on channel=0 note=81 velocity=91 time=0
note_on channel=0 note=81 velocity=0 time=19
note_on channel=0 note=84 velocity=0 time=3
note_on channel=0 note=81 velocity=82 time=9
note_on channel=0 note=77 velocity=82 time=0
note_on channel=0 note=77 velocity=0 time=19
note_on channel=0 note=81 velocity=0 time=0
control_change channel=0 control=10 value=75 time=9
note_on channel=0 note=75 velocity=88 time=1
note_on channel=0 note=72 velocity=88 time=0
note_on channel=0 note=75 velocity=0 time=19
note_on channel=0 note=72 velocity=0 time=3
control_change channel=0 control=10 value=81 time=7
note_on channel=0 note=79 velocity=83 time=2
note_on channel=0 note=75 velocity=83 time=0
note_on channel=0 note=75 velocity=0 time=37
note_on channel=0 note=79 velocity=0 time=0
note_on channel=0 note=74 velocity=91 time=23
note_on channel=0 note=77 velocity=91 time=0
note_on channel=0 note=77 velocity=0 time=37
note_on channel=0 note=74 velocity=0 time=0
control_change channel=0 control=10 value=77 time=21
note_on channel=0 note=76 velocity=82 time=2
note_on channel=0 note=73 velocity=82 time=0
note_on channel=0 note=73 velocity=0 time=26
note_on channel=0 note=76 velocity=0 time=0
note_on channel=0 note=74 velocity=92 time=3
note_on channel=0 note=77 velocity=92 time=0
note_on channel=0 note=74 velocity=0 time=19
note_on channel=0 note=77 velocity=0 time=3
note_on channel=0 note=70 velocity=85 time=9
note_on channel=0 note=74 velocity=85 time=0
note_on channel=0 note=74 velocity=0 time=71
note_on channel=0 note=70 velocity=0 time=0
control_change channel=0 control=10 value=65 time=17
note_on channel=0 note=65 velocity=89 time=1
note_on channel=0 note=65 velocity=0 time=50
control_change channel=0 control=10 value=72 time=9
note_on channel=0 note=69 velocity=87 time=1
note_on channel=0 note=72 velocity=87 time=0
note_on channel=0 note=72 velocity=0 time=30
note_on channel=0 note=69 velocity=0 time=0
note_on channel=0 note=74 velocity=83 time=1
note_on channel=0 note=70 velocity=83 time=0
note_on channel=0 note=70 velocity=0 time=25
note_on channel=0 note=74 velocity=0 time=0
note_on channel=0 note=75 velocity=87 time=4
note_on channel=0 note=72 velocity=87 time=0
note_on channel=0 note=72 velocity=0 time=25
note_on channel=0 note=75 velocity=0 time=5
note_on channel=0 note=72 velocity=83 time=1
note_on channel=0 note=69 velocity=83 time=0
note_on channel=0 note=69 velocity=0 time=25
note_on channel=0 note=72 velocity=0 time=0
control_change channel=0 control=10 value=65 time=3
note_on channel=0 note=67 velocity=85 time=1
note_on channel=0 note=63 velocity=85 time=0
control_change channel=0 control=10 value=70 time=29
note_on channel=0 note=63 velocity=0 time=1
note_on channel=0 note=67 velocity=0 time=0
note_on channel=0 note=69 velocity=94 time=1
note_on channel=0 note=69 velocity=0 time=50
control_change channel=0 control=10 value=64 time=8
note_on channel=0 note=61 velocity=100 time=2
note_on channel=0 note=67 velocity=100 time=0
note_on channel=0 note=67 velocity=0 time=131
note_on channel=0 note=61 velocity=0 time=0
note_on channel=0 note=65 velocity=87 time=18
note_on channel=0 note=62 velocity=87 time=0
note_on channel=0 note=62 velocity=0 time=50
note_on channel=0 note=65 velocity=0 time=0
control_change channel=0 control=10 value=73 time=9
note_on channel=0 note=77 velocity=94 time=1
note_on channel=0 note=65 velocity=94 time=0
note_on channel=0 note=65 velocity=0 time=50
note_on channel=0 note=77 velocity=0 time=0
control_change channel=0 control=10 value=83 time=9
note_on channel=0 note=81 velocity=89 time=1
note_on channel=0 note=77 velocity=89 time=0
note_on channel=0 note=77 velocity=0 time=22
note_on channel=0 note=81 velocity=0 time=0
note_on channel=0 note=82 velocity=86 time=9
note_on channel=0 note=79 velocity=86 time=0
note_on channel=0 note=79 velocity=0 time=19
note_on channel=0 note=82 velocity=0 time=0
control_change channel=0 control=10 value=87 time=9
note_on channel=0 note=81 velocity=92 time=1
note_on channel=0 note=84 velocity=92 time=0
note_on channel=0 note=81 velocity=0 time=19
note_on channel=0 note=84 velocity=0 time=3
control_change channel=0 control=10 value=83 time=7
note_on channel=0 note=81 velocity=82 time=2
note_on channel=0 note=77 velocity=82 time=0
note_on channel=0 note=77 velocity=0 time=19
note_on channel=0 note=81 velocity=0 time=0
control_change channel=0 control=10 value=75 time=9
note_on channel=0 note=72 velocity=85 time=1
note_on channel=0 note=75 velocity=85 time=0
note_on channel=0 note=75 velocity=0 time=19
note_on channel=0 note=72 velocity=0 time=3
control_change channel=0 control=10 value=81 time=7
note_on channel=0 note=75 velocity=89 time=2
note_on channel=0 note=79 velocity=89 time=0
note_on channel=0 note=79 velocity=0 time=37
note_on channel=0 note=75 velocity=0 time=0
note_on channel=0 note=77 velocity=89 time=23
note_on channel=0 note=74 velocity=89 time=0
note_on channel=0 note=74 velocity=0 time=37
note_on channel=0 note=77 velocity=0 time=0
control_change channel=0 control=10 value=77 time=21
note_on channel=0 note=73 velocity=83 time=2
note_on channel=0 note=76 velocity=83 time=0
note_on channel=0 note=76 velocity=0 time=26
note_on channel=0 note=73 velocity=0 time=0
note_on channel=0 note=77 velocity=91 time=3
note_on channel=0 note=74 velocity=91 time=0
note_on channel=0 note=74 velocity=0 time=19
note_on channel=0 note=77 velocity=0 time=0
note_on channel=0 note=70 velocity=87 time=12
note_on channel=0 note=74 velocity=87 time=0
note_on channel=0 note=74 velocity=0 time=44
note_on channel=0 note=70 velocity=0 time=0
control_change channel=0 control=10 value=87 time=14
note_on channel=0 note=82 velocity=76 time=2
note_on channel=0 note=82 velocity=0 time=19
note_on channel=0 note=84 velocity=83 time=10
note_on channel=0 note=84 velocity=0 time=22
control_change channel=0 control=10 value=91 time=7
note_on channel=0 note=85 velocity=76 time=2
note_on channel=0 note=85 velocity=0 time=19
note_on channel=0 note=86 velocity=90 time=10
note_on channel=0 note=86 velocity=0 time=22
control_change channel=0 control=10 value=95 time=7
note_on channel=0 note=88 velocity=86 time=2
note_on channel=0 note=88 velocity=0 time=19
note_on channel=0 note=90 velocity=94 time=10
note_on channel=0 note=90 velocity=0 time=22
control_change channel=0 control=10 value=108 time=7
note_on channel=0 note=98 velocity=92 time=2
note_on channel=0 note=98 velocity=0 time=19
note_on channel=0 note=96 velocity=100 time=10
note_on channel=0 note=96 velocity=0 time=22
control_change channel=0 control=10 value=103 time=7
note_on channel=0 note=94 velocity=89 time=2
note_on channel=0 note=94 velocity=0 time=19
note_on channel=0 note=93 velocity=89 time=10
note_on channel=0 note=93 velocity=0 time=22
control_change channel=0 control=10 value=108 time=7
note_on channel=0 note=98 velocity=89 time=2
note_on channel=0 note=98 velocity=0 time=19
control_change channel=0 control=10 value=99 time=9
note_on channel=0 note=91 velocity=96 time=1
note_on channel=0 note=91 velocity=0 time=37
control_change channel=0 control=10 value=75 time=22
note_on channel=0 note=67 velocity=104 time=1
note_on channel=0 note=79 velocity=104 time=0
note_on channel=0 note=66 velocity=98 time=31
note_on channel=0 note=78 velocity=98 time=0
note_on channel=0 note=79 velocity=0 time=13
note_on channel=0 note=67 velocity=0 time=0
note_on channel=0 note=77 velocity=102 time=16
note_on channel=0 note=65 velocity=102 time=0
note_on channel=0 note=66 velocity=0 time=1
note_on channel=0 note=78 velocity=0 time=0
note_on channel=0 note=77 velocity=0 time=49
note_on channel=0 note=65 velocity=0 time=0
control_change channel=0 control=10 value=81 time=9
note_on channel=0 note=77 velocity=91 time=1
note_on channel=0 note=77 velocity=0 time=46
note_on channel=0 note=77 velocity=87 time=14
note_on channel=0 note=81 velocity=87 time=0
control_change channel=0 control=10 value=85 time=29
note_on channel=0 note=82 velocity=82 time=2
note_on channel=0 note=79 velocity=82 time=0
note_on channel=0 note=81 velocity=0 time=7
note_on channel=0 note=77 velocity=0 time=0
note_on channel=0 note=84 velocity=87 time=22
note_on channel=0 note=81 velocity=87 time=0
note_on channel=0 note=82 velocity=0 time=2
note_on channel=0 note=79 velocity=0 time=0
note_on channel=0 note=81 velocity=0 time=23
note_on channel=0 note=77 velocity=82 time=6
note_on channel=0 note=81 velocity=82 time=0
note_on channel=0 note=84 velocity=0 time=7
control_change channel=0 control=10 value=75 time=21
note_on channel=0 note=75 velocity=87 time=1
note_on channel=0 note=72 velocity=87 time=0
note_on channel=0 note=81 velocity=0 time=2
note_on channel=0 note=77 velocity=0 time=0
note_on channel=0 note=75 velocity=0 time=23
control_change channel=0 control=10 value=81 time=4
note_on channel=0 note=75 velocity=95 time=2
note_on channel=0 note=79 velocity=95 time=0
note_on channel=0 note=72 velocity=0 time=7
note_on channel=0 note=79 velocity=0 time=43
note_on channel=0 note=75 velocity=0 time=0
note_on channel=0 note=74 velocity=98 time=10
note_on channel=0 note=77 velocity=98 time=0
control_change channel=0 control=10 value=77 time=58
note_on channel=0 note=73 velocity=87 time=2
note_on channel=0 note=76 velocity=87 time=0
note_on channel=0 note=77 velocity=0 time=2
note_on channel=0 note=74 velocity=0 time=0
note_on channel=0 note=77 velocity=92 time=27
note_on channel=0 note=74 velocity=92 time=0
note_on channel=0 note=73 velocity=0 time=9
note_on channel=0 note=76 velocity=0 time=0
note_on channel=0 note=74 velocity=0 time=16
note_on channel=0 note=70 velocity=88 time=6
note_on channel=0 note=74 velocity=88 time=0
note_on channel=0 note=77 velocity=0 time=7
note_on channel=0 note=74 velocity=0 time=73
note_on channel=0 note=70 velocity=0 time=0
control_change channel=0 control=10 value=65 time=8
note_on channel=0 note=65 velocity=85 time=1
note_on channel=0 note=65 velocity=0 time=50
control_change channel=0 control=10 value=72 time=9
note_on channel=0 note=72 velocity=85 time=1
note_on channel=0 note=69 velocity=85 time=0
note_on channel=0 note=70 velocity=81 time=31
note_on channel=0 note=74 velocity=81 time=0
note_on channel=0 note=69 velocity=0 time=7
note_on channel=0 note=72 velocity=0 time=0
note_on channel=0 note=75 velocity=86 time=22
note_on channel=0 note=72 velocity=86 time=0
note_on channel=0 note=70 velocity=0 time=2
note_on channel=0 note=74 velocity=0 time=0
note_on channel=0 note=72 velocity=0 time=23
note_on channel=0 note=72 velocity=83 time=6
note_on channel=0 note=69 velocity=83 time=0
note_on channel=0 note=75 velocity=0 time=7
control_change channel=0 control=10 value=62 time=21
note_on channel=0 note=67 velocity=85 time=1
note_on channel=0 note=60 velocity=85 time=0
note_on channel=0 note=69 velocity=0 time=2
note_on channel=0 note=72 velocity=0 time=0
note_on channel=0 note=69 velocity=87 time=29
note_on channel=0 note=61 velocity=87 time=0
note_on channel=0 note=67 velocity=0 time=7
note_on channel=0 note=60 velocity=0 time=0
note_on channel=0 note=69 velocity=0 time=43
control_change channel=0 control=10 value=68 time=8
note_on channel=0 note=67 velocity=92 time=2
note_on channel=0 note=61 velocity=0 time=25
control_change channel=0 control=10 value=64 time=3
note_on channel=0 note=62 velocity=89 time=1
note_on channel=0 note=66 velocity=89 time=0
note_on channel=0 note=67 velocity=0 time=12
note_on channel=0 note=66 velocity=0 time=158
note_on channel=0 note=62 velocity=0 time=0
note_on channel=0 note=62 velocity=85 time=10
note_on channel=0 note=62 velocity=0 time=50
note_on channel=0 note=63 velocity=90 time=10
note_on channel=0 note=65 velocity=84 time=31
note_on channel=0 note=63 velocity=0 time=4
note_on channel=0 note=65 velocity=0 time=24
control_change channel=0 control=10 value=68 time=0
note_on channel=0 note=67 velocity=85 time=1
control_change channel=0 control=10 value=72 time=29
note_on channel=0 note=70 velocity=93 time=2
note_on channel=0 note=67 velocity=0 time=4
note_on channel=0 note=70 velocity=0 time=52
note_on channel=0 note=72 velocity=87 time=4
control_change channel=0 control=10 value=77 time=28
note_on channel=0 note=74 velocity=92 time=1
note_on channel=0 note=72 velocity=0 time=6
note_on channel=0 note=74 velocity=0 time=50
note_on channel=0 note=75 velocity=90 time=4
control_change channel=0 control=10 value=81 time=29
note_on channel=0 note=77 velocity=85 time=2
note_on channel=0 note=75 velocity=0 time=4
note_on channel=0 note=77 velocity=0 time=24
note_on channel=0 note=79 velocity=87 time=1
control_change channel=0 control=10 value=87 time=29
note_on channel=0 note=82 velocity=96 time=2
note_on channel=0 note=79 velocity=0 time=4
note_on channel=0 note=82 velocity=0 time=52
note_on channel=0 note=84 velocity=87 time=4
control_change channel=0 control=10 value=92 time=28
note_on channel=0 note=86 velocity=93 time=1
note_on channel=0 note=84 velocity=0 time=6
note_on channel=0 note=86 velocity=0 time=50
control_change channel=0 control=10 value=70 time=3
note_on channel=0 note=74 velocity=101 time=1
note_on channel=0 note=65 velocity=101 time=0
control_change channel=0 control=10 value=66 time=29
note_on channel=0 note=65 velocity=0 time=2
note_on channel=0 note=74 velocity=0 time=0
note_on channel=0 note=62 velocity=88 time=0
note_on channel=0 note=70 velocity=88 time=0
note_on channel=0 note=70 velocity=0 time=50
note_on channel=0 note=62 velocity=0 time=0
note_on channel=0 note=72 velocity=91 time=10
note_on channel=0 note=63 velocity=91 time=0
note_on channel=0 note=69 velocity=91 time=0
note_on channel=0 note=69 velocity=0 time=50
note_on channel=0 note=63 velocity=0 time=0
note_on channel=0 note=72 velocity=0 time=0
control_change channel=0 control=10 value=77 time=8
note_on channel=0 note=74 velocity=88 time=2
control_change channel=0 control=10 value=69 time=28
note_on channel=0 note=72 velocity=95 time=1
note_on channel=0 note=63 velocity=95 time=0
note_on channel=0 note=69 velocity=95 time=0
note_on channel=0 note=74 velocity=0 time=2
note_on channel=0 note=72 velocity=0 time=48
note_on channel=0 note=63 velocity=0 time=0
note_on channel=0 note=69 velocity=0 time=0
control_change channel=0 control=10 value=65 time=9
note_on channel=0 note=70 velocity=89 time=1
note_on channel=0 note=62 velocity=89 time=0
note_on channel=0 note=65 velocity=89 time=0
note_on channel=0 note=65 velocity=0 time=74
note_on channel=0 note=62 velocity=0 time=0
note_on channel=0 note=70 velocity=0 time=0
note_on channel=0 note=63 velocity=78 time=46
note_on channel=0 note=65 velocity=78 time=0
note_on channel=0 note=65 velocity=0 time=101
note_on channel=0 note=63 velocity=0 time=0
note_on channel=0 note=65 velocity=78 time=19
control_change channel=0 control=10 value=72 time=29
note_on channel=0 note=70 velocity=73 time=2
note_on channel=0 note=65 velocity=0 time=5
control_change channel=0 control=10 value=77 time=23
note_on channel=0 note=70 velocity=0 time=1
note_on channel=0 note=74 velocity=79 time=0
control_change channel=0 control=10 value=81 time=29
note_on channel=0 note=77 velocity=83 time=2
note_on channel=0 note=74 velocity=0 time=5
note_on channel=0 note=77 velocity=0 time=45
control_change channel=0 control=10 value=72 time=8
note_on channel=0 note=70 velocity=78 time=2
note_on channel=0 note=70 velocity=0 time=29
note_on channel=0 note=72 velocity=80 time=0
control_change channel=0 control=10 value=77 time=29
note_on channel=0 note=74 velocity=72 time=2
note_on channel=0 note=72 velocity=0 time=5
note_on channel=0 note=74 velocity=0 time=20
control_change channel=0 control=10 value=70 time=3
note_on channel=0 note=69 velocity=81 time=1
note_on channel=0 note=70 velocity=72 time=31
note_on channel=0 note=69 velocity=0 time=5
note_on channel=0 note=70 velocity=0 time=24
note_on channel=0 note=67 velocity=79 time=0
control_change channel=0 control=10 value=65 time=29
note_on channel=0 note=65 velocity=90 time=2
note_on channel=0 note=67 velocity=0 time=5
note_on channel=0 note=65 velocity=0 time=45
note_on channel=0 note=66 velocity=76 time=10
note_on channel=0 note=66 velocity=0 time=29
note_on channel=0 note=67 velocity=79 time=0
control_change channel=0 control=10 value=69 time=29
note_on channel=0 note=68 velocity=75 time=2
note_on channel=0 note=67 velocity=0 time=5
note_on channel=0 note=68 velocity=0 time=20
note_on channel=0 note=69 velocity=82 time=4
control_change channel=0 control=10 value=74 time=29
note_on channel=0 note=72 velocity=80 time=2
note_on channel=0 note=69 velocity=0 time=5
control_change channel=0 control=10 value=78 time=23
note_on channel=0 note=72 velocity=0 time=1
note_on channel=0 note=75 velocity=82 time=0
note_on channel=0 note=75 velocity=0 time=25
note_on channel=0 note=75 velocity=91 time=6
note_on channel=0 note=69 velocity=91 time=0
note_on channel=0 note=79 velocity=91 time=0
note_on channel=0 note=79 velocity=0 time=50
note_on channel=0 note=69 velocity=0 time=0
note_on channel=0 note=75 velocity=0 time=0
control_change channel=0 control=10 value=82 time=8
note_on channel=0 note=78 velocity=82 time=2
note_on channel=0 note=78 velocity=0 time=29
note_on channel=0 note=77 velocity=85 time=0
note_on channel=0 note=77 velocity=0 time=50
control_change channel=0 control=10 value=72 time=9
note_on channel=0 note=70 velocity=82 time=1
control_change channel=0 control=10 value=77 time=29
note_on channel=0 note=74 velocity=79 time=2
note_on channel=0 note=70 velocity=0 time=5
control_change channel=0 control=10 value=81 time=23
note_on channel=0 note=74 velocity=0 time=1
note_on channel=0 note=77 velocity=82 time=0
control_change channel=0 control=10 value=77 time=29
note_on channel=0 note=79 velocity=87 time=2
note_on channel=0 note=74 velocity=87 time=0
note_on channel=0 note=70 velocity=87 time=0
note_on channel=0 note=77 velocity=0 time=5
note_on channel=0 note=79 velocity=0 time=45
note_on channel=0 note=74 velocity=0 time=0
note_on channel=0 note=70 velocity=0 time=0
control_change channel=0 control=10 value=82 time=8
note_on channel=0 note=78 velocity=76 time=2
note_on channel=0 note=78 velocity=0 time=29
note_on channel=0 note=77 velocity=82 time=0
note_on channel=0 note=77 velocity=0 time=50
control_change channel=0 control=10 value=65 time=9
note_on channel=0 note=65 velocity=80 time=1
control_change channel=0 control=10 value=72 time=29
note_on channel=0 note=70 velocity=72 time=2
note_on channel=0 note=65 velocity=0 time=7
control_change channel=0 control=10 value=77 time=21
note_on channel=0 note=74 velocity=75 time=1
note_on channel=0 note=70 velocity=0 time=2
control_change channel=0 control=10 value=81 time=27
note_on channel=0 note=77 velocity=86 time=2
note_on channel=0 note=74 velocity=0 time=7
note_on channel=0 note=77 velocity=0 time=43
control_change channel=0 control=10 value=72 time=8
note_on channel=0 note=70 velocity=80 time=2
note_on channel=0 note=72 velocity=82 time=29
note_on channel=0 note=70 velocity=0 time=2
control_change channel=0 control=10 value=77 time=27
note_on channel=0 note=74 velocity=72 time=2
note_on channel=0 note=72 velocity=0 time=7
note_on channel=0 note=74 velocity=0 time=18
control_change channel=0 control=10 value=70 time=3
note_on channel=0 note=69 velocity=82 time=1
note_on channel=0 note=70 velocity=78 time=31
note_on channel=0 note=69 velocity=0 time=7
note_on channel=0 note=67 velocity=83 time=22
note_on channel=0 note=70 velocity=0 time=2
control_change channel=0 control=10 value=65 time=27
note_on channel=0 note=65 velocity=86 time=2
note_on channel=0 note=67 velocity=0 time=7
note_on channel=0 note=65 velocity=0 time=43
note_on channel=0 note=67 velocity=76 time=10
note_on channel=0 note=68 velocity=80 time=29
note_on channel=0 note=65 velocity=80 time=0
note_on channel=0 note=67 velocity=0 time=2
control_change channel=0 control=10 value=77 time=27
note_on channel=0 note=74 velocity=75 time=2
note_on channel=0 note=65 velocity=0 time=7
note_on channel=0 note=68 velocity=0 time=0
control_change channel=0 control=10 value=68 time=21
note_on channel=0 note=65 velocity=81 time=1
note_on channel=0 note=69 velocity=81 time=0
note_on channel=0 note=74 velocity=0 time=2
control_change channel=0 control=10 value=74 time=27
note_on channel=0 note=72 velocity=71 time=2
note_on channel=0 note=69 velocity=0 time=7
note_on channel=0 note=65 velocity=0 time=0
control_change channel=0 control=10 value=81 time=21
note_on channel=0 note=77 velocity=75 time=1
note_on channel=0 note=72 velocity=0 time=2
control_change channel=0 control=10 value=74 time=27
note_on channel=0 note=70 velocity=87 time=2
note_on channel=0 note=74 velocity=87 time=0
note_on channel=0 note=77 velocity=0 time=7
note_on channel=0 note=74 velocity=0 time=43
note_on channel=0 note=70 velocity=0 time=0
control_change channel=0 control=10 value=83 time=8
note_on channel=0 note=79 velocity=78 time=2
control_change channel=0 control=10 value=74 time=28
note_on channel=0 note=72 velocity=81 time=1
note_on channel=0 note=79 velocity=0 time=2
control_change channel=0 control=10 value=86 time=27
note_on channel=0 note=81 velocity=78 time=2
note_on channel=0 note=72 velocity=0 time=7
control_change channel=0 control=10 value=75 time=21
note_on channel=0 note=69 velocity=86 time=1
note_on channel=0 note=77 velocity=86 time=0
note_on channel=0 note=81 velocity=0 time=2
note_on channel=0 note=77 velocity=0 time=48
note_on channel=0 note=69 velocity=0 time=0
note_on channel=0 note=75 velocity=87 time=10
note_on channel=0 note=72 velocity=81 time=31
note_on channel=0 note=75 velocity=0 time=7
control_change channel=0 control=10 value=70 time=21
note_on channel=0 note=69 velocity=84 time=1
note_on channel=0 note=72 velocity=0 time=2
note_on channel=0 note=68 velocity=79 time=29
note_on channel=0 note=69 velocity=0 time=7
note_on channel=0 note=67 velocity=81 time=22
note_on channel=0 note=68 velocity=0 time=2
control_change channel=0 control=10 value=66 time=27
note_on channel=0 note=66 velocity=74 time=2
note_on channel=0 note=67 velocity=0 time=7
note_on channel=0 note=66 velocity=0 time=18
note_on channel=0 note=65 velocity=79 time=4
control_change channel=0 control=10 value=72 time=29
note_on channel=0 note=70 velocity=71 time=2
note_on channel=0 note=65 velocity=0 time=7
control_change channel=0 control=10 value=77 time=21
note_on channel=0 note=74 velocity=76 time=1
note_on channel=0 note=70 velocity=0 time=2
control_change channel=0 control=10 value=81 time=27
note_on channel=0 note=77 velocity=89 time=2
note_on channel=0 note=74 velocity=0 time=7
note_on channel=0 note=77 velocity=0 time=43
control_change channel=0 control=10 value=72 time=8
note_on channel=0 note=70 velocity=75 time=2
note_on channel=0 note=72 velocity=83 time=29
note_on channel=0 note=70 velocity=0 time=2
control_change channel=0 control=10 value=77 time=27
note_on channel=0 note=74 velocity=76 time=2
note_on channel=0 note=72 velocity=0 time=7
note_on channel=0 note=74 velocity=0 time=18
control_change channel=0 control=10 value=70 time=3
note_on channel=0 note=69 velocity=85 time=1
note_on channel=0 note=70 velocity=78 time=31
note_on channel=0 note=69 velocity=0 time=7
note_on channel=0 note=67 velocity=86 time=22
note_on channel=0 note=70 velocity=0 time=2
control_change channel=0 control=10 value=65 time=27
note_on channel=0 note=65 velocity=92 time=2
note_on channel=0 note=67 velocity=0 time=7
note_on channel=0 note=65 velocity=0 time=43
note_on channel=0 note=66 velocity=78 time=10
note_on channel=0 note=67 velocity=83 time=29
note_on channel=0 note=66 velocity=0 time=2
control_change channel=0 control=10 value=69 time=27
note_on channel=0 note=68 velocity=78 time=2
note_on channel=0 note=67 velocity=0 time=7
note_on channel=0 note=68 velocity=0 time=18
note_on channel=0 note=69 velocity=83 time=4
control_change channel=0 control=10 value=74 time=29
note_on channel=0 note=72 velocity=80 time=2
note_on channel=0 note=69 velocity=0 time=7
control_change channel=0 control=10 value=78 time=21
note_on channel=0 note=75 velocity=81 time=1
note_on channel=0 note=72 velocity=0 time=2
note_on channel=0 note=75 velocity=0 time=23
note_on channel=0 note=75 velocity=90 time=6
note_on channel=0 note=79 velocity=90 time=0
note_on channel=0 note=69 velocity=90 time=0
note_on channel=0 note=69 velocity=0 time=50
note_on channel=0 note=79 velocity=0 time=0
note_on channel=0 note=75 velocity=0 time=0
control_change channel=0 control=10 value=82 time=8
note_on channel=0 note=78 velocity=81 time=2
note_on channel=0 note=77 velocity=84 time=29
note_on channel=0 note=78 velocity=0 time=2
note_on channel=0 note=77 velocity=0 time=48
control_change channel=0 control=10 value=72 time=9
note_on channel=0 note=70 velocity=82 time=1
control_change channel=0 control=10 value=77 time=29
note_on channel=0 note=74 velocity=79 time=2
note_on channel=0 note=70 velocity=0 time=7
control_change channel=0 control=10 value=81 time=21
note_on channel=0 note=77 velocity=81 time=1
note_on channel=0 note=74 velocity=0 time=2
control_change channel=0 control=10 value=77 time=27
note_on channel=0 note=70 velocity=89 time=2
note_on channel=0 note=74 velocity=89 time=0
note_on channel=0 note=79 velocity=89 time=0
note_on channel=0 note=77 velocity=0 time=7
note_on channel=0 note=70 velocity=0 time=43
note_on channel=0 note=74 velocity=0 time=0
note_on channel=0 note=79 velocity=0 time=0
control_change channel=0 control=10 value=82 time=8
note_on channel=0 note=78 velocity=83 time=2
control_change channel=0 control=10 value=75 time=28
note_on channel=0 note=68 velocity=94 time=1
note_on channel=0 note=74 velocity=94 time=0
note_on channel=0 note=77 velocity=94 time=0
note_on channel=0 note=78 velocity=0 time=2
note_on channel=0 note=68 velocity=0 time=48
note_on channel=0 note=74 velocity=0 time=0
note_on channel=0 note=77 velocity=0 time=0
note_on channel=0 note=77 velocity=105 time=10
note_on channel=0 note=67 velocity=105 time=0
note_on channel=0 note=72 velocity=105 time=0
note_on channel=0 note=75 velocity=94 time=31
note_on channel=0 note=77 velocity=0 time=8
note_on channel=0 note=67 velocity=0 time=36
note_on channel=0 note=72 velocity=0 time=0
note_on channel=0 note=75 velocity=0 time=2
control_change channel=0 control=10 value=81 time=12
note_on channel=0 note=79 velocity=112 time=2
note_on channel=0 note=72 velocity=112 time=0
note_on channel=0 note=75 velocity=107 time=0
note_on channel=0 note=84 velocity=112 time=0
note_on channel=0 note=84 velocity=0 time=80
note_on channel=0 note=79 velocity=0 time=0
note_on channel=0 note=72 velocity=0 time=0
note_on channel=0 note=75 velocity=0 time=0
control_change channel=0 control=10 value=86 time=8
note_on channel=0 note=75 velocity=108 time=1
note_on channel=0 note=87 velocity=108 time=0
note_on channel=0 note=82 velocity=108 time=0
note_on channel=0 note=82 velocity=0 time=50
note_on channel=0 note=87 velocity=0 time=0
note_on channel=0 note=75 velocity=0 time=0
note_on channel=0 note=74 velocity=100 time=10
note_on channel=0 note=82 velocity=100 time=0
note_on channel=0 note=86 velocity=105 time=0
note_on channel=0 note=82 velocity=0 time=25
note_on channel=0 note=74 velocity=0 time=0
control_change channel=0 control=10 value=78 time=4
note_on channel=0 note=82 velocity=95 time=2
note_on channel=0 note=74 velocity=91 time=0
note_on channel=0 note=70 velocity=95 time=0
note_on channel=0 note=86 velocity=0 time=7
note_on channel=0 note=82 velocity=0 time=43
note_on channel=0 note=74 velocity=0 time=0
note_on channel=0 note=70 velocity=0 time=0
control_change channel=0 control=10 value=74 time=8
note_on channel=0 note=79 velocity=90 time=2
note_on channel=0 note=67 velocity=90 time=0
note_on channel=0 note=71 velocity=90 time=0
note_on channel=0 note=71 velocity=0 time=50
note_on channel=0 note=67 velocity=0 time=0
note_on channel=0 note=79 velocity=0 time=0
control_change channel=0 control=10 value=81 time=8
note_on channel=0 note=77 velocity=89 time=2
control_change channel=0 control=10 value=72 time=28
note_on channel=0 note=65 velocity=93 time=1
note_on channel=0 note=74 velocity=93 time=0
note_on channel=0 note=71 velocity=93 time=0
note_on channel=0 note=77 velocity=0 time=9
note_on channel=0 note=65 velocity=0 time=41
note_on channel=0 note=74 velocity=0 time=0
note_on channel=0 note=71 velocity=0 time=0
note_on channel=0 note=70 velocity=95 time=10
note_on channel=0 note=64 velocity=95 time=0
note_on channel=0 note=74 velocity=95 time=0
note_on channel=0 note=72 velocity=87 time=31
note_on channel=0 note=74 velocity=0 time=6
note_on channel=0 note=70 velocity=0 time=38
note_on channel=0 note=64 velocity=0 time=0
note_on channel=0 note=72 velocity=0 time=2
note_on channel=0 note=77 velocity=93 time=14
note_on channel=0 note=65 velocity=89 time=0
note_on channel=0 note=69 velocity=89 time=0
note_on channel=0 note=69 velocity=0 time=50
note_on channel=0 note=65 velocity=0 time=0
note_on channel=0 note=77 velocity=0 time=0
control_change channel=0 control=10 value=77 time=8
note_on channel=0 note=74 velocity=98 time=2
control_change channel=0 control=10 value=68 time=28
note_on channel=0 note=69 velocity=82 time=1
note_on channel=0 note=72 velocity=86 time=0
note_on channel=0 note=63 velocity=86 time=0
note_on channel=0 note=74 velocity=0 time=8
note_on channel=0 note=69 velocity=0 time=42
note_on channel=0 note=72 velocity=0 time=0
note_on channel=0 note=63 velocity=0 time=0
note_on channel=0 note=62 velocity=87 time=10
note_on channel=0 note=70 velocity=87 time=0
note_on channel=0 note=65 velocity=87 time=0
note_on channel=0 note=65 velocity=0 time=101
note_on channel=0 note=70 velocity=0 time=0
note_on channel=0 note=62 velocity=0 time=0
control_change channel=0 control=10 value=78 time=18
note_on channel=0 note=70 velocity=95 time=1
note_on channel=0 note=77 velocity=95 time=0
note_on channel=0 note=82 velocity=95 time=0
note_on channel=0 note=74 velocity=95 time=0
note_on channel=0 note=74 velocity=0 time=101
note_on channel=0 note=70 velocity=0 time=0
note_on channel=0 note=77 velocity=0 time=0
note_on channel=0 note=82 velocity=0 time=0
control_change channel=0 control=10 value=68 time=18
note_on channel=0 note=67 velocity=69 time=1
note_on channel=0 note=74 velocity=69 time=0
note_on channel=0 note=62 velocity=69 time=0
note_on channel=0 note=67 velocity=0 time=25
note_on channel=0 note=63 velocity=64 time=6
note_on channel=0 note=75 velocity=64 time=0
note_on channel=0 note=67 velocity=64 time=0
note_on channel=0 note=62 velocity=0 time=7
note_on channel=0 note=74 velocity=0 time=0
note_on channel=0 note=67 velocity=0 time=18
note_on channel=0 note=63 velocity=0 time=0
note_on channel=0 note=72 velocity=72 time=4
note_on channel=0 note=60 velocity=72 time=0
note_on channel=0 note=63 velocity=72 time=0
note_on channel=0 note=67 velocity=72 time=0
note_on channel=0 note=75 velocity=0 time=2
note_on channel=0 note=63 velocity=0 time=21
note_on channel=0 note=67 velocity=0 time=0
control_change channel=0 control=10 value=64 time=6
note_on channel=0 note=58 velocity=69 time=0
note_on channel=0 note=67 velocity=69 time=0
note_on channel=0 note=63 velocity=69 time=0
note_on channel=0 note=70 velocity=69 time=0
note_on channel=0 note=60 velocity=0 time=9
note_on channel=0 note=72 velocity=0 time=0
note_on channel=0 note=63 velocity=0 time=41
note_on channel=0 note=67 velocity=0 time=0
note_on channel=0 note=70 velocity=0 time=0
note_on channel=0 note=58 velocity=0 time=0
control_change channel=0 control=10 value=73 time=10
note_on channel=0 note=66 velocity=61 time=2
note_on channel=0 note=69 velocity=61 time=0
note_on channel=0 note=78 velocity=61 time=0
note_on channel=0 note=67 velocity=66 time=29
note_on channel=0 note=79 velocity=66 time=0
note_on channel=0 note=70 velocity=66 time=0
note_on channel=0 note=78 velocity=0 time=2
note_on channel=0 note=66 velocity=0 time=0
note_on channel=0 note=69 velocity=0 time=0
note_on channel=0 note=70 velocity=0 time=23
control_change channel=0 control=10 value=79 time=4
note_on channel=0 note=82 velocity=63 time=2
note_on channel=0 note=70 velocity=63 time=0
note_on channel=0 note=79 velocity=0 time=7
note_on channel=0 note=67 velocity=0 time=0
note_on channel=0 note=82 velocity=0 time=18
note_on channel=0 note=70 velocity=0 time=0
control_change channel=0 control=10 value=83 time=3
note_on channel=0 note=79 velocity=72 time=1
note_on channel=0 note=74 velocity=72 time=0
note_on channel=0 note=86 velocity=72 time=0
note_on channel=0 note=79 velocity=0 time=25
note_on channel=0 note=87 velocity=69 time=6
note_on channel=0 note=75 velocity=69 time=0
note_on channel=0 note=79 velocity=69 time=0
note_on channel=0 note=86 velocity=0 time=17
note_on channel=0 note=74 velocity=0 time=0
note_on channel=0 note=75 velocity=0 time=8
note_on channel=0 note=79 velocity=0 time=0
note_on channel=0 note=84 velocity=74 time=4
note_on channel=0 note=75 velocity=74 time=0
note_on channel=0 note=72 velocity=74 time=0
note_on channel=0 note=79 velocity=74 time=0
note_on channel=0 note=87 velocity=0 time=2
note_on channel=0 note=79 velocity=0 time=23
note_on channel=0 note=75 velocity=0 time=0
control_change channel=0 control=10 value=79 time=4
note_on channel=0 note=70 velocity=70 time=0
note_on channel=0 note=82 velocity=70 time=0
note_on channel=0 note=75 velocity=70 time=0
note_on channel=0 note=79 velocity=70 time=0
note_on channel=0 note=84 velocity=0 time=9
note_on channel=0 note=72 velocity=0 time=0
note_on channel=0 note=75 velocity=0 time=41
note_on channel=0 note=82 velocity=0 time=0
note_on channel=0 note=79 velocity=0 time=0
note_on channel=0 note=70 velocity=0 time=0
control_change channel=0 control=10 value=89 time=10
note_on channel=0 note=78 velocity=62 time=2
note_on channel=0 note=81 velocity=62 time=0
note_on channel=0 note=90 velocity=62 time=0
note_on channel=0 note=79 velocity=71 time=29
note_on channel=0 note=82 velocity=71 time=0
note_on channel=0 note=91 velocity=71 time=0
note_on channel=0 note=90 velocity=0 time=6
note_on channel=0 note=78 velocity=0 time=0
note_on channel=0 note=81 velocity=0 time=0
note_on channel=0 note=77 velocity=66 time=23
note_on channel=0 note=80 velocity=66 time=0
note_on channel=0 note=89 velocity=66 time=0
note_on channel=0 note=79 velocity=0 time=14
note_on channel=0 note=91 velocity=0 time=0
note_on channel=0 note=82 velocity=0 time=0
note_on channel=0 note=77 velocity=0 time=36
note_on channel=0 note=80 velocity=0 time=0
note_on channel=0 note=89 velocity=0 time=0
note_on channel=0 note=75 velocity=61 time=12
note_on channel=0 note=87 velocity=61 time=0
control_change channel=0 control=10 value=82 time=28
note_on channel=0 note=72 velocity=69 time=1
note_on channel=0 note=84 velocity=69 time=0
note_on channel=0 note=87 velocity=0 time=6
note_on channel=0 note=75 velocity=0 time=0
control_change channel=0 control=10 value=86 time=23
note_on channel=0 note=87 velocity=64 time=0
note_on channel=0 note=75 velocity=64 time=0
note_on channel=0 note=72 velocity=0 time=14
note_on channel=0 note=84 velocity=0 time=0
note_on channel=0 note=87 velocity=0 time=36
note_on channel=0 note=75 velocity=0 time=0
control_change channel=0 control=10 value=73 time=10
note_on channel=0 note=77 velocity=61 time=2
note_on channel=0 note=65 velocity=61 time=0
note_on channel=0 note=78 velocity=64 time=29
note_on channel=0 note=66 velocity=64 time=0
note_on channel=0 note=65 velocity=0 time=6
note_on channel=0 note=77 velocity=0 time=0
note_on channel=0 note=67 velocity=74 time=23
note_on channel=0 note=79 velocity=74 time=0
note_on channel=0 note=78 velocity=0 time=14
note_on channel=0 note=66 velocity=0 time=0
note_on channel=0 note=67 velocity=0 time=36
note_on channel=0 note=79 velocity=0 time=0
note_on channel=0 note=70 velocity=64 time=12
note_on channel=0 note=75 velocity=64 time=0
note_on channel=0 note=75 velocity=0 time=25
note_on channel=0 note=66 velocity=73 time=4
note_on channel=0 note=75 velocity=73 time=0
note_on channel=0 note=78 velocity=73 time=0
note_on channel=0 note=72 velocity=73 time=0
note_on channel=0 note=70 velocity=0 time=14
note_on channel=0 note=77 velocity=66 time=46
note_on channel=0 note=65 velocity=66 time=0
note_on channel=0 note=70 velocity=66 time=0
note_on channel=0 note=74 velocity=66 time=0
note_on channel=0 note=78 velocity=0 time=19
note_on channel=0 note=72 velocity=0 time=0
note_on channel=0 note=66 velocity=0 time=0
note_on channel=0 note=75 velocity=0 time=0
note_on channel=0 note=77 velocity=0 time=31
note_on channel=0 note=74 velocity=0 time=0
note_on channel=0 note=65 velocity=0 time=0
note_on channel=0 note=70 velocity=0 time=0
control_change channel=0 control=10 value=69 time=9
note_on channel=0 note=68 velocity=69 time=1
note_on channel=0 note=68 velocity=0 time=45
note_on channel=0 note=67 velocity=71 time=15
note_on channel=0 note=74 velocity=71 time=0
note_on channel=0 note=62 velocity=71 time=0
note_on channel=0 note=67 velocity=0 time=25
note_on channel=0 note=67 velocity=65 time=6
note_on channel=0 note=75 velocity=65 time=0
note_on channel=0 note=63 velocity=65 time=0
note_on channel=0 note=62 velocity=0 time=12
note_on channel=0 note=74 velocity=0 time=0
note_on channel=0 note=63 velocity=0 time=13
note_on channel=0 note=67 velocity=0 time=0
control_change channel=0 control=10 value=65 time=3
note_on channel=0 note=63 velocity=75 time=1
note_on channel=0 note=67 velocity=75 time=0
note_on channel=0 note=72 velocity=75 time=0
note_on channel=0 note=60 velocity=75 time=0
note_on channel=0 note=75 velocity=0 time=2
note_on channel=0 note=63 velocity=0 time=23
note_on channel=0 note=67 velocity=0 time=0
note_on channel=0 note=63 velocity=69 time=4
note_on channel=0 note=70 velocity=69 time=0
note_on channel=0 note=58 velocity=69 time=0
note_on channel=0 note=67 velocity=69 time=0
note_on channel=0 note=72 velocity=0 time=9
note_on channel=0 note=60 velocity=0 time=0
note_on channel=0 note=58 velocity=0 time=41
note_on channel=0 note=70 velocity=0 time=0
note_on channel=0 note=67 velocity=0 time=0
note_on channel=0 note=63 velocity=0 time=0
control_change channel=0 control=10 value=73 time=10
note_on channel=0 note=78 velocity=63 time=2
note_on channel=0 note=66 velocity=63 time=0
note_on channel=0 note=69 velocity=63 time=0
note_on channel=0 note=70 velocity=68 time=29
note_on channel=0 note=79 velocity=68 time=0
note_on channel=0 note=67 velocity=68 time=0
note_on channel=0 note=69 velocity=0 time=6
note_on channel=0 note=78 velocity=0 time=0
note_on channel=0 note=66 velocity=0 time=0
note_on channel=0 note=70 velocity=0 time=22
control_change channel=0 control=10 value=79 time=1
note_on channel=0 note=82 velocity=65 time=2
note_on channel=0 note=70 velocity=65 time=0
note_on channel=0 note=79 velocity=0 time=12
note_on channel=0 note=67 velocity=0 time=0
note_on channel=0 note=82 velocity=0 time=16
note_on channel=0 note=70 velocity=0 time=0
control_change channel=0 control=10 value=83 time=0
note_on channel=0 note=86 velocity=74 time=1
note_on channel=0 note=79 velocity=74 time=0
note_on channel=0 note=74 velocity=74 time=0
note_on channel=0 note=79 velocity=0 time=25
note_on channel=0 note=75 velocity=68 time=6
note_on channel=0 note=79 velocity=68 time=0
note_on channel=0 note=87 velocity=68 time=0
note_on channel=0 note=74 velocity=0 time=17
note_on channel=0 note=86 velocity=0 time=0
note_on channel=0 note=79 velocity=0 time=8
note_on channel=0 note=75 velocity=0 time=0
note_on channel=0 note=72 velocity=79 time=4
note_on channel=0 note=84 velocity=79 time=0
note_on channel=0 note=79 velocity=79 time=0
note_on channel=0 note=75 velocity=79 time=0
note_on channel=0 note=87 velocity=0 time=2
note_on channel=0 note=79 velocity=0 time=23
note_on channel=0 note=75 velocity=0 time=0
control_change channel=0 control=10 value=79 time=4
note_on channel=0 note=70 velocity=71 time=0
note_on channel=0 note=82 velocity=71 time=0
note_on channel=0 note=75 velocity=71 time=0
note_on channel=0 note=79 velocity=71 time=0
note_on channel=0 note=84 velocity=0 time=9
note_on channel=0 note=72 velocity=0 time=0
note_on channel=0 note=75 velocity=0 time=62
note_on channel=0 note=82 velocity=0 time=0
note_on channel=0 note=79 velocity=0 time=0
note_on channel=0 note=70 velocity=0 time=0
control_change channel=0 control=10 value=83 time=19
note_on channel=0 note=72 velocity=76 time=1
note_on channel=0 note=79 velocity=76 time=0
note_on channel=0 note=84 velocity=76 time=0
note_on channel=0 note=82 velocity=76 time=0
note_on channel=0 note=82 velocity=0 time=50
note_on channel=0 note=72 velocity=0 time=0
note_on channel=0 note=79 velocity=0 time=0
note_on channel=0 note=84 velocity=0 time=0
note_on channel=0 note=82 velocity=80 time=10
note_on channel=0 note=74 velocity=80 time=0
note_on channel=0 note=86 velocity=80 time=0
note_on channel=0 note=79 velocity=80 time=0
note_on channel=0 note=79 velocity=0 time=25
control_change channel=0 control=10 value=91 time=4
note_on channel=0 note=79 velocity=71 time=2
note_on channel=0 note=91 velocity=71 time=0
note_on channel=0 note=82 velocity=0 time=4
note_on channel=0 note=86 velocity=0 time=0
note_on channel=0 note=74 velocity=0 time=0
control_change channel=0 control=10 value=95 time=24
note_on channel=0 note=82 velocity=80 time=1
note_on channel=0 note=94 velocity=80 time=0
note_on channel=0 note=79 velocity=0 time=6
note_on channel=0 note=91 velocity=0 time=0
control_change channel=0 control=10 value=100 time=23
note_on channel=0 note=98 velocity=76 time=2
note_on channel=0 note=86 velocity=76 time=0
note_on channel=0 note=82 velocity=0 time=12
note_on channel=0 note=94 velocity=0 time=0
note_on channel=0 note=87 velocity=85 time=17
note_on channel=0 note=99 velocity=85 time=0
note_on channel=0 note=98 velocity=0 time=6
note_on channel=0 note=86 velocity=0 time=0
control_change channel=0 control=10 value=92 time=23
note_on channel=0 note=92 velocity=80 time=2
note_on channel=0 note=80 velocity=80 time=0
note_on channel=0 note=87 velocity=0 time=12
note_on channel=0 note=99 velocity=0 time=0
note_on channel=0 note=81 velocity=81 time=17
note_on channel=0 note=93 velocity=81 time=0
note_on channel=0 note=92 velocity=0 time=6
note_on channel=0 note=80 velocity=0 time=0
control_change channel=0 control=10 value=100 time=23
note_on channel=0 note=86 velocity=86 time=2
note_on channel=0 note=98 velocity=86 time=0
note_on channel=0 note=81 velocity=0 time=12
note_on channel=0 note=93 velocity=0 time=0
control_change channel=0 control=10 value=91 time=16
note_on channel=0 note=91 velocity=79 time=1
note_on channel=0 note=79 velocity=79 time=0
note_on channel=0 note=86 velocity=0 time=2
note_on channel=0 note=98 velocity=0 time=0
note_on channel=0 note=86 velocity=74 time=29
note_on channel=0 note=91 velocity=0 time=12
note_on channel=0 note=79 velocity=0 time=0
control_change channel=0 control=10 value=87 time=16
note_on channel=0 note=82 velocity=78 time=1
note_on channel=0 note=86 velocity=0 time=6
control_change channel=0 control=10 value=83 time=23
note_on channel=0 note=79 velocity=70 time=2
note_on channel=0 note=82 velocity=0 time=12
control_change channel=0 control=10 value=77 time=16
note_on channel=0 note=74 velocity=76 time=1
note_on channel=0 note=79 velocity=0 time=2
note_on channel=0 note=74 velocity=0 time=48
control_change channel=0 control=10 value=69 time=9
note_on channel=0 note=62 velocity=76 time=1
note_on channel=0 note=68 velocity=76 time=0
note_on channel=0 note=74 velocity=76 time=0
note_on channel=0 note=74 velocity=0 time=41
note_on channel=0 note=68 velocity=0 time=0
note_on channel=0 note=62 velocity=0 time=0
note_on channel=0 note=62 velocity=70 time=19
note_on channel=0 note=74 velocity=70 time=0
note_on channel=0 note=67 velocity=70 time=0
note_on channel=0 note=67 velocity=0 time=25
note_on channel=0 note=63 velocity=66 time=6
note_on channel=0 note=75 velocity=66 time=0
note_on channel=0 note=67 velocity=66 time=0
note_on channel=0 note=74 velocity=0 time=10
note_on channel=0 note=62 velocity=0 time=0
note_on channel=0 note=67 velocity=0 time=15
note_on channel=0 note=63 velocity=0 time=0
control_change channel=0 control=10 value=65 time=3
note_on channel=0 note=60 velocity=74 time=1
note_on channel=0 note=72 velocity=74 time=0
note_on channel=0 note=67 velocity=74 time=0
note_on channel=0 note=63 velocity=74 time=0
note_on channel=0 note=75 velocity=0 time=6
note_on channel=0 note=67 velocity=0 time=19
note_on channel=0 note=63 velocity=0 time=0
note_on channel=0 note=67 velocity=66 time=4
note_on channel=0 note=58 velocity=66 time=0
note_on channel=0 note=70 velocity=66 time=0
note_on channel=0 note=63 velocity=66 time=0
note_on channel=0 note=72 velocity=0 time=12
note_on channel=0 note=60 velocity=0 time=0
note_on channel=0 note=70 velocity=0 time=38
note_on channel=0 note=58 velocity=0 time=0
note_on channel=0 note=63 velocity=0 time=0
note_on channel=0 note=67 velocity=0 time=0
control_change channel=0 control=10 value=73 time=10
note_on channel=0 note=66 velocity=63 time=2
note_on channel=0 note=78 velocity=63 time=0
note_on channel=0 note=69 velocity=63 time=0
note_on channel=0 note=79 velocity=68 time=29
note_on channel=0 note=67 velocity=68 time=0
note_on channel=0 note=70 velocity=68 time=0
note_on channel=0 note=69 velocity=0 time=4
note_on channel=0 note=66 velocity=0 time=0
note_on channel=0 note=78 velocity=0 time=0
note_on channel=0 note=70 velocity=0 time=21
control_change channel=0 control=10 value=79 time=4
note_on channel=0 note=70 velocity=65 time=2
note_on channel=0 note=82 velocity=65 time=0
note_on channel=0 note=67 velocity=0 time=10
note_on channel=0 note=79 velocity=0 time=0
note_on channel=0 note=70 velocity=0 time=15
note_on channel=0 note=82 velocity=0 time=0
control_change channel=0 control=10 value=83 time=3
note_on channel=0 note=74 velocity=75 time=1
note_on channel=0 note=86 velocity=75 time=0
note_on channel=0 note=79 velocity=75 time=0
note_on channel=0 note=79 velocity=0 time=25
note_on channel=0 note=75 velocity=69 time=6
note_on channel=0 note=87 velocity=69 time=0
note_on channel=0 note=79 velocity=69 time=0
note_on channel=0 note=86 velocity=0 time=13
note_on channel=0 note=74 velocity=0 time=0
note_on channel=0 note=79 velocity=0 time=12
note_on channel=0 note=75 velocity=0 time=0
note_on channel=0 note=84 velocity=80 time=4
note_on channel=0 note=72 velocity=80 time=0
note_on channel=0 note=75 velocity=80 time=0
note_on channel=0 note=79 velocity=80 time=0
note_on channel=0 note=87 velocity=0 time=6
note_on channel=0 note=75 velocity=0 time=19
note_on channel=0 note=79 velocity=0 time=0
control_change channel=0 control=10 value=79 time=4
note_on channel=0 note=82 velocity=74 time=0
note_on channel=0 note=75 velocity=74 time=0
note_on channel=0 note=79 velocity=74 time=0
note_on channel=0 note=70 velocity=74 time=0
note_on channel=0 note=72 velocity=0 time=12
note_on channel=0 note=84 velocity=0 time=0
note_on channel=0 note=79 velocity=0 time=34
note_on channel=0 note=75 velocity=0 time=0
note_on channel=0 note=70 velocity=0 time=0
note_on channel=0 note=82 velocity=0 time=0
control_change channel=0 control=10 value=89 time=14
note_on channel=0 note=81 velocity=82 time=2
note_on channel=0 note=78 velocity=82 time=0
note_on channel=0 note=90 velocity=82 time=0
note_on channel=0 note=82 velocity=78 time=29
note_on channel=0 note=91 velocity=78 time=0
note_on channel=0 note=79 velocity=78 time=0
note_on channel=0 note=90 velocity=0 time=12
note_on channel=0 note=81 velocity=0 time=0
note_on channel=0 note=78 velocity=0 time=0
note_on channel=0 note=82 velocity=0 time=12
control_change channel=0 control=10 value=95 time=5
note_on channel=0 note=94 velocity=92 time=0
note_on channel=0 note=82 velocity=92 time=0
note_on channel=0 note=91 velocity=0 time=21
note_on channel=0 note=79 velocity=0 time=0
note_on channel=0 note=94 velocity=0 time=29
note_on channel=0 note=82 velocity=0 time=0
control_change channel=0 control=10 value=91 time=10
note_on channel=0 note=79 velocity=82 time=2
note_on channel=0 note=91 velocity=82 time=0
control_change channel=0 control=10 value=87 time=28
note_on channel=0 note=76 velocity=83 time=1
note_on channel=0 note=88 velocity=83 time=0
note_on channel=0 note=91 velocity=0 time=12
note_on channel=0 note=79 velocity=0 time=0
control_change channel=0 control=10 value=83 time=17
note_on channel=0 note=85 velocity=97 time=0
note_on channel=0 note=73 velocity=97 time=0
note_on channel=0 note=76 velocity=0 time=21
note_on channel=0 note=88 velocity=0 time=0
note_on channel=0 note=85 velocity=0 time=29
note_on channel=0 note=73 velocity=0 time=0
note_on channel=0 note=84 velocity=78 time=12
note_on channel=0 note=72 velocity=78 time=0
note_on channel=0 note=83 velocity=81 time=29
note_on channel=0 note=71 velocity=81 time=0
note_on channel=0 note=72 velocity=0 time=12
note_on channel=0 note=84 velocity=0 time=0
note_on channel=0 note=84 velocity=95 time=17
note_on channel=0 note=72 velocity=95 time=0
note_on channel=0 note=83 velocity=0 time=21
note_on channel=0 note=71 velocity=0 time=0
note_on channel=0 note=84 velocity=0 time=29
note_on channel=0 note=72 velocity=0 time=0
note_on channel=0 note=73 velocity=87 time=12
note_on channel=0 note=85 velocity=87 time=0
note_on channel=0 note=84 velocity=92 time=29
note_on channel=0 note=72 velocity=92 time=0
note_on channel=0 note=85 velocity=0 time=12
note_on channel=0 note=73 velocity=0 time=0
note_on channel=0 note=83 velocity=78 time=19
note_on channel=0 note=71 velocity=78 time=0
note_on channel=0 note=84 velocity=0 time=19
note_on channel=0 note=72 velocity=0 time=0
note_on channel=0 note=84 velocity=92 time=10
note_on channel=0 note=72 velocity=92 time=0
note_on channel=0 note=83 velocity=0 time=12
note_on channel=0 note=71 velocity=0 time=0
note_on channel=0 note=84 velocity=0 time=89
note_on channel=0 note=72 velocity=0 time=0
control_change channel=0 control=10 value=98 time=18
note_on channel=0 note=90 velocity=81 time=1
control_change channel=0 control=10 value=92 time=29
note_on channel=0 note=86 velocity=70 time=2
note_on channel=0 note=90 velocity=0 time=4
note_on channel=0 note=86 velocity=0 time=25
note_on channel=0 note=87 velocity=74 time=0
note_on channel=0 note=84 velocity=68 time=31
note_on channel=0 note=87 velocity=0 time=4
control_change channel=0 control=10 value=79 time=24
note_on channel=0 note=84 velocity=0 time=1
note_on channel=0 note=78 velocity=76 time=0
note_on channel=0 note=72 velocity=76 time=0
note_on channel=0 note=81 velocity=76 time=0
note_on channel=0 note=75 velocity=76 time=0
note_on channel=0 note=75 velocity=0 time=50
note_on channel=0 note=78 velocity=0 time=0
note_on channel=0 note=72 velocity=0 time=0
note_on channel=0 note=81 velocity=0 time=0
note_on channel=0 note=78 velocity=70 time=70
note_on channel=0 note=74 velocity=63 time=31
note_on channel=0 note=78 velocity=0 time=4
note_on channel=0 note=74 velocity=0 time=25
note_on channel=0 note=75 velocity=67 time=0
control_change channel=0 control=10 value=74 time=29
note_on channel=0 note=72 velocity=61 time=2
note_on channel=0 note=75 velocity=0 time=4
control_change channel=0 control=10 value=64 time=24
note_on channel=0 note=72 velocity=0 time=1
note_on channel=0 note=69 velocity=69 time=0
note_on channel=0 note=63 velocity=69 time=0
note_on channel=0 note=60 velocity=69 time=0
note_on channel=0 note=60 velocity=0 time=101
note_on channel=0 note=63 velocity=0 time=0
note_on channel=0 note=69 velocity=0 time=0
note_on channel=0 note=58 velocity=73 time=19
note_on channel=0 note=70 velocity=73 time=0
note_on channel=0 note=63 velocity=73 time=0
note_on channel=0 note=63 velocity=0 time=25
note_on channel=0 note=70 velocity=0 time=6
note_on channel=0 note=58 velocity=0 time=0
note_on channel=0 note=72 velocity=75 time=0
note_on channel=0 note=63 velocity=75 time=0
note_on channel=0 note=60 velocity=75 time=0
note_on channel=0 note=60 velocity=0 time=50
note_on channel=0 note=63 velocity=0 time=0
note_on channel=0 note=72 velocity=0 time=0
note_on channel=0 note=70 velocity=65 time=10
note_on channel=0 note=64 velocity=65 time=0
note_on channel=0 note=60 velocity=65 time=0
note_on channel=0 note=60 velocity=0 time=50
note_on channel=0 note=64 velocity=0 time=0
note_on channel=0 note=70 velocity=0 time=0
control_change channel=0 control=10 value=69 time=8
note_on channel=0 note=68 velocity=59 time=2
control_change channel=0 control=10 value=62 time=28
note_on channel=0 note=67 velocity=65 time=1
note_on channel=0 note=58 velocity=65 time=0
note_on channel=0 note=64 velocity=65 time=0
note_on channel=0 note=68 velocity=0 time=7
note_on channel=0 note=67 velocity=0 time=43
note_on channel=0 note=58 velocity=0 time=0
note_on channel=0 note=64 velocity=0 time=0
note_on channel=0 note=63 velocity=68 time=10
note_on channel=0 note=67 velocity=68 time=0
note_on channel=0 note=57 velocity=68 time=0
note_on channel=0 note=63 velocity=0 time=25
note_on channel=0 note=57 velocity=0 time=6
note_on channel=0 note=67 velocity=0 time=0
note_on channel=0 note=63 velocity=62 time=0
note_on channel=0 note=62 velocity=65 time=29
note_on channel=0 note=56 velocity=65 time=0
note_on channel=0 note=65 velocity=65 time=0
note_on channel=0 note=63 velocity=0 time=3
note_on channel=0 note=62 velocity=0 time=47
note_on channel=0 note=56 velocity=0 time=0
note_on channel=0 note=65 velocity=0 time=0
control_change channel=0 control=10 value=56 time=9
note_on channel=0 note=58 velocity=68 time=1
note_on channel=0 note=63 velocity=68 time=0
note_on channel=0 note=55 velocity=68 time=0
note_on channel=0 note=55 velocity=0 time=50
note_on channel=0 note=63 velocity=0 time=0
note_on channel=0 note=58 velocity=0 time=0
control_change channel=0 control=10 value=72 time=9
note_on channel=0 note=70 velocity=102 time=1
note_on channel=0 note=70 velocity=0 time=50
control_change channel=0 control=10 value=68 time=9
note_on channel=0 note=74 velocity=85 time=1
note_on channel=0 note=62 velocity=85 time=0
note_on channel=0 note=67 velocity=85 time=0
note_on channel=0 note=67 velocity=0 time=25
note_on channel=0 note=62 velocity=0 time=6
note_on channel=0 note=74 velocity=0 time=0
note_on channel=0 note=63 velocity=82 time=0
note_on channel=0 note=67 velocity=82 time=0
note_on channel=0 note=75 velocity=82 time=0
note_on channel=0 note=75 velocity=0 time=25
note_on channel=0 note=67 velocity=0 time=0
note_on channel=0 note=63 velocity=0 time=0
note_on channel=0 note=60 velocity=89 time=4
note_on channel=0 note=72 velocity=89 time=0
note_on channel=0 note=67 velocity=89 time=0
note_on channel=0 note=63 velocity=89 time=0
note_on channel=0 note=63 velocity=0 time=25
note_on channel=0 note=67 velocity=0 time=0
control_change channel=0 control=10 value=64 time=4
note_on channel=0 note=58 velocity=82 time=0
note_on channel=0 note=67 velocity=82 time=0
note_on channel=0 note=63 velocity=82 time=0
note_on channel=0 note=70 velocity=82 time=0
note_on channel=0 note=72 velocity=0 time=2
note_on channel=0 note=60 velocity=0 time=0
note_on channel=0 note=63 velocity=0 time=48
note_on channel=0 note=67 velocity=0 time=0
note_on channel=0 note=70 velocity=0 time=0
note_on channel=0 note=58 velocity=0 time=0
control_change channel=0 control=10 value=73 time=10
note_on channel=0 note=78 velocity=79 time=2
note_on channel=0 note=66 velocity=79 time=0
note_on channel=0 note=69 velocity=79 time=0
note_on channel=0 note=69 velocity=0 time=25
note_on channel=0 note=66 velocity=0 time=0
note_on channel=0 note=78 velocity=0 time=0
note_on channel=0 note=79 velocity=85 time=4
note_on channel=0 note=70 velocity=85 time=0
note_on channel=0 note=67 velocity=85 time=0
note_on channel=0 note=70 velocity=0 time=25
control_change channel=0 control=10 value=79 time=4
note_on channel=0 note=67 velocity=0 time=2
note_on channel=0 note=79 velocity=0 time=0
note_on channel=0 note=82 velocity=81 time=0
note_on channel=0 note=70 velocity=81 time=0
note_on channel=0 note=70 velocity=0 time=25
note_on channel=0 note=82 velocity=0 time=0
control_change channel=0 control=10 value=83 time=3
note_on channel=0 note=86 velocity=92 time=1
note_on channel=0 note=74 velocity=92 time=0
note_on channel=0 note=79 velocity=92 time=0
note_on channel=0 note=79 velocity=0 time=25
note_on channel=0 note=75 velocity=88 time=6
note_on channel=0 note=79 velocity=88 time=0
note_on channel=0 note=87 velocity=88 time=0
note_on channel=0 note=74 velocity=0 time=8
note_on channel=0 note=86 velocity=0 time=0
note_on channel=0 note=79 velocity=0 time=17
note_on channel=0 note=75 velocity=0 time=0
note_on channel=0 note=87 velocity=0 time=0
note_on channel=0 note=72 velocity=99 time=4
note_on channel=0 note=75 velocity=89 time=0
note_on channel=0 note=79 velocity=89 time=0
note_on channel=0 note=84 velocity=99 time=0
note_on channel=0 note=79 velocity=0 time=25
note_on channel=0 note=75 velocity=0 time=0
control_change channel=0 control=10 value=79 time=4
note_on channel=0 note=82 velocity=94 time=0
note_on channel=0 note=75 velocity=94 time=0
note_on channel=0 note=79 velocity=94 time=0
note_on channel=0 note=70 velocity=94 time=0
note_on channel=0 note=72 velocity=0 time=7
note_on channel=0 note=84 velocity=0 time=0
note_on channel=0 note=79 velocity=0 time=43
note_on channel=0 note=75 velocity=0 time=0
note_on channel=0 note=70 velocity=0 time=0
note_on channel=0 note=82 velocity=0 time=0
control_change channel=0 control=10 value=89 time=10
note_on channel=0 note=81 velocity=76 time=2
note_on channel=0 note=90 velocity=76 time=0
note_on channel=0 note=78 velocity=76 time=0
note_on channel=0 note=78 velocity=0 time=28
note_on channel=0 note=90 velocity=0 time=0
note_on channel=0 note=81 velocity=0 time=0
note_on channel=0 note=82 velocity=88 time=1
note_on channel=0 note=79 velocity=88 time=0
note_on channel=0 note=91 velocity=88 time=0
note_on channel=0 note=80 velocity=81 time=29
note_on channel=0 note=77 velocity=81 time=0
note_on channel=0 note=89 velocity=81 time=0
note_on channel=0 note=91 velocity=0 time=6
note_on channel=0 note=82 velocity=0 time=0
note_on channel=0 note=79 velocity=0 time=0
note_on channel=0 note=80 velocity=0 time=44
note_on channel=0 note=77 velocity=0 time=0
note_on channel=0 note=89 velocity=0 time=0
note_on channel=0 note=75 velocity=75 time=12
note_on channel=0 note=87 velocity=75 time=0
note_on channel=0 note=87 velocity=0 time=28
note_on channel=0 note=75 velocity=0 time=0
control_change channel=0 control=10 value=82 time=0
note_on channel=0 note=84 velocity=86 time=1
note_on channel=0 note=72 velocity=86 time=0
control_change channel=0 control=10 value=86 time=29
note_on channel=0 note=75 velocity=80 time=0
note_on channel=0 note=87 velocity=80 time=0
note_on channel=0 note=72 velocity=0 time=6
note_on channel=0 note=84 velocity=0 time=0
note_on channel=0 note=75 velocity=0 time=44
note_on channel=0 note=87 velocity=0 time=0
control_change channel=0 control=10 value=73 time=10
note_on channel=0 note=77 velocity=75 time=2
note_on channel=0 note=65 velocity=75 time=0
note_on channel=0 note=65 velocity=0 time=28
note_on channel=0 note=77 velocity=0 time=0
note_on channel=0 note=78 velocity=80 time=1
note_on channel=0 note=66 velocity=80 time=0
note_on channel=0 note=67 velocity=84 time=29
note_on channel=0 note=79 velocity=84 time=0
note_on channel=0 note=66 velocity=0 time=6
note_on channel=0 note=78 velocity=0 time=0
note_on channel=0 note=67 velocity=0 time=44
note_on channel=0 note=79 velocity=0 time=0
note_on channel=0 note=70 velocity=78 time=12
note_on channel=0 note=75 velocity=78 time=0
note_on channel=0 note=75 velocity=0 time=25
note_on channel=0 note=66 velocity=83 time=4
note_on channel=0 note=78 velocity=83 time=0
note_on channel=0 note=75 velocity=83 time=0
note_on channel=0 note=72 velocity=83 time=0
note_on channel=0 note=70 velocity=0 time=6
note_on channel=0 note=77 velocity=77 time=54
note_on channel=0 note=70 velocity=77 time=0
note_on channel=0 note=65 velocity=77 time=0
note_on channel=0 note=74 velocity=77 time=0
note_on channel=0 note=75 velocity=0 time=8
note_on channel=0 note=72 velocity=0 time=0
note_on channel=0 note=66 velocity=0 time=0
note_on channel=0 note=78 velocity=0 time=0
note_on channel=0 note=77 velocity=0 time=42
note_on channel=0 note=74 velocity=0 time=0
note_on channel=0 note=70 velocity=0 time=0
note_on channel=0 note=65 velocity=0 time=0
control_change channel=0 control=10 value=69 time=9
note_on channel=0 note=68 velocity=84 time=1
note_on channel=0 note=68 velocity=0 time=45
note_on channel=0 note=67 velocity=78 time=15
note_on channel=0 note=62 velocity=78 time=0
note_on channel=0 note=74 velocity=78 time=0
note_on channel=0 note=67 velocity=0 time=25
note_on channel=0 note=75 velocity=75 time=6
note_on channel=0 note=63 velocity=75 time=0
note_on channel=0 note=67 velocity=75 time=0
note_on channel=0 note=74 velocity=0 time=4
note_on channel=0 note=62 velocity=0 time=0
note_on channel=0 note=63 velocity=0 time=21
note_on channel=0 note=75 velocity=0 time=0
note_on channel=0 note=67 velocity=0 time=0
control_change channel=0 control=10 value=65 time=3
note_on channel=0 note=72 velocity=84 time=1
note_on channel=0 note=60 velocity=84 time=0
note_on channel=0 note=63 velocity=84 time=0
note_on channel=0 note=67 velocity=84 time=0
note_on channel=0 note=67 velocity=0 time=25
note_on channel=0 note=63 velocity=0 time=0
note_on channel=0 note=58 velocity=80 time=4
note_on channel=0 note=67 velocity=80 time=0
note_on channel=0 note=63 velocity=80 time=0
note_on channel=0 note=70 velocity=80 time=0
note_on channel=0 note=60 velocity=0 time=2
note_on channel=0 note=72 velocity=0 time=0
note_on channel=0 note=63 velocity=0 time=48
note_on channel=0 note=67 velocity=0 time=0
note_on channel=0 note=70 velocity=0 time=0
note_on channel=0 note=58 velocity=0 time=0
control_change channel=0 control=10 value=73 time=10
note_on channel=0 note=66 velocity=77 time=2
note_on channel=0 note=69 velocity=77 time=0
note_on channel=0 note=78 velocity=77 time=0
note_on channel=0 note=78 velocity=0 time=28
note_on channel=0 note=69 velocity=0 time=0
note_on channel=0 note=66 velocity=0 time=0
note_on channel=0 note=67 velocity=83 time=1
note_on channel=0 note=79 velocity=83 time=0
note_on channel=0 note=70 velocity=83 time=0
note_on channel=0 note=70 velocity=0 time=28
control_change channel=0 control=10 value=79 time=1
note_on channel=0 note=82 velocity=79 time=2
note_on channel=0 note=70 velocity=79 time=0
note_on channel=0 note=79 velocity=0 time=4
note_on channel=0 note=67 velocity=0 time=0
note_on channel=0 note=82 velocity=0 time=24
note_on channel=0 note=70 velocity=0 time=0
control_change channel=0 control=10 value=83 time=0
note_on channel=0 note=79 velocity=93 time=1
note_on channel=0 note=74 velocity=93 time=0
note_on channel=0 note=86 velocity=93 time=0
note_on channel=0 note=79 velocity=0 time=25
note_on channel=0 note=87 velocity=85 time=6
note_on channel=0 note=75 velocity=85 time=0
note_on channel=0 note=79 velocity=85 time=0
note_on channel=0 note=86 velocity=0 time=8
note_on channel=0 note=74 velocity=0 time=0
note_on channel=0 note=75 velocity=0 time=17
note_on channel=0 note=87 velocity=0 time=0
note_on channel=0 note=79 velocity=0 time=0
note_on channel=0 note=84 velocity=98 time=4
note_on channel=0 note=79 velocity=88 time=0
note_on channel=0 note=75 velocity=88 time=0
note_on channel=0 note=72 velocity=98 time=0
note_on channel=0 note=75 velocity=0 time=25
note_on channel=0 note=79 velocity=0 time=0
control_change channel=0 control=10 value=79 time=4
note_on channel=0 note=70 velocity=92 time=0
note_on channel=0 note=75 velocity=92 time=0
note_on channel=0 note=82 velocity=92 time=0
note_on channel=0 note=79 velocity=92 time=0
note_on channel=0 note=84 velocity=0 time=12
note_on channel=0 note=72 velocity=0 time=0
note_on channel=0 note=82 velocity=0 time=59
note_on channel=0 note=75 velocity=0 time=0
note_on channel=0 note=79 velocity=0 time=0
note_on channel=0 note=70 velocity=0 time=0
control_change channel=0 control=10 value=83 time=19
note_on channel=0 note=79 velocity=88 time=1
note_on channel=0 note=72 velocity=88 time=0
note_on channel=0 note=82 velocity=88 time=0
note_on channel=0 note=84 velocity=88 time=0
note_on channel=0 note=84 velocity=0 time=50
note_on channel=0 note=79 velocity=0 time=0
note_on channel=0 note=72 velocity=0 time=0
note_on channel=0 note=82 velocity=0 time=0
note_on channel=0 note=74 velocity=99 time=10
note_on channel=0 note=82 velocity=99 time=0
note_on channel=0 note=79 velocity=99 time=0
note_on channel=0 note=86 velocity=99 time=0
note_on channel=0 note=79 velocity=0 time=25
control_change channel=0 control=10 value=91 time=4
note_on channel=0 note=74 velocity=0 time=2
note_on channel=0 note=82 velocity=0 time=0
note_on channel=0 note=86 velocity=0 time=0
note_on channel=0 note=79 velocity=89 time=0
note_on channel=0 note=91 velocity=89 time=0
note_on channel=0 note=91 velocity=0 time=25
note_on channel=0 note=79 velocity=0 time=0
control_change channel=0 control=10 value=95 time=3
note_on channel=0 note=94 velocity=100 time=1
note_on channel=0 note=82 velocity=100 time=0
control_change channel=0 control=10 value=99 time=29
note_on channel=0 note=82 velocity=0 time=2
note_on channel=0 note=94 velocity=0 time=0
note_on channel=0 note=98 velocity=90 time=0
note_on channel=0 note=86 velocity=94 time=0
note_on channel=0 note=86 velocity=0 time=25
note_on channel=0 note=98 velocity=0 time=0
note_on channel=0 note=87 velocity=102 time=4
note_on channel=0 note=99 velocity=98 time=0
control_change channel=0 control=10 value=92 time=29
note_on channel=0 note=99 velocity=0 time=2
note_on channel=0 note=87 velocity=0 time=0
note_on channel=0 note=80 velocity=98 time=0
note_on channel=0 note=92 velocity=98 time=0
note_on channel=0 note=92 velocity=0 time=25
note_on channel=0 note=80 velocity=0 time=0
note_on channel=0 note=81 velocity=98 time=4
note_on channel=0 note=93 velocity=98 time=0
control_change channel=0 control=10 value=99 time=29
note_on channel=0 note=93 velocity=0 time=2
note_on channel=0 note=81 velocity=0 time=0
note_on channel=0 note=86 velocity=105 time=0
note_on channel=0 note=98 velocity=101 time=0
note_on channel=0 note=98 velocity=0 time=25
note_on channel=0 note=86 velocity=0 time=0
control_change channel=0 control=10 value=91 time=3
note_on channel=0 note=91 velocity=101 time=1
note_on channel=0 note=79 velocity=101 time=0
note_on channel=0 note=79 velocity=0 time=31
note_on channel=0 note=91 velocity=0 time=0
note_on channel=0 note=86 velocity=92 time=0
note_on channel=0 note=86 velocity=0 time=25
control_change channel=0 control=10 value=87 time=3
note_on channel=0 note=82 velocity=96 time=1
control_change channel=0 control=10 value=83 time=29
note_on channel=0 note=82 velocity=0 time=2
note_on channel=0 note=79 velocity=86 time=0
note_on channel=0 note=79 velocity=0 time=25
control_change channel=0 control=10 value=77 time=3
note_on channel=0 note=74 velocity=88 time=1
note_on channel=0 note=74 velocity=0 time=50
control_change channel=0 control=10 value=69 time=9
note_on channel=0 note=68 velocity=91 time=1
note_on channel=0 note=74 velocity=91 time=0
note_on channel=0 note=62 velocity=91 time=0
note_on channel=0 note=62 velocity=0 time=41
note_on channel=0 note=74 velocity=0 time=0
note_on channel=0 note=68 velocity=0 time=0
note_on channel=0 note=62 velocity=77 time=19
note_on channel=0 note=67 velocity=77 time=0
note_on channel=0 note=74 velocity=77 time=0
note_on channel=0 note=67 velocity=0 time=25
note_on channel=0 note=75 velocity=74 time=6
note_on channel=0 note=63 velocity=74 time=0
note_on channel=0 note=67 velocity=74 time=0
note_on channel=0 note=74 velocity=0 time=5
note_on channel=0 note=62 velocity=0 time=0
note_on channel=0 note=63 velocity=0 time=20
note_on channel=0 note=67 velocity=0 time=0
control_change channel=0 control=10 value=65 time=3
note_on channel=0 note=75 velocity=0 time=1
note_on channel=0 note=72 velocity=84 time=0
note_on channel=0 note=60 velocity=84 time=0
note_on channel=0 note=63 velocity=84 time=0
note_on channel=0 note=67 velocity=84 time=0
note_on channel=0 note=67 velocity=0 time=25
note_on channel=0 note=63 velocity=0 time=0
note_on channel=0 note=58 velocity=79 time=4
note_on channel=0 note=67 velocity=79 time=0
note_on channel=0 note=63 velocity=79 time=0
note_on channel=0 note=70 velocity=79 time=0
note_on channel=0 note=60 velocity=0 time=7
note_on channel=0 note=72 velocity=0 time=0
note_on channel=0 note=63 velocity=0 time=43
note_on channel=0 note=67 velocity=0 time=0
note_on channel=0 note=70 velocity=0 time=0
note_on channel=0 note=58 velocity=0 time=0
control_change channel=0 control=10 value=73 time=10
note_on channel=0 note=66 velocity=76 time=2
note_on channel=0 note=69 velocity=76 time=0
note_on channel=0 note=78 velocity=76 time=0
note_on channel=0 note=78 velocity=0 time=29
note_on channel=0 note=69 velocity=0 time=0
note_on channel=0 note=66 velocity=0 time=0
note_on channel=0 note=67 velocity=82 time=0
note_on channel=0 note=70 velocity=82 time=0
note_on channel=0 note=79 velocity=82 time=0
note_on channel=0 note=70 velocity=0 time=25
control_change channel=0 control=10 value=79 time=4
note_on channel=0 note=82 velocity=78 time=2
note_on channel=0 note=70 velocity=78 time=0
note_on channel=0 note=79 velocity=0 time=5
note_on channel=0 note=67 velocity=0 time=0
note_on channel=0 note=82 velocity=0 time=20
note_on channel=0 note=70 velocity=0 time=0
control_change channel=0 control=10 value=83 time=3
note_on channel=0 note=74 velocity=88 time=1
note_on channel=0 note=79 velocity=88 time=0
note_on channel=0 note=86 velocity=88 time=0
note_on channel=0 note=79 velocity=0 time=25
note_on channel=0 note=87 velocity=84 time=6
note_on channel=0 note=75 velocity=84 time=0
note_on channel=0 note=79 velocity=84 time=0
note_on channel=0 note=86 velocity=0 time=8
note_on channel=0 note=74 velocity=0 time=0
note_on channel=0 note=75 velocity=0 time=17
note_on channel=0 note=79 velocity=0 time=0
note_on channel=0 note=84 velocity=90 time=4
note_on channel=0 note=75 velocity=90 time=0
note_on channel=0 note=72 velocity=90 time=0
note_on channel=0 note=79 velocity=90 time=0
note_on channel=0 note=87 velocity=0 time=2
note_on channel=0 note=79 velocity=0 time=23
note_on channel=0 note=75 velocity=0 time=0
control_change channel=0 control=10 value=79 time=4
note_on channel=0 note=75 velocity=86 time=0
note_on channel=0 note=82 velocity=86 time=0
note_on channel=0 note=70 velocity=86 time=0
note_on channel=0 note=79 velocity=86 time=0
note_on channel=0 note=84 velocity=0 time=7
note_on channel=0 note=72 velocity=0 time=0
note_on channel=0 note=70 velocity=0 time=39
note_on channel=0 note=82 velocity=0 time=0
note_on channel=0 note=79 velocity=0 time=0
note_on channel=0 note=75 velocity=0 time=0
control_change channel=0 control=10 value=89 time=14
note_on channel=0 note=81 velocity=94 time=2
note_on channel=0 note=90 velocity=94 time=0
note_on channel=0 note=78 velocity=94 time=0
note_on channel=0 note=91 velocity=89 time=29
note_on channel=0 note=82 velocity=89 time=0
note_on channel=0 note=79 velocity=89 time=0
note_on channel=0 note=78 velocity=0 time=7
note_on channel=0 note=81 velocity=0 time=0
note_on channel=0 note=90 velocity=0 time=0
note_on channel=0 note=82 velocity=0 time=19
control_change channel=0 control=10 value=95 time=3
note_on channel=0 note=82 velocity=106 time=0
note_on channel=0 note=94 velocity=106 time=0
note_on channel=0 note=79 velocity=0 time=15
note_on channel=0 note=91 velocity=0 time=0
note_on channel=0 note=82 velocity=0 time=35
note_on channel=0 note=94 velocity=0 time=0
control_change channel=0 control=10 value=91 time=10
note_on channel=0 note=79 velocity=94 time=2
note_on channel=0 note=91 velocity=94 time=0
control_change channel=0 control=10 value=87 time=28
note_on channel=0 note=88 velocity=95 time=1
note_on channel=0 note=76 velocity=95 time=0
note_on channel=0 note=91 velocity=0 time=7
note_on channel=0 note=79 velocity=0 time=0
control_change channel=0 control=10 value=83 time=22
note_on channel=0 note=85 velocity=104 time=0
note_on channel=0 note=73 velocity=104 time=0
note_on channel=0 note=88 velocity=0 time=15
note_on channel=0 note=76 velocity=0 time=0
note_on channel=0 note=85 velocity=0 time=35
note_on channel=0 note=73 velocity=0 time=0
note_on channel=0 note=84 velocity=90 time=12
note_on channel=0 note=72 velocity=90 time=0
note_on channel=0 note=83 velocity=93 time=29
note_on channel=0 note=71 velocity=93 time=0
note_on channel=0 note=72 velocity=0 time=7
note_on channel=0 note=84 velocity=0 time=0
note_on channel=0 note=84 velocity=101 time=22
note_on channel=0 note=72 velocity=101 time=0
note_on channel=0 note=83 velocity=0 time=15
note_on channel=0 note=71 velocity=0 time=0
note_on channel=0 note=84 velocity=0 time=35
note_on channel=0 note=72 velocity=0 time=0
note_on channel=0 note=73 velocity=99 time=12
note_on channel=0 note=85 velocity=99 time=0
note_on channel=0 note=84 velocity=101 time=29
note_on channel=0 note=72 velocity=101 time=0
note_on channel=0 note=85 velocity=0 time=7
note_on channel=0 note=73 velocity=0 time=0
note_on channel=0 note=83 velocity=90 time=24
note_on channel=0 note=71 velocity=90 time=0
note_on channel=0 note=84 velocity=0 time=13
note_on channel=0 note=72 velocity=0 time=0
note_on channel=0 note=84 velocity=106 time=16
note_on channel=0 note=72 velocity=106 time=0
note_on channel=0 note=83 velocity=0 time=7
note_on channel=0 note=71 velocity=0 time=0
note_on channel=0 note=84 velocity=0 time=94
note_on channel=0 note=72 velocity=0 time=0
control_change channel=0 control=10 value=98 time=18
note_on channel=0 note=90 velocity=85 time=1
control_change channel=0 control=10 value=92 time=29
note_on channel=0 note=90 velocity=0 time=2
note_on channel=0 note=86 velocity=74 time=0
note_on channel=0 note=86 velocity=0 time=25
note_on channel=0 note=87 velocity=80 time=4
note_on channel=0 note=87 velocity=0 time=31
note_on channel=0 note=84 velocity=74 time=0
note_on channel=0 note=84 velocity=0 time=25
control_change channel=0 control=10 value=79 time=3
note_on channel=0 note=81 velocity=81 time=1
note_on channel=0 note=75 velocity=81 time=0
note_on channel=0 note=78 velocity=81 time=0
note_on channel=0 note=72 velocity=81 time=0
note_on channel=0 note=72 velocity=0 time=50
note_on channel=0 note=81 velocity=0 time=0
note_on channel=0 note=75 velocity=0 time=0
note_on channel=0 note=78 velocity=0 time=0
note_on channel=0 note=78 velocity=78 time=70
note_on channel=0 note=78 velocity=0 time=31
note_on channel=0 note=74 velocity=72 time=0
note_on channel=0 note=74 velocity=0 time=25
note_on channel=0 note=75 velocity=74 time=4
control_change channel=0 control=10 value=74 time=29
note_on channel=0 note=75 velocity=0 time=2
note_on channel=0 note=72 velocity=70 time=0
note_on channel=0 note=72 velocity=0 time=25
control_change channel=0 control=10 value=64 time=3
note_on channel=0 note=63 velocity=79 time=1
note_on channel=0 note=60 velocity=79 time=0
note_on channel=0 note=69 velocity=79 time=0
note_on channel=0 note=69 velocity=0 time=101
note_on channel=0 note=60 velocity=0 time=0
note_on channel=0 note=63 velocity=0 time=0
note_on channel=0 note=58 velocity=79 time=19
note_on channel=0 note=63 velocity=79 time=0
note_on channel=0 note=70 velocity=79 time=0
note_on channel=0 note=63 velocity=0 time=25
note_on channel=0 note=70 velocity=0 time=6
note_on channel=0 note=58 velocity=0 time=0
note_on channel=0 note=63 velocity=74 time=0
note_on channel=0 note=72 velocity=74 time=0
note_on channel=0 note=60 velocity=74 time=0
note_on channel=0 note=60 velocity=0 time=50
note_on channel=0 note=72 velocity=0 time=0
note_on channel=0 note=63 velocity=0 time=0
note_on channel=0 note=70 velocity=65 time=10
note_on channel=0 note=60 velocity=65 time=0
note_on channel=0 note=64 velocity=65 time=0
note_on channel=0 note=64 velocity=0 time=50
note_on channel=0 note=60 velocity=0 time=0
note_on channel=0 note=70 velocity=0 time=0
control_change channel=0 control=10 value=69 time=8
note_on channel=0 note=68 velocity=68 time=2
control_change channel=0 control=10 value=62 time=28
note_on channel=0 note=64 velocity=64 time=1
note_on channel=0 note=67 velocity=64 time=0
note_on channel=0 note=58 velocity=64 time=0
note_on channel=0 note=68 velocity=0 time=7
note_on channel=0 note=64 velocity=0 time=43
note_on channel=0 note=67 velocity=0 time=0
note_on channel=0 note=58 velocity=0 time=0
note_on channel=0 note=63 velocity=74 time=10
note_on channel=0 note=67 velocity=74 time=0
note_on channel=0 note=57 velocity=74 time=0
note_on channel=0 note=63 velocity=0 time=25
note_on channel=0 note=57 velocity=0 time=6
note_on channel=0 note=67 velocity=0 time=0
note_on channel=0 note=63 velocity=62 time=0
note_on channel=0 note=62 velocity=69 time=29
note_on channel=0 note=56 velocity=69 time=0
note_on channel=0 note=65 velocity=69 time=0
note_on channel=0 note=63 velocity=0 time=3
note_on channel=0 note=62 velocity=0 time=47
note_on channel=0 note=56 velocity=0 time=0
note_on channel=0 note=65 velocity=0 time=0
control_change channel=0 control=10 value=56 time=9
note_on channel=0 note=63 velocity=67 time=1
note_on channel=0 note=55 velocity=67 time=0
note_on channel=0 note=58 velocity=67 time=0
note_on channel=0 note=58 velocity=0 time=50
note_on channel=0 note=55 velocity=0 time=0
note_on channel=0 note=63 velocity=0 time=0
control_change channel=0 control=10 value=74 time=44
note_on channel=0 note=72 velocity=84 time=6
note_on channel=0 note=73 velocity=89 time=10
note_on channel=0 note=74 velocity=95 time=10
note_on channel=0 note=72 velocity=0 time=4
note_on channel=0 note=73 velocity=0 time=10
note_on channel=0 note=74 velocity=0 time=36
control_change channel=0 control=10 value=78 time=9
note_on channel=0 note=70 velocity=87 time=1
note_on channel=0 note=77 velocity=87 time=0
note_on channel=0 note=82 velocity=87 time=0
note_on channel=0 note=74 velocity=87 time=0
note_on channel=0 note=81 velocity=80 time=31
note_on channel=0 note=69 velocity=80 time=0
note_on channel=0 note=74 velocity=0 time=7
note_on channel=0 note=82 velocity=0 time=0
note_on channel=0 note=70 velocity=0 time=0
note_on channel=0 note=77 velocity=0 time=0
note_on channel=0 note=82 velocity=89 time=22
note_on channel=0 note=74 velocity=89 time=0
note_on channel=0 note=77 velocity=89 time=0
note_on channel=0 note=70 velocity=89 time=0
note_on channel=0 note=69 velocity=0 time=1
note_on channel=0 note=81 velocity=0 time=0
note_on channel=0 note=69 velocity=83 time=30
note_on channel=0 note=81 velocity=83 time=0
note_on channel=0 note=77 velocity=0 time=7
note_on channel=0 note=82 velocity=0 time=0
note_on channel=0 note=74 velocity=0 time=0
note_on channel=0 note=70 velocity=0 time=0
note_on channel=0 note=70 velocity=84 time=22
note_on channel=0 note=77 velocity=84 time=0
note_on channel=0 note=82 velocity=84 time=0
note_on channel=0 note=74 velocity=84 time=0
note_on channel=0 note=81 velocity=0 time=1
note_on channel=0 note=69 velocity=0 time=0
note_on channel=0 note=69 velocity=77 time=30
note_on channel=0 note=81 velocity=77 time=0
note_on channel=0 note=82 velocity=0 time=7
note_on channel=0 note=70 velocity=0 time=0
note_on channel=0 note=77 velocity=0 time=0
note_on channel=0 note=74 velocity=0 time=0
note_on channel=0 note=81 velocity=0 time=18
note_on channel=0 note=69 velocity=0 time=0
note_on channel=0 note=70 velocity=96 time=4
note_on channel=0 note=77 velocity=96 time=0
note_on channel=0 note=74 velocity=96 time=0
note_on channel=0 note=82 velocity=96 time=0
note_on channel=0 note=72 velocity=91 time=27
note_on channel=0 note=84 velocity=91 time=0
control_change channel=0 control=10 value=82 time=2
note_on channel=0 note=74 velocity=0 time=6
note_on channel=0 note=77 velocity=0 time=0
note_on channel=0 note=82 velocity=0 time=7
note_on channel=0 note=70 velocity=0 time=0
note_on channel=0 note=84 velocity=0 time=35
note_on channel=0 note=72 velocity=0 time=0
control_change channel=0 control=10 value=78 time=12
note_on channel=0 note=77 velocity=85 time=2
note_on channel=0 note=70 velocity=85 time=0
note_on channel=0 note=82 velocity=85 time=0
note_on channel=0 note=74 velocity=85 time=0
note_on channel=0 note=74 velocity=0 time=55
note_on channel=0 note=77 velocity=0 time=0
note_on channel=0 note=70 velocity=0 time=0
note_on channel=0 note=82 velocity=0 time=0
control_change channel=0 control=10 value=74 time=68
note_on channel=0 note=72 velocity=83 time=6
note_on channel=0 note=74 velocity=88 time=10
control_change channel=0 control=10 value=78 time=9
note_on channel=0 note=75 velocity=95 time=1
note_on channel=0 note=72 velocity=0 time=4
note_on channel=0 note=74 velocity=0 time=10
note_on channel=0 note=75 velocity=0 time=36
note_on channel=0 note=82 velocity=86 time=10
note_on channel=0 note=79 velocity=86 time=0
note_on channel=0 note=75 velocity=86 time=0
note_on channel=0 note=70 velocity=86 time=0
note_on channel=0 note=81 velocity=80 time=31
note_on channel=0 note=69 velocity=80 time=0
note_on channel=0 note=70 velocity=0 time=7
note_on channel=0 note=75 velocity=0 time=0
note_on channel=0 note=82 velocity=0 time=0
note_on channel=0 note=79 velocity=0 time=0
note_on channel=0 note=82 velocity=86 time=22
note_on channel=0 note=70 velocity=86 time=0
note_on channel=0 note=75 velocity=86 time=0
note_on channel=0 note=79 velocity=86 time=0
note_on channel=0 note=69 velocity=0 time=1
note_on channel=0 note=81 velocity=0 time=0
note_on channel=0 note=69 velocity=81 time=30
note_on channel=0 note=81 velocity=81 time=0
note_on channel=0 note=75 velocity=0 time=7
note_on channel=0 note=82 velocity=0 time=0
note_on channel=0 note=70 velocity=0 time=0
note_on channel=0 note=79 velocity=0 time=0
note_on channel=0 note=75 velocity=87 time=22
note_on channel=0 note=79 velocity=87 time=0
note_on channel=0 note=70 velocity=87 time=0
note_on channel=0 note=82 velocity=87 time=0
note_on channel=0 note=81 velocity=0 time=1
note_on channel=0 note=69 velocity=0 time=0
note_on channel=0 note=69 velocity=78 time=30
note_on channel=0 note=81 velocity=78 time=0
note_on channel=0 note=70 velocity=0 time=7
note_on channel=0 note=75 velocity=0 time=0
note_on channel=0 note=79 velocity=0 time=0
note_on channel=0 note=82 velocity=0 time=0
note_on channel=0 note=81 velocity=0 time=18
note_on channel=0 note=69 velocity=0 time=0
note_on channel=0 note=75 velocity=92 time=4
note_on channel=0 note=70 velocity=92 time=0
note_on channel=0 note=79 velocity=92 time=0
note_on channel=0 note=82 velocity=92 time=0
note_on channel=0 note=84 velocity=88 time=27
note_on channel=0 note=72 velocity=88 time=0
control_change channel=0 control=10 value=82 time=2
note_on channel=0 note=82 velocity=0 time=6
note_on channel=0 note=79 velocity=0 time=0
note_on channel=0 note=75 velocity=0 time=0
note_on channel=0 note=70 velocity=0 time=0
note_on channel=0 note=72 velocity=0 time=42
note_on channel=0 note=84 velocity=0 time=0
note_on channel=0 note=82 velocity=83 time=14
note_on channel=0 note=70 velocity=83 time=0
note_on channel=0 note=75 velocity=83 time=0
note_on channel=0 note=79 velocity=83 time=0
note_on channel=0 note=79 velocity=0 time=106
note_on channel=0 note=82 velocity=0 time=0
note_on channel=0 note=70 velocity=0 time=0
note_on channel=0 note=75 velocity=0 time=0
note_on channel=0 note=80 velocity=78 time=23
control_change channel=0 control=10 value=86 time=4
note_on channel=0 note=81 velocity=87 time=6
note_on channel=0 note=82 velocity=97 time=10
note_on channel=0 note=80 velocity=0 time=4
note_on channel=0 note=81 velocity=0 time=10
note_on channel=0 note=82 velocity=0 time=36
control_change channel=0 control=10 value=78 time=9
note_on channel=0 note=82 velocity=84 time=1
note_on channel=0 note=70 velocity=84 time=0
note_on channel=0 note=73 velocity=84 time=0
note_on channel=0 note=69 velocity=80 time=31
note_on channel=0 note=81 velocity=80 time=0
note_on channel=0 note=73 velocity=0 time=7
note_on channel=0 note=82 velocity=0 time=0
note_on channel=0 note=70 velocity=0 time=0
note_on channel=0 note=73 velocity=88 time=22
note_on channel=0 note=82 velocity=88 time=0
note_on channel=0 note=70 velocity=88 time=0
note_on channel=0 note=69 velocity=0 time=1
note_on channel=0 note=81 velocity=0 time=0
note_on channel=0 note=73 velocity=0 time=24
control_change channel=0 control=10 value=82 time=4
note_on channel=0 note=76 velocity=93 time=2
note_on channel=0 note=73 velocity=93 time=0
note_on channel=0 note=85 velocity=93 time=0
note_on channel=0 note=82 velocity=0 time=7
note_on channel=0 note=70 velocity=0 time=0
note_on channel=0 note=83 velocity=86 time=22
note_on channel=0 note=71 velocity=86 time=0
note_on channel=0 note=75 velocity=86 time=0
note_on channel=0 note=73 velocity=0 time=1
note_on channel=0 note=85 velocity=0 time=0
note_on channel=0 note=76 velocity=0 time=0
control_change channel=0 control=10 value=78 time=28
note_on channel=0 note=82 velocity=81 time=2
note_on channel=0 note=73 velocity=81 time=0
note_on channel=0 note=70 velocity=81 time=0
note_on channel=0 note=83 velocity=0 time=7
note_on channel=0 note=75 velocity=0 time=0
note_on channel=0 note=71 velocity=0 time=0
note_on channel=0 note=82 velocity=0 time=18
note_on channel=0 note=73 velocity=0 time=0
note_on channel=0 note=70 velocity=0 time=0
note_on channel=0 note=82 velocity=86 time=4
note_on channel=0 note=70 velocity=86 time=0
note_on channel=0 note=73 velocity=86 time=0
note_on channel=0 note=71 velocity=82 time=31
note_on channel=0 note=68 velocity=82 time=0
note_on channel=0 note=80 velocity=82 time=0
note_on channel=0 note=73 velocity=0 time=4
note_on channel=0 note=82 velocity=0 time=0
note_on channel=0 note=70 velocity=0 time=0
note_on channel=0 note=71 velocity=0 time=46
note_on channel=0 note=68 velocity=0 time=0
note_on channel=0 note=80 velocity=0 time=0
note_on channel=0 note=68 velocity=86 time=10
note_on channel=0 note=80 velocity=86 time=0
note_on channel=0 note=75 velocity=86 time=0
note_on channel=0 note=71 velocity=86 time=0
note_on channel=0 note=71 velocity=0 time=106
note_on channel=0 note=68 velocity=0 time=0
note_on channel=0 note=80 velocity=0 time=0
note_on channel=0 note=75 velocity=0 time=0
control_change channel=0 control=10 value=62 time=17
note_on channel=0 note=63 velocity=79 time=6
note_on channel=0 note=65 velocity=87 time=10
control_change channel=0 control=10 value=66 time=9
note_on channel=0 note=66 velocity=96 time=1
note_on channel=0 note=63 velocity=0 time=4
note_on channel=0 note=65 velocity=0 time=10
note_on channel=0 note=66 velocity=0 time=36
control_change channel=0 control=10 value=75 time=9
note_on channel=0 note=66 velocity=84 time=1
note_on channel=0 note=78 velocity=84 time=0
note_on channel=0 note=75 velocity=84 time=0
note_on channel=0 note=80 velocity=78 time=31
note_on channel=0 note=68 velocity=78 time=0
note_on channel=0 note=75 velocity=0 time=7
note_on channel=0 note=66 velocity=0 time=0
note_on channel=0 note=78 velocity=0 time=0
note_on channel=0 note=69 velocity=86 time=22
note_on channel=0 note=81 velocity=86 time=0
note_on channel=0 note=75 velocity=86 time=0
note_on channel=0 note=77 velocity=86 time=0
note_on channel=0 note=80 velocity=0 time=1
note_on channel=0 note=68 velocity=0 time=0
note_on channel=0 note=80 velocity=76 time=30
note_on channel=0 note=68 velocity=76 time=0
note_on channel=0 note=75 velocity=0 time=7
note_on channel=0 note=69 velocity=0 time=0
note_on channel=0 note=81 velocity=0 time=0
note_on channel=0 note=77 velocity=0 time=0
note_on channel=0 note=69 velocity=84 time=20
note_on channel=0 note=81 velocity=84 time=0
note_on channel=0 note=75 velocity=84 time=0
note_on channel=0 note=77 velocity=84 time=0
note_on channel=0 note=68 velocity=0 time=3
note_on channel=0 note=80 velocity=0 time=0
note_on channel=0 note=75 velocity=0 time=47
note_on channel=0 note=81 velocity=0 time=0
note_on channel=0 note=77 velocity=0 time=0
note_on channel=0 note=69 velocity=0 time=0
note_on channel=0 note=77 velocity=93 time=12
note_on channel=0 note=82 velocity=93 time=0
note_on channel=0 note=70 velocity=93 time=0
note_on channel=0 note=74 velocity=93 time=0
note_on channel=0 note=74 velocity=0 time=50
note_on channel=0 note=77 velocity=0 time=0
note_on channel=0 note=82 velocity=0 time=0
note_on channel=0 note=70 velocity=0 time=0
control_change channel=0 control=10 value=79 time=9
note_on channel=0 note=82 velocity=84 time=1
note_on channel=0 note=70 velocity=84 time=0
note_on channel=0 note=70 velocity=0 time=25
note_on channel=0 note=82 velocity=0 time=0
note_on channel=0 note=70 velocity=81 time=6
note_on channel=0 note=82 velocity=81 time=0
note_on channel=0 note=82 velocity=0 time=23
note_on channel=0 note=70 velocity=0 time=0
note_on channel=0 note=82 velocity=76 time=6
note_on channel=0 note=70 velocity=76 time=0
note_on channel=0 note=70 velocity=0 time=50
note_on channel=0 note=82 velocity=0 time=0
control_change channel=0 control=10 value=74 time=44
note_on channel=0 note=72 velocity=82 time=6
note_on channel=0 note=73 velocity=88 time=10
note_on channel=0 note=74 velocity=92 time=10
note_on channel=0 note=72 velocity=0 time=1
note_on channel=0 note=73 velocity=0 time=10
note_on channel=0 note=74 velocity=0 time=39
control_change channel=0 control=10 value=78 time=9
note_on channel=0 note=70 velocity=84 time=1
note_on channel=0 note=82 velocity=84 time=0
note_on channel=0 note=74 velocity=84 time=0
note_on channel=0 note=77 velocity=84 time=0
note_on channel=0 note=81 velocity=78 time=31
note_on channel=0 note=69 velocity=78 time=0
note_on channel=0 note=77 velocity=0 time=7
note_on channel=0 note=74 velocity=0 time=0
note_on channel=0 note=70 velocity=0 time=0
note_on channel=0 note=82 velocity=0 time=0
note_on channel=0 note=82 velocity=87 time=22
note_on channel=0 note=74 velocity=87 time=0
note_on channel=0 note=77 velocity=87 time=0
note_on channel=0 note=70 velocity=87 time=0
note_on channel=0 note=69 velocity=0 time=1
note_on channel=0 note=81 velocity=0 time=0
note_on channel=0 note=69 velocity=82 time=30
note_on channel=0 note=81 velocity=82 time=0
note_on channel=0 note=77 velocity=0 time=7
note_on channel=0 note=82 velocity=0 time=0
note_on channel=0 note=74 velocity=0 time=0
note_on channel=0 note=70 velocity=0 time=0
note_on channel=0 note=70 velocity=83 time=22
note_on channel=0 note=77 velocity=83 time=0
note_on channel=0 note=82 velocity=83 time=0
note_on channel=0 note=74 velocity=83 time=0
note_on channel=0 note=81 velocity=0 time=1
note_on channel=0 note=69 velocity=0 time=0
note_on channel=0 note=69 velocity=75 time=30
note_on channel=0 note=81 velocity=75 time=0
note_on channel=0 note=82 velocity=0 time=7
note_on channel=0 note=70 velocity=0 time=0
note_on channel=0 note=77 velocity=0 time=0
note_on channel=0 note=74 velocity=0 time=0
note_on channel=0 note=81 velocity=0 time=18
note_on channel=0 note=69 velocity=0 time=0
note_on channel=0 note=70 velocity=93 time=4
note_on channel=0 note=77 velocity=93 time=0
note_on channel=0 note=74 velocity=93 time=0
note_on channel=0 note=82 velocity=93 time=0
control_change channel=0 control=10 value=82 time=29
note_on channel=0 note=84 velocity=88 time=0
note_on channel=0 note=72 velocity=88 time=0
note_on channel=0 note=74 velocity=0 time=6
note_on channel=0 note=77 velocity=0 time=0
note_on channel=0 note=82 velocity=0 time=7
note_on channel=0 note=70 velocity=0 time=0
note_on channel=0 note=72 velocity=0 time=37
note_on channel=0 note=84 velocity=0 time=0
control_change channel=0 control=10 value=78 time=10
note_on channel=0 note=77 velocity=84 time=2
note_on channel=0 note=70 velocity=84 time=0
note_on channel=0 note=82 velocity=84 time=0
note_on channel=0 note=74 velocity=84 time=0
note_on channel=0 note=74 velocity=0 time=55
note_on channel=0 note=77 velocity=0 time=0
note_on channel=0 note=70 velocity=0 time=0
note_on channel=0 note=82 velocity=0 time=0
control_change channel=0 control=10 value=74 time=68
note_on channel=0 note=72 velocity=81 time=6
note_on channel=0 note=74 velocity=86 time=10
control_change channel=0 control=10 value=78 time=9
note_on channel=0 note=75 velocity=92 time=1
note_on channel=0 note=72 velocity=0 time=4
note_on channel=0 note=74 velocity=0 time=10
note_on channel=0 note=75 velocity=0 time=36
note_on channel=0 note=82 velocity=84 time=10
note_on channel=0 note=79 velocity=84 time=0
note_on channel=0 note=75 velocity=84 time=0
note_on channel=0 note=70 velocity=84 time=0
note_on channel=0 note=81 velocity=79 time=31
note_on channel=0 note=69 velocity=79 time=0
note_on channel=0 note=70 velocity=0 time=7
note_on channel=0 note=75 velocity=0 time=0
note_on channel=0 note=82 velocity=0 time=0
note_on channel=0 note=79 velocity=0 time=0
note_on channel=0 note=82 velocity=84 time=22
note_on channel=0 note=70 velocity=84 time=0
note_on channel=0 note=75 velocity=84 time=0
note_on channel=0 note=79 velocity=84 time=0
note_on channel=0 note=69 velocity=0 time=1
note_on channel=0 note=81 velocity=0 time=0
note_on channel=0 note=69 velocity=81 time=30
note_on channel=0 note=81 velocity=81 time=0
note_on channel=0 note=75 velocity=0 time=7
note_on channel=0 note=82 velocity=0 time=0
note_on channel=0 note=70 velocity=0 time=0
note_on channel=0 note=79 velocity=0 time=0
note_on channel=0 note=70 velocity=86 time=22
note_on channel=0 note=79 velocity=86 time=0
note_on channel=0 note=75 velocity=86 time=0
note_on channel=0 note=82 velocity=86 time=0
note_on channel=0 note=81 velocity=0 time=1
note_on channel=0 note=69 velocity=0 time=0
note_on channel=0 note=69 velocity=76 time=30
note_on channel=0 note=81 velocity=76 time=0
note_on channel=0 note=75 velocity=0 time=7
note_on channel=0 note=70 velocity=0 time=0
note_on channel=0 note=79 velocity=0 time=0
note_on channel=0 note=82 velocity=0 time=0
note_on channel=0 note=81 velocity=0 time=18
note_on channel=0 note=69 velocity=0 time=0
note_on channel=0 note=79 velocity=92 time=4
note_on channel=0 note=70 velocity=92 time=0
note_on channel=0 note=75 velocity=92 time=0
note_on channel=0 note=82 velocity=92 time=0
control_change channel=0 control=10 value=82 time=29
note_on channel=0 note=84 velocity=84 time=0
note_on channel=0 note=72 velocity=84 time=0
note_on channel=0 note=82 velocity=0 time=6
note_on channel=0 note=75 velocity=0 time=0
note_on channel=0 note=79 velocity=0 time=0
note_on channel=0 note=70 velocity=0 time=0
note_on channel=0 note=72 velocity=0 time=44
note_on channel=0 note=84 velocity=0 time=0
note_on channel=0 note=79 velocity=83 time=12
note_on channel=0 note=75 velocity=83 time=0
note_on channel=0 note=70 velocity=83 time=0
note_on channel=0 note=82 velocity=83 time=0
note_on channel=0 note=82 velocity=0 time=82
note_on channel=0 note=79 velocity=0 time=0
note_on channel=0 note=75 velocity=0 time=0
note_on channel=0 note=70 velocity=0 time=0
control_change channel=0 control=10 value=61 time=6
note_on channel=0 note=68 velocity=87 time=1
note_on channel=0 note=58 velocity=87 time=0
note_on channel=0 note=62 velocity=87 time=0
note_on channel=0 note=62 velocity=0 time=50
note_on channel=0 note=58 velocity=0 time=0
note_on channel=0 note=68 velocity=0 time=0
note_on channel=0 note=58 velocity=73 time=10
note_on channel=0 note=63 velocity=73 time=0
note_on channel=0 note=67 velocity=73 time=0
note_on channel=0 note=67 velocity=0 time=25
note_on channel=0 note=63 velocity=0 time=0
note_on channel=0 note=58 velocity=0 time=0
note_on channel=0 note=67 velocity=69 time=4
note_on channel=0 note=58 velocity=69 time=0
note_on channel=0 note=63 velocity=69 time=0
note_on channel=0 note=63 velocity=0 time=50
note_on channel=0 note=58 velocity=0 time=0
note_on channel=0 note=67 velocity=0 time=0
note_on channel=0 note=59 velocity=75 time=12
note_on channel=0 note=65 velocity=75 time=0
note_on channel=0 note=67 velocity=75 time=0
note_on channel=0 note=67 velocity=0 time=80
note_on channel=0 note=65 velocity=0 time=0
note_on channel=0 note=59 velocity=0 time=0
note_on channel=0 note=65 velocity=72 time=9
note_on channel=0 note=58 velocity=72 time=0
note_on channel=0 note=67 velocity=72 time=0
note_on channel=0 note=67 velocity=0 time=50
note_on channel=0 note=58 velocity=0 time=0
note_on channel=0 note=65 velocity=0 time=0
note_on channel=0 note=58 velocity=77 time=10
note_on channel=0 note=67 velocity=77 time=0
note_on channel=0 note=64 velocity=77 time=0
note_on channel=0 note=64 velocity=0 time=50
note_on channel=0 note=67 velocity=0 time=0
note_on channel=0 note=58 velocity=0 time=0
note_on channel=0 note=64 velocity=70 time=10
note_on channel=0 note=67 velocity=70 time=0
note_on channel=0 note=58 velocity=70 time=0
note_on channel=0 note=58 velocity=0 time=50
note_on channel=0 note=67 velocity=0 time=0
note_on channel=0 note=64 velocity=0 time=0
note_on channel=0 note=67 velocity=77 time=10
note_on channel=0 note=57 velocity=77 time=0
note_on channel=0 note=63 velocity=77 time=0
control_change channel=0 control=10 value=65 time=29
note_on channel=0 note=65 velocity=76 time=0
note_on channel=0 note=63 velocity=0 time=5
note_on channel=0 note=67 velocity=0 time=0
note_on channel=0 note=57 velocity=0 time=0
note_on channel=0 note=65 velocity=0 time=71
control_change channel=0 control=10 value=60 time=14
note_on channel=0 note=56 velocity=76 time=1
note_on channel=0 note=65 velocity=76 time=0
note_on channel=0 note=63 velocity=76 time=0
note_on channel=0 note=63 velocity=0 time=25
note_on channel=0 note=65 velocity=0 time=0
note_on channel=0 note=56 velocity=0 time=0
note_on channel=0 note=56 velocity=70 time=4
note_on channel=0 note=65 velocity=70 time=0
note_on channel=0 note=63 velocity=70 time=0
note_on channel=0 note=63 velocity=0 time=50
note_on channel=0 note=65 velocity=0 time=0
note_on channel=0 note=56 velocity=0 time=0
note_on channel=0 note=56 velocity=77 time=12
note_on channel=0 note=65 velocity=77 time=0
note_on channel=0 note=62 velocity=77 time=0
note_on channel=0 note=62 velocity=0 time=80
note_on channel=0 note=65 velocity=0 time=0
note_on channel=0 note=56 velocity=0 time=0
control_change channel=0 control=10 value=72 time=8
note_on channel=0 note=70 velocity=80 time=1
note_on channel=0 note=70 velocity=0 time=50
control_change channel=0 control=10 value=56 time=9
note_on channel=0 note=58 velocity=77 time=1
note_on channel=0 note=63 velocity=77 time=0
note_on channel=0 note=55 velocity=77 time=0
note_on channel=0 note=55 velocity=0 time=50
note_on channel=0 note=63 velocity=0 time=0
note_on channel=0 note=58 velocity=0 time=0
control_change channel=0 control=10 value=72 time=9
note_on channel=0 note=70 velocity=100 time=1
note_on channel=0 note=70 velocity=0 time=25
note_on channel=0 note=70 velocity=94 time=6
note_on channel=0 note=70 velocity=0 time=20
note_on channel=0 note=70 velocity=98 time=9
note_on channel=0 note=70 velocity=0 time=50
note_on channel=0 note=72 velocity=97 time=54
note_on channel=0 note=73 velocity=101 time=8
control_change channel=0 control=10 value=77 time=7
note_on channel=0 note=74 velocity=108 time=1
note_on channel=0 note=72 velocity=0 time=11
note_on channel=0 note=73 velocity=0 time=4
note_on channel=0 note=74 velocity=0 time=35
note_on channel=0 note=70 velocity=98 time=10
note_on channel=0 note=82 velocity=98 time=0
note_on channel=0 note=77 velocity=98 time=0
note_on channel=0 note=74 velocity=98 time=0
note_on channel=0 note=81 velocity=92 time=31
note_on channel=0 note=69 velocity=92 time=0
note_on channel=0 note=74 velocity=0 time=6
note_on channel=0 note=77 velocity=0 time=0
note_on channel=0 note=70 velocity=0 time=0
note_on channel=0 note=82 velocity=0 time=0
note_on channel=0 note=82 velocity=104 time=23
note_on channel=0 note=70 velocity=104 time=0
note_on channel=0 note=74 velocity=104 time=0
note_on channel=0 note=77 velocity=104 time=0
note_on channel=0 note=69 velocity=0 time=1
note_on channel=0 note=81 velocity=0 time=0
note_on channel=0 note=69 velocity=96 time=30
note_on channel=0 note=81 velocity=96 time=0
note_on channel=0 note=74 velocity=0 time=6
note_on channel=0 note=82 velocity=0 time=0
note_on channel=0 note=70 velocity=0 time=0
note_on channel=0 note=77 velocity=0 time=0
note_on channel=0 note=70 velocity=97 time=23
note_on channel=0 note=82 velocity=97 time=0
note_on channel=0 note=77 velocity=97 time=0
note_on channel=0 note=74 velocity=97 time=0
note_on channel=0 note=81 velocity=0 time=1
note_on channel=0 note=69 velocity=0 time=0
note_on channel=0 note=69 velocity=90 time=30
note_on channel=0 note=81 velocity=90 time=0
note_on channel=0 note=77 velocity=0 time=6
note_on channel=0 note=70 velocity=0 time=0
note_on channel=0 note=82 velocity=0 time=0
note_on channel=0 note=74 velocity=0 time=0
note_on channel=0 note=81 velocity=0 time=19
note_on channel=0 note=69 velocity=0 time=0
note_on channel=0 note=70 velocity=103 time=4
note_on channel=0 note=82 velocity=103 time=0
note_on channel=0 note=77 velocity=103 time=0
note_on channel=0 note=74 velocity=103 time=0
control_change channel=0 control=10 value=82 time=29
note_on channel=0 note=84 velocity=93 time=0
note_on channel=0 note=72 velocity=93 time=0
note_on channel=0 note=74 velocity=0 time=6
note_on channel=0 note=77 velocity=0 time=0
note_on channel=0 note=70 velocity=0 time=7
note_on channel=0 note=82 velocity=0 time=0
note_on channel=0 note=72 velocity=0 time=37
note_on channel=0 note=84 velocity=0 time=0
control_change channel=0 control=10 value=78 time=10
note_on channel=0 note=70 velocity=96 time=2
note_on channel=0 note=77 velocity=96 time=0
note_on channel=0 note=74 velocity=96 time=0
note_on channel=0 note=82 velocity=96 time=0
note_on channel=0 note=82 velocity=0 time=55
note_on channel=0 note=70 velocity=0 time=0
note_on channel=0 note=77 velocity=0 time=0
note_on channel=0 note=74 velocity=0 time=0
control_change channel=0 control=10 value=74 time=68
note_on channel=0 note=72 velocity=96 time=10
note_on channel=0 note=74 velocity=99 time=8
control_change channel=0 control=10 value=78 time=7
note_on channel=0 note=75 velocity=107 time=1
note_on channel=0 note=72 velocity=0 time=11
note_on channel=0 note=74 velocity=0 time=8
note_on channel=0 note=75 velocity=0 time=31
note_on channel=0 note=82 velocity=97 time=10
note_on channel=0 note=70 velocity=97 time=0
note_on channel=0 note=75 velocity=97 time=0
note_on channel=0 note=79 velocity=97 time=0
note_on channel=0 note=81 velocity=92 time=31
note_on channel=0 note=69 velocity=92 time=0
note_on channel=0 note=79 velocity=0 time=6
note_on channel=0 note=75 velocity=0 time=0
note_on channel=0 note=82 velocity=0 time=0
note_on channel=0 note=70 velocity=0 time=0
note_on channel=0 note=75 velocity=97 time=23
note_on channel=0 note=70 velocity=97 time=0
note_on channel=0 note=82 velocity=97 time=0
note_on channel=0 note=79 velocity=97 time=0
note_on channel=0 note=69 velocity=0 time=1
note_on channel=0 note=81 velocity=0 time=0
note_on channel=0 note=69 velocity=94 time=30
note_on channel=0 note=81 velocity=94 time=0
note_on channel=0 note=82 velocity=0 time=6
note_on channel=0 note=75 velocity=0 time=0
note_on channel=0 note=70 velocity=0 time=0
note_on channel=0 note=79 velocity=0 time=0
note_on channel=0 note=79 velocity=99 time=23
note_on channel=0 note=82 velocity=99 time=0
note_on channel=0 note=70 velocity=99 time=0
note_on channel=0 note=75 velocity=99 time=0
note_on channel=0 note=81 velocity=0 time=1
note_on channel=0 note=69 velocity=0 time=0
note_on channel=0 note=81 velocity=90 time=30
note_on channel=0 note=69 velocity=90 time=0
note_on channel=0 note=70 velocity=0 time=6
note_on channel=0 note=79 velocity=0 time=0
note_on channel=0 note=82 velocity=0 time=0
note_on channel=0 note=75 velocity=0 time=0
note_on channel=0 note=69 velocity=0 time=19
note_on channel=0 note=81 velocity=0 time=0
note_on channel=0 note=70 velocity=102 time=4
note_on channel=0 note=79 velocity=102 time=0
note_on channel=0 note=82 velocity=102 time=0
note_on channel=0 note=75 velocity=102 time=0
control_change channel=0 control=10 value=82 time=29
note_on channel=0 note=84 velocity=92 time=0
note_on channel=0 note=72 velocity=92 time=0
note_on channel=0 note=75 velocity=0 time=6
note_on channel=0 note=82 velocity=0 time=0
note_on channel=0 note=70 velocity=0 time=0
note_on channel=0 note=79 velocity=0 time=0
note_on channel=0 note=72 velocity=0 time=44
note_on channel=0 note=84 velocity=0 time=0
note_on channel=0 note=70 velocity=95 time=12
note_on channel=0 note=79 velocity=95 time=0
note_on channel=0 note=82 velocity=95 time=0
note_on channel=0 note=75 velocity=95 time=0
note_on channel=0 note=75 velocity=0 time=106
note_on channel=0 note=70 velocity=0 time=0
note_on channel=0 note=79 velocity=0 time=0
note_on channel=0 note=82 velocity=0 time=0
control_change channel=0 control=10 value=86 time=27
note_on channel=0 note=80 velocity=89 time=0
note_on channel=0 note=81 velocity=98 time=8
note_on channel=0 note=82 velocity=112 time=8
note_on channel=0 note=80 velocity=0 time=11
note_on channel=0 note=81 velocity=0 time=8
note_on channel=0 note=82 velocity=0 time=31
control_change channel=0 control=10 value=78 time=9
note_on channel=0 note=73 velocity=96 time=1
note_on channel=0 note=82 velocity=96 time=0
note_on channel=0 note=70 velocity=96 time=0
note_on channel=0 note=81 velocity=92 time=31
note_on channel=0 note=69 velocity=92 time=0
note_on channel=0 note=70 velocity=0 time=6
note_on channel=0 note=73 velocity=0 time=0
note_on channel=0 note=82 velocity=0 time=0
note_on channel=0 note=70 velocity=101 time=23
note_on channel=0 note=82 velocity=101 time=0
note_on channel=0 note=73 velocity=101 time=0
note_on channel=0 note=81 velocity=0 time=1
note_on channel=0 note=69 velocity=0 time=0
note_on channel=0 note=73 velocity=0 time=24
control_change channel=0 control=10 value=82 time=4
note_on channel=0 note=85 velocity=105 time=2
note_on channel=0 note=73 velocity=105 time=0
note_on channel=0 note=76 velocity=105 time=0
note_on channel=0 note=70 velocity=0 time=6
note_on channel=0 note=82 velocity=0 time=0
note_on channel=0 note=75 velocity=96 time=23
note_on channel=0 note=71 velocity=96 time=0
note_on channel=0 note=83 velocity=96 time=0
note_on channel=0 note=73 velocity=0 time=1
note_on channel=0 note=76 velocity=0 time=0
note_on channel=0 note=85 velocity=0 time=0
control_change channel=0 control=10 value=78 time=28
note_on channel=0 note=70 velocity=93 time=2
note_on channel=0 note=82 velocity=93 time=0
note_on channel=0 note=73 velocity=93 time=0
note_on channel=0 note=75 velocity=0 time=6
note_on channel=0 note=83 velocity=0 time=0
note_on channel=0 note=71 velocity=0 time=0
note_on channel=0 note=70 velocity=0 time=19
note_on channel=0 note=82 velocity=0 time=0
note_on channel=0 note=73 velocity=0 time=0
note_on channel=0 note=70 velocity=96 time=4
note_on channel=0 note=73 velocity=96 time=0
note_on channel=0 note=82 velocity=96 time=0
note_on channel=0 note=80 velocity=94 time=29
note_on channel=0 note=71 velocity=94 time=0
note_on channel=0 note=68 velocity=94 time=0
note_on channel=0 note=82 velocity=0 time=6
note_on channel=0 note=70 velocity=0 time=0
note_on channel=0 note=73 velocity=0 time=0
note_on channel=0 note=80 velocity=0 time=44
note_on channel=0 note=71 velocity=0 time=0
note_on channel=0 note=68 velocity=0 time=0
note_on channel=0 note=80 velocity=96 time=12
note_on channel=0 note=71 velocity=96 time=0
note_on channel=0 note=68 velocity=96 time=0
note_on channel=0 note=75 velocity=96 time=0
note_on channel=0 note=75 velocity=0 time=106
note_on channel=0 note=80 velocity=0 time=0
note_on channel=0 note=71 velocity=0 time=0
note_on channel=0 note=68 velocity=0 time=0
control_change channel=0 control=10 value=62 time=17
note_on channel=0 note=63 velocity=90 time=10
note_on channel=0 note=65 velocity=98 time=8
control_change channel=0 control=10 value=66 time=7
note_on channel=0 note=66 velocity=107 time=1
note_on channel=0 note=63 velocity=0 time=11
note_on channel=0 note=65 velocity=0 time=8
note_on channel=0 note=66 velocity=0 time=31
control_change channel=0 control=10 value=75 time=9
note_on channel=0 note=78 velocity=95 time=1
note_on channel=0 note=66 velocity=95 time=0
note_on channel=0 note=75 velocity=95 time=0
note_on channel=0 note=80 velocity=87 time=31
note_on channel=0 note=68 velocity=87 time=0
note_on channel=0 note=75 velocity=0 time=6
note_on channel=0 note=78 velocity=0 time=0
note_on channel=0 note=66 velocity=0 time=0
note_on channel=0 note=69 velocity=96 time=23
note_on channel=0 note=75 velocity=96 time=0
note_on channel=0 note=77 velocity=96 time=0
note_on channel=0 note=81 velocity=96 time=0
note_on channel=0 note=80 velocity=0 time=1
note_on channel=0 note=68 velocity=0 time=0
note_on channel=0 note=80 velocity=86 time=30
note_on channel=0 note=68 velocity=86 time=0
note_on channel=0 note=77 velocity=0 time=6
note_on channel=0 note=69 velocity=0 time=0
note_on channel=0 note=75 velocity=0 time=0
note_on channel=0 note=81 velocity=0 time=0
note_on channel=0 note=69 velocity=95 time=22
note_on channel=0 note=75 velocity=95 time=0
note_on channel=0 note=81 velocity=95 time=0
note_on channel=0 note=77 velocity=95 time=0
note_on channel=0 note=68 velocity=0 time=2
note_on channel=0 note=80 velocity=0 time=0
note_on channel=0 note=81 velocity=0 time=48
note_on channel=0 note=75 velocity=0 time=0
note_on channel=0 note=77 velocity=0 time=0
note_on channel=0 note=69 velocity=0 time=0
note_on channel=0 note=77 velocity=105 time=11
note_on channel=0 note=70 velocity=105 time=0
note_on channel=0 note=82 velocity=105 time=0
note_on channel=0 note=74 velocity=105 time=0
note_on channel=0 note=74 velocity=0 time=50
note_on channel=0 note=77 velocity=0 time=0
note_on channel=0 note=70 velocity=0 time=0
note_on channel=0 note=82 velocity=0 time=0
control_change channel=0 control=10 value=79 time=9
note_on channel=0 note=82 velocity=96 time=1
note_on channel=0 note=70 velocity=96 time=0
note_on channel=0 note=70 velocity=0 time=25
note_on channel=0 note=82 velocity=0 time=0
note_on channel=0 note=70 velocity=92 time=6
note_on channel=0 note=82 velocity=92 time=0
note_on channel=0 note=82 velocity=0 time=23
note_on channel=0 note=70 velocity=0 time=0
note_on channel=0 note=82 velocity=87 time=6
note_on channel=0 note=70 velocity=87 time=0
note_on channel=0 note=70 velocity=0 time=50
note_on channel=0 note=82 velocity=0 time=0
control_change channel=0 control=10 value=74 time=44
note_on channel=0 note=72 velocity=95 time=10
note_on channel=0 note=73 velocity=99 time=8
note_on channel=0 note=74 velocity=105 time=8
note_on channel=0 note=72 velocity=0 time=4
note_on channel=0 note=73 velocity=0 time=8
note_on channel=0 note=74 velocity=0 time=38
control_change channel=0 control=10 value=78 time=9
note_on channel=0 note=77 velocity=96 time=1
note_on channel=0 note=74 velocity=96 time=0
note_on channel=0 note=70 velocity=96 time=0
note_on channel=0 note=82 velocity=96 time=0
note_on channel=0 note=81 velocity=89 time=31
note_on channel=0 note=69 velocity=89 time=0
note_on channel=0 note=82 velocity=0 time=6
note_on channel=0 note=70 velocity=0 time=0
note_on channel=0 note=77 velocity=0 time=0
note_on channel=0 note=74 velocity=0 time=0
note_on channel=0 note=82 velocity=101 time=23
note_on channel=0 note=70 velocity=101 time=0
note_on channel=0 note=74 velocity=101 time=0
note_on channel=0 note=77 velocity=101 time=0
note_on channel=0 note=69 velocity=0 time=1
note_on channel=0 note=81 velocity=0 time=0
note_on channel=0 note=69 velocity=93 time=30
note_on channel=0 note=81 velocity=93 time=0
note_on channel=0 note=74 velocity=0 time=6
note_on channel=0 note=82 velocity=0 time=0
note_on channel=0 note=70 velocity=0 time=0
note_on channel=0 note=77 velocity=0 time=0
note_on channel=0 note=70 velocity=94 time=23
note_on channel=0 note=82 velocity=94 time=0
note_on channel=0 note=77 velocity=94 time=0
note_on channel=0 note=74 velocity=94 time=0
note_on channel=0 note=81 velocity=0 time=1
note_on channel=0 note=69 velocity=0 time=0
note_on channel=0 note=69 velocity=86 time=30
note_on channel=0 note=81 velocity=86 time=0
note_on channel=0 note=77 velocity=0 time=6
note_on channel=0 note=70 velocity=0 time=0
note_on channel=0 note=82 velocity=0 time=0
note_on channel=0 note=74 velocity=0 time=0
note_on channel=0 note=81 velocity=0 time=19
note_on channel=0 note=69 velocity=0 time=0
note_on channel=0 note=70 velocity=102 time=4
note_on channel=0 note=82 velocity=102 time=0
note_on channel=0 note=77 velocity=102 time=0
note_on channel=0 note=74 velocity=102 time=0
control_change channel=0 control=10 value=82 time=29
note_on channel=0 note=72 velocity=96 time=0
note_on channel=0 note=84 velocity=96 time=0
note_on channel=0 note=74 velocity=0 time=6
note_on channel=0 note=77 velocity=0 time=0
note_on channel=0 note=70 velocity=0 time=7
note_on channel=0 note=82 velocity=0 time=0
note_on channel=0 note=84 velocity=0 time=37
note_on channel=0 note=72 velocity=0 time=0
control_change channel=0 control=10 value=78 time=10
note_on channel=0 note=77 velocity=95 time=2
note_on channel=0 note=74 velocity=95 time=0
note_on channel=0 note=70 velocity=95 time=0
note_on channel=0 note=82 velocity=95 time=0
note_on channel=0 note=82 velocity=0 time=55
note_on channel=0 note=77 velocity=0 time=0
note_on channel=0 note=74 velocity=0 time=0
note_on channel=0 note=70 velocity=0 time=0
control_change channel=0 control=10 value=74 time=68
note_on channel=0 note=72 velocity=91 time=10
note_on channel=0 note=74 velocity=96 time=8
control_change channel=0 control=10 value=78 time=7
note_on channel=0 note=75 velocity=106 time=1
note_on channel=0 note=72 velocity=0 time=7
note_on channel=0 note=74 velocity=0 time=8
note_on channel=0 note=75 velocity=0 time=35
note_on channel=0 note=70 velocity=95 time=10
note_on channel=0 note=82 velocity=95 time=0
note_on channel=0 note=79 velocity=95 time=0
note_on channel=0 note=75 velocity=95 time=0
note_on channel=0 note=69 velocity=89 time=31
note_on channel=0 note=81 velocity=89 time=0
note_on channel=0 note=75 velocity=0 time=6
note_on channel=0 note=79 velocity=0 time=0
note_on channel=0 note=70 velocity=0 time=0
note_on channel=0 note=82 velocity=0 time=0
note_on channel=0 note=79 velocity=95 time=23
note_on channel=0 note=70 velocity=95 time=0
note_on channel=0 note=82 velocity=95 time=0
note_on channel=0 note=75 velocity=95 time=0
note_on channel=0 note=81 velocity=0 time=1
note_on channel=0 note=69 velocity=0 time=0
note_on channel=0 note=81 velocity=91 time=30
note_on channel=0 note=69 velocity=91 time=0
note_on channel=0 note=82 velocity=0 time=6
note_on channel=0 note=79 velocity=0 time=0
note_on channel=0 note=70 velocity=0 time=0
note_on channel=0 note=75 velocity=0 time=0
note_on channel=0 note=82 velocity=96 time=23
note_on channel=0 note=79 velocity=96 time=0
note_on channel=0 note=70 velocity=96 time=0
note_on channel=0 note=75 velocity=96 time=0
note_on channel=0 note=69 velocity=0 time=1
note_on channel=0 note=81 velocity=0 time=0
note_on channel=0 note=81 velocity=86 time=30
note_on channel=0 note=69 velocity=86 time=0
note_on channel=0 note=70 velocity=0 time=6
note_on channel=0 note=82 velocity=0 time=0
note_on channel=0 note=79 velocity=0 time=0
note_on channel=0 note=75 velocity=0 time=0
note_on channel=0 note=69 velocity=0 time=19
note_on channel=0 note=81 velocity=0 time=0
note_on channel=0 note=82 velocity=104 time=4
note_on channel=0 note=70 velocity=104 time=0
note_on channel=0 note=79 velocity=104 time=0
note_on channel=0 note=75 velocity=104 time=0
control_change channel=0 control=10 value=82 time=29
note_on channel=0 note=84 velocity=99 time=0
note_on channel=0 note=72 velocity=99 time=0
note_on channel=0 note=75 velocity=0 time=6
note_on channel=0 note=79 velocity=0 time=0
note_on channel=0 note=82 velocity=0 time=0
note_on channel=0 note=70 velocity=0 time=0
note_on channel=0 note=72 velocity=0 time=44
note_on channel=0 note=84 velocity=0 time=0
note_on channel=0 note=70 velocity=93 time=12
note_on channel=0 note=82 velocity=93 time=0
note_on channel=0 note=79 velocity=93 time=0
note_on channel=0 note=75 velocity=93 time=0
note_on channel=0 note=75 velocity=0 time=82
note_on channel=0 note=70 velocity=0 time=0
note_on channel=0 note=82 velocity=0 time=0
note_on channel=0 note=79 velocity=0 time=0
control_change channel=0 control=10 value=61 time=6
note_on channel=0 note=58 velocity=97 time=1
note_on channel=0 note=62 velocity=97 time=0
note_on channel=0 note=68 velocity=97 time=0
note_on channel=0 note=68 velocity=0 time=50
note_on channel=0 note=62 velocity=0 time=0
note_on channel=0 note=58 velocity=0 time=0
note_on channel=0 note=67 velocity=89 time=10
note_on channel=0 note=58 velocity=89 time=0
note_on channel=0 note=63 velocity=89 time=0
note_on channel=0 note=63 velocity=0 time=25
note_on channel=0 note=58 velocity=0 time=0
note_on channel=0 note=67 velocity=0 time=0
note_on channel=0 note=58 velocity=85 time=4
note_on channel=0 note=63 velocity=85 time=0
note_on channel=0 note=67 velocity=85 time=0
note_on channel=0 note=67 velocity=0 time=50
note_on channel=0 note=63 velocity=0 time=0
note_on channel=0 note=58 velocity=0 time=0
note_on channel=0 note=67 velocity=91 time=12
note_on channel=0 note=65 velocity=91 time=0
note_on channel=0 note=59 velocity=91 time=0
note_on channel=0 note=59 velocity=0 time=80
note_on channel=0 note=65 velocity=0 time=0
note_on channel=0 note=67 velocity=0 time=0
note_on channel=0 note=58 velocity=86 time=9
note_on channel=0 note=65 velocity=86 time=0
note_on channel=0 note=67 velocity=86 time=0
note_on channel=0 note=67 velocity=0 time=50
note_on channel=0 note=65 velocity=0 time=0
note_on channel=0 note=58 velocity=0 time=0
note_on channel=0 note=64 velocity=93 time=10
note_on channel=0 note=67 velocity=93 time=0
note_on channel=0 note=58 velocity=93 time=0
note_on channel=0 note=58 velocity=0 time=50
note_on channel=0 note=67 velocity=0 time=0
note_on channel=0 note=64 velocity=0 time=0
note_on channel=0 note=64 velocity=85 time=10
note_on channel=0 note=67 velocity=85 time=0
note_on channel=0 note=58 velocity=85 time=0
note_on channel=0 note=58 velocity=0 time=50
note_on channel=0 note=67 velocity=0 time=0
note_on channel=0 note=64 velocity=0 time=0
note_on channel=0 note=63 velocity=94 time=10
note_on channel=0 note=57 velocity=94 time=0
note_on channel=0 note=67 velocity=94 time=0
control_change channel=0 control=10 value=65 time=29
note_on channel=0 note=65 velocity=91 time=0
note_on channel=0 note=67 velocity=0 time=5
note_on channel=0 note=63 velocity=0 time=0
note_on channel=0 note=57 velocity=0 time=0
note_on channel=0 note=65 velocity=0 time=71
control_change channel=0 control=10 value=60 time=14
note_on channel=0 note=56 velocity=91 time=1
note_on channel=0 note=65 velocity=91 time=0
note_on channel=0 note=63 velocity=91 time=0
note_on channel=0 note=63 velocity=0 time=25
note_on channel=0 note=65 velocity=0 time=0
note_on channel=0 note=56 velocity=0 time=0
note_on channel=0 note=56 velocity=85 time=6
note_on channel=0 note=65 velocity=85 time=0
note_on channel=0 note=63 velocity=85 time=0
note_on channel=0 note=63 velocity=0 time=50
note_on channel=0 note=65 velocity=0 time=0
note_on channel=0 note=56 velocity=0 time=0
note_on channel=0 note=56 velocity=94 time=10
note_on channel=0 note=65 velocity=94 time=0
note_on channel=0 note=62 velocity=94 time=0
note_on channel=0 note=62 velocity=0 time=80
note_on channel=0 note=65 velocity=0 time=0
note_on channel=0 note=56 velocity=0 time=0
control_change channel=0 control=10 value=72 time=8
note_on channel=0 note=70 velocity=97 time=1
note_on channel=0 note=70 velocity=0 time=50
control_change channel=0 control=10 value=56 time=9
note_on channel=0 note=55 velocity=87 time=1
note_on channel=0 note=63 velocity=87 time=0
note_on channel=0 note=58 velocity=87 time=0
note_on channel=0 note=58 velocity=0 time=101
note_on channel=0 note=63 velocity=0 time=0
note_on channel=0 note=55 velocity=0 time=0
control_change channel=0 control=10 value=69 time=18
note_on channel=0 note=70 velocity=103 time=1
note_on channel=0 note=67 velocity=103 time=0
note_on channel=0 note=75 velocity=103 time=0
note_on channel=0 note=63 velocity=103 time=0
note_on channel=0 note=63 velocity=0 time=101
note_on channel=0 note=70 velocity=0 time=0
note_on channel=0 note=67 velocity=0 time=0
note_on channel=0 note=75 velocity=0 time=0
<meta message end_of_track time=0>
<meta message midi_port port=0 time=0>
<meta message track_name name='by Scott Joplin (1908)' time=0>
program_change channel=1 program=0 time=0
control_change channel=1 control=7 value=127 time=0
control_change channel=1 control=10 value=44 time=0
control_change channel=1 control=121 value=0 time=0
control_change channel=1 control=1 value=0 time=0
pitchwheel channel=1 pitch=0 time=37
control_change channel=1 control=64 value=0 time=1
aftertouch channel=1 value=0 time=1
control_change channel=1 control=74 value=73 time=1
control_change channel=1 control=71 value=70 time=1
control_change channel=1 control=10 value=52 time=198
note_on channel=1 note=55 velocity=79 time=1
note_on channel=1 note=54 velocity=75 time=31
note_on channel=1 note=55 velocity=0 time=4
note_on channel=1 note=53 velocity=79 time=25
note_on channel=1 note=54 velocity=0 time=1
control_change channel=1 control=10 value=56 time=28
note_on channel=1 note=58 velocity=89 time=2
note_on channel=1 note=53 velocity=0 time=4
note_on channel=1 note=58 velocity=0 time=46
note_on channel=1 note=57 velocity=82 time=10
note_on channel=1 note=58 velocity=86 time=29
note_on channel=1 note=57 velocity=0 time=6
note_on channel=1 note=58 velocity=0 time=44
note_on channel=1 note=60 velocity=88 time=10
note_on channel=1 note=59 velocity=79 time=31
note_on channel=1 note=60 velocity=0 time=4
note_on channel=1 note=58 velocity=82 time=25
note_on channel=1 note=59 velocity=0 time=1
control_change channel=1 control=10 value=61 time=28
note_on channel=1 note=62 velocity=90 time=2
note_on channel=1 note=58 velocity=0 time=4
note_on channel=1 note=62 velocity=0 time=46
note_on channel=1 note=61 velocity=84 time=10
note_on channel=1 note=62 velocity=87 time=29
note_on channel=1 note=61 velocity=0 time=6
note_on channel=1 note=62 velocity=0 time=44
control_change channel=1 control=10 value=65 time=9
note_on channel=1 note=65 velocity=89 time=1
control_change channel=1 control=10 value=60 time=29
note_on channel=1 note=61 velocity=81 time=2
note_on channel=1 note=65 velocity=0 time=4
note_on channel=1 note=62 velocity=84 time=25
note_on channel=1 note=61 velocity=0 time=1
control_change channel=1 control=10 value=54 time=28
note_on channel=1 note=57 velocity=79 time=2
note_on channel=1 note=62 velocity=0 time=4
note_on channel=1 note=58 velocity=86 time=25
note_on channel=1 note=57 velocity=0 time=1
note_on channel=1 note=55 velocity=86 time=30
note_on channel=1 note=58 velocity=0 time=4
note_on channel=1 note=55 velocity=0 time=46
note_on channel=1 note=54 velocity=79 time=10
control_change channel=1 control=10 value=49 time=28
note_on channel=1 note=53 velocity=90 time=1
note_on channel=1 note=54 velocity=0 time=1
note_on channel=1 note=53 velocity=0 time=85
control_change channel=1 control=10 value=41 time=33
note_on channel=1 note=53 velocity=99 time=1
note_on channel=1 note=41 velocity=99 time=0
note_on channel=1 note=41 velocity=0 time=92
note_on channel=1 note=53 velocity=0 time=0
control_change channel=1 control=10 value=48 time=27
note_on channel=1 note=58 velocity=72 time=1
note_on channel=1 note=46 velocity=72 time=0
note_on channel=1 note=46 velocity=0 time=52
note_on channel=1 note=58 velocity=0 time=0
control_change channel=1 control=10 value=54 time=7
note_on channel=1 note=53 velocity=67 time=1
note_on channel=1 note=58 velocity=67 time=0
note_on channel=1 note=62 velocity=67 time=0
note_on channel=1 note=62 velocity=0 time=28
note_on channel=1 note=58 velocity=0 time=0
note_on channel=1 note=53 velocity=0 time=0
control_change channel=1 control=10 value=45 time=31
note_on channel=1 note=50 velocity=72 time=1
note_on channel=1 note=50 velocity=0 time=52
control_change channel=1 control=10 value=54 time=7
note_on channel=1 note=62 velocity=67 time=1
note_on channel=1 note=53 velocity=67 time=0
note_on channel=1 note=58 velocity=67 time=0
note_on channel=1 note=58 velocity=0 time=28
note_on channel=1 note=53 velocity=0 time=0
note_on channel=1 note=62 velocity=0 time=0
control_change channel=1 control=10 value=47 time=31
note_on channel=1 note=51 velocity=72 time=1
note_on channel=1 note=51 velocity=0 time=52
control_change channel=1 control=10 value=56 time=7
note_on channel=1 note=63 velocity=67 time=1
note_on channel=1 note=55 velocity=67 time=0
note_on channel=1 note=58 velocity=67 time=0
note_on channel=1 note=58 velocity=0 time=28
note_on channel=1 note=55 velocity=0 time=0
note_on channel=1 note=63 velocity=0 time=0
note_on channel=1 note=62 velocity=78 time=32
note_on channel=1 note=50 velocity=78 time=0
control_change channel=1 control=10 value=52 time=59
note_on channel=1 note=49 velocity=76 time=1
note_on channel=1 note=61 velocity=76 time=0
note_on channel=1 note=50 velocity=0 time=26
note_on channel=1 note=62 velocity=0 time=0
note_on channel=1 note=48 velocity=75 time=34
note_on channel=1 note=60 velocity=75 time=0
note_on channel=1 note=49 velocity=0 time=4
note_on channel=1 note=61 velocity=0 time=0
note_on channel=1 note=48 velocity=0 time=48
note_on channel=1 note=60 velocity=0 time=0
note_on channel=1 note=63 velocity=67 time=8
note_on channel=1 note=57 velocity=67 time=0
note_on channel=1 note=53 velocity=67 time=0
note_on channel=1 note=53 velocity=0 time=28
note_on channel=1 note=57 velocity=0 time=0
note_on channel=1 note=63 velocity=0 time=0
control_change channel=1 control=10 value=41 time=31
note_on channel=1 note=53 velocity=72 time=1
note_on channel=1 note=41 velocity=72 time=0
note_on channel=1 note=41 velocity=0 time=52
note_on channel=1 note=53 velocity=0 time=0
control_change channel=1 control=10 value=54 time=7
note_on channel=1 note=57 velocity=67 time=1
note_on channel=1 note=63 velocity=67 time=0
note_on channel=1 note=53 velocity=67 time=0
note_on channel=1 note=53 velocity=0 time=28
note_on channel=1 note=63 velocity=0 time=0
note_on channel=1 note=57 velocity=0 time=0
control_change channel=1 control=10 value=48 time=31
note_on channel=1 note=46 velocity=72 time=1
note_on channel=1 note=58 velocity=72 time=0
note_on channel=1 note=58 velocity=0 time=52
note_on channel=1 note=46 velocity=0 time=0
control_change channel=1 control=10 value=54 time=7
note_on channel=1 note=58 velocity=67 time=1
note_on channel=1 note=53 velocity=67 time=0
note_on channel=1 note=62 velocity=67 time=0
note_on channel=1 note=62 velocity=0 time=28
note_on channel=1 note=53 velocity=0 time=0
note_on channel=1 note=58 velocity=0 time=0
control_change channel=1 control=10 value=41 time=31
note_on channel=1 note=53 velocity=72 time=1
note_on channel=1 note=41 velocity=72 time=0
note_on channel=1 note=41 velocity=0 time=52
note_on channel=1 note=53 velocity=0 time=0
control_change channel=1 control=10 value=54 time=7
note_on channel=1 note=58 velocity=67 time=1
note_on channel=1 note=53 velocity=67 time=0
note_on channel=1 note=62 velocity=67 time=0
note_on channel=1 note=62 velocity=0 time=28
note_on channel=1 note=53 velocity=0 time=0
note_on channel=1 note=58 velocity=0 time=0
control_change channel=1 control=10 value=40 time=31
note_on channel=1 note=46 velocity=72 time=1
note_on channel=1 note=46 velocity=0 time=52
control_change channel=1 control=10 value=54 time=7
note_on channel=1 note=53 velocity=67 time=1
note_on channel=1 note=58 velocity=67 time=0
note_on channel=1 note=62 velocity=67 time=0
note_on channel=1 note=62 velocity=0 time=28
note_on channel=1 note=58 velocity=0 time=0
note_on channel=1 note=53 velocity=0 time=0
control_change channel=1 control=10 value=45 time=31
note_on channel=1 note=50 velocity=72 time=1
note_on channel=1 note=50 velocity=0 time=52
control_change channel=1 control=10 value=54 time=7
note_on channel=1 note=62 velocity=67 time=1
note_on channel=1 note=58 velocity=67 time=0
note_on channel=1 note=53 velocity=67 time=0
note_on channel=1 note=53 velocity=0 time=28
note_on channel=1 note=58 velocity=0 time=0
note_on channel=1 note=62 velocity=0 time=0
control_change channel=1 control=10 value=47 time=31
note_on channel=1 note=51 velocity=72 time=1
note_on channel=1 note=51 velocity=0 time=52
control_change channel=1 control=10 value=56 time=7
note_on channel=1 note=58 velocity=67 time=1
note_on channel=1 note=63 velocity=67 time=0
note_on channel=1 note=55 velocity=67 time=0
note_on channel=1 note=55 velocity=0 time=28
note_on channel=1 note=63 velocity=0 time=0
note_on channel=1 note=58 velocity=0 time=0
note_on channel=1 note=62 velocity=77 time=32
note_on channel=1 note=50 velocity=77 time=0
control_change channel=1 control=10 value=49 time=59
note_on channel=1 note=47 velocity=79 time=1
note_on channel=1 note=59 velocity=79 time=0
note_on channel=1 note=50 velocity=0 time=18
note_on channel=1 note=62 velocity=0 time=0
note_on channel=1 note=47 velocity=0 time=39
note_on channel=1 note=59 velocity=0 time=0
note_on channel=1 note=48 velocity=86 time=3
note_on channel=1 note=60 velocity=86 time=0
note_on channel=1 note=60 velocity=0 time=52
note_on channel=1 note=48 velocity=0 time=0
control_change channel=1 control=10 value=56 time=7
note_on channel=1 note=57 velocity=81 time=1
note_on channel=1 note=60 velocity=81 time=0
note_on channel=1 note=60 velocity=0 time=28
note_on channel=1 note=57 velocity=0 time=0
control_change channel=1 control=10 value=43 time=31
note_on channel=1 note=48 velocity=75 time=1
note_on channel=1 note=48 velocity=0 time=52
control_change channel=1 control=10 value=58 time=7
note_on channel=1 note=64 velocity=81 time=1
note_on channel=1 note=58 velocity=81 time=0
note_on channel=1 note=60 velocity=81 time=0
note_on channel=1 note=60 velocity=0 time=28
note_on channel=1 note=58 velocity=0 time=0
note_on channel=1 note=64 velocity=0 time=0
note_on channel=1 note=53 velocity=86 time=32
note_on channel=1 note=57 velocity=86 time=0
note_on channel=1 note=60 velocity=86 time=0
note_on channel=1 note=65 velocity=86 time=0
note_on channel=1 note=65 velocity=0 time=52
note_on channel=1 note=53 velocity=0 time=0
note_on channel=1 note=57 velocity=0 time=0
note_on channel=1 note=60 velocity=0 time=0
note_on channel=1 note=57 velocity=72 time=68
note_on channel=1 note=63 velocity=72 time=0
note_on channel=1 note=53 velocity=72 time=0
note_on channel=1 note=60 velocity=72 time=0
note_on channel=1 note=60 velocity=0 time=101
note_on channel=1 note=57 velocity=0 time=0
note_on channel=1 note=63 velocity=0 time=0
note_on channel=1 note=53 velocity=0 time=0
control_change channel=1 control=10 value=40 time=18
note_on channel=1 note=46 velocity=72 time=1
note_on channel=1 note=46 velocity=0 time=48
control_change channel=1 control=10 value=54 time=11
note_on channel=1 note=58 velocity=67 time=1
note_on channel=1 note=53 velocity=67 time=0
note_on channel=1 note=62 velocity=67 time=0
note_on channel=1 note=62 velocity=0 time=27
note_on channel=1 note=53 velocity=0 time=0
note_on channel=1 note=58 velocity=0 time=0
control_change channel=1 control=10 value=45 time=32
note_on channel=1 note=50 velocity=72 time=1
note_on channel=1 note=50 velocity=0 time=48
control_change channel=1 control=10 value=54 time=11
note_on channel=1 note=53 velocity=67 time=1
note_on channel=1 note=62 velocity=67 time=0
note_on channel=1 note=58 velocity=67 time=0
note_on channel=1 note=58 velocity=0 time=27
note_on channel=1 note=62 velocity=0 time=0
note_on channel=1 note=53 velocity=0 time=0
control_change channel=1 control=10 value=47 time=32
note_on channel=1 note=51 velocity=72 time=1
note_on channel=1 note=51 velocity=0 time=48
control_change channel=1 control=10 value=56 time=11
note_on channel=1 note=55 velocity=67 time=1
note_on channel=1 note=63 velocity=67 time=0
note_on channel=1 note=58 velocity=67 time=0
note_on channel=1 note=58 velocity=0 time=27
note_on channel=1 note=63 velocity=0 time=0
note_on channel=1 note=55 velocity=0 time=0
note_on channel=1 note=62 velocity=72 time=33
note_on channel=1 note=50 velocity=72 time=0
note_on channel=1 note=50 velocity=0 time=55
note_on channel=1 note=62 velocity=0 time=0
control_change channel=1 control=10 value=52 time=4
note_on channel=1 note=49 velocity=77 time=1
note_on channel=1 note=61 velocity=77 time=0
note_on channel=1 note=61 velocity=0 time=42
note_on channel=1 note=49 velocity=0 time=0
note_on channel=1 note=48 velocity=71 time=18
note_on channel=1 note=60 velocity=71 time=0
note_on channel=1 note=60 velocity=0 time=48
note_on channel=1 note=48 velocity=0 time=0
note_on channel=1 note=53 velocity=66 time=12
note_on channel=1 note=57 velocity=66 time=0
note_on channel=1 note=63 velocity=66 time=0
note_on channel=1 note=63 velocity=0 time=27
note_on channel=1 note=57 velocity=0 time=0
note_on channel=1 note=53 velocity=0 time=0
control_change channel=1 control=10 value=41 time=32
note_on channel=1 note=41 velocity=71 time=1
note_on channel=1 note=53 velocity=71 time=0
note_on channel=1 note=53 velocity=0 time=48
note_on channel=1 note=41 velocity=0 time=0
control_change channel=1 control=10 value=54 time=11
note_on channel=1 note=57 velocity=66 time=1
note_on channel=1 note=53 velocity=66 time=0
note_on channel=1 note=63 velocity=66 time=0
note_on channel=1 note=63 velocity=0 time=27
note_on channel=1 note=53 velocity=0 time=0
note_on channel=1 note=57 velocity=0 time=0
control_change channel=1 control=10 value=48 time=32
note_on channel=1 note=46 velocity=71 time=1
note_on channel=1 note=58 velocity=71 time=0
note_on channel=1 note=58 velocity=0 time=48
note_on channel=1 note=46 velocity=0 time=0
control_change channel=1 control=10 value=54 time=11
note_on channel=1 note=58 velocity=66 time=1
note_on channel=1 note=53 velocity=66 time=0
note_on channel=1 note=62 velocity=66 time=0
note_on channel=1 note=62 velocity=0 time=27
note_on channel=1 note=53 velocity=0 time=0
note_on channel=1 note=58 velocity=0 time=0
control_change channel=1 control=10 value=48 time=32
note_on channel=1 note=46 velocity=76 time=1
note_on channel=1 note=58 velocity=76 time=0
note_on channel=1 note=58 velocity=0 time=55
note_on channel=1 note=46 velocity=0 time=0
note_on channel=1 note=47 velocity=81 time=5
note_on channel=1 note=59 velocity=81 time=0
note_on channel=1 note=59 velocity=0 time=48
note_on channel=1 note=47 velocity=0 time=0
note_on channel=1 note=60 velocity=79 time=12
note_on channel=1 note=48 velocity=79 time=0
note_on channel=1 note=48 velocity=0 time=48
note_on channel=1 note=60 velocity=0 time=0
control_change channel=1 control=10 value=57 time=11
note_on channel=1 note=63 velocity=83 time=1
note_on channel=1 note=60 velocity=83 time=0
note_on channel=1 note=55 velocity=83 time=0
note_on channel=1 note=55 velocity=0 time=27
note_on channel=1 note=60 velocity=0 time=0
note_on channel=1 note=63 velocity=0 time=0
control_change channel=1 control=10 value=39 time=32
note_on channel=1 note=51 velocity=81 time=1
note_on channel=1 note=39 velocity=81 time=0
note_on channel=1 note=39 velocity=0 time=55
note_on channel=1 note=51 velocity=0 time=0
control_change channel=1 control=10 value=43 time=4
note_on channel=1 note=54 velocity=80 time=1
note_on channel=1 note=42 velocity=80 time=0
note_on channel=1 note=42 velocity=0 time=48
note_on channel=1 note=54 velocity=0 time=0
note_on channel=1 note=53 velocity=81 time=12
note_on channel=1 note=41 velocity=81 time=0
note_on channel=1 note=41 velocity=0 time=48
note_on channel=1 note=53 velocity=0 time=0
control_change channel=1 control=10 value=54 time=11
note_on channel=1 note=53 velocity=90 time=1
note_on channel=1 note=58 velocity=90 time=0
note_on channel=1 note=62 velocity=90 time=0
note_on channel=1 note=62 velocity=0 time=27
note_on channel=1 note=58 velocity=0 time=0
note_on channel=1 note=53 velocity=0 time=0
control_change channel=1 control=10 value=44 time=32
note_on channel=1 note=55 velocity=83 time=1
note_on channel=1 note=43 velocity=83 time=0
note_on channel=1 note=43 velocity=0 time=48
note_on channel=1 note=55 velocity=0 time=0
control_change channel=1 control=10 value=54 time=11
note_on channel=1 note=55 velocity=74 time=1
note_on channel=1 note=59 velocity=74 time=0
note_on channel=1 note=59 velocity=0 time=27
note_on channel=1 note=55 velocity=0 time=0
control_change channel=1 control=10 value=43 time=32
note_on channel=1 note=48 velocity=83 time=1
note_on channel=1 note=48 velocity=0 time=48
control_change channel=1 control=10 value=54 time=11
note_on channel=1 note=55 velocity=89 time=1
note_on channel=1 note=58 velocity=89 time=0
note_on channel=1 note=60 velocity=89 time=0
note_on channel=1 note=60 velocity=0 time=27
note_on channel=1 note=58 velocity=0 time=0
note_on channel=1 note=55 velocity=0 time=0
control_change channel=1 control=10 value=34 time=32
note_on channel=1 note=41 velocity=80 time=1
note_on channel=1 note=41 velocity=0 time=48
control_change channel=1 control=10 value=52 time=11
note_on channel=1 note=53 velocity=83 time=1
note_on channel=1 note=57 velocity=83 time=0
note_on channel=1 note=57 velocity=0 time=48
note_on channel=1 note=53 velocity=0 time=0
control_change channel=1 control=10 value=48 time=11
note_on channel=1 note=46 velocity=88 time=1
note_on channel=1 note=58 velocity=88 time=0
note_on channel=1 note=50 velocity=72 time=31
note_on channel=1 note=46 velocity=0 time=27
note_on channel=1 note=51 velocity=79 time=2
note_on channel=1 note=50 velocity=0 time=10
note_on channel=1 note=58 velocity=0 time=18
note_on channel=1 note=52 velocity=73 time=3
note_on channel=1 note=51 velocity=0 time=14
note_on channel=1 note=53 velocity=82 time=15
note_on channel=1 note=52 velocity=0 time=3
note_on channel=1 note=54 velocity=79 time=28
control_change channel=1 control=10 value=52 time=28
note_on channel=1 note=55 velocity=81 time=1
note_on channel=1 note=53 velocity=0 time=2
note_on channel=1 note=54 velocity=0 time=8
note_on channel=1 note=57 velocity=80 time=21
note_on channel=1 note=55 velocity=0 time=14
note_on channel=1 note=57 velocity=0 time=13
control_change channel=1 control=10 value=48 time=1
note_on channel=1 note=46 velocity=79 time=1
note_on channel=1 note=58 velocity=79 time=0
note_on channel=1 note=58 velocity=0 time=52
note_on channel=1 note=46 velocity=0 time=0
control_change channel=1 control=10 value=54 time=7
note_on channel=1 note=53 velocity=68 time=1
note_on channel=1 note=58 velocity=68 time=0
note_on channel=1 note=62 velocity=68 time=0
note_on channel=1 note=62 velocity=0 time=28
note_on channel=1 note=58 velocity=0 time=0
note_on channel=1 note=53 velocity=0 time=0
control_change channel=1 control=10 value=45 time=31
note_on channel=1 note=50 velocity=71 time=1
note_on channel=1 note=50 velocity=0 time=52
control_change channel=1 control=10 value=54 time=7
note_on channel=1 note=62 velocity=66 time=1
note_on channel=1 note=58 velocity=66 time=0
note_on channel=1 note=53 velocity=66 time=0
note_on channel=1 note=53 velocity=0 time=28
note_on channel=1 note=58 velocity=0 time=0
note_on channel=1 note=62 velocity=0 time=0
control_change channel=1 control=10 value=47 time=31
note_on channel=1 note=51 velocity=71 time=1
note_on channel=1 note=51 velocity=0 time=52
control_change channel=1 control=10 value=56 time=7
note_on channel=1 note=63 velocity=66 time=1
note_on channel=1 note=58 velocity=66 time=0
note_on channel=1 note=55 velocity=66 time=0
note_on channel=1 note=55 velocity=0 time=28
note_on channel=1 note=58 velocity=0 time=0
note_on channel=1 note=63 velocity=0 time=0
note_on channel=1 note=62 velocity=79 time=32
note_on channel=1 note=50 velocity=79 time=0
note_on channel=1 note=50 velocity=0 time=59
note_on channel=1 note=62 velocity=0 time=0
control_change channel=1 control=10 value=52 time=0
note_on channel=1 note=49 velocity=75 time=1
note_on channel=1 note=61 velocity=75 time=0
note_on channel=1 note=61 velocity=0 time=44
note_on channel=1 note=49 velocity=0 time=0
note_on channel=1 note=48 velocity=75 time=16
note_on channel=1 note=60 velocity=75 time=0
note_on channel=1 note=60 velocity=0 time=52
note_on channel=1 note=48 velocity=0 time=0
note_on channel=1 note=63 velocity=69 time=8
note_on channel=1 note=57 velocity=69 time=0
note_on channel=1 note=53 velocity=69 time=0
note_on channel=1 note=53 velocity=0 time=28
note_on channel=1 note=57 velocity=0 time=0
note_on channel=1 note=63 velocity=0 time=0
control_change channel=1 control=10 value=41 time=31
note_on channel=1 note=41 velocity=75 time=1
note_on channel=1 note=53 velocity=75 time=0
note_on channel=1 note=53 velocity=0 time=52
note_on channel=1 note=41 velocity=0 time=0
control_change channel=1 control=10 value=54 time=7
note_on channel=1 note=53 velocity=69 time=1
note_on channel=1 note=57 velocity=69 time=0
note_on channel=1 note=63 velocity=69 time=0
note_on channel=1 note=63 velocity=0 time=28
note_on channel=1 note=57 velocity=0 time=0
note_on channel=1 note=53 velocity=0 time=0
control_change channel=1 control=10 value=48 time=31
note_on channel=1 note=46 velocity=75 time=1
note_on channel=1 note=58 velocity=75 time=0
note_on channel=1 note=58 velocity=0 time=52
note_on channel=1 note=46 velocity=0 time=0
control_change channel=1 control=10 value=54 time=7
note_on channel=1 note=58 velocity=69 time=1
note_on channel=1 note=62 velocity=69 time=0
note_on channel=1 note=53 velocity=69 time=0
note_on channel=1 note=53 velocity=0 time=28
note_on channel=1 note=62 velocity=0 time=0
note_on channel=1 note=58 velocity=0 time=0
control_change channel=1 control=10 value=41 time=31
note_on channel=1 note=53 velocity=75 time=1
note_on channel=1 note=41 velocity=75 time=0
note_on channel=1 note=41 velocity=0 time=52
note_on channel=1 note=53 velocity=0 time=0
control_change channel=1 control=10 value=54 time=7
note_on channel=1 note=62 velocity=69 time=1
note_on channel=1 note=58 velocity=69 time=0
note_on channel=1 note=53 velocity=69 time=0
note_on channel=1 note=53 velocity=0 time=28
note_on channel=1 note=58 velocity=0 time=0
note_on channel=1 note=62 velocity=0 time=0
control_change channel=1 control=10 value=40 time=31
note_on channel=1 note=46 velocity=70 time=1
note_on channel=1 note=46 velocity=0 time=52
control_change channel=1 control=10 value=54 time=7
note_on channel=1 note=53 velocity=65 time=1
note_on channel=1 note=58 velocity=65 time=0
note_on channel=1 note=62 velocity=65 time=0
note_on channel=1 note=62 velocity=0 time=28
note_on channel=1 note=58 velocity=0 time=0
note_on channel=1 note=53 velocity=0 time=0
control_change channel=1 control=10 value=45 time=31
note_on channel=1 note=50 velocity=70 time=1
note_on channel=1 note=50 velocity=0 time=52
control_change channel=1 control=10 value=54 time=7
note_on channel=1 note=53 velocity=65 time=1
note_on channel=1 note=62 velocity=65 time=0
note_on channel=1 note=58 velocity=65 time=0
note_on channel=1 note=58 velocity=0 time=28
note_on channel=1 note=62 velocity=0 time=0
note_on channel=1 note=53 velocity=0 time=0
control_change channel=1 control=10 value=47 time=31
note_on channel=1 note=51 velocity=70 time=1
note_on channel=1 note=51 velocity=0 time=52
control_change channel=1 control=10 value=56 time=7
note_on channel=1 note=55 velocity=65 time=1
note_on channel=1 note=58 velocity=65 time=0
note_on channel=1 note=63 velocity=65 time=0
note_on channel=1 note=63 velocity=0 time=28
note_on channel=1 note=58 velocity=0 time=0
note_on channel=1 note=55 velocity=0 time=0
note_on channel=1 note=62 velocity=75 time=32
note_on channel=1 note=50 velocity=75 time=0
note_on channel=1 note=50 velocity=0 time=59
note_on channel=1 note=62 velocity=0 time=0
control_change channel=1 control=10 value=49 time=0
note_on channel=1 note=47 velocity=78 time=1
note_on channel=1 note=59 velocity=78 time=0
note_on channel=1 note=59 velocity=0 time=44
note_on channel=1 note=47 velocity=0 time=0
note_on channel=1 note=48 velocity=74 time=16
note_on channel=1 note=60 velocity=74 time=0
note_on channel=1 note=60 velocity=0 time=52
note_on channel=1 note=48 velocity=0 time=0
control_change channel=1 control=10 value=56 time=7
note_on channel=1 note=60 velocity=79 time=1
note_on channel=1 note=57 velocity=79 time=0
note_on channel=1 note=57 velocity=0 time=28
note_on channel=1 note=60 velocity=0 time=0
control_change channel=1 control=10 value=43 time=31
note_on channel=1 note=48 velocity=74 time=1
note_on channel=1 note=48 velocity=0 time=52
control_change channel=1 control=10 value=58 time=7
note_on channel=1 note=58 velocity=81 time=1
note_on channel=1 note=64 velocity=81 time=0
note_on channel=1 note=60 velocity=81 time=0
note_on channel=1 note=60 velocity=0 time=28
note_on channel=1 note=64 velocity=0 time=0
note_on channel=1 note=58 velocity=0 time=0
note_on channel=1 note=60 velocity=76 time=32
note_on channel=1 note=65 velocity=76 time=0
note_on channel=1 note=53 velocity=76 time=0
note_on channel=1 note=57 velocity=76 time=0
note_on channel=1 note=57 velocity=0 time=52
note_on channel=1 note=60 velocity=0 time=0
note_on channel=1 note=65 velocity=0 time=0
note_on channel=1 note=53 velocity=0 time=0
note_on channel=1 note=53 velocity=75 time=68
note_on channel=1 note=63 velocity=75 time=0
note_on channel=1 note=60 velocity=75 time=0
note_on channel=1 note=57 velocity=75 time=0
note_on channel=1 note=57 velocity=0 time=101
note_on channel=1 note=53 velocity=0 time=0
note_on channel=1 note=63 velocity=0 time=0
note_on channel=1 note=60 velocity=0 time=0
control_change channel=1 control=10 value=40 time=18
note_on channel=1 note=46 velocity=70 time=1
note_on channel=1 note=46 velocity=0 time=48
control_change channel=1 control=10 value=54 time=11
note_on channel=1 note=53 velocity=65 time=1
note_on channel=1 note=62 velocity=65 time=0
note_on channel=1 note=58 velocity=65 time=0
note_on channel=1 note=58 velocity=0 time=27
note_on channel=1 note=62 velocity=0 time=0
note_on channel=1 note=53 velocity=0 time=0
control_change channel=1 control=10 value=45 time=32
note_on channel=1 note=50 velocity=70 time=1
note_on channel=1 note=50 velocity=0 time=48
control_change channel=1 control=10 value=54 time=11
note_on channel=1 note=53 velocity=65 time=1
note_on channel=1 note=62 velocity=65 time=0
note_on channel=1 note=58 velocity=65 time=0
note_on channel=1 note=58 velocity=0 time=27
note_on channel=1 note=62 velocity=0 time=0
note_on channel=1 note=53 velocity=0 time=0
control_change channel=1 control=10 value=47 time=32
note_on channel=1 note=51 velocity=70 time=1
note_on channel=1 note=51 velocity=0 time=48
control_change channel=1 control=10 value=56 time=11
note_on channel=1 note=63 velocity=64 time=1
note_on channel=1 note=58 velocity=64 time=0
note_on channel=1 note=55 velocity=64 time=0
note_on channel=1 note=55 velocity=0 time=27
note_on channel=1 note=58 velocity=0 time=0
note_on channel=1 note=63 velocity=0 time=0
note_on channel=1 note=62 velocity=73 time=33
note_on channel=1 note=50 velocity=73 time=0
note_on channel=1 note=50 velocity=0 time=55
note_on channel=1 note=62 velocity=0 time=0
control_change channel=1 control=10 value=52 time=4
note_on channel=1 note=49 velocity=75 time=1
note_on channel=1 note=61 velocity=75 time=0
note_on channel=1 note=61 velocity=0 time=42
note_on channel=1 note=49 velocity=0 time=0
note_on channel=1 note=48 velocity=70 time=18
note_on channel=1 note=60 velocity=70 time=0
note_on channel=1 note=60 velocity=0 time=48
note_on channel=1 note=48 velocity=0 time=0
note_on channel=1 note=63 velocity=64 time=12
note_on channel=1 note=57 velocity=64 time=0
note_on channel=1 note=53 velocity=64 time=0
note_on channel=1 note=53 velocity=0 time=27
note_on channel=1 note=57 velocity=0 time=0
note_on channel=1 note=63 velocity=0 time=0
control_change channel=1 control=10 value=41 time=32
note_on channel=1 note=53 velocity=74 time=1
note_on channel=1 note=41 velocity=74 time=0
note_on channel=1 note=41 velocity=0 time=48
note_on channel=1 note=53 velocity=0 time=0
control_change channel=1 control=10 value=54 time=11
note_on channel=1 note=57 velocity=67 time=1
note_on channel=1 note=63 velocity=67 time=0
note_on channel=1 note=53 velocity=67 time=0
note_on channel=1 note=53 velocity=0 time=27
note_on channel=1 note=63 velocity=0 time=0
note_on channel=1 note=57 velocity=0 time=0
control_change channel=1 control=10 value=48 time=32
note_on channel=1 note=46 velocity=70 time=1
note_on channel=1 note=58 velocity=70 time=0
note_on channel=1 note=58 velocity=0 time=48
note_on channel=1 note=46 velocity=0 time=0
control_change channel=1 control=10 value=54 time=11
note_on channel=1 note=62 velocity=64 time=1
note_on channel=1 note=58 velocity=64 time=0
note_on channel=1 note=53 velocity=64 time=0
note_on channel=1 note=53 velocity=0 time=27
note_on channel=1 note=58 velocity=0 time=0
note_on channel=1 note=62 velocity=0 time=0
control_change channel=1 control=10 value=48 time=32
note_on channel=1 note=58 velocity=75 time=1
note_on channel=1 note=46 velocity=75 time=0
note_on channel=1 note=46 velocity=0 time=55
note_on channel=1 note=58 velocity=0 time=0
note_on channel=1 note=47 velocity=88 time=5
note_on channel=1 note=59 velocity=88 time=0
note_on channel=1 note=59 velocity=0 time=48
note_on channel=1 note=47 velocity=0 time=0
note_on channel=1 note=48 velocity=83 time=12
note_on channel=1 note=60 velocity=83 time=0
note_on channel=1 note=60 velocity=0 time=48
note_on channel=1 note=48 velocity=0 time=0
control_change channel=1 control=10 value=57 time=11
note_on channel=1 note=63 velocity=88 time=1
note_on channel=1 note=55 velocity=88 time=0
note_on channel=1 note=60 velocity=88 time=0
note_on channel=1 note=60 velocity=0 time=27
note_on channel=1 note=55 velocity=0 time=0
note_on channel=1 note=63 velocity=0 time=0
control_change channel=1 control=10 value=39 time=32
note_on channel=1 note=39 velocity=84 time=1
note_on channel=1 note=51 velocity=84 time=0
note_on channel=1 note=51 velocity=0 time=56
note_on channel=1 note=39 velocity=0 time=0
control_change channel=1 control=10 value=43 time=3
note_on channel=1 note=54 velocity=83 time=1
note_on channel=1 note=42 velocity=83 time=0
note_on channel=1 note=42 velocity=0 time=48
note_on channel=1 note=54 velocity=0 time=0
note_on channel=1 note=53 velocity=83 time=12
note_on channel=1 note=41 velocity=83 time=0
note_on channel=1 note=41 velocity=0 time=48
note_on channel=1 note=53 velocity=0 time=0
control_change channel=1 control=10 value=54 time=11
note_on channel=1 note=62 velocity=92 time=1
note_on channel=1 note=58 velocity=92 time=0
note_on channel=1 note=53 velocity=92 time=0
note_on channel=1 note=53 velocity=0 time=27
note_on channel=1 note=58 velocity=0 time=0
note_on channel=1 note=62 velocity=0 time=0
control_change channel=1 control=10 value=44 time=32
note_on channel=1 note=55 velocity=84 time=1
note_on channel=1 note=43 velocity=84 time=0
note_on channel=1 note=43 velocity=0 time=48
note_on channel=1 note=55 velocity=0 time=0
control_change channel=1 control=10 value=54 time=11
note_on channel=1 note=55 velocity=75 time=1
note_on channel=1 note=59 velocity=75 time=0
note_on channel=1 note=59 velocity=0 time=27
note_on channel=1 note=55 velocity=0 time=0
control_change channel=1 control=10 value=43 time=32
note_on channel=1 note=48 velocity=83 time=1
note_on channel=1 note=48 velocity=0 time=48
control_change channel=1 control=10 value=54 time=11
note_on channel=1 note=58 velocity=89 time=1
note_on channel=1 note=60 velocity=89 time=0
note_on channel=1 note=55 velocity=89 time=0
note_on channel=1 note=55 velocity=0 time=27
note_on channel=1 note=60 velocity=0 time=0
note_on channel=1 note=58 velocity=0 time=0
control_change channel=1 control=10 value=34 time=32
note_on channel=1 note=41 velocity=83 time=1
note_on channel=1 note=41 velocity=0 time=52
control_change channel=1 control=10 value=52 time=7
note_on channel=1 note=53 velocity=84 time=1
note_on channel=1 note=57 velocity=84 time=0
note_on channel=1 note=57 velocity=0 time=48
note_on channel=1 note=53 velocity=0 time=0
control_change channel=1 control=10 value=48 time=11
note_on channel=1 note=46 velocity=91 time=1
note_on channel=1 note=58 velocity=91 time=0
note_on channel=1 note=58 velocity=0 time=52
note_on channel=1 note=46 velocity=0 time=0
note_on channel=1 note=53 velocity=101 time=8
note_on channel=1 note=53 velocity=0 time=46
control_change channel=1 control=10 value=40 time=13
note_on channel=1 note=46 velocity=93 time=1
note_on channel=1 note=46 velocity=0 time=59
control_change channel=1 control=10 value=51 time=60
note_on channel=1 note=48 velocity=90 time=1
note_on channel=1 note=60 velocity=90 time=0
note_on channel=1 note=60 velocity=0 time=48
note_on channel=1 note=48 velocity=0 time=0
note_on channel=1 note=53 velocity=73 time=12
note_on channel=1 note=57 velocity=73 time=0
note_on channel=1 note=63 velocity=73 time=0
note_on channel=1 note=63 velocity=0 time=28
note_on channel=1 note=57 velocity=0 time=0
note_on channel=1 note=53 velocity=0 time=0
control_change channel=1 control=10 value=34 time=31
note_on channel=1 note=41 velocity=78 time=1
note_on channel=1 note=41 velocity=0 time=48
control_change channel=1 control=10 value=54 time=11
note_on channel=1 note=53 velocity=73 time=1
note_on channel=1 note=63 velocity=73 time=0
note_on channel=1 note=57 velocity=73 time=0
note_on channel=1 note=57 velocity=0 time=28
note_on channel=1 note=63 velocity=0 time=0
note_on channel=1 note=53 velocity=0 time=0
control_change channel=1 control=10 value=40 time=31
note_on channel=1 note=46 velocity=78 time=1
note_on channel=1 note=46 velocity=0 time=48
control_change channel=1 control=10 value=54 time=11
note_on channel=1 note=58 velocity=73 time=1
note_on channel=1 note=53 velocity=73 time=0
note_on channel=1 note=62 velocity=73 time=0
note_on channel=1 note=62 velocity=0 time=28
note_on channel=1 note=53 velocity=0 time=0
note_on channel=1 note=58 velocity=0 time=0
control_change channel=1 control=10 value=34 time=31
note_on channel=1 note=41 velocity=78 time=1
note_on channel=1 note=41 velocity=0 time=48
control_change channel=1 control=10 value=54 time=11
note_on channel=1 note=53 velocity=73 time=1
note_on channel=1 note=58 velocity=73 time=0
note_on channel=1 note=62 velocity=73 time=0
note_on channel=1 note=62 velocity=0 time=28
note_on channel=1 note=58 velocity=0 time=0
note_on channel=1 note=53 velocity=0 time=0
control_change channel=1 control=10 value=34 time=31
note_on channel=1 note=41 velocity=78 time=1
note_on channel=1 note=41 velocity=0 time=48
control_change channel=1 control=10 value=54 time=11
note_on channel=1 note=63 velocity=73 time=1
note_on channel=1 note=53 velocity=73 time=0
note_on channel=1 note=57 velocity=73 time=0
note_on channel=1 note=57 velocity=0 time=28
note_on channel=1 note=53 velocity=0 time=0
note_on channel=1 note=63 velocity=0 time=0
control_change channel=1 control=10 value=34 time=31
note_on channel=1 note=41 velocity=78 time=1
note_on channel=1 note=41 velocity=0 time=48
control_change channel=1 control=10 value=52 time=11
note_on channel=1 note=57 velocity=73 time=1
note_on channel=1 note=53 velocity=73 time=0
note_on channel=1 note=53 velocity=0 time=28
note_on channel=1 note=57 velocity=0 time=0
control_change channel=1 control=10 value=40 time=31
note_on channel=1 note=46 velocity=84 time=1
control_change channel=1 control=10 value=44 time=29
note_on channel=1 note=49 velocity=78 time=2
note_on channel=1 note=46 velocity=0 time=25
control_change channel=1 control=10 value=48 time=3
note_on channel=1 note=52 velocity=86 time=1
note_on channel=1 note=49 velocity=0 time=19
control_change channel=1 control=10 value=52 time=10
note_on channel=1 note=55 velocity=84 time=2
note_on channel=1 note=52 velocity=0 time=25
control_change channel=1 control=10 value=56 time=3
note_on channel=1 note=58 velocity=97 time=1
note_on channel=1 note=55 velocity=0 time=12
note_on channel=1 note=58 velocity=0 time=47
control_change channel=1 control=10 value=43 time=60
note_on channel=1 note=48 velocity=78 time=1
note_on channel=1 note=48 velocity=0 time=48
control_change channel=1 control=10 value=54 time=11
note_on channel=1 note=63 velocity=73 time=1
note_on channel=1 note=53 velocity=73 time=0
note_on channel=1 note=57 velocity=73 time=0
note_on channel=1 note=57 velocity=0 time=28
note_on channel=1 note=53 velocity=0 time=0
note_on channel=1 note=63 velocity=0 time=0
control_change channel=1 control=10 value=34 time=31
note_on channel=1 note=41 velocity=78 time=1
note_on channel=1 note=41 velocity=0 time=48
control_change channel=1 control=10 value=54 time=11
note_on channel=1 note=63 velocity=73 time=1
note_on channel=1 note=57 velocity=73 time=0
note_on channel=1 note=53 velocity=73 time=0
note_on channel=1 note=53 velocity=0 time=28
note_on channel=1 note=57 velocity=0 time=0
note_on channel=1 note=63 velocity=0 time=0
control_change channel=1 control=10 value=40 time=31
note_on channel=1 note=46 velocity=78 time=1
note_on channel=1 note=46 velocity=0 time=48
control_change channel=1 control=10 value=54 time=11
note_on channel=1 note=53 velocity=73 time=1
note_on channel=1 note=58 velocity=73 time=0
note_on channel=1 note=62 velocity=73 time=0
note_on channel=1 note=62 velocity=0 time=28
note_on channel=1 note=58 velocity=0 time=0
note_on channel=1 note=53 velocity=0 time=0
control_change channel=1 control=10 value=61 time=31
note_on channel=1 note=62 velocity=86 time=1
note_on channel=1 note=62 velocity=0 time=48
note_on channel=1 note=60 velocity=81 time=12
note_on channel=1 note=60 velocity=0 time=48
control_change channel=1 control=10 value=68 time=11
note_on channel=1 note=66 velocity=86 time=1
note_on channel=1 note=72 velocity=86 time=0
note_on channel=1 note=69 velocity=86 time=0
note_on channel=1 note=62 velocity=86 time=0
note_on channel=1 note=62 velocity=0 time=109
note_on channel=1 note=66 velocity=0 time=0
note_on channel=1 note=72 velocity=0 time=0
note_on channel=1 note=69 velocity=0 time=0
control_change channel=1 control=10 value=75 time=10
note_on channel=1 note=78 velocity=95 time=1
note_on channel=1 note=74 velocity=95 time=0
note_on channel=1 note=72 velocity=95 time=0
note_on channel=1 note=69 velocity=95 time=0
note_on channel=1 note=69 velocity=0 time=54
note_on channel=1 note=78 velocity=0 time=0
note_on channel=1 note=74 velocity=0 time=0
note_on channel=1 note=72 velocity=0 time=0
control_change channel=1 control=10 value=79 time=5
note_on channel=1 note=78 velocity=99 time=1
note_on channel=1 note=72 velocity=99 time=0
note_on channel=1 note=81 velocity=99 time=0
note_on channel=1 note=74 velocity=99 time=0
note_on channel=1 note=74 velocity=0 time=48
note_on channel=1 note=78 velocity=0 time=0
note_on channel=1 note=72 velocity=0 time=0
note_on channel=1 note=81 velocity=0 time=0
note_on channel=1 note=70 velocity=94 time=12
note_on channel=1 note=74 velocity=94 time=0
note_on channel=1 note=79 velocity=94 time=0
note_on channel=1 note=79 velocity=0 time=54
note_on channel=1 note=74 velocity=0 time=0
note_on channel=1 note=70 velocity=0 time=0
control_change channel=1 control=10 value=44 time=5
note_on channel=1 note=43 velocity=91 time=1
note_on channel=1 note=55 velocity=91 time=0
note_on channel=1 note=54 velocity=83 time=31
note_on channel=1 note=42 velocity=83 time=0
note_on channel=1 note=55 velocity=0 time=20
note_on channel=1 note=43 velocity=0 time=0
note_on channel=1 note=53 velocity=96 time=9
note_on channel=1 note=41 velocity=96 time=0
note_on channel=1 note=54 velocity=0 time=11
note_on channel=1 note=42 velocity=0 time=0
note_on channel=1 note=53 velocity=0 time=48
note_on channel=1 note=41 velocity=0 time=0
note_on channel=1 note=48 velocity=77 time=61
note_on channel=1 note=48 velocity=0 time=48
control_change channel=1 control=10 value=54 time=11
note_on channel=1 note=53 velocity=72 time=1
note_on channel=1 note=57 velocity=72 time=0
note_on channel=1 note=63 velocity=72 time=0
note_on channel=1 note=63 velocity=0 time=29
note_on channel=1 note=57 velocity=0 time=0
note_on channel=1 note=53 velocity=0 time=0
control_change channel=1 control=10 value=34 time=30
note_on channel=1 note=41 velocity=77 time=1
note_on channel=1 note=41 velocity=0 time=48
control_change channel=1 control=10 value=54 time=11
note_on channel=1 note=53 velocity=72 time=1
note_on channel=1 note=63 velocity=72 time=0
note_on channel=1 note=57 velocity=72 time=0
note_on channel=1 note=57 velocity=0 time=29
note_on channel=1 note=63 velocity=0 time=0
note_on channel=1 note=53 velocity=0 time=0
control_change channel=1 control=10 value=40 time=30
note_on channel=1 note=46 velocity=77 time=1
note_on channel=1 note=46 velocity=0 time=48
control_change channel=1 control=10 value=54 time=11
note_on channel=1 note=58 velocity=72 time=1
note_on channel=1 note=53 velocity=72 time=0
note_on channel=1 note=62 velocity=72 time=0
note_on channel=1 note=62 velocity=0 time=29
note_on channel=1 note=53 velocity=0 time=0
note_on channel=1 note=58 velocity=0 time=0
control_change channel=1 control=10 value=34 time=30
note_on channel=1 note=41 velocity=77 time=1
note_on channel=1 note=41 velocity=0 time=48
control_change channel=1 control=10 value=54 time=11
note_on channel=1 note=58 velocity=72 time=1
note_on channel=1 note=53 velocity=72 time=0
note_on channel=1 note=62 velocity=72 time=0
note_on channel=1 note=62 velocity=0 time=29
note_on channel=1 note=53 velocity=0 time=0
note_on channel=1 note=58 velocity=0 time=0
note_on channel=1 note=53 velocity=91 time=31
note_on channel=1 note=57 velocity=84 time=0
note_on channel=1 note=57 velocity=0 time=111
note_on channel=1 note=53 velocity=0 time=0
control_change channel=1 control=10 value=49 time=8
note_on channel=1 note=51 velocity=85 time=1
note_on channel=1 note=57 velocity=78 time=0
note_on channel=1 note=57 velocity=0 time=104
note_on channel=1 note=51 velocity=0 time=0
note_on channel=1 note=50 velocity=84 time=16
note_on channel=1 note=57 velocity=76 time=0
note_on channel=1 note=50 velocity=0 time=29
control_change channel=1 control=10 value=37 time=20
note_on channel=1 note=44 velocity=85 time=1
note_on channel=1 note=45 velocity=89 time=10
note_on channel=1 note=44 velocity=0 time=11
note_on channel=1 note=57 velocity=0 time=28
note_on channel=1 note=45 velocity=0 time=20
control_change channel=1 control=10 value=30 time=0
note_on channel=1 note=38 velocity=89 time=1
note_on channel=1 note=38 velocity=0 time=59
control_change channel=1 control=10 value=39 time=0
note_on channel=1 note=50 velocity=87 time=1
note_on channel=1 note=50 velocity=0 time=59
control_change channel=1 control=10 value=43 time=0
note_on channel=1 note=48 velocity=89 time=1
note_on channel=1 note=50 velocity=84 time=31
note_on channel=1 note=48 velocity=0 time=12
control_change channel=1 control=10 value=47 time=16
note_on channel=1 note=51 velocity=90 time=1
note_on channel=1 note=50 velocity=0 time=7
control_change channel=1 control=10 value=52 time=22
note_on channel=1 note=55 velocity=94 time=2
note_on channel=1 note=51 velocity=0 time=12
note_on channel=1 note=54 velocity=92 time=48
note_on channel=1 note=55 velocity=0 time=3
note_on channel=1 note=53 velocity=100 time=26
note_on channel=1 note=54 velocity=0 time=8
control_change channel=1 control=10 value=58 time=51
note_on channel=1 note=60 velocity=90 time=1
note_on channel=1 note=53 velocity=0 time=3
note_on channel=1 note=62 velocity=86 time=28
note_on channel=1 note=60 velocity=0 time=12
control_change channel=1 control=10 value=62 time=16
note_on channel=1 note=63 velocity=92 time=1
note_on channel=1 note=62 velocity=0 time=7
control_change channel=1 control=10 value=68 time=22
note_on channel=1 note=67 velocity=102 time=2
note_on channel=1 note=63 velocity=0 time=12
note_on channel=1 note=66 velocity=92 time=48
note_on channel=1 note=67 velocity=0 time=3
note_on channel=1 note=65 velocity=97 time=26
note_on channel=1 note=66 velocity=0 time=8
control_change channel=1 control=10 value=34 time=51
note_on channel=1 note=41 velocity=76 time=1
note_on channel=1 note=65 velocity=0 time=3
note_on channel=1 note=41 velocity=0 time=45
control_change channel=1 control=10 value=52 time=11
note_on channel=1 note=53 velocity=71 time=1
note_on channel=1 note=58 velocity=71 time=0
note_on channel=1 note=58 velocity=0 time=29
note_on channel=1 note=53 velocity=0 time=0
control_change channel=1 control=10 value=34 time=30
note_on channel=1 note=41 velocity=76 time=1
note_on channel=1 note=41 velocity=0 time=48
control_change channel=1 control=10 value=52 time=11
note_on channel=1 note=53 velocity=71 time=1
note_on channel=1 note=57 velocity=71 time=0
note_on channel=1 note=57 velocity=0 time=29
note_on channel=1 note=53 velocity=0 time=0
control_change channel=1 control=10 value=48 time=30
note_on channel=1 note=46 velocity=76 time=1
note_on channel=1 note=58 velocity=76 time=0
note_on channel=1 note=58 velocity=0 time=59
note_on channel=1 note=46 velocity=0 time=0
note_on channel=1 note=46 velocity=80 time=61
note_on channel=1 note=58 velocity=80 time=0
note_on channel=1 note=58 velocity=0 time=59
note_on channel=1 note=46 velocity=0 time=0
note_on channel=1 note=59 velocity=82 time=1
note_on channel=1 note=47 velocity=82 time=0
note_on channel=1 note=47 velocity=0 time=52
note_on channel=1 note=59 velocity=0 time=0
note_on channel=1 note=48 velocity=88 time=8
note_on channel=1 note=60 velocity=88 time=0
note_on channel=1 note=60 velocity=0 time=48
note_on channel=1 note=48 velocity=0 time=0
control_change channel=1 control=10 value=54 time=11
note_on channel=1 note=63 velocity=71 time=1
note_on channel=1 note=53 velocity=71 time=0
note_on channel=1 note=57 velocity=71 time=0
note_on channel=1 note=57 velocity=0 time=28
note_on channel=1 note=53 velocity=0 time=0
note_on channel=1 note=63 velocity=0 time=0
control_change channel=1 control=10 value=34 time=31
note_on channel=1 note=41 velocity=76 time=1
note_on channel=1 note=41 velocity=0 time=48
control_change channel=1 control=10 value=54 time=11
note_on channel=1 note=53 velocity=71 time=1
note_on channel=1 note=63 velocity=71 time=0
note_on channel=1 note=57 velocity=71 time=0
note_on channel=1 note=57 velocity=0 time=28
note_on channel=1 note=63 velocity=0 time=0
note_on channel=1 note=53 velocity=0 time=0
control_change channel=1 control=10 value=40 time=31
note_on channel=1 note=46 velocity=76 time=1
note_on channel=1 note=46 velocity=0 time=48
control_change channel=1 control=10 value=54 time=11
note_on channel=1 note=62 velocity=71 time=1
note_on channel=1 note=58 velocity=71 time=0
note_on channel=1 note=53 velocity=71 time=0
note_on channel=1 note=53 velocity=0 time=28
note_on channel=1 note=58 velocity=0 time=0
note_on channel=1 note=62 velocity=0 time=0
control_change channel=1 control=10 value=34 time=31
note_on channel=1 note=41 velocity=76 time=1
note_on channel=1 note=41 velocity=0 time=48
control_change channel=1 control=10 value=54 time=11
note_on channel=1 note=62 velocity=71 time=1
note_on channel=1 note=53 velocity=71 time=0
note_on channel=1 note=58 velocity=71 time=0
note_on channel=1 note=58 velocity=0 time=28
note_on channel=1 note=53 velocity=0 time=0
note_on channel=1 note=62 velocity=0 time=0
control_change channel=1 control=10 value=34 time=31
note_on channel=1 note=41 velocity=76 time=1
note_on channel=1 note=41 velocity=0 time=48
control_change channel=1 control=10 value=54 time=11
note_on channel=1 note=63 velocity=71 time=1
note_on channel=1 note=53 velocity=71 time=0
note_on channel=1 note=57 velocity=71 time=0
note_on channel=1 note=57 velocity=0 time=28
note_on channel=1 note=53 velocity=0 time=0
note_on channel=1 note=63 velocity=0 time=0
control_change channel=1 control=10 value=34 time=31
note_on channel=1 note=41 velocity=76 time=1
note_on channel=1 note=41 velocity=0 time=48
control_change channel=1 control=10 value=52 time=11
note_on channel=1 note=53 velocity=74 time=1
note_on channel=1 note=57 velocity=74 time=0
note_on channel=1 note=57 velocity=0 time=28
note_on channel=1 note=53 velocity=0 time=0
control_change channel=1 control=10 value=40 time=31
note_on channel=1 note=46 velocity=82 time=1
control_change channel=1 control=10 value=44 time=29
note_on channel=1 note=49 velocity=76 time=2
note_on channel=1 note=46 velocity=0 time=7
control_change channel=1 control=10 value=48 time=21
note_on channel=1 note=52 velocity=84 time=1
note_on channel=1 note=49 velocity=0 time=3
control_change channel=1 control=10 value=52 time=26
note_on channel=1 note=55 velocity=82 time=2
note_on channel=1 note=52 velocity=0 time=7
control_change channel=1 control=10 value=56 time=21
note_on channel=1 note=58 velocity=94 time=1
note_on channel=1 note=55 velocity=0 time=3
note_on channel=1 note=58 velocity=0 time=56
control_change channel=1 control=10 value=43 time=60
note_on channel=1 note=48 velocity=76 time=1
note_on channel=1 note=48 velocity=0 time=48
control_change channel=1 control=10 value=54 time=11
note_on channel=1 note=57 velocity=71 time=1
note_on channel=1 note=53 velocity=71 time=0
note_on channel=1 note=63 velocity=71 time=0
note_on channel=1 note=63 velocity=0 time=28
note_on channel=1 note=53 velocity=0 time=0
note_on channel=1 note=57 velocity=0 time=0
control_change channel=1 control=10 value=34 time=31
note_on channel=1 note=41 velocity=76 time=1
note_on channel=1 note=41 velocity=0 time=48
control_change channel=1 control=10 value=54 time=11
note_on channel=1 note=53 velocity=71 time=1
note_on channel=1 note=63 velocity=71 time=0
note_on channel=1 note=57 velocity=71 time=0
note_on channel=1 note=57 velocity=0 time=28
note_on channel=1 note=63 velocity=0 time=0
note_on channel=1 note=53 velocity=0 time=0
control_change channel=1 control=10 value=40 time=31
note_on channel=1 note=46 velocity=76 time=1
note_on channel=1 note=46 velocity=0 time=48
control_change channel=1 control=10 value=54 time=11
note_on channel=1 note=53 velocity=71 time=1
note_on channel=1 note=58 velocity=71 time=0
note_on channel=1 note=62 velocity=71 time=0
note_on channel=1 note=62 velocity=0 time=28
note_on channel=1 note=58 velocity=0 time=0
note_on channel=1 note=53 velocity=0 time=0
control_change channel=1 control=10 value=61 time=31
note_on channel=1 note=62 velocity=84 time=1
note_on channel=1 note=62 velocity=0 time=48
note_on channel=1 note=60 velocity=78 time=12
note_on channel=1 note=60 velocity=0 time=48
control_change channel=1 control=10 value=68 time=11
note_on channel=1 note=66 velocity=84 time=1
note_on channel=1 note=69 velocity=84 time=0
note_on channel=1 note=72 velocity=84 time=0
note_on channel=1 note=62 velocity=84 time=0
note_on channel=1 note=62 velocity=0 time=109
note_on channel=1 note=66 velocity=0 time=0
note_on channel=1 note=69 velocity=0 time=0
note_on channel=1 note=72 velocity=0 time=0
control_change channel=1 control=10 value=75 time=10
note_on channel=1 note=69 velocity=93 time=1
note_on channel=1 note=78 velocity=93 time=0
note_on channel=1 note=74 velocity=93 time=0
note_on channel=1 note=72 velocity=93 time=0
note_on channel=1 note=72 velocity=0 time=54
note_on channel=1 note=69 velocity=0 time=0
note_on channel=1 note=78 velocity=0 time=0
note_on channel=1 note=74 velocity=0 time=0
control_change channel=1 control=10 value=79 time=5
note_on channel=1 note=81 velocity=96 time=1
note_on channel=1 note=72 velocity=96 time=0
note_on channel=1 note=74 velocity=96 time=0
note_on channel=1 note=78 velocity=96 time=0
note_on channel=1 note=78 velocity=0 time=48
note_on channel=1 note=81 velocity=0 time=0
note_on channel=1 note=72 velocity=0 time=0
note_on channel=1 note=74 velocity=0 time=0
note_on channel=1 note=70 velocity=91 time=12
note_on channel=1 note=79 velocity=91 time=0
note_on channel=1 note=74 velocity=91 time=0
note_on channel=1 note=74 velocity=0 time=54
note_on channel=1 note=79 velocity=0 time=0
note_on channel=1 note=70 velocity=0 time=0
control_change channel=1 control=10 value=44 time=5
note_on channel=1 note=55 velocity=90 time=1
note_on channel=1 note=43 velocity=90 time=0
note_on channel=1 note=42 velocity=83 time=31
note_on channel=1 note=54 velocity=83 time=0
note_on channel=1 note=43 velocity=0 time=11
note_on channel=1 note=55 velocity=0 time=0
note_on channel=1 note=53 velocity=96 time=18
note_on channel=1 note=41 velocity=96 time=0
note_on channel=1 note=42 velocity=0 time=4
note_on channel=1 note=54 velocity=0 time=0
note_on channel=1 note=53 velocity=0 time=55
note_on channel=1 note=41 velocity=0 time=0
note_on channel=1 note=48 velocity=75 time=61
note_on channel=1 note=48 velocity=0 time=48
control_change channel=1 control=10 value=54 time=11
note_on channel=1 note=53 velocity=70 time=1
note_on channel=1 note=63 velocity=70 time=0
note_on channel=1 note=57 velocity=70 time=0
note_on channel=1 note=57 velocity=0 time=29
note_on channel=1 note=63 velocity=0 time=0
note_on channel=1 note=53 velocity=0 time=0
control_change channel=1 control=10 value=34 time=30
note_on channel=1 note=41 velocity=75 time=1
note_on channel=1 note=41 velocity=0 time=48
control_change channel=1 control=10 value=54 time=11
note_on channel=1 note=57 velocity=70 time=1
note_on channel=1 note=53 velocity=70 time=0
note_on channel=1 note=63 velocity=70 time=0
note_on channel=1 note=63 velocity=0 time=29
note_on channel=1 note=53 velocity=0 time=0
note_on channel=1 note=57 velocity=0 time=0
control_change channel=1 control=10 value=40 time=30
note_on channel=1 note=46 velocity=75 time=1
note_on channel=1 note=46 velocity=0 time=48
control_change channel=1 control=10 value=54 time=11
note_on channel=1 note=53 velocity=70 time=1
note_on channel=1 note=58 velocity=70 time=0
note_on channel=1 note=62 velocity=70 time=0
note_on channel=1 note=62 velocity=0 time=29
note_on channel=1 note=58 velocity=0 time=0
note_on channel=1 note=53 velocity=0 time=0
control_change channel=1 control=10 value=34 time=30
note_on channel=1 note=41 velocity=75 time=1
note_on channel=1 note=41 velocity=0 time=48
control_change channel=1 control=10 value=54 time=11
note_on channel=1 note=58 velocity=70 time=1
note_on channel=1 note=53 velocity=70 time=0
note_on channel=1 note=62 velocity=70 time=0
note_on channel=1 note=62 velocity=0 time=29
note_on channel=1 note=53 velocity=0 time=0
note_on channel=1 note=58 velocity=0 time=0
note_on channel=1 note=53 velocity=88 time=31
note_on channel=1 note=57 velocity=82 time=0
note_on channel=1 note=57 velocity=0 time=111
note_on channel=1 note=53 velocity=0 time=0
control_change channel=1 control=10 value=49 time=8
note_on channel=1 note=51 velocity=83 time=1
note_on channel=1 note=57 velocity=76 time=0
note_on channel=1 note=57 velocity=0 time=104
note_on channel=1 note=51 velocity=0 time=0
note_on channel=1 note=50 velocity=82 time=16
note_on channel=1 note=57 velocity=74 time=0
note_on channel=1 note=50 velocity=0 time=29
control_change channel=1 control=10 value=37 time=20
note_on channel=1 note=44 velocity=83 time=1
note_on channel=1 note=45 velocity=87 time=10
note_on channel=1 note=44 velocity=0 time=10
note_on channel=1 note=57 velocity=0 time=29
note_on channel=1 note=45 velocity=0 time=20
control_change channel=1 control=10 value=30 time=0
note_on channel=1 note=38 velocity=87 time=1
note_on channel=1 note=38 velocity=0 time=59
control_change channel=1 control=10 value=39 time=0
note_on channel=1 note=50 velocity=82 time=1
note_on channel=1 note=50 velocity=0 time=59
control_change channel=1 control=10 value=43 time=0
note_on channel=1 note=48 velocity=87 time=1
note_on channel=1 note=50 velocity=82 time=31
note_on channel=1 note=48 velocity=0 time=4
control_change channel=1 control=10 value=47 time=24
note_on channel=1 note=50 velocity=0 time=1
note_on channel=1 note=51 velocity=88 time=0
control_change channel=1 control=10 value=52 time=29
note_on channel=1 note=55 velocity=92 time=2
note_on channel=1 note=51 velocity=0 time=4
note_on channel=1 note=55 velocity=0 time=55
note_on channel=1 note=54 velocity=90 time=1
note_on channel=1 note=53 velocity=99 time=29
note_on channel=1 note=54 velocity=0 time=6
note_on channel=1 note=53 velocity=0 time=53
control_change channel=1 control=10 value=58 time=0
note_on channel=1 note=60 velocity=89 time=1
note_on channel=1 note=62 velocity=85 time=31
note_on channel=1 note=60 velocity=0 time=4
control_change channel=1 control=10 value=62 time=24
note_on channel=1 note=62 velocity=0 time=1
note_on channel=1 note=63 velocity=91 time=0
control_change channel=1 control=10 value=68 time=29
note_on channel=1 note=67 velocity=101 time=2
note_on channel=1 note=63 velocity=0 time=4
note_on channel=1 note=67 velocity=0 time=55
note_on channel=1 note=66 velocity=91 time=1
note_on channel=1 note=65 velocity=96 time=29
note_on channel=1 note=66 velocity=0 time=6
note_on channel=1 note=65 velocity=0 time=53
control_change channel=1 control=10 value=34 time=0
note_on channel=1 note=41 velocity=75 time=1
note_on channel=1 note=41 velocity=0 time=48
control_change channel=1 control=10 value=52 time=11
note_on channel=1 note=53 velocity=70 time=1
note_on channel=1 note=58 velocity=70 time=0
note_on channel=1 note=58 velocity=0 time=29
note_on channel=1 note=53 velocity=0 time=0
control_change channel=1 control=10 value=34 time=30
note_on channel=1 note=41 velocity=75 time=1
note_on channel=1 note=41 velocity=0 time=48
control_change channel=1 control=10 value=52 time=11
note_on channel=1 note=53 velocity=70 time=1
note_on channel=1 note=57 velocity=70 time=0
note_on channel=1 note=57 velocity=0 time=38
note_on channel=1 note=53 velocity=0 time=0
control_change channel=1 control=10 value=48 time=21
note_on channel=1 note=46 velocity=83 time=1
note_on channel=1 note=58 velocity=83 time=0
note_on channel=1 note=58 velocity=0 time=59
note_on channel=1 note=46 velocity=0 time=0
note_on channel=1 note=51 velocity=74 time=1
note_on channel=1 note=52 velocity=72 time=31
note_on channel=1 note=51 velocity=0 time=8
note_on channel=1 note=53 velocity=79 time=21
note_on channel=1 note=52 velocity=0 time=3
note_on channel=1 note=54 velocity=74 time=28
note_on channel=1 note=53 velocity=0 time=8
control_change channel=1 control=10 value=52 time=20
note_on channel=1 note=55 velocity=82 time=1
note_on channel=1 note=54 velocity=0 time=3
note_on channel=1 note=57 velocity=76 time=28
note_on channel=1 note=55 velocity=0 time=8
control_change channel=1 control=10 value=48 time=20
note_on channel=1 note=57 velocity=0 time=1
note_on channel=1 note=46 velocity=76 time=0
note_on channel=1 note=58 velocity=76 time=0
note_on channel=1 note=58 velocity=0 time=52
note_on channel=1 note=46 velocity=0 time=0
control_change channel=1 control=10 value=54 time=7
note_on channel=1 note=53 velocity=70 time=1
note_on channel=1 note=58 velocity=70 time=0
note_on channel=1 note=62 velocity=70 time=0
note_on channel=1 note=62 velocity=0 time=28
note_on channel=1 note=58 velocity=0 time=0
note_on channel=1 note=53 velocity=0 time=0
control_change channel=1 control=10 value=45 time=31
note_on channel=1 note=50 velocity=73 time=1
note_on channel=1 note=50 velocity=0 time=52
control_change channel=1 control=10 value=54 time=7
note_on channel=1 note=62 velocity=66 time=1
note_on channel=1 note=53 velocity=66 time=0
note_on channel=1 note=58 velocity=66 time=0
note_on channel=1 note=58 velocity=0 time=28
note_on channel=1 note=53 velocity=0 time=0
note_on channel=1 note=62 velocity=0 time=0
control_change channel=1 control=10 value=47 time=31
note_on channel=1 note=51 velocity=73 time=1
note_on channel=1 note=51 velocity=0 time=52
control_change channel=1 control=10 value=56 time=7
note_on channel=1 note=63 velocity=66 time=1
note_on channel=1 note=55 velocity=66 time=0
note_on channel=1 note=58 velocity=66 time=0
note_on channel=1 note=58 velocity=0 time=28
note_on channel=1 note=55 velocity=0 time=0
note_on channel=1 note=63 velocity=0 time=0
note_on channel=1 note=62 velocity=79 time=32
note_on channel=1 note=50 velocity=79 time=0
note_on channel=1 note=50 velocity=0 time=59
note_on channel=1 note=62 velocity=0 time=0
control_change channel=1 control=10 value=52 time=0
note_on channel=1 note=49 velocity=76 time=1
note_on channel=1 note=61 velocity=76 time=0
note_on channel=1 note=61 velocity=0 time=44
note_on channel=1 note=49 velocity=0 time=0
note_on channel=1 note=48 velocity=73 time=16
note_on channel=1 note=60 velocity=73 time=0
note_on channel=1 note=60 velocity=0 time=52
note_on channel=1 note=48 velocity=0 time=0
note_on channel=1 note=63 velocity=66 time=8
note_on channel=1 note=57 velocity=66 time=0
note_on channel=1 note=53 velocity=66 time=0
note_on channel=1 note=53 velocity=0 time=28
note_on channel=1 note=57 velocity=0 time=0
note_on channel=1 note=63 velocity=0 time=0
control_change channel=1 control=10 value=41 time=31
note_on channel=1 note=53 velocity=73 time=1
note_on channel=1 note=41 velocity=73 time=0
note_on channel=1 note=41 velocity=0 time=52
note_on channel=1 note=53 velocity=0 time=0
control_change channel=1 control=10 value=54 time=7
note_on channel=1 note=63 velocity=66 time=1
note_on channel=1 note=53 velocity=66 time=0
note_on channel=1 note=57 velocity=66 time=0
note_on channel=1 note=57 velocity=0 time=28
note_on channel=1 note=53 velocity=0 time=0
note_on channel=1 note=63 velocity=0 time=0
control_change channel=1 control=10 value=48 time=31
note_on channel=1 note=58 velocity=73 time=1
note_on channel=1 note=46 velocity=73 time=0
note_on channel=1 note=46 velocity=0 time=52
note_on channel=1 note=58 velocity=0 time=0
control_change channel=1 control=10 value=54 time=7
note_on channel=1 note=58 velocity=66 time=1
note_on channel=1 note=62 velocity=66 time=0
note_on channel=1 note=53 velocity=66 time=0
note_on channel=1 note=53 velocity=0 time=28
note_on channel=1 note=62 velocity=0 time=0
note_on channel=1 note=58 velocity=0 time=0
control_change channel=1 control=10 value=41 time=31
note_on channel=1 note=41 velocity=73 time=1
note_on channel=1 note=53 velocity=73 time=0
note_on channel=1 note=53 velocity=0 time=52
note_on channel=1 note=41 velocity=0 time=0
control_change channel=1 control=10 value=54 time=7
note_on channel=1 note=58 velocity=66 time=1
note_on channel=1 note=53 velocity=66 time=0
note_on channel=1 note=62 velocity=66 time=0
note_on channel=1 note=62 velocity=0 time=28
note_on channel=1 note=53 velocity=0 time=0
note_on channel=1 note=58 velocity=0 time=0
control_change channel=1 control=10 value=40 time=31
note_on channel=1 note=46 velocity=73 time=1
note_on channel=1 note=46 velocity=0 time=52
control_change channel=1 control=10 value=54 time=7
note_on channel=1 note=58 velocity=66 time=1
note_on channel=1 note=62 velocity=66 time=0
note_on channel=1 note=53 velocity=66 time=0
note_on channel=1 note=53 velocity=0 time=28
note_on channel=1 note=62 velocity=0 time=0
note_on channel=1 note=58 velocity=0 time=0
control_change channel=1 control=10 value=45 time=31
note_on channel=1 note=50 velocity=73 time=1
note_on channel=1 note=50 velocity=0 time=52
control_change channel=1 control=10 value=54 time=7
note_on channel=1 note=53 velocity=66 time=1
note_on channel=1 note=62 velocity=66 time=0
note_on channel=1 note=58 velocity=66 time=0
note_on channel=1 note=58 velocity=0 time=28
note_on channel=1 note=62 velocity=0 time=0
note_on channel=1 note=53 velocity=0 time=0
control_change channel=1 control=10 value=47 time=31
note_on channel=1 note=51 velocity=73 time=1
note_on channel=1 note=51 velocity=0 time=52
control_change channel=1 control=10 value=56 time=7
note_on channel=1 note=58 velocity=66 time=1
note_on channel=1 note=63 velocity=66 time=0
note_on channel=1 note=55 velocity=66 time=0
note_on channel=1 note=55 velocity=0 time=28
note_on channel=1 note=63 velocity=0 time=0
note_on channel=1 note=58 velocity=0 time=0
note_on channel=1 note=62 velocity=73 time=32
note_on channel=1 note=50 velocity=73 time=0
note_on channel=1 note=50 velocity=0 time=59
note_on channel=1 note=62 velocity=0 time=0
control_change channel=1 control=10 value=49 time=0
note_on channel=1 note=47 velocity=75 time=1
note_on channel=1 note=59 velocity=75 time=0
note_on channel=1 note=59 velocity=0 time=44
note_on channel=1 note=47 velocity=0 time=0
note_on channel=1 note=48 velocity=71 time=16
note_on channel=1 note=60 velocity=71 time=0
note_on channel=1 note=60 velocity=0 time=52
note_on channel=1 note=48 velocity=0 time=0
control_change channel=1 control=10 value=56 time=7
note_on channel=1 note=57 velocity=75 time=1
note_on channel=1 note=60 velocity=75 time=0
note_on channel=1 note=60 velocity=0 time=28
note_on channel=1 note=57 velocity=0 time=0
control_change channel=1 control=10 value=43 time=31
note_on channel=1 note=48 velocity=71 time=1
note_on channel=1 note=48 velocity=0 time=52
control_change channel=1 control=10 value=58 time=7
note_on channel=1 note=58 velocity=75 time=1
note_on channel=1 note=64 velocity=75 time=0
note_on channel=1 note=60 velocity=75 time=0
note_on channel=1 note=60 velocity=0 time=36
note_on channel=1 note=64 velocity=0 time=0
note_on channel=1 note=58 velocity=0 time=0
note_on channel=1 note=65 velocity=79 time=24
note_on channel=1 note=53 velocity=79 time=0
note_on channel=1 note=60 velocity=79 time=0
note_on channel=1 note=57 velocity=79 time=0
note_on channel=1 note=57 velocity=0 time=60
note_on channel=1 note=65 velocity=0 time=0
note_on channel=1 note=53 velocity=0 time=0
note_on channel=1 note=60 velocity=0 time=0
note_on channel=1 note=57 velocity=82 time=60
note_on channel=1 note=53 velocity=82 time=0
note_on channel=1 note=60 velocity=82 time=0
note_on channel=1 note=63 velocity=82 time=0
note_on channel=1 note=63 velocity=0 time=101
note_on channel=1 note=57 velocity=0 time=0
note_on channel=1 note=53 velocity=0 time=0
note_on channel=1 note=60 velocity=0 time=0
control_change channel=1 control=10 value=40 time=18
note_on channel=1 note=46 velocity=71 time=1
note_on channel=1 note=46 velocity=0 time=48
control_change channel=1 control=10 value=54 time=11
note_on channel=1 note=62 velocity=66 time=1
note_on channel=1 note=58 velocity=66 time=0
note_on channel=1 note=53 velocity=66 time=0
note_on channel=1 note=53 velocity=0 time=27
note_on channel=1 note=58 velocity=0 time=0
note_on channel=1 note=62 velocity=0 time=0
control_change channel=1 control=10 value=45 time=32
note_on channel=1 note=50 velocity=71 time=1
note_on channel=1 note=50 velocity=0 time=48
control_change channel=1 control=10 value=54 time=11
note_on channel=1 note=62 velocity=66 time=1
note_on channel=1 note=58 velocity=66 time=0
note_on channel=1 note=53 velocity=66 time=0
note_on channel=1 note=53 velocity=0 time=27
note_on channel=1 note=58 velocity=0 time=0
note_on channel=1 note=62 velocity=0 time=0
control_change channel=1 control=10 value=47 time=32
note_on channel=1 note=51 velocity=71 time=1
note_on channel=1 note=51 velocity=0 time=48
control_change channel=1 control=10 value=56 time=11
note_on channel=1 note=55 velocity=66 time=1
note_on channel=1 note=58 velocity=66 time=0
note_on channel=1 note=63 velocity=66 time=0
note_on channel=1 note=63 velocity=0 time=27
note_on channel=1 note=58 velocity=0 time=0
note_on channel=1 note=55 velocity=0 time=0
note_on channel=1 note=50 velocity=71 time=33
note_on channel=1 note=62 velocity=71 time=0
note_on channel=1 note=62 velocity=0 time=55
note_on channel=1 note=50 velocity=0 time=0
control_change channel=1 control=10 value=52 time=4
note_on channel=1 note=49 velocity=75 time=1
note_on channel=1 note=61 velocity=75 time=0
note_on channel=1 note=61 velocity=0 time=42
note_on channel=1 note=49 velocity=0 time=0
note_on channel=1 note=60 velocity=71 time=18
note_on channel=1 note=48 velocity=71 time=0
note_on channel=1 note=48 velocity=0 time=48
note_on channel=1 note=60 velocity=0 time=0
note_on channel=1 note=53 velocity=66 time=12
note_on channel=1 note=63 velocity=66 time=0
note_on channel=1 note=57 velocity=66 time=0
note_on channel=1 note=57 velocity=0 time=27
note_on channel=1 note=63 velocity=0 time=0
note_on channel=1 note=53 velocity=0 time=0
control_change channel=1 control=10 value=41 time=32
note_on channel=1 note=53 velocity=71 time=1
note_on channel=1 note=41 velocity=71 time=0
note_on channel=1 note=41 velocity=0 time=48
note_on channel=1 note=53 velocity=0 time=0
control_change channel=1 control=10 value=54 time=11
note_on channel=1 note=63 velocity=66 time=1
note_on channel=1 note=53 velocity=66 time=0
note_on channel=1 note=57 velocity=66 time=0
note_on channel=1 note=57 velocity=0 time=27
note_on channel=1 note=53 velocity=0 time=0
note_on channel=1 note=63 velocity=0 time=0
control_change channel=1 control=10 value=48 time=32
note_on channel=1 note=46 velocity=71 time=1
note_on channel=1 note=58 velocity=71 time=0
note_on channel=1 note=58 velocity=0 time=48
note_on channel=1 note=46 velocity=0 time=0
control_change channel=1 control=10 value=54 time=11
note_on channel=1 note=58 velocity=66 time=1
note_on channel=1 note=53 velocity=66 time=0
note_on channel=1 note=62 velocity=66 time=0
note_on channel=1 note=62 velocity=0 time=27
note_on channel=1 note=53 velocity=0 time=0
note_on channel=1 note=58 velocity=0 time=0
control_change channel=1 control=10 value=48 time=32
note_on channel=1 note=46 velocity=81 time=1
note_on channel=1 note=58 velocity=81 time=0
note_on channel=1 note=58 velocity=0 time=55
note_on channel=1 note=46 velocity=0 time=0
note_on channel=1 note=47 velocity=87 time=5
note_on channel=1 note=59 velocity=87 time=0
note_on channel=1 note=59 velocity=0 time=48
note_on channel=1 note=47 velocity=0 time=0
note_on channel=1 note=60 velocity=83 time=12
note_on channel=1 note=48 velocity=83 time=0
note_on channel=1 note=48 velocity=0 time=48
note_on channel=1 note=60 velocity=0 time=0
control_change channel=1 control=10 value=57 time=11
note_on channel=1 note=63 velocity=87 time=1
note_on channel=1 note=55 velocity=87 time=0
note_on channel=1 note=60 velocity=87 time=0
note_on channel=1 note=60 velocity=0 time=27
note_on channel=1 note=55 velocity=0 time=0
note_on channel=1 note=63 velocity=0 time=0
control_change channel=1 control=10 value=39 time=32
note_on channel=1 note=39 velocity=90 time=1
note_on channel=1 note=51 velocity=90 time=0
note_on channel=1 note=51 velocity=0 time=55
note_on channel=1 note=39 velocity=0 time=0
control_change channel=1 control=10 value=43 time=4
note_on channel=1 note=54 velocity=88 time=1
note_on channel=1 note=42 velocity=88 time=0
note_on channel=1 note=42 velocity=0 time=48
note_on channel=1 note=54 velocity=0 time=0
note_on channel=1 note=53 velocity=81 time=12
note_on channel=1 note=41 velocity=81 time=0
note_on channel=1 note=41 velocity=0 time=48
note_on channel=1 note=53 velocity=0 time=0
control_change channel=1 control=10 value=54 time=11
note_on channel=1 note=53 velocity=89 time=1
note_on channel=1 note=62 velocity=89 time=0
note_on channel=1 note=58 velocity=89 time=0
note_on channel=1 note=58 velocity=0 time=27
note_on channel=1 note=62 velocity=0 time=0
note_on channel=1 note=53 velocity=0 time=0
control_change channel=1 control=10 value=44 time=32
note_on channel=1 note=43 velocity=80 time=1
note_on channel=1 note=55 velocity=80 time=0
note_on channel=1 note=55 velocity=0 time=48
note_on channel=1 note=43 velocity=0 time=0
control_change channel=1 control=10 value=54 time=11
note_on channel=1 note=55 velocity=74 time=1
note_on channel=1 note=59 velocity=74 time=0
note_on channel=1 note=59 velocity=0 time=27
note_on channel=1 note=55 velocity=0 time=0
control_change channel=1 control=10 value=43 time=32
note_on channel=1 note=48 velocity=82 time=1
note_on channel=1 note=48 velocity=0 time=48
control_change channel=1 control=10 value=54 time=11
note_on channel=1 note=55 velocity=87 time=1
note_on channel=1 note=58 velocity=87 time=0
note_on channel=1 note=60 velocity=87 time=0
note_on channel=1 note=60 velocity=0 time=27
note_on channel=1 note=58 velocity=0 time=0
note_on channel=1 note=55 velocity=0 time=0
control_change channel=1 control=10 value=34 time=32
note_on channel=1 note=41 velocity=82 time=1
note_on channel=1 note=41 velocity=0 time=48
control_change channel=1 control=10 value=52 time=11
note_on channel=1 note=53 velocity=82 time=1
note_on channel=1 note=57 velocity=82 time=0
control_change channel=1 control=10 value=48 time=59
note_on channel=1 note=46 velocity=87 time=1
note_on channel=1 note=58 velocity=87 time=0
note_on channel=1 note=57 velocity=0 time=7
note_on channel=1 note=53 velocity=0 time=0
note_on channel=1 note=46 velocity=0 time=52
note_on channel=1 note=58 velocity=0 time=0
note_on channel=1 note=53 velocity=85 time=1
note_on channel=1 note=53 velocity=0 time=53
control_change channel=1 control=10 value=40 time=6
note_on channel=1 note=46 velocity=94 time=1
note_on channel=1 note=46 velocity=0 time=109
note_on channel=1 note=51 velocity=77 time=11
note_on channel=1 note=39 velocity=77 time=0
control_change channel=1 control=10 value=36 time=59
note_on channel=1 note=43 velocity=73 time=1
note_on channel=1 note=39 velocity=0 time=28
note_on channel=1 note=51 velocity=0 time=0
control_change channel=1 control=10 value=40 time=31
note_on channel=1 note=46 velocity=76 time=1
note_on channel=1 note=43 velocity=0 time=11
control_change channel=1 control=10 value=47 time=48
note_on channel=1 note=51 velocity=75 time=1
note_on channel=1 note=46 velocity=0 time=28
note_on channel=1 note=51 velocity=0 time=20
control_change channel=1 control=10 value=39 time=11
note_on channel=1 note=51 velocity=77 time=1
note_on channel=1 note=39 velocity=77 time=0
control_change channel=1 control=10 value=52 time=59
note_on channel=1 note=55 velocity=74 time=1
note_on channel=1 note=39 velocity=0 time=28
note_on channel=1 note=51 velocity=0 time=0
control_change channel=1 control=10 value=56 time=31
note_on channel=1 note=58 velocity=76 time=1
note_on channel=1 note=55 velocity=0 time=11
control_change channel=1 control=10 value=62 time=48
note_on channel=1 note=63 velocity=75 time=1
note_on channel=1 note=58 velocity=0 time=28
note_on channel=1 note=63 velocity=0 time=20
control_change channel=1 control=10 value=45 time=11
note_on channel=1 note=44 velocity=66 time=1
note_on channel=1 note=56 velocity=66 time=0
note_on channel=1 note=56 velocity=0 time=48
note_on channel=1 note=44 velocity=0 time=0
control_change channel=1 control=10 value=60 time=11
note_on channel=1 note=63 velocity=61 time=1
note_on channel=1 note=60 velocity=61 time=0
note_on channel=1 note=65 velocity=61 time=0
note_on channel=1 note=56 velocity=61 time=0
note_on channel=1 note=56 velocity=0 time=30
note_on channel=1 note=63 velocity=0 time=0
note_on channel=1 note=60 velocity=0 time=0
note_on channel=1 note=65 velocity=0 time=0
control_change channel=1 control=10 value=45 time=29
note_on channel=1 note=56 velocity=65 time=1
note_on channel=1 note=44 velocity=65 time=0
note_on channel=1 note=44 velocity=0 time=60
note_on channel=1 note=56 velocity=0 time=0
note_on channel=1 note=45 velocity=69 time=0
note_on channel=1 note=57 velocity=69 time=0
note_on channel=1 note=57 velocity=0 time=48
note_on channel=1 note=45 velocity=0 time=0
note_on channel=1 note=46 velocity=66 time=12
note_on channel=1 note=58 velocity=66 time=0
note_on channel=1 note=58 velocity=0 time=60
note_on channel=1 note=46 velocity=0 time=0
note_on channel=1 note=57 velocity=63 time=0
note_on channel=1 note=45 velocity=63 time=0
note_on channel=1 note=45 velocity=0 time=48
note_on channel=1 note=57 velocity=0 time=0
note_on channel=1 note=56 velocity=64 time=12
note_on channel=1 note=44 velocity=64 time=0
note_on channel=1 note=44 velocity=0 time=48
note_on channel=1 note=56 velocity=0 time=0
control_change channel=1 control=10 value=32 time=11
note_on channel=1 note=46 velocity=70 time=1
note_on channel=1 note=34 velocity=70 time=0
note_on channel=1 note=34 velocity=0 time=48
note_on channel=1 note=46 velocity=0 time=0
control_change channel=1 control=10 value=39 time=11
note_on channel=1 note=39 velocity=77 time=1
note_on channel=1 note=51 velocity=77 time=0
note_on channel=1 note=43 velocity=73 time=60
note_on channel=1 note=51 velocity=0 time=32
note_on channel=1 note=39 velocity=0 time=0
note_on channel=1 note=46 velocity=76 time=28
note_on channel=1 note=43 velocity=0 time=15
control_change channel=1 control=10 value=47 time=44
note_on channel=1 note=51 velocity=75 time=1
note_on channel=1 note=46 velocity=0 time=21
note_on channel=1 note=51 velocity=0 time=27
control_change channel=1 control=10 value=39 time=11
note_on channel=1 note=51 velocity=75 time=1
note_on channel=1 note=39 velocity=75 time=0
control_change channel=1 control=10 value=52 time=59
note_on channel=1 note=55 velocity=72 time=1
note_on channel=1 note=39 velocity=0 time=32
note_on channel=1 note=51 velocity=0 time=0
control_change channel=1 control=10 value=56 time=27
note_on channel=1 note=58 velocity=76 time=1
note_on channel=1 note=55 velocity=0 time=15
note_on channel=1 note=63 velocity=80 time=45
note_on channel=1 note=51 velocity=80 time=0
note_on channel=1 note=58 velocity=0 time=21
note_on channel=1 note=51 velocity=0 time=38
note_on channel=1 note=63 velocity=0 time=0
note_on channel=1 note=50 velocity=88 time=1
note_on channel=1 note=62 velocity=88 time=0
note_on channel=1 note=62 velocity=0 time=48
note_on channel=1 note=50 velocity=0 time=0
control_change channel=1 control=10 value=61 time=11
note_on channel=1 note=67 velocity=70 time=1
note_on channel=1 note=58 velocity=70 time=0
note_on channel=1 note=62 velocity=70 time=0
note_on channel=1 note=62 velocity=0 time=30
note_on channel=1 note=58 velocity=0 time=0
note_on channel=1 note=67 velocity=0 time=0
control_change channel=1 control=10 value=43 time=29
note_on channel=1 note=54 velocity=82 time=1
note_on channel=1 note=42 velocity=82 time=0
note_on channel=1 note=42 velocity=0 time=48
note_on channel=1 note=54 velocity=0 time=0
control_change channel=1 control=10 value=61 time=11
note_on channel=1 note=66 velocity=78 time=1
note_on channel=1 note=60 velocity=78 time=0
note_on channel=1 note=62 velocity=78 time=0
note_on channel=1 note=62 velocity=0 time=30
note_on channel=1 note=60 velocity=0 time=0
note_on channel=1 note=66 velocity=0 time=0
control_change channel=1 control=10 value=44 time=29
note_on channel=1 note=43 velocity=78 time=1
note_on channel=1 note=55 velocity=78 time=0
note_on channel=1 note=55 velocity=0 time=48
note_on channel=1 note=43 velocity=0 time=0
control_change channel=1 control=10 value=61 time=11
note_on channel=1 note=67 velocity=88 time=1
note_on channel=1 note=62 velocity=88 time=0
note_on channel=1 note=58 velocity=88 time=0
note_on channel=1 note=58 velocity=0 time=98
note_on channel=1 note=62 velocity=0 time=0
note_on channel=1 note=67 velocity=0 time=0
control_change channel=1 control=10 value=48 time=21
note_on channel=1 note=46 velocity=65 time=1
note_on channel=1 note=58 velocity=65 time=0
note_on channel=1 note=58 velocity=0 time=48
note_on channel=1 note=46 velocity=0 time=0
control_change channel=1 control=10 value=39 time=11
note_on channel=1 note=39 velocity=71 time=1
note_on channel=1 note=51 velocity=71 time=0
note_on channel=1 note=43 velocity=68 time=60
note_on channel=1 note=51 velocity=0 time=11
note_on channel=1 note=39 velocity=0 time=0
note_on channel=1 note=43 velocity=0 time=47
note_on channel=1 note=46 velocity=75 time=2
control_change channel=1 control=10 value=47 time=59
note_on channel=1 note=51 velocity=71 time=1
note_on channel=1 note=46 velocity=0 time=11
note_on channel=1 note=51 velocity=0 time=37
control_change channel=1 control=10 value=39 time=11
note_on channel=1 note=51 velocity=77 time=1
note_on channel=1 note=39 velocity=77 time=0
control_change channel=1 control=10 value=52 time=59
note_on channel=1 note=55 velocity=75 time=1
note_on channel=1 note=39 velocity=0 time=11
note_on channel=1 note=51 velocity=0 time=0
note_on channel=1 note=55 velocity=0 time=47
control_change channel=1 control=10 value=56 time=1
note_on channel=1 note=58 velocity=80 time=1
control_change channel=1 control=10 value=62 time=59
note_on channel=1 note=63 velocity=93 time=1
note_on channel=1 note=58 velocity=0 time=11
note_on channel=1 note=63 velocity=0 time=37
control_change channel=1 control=10 value=40 time=11
note_on channel=1 note=52 velocity=89 time=1
note_on channel=1 note=40 velocity=89 time=0
note_on channel=1 note=40 velocity=0 time=48
note_on channel=1 note=52 velocity=0 time=0
control_change channel=1 control=10 value=58 time=11
note_on channel=1 note=64 velocity=77 time=1
note_on channel=1 note=58 velocity=77 time=0
note_on channel=1 note=60 velocity=77 time=0
note_on channel=1 note=60 velocity=0 time=30
note_on channel=1 note=58 velocity=0 time=0
note_on channel=1 note=64 velocity=0 time=0
control_change channel=1 control=10 value=35 time=29
note_on channel=1 note=36 velocity=80 time=1
note_on channel=1 note=48 velocity=80 time=0
note_on channel=1 note=48 velocity=0 time=48
note_on channel=1 note=36 velocity=0 time=0
control_change channel=1 control=10 value=58 time=11
note_on channel=1 note=58 velocity=74 time=1
note_on channel=1 note=64 velocity=74 time=0
note_on channel=1 note=60 velocity=74 time=0
note_on channel=1 note=60 velocity=0 time=30
note_on channel=1 note=64 velocity=0 time=0
note_on channel=1 note=58 velocity=0 time=0
control_change channel=1 control=10 value=41 time=29
note_on channel=1 note=53 velocity=78 time=1
note_on channel=1 note=41 velocity=78 time=0
note_on channel=1 note=41 velocity=0 time=48
note_on channel=1 note=53 velocity=0 time=0
control_change channel=1 control=10 value=58 time=11
note_on channel=1 note=56 velocity=74 time=1
note_on channel=1 note=65 velocity=74 time=0
note_on channel=1 note=60 velocity=74 time=0
note_on channel=1 note=60 velocity=0 time=30
note_on channel=1 note=65 velocity=0 time=0
note_on channel=1 note=56 velocity=0 time=0
control_change channel=1 control=10 value=45 time=29
note_on channel=1 note=56 velocity=74 time=1
note_on channel=1 note=44 velocity=74 time=0
note_on channel=1 note=44 velocity=0 time=48
note_on channel=1 note=56 velocity=0 time=0
control_change channel=1 control=10 value=58 time=11
note_on channel=1 note=65 velocity=78 time=1
note_on channel=1 note=60 velocity=78 time=0
note_on channel=1 note=56 velocity=78 time=0
note_on channel=1 note=56 velocity=0 time=30
note_on channel=1 note=60 velocity=0 time=0
note_on channel=1 note=65 velocity=0 time=0
control_change channel=1 control=10 value=75 time=29
note_on channel=1 note=75 velocity=78 time=1
note_on channel=1 note=78 velocity=78 time=0
note_on channel=1 note=69 velocity=78 time=0
note_on channel=1 note=72 velocity=78 time=0
note_on channel=1 note=72 velocity=0 time=72
note_on channel=1 note=75 velocity=0 time=0
note_on channel=1 note=78 velocity=0 time=0
note_on channel=1 note=69 velocity=0 time=0
control_change channel=1 control=10 value=66 time=47
note_on channel=1 note=66 velocity=75 time=1
note_on channel=1 note=66 velocity=0 time=29
control_change channel=1 control=10 value=61 time=0
note_on channel=1 note=62 velocity=67 time=2
note_on channel=1 note=62 velocity=0 time=29
note_on channel=1 note=63 velocity=73 time=0
note_on channel=1 note=63 velocity=0 time=29
note_on channel=1 note=60 velocity=65 time=2
note_on channel=1 note=60 velocity=0 time=23
note_on channel=1 note=57 velocity=70 time=6
note_on channel=1 note=60 velocity=70 time=0
note_on channel=1 note=63 velocity=70 time=0
note_on channel=1 note=66 velocity=70 time=0
note_on channel=1 note=66 velocity=0 time=72
note_on channel=1 note=57 velocity=0 time=0
note_on channel=1 note=60 velocity=0 time=0
note_on channel=1 note=63 velocity=0 time=0
control_change channel=1 control=10 value=51 time=47
note_on channel=1 note=54 velocity=69 time=1
note_on channel=1 note=54 velocity=0 time=110
note_on channel=1 note=55 velocity=64 time=10
note_on channel=1 note=55 velocity=0 time=113
control_change channel=1 control=10 value=43 time=6
note_on channel=1 note=48 velocity=71 time=1
note_on channel=1 note=48 velocity=0 time=108
control_change channel=1 control=10 value=35 time=11
note_on channel=1 note=48 velocity=69 time=1
note_on channel=1 note=36 velocity=69 time=0
note_on channel=1 note=34 velocity=62 time=60
note_on channel=1 note=46 velocity=62 time=0
note_on channel=1 note=36 velocity=0 time=6
note_on channel=1 note=48 velocity=0 time=0
note_on channel=1 note=34 velocity=0 time=42
note_on channel=1 note=46 velocity=0 time=0
control_change channel=1 control=10 value=39 time=11
note_on channel=1 note=39 velocity=67 time=1
note_on channel=1 note=51 velocity=67 time=0
note_on channel=1 note=51 velocity=0 time=59
note_on channel=1 note=39 velocity=0 time=0
note_on channel=1 note=39 velocity=87 time=61
note_on channel=1 note=51 velocity=87 time=0
note_on channel=1 note=43 velocity=82 time=60
note_on channel=1 note=51 velocity=0 time=7
note_on channel=1 note=39 velocity=0 time=0
note_on channel=1 note=43 velocity=0 time=48
note_on channel=1 note=46 velocity=86 time=5
control_change channel=1 control=10 value=47 time=59
note_on channel=1 note=51 velocity=82 time=1
note_on channel=1 note=46 velocity=0 time=7
note_on channel=1 note=51 velocity=0 time=41
control_change channel=1 control=10 value=39 time=11
note_on channel=1 note=51 velocity=92 time=1
note_on channel=1 note=39 velocity=92 time=0
control_change channel=1 control=10 value=52 time=59
note_on channel=1 note=55 velocity=84 time=1
note_on channel=1 note=39 velocity=0 time=7
note_on channel=1 note=51 velocity=0 time=0
note_on channel=1 note=55 velocity=0 time=48
control_change channel=1 control=10 value=56 time=4
note_on channel=1 note=58 velocity=91 time=1
control_change channel=1 control=10 value=62 time=59
note_on channel=1 note=63 velocity=84 time=1
note_on channel=1 note=58 velocity=0 time=7
note_on channel=1 note=63 velocity=0 time=41
control_change channel=1 control=10 value=45 time=11
note_on channel=1 note=56 velocity=81 time=1
note_on channel=1 note=44 velocity=81 time=0
note_on channel=1 note=44 velocity=0 time=48
note_on channel=1 note=56 velocity=0 time=0
control_change channel=1 control=10 value=60 time=11
note_on channel=1 note=63 velocity=75 time=1
note_on channel=1 note=65 velocity=75 time=0
note_on channel=1 note=56 velocity=75 time=0
note_on channel=1 note=60 velocity=75 time=0
note_on channel=1 note=60 velocity=0 time=30
note_on channel=1 note=63 velocity=0 time=0
note_on channel=1 note=65 velocity=0 time=0
note_on channel=1 note=56 velocity=0 time=0
control_change channel=1 control=10 value=45 time=29
note_on channel=1 note=44 velocity=80 time=1
note_on channel=1 note=56 velocity=80 time=0
note_on channel=1 note=56 velocity=0 time=60
note_on channel=1 note=44 velocity=0 time=0
note_on channel=1 note=45 velocity=84 time=0
note_on channel=1 note=57 velocity=84 time=0
note_on channel=1 note=57 velocity=0 time=48
note_on channel=1 note=45 velocity=0 time=0
note_on channel=1 note=58 velocity=80 time=12
note_on channel=1 note=46 velocity=80 time=0
note_on channel=1 note=46 velocity=0 time=60
note_on channel=1 note=58 velocity=0 time=0
note_on channel=1 note=45 velocity=77 time=0
note_on channel=1 note=57 velocity=77 time=0
note_on channel=1 note=57 velocity=0 time=48
note_on channel=1 note=45 velocity=0 time=0
note_on channel=1 note=56 velocity=77 time=12
note_on channel=1 note=44 velocity=77 time=0
note_on channel=1 note=44 velocity=0 time=48
note_on channel=1 note=56 velocity=0 time=0
control_change channel=1 control=10 value=32 time=11
note_on channel=1 note=46 velocity=85 time=1
note_on channel=1 note=34 velocity=85 time=0
note_on channel=1 note=34 velocity=0 time=48
note_on channel=1 note=46 velocity=0 time=0
control_change channel=1 control=10 value=39 time=11
note_on channel=1 note=39 velocity=83 time=1
note_on channel=1 note=51 velocity=83 time=0
note_on channel=1 note=43 velocity=79 time=60
note_on channel=1 note=51 velocity=0 time=7
note_on channel=1 note=39 velocity=0 time=0
note_on channel=1 note=43 velocity=0 time=48
note_on channel=1 note=46 velocity=83 time=5
control_change channel=1 control=10 value=47 time=59
note_on channel=1 note=51 velocity=79 time=1
note_on channel=1 note=46 velocity=0 time=7
note_on channel=1 note=51 velocity=0 time=41
control_change channel=1 control=10 value=39 time=11
note_on channel=1 note=51 velocity=85 time=1
note_on channel=1 note=39 velocity=85 time=0
control_change channel=1 control=10 value=52 time=59
note_on channel=1 note=55 velocity=79 time=1
note_on channel=1 note=39 velocity=0 time=7
note_on channel=1 note=51 velocity=0 time=0
note_on channel=1 note=55 velocity=0 time=48
control_change channel=1 control=10 value=56 time=4
note_on channel=1 note=58 velocity=84 time=1
note_on channel=1 note=51 velocity=85 time=60
note_on channel=1 note=63 velocity=85 time=0
note_on channel=1 note=58 velocity=0 time=7
note_on channel=1 note=63 velocity=0 time=52
note_on channel=1 note=51 velocity=0 time=0
note_on channel=1 note=50 velocity=90 time=1
note_on channel=1 note=62 velocity=90 time=0
note_on channel=1 note=62 velocity=0 time=48
note_on channel=1 note=50 velocity=0 time=0
control_change channel=1 control=10 value=61 time=11
note_on channel=1 note=67 velocity=83 time=1
note_on channel=1 note=58 velocity=83 time=0
note_on channel=1 note=62 velocity=83 time=0
note_on channel=1 note=62 velocity=0 time=30
note_on channel=1 note=58 velocity=0 time=0
note_on channel=1 note=67 velocity=0 time=0
control_change channel=1 control=10 value=43 time=29
note_on channel=1 note=42 velocity=90 time=1
note_on channel=1 note=54 velocity=90 time=0
note_on channel=1 note=54 velocity=0 time=48
note_on channel=1 note=42 velocity=0 time=0
control_change channel=1 control=10 value=61 time=11
note_on channel=1 note=60 velocity=87 time=1
note_on channel=1 note=66 velocity=87 time=0
note_on channel=1 note=62 velocity=87 time=0
note_on channel=1 note=62 velocity=0 time=30
note_on channel=1 note=66 velocity=0 time=0
note_on channel=1 note=60 velocity=0 time=0
control_change channel=1 control=10 value=44 time=29
note_on channel=1 note=55 velocity=94 time=1
note_on channel=1 note=43 velocity=94 time=0
note_on channel=1 note=43 velocity=0 time=48
note_on channel=1 note=55 velocity=0 time=0
control_change channel=1 control=10 value=61 time=11
note_on channel=1 note=62 velocity=100 time=1
note_on channel=1 note=58 velocity=100 time=0
note_on channel=1 note=67 velocity=100 time=0
note_on channel=1 note=67 velocity=0 time=98
note_on channel=1 note=58 velocity=0 time=0
note_on channel=1 note=62 velocity=0 time=0
control_change channel=1 control=10 value=48 time=21
note_on channel=1 note=46 velocity=79 time=1
note_on channel=1 note=58 velocity=79 time=0
note_on channel=1 note=58 velocity=0 time=48
note_on channel=1 note=46 velocity=0 time=0
control_change channel=1 control=10 value=39 time=11
note_on channel=1 note=39 velocity=84 time=1
note_on channel=1 note=51 velocity=84 time=0
note_on channel=1 note=43 velocity=83 time=60
note_on channel=1 note=51 velocity=0 time=7
note_on channel=1 note=39 velocity=0 time=0
note_on channel=1 note=43 velocity=0 time=48
note_on channel=1 note=46 velocity=85 time=5
control_change channel=1 control=10 value=47 time=59
note_on channel=1 note=51 velocity=81 time=1
note_on channel=1 note=46 velocity=0 time=7
note_on channel=1 note=51 velocity=0 time=41
control_change channel=1 control=10 value=39 time=11
note_on channel=1 note=51 velocity=93 time=1
note_on channel=1 note=39 velocity=93 time=0
control_change channel=1 control=10 value=52 time=59
note_on channel=1 note=55 velocity=85 time=1
note_on channel=1 note=39 velocity=0 time=7
note_on channel=1 note=51 velocity=0 time=0
note_on channel=1 note=55 velocity=0 time=48
control_change channel=1 control=10 value=56 time=4
note_on channel=1 note=58 velocity=95 time=1
control_change channel=1 control=10 value=62 time=59
note_on channel=1 note=63 velocity=106 time=1
note_on channel=1 note=58 velocity=0 time=7
note_on channel=1 note=63 velocity=0 time=41
control_change channel=1 control=10 value=40 time=11
note_on channel=1 note=52 velocity=97 time=1
note_on channel=1 note=40 velocity=97 time=0
note_on channel=1 note=40 velocity=0 time=48
note_on channel=1 note=52 velocity=0 time=0
control_change channel=1 control=10 value=58 time=11
note_on channel=1 note=64 velocity=88 time=1
note_on channel=1 note=58 velocity=88 time=0
note_on channel=1 note=60 velocity=88 time=0
note_on channel=1 note=60 velocity=0 time=30
note_on channel=1 note=58 velocity=0 time=0
note_on channel=1 note=64 velocity=0 time=0
control_change channel=1 control=10 value=35 time=29
note_on channel=1 note=48 velocity=91 time=1
note_on channel=1 note=36 velocity=91 time=0
note_on channel=1 note=36 velocity=0 time=48
note_on channel=1 note=48 velocity=0 time=0
control_change channel=1 control=10 value=58 time=11
note_on channel=1 note=64 velocity=83 time=1
note_on channel=1 note=58 velocity=83 time=0
note_on channel=1 note=60 velocity=83 time=0
note_on channel=1 note=60 velocity=0 time=30
note_on channel=1 note=58 velocity=0 time=0
note_on channel=1 note=64 velocity=0 time=0
control_change channel=1 control=10 value=41 time=29
note_on channel=1 note=41 velocity=89 time=1
note_on channel=1 note=53 velocity=89 time=0
note_on channel=1 note=53 velocity=0 time=48
note_on channel=1 note=41 velocity=0 time=0
control_change channel=1 control=10 value=58 time=11
note_on channel=1 note=60 velocity=85 time=1
note_on channel=1 note=56 velocity=85 time=0
note_on channel=1 note=65 velocity=85 time=0
note_on channel=1 note=65 velocity=0 time=30
note_on channel=1 note=56 velocity=0 time=0
note_on channel=1 note=60 velocity=0 time=0
control_change channel=1 control=10 value=45 time=29
note_on channel=1 note=56 velocity=87 time=1
note_on channel=1 note=44 velocity=87 time=0
note_on channel=1 note=44 velocity=0 time=48
note_on channel=1 note=56 velocity=0 time=0
control_change channel=1 control=10 value=58 time=11
note_on channel=1 note=65 velocity=88 time=1
note_on channel=1 note=60 velocity=88 time=0
note_on channel=1 note=56 velocity=88 time=0
note_on channel=1 note=56 velocity=0 time=30
note_on channel=1 note=60 velocity=0 time=0
note_on channel=1 note=65 velocity=0 time=0
control_change channel=1 control=10 value=75 time=29
note_on channel=1 note=75 velocity=86 time=1
note_on channel=1 note=78 velocity=86 time=0
note_on channel=1 note=69 velocity=86 time=0
note_on channel=1 note=72 velocity=86 time=0
note_on channel=1 note=72 velocity=0 time=72
note_on channel=1 note=75 velocity=0 time=0
note_on channel=1 note=78 velocity=0 time=0
note_on channel=1 note=69 velocity=0 time=0
control_change channel=1 control=10 value=66 time=47
note_on channel=1 note=66 velocity=85 time=1
note_on channel=1 note=66 velocity=0 time=29
control_change channel=1 control=10 value=61 time=0
note_on channel=1 note=62 velocity=77 time=2
note_on channel=1 note=62 velocity=0 time=29
note_on channel=1 note=63 velocity=84 time=0
note_on channel=1 note=63 velocity=0 time=29
note_on channel=1 note=60 velocity=75 time=2
note_on channel=1 note=60 velocity=0 time=23
note_on channel=1 note=57 velocity=81 time=6
note_on channel=1 note=60 velocity=81 time=0
note_on channel=1 note=66 velocity=81 time=0
note_on channel=1 note=63 velocity=81 time=0
note_on channel=1 note=63 velocity=0 time=72
note_on channel=1 note=57 velocity=0 time=0
note_on channel=1 note=60 velocity=0 time=0
note_on channel=1 note=66 velocity=0 time=0
control_change channel=1 control=10 value=51 time=47
note_on channel=1 note=54 velocity=82 time=1
note_on channel=1 note=54 velocity=0 time=110
note_on channel=1 note=55 velocity=67 time=10
note_on channel=1 note=55 velocity=0 time=113
control_change channel=1 control=10 value=43 time=6
note_on channel=1 note=48 velocity=73 time=1
note_on channel=1 note=48 velocity=0 time=108
control_change channel=1 control=10 value=35 time=11
note_on channel=1 note=48 velocity=72 time=1
note_on channel=1 note=36 velocity=72 time=0
note_on channel=1 note=34 velocity=66 time=60
note_on channel=1 note=46 velocity=66 time=0
note_on channel=1 note=36 velocity=0 time=6
note_on channel=1 note=48 velocity=0 time=0
note_on channel=1 note=34 velocity=0 time=42
note_on channel=1 note=46 velocity=0 time=0
control_change channel=1 control=10 value=39 time=11
note_on channel=1 note=51 velocity=67 time=1
note_on channel=1 note=39 velocity=67 time=0
note_on channel=1 note=39 velocity=0 time=59
note_on channel=1 note=51 velocity=0 time=0
control_change channel=1 control=10 value=32 time=0
note_on channel=1 note=34 velocity=103 time=1
note_on channel=1 note=46 velocity=103 time=0
note_on channel=1 note=46 velocity=0 time=53
note_on channel=1 note=34 velocity=0 time=0
control_change channel=1 control=10 value=41 time=6
note_on channel=1 note=41 velocity=84 time=1
note_on channel=1 note=53 velocity=84 time=0
note_on channel=1 note=53 velocity=0 time=48
note_on channel=1 note=41 velocity=0 time=0
control_change channel=1 control=10 value=56 time=11
note_on channel=1 note=56 velocity=77 time=1
note_on channel=1 note=58 velocity=77 time=0
note_on channel=1 note=62 velocity=77 time=0
note_on channel=1 note=62 velocity=0 time=28
note_on channel=1 note=58 velocity=0 time=0
note_on channel=1 note=56 velocity=0 time=0
control_change channel=1 control=10 value=32 time=31
note_on channel=1 note=46 velocity=77 time=1
note_on channel=1 note=34 velocity=77 time=0
note_on channel=1 note=34 velocity=0 time=48
note_on channel=1 note=46 velocity=0 time=0
control_change channel=1 control=10 value=56 time=11
note_on channel=1 note=58 velocity=72 time=1
note_on channel=1 note=56 velocity=72 time=0
note_on channel=1 note=62 velocity=72 time=0
note_on channel=1 note=62 velocity=0 time=28
note_on channel=1 note=56 velocity=0 time=0
note_on channel=1 note=58 velocity=0 time=0
control_change channel=1 control=10 value=41 time=31
note_on channel=1 note=41 velocity=77 time=1
note_on channel=1 note=53 velocity=77 time=0
note_on channel=1 note=53 velocity=0 time=48
note_on channel=1 note=41 velocity=0 time=0
control_change channel=1 control=10 value=56 time=11
note_on channel=1 note=58 velocity=72 time=1
note_on channel=1 note=62 velocity=72 time=0
note_on channel=1 note=56 velocity=72 time=0
note_on channel=1 note=56 velocity=0 time=28
note_on channel=1 note=62 velocity=0 time=0
note_on channel=1 note=58 velocity=0 time=0
control_change channel=1 control=10 value=41 time=31
note_on channel=1 note=41 velocity=84 time=1
note_on channel=1 note=53 velocity=84 time=0
control_change channel=1 control=10 value=48 time=29
note_on channel=1 note=58 velocity=92 time=2
note_on channel=1 note=46 velocity=92 time=0
note_on channel=1 note=53 velocity=0 time=3
note_on channel=1 note=41 velocity=0 time=0
note_on channel=1 note=58 velocity=0 time=25
note_on channel=1 note=46 velocity=0 time=0
note_on channel=1 note=57 velocity=85 time=1
note_on channel=1 note=45 velocity=85 time=0
note_on channel=1 note=56 velocity=87 time=31
note_on channel=1 note=44 velocity=87 time=0
note_on channel=1 note=45 velocity=0 time=3
note_on channel=1 note=57 velocity=0 time=0
note_on channel=1 note=56 velocity=0 time=25
note_on channel=1 note=44 velocity=0 time=0
control_change channel=1 control=10 value=44 time=0
note_on channel=1 note=55 velocity=81 time=1
note_on channel=1 note=43 velocity=81 time=0
note_on channel=1 note=43 velocity=0 time=48
note_on channel=1 note=55 velocity=0 time=0
control_change channel=1 control=10 value=56 time=11
note_on channel=1 note=58 velocity=71 time=1
note_on channel=1 note=63 velocity=71 time=0
note_on channel=1 note=55 velocity=71 time=0
note_on channel=1 note=55 velocity=0 time=28
note_on channel=1 note=63 velocity=0 time=0
note_on channel=1 note=58 velocity=0 time=0
control_change channel=1 control=10 value=39 time=31
note_on channel=1 note=51 velocity=76 time=1
note_on channel=1 note=39 velocity=76 time=0
note_on channel=1 note=39 velocity=0 time=48
note_on channel=1 note=51 velocity=0 time=0
control_change channel=1 control=10 value=56 time=11
note_on channel=1 note=58 velocity=71 time=1
note_on channel=1 note=55 velocity=71 time=0
note_on channel=1 note=63 velocity=71 time=0
note_on channel=1 note=63 velocity=0 time=28
note_on channel=1 note=55 velocity=0 time=0
note_on channel=1 note=58 velocity=0 time=0
control_change channel=1 control=10 value=44 time=31
note_on channel=1 note=43 velocity=76 time=1
note_on channel=1 note=55 velocity=76 time=0
note_on channel=1 note=55 velocity=0 time=48
note_on channel=1 note=43 velocity=0 time=0
control_change channel=1 control=10 value=56 time=11
note_on channel=1 note=63 velocity=71 time=1
note_on channel=1 note=55 velocity=71 time=0
note_on channel=1 note=58 velocity=71 time=0
note_on channel=1 note=58 velocity=0 time=28
note_on channel=1 note=55 velocity=0 time=0
note_on channel=1 note=63 velocity=0 time=0
control_change channel=1 control=10 value=39 time=31
note_on channel=1 note=51 velocity=84 time=1
note_on channel=1 note=39 velocity=84 time=0
note_on channel=1 note=38 velocity=80 time=31
note_on channel=1 note=50 velocity=80 time=0
note_on channel=1 note=39 velocity=0 time=3
note_on channel=1 note=51 velocity=0 time=0
note_on channel=1 note=38 velocity=0 time=25
note_on channel=1 note=50 velocity=0 time=0
note_on channel=1 note=51 velocity=88 time=1
note_on channel=1 note=39 velocity=88 time=0
note_on channel=1 note=53 velocity=80 time=31
note_on channel=1 note=41 velocity=80 time=0
note_on channel=1 note=39 velocity=0 time=3
note_on channel=1 note=51 velocity=0 time=0
note_on channel=1 note=53 velocity=0 time=25
note_on channel=1 note=41 velocity=0 time=0
control_change channel=1 control=10 value=43 time=0
note_on channel=1 note=42 velocity=84 time=1
note_on channel=1 note=54 velocity=84 time=0
note_on channel=1 note=54 velocity=0 time=48
note_on channel=1 note=42 velocity=0 time=0
control_change channel=1 control=10 value=54 time=11
note_on channel=1 note=58 velocity=71 time=1
note_on channel=1 note=54 velocity=71 time=0
note_on channel=1 note=61 velocity=71 time=0
note_on channel=1 note=61 velocity=0 time=28
note_on channel=1 note=54 velocity=0 time=0
note_on channel=1 note=58 velocity=0 time=0
control_change channel=1 control=10 value=44 time=31
note_on channel=1 note=55 velocity=76 time=1
note_on channel=1 note=43 velocity=76 time=0
note_on channel=1 note=43 velocity=0 time=48
note_on channel=1 note=55 velocity=0 time=0
control_change channel=1 control=10 value=53 time=11
note_on channel=1 note=51 velocity=71 time=1
note_on channel=1 note=61 velocity=71 time=0
note_on channel=1 note=58 velocity=71 time=0
note_on channel=1 note=55 velocity=71 time=0
note_on channel=1 note=55 velocity=0 time=28
note_on channel=1 note=51 velocity=0 time=0
note_on channel=1 note=61 velocity=0 time=0
note_on channel=1 note=58 velocity=0 time=0
control_change channel=1 control=10 value=45 time=31
note_on channel=1 note=56 velocity=76 time=1
note_on channel=1 note=44 velocity=76 time=0
note_on channel=1 note=44 velocity=0 time=48
note_on channel=1 note=56 velocity=0 time=0
control_change channel=1 control=10 value=52 time=11
note_on channel=1 note=51 velocity=71 time=1
note_on channel=1 note=59 velocity=71 time=0
note_on channel=1 note=56 velocity=71 time=0
note_on channel=1 note=56 velocity=0 time=28
note_on channel=1 note=59 velocity=0 time=0
note_on channel=1 note=51 velocity=0 time=0
control_change channel=1 control=10 value=34 time=31
note_on channel=1 note=35 velocity=86 time=1
note_on channel=1 note=47 velocity=86 time=0
note_on channel=1 note=48 velocity=82 time=31
note_on channel=1 note=36 velocity=82 time=0
note_on channel=1 note=47 velocity=0 time=3
note_on channel=1 note=35 velocity=0 time=0
note_on channel=1 note=48 velocity=0 time=25
note_on channel=1 note=36 velocity=0 time=0
note_on channel=1 note=49 velocity=86 time=1
note_on channel=1 note=37 velocity=86 time=0
note_on channel=1 note=38 velocity=79 time=31
note_on channel=1 note=50 velocity=79 time=0
note_on channel=1 note=37 velocity=0 time=3
note_on channel=1 note=49 velocity=0 time=0
note_on channel=1 note=38 velocity=0 time=25
note_on channel=1 note=50 velocity=0 time=0
control_change channel=1 control=10 value=39 time=0
note_on channel=1 note=39 velocity=88 time=1
note_on channel=1 note=51 velocity=88 time=0
note_on channel=1 note=51 velocity=0 time=48
note_on channel=1 note=39 velocity=0 time=0
control_change channel=1 control=10 value=56 time=11
note_on channel=1 note=54 velocity=80 time=1
note_on channel=1 note=63 velocity=80 time=0
note_on channel=1 note=58 velocity=80 time=0
note_on channel=1 note=58 velocity=0 time=28
note_on channel=1 note=63 velocity=0 time=0
note_on channel=1 note=54 velocity=0 time=0
control_change channel=1 control=10 value=34 time=31
note_on channel=1 note=47 velocity=88 time=1
note_on channel=1 note=35 velocity=88 time=0
note_on channel=1 note=35 velocity=0 time=98
note_on channel=1 note=47 velocity=0 time=0
note_on channel=1 note=34 velocity=83 time=22
note_on channel=1 note=46 velocity=83 time=0
note_on channel=1 note=46 velocity=0 time=72
note_on channel=1 note=34 velocity=0 time=0
note_on channel=1 note=46 velocity=94 time=108
note_on channel=1 note=34 velocity=94 time=0
note_on channel=1 note=34 velocity=0 time=48
note_on channel=1 note=46 velocity=0 time=0
control_change channel=1 control=10 value=41 time=11
note_on channel=1 note=41 velocity=75 time=1
note_on channel=1 note=53 velocity=75 time=0
note_on channel=1 note=53 velocity=0 time=48
note_on channel=1 note=41 velocity=0 time=0
control_change channel=1 control=10 value=56 time=11
note_on channel=1 note=58 velocity=70 time=1
note_on channel=1 note=56 velocity=70 time=0
note_on channel=1 note=62 velocity=70 time=0
note_on channel=1 note=62 velocity=0 time=28
note_on channel=1 note=56 velocity=0 time=0
note_on channel=1 note=58 velocity=0 time=0
control_change channel=1 control=10 value=32 time=31
note_on channel=1 note=46 velocity=75 time=1
note_on channel=1 note=34 velocity=75 time=0
note_on channel=1 note=34 velocity=0 time=48
note_on channel=1 note=46 velocity=0 time=0
control_change channel=1 control=10 value=56 time=11
note_on channel=1 note=62 velocity=70 time=1
note_on channel=1 note=56 velocity=70 time=0
note_on channel=1 note=58 velocity=70 time=0
note_on channel=1 note=58 velocity=0 time=28
note_on channel=1 note=56 velocity=0 time=0
note_on channel=1 note=62 velocity=0 time=0
control_change channel=1 control=10 value=41 time=31
note_on channel=1 note=53 velocity=75 time=1
note_on channel=1 note=41 velocity=75 time=0
note_on channel=1 note=41 velocity=0 time=48
note_on channel=1 note=53 velocity=0 time=0
control_change channel=1 control=10 value=56 time=11
note_on channel=1 note=56 velocity=70 time=1
note_on channel=1 note=62 velocity=70 time=0
note_on channel=1 note=58 velocity=70 time=0
note_on channel=1 note=58 velocity=0 time=28
note_on channel=1 note=62 velocity=0 time=0
note_on channel=1 note=56 velocity=0 time=0
control_change channel=1 control=10 value=41 time=31
note_on channel=1 note=53 velocity=86 time=1
note_on channel=1 note=41 velocity=86 time=0
control_change channel=1 control=10 value=48 time=29
note_on channel=1 note=46 velocity=80 time=2
note_on channel=1 note=58 velocity=80 time=0
note_on channel=1 note=41 velocity=0 time=10
note_on channel=1 note=53 velocity=0 time=0
note_on channel=1 note=57 velocity=88 time=19
note_on channel=1 note=45 velocity=88 time=0
note_on channel=1 note=46 velocity=0 time=5
note_on channel=1 note=58 velocity=0 time=0
note_on channel=1 note=56 velocity=82 time=26
note_on channel=1 note=44 velocity=82 time=0
note_on channel=1 note=57 velocity=0 time=10
note_on channel=1 note=45 velocity=0 time=0
control_change channel=1 control=10 value=44 time=18
note_on channel=1 note=55 velocity=83 time=1
note_on channel=1 note=43 velocity=83 time=0
note_on channel=1 note=56 velocity=0 time=5
note_on channel=1 note=44 velocity=0 time=0
note_on channel=1 note=55 velocity=0 time=43
note_on channel=1 note=43 velocity=0 time=0
control_change channel=1 control=10 value=56 time=11
note_on channel=1 note=55 velocity=72 time=1
note_on channel=1 note=58 velocity=72 time=0
note_on channel=1 note=63 velocity=72 time=0
note_on channel=1 note=63 velocity=0 time=28
note_on channel=1 note=58 velocity=0 time=0
note_on channel=1 note=55 velocity=0 time=0
control_change channel=1 control=10 value=39 time=31
note_on channel=1 note=39 velocity=75 time=1
note_on channel=1 note=51 velocity=75 time=0
note_on channel=1 note=51 velocity=0 time=48
note_on channel=1 note=39 velocity=0 time=0
control_change channel=1 control=10 value=56 time=11
note_on channel=1 note=63 velocity=70 time=1
note_on channel=1 note=55 velocity=70 time=0
note_on channel=1 note=58 velocity=70 time=0
note_on channel=1 note=58 velocity=0 time=28
note_on channel=1 note=55 velocity=0 time=0
note_on channel=1 note=63 velocity=0 time=0
control_change channel=1 control=10 value=39 time=31
note_on channel=1 note=39 velocity=75 time=1
note_on channel=1 note=51 velocity=75 time=0
note_on channel=1 note=51 velocity=0 time=48
note_on channel=1 note=39 velocity=0 time=0
control_change channel=1 control=10 value=56 time=11
note_on channel=1 note=63 velocity=79 time=1
note_on channel=1 note=58 velocity=79 time=0
note_on channel=1 note=55 velocity=79 time=0
note_on channel=1 note=55 velocity=0 time=28
note_on channel=1 note=58 velocity=0 time=0
note_on channel=1 note=63 velocity=0 time=0
note_on channel=1 note=58 velocity=76 time=32
note_on channel=1 note=55 velocity=76 time=0
note_on channel=1 note=63 velocity=76 time=0
note_on channel=1 note=63 velocity=0 time=28
note_on channel=1 note=55 velocity=0 time=0
note_on channel=1 note=58 velocity=0 time=0
control_change channel=1 control=10 value=32 time=31
note_on channel=1 note=34 velocity=75 time=1
note_on channel=1 note=46 velocity=75 time=0
note_on channel=1 note=46 velocity=0 time=48
note_on channel=1 note=34 velocity=0 time=0
control_change channel=1 control=10 value=39 time=11
note_on channel=1 note=39 velocity=80 time=1
note_on channel=1 note=51 velocity=80 time=0
note_on channel=1 note=51 velocity=0 time=26
note_on channel=1 note=39 velocity=0 time=0
note_on channel=1 note=39 velocity=69 time=5
note_on channel=1 note=51 velocity=69 time=0
note_on channel=1 note=51 velocity=0 time=52
note_on channel=1 note=39 velocity=0 time=0
note_on channel=1 note=50 velocity=85 time=8
note_on channel=1 note=38 velocity=85 time=0
note_on channel=1 note=38 velocity=0 time=77
note_on channel=1 note=50 velocity=0 time=0
note_on channel=1 note=49 velocity=76 time=12
note_on channel=1 note=37 velocity=76 time=0
note_on channel=1 note=37 velocity=0 time=52
note_on channel=1 note=49 velocity=0 time=0
control_change channel=1 control=10 value=35 time=7
note_on channel=1 note=48 velocity=83 time=1
note_on channel=1 note=36 velocity=83 time=0
note_on channel=1 note=36 velocity=0 time=52
note_on channel=1 note=48 velocity=0 time=0
note_on channel=1 note=48 velocity=69 time=8
note_on channel=1 note=36 velocity=69 time=0
note_on channel=1 note=36 velocity=0 time=52
note_on channel=1 note=48 velocity=0 time=0
note_on channel=1 note=36 velocity=79 time=8
note_on channel=1 note=48 velocity=79 time=0
note_on channel=1 note=48 velocity=0 time=94
note_on channel=1 note=36 velocity=0 time=0
note_on channel=1 note=47 velocity=83 time=26
note_on channel=1 note=35 velocity=83 time=0
note_on channel=1 note=35 velocity=0 time=26
note_on channel=1 note=47 velocity=0 time=0
note_on channel=1 note=47 velocity=69 time=5
note_on channel=1 note=35 velocity=69 time=0
note_on channel=1 note=35 velocity=0 time=52
note_on channel=1 note=47 velocity=0 time=0
note_on channel=1 note=34 velocity=76 time=8
note_on channel=1 note=46 velocity=76 time=0
note_on channel=1 note=46 velocity=0 time=134
note_on channel=1 note=34 velocity=0 time=0
control_change channel=1 control=10 value=39 time=14
note_on channel=1 note=51 velocity=84 time=1
note_on channel=1 note=39 velocity=84 time=0
note_on channel=1 note=39 velocity=0 time=66
note_on channel=1 note=51 velocity=0 time=0
control_change channel=1 control=10 value=32 time=113
note_on channel=1 note=34 velocity=103 time=1
note_on channel=1 note=46 velocity=103 time=0
note_on channel=1 note=46 velocity=0 time=56
note_on channel=1 note=34 velocity=0 time=0
control_change channel=1 control=10 value=41 time=3
note_on channel=1 note=41 velocity=84 time=1
note_on channel=1 note=53 velocity=84 time=0
note_on channel=1 note=53 velocity=0 time=48
note_on channel=1 note=41 velocity=0 time=0
control_change channel=1 control=10 value=56 time=11
note_on channel=1 note=56 velocity=79 time=1
note_on channel=1 note=58 velocity=79 time=0
note_on channel=1 note=62 velocity=79 time=0
note_on channel=1 note=62 velocity=0 time=28
note_on channel=1 note=58 velocity=0 time=0
note_on channel=1 note=56 velocity=0 time=0
control_change channel=1 control=10 value=32 time=31
note_on channel=1 note=34 velocity=84 time=1
note_on channel=1 note=46 velocity=84 time=0
note_on channel=1 note=46 velocity=0 time=48
note_on channel=1 note=34 velocity=0 time=0
control_change channel=1 control=10 value=56 time=11
note_on channel=1 note=56 velocity=79 time=1
note_on channel=1 note=58 velocity=79 time=0
note_on channel=1 note=62 velocity=79 time=0
note_on channel=1 note=62 velocity=0 time=28
note_on channel=1 note=58 velocity=0 time=0
note_on channel=1 note=56 velocity=0 time=0
control_change channel=1 control=10 value=41 time=31
note_on channel=1 note=53 velocity=84 time=1
note_on channel=1 note=41 velocity=84 time=0
note_on channel=1 note=41 velocity=0 time=48
note_on channel=1 note=53 velocity=0 time=0
control_change channel=1 control=10 value=56 time=11
note_on channel=1 note=56 velocity=78 time=1
note_on channel=1 note=58 velocity=78 time=0
note_on channel=1 note=62 velocity=78 time=0
note_on channel=1 note=62 velocity=0 time=28
note_on channel=1 note=58 velocity=0 time=0
note_on channel=1 note=56 velocity=0 time=0
control_change channel=1 control=10 value=41 time=31
note_on channel=1 note=41 velocity=93 time=1
note_on channel=1 note=53 velocity=93 time=0
control_change channel=1 control=10 value=48 time=29
note_on channel=1 note=58 velocity=104 time=2
note_on channel=1 note=46 velocity=104 time=0
note_on channel=1 note=53 velocity=0 time=3
note_on channel=1 note=41 velocity=0 time=0
note_on channel=1 note=58 velocity=0 time=25
note_on channel=1 note=46 velocity=0 time=0
note_on channel=1 note=45 velocity=94 time=1
note_on channel=1 note=57 velocity=94 time=0
note_on channel=1 note=56 velocity=96 time=31
note_on channel=1 note=44 velocity=96 time=0
note_on channel=1 note=57 velocity=0 time=3
note_on channel=1 note=45 velocity=0 time=0
note_on channel=1 note=56 velocity=0 time=25
note_on channel=1 note=44 velocity=0 time=0
control_change channel=1 control=10 value=44 time=0
note_on channel=1 note=43 velocity=91 time=1
note_on channel=1 note=55 velocity=91 time=0
note_on channel=1 note=55 velocity=0 time=48
note_on channel=1 note=43 velocity=0 time=0
control_change channel=1 control=10 value=56 time=11
note_on channel=1 note=63 velocity=78 time=1
note_on channel=1 note=58 velocity=78 time=0
note_on channel=1 note=55 velocity=78 time=0
note_on channel=1 note=55 velocity=0 time=28
note_on channel=1 note=58 velocity=0 time=0
note_on channel=1 note=63 velocity=0 time=0
control_change channel=1 control=10 value=39 time=31
note_on channel=1 note=39 velocity=83 time=1
note_on channel=1 note=51 velocity=83 time=0
note_on channel=1 note=51 velocity=0 time=48
note_on channel=1 note=39 velocity=0 time=0
control_change channel=1 control=10 value=56 time=11
note_on channel=1 note=63 velocity=78 time=1
note_on channel=1 note=58 velocity=78 time=0
note_on channel=1 note=55 velocity=78 time=0
note_on channel=1 note=55 velocity=0 time=28
note_on channel=1 note=58 velocity=0 time=0
note_on channel=1 note=63 velocity=0 time=0
control_change channel=1 control=10 value=44 time=31
note_on channel=1 note=43 velocity=83 time=1
note_on channel=1 note=55 velocity=83 time=0
note_on channel=1 note=55 velocity=0 time=48
note_on channel=1 note=43 velocity=0 time=0
control_change channel=1 control=10 value=56 time=11
note_on channel=1 note=63 velocity=77 time=1
note_on channel=1 note=55 velocity=77 time=0
note_on channel=1 note=58 velocity=77 time=0
note_on channel=1 note=58 velocity=0 time=28
note_on channel=1 note=55 velocity=0 time=0
note_on channel=1 note=63 velocity=0 time=0
control_change channel=1 control=10 value=39 time=31
note_on channel=1 note=39 velocity=93 time=1
note_on channel=1 note=51 velocity=93 time=0
note_on channel=1 note=50 velocity=90 time=31
note_on channel=1 note=38 velocity=90 time=0
note_on channel=1 note=51 velocity=0 time=3
note_on channel=1 note=39 velocity=0 time=0
note_on channel=1 note=50 velocity=0 time=25
note_on channel=1 note=38 velocity=0 time=0
note_on channel=1 note=51 velocity=96 time=1
note_on channel=1 note=39 velocity=96 time=0
note_on channel=1 note=53 velocity=90 time=31
note_on channel=1 note=41 velocity=90 time=0
note_on channel=1 note=39 velocity=0 time=3
note_on channel=1 note=51 velocity=0 time=0
note_on channel=1 note=53 velocity=0 time=25
note_on channel=1 note=41 velocity=0 time=0
control_change channel=1 control=10 value=43 time=0
note_on channel=1 note=42 velocity=93 time=1
note_on channel=1 note=54 velocity=93 time=0
note_on channel=1 note=54 velocity=0 time=48
note_on channel=1 note=42 velocity=0 time=0
control_change channel=1 control=10 value=54 time=11
note_on channel=1 note=54 velocity=77 time=1
note_on channel=1 note=58 velocity=77 time=0
note_on channel=1 note=61 velocity=77 time=0
note_on channel=1 note=61 velocity=0 time=28
note_on channel=1 note=58 velocity=0 time=0
note_on channel=1 note=54 velocity=0 time=0
control_change channel=1 control=10 value=44 time=31
note_on channel=1 note=55 velocity=83 time=1
note_on channel=1 note=43 velocity=83 time=0
note_on channel=1 note=43 velocity=0 time=48
note_on channel=1 note=55 velocity=0 time=0
control_change channel=1 control=10 value=53 time=11
note_on channel=1 note=51 velocity=77 time=1
note_on channel=1 note=61 velocity=77 time=0
note_on channel=1 note=55 velocity=77 time=0
note_on channel=1 note=58 velocity=77 time=0
note_on channel=1 note=58 velocity=0 time=28
note_on channel=1 note=51 velocity=0 time=0
note_on channel=1 note=61 velocity=0 time=0
note_on channel=1 note=55 velocity=0 time=0
control_change channel=1 control=10 value=45 time=31
note_on channel=1 note=44 velocity=83 time=1
note_on channel=1 note=56 velocity=83 time=0
note_on channel=1 note=56 velocity=0 time=48
note_on channel=1 note=44 velocity=0 time=0
control_change channel=1 control=10 value=52 time=11
note_on channel=1 note=51 velocity=77 time=1
note_on channel=1 note=59 velocity=77 time=0
note_on channel=1 note=56 velocity=77 time=0
note_on channel=1 note=56 velocity=0 time=28
note_on channel=1 note=59 velocity=0 time=0
note_on channel=1 note=51 velocity=0 time=0
control_change channel=1 control=10 value=34 time=31
note_on channel=1 note=35 velocity=96 time=1
note_on channel=1 note=47 velocity=96 time=0
note_on channel=1 note=36 velocity=91 time=31
note_on channel=1 note=48 velocity=91 time=0
note_on channel=1 note=47 velocity=0 time=3
note_on channel=1 note=35 velocity=0 time=0
note_on channel=1 note=36 velocity=0 time=25
note_on channel=1 note=48 velocity=0 time=0
note_on channel=1 note=49 velocity=96 time=1
note_on channel=1 note=37 velocity=96 time=0
note_on channel=1 note=38 velocity=89 time=31
note_on channel=1 note=50 velocity=89 time=0
note_on channel=1 note=37 velocity=0 time=3
note_on channel=1 note=49 velocity=0 time=0
note_on channel=1 note=38 velocity=0 time=25
note_on channel=1 note=50 velocity=0 time=0
control_change channel=1 control=10 value=39 time=0
note_on channel=1 note=51 velocity=97 time=1
note_on channel=1 note=39 velocity=97 time=0
note_on channel=1 note=39 velocity=0 time=48
note_on channel=1 note=51 velocity=0 time=0
control_change channel=1 control=10 value=56 time=11
note_on channel=1 note=54 velocity=86 time=1
note_on channel=1 note=63 velocity=86 time=0
note_on channel=1 note=58 velocity=86 time=0
note_on channel=1 note=58 velocity=0 time=28
note_on channel=1 note=63 velocity=0 time=0
note_on channel=1 note=54 velocity=0 time=0
control_change channel=1 control=10 value=34 time=31
note_on channel=1 note=47 velocity=94 time=1
note_on channel=1 note=35 velocity=94 time=0
note_on channel=1 note=35 velocity=0 time=98
note_on channel=1 note=47 velocity=0 time=0
note_on channel=1 note=34 velocity=87 time=22
note_on channel=1 note=46 velocity=87 time=0
note_on channel=1 note=46 velocity=0 time=72
note_on channel=1 note=34 velocity=0 time=0
note_on channel=1 note=34 velocity=101 time=108
note_on channel=1 note=46 velocity=101 time=0
note_on channel=1 note=46 velocity=0 time=48
note_on channel=1 note=34 velocity=0 time=0
control_change channel=1 control=10 value=41 time=11
note_on channel=1 note=41 velocity=83 time=1
note_on channel=1 note=53 velocity=83 time=0
note_on channel=1 note=53 velocity=0 time=48
note_on channel=1 note=41 velocity=0 time=0
control_change channel=1 control=10 value=56 time=11
note_on channel=1 note=56 velocity=77 time=1
note_on channel=1 note=58 velocity=77 time=0
note_on channel=1 note=62 velocity=77 time=0
note_on channel=1 note=62 velocity=0 time=28
note_on channel=1 note=58 velocity=0 time=0
note_on channel=1 note=56 velocity=0 time=0
control_change channel=1 control=10 value=32 time=31
note_on channel=1 note=46 velocity=83 time=1
note_on channel=1 note=34 velocity=83 time=0
note_on channel=1 note=34 velocity=0 time=48
note_on channel=1 note=46 velocity=0 time=0
control_change channel=1 control=10 value=56 time=11
note_on channel=1 note=58 velocity=77 time=1
note_on channel=1 note=62 velocity=77 time=0
note_on channel=1 note=56 velocity=77 time=0
note_on channel=1 note=56 velocity=0 time=28
note_on channel=1 note=62 velocity=0 time=0
note_on channel=1 note=58 velocity=0 time=0
control_change channel=1 control=10 value=41 time=31
note_on channel=1 note=53 velocity=83 time=1
note_on channel=1 note=41 velocity=83 time=0
note_on channel=1 note=41 velocity=0 time=48
note_on channel=1 note=53 velocity=0 time=0
control_change channel=1 control=10 value=56 time=11
note_on channel=1 note=56 velocity=77 time=1
note_on channel=1 note=58 velocity=77 time=0
note_on channel=1 note=62 velocity=77 time=0
note_on channel=1 note=62 velocity=0 time=28
note_on channel=1 note=58 velocity=0 time=0
note_on channel=1 note=56 velocity=0 time=0
control_change channel=1 control=10 value=41 time=31
note_on channel=1 note=53 velocity=95 time=1
note_on channel=1 note=41 velocity=95 time=0
control_change channel=1 control=10 value=48 time=29
note_on channel=1 note=58 velocity=89 time=2
note_on channel=1 note=46 velocity=89 time=0
note_on channel=1 note=41 velocity=0 time=10
note_on channel=1 note=53 velocity=0 time=0
note_on channel=1 note=45 velocity=96 time=19
note_on channel=1 note=57 velocity=96 time=0
note_on channel=1 note=58 velocity=0 time=5
note_on channel=1 note=46 velocity=0 time=0
note_on channel=1 note=56 velocity=90 time=26
note_on channel=1 note=44 velocity=90 time=0
note_on channel=1 note=45 velocity=0 time=10
note_on channel=1 note=57 velocity=0 time=0
control_change channel=1 control=10 value=44 time=18
note_on channel=1 note=43 velocity=91 time=1
note_on channel=1 note=55 velocity=91 time=0
note_on channel=1 note=56 velocity=0 time=5
note_on channel=1 note=44 velocity=0 time=0
note_on channel=1 note=43 velocity=0 time=43
note_on channel=1 note=55 velocity=0 time=0
control_change channel=1 control=10 value=56 time=11
note_on channel=1 note=58 velocity=78 time=1
note_on channel=1 note=63 velocity=78 time=0
note_on channel=1 note=55 velocity=78 time=0
note_on channel=1 note=55 velocity=0 time=28
note_on channel=1 note=63 velocity=0 time=0
note_on channel=1 note=58 velocity=0 time=0
control_change channel=1 control=10 value=39 time=31
note_on channel=1 note=51 velocity=82 time=1
note_on channel=1 note=39 velocity=82 time=0
note_on channel=1 note=39 velocity=0 time=48
note_on channel=1 note=51 velocity=0 time=0
control_change channel=1 control=10 value=56 time=11
note_on channel=1 note=63 velocity=75 time=1
note_on channel=1 note=58 velocity=75 time=0
note_on channel=1 note=55 velocity=75 time=0
note_on channel=1 note=55 velocity=0 time=28
note_on channel=1 note=58 velocity=0 time=0
note_on channel=1 note=63 velocity=0 time=0
control_change channel=1 control=10 value=39 time=31
note_on channel=1 note=39 velocity=82 time=1
note_on channel=1 note=51 velocity=82 time=0
note_on channel=1 note=51 velocity=0 time=48
note_on channel=1 note=39 velocity=0 time=0
control_change channel=1 control=10 value=56 time=11
note_on channel=1 note=58 velocity=85 time=1
note_on channel=1 note=55 velocity=85 time=0
note_on channel=1 note=63 velocity=85 time=0
note_on channel=1 note=63 velocity=0 time=28
note_on channel=1 note=55 velocity=0 time=0
note_on channel=1 note=58 velocity=0 time=0
note_on channel=1 note=55 velocity=83 time=32
note_on channel=1 note=63 velocity=83 time=0
note_on channel=1 note=58 velocity=83 time=0
note_on channel=1 note=58 velocity=0 time=28
note_on channel=1 note=63 velocity=0 time=0
note_on channel=1 note=55 velocity=0 time=0
control_change channel=1 control=10 value=32 time=31
note_on channel=1 note=34 velocity=82 time=1
note_on channel=1 note=46 velocity=82 time=0
note_on channel=1 note=46 velocity=0 time=48
note_on channel=1 note=34 velocity=0 time=0
control_change channel=1 control=10 value=39 time=11
note_on channel=1 note=39 velocity=93 time=1
note_on channel=1 note=51 velocity=93 time=0
note_on channel=1 note=51 velocity=0 time=26
note_on channel=1 note=39 velocity=0 time=0
note_on channel=1 note=39 velocity=82 time=5
note_on channel=1 note=51 velocity=82 time=0
note_on channel=1 note=51 velocity=0 time=52
note_on channel=1 note=39 velocity=0 time=0
note_on channel=1 note=38 velocity=97 time=8
note_on channel=1 note=50 velocity=97 time=0
note_on channel=1 note=50 velocity=0 time=77
note_on channel=1 note=38 velocity=0 time=0
note_on channel=1 note=49 velocity=85 time=12
note_on channel=1 note=37 velocity=85 time=0
note_on channel=1 note=37 velocity=0 time=52
note_on channel=1 note=49 velocity=0 time=0
control_change channel=1 control=10 value=35 time=7
note_on channel=1 note=36 velocity=94 time=1
note_on channel=1 note=48 velocity=94 time=0
note_on channel=1 note=48 velocity=0 time=52
note_on channel=1 note=36 velocity=0 time=0
note_on channel=1 note=36 velocity=81 time=8
note_on channel=1 note=48 velocity=81 time=0
note_on channel=1 note=48 velocity=0 time=52
note_on channel=1 note=36 velocity=0 time=0
note_on channel=1 note=36 velocity=91 time=8
note_on channel=1 note=48 velocity=91 time=0
note_on channel=1 note=48 velocity=0 time=94
note_on channel=1 note=36 velocity=0 time=0
note_on channel=1 note=35 velocity=94 time=26
note_on channel=1 note=47 velocity=94 time=0
note_on channel=1 note=47 velocity=0 time=26
note_on channel=1 note=35 velocity=0 time=0
note_on channel=1 note=35 velocity=81 time=5
note_on channel=1 note=47 velocity=81 time=0
note_on channel=1 note=47 velocity=0 time=52
note_on channel=1 note=35 velocity=0 time=0
note_on channel=1 note=34 velocity=86 time=8
note_on channel=1 note=46 velocity=86 time=0
note_on channel=1 note=46 velocity=0 time=134
note_on channel=1 note=34 velocity=0 time=0
control_change channel=1 control=10 value=39 time=14
note_on channel=1 note=51 velocity=94 time=1
note_on channel=1 note=39 velocity=94 time=0
note_on channel=1 note=39 velocity=0 time=59
note_on channel=1 note=51 velocity=0 time=0
note_on channel=1 note=46 velocity=96 time=1
note_on channel=1 note=46 velocity=0 time=51
control_change channel=1 control=10 value=23 time=8
note_on channel=1 note=27 velocity=85 time=1
note_on channel=1 note=39 velocity=106 time=0
note_on channel=1 note=39 velocity=0 time=118
note_on channel=1 note=27 velocity=0 time=0
<meta message end_of_track time=0>
<meta message midi_port port=0 time=0>
<meta message track_name name='W.S.Trachtman - MIDI file' time=0>
program_change channel=2 program=0 time=0
note_on channel=2 note=39 velocity=0 time=35640
note_on channel=2 note=39 velocity=0 time=0
note_on channel=2 note=39 velocity=0 time=0
note_on channel=2 note=39 velocity=0 time=0
note_on channel=2 note=39 velocity=0 time=120
note_on channel=2 note=39 velocity=0 time=0
note_on channel=2 note=39 velocity=0 time=0
note_on channel=2 note=39 velocity=0 time=0
<meta message end_of_track time=0>
<meta message track_name name='untitled' time=0>
<meta message smpte_offset frame_rate=25 hours=32 minutes=0 seconds=3 frames=0 sub_frames=0 time=0>
<meta message time_signature numerator=2 denominator=4 clocks_per_click=24 notated_32nd_notes_per_beat=8 time=0>
<meta message key_signature key='Ab' time=0>
<meta message set_tempo tempo=694444 time=0>
<meta message marker text='W.S.Trachtman - MIDI file' time=0>
<meta message key_signature key='Db' time=15552>
<meta message end_of_track time=0>
<meta message midi_port port=0 time=0>
<meta message track_name name='Gladiolus Rag' time=0>
program_change channel=0 program=0 time=0
control_change channel=0 control=7 value=127 time=0
control_change channel=0 control=10 value=94 time=0
control_change channel=0 control=121 value=0 time=4
control_change channel=0 control=1 value=0 time=20
control_change channel=0 control=64 value=0 time=4
aftertouch channel=0 value=0 time=16
pitchwheel channel=0 pitch=0 time=5
control_change channel=0 control=93 value=12 time=2
control_change channel=0 control=91 value=21 time=0
control_change channel=0 control=7 value=127 time=23
control_change channel=0 control=10 value=84 time=2
note_on channel=0 note=84 velocity=80 time=140
<meta message lyrics text='Gladiolus ' time=0>
note_on channel=0 note=84 velocity=0 time=16
note_on channel=0 note=80 velocity=80 time=8
<meta message lyrics text='Rag ' time=0>
note_on channel=0 note=80 velocity=0 time=16
note_on channel=0 note=77 velocity=80 time=8
note_on channel=0 note=77 velocity=0 time=16
note_on channel=0 note=74 velocity=80 time=8
<meta message lyrics text='by ' time=0>
note_on channel=0 note=74 velocity=0 time=16
note_on channel=0 note=75 velocity=80 time=8
<meta message lyrics text='Scott ' time=0>
note_on channel=0 note=75 velocity=0 time=16
note_on channel=0 note=68 velocity=80 time=8
<meta message lyrics text='Joplin ' time=0>
note_on channel=0 note=68 velocity=0 time=16
note_on channel=0 note=70 velocity=80 time=8
<meta message lyrics text='; ' time=0>
note_on channel=0 note=70 velocity=0 time=16
note_on channel=0 note=62 velocity=80 time=8
note_on channel=0 note=71 velocity=80 time=0
<meta message lyrics text='Sequenced ' time=0>
note_on channel=0 note=71 velocity=0 time=16
note_on channel=0 note=67 velocity=80 time=8
<meta message lyrics text='by ' time=0>
note_on channel=0 note=67 velocity=0 time=16
note_on channel=0 note=62 velocity=0 time=8
note_on channel=0 note=68 velocity=80 time=0
<meta message lyrics text='W.S.Trachtman ' time=0>
<meta message lyrics text=' ' time=0>
<meta message lyrics text='\r' time=0>
note_on channel=0 note=68 velocity=0 time=16
note_on channel=0 note=61 velocity=80 time=8
note_on channel=0 note=70 velocity=80 time=0
note_on channel=0 note=67 velocity=80 time=0
note_on channel=0 note=67 velocity=0 time=48
note_on channel=0 note=70 velocity=0 time=0
note_on channel=0 note=61 velocity=0 time=0
note_on channel=0 note=75 velocity=80 time=0
note_on channel=0 note=75 velocity=0 time=16
note_on channel=0 note=87 velocity=80 time=8
note_on channel=0 note=87 velocity=0 time=16
note_on channel=0 note=85 velocity=80 time=8
note_on channel=0 note=85 velocity=0 time=16
note_on channel=0 note=84 velocity=80 time=32
note_on channel=0 note=84 velocity=0 time=16
note_on channel=0 note=80 velocity=80 time=8
note_on channel=0 note=80 velocity=0 time=16
note_on channel=0 note=77 velocity=80 time=8
note_on channel=0 note=77 velocity=0 time=16
note_on channel=0 note=74 velocity=80 time=8
note_on channel=0 note=74 velocity=0 time=16
note_on channel=0 note=75 velocity=80 time=8
note_on channel=0 note=75 velocity=0 time=16
note_on channel=0 note=68 velocity=80 time=8
note_on channel=0 note=68 velocity=0 time=16
note_on channel=0 note=70 velocity=80 time=8
note_on channel=0 note=70 velocity=0 time=16
note_on channel=0 note=62 velocity=80 time=8
note_on channel=0 note=71 velocity=80 time=0
note_on channel=0 note=71 velocity=0 time=16
note_on channel=0 note=67 velocity=80 time=8
note_on channel=0 note=67 velocity=0 time=16
note_on channel=0 note=62 velocity=0 time=8
note_on channel=0 note=68 velocity=80 time=0
note_on channel=0 note=68 velocity=0 time=16
note_on channel=0 note=61 velocity=80 time=8
note_on channel=0 note=67 velocity=80 time=0
note_on channel=0 note=70 velocity=80 time=0
note_on channel=0 note=70 velocity=0 time=48
note_on channel=0 note=67 velocity=0 time=0
note_on channel=0 note=61 velocity=0 time=0
note_on channel=0 note=73 velocity=80 time=120
note_on channel=0 note=65 velocity=80 time=0
note_on channel=0 note=70 velocity=80 time=0
note_on channel=0 note=67 velocity=80 time=0
note_on channel=0 note=67 velocity=0 time=32
note_on channel=0 note=73 velocity=0 time=0
note_on channel=0 note=65 velocity=0 time=0
note_on channel=0 note=70 velocity=0 time=0
note_on channel=0 note=72 velocity=80 time=16
note_on channel=0 note=64 velocity=80 time=0
note_on channel=0 note=70 velocity=80 time=0
note_on channel=0 note=67 velocity=80 time=0
note_on channel=0 note=67 velocity=0 time=32
note_on channel=0 note=72 velocity=0 time=0
note_on channel=0 note=64 velocity=0 time=0
note_on channel=0 note=70 velocity=0 time=0
note_on channel=0 note=77 velocity=80 time=112
note_on channel=0 note=70 velocity=80 time=0
note_on channel=0 note=67 velocity=80 time=0
note_on channel=0 note=67 velocity=0 time=32
note_on channel=0 note=70 velocity=0 time=0
note_on channel=0 note=77 velocity=0 time=0
note_on channel=0 note=76 velocity=80 time=16
note_on channel=0 note=70 velocity=80 time=0
note_on channel=0 note=67 velocity=80 time=0
note_on channel=0 note=67 velocity=0 time=32
note_on channel=0 note=70 velocity=0 time=0
note_on channel=0 note=76 velocity=0 time=0
note_on channel=0 note=65 velocity=80 time=256
note_on channel=0 note=65 velocity=0 time=16
note_on channel=0 note=67 velocity=80 time=8
note_on channel=0 note=67 velocity=0 time=16
note_on channel=0 note=68 velocity=80 time=8
note_on channel=0 note=68 velocity=0 time=16
note_on channel=0 note=72 velocity=80 time=8
note_on channel=0 note=72 velocity=0 time=16
note_on channel=0 note=77 velocity=80 time=8
note_on channel=0 note=65 velocity=80 time=0
note_on channel=0 note=65 velocity=0 time=16
note_on channel=0 note=77 velocity=0 time=0
note_on channel=0 note=79 velocity=80 time=8
note_on channel=0 note=67 velocity=80 time=0
note_on channel=0 note=67 velocity=0 time=16
note_on channel=0 note=79 velocity=0 time=0
note_on channel=0 note=80 velocity=80 time=8
note_on channel=0 note=68 velocity=80 time=0
note_on channel=0 note=68 velocity=0 time=16
note_on channel=0 note=80 velocity=0 time=0
note_on channel=0 note=84 velocity=80 time=8
note_on channel=0 note=72 velocity=80 time=0
note_on channel=0 note=72 velocity=0 time=16
note_on channel=0 note=84 velocity=0 time=0
note_on channel=0 note=77 velocity=80 time=8
note_on channel=0 note=89 velocity=80 time=0
note_on channel=0 note=62 velocity=80 time=0
note_on channel=0 note=65 velocity=80 time=0
note_on channel=0 note=68 velocity=80 time=0
note_on channel=0 note=71 velocity=80 time=0
note_on channel=0 note=71 velocity=0 time=32
note_on channel=0 note=89 velocity=0 time=0
note_on channel=0 note=62 velocity=0 time=0
note_on channel=0 note=77 velocity=0 time=0
note_on channel=0 note=68 velocity=0 time=0
note_on channel=0 note=65 velocity=0 time=0
note_on channel=0 note=79 velocity=80 time=16
note_on channel=0 note=91 velocity=80 time=0
note_on channel=0 note=62 velocity=80 time=0
note_on channel=0 note=65 velocity=80 time=0
note_on channel=0 note=68 velocity=80 time=0
note_on channel=0 note=71 velocity=80 time=0
note_on channel=0 note=91 velocity=0 time=16
note_on channel=0 note=79 velocity=0 time=0
note_on channel=0 note=89 velocity=80 time=8
note_on channel=0 note=77 velocity=80 time=0
note_on channel=0 note=68 velocity=0 time=8
note_on channel=0 note=62 velocity=0 time=0
note_on channel=0 note=65 velocity=0 time=0
note_on channel=0 note=71 velocity=0 time=0
note_on channel=0 note=62 velocity=80 time=16
note_on channel=0 note=65 velocity=80 time=0
note_on channel=0 note=68 velocity=80 time=0
note_on channel=0 note=71 velocity=80 time=0
note_on channel=0 note=77 velocity=0 time=8
note_on channel=0 note=89 velocity=0 time=0
note_on channel=0 note=79 velocity=80 time=16
note_on channel=0 note=91 velocity=80 time=0
note_on channel=0 note=68 velocity=0 time=8
note_on channel=0 note=62 velocity=0 time=0
note_on channel=0 note=65 velocity=0 time=0
note_on channel=0 note=71 velocity=0 time=0
note_on channel=0 note=91 velocity=0 time=8
note_on channel=0 note=79 velocity=0 time=0
note_on channel=0 note=89 velocity=80 time=8
note_on channel=0 note=77 velocity=80 time=0
note_on channel=0 note=62 velocity=80 time=0
note_on channel=0 note=65 velocity=80 time=0
note_on channel=0 note=68 velocity=80 time=0
note_on channel=0 note=71 velocity=80 time=0
note_on channel=0 note=77 velocity=0 time=16
note_on channel=0 note=89 velocity=0 time=0
note_on channel=0 note=77 velocity=80 time=8
note_on channel=0 note=89 velocity=80 time=0
note_on channel=0 note=68 velocity=0 time=8
note_on channel=0 note=62 velocity=0 time=0
note_on channel=0 note=65 velocity=0 time=0
note_on channel=0 note=71 velocity=0 time=0
note_on channel=0 note=72 velocity=80 time=16
note_on channel=0 note=68 velocity=80 time=0
note_on channel=0 note=63 velocity=80 time=0
note_on channel=0 note=89 velocity=0 time=8
note_on channel=0 note=77 velocity=0 time=0
note_on channel=0 note=87 velocity=80 time=16
note_on channel=0 note=68 velocity=0 time=8
note_on channel=0 note=63 velocity=0 time=0
note_on channel=0 note=72 velocity=0 time=0
note_on channel=0 note=87 velocity=0 time=8
note_on channel=0 note=84 velocity=80 time=8
note_on channel=0 note=63 velocity=80 time=0
note_on channel=0 note=68 velocity=80 time=0
note_on channel=0 note=72 velocity=80 time=0
note_on channel=0 note=84 velocity=0 time=16
note_on channel=0 note=82 velocity=80 time=8
note_on channel=0 note=63 velocity=0 time=8
note_on channel=0 note=72 velocity=0 time=0
note_on channel=0 note=68 velocity=0 time=0
note_on channel=0 note=82 velocity=0 time=8
note_on channel=0 note=80 velocity=80 time=8
note_on channel=0 note=72 velocity=80 time=0
note_on channel=0 note=68 velocity=80 time=0
note_on channel=0 note=66 velocity=80 time=0
note_on channel=0 note=80 velocity=0 time=16
note_on channel=0 note=87 velocity=80 time=8
note_on channel=0 note=72 velocity=0 time=8
note_on channel=0 note=66 velocity=0 time=0
note_on channel=0 note=68 velocity=0 time=0
note_on channel=0 note=72 velocity=80 time=16
note_on channel=0 note=68 velocity=80 time=0
note_on channel=0 note=66 velocity=80 time=0
note_on channel=0 note=87 velocity=0 time=8
note_on channel=0 note=85 velocity=80 time=16
note_on channel=0 note=72 velocity=0 time=8
note_on channel=0 note=66 velocity=0 time=0
note_on channel=0 note=68 velocity=0 time=0
note_on channel=0 note=73 velocity=80 time=16
note_on channel=0 note=68 velocity=80 time=0
note_on channel=0 note=65 velocity=80 time=0
note_on channel=0 note=85 velocity=0 time=8
note_on channel=0 note=82 velocity=80 time=16
note_on channel=0 note=73 velocity=0 time=8
note_on channel=0 note=65 velocity=0 time=0
note_on channel=0 note=68 velocity=0 time=0
note_on channel=0 note=82 velocity=0 time=8
note_on channel=0 note=94 velocity=80 time=8
note_on channel=0 note=73 velocity=80 time=0
note_on channel=0 note=68 velocity=80 time=0
note_on channel=0 note=64 velocity=80 time=0
note_on channel=0 note=94 velocity=0 time=16
note_on channel=0 note=92 velocity=80 time=8
note_on channel=0 note=73 velocity=0 time=8
note_on channel=0 note=64 velocity=0 time=0
note_on channel=0 note=68 velocity=0 time=0
note_on channel=0 note=92 velocity=0 time=8
note_on channel=0 note=80 velocity=80 time=8
note_on channel=0 note=72 velocity=80 time=0
note_on channel=0 note=68 velocity=80 time=0
note_on channel=0 note=63 velocity=80 time=0
note_on channel=0 note=80 velocity=0 time=16
note_on channel=0 note=84 velocity=80 time=8
note_on channel=0 note=72 velocity=0 time=8
note_on channel=0 note=63 velocity=0 time=0
note_on channel=0 note=68 velocity=0 time=0
note_on channel=0 note=72 velocity=80 time=16
note_on channel=0 note=68 velocity=80 time=0
note_on channel=0 note=63 velocity=80 time=0
note_on channel=0 note=84 velocity=0 time=8
note_on channel=0 note=89 velocity=80 time=16
note_on channel=0 note=72 velocity=0 time=8
note_on channel=0 note=63 velocity=0 time=0
note_on channel=0 note=68 velocity=0 time=0
note_on channel=0 note=89 velocity=0 time=8
note_on channel=0 note=87 velocity=80 time=8
note_on channel=0 note=73 velocity=80 time=0
note_on channel=0 note=67 velocity=80 time=0
note_on channel=0 note=63 velocity=80 time=0
note_on channel=0 note=87 velocity=0 time=16
note_on channel=0 note=82 velocity=80 time=8
note_on channel=0 note=73 velocity=0 time=8
note_on channel=0 note=63 velocity=0 time=0
note_on channel=0 note=67 velocity=0 time=0
note_on channel=0 note=82 velocity=0 time=8
note_on channel=0 note=83 velocity=80 time=8
note_on channel=0 note=63 velocity=80 time=0
note_on channel=0 note=67 velocity=80 time=0
note_on channel=0 note=73 velocity=80 time=0
note_on channel=0 note=83 velocity=0 time=16
note_on channel=0 note=84 velocity=80 time=8
note_on channel=0 note=63 velocity=0 time=8
note_on channel=0 note=73 velocity=0 time=0
note_on channel=0 note=67 velocity=0 time=0
note_on channel=0 note=72 velocity=80 time=16
note_on channel=0 note=68 velocity=80 time=0
note_on channel=0 note=63 velocity=80 time=0
note_on channel=0 note=84 velocity=0 time=8
note_on channel=0 note=74 velocity=80 time=16
note_on channel=0 note=72 velocity=0 time=8
note_on channel=0 note=63 velocity=0 time=0
note_on channel=0 note=68 velocity=0 time=0
note_on channel=0 note=74 velocity=0 time=8
note_on channel=0 note=75 velocity=80 time=8
note_on channel=0 note=63 velocity=80 time=0
note_on channel=0 note=68 velocity=80 time=0
note_on channel=0 note=72 velocity=80 time=0
note_on channel=0 note=75 velocity=0 time=16
note_on channel=0 note=77 velocity=80 time=8
note_on channel=0 note=65 velocity=80 time=0
note_on channel=0 note=63 velocity=0 time=8
note_on channel=0 note=72 velocity=0 time=0
note_on channel=0 note=68 velocity=0 time=0
note_on channel=0 note=77 velocity=0 time=56
note_on channel=0 note=65 velocity=0 time=0
note_on channel=0 note=67 velocity=80 time=8
note_on channel=0 note=79 velocity=80 time=0
note_on channel=0 note=79 velocity=0 time=16
note_on channel=0 note=67 velocity=0 time=0
note_on channel=0 note=65 velocity=80 time=8
note_on channel=0 note=77 velocity=80 time=0
note_on channel=0 note=77 velocity=0 time=32
note_on channel=0 note=65 velocity=0 time=0
note_on channel=0 note=79 velocity=80 time=16
note_on channel=0 note=67 velocity=80 time=0
note_on channel=0 note=67 velocity=0 time=16
note_on channel=0 note=79 velocity=0 time=0
note_on channel=0 note=65 velocity=80 time=8
note_on channel=0 note=77 velocity=80 time=0
note_on channel=0 note=77 velocity=0 time=16
note_on channel=0 note=65 velocity=0 time=0
note_on channel=0 note=77 velocity=80 time=8
note_on channel=0 note=65 velocity=80 time=0
note_on channel=0 note=65 velocity=0 time=32
note_on channel=0 note=77 velocity=0 time=0
note_on channel=0 note=75 velocity=80 time=16
note_on channel=0 note=75 velocity=0 time=16
note_on channel=0 note=72 velocity=80 time=8
note_on channel=0 note=72 velocity=0 time=16
note_on channel=0 note=70 velocity=80 time=8
note_on channel=0 note=70 velocity=0 time=16
note_on channel=0 note=68 velocity=80 time=8
note_on channel=0 note=68 velocity=0 time=16
note_on channel=0 note=75 velocity=80 time=8
note_on channel=0 note=75 velocity=0 time=32
note_on channel=0 note=73 velocity=80 time=16
note_on channel=0 note=73 velocity=0 time=32
note_on channel=0 note=70 velocity=80 time=16
note_on channel=0 note=70 velocity=0 time=16
note_on channel=0 note=82 velocity=80 time=8
note_on channel=0 note=82 velocity=0 time=16
note_on channel=0 note=80 velocity=80 time=8
note_on channel=0 note=80 velocity=0 time=16
note_on channel=0 note=72 velocity=80 time=8
note_on channel=0 note=72 velocity=0 time=16
note_on channel=0 note=77 velocity=80 time=8
note_on channel=0 note=68 velocity=80 time=0
note_on channel=0 note=68 velocity=0 time=32
note_on channel=0 note=77 velocity=0 time=0
note_on channel=0 note=75 velocity=80 time=16
note_on channel=0 note=75 velocity=0 time=16
note_on channel=0 note=62 velocity=80 time=8
note_on channel=0 note=68 velocity=80 time=0
note_on channel=0 note=68 velocity=0 time=16
note_on channel=0 note=70 velocity=80 time=8
note_on channel=0 note=62 velocity=0 time=8
note_on channel=0 note=70 velocity=0 time=8
note_on channel=0 note=61 velocity=80 time=8
note_on channel=0 note=67 velocity=80 time=0
note_on channel=0 note=70 velocity=80 time=0
note_on channel=0 note=70 velocity=0 time=32
note_on channel=0 note=67 velocity=0 time=0
note_on channel=0 note=61 velocity=0 time=0
note_on channel=0 note=60 velocity=80 time=16
note_on channel=0 note=68 velocity=80 time=0
note_on channel=0 note=68 velocity=0 time=32
note_on channel=0 note=60 velocity=0 time=0
note_on channel=0 note=84 velocity=80 time=88
note_on channel=0 note=84 velocity=0 time=16
note_on channel=0 note=80 velocity=80 time=8
note_on channel=0 note=80 velocity=0 time=16
note_on channel=0 note=77 velocity=80 time=8
note_on channel=0 note=77 velocity=0 time=16
note_on channel=0 note=74 velocity=80 time=8
note_on channel=0 note=74 velocity=0 time=16
note_on channel=0 note=75 velocity=80 time=8
note_on channel=0 note=75 velocity=0 time=16
note_on channel=0 note=68 velocity=80 time=8
note_on channel=0 note=68 velocity=0 time=16
note_on channel=0 note=70 velocity=80 time=8
note_on channel=0 note=70 velocity=0 time=16
note_on channel=0 note=62 velocity=80 time=8
note_on channel=0 note=71 velocity=80 time=0
note_on channel=0 note=71 velocity=0 time=16
note_on channel=0 note=67 velocity=80 time=8
note_on channel=0 note=67 velocity=0 time=16
note_on channel=0 note=62 velocity=0 time=8
note_on channel=0 note=68 velocity=80 time=0
note_on channel=0 note=68 velocity=0 time=16
note_on channel=0 note=61 velocity=80 time=8
note_on channel=0 note=70 velocity=80 time=0
note_on channel=0 note=67 velocity=80 time=0
note_on channel=0 note=67 velocity=0 time=32
note_on channel=0 note=70 velocity=0 time=0
note_on channel=0 note=61 velocity=0 time=16
note_on channel=0 note=75 velocity=80 time=0
note_on channel=0 note=75 velocity=0 time=16
note_on channel=0 note=87 velocity=80 time=8
note_on channel=0 note=87 velocity=0 time=16
note_on channel=0 note=85 velocity=80 time=8
note_on channel=0 note=85 velocity=0 time=16
note_on channel=0 note=84 velocity=80 time=32
note_on channel=0 note=84 velocity=0 time=16
note_on channel=0 note=80 velocity=80 time=8
note_on channel=0 note=80 velocity=0 time=16
note_on channel=0 note=77 velocity=80 time=8
note_on channel=0 note=77 velocity=0 time=16
note_on channel=0 note=74 velocity=80 time=8
note_on channel=0 note=74 velocity=0 time=16
note_on channel=0 note=75 velocity=80 time=8
note_on channel=0 note=75 velocity=0 time=16
note_on channel=0 note=68 velocity=80 time=8
note_on channel=0 note=68 velocity=0 time=16
note_on channel=0 note=70 velocity=80 time=8
note_on channel=0 note=70 velocity=0 time=16
note_on channel=0 note=62 velocity=80 time=8
note_on channel=0 note=71 velocity=80 time=0
note_on channel=0 note=71 velocity=0 time=16
note_on channel=0 note=67 velocity=80 time=8
note_on channel=0 note=67 velocity=0 time=16
note_on channel=0 note=62 velocity=0 time=8
note_on channel=0 note=68 velocity=80 time=0
note_on channel=0 note=68 velocity=0 time=16
note_on channel=0 note=61 velocity=80 time=8
note_on channel=0 note=67 velocity=80 time=0
note_on channel=0 note=70 velocity=80 time=0
note_on channel=0 note=70 velocity=0 time=48
note_on channel=0 note=67 velocity=0 time=0
note_on channel=0 note=61 velocity=0 time=0
note_on channel=0 note=73 velocity=80 time=120
note_on channel=0 note=65 velocity=80 time=0
note_on channel=0 note=70 velocity=80 time=0
note_on channel=0 note=67 velocity=80 time=0
note_on channel=0 note=67 velocity=0 time=32
note_on channel=0 note=73 velocity=0 time=0
note_on channel=0 note=65 velocity=0 time=0
note_on channel=0 note=70 velocity=0 time=0
note_on channel=0 note=72 velocity=80 time=16
note_on channel=0 note=64 velocity=80 time=0
note_on channel=0 note=70 velocity=80 time=0
note_on channel=0 note=67 velocity=80 time=0
note_on channel=0 note=67 velocity=0 time=32
note_on channel=0 note=72 velocity=0 time=0
note_on channel=0 note=64 velocity=0 time=0
note_on channel=0 note=70 velocity=0 time=0
note_on channel=0 note=77 velocity=80 time=112
note_on channel=0 note=70 velocity=80 time=0
note_on channel=0 note=67 velocity=80 time=0
note_on channel=0 note=67 velocity=0 time=32
note_on channel=0 note=70 velocity=0 time=0
note_on channel=0 note=77 velocity=0 time=0
note_on channel=0 note=76 velocity=80 time=16
note_on channel=0 note=70 velocity=80 time=0
note_on channel=0 note=67 velocity=80 time=0
note_on channel=0 note=67 velocity=0 time=32
note_on channel=0 note=70 velocity=0 time=0
note_on channel=0 note=76 velocity=0 time=0
note_on channel=0 note=65 velocity=80 time=256
note_on channel=0 note=65 velocity=0 time=16
note_on channel=0 note=67 velocity=80 time=8
note_on channel=0 note=67 velocity=0 time=16
note_on channel=0 note=68 velocity=80 time=8
note_on channel=0 note=68 velocity=0 time=16
note_on channel=0 note=72 velocity=80 time=8
note_on channel=0 note=72 velocity=0 time=16
note_on channel=0 note=77 velocity=80 time=8
note_on channel=0 note=65 velocity=80 time=0
note_on channel=0 note=65 velocity=0 time=16
note_on channel=0 note=77 velocity=0 time=0
note_on channel=0 note=79 velocity=80 time=8
note_on channel=0 note=67 velocity=80 time=0
note_on channel=0 note=67 velocity=0 time=16
note_on channel=0 note=79 velocity=0 time=0
note_on channel=0 note=80 velocity=80 time=8
note_on channel=0 note=68 velocity=80 time=0
note_on channel=0 note=68 velocity=0 time=16
note_on channel=0 note=80 velocity=0 time=0
note_on channel=0 note=84 velocity=80 time=8
note_on channel=0 note=72 velocity=80 time=0
note_on channel=0 note=72 velocity=0 time=16
note_on channel=0 note=84 velocity=0 time=0
note_on channel=0 note=77 velocity=80 time=8
note_on channel=0 note=89 velocity=80 time=0
note_on channel=0 note=62 velocity=80 time=0
note_on channel=0 note=65 velocity=80 time=0
note_on channel=0 note=68 velocity=80 time=0
note_on channel=0 note=71 velocity=80 time=0
note_on channel=0 note=71 velocity=0 time=32
note_on channel=0 note=89 velocity=0 time=0
note_on channel=0 note=62 velocity=0 time=0
note_on channel=0 note=77 velocity=0 time=0
note_on channel=0 note=68 velocity=0 time=0
note_on channel=0 note=65 velocity=0 time=0
note_on channel=0 note=79 velocity=80 time=16
note_on channel=0 note=91 velocity=80 time=0
note_on channel=0 note=62 velocity=80 time=0
note_on channel=0 note=65 velocity=80 time=0
note_on channel=0 note=68 velocity=80 time=0
note_on channel=0 note=71 velocity=80 time=0
note_on channel=0 note=91 velocity=0 time=16
note_on channel=0 note=79 velocity=0 time=0
note_on channel=0 note=89 velocity=80 time=8
note_on channel=0 note=77 velocity=80 time=0
note_on channel=0 note=68 velocity=0 time=8
note_on channel=0 note=62 velocity=0 time=0
note_on channel=0 note=65 velocity=0 time=0
note_on channel=0 note=71 velocity=0 time=0
note_on channel=0 note=62 velocity=80 time=16
note_on channel=0 note=65 velocity=80 time=0
note_on channel=0 note=68 velocity=80 time=0
note_on channel=0 note=71 velocity=80 time=0
note_on channel=0 note=77 velocity=0 time=8
note_on channel=0 note=89 velocity=0 time=0
note_on channel=0 note=79 velocity=80 time=16
note_on channel=0 note=91 velocity=80 time=0
note_on channel=0 note=68 velocity=0 time=8
note_on channel=0 note=62 velocity=0 time=0
note_on channel=0 note=65 velocity=0 time=0
note_on channel=0 note=71 velocity=0 time=0
note_on channel=0 note=91 velocity=0 time=8
note_on channel=0 note=79 velocity=0 time=0
note_on channel=0 note=89 velocity=80 time=8
note_on channel=0 note=77 velocity=80 time=0
note_on channel=0 note=62 velocity=80 time=0
note_on channel=0 note=65 velocity=80 time=0
note_on channel=0 note=68 velocity=80 time=0
note_on channel=0 note=71 velocity=80 time=0
note_on channel=0 note=77 velocity=0 time=16
note_on channel=0 note=89 velocity=0 time=0
note_on channel=0 note=77 velocity=80 time=8
note_on channel=0 note=89 velocity=80 time=0
note_on channel=0 note=68 velocity=0 time=8
note_on channel=0 note=62 velocity=0 time=0
note_on channel=0 note=65 velocity=0 time=0
note_on channel=0 note=71 velocity=0 time=0
note_on channel=0 note=72 velocity=80 time=16
note_on channel=0 note=68 velocity=80 time=0
note_on channel=0 note=63 velocity=80 time=0
note_on channel=0 note=89 velocity=0 time=8
note_on channel=0 note=77 velocity=0 time=0
note_on channel=0 note=87 velocity=80 time=16
note_on channel=0 note=68 velocity=0 time=8
note_on channel=0 note=63 velocity=0 time=0
note_on channel=0 note=72 velocity=0 time=0
note_on channel=0 note=87 velocity=0 time=8
note_on channel=0 note=84 velocity=80 time=8
note_on channel=0 note=63 velocity=80 time=0
note_on channel=0 note=68 velocity=80 time=0
note_on channel=0 note=72 velocity=80 time=0
note_on channel=0 note=84 velocity=0 time=16
note_on channel=0 note=82 velocity=80 time=8
note_on channel=0 note=63 velocity=0 time=8
note_on channel=0 note=72 velocity=0 time=0
note_on channel=0 note=68 velocity=0 time=0
note_on channel=0 note=82 velocity=0 time=8
note_on channel=0 note=80 velocity=80 time=8
note_on channel=0 note=72 velocity=80 time=0
note_on channel=0 note=68 velocity=80 time=0
note_on channel=0 note=66 velocity=80 time=0
note_on channel=0 note=80 velocity=0 time=16
note_on channel=0 note=87 velocity=80 time=8
note_on channel=0 note=72 velocity=0 time=8
note_on channel=0 note=66 velocity=0 time=0
note_on channel=0 note=68 velocity=0 time=0
note_on channel=0 note=72 velocity=80 time=16
note_on channel=0 note=68 velocity=80 time=0
note_on channel=0 note=66 velocity=80 time=0
note_on channel=0 note=87 velocity=0 time=8
note_on channel=0 note=85 velocity=80 time=16
note_on channel=0 note=72 velocity=0 time=8
note_on channel=0 note=66 velocity=0 time=0
note_on channel=0 note=68 velocity=0 time=0
note_on channel=0 note=73 velocity=80 time=16
note_on channel=0 note=68 velocity=80 time=0
note_on channel=0 note=65 velocity=80 time=0
note_on channel=0 note=85 velocity=0 time=8
note_on channel=0 note=82 velocity=80 time=16
note_on channel=0 note=73 velocity=0 time=8
note_on channel=0 note=65 velocity=0 time=0
note_on channel=0 note=68 velocity=0 time=0
note_on channel=0 note=82 velocity=0 time=8
note_on channel=0 note=94 velocity=80 time=8
note_on channel=0 note=73 velocity=80 time=0
note_on channel=0 note=68 velocity=80 time=0
note_on channel=0 note=64 velocity=80 time=0
note_on channel=0 note=94 velocity=0 time=16
note_on channel=0 note=92 velocity=80 time=8
note_on channel=0 note=73 velocity=0 time=8
note_on channel=0 note=64 velocity=0 time=0
note_on channel=0 note=68 velocity=0 time=0
note_on channel=0 note=92 velocity=0 time=8
note_on channel=0 note=80 velocity=80 time=8
note_on channel=0 note=72 velocity=80 time=0
note_on channel=0 note=68 velocity=80 time=0
note_on channel=0 note=63 velocity=80 time=0
note_on channel=0 note=80 velocity=0 time=16
note_on channel=0 note=84 velocity=80 time=8
note_on channel=0 note=72 velocity=0 time=8
note_on channel=0 note=63 velocity=0 time=0
note_on channel=0 note=68 velocity=0 time=0
note_on channel=0 note=72 velocity=80 time=16
note_on channel=0 note=68 velocity=80 time=0
note_on channel=0 note=63 velocity=80 time=0
note_on channel=0 note=84 velocity=0 time=8
note_on channel=0 note=89 velocity=80 time=16
note_on channel=0 note=72 velocity=0 time=8
note_on channel=0 note=63 velocity=0 time=0
note_on channel=0 note=68 velocity=0 time=0
note_on channel=0 note=89 velocity=0 time=8
note_on channel=0 note=87 velocity=80 time=8
note_on channel=0 note=73 velocity=80 time=0
note_on channel=0 note=67 velocity=80 time=0
note_on channel=0 note=63 velocity=80 time=0
note_on channel=0 note=87 velocity=0 time=16
note_on channel=0 note=82 velocity=80 time=8
note_on channel=0 note=73 velocity=0 time=8
note_on channel=0 note=63 velocity=0 time=0
note_on channel=0 note=67 velocity=0 time=0
note_on channel=0 note=82 velocity=0 time=8
note_on channel=0 note=83 velocity=80 time=8
note_on channel=0 note=63 velocity=80 time=0
note_on channel=0 note=67 velocity=80 time=0
note_on channel=0 note=73 velocity=80 time=0
note_on channel=0 note=83 velocity=0 time=16
note_on channel=0 note=84 velocity=80 time=8
note_on channel=0 note=63 velocity=0 time=8
note_on channel=0 note=73 velocity=0 time=0
note_on channel=0 note=67 velocity=0 time=0
note_on channel=0 note=72 velocity=80 time=16
note_on channel=0 note=68 velocity=80 time=0
note_on channel=0 note=63 velocity=80 time=0
note_on channel=0 note=84 velocity=0 time=8
note_on channel=0 note=74 velocity=80 time=16
note_on channel=0 note=72 velocity=0 time=8
note_on channel=0 note=63 velocity=0 time=0
note_on channel=0 note=68 velocity=0 time=0
note_on channel=0 note=74 velocity=0 time=8
note_on channel=0 note=75 velocity=80 time=8
note_on channel=0 note=63 velocity=80 time=0
note_on channel=0 note=68 velocity=80 time=0
note_on channel=0 note=72 velocity=80 time=0
note_on channel=0 note=75 velocity=0 time=16
note_on channel=0 note=77 velocity=80 time=8
note_on channel=0 note=65 velocity=80 time=0
note_on channel=0 note=63 velocity=0 time=8
note_on channel=0 note=72 velocity=0 time=0
note_on channel=0 note=68 velocity=0 time=0
note_on channel=0 note=77 velocity=0 time=56
note_on channel=0 note=65 velocity=0 time=0
note_on channel=0 note=67 velocity=80 time=8
note_on channel=0 note=79 velocity=80 time=0
note_on channel=0 note=79 velocity=0 time=16
note_on channel=0 note=67 velocity=0 time=0
note_on channel=0 note=65 velocity=80 time=8
note_on channel=0 note=77 velocity=80 time=0
note_on channel=0 note=77 velocity=0 time=32
note_on channel=0 note=65 velocity=0 time=0
note_on channel=0 note=79 velocity=80 time=16
note_on channel=0 note=67 velocity=80 time=0
note_on channel=0 note=67 velocity=0 time=16
note_on channel=0 note=79 velocity=0 time=0
note_on channel=0 note=65 velocity=80 time=8
note_on channel=0 note=77 velocity=80 time=0
note_on channel=0 note=77 velocity=0 time=16
note_on channel=0 note=65 velocity=0 time=0
note_on channel=0 note=77 velocity=80 time=8
note_on channel=0 note=65 velocity=80 time=0
note_on channel=0 note=65 velocity=0 time=32
note_on channel=0 note=77 velocity=0 time=0
note_on channel=0 note=75 velocity=80 time=16
note_on channel=0 note=75 velocity=0 time=16
note_on channel=0 note=72 velocity=80 time=8
note_on channel=0 note=72 velocity=0 time=16
note_on channel=0 note=70 velocity=80 time=8
note_on channel=0 note=70 velocity=0 time=16
note_on channel=0 note=68 velocity=80 time=8
note_on channel=0 note=68 velocity=0 time=16
note_on channel=0 note=75 velocity=80 time=8
note_on channel=0 note=75 velocity=0 time=32
note_on channel=0 note=73 velocity=80 time=16
note_on channel=0 note=73 velocity=0 time=32
note_on channel=0 note=70 velocity=80 time=16
note_on channel=0 note=70 velocity=0 time=16
note_on channel=0 note=82 velocity=80 time=8
note_on channel=0 note=82 velocity=0 time=16
note_on channel=0 note=80 velocity=80 time=8
note_on channel=0 note=80 velocity=0 time=16
note_on channel=0 note=72 velocity=80 time=8
note_on channel=0 note=72 velocity=0 time=16
note_on channel=0 note=77 velocity=80 time=8
note_on channel=0 note=68 velocity=80 time=0
note_on channel=0 note=68 velocity=0 time=32
note_on channel=0 note=77 velocity=0 time=0
note_on channel=0 note=75 velocity=80 time=16
note_on channel=0 note=75 velocity=0 time=16
note_on channel=0 note=62 velocity=80 time=8
note_on channel=0 note=68 velocity=80 time=0
note_on channel=0 note=68 velocity=0 time=16
note_on channel=0 note=70 velocity=80 time=8
note_on channel=0 note=62 velocity=0 time=8
note_on channel=0 note=70 velocity=0 time=8
note_on channel=0 note=61 velocity=80 time=8
note_on channel=0 note=67 velocity=80 time=0
note_on channel=0 note=70 velocity=80 time=0
note_on channel=0 note=70 velocity=0 time=32
note_on channel=0 note=67 velocity=0 time=0
note_on channel=0 note=61 velocity=0 time=0
note_on channel=0 note=60 velocity=80 time=16
note_on channel=0 note=68 velocity=80 time=0
note_on channel=0 note=68 velocity=0 time=32
note_on channel=0 note=60 velocity=0 time=0
note_on channel=0 note=75 velocity=80 time=16
note_on channel=0 note=75 velocity=0 time=32
note_on channel=0 note=79 velocity=80 time=40
note_on channel=0 note=79 velocity=0 time=16
note_on channel=0 note=82 velocity=80 time=8
note_on channel=0 note=82 velocity=0 time=16
note_on channel=0 note=85 velocity=80 time=8
note_on channel=0 note=85 velocity=0 time=16
note_on channel=0 note=89 velocity=80 time=8
note_on channel=0 note=79 velocity=80 time=0
note_on channel=0 note=79 velocity=0 time=16
note_on channel=0 note=89 velocity=0 time=0
note_on channel=0 note=87 velocity=80 time=8
note_on channel=0 note=87 velocity=0 time=32
note_on channel=0 note=85 velocity=80 time=16
note_on channel=0 note=85 velocity=0 time=16
note_on channel=0 note=75 velocity=80 time=8
note_on channel=0 note=75 velocity=0 time=16
note_on channel=0 note=79 velocity=80 time=8
note_on channel=0 note=79 velocity=0 time=16
note_on channel=0 note=82 velocity=80 time=8
note_on channel=0 note=82 velocity=0 time=16
note_on channel=0 note=75 velocity=80 time=8
note_on channel=0 note=79 velocity=80 time=0
note_on channel=0 note=87 velocity=80 time=0
note_on channel=0 note=87 velocity=0 time=32
note_on channel=0 note=79 velocity=0 time=0
note_on channel=0 note=75 velocity=0 time=0
note_on channel=0 note=67 velocity=80 time=16
note_on channel=0 note=73 velocity=80 time=0
note_on channel=0 note=79 velocity=80 time=0
note_on channel=0 note=79 velocity=0 time=16
note_on channel=0 note=73 velocity=0 time=0
note_on channel=0 note=67 velocity=0 time=0
note_on channel=0 note=68 velocity=80 time=8
note_on channel=0 note=73 velocity=80 time=0
note_on channel=0 note=80 velocity=80 time=0
note_on channel=0 note=80 velocity=0 time=16
note_on channel=0 note=73 velocity=0 time=0
note_on channel=0 note=68 velocity=0 time=0
note_on channel=0 note=70 velocity=80 time=8
note_on channel=0 note=73 velocity=80 time=0
note_on channel=0 note=82 velocity=80 time=0
note_on channel=0 note=82 velocity=0 time=16
note_on channel=0 note=73 velocity=0 time=0
note_on channel=0 note=70 velocity=0 time=0
note_on channel=0 note=71 velocity=80 time=8
note_on channel=0 note=74 velocity=80 time=0
note_on channel=0 note=83 velocity=80 time=0
note_on channel=0 note=83 velocity=0 time=16
note_on channel=0 note=74 velocity=0 time=0
note_on channel=0 note=71 velocity=0 time=0
note_on channel=0 note=72 velocity=80 time=8
note_on channel=0 note=75 velocity=80 time=0
note_on channel=0 note=84 velocity=80 time=0
note_on channel=0 note=84 velocity=0 time=32
note_on channel=0 note=75 velocity=0 time=0
note_on channel=0 note=72 velocity=0 time=0
note_on channel=0 note=71 velocity=80 time=16
note_on channel=0 note=74 velocity=80 time=0
note_on channel=0 note=83 velocity=80 time=0
note_on channel=0 note=83 velocity=0 time=16
note_on channel=0 note=74 velocity=0 time=0
note_on channel=0 note=71 velocity=0 time=0
note_on channel=0 note=72 velocity=80 time=8
note_on channel=0 note=75 velocity=80 time=0
note_on channel=0 note=84 velocity=80 time=0
note_on channel=0 note=84 velocity=0 time=32
note_on channel=0 note=75 velocity=0 time=0
note_on channel=0 note=72 velocity=0 time=0
note_on channel=0 note=71 velocity=80 time=16
note_on channel=0 note=74 velocity=80 time=0
note_on channel=0 note=83 velocity=80 time=0
note_on channel=0 note=83 velocity=0 time=16
note_on channel=0 note=74 velocity=0 time=0
note_on channel=0 note=71 velocity=0 time=0
note_on channel=0 note=72 velocity=80 time=8
note_on channel=0 note=75 velocity=80 time=0
note_on channel=0 note=84 velocity=80 time=0
note_on channel=0 note=84 velocity=0 time=120
note_on channel=0 note=75 velocity=0 time=0
note_on channel=0 note=72 velocity=0 time=0
note_on channel=0 note=72 velocity=80 time=48
note_on channel=0 note=75 velocity=80 time=0
note_on channel=0 note=75 velocity=0 time=32
note_on channel=0 note=72 velocity=0 time=0
note_on channel=0 note=73 velocity=80 time=16
note_on channel=0 note=76 velocity=80 time=0
note_on channel=0 note=76 velocity=0 time=16
note_on channel=0 note=73 velocity=0 time=0
note_on channel=0 note=73 velocity=80 time=8
note_on channel=0 note=77 velocity=80 time=0
note_on channel=0 note=77 velocity=0 time=32
note_on channel=0 note=73 velocity=0 time=0
note_on channel=0 note=73 velocity=80 time=16
note_on channel=0 note=70 velocity=80 time=0
note_on channel=0 note=70 velocity=0 time=88
note_on channel=0 note=73 velocity=0 time=0
note_on channel=0 note=73 velocity=80 time=32
note_on channel=0 note=76 velocity=80 time=0
note_on channel=0 note=76 velocity=0 time=16
note_on channel=0 note=73 velocity=0 time=0
note_on channel=0 note=73 velocity=80 time=8
note_on channel=0 note=77 velocity=80 time=0
note_on channel=0 note=77 velocity=0 time=32
note_on channel=0 note=73 velocity=0 time=0
note_on channel=0 note=73 velocity=80 time=16
note_on channel=0 note=70 velocity=80 time=0
note_on channel=0 note=70 velocity=0 time=88
note_on channel=0 note=73 velocity=0 time=0
note_on channel=0 note=72 velocity=80 time=32
note_on channel=0 note=76 velocity=80 time=0
note_on channel=0 note=76 velocity=0 time=16
note_on channel=0 note=72 velocity=0 time=0
note_on channel=0 note=72 velocity=80 time=8
note_on channel=0 note=77 velocity=80 time=0
note_on channel=0 note=77 velocity=0 time=32
note_on channel=0 note=72 velocity=0 time=0
note_on channel=0 note=79 velocity=80 time=16
note_on channel=0 note=79 velocity=0 time=16
note_on channel=0 note=77 velocity=80 time=8
note_on channel=0 note=72 velocity=80 time=0
note_on channel=0 note=72 velocity=0 time=16
note_on channel=0 note=77 velocity=0 time=0
note_on channel=0 note=72 velocity=80 time=8
note_on channel=0 note=72 velocity=0 time=16
note_on channel=0 note=75 velocity=80 time=8
note_on channel=0 note=75 velocity=0 time=16
note_on channel=0 note=80 velocity=80 time=8
note_on channel=0 note=80 velocity=0 time=16
note_on channel=0 note=75 velocity=80 time=8
note_on channel=0 note=72 velocity=80 time=0
note_on channel=0 note=84 velocity=80 time=0
note_on channel=0 note=84 velocity=0 time=128
note_on channel=0 note=72 velocity=0 time=0
note_on channel=0 note=75 velocity=0 time=0
note_on channel=0 note=79 velocity=80 time=88
note_on channel=0 note=79 velocity=0 time=16
note_on channel=0 note=82 velocity=80 time=8
note_on channel=0 note=82 velocity=0 time=16
note_on channel=0 note=85 velocity=80 time=8
note_on channel=0 note=85 velocity=0 time=16
note_on channel=0 note=89 velocity=80 time=8
note_on channel=0 note=79 velocity=80 time=0
note_on channel=0 note=79 velocity=0 time=16
note_on channel=0 note=89 velocity=0 time=0
note_on channel=0 note=87 velocity=80 time=8
note_on channel=0 note=87 velocity=0 time=32
note_on channel=0 note=85 velocity=80 time=16
note_on channel=0 note=85 velocity=0 time=16
note_on channel=0 note=75 velocity=80 time=8
note_on channel=0 note=75 velocity=0 time=16
note_on channel=0 note=79 velocity=80 time=8
note_on channel=0 note=79 velocity=0 time=16
note_on channel=0 note=82 velocity=80 time=8
note_on channel=0 note=82 velocity=0 time=16
note_on channel=0 note=75 velocity=80 time=8
note_on channel=0 note=79 velocity=80 time=0
note_on channel=0 note=87 velocity=80 time=0
note_on channel=0 note=87 velocity=0 time=32
note_on channel=0 note=79 velocity=0 time=0
note_on channel=0 note=75 velocity=0 time=0
note_on channel=0 note=67 velocity=80 time=16
note_on channel=0 note=73 velocity=80 time=0
note_on channel=0 note=79 velocity=80 time=0
note_on channel=0 note=79 velocity=0 time=16
note_on channel=0 note=73 velocity=0 time=0
note_on channel=0 note=67 velocity=0 time=0
note_on channel=0 note=68 velocity=80 time=8
note_on channel=0 note=73 velocity=80 time=0
note_on channel=0 note=80 velocity=80 time=0
note_on channel=0 note=80 velocity=0 time=16
note_on channel=0 note=73 velocity=0 time=0
note_on channel=0 note=68 velocity=0 time=0
note_on channel=0 note=70 velocity=80 time=8
note_on channel=0 note=73 velocity=80 time=0
note_on channel=0 note=82 velocity=80 time=0
note_on channel=0 note=82 velocity=0 time=16
note_on channel=0 note=73 velocity=0 time=0
note_on channel=0 note=70 velocity=0 time=0
note_on channel=0 note=71 velocity=80 time=8
note_on channel=0 note=74 velocity=80 time=0
note_on channel=0 note=83 velocity=80 time=0
note_on channel=0 note=83 velocity=0 time=16
note_on channel=0 note=74 velocity=0 time=0
note_on channel=0 note=71 velocity=0 time=0
note_on channel=0 note=72 velocity=80 time=8
note_on channel=0 note=75 velocity=80 time=0
note_on channel=0 note=84 velocity=80 time=0
note_on channel=0 note=84 velocity=0 time=32
note_on channel=0 note=75 velocity=0 time=0
note_on channel=0 note=72 velocity=0 time=0
note_on channel=0 note=72 velocity=80 time=16
note_on channel=0 note=76 velocity=80 time=0
note_on channel=0 note=84 velocity=80 time=0
note_on channel=0 note=84 velocity=0 time=32
note_on channel=0 note=76 velocity=0 time=0
note_on channel=0 note=72 velocity=0 time=0
note_on channel=0 note=79 velocity=80 time=16
note_on channel=0 note=76 velocity=80 time=0
note_on channel=0 note=76 velocity=0 time=16
note_on channel=0 note=79 velocity=0 time=0
note_on channel=0 note=79 velocity=80 time=8
note_on channel=0 note=84 velocity=80 time=0
note_on channel=0 note=76 velocity=80 time=0
note_on channel=0 note=72 velocity=80 time=0
note_on channel=0 note=72 velocity=0 time=32
note_on channel=0 note=79 velocity=0 time=0
note_on channel=0 note=84 velocity=0 time=0
note_on channel=0 note=76 velocity=0 time=0
note_on channel=0 note=72 velocity=80 time=16
note_on channel=0 note=77 velocity=80 time=0
note_on channel=0 note=80 velocity=80 time=0
note_on channel=0 note=84 velocity=80 time=0
note_on channel=0 note=84 velocity=0 time=32
note_on channel=0 note=72 velocity=0 time=0
note_on channel=0 note=77 velocity=0 time=0
note_on channel=0 note=80 velocity=0 time=0
note_on channel=0 note=72 velocity=80 time=16
note_on channel=0 note=84 velocity=80 time=0
note_on channel=0 note=84 velocity=0 time=16
note_on channel=0 note=72 velocity=0 time=0
note_on channel=0 note=77 velocity=80 time=8
note_on channel=0 note=77 velocity=0 time=16
note_on channel=0 note=80 velocity=80 time=8
note_on channel=0 note=80 velocity=0 time=16
note_on channel=0 note=84 velocity=80 time=8
note_on channel=0 note=80 velocity=80 time=0
note_on channel=0 note=77 velocity=80 time=0
note_on channel=0 note=72 velocity=80 time=0
note_on channel=0 note=72 velocity=0 time=32
note_on channel=0 note=84 velocity=0 time=0
note_on channel=0 note=80 velocity=0 time=0
note_on channel=0 note=77 velocity=0 time=0
note_on channel=0 note=73 velocity=80 time=16
note_on channel=0 note=77 velocity=80 time=0
note_on channel=0 note=84 velocity=80 time=0
note_on channel=0 note=84 velocity=0 time=72
note_on channel=0 note=77 velocity=0 time=0
note_on channel=0 note=73 velocity=0 time=0
note_on channel=0 note=82 velocity=80 time=24
note_on channel=0 note=82 velocity=0 time=16
note_on channel=0 note=80 velocity=80 time=8
note_on channel=0 note=80 velocity=0 time=16
note_on channel=0 note=77 velocity=80 time=8
note_on channel=0 note=77 velocity=0 time=16
note_on channel=0 note=73 velocity=80 time=8
note_on channel=0 note=73 velocity=0 time=32
note_on channel=0 note=72 velocity=80 time=16
note_on channel=0 note=75 velocity=80 time=0
note_on channel=0 note=84 velocity=80 time=0
note_on channel=0 note=84 velocity=0 time=48
note_on channel=0 note=75 velocity=0 time=0
note_on channel=0 note=72 velocity=0 time=0
note_on channel=0 note=82 velocity=80 time=24
note_on channel=0 note=82 velocity=0 time=16
note_on channel=0 note=80 velocity=80 time=8
note_on channel=0 note=80 velocity=0 time=16
note_on channel=0 note=75 velocity=80 time=8
note_on channel=0 note=75 velocity=0 time=16
note_on channel=0 note=72 velocity=80 time=8
note_on channel=0 note=72 velocity=0 time=32
note_on channel=0 note=73 velocity=80 time=16
note_on channel=0 note=76 velocity=80 time=0
note_on channel=0 note=76 velocity=0 time=16
note_on channel=0 note=73 velocity=0 time=0
note_on channel=0 note=73 velocity=80 time=8
note_on channel=0 note=77 velocity=80 time=0
note_on channel=0 note=77 velocity=0 time=32
note_on channel=0 note=73 velocity=0 time=0
note_on channel=0 note=79 velocity=80 time=16
note_on channel=0 note=79 velocity=0 time=16
note_on channel=0 note=77 velocity=80 time=8
note_on channel=0 note=73 velocity=80 time=0
note_on channel=0 note=73 velocity=0 time=16
note_on channel=0 note=77 velocity=0 time=0
note_on channel=0 note=67 velocity=80 time=8
note_on channel=0 note=67 velocity=0 time=16
note_on channel=0 note=70 velocity=80 time=8
note_on channel=0 note=70 velocity=0 time=16
note_on channel=0 note=75 velocity=80 time=8
note_on channel=0 note=75 velocity=0 time=16
note_on channel=0 note=68 velocity=80 time=8
note_on channel=0 note=68 velocity=0 time=96
note_on channel=0 note=75 velocity=80 time=48
note_on channel=0 note=75 velocity=0 time=32
note_on channel=0 note=79 velocity=80 time=40
note_on channel=0 note=79 velocity=0 time=16
note_on channel=0 note=82 velocity=80 time=8
note_on channel=0 note=82 velocity=0 time=16
note_on channel=0 note=85 velocity=80 time=8
note_on channel=0 note=85 velocity=0 time=16
note_on channel=0 note=89 velocity=80 time=8
note_on channel=0 note=79 velocity=80 time=0
note_on channel=0 note=79 velocity=0 time=16
note_on channel=0 note=89 velocity=0 time=0
note_on channel=0 note=87 velocity=80 time=8
note_on channel=0 note=87 velocity=0 time=32
note_on channel=0 note=85 velocity=80 time=16
note_on channel=0 note=85 velocity=0 time=16
note_on channel=0 note=75 velocity=80 time=8
note_on channel=0 note=75 velocity=0 time=16
note_on channel=0 note=79 velocity=80 time=8
note_on channel=0 note=79 velocity=0 time=16
note_on channel=0 note=82 velocity=80 time=8
note_on channel=0 note=82 velocity=0 time=16
note_on channel=0 note=75 velocity=80 time=8
note_on channel=0 note=79 velocity=80 time=0
note_on channel=0 note=87 velocity=80 time=0
note_on channel=0 note=87 velocity=0 time=32
note_on channel=0 note=79 velocity=0 time=0
note_on channel=0 note=75 velocity=0 time=0
note_on channel=0 note=67 velocity=80 time=16
note_on channel=0 note=73 velocity=80 time=0
note_on channel=0 note=79 velocity=80 time=0
note_on channel=0 note=79 velocity=0 time=16
note_on channel=0 note=73 velocity=0 time=0
note_on channel=0 note=67 velocity=0 time=0
note_on channel=0 note=68 velocity=80 time=8
note_on channel=0 note=73 velocity=80 time=0
note_on channel=0 note=80 velocity=80 time=0
note_on channel=0 note=80 velocity=0 time=16
note_on channel=0 note=73 velocity=0 time=0
note_on channel=0 note=68 velocity=0 time=0
note_on channel=0 note=70 velocity=80 time=8
note_on channel=0 note=73 velocity=80 time=0
note_on channel=0 note=82 velocity=80 time=0
note_on channel=0 note=82 velocity=0 time=16
note_on channel=0 note=73 velocity=0 time=0
note_on channel=0 note=70 velocity=0 time=0
note_on channel=0 note=71 velocity=80 time=8
note_on channel=0 note=74 velocity=80 time=0
note_on channel=0 note=83 velocity=80 time=0
note_on channel=0 note=83 velocity=0 time=16
note_on channel=0 note=74 velocity=0 time=0
note_on channel=0 note=71 velocity=0 time=0
note_on channel=0 note=72 velocity=80 time=8
note_on channel=0 note=75 velocity=80 time=0
note_on channel=0 note=84 velocity=80 time=0
note_on channel=0 note=84 velocity=0 time=32
note_on channel=0 note=75 velocity=0 time=0
note_on channel=0 note=72 velocity=0 time=0
note_on channel=0 note=71 velocity=80 time=16
note_on channel=0 note=74 velocity=80 time=0
note_on channel=0 note=83 velocity=80 time=0
note_on channel=0 note=83 velocity=0 time=16
note_on channel=0 note=74 velocity=0 time=0
note_on channel=0 note=71 velocity=0 time=0
note_on channel=0 note=72 velocity=80 time=8
note_on channel=0 note=75 velocity=80 time=0
note_on channel=0 note=84 velocity=80 time=0
note_on channel=0 note=84 velocity=0 time=32
note_on channel=0 note=75 velocity=0 time=0
note_on channel=0 note=72 velocity=0 time=0
note_on channel=0 note=71 velocity=80 time=16
note_on channel=0 note=74 velocity=80 time=0
note_on channel=0 note=83 velocity=80 time=0
note_on channel=0 note=83 velocity=0 time=16
note_on channel=0 note=74 velocity=0 time=0
note_on channel=0 note=71 velocity=0 time=0
note_on channel=0 note=72 velocity=80 time=8
note_on channel=0 note=75 velocity=80 time=0
note_on channel=0 note=84 velocity=80 time=0
note_on channel=0 note=84 velocity=0 time=120
note_on channel=0 note=75 velocity=0 time=0
note_on channel=0 note=72 velocity=0 time=0
note_on channel=0 note=72 velocity=80 time=48
note_on channel=0 note=75 velocity=80 time=0
note_on channel=0 note=75 velocity=0 time=32
note_on channel=0 note=72 velocity=0 time=0
note_on channel=0 note=73 velocity=80 time=16
note_on channel=0 note=76 velocity=80 time=0
note_on channel=0 note=76 velocity=0 time=16
note_on channel=0 note=73 velocity=0 time=0
note_on channel=0 note=73 velocity=80 time=8
note_on channel=0 note=77 velocity=80 time=0
note_on channel=0 note=77 velocity=0 time=32
note_on channel=0 note=73 velocity=0 time=0
note_on channel=0 note=73 velocity=80 time=16
note_on channel=0 note=70 velocity=80 time=0
note_on channel=0 note=70 velocity=0 time=88
note_on channel=0 note=73 velocity=0 time=0
note_on channel=0 note=73 velocity=80 time=32
note_on channel=0 note=76 velocity=80 time=0
note_on channel=0 note=76 velocity=0 time=16
note_on channel=0 note=73 velocity=0 time=0
note_on channel=0 note=73 velocity=80 time=8
note_on channel=0 note=77 velocity=80 time=0
note_on channel=0 note=77 velocity=0 time=32
note_on channel=0 note=73 velocity=0 time=0
note_on channel=0 note=73 velocity=80 time=16
note_on channel=0 note=70 velocity=80 time=0
note_on channel=0 note=70 velocity=0 time=88
note_on channel=0 note=73 velocity=0 time=0
note_on channel=0 note=72 velocity=80 time=32
note_on channel=0 note=76 velocity=80 time=0
note_on channel=0 note=76 velocity=0 time=16
note_on channel=0 note=72 velocity=0 time=0
note_on channel=0 note=72 velocity=80 time=8
note_on channel=0 note=77 velocity=80 time=0
note_on channel=0 note=77 velocity=0 time=32
note_on channel=0 note=72 velocity=0 time=0
note_on channel=0 note=79 velocity=80 time=16
note_on channel=0 note=79 velocity=0 time=16
note_on channel=0 note=77 velocity=80 time=8
note_on channel=0 note=72 velocity=80 time=0
note_on channel=0 note=72 velocity=0 time=16
note_on channel=0 note=77 velocity=0 time=0
note_on channel=0 note=72 velocity=80 time=8
note_on channel=0 note=72 velocity=0 time=16
note_on channel=0 note=75 velocity=80 time=8
note_on channel=0 note=75 velocity=0 time=16
note_on channel=0 note=80 velocity=80 time=8
note_on channel=0 note=80 velocity=0 time=16
note_on channel=0 note=75 velocity=80 time=8
note_on channel=0 note=72 velocity=80 time=0
note_on channel=0 note=84 velocity=80 time=0
note_on channel=0 note=84 velocity=0 time=128
note_on channel=0 note=72 velocity=0 time=0
note_on channel=0 note=75 velocity=0 time=0
note_on channel=0 note=79 velocity=80 time=88
note_on channel=0 note=79 velocity=0 time=16
note_on channel=0 note=82 velocity=80 time=8
note_on channel=0 note=82 velocity=0 time=16
note_on channel=0 note=85 velocity=80 time=8
note_on channel=0 note=85 velocity=0 time=16
note_on channel=0 note=89 velocity=80 time=8
note_on channel=0 note=79 velocity=80 time=0
note_on channel=0 note=79 velocity=0 time=16
note_on channel=0 note=89 velocity=0 time=0
note_on channel=0 note=87 velocity=80 time=8
note_on channel=0 note=87 velocity=0 time=32
note_on channel=0 note=85 velocity=80 time=16
note_on channel=0 note=85 velocity=0 time=16
note_on channel=0 note=75 velocity=80 time=8
note_on channel=0 note=75 velocity=0 time=16
note_on channel=0 note=79 velocity=80 time=8
note_on channel=0 note=79 velocity=0 time=16
note_on channel=0 note=82 velocity=80 time=8
note_on channel=0 note=82 velocity=0 time=16
note_on channel=0 note=75 velocity=80 time=8
note_on channel=0 note=79 velocity=80 time=0
note_on channel=0 note=87 velocity=80 time=0
note_on channel=0 note=87 velocity=0 time=32
note_on channel=0 note=79 velocity=0 time=0
note_on channel=0 note=75 velocity=0 time=0
note_on channel=0 note=67 velocity=80 time=16
note_on channel=0 note=73 velocity=80 time=0
note_on channel=0 note=79 velocity=80 time=0
note_on channel=0 note=79 velocity=0 time=16
note_on channel=0 note=73 velocity=0 time=0
note_on channel=0 note=67 velocity=0 time=0
note_on channel=0 note=68 velocity=80 time=8
note_on channel=0 note=73 velocity=80 time=0
note_on channel=0 note=80 velocity=80 time=0
note_on channel=0 note=80 velocity=0 time=16
note_on channel=0 note=73 velocity=0 time=0
note_on channel=0 note=68 velocity=0 time=0
note_on channel=0 note=70 velocity=80 time=8
note_on channel=0 note=73 velocity=80 time=0
note_on channel=0 note=82 velocity=80 time=0
note_on channel=0 note=82 velocity=0 time=16
note_on channel=0 note=73 velocity=0 time=0
note_on channel=0 note=70 velocity=0 time=0
note_on channel=0 note=71 velocity=80 time=8
note_on channel=0 note=74 velocity=80 time=0
note_on channel=0 note=83 velocity=80 time=0
note_on channel=0 note=83 velocity=0 time=16
note_on channel=0 note=74 velocity=0 time=0
note_on channel=0 note=71 velocity=0 time=0
note_on channel=0 note=72 velocity=80 time=8
note_on channel=0 note=75 velocity=80 time=0
note_on channel=0 note=84 velocity=80 time=0
note_on channel=0 note=84 velocity=0 time=32
note_on channel=0 note=75 velocity=0 time=0
note_on channel=0 note=72 velocity=0 time=0
note_on channel=0 note=72 velocity=80 time=16
note_on channel=0 note=76 velocity=80 time=0
note_on channel=0 note=84 velocity=80 time=0
note_on channel=0 note=84 velocity=0 time=32
note_on channel=0 note=76 velocity=0 time=0
note_on channel=0 note=72 velocity=0 time=0
note_on channel=0 note=79 velocity=80 time=16
note_on channel=0 note=76 velocity=80 time=0
note_on channel=0 note=76 velocity=0 time=16
note_on channel=0 note=79 velocity=0 time=0
note_on channel=0 note=79 velocity=80 time=8
note_on channel=0 note=84 velocity=80 time=0
note_on channel=0 note=76 velocity=80 time=0
note_on channel=0 note=72 velocity=80 time=0
note_on channel=0 note=72 velocity=0 time=32
note_on channel=0 note=79 velocity=0 time=0
note_on channel=0 note=84 velocity=0 time=0
note_on channel=0 note=76 velocity=0 time=0
note_on channel=0 note=72 velocity=80 time=16
note_on channel=0 note=77 velocity=80 time=0
note_on channel=0 note=80 velocity=80 time=0
note_on channel=0 note=84 velocity=80 time=0
note_on channel=0 note=84 velocity=0 time=32
note_on channel=0 note=72 velocity=0 time=0
note_on channel=0 note=77 velocity=0 time=0
note_on channel=0 note=80 velocity=0 time=0
note_on channel=0 note=72 velocity=80 time=16
note_on channel=0 note=84 velocity=80 time=0
note_on channel=0 note=84 velocity=0 time=16
note_on channel=0 note=72 velocity=0 time=0
note_on channel=0 note=77 velocity=80 time=8
note_on channel=0 note=77 velocity=0 time=16
note_on channel=0 note=80 velocity=80 time=8
note_on channel=0 note=80 velocity=0 time=16
note_on channel=0 note=84 velocity=80 time=8
note_on channel=0 note=80 velocity=80 time=0
note_on channel=0 note=77 velocity=80 time=0
note_on channel=0 note=72 velocity=80 time=0
note_on channel=0 note=72 velocity=0 time=32
note_on channel=0 note=84 velocity=0 time=0
note_on channel=0 note=80 velocity=0 time=0
note_on channel=0 note=77 velocity=0 time=0
note_on channel=0 note=73 velocity=80 time=16
note_on channel=0 note=77 velocity=80 time=0
note_on channel=0 note=84 velocity=80 time=0
note_on channel=0 note=84 velocity=0 time=72
note_on channel=0 note=77 velocity=0 time=0
note_on channel=0 note=73 velocity=0 time=0
note_on channel=0 note=82 velocity=80 time=24
note_on channel=0 note=82 velocity=0 time=16
note_on channel=0 note=80 velocity=80 time=8
note_on channel=0 note=80 velocity=0 time=16
note_on channel=0 note=77 velocity=80 time=8
note_on channel=0 note=77 velocity=0 time=16
note_on channel=0 note=73 velocity=80 time=8
note_on channel=0 note=73 velocity=0 time=32
note_on channel=0 note=72 velocity=80 time=16
note_on channel=0 note=75 velocity=80 time=0
note_on channel=0 note=84 velocity=80 time=0
note_on channel=0 note=84 velocity=0 time=48
note_on channel=0 note=75 velocity=0 time=0
note_on channel=0 note=72 velocity=0 time=0
note_on channel=0 note=82 velocity=80 time=24
note_on channel=0 note=82 velocity=0 time=16
note_on channel=0 note=80 velocity=80 time=8
note_on channel=0 note=80 velocity=0 time=16
note_on channel=0 note=75 velocity=80 time=8
note_on channel=0 note=75 velocity=0 time=16
note_on channel=0 note=72 velocity=80 time=8
note_on channel=0 note=72 velocity=0 time=32
note_on channel=0 note=73 velocity=80 time=16
note_on channel=0 note=76 velocity=80 time=0
note_on channel=0 note=76 velocity=0 time=16
note_on channel=0 note=73 velocity=0 time=0
note_on channel=0 note=73 velocity=80 time=8
note_on channel=0 note=77 velocity=80 time=0
note_on channel=0 note=77 velocity=0 time=32
note_on channel=0 note=73 velocity=0 time=0
note_on channel=0 note=79 velocity=80 time=16
note_on channel=0 note=79 velocity=0 time=16
note_on channel=0 note=77 velocity=80 time=8
note_on channel=0 note=73 velocity=80 time=0
note_on channel=0 note=73 velocity=0 time=16
note_on channel=0 note=77 velocity=0 time=0
note_on channel=0 note=67 velocity=80 time=8
note_on channel=0 note=67 velocity=0 time=16
note_on channel=0 note=70 velocity=80 time=8
note_on channel=0 note=70 velocity=0 time=16
note_on channel=0 note=75 velocity=80 time=8
note_on channel=0 note=75 velocity=0 time=16
note_on channel=0 note=68 velocity=80 time=8
note_on channel=0 note=68 velocity=0 time=32
note_on channel=0 note=74 velocity=80 time=8
note_on channel=0 note=74 velocity=0 time=6
note_on channel=0 note=75 velocity=80 time=2
note_on channel=0 note=75 velocity=0 time=32
note_on channel=0 note=84 velocity=80 time=136
note_on channel=0 note=84 velocity=0 time=16
note_on channel=0 note=80 velocity=80 time=8
note_on channel=0 note=80 velocity=0 time=16
note_on channel=0 note=77 velocity=80 time=8
note_on channel=0 note=77 velocity=0 time=16
note_on channel=0 note=74 velocity=80 time=8
note_on channel=0 note=74 velocity=0 time=16
note_on channel=0 note=75 velocity=80 time=8
note_on channel=0 note=75 velocity=0 time=16
note_on channel=0 note=68 velocity=80 time=8
note_on channel=0 note=68 velocity=0 time=16
note_on channel=0 note=70 velocity=80 time=8
note_on channel=0 note=70 velocity=0 time=16
note_on channel=0 note=62 velocity=80 time=8
note_on channel=0 note=71 velocity=80 time=0
note_on channel=0 note=71 velocity=0 time=16
note_on channel=0 note=67 velocity=80 time=8
note_on channel=0 note=67 velocity=0 time=16
note_on channel=0 note=62 velocity=0 time=8
note_on channel=0 note=68 velocity=80 time=0
note_on channel=0 note=68 velocity=0 time=16
note_on channel=0 note=61 velocity=80 time=8
note_on channel=0 note=70 velocity=80 time=0
note_on channel=0 note=67 velocity=80 time=0
note_on channel=0 note=67 velocity=0 time=32
note_on channel=0 note=70 velocity=0 time=0
note_on channel=0 note=61 velocity=0 time=16
note_on channel=0 note=75 velocity=80 time=0
note_on channel=0 note=75 velocity=0 time=16
note_on channel=0 note=87 velocity=80 time=8
note_on channel=0 note=87 velocity=0 time=16
note_on channel=0 note=85 velocity=80 time=8
note_on channel=0 note=85 velocity=0 time=16
note_on channel=0 note=84 velocity=80 time=32
note_on channel=0 note=84 velocity=0 time=16
note_on channel=0 note=80 velocity=80 time=8
note_on channel=0 note=80 velocity=0 time=16
note_on channel=0 note=77 velocity=80 time=8
note_on channel=0 note=77 velocity=0 time=16
note_on channel=0 note=74 velocity=80 time=8
note_on channel=0 note=74 velocity=0 time=16
note_on channel=0 note=75 velocity=80 time=8
note_on channel=0 note=75 velocity=0 time=16
note_on channel=0 note=68 velocity=80 time=8
note_on channel=0 note=68 velocity=0 time=16
note_on channel=0 note=70 velocity=80 time=8
note_on channel=0 note=70 velocity=0 time=16
note_on channel=0 note=62 velocity=80 time=8
note_on channel=0 note=71 velocity=80 time=0
note_on channel=0 note=71 velocity=0 time=16
note_on channel=0 note=67 velocity=80 time=8
note_on channel=0 note=67 velocity=0 time=16
note_on channel=0 note=62 velocity=0 time=8
note_on channel=0 note=68 velocity=80 time=0
note_on channel=0 note=68 velocity=0 time=16
note_on channel=0 note=61 velocity=80 time=8
note_on channel=0 note=67 velocity=80 time=0
note_on channel=0 note=70 velocity=80 time=0
note_on channel=0 note=70 velocity=0 time=48
note_on channel=0 note=67 velocity=0 time=0
note_on channel=0 note=61 velocity=0 time=0
note_on channel=0 note=73 velocity=80 time=120
note_on channel=0 note=65 velocity=80 time=0
note_on channel=0 note=70 velocity=80 time=0
note_on channel=0 note=67 velocity=80 time=0
note_on channel=0 note=67 velocity=0 time=32
note_on channel=0 note=73 velocity=0 time=0
note_on channel=0 note=65 velocity=0 time=0
note_on channel=0 note=70 velocity=0 time=0
note_on channel=0 note=72 velocity=80 time=16
note_on channel=0 note=64 velocity=80 time=0
note_on channel=0 note=70 velocity=80 time=0
note_on channel=0 note=67 velocity=80 time=0
note_on channel=0 note=67 velocity=0 time=32
note_on channel=0 note=72 velocity=0 time=0
note_on channel=0 note=64 velocity=0 time=0
note_on channel=0 note=70 velocity=0 time=0
note_on channel=0 note=77 velocity=80 time=112
note_on channel=0 note=70 velocity=80 time=0
note_on channel=0 note=67 velocity=80 time=0
note_on channel=0 note=67 velocity=0 time=32
note_on channel=0 note=70 velocity=0 time=0
note_on channel=0 note=77 velocity=0 time=0
note_on channel=0 note=76 velocity=80 time=16
note_on channel=0 note=70 velocity=80 time=0
note_on channel=0 note=67 velocity=80 time=0
note_on channel=0 note=67 velocity=0 time=32
note_on channel=0 note=70 velocity=0 time=0
note_on channel=0 note=76 velocity=0 time=0
note_on channel=0 note=65 velocity=80 time=256
note_on channel=0 note=65 velocity=0 time=16
note_on channel=0 note=67 velocity=80 time=8
note_on channel=0 note=67 velocity=0 time=16
note_on channel=0 note=68 velocity=80 time=8
note_on channel=0 note=68 velocity=0 time=16
note_on channel=0 note=72 velocity=80 time=8
note_on channel=0 note=72 velocity=0 time=16
note_on channel=0 note=77 velocity=80 time=8
note_on channel=0 note=65 velocity=80 time=0
note_on channel=0 note=65 velocity=0 time=16
note_on channel=0 note=77 velocity=0 time=0
note_on channel=0 note=79 velocity=80 time=8
note_on channel=0 note=67 velocity=80 time=0
note_on channel=0 note=67 velocity=0 time=16
note_on channel=0 note=79 velocity=0 time=0
note_on channel=0 note=80 velocity=80 time=8
note_on channel=0 note=68 velocity=80 time=0
note_on channel=0 note=68 velocity=0 time=16
note_on channel=0 note=80 velocity=0 time=0
note_on channel=0 note=84 velocity=80 time=8
note_on channel=0 note=72 velocity=80 time=0
note_on channel=0 note=72 velocity=0 time=16
note_on channel=0 note=84 velocity=0 time=0
note_on channel=0 note=77 velocity=80 time=8
note_on channel=0 note=89 velocity=80 time=0
note_on channel=0 note=62 velocity=80 time=0
note_on channel=0 note=65 velocity=80 time=0
note_on channel=0 note=68 velocity=80 time=0
note_on channel=0 note=71 velocity=80 time=0
note_on channel=0 note=71 velocity=0 time=32
note_on channel=0 note=89 velocity=0 time=0
note_on channel=0 note=62 velocity=0 time=0
note_on channel=0 note=77 velocity=0 time=0
note_on channel=0 note=68 velocity=0 time=0
note_on channel=0 note=65 velocity=0 time=0
note_on channel=0 note=79 velocity=80 time=16
note_on channel=0 note=91 velocity=80 time=0
note_on channel=0 note=62 velocity=80 time=0
note_on channel=0 note=65 velocity=80 time=0
note_on channel=0 note=68 velocity=80 time=0
note_on channel=0 note=71 velocity=80 time=0
note_on channel=0 note=91 velocity=0 time=16
note_on channel=0 note=79 velocity=0 time=0
note_on channel=0 note=89 velocity=80 time=8
note_on channel=0 note=77 velocity=80 time=0
note_on channel=0 note=68 velocity=0 time=8
note_on channel=0 note=62 velocity=0 time=0
note_on channel=0 note=65 velocity=0 time=0
note_on channel=0 note=71 velocity=0 time=0
note_on channel=0 note=62 velocity=80 time=16
note_on channel=0 note=65 velocity=80 time=0
note_on channel=0 note=68 velocity=80 time=0
note_on channel=0 note=71 velocity=80 time=0
note_on channel=0 note=77 velocity=0 time=8
note_on channel=0 note=89 velocity=0 time=0
note_on channel=0 note=79 velocity=80 time=16
note_on channel=0 note=91 velocity=80 time=0
note_on channel=0 note=68 velocity=0 time=8
note_on channel=0 note=62 velocity=0 time=0
note_on channel=0 note=65 velocity=0 time=0
note_on channel=0 note=71 velocity=0 time=0
note_on channel=0 note=91 velocity=0 time=8
note_on channel=0 note=79 velocity=0 time=0
note_on channel=0 note=89 velocity=80 time=8
note_on channel=0 note=77 velocity=80 time=0
note_on channel=0 note=62 velocity=80 time=0
note_on channel=0 note=65 velocity=80 time=0
note_on channel=0 note=68 velocity=80 time=0
note_on channel=0 note=71 velocity=80 time=0
note_on channel=0 note=77 velocity=0 time=16
note_on channel=0 note=89 velocity=0 time=0
note_on channel=0 note=77 velocity=80 time=8
note_on channel=0 note=89 velocity=80 time=0
note_on channel=0 note=68 velocity=0 time=8
note_on channel=0 note=62 velocity=0 time=0
note_on channel=0 note=65 velocity=0 time=0
note_on channel=0 note=71 velocity=0 time=0
note_on channel=0 note=72 velocity=80 time=16
note_on channel=0 note=68 velocity=80 time=0
note_on channel=0 note=63 velocity=80 time=0
note_on channel=0 note=89 velocity=0 time=8
note_on channel=0 note=77 velocity=0 time=0
note_on channel=0 note=87 velocity=80 time=16
note_on channel=0 note=68 velocity=0 time=8
note_on channel=0 note=63 velocity=0 time=0
note_on channel=0 note=72 velocity=0 time=0
note_on channel=0 note=87 velocity=0 time=8
note_on channel=0 note=84 velocity=80 time=8
note_on channel=0 note=63 velocity=80 time=0
note_on channel=0 note=68 velocity=80 time=0
note_on channel=0 note=72 velocity=80 time=0
note_on channel=0 note=84 velocity=0 time=16
note_on channel=0 note=82 velocity=80 time=8
note_on channel=0 note=63 velocity=0 time=8
note_on channel=0 note=72 velocity=0 time=0
note_on channel=0 note=68 velocity=0 time=0
note_on channel=0 note=82 velocity=0 time=8
note_on channel=0 note=80 velocity=80 time=8
note_on channel=0 note=72 velocity=80 time=0
note_on channel=0 note=68 velocity=80 time=0
note_on channel=0 note=66 velocity=80 time=0
note_on channel=0 note=80 velocity=0 time=16
note_on channel=0 note=87 velocity=80 time=8
note_on channel=0 note=72 velocity=0 time=8
note_on channel=0 note=66 velocity=0 time=0
note_on channel=0 note=68 velocity=0 time=0
note_on channel=0 note=72 velocity=80 time=16
note_on channel=0 note=68 velocity=80 time=0
note_on channel=0 note=66 velocity=80 time=0
note_on channel=0 note=87 velocity=0 time=8
note_on channel=0 note=85 velocity=80 time=16
note_on channel=0 note=72 velocity=0 time=8
note_on channel=0 note=66 velocity=0 time=0
note_on channel=0 note=68 velocity=0 time=0
note_on channel=0 note=73 velocity=80 time=16
note_on channel=0 note=68 velocity=80 time=0
note_on channel=0 note=65 velocity=80 time=0
note_on channel=0 note=85 velocity=0 time=8
note_on channel=0 note=82 velocity=80 time=16
note_on channel=0 note=73 velocity=0 time=8
note_on channel=0 note=65 velocity=0 time=0
note_on channel=0 note=68 velocity=0 time=0
note_on channel=0 note=82 velocity=0 time=8
note_on channel=0 note=94 velocity=80 time=8
note_on channel=0 note=73 velocity=80 time=0
note_on channel=0 note=68 velocity=80 time=0
note_on channel=0 note=64 velocity=80 time=0
note_on channel=0 note=94 velocity=0 time=16
note_on channel=0 note=92 velocity=80 time=8
note_on channel=0 note=73 velocity=0 time=8
note_on channel=0 note=64 velocity=0 time=0
note_on channel=0 note=68 velocity=0 time=0
note_on channel=0 note=92 velocity=0 time=8
note_on channel=0 note=80 velocity=80 time=8
note_on channel=0 note=72 velocity=80 time=0
note_on channel=0 note=68 velocity=80 time=0
note_on channel=0 note=63 velocity=80 time=0
note_on channel=0 note=80 velocity=0 time=16
note_on channel=0 note=84 velocity=80 time=8
note_on channel=0 note=72 velocity=0 time=8
note_on channel=0 note=63 velocity=0 time=0
note_on channel=0 note=68 velocity=0 time=0
note_on channel=0 note=72 velocity=80 time=16
note_on channel=0 note=68 velocity=80 time=0
note_on channel=0 note=63 velocity=80 time=0
note_on channel=0 note=84 velocity=0 time=8
note_on channel=0 note=89 velocity=80 time=16
note_on channel=0 note=72 velocity=0 time=8
note_on channel=0 note=63 velocity=0 time=0
note_on channel=0 note=68 velocity=0 time=0
note_on channel=0 note=89 velocity=0 time=8
note_on channel=0 note=87 velocity=80 time=8
note_on channel=0 note=73 velocity=80 time=0
note_on channel=0 note=67 velocity=80 time=0
note_on channel=0 note=63 velocity=80 time=0
note_on channel=0 note=87 velocity=0 time=16
note_on channel=0 note=82 velocity=80 time=8
note_on channel=0 note=73 velocity=0 time=8
note_on channel=0 note=63 velocity=0 time=0
note_on channel=0 note=67 velocity=0 time=0
note_on channel=0 note=82 velocity=0 time=8
note_on channel=0 note=83 velocity=80 time=8
note_on channel=0 note=63 velocity=80 time=0
note_on channel=0 note=67 velocity=80 time=0
note_on channel=0 note=73 velocity=80 time=0
note_on channel=0 note=83 velocity=0 time=16
note_on channel=0 note=84 velocity=80 time=8
note_on channel=0 note=63 velocity=0 time=8
note_on channel=0 note=73 velocity=0 time=0
note_on channel=0 note=67 velocity=0 time=0
note_on channel=0 note=72 velocity=80 time=16
note_on channel=0 note=68 velocity=80 time=0
note_on channel=0 note=63 velocity=80 time=0
note_on channel=0 note=84 velocity=0 time=8
note_on channel=0 note=74 velocity=80 time=16
note_on channel=0 note=72 velocity=0 time=8
note_on channel=0 note=63 velocity=0 time=0
note_on channel=0 note=68 velocity=0 time=0
note_on channel=0 note=74 velocity=0 time=8
note_on channel=0 note=75 velocity=80 time=8
note_on channel=0 note=63 velocity=80 time=0
note_on channel=0 note=68 velocity=80 time=0
note_on channel=0 note=72 velocity=80 time=0
note_on channel=0 note=75 velocity=0 time=16
note_on channel=0 note=77 velocity=80 time=8
note_on channel=0 note=65 velocity=80 time=0
note_on channel=0 note=63 velocity=0 time=8
note_on channel=0 note=72 velocity=0 time=0
note_on channel=0 note=68 velocity=0 time=0
note_on channel=0 note=77 velocity=0 time=56
note_on channel=0 note=65 velocity=0 time=0
note_on channel=0 note=67 velocity=80 time=8
note_on channel=0 note=79 velocity=80 time=0
note_on channel=0 note=79 velocity=0 time=16
note_on channel=0 note=67 velocity=0 time=0
note_on channel=0 note=65 velocity=80 time=8
note_on channel=0 note=77 velocity=80 time=0
note_on channel=0 note=77 velocity=0 time=32
note_on channel=0 note=65 velocity=0 time=0
note_on channel=0 note=79 velocity=80 time=16
note_on channel=0 note=67 velocity=80 time=0
note_on channel=0 note=67 velocity=0 time=16
note_on channel=0 note=79 velocity=0 time=0
note_on channel=0 note=65 velocity=80 time=8
note_on channel=0 note=77 velocity=80 time=0
note_on channel=0 note=77 velocity=0 time=16
note_on channel=0 note=65 velocity=0 time=0
note_on channel=0 note=77 velocity=80 time=8
note_on channel=0 note=65 velocity=80 time=0
note_on channel=0 note=65 velocity=0 time=32
note_on channel=0 note=77 velocity=0 time=0
note_on channel=0 note=75 velocity=80 time=16
note_on channel=0 note=75 velocity=0 time=16
note_on channel=0 note=72 velocity=80 time=8
note_on channel=0 note=72 velocity=0 time=16
note_on channel=0 note=70 velocity=80 time=8
note_on channel=0 note=70 velocity=0 time=16
note_on channel=0 note=68 velocity=80 time=8
note_on channel=0 note=68 velocity=0 time=16
note_on channel=0 note=75 velocity=80 time=8
note_on channel=0 note=75 velocity=0 time=32
note_on channel=0 note=73 velocity=80 time=16
note_on channel=0 note=73 velocity=0 time=32
note_on channel=0 note=70 velocity=80 time=16
note_on channel=0 note=70 velocity=0 time=16
note_on channel=0 note=82 velocity=80 time=8
note_on channel=0 note=82 velocity=0 time=16
note_on channel=0 note=80 velocity=80 time=8
note_on channel=0 note=80 velocity=0 time=16
note_on channel=0 note=72 velocity=80 time=8
note_on channel=0 note=72 velocity=0 time=16
note_on channel=0 note=77 velocity=80 time=8
note_on channel=0 note=68 velocity=80 time=0
note_on channel=0 note=68 velocity=0 time=32
note_on channel=0 note=77 velocity=0 time=0
note_on channel=0 note=75 velocity=80 time=16
note_on channel=0 note=75 velocity=0 time=16
note_on channel=0 note=62 velocity=80 time=8
note_on channel=0 note=68 velocity=80 time=0
note_on channel=0 note=68 velocity=0 time=16
note_on channel=0 note=70 velocity=80 time=8
note_on channel=0 note=62 velocity=0 time=8
note_on channel=0 note=70 velocity=0 time=8
note_on channel=0 note=61 velocity=80 time=8
note_on channel=0 note=67 velocity=80 time=0
note_on channel=0 note=70 velocity=80 time=0
note_on channel=0 note=70 velocity=0 time=32
note_on channel=0 note=67 velocity=0 time=0
note_on channel=0 note=61 velocity=0 time=0
note_on channel=0 note=60 velocity=80 time=16
note_on channel=0 note=68 velocity=80 time=0
note_on channel=0 note=68 velocity=0 time=32
note_on channel=0 note=60 velocity=0 time=0
note_on channel=0 note=68 velocity=80 time=16
note_on channel=0 note=80 velocity=80 time=0
note_on channel=0 note=80 velocity=0 time=32
note_on channel=0 note=68 velocity=0 time=0
note_on channel=0 note=68 velocity=80 time=16
note_on channel=0 note=73 velocity=80 time=0
note_on channel=0 note=77 velocity=80 time=0
note_on channel=0 note=80 velocity=80 time=0
note_on channel=0 note=80 velocity=0 time=16
note_on channel=0 note=68 velocity=0 time=0
note_on channel=0 note=73 velocity=0 time=0
note_on channel=0 note=77 velocity=0 time=0
note_on channel=0 note=73 velocity=80 time=8
note_on channel=0 note=73 velocity=0 time=16
note_on channel=0 note=77 velocity=80 time=8
note_on channel=0 note=77 velocity=0 time=16
note_on channel=0 note=73 velocity=80 time=8
note_on channel=0 note=70 velocity=80 time=0
note_on channel=0 note=78 velocity=80 time=0
note_on channel=0 note=82 velocity=80 time=0
note_on channel=0 note=82 velocity=0 time=32
note_on channel=0 note=73 velocity=0 time=0
note_on channel=0 note=70 velocity=0 time=0
note_on channel=0 note=78 velocity=0 time=0
note_on channel=0 note=84 velocity=80 time=16
note_on channel=0 note=72 velocity=80 time=0
note_on channel=0 note=72 velocity=0 time=16
note_on channel=0 note=84 velocity=0 time=0
note_on channel=0 note=73 velocity=80 time=8
note_on channel=0 note=85 velocity=80 time=0
note_on channel=0 note=85 velocity=0 time=16
note_on channel=0 note=73 velocity=0 time=0
note_on channel=0 note=75 velocity=80 time=8
note_on channel=0 note=87 velocity=80 time=0
note_on channel=0 note=87 velocity=0 time=16
note_on channel=0 note=75 velocity=0 time=0
note_on channel=0 note=77 velocity=80 time=8
note_on channel=0 note=89 velocity=80 time=0
note_on channel=0 note=89 velocity=0 time=16
note_on channel=0 note=77 velocity=0 time=0
note_on channel=0 note=92 velocity=80 time=8
note_on channel=0 note=80 velocity=80 time=0
note_on channel=0 note=80 velocity=0 time=16
note_on channel=0 note=92 velocity=0 time=0
note_on channel=0 note=77 velocity=80 time=8
note_on channel=0 note=89 velocity=80 time=0
note_on channel=0 note=89 velocity=0 time=16
note_on channel=0 note=77 velocity=0 time=0
note_on channel=0 note=87 velocity=80 time=8
note_on channel=0 note=75 velocity=80 time=0
note_on channel=0 note=75 velocity=0 time=16
note_on channel=0 note=87 velocity=0 time=0
note_on channel=0 note=73 velocity=80 time=8
note_on channel=0 note=85 velocity=80 time=0
note_on channel=0 note=85 velocity=0 time=16
note_on channel=0 note=73 velocity=0 time=0
note_on channel=0 note=82 velocity=80 time=8
note_on channel=0 note=70 velocity=80 time=0
note_on channel=0 note=70 velocity=0 time=16
note_on channel=0 note=82 velocity=0 time=0
note_on channel=0 note=68 velocity=80 time=8
note_on channel=0 note=80 velocity=80 time=0
note_on channel=0 note=80 velocity=0 time=16
note_on channel=0 note=68 velocity=0 time=0
note_on channel=0 note=77 velocity=80 time=8
note_on channel=0 note=65 velocity=80 time=0
note_on channel=0 note=65 velocity=0 time=16
note_on channel=0 note=77 velocity=0 time=0
note_on channel=0 note=66 velocity=80 time=8
note_on channel=0 note=72 velocity=80 time=0
note_on channel=0 note=77 velocity=80 time=0
note_on channel=0 note=77 velocity=0 time=16
note_on channel=0 note=75 velocity=80 time=8
note_on channel=0 note=72 velocity=0 time=24
note_on channel=0 note=66 velocity=0 time=0
note_on channel=0 note=75 velocity=0 time=8
note_on channel=0 note=66 velocity=80 time=16
note_on channel=0 note=66 velocity=0 time=48
note_on channel=0 note=77 velocity=80 time=0
note_on channel=0 note=77 velocity=0 time=16
note_on channel=0 note=66 velocity=80 time=8
note_on channel=0 note=72 velocity=80 time=0
note_on channel=0 note=75 velocity=80 time=0
note_on channel=0 note=75 velocity=0 time=32
note_on channel=0 note=72 velocity=0 time=0
note_on channel=0 note=66 velocity=0 time=0
note_on channel=0 note=65 velocity=80 time=16
note_on channel=0 note=68 velocity=80 time=0
note_on channel=0 note=75 velocity=80 time=0
note_on channel=0 note=75 velocity=0 time=16
note_on channel=0 note=73 velocity=80 time=8
note_on channel=0 note=68 velocity=0 time=24
note_on channel=0 note=65 velocity=0 time=0
note_on channel=0 note=73 velocity=0 time=8
note_on channel=0 note=65 velocity=80 time=16
note_on channel=0 note=65 velocity=0 time=48
note_on channel=0 note=75 velocity=80 time=0
note_on channel=0 note=75 velocity=0 time=16
note_on channel=0 note=65 velocity=80 time=8
note_on channel=0 note=70 velocity=80 time=0
note_on channel=0 note=73 velocity=80 time=0
note_on channel=0 note=73 velocity=0 time=32
note_on channel=0 note=70 velocity=0 time=0
note_on channel=0 note=65 velocity=0 time=0
note_on channel=0 note=65 velocity=80 time=16
note_on channel=0 note=68 velocity=80 time=0
note_on channel=0 note=72 velocity=80 time=0
note_on channel=0 note=72 velocity=0 time=16
note_on channel=0 note=68 velocity=80 time=8
note_on channel=0 note=68 velocity=0 time=16
note_on channel=0 note=68 velocity=0 time=8
note_on channel=0 note=65 velocity=0 time=0
note_on channel=0 note=72 velocity=80 time=0
note_on channel=0 note=72 velocity=0 time=16
note_on channel=0 note=64 velocity=80 time=8
note_on channel=0 note=70 velocity=80 time=0
note_on channel=0 note=73 velocity=80 time=0
note_on channel=0 note=73 velocity=0 time=32
note_on channel=0 note=70 velocity=0 time=0
note_on channel=0 note=64 velocity=0 time=0
note_on channel=0 note=64 velocity=80 time=16
note_on channel=0 note=64 velocity=0 time=16
note_on channel=0 note=64 velocity=80 time=8
note_on channel=0 note=70 velocity=80 time=0
note_on channel=0 note=72 velocity=80 time=0
note_on channel=0 note=72 velocity=0 time=32
note_on channel=0 note=70 velocity=0 time=0
note_on channel=0 note=64 velocity=0 time=0
note_on channel=0 note=65 velocity=80 time=16
note_on channel=0 note=68 velocity=80 time=0
note_on channel=0 note=72 velocity=80 time=0
note_on channel=0 note=72 velocity=0 time=16
note_on channel=0 note=68 velocity=80 time=8
note_on channel=0 note=68 velocity=0 time=16
note_on channel=0 note=68 velocity=0 time=8
note_on channel=0 note=65 velocity=0 time=0
note_on channel=0 note=72 velocity=80 time=0
note_on channel=0 note=72 velocity=0 time=16
note_on channel=0 note=65 velocity=80 time=8
note_on channel=0 note=68 velocity=80 time=0
note_on channel=0 note=71 velocity=80 time=0
note_on channel=0 note=71 velocity=0 time=48
note_on channel=0 note=68 velocity=0 time=0
note_on channel=0 note=65 velocity=0 time=0
note_on channel=0 note=64 velocity=80 time=24
note_on channel=0 note=68 velocity=80 time=0
note_on channel=0 note=70 velocity=80 time=0
note_on channel=0 note=70 velocity=0 time=32
note_on channel=0 note=68 velocity=0 time=0
note_on channel=0 note=64 velocity=0 time=0
note_on channel=0 note=63 velocity=80 time=16
note_on channel=0 note=68 velocity=80 time=0
note_on channel=0 note=68 velocity=0 time=16
note_on channel=0 note=75 velocity=80 time=8
note_on channel=0 note=63 velocity=0 time=8
note_on channel=0 note=75 velocity=0 time=8
note_on channel=0 note=68 velocity=80 time=8
note_on channel=0 note=71 velocity=80 time=0
note_on channel=0 note=76 velocity=80 time=0
note_on channel=0 note=76 velocity=0 time=32
note_on channel=0 note=71 velocity=0 time=0
note_on channel=0 note=68 velocity=0 time=0
note_on channel=0 note=76 velocity=80 time=16
note_on channel=0 note=73 velocity=80 time=0
note_on channel=0 note=67 velocity=80 time=0
note_on channel=0 note=67 velocity=0 time=32
note_on channel=0 note=73 velocity=0 time=0
note_on channel=0 note=76 velocity=0 time=0
note_on channel=0 note=75 velocity=80 time=16
note_on channel=0 note=73 velocity=80 time=0
note_on channel=0 note=66 velocity=80 time=0
note_on channel=0 note=66 velocity=0 time=32
note_on channel=0 note=73 velocity=0 time=0
note_on channel=0 note=75 velocity=0 time=0
note_on channel=0 note=66 velocity=80 time=16
note_on channel=0 note=72 velocity=80 time=0
note_on channel=0 note=75 velocity=80 time=0
note_on channel=0 note=75 velocity=0 time=32
note_on channel=0 note=72 velocity=0 time=0
note_on channel=0 note=66 velocity=0 time=0
note_on channel=0 note=68 velocity=80 time=16
note_on channel=0 note=72 velocity=80 time=0
note_on channel=0 note=75 velocity=80 time=0
note_on channel=0 note=80 velocity=80 time=0
note_on channel=0 note=80 velocity=0 time=16
note_on channel=0 note=68 velocity=0 time=0
note_on channel=0 note=72 velocity=0 time=0
note_on channel=0 note=75 velocity=0 time=0
note_on channel=0 note=72 velocity=80 time=8
note_on channel=0 note=72 velocity=0 time=16
note_on channel=0 note=75 velocity=80 time=8
note_on channel=0 note=75 velocity=0 time=16
note_on channel=0 note=75 velocity=80 time=8
note_on channel=0 note=72 velocity=80 time=0
note_on channel=0 note=68 velocity=80 time=0
note_on channel=0 note=80 velocity=80 time=0
note_on channel=0 note=80 velocity=0 time=32
note_on channel=0 note=75 velocity=0 time=0
note_on channel=0 note=72 velocity=0 time=0
note_on channel=0 note=68 velocity=0 time=0
note_on channel=0 note=68 velocity=80 time=16
note_on channel=0 note=73 velocity=80 time=0
note_on channel=0 note=77 velocity=80 time=0
note_on channel=0 note=80 velocity=80 time=0
note_on channel=0 note=80 velocity=0 time=32
note_on channel=0 note=68 velocity=0 time=0
note_on channel=0 note=73 velocity=0 time=0
note_on channel=0 note=77 velocity=0 time=0
note_on channel=0 note=73 velocity=80 time=16
note_on channel=0 note=73 velocity=0 time=16
note_on channel=0 note=77 velocity=80 time=8
note_on channel=0 note=77 velocity=0 time=16
note_on channel=0 note=73 velocity=80 time=8
note_on channel=0 note=70 velocity=80 time=0
note_on channel=0 note=78 velocity=80 time=0
note_on channel=0 note=82 velocity=80 time=0
note_on channel=0 note=82 velocity=0 time=32
note_on channel=0 note=73 velocity=0 time=0
note_on channel=0 note=70 velocity=0 time=0
note_on channel=0 note=78 velocity=0 time=0
note_on channel=0 note=84 velocity=80 time=16
note_on channel=0 note=72 velocity=80 time=0
note_on channel=0 note=72 velocity=0 time=16
note_on channel=0 note=84 velocity=0 time=0
note_on channel=0 note=73 velocity=80 time=8
note_on channel=0 note=85 velocity=80 time=0
note_on channel=0 note=85 velocity=0 time=16
note_on channel=0 note=73 velocity=0 time=0
note_on channel=0 note=75 velocity=80 time=8
note_on channel=0 note=87 velocity=80 time=0
note_on channel=0 note=87 velocity=0 time=16
note_on channel=0 note=75 velocity=0 time=0
note_on channel=0 note=77 velocity=80 time=8
note_on channel=0 note=89 velocity=80 time=0
note_on channel=0 note=89 velocity=0 time=16
note_on channel=0 note=77 velocity=0 time=0
note_on channel=0 note=92 velocity=80 time=8
note_on channel=0 note=80 velocity=80 time=0
note_on channel=0 note=80 velocity=0 time=16
note_on channel=0 note=92 velocity=0 time=0
note_on channel=0 note=77 velocity=80 time=8
note_on channel=0 note=89 velocity=80 time=0
note_on channel=0 note=89 velocity=0 time=16
note_on channel=0 note=77 velocity=0 time=0
note_on channel=0 note=87 velocity=80 time=8
note_on channel=0 note=75 velocity=80 time=0
note_on channel=0 note=75 velocity=0 time=16
note_on channel=0 note=87 velocity=0 time=0
note_on channel=0 note=73 velocity=80 time=8
note_on channel=0 note=85 velocity=80 time=0
note_on channel=0 note=85 velocity=0 time=16
note_on channel=0 note=73 velocity=0 time=0
note_on channel=0 note=82 velocity=80 time=8
note_on channel=0 note=70 velocity=80 time=0
note_on channel=0 note=70 velocity=0 time=16
note_on channel=0 note=82 velocity=0 time=0
note_on channel=0 note=68 velocity=80 time=8
note_on channel=0 note=80 velocity=80 time=0
note_on channel=0 note=80 velocity=0 time=16
note_on channel=0 note=68 velocity=0 time=0
note_on channel=0 note=77 velocity=80 time=8
note_on channel=0 note=65 velocity=80 time=0
note_on channel=0 note=65 velocity=0 time=16
note_on channel=0 note=77 velocity=0 time=0
note_on channel=0 note=65 velocity=80 time=8
note_on channel=0 note=65 velocity=0 time=16
note_on channel=0 note=69 velocity=80 time=8
note_on channel=0 note=72 velocity=80 time=0
note_on channel=0 note=77 velocity=80 time=0
note_on channel=0 note=77 velocity=0 time=32
note_on channel=0 note=72 velocity=0 time=0
note_on channel=0 note=69 velocity=0 time=0
note_on channel=0 note=65 velocity=80 time=16
note_on channel=0 note=65 velocity=0 time=16
note_on channel=0 note=69 velocity=80 time=8
note_on channel=0 note=72 velocity=80 time=0
note_on channel=0 note=77 velocity=80 time=0
note_on channel=0 note=77 velocity=0 time=32
note_on channel=0 note=72 velocity=0 time=0
note_on channel=0 note=69 velocity=0 time=0
note_on channel=0 note=65 velocity=80 time=16
note_on channel=0 note=65 velocity=0 time=16
note_on channel=0 note=70 velocity=80 time=8
note_on channel=0 note=73 velocity=80 time=0
note_on channel=0 note=77 velocity=80 time=0
note_on channel=0 note=77 velocity=0 time=32
note_on channel=0 note=73 velocity=0 time=0
note_on channel=0 note=70 velocity=0 time=0
note_on channel=0 note=69 velocity=80 time=16
note_on channel=0 note=81 velocity=80 time=0
note_on channel=0 note=81 velocity=0 time=16
note_on channel=0 note=69 velocity=0 time=0
note_on channel=0 note=82 velocity=80 time=8
note_on channel=0 note=70 velocity=80 time=0
note_on channel=0 note=70 velocity=0 time=16
note_on channel=0 note=82 velocity=0 time=0
note_on channel=0 note=72 velocity=80 time=8
note_on channel=0 note=84 velocity=80 time=0
note_on channel=0 note=84 velocity=0 time=16
note_on channel=0 note=72 velocity=0 time=0
note_on channel=0 note=85 velocity=80 time=8
note_on channel=0 note=73 velocity=80 time=0
note_on channel=0 note=73 velocity=0 time=16
note_on channel=0 note=85 velocity=0 time=0
note_on channel=0 note=75 velocity=80 time=8
note_on channel=0 note=87 velocity=80 time=0
note_on channel=0 note=87 velocity=0 time=16
note_on channel=0 note=75 velocity=0 time=0
note_on channel=0 note=77 velocity=80 time=8
note_on channel=0 note=83 velocity=80 time=0
note_on channel=0 note=89 velocity=80 time=0
note_on channel=0 note=89 velocity=0 time=32
note_on channel=0 note=83 velocity=0 time=0
note_on channel=0 note=77 velocity=0 time=0
note_on channel=0 note=78 velocity=80 time=16
note_on channel=0 note=82 velocity=80 time=0
note_on channel=0 note=89 velocity=80 time=0
note_on channel=0 note=89 velocity=0 time=48
note_on channel=0 note=82 velocity=0 time=0
note_on channel=0 note=78 velocity=0 time=0
note_on channel=0 note=87 velocity=80 time=24
note_on channel=0 note=87 velocity=0 time=16
note_on channel=0 note=85 velocity=80 time=8
note_on channel=0 note=85 velocity=0 time=16
note_on channel=0 note=82 velocity=80 time=8
note_on channel=0 note=82 velocity=0 time=16
note_on channel=0 note=78 velocity=80 time=8
note_on channel=0 note=78 velocity=0 time=32
note_on channel=0 note=77 velocity=80 time=16
note_on channel=0 note=80 velocity=80 time=0
note_on channel=0 note=89 velocity=80 time=0
note_on channel=0 note=89 velocity=0 time=48
note_on channel=0 note=80 velocity=0 time=0
note_on channel=0 note=77 velocity=0 time=0
note_on channel=0 note=87 velocity=80 time=24
note_on channel=0 note=87 velocity=0 time=16
note_on channel=0 note=85 velocity=80 time=8
note_on channel=0 note=85 velocity=0 time=16
note_on channel=0 note=80 velocity=80 time=8
note_on channel=0 note=80 velocity=0 time=16
note_on channel=0 note=77 velocity=80 time=8
note_on channel=0 note=77 velocity=0 time=32
note_on channel=0 note=72 velocity=80 time=16
note_on channel=0 note=66 velocity=80 time=0
note_on channel=0 note=77 velocity=80 time=0
note_on channel=0 note=77 velocity=0 time=16
note_on channel=0 note=75 velocity=80 time=8
note_on channel=0 note=66 velocity=0 time=24
note_on channel=0 note=72 velocity=0 time=0
note_on channel=0 note=75 velocity=0 time=8
note_on channel=0 note=66 velocity=80 time=16
note_on channel=0 note=66 velocity=0 time=48
note_on channel=0 note=77 velocity=80 time=0
note_on channel=0 note=77 velocity=0 time=16
note_on channel=0 note=66 velocity=80 time=8
note_on channel=0 note=72 velocity=80 time=0
note_on channel=0 note=75 velocity=80 time=0
note_on channel=0 note=75 velocity=0 time=32
note_on channel=0 note=72 velocity=0 time=0
note_on channel=0 note=66 velocity=0 time=0
note_on channel=0 note=65 velocity=80 time=16
note_on channel=0 note=68 velocity=80 time=0
note_on channel=0 note=73 velocity=80 time=0
note_on channel=0 note=73 velocity=0 time=64
note_on channel=0 note=68 velocity=0 time=0
note_on channel=0 note=65 velocity=0 time=0
note_on channel=0 note=80 velocity=80 time=32
note_on channel=0 note=75 velocity=80 time=0
note_on channel=0 note=72 velocity=80 time=0
note_on channel=0 note=68 velocity=80 time=0
note_on channel=0 note=68 velocity=0 time=64
note_on channel=0 note=80 velocity=0 time=0
note_on channel=0 note=75 velocity=0 time=0
note_on channel=0 note=72 velocity=0 time=0
note_on channel=0 note=68 velocity=80 time=32
note_on channel=0 note=73 velocity=80 time=0
note_on channel=0 note=77 velocity=80 time=0
note_on channel=0 note=80 velocity=80 time=0
note_on channel=0 note=80 velocity=0 time=16
note_on channel=0 note=68 velocity=0 time=0
note_on channel=0 note=73 velocity=0 time=0
note_on channel=0 note=77 velocity=0 time=0
note_on channel=0 note=73 velocity=80 time=8
note_on channel=0 note=73 velocity=0 time=16
note_on channel=0 note=77 velocity=80 time=8
note_on channel=0 note=77 velocity=0 time=16
note_on channel=0 note=73 velocity=80 time=8
note_on channel=0 note=70 velocity=80 time=0
note_on channel=0 note=78 velocity=80 time=0
note_on channel=0 note=82 velocity=80 time=0
note_on channel=0 note=82 velocity=0 time=32
note_on channel=0 note=73 velocity=0 time=0
note_on channel=0 note=70 velocity=0 time=0
note_on channel=0 note=78 velocity=0 time=0
note_on channel=0 note=84 velocity=80 time=16
note_on channel=0 note=72 velocity=80 time=0
note_on channel=0 note=72 velocity=0 time=16
note_on channel=0 note=84 velocity=0 time=0
note_on channel=0 note=73 velocity=80 time=8
note_on channel=0 note=85 velocity=80 time=0
note_on channel=0 note=85 velocity=0 time=16
note_on channel=0 note=73 velocity=0 time=0
note_on channel=0 note=75 velocity=80 time=8
note_on channel=0 note=87 velocity=80 time=0
note_on channel=0 note=87 velocity=0 time=16
note_on channel=0 note=75 velocity=0 time=0
note_on channel=0 note=77 velocity=80 time=8
note_on channel=0 note=89 velocity=80 time=0
note_on channel=0 note=89 velocity=0 time=16
note_on channel=0 note=77 velocity=0 time=0
note_on channel=0 note=92 velocity=80 time=8
note_on channel=0 note=80 velocity=80 time=0
note_on channel=0 note=80 velocity=0 time=16
note_on channel=0 note=92 velocity=0 time=0
note_on channel=0 note=77 velocity=80 time=8
note_on channel=0 note=89 velocity=80 time=0
note_on channel=0 note=89 velocity=0 time=16
note_on channel=0 note=77 velocity=0 time=0
note_on channel=0 note=87 velocity=80 time=8
note_on channel=0 note=75 velocity=80 time=0
note_on channel=0 note=75 velocity=0 time=16
note_on channel=0 note=87 velocity=0 time=0
note_on channel=0 note=73 velocity=80 time=8
note_on channel=0 note=85 velocity=80 time=0
note_on channel=0 note=85 velocity=0 time=16
note_on channel=0 note=73 velocity=0 time=0
note_on channel=0 note=82 velocity=80 time=8
note_on channel=0 note=70 velocity=80 time=0
note_on channel=0 note=70 velocity=0 time=16
note_on channel=0 note=82 velocity=0 time=0
note_on channel=0 note=68 velocity=80 time=8
note_on channel=0 note=80 velocity=80 time=0
note_on channel=0 note=80 velocity=0 time=16
note_on channel=0 note=68 velocity=0 time=0
note_on channel=0 note=77 velocity=80 time=8
note_on channel=0 note=65 velocity=80 time=0
note_on channel=0 note=65 velocity=0 time=16
note_on channel=0 note=77 velocity=0 time=0
note_on channel=0 note=66 velocity=80 time=8
note_on channel=0 note=72 velocity=80 time=0
note_on channel=0 note=77 velocity=80 time=0
note_on channel=0 note=77 velocity=0 time=16
note_on channel=0 note=75 velocity=80 time=8
note_on channel=0 note=72 velocity=0 time=24
note_on channel=0 note=66 velocity=0 time=0
note_on channel=0 note=75 velocity=0 time=8
note_on channel=0 note=66 velocity=80 time=16
note_on channel=0 note=66 velocity=0 time=48
note_on channel=0 note=77 velocity=80 time=0
note_on channel=0 note=77 velocity=0 time=16
note_on channel=0 note=66 velocity=80 time=8
note_on channel=0 note=72 velocity=80 time=0
note_on channel=0 note=75 velocity=80 time=0
note_on channel=0 note=75 velocity=0 time=32
note_on channel=0 note=72 velocity=0 time=0
note_on channel=0 note=66 velocity=0 time=0
note_on channel=0 note=65 velocity=80 time=16
note_on channel=0 note=68 velocity=80 time=0
note_on channel=0 note=75 velocity=80 time=0
note_on channel=0 note=75 velocity=0 time=16
note_on channel=0 note=73 velocity=80 time=8
note_on channel=0 note=68 velocity=0 time=24
note_on channel=0 note=65 velocity=0 time=0
note_on channel=0 note=73 velocity=0 time=8
note_on channel=0 note=65 velocity=80 time=16
note_on channel=0 note=65 velocity=0 time=48
note_on channel=0 note=75 velocity=80 time=0
note_on channel=0 note=75 velocity=0 time=16
note_on channel=0 note=65 velocity=80 time=8
note_on channel=0 note=70 velocity=80 time=0
note_on channel=0 note=73 velocity=80 time=0
note_on channel=0 note=73 velocity=0 time=32
note_on channel=0 note=70 velocity=0 time=0
note_on channel=0 note=65 velocity=0 time=0
note_on channel=0 note=65 velocity=80 time=16
note_on channel=0 note=68 velocity=80 time=0
note_on channel=0 note=72 velocity=80 time=0
note_on channel=0 note=72 velocity=0 time=16
note_on channel=0 note=68 velocity=80 time=8
note_on channel=0 note=68 velocity=0 time=16
note_on channel=0 note=68 velocity=0 time=8
note_on channel=0 note=65 velocity=0 time=0
note_on channel=0 note=72 velocity=80 time=0
note_on channel=0 note=72 velocity=0 time=16
note_on channel=0 note=64 velocity=80 time=8
note_on channel=0 note=70 velocity=80 time=0
note_on channel=0 note=73 velocity=80 time=0
note_on channel=0 note=73 velocity=0 time=32
note_on channel=0 note=70 velocity=0 time=0
note_on channel=0 note=64 velocity=0 time=0
note_on channel=0 note=64 velocity=80 time=16
note_on channel=0 note=64 velocity=0 time=16
note_on channel=0 note=64 velocity=80 time=8
note_on channel=0 note=70 velocity=80 time=0
note_on channel=0 note=72 velocity=80 time=0
note_on channel=0 note=72 velocity=0 time=32
note_on channel=0 note=70 velocity=0 time=0
note_on channel=0 note=64 velocity=0 time=0
note_on channel=0 note=65 velocity=80 time=16
note_on channel=0 note=68 velocity=80 time=0
note_on channel=0 note=72 velocity=80 time=0
note_on channel=0 note=72 velocity=0 time=16
note_on channel=0 note=68 velocity=80 time=8
note_on channel=0 note=68 velocity=0 time=16
note_on channel=0 note=68 velocity=0 time=8
note_on channel=0 note=65 velocity=0 time=0
note_on channel=0 note=72 velocity=80 time=0
note_on channel=0 note=72 velocity=0 time=16
note_on channel=0 note=65 velocity=80 time=8
note_on channel=0 note=68 velocity=80 time=0
note_on channel=0 note=71 velocity=80 time=0
note_on channel=0 note=71 velocity=0 time=48
note_on channel=0 note=68 velocity=0 time=0
note_on channel=0 note=65 velocity=0 time=0
note_on channel=0 note=64 velocity=80 time=24
note_on channel=0 note=68 velocity=80 time=0
note_on channel=0 note=70 velocity=80 time=0
note_on channel=0 note=70 velocity=0 time=32
note_on channel=0 note=68 velocity=0 time=0
note_on channel=0 note=64 velocity=0 time=0
note_on channel=0 note=63 velocity=80 time=16
note_on channel=0 note=68 velocity=80 time=0
note_on channel=0 note=68 velocity=0 time=16
note_on channel=0 note=75 velocity=80 time=8
note_on channel=0 note=63 velocity=0 time=8
note_on channel=0 note=75 velocity=0 time=8
note_on channel=0 note=68 velocity=80 time=8
note_on channel=0 note=71 velocity=80 time=0
note_on channel=0 note=76 velocity=80 time=0
note_on channel=0 note=76 velocity=0 time=32
note_on channel=0 note=71 velocity=0 time=0
note_on channel=0 note=68 velocity=0 time=0
note_on channel=0 note=76 velocity=80 time=16
note_on channel=0 note=73 velocity=80 time=0
note_on channel=0 note=67 velocity=80 time=0
note_on channel=0 note=67 velocity=0 time=32
note_on channel=0 note=73 velocity=0 time=0
note_on channel=0 note=76 velocity=0 time=0
note_on channel=0 note=75 velocity=80 time=16
note_on channel=0 note=73 velocity=80 time=0
note_on channel=0 note=66 velocity=80 time=0
note_on channel=0 note=66 velocity=0 time=32
note_on channel=0 note=73 velocity=0 time=0
note_on channel=0 note=75 velocity=0 time=0
note_on channel=0 note=66 velocity=80 time=16
note_on channel=0 note=72 velocity=80 time=0
note_on channel=0 note=75 velocity=80 time=0
note_on channel=0 note=75 velocity=0 time=32
note_on channel=0 note=72 velocity=0 time=0
note_on channel=0 note=66 velocity=0 time=0
note_on channel=0 note=68 velocity=80 time=16
note_on channel=0 note=72 velocity=80 time=0
note_on channel=0 note=75 velocity=80 time=0
note_on channel=0 note=80 velocity=80 time=0
note_on channel=0 note=80 velocity=0 time=16
note_on channel=0 note=68 velocity=0 time=0
note_on channel=0 note=72 velocity=0 time=0
note_on channel=0 note=75 velocity=0 time=0
note_on channel=0 note=72 velocity=80 time=8
note_on channel=0 note=72 velocity=0 time=16
note_on channel=0 note=75 velocity=80 time=8
note_on channel=0 note=75 velocity=0 time=16
note_on channel=0 note=75 velocity=80 time=8
note_on channel=0 note=72 velocity=80 time=0
note_on channel=0 note=68 velocity=80 time=0
note_on channel=0 note=80 velocity=80 time=0
note_on channel=0 note=80 velocity=0 time=32
note_on channel=0 note=75 velocity=0 time=0
note_on channel=0 note=72 velocity=0 time=0
note_on channel=0 note=68 velocity=0 time=0
note_on channel=0 note=68 velocity=80 time=16
note_on channel=0 note=73 velocity=80 time=0
note_on channel=0 note=77 velocity=80 time=0
note_on channel=0 note=80 velocity=80 time=0
note_on channel=0 note=80 velocity=0 time=32
note_on channel=0 note=68 velocity=0 time=0
note_on channel=0 note=73 velocity=0 time=0
note_on channel=0 note=77 velocity=0 time=0
note_on channel=0 note=73 velocity=80 time=16
note_on channel=0 note=73 velocity=0 time=16
note_on channel=0 note=77 velocity=80 time=8
note_on channel=0 note=77 velocity=0 time=16
note_on channel=0 note=73 velocity=80 time=8
note_on channel=0 note=70 velocity=80 time=0
note_on channel=0 note=78 velocity=80 time=0
note_on channel=0 note=82 velocity=80 time=0
note_on channel=0 note=82 velocity=0 time=32
note_on channel=0 note=73 velocity=0 time=0
note_on channel=0 note=70 velocity=0 time=0
note_on channel=0 note=78 velocity=0 time=0
note_on channel=0 note=84 velocity=80 time=16
note_on channel=0 note=72 velocity=80 time=0
note_on channel=0 note=72 velocity=0 time=16
note_on channel=0 note=84 velocity=0 time=0
note_on channel=0 note=73 velocity=80 time=8
note_on channel=0 note=85 velocity=80 time=0
note_on channel=0 note=85 velocity=0 time=16
note_on channel=0 note=73 velocity=0 time=0
note_on channel=0 note=75 velocity=80 time=8
note_on channel=0 note=87 velocity=80 time=0
note_on channel=0 note=87 velocity=0 time=16
note_on channel=0 note=75 velocity=0 time=0
note_on channel=0 note=77 velocity=80 time=8
note_on channel=0 note=89 velocity=80 time=0
note_on channel=0 note=89 velocity=0 time=16
note_on channel=0 note=77 velocity=0 time=0
note_on channel=0 note=92 velocity=80 time=8
note_on channel=0 note=80 velocity=80 time=0
note_on channel=0 note=80 velocity=0 time=16
note_on channel=0 note=92 velocity=0 time=0
note_on channel=0 note=77 velocity=80 time=8
note_on channel=0 note=89 velocity=80 time=0
note_on channel=0 note=89 velocity=0 time=16
note_on channel=0 note=77 velocity=0 time=0
note_on channel=0 note=87 velocity=80 time=8
note_on channel=0 note=75 velocity=80 time=0
note_on channel=0 note=75 velocity=0 time=16
note_on channel=0 note=87 velocity=0 time=0
note_on channel=0 note=73 velocity=80 time=8
note_on channel=0 note=85 velocity=80 time=0
note_on channel=0 note=85 velocity=0 time=16
note_on channel=0 note=73 velocity=0 time=0
note_on channel=0 note=82 velocity=80 time=8
note_on channel=0 note=70 velocity=80 time=0
note_on channel=0 note=70 velocity=0 time=16
note_on channel=0 note=82 velocity=0 time=0
note_on channel=0 note=68 velocity=80 time=8
note_on channel=0 note=80 velocity=80 time=0
note_on channel=0 note=80 velocity=0 time=16
note_on channel=0 note=68 velocity=0 time=0
note_on channel=0 note=77 velocity=80 time=8
note_on channel=0 note=65 velocity=80 time=0
note_on channel=0 note=65 velocity=0 time=16
note_on channel=0 note=77 velocity=0 time=0
note_on channel=0 note=65 velocity=80 time=8
note_on channel=0 note=65 velocity=0 time=16
note_on channel=0 note=69 velocity=80 time=8
note_on channel=0 note=72 velocity=80 time=0
note_on channel=0 note=77 velocity=80 time=0
note_on channel=0 note=77 velocity=0 time=32
note_on channel=0 note=72 velocity=0 time=0
note_on channel=0 note=69 velocity=0 time=0
note_on channel=0 note=65 velocity=80 time=16
note_on channel=0 note=65 velocity=0 time=16
note_on channel=0 note=69 velocity=80 time=8
note_on channel=0 note=72 velocity=80 time=0
note_on channel=0 note=77 velocity=80 time=0
note_on channel=0 note=77 velocity=0 time=32
note_on channel=0 note=72 velocity=0 time=0
note_on channel=0 note=69 velocity=0 time=0
note_on channel=0 note=65 velocity=80 time=16
note_on channel=0 note=65 velocity=0 time=16
note_on channel=0 note=70 velocity=80 time=8
note_on channel=0 note=73 velocity=80 time=0
note_on channel=0 note=77 velocity=80 time=0
note_on channel=0 note=77 velocity=0 time=32
note_on channel=0 note=73 velocity=0 time=0
note_on channel=0 note=70 velocity=0 time=0
note_on channel=0 note=69 velocity=80 time=16
note_on channel=0 note=81 velocity=80 time=0
note_on channel=0 note=81 velocity=0 time=16
note_on channel=0 note=69 velocity=0 time=0
note_on channel=0 note=82 velocity=80 time=8
note_on channel=0 note=70 velocity=80 time=0
note_on channel=0 note=70 velocity=0 time=16
note_on channel=0 note=82 velocity=0 time=0
note_on channel=0 note=72 velocity=80 time=8
note_on channel=0 note=84 velocity=80 time=0
note_on channel=0 note=84 velocity=0 time=16
note_on channel=0 note=72 velocity=0 time=0
note_on channel=0 note=85 velocity=80 time=8
note_on channel=0 note=73 velocity=80 time=0
note_on channel=0 note=73 velocity=0 time=16
note_on channel=0 note=85 velocity=0 time=0
note_on channel=0 note=75 velocity=80 time=8
note_on channel=0 note=87 velocity=80 time=0
note_on channel=0 note=87 velocity=0 time=16
note_on channel=0 note=75 velocity=0 time=0
note_on channel=0 note=77 velocity=80 time=8
note_on channel=0 note=83 velocity=80 time=0
note_on channel=0 note=89 velocity=80 time=0
note_on channel=0 note=89 velocity=0 time=32
note_on channel=0 note=83 velocity=0 time=0
note_on channel=0 note=77 velocity=0 time=0
note_on channel=0 note=78 velocity=80 time=16
note_on channel=0 note=82 velocity=80 time=0
note_on channel=0 note=89 velocity=80 time=0
note_on channel=0 note=89 velocity=0 time=48
note_on channel=0 note=82 velocity=0 time=0
note_on channel=0 note=78 velocity=0 time=0
note_on channel=0 note=87 velocity=80 time=24
note_on channel=0 note=87 velocity=0 time=16
note_on channel=0 note=85 velocity=80 time=8
note_on channel=0 note=85 velocity=0 time=16
note_on channel=0 note=82 velocity=80 time=8
note_on channel=0 note=82 velocity=0 time=16
note_on channel=0 note=78 velocity=80 time=8
note_on channel=0 note=78 velocity=0 time=32
note_on channel=0 note=77 velocity=80 time=16
note_on channel=0 note=80 velocity=80 time=0
note_on channel=0 note=89 velocity=80 time=0
note_on channel=0 note=89 velocity=0 time=48
note_on channel=0 note=80 velocity=0 time=0
note_on channel=0 note=77 velocity=0 time=0
note_on channel=0 note=87 velocity=80 time=24
note_on channel=0 note=87 velocity=0 time=16
note_on channel=0 note=85 velocity=80 time=8
note_on channel=0 note=85 velocity=0 time=16
note_on channel=0 note=80 velocity=80 time=8
note_on channel=0 note=80 velocity=0 time=16
note_on channel=0 note=77 velocity=80 time=8
note_on channel=0 note=77 velocity=0 time=32
note_on channel=0 note=72 velocity=80 time=16
note_on channel=0 note=66 velocity=80 time=0
note_on channel=0 note=77 velocity=80 time=0
note_on channel=0 note=77 velocity=0 time=16
note_on channel=0 note=75 velocity=80 time=8
note_on channel=0 note=66 velocity=0 time=24
note_on channel=0 note=72 velocity=0 time=0
note_on channel=0 note=75 velocity=0 time=8
note_on channel=0 note=66 velocity=80 time=16
note_on channel=0 note=66 velocity=0 time=48
note_on channel=0 note=77 velocity=80 time=0
note_on channel=0 note=77 velocity=0 time=16
note_on channel=0 note=66 velocity=80 time=8
note_on channel=0 note=72 velocity=80 time=0
note_on channel=0 note=75 velocity=80 time=0
note_on channel=0 note=75 velocity=0 time=32
note_on channel=0 note=72 velocity=0 time=0
note_on channel=0 note=66 velocity=0 time=0
note_on channel=0 note=65 velocity=80 time=16
note_on channel=0 note=68 velocity=80 time=0
note_on channel=0 note=73 velocity=80 time=0
note_on channel=0 note=73 velocity=0 time=96
note_on channel=0 note=68 velocity=0 time=0
note_on channel=0 note=65 velocity=0 time=0
note_on channel=0 note=73 velocity=80 time=48
note_on channel=0 note=77 velocity=80 time=0
note_on channel=0 note=80 velocity=80 time=0
note_on channel=0 note=85 velocity=80 time=0
note_on channel=0 note=85 velocity=0 time=32
note_on channel=0 note=73 velocity=0 time=0
note_on channel=0 note=77 velocity=0 time=0
note_on channel=0 note=80 velocity=0 time=0
note_on channel=0 note=85 velocity=80 time=16
note_on channel=0 note=73 velocity=80 time=24
note_on channel=0 note=78 velocity=80 time=0
note_on channel=0 note=82 velocity=80 time=0
note_on channel=0 note=85 velocity=0 time=24
note_on channel=0 note=73 velocity=0 time=8
note_on channel=0 note=78 velocity=0 time=0
note_on channel=0 note=82 velocity=0 time=0
note_on channel=0 note=85 velocity=80 time=16
note_on channel=0 note=78 velocity=80 time=24
note_on channel=0 note=82 velocity=80 time=0
note_on channel=0 note=75 velocity=80 time=0
note_on channel=0 note=85 velocity=0 time=24
note_on channel=0 note=78 velocity=0 time=8
note_on channel=0 note=82 velocity=0 time=0
note_on channel=0 note=75 velocity=0 time=0
note_on channel=0 note=85 velocity=80 time=16
note_on channel=0 note=77 velocity=80 time=24
note_on channel=0 note=78 velocity=80 time=0
note_on channel=0 note=82 velocity=80 time=0
note_on channel=0 note=82 velocity=0 time=32
note_on channel=0 note=78 velocity=0 time=0
note_on channel=0 note=77 velocity=0 time=0
note_on channel=0 note=85 velocity=0 time=8
note_on channel=0 note=85 velocity=80 time=8
note_on channel=0 note=75 velocity=80 time=24
note_on channel=0 note=78 velocity=80 time=0
note_on channel=0 note=82 velocity=80 time=0
note_on channel=0 note=85 velocity=0 time=24
note_on channel=0 note=75 velocity=0 time=8
note_on channel=0 note=78 velocity=0 time=0
note_on channel=0 note=82 velocity=0 time=0
note_on channel=0 note=73 velocity=80 time=16
note_on channel=0 note=78 velocity=80 time=0
note_on channel=0 note=82 velocity=80 time=0
note_on channel=0 note=85 velocity=80 time=0
note_on channel=0 note=85 velocity=0 time=32
note_on channel=0 note=73 velocity=0 time=0
note_on channel=0 note=78 velocity=0 time=0
note_on channel=0 note=82 velocity=0 time=0
note_on channel=0 note=73 velocity=80 time=16
note_on channel=0 note=70 velocity=80 time=0
note_on channel=0 note=78 velocity=80 time=0
note_on channel=0 note=82 velocity=80 time=0
note_on channel=0 note=82 velocity=0 time=32
note_on channel=0 note=73 velocity=0 time=0
note_on channel=0 note=70 velocity=0 time=0
note_on channel=0 note=78 velocity=0 time=0
note_on channel=0 note=80 velocity=80 time=16
note_on channel=0 note=68 velocity=80 time=24
note_on channel=0 note=73 velocity=80 time=0
note_on channel=0 note=77 velocity=80 time=0
note_on channel=0 note=80 velocity=0 time=24
note_on channel=0 note=68 velocity=0 time=8
note_on channel=0 note=73 velocity=0 time=0
note_on channel=0 note=77 velocity=0 time=0
note_on channel=0 note=80 velocity=80 time=16
note_on channel=0 note=77 velocity=80 time=24
note_on channel=0 note=73 velocity=80 time=0
note_on channel=0 note=70 velocity=80 time=0
note_on channel=0 note=80 velocity=0 time=24
note_on channel=0 note=77 velocity=0 time=8
note_on channel=0 note=73 velocity=0 time=0
note_on channel=0 note=70 velocity=0 time=0
note_on channel=0 note=80 velocity=80 time=16
note_on channel=0 note=77 velocity=80 time=24
note_on channel=0 note=73 velocity=80 time=0
note_on channel=0 note=72 velocity=80 time=0
note_on channel=0 note=72 velocity=0 time=32
note_on channel=0 note=73 velocity=0 time=0
note_on channel=0 note=77 velocity=0 time=0
note_on channel=0 note=80 velocity=0 time=8
note_on channel=0 note=80 velocity=80 time=8
note_on channel=0 note=70 velocity=80 time=24
note_on channel=0 note=73 velocity=80 time=0
note_on channel=0 note=77 velocity=80 time=0
note_on channel=0 note=80 velocity=0 time=24
note_on channel=0 note=70 velocity=0 time=8
note_on channel=0 note=73 velocity=0 time=0
note_on channel=0 note=77 velocity=0 time=0
note_on channel=0 note=68 velocity=80 time=16
note_on channel=0 note=73 velocity=80 time=0
note_on channel=0 note=77 velocity=80 time=0
note_on channel=0 note=80 velocity=80 time=0
note_on channel=0 note=80 velocity=0 time=32
note_on channel=0 note=68 velocity=0 time=0
note_on channel=0 note=73 velocity=0 time=0
note_on channel=0 note=77 velocity=0 time=0
note_on channel=0 note=67 velocity=80 time=16
note_on channel=0 note=70 velocity=80 time=0
note_on channel=0 note=73 velocity=80 time=0
note_on channel=0 note=79 velocity=80 time=0
note_on channel=0 note=79 velocity=0 time=32
note_on channel=0 note=67 velocity=0 time=0
note_on channel=0 note=70 velocity=0 time=0
note_on channel=0 note=73 velocity=0 time=0
note_on channel=0 note=78 velocity=80 time=16
note_on channel=0 note=66 velocity=80 time=24
note_on channel=0 note=72 velocity=80 time=0
note_on channel=0 note=75 velocity=80 time=0
note_on channel=0 note=78 velocity=0 time=24
note_on channel=0 note=66 velocity=0 time=8
note_on channel=0 note=72 velocity=0 time=0
note_on channel=0 note=75 velocity=0 time=0
note_on channel=0 note=78 velocity=80 time=16
note_on channel=0 note=72 velocity=80 time=24
note_on channel=0 note=75 velocity=80 time=0
note_on channel=0 note=68 velocity=80 time=0
note_on channel=0 note=78 velocity=0 time=24
note_on channel=0 note=72 velocity=0 time=8
note_on channel=0 note=75 velocity=0 time=0
note_on channel=0 note=68 velocity=0 time=0
note_on channel=0 note=78 velocity=80 time=16
note_on channel=0 note=75 velocity=80 time=24
note_on channel=0 note=72 velocity=80 time=0
note_on channel=0 note=70 velocity=80 time=0
note_on channel=0 note=70 velocity=0 time=32
note_on channel=0 note=72 velocity=0 time=0
note_on channel=0 note=75 velocity=0 time=0
note_on channel=0 note=78 velocity=0 time=8
note_on channel=0 note=78 velocity=80 time=8
note_on channel=0 note=68 velocity=80 time=24
note_on channel=0 note=72 velocity=80 time=0
note_on channel=0 note=75 velocity=80 time=0
note_on channel=0 note=78 velocity=0 time=24
note_on channel=0 note=68 velocity=0 time=8
note_on channel=0 note=72 velocity=0 time=0
note_on channel=0 note=75 velocity=0 time=0
note_on channel=0 note=66 velocity=80 time=16
note_on channel=0 note=72 velocity=80 time=0
note_on channel=0 note=75 velocity=80 time=0
note_on channel=0 note=78 velocity=80 time=0
note_on channel=0 note=78 velocity=0 time=32
note_on channel=0 note=66 velocity=0 time=0
note_on channel=0 note=72 velocity=0 time=0
note_on channel=0 note=75 velocity=0 time=0
note_on channel=0 note=75 velocity=80 time=16
note_on channel=0 note=80 velocity=80 time=0
note_on channel=0 note=84 velocity=80 time=0
note_on channel=0 note=87 velocity=80 time=0
note_on channel=0 note=87 velocity=0 time=32
note_on channel=0 note=75 velocity=0 time=0
note_on channel=0 note=80 velocity=0 time=0
note_on channel=0 note=84 velocity=0 time=0
note_on channel=0 note=75 velocity=80 time=16
note_on channel=0 note=80 velocity=80 time=0
note_on channel=0 note=87 velocity=80 time=0
note_on channel=0 note=87 velocity=0 time=16
note_on channel=0 note=80 velocity=0 time=0
note_on channel=0 note=75 velocity=0 time=0
note_on channel=0 note=73 velocity=80 time=8
note_on channel=0 note=80 velocity=80 time=0
note_on channel=0 note=85 velocity=80 time=0
note_on channel=0 note=85 velocity=0 time=32
note_on channel=0 note=80 velocity=0 time=0
note_on channel=0 note=73 velocity=0 time=0
note_on channel=0 note=73 velocity=80 time=16
note_on channel=0 note=76 velocity=80 time=0
note_on channel=0 note=84 velocity=80 time=0
note_on channel=0 note=84 velocity=0 time=48
note_on channel=0 note=76 velocity=0 time=0
note_on channel=0 note=73 velocity=0 time=0
note_on channel=0 note=73 velocity=80 time=24
note_on channel=0 note=76 velocity=80 time=0
note_on channel=0 note=82 velocity=80 time=0
note_on channel=0 note=82 velocity=0 time=32
note_on channel=0 note=76 velocity=0 time=0
note_on channel=0 note=73 velocity=0 time=0
note_on channel=0 note=73 velocity=80 time=16
note_on channel=0 note=77 velocity=80 time=0
note_on channel=0 note=80 velocity=80 time=0
note_on channel=0 note=80 velocity=0 time=96
note_on channel=0 note=77 velocity=0 time=0
note_on channel=0 note=73 velocity=0 time=0
note_on channel=0 note=73 velocity=80 time=48
note_on channel=0 note=77 velocity=80 time=0
note_on channel=0 note=80 velocity=80 time=0
note_on channel=0 note=85 velocity=80 time=0
note_on channel=0 note=85 velocity=0 time=32
note_on channel=0 note=73 velocity=0 time=0
note_on channel=0 note=77 velocity=0 time=0
note_on channel=0 note=80 velocity=0 time=0
note_on channel=0 note=85 velocity=80 time=16
note_on channel=0 note=73 velocity=80 time=24
note_on channel=0 note=78 velocity=80 time=0
note_on channel=0 note=82 velocity=80 time=0
note_on channel=0 note=85 velocity=0 time=24
note_on channel=0 note=73 velocity=0 time=8
note_on channel=0 note=78 velocity=0 time=0
note_on channel=0 note=82 velocity=0 time=0
note_on channel=0 note=85 velocity=80 time=16
note_on channel=0 note=78 velocity=80 time=24
note_on channel=0 note=82 velocity=80 time=0
note_on channel=0 note=75 velocity=80 time=0
note_on channel=0 note=85 velocity=0 time=24
note_on channel=0 note=78 velocity=0 time=8
note_on channel=0 note=82 velocity=0 time=0
note_on channel=0 note=75 velocity=0 time=0
note_on channel=0 note=85 velocity=80 time=16
note_on channel=0 note=77 velocity=80 time=24
note_on channel=0 note=78 velocity=80 time=0
note_on channel=0 note=82 velocity=80 time=0
note_on channel=0 note=82 velocity=0 time=32
note_on channel=0 note=78 velocity=0 time=0
note_on channel=0 note=77 velocity=0 time=0
note_on channel=0 note=85 velocity=0 time=8
note_on channel=0 note=85 velocity=80 time=8
note_on channel=0 note=75 velocity=80 time=24
note_on channel=0 note=78 velocity=80 time=0
note_on channel=0 note=82 velocity=80 time=0
note_on channel=0 note=85 velocity=0 time=24
note_on channel=0 note=75 velocity=0 time=8
note_on channel=0 note=78 velocity=0 time=0
note_on channel=0 note=82 velocity=0 time=0
note_on channel=0 note=73 velocity=80 time=16
note_on channel=0 note=78 velocity=80 time=0
note_on channel=0 note=82 velocity=80 time=0
note_on channel=0 note=85 velocity=80 time=0
note_on channel=0 note=85 velocity=0 time=32
note_on channel=0 note=73 velocity=0 time=0
note_on channel=0 note=78 velocity=0 time=0
note_on channel=0 note=82 velocity=0 time=0
note_on channel=0 note=73 velocity=80 time=16
note_on channel=0 note=70 velocity=80 time=0
note_on channel=0 note=78 velocity=80 time=0
note_on channel=0 note=82 velocity=80 time=0
note_on channel=0 note=82 velocity=0 time=32
note_on channel=0 note=73 velocity=0 time=0
note_on channel=0 note=70 velocity=0 time=0
note_on channel=0 note=78 velocity=0 time=0
note_on channel=0 note=80 velocity=80 time=16
note_on channel=0 note=68 velocity=80 time=24
note_on channel=0 note=73 velocity=80 time=0
note_on channel=0 note=77 velocity=80 time=0
note_on channel=0 note=80 velocity=0 time=24
note_on channel=0 note=68 velocity=0 time=8
note_on channel=0 note=73 velocity=0 time=0
note_on channel=0 note=77 velocity=0 time=0
note_on channel=0 note=80 velocity=80 time=16
note_on channel=0 note=77 velocity=80 time=24
note_on channel=0 note=73 velocity=80 time=0
note_on channel=0 note=70 velocity=80 time=0
note_on channel=0 note=80 velocity=0 time=24
note_on channel=0 note=77 velocity=0 time=8
note_on channel=0 note=73 velocity=0 time=0
note_on channel=0 note=70 velocity=0 time=0
note_on channel=0 note=80 velocity=80 time=16
note_on channel=0 note=77 velocity=80 time=24
note_on channel=0 note=73 velocity=80 time=0
note_on channel=0 note=72 velocity=80 time=0
note_on channel=0 note=72 velocity=0 time=32
note_on channel=0 note=73 velocity=0 time=0
note_on channel=0 note=77 velocity=0 time=0
note_on channel=0 note=80 velocity=0 time=8
note_on channel=0 note=80 velocity=80 time=8
note_on channel=0 note=70 velocity=80 time=24
note_on channel=0 note=73 velocity=80 time=0
note_on channel=0 note=77 velocity=80 time=0
note_on channel=0 note=80 velocity=0 time=24
note_on channel=0 note=70 velocity=0 time=8
note_on channel=0 note=73 velocity=0 time=0
note_on channel=0 note=77 velocity=0 time=0
note_on channel=0 note=68 velocity=80 time=16
note_on channel=0 note=73 velocity=80 time=0
note_on channel=0 note=77 velocity=80 time=0
note_on channel=0 note=80 velocity=80 time=0
note_on channel=0 note=80 velocity=0 time=32
note_on channel=0 note=68 velocity=0 time=0
note_on channel=0 note=73 velocity=0 time=0
note_on channel=0 note=77 velocity=0 time=0
note_on channel=0 note=65 velocity=80 time=16
note_on channel=0 note=68 velocity=80 time=0
note_on channel=0 note=73 velocity=80 time=0
note_on channel=0 note=77 velocity=80 time=0
note_on channel=0 note=77 velocity=0 time=32
note_on channel=0 note=65 velocity=0 time=0
note_on channel=0 note=68 velocity=0 time=0
note_on channel=0 note=73 velocity=0 time=0
note_on channel=0 note=73 velocity=80 time=40
note_on channel=0 note=73 velocity=0 time=16
note_on channel=0 note=64 velocity=80 time=8
note_on channel=0 note=64 velocity=0 time=16
note_on channel=0 note=69 velocity=80 time=8
note_on channel=0 note=69 velocity=0 time=16
note_on channel=0 note=76 velocity=80 time=8
note_on channel=0 note=71 velocity=80 time=24
note_on channel=0 note=68 velocity=80 time=0
note_on channel=0 note=64 velocity=80 time=0
note_on channel=0 note=76 velocity=0 time=24
note_on channel=0 note=71 velocity=0 time=8
note_on channel=0 note=68 velocity=0 time=0
note_on channel=0 note=64 velocity=0 time=0
note_on channel=0 note=73 velocity=80 time=16
note_on channel=0 note=73 velocity=0 time=32
note_on channel=0 note=64 velocity=80 time=16
note_on channel=0 note=64 velocity=0 time=16
note_on channel=0 note=69 velocity=80 time=8
note_on channel=0 note=69 velocity=0 time=16
note_on channel=0 note=76 velocity=80 time=8
note_on channel=0 note=76 velocity=0 time=16
note_on channel=0 note=77 velocity=80 time=8
note_on channel=0 note=73 velocity=80 time=0
note_on channel=0 note=68 velocity=80 time=0
note_on channel=0 note=65 velocity=80 time=0
note_on channel=0 note=65 velocity=0 time=64
note_on channel=0 note=77 velocity=0 time=0
note_on channel=0 note=73 velocity=0 time=0
note_on channel=0 note=68 velocity=0 time=0
note_on channel=0 note=66 velocity=80 time=32
note_on channel=0 note=72 velocity=80 time=0
note_on channel=0 note=77 velocity=80 time=0
note_on channel=0 note=77 velocity=0 time=16
note_on channel=0 note=75 velocity=80 time=8
note_on channel=0 note=72 velocity=0 time=24
note_on channel=0 note=66 velocity=0 time=0
note_on channel=0 note=75 velocity=0 time=8
note_on channel=0 note=66 velocity=80 time=16
note_on channel=0 note=66 velocity=0 time=48
note_on channel=0 note=77 velocity=80 time=0
note_on channel=0 note=77 velocity=0 time=16
note_on channel=0 note=66 velocity=80 time=8
note_on channel=0 note=72 velocity=80 time=0
note_on channel=0 note=75 velocity=80 time=0
note_on channel=0 note=75 velocity=0 time=32
note_on channel=0 note=72 velocity=0 time=0
note_on channel=0 note=66 velocity=0 time=0
note_on channel=0 note=65 velocity=80 time=16
note_on channel=0 note=68 velocity=80 time=0
note_on channel=0 note=73 velocity=80 time=0
note_on channel=0 note=73 velocity=0 time=96
note_on channel=0 note=68 velocity=0 time=0
note_on channel=0 note=65 velocity=0 time=0
note_on channel=0 note=73 velocity=80 time=48
note_on channel=0 note=77 velocity=80 time=0
note_on channel=0 note=80 velocity=80 time=0
note_on channel=0 note=85 velocity=80 time=0
note_on channel=0 note=85 velocity=0 time=32
note_on channel=0 note=73 velocity=0 time=0
note_on channel=0 note=77 velocity=0 time=0
note_on channel=0 note=80 velocity=0 time=0
note_on channel=0 note=85 velocity=80 time=16
note_on channel=0 note=73 velocity=80 time=24
note_on channel=0 note=78 velocity=80 time=0
note_on channel=0 note=82 velocity=80 time=0
note_on channel=0 note=85 velocity=0 time=24
note_on channel=0 note=73 velocity=0 time=8
note_on channel=0 note=78 velocity=0 time=0
note_on channel=0 note=82 velocity=0 time=0
note_on channel=0 note=85 velocity=80 time=16
note_on channel=0 note=78 velocity=80 time=24
note_on channel=0 note=82 velocity=80 time=0
note_on channel=0 note=75 velocity=80 time=0
note_on channel=0 note=85 velocity=0 time=24
note_on channel=0 note=78 velocity=0 time=8
note_on channel=0 note=82 velocity=0 time=0
note_on channel=0 note=75 velocity=0 time=0
note_on channel=0 note=85 velocity=80 time=16
note_on channel=0 note=77 velocity=80 time=24
note_on channel=0 note=78 velocity=80 time=0
note_on channel=0 note=82 velocity=80 time=0
note_on channel=0 note=82 velocity=0 time=32
note_on channel=0 note=78 velocity=0 time=0
note_on channel=0 note=77 velocity=0 time=0
note_on channel=0 note=85 velocity=0 time=8
note_on channel=0 note=85 velocity=80 time=8
note_on channel=0 note=75 velocity=80 time=24
note_on channel=0 note=78 velocity=80 time=0
note_on channel=0 note=82 velocity=80 time=0
note_on channel=0 note=85 velocity=0 time=24
note_on channel=0 note=75 velocity=0 time=8
note_on channel=0 note=78 velocity=0 time=0
note_on channel=0 note=82 velocity=0 time=0
note_on channel=0 note=73 velocity=80 time=16
note_on channel=0 note=78 velocity=80 time=0
note_on channel=0 note=82 velocity=80 time=0
note_on channel=0 note=85 velocity=80 time=0
note_on channel=0 note=85 velocity=0 time=32
note_on channel=0 note=73 velocity=0 time=0
note_on channel=0 note=78 velocity=0 time=0
note_on channel=0 note=82 velocity=0 time=0
note_on channel=0 note=73 velocity=80 time=16
note_on channel=0 note=70 velocity=80 time=0
note_on channel=0 note=78 velocity=80 time=0
note_on channel=0 note=82 velocity=80 time=0
note_on channel=0 note=82 velocity=0 time=32
note_on channel=0 note=73 velocity=0 time=0
note_on channel=0 note=70 velocity=0 time=0
note_on channel=0 note=78 velocity=0 time=0
note_on channel=0 note=80 velocity=80 time=16
note_on channel=0 note=68 velocity=80 time=24
note_on channel=0 note=73 velocity=80 time=0
note_on channel=0 note=77 velocity=80 time=0
note_on channel=0 note=80 velocity=0 time=24
note_on channel=0 note=68 velocity=0 time=8
note_on channel=0 note=73 velocity=0 time=0
note_on channel=0 note=77 velocity=0 time=0
note_on channel=0 note=80 velocity=80 time=16
note_on channel=0 note=77 velocity=80 time=24
note_on channel=0 note=73 velocity=80 time=0
note_on channel=0 note=70 velocity=80 time=0
note_on channel=0 note=80 velocity=0 time=24
note_on channel=0 note=77 velocity=0 time=8
note_on channel=0 note=73 velocity=0 time=0
note_on channel=0 note=70 velocity=0 time=0
note_on channel=0 note=80 velocity=80 time=16
note_on channel=0 note=77 velocity=80 time=24
note_on channel=0 note=73 velocity=80 time=0
note_on channel=0 note=72 velocity=80 time=0
note_on channel=0 note=72 velocity=0 time=32
note_on channel=0 note=73 velocity=0 time=0
note_on channel=0 note=77 velocity=0 time=0
note_on channel=0 note=80 velocity=0 time=8
note_on channel=0 note=80 velocity=80 time=8
note_on channel=0 note=70 velocity=80 time=24
note_on channel=0 note=73 velocity=80 time=0
note_on channel=0 note=77 velocity=80 time=0
note_on channel=0 note=80 velocity=0 time=24
note_on channel=0 note=70 velocity=0 time=8
note_on channel=0 note=73 velocity=0 time=0
note_on channel=0 note=77 velocity=0 time=0
note_on channel=0 note=68 velocity=80 time=16
note_on channel=0 note=73 velocity=80 time=0
note_on channel=0 note=77 velocity=80 time=0
note_on channel=0 note=80 velocity=80 time=0
note_on channel=0 note=80 velocity=0 time=32
note_on channel=0 note=68 velocity=0 time=0
note_on channel=0 note=73 velocity=0 time=0
note_on channel=0 note=77 velocity=0 time=0
note_on channel=0 note=67 velocity=80 time=16
note_on channel=0 note=70 velocity=80 time=0
note_on channel=0 note=73 velocity=80 time=0
note_on channel=0 note=79 velocity=80 time=0
note_on channel=0 note=79 velocity=0 time=32
note_on channel=0 note=67 velocity=0 time=0
note_on channel=0 note=70 velocity=0 time=0
note_on channel=0 note=73 velocity=0 time=0
note_on channel=0 note=78 velocity=80 time=16
note_on channel=0 note=66 velocity=80 time=24
note_on channel=0 note=72 velocity=80 time=0
note_on channel=0 note=75 velocity=80 time=0
note_on channel=0 note=78 velocity=0 time=24
note_on channel=0 note=66 velocity=0 time=8
note_on channel=0 note=72 velocity=0 time=0
note_on channel=0 note=75 velocity=0 time=0
note_on channel=0 note=78 velocity=80 time=16
note_on channel=0 note=72 velocity=80 time=24
note_on channel=0 note=75 velocity=80 time=0
note_on channel=0 note=68 velocity=80 time=0
note_on channel=0 note=78 velocity=0 time=24
note_on channel=0 note=72 velocity=0 time=8
note_on channel=0 note=75 velocity=0 time=0
note_on channel=0 note=68 velocity=0 time=0
note_on channel=0 note=78 velocity=80 time=16
note_on channel=0 note=75 velocity=80 time=24
note_on channel=0 note=72 velocity=80 time=0
note_on channel=0 note=70 velocity=80 time=0
note_on channel=0 note=70 velocity=0 time=32
note_on channel=0 note=72 velocity=0 time=0
note_on channel=0 note=75 velocity=0 time=0
note_on channel=0 note=78 velocity=0 time=8
note_on channel=0 note=78 velocity=80 time=8
note_on channel=0 note=68 velocity=80 time=24
note_on channel=0 note=72 velocity=80 time=0
note_on channel=0 note=75 velocity=80 time=0
note_on channel=0 note=78 velocity=0 time=24
note_on channel=0 note=68 velocity=0 time=8
note_on channel=0 note=72 velocity=0 time=0
note_on channel=0 note=75 velocity=0 time=0
note_on channel=0 note=66 velocity=80 time=16
note_on channel=0 note=72 velocity=80 time=0
note_on channel=0 note=75 velocity=80 time=0
note_on channel=0 note=78 velocity=80 time=0
note_on channel=0 note=78 velocity=0 time=32
note_on channel=0 note=66 velocity=0 time=0
note_on channel=0 note=72 velocity=0 time=0
note_on channel=0 note=75 velocity=0 time=0
note_on channel=0 note=75 velocity=80 time=16
note_on channel=0 note=80 velocity=80 time=0
note_on channel=0 note=84 velocity=80 time=0
note_on channel=0 note=87 velocity=80 time=0
note_on channel=0 note=87 velocity=0 time=32
note_on channel=0 note=75 velocity=0 time=0
note_on channel=0 note=80 velocity=0 time=0
note_on channel=0 note=84 velocity=0 time=0
note_on channel=0 note=75 velocity=80 time=16
note_on channel=0 note=80 velocity=80 time=0
note_on channel=0 note=87 velocity=80 time=0
note_on channel=0 note=87 velocity=0 time=16
note_on channel=0 note=80 velocity=0 time=0
note_on channel=0 note=75 velocity=0 time=0
note_on channel=0 note=73 velocity=80 time=8
note_on channel=0 note=80 velocity=80 time=0
note_on channel=0 note=85 velocity=80 time=0
note_on channel=0 note=85 velocity=0 time=32
note_on channel=0 note=80 velocity=0 time=0
note_on channel=0 note=73 velocity=0 time=0
note_on channel=0 note=73 velocity=80 time=16
note_on channel=0 note=76 velocity=80 time=0
note_on channel=0 note=84 velocity=80 time=0
note_on channel=0 note=84 velocity=0 time=48
note_on channel=0 note=76 velocity=0 time=0
note_on channel=0 note=73 velocity=0 time=0
note_on channel=0 note=73 velocity=80 time=24
note_on channel=0 note=76 velocity=80 time=0
note_on channel=0 note=82 velocity=80 time=0
note_on channel=0 note=82 velocity=0 time=32
note_on channel=0 note=76 velocity=0 time=0
note_on channel=0 note=73 velocity=0 time=0
note_on channel=0 note=73 velocity=80 time=16
note_on channel=0 note=77 velocity=80 time=0
note_on channel=0 note=80 velocity=80 time=0
note_on channel=0 note=80 velocity=0 time=96
note_on channel=0 note=77 velocity=0 time=0
note_on channel=0 note=73 velocity=0 time=0
note_on channel=0 note=73 velocity=80 time=48
note_on channel=0 note=77 velocity=80 time=0
note_on channel=0 note=80 velocity=80 time=0
note_on channel=0 note=85 velocity=80 time=0
note_on channel=0 note=85 velocity=0 time=32
note_on channel=0 note=73 velocity=0 time=0
note_on channel=0 note=77 velocity=0 time=0
note_on channel=0 note=80 velocity=0 time=0
note_on channel=0 note=85 velocity=80 time=16
note_on channel=0 note=73 velocity=80 time=24
note_on channel=0 note=78 velocity=80 time=0
note_on channel=0 note=82 velocity=80 time=0
note_on channel=0 note=85 velocity=0 time=24
note_on channel=0 note=73 velocity=0 time=8
note_on channel=0 note=78 velocity=0 time=0
note_on channel=0 note=82 velocity=0 time=0
note_on channel=0 note=85 velocity=80 time=16
note_on channel=0 note=78 velocity=80 time=24
note_on channel=0 note=82 velocity=80 time=0
note_on channel=0 note=75 velocity=80 time=0
note_on channel=0 note=85 velocity=0 time=24
note_on channel=0 note=78 velocity=0 time=8
note_on channel=0 note=82 velocity=0 time=0
note_on channel=0 note=75 velocity=0 time=0
note_on channel=0 note=85 velocity=80 time=16
note_on channel=0 note=77 velocity=80 time=24
note_on channel=0 note=78 velocity=80 time=0
note_on channel=0 note=82 velocity=80 time=0
note_on channel=0 note=82 velocity=0 time=32
note_on channel=0 note=78 velocity=0 time=0
note_on channel=0 note=77 velocity=0 time=0
note_on channel=0 note=85 velocity=0 time=8
note_on channel=0 note=85 velocity=80 time=8
note_on channel=0 note=75 velocity=80 time=24
note_on channel=0 note=78 velocity=80 time=0
note_on channel=0 note=82 velocity=80 time=0
note_on channel=0 note=85 velocity=0 time=24
note_on channel=0 note=75 velocity=0 time=8
note_on channel=0 note=78 velocity=0 time=0
note_on channel=0 note=82 velocity=0 time=0
note_on channel=0 note=73 velocity=80 time=16
note_on channel=0 note=78 velocity=80 time=0
note_on channel=0 note=82 velocity=80 time=0
note_on channel=0 note=85 velocity=80 time=0
note_on channel=0 note=85 velocity=0 time=32
note_on channel=0 note=73 velocity=0 time=0
note_on channel=0 note=78 velocity=0 time=0
note_on channel=0 note=82 velocity=0 time=0
note_on channel=0 note=73 velocity=80 time=16
note_on channel=0 note=70 velocity=80 time=0
note_on channel=0 note=78 velocity=80 time=0
note_on channel=0 note=82 velocity=80 time=0
note_on channel=0 note=82 velocity=0 time=32
note_on channel=0 note=73 velocity=0 time=0
note_on channel=0 note=70 velocity=0 time=0
note_on channel=0 note=78 velocity=0 time=0
note_on channel=0 note=80 velocity=80 time=16
note_on channel=0 note=68 velocity=80 time=24
note_on channel=0 note=73 velocity=80 time=0
note_on channel=0 note=77 velocity=80 time=0
note_on channel=0 note=80 velocity=0 time=24
note_on channel=0 note=68 velocity=0 time=8
note_on channel=0 note=73 velocity=0 time=0
note_on channel=0 note=77 velocity=0 time=0
note_on channel=0 note=80 velocity=80 time=16
note_on channel=0 note=77 velocity=80 time=24
note_on channel=0 note=73 velocity=80 time=0
note_on channel=0 note=70 velocity=80 time=0
note_on channel=0 note=80 velocity=0 time=24
note_on channel=0 note=77 velocity=0 time=8
note_on channel=0 note=73 velocity=0 time=0
note_on channel=0 note=70 velocity=0 time=0
note_on channel=0 note=80 velocity=80 time=16
note_on channel=0 note=77 velocity=80 time=24
note_on channel=0 note=73 velocity=80 time=0
note_on channel=0 note=72 velocity=80 time=0
note_on channel=0 note=72 velocity=0 time=32
note_on channel=0 note=73 velocity=0 time=0
note_on channel=0 note=77 velocity=0 time=0
note_on channel=0 note=80 velocity=0 time=8
note_on channel=0 note=80 velocity=80 time=8
note_on channel=0 note=70 velocity=80 time=24
note_on channel=0 note=73 velocity=80 time=0
note_on channel=0 note=77 velocity=80 time=0
note_on channel=0 note=80 velocity=0 time=24
note_on channel=0 note=70 velocity=0 time=8
note_on channel=0 note=73 velocity=0 time=0
note_on channel=0 note=77 velocity=0 time=0
note_on channel=0 note=68 velocity=80 time=16
note_on channel=0 note=73 velocity=80 time=0
note_on channel=0 note=77 velocity=80 time=0
note_on channel=0 note=80 velocity=80 time=0
note_on channel=0 note=80 velocity=0 time=32
note_on channel=0 note=68 velocity=0 time=0
note_on channel=0 note=73 velocity=0 time=0
note_on channel=0 note=77 velocity=0 time=0
note_on channel=0 note=65 velocity=80 time=16
note_on channel=0 note=68 velocity=80 time=0
note_on channel=0 note=73 velocity=80 time=0
note_on channel=0 note=77 velocity=80 time=0
note_on channel=0 note=77 velocity=0 time=32
note_on channel=0 note=65 velocity=0 time=0
note_on channel=0 note=68 velocity=0 time=0
note_on channel=0 note=73 velocity=0 time=0
note_on channel=0 note=73 velocity=80 time=40
note_on channel=0 note=73 velocity=0 time=16
note_on channel=0 note=64 velocity=80 time=8
note_on channel=0 note=64 velocity=0 time=16
note_on channel=0 note=69 velocity=80 time=8
note_on channel=0 note=69 velocity=0 time=16
note_on channel=0 note=76 velocity=80 time=8
note_on channel=0 note=71 velocity=80 time=24
note_on channel=0 note=68 velocity=80 time=0
note_on channel=0 note=64 velocity=80 time=0
note_on channel=0 note=76 velocity=0 time=24
note_on channel=0 note=71 velocity=0 time=8
note_on channel=0 note=68 velocity=0 time=0
note_on channel=0 note=64 velocity=0 time=0
note_on channel=0 note=73 velocity=80 time=16
note_on channel=0 note=73 velocity=0 time=32
note_on channel=0 note=64 velocity=80 time=16
note_on channel=0 note=64 velocity=0 time=16
note_on channel=0 note=69 velocity=80 time=8
note_on channel=0 note=69 velocity=0 time=16
note_on channel=0 note=76 velocity=80 time=8
note_on channel=0 note=76 velocity=0 time=16
note_on channel=0 note=77 velocity=80 time=8
note_on channel=0 note=73 velocity=80 time=0
note_on channel=0 note=68 velocity=80 time=0
note_on channel=0 note=65 velocity=80 time=0
note_on channel=0 note=65 velocity=0 time=64
note_on channel=0 note=77 velocity=0 time=0
note_on channel=0 note=73 velocity=0 time=0
note_on channel=0 note=68 velocity=0 time=0
note_on channel=0 note=66 velocity=80 time=32
note_on channel=0 note=72 velocity=80 time=0
note_on channel=0 note=77 velocity=80 time=0
note_on channel=0 note=77 velocity=0 time=16
note_on channel=0 note=75 velocity=80 time=8
note_on channel=0 note=72 velocity=0 time=24
note_on channel=0 note=66 velocity=0 time=0
note_on channel=0 note=75 velocity=0 time=8
note_on channel=0 note=66 velocity=80 time=16
note_on channel=0 note=66 velocity=0 time=48
note_on channel=0 note=77 velocity=80 time=0
note_on channel=0 note=77 velocity=0 time=16
note_on channel=0 note=66 velocity=80 time=8
note_on channel=0 note=72 velocity=80 time=0
note_on channel=0 note=75 velocity=80 time=0
note_on channel=0 note=75 velocity=0 time=32
note_on channel=0 note=72 velocity=0 time=0
note_on channel=0 note=66 velocity=0 time=0
note_on channel=0 note=65 velocity=80 time=16
note_on channel=0 note=68 velocity=80 time=0
note_on channel=0 note=73 velocity=80 time=0
note_on channel=0 note=73 velocity=0 time=64
note_on channel=0 note=68 velocity=0 time=0
note_on channel=0 note=65 velocity=0 time=0
note_on channel=0 note=73 velocity=80 time=32
note_on channel=0 note=77 velocity=80 time=0
note_on channel=0 note=80 velocity=80 time=0
note_on channel=0 note=85 velocity=80 time=0
note_on channel=0 note=85 velocity=0 time=32
note_on channel=0 note=73 velocity=0 time=0
note_on channel=0 note=77 velocity=0 time=0
note_on channel=0 note=80 velocity=0 time=0
<meta message end_of_track time=0>
<meta message midi_port port=0 time=0>
<meta message track_name name='by Scott Joplin (1907)' time=0>
program_change channel=1 program=0 time=0
control_change channel=1 control=7 value=127 time=0
control_change channel=1 control=10 value=32 time=0
control_change channel=1 control=121 value=0 time=8
control_change channel=1 control=1 value=0 time=16
control_change channel=1 control=64 value=0 time=8
aftertouch channel=1 value=0 time=11
pitchwheel channel=1 pitch=0 time=6
control_change channel=1 control=93 value=12 time=2
control_change channel=1 control=91 value=21 time=0
control_change channel=1 control=7 value=127 time=21
control_change channel=1 control=10 value=44 time=4
note_on channel=1 note=51 velocity=80 time=68
note_on channel=1 note=39 velocity=80 time=0
note_on channel=1 note=39 velocity=0 time=32
note_on channel=1 note=51 velocity=0 time=0
note_on channel=1 note=56 velocity=80 time=16
note_on channel=1 note=44 velocity=80 time=0
note_on channel=1 note=44 velocity=0 time=32
note_on channel=1 note=56 velocity=0 time=0
note_on channel=1 note=60 velocity=80 time=16
note_on channel=1 note=56 velocity=80 time=0
note_on channel=1 note=51 velocity=80 time=0
note_on channel=1 note=51 velocity=0 time=32
note_on channel=1 note=56 velocity=0 time=0
note_on channel=1 note=60 velocity=0 time=0
note_on channel=1 note=51 velocity=80 time=16
note_on channel=1 note=39 velocity=80 time=0
note_on channel=1 note=39 velocity=0 time=32
note_on channel=1 note=51 velocity=0 time=0
note_on channel=1 note=60 velocity=80 time=16
note_on channel=1 note=56 velocity=80 time=0
note_on channel=1 note=51 velocity=80 time=0
note_on channel=1 note=51 velocity=0 time=32
note_on channel=1 note=56 velocity=0 time=0
note_on channel=1 note=60 velocity=0 time=0
note_on channel=1 note=53 velocity=80 time=16
note_on channel=1 note=41 velocity=80 time=0
note_on channel=1 note=41 velocity=0 time=32
note_on channel=1 note=53 velocity=0 time=0
note_on channel=1 note=52 velocity=80 time=16
note_on channel=1 note=40 velocity=80 time=0
note_on channel=1 note=40 velocity=0 time=32
note_on channel=1 note=52 velocity=0 time=0
note_on channel=1 note=51 velocity=80 time=16
note_on channel=1 note=39 velocity=80 time=0
note_on channel=1 note=39 velocity=0 time=32
note_on channel=1 note=51 velocity=0 time=0
note_on channel=1 note=51 velocity=80 time=16
note_on channel=1 note=55 velocity=80 time=0
note_on channel=1 note=61 velocity=80 time=0
note_on channel=1 note=61 velocity=0 time=32
note_on channel=1 note=55 velocity=0 time=0
note_on channel=1 note=51 velocity=0 time=0
note_on channel=1 note=56 velocity=80 time=16
note_on channel=1 note=44 velocity=80 time=0
note_on channel=1 note=44 velocity=0 time=32
note_on channel=1 note=56 velocity=0 time=0
note_on channel=1 note=60 velocity=80 time=16
note_on channel=1 note=56 velocity=80 time=0
note_on channel=1 note=51 velocity=80 time=0
note_on channel=1 note=51 velocity=0 time=32
note_on channel=1 note=56 velocity=0 time=0
note_on channel=1 note=60 velocity=0 time=0
note_on channel=1 note=51 velocity=80 time=16
note_on channel=1 note=39 velocity=80 time=0
note_on channel=1 note=39 velocity=0 time=32
note_on channel=1 note=51 velocity=0 time=0
note_on channel=1 note=60 velocity=80 time=16
note_on channel=1 note=56 velocity=80 time=0
note_on channel=1 note=51 velocity=80 time=0
note_on channel=1 note=51 velocity=0 time=32
note_on channel=1 note=56 velocity=0 time=0
note_on channel=1 note=60 velocity=0 time=0
note_on channel=1 note=53 velocity=80 time=16
note_on channel=1 note=41 velocity=80 time=0
note_on channel=1 note=41 velocity=0 time=32
note_on channel=1 note=53 velocity=0 time=0
note_on channel=1 note=52 velocity=80 time=16
note_on channel=1 note=40 velocity=80 time=0
note_on channel=1 note=40 velocity=0 time=32
note_on channel=1 note=52 velocity=0 time=0
note_on channel=1 note=51 velocity=80 time=16
note_on channel=1 note=39 velocity=80 time=0
note_on channel=1 note=39 velocity=0 time=32
note_on channel=1 note=51 velocity=0 time=0
note_on channel=1 note=58 velocity=80 time=16
note_on channel=1 note=46 velocity=80 time=0
note_on channel=1 note=46 velocity=0 time=16
note_on channel=1 note=58 velocity=0 time=0
note_on channel=1 note=60 velocity=80 time=8
note_on channel=1 note=48 velocity=80 time=0
note_on channel=1 note=48 velocity=0 time=16
note_on channel=1 note=60 velocity=0 time=0
note_on channel=1 note=53 velocity=80 time=8
note_on channel=1 note=41 velocity=80 time=0
note_on channel=1 note=41 velocity=0 time=32
note_on channel=1 note=53 velocity=0 time=0
note_on channel=1 note=58 velocity=80 time=112
note_on channel=1 note=46 velocity=80 time=0
note_on channel=1 note=46 velocity=0 time=16
note_on channel=1 note=58 velocity=0 time=0
note_on channel=1 note=60 velocity=80 time=8
note_on channel=1 note=48 velocity=80 time=0
note_on channel=1 note=48 velocity=0 time=16
note_on channel=1 note=60 velocity=0 time=0
note_on channel=1 note=41 velocity=80 time=8
note_on channel=1 note=53 velocity=80 time=0
note_on channel=1 note=53 velocity=0 time=32
note_on channel=1 note=41 velocity=0 time=0
note_on channel=1 note=61 velocity=80 time=16
note_on channel=1 note=61 velocity=0 time=32
note_on channel=1 note=60 velocity=80 time=16
note_on channel=1 note=60 velocity=0 time=32
note_on channel=1 note=41 velocity=80 time=64
note_on channel=1 note=29 velocity=80 time=0
note_on channel=1 note=29 velocity=0 time=16
note_on channel=1 note=41 velocity=0 time=0
note_on channel=1 note=43 velocity=80 time=8
note_on channel=1 note=31 velocity=80 time=0
note_on channel=1 note=31 velocity=0 time=16
note_on channel=1 note=43 velocity=0 time=0
note_on channel=1 note=44 velocity=80 time=8
note_on channel=1 note=32 velocity=80 time=0
note_on channel=1 note=32 velocity=0 time=16
note_on channel=1 note=44 velocity=0 time=0
note_on channel=1 note=48 velocity=80 time=8
note_on channel=1 note=36 velocity=80 time=0
note_on channel=1 note=36 velocity=0 time=16
note_on channel=1 note=48 velocity=0 time=0
note_on channel=1 note=53 velocity=80 time=8
note_on channel=1 note=41 velocity=80 time=0
note_on channel=1 note=41 velocity=0 time=16
note_on channel=1 note=53 velocity=0 time=0
note_on channel=1 note=55 velocity=80 time=8
note_on channel=1 note=43 velocity=80 time=0
note_on channel=1 note=43 velocity=0 time=16
note_on channel=1 note=55 velocity=0 time=0
note_on channel=1 note=56 velocity=80 time=8
note_on channel=1 note=44 velocity=80 time=0
note_on channel=1 note=44 velocity=0 time=16
note_on channel=1 note=56 velocity=0 time=0
note_on channel=1 note=60 velocity=80 time=8
note_on channel=1 note=48 velocity=80 time=0
note_on channel=1 note=48 velocity=0 time=16
note_on channel=1 note=60 velocity=0 time=0
note_on channel=1 note=53 velocity=80 time=8
note_on channel=1 note=53 velocity=0 time=16
note_on channel=1 note=55 velocity=80 time=8
note_on channel=1 note=55 velocity=0 time=16
note_on channel=1 note=56 velocity=80 time=8
note_on channel=1 note=56 velocity=0 time=16
note_on channel=1 note=60 velocity=80 time=8
note_on channel=1 note=60 velocity=0 time=16
note_on channel=1 note=50 velocity=80 time=872
note_on channel=1 note=53 velocity=80 time=0
note_on channel=1 note=56 velocity=80 time=0
note_on channel=1 note=59 velocity=80 time=0
note_on channel=1 note=59 velocity=0 time=32
note_on channel=1 note=50 velocity=0 time=0
note_on channel=1 note=53 velocity=0 time=0
note_on channel=1 note=56 velocity=0 time=0
note_on channel=1 note=50 velocity=80 time=16
note_on channel=1 note=53 velocity=80 time=0
note_on channel=1 note=56 velocity=80 time=0
note_on channel=1 note=59 velocity=80 time=0
note_on channel=1 note=59 velocity=0 time=32
note_on channel=1 note=50 velocity=0 time=0
note_on channel=1 note=53 velocity=0 time=0
note_on channel=1 note=56 velocity=0 time=0
note_on channel=1 note=50 velocity=80 time=16
note_on channel=1 note=53 velocity=80 time=0
note_on channel=1 note=56 velocity=80 time=0
note_on channel=1 note=59 velocity=80 time=0
note_on channel=1 note=59 velocity=0 time=32
note_on channel=1 note=50 velocity=0 time=0
note_on channel=1 note=53 velocity=0 time=0
note_on channel=1 note=56 velocity=0 time=0
note_on channel=1 note=50 velocity=80 time=16
note_on channel=1 note=53 velocity=80 time=0
note_on channel=1 note=56 velocity=80 time=0
note_on channel=1 note=59 velocity=80 time=0
note_on channel=1 note=59 velocity=0 time=32
note_on channel=1 note=50 velocity=0 time=0
note_on channel=1 note=53 velocity=0 time=0
note_on channel=1 note=56 velocity=0 time=0
note_on channel=1 note=51 velocity=80 time=16
note_on channel=1 note=56 velocity=80 time=0
note_on channel=1 note=60 velocity=80 time=0
note_on channel=1 note=60 velocity=0 time=32
note_on channel=1 note=56 velocity=0 time=0
note_on channel=1 note=51 velocity=0 time=0
note_on channel=1 note=60 velocity=80 time=16
note_on channel=1 note=56 velocity=80 time=0
note_on channel=1 note=51 velocity=80 time=0
note_on channel=1 note=51 velocity=0 time=32
note_on channel=1 note=56 velocity=0 time=0
note_on channel=1 note=60 velocity=0 time=0
note_on channel=1 note=54 velocity=80 time=16
note_on channel=1 note=56 velocity=80 time=0
note_on channel=1 note=60 velocity=80 time=0
note_on channel=1 note=60 velocity=0 time=32
note_on channel=1 note=56 velocity=0 time=0
note_on channel=1 note=54 velocity=0 time=0
note_on channel=1 note=60 velocity=80 time=16
note_on channel=1 note=56 velocity=80 time=0
note_on channel=1 note=54 velocity=80 time=0
note_on channel=1 note=54 velocity=0 time=32
note_on channel=1 note=56 velocity=0 time=0
note_on channel=1 note=60 velocity=0 time=0
note_on channel=1 note=56 velocity=80 time=16
note_on channel=1 note=53 velocity=80 time=0
note_on channel=1 note=61 velocity=80 time=0
note_on channel=1 note=61 velocity=0 time=32
note_on channel=1 note=53 velocity=0 time=0
note_on channel=1 note=56 velocity=0 time=0
note_on channel=1 note=61 velocity=80 time=16
note_on channel=1 note=56 velocity=80 time=0
note_on channel=1 note=52 velocity=80 time=0
note_on channel=1 note=52 velocity=0 time=32
note_on channel=1 note=56 velocity=0 time=0
note_on channel=1 note=61 velocity=0 time=0
note_on channel=1 note=60 velocity=80 time=16
note_on channel=1 note=56 velocity=80 time=0
note_on channel=1 note=51 velocity=80 time=0
note_on channel=1 note=51 velocity=0 time=32
note_on channel=1 note=56 velocity=0 time=0
note_on channel=1 note=60 velocity=0 time=0
note_on channel=1 note=51 velocity=80 time=16
note_on channel=1 note=56 velocity=80 time=0
note_on channel=1 note=60 velocity=80 time=0
note_on channel=1 note=60 velocity=0 time=32
note_on channel=1 note=56 velocity=0 time=0
note_on channel=1 note=51 velocity=0 time=0
note_on channel=1 note=53 velocity=80 time=16
note_on channel=1 note=41 velocity=80 time=0
note_on channel=1 note=41 velocity=0 time=32
note_on channel=1 note=53 velocity=0 time=0
note_on channel=1 note=39 velocity=80 time=16
note_on channel=1 note=51 velocity=80 time=0
note_on channel=1 note=51 velocity=0 time=32
note_on channel=1 note=39 velocity=0 time=0
note_on channel=1 note=56 velocity=80 time=16
note_on channel=1 note=44 velocity=80 time=0
note_on channel=1 note=44 velocity=0 time=32
note_on channel=1 note=56 velocity=0 time=0
note_on channel=1 note=39 velocity=80 time=16
note_on channel=1 note=51 velocity=80 time=0
note_on channel=1 note=51 velocity=0 time=32
note_on channel=1 note=39 velocity=0 time=0
note_on channel=1 note=56 velocity=80 time=16
note_on channel=1 note=44 velocity=80 time=0
note_on channel=1 note=44 velocity=0 time=32
note_on channel=1 note=56 velocity=0 time=0
note_on channel=1 note=60 velocity=80 time=16
note_on channel=1 note=56 velocity=80 time=0
note_on channel=1 note=51 velocity=80 time=0
note_on channel=1 note=51 velocity=0 time=32
note_on channel=1 note=56 velocity=0 time=0
note_on channel=1 note=60 velocity=0 time=0
note_on channel=1 note=51 velocity=80 time=16
note_on channel=1 note=39 velocity=80 time=0
note_on channel=1 note=39 velocity=0 time=32
note_on channel=1 note=51 velocity=0 time=0
note_on channel=1 note=60 velocity=80 time=16
note_on channel=1 note=56 velocity=80 time=0
note_on channel=1 note=51 velocity=80 time=0
note_on channel=1 note=51 velocity=0 time=32
note_on channel=1 note=56 velocity=0 time=0
note_on channel=1 note=60 velocity=0 time=0
note_on channel=1 note=53 velocity=80 time=16
note_on channel=1 note=41 velocity=80 time=0
note_on channel=1 note=41 velocity=0 time=32
note_on channel=1 note=53 velocity=0 time=0
note_on channel=1 note=52 velocity=80 time=16
note_on channel=1 note=40 velocity=80 time=0
note_on channel=1 note=40 velocity=0 time=32
note_on channel=1 note=52 velocity=0 time=0
note_on channel=1 note=51 velocity=80 time=16
note_on channel=1 note=39 velocity=80 time=0
note_on channel=1 note=39 velocity=0 time=32
note_on channel=1 note=51 velocity=0 time=0
note_on channel=1 note=51 velocity=80 time=16
note_on channel=1 note=55 velocity=80 time=0
note_on channel=1 note=61 velocity=80 time=0
note_on channel=1 note=61 velocity=0 time=32
note_on channel=1 note=55 velocity=0 time=0
note_on channel=1 note=51 velocity=0 time=0
note_on channel=1 note=56 velocity=80 time=16
note_on channel=1 note=44 velocity=80 time=0
note_on channel=1 note=44 velocity=0 time=32
note_on channel=1 note=56 velocity=0 time=0
note_on channel=1 note=60 velocity=80 time=16
note_on channel=1 note=56 velocity=80 time=0
note_on channel=1 note=51 velocity=80 time=0
note_on channel=1 note=51 velocity=0 time=32
note_on channel=1 note=56 velocity=0 time=0
note_on channel=1 note=60 velocity=0 time=0
note_on channel=1 note=51 velocity=80 time=16
note_on channel=1 note=39 velocity=80 time=0
note_on channel=1 note=39 velocity=0 time=32
note_on channel=1 note=51 velocity=0 time=0
note_on channel=1 note=60 velocity=80 time=16
note_on channel=1 note=56 velocity=80 time=0
note_on channel=1 note=51 velocity=80 time=0
note_on channel=1 note=51 velocity=0 time=32
note_on channel=1 note=56 velocity=0 time=0
note_on channel=1 note=60 velocity=0 time=0
note_on channel=1 note=53 velocity=80 time=16
note_on channel=1 note=41 velocity=80 time=0
note_on channel=1 note=41 velocity=0 time=32
note_on channel=1 note=53 velocity=0 time=0
note_on channel=1 note=52 velocity=80 time=16
note_on channel=1 note=40 velocity=80 time=0
note_on channel=1 note=40 velocity=0 time=32
note_on channel=1 note=52 velocity=0 time=0
note_on channel=1 note=51 velocity=80 time=16
note_on channel=1 note=39 velocity=80 time=0
note_on channel=1 note=39 velocity=0 time=32
note_on channel=1 note=51 velocity=0 time=0
note_on channel=1 note=58 velocity=80 time=16
note_on channel=1 note=46 velocity=80 time=0
note_on channel=1 note=46 velocity=0 time=16
note_on channel=1 note=58 velocity=0 time=0
note_on channel=1 note=60 velocity=80 time=8
note_on channel=1 note=48 velocity=80 time=0
note_on channel=1 note=48 velocity=0 time=16
note_on channel=1 note=60 velocity=0 time=0
note_on channel=1 note=53 velocity=80 time=8
note_on channel=1 note=41 velocity=80 time=0
note_on channel=1 note=41 velocity=0 time=32
note_on channel=1 note=53 velocity=0 time=0
note_on channel=1 note=58 velocity=80 time=112
note_on channel=1 note=46 velocity=80 time=0
note_on channel=1 note=46 velocity=0 time=16
note_on channel=1 note=58 velocity=0 time=0
note_on channel=1 note=60 velocity=80 time=8
note_on channel=1 note=48 velocity=80 time=0
note_on channel=1 note=48 velocity=0 time=16
note_on channel=1 note=60 velocity=0 time=0
note_on channel=1 note=41 velocity=80 time=8
note_on channel=1 note=53 velocity=80 time=0
note_on channel=1 note=53 velocity=0 time=32
note_on channel=1 note=41 velocity=0 time=0
note_on channel=1 note=61 velocity=80 time=16
note_on channel=1 note=61 velocity=0 time=32
note_on channel=1 note=60 velocity=80 time=16
note_on channel=1 note=60 velocity=0 time=32
note_on channel=1 note=41 velocity=80 time=64
note_on channel=1 note=29 velocity=80 time=0
note_on channel=1 note=29 velocity=0 time=16
note_on channel=1 note=41 velocity=0 time=0
note_on channel=1 note=43 velocity=80 time=8
note_on channel=1 note=31 velocity=80 time=0
note_on channel=1 note=31 velocity=0 time=16
note_on channel=1 note=43 velocity=0 time=0
note_on channel=1 note=44 velocity=80 time=8
note_on channel=1 note=32 velocity=80 time=0
note_on channel=1 note=32 velocity=0 time=16
note_on channel=1 note=44 velocity=0 time=0
note_on channel=1 note=48 velocity=80 time=8
note_on channel=1 note=36 velocity=80 time=0
note_on channel=1 note=36 velocity=0 time=16
note_on channel=1 note=48 velocity=0 time=0
note_on channel=1 note=53 velocity=80 time=8
note_on channel=1 note=41 velocity=80 time=0
note_on channel=1 note=41 velocity=0 time=16
note_on channel=1 note=53 velocity=0 time=0
note_on channel=1 note=55 velocity=80 time=8
note_on channel=1 note=43 velocity=80 time=0
note_on channel=1 note=43 velocity=0 time=16
note_on channel=1 note=55 velocity=0 time=0
note_on channel=1 note=56 velocity=80 time=8
note_on channel=1 note=44 velocity=80 time=0
note_on channel=1 note=44 velocity=0 time=16
note_on channel=1 note=56 velocity=0 time=0
note_on channel=1 note=60 velocity=80 time=8
note_on channel=1 note=48 velocity=80 time=0
note_on channel=1 note=48 velocity=0 time=16
note_on channel=1 note=60 velocity=0 time=0
note_on channel=1 note=53 velocity=80 time=8
note_on channel=1 note=53 velocity=0 time=16
note_on channel=1 note=55 velocity=80 time=8
note_on channel=1 note=55 velocity=0 time=16
note_on channel=1 note=56 velocity=80 time=8
note_on channel=1 note=56 velocity=0 time=16
note_on channel=1 note=60 velocity=80 time=8
note_on channel=1 note=60 velocity=0 time=16
note_on channel=1 note=50 velocity=80 time=872
note_on channel=1 note=53 velocity=80 time=0
note_on channel=1 note=56 velocity=80 time=0
note_on channel=1 note=59 velocity=80 time=0
note_on channel=1 note=59 velocity=0 time=32
note_on channel=1 note=50 velocity=0 time=0
note_on channel=1 note=53 velocity=0 time=0
note_on channel=1 note=56 velocity=0 time=0
note_on channel=1 note=50 velocity=80 time=16
note_on channel=1 note=53 velocity=80 time=0
note_on channel=1 note=56 velocity=80 time=0
note_on channel=1 note=59 velocity=80 time=0
note_on channel=1 note=59 velocity=0 time=32
note_on channel=1 note=50 velocity=0 time=0
note_on channel=1 note=53 velocity=0 time=0
note_on channel=1 note=56 velocity=0 time=0
note_on channel=1 note=50 velocity=80 time=16
note_on channel=1 note=53 velocity=80 time=0
note_on channel=1 note=56 velocity=80 time=0
note_on channel=1 note=59 velocity=80 time=0
note_on channel=1 note=59 velocity=0 time=32
note_on channel=1 note=50 velocity=0 time=0
note_on channel=1 note=53 velocity=0 time=0
note_on channel=1 note=56 velocity=0 time=0
note_on channel=1 note=50 velocity=80 time=16
note_on channel=1 note=53 velocity=80 time=0
note_on channel=1 note=56 velocity=80 time=0
note_on channel=1 note=59 velocity=80 time=0
note_on channel=1 note=59 velocity=0 time=32
note_on channel=1 note=50 velocity=0 time=0
note_on channel=1 note=53 velocity=0 time=0
note_on channel=1 note=56 velocity=0 time=0
note_on channel=1 note=51 velocity=80 time=16
note_on channel=1 note=56 velocity=80 time=0
note_on channel=1 note=60 velocity=80 time=0
note_on channel=1 note=60 velocity=0 time=32
note_on channel=1 note=56 velocity=0 time=0
note_on channel=1 note=51 velocity=0 time=0
note_on channel=1 note=60 velocity=80 time=16
note_on channel=1 note=56 velocity=80 time=0
note_on channel=1 note=51 velocity=80 time=0
note_on channel=1 note=51 velocity=0 time=32
note_on channel=1 note=56 velocity=0 time=0
note_on channel=1 note=60 velocity=0 time=0
note_on channel=1 note=54 velocity=80 time=16
note_on channel=1 note=56 velocity=80 time=0
note_on channel=1 note=60 velocity=80 time=0
note_on channel=1 note=60 velocity=0 time=32
note_on channel=1 note=56 velocity=0 time=0
note_on channel=1 note=54 velocity=0 time=0
note_on channel=1 note=60 velocity=80 time=16
note_on channel=1 note=56 velocity=80 time=0
note_on channel=1 note=54 velocity=80 time=0
note_on channel=1 note=54 velocity=0 time=32
note_on channel=1 note=56 velocity=0 time=0
note_on channel=1 note=60 velocity=0 time=0
note_on channel=1 note=56 velocity=80 time=16
note_on channel=1 note=53 velocity=80 time=0
note_on channel=1 note=61 velocity=80 time=0
note_on channel=1 note=61 velocity=0 time=32
note_on channel=1 note=53 velocity=0 time=0
note_on channel=1 note=56 velocity=0 time=0
note_on channel=1 note=61 velocity=80 time=16
note_on channel=1 note=56 velocity=80 time=0
note_on channel=1 note=52 velocity=80 time=0
note_on channel=1 note=52 velocity=0 time=32
note_on channel=1 note=56 velocity=0 time=0
note_on channel=1 note=61 velocity=0 time=0
note_on channel=1 note=60 velocity=80 time=16
note_on channel=1 note=56 velocity=80 time=0
note_on channel=1 note=51 velocity=80 time=0
note_on channel=1 note=51 velocity=0 time=32
note_on channel=1 note=56 velocity=0 time=0
note_on channel=1 note=60 velocity=0 time=0
note_on channel=1 note=51 velocity=80 time=16
note_on channel=1 note=56 velocity=80 time=0
note_on channel=1 note=60 velocity=80 time=0
note_on channel=1 note=60 velocity=0 time=32
note_on channel=1 note=56 velocity=0 time=0
note_on channel=1 note=51 velocity=0 time=0
note_on channel=1 note=53 velocity=80 time=16
note_on channel=1 note=41 velocity=80 time=0
note_on channel=1 note=41 velocity=0 time=32
note_on channel=1 note=53 velocity=0 time=0
note_on channel=1 note=39 velocity=80 time=16
note_on channel=1 note=51 velocity=80 time=0
note_on channel=1 note=51 velocity=0 time=32
note_on channel=1 note=39 velocity=0 time=0
note_on channel=1 note=56 velocity=80 time=16
note_on channel=1 note=44 velocity=80 time=0
note_on channel=1 note=44 velocity=0 time=32
note_on channel=1 note=56 velocity=0 time=0
note_on channel=1 note=57 velocity=80 time=16
note_on channel=1 note=45 velocity=80 time=0
note_on channel=1 note=45 velocity=0 time=32
note_on channel=1 note=57 velocity=0 time=0
note_on channel=1 note=58 velocity=80 time=16
note_on channel=1 note=46 velocity=80 time=0
note_on channel=1 note=46 velocity=0 time=32
note_on channel=1 note=58 velocity=0 time=0
note_on channel=1 note=61 velocity=80 time=16
note_on channel=1 note=55 velocity=80 time=0
note_on channel=1 note=51 velocity=80 time=0
note_on channel=1 note=51 velocity=0 time=32
note_on channel=1 note=55 velocity=0 time=0
note_on channel=1 note=61 velocity=0 time=0
note_on channel=1 note=51 velocity=80 time=16
note_on channel=1 note=39 velocity=80 time=0
note_on channel=1 note=39 velocity=0 time=32
note_on channel=1 note=51 velocity=0 time=0
note_on channel=1 note=51 velocity=80 time=16
note_on channel=1 note=55 velocity=80 time=0
note_on channel=1 note=61 velocity=80 time=0
note_on channel=1 note=61 velocity=0 time=32
note_on channel=1 note=55 velocity=0 time=0
note_on channel=1 note=51 velocity=0 time=0
note_on channel=1 note=55 velocity=80 time=16
note_on channel=1 note=43 velocity=80 time=0
note_on channel=1 note=43 velocity=0 time=32
note_on channel=1 note=55 velocity=0 time=0
note_on channel=1 note=51 velocity=80 time=16
note_on channel=1 note=55 velocity=80 time=0
note_on channel=1 note=61 velocity=80 time=0
note_on channel=1 note=61 velocity=0 time=32
note_on channel=1 note=55 velocity=0 time=0
note_on channel=1 note=51 velocity=0 time=0
note_on channel=1 note=51 velocity=80 time=16
note_on channel=1 note=39 velocity=80 time=0
note_on channel=1 note=39 velocity=0 time=32
note_on channel=1 note=51 velocity=0 time=0
note_on channel=1 note=51 velocity=80 time=16
note_on channel=1 note=55 velocity=80 time=0
note_on channel=1 note=61 velocity=80 time=0
note_on channel=1 note=61 velocity=0 time=32
note_on channel=1 note=55 velocity=0 time=0
note_on channel=1 note=51 velocity=0 time=0
note_on channel=1 note=56 velocity=80 time=16
note_on channel=1 note=44 velocity=80 time=0
note_on channel=1 note=44 velocity=0 time=32
note_on channel=1 note=56 velocity=0 time=0
note_on channel=1 note=51 velocity=80 time=16
note_on channel=1 note=56 velocity=80 time=0
note_on channel=1 note=60 velocity=80 time=0
note_on channel=1 note=60 velocity=0 time=32
note_on channel=1 note=56 velocity=0 time=0
note_on channel=1 note=51 velocity=0 time=0
note_on channel=1 note=51 velocity=80 time=16
note_on channel=1 note=39 velocity=80 time=0
note_on channel=1 note=39 velocity=0 time=32
note_on channel=1 note=51 velocity=0 time=0
note_on channel=1 note=51 velocity=80 time=16
note_on channel=1 note=56 velocity=80 time=0
note_on channel=1 note=60 velocity=80 time=0
note_on channel=1 note=60 velocity=0 time=32
note_on channel=1 note=56 velocity=0 time=0
note_on channel=1 note=51 velocity=0 time=0
note_on channel=1 note=56 velocity=80 time=16
note_on channel=1 note=44 velocity=80 time=0
note_on channel=1 note=44 velocity=0 time=16
note_on channel=1 note=56 velocity=0 time=0
note_on channel=1 note=43 velocity=80 time=8
note_on channel=1 note=55 velocity=80 time=0
note_on channel=1 note=55 velocity=0 time=16
note_on channel=1 note=43 velocity=0 time=0
note_on channel=1 note=56 velocity=80 time=8
note_on channel=1 note=44 velocity=80 time=0
note_on channel=1 note=44 velocity=0 time=16
note_on channel=1 note=56 velocity=0 time=0
note_on channel=1 note=48 velocity=80 time=8
note_on channel=1 note=60 velocity=80 time=0
note_on channel=1 note=60 velocity=0 time=16
note_on channel=1 note=48 velocity=0 time=0
note_on channel=1 note=63 velocity=80 time=8
note_on channel=1 note=51 velocity=80 time=0
note_on channel=1 note=51 velocity=0 time=32
note_on channel=1 note=63 velocity=0 time=0
note_on channel=1 note=45 velocity=80 time=16
note_on channel=1 note=57 velocity=80 time=0
note_on channel=1 note=57 velocity=0 time=32
note_on channel=1 note=45 velocity=0 time=0
note_on channel=1 note=58 velocity=80 time=16
note_on channel=1 note=46 velocity=80 time=0
note_on channel=1 note=46 velocity=0 time=32
note_on channel=1 note=58 velocity=0 time=0
note_on channel=1 note=51 velocity=80 time=16
note_on channel=1 note=55 velocity=80 time=0
note_on channel=1 note=61 velocity=80 time=0
note_on channel=1 note=61 velocity=0 time=32
note_on channel=1 note=55 velocity=0 time=0
note_on channel=1 note=51 velocity=0 time=0
note_on channel=1 note=51 velocity=80 time=16
note_on channel=1 note=39 velocity=80 time=0
note_on channel=1 note=39 velocity=0 time=16
note_on channel=1 note=51 velocity=0 time=0
note_on channel=1 note=40 velocity=80 time=8
note_on channel=1 note=52 velocity=80 time=0
note_on channel=1 note=52 velocity=0 time=16
note_on channel=1 note=40 velocity=0 time=0
note_on channel=1 note=53 velocity=80 time=8
note_on channel=1 note=41 velocity=80 time=0
note_on channel=1 note=41 velocity=0 time=16
note_on channel=1 note=53 velocity=0 time=0
note_on channel=1 note=42 velocity=80 time=8
note_on channel=1 note=54 velocity=80 time=0
note_on channel=1 note=54 velocity=0 time=16
note_on channel=1 note=42 velocity=0 time=0
note_on channel=1 note=58 velocity=80 time=8
note_on channel=1 note=46 velocity=80 time=0
note_on channel=1 note=46 velocity=0 time=32
note_on channel=1 note=58 velocity=0 time=0
note_on channel=1 note=51 velocity=80 time=16
note_on channel=1 note=55 velocity=80 time=0
note_on channel=1 note=61 velocity=80 time=0
note_on channel=1 note=61 velocity=0 time=32
note_on channel=1 note=55 velocity=0 time=0
note_on channel=1 note=51 velocity=0 time=0
note_on channel=1 note=39 velocity=80 time=16
note_on channel=1 note=39 velocity=0 time=16
note_on channel=1 note=40 velocity=80 time=8
note_on channel=1 note=52 velocity=80 time=0
note_on channel=1 note=52 velocity=0 time=16
note_on channel=1 note=40 velocity=0 time=0
note_on channel=1 note=53 velocity=80 time=8
note_on channel=1 note=41 velocity=80 time=0
note_on channel=1 note=41 velocity=0 time=16
note_on channel=1 note=53 velocity=0 time=0
note_on channel=1 note=43 velocity=80 time=8
note_on channel=1 note=55 velocity=80 time=0
note_on channel=1 note=55 velocity=0 time=16
note_on channel=1 note=43 velocity=0 time=0
note_on channel=1 note=56 velocity=80 time=8
note_on channel=1 note=44 velocity=80 time=0
note_on channel=1 note=44 velocity=0 time=32
note_on channel=1 note=56 velocity=0 time=0
note_on channel=1 note=56 velocity=80 time=16
note_on channel=1 note=60 velocity=80 time=0
note_on channel=1 note=51 velocity=80 time=0
note_on channel=1 note=51 velocity=0 time=32
note_on channel=1 note=60 velocity=0 time=0
note_on channel=1 note=56 velocity=0 time=0
note_on channel=1 note=51 velocity=80 time=16
note_on channel=1 note=39 velocity=80 time=0
note_on channel=1 note=39 velocity=0 time=32
note_on channel=1 note=51 velocity=0 time=0
note_on channel=1 note=51 velocity=80 time=16
note_on channel=1 note=56 velocity=80 time=0
note_on channel=1 note=60 velocity=80 time=0
note_on channel=1 note=60 velocity=0 time=32
note_on channel=1 note=56 velocity=0 time=0
note_on channel=1 note=51 velocity=0 time=0
note_on channel=1 note=56 velocity=80 time=16
note_on channel=1 note=44 velocity=80 time=0
note_on channel=1 note=44 velocity=0 time=16
note_on channel=1 note=56 velocity=0 time=0
note_on channel=1 note=39 velocity=80 time=8
note_on channel=1 note=51 velocity=80 time=0
note_on channel=1 note=51 velocity=0 time=16
note_on channel=1 note=39 velocity=0 time=0
note_on channel=1 note=52 velocity=80 time=8
note_on channel=1 note=40 velocity=80 time=0
note_on channel=1 note=40 velocity=0 time=16
note_on channel=1 note=52 velocity=0 time=0
note_on channel=1 note=41 velocity=80 time=8
note_on channel=1 note=53 velocity=80 time=0
note_on channel=1 note=53 velocity=0 time=16
note_on channel=1 note=41 velocity=0 time=0
note_on channel=1 note=54 velocity=80 time=8
note_on channel=1 note=42 velocity=80 time=0
note_on channel=1 note=42 velocity=0 time=16
note_on channel=1 note=54 velocity=0 time=0
note_on channel=1 note=43 velocity=80 time=8
note_on channel=1 note=55 velocity=80 time=0
note_on channel=1 note=55 velocity=0 time=16
note_on channel=1 note=43 velocity=0 time=0
note_on channel=1 note=56 velocity=80 time=8
note_on channel=1 note=44 velocity=80 time=0
note_on channel=1 note=44 velocity=0 time=16
note_on channel=1 note=56 velocity=0 time=0
note_on channel=1 note=57 velocity=80 time=8
note_on channel=1 note=45 velocity=80 time=0
note_on channel=1 note=45 velocity=0 time=16
note_on channel=1 note=57 velocity=0 time=0
note_on channel=1 note=58 velocity=80 time=8
note_on channel=1 note=46 velocity=80 time=0
note_on channel=1 note=46 velocity=0 time=32
note_on channel=1 note=58 velocity=0 time=0
note_on channel=1 note=61 velocity=80 time=16
note_on channel=1 note=55 velocity=80 time=0
note_on channel=1 note=51 velocity=80 time=0
note_on channel=1 note=51 velocity=0 time=32
note_on channel=1 note=55 velocity=0 time=0
note_on channel=1 note=61 velocity=0 time=0
note_on channel=1 note=51 velocity=80 time=16
note_on channel=1 note=39 velocity=80 time=0
note_on channel=1 note=39 velocity=0 time=32
note_on channel=1 note=51 velocity=0 time=0
note_on channel=1 note=51 velocity=80 time=16
note_on channel=1 note=55 velocity=80 time=0
note_on channel=1 note=61 velocity=80 time=0
note_on channel=1 note=61 velocity=0 time=32
note_on channel=1 note=55 velocity=0 time=0
note_on channel=1 note=51 velocity=0 time=0
note_on channel=1 note=55 velocity=80 time=16
note_on channel=1 note=43 velocity=80 time=0
note_on channel=1 note=43 velocity=0 time=32
note_on channel=1 note=55 velocity=0 time=0
note_on channel=1 note=51 velocity=80 time=16
note_on channel=1 note=55 velocity=80 time=0
note_on channel=1 note=61 velocity=80 time=0
note_on channel=1 note=61 velocity=0 time=32
note_on channel=1 note=55 velocity=0 time=0
note_on channel=1 note=51 velocity=0 time=0
note_on channel=1 note=51 velocity=80 time=16
note_on channel=1 note=39 velocity=80 time=0
note_on channel=1 note=39 velocity=0 time=32
note_on channel=1 note=51 velocity=0 time=0
note_on channel=1 note=51 velocity=80 time=16
note_on channel=1 note=55 velocity=80 time=0
note_on channel=1 note=61 velocity=80 time=0
note_on channel=1 note=61 velocity=0 time=32
note_on channel=1 note=55 velocity=0 time=0
note_on channel=1 note=51 velocity=0 time=0
note_on channel=1 note=56 velocity=80 time=16
note_on channel=1 note=44 velocity=80 time=0
note_on channel=1 note=44 velocity=0 time=32
note_on channel=1 note=56 velocity=0 time=0
note_on channel=1 note=51 velocity=80 time=16
note_on channel=1 note=56 velocity=80 time=0
note_on channel=1 note=60 velocity=80 time=0
note_on channel=1 note=60 velocity=0 time=32
note_on channel=1 note=56 velocity=0 time=0
note_on channel=1 note=51 velocity=0 time=0
note_on channel=1 note=43 velocity=80 time=16
note_on channel=1 note=55 velocity=80 time=0
note_on channel=1 note=55 velocity=0 time=32
note_on channel=1 note=43 velocity=0 time=0
note_on channel=1 note=52 velocity=80 time=16
note_on channel=1 note=58 velocity=80 time=0
note_on channel=1 note=60 velocity=80 time=0
note_on channel=1 note=60 velocity=0 time=32
note_on channel=1 note=58 velocity=0 time=0
note_on channel=1 note=52 velocity=0 time=0
note_on channel=1 note=53 velocity=80 time=16
note_on channel=1 note=41 velocity=80 time=0
note_on channel=1 note=41 velocity=0 time=32
note_on channel=1 note=53 velocity=0 time=0
note_on channel=1 note=53 velocity=80 time=16
note_on channel=1 note=56 velocity=80 time=0
note_on channel=1 note=60 velocity=80 time=0
note_on channel=1 note=60 velocity=0 time=32
note_on channel=1 note=56 velocity=0 time=0
note_on channel=1 note=53 velocity=0 time=0
note_on channel=1 note=53 velocity=80 time=16
note_on channel=1 note=41 velocity=80 time=0
note_on channel=1 note=41 velocity=0 time=32
note_on channel=1 note=53 velocity=0 time=0
note_on channel=1 note=51 velocity=80 time=16
note_on channel=1 note=39 velocity=80 time=0
note_on channel=1 note=39 velocity=0 time=32
note_on channel=1 note=51 velocity=0 time=0
note_on channel=1 note=49 velocity=80 time=16
note_on channel=1 note=37 velocity=80 time=0
note_on channel=1 note=37 velocity=0 time=32
note_on channel=1 note=49 velocity=0 time=0
note_on channel=1 note=53 velocity=80 time=16
note_on channel=1 note=56 velocity=80 time=0
note_on channel=1 note=61 velocity=80 time=0
note_on channel=1 note=61 velocity=0 time=32
note_on channel=1 note=56 velocity=0 time=0
note_on channel=1 note=53 velocity=0 time=0
note_on channel=1 note=53 velocity=80 time=16
note_on channel=1 note=41 velocity=80 time=0
note_on channel=1 note=41 velocity=0 time=32
note_on channel=1 note=53 velocity=0 time=0
note_on channel=1 note=40 velocity=80 time=16
note_on channel=1 note=52 velocity=80 time=0
note_on channel=1 note=52 velocity=0 time=32
note_on channel=1 note=40 velocity=0 time=0
note_on channel=1 note=51 velocity=80 time=16
note_on channel=1 note=39 velocity=80 time=0
note_on channel=1 note=39 velocity=0 time=32
note_on channel=1 note=51 velocity=0 time=0
note_on channel=1 note=51 velocity=80 time=16
note_on channel=1 note=56 velocity=80 time=0
note_on channel=1 note=60 velocity=80 time=0
note_on channel=1 note=60 velocity=0 time=32
note_on channel=1 note=56 velocity=0 time=0
note_on channel=1 note=51 velocity=0 time=0
note_on channel=1 note=60 velocity=80 time=16
note_on channel=1 note=48 velocity=80 time=0
note_on channel=1 note=48 velocity=0 time=32
note_on channel=1 note=60 velocity=0 time=0
note_on channel=1 note=45 velocity=80 time=16
note_on channel=1 note=57 velocity=80 time=0
note_on channel=1 note=57 velocity=0 time=32
note_on channel=1 note=45 velocity=0 time=0
note_on channel=1 note=58 velocity=80 time=16
note_on channel=1 note=46 velocity=80 time=0
note_on channel=1 note=46 velocity=0 time=32
note_on channel=1 note=58 velocity=0 time=0
note_on channel=1 note=51 velocity=80 time=16
note_on channel=1 note=55 velocity=80 time=0
note_on channel=1 note=61 velocity=80 time=0
note_on channel=1 note=61 velocity=0 time=32
note_on channel=1 note=55 velocity=0 time=0
note_on channel=1 note=51 velocity=0 time=0
note_on channel=1 note=51 velocity=80 time=16
note_on channel=1 note=39 velocity=80 time=0
note_on channel=1 note=39 velocity=0 time=32
note_on channel=1 note=51 velocity=0 time=0
note_on channel=1 note=51 velocity=80 time=16
note_on channel=1 note=55 velocity=80 time=0
note_on channel=1 note=61 velocity=80 time=0
note_on channel=1 note=61 velocity=0 time=32
note_on channel=1 note=55 velocity=0 time=0
note_on channel=1 note=51 velocity=0 time=0
note_on channel=1 note=60 velocity=80 time=16
note_on channel=1 note=56 velocity=80 time=0
note_on channel=1 note=56 velocity=0 time=32
note_on channel=1 note=51 velocity=80 time=16
note_on channel=1 note=39 velocity=80 time=0
note_on channel=1 note=39 velocity=0 time=32
note_on channel=1 note=51 velocity=0 time=0
note_on channel=1 note=60 velocity=0 time=16
note_on channel=1 note=44 velocity=80 time=0
note_on channel=1 note=56 velocity=80 time=0
note_on channel=1 note=56 velocity=0 time=32
note_on channel=1 note=44 velocity=0 time=0
note_on channel=1 note=57 velocity=80 time=16
note_on channel=1 note=45 velocity=80 time=0
note_on channel=1 note=45 velocity=0 time=32
note_on channel=1 note=57 velocity=0 time=0
note_on channel=1 note=58 velocity=80 time=16
note_on channel=1 note=46 velocity=80 time=0
note_on channel=1 note=46 velocity=0 time=32
note_on channel=1 note=58 velocity=0 time=0
note_on channel=1 note=61 velocity=80 time=16
note_on channel=1 note=55 velocity=80 time=0
note_on channel=1 note=51 velocity=80 time=0
note_on channel=1 note=51 velocity=0 time=32
note_on channel=1 note=55 velocity=0 time=0
note_on channel=1 note=61 velocity=0 time=0
note_on channel=1 note=51 velocity=80 time=16
note_on channel=1 note=39 velocity=80 time=0
note_on channel=1 note=39 velocity=0 time=32
note_on channel=1 note=51 velocity=0 time=0
note_on channel=1 note=51 velocity=80 time=16
note_on channel=1 note=55 velocity=80 time=0
note_on channel=1 note=61 velocity=80 time=0
note_on channel=1 note=61 velocity=0 time=32
note_on channel=1 note=55 velocity=0 time=0
note_on channel=1 note=51 velocity=0 time=0
note_on channel=1 note=55 velocity=80 time=16
note_on channel=1 note=43 velocity=80 time=0
note_on channel=1 note=43 velocity=0 time=32
note_on channel=1 note=55 velocity=0 time=0
note_on channel=1 note=51 velocity=80 time=16
note_on channel=1 note=55 velocity=80 time=0
note_on channel=1 note=61 velocity=80 time=0
note_on channel=1 note=61 velocity=0 time=32
note_on channel=1 note=55 velocity=0 time=0
note_on channel=1 note=51 velocity=0 time=0
note_on channel=1 note=51 velocity=80 time=16
note_on channel=1 note=39 velocity=80 time=0
note_on channel=1 note=39 velocity=0 time=32
note_on channel=1 note=51 velocity=0 time=0
note_on channel=1 note=51 velocity=80 time=16
note_on channel=1 note=55 velocity=80 time=0
note_on channel=1 note=61 velocity=80 time=0
note_on channel=1 note=61 velocity=0 time=32
note_on channel=1 note=55 velocity=0 time=0
note_on channel=1 note=51 velocity=0 time=0
note_on channel=1 note=56 velocity=80 time=16
note_on channel=1 note=44 velocity=80 time=0
note_on channel=1 note=44 velocity=0 time=32
note_on channel=1 note=56 velocity=0 time=0
note_on channel=1 note=51 velocity=80 time=16
note_on channel=1 note=56 velocity=80 time=0
note_on channel=1 note=60 velocity=80 time=0
note_on channel=1 note=60 velocity=0 time=32
note_on channel=1 note=56 velocity=0 time=0
note_on channel=1 note=51 velocity=0 time=0
note_on channel=1 note=51 velocity=80 time=16
note_on channel=1 note=39 velocity=80 time=0
note_on channel=1 note=39 velocity=0 time=32
note_on channel=1 note=51 velocity=0 time=0
note_on channel=1 note=51 velocity=80 time=16
note_on channel=1 note=56 velocity=80 time=0
note_on channel=1 note=60 velocity=80 time=0
note_on channel=1 note=60 velocity=0 time=32
note_on channel=1 note=56 velocity=0 time=0
note_on channel=1 note=51 velocity=0 time=0
note_on channel=1 note=56 velocity=80 time=16
note_on channel=1 note=44 velocity=80 time=0
note_on channel=1 note=44 velocity=0 time=16
note_on channel=1 note=56 velocity=0 time=0
note_on channel=1 note=43 velocity=80 time=8
note_on channel=1 note=55 velocity=80 time=0
note_on channel=1 note=55 velocity=0 time=16
note_on channel=1 note=43 velocity=0 time=0
note_on channel=1 note=56 velocity=80 time=8
note_on channel=1 note=44 velocity=80 time=0
note_on channel=1 note=44 velocity=0 time=16
note_on channel=1 note=56 velocity=0 time=0
note_on channel=1 note=48 velocity=80 time=8
note_on channel=1 note=60 velocity=80 time=0
note_on channel=1 note=60 velocity=0 time=16
note_on channel=1 note=48 velocity=0 time=0
note_on channel=1 note=63 velocity=80 time=8
note_on channel=1 note=51 velocity=80 time=0
note_on channel=1 note=51 velocity=0 time=32
note_on channel=1 note=63 velocity=0 time=0
note_on channel=1 note=45 velocity=80 time=16
note_on channel=1 note=57 velocity=80 time=0
note_on channel=1 note=57 velocity=0 time=32
note_on channel=1 note=45 velocity=0 time=0
note_on channel=1 note=58 velocity=80 time=16
note_on channel=1 note=46 velocity=80 time=0
note_on channel=1 note=46 velocity=0 time=32
note_on channel=1 note=58 velocity=0 time=0
note_on channel=1 note=51 velocity=80 time=16
note_on channel=1 note=55 velocity=80 time=0
note_on channel=1 note=61 velocity=80 time=0
note_on channel=1 note=61 velocity=0 time=32
note_on channel=1 note=55 velocity=0 time=0
note_on channel=1 note=51 velocity=0 time=0
note_on channel=1 note=51 velocity=80 time=16
note_on channel=1 note=39 velocity=80 time=0
note_on channel=1 note=39 velocity=0 time=16
note_on channel=1 note=51 velocity=0 time=0
note_on channel=1 note=40 velocity=80 time=8
note_on channel=1 note=52 velocity=80 time=0
note_on channel=1 note=52 velocity=0 time=16
note_on channel=1 note=40 velocity=0 time=0
note_on channel=1 note=53 velocity=80 time=8
note_on channel=1 note=41 velocity=80 time=0
note_on channel=1 note=41 velocity=0 time=16
note_on channel=1 note=53 velocity=0 time=0
note_on channel=1 note=42 velocity=80 time=8
note_on channel=1 note=54 velocity=80 time=0
note_on channel=1 note=54 velocity=0 time=16
note_on channel=1 note=42 velocity=0 time=0
note_on channel=1 note=58 velocity=80 time=8
note_on channel=1 note=46 velocity=80 time=0
note_on channel=1 note=46 velocity=0 time=32
note_on channel=1 note=58 velocity=0 time=0
note_on channel=1 note=51 velocity=80 time=16
note_on channel=1 note=55 velocity=80 time=0
note_on channel=1 note=61 velocity=80 time=0
note_on channel=1 note=61 velocity=0 time=32
note_on channel=1 note=55 velocity=0 time=0
note_on channel=1 note=51 velocity=0 time=0
note_on channel=1 note=39 velocity=80 time=16
note_on channel=1 note=39 velocity=0 time=16
note_on channel=1 note=40 velocity=80 time=8
note_on channel=1 note=52 velocity=80 time=0
note_on channel=1 note=52 velocity=0 time=16
note_on channel=1 note=40 velocity=0 time=0
note_on channel=1 note=53 velocity=80 time=8
note_on channel=1 note=41 velocity=80 time=0
note_on channel=1 note=41 velocity=0 time=16
note_on channel=1 note=53 velocity=0 time=0
note_on channel=1 note=43 velocity=80 time=8
note_on channel=1 note=55 velocity=80 time=0
note_on channel=1 note=55 velocity=0 time=16
note_on channel=1 note=43 velocity=0 time=0
note_on channel=1 note=56 velocity=80 time=8
note_on channel=1 note=44 velocity=80 time=0
note_on channel=1 note=44 velocity=0 time=32
note_on channel=1 note=56 velocity=0 time=0
note_on channel=1 note=56 velocity=80 time=16
note_on channel=1 note=60 velocity=80 time=0
note_on channel=1 note=51 velocity=80 time=0
note_on channel=1 note=51 velocity=0 time=32
note_on channel=1 note=60 velocity=0 time=0
note_on channel=1 note=56 velocity=0 time=0
note_on channel=1 note=51 velocity=80 time=16
note_on channel=1 note=39 velocity=80 time=0
note_on channel=1 note=39 velocity=0 time=32
note_on channel=1 note=51 velocity=0 time=0
note_on channel=1 note=51 velocity=80 time=16
note_on channel=1 note=56 velocity=80 time=0
note_on channel=1 note=60 velocity=80 time=0
note_on channel=1 note=60 velocity=0 time=32
note_on channel=1 note=56 velocity=0 time=0
note_on channel=1 note=51 velocity=0 time=0
note_on channel=1 note=56 velocity=80 time=16
note_on channel=1 note=44 velocity=80 time=0
note_on channel=1 note=44 velocity=0 time=16
note_on channel=1 note=56 velocity=0 time=0
note_on channel=1 note=39 velocity=80 time=8
note_on channel=1 note=51 velocity=80 time=0
note_on channel=1 note=51 velocity=0 time=16
note_on channel=1 note=39 velocity=0 time=0
note_on channel=1 note=52 velocity=80 time=8
note_on channel=1 note=40 velocity=80 time=0
note_on channel=1 note=40 velocity=0 time=16
note_on channel=1 note=52 velocity=0 time=0
note_on channel=1 note=41 velocity=80 time=8
note_on channel=1 note=53 velocity=80 time=0
note_on channel=1 note=53 velocity=0 time=16
note_on channel=1 note=41 velocity=0 time=0
note_on channel=1 note=54 velocity=80 time=8
note_on channel=1 note=42 velocity=80 time=0
note_on channel=1 note=42 velocity=0 time=16
note_on channel=1 note=54 velocity=0 time=0
note_on channel=1 note=43 velocity=80 time=8
note_on channel=1 note=55 velocity=80 time=0
note_on channel=1 note=55 velocity=0 time=16
note_on channel=1 note=43 velocity=0 time=0
note_on channel=1 note=56 velocity=80 time=8
note_on channel=1 note=44 velocity=80 time=0
note_on channel=1 note=44 velocity=0 time=16
note_on channel=1 note=56 velocity=0 time=0
note_on channel=1 note=57 velocity=80 time=8
note_on channel=1 note=45 velocity=80 time=0
note_on channel=1 note=45 velocity=0 time=16
note_on channel=1 note=57 velocity=0 time=0
note_on channel=1 note=58 velocity=80 time=8
note_on channel=1 note=46 velocity=80 time=0
note_on channel=1 note=46 velocity=0 time=32
note_on channel=1 note=58 velocity=0 time=0
note_on channel=1 note=61 velocity=80 time=16
note_on channel=1 note=55 velocity=80 time=0
note_on channel=1 note=51 velocity=80 time=0
note_on channel=1 note=51 velocity=0 time=32
note_on channel=1 note=55 velocity=0 time=0
note_on channel=1 note=61 velocity=0 time=0
note_on channel=1 note=51 velocity=80 time=16
note_on channel=1 note=39 velocity=80 time=0
note_on channel=1 note=39 velocity=0 time=32
note_on channel=1 note=51 velocity=0 time=0
note_on channel=1 note=51 velocity=80 time=16
note_on channel=1 note=55 velocity=80 time=0
note_on channel=1 note=61 velocity=80 time=0
note_on channel=1 note=61 velocity=0 time=32
note_on channel=1 note=55 velocity=0 time=0
note_on channel=1 note=51 velocity=0 time=0
note_on channel=1 note=55 velocity=80 time=16
note_on channel=1 note=43 velocity=80 time=0
note_on channel=1 note=43 velocity=0 time=32
note_on channel=1 note=55 velocity=0 time=0
note_on channel=1 note=51 velocity=80 time=16
note_on channel=1 note=55 velocity=80 time=0
note_on channel=1 note=61 velocity=80 time=0
note_on channel=1 note=61 velocity=0 time=32
note_on channel=1 note=55 velocity=0 time=0
note_on channel=1 note=51 velocity=0 time=0
note_on channel=1 note=51 velocity=80 time=16
note_on channel=1 note=39 velocity=80 time=0
note_on channel=1 note=39 velocity=0 time=32
note_on channel=1 note=51 velocity=0 time=0
note_on channel=1 note=51 velocity=80 time=16
note_on channel=1 note=55 velocity=80 time=0
note_on channel=1 note=61 velocity=80 time=0
note_on channel=1 note=61 velocity=0 time=32
note_on channel=1 note=55 velocity=0 time=0
note_on channel=1 note=51 velocity=0 time=0
note_on channel=1 note=56 velocity=80 time=16
note_on channel=1 note=44 velocity=80 time=0
note_on channel=1 note=44 velocity=0 time=32
note_on channel=1 note=56 velocity=0 time=0
note_on channel=1 note=51 velocity=80 time=16
note_on channel=1 note=56 velocity=80 time=0
note_on channel=1 note=60 velocity=80 time=0
note_on channel=1 note=60 velocity=0 time=32
note_on channel=1 note=56 velocity=0 time=0
note_on channel=1 note=51 velocity=0 time=0
note_on channel=1 note=43 velocity=80 time=16
note_on channel=1 note=55 velocity=80 time=0
note_on channel=1 note=55 velocity=0 time=32
note_on channel=1 note=43 velocity=0 time=0
note_on channel=1 note=52 velocity=80 time=16
note_on channel=1 note=58 velocity=80 time=0
note_on channel=1 note=60 velocity=80 time=0
note_on channel=1 note=60 velocity=0 time=32
note_on channel=1 note=58 velocity=0 time=0
note_on channel=1 note=52 velocity=0 time=0
note_on channel=1 note=53 velocity=80 time=16
note_on channel=1 note=41 velocity=80 time=0
note_on channel=1 note=41 velocity=0 time=32
note_on channel=1 note=53 velocity=0 time=0
note_on channel=1 note=53 velocity=80 time=16
note_on channel=1 note=56 velocity=80 time=0
note_on channel=1 note=60 velocity=80 time=0
note_on channel=1 note=60 velocity=0 time=32
note_on channel=1 note=56 velocity=0 time=0
note_on channel=1 note=53 velocity=0 time=0
note_on channel=1 note=53 velocity=80 time=16
note_on channel=1 note=41 velocity=80 time=0
note_on channel=1 note=41 velocity=0 time=32
note_on channel=1 note=53 velocity=0 time=0
note_on channel=1 note=51 velocity=80 time=16
note_on channel=1 note=39 velocity=80 time=0
note_on channel=1 note=39 velocity=0 time=32
note_on channel=1 note=51 velocity=0 time=0
note_on channel=1 note=49 velocity=80 time=16
note_on channel=1 note=37 velocity=80 time=0
note_on channel=1 note=37 velocity=0 time=32
note_on channel=1 note=49 velocity=0 time=0
note_on channel=1 note=53 velocity=80 time=16
note_on channel=1 note=56 velocity=80 time=0
note_on channel=1 note=61 velocity=80 time=0
note_on channel=1 note=61 velocity=0 time=32
note_on channel=1 note=56 velocity=0 time=0
note_on channel=1 note=53 velocity=0 time=0
note_on channel=1 note=53 velocity=80 time=16
note_on channel=1 note=41 velocity=80 time=0
note_on channel=1 note=41 velocity=0 time=32
note_on channel=1 note=53 velocity=0 time=0
note_on channel=1 note=40 velocity=80 time=16
note_on channel=1 note=52 velocity=80 time=0
note_on channel=1 note=52 velocity=0 time=32
note_on channel=1 note=40 velocity=0 time=0
note_on channel=1 note=51 velocity=80 time=16
note_on channel=1 note=39 velocity=80 time=0
note_on channel=1 note=39 velocity=0 time=32
note_on channel=1 note=51 velocity=0 time=0
note_on channel=1 note=51 velocity=80 time=16
note_on channel=1 note=56 velocity=80 time=0
note_on channel=1 note=60 velocity=80 time=0
note_on channel=1 note=60 velocity=0 time=32
note_on channel=1 note=56 velocity=0 time=0
note_on channel=1 note=51 velocity=0 time=0
note_on channel=1 note=60 velocity=80 time=16
note_on channel=1 note=48 velocity=80 time=0
note_on channel=1 note=48 velocity=0 time=32
note_on channel=1 note=60 velocity=0 time=0
note_on channel=1 note=45 velocity=80 time=16
note_on channel=1 note=57 velocity=80 time=0
note_on channel=1 note=57 velocity=0 time=32
note_on channel=1 note=45 velocity=0 time=0
note_on channel=1 note=58 velocity=80 time=16
note_on channel=1 note=46 velocity=80 time=0
note_on channel=1 note=46 velocity=0 time=32
note_on channel=1 note=58 velocity=0 time=0
note_on channel=1 note=51 velocity=80 time=16
note_on channel=1 note=55 velocity=80 time=0
note_on channel=1 note=61 velocity=80 time=0
note_on channel=1 note=61 velocity=0 time=32
note_on channel=1 note=55 velocity=0 time=0
note_on channel=1 note=51 velocity=0 time=0
note_on channel=1 note=51 velocity=80 time=16
note_on channel=1 note=39 velocity=80 time=0
note_on channel=1 note=39 velocity=0 time=32
note_on channel=1 note=51 velocity=0 time=0
note_on channel=1 note=51 velocity=80 time=16
note_on channel=1 note=55 velocity=80 time=0
note_on channel=1 note=61 velocity=80 time=0
note_on channel=1 note=61 velocity=0 time=32
note_on channel=1 note=55 velocity=0 time=0
note_on channel=1 note=51 velocity=0 time=0
note_on channel=1 note=56 velocity=80 time=16
note_on channel=1 note=60 velocity=80 time=0
note_on channel=1 note=60 velocity=0 time=32
note_on channel=1 note=56 velocity=0 time=0
note_on channel=1 note=61 velocity=80 time=56
note_on channel=1 note=61 velocity=0 time=6
note_on channel=1 note=63 velocity=80 time=2
note_on channel=1 note=63 velocity=0 time=32
note_on channel=1 note=51 velocity=80 time=16
note_on channel=1 note=39 velocity=80 time=0
note_on channel=1 note=39 velocity=0 time=32
note_on channel=1 note=51 velocity=0 time=0
note_on channel=1 note=56 velocity=80 time=16
note_on channel=1 note=44 velocity=80 time=0
note_on channel=1 note=44 velocity=0 time=32
note_on channel=1 note=56 velocity=0 time=0
note_on channel=1 note=60 velocity=80 time=16
note_on channel=1 note=56 velocity=80 time=0
note_on channel=1 note=51 velocity=80 time=0
note_on channel=1 note=51 velocity=0 time=32
note_on channel=1 note=56 velocity=0 time=0
note_on channel=1 note=60 velocity=0 time=0
note_on channel=1 note=51 velocity=80 time=16
note_on channel=1 note=39 velocity=80 time=0
note_on channel=1 note=39 velocity=0 time=32
note_on channel=1 note=51 velocity=0 time=0
note_on channel=1 note=60 velocity=80 time=16
note_on channel=1 note=56 velocity=80 time=0
note_on channel=1 note=51 velocity=80 time=0
note_on channel=1 note=51 velocity=0 time=32
note_on channel=1 note=56 velocity=0 time=0
note_on channel=1 note=60 velocity=0 time=0
note_on channel=1 note=53 velocity=80 time=16
note_on channel=1 note=41 velocity=80 time=0
note_on channel=1 note=41 velocity=0 time=32
note_on channel=1 note=53 velocity=0 time=0
note_on channel=1 note=52 velocity=80 time=16
note_on channel=1 note=40 velocity=80 time=0
note_on channel=1 note=40 velocity=0 time=32
note_on channel=1 note=52 velocity=0 time=0
note_on channel=1 note=51 velocity=80 time=16
note_on channel=1 note=39 velocity=80 time=0
note_on channel=1 note=39 velocity=0 time=32
note_on channel=1 note=51 velocity=0 time=0
note_on channel=1 note=51 velocity=80 time=16
note_on channel=1 note=55 velocity=80 time=0
note_on channel=1 note=61 velocity=80 time=0
note_on channel=1 note=61 velocity=0 time=32
note_on channel=1 note=55 velocity=0 time=0
note_on channel=1 note=51 velocity=0 time=0
note_on channel=1 note=56 velocity=80 time=16
note_on channel=1 note=44 velocity=80 time=0
note_on channel=1 note=44 velocity=0 time=32
note_on channel=1 note=56 velocity=0 time=0
note_on channel=1 note=60 velocity=80 time=16
note_on channel=1 note=56 velocity=80 time=0
note_on channel=1 note=51 velocity=80 time=0
note_on channel=1 note=51 velocity=0 time=32
note_on channel=1 note=56 velocity=0 time=0
note_on channel=1 note=60 velocity=0 time=0
note_on channel=1 note=51 velocity=80 time=16
note_on channel=1 note=39 velocity=80 time=0
note_on channel=1 note=39 velocity=0 time=32
note_on channel=1 note=51 velocity=0 time=0
note_on channel=1 note=60 velocity=80 time=16
note_on channel=1 note=56 velocity=80 time=0
note_on channel=1 note=51 velocity=80 time=0
note_on channel=1 note=51 velocity=0 time=32
note_on channel=1 note=56 velocity=0 time=0
note_on channel=1 note=60 velocity=0 time=0
note_on channel=1 note=53 velocity=80 time=16
note_on channel=1 note=41 velocity=80 time=0
note_on channel=1 note=41 velocity=0 time=32
note_on channel=1 note=53 velocity=0 time=0
note_on channel=1 note=52 velocity=80 time=16
note_on channel=1 note=40 velocity=80 time=0
note_on channel=1 note=40 velocity=0 time=32
note_on channel=1 note=52 velocity=0 time=0
note_on channel=1 note=51 velocity=80 time=16
note_on channel=1 note=39 velocity=80 time=0
note_on channel=1 note=39 velocity=0 time=32
note_on channel=1 note=51 velocity=0 time=0
note_on channel=1 note=58 velocity=80 time=16
note_on channel=1 note=46 velocity=80 time=0
note_on channel=1 note=46 velocity=0 time=16
note_on channel=1 note=58 velocity=0 time=0
note_on channel=1 note=60 velocity=80 time=8
note_on channel=1 note=48 velocity=80 time=0
note_on channel=1 note=48 velocity=0 time=16
note_on channel=1 note=60 velocity=0 time=0
note_on channel=1 note=53 velocity=80 time=8
note_on channel=1 note=41 velocity=80 time=0
note_on channel=1 note=41 velocity=0 time=32
note_on channel=1 note=53 velocity=0 time=0
note_on channel=1 note=58 velocity=80 time=112
note_on channel=1 note=46 velocity=80 time=0
note_on channel=1 note=46 velocity=0 time=16
note_on channel=1 note=58 velocity=0 time=0
note_on channel=1 note=60 velocity=80 time=8
note_on channel=1 note=48 velocity=80 time=0
note_on channel=1 note=48 velocity=0 time=16
note_on channel=1 note=60 velocity=0 time=0
note_on channel=1 note=41 velocity=80 time=8
note_on channel=1 note=53 velocity=80 time=0
note_on channel=1 note=53 velocity=0 time=32
note_on channel=1 note=41 velocity=0 time=0
note_on channel=1 note=61 velocity=80 time=16
note_on channel=1 note=61 velocity=0 time=32
note_on channel=1 note=60 velocity=80 time=16
note_on channel=1 note=60 velocity=0 time=32
note_on channel=1 note=41 velocity=80 time=64
note_on channel=1 note=29 velocity=80 time=0
note_on channel=1 note=29 velocity=0 time=16
note_on channel=1 note=41 velocity=0 time=0
note_on channel=1 note=43 velocity=80 time=8
note_on channel=1 note=31 velocity=80 time=0
note_on channel=1 note=31 velocity=0 time=16
note_on channel=1 note=43 velocity=0 time=0
note_on channel=1 note=44 velocity=80 time=8
note_on channel=1 note=32 velocity=80 time=0
note_on channel=1 note=32 velocity=0 time=16
note_on channel=1 note=44 velocity=0 time=0
note_on channel=1 note=48 velocity=80 time=8
note_on channel=1 note=36 velocity=80 time=0
note_on channel=1 note=36 velocity=0 time=16
note_on channel=1 note=48 velocity=0 time=0
note_on channel=1 note=53 velocity=80 time=8
note_on channel=1 note=41 velocity=80 time=0
note_on channel=1 note=41 velocity=0 time=16
note_on channel=1 note=53 velocity=0 time=0
note_on channel=1 note=55 velocity=80 time=8
note_on channel=1 note=43 velocity=80 time=0
note_on channel=1 note=43 velocity=0 time=16
note_on channel=1 note=55 velocity=0 time=0
note_on channel=1 note=56 velocity=80 time=8
note_on channel=1 note=44 velocity=80 time=0
note_on channel=1 note=44 velocity=0 time=16
note_on channel=1 note=56 velocity=0 time=0
note_on channel=1 note=60 velocity=80 time=8
note_on channel=1 note=48 velocity=80 time=0
note_on channel=1 note=48 velocity=0 time=16
note_on channel=1 note=60 velocity=0 time=0
note_on channel=1 note=53 velocity=80 time=8
note_on channel=1 note=53 velocity=0 time=16
note_on channel=1 note=55 velocity=80 time=8
note_on channel=1 note=55 velocity=0 time=16
note_on channel=1 note=56 velocity=80 time=8
note_on channel=1 note=56 velocity=0 time=16
note_on channel=1 note=60 velocity=80 time=8
note_on channel=1 note=60 velocity=0 time=16
note_on channel=1 note=50 velocity=80 time=872
note_on channel=1 note=53 velocity=80 time=0
note_on channel=1 note=56 velocity=80 time=0
note_on channel=1 note=59 velocity=80 time=0
note_on channel=1 note=59 velocity=0 time=32
note_on channel=1 note=50 velocity=0 time=0
note_on channel=1 note=53 velocity=0 time=0
note_on channel=1 note=56 velocity=0 time=0
note_on channel=1 note=50 velocity=80 time=16
note_on channel=1 note=53 velocity=80 time=0
note_on channel=1 note=56 velocity=80 time=0
note_on channel=1 note=59 velocity=80 time=0
note_on channel=1 note=59 velocity=0 time=32
note_on channel=1 note=50 velocity=0 time=0
note_on channel=1 note=53 velocity=0 time=0
note_on channel=1 note=56 velocity=0 time=0
note_on channel=1 note=50 velocity=80 time=16
note_on channel=1 note=53 velocity=80 time=0
note_on channel=1 note=56 velocity=80 time=0
note_on channel=1 note=59 velocity=80 time=0
note_on channel=1 note=59 velocity=0 time=32
note_on channel=1 note=50 velocity=0 time=0
note_on channel=1 note=53 velocity=0 time=0
note_on channel=1 note=56 velocity=0 time=0
note_on channel=1 note=50 velocity=80 time=16
note_on channel=1 note=53 velocity=80 time=0
note_on channel=1 note=56 velocity=80 time=0
note_on channel=1 note=59 velocity=80 time=0
note_on channel=1 note=59 velocity=0 time=32
note_on channel=1 note=50 velocity=0 time=0
note_on channel=1 note=53 velocity=0 time=0
note_on channel=1 note=56 velocity=0 time=0
note_on channel=1 note=51 velocity=80 time=16
note_on channel=1 note=56 velocity=80 time=0
note_on channel=1 note=60 velocity=80 time=0
note_on channel=1 note=60 velocity=0 time=32
note_on channel=1 note=56 velocity=0 time=0
note_on channel=1 note=51 velocity=0 time=0
note_on channel=1 note=60 velocity=80 time=16
note_on channel=1 note=56 velocity=80 time=0
note_on channel=1 note=51 velocity=80 time=0
note_on channel=1 note=51 velocity=0 time=32
note_on channel=1 note=56 velocity=0 time=0
note_on channel=1 note=60 velocity=0 time=0
note_on channel=1 note=54 velocity=80 time=16
note_on channel=1 note=56 velocity=80 time=0
note_on channel=1 note=60 velocity=80 time=0
note_on channel=1 note=60 velocity=0 time=32
note_on channel=1 note=56 velocity=0 time=0
note_on channel=1 note=54 velocity=0 time=0
note_on channel=1 note=60 velocity=80 time=16
note_on channel=1 note=56 velocity=80 time=0
note_on channel=1 note=54 velocity=80 time=0
note_on channel=1 note=54 velocity=0 time=32
note_on channel=1 note=56 velocity=0 time=0
note_on channel=1 note=60 velocity=0 time=0
note_on channel=1 note=56 velocity=80 time=16
note_on channel=1 note=53 velocity=80 time=0
note_on channel=1 note=61 velocity=80 time=0
note_on channel=1 note=61 velocity=0 time=32
note_on channel=1 note=53 velocity=0 time=0
note_on channel=1 note=56 velocity=0 time=0
note_on channel=1 note=61 velocity=80 time=16
note_on channel=1 note=56 velocity=80 time=0
note_on channel=1 note=52 velocity=80 time=0
note_on channel=1 note=52 velocity=0 time=32
note_on channel=1 note=56 velocity=0 time=0
note_on channel=1 note=61 velocity=0 time=0
note_on channel=1 note=60 velocity=80 time=16
note_on channel=1 note=56 velocity=80 time=0
note_on channel=1 note=51 velocity=80 time=0
note_on channel=1 note=51 velocity=0 time=32
note_on channel=1 note=56 velocity=0 time=0
note_on channel=1 note=60 velocity=0 time=0
note_on channel=1 note=51 velocity=80 time=16
note_on channel=1 note=56 velocity=80 time=0
note_on channel=1 note=60 velocity=80 time=0
note_on channel=1 note=60 velocity=0 time=32
note_on channel=1 note=56 velocity=0 time=0
note_on channel=1 note=51 velocity=0 time=0
note_on channel=1 note=53 velocity=80 time=16
note_on channel=1 note=41 velocity=80 time=0
note_on channel=1 note=41 velocity=0 time=32
note_on channel=1 note=53 velocity=0 time=0
note_on channel=1 note=39 velocity=80 time=16
note_on channel=1 note=51 velocity=80 time=0
note_on channel=1 note=51 velocity=0 time=32
note_on channel=1 note=39 velocity=0 time=0
note_on channel=1 note=56 velocity=80 time=16
note_on channel=1 note=44 velocity=80 time=0
note_on channel=1 note=44 velocity=0 time=32
note_on channel=1 note=56 velocity=0 time=0
note_on channel=1 note=49 velocity=80 time=64
note_on channel=1 note=37 velocity=80 time=0
note_on channel=1 note=37 velocity=0 time=32
note_on channel=1 note=49 velocity=0 time=0
note_on channel=1 note=53 velocity=80 time=16
note_on channel=1 note=56 velocity=80 time=0
note_on channel=1 note=61 velocity=80 time=0
note_on channel=1 note=61 velocity=0 time=32
note_on channel=1 note=56 velocity=0 time=0
note_on channel=1 note=53 velocity=0 time=0
note_on channel=1 note=54 velocity=80 time=16
note_on channel=1 note=42 velocity=80 time=0
note_on channel=1 note=42 velocity=0 time=32
note_on channel=1 note=54 velocity=0 time=0
note_on channel=1 note=54 velocity=80 time=16
note_on channel=1 note=58 velocity=80 time=0
note_on channel=1 note=61 velocity=80 time=0
note_on channel=1 note=61 velocity=0 time=32
note_on channel=1 note=58 velocity=0 time=0
note_on channel=1 note=54 velocity=0 time=0
note_on channel=1 note=49 velocity=80 time=16
note_on channel=1 note=37 velocity=80 time=0
note_on channel=1 note=37 velocity=0 time=32
note_on channel=1 note=49 velocity=0 time=0
note_on channel=1 note=53 velocity=80 time=16
note_on channel=1 note=56 velocity=80 time=0
note_on channel=1 note=61 velocity=80 time=0
note_on channel=1 note=61 velocity=0 time=32
note_on channel=1 note=56 velocity=0 time=0
note_on channel=1 note=53 velocity=0 time=0
note_on channel=1 note=53 velocity=80 time=16
note_on channel=1 note=41 velocity=80 time=0
note_on channel=1 note=41 velocity=0 time=32
note_on channel=1 note=53 velocity=0 time=0
note_on channel=1 note=53 velocity=80 time=16
note_on channel=1 note=56 velocity=80 time=0
note_on channel=1 note=61 velocity=80 time=0
note_on channel=1 note=61 velocity=0 time=32
note_on channel=1 note=56 velocity=0 time=0
note_on channel=1 note=53 velocity=0 time=0
note_on channel=1 note=44 velocity=80 time=16
note_on channel=1 note=32 velocity=80 time=0
note_on channel=1 note=32 velocity=0 time=32
note_on channel=1 note=44 velocity=0 time=0
note_on channel=1 note=54 velocity=80 time=16
note_on channel=1 note=56 velocity=80 time=0
note_on channel=1 note=60 velocity=80 time=0
note_on channel=1 note=60 velocity=0 time=32
note_on channel=1 note=56 velocity=0 time=0
note_on channel=1 note=54 velocity=0 time=0
note_on channel=1 note=48 velocity=80 time=16
note_on channel=1 note=36 velocity=80 time=0
note_on channel=1 note=36 velocity=0 time=32
note_on channel=1 note=48 velocity=0 time=0
note_on channel=1 note=54 velocity=80 time=16
note_on channel=1 note=56 velocity=80 time=0
note_on channel=1 note=60 velocity=80 time=0
note_on channel=1 note=60 velocity=0 time=32
note_on channel=1 note=56 velocity=0 time=0
note_on channel=1 note=54 velocity=0 time=0
note_on channel=1 note=49 velocity=80 time=16
note_on channel=1 note=37 velocity=80 time=0
note_on channel=1 note=37 velocity=0 time=32
note_on channel=1 note=49 velocity=0 time=0
note_on channel=1 note=53 velocity=80 time=16
note_on channel=1 note=56 velocity=80 time=0
note_on channel=1 note=61 velocity=80 time=0
note_on channel=1 note=61 velocity=0 time=32
note_on channel=1 note=56 velocity=0 time=0
note_on channel=1 note=53 velocity=0 time=0
note_on channel=1 note=49 velocity=80 time=16
note_on channel=1 note=37 velocity=80 time=0
note_on channel=1 note=37 velocity=0 time=32
note_on channel=1 note=49 velocity=0 time=0
note_on channel=1 note=46 velocity=80 time=16
note_on channel=1 note=34 velocity=80 time=0
note_on channel=1 note=34 velocity=0 time=32
note_on channel=1 note=46 velocity=0 time=0
note_on channel=1 note=48 velocity=80 time=16
note_on channel=1 note=36 velocity=80 time=0
note_on channel=1 note=36 velocity=0 time=32
note_on channel=1 note=48 velocity=0 time=0
note_on channel=1 note=53 velocity=80 time=16
note_on channel=1 note=56 velocity=80 time=0
note_on channel=1 note=60 velocity=80 time=0
note_on channel=1 note=60 velocity=0 time=32
note_on channel=1 note=56 velocity=0 time=0
note_on channel=1 note=53 velocity=0 time=0
note_on channel=1 note=55 velocity=80 time=16
note_on channel=1 note=43 velocity=80 time=0
note_on channel=1 note=43 velocity=0 time=32
note_on channel=1 note=55 velocity=0 time=0
note_on channel=1 note=48 velocity=80 time=16
note_on channel=1 note=36 velocity=80 time=0
note_on channel=1 note=36 velocity=0 time=32
note_on channel=1 note=48 velocity=0 time=0
note_on channel=1 note=53 velocity=80 time=16
note_on channel=1 note=41 velocity=80 time=0
note_on channel=1 note=41 velocity=0 time=32
note_on channel=1 note=53 velocity=0 time=0
note_on channel=1 note=51 velocity=80 time=16
note_on channel=1 note=63 velocity=80 time=0
note_on channel=1 note=63 velocity=0 time=32
note_on channel=1 note=51 velocity=0 time=0
note_on channel=1 note=62 velocity=80 time=16
note_on channel=1 note=50 velocity=80 time=0
note_on channel=1 note=50 velocity=0 time=32
note_on channel=1 note=62 velocity=0 time=0
note_on channel=1 note=49 velocity=80 time=16
note_on channel=1 note=61 velocity=80 time=0
note_on channel=1 note=61 velocity=0 time=32
note_on channel=1 note=49 velocity=0 time=0
note_on channel=1 note=60 velocity=80 time=16
note_on channel=1 note=48 velocity=80 time=0
note_on channel=1 note=48 velocity=0 time=32
note_on channel=1 note=60 velocity=0 time=0
note_on channel=1 note=47 velocity=80 time=16
note_on channel=1 note=59 velocity=80 time=0
note_on channel=1 note=59 velocity=0 time=32
note_on channel=1 note=47 velocity=0 time=0
note_on channel=1 note=58 velocity=80 time=16
note_on channel=1 note=46 velocity=80 time=0
note_on channel=1 note=46 velocity=0 time=32
note_on channel=1 note=58 velocity=0 time=0
note_on channel=1 note=45 velocity=80 time=16
note_on channel=1 note=57 velocity=80 time=0
note_on channel=1 note=57 velocity=0 time=32
note_on channel=1 note=45 velocity=0 time=0
note_on channel=1 note=56 velocity=80 time=16
note_on channel=1 note=44 velocity=80 time=0
note_on channel=1 note=44 velocity=0 time=32
note_on channel=1 note=56 velocity=0 time=0
note_on channel=1 note=42 velocity=80 time=16
note_on channel=1 note=54 velocity=80 time=0
note_on channel=1 note=54 velocity=0 time=32
note_on channel=1 note=42 velocity=0 time=0
note_on channel=1 note=53 velocity=80 time=16
note_on channel=1 note=41 velocity=80 time=0
note_on channel=1 note=41 velocity=0 time=32
note_on channel=1 note=53 velocity=0 time=0
note_on channel=1 note=39 velocity=80 time=16
note_on channel=1 note=51 velocity=80 time=0
note_on channel=1 note=51 velocity=0 time=32
note_on channel=1 note=39 velocity=0 time=0
note_on channel=1 note=49 velocity=80 time=16
note_on channel=1 note=37 velocity=80 time=0
note_on channel=1 note=37 velocity=0 time=32
note_on channel=1 note=49 velocity=0 time=0
note_on channel=1 note=53 velocity=80 time=16
note_on channel=1 note=56 velocity=80 time=0
note_on channel=1 note=61 velocity=80 time=0
note_on channel=1 note=61 velocity=0 time=32
note_on channel=1 note=56 velocity=0 time=0
note_on channel=1 note=53 velocity=0 time=0
note_on channel=1 note=54 velocity=80 time=16
note_on channel=1 note=42 velocity=80 time=0
note_on channel=1 note=42 velocity=0 time=32
note_on channel=1 note=54 velocity=0 time=0
note_on channel=1 note=54 velocity=80 time=16
note_on channel=1 note=58 velocity=80 time=0
note_on channel=1 note=61 velocity=80 time=0
note_on channel=1 note=61 velocity=0 time=32
note_on channel=1 note=58 velocity=0 time=0
note_on channel=1 note=54 velocity=0 time=0
note_on channel=1 note=49 velocity=80 time=16
note_on channel=1 note=37 velocity=80 time=0
note_on channel=1 note=37 velocity=0 time=32
note_on channel=1 note=49 velocity=0 time=0
note_on channel=1 note=53 velocity=80 time=16
note_on channel=1 note=56 velocity=80 time=0
note_on channel=1 note=61 velocity=80 time=0
note_on channel=1 note=61 velocity=0 time=32
note_on channel=1 note=56 velocity=0 time=0
note_on channel=1 note=53 velocity=0 time=0
note_on channel=1 note=53 velocity=80 time=16
note_on channel=1 note=41 velocity=80 time=0
note_on channel=1 note=41 velocity=0 time=32
note_on channel=1 note=53 velocity=0 time=0
note_on channel=1 note=53 velocity=80 time=16
note_on channel=1 note=56 velocity=80 time=0
note_on channel=1 note=61 velocity=80 time=0
note_on channel=1 note=61 velocity=0 time=32
note_on channel=1 note=56 velocity=0 time=0
note_on channel=1 note=53 velocity=0 time=0
note_on channel=1 note=53 velocity=80 time=16
note_on channel=1 note=41 velocity=80 time=0
note_on channel=1 note=41 velocity=0 time=32
note_on channel=1 note=53 velocity=0 time=0
note_on channel=1 note=53 velocity=80 time=16
note_on channel=1 note=57 velocity=80 time=0
note_on channel=1 note=60 velocity=80 time=0
note_on channel=1 note=63 velocity=80 time=0
note_on channel=1 note=63 velocity=0 time=32
note_on channel=1 note=53 velocity=0 time=0
note_on channel=1 note=57 velocity=0 time=0
note_on channel=1 note=60 velocity=0 time=0
note_on channel=1 note=60 velocity=80 time=16
note_on channel=1 note=48 velocity=80 time=0
note_on channel=1 note=48 velocity=0 time=32
note_on channel=1 note=60 velocity=0 time=0
note_on channel=1 note=53 velocity=80 time=16
note_on channel=1 note=57 velocity=80 time=0
note_on channel=1 note=60 velocity=80 time=0
note_on channel=1 note=63 velocity=80 time=0
note_on channel=1 note=63 velocity=0 time=32
note_on channel=1 note=53 velocity=0 time=0
note_on channel=1 note=57 velocity=0 time=0
note_on channel=1 note=60 velocity=0 time=0
note_on channel=1 note=58 velocity=80 time=16
note_on channel=1 note=46 velocity=80 time=0
note_on channel=1 note=46 velocity=0 time=32
note_on channel=1 note=58 velocity=0 time=0
note_on channel=1 note=53 velocity=80 time=16
note_on channel=1 note=58 velocity=80 time=0
note_on channel=1 note=61 velocity=80 time=0
note_on channel=1 note=61 velocity=0 time=32
note_on channel=1 note=58 velocity=0 time=0
note_on channel=1 note=53 velocity=0 time=0
note_on channel=1 note=58 velocity=80 time=16
note_on channel=1 note=46 velocity=80 time=0
note_on channel=1 note=46 velocity=0 time=32
note_on channel=1 note=58 velocity=0 time=0
note_on channel=1 note=44 velocity=80 time=16
note_on channel=1 note=56 velocity=80 time=0
note_on channel=1 note=56 velocity=0 time=32
note_on channel=1 note=44 velocity=0 time=0
note_on channel=1 note=54 velocity=80 time=16
note_on channel=1 note=42 velocity=80 time=0
note_on channel=1 note=42 velocity=0 time=32
note_on channel=1 note=54 velocity=0 time=0
note_on channel=1 note=58 velocity=80 time=16
note_on channel=1 note=61 velocity=80 time=0
note_on channel=1 note=66 velocity=80 time=0
note_on channel=1 note=66 velocity=0 time=32
note_on channel=1 note=61 velocity=0 time=0
note_on channel=1 note=58 velocity=0 time=0
note_on channel=1 note=58 velocity=80 time=16
note_on channel=1 note=46 velocity=80 time=0
note_on channel=1 note=46 velocity=0 time=32
note_on channel=1 note=58 velocity=0 time=0
note_on channel=1 note=57 velocity=80 time=16
note_on channel=1 note=45 velocity=80 time=0
note_on channel=1 note=45 velocity=0 time=32
note_on channel=1 note=57 velocity=0 time=0
note_on channel=1 note=56 velocity=80 time=16
note_on channel=1 note=44 velocity=80 time=0
note_on channel=1 note=44 velocity=0 time=32
note_on channel=1 note=56 velocity=0 time=0
note_on channel=1 note=56 velocity=80 time=16
note_on channel=1 note=61 velocity=80 time=0
note_on channel=1 note=65 velocity=80 time=0
note_on channel=1 note=65 velocity=0 time=32
note_on channel=1 note=61 velocity=0 time=0
note_on channel=1 note=56 velocity=0 time=0
note_on channel=1 note=53 velocity=80 time=16
note_on channel=1 note=41 velocity=80 time=0
note_on channel=1 note=41 velocity=0 time=32
note_on channel=1 note=53 velocity=0 time=0
note_on channel=1 note=44 velocity=80 time=16
note_on channel=1 note=56 velocity=80 time=0
note_on channel=1 note=56 velocity=0 time=32
note_on channel=1 note=44 velocity=0 time=0
note_on channel=1 note=44 velocity=80 time=16
note_on channel=1 note=32 velocity=80 time=0
note_on channel=1 note=32 velocity=0 time=32
note_on channel=1 note=44 velocity=0 time=0
note_on channel=1 note=54 velocity=80 time=16
note_on channel=1 note=56 velocity=80 time=0
note_on channel=1 note=60 velocity=80 time=0
note_on channel=1 note=60 velocity=0 time=32
note_on channel=1 note=56 velocity=0 time=0
note_on channel=1 note=54 velocity=0 time=0
note_on channel=1 note=44 velocity=80 time=16
note_on channel=1 note=32 velocity=80 time=0
note_on channel=1 note=32 velocity=0 time=32
note_on channel=1 note=44 velocity=0 time=0
note_on channel=1 note=54 velocity=80 time=16
note_on channel=1 note=56 velocity=80 time=0
note_on channel=1 note=60 velocity=80 time=0
note_on channel=1 note=60 velocity=0 time=32
note_on channel=1 note=56 velocity=0 time=0
note_on channel=1 note=54 velocity=0 time=0
note_on channel=1 note=49 velocity=80 time=16
note_on channel=1 note=37 velocity=80 time=0
note_on channel=1 note=37 velocity=0 time=32
note_on channel=1 note=49 velocity=0 time=0
note_on channel=1 note=56 velocity=80 time=16
note_on channel=1 note=44 velocity=80 time=0
note_on channel=1 note=44 velocity=0 time=16
note_on channel=1 note=56 velocity=0 time=0
note_on channel=1 note=58 velocity=80 time=8
note_on channel=1 note=46 velocity=80 time=0
note_on channel=1 note=46 velocity=0 time=32
note_on channel=1 note=58 velocity=0 time=0
note_on channel=1 note=56 velocity=80 time=16
note_on channel=1 note=44 velocity=80 time=0
note_on channel=1 note=44 velocity=0 time=16
note_on channel=1 note=56 velocity=0 time=0
note_on channel=1 note=42 velocity=80 time=8
note_on channel=1 note=54 velocity=80 time=0
note_on channel=1 note=54 velocity=0 time=16
note_on channel=1 note=42 velocity=0 time=0
note_on channel=1 note=51 velocity=80 time=8
note_on channel=1 note=39 velocity=80 time=0
note_on channel=1 note=39 velocity=0 time=16
note_on channel=1 note=51 velocity=0 time=0
note_on channel=1 note=49 velocity=80 time=8
note_on channel=1 note=37 velocity=80 time=0
note_on channel=1 note=37 velocity=0 time=32
note_on channel=1 note=49 velocity=0 time=0
note_on channel=1 note=53 velocity=80 time=16
note_on channel=1 note=56 velocity=80 time=0
note_on channel=1 note=61 velocity=80 time=0
note_on channel=1 note=61 velocity=0 time=32
note_on channel=1 note=56 velocity=0 time=0
note_on channel=1 note=53 velocity=0 time=0
note_on channel=1 note=54 velocity=80 time=16
note_on channel=1 note=42 velocity=80 time=0
note_on channel=1 note=42 velocity=0 time=32
note_on channel=1 note=54 velocity=0 time=0
note_on channel=1 note=54 velocity=80 time=16
note_on channel=1 note=58 velocity=80 time=0
note_on channel=1 note=61 velocity=80 time=0
note_on channel=1 note=61 velocity=0 time=32
note_on channel=1 note=58 velocity=0 time=0
note_on channel=1 note=54 velocity=0 time=0
note_on channel=1 note=49 velocity=80 time=16
note_on channel=1 note=37 velocity=80 time=0
note_on channel=1 note=37 velocity=0 time=32
note_on channel=1 note=49 velocity=0 time=0
note_on channel=1 note=53 velocity=80 time=16
note_on channel=1 note=56 velocity=80 time=0
note_on channel=1 note=61 velocity=80 time=0
note_on channel=1 note=61 velocity=0 time=32
note_on channel=1 note=56 velocity=0 time=0
note_on channel=1 note=53 velocity=0 time=0
note_on channel=1 note=53 velocity=80 time=16
note_on channel=1 note=41 velocity=80 time=0
note_on channel=1 note=41 velocity=0 time=32
note_on channel=1 note=53 velocity=0 time=0
note_on channel=1 note=53 velocity=80 time=16
note_on channel=1 note=56 velocity=80 time=0
note_on channel=1 note=61 velocity=80 time=0
note_on channel=1 note=61 velocity=0 time=32
note_on channel=1 note=56 velocity=0 time=0
note_on channel=1 note=53 velocity=0 time=0
note_on channel=1 note=44 velocity=80 time=16
note_on channel=1 note=32 velocity=80 time=0
note_on channel=1 note=32 velocity=0 time=32
note_on channel=1 note=44 velocity=0 time=0
note_on channel=1 note=54 velocity=80 time=16
note_on channel=1 note=56 velocity=80 time=0
note_on channel=1 note=60 velocity=80 time=0
note_on channel=1 note=60 velocity=0 time=32
note_on channel=1 note=56 velocity=0 time=0
note_on channel=1 note=54 velocity=0 time=0
note_on channel=1 note=48 velocity=80 time=16
note_on channel=1 note=36 velocity=80 time=0
note_on channel=1 note=36 velocity=0 time=32
note_on channel=1 note=48 velocity=0 time=0
note_on channel=1 note=54 velocity=80 time=16
note_on channel=1 note=56 velocity=80 time=0
note_on channel=1 note=60 velocity=80 time=0
note_on channel=1 note=60 velocity=0 time=32
note_on channel=1 note=56 velocity=0 time=0
note_on channel=1 note=54 velocity=0 time=0
note_on channel=1 note=49 velocity=80 time=16
note_on channel=1 note=37 velocity=80 time=0
note_on channel=1 note=37 velocity=0 time=32
note_on channel=1 note=49 velocity=0 time=0
note_on channel=1 note=53 velocity=80 time=16
note_on channel=1 note=56 velocity=80 time=0
note_on channel=1 note=61 velocity=80 time=0
note_on channel=1 note=61 velocity=0 time=32
note_on channel=1 note=56 velocity=0 time=0
note_on channel=1 note=53 velocity=0 time=0
note_on channel=1 note=49 velocity=80 time=16
note_on channel=1 note=37 velocity=80 time=0
note_on channel=1 note=37 velocity=0 time=32
note_on channel=1 note=49 velocity=0 time=0
note_on channel=1 note=46 velocity=80 time=16
note_on channel=1 note=34 velocity=80 time=0
note_on channel=1 note=34 velocity=0 time=32
note_on channel=1 note=46 velocity=0 time=0
note_on channel=1 note=48 velocity=80 time=16
note_on channel=1 note=36 velocity=80 time=0
note_on channel=1 note=36 velocity=0 time=32
note_on channel=1 note=48 velocity=0 time=0
note_on channel=1 note=53 velocity=80 time=16
note_on channel=1 note=56 velocity=80 time=0
note_on channel=1 note=60 velocity=80 time=0
note_on channel=1 note=60 velocity=0 time=32
note_on channel=1 note=56 velocity=0 time=0
note_on channel=1 note=53 velocity=0 time=0
note_on channel=1 note=55 velocity=80 time=16
note_on channel=1 note=43 velocity=80 time=0
note_on channel=1 note=43 velocity=0 time=32
note_on channel=1 note=55 velocity=0 time=0
note_on channel=1 note=48 velocity=80 time=16
note_on channel=1 note=36 velocity=80 time=0
note_on channel=1 note=36 velocity=0 time=32
note_on channel=1 note=48 velocity=0 time=0
note_on channel=1 note=53 velocity=80 time=16
note_on channel=1 note=41 velocity=80 time=0
note_on channel=1 note=41 velocity=0 time=32
note_on channel=1 note=53 velocity=0 time=0
note_on channel=1 note=51 velocity=80 time=16
note_on channel=1 note=63 velocity=80 time=0
note_on channel=1 note=63 velocity=0 time=32
note_on channel=1 note=51 velocity=0 time=0
note_on channel=1 note=62 velocity=80 time=16
note_on channel=1 note=50 velocity=80 time=0
note_on channel=1 note=50 velocity=0 time=32
note_on channel=1 note=62 velocity=0 time=0
note_on channel=1 note=49 velocity=80 time=16
note_on channel=1 note=61 velocity=80 time=0
note_on channel=1 note=61 velocity=0 time=32
note_on channel=1 note=49 velocity=0 time=0
note_on channel=1 note=60 velocity=80 time=16
note_on channel=1 note=48 velocity=80 time=0
note_on channel=1 note=48 velocity=0 time=32
note_on channel=1 note=60 velocity=0 time=0
note_on channel=1 note=47 velocity=80 time=16
note_on channel=1 note=59 velocity=80 time=0
note_on channel=1 note=59 velocity=0 time=32
note_on channel=1 note=47 velocity=0 time=0
note_on channel=1 note=58 velocity=80 time=16
note_on channel=1 note=46 velocity=80 time=0
note_on channel=1 note=46 velocity=0 time=32
note_on channel=1 note=58 velocity=0 time=0
note_on channel=1 note=45 velocity=80 time=16
note_on channel=1 note=57 velocity=80 time=0
note_on channel=1 note=57 velocity=0 time=32
note_on channel=1 note=45 velocity=0 time=0
note_on channel=1 note=56 velocity=80 time=16
note_on channel=1 note=44 velocity=80 time=0
note_on channel=1 note=44 velocity=0 time=32
note_on channel=1 note=56 velocity=0 time=0
note_on channel=1 note=42 velocity=80 time=16
note_on channel=1 note=54 velocity=80 time=0
note_on channel=1 note=54 velocity=0 time=32
note_on channel=1 note=42 velocity=0 time=0
note_on channel=1 note=53 velocity=80 time=16
note_on channel=1 note=41 velocity=80 time=0
note_on channel=1 note=41 velocity=0 time=32
note_on channel=1 note=53 velocity=0 time=0
note_on channel=1 note=39 velocity=80 time=16
note_on channel=1 note=51 velocity=80 time=0
note_on channel=1 note=51 velocity=0 time=32
note_on channel=1 note=39 velocity=0 time=0
note_on channel=1 note=49 velocity=80 time=16
note_on channel=1 note=37 velocity=80 time=0
note_on channel=1 note=37 velocity=0 time=32
note_on channel=1 note=49 velocity=0 time=0
note_on channel=1 note=53 velocity=80 time=16
note_on channel=1 note=56 velocity=80 time=0
note_on channel=1 note=61 velocity=80 time=0
note_on channel=1 note=61 velocity=0 time=32
note_on channel=1 note=56 velocity=0 time=0
note_on channel=1 note=53 velocity=0 time=0
note_on channel=1 note=54 velocity=80 time=16
note_on channel=1 note=42 velocity=80 time=0
note_on channel=1 note=42 velocity=0 time=32
note_on channel=1 note=54 velocity=0 time=0
note_on channel=1 note=54 velocity=80 time=16
note_on channel=1 note=58 velocity=80 time=0
note_on channel=1 note=61 velocity=80 time=0
note_on channel=1 note=61 velocity=0 time=32
note_on channel=1 note=58 velocity=0 time=0
note_on channel=1 note=54 velocity=0 time=0
note_on channel=1 note=49 velocity=80 time=16
note_on channel=1 note=37 velocity=80 time=0
note_on channel=1 note=37 velocity=0 time=32
note_on channel=1 note=49 velocity=0 time=0
note_on channel=1 note=53 velocity=80 time=16
note_on channel=1 note=56 velocity=80 time=0
note_on channel=1 note=61 velocity=80 time=0
note_on channel=1 note=61 velocity=0 time=32
note_on channel=1 note=56 velocity=0 time=0
note_on channel=1 note=53 velocity=0 time=0
note_on channel=1 note=53 velocity=80 time=16
note_on channel=1 note=41 velocity=80 time=0
note_on channel=1 note=41 velocity=0 time=32
note_on channel=1 note=53 velocity=0 time=0
note_on channel=1 note=53 velocity=80 time=16
note_on channel=1 note=56 velocity=80 time=0
note_on channel=1 note=61 velocity=80 time=0
note_on channel=1 note=61 velocity=0 time=32
note_on channel=1 note=56 velocity=0 time=0
note_on channel=1 note=53 velocity=0 time=0
note_on channel=1 note=53 velocity=80 time=16
note_on channel=1 note=41 velocity=80 time=0
note_on channel=1 note=41 velocity=0 time=32
note_on channel=1 note=53 velocity=0 time=0
note_on channel=1 note=53 velocity=80 time=16
note_on channel=1 note=57 velocity=80 time=0
note_on channel=1 note=60 velocity=80 time=0
note_on channel=1 note=63 velocity=80 time=0
note_on channel=1 note=63 velocity=0 time=32
note_on channel=1 note=53 velocity=0 time=0
note_on channel=1 note=57 velocity=0 time=0
note_on channel=1 note=60 velocity=0 time=0
note_on channel=1 note=60 velocity=80 time=16
note_on channel=1 note=48 velocity=80 time=0
note_on channel=1 note=48 velocity=0 time=32
note_on channel=1 note=60 velocity=0 time=0
note_on channel=1 note=53 velocity=80 time=16
note_on channel=1 note=57 velocity=80 time=0
note_on channel=1 note=60 velocity=80 time=0
note_on channel=1 note=63 velocity=80 time=0
note_on channel=1 note=63 velocity=0 time=32
note_on channel=1 note=53 velocity=0 time=0
note_on channel=1 note=57 velocity=0 time=0
note_on channel=1 note=60 velocity=0 time=0
note_on channel=1 note=58 velocity=80 time=16
note_on channel=1 note=46 velocity=80 time=0
note_on channel=1 note=46 velocity=0 time=32
note_on channel=1 note=58 velocity=0 time=0
note_on channel=1 note=53 velocity=80 time=16
note_on channel=1 note=58 velocity=80 time=0
note_on channel=1 note=61 velocity=80 time=0
note_on channel=1 note=61 velocity=0 time=32
note_on channel=1 note=58 velocity=0 time=0
note_on channel=1 note=53 velocity=0 time=0
note_on channel=1 note=58 velocity=80 time=16
note_on channel=1 note=46 velocity=80 time=0
note_on channel=1 note=46 velocity=0 time=32
note_on channel=1 note=58 velocity=0 time=0
note_on channel=1 note=44 velocity=80 time=16
note_on channel=1 note=56 velocity=80 time=0
note_on channel=1 note=56 velocity=0 time=32
note_on channel=1 note=44 velocity=0 time=0
note_on channel=1 note=54 velocity=80 time=16
note_on channel=1 note=42 velocity=80 time=0
note_on channel=1 note=42 velocity=0 time=32
note_on channel=1 note=54 velocity=0 time=0
note_on channel=1 note=58 velocity=80 time=16
note_on channel=1 note=61 velocity=80 time=0
note_on channel=1 note=66 velocity=80 time=0
note_on channel=1 note=66 velocity=0 time=32
note_on channel=1 note=61 velocity=0 time=0
note_on channel=1 note=58 velocity=0 time=0
note_on channel=1 note=58 velocity=80 time=16
note_on channel=1 note=46 velocity=80 time=0
note_on channel=1 note=46 velocity=0 time=32
note_on channel=1 note=58 velocity=0 time=0
note_on channel=1 note=57 velocity=80 time=16
note_on channel=1 note=45 velocity=80 time=0
note_on channel=1 note=45 velocity=0 time=32
note_on channel=1 note=57 velocity=0 time=0
note_on channel=1 note=56 velocity=80 time=16
note_on channel=1 note=44 velocity=80 time=0
note_on channel=1 note=44 velocity=0 time=32
note_on channel=1 note=56 velocity=0 time=0
note_on channel=1 note=56 velocity=80 time=16
note_on channel=1 note=61 velocity=80 time=0
note_on channel=1 note=65 velocity=80 time=0
note_on channel=1 note=65 velocity=0 time=32
note_on channel=1 note=61 velocity=0 time=0
note_on channel=1 note=56 velocity=0 time=0
note_on channel=1 note=53 velocity=80 time=16
note_on channel=1 note=41 velocity=80 time=0
note_on channel=1 note=41 velocity=0 time=32
note_on channel=1 note=53 velocity=0 time=0
note_on channel=1 note=44 velocity=80 time=16
note_on channel=1 note=56 velocity=80 time=0
note_on channel=1 note=56 velocity=0 time=32
note_on channel=1 note=44 velocity=0 time=0
note_on channel=1 note=44 velocity=80 time=16
note_on channel=1 note=32 velocity=80 time=0
note_on channel=1 note=32 velocity=0 time=32
note_on channel=1 note=44 velocity=0 time=0
note_on channel=1 note=54 velocity=80 time=16
note_on channel=1 note=56 velocity=80 time=0
note_on channel=1 note=60 velocity=80 time=0
note_on channel=1 note=60 velocity=0 time=32
note_on channel=1 note=56 velocity=0 time=0
note_on channel=1 note=54 velocity=0 time=0
note_on channel=1 note=44 velocity=80 time=16
note_on channel=1 note=32 velocity=80 time=0
note_on channel=1 note=32 velocity=0 time=32
note_on channel=1 note=44 velocity=0 time=0
note_on channel=1 note=54 velocity=80 time=16
note_on channel=1 note=56 velocity=80 time=0
note_on channel=1 note=60 velocity=80 time=0
note_on channel=1 note=60 velocity=0 time=32
note_on channel=1 note=56 velocity=0 time=0
note_on channel=1 note=54 velocity=0 time=0
note_on channel=1 note=49 velocity=80 time=16
note_on channel=1 note=37 velocity=80 time=0
note_on channel=1 note=37 velocity=0 time=32
note_on channel=1 note=49 velocity=0 time=0
note_on channel=1 note=61 velocity=80 time=16
note_on channel=1 note=49 velocity=80 time=0
note_on channel=1 note=49 velocity=0 time=32
note_on channel=1 note=61 velocity=0 time=0
note_on channel=1 note=60 velocity=80 time=16
note_on channel=1 note=48 velocity=80 time=0
note_on channel=1 note=48 velocity=0 time=32
note_on channel=1 note=60 velocity=0 time=0
note_on channel=1 note=47 velocity=80 time=16
note_on channel=1 note=59 velocity=80 time=0
note_on channel=1 note=59 velocity=0 time=32
note_on channel=1 note=47 velocity=0 time=0
note_on channel=1 note=58 velocity=80 time=16
note_on channel=1 note=46 velocity=80 time=0
note_on channel=1 note=46 velocity=0 time=32
note_on channel=1 note=58 velocity=0 time=0
note_on channel=1 note=58 velocity=80 time=16
note_on channel=1 note=61 velocity=80 time=0
note_on channel=1 note=66 velocity=80 time=0
note_on channel=1 note=66 velocity=0 time=32
note_on channel=1 note=61 velocity=0 time=0
note_on channel=1 note=58 velocity=0 time=0
note_on channel=1 note=54 velocity=80 time=16
note_on channel=1 note=42 velocity=80 time=0
note_on channel=1 note=42 velocity=0 time=32
note_on channel=1 note=54 velocity=0 time=0
note_on channel=1 note=45 velocity=80 time=16
note_on channel=1 note=57 velocity=80 time=0
note_on channel=1 note=57 velocity=0 time=32
note_on channel=1 note=45 velocity=0 time=0
note_on channel=1 note=58 velocity=80 time=16
note_on channel=1 note=46 velocity=80 time=0
note_on channel=1 note=46 velocity=0 time=32
note_on channel=1 note=58 velocity=0 time=0
note_on channel=1 note=58 velocity=80 time=16
note_on channel=1 note=61 velocity=80 time=0
note_on channel=1 note=66 velocity=80 time=0
note_on channel=1 note=66 velocity=0 time=32
note_on channel=1 note=61 velocity=0 time=0
note_on channel=1 note=58 velocity=0 time=0
note_on channel=1 note=58 velocity=80 time=16
note_on channel=1 note=46 velocity=80 time=0
note_on channel=1 note=46 velocity=0 time=32
note_on channel=1 note=58 velocity=0 time=0
note_on channel=1 note=42 velocity=80 time=16
note_on channel=1 note=54 velocity=80 time=0
note_on channel=1 note=54 velocity=0 time=32
note_on channel=1 note=42 velocity=0 time=0
note_on channel=1 note=53 velocity=80 time=16
note_on channel=1 note=41 velocity=80 time=0
note_on channel=1 note=41 velocity=0 time=32
note_on channel=1 note=53 velocity=0 time=0
note_on channel=1 note=56 velocity=80 time=16
note_on channel=1 note=61 velocity=80 time=0
note_on channel=1 note=65 velocity=80 time=0
note_on channel=1 note=65 velocity=0 time=32
note_on channel=1 note=61 velocity=0 time=0
note_on channel=1 note=56 velocity=0 time=0
note_on channel=1 note=56 velocity=80 time=16
note_on channel=1 note=61 velocity=80 time=0
note_on channel=1 note=65 velocity=80 time=0
note_on channel=1 note=65 velocity=0 time=32
note_on channel=1 note=61 velocity=0 time=0
note_on channel=1 note=56 velocity=0 time=0
note_on channel=1 note=44 velocity=80 time=16
note_on channel=1 note=32 velocity=80 time=0
note_on channel=1 note=32 velocity=0 time=32
note_on channel=1 note=44 velocity=0 time=0
note_on channel=1 note=49 velocity=80 time=16
note_on channel=1 note=37 velocity=80 time=0
note_on channel=1 note=37 velocity=0 time=32
note_on channel=1 note=49 velocity=0 time=0
note_on channel=1 note=56 velocity=80 time=16
note_on channel=1 note=61 velocity=80 time=0
note_on channel=1 note=65 velocity=80 time=0
note_on channel=1 note=65 velocity=0 time=32
note_on channel=1 note=61 velocity=0 time=0
note_on channel=1 note=56 velocity=0 time=0
note_on channel=1 note=53 velocity=80 time=16
note_on channel=1 note=41 velocity=80 time=0
note_on channel=1 note=41 velocity=0 time=32
note_on channel=1 note=53 velocity=0 time=0
note_on channel=1 note=40 velocity=80 time=16
note_on channel=1 note=52 velocity=80 time=0
note_on channel=1 note=52 velocity=0 time=32
note_on channel=1 note=40 velocity=0 time=0
note_on channel=1 note=51 velocity=80 time=16
note_on channel=1 note=39 velocity=80 time=0
note_on channel=1 note=39 velocity=0 time=32
note_on channel=1 note=51 velocity=0 time=0
note_on channel=1 note=56 velocity=80 time=16
note_on channel=1 note=60 velocity=80 time=0
note_on channel=1 note=63 velocity=80 time=0
note_on channel=1 note=63 velocity=0 time=32
note_on channel=1 note=60 velocity=0 time=0
note_on channel=1 note=56 velocity=0 time=0
note_on channel=1 note=44 velocity=80 time=16
note_on channel=1 note=32 velocity=80 time=0
note_on channel=1 note=32 velocity=0 time=32
note_on channel=1 note=44 velocity=0 time=0
note_on channel=1 note=38 velocity=80 time=16
note_on channel=1 note=50 velocity=80 time=0
note_on channel=1 note=50 velocity=0 time=32
note_on channel=1 note=38 velocity=0 time=0
note_on channel=1 note=51 velocity=80 time=16
note_on channel=1 note=39 velocity=80 time=0
note_on channel=1 note=39 velocity=0 time=32
note_on channel=1 note=51 velocity=0 time=0
note_on channel=1 note=56 velocity=80 time=16
note_on channel=1 note=60 velocity=80 time=0
note_on channel=1 note=63 velocity=80 time=0
note_on channel=1 note=63 velocity=0 time=32
note_on channel=1 note=60 velocity=0 time=0
note_on channel=1 note=56 velocity=0 time=0
note_on channel=1 note=56 velocity=80 time=16
note_on channel=1 note=44 velocity=80 time=0
note_on channel=1 note=44 velocity=0 time=32
note_on channel=1 note=56 velocity=0 time=0
note_on channel=1 note=42 velocity=80 time=16
note_on channel=1 note=54 velocity=80 time=0
note_on channel=1 note=54 velocity=0 time=32
note_on channel=1 note=42 velocity=0 time=0
note_on channel=1 note=53 velocity=80 time=16
note_on channel=1 note=41 velocity=80 time=0
note_on channel=1 note=41 velocity=0 time=32
note_on channel=1 note=53 velocity=0 time=0
note_on channel=1 note=56 velocity=80 time=16
note_on channel=1 note=61 velocity=80 time=0
note_on channel=1 note=65 velocity=80 time=0
note_on channel=1 note=65 velocity=0 time=32
note_on channel=1 note=61 velocity=0 time=0
note_on channel=1 note=56 velocity=0 time=0
note_on channel=1 note=55 velocity=80 time=16
note_on channel=1 note=55 velocity=0 time=16
note_on channel=1 note=58 velocity=80 time=8
note_on channel=1 note=58 velocity=0 time=16
note_on channel=1 note=61 velocity=80 time=8
note_on channel=1 note=61 velocity=0 time=16
note_on channel=1 note=64 velocity=80 time=8
note_on channel=1 note=64 velocity=0 time=16
note_on channel=1 note=65 velocity=80 time=8
note_on channel=1 note=65 velocity=0 time=32
note_on channel=1 note=61 velocity=80 time=16
note_on channel=1 note=49 velocity=80 time=0
note_on channel=1 note=49 velocity=0 time=32
note_on channel=1 note=61 velocity=0 time=0
note_on channel=1 note=60 velocity=80 time=16
note_on channel=1 note=48 velocity=80 time=0
note_on channel=1 note=48 velocity=0 time=32
note_on channel=1 note=60 velocity=0 time=0
note_on channel=1 note=59 velocity=80 time=16
note_on channel=1 note=47 velocity=80 time=0
note_on channel=1 note=47 velocity=0 time=32
note_on channel=1 note=59 velocity=0 time=0
note_on channel=1 note=58 velocity=80 time=16
note_on channel=1 note=46 velocity=80 time=0
note_on channel=1 note=46 velocity=0 time=32
note_on channel=1 note=58 velocity=0 time=0
note_on channel=1 note=58 velocity=80 time=16
note_on channel=1 note=61 velocity=80 time=0
note_on channel=1 note=66 velocity=80 time=0
note_on channel=1 note=66 velocity=0 time=32
note_on channel=1 note=61 velocity=0 time=0
note_on channel=1 note=58 velocity=0 time=0
note_on channel=1 note=54 velocity=80 time=16
note_on channel=1 note=42 velocity=80 time=0
note_on channel=1 note=42 velocity=0 time=32
note_on channel=1 note=54 velocity=0 time=0
note_on channel=1 note=45 velocity=80 time=16
note_on channel=1 note=57 velocity=80 time=0
note_on channel=1 note=57 velocity=0 time=32
note_on channel=1 note=45 velocity=0 time=0
note_on channel=1 note=58 velocity=80 time=16
note_on channel=1 note=46 velocity=80 time=0
note_on channel=1 note=46 velocity=0 time=32
note_on channel=1 note=58 velocity=0 time=0
note_on channel=1 note=58 velocity=80 time=16
note_on channel=1 note=61 velocity=80 time=0
note_on channel=1 note=66 velocity=80 time=0
note_on channel=1 note=66 velocity=0 time=32
note_on channel=1 note=61 velocity=0 time=0
note_on channel=1 note=58 velocity=0 time=0
note_on channel=1 note=58 velocity=80 time=16
note_on channel=1 note=46 velocity=80 time=0
note_on channel=1 note=46 velocity=0 time=32
note_on channel=1 note=58 velocity=0 time=0
note_on channel=1 note=42 velocity=80 time=16
note_on channel=1 note=54 velocity=80 time=0
note_on channel=1 note=54 velocity=0 time=32
note_on channel=1 note=42 velocity=0 time=0
note_on channel=1 note=53 velocity=80 time=16
note_on channel=1 note=41 velocity=80 time=0
note_on channel=1 note=41 velocity=0 time=32
note_on channel=1 note=53 velocity=0 time=0
note_on channel=1 note=56 velocity=80 time=16
note_on channel=1 note=61 velocity=80 time=0
note_on channel=1 note=65 velocity=80 time=0
note_on channel=1 note=65 velocity=0 time=32
note_on channel=1 note=61 velocity=0 time=0
note_on channel=1 note=56 velocity=0 time=0
note_on channel=1 note=56 velocity=80 time=16
note_on channel=1 note=61 velocity=80 time=0
note_on channel=1 note=65 velocity=80 time=0
note_on channel=1 note=65 velocity=0 time=32
note_on channel=1 note=61 velocity=0 time=0
note_on channel=1 note=56 velocity=0 time=0
note_on channel=1 note=44 velocity=80 time=16
note_on channel=1 note=32 velocity=80 time=0
note_on channel=1 note=32 velocity=0 time=32
note_on channel=1 note=44 velocity=0 time=0
note_on channel=1 note=49 velocity=80 time=16
note_on channel=1 note=37 velocity=80 time=0
note_on channel=1 note=37 velocity=0 time=32
note_on channel=1 note=49 velocity=0 time=0
note_on channel=1 note=56 velocity=80 time=16
note_on channel=1 note=61 velocity=80 time=0
note_on channel=1 note=65 velocity=80 time=0
note_on channel=1 note=65 velocity=0 time=32
note_on channel=1 note=61 velocity=0 time=0
note_on channel=1 note=56 velocity=0 time=0
note_on channel=1 note=53 velocity=80 time=16
note_on channel=1 note=41 velocity=80 time=0
note_on channel=1 note=41 velocity=0 time=32
note_on channel=1 note=53 velocity=0 time=0
note_on channel=1 note=56 velocity=80 time=16
note_on channel=1 note=44 velocity=80 time=0
note_on channel=1 note=44 velocity=0 time=32
note_on channel=1 note=56 velocity=0 time=0
note_on channel=1 note=57 velocity=80 time=16
note_on channel=1 note=45 velocity=80 time=0
note_on channel=1 note=45 velocity=0 time=32
note_on channel=1 note=57 velocity=0 time=0
note_on channel=1 note=52 velocity=80 time=16
note_on channel=1 note=57 velocity=80 time=0
note_on channel=1 note=61 velocity=80 time=0
note_on channel=1 note=61 velocity=0 time=32
note_on channel=1 note=57 velocity=0 time=0
note_on channel=1 note=52 velocity=0 time=0
note_on channel=1 note=56 velocity=80 time=16
note_on channel=1 note=44 velocity=80 time=0
note_on channel=1 note=44 velocity=0 time=32
note_on channel=1 note=56 velocity=0 time=0
note_on channel=1 note=52 velocity=80 time=16
note_on channel=1 note=56 velocity=80 time=0
note_on channel=1 note=59 velocity=80 time=0
note_on channel=1 note=59 velocity=0 time=32
note_on channel=1 note=56 velocity=0 time=0
note_on channel=1 note=52 velocity=0 time=0
note_on channel=1 note=57 velocity=80 time=16
note_on channel=1 note=45 velocity=80 time=0
note_on channel=1 note=45 velocity=0 time=32
note_on channel=1 note=57 velocity=0 time=0
note_on channel=1 note=52 velocity=80 time=16
note_on channel=1 note=57 velocity=80 time=0
note_on channel=1 note=61 velocity=80 time=0
note_on channel=1 note=61 velocity=0 time=32
note_on channel=1 note=57 velocity=0 time=0
note_on channel=1 note=52 velocity=0 time=0
note_on channel=1 note=44 velocity=80 time=16
note_on channel=1 note=44 velocity=0 time=16
note_on channel=1 note=49 velocity=80 time=8
note_on channel=1 note=49 velocity=0 time=16
note_on channel=1 note=53 velocity=80 time=8
note_on channel=1 note=53 velocity=0 time=16
note_on channel=1 note=56 velocity=80 time=8
note_on channel=1 note=56 velocity=0 time=16
note_on channel=1 note=44 velocity=80 time=8
note_on channel=1 note=44 velocity=0 time=32
note_on channel=1 note=54 velocity=80 time=16
note_on channel=1 note=56 velocity=80 time=0
note_on channel=1 note=60 velocity=80 time=0
note_on channel=1 note=60 velocity=0 time=32
note_on channel=1 note=56 velocity=0 time=0
note_on channel=1 note=54 velocity=0 time=0
note_on channel=1 note=44 velocity=80 time=16
note_on channel=1 note=32 velocity=80 time=0
note_on channel=1 note=32 velocity=0 time=32
note_on channel=1 note=44 velocity=0 time=0
note_on channel=1 note=54 velocity=80 time=16
note_on channel=1 note=56 velocity=80 time=0
note_on channel=1 note=60 velocity=80 time=0
note_on channel=1 note=60 velocity=0 time=32
note_on channel=1 note=56 velocity=0 time=0
note_on channel=1 note=54 velocity=0 time=0
note_on channel=1 note=49 velocity=80 time=16
note_on channel=1 note=37 velocity=80 time=0
note_on channel=1 note=37 velocity=0 time=32
note_on channel=1 note=49 velocity=0 time=0
note_on channel=1 note=61 velocity=80 time=16
note_on channel=1 note=49 velocity=80 time=0
note_on channel=1 note=49 velocity=0 time=32
note_on channel=1 note=61 velocity=0 time=0
note_on channel=1 note=60 velocity=80 time=16
note_on channel=1 note=48 velocity=80 time=0
note_on channel=1 note=48 velocity=0 time=32
note_on channel=1 note=60 velocity=0 time=0
note_on channel=1 note=47 velocity=80 time=16
note_on channel=1 note=59 velocity=80 time=0
note_on channel=1 note=59 velocity=0 time=32
note_on channel=1 note=47 velocity=0 time=0
note_on channel=1 note=58 velocity=80 time=16
note_on channel=1 note=46 velocity=80 time=0
note_on channel=1 note=46 velocity=0 time=32
note_on channel=1 note=58 velocity=0 time=0
note_on channel=1 note=58 velocity=80 time=16
note_on channel=1 note=61 velocity=80 time=0
note_on channel=1 note=66 velocity=80 time=0
note_on channel=1 note=66 velocity=0 time=32
note_on channel=1 note=61 velocity=0 time=0
note_on channel=1 note=58 velocity=0 time=0
note_on channel=1 note=54 velocity=80 time=16
note_on channel=1 note=42 velocity=80 time=0
note_on channel=1 note=42 velocity=0 time=32
note_on channel=1 note=54 velocity=0 time=0
note_on channel=1 note=45 velocity=80 time=16
note_on channel=1 note=57 velocity=80 time=0
note_on channel=1 note=57 velocity=0 time=32
note_on channel=1 note=45 velocity=0 time=0
note_on channel=1 note=58 velocity=80 time=16
note_on channel=1 note=46 velocity=80 time=0
note_on channel=1 note=46 velocity=0 time=32
note_on channel=1 note=58 velocity=0 time=0
note_on channel=1 note=58 velocity=80 time=16
note_on channel=1 note=61 velocity=80 time=0
note_on channel=1 note=66 velocity=80 time=0
note_on channel=1 note=66 velocity=0 time=32
note_on channel=1 note=61 velocity=0 time=0
note_on channel=1 note=58 velocity=0 time=0
note_on channel=1 note=58 velocity=80 time=16
note_on channel=1 note=46 velocity=80 time=0
note_on channel=1 note=46 velocity=0 time=32
note_on channel=1 note=58 velocity=0 time=0
note_on channel=1 note=42 velocity=80 time=16
note_on channel=1 note=54 velocity=80 time=0
note_on channel=1 note=54 velocity=0 time=32
note_on channel=1 note=42 velocity=0 time=0
note_on channel=1 note=53 velocity=80 time=16
note_on channel=1 note=41 velocity=80 time=0
note_on channel=1 note=41 velocity=0 time=32
note_on channel=1 note=53 velocity=0 time=0
note_on channel=1 note=56 velocity=80 time=16
note_on channel=1 note=61 velocity=80 time=0
note_on channel=1 note=65 velocity=80 time=0
note_on channel=1 note=65 velocity=0 time=32
note_on channel=1 note=61 velocity=0 time=0
note_on channel=1 note=56 velocity=0 time=0
note_on channel=1 note=56 velocity=80 time=16
note_on channel=1 note=61 velocity=80 time=0
note_on channel=1 note=65 velocity=80 time=0
note_on channel=1 note=65 velocity=0 time=32
note_on channel=1 note=61 velocity=0 time=0
note_on channel=1 note=56 velocity=0 time=0
note_on channel=1 note=44 velocity=80 time=16
note_on channel=1 note=32 velocity=80 time=0
note_on channel=1 note=32 velocity=0 time=32
note_on channel=1 note=44 velocity=0 time=0
note_on channel=1 note=49 velocity=80 time=16
note_on channel=1 note=37 velocity=80 time=0
note_on channel=1 note=37 velocity=0 time=32
note_on channel=1 note=49 velocity=0 time=0
note_on channel=1 note=56 velocity=80 time=16
note_on channel=1 note=61 velocity=80 time=0
note_on channel=1 note=65 velocity=80 time=0
note_on channel=1 note=65 velocity=0 time=32
note_on channel=1 note=61 velocity=0 time=0
note_on channel=1 note=56 velocity=0 time=0
note_on channel=1 note=53 velocity=80 time=16
note_on channel=1 note=41 velocity=80 time=0
note_on channel=1 note=41 velocity=0 time=32
note_on channel=1 note=53 velocity=0 time=0
note_on channel=1 note=40 velocity=80 time=16
note_on channel=1 note=52 velocity=80 time=0
note_on channel=1 note=52 velocity=0 time=32
note_on channel=1 note=40 velocity=0 time=0
note_on channel=1 note=51 velocity=80 time=16
note_on channel=1 note=39 velocity=80 time=0
note_on channel=1 note=39 velocity=0 time=32
note_on channel=1 note=51 velocity=0 time=0
note_on channel=1 note=56 velocity=80 time=16
note_on channel=1 note=60 velocity=80 time=0
note_on channel=1 note=63 velocity=80 time=0
note_on channel=1 note=63 velocity=0 time=32
note_on channel=1 note=60 velocity=0 time=0
note_on channel=1 note=56 velocity=0 time=0
note_on channel=1 note=44 velocity=80 time=16
note_on channel=1 note=32 velocity=80 time=0
note_on channel=1 note=32 velocity=0 time=32
note_on channel=1 note=44 velocity=0 time=0
note_on channel=1 note=38 velocity=80 time=16
note_on channel=1 note=50 velocity=80 time=0
note_on channel=1 note=50 velocity=0 time=32
note_on channel=1 note=38 velocity=0 time=0
note_on channel=1 note=51 velocity=80 time=16
note_on channel=1 note=39 velocity=80 time=0
note_on channel=1 note=39 velocity=0 time=32
note_on channel=1 note=51 velocity=0 time=0
note_on channel=1 note=56 velocity=80 time=16
note_on channel=1 note=60 velocity=80 time=0
note_on channel=1 note=63 velocity=80 time=0
note_on channel=1 note=63 velocity=0 time=32
note_on channel=1 note=60 velocity=0 time=0
note_on channel=1 note=56 velocity=0 time=0
note_on channel=1 note=56 velocity=80 time=16
note_on channel=1 note=44 velocity=80 time=0
note_on channel=1 note=44 velocity=0 time=32
note_on channel=1 note=56 velocity=0 time=0
note_on channel=1 note=42 velocity=80 time=16
note_on channel=1 note=54 velocity=80 time=0
note_on channel=1 note=54 velocity=0 time=32
note_on channel=1 note=42 velocity=0 time=0
note_on channel=1 note=53 velocity=80 time=16
note_on channel=1 note=41 velocity=80 time=0
note_on channel=1 note=41 velocity=0 time=32
note_on channel=1 note=53 velocity=0 time=0
note_on channel=1 note=56 velocity=80 time=16
note_on channel=1 note=61 velocity=80 time=0
note_on channel=1 note=65 velocity=80 time=0
note_on channel=1 note=65 velocity=0 time=32
note_on channel=1 note=61 velocity=0 time=0
note_on channel=1 note=56 velocity=0 time=0
note_on channel=1 note=55 velocity=80 time=16
note_on channel=1 note=55 velocity=0 time=16
note_on channel=1 note=58 velocity=80 time=8
note_on channel=1 note=58 velocity=0 time=16
note_on channel=1 note=61 velocity=80 time=8
note_on channel=1 note=61 velocity=0 time=16
note_on channel=1 note=64 velocity=80 time=8
note_on channel=1 note=64 velocity=0 time=16
note_on channel=1 note=65 velocity=80 time=8
note_on channel=1 note=65 velocity=0 time=32
note_on channel=1 note=61 velocity=80 time=16
note_on channel=1 note=49 velocity=80 time=0
note_on channel=1 note=49 velocity=0 time=32
note_on channel=1 note=61 velocity=0 time=0
note_on channel=1 note=60 velocity=80 time=16
note_on channel=1 note=48 velocity=80 time=0
note_on channel=1 note=48 velocity=0 time=32
note_on channel=1 note=60 velocity=0 time=0
note_on channel=1 note=59 velocity=80 time=16
note_on channel=1 note=47 velocity=80 time=0
note_on channel=1 note=47 velocity=0 time=32
note_on channel=1 note=59 velocity=0 time=0
note_on channel=1 note=58 velocity=80 time=16
note_on channel=1 note=46 velocity=80 time=0
note_on channel=1 note=46 velocity=0 time=32
note_on channel=1 note=58 velocity=0 time=0
note_on channel=1 note=58 velocity=80 time=16
note_on channel=1 note=61 velocity=80 time=0
note_on channel=1 note=66 velocity=80 time=0
note_on channel=1 note=66 velocity=0 time=32
note_on channel=1 note=61 velocity=0 time=0
note_on channel=1 note=58 velocity=0 time=0
note_on channel=1 note=54 velocity=80 time=16
note_on channel=1 note=42 velocity=80 time=0
note_on channel=1 note=42 velocity=0 time=32
note_on channel=1 note=54 velocity=0 time=0
note_on channel=1 note=45 velocity=80 time=16
note_on channel=1 note=57 velocity=80 time=0
note_on channel=1 note=57 velocity=0 time=32
note_on channel=1 note=45 velocity=0 time=0
note_on channel=1 note=58 velocity=80 time=16
note_on channel=1 note=46 velocity=80 time=0
note_on channel=1 note=46 velocity=0 time=32
note_on channel=1 note=58 velocity=0 time=0
note_on channel=1 note=58 velocity=80 time=16
note_on channel=1 note=61 velocity=80 time=0
note_on channel=1 note=66 velocity=80 time=0
note_on channel=1 note=66 velocity=0 time=32
note_on channel=1 note=61 velocity=0 time=0
note_on channel=1 note=58 velocity=0 time=0
note_on channel=1 note=58 velocity=80 time=16
note_on channel=1 note=46 velocity=80 time=0
note_on channel=1 note=46 velocity=0 time=32
note_on channel=1 note=58 velocity=0 time=0
note_on channel=1 note=42 velocity=80 time=16
note_on channel=1 note=54 velocity=80 time=0
note_on channel=1 note=54 velocity=0 time=32
note_on channel=1 note=42 velocity=0 time=0
note_on channel=1 note=53 velocity=80 time=16
note_on channel=1 note=41 velocity=80 time=0
note_on channel=1 note=41 velocity=0 time=32
note_on channel=1 note=53 velocity=0 time=0
note_on channel=1 note=56 velocity=80 time=16
note_on channel=1 note=61 velocity=80 time=0
note_on channel=1 note=65 velocity=80 time=0
note_on channel=1 note=65 velocity=0 time=32
note_on channel=1 note=61 velocity=0 time=0
note_on channel=1 note=56 velocity=0 time=0
note_on channel=1 note=56 velocity=80 time=16
note_on channel=1 note=61 velocity=80 time=0
note_on channel=1 note=65 velocity=80 time=0
note_on channel=1 note=65 velocity=0 time=32
note_on channel=1 note=61 velocity=0 time=0
note_on channel=1 note=56 velocity=0 time=0
note_on channel=1 note=44 velocity=80 time=16
note_on channel=1 note=32 velocity=80 time=0
note_on channel=1 note=32 velocity=0 time=32
note_on channel=1 note=44 velocity=0 time=0
note_on channel=1 note=49 velocity=80 time=16
note_on channel=1 note=37 velocity=80 time=0
note_on channel=1 note=37 velocity=0 time=32
note_on channel=1 note=49 velocity=0 time=0
note_on channel=1 note=56 velocity=80 time=16
note_on channel=1 note=61 velocity=80 time=0
note_on channel=1 note=65 velocity=80 time=0
note_on channel=1 note=65 velocity=0 time=32
note_on channel=1 note=61 velocity=0 time=0
note_on channel=1 note=56 velocity=0 time=0
note_on channel=1 note=53 velocity=80 time=16
note_on channel=1 note=41 velocity=80 time=0
note_on channel=1 note=41 velocity=0 time=32
note_on channel=1 note=53 velocity=0 time=0
note_on channel=1 note=56 velocity=80 time=16
note_on channel=1 note=44 velocity=80 time=0
note_on channel=1 note=44 velocity=0 time=32
note_on channel=1 note=56 velocity=0 time=0
note_on channel=1 note=57 velocity=80 time=16
note_on channel=1 note=45 velocity=80 time=0
note_on channel=1 note=45 velocity=0 time=32
note_on channel=1 note=57 velocity=0 time=0
note_on channel=1 note=52 velocity=80 time=16
note_on channel=1 note=57 velocity=80 time=0
note_on channel=1 note=61 velocity=80 time=0
note_on channel=1 note=61 velocity=0 time=32
note_on channel=1 note=57 velocity=0 time=0
note_on channel=1 note=52 velocity=0 time=0
note_on channel=1 note=56 velocity=80 time=16
note_on channel=1 note=44 velocity=80 time=0
note_on channel=1 note=44 velocity=0 time=32
note_on channel=1 note=56 velocity=0 time=0
note_on channel=1 note=52 velocity=80 time=16
note_on channel=1 note=56 velocity=80 time=0
note_on channel=1 note=59 velocity=80 time=0
note_on channel=1 note=59 velocity=0 time=32
note_on channel=1 note=56 velocity=0 time=0
note_on channel=1 note=52 velocity=0 time=0
note_on channel=1 note=57 velocity=80 time=16
note_on channel=1 note=45 velocity=80 time=0
note_on channel=1 note=45 velocity=0 time=32
note_on channel=1 note=57 velocity=0 time=0
note_on channel=1 note=52 velocity=80 time=16
note_on channel=1 note=57 velocity=80 time=0
note_on channel=1 note=61 velocity=80 time=0
note_on channel=1 note=61 velocity=0 time=32
note_on channel=1 note=57 velocity=0 time=0
note_on channel=1 note=52 velocity=0 time=0
note_on channel=1 note=44 velocity=80 time=16
note_on channel=1 note=44 velocity=0 time=16
note_on channel=1 note=49 velocity=80 time=8
note_on channel=1 note=49 velocity=0 time=16
note_on channel=1 note=53 velocity=80 time=8
note_on channel=1 note=53 velocity=0 time=16
note_on channel=1 note=56 velocity=80 time=8
note_on channel=1 note=56 velocity=0 time=16
note_on channel=1 note=44 velocity=80 time=8
note_on channel=1 note=44 velocity=0 time=32
note_on channel=1 note=54 velocity=80 time=16
note_on channel=1 note=56 velocity=80 time=0
note_on channel=1 note=60 velocity=80 time=0
note_on channel=1 note=60 velocity=0 time=32
note_on channel=1 note=56 velocity=0 time=0
note_on channel=1 note=54 velocity=0 time=0
note_on channel=1 note=44 velocity=80 time=16
note_on channel=1 note=32 velocity=80 time=0
note_on channel=1 note=32 velocity=0 time=32
note_on channel=1 note=44 velocity=0 time=0
note_on channel=1 note=54 velocity=80 time=16
note_on channel=1 note=56 velocity=80 time=0
note_on channel=1 note=60 velocity=80 time=0
note_on channel=1 note=60 velocity=0 time=32
note_on channel=1 note=56 velocity=0 time=0
note_on channel=1 note=54 velocity=0 time=0
note_on channel=1 note=49 velocity=80 time=16
note_on channel=1 note=37 velocity=80 time=0
note_on channel=1 note=37 velocity=0 time=32
note_on channel=1 note=49 velocity=0 time=0
note_on channel=1 note=43 velocity=80 time=4
note_on channel=1 note=43 velocity=0 time=6
note_on channel=1 note=44 velocity=80 time=6
note_on channel=1 note=44 velocity=0 time=32
note_on channel=1 note=37 velocity=80 time=16
note_on channel=1 note=37 velocity=0 time=32
<meta message end_of_track time=0>
<meta message midi_port port=0 time=0>
<meta message track_name name='W.S.Trachtman - MIDI file' time=0>
program_change channel=2 program=0 time=0
note_on channel=2 note=36 velocity=1 time=27744
note_on channel=2 note=36 velocity=0 time=32
<meta message end_of_track time=0>
<meta message time_signature numerator=2 denominator=4 clocks_per_click=24 notated_32nd_notes_per_beat=8 time=0>
<meta message key_signature key='C' time=0>
<meta message set_tempo tempo=606061 time=0>
<meta message marker text='W.S.Trachtman - MIDI file' time=0>
<meta message end_of_track time=0>
<meta message midi_port port=0 time=0>
<meta message track_name name='Kismet Rag' time=0>
program_change channel=0 program=0 time=0
control_change channel=0 control=7 value=127 time=0
control_change channel=0 control=10 value=89 time=0
control_change channel=0 control=121 value=0 time=4
control_change channel=0 control=1 value=0 time=20
control_change channel=0 control=64 value=0 time=4
aftertouch channel=0 value=0 time=16
pitchwheel channel=0 pitch=0 time=5
control_change channel=0 control=93 value=12 time=2
control_change channel=0 control=91 value=21 time=0
control_change channel=0 control=7 value=127 time=23
control_change channel=0 control=10 value=84 time=2
<meta message lyrics text='Kismet ' time=68>
note_on channel=0 note=67 velocity=80 time=0
note_on channel=0 note=67 velocity=0 time=32
<meta message lyrics text='Rag ' time=16>
note_on channel=0 note=72 velocity=80 time=0
note_on channel=0 note=72 velocity=0 time=112
note_on channel=0 note=67 velocity=80 time=8
note_on channel=0 note=67 velocity=0 time=16
<meta message lyrics text='by ' time=8>
note_on channel=0 note=72 velocity=80 time=0
note_on channel=0 note=72 velocity=0 time=16
<meta message lyrics text='Scott ' time=8>
note_on channel=0 note=76 velocity=80 time=0
note_on channel=0 note=76 velocity=0 time=16
<meta message lyrics text='Joplin ' time=8>
note_on channel=0 note=79 velocity=80 time=0
note_on channel=0 note=67 velocity=80 time=0
note_on channel=0 note=67 velocity=0 time=96
note_on channel=0 note=79 velocity=0 time=0
<meta message lyrics text='& ' time=48>
note_on channel=0 note=76 velocity=80 time=0
note_on channel=0 note=64 velocity=80 time=0
note_on channel=0 note=64 velocity=0 time=32
note_on channel=0 note=76 velocity=0 time=0
<meta message lyrics text='Scott ' time=16>
note_on channel=0 note=74 velocity=80 time=0
note_on channel=0 note=74 velocity=0 time=16
<meta message lyrics text='Hayden ' time=8>
note_on channel=0 note=76 velocity=80 time=0
note_on channel=0 note=76 velocity=0 time=16
<meta message lyrics text='(1913) ' time=8>
note_on channel=0 note=74 velocity=80 time=0
note_on channel=0 note=74 velocity=0 time=16
<meta message lyrics text='; ' time=8>
note_on channel=0 note=72 velocity=80 time=0
note_on channel=0 note=72 velocity=0 time=16
<meta message lyrics text='Sequenced ' time=8>
note_on channel=0 note=71 velocity=80 time=0
note_on channel=0 note=71 velocity=0 time=16
<meta message lyrics text='by ' time=8>
note_on channel=0 note=72 velocity=80 time=0
note_on channel=0 note=72 velocity=0 time=16
<meta message lyrics text='W.S.Trachtman ' time=8>
<meta message lyrics text='' time=0>
<meta message lyrics text='\r' time=0>
note_on channel=0 note=71 velocity=80 time=0
note_on channel=0 note=71 velocity=0 time=16
note_on channel=0 note=69 velocity=80 time=8
note_on channel=0 note=69 velocity=0 time=16
note_on channel=0 note=67 velocity=80 time=8
note_on channel=0 note=67 velocity=0 time=32
note_on channel=0 note=67 velocity=80 time=64
note_on channel=0 note=71 velocity=80 time=0
note_on channel=0 note=74 velocity=80 time=0
note_on channel=0 note=79 velocity=80 time=0
note_on channel=0 note=79 velocity=0 time=32
note_on channel=0 note=67 velocity=0 time=0
note_on channel=0 note=71 velocity=0 time=0
note_on channel=0 note=74 velocity=0 time=0
note_on channel=0 note=71 velocity=80 time=16
note_on channel=0 note=79 velocity=80 time=0
note_on channel=0 note=83 velocity=80 time=0
note_on channel=0 note=83 velocity=0 time=32
note_on channel=0 note=79 velocity=0 time=0
note_on channel=0 note=71 velocity=0 time=0
note_on channel=0 note=72 velocity=80 time=16
note_on channel=0 note=79 velocity=80 time=0
note_on channel=0 note=84 velocity=80 time=0
note_on channel=0 note=84 velocity=0 time=16
note_on channel=0 note=79 velocity=0 time=0
note_on channel=0 note=72 velocity=0 time=0
note_on channel=0 note=79 velocity=80 time=8
note_on channel=0 note=79 velocity=0 time=16
note_on channel=0 note=81 velocity=80 time=8
note_on channel=0 note=81 velocity=0 time=16
note_on channel=0 note=84 velocity=80 time=8
note_on channel=0 note=76 velocity=80 time=0
note_on channel=0 note=72 velocity=80 time=0
note_on channel=0 note=72 velocity=0 time=32
note_on channel=0 note=76 velocity=0 time=0
note_on channel=0 note=84 velocity=0 time=0
note_on channel=0 note=81 velocity=80 time=16
note_on channel=0 note=76 velocity=80 time=0
note_on channel=0 note=72 velocity=80 time=0
note_on channel=0 note=72 velocity=0 time=32
note_on channel=0 note=76 velocity=0 time=0
note_on channel=0 note=81 velocity=0 time=0
note_on channel=0 note=76 velocity=80 time=16
note_on channel=0 note=76 velocity=0 time=16
note_on channel=0 note=69 velocity=80 time=8
note_on channel=0 note=76 velocity=80 time=0
note_on channel=0 note=81 velocity=80 time=0
note_on channel=0 note=81 velocity=0 time=16
note_on channel=0 note=76 velocity=0 time=0
note_on channel=0 note=69 velocity=0 time=0
note_on channel=0 note=72 velocity=80 time=8
note_on channel=0 note=72 velocity=0 time=16
note_on channel=0 note=76 velocity=80 time=8
note_on channel=0 note=76 velocity=0 time=16
note_on channel=0 note=67 velocity=80 time=8
note_on channel=0 note=72 velocity=80 time=0
note_on channel=0 note=76 velocity=80 time=0
note_on channel=0 note=79 velocity=80 time=0
note_on channel=0 note=79 velocity=0 time=32
note_on channel=0 note=67 velocity=0 time=0
note_on channel=0 note=72 velocity=0 time=0
note_on channel=0 note=76 velocity=0 time=0
note_on channel=0 note=76 velocity=80 time=16
note_on channel=0 note=72 velocity=80 time=0
note_on channel=0 note=67 velocity=80 time=0
note_on channel=0 note=67 velocity=0 time=32
note_on channel=0 note=72 velocity=0 time=0
note_on channel=0 note=76 velocity=0 time=0
note_on channel=0 note=72 velocity=80 time=16
note_on channel=0 note=72 velocity=0 time=16
note_on channel=0 note=65 velocity=80 time=8
note_on channel=0 note=74 velocity=80 time=0
note_on channel=0 note=74 velocity=0 time=16
note_on channel=0 note=72 velocity=80 time=8
note_on channel=0 note=72 velocity=0 time=16
note_on channel=0 note=74 velocity=80 time=8
note_on channel=0 note=74 velocity=0 time=16
note_on channel=0 note=76 velocity=80 time=8
note_on channel=0 note=76 velocity=0 time=16
note_on channel=0 note=65 velocity=0 time=8
note_on channel=0 note=74 velocity=80 time=0
note_on channel=0 note=74 velocity=0 time=16
note_on channel=0 note=72 velocity=80 time=8
note_on channel=0 note=72 velocity=0 time=16
note_on channel=0 note=60 velocity=80 time=8
note_on channel=0 note=69 velocity=80 time=0
note_on channel=0 note=69 velocity=0 time=16
note_on channel=0 note=67 velocity=80 time=8
note_on channel=0 note=60 velocity=0 time=8
note_on channel=0 note=67 velocity=0 time=8
note_on channel=0 note=60 velocity=80 time=8
note_on channel=0 note=72 velocity=80 time=0
note_on channel=0 note=72 velocity=0 time=32
note_on channel=0 note=60 velocity=0 time=0
note_on channel=0 note=72 velocity=80 time=16
note_on channel=0 note=76 velocity=80 time=0
note_on channel=0 note=76 velocity=0 time=16
note_on channel=0 note=72 velocity=0 time=0
note_on channel=0 note=79 velocity=80 time=8
note_on channel=0 note=79 velocity=0 time=16
note_on channel=0 note=81 velocity=80 time=8
note_on channel=0 note=74 velocity=80 time=0
note_on channel=0 note=72 velocity=80 time=0
note_on channel=0 note=72 velocity=0 time=32
note_on channel=0 note=74 velocity=0 time=0
note_on channel=0 note=81 velocity=0 time=0
note_on channel=0 note=83 velocity=80 time=16
note_on channel=0 note=79 velocity=80 time=0
note_on channel=0 note=74 velocity=80 time=0
note_on channel=0 note=74 velocity=0 time=32
note_on channel=0 note=79 velocity=0 time=0
note_on channel=0 note=83 velocity=0 time=0
note_on channel=0 note=72 velocity=80 time=16
note_on channel=0 note=79 velocity=80 time=0
note_on channel=0 note=84 velocity=80 time=0
note_on channel=0 note=84 velocity=0 time=16
note_on channel=0 note=79 velocity=0 time=0
note_on channel=0 note=72 velocity=0 time=0
note_on channel=0 note=79 velocity=80 time=8
note_on channel=0 note=79 velocity=0 time=16
note_on channel=0 note=81 velocity=80 time=8
note_on channel=0 note=81 velocity=0 time=16
note_on channel=0 note=84 velocity=80 time=8
note_on channel=0 note=76 velocity=80 time=0
note_on channel=0 note=72 velocity=80 time=0
note_on channel=0 note=72 velocity=0 time=32
note_on channel=0 note=76 velocity=0 time=0
note_on channel=0 note=84 velocity=0 time=0
note_on channel=0 note=81 velocity=80 time=16
note_on channel=0 note=76 velocity=80 time=0
note_on channel=0 note=72 velocity=80 time=0
note_on channel=0 note=72 velocity=0 time=32
note_on channel=0 note=76 velocity=0 time=0
note_on channel=0 note=81 velocity=0 time=0
note_on channel=0 note=76 velocity=80 time=16
note_on channel=0 note=76 velocity=0 time=16
note_on channel=0 note=69 velocity=80 time=8
note_on channel=0 note=76 velocity=80 time=0
note_on channel=0 note=81 velocity=80 time=0
note_on channel=0 note=81 velocity=0 time=16
note_on channel=0 note=76 velocity=0 time=0
note_on channel=0 note=69 velocity=0 time=0
note_on channel=0 note=72 velocity=80 time=8
note_on channel=0 note=72 velocity=0 time=16
note_on channel=0 note=76 velocity=80 time=8
note_on channel=0 note=76 velocity=0 time=16
note_on channel=0 note=67 velocity=80 time=8
note_on channel=0 note=73 velocity=80 time=0
note_on channel=0 note=79 velocity=80 time=0
note_on channel=0 note=79 velocity=0 time=32
note_on channel=0 note=73 velocity=0 time=0
note_on channel=0 note=67 velocity=0 time=0
note_on channel=0 note=76 velocity=80 time=16
note_on channel=0 note=73 velocity=80 time=0
note_on channel=0 note=67 velocity=80 time=0
note_on channel=0 note=67 velocity=0 time=32
note_on channel=0 note=73 velocity=0 time=0
note_on channel=0 note=76 velocity=0 time=0
note_on channel=0 note=73 velocity=80 time=16
note_on channel=0 note=73 velocity=0 time=16
note_on channel=0 note=74 velocity=80 time=8
note_on channel=0 note=74 velocity=0 time=16
note_on channel=0 note=73 velocity=80 time=8
note_on channel=0 note=73 velocity=0 time=16
note_on channel=0 note=74 velocity=80 time=8
note_on channel=0 note=74 velocity=0 time=16
note_on channel=0 note=73 velocity=80 time=8
note_on channel=0 note=73 velocity=0 time=16
note_on channel=0 note=74 velocity=80 time=8
note_on channel=0 note=74 velocity=0 time=16
note_on channel=0 note=75 velocity=80 time=8
note_on channel=0 note=75 velocity=0 time=16
note_on channel=0 note=76 velocity=80 time=8
note_on channel=0 note=76 velocity=0 time=16
note_on channel=0 note=78 velocity=80 time=8
note_on channel=0 note=78 velocity=0 time=16
note_on channel=0 note=79 velocity=80 time=8
note_on channel=0 note=79 velocity=0 time=32
note_on channel=0 note=74 velocity=80 time=16
note_on channel=0 note=77 velocity=80 time=0
note_on channel=0 note=83 velocity=80 time=0
note_on channel=0 note=83 velocity=0 time=32
note_on channel=0 note=77 velocity=0 time=0
note_on channel=0 note=74 velocity=0 time=0
note_on channel=0 note=81 velocity=80 time=16
note_on channel=0 note=77 velocity=80 time=0
note_on channel=0 note=74 velocity=80 time=0
note_on channel=0 note=74 velocity=0 time=32
note_on channel=0 note=77 velocity=0 time=0
note_on channel=0 note=81 velocity=0 time=0
note_on channel=0 note=79 velocity=80 time=16
note_on channel=0 note=77 velocity=80 time=0
note_on channel=0 note=74 velocity=80 time=0
note_on channel=0 note=74 velocity=0 time=32
note_on channel=0 note=77 velocity=0 time=0
note_on channel=0 note=79 velocity=0 time=0
note_on channel=0 note=72 velocity=80 time=16
note_on channel=0 note=84 velocity=80 time=0
note_on channel=0 note=76 velocity=80 time=0
note_on channel=0 note=76 velocity=0 time=16
note_on channel=0 note=84 velocity=0 time=0
note_on channel=0 note=72 velocity=0 time=0
note_on channel=0 note=79 velocity=80 time=8
note_on channel=0 note=79 velocity=0 time=16
note_on channel=0 note=81 velocity=80 time=8
note_on channel=0 note=81 velocity=0 time=16
note_on channel=0 note=84 velocity=80 time=8
note_on channel=0 note=76 velocity=80 time=0
note_on channel=0 note=72 velocity=80 time=0
note_on channel=0 note=72 velocity=0 time=32
note_on channel=0 note=76 velocity=0 time=0
note_on channel=0 note=84 velocity=0 time=0
note_on channel=0 note=81 velocity=80 time=16
note_on channel=0 note=76 velocity=80 time=0
note_on channel=0 note=72 velocity=80 time=0
note_on channel=0 note=72 velocity=0 time=32
note_on channel=0 note=76 velocity=0 time=0
note_on channel=0 note=81 velocity=0 time=0
note_on channel=0 note=76 velocity=80 time=16
note_on channel=0 note=76 velocity=0 time=16
note_on channel=0 note=69 velocity=80 time=8
note_on channel=0 note=76 velocity=80 time=0
note_on channel=0 note=81 velocity=80 time=0
note_on channel=0 note=81 velocity=0 time=16
note_on channel=0 note=76 velocity=0 time=0
note_on channel=0 note=69 velocity=0 time=0
note_on channel=0 note=72 velocity=80 time=8
note_on channel=0 note=72 velocity=0 time=16
note_on channel=0 note=76 velocity=80 time=8
note_on channel=0 note=76 velocity=0 time=16
note_on channel=0 note=67 velocity=80 time=8
note_on channel=0 note=72 velocity=80 time=0
note_on channel=0 note=76 velocity=80 time=0
note_on channel=0 note=79 velocity=80 time=0
note_on channel=0 note=79 velocity=0 time=32
note_on channel=0 note=67 velocity=0 time=0
note_on channel=0 note=72 velocity=0 time=0
note_on channel=0 note=76 velocity=0 time=0
note_on channel=0 note=76 velocity=80 time=16
note_on channel=0 note=72 velocity=80 time=0
note_on channel=0 note=67 velocity=80 time=0
note_on channel=0 note=67 velocity=0 time=32
note_on channel=0 note=72 velocity=0 time=0
note_on channel=0 note=76 velocity=0 time=0
note_on channel=0 note=72 velocity=80 time=16
note_on channel=0 note=72 velocity=0 time=16
note_on channel=0 note=65 velocity=80 time=8
note_on channel=0 note=74 velocity=80 time=0
note_on channel=0 note=74 velocity=0 time=16
note_on channel=0 note=72 velocity=80 time=8
note_on channel=0 note=72 velocity=0 time=16
note_on channel=0 note=74 velocity=80 time=8
note_on channel=0 note=74 velocity=0 time=16
note_on channel=0 note=76 velocity=80 time=8
note_on channel=0 note=76 velocity=0 time=16
note_on channel=0 note=65 velocity=0 time=8
note_on channel=0 note=74 velocity=80 time=0
note_on channel=0 note=74 velocity=0 time=16
note_on channel=0 note=72 velocity=80 time=8
note_on channel=0 note=72 velocity=0 time=16
note_on channel=0 note=60 velocity=80 time=8
note_on channel=0 note=69 velocity=80 time=0
note_on channel=0 note=69 velocity=0 time=16
note_on channel=0 note=67 velocity=80 time=8
note_on channel=0 note=60 velocity=0 time=8
note_on channel=0 note=67 velocity=0 time=8
note_on channel=0 note=72 velocity=80 time=8
note_on channel=0 note=67 velocity=80 time=0
note_on channel=0 note=67 velocity=0 time=112
note_on channel=0 note=72 velocity=0 time=0
note_on channel=0 note=76 velocity=80 time=8
note_on channel=0 note=72 velocity=80 time=0
note_on channel=0 note=67 velocity=80 time=0
note_on channel=0 note=67 velocity=0 time=32
note_on channel=0 note=72 velocity=0 time=0
note_on channel=0 note=76 velocity=0 time=0
note_on channel=0 note=72 velocity=80 time=16
note_on channel=0 note=67 velocity=80 time=0
note_on channel=0 note=67 velocity=0 time=16
note_on channel=0 note=72 velocity=0 time=0
note_on channel=0 note=65 velocity=80 time=8
note_on channel=0 note=74 velocity=80 time=0
note_on channel=0 note=74 velocity=0 time=16
note_on channel=0 note=72 velocity=80 time=8
note_on channel=0 note=72 velocity=0 time=16
note_on channel=0 note=74 velocity=80 time=8
note_on channel=0 note=74 velocity=0 time=16
note_on channel=0 note=76 velocity=80 time=8
note_on channel=0 note=76 velocity=0 time=16
note_on channel=0 note=65 velocity=0 time=8
note_on channel=0 note=74 velocity=80 time=0
note_on channel=0 note=74 velocity=0 time=16
note_on channel=0 note=72 velocity=80 time=8
note_on channel=0 note=72 velocity=0 time=16
note_on channel=0 note=60 velocity=80 time=8
note_on channel=0 note=69 velocity=80 time=0
note_on channel=0 note=69 velocity=0 time=16
note_on channel=0 note=67 velocity=80 time=8
note_on channel=0 note=60 velocity=0 time=8
note_on channel=0 note=67 velocity=0 time=8
note_on channel=0 note=67 velocity=80 time=8
note_on channel=0 note=72 velocity=80 time=0
note_on channel=0 note=72 velocity=0 time=16
note_on channel=0 note=67 velocity=0 time=0
note_on channel=0 note=76 velocity=80 time=8
note_on channel=0 note=76 velocity=0 time=16
note_on channel=0 note=79 velocity=80 time=8
note_on channel=0 note=79 velocity=0 time=16
note_on channel=0 note=81 velocity=80 time=8
note_on channel=0 note=76 velocity=80 time=0
note_on channel=0 note=72 velocity=80 time=0
note_on channel=0 note=72 velocity=0 time=32
note_on channel=0 note=76 velocity=0 time=0
note_on channel=0 note=81 velocity=0 time=0
note_on channel=0 note=79 velocity=80 time=16
note_on channel=0 note=79 velocity=0 time=16
note_on channel=0 note=76 velocity=80 time=8
note_on channel=0 note=76 velocity=0 time=16
note_on channel=0 note=72 velocity=80 time=8
note_on channel=0 note=72 velocity=0 time=16
note_on channel=0 note=66 velocity=80 time=8
note_on channel=0 note=69 velocity=80 time=0
note_on channel=0 note=69 velocity=0 time=32
note_on channel=0 note=66 velocity=0 time=0
note_on channel=0 note=66 velocity=80 time=16
note_on channel=0 note=72 velocity=80 time=0
note_on channel=0 note=72 velocity=0 time=32
note_on channel=0 note=66 velocity=0 time=0
note_on channel=0 note=65 velocity=80 time=16
note_on channel=0 note=71 velocity=80 time=0
note_on channel=0 note=74 velocity=80 time=0
note_on channel=0 note=74 velocity=0 time=16
note_on channel=0 note=71 velocity=0 time=0
note_on channel=0 note=65 velocity=0 time=0
note_on channel=0 note=76 velocity=80 time=8
note_on channel=0 note=71 velocity=80 time=0
note_on channel=0 note=65 velocity=80 time=0
note_on channel=0 note=65 velocity=0 time=32
note_on channel=0 note=71 velocity=0 time=0
note_on channel=0 note=76 velocity=0 time=0
note_on channel=0 note=72 velocity=80 time=16
note_on channel=0 note=67 velocity=80 time=0
note_on channel=0 note=64 velocity=80 time=0
note_on channel=0 note=64 velocity=0 time=56
note_on channel=0 note=67 velocity=0 time=0
note_on channel=0 note=72 velocity=0 time=0
note_on channel=0 note=76 velocity=80 time=16
note_on channel=0 note=72 velocity=80 time=0
note_on channel=0 note=72 velocity=0 time=16
note_on channel=0 note=76 velocity=0 time=0
note_on channel=0 note=79 velocity=80 time=8
note_on channel=0 note=79 velocity=0 time=16
note_on channel=0 note=81 velocity=80 time=8
note_on channel=0 note=74 velocity=80 time=0
note_on channel=0 note=72 velocity=80 time=0
note_on channel=0 note=72 velocity=0 time=32
note_on channel=0 note=74 velocity=0 time=0
note_on channel=0 note=81 velocity=0 time=0
note_on channel=0 note=74 velocity=80 time=16
note_on channel=0 note=79 velocity=80 time=0
note_on channel=0 note=83 velocity=80 time=0
note_on channel=0 note=83 velocity=0 time=32
note_on channel=0 note=79 velocity=0 time=0
note_on channel=0 note=74 velocity=0 time=0
note_on channel=0 note=72 velocity=80 time=16
note_on channel=0 note=79 velocity=80 time=0
note_on channel=0 note=84 velocity=80 time=0
note_on channel=0 note=84 velocity=0 time=16
note_on channel=0 note=79 velocity=0 time=0
note_on channel=0 note=72 velocity=0 time=0
note_on channel=0 note=79 velocity=80 time=8
note_on channel=0 note=79 velocity=0 time=16
note_on channel=0 note=81 velocity=80 time=8
note_on channel=0 note=81 velocity=0 time=16
note_on channel=0 note=84 velocity=80 time=8
note_on channel=0 note=76 velocity=80 time=0
note_on channel=0 note=72 velocity=80 time=0
note_on channel=0 note=72 velocity=0 time=32
note_on channel=0 note=76 velocity=0 time=0
note_on channel=0 note=84 velocity=0 time=0
note_on channel=0 note=81 velocity=80 time=16
note_on channel=0 note=76 velocity=80 time=0
note_on channel=0 note=72 velocity=80 time=0
note_on channel=0 note=72 velocity=0 time=32
note_on channel=0 note=76 velocity=0 time=0
note_on channel=0 note=81 velocity=0 time=0
note_on channel=0 note=76 velocity=80 time=16
note_on channel=0 note=76 velocity=0 time=16
note_on channel=0 note=69 velocity=80 time=8
note_on channel=0 note=76 velocity=80 time=0
note_on channel=0 note=81 velocity=80 time=0
note_on channel=0 note=81 velocity=0 time=16
note_on channel=0 note=76 velocity=0 time=0
note_on channel=0 note=69 velocity=0 time=0
note_on channel=0 note=72 velocity=80 time=8
note_on channel=0 note=72 velocity=0 time=16
note_on channel=0 note=76 velocity=80 time=8
note_on channel=0 note=76 velocity=0 time=16
note_on channel=0 note=67 velocity=80 time=8
note_on channel=0 note=72 velocity=80 time=0
note_on channel=0 note=76 velocity=80 time=0
note_on channel=0 note=79 velocity=80 time=0
note_on channel=0 note=79 velocity=0 time=32
note_on channel=0 note=67 velocity=0 time=0
note_on channel=0 note=72 velocity=0 time=0
note_on channel=0 note=76 velocity=0 time=0
note_on channel=0 note=76 velocity=80 time=16
note_on channel=0 note=72 velocity=80 time=0
note_on channel=0 note=67 velocity=80 time=0
note_on channel=0 note=67 velocity=0 time=32
note_on channel=0 note=72 velocity=0 time=0
note_on channel=0 note=76 velocity=0 time=0
note_on channel=0 note=72 velocity=80 time=16
note_on channel=0 note=72 velocity=0 time=16
note_on channel=0 note=65 velocity=80 time=8
note_on channel=0 note=74 velocity=80 time=0
note_on channel=0 note=74 velocity=0 time=16
note_on channel=0 note=72 velocity=80 time=8
note_on channel=0 note=72 velocity=0 time=16
note_on channel=0 note=74 velocity=80 time=8
note_on channel=0 note=74 velocity=0 time=16
note_on channel=0 note=76 velocity=80 time=8
note_on channel=0 note=76 velocity=0 time=16
note_on channel=0 note=65 velocity=0 time=8
note_on channel=0 note=74 velocity=80 time=0
note_on channel=0 note=74 velocity=0 time=16
note_on channel=0 note=72 velocity=80 time=8
note_on channel=0 note=72 velocity=0 time=16
note_on channel=0 note=60 velocity=80 time=8
note_on channel=0 note=69 velocity=80 time=0
note_on channel=0 note=69 velocity=0 time=16
note_on channel=0 note=67 velocity=80 time=8
note_on channel=0 note=60 velocity=0 time=8
note_on channel=0 note=67 velocity=0 time=8
note_on channel=0 note=60 velocity=80 time=8
note_on channel=0 note=72 velocity=80 time=0
note_on channel=0 note=72 velocity=0 time=32
note_on channel=0 note=60 velocity=0 time=0
note_on channel=0 note=72 velocity=80 time=16
note_on channel=0 note=76 velocity=80 time=0
note_on channel=0 note=76 velocity=0 time=16
note_on channel=0 note=72 velocity=0 time=0
note_on channel=0 note=79 velocity=80 time=8
note_on channel=0 note=79 velocity=0 time=16
note_on channel=0 note=81 velocity=80 time=8
note_on channel=0 note=74 velocity=80 time=0
note_on channel=0 note=72 velocity=80 time=0
note_on channel=0 note=72 velocity=0 time=32
note_on channel=0 note=74 velocity=0 time=0
note_on channel=0 note=81 velocity=0 time=0
note_on channel=0 note=83 velocity=80 time=16
note_on channel=0 note=79 velocity=80 time=0
note_on channel=0 note=74 velocity=80 time=0
note_on channel=0 note=74 velocity=0 time=32
note_on channel=0 note=79 velocity=0 time=0
note_on channel=0 note=83 velocity=0 time=0
note_on channel=0 note=72 velocity=80 time=16
note_on channel=0 note=79 velocity=80 time=0
note_on channel=0 note=84 velocity=80 time=0
note_on channel=0 note=84 velocity=0 time=16
note_on channel=0 note=79 velocity=0 time=0
note_on channel=0 note=72 velocity=0 time=0
note_on channel=0 note=79 velocity=80 time=8
note_on channel=0 note=79 velocity=0 time=16
note_on channel=0 note=81 velocity=80 time=8
note_on channel=0 note=81 velocity=0 time=16
note_on channel=0 note=84 velocity=80 time=8
note_on channel=0 note=76 velocity=80 time=0
note_on channel=0 note=72 velocity=80 time=0
note_on channel=0 note=72 velocity=0 time=32
note_on channel=0 note=76 velocity=0 time=0
note_on channel=0 note=84 velocity=0 time=0
note_on channel=0 note=81 velocity=80 time=16
note_on channel=0 note=76 velocity=80 time=0
note_on channel=0 note=72 velocity=80 time=0
note_on channel=0 note=72 velocity=0 time=32
note_on channel=0 note=76 velocity=0 time=0
note_on channel=0 note=81 velocity=0 time=0
note_on channel=0 note=76 velocity=80 time=16
note_on channel=0 note=76 velocity=0 time=16
note_on channel=0 note=69 velocity=80 time=8
note_on channel=0 note=76 velocity=80 time=0
note_on channel=0 note=81 velocity=80 time=0
note_on channel=0 note=81 velocity=0 time=16
note_on channel=0 note=76 velocity=0 time=0
note_on channel=0 note=69 velocity=0 time=0
note_on channel=0 note=72 velocity=80 time=8
note_on channel=0 note=72 velocity=0 time=16
note_on channel=0 note=76 velocity=80 time=8
note_on channel=0 note=76 velocity=0 time=16
note_on channel=0 note=67 velocity=80 time=8
note_on channel=0 note=73 velocity=80 time=0
note_on channel=0 note=79 velocity=80 time=0
note_on channel=0 note=79 velocity=0 time=32
note_on channel=0 note=73 velocity=0 time=0
note_on channel=0 note=67 velocity=0 time=0
note_on channel=0 note=76 velocity=80 time=16
note_on channel=0 note=73 velocity=80 time=0
note_on channel=0 note=67 velocity=80 time=0
note_on channel=0 note=67 velocity=0 time=32
note_on channel=0 note=73 velocity=0 time=0
note_on channel=0 note=76 velocity=0 time=0
note_on channel=0 note=73 velocity=80 time=16
note_on channel=0 note=73 velocity=0 time=16
note_on channel=0 note=74 velocity=80 time=8
note_on channel=0 note=74 velocity=0 time=16
note_on channel=0 note=73 velocity=80 time=8
note_on channel=0 note=73 velocity=0 time=16
note_on channel=0 note=74 velocity=80 time=8
note_on channel=0 note=74 velocity=0 time=16
note_on channel=0 note=73 velocity=80 time=8
note_on channel=0 note=73 velocity=0 time=16
note_on channel=0 note=74 velocity=80 time=8
note_on channel=0 note=74 velocity=0 time=16
note_on channel=0 note=75 velocity=80 time=8
note_on channel=0 note=75 velocity=0 time=16
note_on channel=0 note=76 velocity=80 time=8
note_on channel=0 note=76 velocity=0 time=16
note_on channel=0 note=78 velocity=80 time=8
note_on channel=0 note=78 velocity=0 time=16
note_on channel=0 note=79 velocity=80 time=8
note_on channel=0 note=79 velocity=0 time=32
note_on channel=0 note=74 velocity=80 time=16
note_on channel=0 note=77 velocity=80 time=0
note_on channel=0 note=83 velocity=80 time=0
note_on channel=0 note=83 velocity=0 time=32
note_on channel=0 note=77 velocity=0 time=0
note_on channel=0 note=74 velocity=0 time=0
note_on channel=0 note=81 velocity=80 time=16
note_on channel=0 note=77 velocity=80 time=0
note_on channel=0 note=74 velocity=80 time=0
note_on channel=0 note=74 velocity=0 time=32
note_on channel=0 note=77 velocity=0 time=0
note_on channel=0 note=81 velocity=0 time=0
note_on channel=0 note=79 velocity=80 time=16
note_on channel=0 note=77 velocity=80 time=0
note_on channel=0 note=74 velocity=80 time=0
note_on channel=0 note=74 velocity=0 time=32
note_on channel=0 note=77 velocity=0 time=0
note_on channel=0 note=79 velocity=0 time=0
note_on channel=0 note=72 velocity=80 time=16
note_on channel=0 note=84 velocity=80 time=0
note_on channel=0 note=76 velocity=80 time=0
note_on channel=0 note=76 velocity=0 time=16
note_on channel=0 note=84 velocity=0 time=0
note_on channel=0 note=72 velocity=0 time=0
note_on channel=0 note=79 velocity=80 time=8
note_on channel=0 note=79 velocity=0 time=16
note_on channel=0 note=81 velocity=80 time=8
note_on channel=0 note=81 velocity=0 time=16
note_on channel=0 note=84 velocity=80 time=8
note_on channel=0 note=76 velocity=80 time=0
note_on channel=0 note=72 velocity=80 time=0
note_on channel=0 note=72 velocity=0 time=32
note_on channel=0 note=76 velocity=0 time=0
note_on channel=0 note=84 velocity=0 time=0
note_on channel=0 note=81 velocity=80 time=16
note_on channel=0 note=76 velocity=80 time=0
note_on channel=0 note=72 velocity=80 time=0
note_on channel=0 note=72 velocity=0 time=32
note_on channel=0 note=76 velocity=0 time=0
note_on channel=0 note=81 velocity=0 time=0
note_on channel=0 note=76 velocity=80 time=16
note_on channel=0 note=76 velocity=0 time=16
note_on channel=0 note=69 velocity=80 time=8
note_on channel=0 note=76 velocity=80 time=0
note_on channel=0 note=81 velocity=80 time=0
note_on channel=0 note=81 velocity=0 time=16
note_on channel=0 note=76 velocity=0 time=0
note_on channel=0 note=69 velocity=0 time=0
note_on channel=0 note=72 velocity=80 time=8
note_on channel=0 note=72 velocity=0 time=16
note_on channel=0 note=76 velocity=80 time=8
note_on channel=0 note=76 velocity=0 time=16
note_on channel=0 note=67 velocity=80 time=8
note_on channel=0 note=72 velocity=80 time=0
note_on channel=0 note=76 velocity=80 time=0
note_on channel=0 note=79 velocity=80 time=0
note_on channel=0 note=79 velocity=0 time=32
note_on channel=0 note=67 velocity=0 time=0
note_on channel=0 note=72 velocity=0 time=0
note_on channel=0 note=76 velocity=0 time=0
note_on channel=0 note=76 velocity=80 time=16
note_on channel=0 note=72 velocity=80 time=0
note_on channel=0 note=67 velocity=80 time=0
note_on channel=0 note=67 velocity=0 time=32
note_on channel=0 note=72 velocity=0 time=0
note_on channel=0 note=76 velocity=0 time=0
note_on channel=0 note=72 velocity=80 time=16
note_on channel=0 note=72 velocity=0 time=16
note_on channel=0 note=65 velocity=80 time=8
note_on channel=0 note=74 velocity=80 time=0
note_on channel=0 note=74 velocity=0 time=16
note_on channel=0 note=72 velocity=80 time=8
note_on channel=0 note=72 velocity=0 time=16
note_on channel=0 note=74 velocity=80 time=8
note_on channel=0 note=74 velocity=0 time=16
note_on channel=0 note=76 velocity=80 time=8
note_on channel=0 note=76 velocity=0 time=16
note_on channel=0 note=65 velocity=0 time=8
note_on channel=0 note=74 velocity=80 time=0
note_on channel=0 note=74 velocity=0 time=16
note_on channel=0 note=72 velocity=80 time=8
note_on channel=0 note=72 velocity=0 time=16
note_on channel=0 note=60 velocity=80 time=8
note_on channel=0 note=69 velocity=80 time=0
note_on channel=0 note=69 velocity=0 time=16
note_on channel=0 note=67 velocity=80 time=8
note_on channel=0 note=60 velocity=0 time=8
note_on channel=0 note=67 velocity=0 time=8
note_on channel=0 note=72 velocity=80 time=8
note_on channel=0 note=67 velocity=80 time=0
note_on channel=0 note=67 velocity=0 time=112
note_on channel=0 note=72 velocity=0 time=0
note_on channel=0 note=76 velocity=80 time=8
note_on channel=0 note=72 velocity=80 time=0
note_on channel=0 note=67 velocity=80 time=0
note_on channel=0 note=67 velocity=0 time=32
note_on channel=0 note=72 velocity=0 time=0
note_on channel=0 note=76 velocity=0 time=0
note_on channel=0 note=72 velocity=80 time=16
note_on channel=0 note=67 velocity=80 time=0
note_on channel=0 note=67 velocity=0 time=16
note_on channel=0 note=72 velocity=0 time=0
note_on channel=0 note=65 velocity=80 time=8
note_on channel=0 note=74 velocity=80 time=0
note_on channel=0 note=74 velocity=0 time=16
note_on channel=0 note=72 velocity=80 time=8
note_on channel=0 note=72 velocity=0 time=16
note_on channel=0 note=74 velocity=80 time=8
note_on channel=0 note=74 velocity=0 time=16
note_on channel=0 note=76 velocity=80 time=8
note_on channel=0 note=76 velocity=0 time=16
note_on channel=0 note=65 velocity=0 time=8
note_on channel=0 note=74 velocity=80 time=0
note_on channel=0 note=74 velocity=0 time=16
note_on channel=0 note=72 velocity=80 time=8
note_on channel=0 note=72 velocity=0 time=16
note_on channel=0 note=60 velocity=80 time=8
note_on channel=0 note=69 velocity=80 time=0
note_on channel=0 note=69 velocity=0 time=16
note_on channel=0 note=67 velocity=80 time=8
note_on channel=0 note=60 velocity=0 time=8
note_on channel=0 note=67 velocity=0 time=8
note_on channel=0 note=67 velocity=80 time=8
note_on channel=0 note=72 velocity=80 time=0
note_on channel=0 note=72 velocity=0 time=16
note_on channel=0 note=67 velocity=0 time=0
note_on channel=0 note=76 velocity=80 time=8
note_on channel=0 note=76 velocity=0 time=16
note_on channel=0 note=79 velocity=80 time=8
note_on channel=0 note=79 velocity=0 time=16
note_on channel=0 note=81 velocity=80 time=8
note_on channel=0 note=76 velocity=80 time=0
note_on channel=0 note=72 velocity=80 time=0
note_on channel=0 note=72 velocity=0 time=32
note_on channel=0 note=76 velocity=0 time=0
note_on channel=0 note=81 velocity=0 time=0
note_on channel=0 note=79 velocity=80 time=16
note_on channel=0 note=79 velocity=0 time=16
note_on channel=0 note=76 velocity=80 time=8
note_on channel=0 note=76 velocity=0 time=16
note_on channel=0 note=72 velocity=80 time=8
note_on channel=0 note=72 velocity=0 time=16
note_on channel=0 note=66 velocity=80 time=8
note_on channel=0 note=69 velocity=80 time=0
note_on channel=0 note=69 velocity=0 time=32
note_on channel=0 note=66 velocity=0 time=0
note_on channel=0 note=66 velocity=80 time=16
note_on channel=0 note=72 velocity=80 time=0
note_on channel=0 note=72 velocity=0 time=32
note_on channel=0 note=66 velocity=0 time=0
note_on channel=0 note=65 velocity=80 time=16
note_on channel=0 note=71 velocity=80 time=0
note_on channel=0 note=74 velocity=80 time=0
note_on channel=0 note=74 velocity=0 time=16
note_on channel=0 note=71 velocity=0 time=0
note_on channel=0 note=65 velocity=0 time=0
note_on channel=0 note=76 velocity=80 time=8
note_on channel=0 note=71 velocity=80 time=0
note_on channel=0 note=65 velocity=80 time=0
note_on channel=0 note=65 velocity=0 time=32
note_on channel=0 note=71 velocity=0 time=0
note_on channel=0 note=76 velocity=0 time=0
note_on channel=0 note=72 velocity=80 time=16
note_on channel=0 note=67 velocity=80 time=0
note_on channel=0 note=64 velocity=80 time=0
note_on channel=0 note=64 velocity=0 time=88
note_on channel=0 note=67 velocity=0 time=0
note_on channel=0 note=72 velocity=0 time=0
note_on channel=0 note=72 velocity=80 time=32
note_on channel=0 note=76 velocity=80 time=0
note_on channel=0 note=79 velocity=80 time=0
note_on channel=0 note=84 velocity=80 time=0
note_on channel=0 note=84 velocity=0 time=32
note_on channel=0 note=72 velocity=0 time=0
note_on channel=0 note=76 velocity=0 time=0
note_on channel=0 note=79 velocity=0 time=0
note_on channel=0 note=71 velocity=80 time=64
note_on channel=0 note=71 velocity=0 time=16
note_on channel=0 note=70 velocity=80 time=8
note_on channel=0 note=70 velocity=0 time=16
note_on channel=0 note=71 velocity=80 time=8
note_on channel=0 note=71 velocity=0 time=16
note_on channel=0 note=76 velocity=80 time=8
note_on channel=0 note=76 velocity=0 time=32
note_on channel=0 note=74 velocity=80 time=16
note_on channel=0 note=74 velocity=0 time=16
note_on channel=0 note=71 velocity=80 time=8
note_on channel=0 note=71 velocity=0 time=16
note_on channel=0 note=67 velocity=80 time=8
note_on channel=0 note=67 velocity=0 time=16
note_on channel=0 note=61 velocity=80 time=8
note_on channel=0 note=61 velocity=0 time=16
note_on channel=0 note=64 velocity=80 time=8
note_on channel=0 note=64 velocity=0 time=16
note_on channel=0 note=69 velocity=80 time=8
note_on channel=0 note=69 velocity=0 time=16
note_on channel=0 note=71 velocity=80 time=8
note_on channel=0 note=71 velocity=0 time=32
note_on channel=0 note=69 velocity=80 time=16
note_on channel=0 note=69 velocity=0 time=16
note_on channel=0 note=64 velocity=80 time=8
note_on channel=0 note=64 velocity=0 time=16
note_on channel=0 note=61 velocity=80 time=8
note_on channel=0 note=61 velocity=0 time=16
note_on channel=0 note=62 velocity=80 time=8
note_on channel=0 note=62 velocity=0 time=16
note_on channel=0 note=66 velocity=80 time=8
note_on channel=0 note=66 velocity=0 time=16
note_on channel=0 note=69 velocity=80 time=8
note_on channel=0 note=69 velocity=0 time=16
note_on channel=0 note=72 velocity=80 time=8
note_on channel=0 note=66 velocity=80 time=0
note_on channel=0 note=62 velocity=80 time=0
note_on channel=0 note=62 velocity=0 time=32
note_on channel=0 note=66 velocity=0 time=0
note_on channel=0 note=72 velocity=0 time=0
note_on channel=0 note=72 velocity=80 time=16
note_on channel=0 note=72 velocity=0 time=16
note_on channel=0 note=71 velocity=80 time=8
note_on channel=0 note=71 velocity=0 time=16
note_on channel=0 note=69 velocity=80 time=8
note_on channel=0 note=69 velocity=0 time=16
note_on channel=0 note=62 velocity=80 time=8
note_on channel=0 note=67 velocity=80 time=0
note_on channel=0 note=71 velocity=80 time=0
note_on channel=0 note=74 velocity=80 time=0
note_on channel=0 note=74 velocity=0 time=96
note_on channel=0 note=62 velocity=0 time=0
note_on channel=0 note=67 velocity=0 time=0
note_on channel=0 note=71 velocity=0 time=0
note_on channel=0 note=62 velocity=80 time=48
note_on channel=0 note=62 velocity=0 time=32
note_on channel=0 note=67 velocity=80 time=16
note_on channel=0 note=67 velocity=0 time=16
note_on channel=0 note=66 velocity=80 time=8
note_on channel=0 note=66 velocity=0 time=16
note_on channel=0 note=64 velocity=80 time=8
note_on channel=0 note=64 velocity=0 time=16
note_on channel=0 note=62 velocity=80 time=8
note_on channel=0 note=62 velocity=0 time=16
note_on channel=0 note=67 velocity=80 time=8
note_on channel=0 note=67 velocity=0 time=16
note_on channel=0 note=66 velocity=80 time=8
note_on channel=0 note=66 velocity=0 time=16
note_on channel=0 note=64 velocity=80 time=8
note_on channel=0 note=64 velocity=0 time=16
note_on channel=0 note=65 velocity=80 time=8
note_on channel=0 note=65 velocity=0 time=16
note_on channel=0 note=66 velocity=80 time=8
note_on channel=0 note=66 velocity=0 time=32
note_on channel=0 note=66 velocity=80 time=16
note_on channel=0 note=72 velocity=80 time=0
note_on channel=0 note=76 velocity=80 time=0
note_on channel=0 note=76 velocity=0 time=16
note_on channel=0 note=72 velocity=0 time=0
note_on channel=0 note=66 velocity=0 time=0
note_on channel=0 note=76 velocity=80 time=8
note_on channel=0 note=72 velocity=80 time=0
note_on channel=0 note=66 velocity=80 time=0
note_on channel=0 note=66 velocity=0 time=88
note_on channel=0 note=72 velocity=0 time=0
note_on channel=0 note=76 velocity=0 time=0
note_on channel=0 note=69 velocity=80 time=32
note_on channel=0 note=69 velocity=0 time=16
note_on channel=0 note=66 velocity=80 time=8
note_on channel=0 note=66 velocity=0 time=16
note_on channel=0 note=64 velocity=80 time=8
note_on channel=0 note=64 velocity=0 time=16
note_on channel=0 note=62 velocity=80 time=8
note_on channel=0 note=62 velocity=0 time=16
note_on channel=0 note=69 velocity=80 time=8
note_on channel=0 note=69 velocity=0 time=16
note_on channel=0 note=66 velocity=80 time=8
note_on channel=0 note=66 velocity=0 time=16
note_on channel=0 note=64 velocity=80 time=8
note_on channel=0 note=64 velocity=0 time=16
note_on channel=0 note=66 velocity=80 time=8
note_on channel=0 note=66 velocity=0 time=16
note_on channel=0 note=67 velocity=80 time=8
note_on channel=0 note=67 velocity=0 time=32
note_on channel=0 note=67 velocity=80 time=16
note_on channel=0 note=71 velocity=80 time=0
note_on channel=0 note=76 velocity=80 time=0
note_on channel=0 note=76 velocity=0 time=16
note_on channel=0 note=71 velocity=0 time=0
note_on channel=0 note=67 velocity=0 time=0
note_on channel=0 note=76 velocity=80 time=8
note_on channel=0 note=71 velocity=80 time=0
note_on channel=0 note=67 velocity=80 time=0
note_on channel=0 note=67 velocity=0 time=88
note_on channel=0 note=71 velocity=0 time=0
note_on channel=0 note=76 velocity=0 time=0
note_on channel=0 note=71 velocity=80 time=32
note_on channel=0 note=71 velocity=0 time=16
note_on channel=0 note=70 velocity=80 time=8
note_on channel=0 note=70 velocity=0 time=16
note_on channel=0 note=71 velocity=80 time=8
note_on channel=0 note=71 velocity=0 time=16
note_on channel=0 note=76 velocity=80 time=8
note_on channel=0 note=76 velocity=0 time=32
note_on channel=0 note=74 velocity=80 time=16
note_on channel=0 note=74 velocity=0 time=16
note_on channel=0 note=71 velocity=80 time=8
note_on channel=0 note=71 velocity=0 time=16
note_on channel=0 note=67 velocity=80 time=8
note_on channel=0 note=67 velocity=0 time=16
note_on channel=0 note=61 velocity=80 time=8
note_on channel=0 note=61 velocity=0 time=16
note_on channel=0 note=64 velocity=80 time=8
note_on channel=0 note=64 velocity=0 time=16
note_on channel=0 note=69 velocity=80 time=8
note_on channel=0 note=69 velocity=0 time=16
note_on channel=0 note=71 velocity=80 time=8
note_on channel=0 note=71 velocity=0 time=32
note_on channel=0 note=69 velocity=80 time=16
note_on channel=0 note=69 velocity=0 time=16
note_on channel=0 note=64 velocity=80 time=8
note_on channel=0 note=64 velocity=0 time=16
note_on channel=0 note=61 velocity=80 time=8
note_on channel=0 note=61 velocity=0 time=16
note_on channel=0 note=62 velocity=80 time=8
note_on channel=0 note=62 velocity=0 time=16
note_on channel=0 note=66 velocity=80 time=8
note_on channel=0 note=66 velocity=0 time=16
note_on channel=0 note=69 velocity=80 time=8
note_on channel=0 note=69 velocity=0 time=16
note_on channel=0 note=72 velocity=80 time=8
note_on channel=0 note=66 velocity=80 time=0
note_on channel=0 note=62 velocity=80 time=0
note_on channel=0 note=62 velocity=0 time=32
note_on channel=0 note=66 velocity=0 time=0
note_on channel=0 note=72 velocity=0 time=0
note_on channel=0 note=72 velocity=80 time=16
note_on channel=0 note=72 velocity=0 time=16
note_on channel=0 note=71 velocity=80 time=8
note_on channel=0 note=71 velocity=0 time=16
note_on channel=0 note=69 velocity=80 time=8
note_on channel=0 note=69 velocity=0 time=16
note_on channel=0 note=74 velocity=80 time=8
note_on channel=0 note=71 velocity=80 time=0
note_on channel=0 note=67 velocity=80 time=0
note_on channel=0 note=62 velocity=80 time=0
note_on channel=0 note=62 velocity=0 time=128
note_on channel=0 note=74 velocity=0 time=0
note_on channel=0 note=71 velocity=0 time=0
note_on channel=0 note=67 velocity=0 time=0
note_on channel=0 note=71 velocity=80 time=112
note_on channel=0 note=71 velocity=0 time=16
note_on channel=0 note=76 velocity=80 time=8
note_on channel=0 note=76 velocity=0 time=32
note_on channel=0 note=71 velocity=80 time=16
note_on channel=0 note=71 velocity=0 time=16
note_on channel=0 note=68 velocity=80 time=8
note_on channel=0 note=68 velocity=0 time=16
note_on channel=0 note=64 velocity=80 time=8
note_on channel=0 note=64 velocity=0 time=16
note_on channel=0 note=64 velocity=80 time=8
note_on channel=0 note=69 velocity=80 time=0
note_on channel=0 note=69 velocity=0 time=32
note_on channel=0 note=64 velocity=0 time=0
note_on channel=0 note=69 velocity=80 time=16
note_on channel=0 note=72 velocity=80 time=0
note_on channel=0 note=72 velocity=0 time=32
note_on channel=0 note=69 velocity=0 time=0
note_on channel=0 note=67 velocity=80 time=16
note_on channel=0 note=70 velocity=80 time=0
note_on channel=0 note=79 velocity=80 time=0
note_on channel=0 note=79 velocity=0 time=64
note_on channel=0 note=70 velocity=0 time=0
note_on channel=0 note=67 velocity=0 time=0
note_on channel=0 note=67 velocity=80 time=32
note_on channel=0 note=71 velocity=80 time=0
note_on channel=0 note=74 velocity=80 time=0
note_on channel=0 note=74 velocity=0 time=16
note_on channel=0 note=71 velocity=0 time=0
note_on channel=0 note=67 velocity=0 time=0
note_on channel=0 note=71 velocity=80 time=8
note_on channel=0 note=71 velocity=0 time=16
note_on channel=0 note=67 velocity=80 time=8
note_on channel=0 note=67 velocity=0 time=16
note_on channel=0 note=69 velocity=80 time=8
note_on channel=0 note=69 velocity=0 time=16
note_on channel=0 note=61 velocity=80 time=8
note_on channel=0 note=67 velocity=80 time=0
note_on channel=0 note=71 velocity=80 time=0
note_on channel=0 note=71 velocity=0 time=32
note_on channel=0 note=67 velocity=0 time=0
note_on channel=0 note=61 velocity=0 time=0
note_on channel=0 note=69 velocity=80 time=16
note_on channel=0 note=60 velocity=80 time=0
note_on channel=0 note=60 velocity=0 time=32
note_on channel=0 note=69 velocity=0 time=0
note_on channel=0 note=59 velocity=80 time=16
note_on channel=0 note=62 velocity=80 time=0
note_on channel=0 note=67 velocity=80 time=0
note_on channel=0 note=67 velocity=0 time=96
note_on channel=0 note=62 velocity=0 time=0
note_on channel=0 note=59 velocity=0 time=0
note_on channel=0 note=71 velocity=80 time=96
note_on channel=0 note=71 velocity=0 time=16
note_on channel=0 note=70 velocity=80 time=8
note_on channel=0 note=70 velocity=0 time=16
note_on channel=0 note=71 velocity=80 time=8
note_on channel=0 note=71 velocity=0 time=16
note_on channel=0 note=76 velocity=80 time=8
note_on channel=0 note=76 velocity=0 time=32
note_on channel=0 note=74 velocity=80 time=16
note_on channel=0 note=74 velocity=0 time=16
note_on channel=0 note=71 velocity=80 time=8
note_on channel=0 note=71 velocity=0 time=16
note_on channel=0 note=67 velocity=80 time=8
note_on channel=0 note=67 velocity=0 time=16
note_on channel=0 note=61 velocity=80 time=8
note_on channel=0 note=61 velocity=0 time=16
note_on channel=0 note=64 velocity=80 time=8
note_on channel=0 note=64 velocity=0 time=16
note_on channel=0 note=69 velocity=80 time=8
note_on channel=0 note=69 velocity=0 time=16
note_on channel=0 note=71 velocity=80 time=8
note_on channel=0 note=71 velocity=0 time=32
note_on channel=0 note=69 velocity=80 time=16
note_on channel=0 note=69 velocity=0 time=16
note_on channel=0 note=64 velocity=80 time=8
note_on channel=0 note=64 velocity=0 time=16
note_on channel=0 note=61 velocity=80 time=8
note_on channel=0 note=61 velocity=0 time=16
note_on channel=0 note=62 velocity=80 time=8
note_on channel=0 note=62 velocity=0 time=16
note_on channel=0 note=66 velocity=80 time=8
note_on channel=0 note=66 velocity=0 time=16
note_on channel=0 note=69 velocity=80 time=8
note_on channel=0 note=69 velocity=0 time=16
note_on channel=0 note=72 velocity=80 time=8
note_on channel=0 note=66 velocity=80 time=0
note_on channel=0 note=62 velocity=80 time=0
note_on channel=0 note=62 velocity=0 time=32
note_on channel=0 note=66 velocity=0 time=0
note_on channel=0 note=72 velocity=0 time=0
note_on channel=0 note=72 velocity=80 time=16
note_on channel=0 note=72 velocity=0 time=16
note_on channel=0 note=71 velocity=80 time=8
note_on channel=0 note=71 velocity=0 time=16
note_on channel=0 note=69 velocity=80 time=8
note_on channel=0 note=69 velocity=0 time=16
note_on channel=0 note=62 velocity=80 time=8
note_on channel=0 note=67 velocity=80 time=0
note_on channel=0 note=71 velocity=80 time=0
note_on channel=0 note=74 velocity=80 time=0
note_on channel=0 note=74 velocity=0 time=96
note_on channel=0 note=62 velocity=0 time=0
note_on channel=0 note=67 velocity=0 time=0
note_on channel=0 note=71 velocity=0 time=0
note_on channel=0 note=62 velocity=80 time=48
note_on channel=0 note=62 velocity=0 time=32
note_on channel=0 note=67 velocity=80 time=16
note_on channel=0 note=67 velocity=0 time=16
note_on channel=0 note=66 velocity=80 time=8
note_on channel=0 note=66 velocity=0 time=16
note_on channel=0 note=64 velocity=80 time=8
note_on channel=0 note=64 velocity=0 time=16
note_on channel=0 note=62 velocity=80 time=8
note_on channel=0 note=62 velocity=0 time=16
note_on channel=0 note=67 velocity=80 time=8
note_on channel=0 note=67 velocity=0 time=16
note_on channel=0 note=66 velocity=80 time=8
note_on channel=0 note=66 velocity=0 time=16
note_on channel=0 note=64 velocity=80 time=8
note_on channel=0 note=64 velocity=0 time=16
note_on channel=0 note=65 velocity=80 time=8
note_on channel=0 note=65 velocity=0 time=16
note_on channel=0 note=66 velocity=80 time=8
note_on channel=0 note=66 velocity=0 time=32
note_on channel=0 note=66 velocity=80 time=16
note_on channel=0 note=72 velocity=80 time=0
note_on channel=0 note=76 velocity=80 time=0
note_on channel=0 note=76 velocity=0 time=16
note_on channel=0 note=72 velocity=0 time=0
note_on channel=0 note=66 velocity=0 time=0
note_on channel=0 note=76 velocity=80 time=8
note_on channel=0 note=72 velocity=80 time=0
note_on channel=0 note=66 velocity=80 time=0
note_on channel=0 note=66 velocity=0 time=88
note_on channel=0 note=72 velocity=0 time=0
note_on channel=0 note=76 velocity=0 time=0
note_on channel=0 note=69 velocity=80 time=32
note_on channel=0 note=69 velocity=0 time=16
note_on channel=0 note=66 velocity=80 time=8
note_on channel=0 note=66 velocity=0 time=16
note_on channel=0 note=64 velocity=80 time=8
note_on channel=0 note=64 velocity=0 time=16
note_on channel=0 note=62 velocity=80 time=8
note_on channel=0 note=62 velocity=0 time=16
note_on channel=0 note=69 velocity=80 time=8
note_on channel=0 note=69 velocity=0 time=16
note_on channel=0 note=66 velocity=80 time=8
note_on channel=0 note=66 velocity=0 time=16
note_on channel=0 note=64 velocity=80 time=8
note_on channel=0 note=64 velocity=0 time=16
note_on channel=0 note=66 velocity=80 time=8
note_on channel=0 note=66 velocity=0 time=16
note_on channel=0 note=67 velocity=80 time=8
note_on channel=0 note=67 velocity=0 time=32
note_on channel=0 note=67 velocity=80 time=16
note_on channel=0 note=71 velocity=80 time=0
note_on channel=0 note=76 velocity=80 time=0
note_on channel=0 note=76 velocity=0 time=16
note_on channel=0 note=71 velocity=0 time=0
note_on channel=0 note=67 velocity=0 time=0
note_on channel=0 note=76 velocity=80 time=8
note_on channel=0 note=71 velocity=80 time=0
note_on channel=0 note=67 velocity=80 time=0
note_on channel=0 note=67 velocity=0 time=88
note_on channel=0 note=71 velocity=0 time=0
note_on channel=0 note=76 velocity=0 time=0
note_on channel=0 note=71 velocity=80 time=32
note_on channel=0 note=71 velocity=0 time=16
note_on channel=0 note=70 velocity=80 time=8
note_on channel=0 note=70 velocity=0 time=16
note_on channel=0 note=71 velocity=80 time=8
note_on channel=0 note=71 velocity=0 time=16
note_on channel=0 note=76 velocity=80 time=8
note_on channel=0 note=76 velocity=0 time=32
note_on channel=0 note=74 velocity=80 time=16
note_on channel=0 note=74 velocity=0 time=16
note_on channel=0 note=71 velocity=80 time=8
note_on channel=0 note=71 velocity=0 time=16
note_on channel=0 note=67 velocity=80 time=8
note_on channel=0 note=67 velocity=0 time=16
note_on channel=0 note=61 velocity=80 time=8
note_on channel=0 note=61 velocity=0 time=16
note_on channel=0 note=64 velocity=80 time=8
note_on channel=0 note=64 velocity=0 time=16
note_on channel=0 note=69 velocity=80 time=8
note_on channel=0 note=69 velocity=0 time=16
note_on channel=0 note=71 velocity=80 time=8
note_on channel=0 note=71 velocity=0 time=32
note_on channel=0 note=69 velocity=80 time=16
note_on channel=0 note=69 velocity=0 time=16
note_on channel=0 note=64 velocity=80 time=8
note_on channel=0 note=64 velocity=0 time=16
note_on channel=0 note=61 velocity=80 time=8
note_on channel=0 note=61 velocity=0 time=16
note_on channel=0 note=62 velocity=80 time=8
note_on channel=0 note=62 velocity=0 time=16
note_on channel=0 note=66 velocity=80 time=8
note_on channel=0 note=66 velocity=0 time=16
note_on channel=0 note=69 velocity=80 time=8
note_on channel=0 note=69 velocity=0 time=16
note_on channel=0 note=72 velocity=80 time=8
note_on channel=0 note=66 velocity=80 time=0
note_on channel=0 note=62 velocity=80 time=0
note_on channel=0 note=62 velocity=0 time=32
note_on channel=0 note=66 velocity=0 time=0
note_on channel=0 note=72 velocity=0 time=0
note_on channel=0 note=72 velocity=80 time=16
note_on channel=0 note=72 velocity=0 time=16
note_on channel=0 note=71 velocity=80 time=8
note_on channel=0 note=71 velocity=0 time=16
note_on channel=0 note=69 velocity=80 time=8
note_on channel=0 note=69 velocity=0 time=16
note_on channel=0 note=74 velocity=80 time=8
note_on channel=0 note=71 velocity=80 time=0
note_on channel=0 note=67 velocity=80 time=0
note_on channel=0 note=62 velocity=80 time=0
note_on channel=0 note=62 velocity=0 time=128
note_on channel=0 note=74 velocity=0 time=0
note_on channel=0 note=71 velocity=0 time=0
note_on channel=0 note=67 velocity=0 time=0
note_on channel=0 note=71 velocity=80 time=112
note_on channel=0 note=71 velocity=0 time=16
note_on channel=0 note=76 velocity=80 time=8
note_on channel=0 note=76 velocity=0 time=32
note_on channel=0 note=71 velocity=80 time=16
note_on channel=0 note=71 velocity=0 time=16
note_on channel=0 note=68 velocity=80 time=8
note_on channel=0 note=68 velocity=0 time=16
note_on channel=0 note=64 velocity=80 time=8
note_on channel=0 note=64 velocity=0 time=16
note_on channel=0 note=64 velocity=80 time=8
note_on channel=0 note=69 velocity=80 time=0
note_on channel=0 note=69 velocity=0 time=32
note_on channel=0 note=64 velocity=0 time=0
note_on channel=0 note=69 velocity=80 time=16
note_on channel=0 note=72 velocity=80 time=0
note_on channel=0 note=72 velocity=0 time=32
note_on channel=0 note=69 velocity=0 time=0
note_on channel=0 note=67 velocity=80 time=16
note_on channel=0 note=70 velocity=80 time=0
note_on channel=0 note=79 velocity=80 time=0
note_on channel=0 note=79 velocity=0 time=64
note_on channel=0 note=70 velocity=0 time=0
note_on channel=0 note=67 velocity=0 time=0
note_on channel=0 note=67 velocity=80 time=32
note_on channel=0 note=71 velocity=80 time=0
note_on channel=0 note=74 velocity=80 time=0
note_on channel=0 note=74 velocity=0 time=16
note_on channel=0 note=71 velocity=0 time=0
note_on channel=0 note=67 velocity=0 time=0
note_on channel=0 note=71 velocity=80 time=8
note_on channel=0 note=71 velocity=0 time=16
note_on channel=0 note=67 velocity=80 time=8
note_on channel=0 note=67 velocity=0 time=16
note_on channel=0 note=69 velocity=80 time=8
note_on channel=0 note=69 velocity=0 time=16
note_on channel=0 note=61 velocity=80 time=8
note_on channel=0 note=67 velocity=80 time=0
note_on channel=0 note=71 velocity=80 time=0
note_on channel=0 note=71 velocity=0 time=32
note_on channel=0 note=67 velocity=0 time=0
note_on channel=0 note=61 velocity=0 time=0
note_on channel=0 note=69 velocity=80 time=16
note_on channel=0 note=60 velocity=80 time=0
note_on channel=0 note=60 velocity=0 time=32
note_on channel=0 note=69 velocity=0 time=0
note_on channel=0 note=59 velocity=80 time=16
note_on channel=0 note=62 velocity=80 time=0
note_on channel=0 note=67 velocity=80 time=0
note_on channel=0 note=67 velocity=0 time=32
note_on channel=0 note=62 velocity=0 time=0
note_on channel=0 note=59 velocity=0 time=0
note_on channel=0 note=71 velocity=80 time=16
note_on channel=0 note=74 velocity=80 time=0
note_on channel=0 note=79 velocity=80 time=0
note_on channel=0 note=79 velocity=0 time=32
note_on channel=0 note=74 velocity=0 time=0
note_on channel=0 note=71 velocity=0 time=0
note_on channel=0 note=81 velocity=80 time=16
note_on channel=0 note=74 velocity=80 time=0
note_on channel=0 note=72 velocity=80 time=0
note_on channel=0 note=72 velocity=0 time=32
note_on channel=0 note=74 velocity=0 time=0
note_on channel=0 note=81 velocity=0 time=0
note_on channel=0 note=74 velocity=80 time=16
note_on channel=0 note=79 velocity=80 time=0
note_on channel=0 note=83 velocity=80 time=0
note_on channel=0 note=83 velocity=0 time=32
note_on channel=0 note=79 velocity=0 time=0
note_on channel=0 note=74 velocity=0 time=0
note_on channel=0 note=79 velocity=80 time=16
note_on channel=0 note=84 velocity=80 time=0
note_on channel=0 note=84 velocity=0 time=16
note_on channel=0 note=79 velocity=0 time=0
note_on channel=0 note=79 velocity=80 time=8
note_on channel=0 note=79 velocity=0 time=16
note_on channel=0 note=81 velocity=80 time=8
note_on channel=0 note=81 velocity=0 time=16
note_on channel=0 note=84 velocity=80 time=8
note_on channel=0 note=76 velocity=80 time=0
note_on channel=0 note=72 velocity=80 time=0
note_on channel=0 note=72 velocity=0 time=32
note_on channel=0 note=76 velocity=0 time=0
note_on channel=0 note=84 velocity=0 time=0
note_on channel=0 note=81 velocity=80 time=16
note_on channel=0 note=76 velocity=80 time=0
note_on channel=0 note=72 velocity=80 time=0
note_on channel=0 note=72 velocity=0 time=32
note_on channel=0 note=76 velocity=0 time=0
note_on channel=0 note=81 velocity=0 time=0
note_on channel=0 note=76 velocity=80 time=16
note_on channel=0 note=76 velocity=0 time=16
note_on channel=0 note=69 velocity=80 time=8
note_on channel=0 note=76 velocity=80 time=0
note_on channel=0 note=81 velocity=80 time=0
note_on channel=0 note=81 velocity=0 time=16
note_on channel=0 note=76 velocity=0 time=0
note_on channel=0 note=69 velocity=0 time=0
note_on channel=0 note=72 velocity=80 time=8
note_on channel=0 note=72 velocity=0 time=16
note_on channel=0 note=76 velocity=80 time=8
note_on channel=0 note=76 velocity=0 time=16
note_on channel=0 note=67 velocity=80 time=8
note_on channel=0 note=72 velocity=80 time=0
note_on channel=0 note=76 velocity=80 time=0
note_on channel=0 note=79 velocity=80 time=0
note_on channel=0 note=79 velocity=0 time=32
note_on channel=0 note=67 velocity=0 time=0
note_on channel=0 note=72 velocity=0 time=0
note_on channel=0 note=76 velocity=0 time=0
note_on channel=0 note=76 velocity=80 time=16
note_on channel=0 note=72 velocity=80 time=0
note_on channel=0 note=67 velocity=80 time=0
note_on channel=0 note=67 velocity=0 time=32
note_on channel=0 note=72 velocity=0 time=0
note_on channel=0 note=76 velocity=0 time=0
note_on channel=0 note=72 velocity=80 time=16
note_on channel=0 note=72 velocity=0 time=16
note_on channel=0 note=65 velocity=80 time=8
note_on channel=0 note=74 velocity=80 time=0
note_on channel=0 note=74 velocity=0 time=16
note_on channel=0 note=72 velocity=80 time=8
note_on channel=0 note=72 velocity=0 time=16
note_on channel=0 note=74 velocity=80 time=8
note_on channel=0 note=74 velocity=0 time=16
note_on channel=0 note=76 velocity=80 time=8
note_on channel=0 note=76 velocity=0 time=16
note_on channel=0 note=65 velocity=0 time=8
note_on channel=0 note=74 velocity=80 time=0
note_on channel=0 note=74 velocity=0 time=16
note_on channel=0 note=72 velocity=80 time=8
note_on channel=0 note=72 velocity=0 time=16
note_on channel=0 note=60 velocity=80 time=8
note_on channel=0 note=69 velocity=80 time=0
note_on channel=0 note=69 velocity=0 time=16
note_on channel=0 note=67 velocity=80 time=8
note_on channel=0 note=60 velocity=0 time=8
note_on channel=0 note=67 velocity=0 time=8
note_on channel=0 note=60 velocity=80 time=8
note_on channel=0 note=72 velocity=80 time=0
note_on channel=0 note=72 velocity=0 time=32
note_on channel=0 note=60 velocity=0 time=0
note_on channel=0 note=72 velocity=80 time=16
note_on channel=0 note=76 velocity=80 time=0
note_on channel=0 note=76 velocity=0 time=16
note_on channel=0 note=72 velocity=0 time=0
note_on channel=0 note=79 velocity=80 time=8
note_on channel=0 note=79 velocity=0 time=16
note_on channel=0 note=81 velocity=80 time=8
note_on channel=0 note=74 velocity=80 time=0
note_on channel=0 note=72 velocity=80 time=0
note_on channel=0 note=72 velocity=0 time=32
note_on channel=0 note=74 velocity=0 time=0
note_on channel=0 note=81 velocity=0 time=0
note_on channel=0 note=83 velocity=80 time=16
note_on channel=0 note=79 velocity=80 time=0
note_on channel=0 note=74 velocity=80 time=0
note_on channel=0 note=74 velocity=0 time=32
note_on channel=0 note=79 velocity=0 time=0
note_on channel=0 note=83 velocity=0 time=0
note_on channel=0 note=72 velocity=80 time=16
note_on channel=0 note=79 velocity=80 time=0
note_on channel=0 note=84 velocity=80 time=0
note_on channel=0 note=84 velocity=0 time=16
note_on channel=0 note=79 velocity=0 time=0
note_on channel=0 note=72 velocity=0 time=0
note_on channel=0 note=79 velocity=80 time=8
note_on channel=0 note=79 velocity=0 time=16
note_on channel=0 note=81 velocity=80 time=8
note_on channel=0 note=81 velocity=0 time=16
note_on channel=0 note=84 velocity=80 time=8
note_on channel=0 note=76 velocity=80 time=0
note_on channel=0 note=72 velocity=80 time=0
note_on channel=0 note=72 velocity=0 time=32
note_on channel=0 note=76 velocity=0 time=0
note_on channel=0 note=84 velocity=0 time=0
note_on channel=0 note=81 velocity=80 time=16
note_on channel=0 note=76 velocity=80 time=0
note_on channel=0 note=72 velocity=80 time=0
note_on channel=0 note=72 velocity=0 time=32
note_on channel=0 note=76 velocity=0 time=0
note_on channel=0 note=81 velocity=0 time=0
note_on channel=0 note=76 velocity=80 time=16
note_on channel=0 note=76 velocity=0 time=16
note_on channel=0 note=69 velocity=80 time=8
note_on channel=0 note=76 velocity=80 time=0
note_on channel=0 note=81 velocity=80 time=0
note_on channel=0 note=81 velocity=0 time=16
note_on channel=0 note=76 velocity=0 time=0
note_on channel=0 note=69 velocity=0 time=0
note_on channel=0 note=72 velocity=80 time=8
note_on channel=0 note=72 velocity=0 time=16
note_on channel=0 note=76 velocity=80 time=8
note_on channel=0 note=76 velocity=0 time=16
note_on channel=0 note=67 velocity=80 time=8
note_on channel=0 note=72 velocity=80 time=0
note_on channel=0 note=79 velocity=80 time=0
note_on channel=0 note=76 velocity=80 time=0
note_on channel=0 note=76 velocity=0 time=32
note_on channel=0 note=67 velocity=0 time=0
note_on channel=0 note=72 velocity=0 time=0
note_on channel=0 note=79 velocity=0 time=0
note_on channel=0 note=76 velocity=80 time=16
note_on channel=0 note=72 velocity=80 time=0
note_on channel=0 note=67 velocity=80 time=0
note_on channel=0 note=67 velocity=0 time=32
note_on channel=0 note=72 velocity=0 time=0
note_on channel=0 note=76 velocity=0 time=0
note_on channel=0 note=72 velocity=80 time=16
note_on channel=0 note=72 velocity=0 time=16
note_on channel=0 note=74 velocity=80 time=8
note_on channel=0 note=74 velocity=0 time=16
note_on channel=0 note=73 velocity=80 time=8
note_on channel=0 note=73 velocity=0 time=16
note_on channel=0 note=74 velocity=80 time=8
note_on channel=0 note=74 velocity=0 time=16
note_on channel=0 note=73 velocity=80 time=8
note_on channel=0 note=73 velocity=0 time=16
note_on channel=0 note=74 velocity=80 time=8
note_on channel=0 note=74 velocity=0 time=16
note_on channel=0 note=75 velocity=80 time=8
note_on channel=0 note=75 velocity=0 time=16
note_on channel=0 note=76 velocity=80 time=8
note_on channel=0 note=76 velocity=0 time=16
note_on channel=0 note=78 velocity=80 time=8
note_on channel=0 note=78 velocity=0 time=16
note_on channel=0 note=79 velocity=80 time=8
note_on channel=0 note=79 velocity=0 time=32
note_on channel=0 note=74 velocity=80 time=16
note_on channel=0 note=77 velocity=80 time=0
note_on channel=0 note=83 velocity=80 time=0
note_on channel=0 note=83 velocity=0 time=32
note_on channel=0 note=77 velocity=0 time=0
note_on channel=0 note=74 velocity=0 time=0
note_on channel=0 note=81 velocity=80 time=16
note_on channel=0 note=77 velocity=80 time=0
note_on channel=0 note=74 velocity=80 time=0
note_on channel=0 note=74 velocity=0 time=32
note_on channel=0 note=77 velocity=0 time=0
note_on channel=0 note=81 velocity=0 time=0
note_on channel=0 note=79 velocity=80 time=16
note_on channel=0 note=77 velocity=80 time=0
note_on channel=0 note=74 velocity=80 time=0
note_on channel=0 note=74 velocity=0 time=32
note_on channel=0 note=77 velocity=0 time=0
note_on channel=0 note=79 velocity=0 time=0
note_on channel=0 note=72 velocity=80 time=16
note_on channel=0 note=84 velocity=80 time=0
note_on channel=0 note=76 velocity=80 time=0
note_on channel=0 note=76 velocity=0 time=16
note_on channel=0 note=84 velocity=0 time=0
note_on channel=0 note=72 velocity=0 time=0
note_on channel=0 note=79 velocity=80 time=8
note_on channel=0 note=79 velocity=0 time=16
note_on channel=0 note=81 velocity=80 time=8
note_on channel=0 note=81 velocity=0 time=16
note_on channel=0 note=84 velocity=80 time=8
note_on channel=0 note=76 velocity=80 time=0
note_on channel=0 note=72 velocity=80 time=0
note_on channel=0 note=72 velocity=0 time=32
note_on channel=0 note=76 velocity=0 time=0
note_on channel=0 note=84 velocity=0 time=0
note_on channel=0 note=81 velocity=80 time=16
note_on channel=0 note=76 velocity=80 time=0
note_on channel=0 note=72 velocity=80 time=0
note_on channel=0 note=72 velocity=0 time=32
note_on channel=0 note=76 velocity=0 time=0
note_on channel=0 note=81 velocity=0 time=0
note_on channel=0 note=76 velocity=80 time=16
note_on channel=0 note=76 velocity=0 time=16
note_on channel=0 note=69 velocity=80 time=8
note_on channel=0 note=76 velocity=80 time=0
note_on channel=0 note=81 velocity=80 time=0
note_on channel=0 note=81 velocity=0 time=16
note_on channel=0 note=76 velocity=0 time=0
note_on channel=0 note=69 velocity=0 time=0
note_on channel=0 note=72 velocity=80 time=8
note_on channel=0 note=72 velocity=0 time=16
note_on channel=0 note=76 velocity=80 time=8
note_on channel=0 note=76 velocity=0 time=16
note_on channel=0 note=67 velocity=80 time=8
note_on channel=0 note=72 velocity=80 time=0
note_on channel=0 note=76 velocity=80 time=0
note_on channel=0 note=79 velocity=80 time=0
note_on channel=0 note=79 velocity=0 time=32
note_on channel=0 note=67 velocity=0 time=0
note_on channel=0 note=72 velocity=0 time=0
note_on channel=0 note=76 velocity=0 time=0
note_on channel=0 note=76 velocity=80 time=16
note_on channel=0 note=72 velocity=80 time=0
note_on channel=0 note=67 velocity=80 time=0
note_on channel=0 note=67 velocity=0 time=32
note_on channel=0 note=72 velocity=0 time=0
note_on channel=0 note=76 velocity=0 time=0
note_on channel=0 note=72 velocity=80 time=16
note_on channel=0 note=72 velocity=0 time=16
note_on channel=0 note=65 velocity=80 time=8
note_on channel=0 note=74 velocity=80 time=0
note_on channel=0 note=74 velocity=0 time=16
note_on channel=0 note=72 velocity=80 time=8
note_on channel=0 note=72 velocity=0 time=16
note_on channel=0 note=74 velocity=80 time=8
note_on channel=0 note=74 velocity=0 time=16
note_on channel=0 note=76 velocity=80 time=8
note_on channel=0 note=76 velocity=0 time=16
note_on channel=0 note=65 velocity=0 time=8
note_on channel=0 note=74 velocity=80 time=0
note_on channel=0 note=74 velocity=0 time=16
note_on channel=0 note=72 velocity=80 time=8
note_on channel=0 note=72 velocity=0 time=16
note_on channel=0 note=60 velocity=80 time=8
note_on channel=0 note=69 velocity=80 time=0
note_on channel=0 note=69 velocity=0 time=16
note_on channel=0 note=67 velocity=80 time=8
note_on channel=0 note=60 velocity=0 time=8
note_on channel=0 note=67 velocity=0 time=8
note_on channel=0 note=72 velocity=80 time=8
note_on channel=0 note=67 velocity=80 time=0
note_on channel=0 note=67 velocity=0 time=112
note_on channel=0 note=72 velocity=0 time=0
note_on channel=0 note=76 velocity=80 time=8
note_on channel=0 note=72 velocity=80 time=0
note_on channel=0 note=67 velocity=80 time=0
note_on channel=0 note=67 velocity=0 time=32
note_on channel=0 note=72 velocity=0 time=0
note_on channel=0 note=76 velocity=0 time=0
note_on channel=0 note=72 velocity=80 time=16
note_on channel=0 note=67 velocity=80 time=0
note_on channel=0 note=67 velocity=0 time=16
note_on channel=0 note=72 velocity=0 time=0
note_on channel=0 note=65 velocity=80 time=8
note_on channel=0 note=74 velocity=80 time=0
note_on channel=0 note=74 velocity=0 time=16
note_on channel=0 note=72 velocity=80 time=8
note_on channel=0 note=72 velocity=0 time=16
note_on channel=0 note=74 velocity=80 time=8
note_on channel=0 note=74 velocity=0 time=16
note_on channel=0 note=76 velocity=80 time=8
note_on channel=0 note=76 velocity=0 time=16
note_on channel=0 note=65 velocity=0 time=8
note_on channel=0 note=74 velocity=80 time=0
note_on channel=0 note=74 velocity=0 time=16
note_on channel=0 note=72 velocity=80 time=8
note_on channel=0 note=72 velocity=0 time=16
note_on channel=0 note=60 velocity=80 time=8
note_on channel=0 note=69 velocity=80 time=0
note_on channel=0 note=69 velocity=0 time=16
note_on channel=0 note=67 velocity=80 time=8
note_on channel=0 note=60 velocity=0 time=8
note_on channel=0 note=67 velocity=0 time=8
note_on channel=0 note=67 velocity=80 time=8
note_on channel=0 note=72 velocity=80 time=0
note_on channel=0 note=72 velocity=0 time=16
note_on channel=0 note=67 velocity=0 time=0
note_on channel=0 note=76 velocity=80 time=8
note_on channel=0 note=76 velocity=0 time=16
note_on channel=0 note=79 velocity=80 time=8
note_on channel=0 note=79 velocity=0 time=16
note_on channel=0 note=81 velocity=80 time=8
note_on channel=0 note=76 velocity=80 time=0
note_on channel=0 note=72 velocity=80 time=0
note_on channel=0 note=72 velocity=0 time=32
note_on channel=0 note=76 velocity=0 time=0
note_on channel=0 note=81 velocity=0 time=0
note_on channel=0 note=79 velocity=80 time=16
note_on channel=0 note=79 velocity=0 time=16
note_on channel=0 note=76 velocity=80 time=8
note_on channel=0 note=76 velocity=0 time=16
note_on channel=0 note=72 velocity=80 time=8
note_on channel=0 note=72 velocity=0 time=16
note_on channel=0 note=66 velocity=80 time=8
note_on channel=0 note=69 velocity=80 time=0
note_on channel=0 note=69 velocity=0 time=32
note_on channel=0 note=66 velocity=0 time=0
note_on channel=0 note=66 velocity=80 time=16
note_on channel=0 note=72 velocity=80 time=0
note_on channel=0 note=72 velocity=0 time=32
note_on channel=0 note=66 velocity=0 time=0
note_on channel=0 note=65 velocity=80 time=16
note_on channel=0 note=71 velocity=80 time=0
note_on channel=0 note=74 velocity=80 time=0
note_on channel=0 note=74 velocity=0 time=16
note_on channel=0 note=71 velocity=0 time=0
note_on channel=0 note=65 velocity=0 time=0
note_on channel=0 note=76 velocity=80 time=8
note_on channel=0 note=71 velocity=80 time=0
note_on channel=0 note=65 velocity=80 time=0
note_on channel=0 note=65 velocity=0 time=32
note_on channel=0 note=71 velocity=0 time=0
note_on channel=0 note=76 velocity=0 time=0
note_on channel=0 note=72 velocity=80 time=16
note_on channel=0 note=67 velocity=80 time=0
note_on channel=0 note=64 velocity=80 time=0
note_on channel=0 note=64 velocity=0 time=104
note_on channel=0 note=67 velocity=0 time=0
note_on channel=0 note=72 velocity=0 time=0
note_on channel=0 note=69 velocity=80 time=16
note_on channel=0 note=81 velocity=80 time=0
note_on channel=0 note=81 velocity=0 time=32
note_on channel=0 note=69 velocity=0 time=0
note_on channel=0 note=82 velocity=80 time=16
note_on channel=0 note=70 velocity=80 time=0
note_on channel=0 note=70 velocity=0 time=32
note_on channel=0 note=82 velocity=0 time=0
note_on channel=0 note=72 velocity=80 time=16
note_on channel=0 note=84 velocity=80 time=0
note_on channel=0 note=84 velocity=0 time=32
note_on channel=0 note=72 velocity=0 time=0
note_on channel=0 note=86 velocity=80 time=16
note_on channel=0 note=81 velocity=80 time=0
note_on channel=0 note=77 velocity=80 time=0
note_on channel=0 note=74 velocity=80 time=0
note_on channel=0 note=74 velocity=0 time=64
note_on channel=0 note=86 velocity=0 time=0
note_on channel=0 note=81 velocity=0 time=0
note_on channel=0 note=77 velocity=0 time=0
note_on channel=0 note=72 velocity=80 time=32
note_on channel=0 note=77 velocity=80 time=0
note_on channel=0 note=81 velocity=80 time=0
note_on channel=0 note=84 velocity=80 time=0
note_on channel=0 note=84 velocity=0 time=32
note_on channel=0 note=72 velocity=0 time=0
note_on channel=0 note=77 velocity=0 time=0
note_on channel=0 note=81 velocity=0 time=0
note_on channel=0 note=71 velocity=80 time=16
note_on channel=0 note=77 velocity=80 time=0
note_on channel=0 note=81 velocity=80 time=0
note_on channel=0 note=81 velocity=0 time=32
note_on channel=0 note=77 velocity=0 time=0
note_on channel=0 note=71 velocity=0 time=0
note_on channel=0 note=71 velocity=80 time=16
note_on channel=0 note=79 velocity=80 time=0
note_on channel=0 note=79 velocity=0 time=16
note_on channel=0 note=71 velocity=0 time=0
note_on channel=0 note=81 velocity=80 time=8
note_on channel=0 note=77 velocity=80 time=0
note_on channel=0 note=71 velocity=80 time=0
note_on channel=0 note=71 velocity=0 time=32
note_on channel=0 note=77 velocity=0 time=0
note_on channel=0 note=81 velocity=0 time=0
note_on channel=0 note=79 velocity=80 time=16
note_on channel=0 note=79 velocity=0 time=16
note_on channel=0 note=77 velocity=80 time=8
note_on channel=0 note=77 velocity=0 time=16
note_on channel=0 note=74 velocity=80 time=8
note_on channel=0 note=74 velocity=0 time=16
note_on channel=0 note=70 velocity=80 time=8
note_on channel=0 note=76 velocity=80 time=0
note_on channel=0 note=81 velocity=80 time=0
note_on channel=0 note=81 velocity=0 time=32
note_on channel=0 note=76 velocity=0 time=0
note_on channel=0 note=70 velocity=0 time=0
note_on channel=0 note=70 velocity=80 time=16
note_on channel=0 note=76 velocity=80 time=0
note_on channel=0 note=79 velocity=80 time=0
note_on channel=0 note=79 velocity=0 time=16
note_on channel=0 note=76 velocity=0 time=0
note_on channel=0 note=70 velocity=0 time=0
note_on channel=0 note=81 velocity=80 time=8
note_on channel=0 note=76 velocity=80 time=0
note_on channel=0 note=70 velocity=80 time=0
note_on channel=0 note=70 velocity=0 time=32
note_on channel=0 note=76 velocity=0 time=0
note_on channel=0 note=81 velocity=0 time=0
note_on channel=0 note=76 velocity=80 time=16
note_on channel=0 note=76 velocity=0 time=16
note_on channel=0 note=79 velocity=80 time=8
note_on channel=0 note=72 velocity=80 time=0
note_on channel=0 note=72 velocity=0 time=32
note_on channel=0 note=79 velocity=0 time=0
note_on channel=0 note=72 velocity=80 time=16
note_on channel=0 note=72 velocity=0 time=96
note_on channel=0 note=72 velocity=80 time=48
note_on channel=0 note=72 velocity=0 time=32
note_on channel=0 note=77 velocity=80 time=16
note_on channel=0 note=77 velocity=0 time=16
note_on channel=0 note=76 velocity=80 time=8
note_on channel=0 note=76 velocity=0 time=16
note_on channel=0 note=74 velocity=80 time=8
note_on channel=0 note=74 velocity=0 time=16
note_on channel=0 note=72 velocity=80 time=8
note_on channel=0 note=72 velocity=0 time=16
note_on channel=0 note=77 velocity=80 time=8
note_on channel=0 note=77 velocity=0 time=16
note_on channel=0 note=76 velocity=80 time=8
note_on channel=0 note=76 velocity=0 time=16
note_on channel=0 note=74 velocity=80 time=8
note_on channel=0 note=74 velocity=0 time=16
note_on channel=0 note=72 velocity=80 time=8
note_on channel=0 note=72 velocity=0 time=16
note_on channel=0 note=76 velocity=80 time=8
note_on channel=0 note=76 velocity=0 time=32
note_on channel=0 note=64 velocity=80 time=16
note_on channel=0 note=64 velocity=0 time=16
note_on channel=0 note=70 velocity=80 time=8
note_on channel=0 note=67 velocity=80 time=0
note_on channel=0 note=67 velocity=0 time=64
note_on channel=0 note=70 velocity=0 time=0
note_on channel=0 note=72 velocity=80 time=32
note_on channel=0 note=72 velocity=0 time=16
note_on channel=0 note=76 velocity=80 time=8
note_on channel=0 note=76 velocity=0 time=16
note_on channel=0 note=74 velocity=80 time=8
note_on channel=0 note=74 velocity=0 time=16
note_on channel=0 note=72 velocity=80 time=8
note_on channel=0 note=72 velocity=0 time=16
note_on channel=0 note=70 velocity=80 time=8
note_on channel=0 note=70 velocity=0 time=16
note_on channel=0 note=76 velocity=80 time=8
note_on channel=0 note=76 velocity=0 time=16
note_on channel=0 note=74 velocity=80 time=8
note_on channel=0 note=74 velocity=0 time=16
note_on channel=0 note=72 velocity=80 time=8
note_on channel=0 note=72 velocity=0 time=16
note_on channel=0 note=70 velocity=80 time=8
note_on channel=0 note=70 velocity=0 time=16
note_on channel=0 note=74 velocity=80 time=8
note_on channel=0 note=69 velocity=80 time=0
note_on channel=0 note=69 velocity=0 time=32
note_on channel=0 note=74 velocity=0 time=0
note_on channel=0 note=69 velocity=80 time=16
note_on channel=0 note=72 velocity=80 time=0
note_on channel=0 note=72 velocity=0 time=32
note_on channel=0 note=69 velocity=0 time=0
note_on channel=0 note=70 velocity=80 time=16
note_on channel=0 note=82 velocity=80 time=0
note_on channel=0 note=82 velocity=0 time=32
note_on channel=0 note=70 velocity=0 time=0
note_on channel=0 note=71 velocity=80 time=16
note_on channel=0 note=83 velocity=80 time=0
note_on channel=0 note=83 velocity=0 time=32
note_on channel=0 note=71 velocity=0 time=0
note_on channel=0 note=72 velocity=80 time=16
note_on channel=0 note=84 velocity=80 time=0
note_on channel=0 note=84 velocity=0 time=32
note_on channel=0 note=72 velocity=0 time=0
note_on channel=0 note=86 velocity=80 time=16
note_on channel=0 note=81 velocity=80 time=0
note_on channel=0 note=77 velocity=80 time=0
note_on channel=0 note=74 velocity=80 time=0
note_on channel=0 note=74 velocity=0 time=64
note_on channel=0 note=86 velocity=0 time=0
note_on channel=0 note=81 velocity=0 time=0
note_on channel=0 note=77 velocity=0 time=0
note_on channel=0 note=72 velocity=80 time=32
note_on channel=0 note=77 velocity=80 time=0
note_on channel=0 note=81 velocity=80 time=0
note_on channel=0 note=84 velocity=80 time=0
note_on channel=0 note=84 velocity=0 time=32
note_on channel=0 note=72 velocity=0 time=0
note_on channel=0 note=77 velocity=0 time=0
note_on channel=0 note=81 velocity=0 time=0
note_on channel=0 note=71 velocity=80 time=16
note_on channel=0 note=77 velocity=80 time=0
note_on channel=0 note=81 velocity=80 time=0
note_on channel=0 note=81 velocity=0 time=32
note_on channel=0 note=77 velocity=0 time=0
note_on channel=0 note=71 velocity=0 time=0
note_on channel=0 note=71 velocity=80 time=16
note_on channel=0 note=79 velocity=80 time=0
note_on channel=0 note=79 velocity=0 time=16
note_on channel=0 note=71 velocity=0 time=0
note_on channel=0 note=81 velocity=80 time=8
note_on channel=0 note=77 velocity=80 time=0
note_on channel=0 note=71 velocity=80 time=0
note_on channel=0 note=71 velocity=0 time=32
note_on channel=0 note=77 velocity=0 time=0
note_on channel=0 note=81 velocity=0 time=0
note_on channel=0 note=79 velocity=80 time=16
note_on channel=0 note=79 velocity=0 time=16
note_on channel=0 note=77 velocity=80 time=8
note_on channel=0 note=77 velocity=0 time=16
note_on channel=0 note=74 velocity=80 time=8
note_on channel=0 note=74 velocity=0 time=16
note_on channel=0 note=70 velocity=80 time=8
note_on channel=0 note=76 velocity=80 time=0
note_on channel=0 note=81 velocity=80 time=0
note_on channel=0 note=81 velocity=0 time=32
note_on channel=0 note=76 velocity=0 time=0
note_on channel=0 note=70 velocity=0 time=0
note_on channel=0 note=70 velocity=80 time=16
note_on channel=0 note=76 velocity=80 time=0
note_on channel=0 note=79 velocity=80 time=0
note_on channel=0 note=79 velocity=0 time=16
note_on channel=0 note=76 velocity=0 time=0
note_on channel=0 note=70 velocity=0 time=0
note_on channel=0 note=81 velocity=80 time=8
note_on channel=0 note=76 velocity=80 time=0
note_on channel=0 note=70 velocity=80 time=0
note_on channel=0 note=70 velocity=0 time=32
note_on channel=0 note=76 velocity=0 time=0
note_on channel=0 note=81 velocity=0 time=0
note_on channel=0 note=76 velocity=80 time=16
note_on channel=0 note=76 velocity=0 time=16
note_on channel=0 note=79 velocity=80 time=8
note_on channel=0 note=72 velocity=80 time=0
note_on channel=0 note=72 velocity=0 time=32
note_on channel=0 note=79 velocity=0 time=0
note_on channel=0 note=72 velocity=80 time=16
note_on channel=0 note=72 velocity=0 time=96
note_on channel=0 note=72 velocity=80 time=48
note_on channel=0 note=69 velocity=80 time=0
note_on channel=0 note=69 velocity=0 time=32
note_on channel=0 note=72 velocity=0 time=0
note_on channel=0 note=62 velocity=80 time=16
note_on channel=0 note=65 velocity=80 time=0
note_on channel=0 note=74 velocity=80 time=0
note_on channel=0 note=74 velocity=0 time=32
note_on channel=0 note=65 velocity=0 time=0
note_on channel=0 note=62 velocity=0 time=0
note_on channel=0 note=62 velocity=80 time=16
note_on channel=0 note=65 velocity=80 time=0
note_on channel=0 note=72 velocity=80 time=0
note_on channel=0 note=72 velocity=0 time=16
note_on channel=0 note=65 velocity=0 time=0
note_on channel=0 note=62 velocity=0 time=0
note_on channel=0 note=74 velocity=80 time=8
note_on channel=0 note=65 velocity=80 time=0
note_on channel=0 note=62 velocity=80 time=0
note_on channel=0 note=74 velocity=0 time=40
note_on channel=0 note=72 velocity=80 time=8
note_on channel=0 note=72 velocity=0 time=16
note_on channel=0 note=69 velocity=80 time=8
note_on channel=0 note=69 velocity=0 time=16
note_on channel=0 note=62 velocity=0 time=0
note_on channel=0 note=65 velocity=0 time=0
note_on channel=0 note=72 velocity=80 time=8
note_on channel=0 note=72 velocity=0 time=16
note_on channel=0 note=62 velocity=80 time=8
note_on channel=0 note=67 velocity=80 time=0
note_on channel=0 note=70 velocity=80 time=0
note_on channel=0 note=70 velocity=0 time=32
note_on channel=0 note=67 velocity=0 time=0
note_on channel=0 note=62 velocity=0 time=0
note_on channel=0 note=72 velocity=80 time=16
note_on channel=0 note=66 velocity=80 time=0
note_on channel=0 note=62 velocity=80 time=0
note_on channel=0 note=62 velocity=0 time=32
note_on channel=0 note=66 velocity=0 time=0
note_on channel=0 note=72 velocity=0 time=0
note_on channel=0 note=62 velocity=80 time=16
note_on channel=0 note=67 velocity=80 time=0
note_on channel=0 note=74 velocity=80 time=0
note_on channel=0 note=74 velocity=0 time=32
note_on channel=0 note=67 velocity=0 time=0
note_on channel=0 note=62 velocity=0 time=0
note_on channel=0 note=77 velocity=80 time=16
note_on channel=0 note=65 velocity=80 time=0
note_on channel=0 note=65 velocity=0 time=32
note_on channel=0 note=77 velocity=0 time=0
note_on channel=0 note=65 velocity=80 time=16
note_on channel=0 note=69 velocity=80 time=0
note_on channel=0 note=74 velocity=80 time=0
note_on channel=0 note=74 velocity=0 time=16
note_on channel=0 note=69 velocity=0 time=0
note_on channel=0 note=65 velocity=0 time=0
note_on channel=0 note=72 velocity=80 time=8
note_on channel=0 note=72 velocity=0 time=16
note_on channel=0 note=69 velocity=80 time=8
note_on channel=0 note=69 velocity=0 time=16
note_on channel=0 note=65 velocity=80 time=8
note_on channel=0 note=59 velocity=80 time=24
note_on channel=0 note=65 velocity=0 time=24
note_on channel=0 note=59 velocity=0 time=8
note_on channel=0 note=58 velocity=80 time=16
note_on channel=0 note=64 velocity=80 time=0
note_on channel=0 note=67 velocity=80 time=0
note_on channel=0 note=67 velocity=0 time=32
note_on channel=0 note=64 velocity=0 time=0
note_on channel=0 note=58 velocity=0 time=0
note_on channel=0 note=65 velocity=80 time=16
note_on channel=0 note=60 velocity=80 time=0
note_on channel=0 note=57 velocity=80 time=0
note_on channel=0 note=57 velocity=0 time=32
note_on channel=0 note=60 velocity=0 time=0
note_on channel=0 note=65 velocity=0 time=0
note_on channel=0 note=69 velocity=80 time=16
note_on channel=0 note=81 velocity=80 time=0
note_on channel=0 note=81 velocity=0 time=32
note_on channel=0 note=69 velocity=0 time=0
note_on channel=0 note=82 velocity=80 time=16
note_on channel=0 note=70 velocity=80 time=0
note_on channel=0 note=70 velocity=0 time=32
note_on channel=0 note=82 velocity=0 time=0
note_on channel=0 note=71 velocity=80 time=16
note_on channel=0 note=83 velocity=80 time=0
note_on channel=0 note=83 velocity=0 time=32
note_on channel=0 note=71 velocity=0 time=0
note_on channel=0 note=72 velocity=80 time=16
note_on channel=0 note=84 velocity=80 time=0
note_on channel=0 note=84 velocity=0 time=32
note_on channel=0 note=72 velocity=0 time=0
note_on channel=0 note=86 velocity=80 time=16
note_on channel=0 note=81 velocity=80 time=0
note_on channel=0 note=77 velocity=80 time=0
note_on channel=0 note=74 velocity=80 time=0
note_on channel=0 note=74 velocity=0 time=64
note_on channel=0 note=86 velocity=0 time=0
note_on channel=0 note=81 velocity=0 time=0
note_on channel=0 note=77 velocity=0 time=0
note_on channel=0 note=72 velocity=80 time=32
note_on channel=0 note=77 velocity=80 time=0
note_on channel=0 note=81 velocity=80 time=0
note_on channel=0 note=84 velocity=80 time=0
note_on channel=0 note=84 velocity=0 time=32
note_on channel=0 note=72 velocity=0 time=0
note_on channel=0 note=77 velocity=0 time=0
note_on channel=0 note=81 velocity=0 time=0
note_on channel=0 note=71 velocity=80 time=16
note_on channel=0 note=77 velocity=80 time=0
note_on channel=0 note=81 velocity=80 time=0
note_on channel=0 note=81 velocity=0 time=32
note_on channel=0 note=77 velocity=0 time=0
note_on channel=0 note=71 velocity=0 time=0
note_on channel=0 note=71 velocity=80 time=16
note_on channel=0 note=79 velocity=80 time=0
note_on channel=0 note=79 velocity=0 time=16
note_on channel=0 note=71 velocity=0 time=0
note_on channel=0 note=81 velocity=80 time=8
note_on channel=0 note=77 velocity=80 time=0
note_on channel=0 note=71 velocity=80 time=0
note_on channel=0 note=71 velocity=0 time=32
note_on channel=0 note=77 velocity=0 time=0
note_on channel=0 note=81 velocity=0 time=0
note_on channel=0 note=79 velocity=80 time=16
note_on channel=0 note=79 velocity=0 time=16
note_on channel=0 note=77 velocity=80 time=8
note_on channel=0 note=77 velocity=0 time=16
note_on channel=0 note=74 velocity=80 time=8
note_on channel=0 note=74 velocity=0 time=16
note_on channel=0 note=70 velocity=80 time=8
note_on channel=0 note=76 velocity=80 time=0
note_on channel=0 note=81 velocity=80 time=0
note_on channel=0 note=81 velocity=0 time=32
note_on channel=0 note=76 velocity=0 time=0
note_on channel=0 note=70 velocity=0 time=0
note_on channel=0 note=70 velocity=80 time=16
note_on channel=0 note=76 velocity=80 time=0
note_on channel=0 note=79 velocity=80 time=0
note_on channel=0 note=79 velocity=0 time=16
note_on channel=0 note=76 velocity=0 time=0
note_on channel=0 note=70 velocity=0 time=0
note_on channel=0 note=81 velocity=80 time=8
note_on channel=0 note=76 velocity=80 time=0
note_on channel=0 note=70 velocity=80 time=0
note_on channel=0 note=70 velocity=0 time=32
note_on channel=0 note=76 velocity=0 time=0
note_on channel=0 note=81 velocity=0 time=0
note_on channel=0 note=76 velocity=80 time=16
note_on channel=0 note=76 velocity=0 time=16
note_on channel=0 note=79 velocity=80 time=8
note_on channel=0 note=72 velocity=80 time=0
note_on channel=0 note=72 velocity=0 time=32
note_on channel=0 note=79 velocity=0 time=0
note_on channel=0 note=72 velocity=80 time=16
note_on channel=0 note=72 velocity=0 time=96
note_on channel=0 note=72 velocity=80 time=48
note_on channel=0 note=72 velocity=0 time=32
note_on channel=0 note=77 velocity=80 time=16
note_on channel=0 note=77 velocity=0 time=16
note_on channel=0 note=76 velocity=80 time=8
note_on channel=0 note=76 velocity=0 time=16
note_on channel=0 note=74 velocity=80 time=8
note_on channel=0 note=74 velocity=0 time=16
note_on channel=0 note=72 velocity=80 time=8
note_on channel=0 note=72 velocity=0 time=16
note_on channel=0 note=77 velocity=80 time=8
note_on channel=0 note=77 velocity=0 time=16
note_on channel=0 note=76 velocity=80 time=8
note_on channel=0 note=76 velocity=0 time=16
note_on channel=0 note=74 velocity=80 time=8
note_on channel=0 note=74 velocity=0 time=16
note_on channel=0 note=72 velocity=80 time=8
note_on channel=0 note=72 velocity=0 time=16
note_on channel=0 note=76 velocity=80 time=8
note_on channel=0 note=76 velocity=0 time=32
note_on channel=0 note=64 velocity=80 time=16
note_on channel=0 note=64 velocity=0 time=16
note_on channel=0 note=70 velocity=80 time=8
note_on channel=0 note=67 velocity=80 time=0
note_on channel=0 note=67 velocity=0 time=64
note_on channel=0 note=70 velocity=0 time=0
note_on channel=0 note=72 velocity=80 time=32
note_on channel=0 note=72 velocity=0 time=16
note_on channel=0 note=76 velocity=80 time=8
note_on channel=0 note=76 velocity=0 time=16
note_on channel=0 note=74 velocity=80 time=8
note_on channel=0 note=74 velocity=0 time=16
note_on channel=0 note=72 velocity=80 time=8
note_on channel=0 note=72 velocity=0 time=16
note_on channel=0 note=70 velocity=80 time=8
note_on channel=0 note=70 velocity=0 time=16
note_on channel=0 note=76 velocity=80 time=8
note_on channel=0 note=76 velocity=0 time=16
note_on channel=0 note=74 velocity=80 time=8
note_on channel=0 note=74 velocity=0 time=16
note_on channel=0 note=72 velocity=80 time=8
note_on channel=0 note=72 velocity=0 time=16
note_on channel=0 note=70 velocity=80 time=8
note_on channel=0 note=70 velocity=0 time=16
note_on channel=0 note=74 velocity=80 time=8
note_on channel=0 note=69 velocity=80 time=0
note_on channel=0 note=69 velocity=0 time=32
note_on channel=0 note=74 velocity=0 time=0
note_on channel=0 note=69 velocity=80 time=16
note_on channel=0 note=72 velocity=80 time=0
note_on channel=0 note=72 velocity=0 time=32
note_on channel=0 note=69 velocity=0 time=0
note_on channel=0 note=70 velocity=80 time=16
note_on channel=0 note=82 velocity=80 time=0
note_on channel=0 note=82 velocity=0 time=32
note_on channel=0 note=70 velocity=0 time=0
note_on channel=0 note=71 velocity=80 time=16
note_on channel=0 note=83 velocity=80 time=0
note_on channel=0 note=83 velocity=0 time=32
note_on channel=0 note=71 velocity=0 time=0
note_on channel=0 note=72 velocity=80 time=16
note_on channel=0 note=84 velocity=80 time=0
note_on channel=0 note=84 velocity=0 time=32
note_on channel=0 note=72 velocity=0 time=0
note_on channel=0 note=86 velocity=80 time=16
note_on channel=0 note=81 velocity=80 time=0
note_on channel=0 note=77 velocity=80 time=0
note_on channel=0 note=74 velocity=80 time=0
note_on channel=0 note=74 velocity=0 time=64
note_on channel=0 note=86 velocity=0 time=0
note_on channel=0 note=81 velocity=0 time=0
note_on channel=0 note=77 velocity=0 time=0
note_on channel=0 note=72 velocity=80 time=32
note_on channel=0 note=77 velocity=80 time=0
note_on channel=0 note=81 velocity=80 time=0
note_on channel=0 note=84 velocity=80 time=0
note_on channel=0 note=84 velocity=0 time=32
note_on channel=0 note=72 velocity=0 time=0
note_on channel=0 note=77 velocity=0 time=0
note_on channel=0 note=81 velocity=0 time=0
note_on channel=0 note=71 velocity=80 time=16
note_on channel=0 note=77 velocity=80 time=0
note_on channel=0 note=81 velocity=80 time=0
note_on channel=0 note=81 velocity=0 time=32
note_on channel=0 note=77 velocity=0 time=0
note_on channel=0 note=71 velocity=0 time=0
note_on channel=0 note=71 velocity=80 time=16
note_on channel=0 note=79 velocity=80 time=0
note_on channel=0 note=79 velocity=0 time=16
note_on channel=0 note=71 velocity=0 time=0
note_on channel=0 note=81 velocity=80 time=8
note_on channel=0 note=77 velocity=80 time=0
note_on channel=0 note=71 velocity=80 time=0
note_on channel=0 note=71 velocity=0 time=32
note_on channel=0 note=77 velocity=0 time=0
note_on channel=0 note=81 velocity=0 time=0
note_on channel=0 note=79 velocity=80 time=16
note_on channel=0 note=79 velocity=0 time=16
note_on channel=0 note=77 velocity=80 time=8
note_on channel=0 note=77 velocity=0 time=16
note_on channel=0 note=74 velocity=80 time=8
note_on channel=0 note=74 velocity=0 time=16
note_on channel=0 note=70 velocity=80 time=8
note_on channel=0 note=76 velocity=80 time=0
note_on channel=0 note=81 velocity=80 time=0
note_on channel=0 note=81 velocity=0 time=32
note_on channel=0 note=76 velocity=0 time=0
note_on channel=0 note=70 velocity=0 time=0
note_on channel=0 note=70 velocity=80 time=16
note_on channel=0 note=76 velocity=80 time=0
note_on channel=0 note=79 velocity=80 time=0
note_on channel=0 note=79 velocity=0 time=16
note_on channel=0 note=76 velocity=0 time=0
note_on channel=0 note=70 velocity=0 time=0
note_on channel=0 note=81 velocity=80 time=8
note_on channel=0 note=76 velocity=80 time=0
note_on channel=0 note=70 velocity=80 time=0
note_on channel=0 note=70 velocity=0 time=32
note_on channel=0 note=76 velocity=0 time=0
note_on channel=0 note=81 velocity=0 time=0
note_on channel=0 note=76 velocity=80 time=16
note_on channel=0 note=76 velocity=0 time=16
note_on channel=0 note=79 velocity=80 time=8
note_on channel=0 note=72 velocity=80 time=0
note_on channel=0 note=72 velocity=0 time=32
note_on channel=0 note=79 velocity=0 time=0
note_on channel=0 note=72 velocity=80 time=16
note_on channel=0 note=72 velocity=0 time=96
note_on channel=0 note=72 velocity=80 time=48
note_on channel=0 note=69 velocity=80 time=0
note_on channel=0 note=69 velocity=0 time=32
note_on channel=0 note=72 velocity=0 time=0
note_on channel=0 note=62 velocity=80 time=16
note_on channel=0 note=65 velocity=80 time=0
note_on channel=0 note=74 velocity=80 time=0
note_on channel=0 note=74 velocity=0 time=32
note_on channel=0 note=65 velocity=0 time=0
note_on channel=0 note=62 velocity=0 time=0
note_on channel=0 note=62 velocity=80 time=16
note_on channel=0 note=65 velocity=80 time=0
note_on channel=0 note=72 velocity=80 time=0
note_on channel=0 note=72 velocity=0 time=16
note_on channel=0 note=65 velocity=0 time=0
note_on channel=0 note=62 velocity=0 time=0
note_on channel=0 note=74 velocity=80 time=8
note_on channel=0 note=65 velocity=80 time=0
note_on channel=0 note=62 velocity=80 time=0
note_on channel=0 note=74 velocity=0 time=40
note_on channel=0 note=72 velocity=80 time=8
note_on channel=0 note=72 velocity=0 time=16
note_on channel=0 note=69 velocity=80 time=8
note_on channel=0 note=69 velocity=0 time=16
note_on channel=0 note=62 velocity=0 time=0
note_on channel=0 note=65 velocity=0 time=0
note_on channel=0 note=72 velocity=80 time=8
note_on channel=0 note=72 velocity=0 time=16
note_on channel=0 note=62 velocity=80 time=8
note_on channel=0 note=67 velocity=80 time=0
note_on channel=0 note=70 velocity=80 time=0
note_on channel=0 note=70 velocity=0 time=32
note_on channel=0 note=67 velocity=0 time=0
note_on channel=0 note=62 velocity=0 time=0
note_on channel=0 note=72 velocity=80 time=16
note_on channel=0 note=66 velocity=80 time=0
note_on channel=0 note=62 velocity=80 time=0
note_on channel=0 note=62 velocity=0 time=32
note_on channel=0 note=66 velocity=0 time=0
note_on channel=0 note=72 velocity=0 time=0
note_on channel=0 note=62 velocity=80 time=16
note_on channel=0 note=67 velocity=80 time=0
note_on channel=0 note=74 velocity=80 time=0
note_on channel=0 note=74 velocity=0 time=32
note_on channel=0 note=67 velocity=0 time=0
note_on channel=0 note=62 velocity=0 time=0
note_on channel=0 note=77 velocity=80 time=16
note_on channel=0 note=65 velocity=80 time=0
note_on channel=0 note=65 velocity=0 time=32
note_on channel=0 note=77 velocity=0 time=0
note_on channel=0 note=65 velocity=80 time=16
note_on channel=0 note=69 velocity=80 time=0
note_on channel=0 note=74 velocity=80 time=0
note_on channel=0 note=74 velocity=0 time=16
note_on channel=0 note=69 velocity=0 time=0
note_on channel=0 note=65 velocity=0 time=0
note_on channel=0 note=72 velocity=80 time=8
note_on channel=0 note=72 velocity=0 time=16
note_on channel=0 note=69 velocity=80 time=8
note_on channel=0 note=69 velocity=0 time=16
note_on channel=0 note=65 velocity=80 time=8
note_on channel=0 note=59 velocity=80 time=24
note_on channel=0 note=65 velocity=0 time=24
note_on channel=0 note=59 velocity=0 time=8
note_on channel=0 note=58 velocity=80 time=16
note_on channel=0 note=64 velocity=80 time=0
note_on channel=0 note=67 velocity=80 time=0
note_on channel=0 note=67 velocity=0 time=32
note_on channel=0 note=64 velocity=0 time=0
note_on channel=0 note=58 velocity=0 time=0
note_on channel=0 note=65 velocity=80 time=16
note_on channel=0 note=60 velocity=80 time=0
note_on channel=0 note=57 velocity=80 time=0
note_on channel=0 note=57 velocity=0 time=32
note_on channel=0 note=60 velocity=0 time=0
note_on channel=0 note=65 velocity=0 time=0
note_on channel=0 note=65 velocity=80 time=64
note_on channel=0 note=69 velocity=80 time=0
note_on channel=0 note=77 velocity=80 time=0
note_on channel=0 note=77 velocity=0 time=32
note_on channel=0 note=69 velocity=0 time=0
note_on channel=0 note=65 velocity=0 time=0
note_on channel=0 note=79 velocity=80 time=16
note_on channel=0 note=67 velocity=80 time=0
note_on channel=0 note=67 velocity=0 time=32
note_on channel=0 note=79 velocity=0 time=0
note_on channel=0 note=84 velocity=80 time=16
note_on channel=0 note=72 velocity=80 time=0
note_on channel=0 note=72 velocity=0 time=16
note_on channel=0 note=84 velocity=0 time=0
note_on channel=0 note=76 velocity=80 time=8
note_on channel=0 note=76 velocity=0 time=16
note_on channel=0 note=79 velocity=80 time=8
note_on channel=0 note=79 velocity=0 time=16
note_on channel=0 note=81 velocity=80 time=8
note_on channel=0 note=69 velocity=80 time=0
note_on channel=0 note=69 velocity=0 time=32
note_on channel=0 note=81 velocity=0 time=0
note_on channel=0 note=79 velocity=80 time=16
note_on channel=0 note=79 velocity=0 time=16
note_on channel=0 note=81 velocity=80 time=8
note_on channel=0 note=69 velocity=80 time=0
note_on channel=0 note=69 velocity=0 time=16
note_on channel=0 note=81 velocity=0 time=0
note_on channel=0 note=79 velocity=80 time=8
note_on channel=0 note=79 velocity=0 time=16
note_on channel=0 note=83 velocity=80 time=8
note_on channel=0 note=71 velocity=80 time=0
note_on channel=0 note=71 velocity=0 time=16
note_on channel=0 note=83 velocity=0 time=0
note_on channel=0 note=77 velocity=80 time=8
note_on channel=0 note=77 velocity=0 time=16
note_on channel=0 note=79 velocity=80 time=8
note_on channel=0 note=79 velocity=0 time=16
note_on channel=0 note=81 velocity=80 time=8
note_on channel=0 note=69 velocity=80 time=0
note_on channel=0 note=69 velocity=0 time=32
note_on channel=0 note=81 velocity=0 time=0
note_on channel=0 note=79 velocity=80 time=16
note_on channel=0 note=79 velocity=0 time=16
note_on channel=0 note=83 velocity=80 time=8
note_on channel=0 note=71 velocity=80 time=0
note_on channel=0 note=71 velocity=0 time=16
note_on channel=0 note=83 velocity=0 time=0
note_on channel=0 note=79 velocity=80 time=8
note_on channel=0 note=79 velocity=0 time=16
note_on channel=0 note=72 velocity=80 time=8
note_on channel=0 note=84 velocity=80 time=0
note_on channel=0 note=84 velocity=0 time=16
note_on channel=0 note=72 velocity=0 time=0
note_on channel=0 note=76 velocity=80 time=8
note_on channel=0 note=76 velocity=0 time=16
note_on channel=0 note=79 velocity=80 time=8
note_on channel=0 note=79 velocity=0 time=16
note_on channel=0 note=69 velocity=80 time=8
note_on channel=0 note=81 velocity=80 time=0
note_on channel=0 note=81 velocity=0 time=32
note_on channel=0 note=69 velocity=0 time=0
note_on channel=0 note=79 velocity=80 time=16
note_on channel=0 note=79 velocity=0 time=16
note_on channel=0 note=82 velocity=80 time=8
note_on channel=0 note=70 velocity=80 time=0
note_on channel=0 note=70 velocity=0 time=16
note_on channel=0 note=82 velocity=0 time=0
note_on channel=0 note=79 velocity=80 time=8
note_on channel=0 note=79 velocity=0 time=16
note_on channel=0 note=83 velocity=80 time=8
note_on channel=0 note=71 velocity=80 time=0
note_on channel=0 note=71 velocity=0 time=16
note_on channel=0 note=83 velocity=0 time=0
note_on channel=0 note=77 velocity=80 time=8
note_on channel=0 note=77 velocity=0 time=16
note_on channel=0 note=79 velocity=80 time=8
note_on channel=0 note=79 velocity=0 time=16
note_on channel=0 note=81 velocity=80 time=8
note_on channel=0 note=69 velocity=80 time=0
note_on channel=0 note=69 velocity=0 time=32
note_on channel=0 note=81 velocity=0 time=0
note_on channel=0 note=79 velocity=80 time=16
note_on channel=0 note=79 velocity=0 time=16
note_on channel=0 note=83 velocity=80 time=8
note_on channel=0 note=71 velocity=80 time=0
note_on channel=0 note=71 velocity=0 time=16
note_on channel=0 note=83 velocity=0 time=0
note_on channel=0 note=79 velocity=80 time=8
note_on channel=0 note=79 velocity=0 time=16
note_on channel=0 note=72 velocity=80 time=8
note_on channel=0 note=84 velocity=80 time=0
note_on channel=0 note=84 velocity=0 time=16
note_on channel=0 note=72 velocity=0 time=0
note_on channel=0 note=76 velocity=80 time=8
note_on channel=0 note=76 velocity=0 time=16
note_on channel=0 note=79 velocity=80 time=8
note_on channel=0 note=79 velocity=0 time=16
note_on channel=0 note=72 velocity=80 time=8
note_on channel=0 note=84 velocity=80 time=0
note_on channel=0 note=84 velocity=0 time=32
note_on channel=0 note=72 velocity=0 time=0
note_on channel=0 note=79 velocity=80 time=16
note_on channel=0 note=79 velocity=0 time=16
note_on channel=0 note=84 velocity=80 time=8
note_on channel=0 note=72 velocity=80 time=0
note_on channel=0 note=72 velocity=0 time=16
note_on channel=0 note=84 velocity=0 time=0
note_on channel=0 note=79 velocity=80 time=8
note_on channel=0 note=79 velocity=0 time=16
note_on channel=0 note=84 velocity=80 time=8
note_on channel=0 note=72 velocity=80 time=0
note_on channel=0 note=72 velocity=0 time=16
note_on channel=0 note=84 velocity=0 time=0
note_on channel=0 note=77 velocity=80 time=8
note_on channel=0 note=77 velocity=0 time=16
note_on channel=0 note=81 velocity=80 time=8
note_on channel=0 note=81 velocity=0 time=16
note_on channel=0 note=84 velocity=80 time=8
note_on channel=0 note=72 velocity=80 time=0
note_on channel=0 note=72 velocity=0 time=32
note_on channel=0 note=84 velocity=0 time=0
note_on channel=0 note=77 velocity=80 time=16
note_on channel=0 note=77 velocity=0 time=16
note_on channel=0 note=72 velocity=80 time=8
note_on channel=0 note=84 velocity=80 time=0
note_on channel=0 note=84 velocity=0 time=32
note_on channel=0 note=72 velocity=0 time=0
note_on channel=0 note=66 velocity=80 time=16
note_on channel=0 note=76 velocity=80 time=0
note_on channel=0 note=76 velocity=0 time=16
note_on channel=0 note=74 velocity=80 time=8
note_on channel=0 note=74 velocity=0 time=16
note_on channel=0 note=72 velocity=80 time=8
note_on channel=0 note=72 velocity=0 time=16
note_on channel=0 note=66 velocity=0 time=0
note_on channel=0 note=74 velocity=80 time=8
note_on channel=0 note=74 velocity=0 time=16
note_on channel=0 note=66 velocity=80 time=8
note_on channel=0 note=72 velocity=80 time=0
note_on channel=0 note=76 velocity=80 time=0
note_on channel=0 note=76 velocity=0 time=32
note_on channel=0 note=74 velocity=80 time=16
note_on channel=0 note=72 velocity=0 time=16
note_on channel=0 note=66 velocity=0 time=0
note_on channel=0 note=74 velocity=0 time=16
note_on channel=0 note=67 velocity=80 time=16
note_on channel=0 note=71 velocity=80 time=0
note_on channel=0 note=79 velocity=80 time=0
note_on channel=0 note=79 velocity=0 time=32
note_on channel=0 note=71 velocity=0 time=0
note_on channel=0 note=67 velocity=0 time=0
note_on channel=0 note=79 velocity=80 time=16
note_on channel=0 note=67 velocity=80 time=0
note_on channel=0 note=67 velocity=0 time=32
note_on channel=0 note=79 velocity=0 time=0
note_on channel=0 note=69 velocity=80 time=16
note_on channel=0 note=81 velocity=80 time=0
note_on channel=0 note=81 velocity=0 time=32
note_on channel=0 note=69 velocity=0 time=0
note_on channel=0 note=83 velocity=80 time=16
note_on channel=0 note=71 velocity=80 time=0
note_on channel=0 note=71 velocity=0 time=32
note_on channel=0 note=83 velocity=0 time=0
note_on channel=0 note=84 velocity=80 time=16
note_on channel=0 note=72 velocity=80 time=0
note_on channel=0 note=72 velocity=0 time=16
note_on channel=0 note=84 velocity=0 time=0
note_on channel=0 note=76 velocity=80 time=8
note_on channel=0 note=76 velocity=0 time=16
note_on channel=0 note=79 velocity=80 time=8
note_on channel=0 note=79 velocity=0 time=16
note_on channel=0 note=81 velocity=80 time=8
note_on channel=0 note=69 velocity=80 time=0
note_on channel=0 note=69 velocity=0 time=32
note_on channel=0 note=81 velocity=0 time=0
note_on channel=0 note=79 velocity=80 time=16
note_on channel=0 note=79 velocity=0 time=16
note_on channel=0 note=81 velocity=80 time=8
note_on channel=0 note=69 velocity=80 time=0
note_on channel=0 note=69 velocity=0 time=16
note_on channel=0 note=81 velocity=0 time=0
note_on channel=0 note=79 velocity=80 time=8
note_on channel=0 note=79 velocity=0 time=16
note_on channel=0 note=83 velocity=80 time=8
note_on channel=0 note=71 velocity=80 time=0
note_on channel=0 note=71 velocity=0 time=16
note_on channel=0 note=83 velocity=0 time=0
note_on channel=0 note=77 velocity=80 time=8
note_on channel=0 note=77 velocity=0 time=16
note_on channel=0 note=79 velocity=80 time=8
note_on channel=0 note=79 velocity=0 time=16
note_on channel=0 note=81 velocity=80 time=8
note_on channel=0 note=69 velocity=80 time=0
note_on channel=0 note=69 velocity=0 time=32
note_on channel=0 note=81 velocity=0 time=0
note_on channel=0 note=79 velocity=80 time=16
note_on channel=0 note=79 velocity=0 time=16
note_on channel=0 note=83 velocity=80 time=8
note_on channel=0 note=71 velocity=80 time=0
note_on channel=0 note=71 velocity=0 time=16
note_on channel=0 note=83 velocity=0 time=0
note_on channel=0 note=79 velocity=80 time=8
note_on channel=0 note=79 velocity=0 time=16
note_on channel=0 note=72 velocity=80 time=8
note_on channel=0 note=84 velocity=80 time=0
note_on channel=0 note=84 velocity=0 time=16
note_on channel=0 note=72 velocity=0 time=0
note_on channel=0 note=76 velocity=80 time=8
note_on channel=0 note=76 velocity=0 time=16
note_on channel=0 note=79 velocity=80 time=8
note_on channel=0 note=79 velocity=0 time=16
note_on channel=0 note=69 velocity=80 time=8
note_on channel=0 note=81 velocity=80 time=0
note_on channel=0 note=81 velocity=0 time=32
note_on channel=0 note=69 velocity=0 time=0
note_on channel=0 note=79 velocity=80 time=16
note_on channel=0 note=79 velocity=0 time=16
note_on channel=0 note=82 velocity=80 time=8
note_on channel=0 note=70 velocity=80 time=0
note_on channel=0 note=70 velocity=0 time=16
note_on channel=0 note=82 velocity=0 time=0
note_on channel=0 note=79 velocity=80 time=8
note_on channel=0 note=79 velocity=0 time=16
note_on channel=0 note=83 velocity=80 time=8
note_on channel=0 note=71 velocity=80 time=0
note_on channel=0 note=71 velocity=0 time=16
note_on channel=0 note=83 velocity=0 time=0
note_on channel=0 note=77 velocity=80 time=8
note_on channel=0 note=77 velocity=0 time=16
note_on channel=0 note=79 velocity=80 time=8
note_on channel=0 note=79 velocity=0 time=16
note_on channel=0 note=81 velocity=80 time=8
note_on channel=0 note=69 velocity=80 time=0
note_on channel=0 note=69 velocity=0 time=32
note_on channel=0 note=81 velocity=0 time=0
note_on channel=0 note=79 velocity=80 time=16
note_on channel=0 note=79 velocity=0 time=16
note_on channel=0 note=83 velocity=80 time=8
note_on channel=0 note=71 velocity=80 time=0
note_on channel=0 note=71 velocity=0 time=16
note_on channel=0 note=83 velocity=0 time=0
note_on channel=0 note=79 velocity=80 time=8
note_on channel=0 note=79 velocity=0 time=16
note_on channel=0 note=72 velocity=80 time=8
note_on channel=0 note=84 velocity=80 time=0
note_on channel=0 note=84 velocity=0 time=16
note_on channel=0 note=72 velocity=0 time=0
note_on channel=0 note=76 velocity=80 time=8
note_on channel=0 note=76 velocity=0 time=16
note_on channel=0 note=79 velocity=80 time=8
note_on channel=0 note=79 velocity=0 time=16
note_on channel=0 note=72 velocity=80 time=8
note_on channel=0 note=84 velocity=80 time=0
note_on channel=0 note=84 velocity=0 time=32
note_on channel=0 note=72 velocity=0 time=0
note_on channel=0 note=79 velocity=80 time=16
note_on channel=0 note=79 velocity=0 time=16
note_on channel=0 note=84 velocity=80 time=8
note_on channel=0 note=72 velocity=80 time=0
note_on channel=0 note=72 velocity=0 time=16
note_on channel=0 note=84 velocity=0 time=0
note_on channel=0 note=79 velocity=80 time=8
note_on channel=0 note=79 velocity=0 time=16
note_on channel=0 note=84 velocity=80 time=8
note_on channel=0 note=72 velocity=80 time=0
note_on channel=0 note=72 velocity=0 time=16
note_on channel=0 note=84 velocity=0 time=0
note_on channel=0 note=77 velocity=80 time=8
note_on channel=0 note=77 velocity=0 time=16
note_on channel=0 note=81 velocity=80 time=8
note_on channel=0 note=81 velocity=0 time=16
note_on channel=0 note=84 velocity=80 time=8
note_on channel=0 note=72 velocity=80 time=0
note_on channel=0 note=72 velocity=0 time=32
note_on channel=0 note=84 velocity=0 time=0
note_on channel=0 note=81 velocity=80 time=16
note_on channel=0 note=81 velocity=0 time=16
note_on channel=0 note=84 velocity=80 time=8
note_on channel=0 note=84 velocity=0 time=32
note_on channel=0 note=79 velocity=80 time=16
note_on channel=0 note=79 velocity=0 time=16
note_on channel=0 note=72 velocity=80 time=8
note_on channel=0 note=72 velocity=0 time=16
note_on channel=0 note=76 velocity=80 time=8
note_on channel=0 note=76 velocity=0 time=16
note_on channel=0 note=77 velocity=80 time=8
note_on channel=0 note=77 velocity=0 time=32
note_on channel=0 note=69 velocity=80 time=16
note_on channel=0 note=69 velocity=0 time=16
note_on channel=0 note=65 velocity=80 time=8
note_on channel=0 note=67 velocity=80 time=0
note_on channel=0 note=71 velocity=80 time=0
note_on channel=0 note=71 velocity=0 time=32
note_on channel=0 note=67 velocity=0 time=0
note_on channel=0 note=65 velocity=0 time=0
note_on channel=0 note=64 velocity=80 time=16
note_on channel=0 note=67 velocity=80 time=0
note_on channel=0 note=72 velocity=80 time=0
note_on channel=0 note=72 velocity=0 time=32
note_on channel=0 note=67 velocity=0 time=0
note_on channel=0 note=64 velocity=0 time=0
note_on channel=0 note=79 velocity=80 time=16
note_on channel=0 note=67 velocity=80 time=0
note_on channel=0 note=67 velocity=0 time=32
note_on channel=0 note=79 velocity=0 time=0
note_on channel=0 note=69 velocity=80 time=16
note_on channel=0 note=81 velocity=80 time=0
note_on channel=0 note=81 velocity=0 time=32
note_on channel=0 note=69 velocity=0 time=0
note_on channel=0 note=83 velocity=80 time=16
note_on channel=0 note=71 velocity=80 time=0
note_on channel=0 note=71 velocity=0 time=32
note_on channel=0 note=83 velocity=0 time=0
note_on channel=0 note=84 velocity=80 time=16
note_on channel=0 note=72 velocity=80 time=0
note_on channel=0 note=72 velocity=0 time=16
note_on channel=0 note=84 velocity=0 time=0
note_on channel=0 note=76 velocity=80 time=8
note_on channel=0 note=76 velocity=0 time=16
note_on channel=0 note=79 velocity=80 time=8
note_on channel=0 note=79 velocity=0 time=16
note_on channel=0 note=81 velocity=80 time=8
note_on channel=0 note=69 velocity=80 time=0
note_on channel=0 note=69 velocity=0 time=32
note_on channel=0 note=81 velocity=0 time=0
note_on channel=0 note=79 velocity=80 time=16
note_on channel=0 note=79 velocity=0 time=16
note_on channel=0 note=81 velocity=80 time=8
note_on channel=0 note=69 velocity=80 time=0
note_on channel=0 note=69 velocity=0 time=16
note_on channel=0 note=81 velocity=0 time=0
note_on channel=0 note=79 velocity=80 time=8
note_on channel=0 note=79 velocity=0 time=16
note_on channel=0 note=83 velocity=80 time=8
note_on channel=0 note=71 velocity=80 time=0
note_on channel=0 note=71 velocity=0 time=16
note_on channel=0 note=83 velocity=0 time=0
note_on channel=0 note=77 velocity=80 time=8
note_on channel=0 note=77 velocity=0 time=16
note_on channel=0 note=79 velocity=80 time=8
note_on channel=0 note=79 velocity=0 time=16
note_on channel=0 note=81 velocity=80 time=8
note_on channel=0 note=69 velocity=80 time=0
note_on channel=0 note=69 velocity=0 time=32
note_on channel=0 note=81 velocity=0 time=0
note_on channel=0 note=79 velocity=80 time=16
note_on channel=0 note=79 velocity=0 time=16
note_on channel=0 note=83 velocity=80 time=8
note_on channel=0 note=71 velocity=80 time=0
note_on channel=0 note=71 velocity=0 time=16
note_on channel=0 note=83 velocity=0 time=0
note_on channel=0 note=79 velocity=80 time=8
note_on channel=0 note=79 velocity=0 time=16
note_on channel=0 note=72 velocity=80 time=8
note_on channel=0 note=84 velocity=80 time=0
note_on channel=0 note=84 velocity=0 time=16
note_on channel=0 note=72 velocity=0 time=0
note_on channel=0 note=76 velocity=80 time=8
note_on channel=0 note=76 velocity=0 time=16
note_on channel=0 note=79 velocity=80 time=8
note_on channel=0 note=79 velocity=0 time=16
note_on channel=0 note=69 velocity=80 time=8
note_on channel=0 note=81 velocity=80 time=0
note_on channel=0 note=81 velocity=0 time=32
note_on channel=0 note=69 velocity=0 time=0
note_on channel=0 note=79 velocity=80 time=16
note_on channel=0 note=79 velocity=0 time=16
note_on channel=0 note=82 velocity=80 time=8
note_on channel=0 note=70 velocity=80 time=0
note_on channel=0 note=70 velocity=0 time=16
note_on channel=0 note=82 velocity=0 time=0
note_on channel=0 note=79 velocity=80 time=8
note_on channel=0 note=79 velocity=0 time=16
note_on channel=0 note=83 velocity=80 time=8
note_on channel=0 note=71 velocity=80 time=0
note_on channel=0 note=71 velocity=0 time=16
note_on channel=0 note=83 velocity=0 time=0
note_on channel=0 note=77 velocity=80 time=8
note_on channel=0 note=77 velocity=0 time=16
note_on channel=0 note=79 velocity=80 time=8
note_on channel=0 note=79 velocity=0 time=16
note_on channel=0 note=81 velocity=80 time=8
note_on channel=0 note=69 velocity=80 time=0
note_on channel=0 note=69 velocity=0 time=32
note_on channel=0 note=81 velocity=0 time=0
note_on channel=0 note=79 velocity=80 time=16
note_on channel=0 note=79 velocity=0 time=16
note_on channel=0 note=83 velocity=80 time=8
note_on channel=0 note=71 velocity=80 time=0
note_on channel=0 note=71 velocity=0 time=16
note_on channel=0 note=83 velocity=0 time=0
note_on channel=0 note=79 velocity=80 time=8
note_on channel=0 note=79 velocity=0 time=16
note_on channel=0 note=72 velocity=80 time=8
note_on channel=0 note=84 velocity=80 time=0
note_on channel=0 note=84 velocity=0 time=16
note_on channel=0 note=72 velocity=0 time=0
note_on channel=0 note=76 velocity=80 time=8
note_on channel=0 note=76 velocity=0 time=16
note_on channel=0 note=79 velocity=80 time=8
note_on channel=0 note=79 velocity=0 time=16
note_on channel=0 note=72 velocity=80 time=8
note_on channel=0 note=84 velocity=80 time=0
note_on channel=0 note=84 velocity=0 time=32
note_on channel=0 note=72 velocity=0 time=0
note_on channel=0 note=79 velocity=80 time=16
note_on channel=0 note=79 velocity=0 time=16
note_on channel=0 note=84 velocity=80 time=8
note_on channel=0 note=72 velocity=80 time=0
note_on channel=0 note=72 velocity=0 time=16
note_on channel=0 note=84 velocity=0 time=0
note_on channel=0 note=79 velocity=80 time=8
note_on channel=0 note=79 velocity=0 time=16
note_on channel=0 note=84 velocity=80 time=8
note_on channel=0 note=72 velocity=80 time=0
note_on channel=0 note=72 velocity=0 time=16
note_on channel=0 note=84 velocity=0 time=0
note_on channel=0 note=77 velocity=80 time=8
note_on channel=0 note=77 velocity=0 time=16
note_on channel=0 note=81 velocity=80 time=8
note_on channel=0 note=81 velocity=0 time=16
note_on channel=0 note=84 velocity=80 time=8
note_on channel=0 note=72 velocity=80 time=0
note_on channel=0 note=72 velocity=0 time=32
note_on channel=0 note=84 velocity=0 time=0
note_on channel=0 note=77 velocity=80 time=16
note_on channel=0 note=77 velocity=0 time=16
note_on channel=0 note=72 velocity=80 time=8
note_on channel=0 note=84 velocity=80 time=0
note_on channel=0 note=84 velocity=0 time=32
note_on channel=0 note=72 velocity=0 time=0
note_on channel=0 note=66 velocity=80 time=16
note_on channel=0 note=76 velocity=80 time=0
note_on channel=0 note=76 velocity=0 time=16
note_on channel=0 note=74 velocity=80 time=8
note_on channel=0 note=74 velocity=0 time=16
note_on channel=0 note=72 velocity=80 time=8
note_on channel=0 note=72 velocity=0 time=16
note_on channel=0 note=66 velocity=0 time=0
note_on channel=0 note=74 velocity=80 time=8
note_on channel=0 note=74 velocity=0 time=16
note_on channel=0 note=66 velocity=80 time=8
note_on channel=0 note=72 velocity=80 time=0
note_on channel=0 note=76 velocity=80 time=0
note_on channel=0 note=76 velocity=0 time=32
note_on channel=0 note=74 velocity=80 time=16
note_on channel=0 note=72 velocity=0 time=16
note_on channel=0 note=66 velocity=0 time=0
note_on channel=0 note=74 velocity=0 time=16
note_on channel=0 note=67 velocity=80 time=16
note_on channel=0 note=71 velocity=80 time=0
note_on channel=0 note=79 velocity=80 time=0
note_on channel=0 note=79 velocity=0 time=32
note_on channel=0 note=71 velocity=0 time=0
note_on channel=0 note=67 velocity=0 time=0
note_on channel=0 note=79 velocity=80 time=16
note_on channel=0 note=67 velocity=80 time=0
note_on channel=0 note=67 velocity=0 time=32
note_on channel=0 note=79 velocity=0 time=0
note_on channel=0 note=69 velocity=80 time=16
note_on channel=0 note=81 velocity=80 time=0
note_on channel=0 note=81 velocity=0 time=32
note_on channel=0 note=69 velocity=0 time=0
note_on channel=0 note=83 velocity=80 time=16
note_on channel=0 note=71 velocity=80 time=0
note_on channel=0 note=71 velocity=0 time=32
note_on channel=0 note=83 velocity=0 time=0
note_on channel=0 note=84 velocity=80 time=16
note_on channel=0 note=72 velocity=80 time=0
note_on channel=0 note=72 velocity=0 time=16
note_on channel=0 note=84 velocity=0 time=0
note_on channel=0 note=76 velocity=80 time=8
note_on channel=0 note=76 velocity=0 time=16
note_on channel=0 note=79 velocity=80 time=8
note_on channel=0 note=79 velocity=0 time=16
note_on channel=0 note=81 velocity=80 time=8
note_on channel=0 note=69 velocity=80 time=0
note_on channel=0 note=69 velocity=0 time=32
note_on channel=0 note=81 velocity=0 time=0
note_on channel=0 note=79 velocity=80 time=16
note_on channel=0 note=79 velocity=0 time=16
note_on channel=0 note=81 velocity=80 time=8
note_on channel=0 note=69 velocity=80 time=0
note_on channel=0 note=69 velocity=0 time=16
note_on channel=0 note=81 velocity=0 time=0
note_on channel=0 note=79 velocity=80 time=8
note_on channel=0 note=79 velocity=0 time=16
note_on channel=0 note=83 velocity=80 time=8
note_on channel=0 note=71 velocity=80 time=0
note_on channel=0 note=71 velocity=0 time=16
note_on channel=0 note=83 velocity=0 time=0
note_on channel=0 note=77 velocity=80 time=8
note_on channel=0 note=77 velocity=0 time=16
note_on channel=0 note=79 velocity=80 time=8
note_on channel=0 note=79 velocity=0 time=16
note_on channel=0 note=81 velocity=80 time=8
note_on channel=0 note=69 velocity=80 time=0
note_on channel=0 note=69 velocity=0 time=32
note_on channel=0 note=81 velocity=0 time=0
note_on channel=0 note=79 velocity=80 time=16
note_on channel=0 note=79 velocity=0 time=16
note_on channel=0 note=83 velocity=80 time=8
note_on channel=0 note=71 velocity=80 time=0
note_on channel=0 note=71 velocity=0 time=16
note_on channel=0 note=83 velocity=0 time=0
note_on channel=0 note=79 velocity=80 time=8
note_on channel=0 note=79 velocity=0 time=16
note_on channel=0 note=72 velocity=80 time=8
note_on channel=0 note=84 velocity=80 time=0
note_on channel=0 note=84 velocity=0 time=16
note_on channel=0 note=72 velocity=0 time=0
note_on channel=0 note=76 velocity=80 time=8
note_on channel=0 note=76 velocity=0 time=16
note_on channel=0 note=79 velocity=80 time=8
note_on channel=0 note=79 velocity=0 time=16
note_on channel=0 note=69 velocity=80 time=8
note_on channel=0 note=81 velocity=80 time=0
note_on channel=0 note=81 velocity=0 time=32
note_on channel=0 note=69 velocity=0 time=0
note_on channel=0 note=79 velocity=80 time=16
note_on channel=0 note=79 velocity=0 time=16
note_on channel=0 note=82 velocity=80 time=8
note_on channel=0 note=70 velocity=80 time=0
note_on channel=0 note=70 velocity=0 time=16
note_on channel=0 note=82 velocity=0 time=0
note_on channel=0 note=79 velocity=80 time=8
note_on channel=0 note=79 velocity=0 time=16
note_on channel=0 note=83 velocity=80 time=8
note_on channel=0 note=71 velocity=80 time=0
note_on channel=0 note=71 velocity=0 time=16
note_on channel=0 note=83 velocity=0 time=0
note_on channel=0 note=77 velocity=80 time=8
note_on channel=0 note=77 velocity=0 time=16
note_on channel=0 note=79 velocity=80 time=8
note_on channel=0 note=79 velocity=0 time=16
note_on channel=0 note=81 velocity=80 time=8
note_on channel=0 note=69 velocity=80 time=0
note_on channel=0 note=69 velocity=0 time=32
note_on channel=0 note=81 velocity=0 time=0
note_on channel=0 note=79 velocity=80 time=16
note_on channel=0 note=79 velocity=0 time=16
note_on channel=0 note=83 velocity=80 time=8
note_on channel=0 note=71 velocity=80 time=0
note_on channel=0 note=71 velocity=0 time=16
note_on channel=0 note=83 velocity=0 time=0
note_on channel=0 note=79 velocity=80 time=8
note_on channel=0 note=79 velocity=0 time=16
note_on channel=0 note=72 velocity=80 time=8
note_on channel=0 note=84 velocity=80 time=0
note_on channel=0 note=84 velocity=0 time=16
note_on channel=0 note=72 velocity=0 time=0
note_on channel=0 note=76 velocity=80 time=8
note_on channel=0 note=76 velocity=0 time=16
note_on channel=0 note=79 velocity=80 time=8
note_on channel=0 note=79 velocity=0 time=16
note_on channel=0 note=72 velocity=80 time=8
note_on channel=0 note=84 velocity=80 time=0
note_on channel=0 note=84 velocity=0 time=32
note_on channel=0 note=72 velocity=0 time=0
note_on channel=0 note=79 velocity=80 time=16
note_on channel=0 note=79 velocity=0 time=16
note_on channel=0 note=84 velocity=80 time=8
note_on channel=0 note=72 velocity=80 time=0
note_on channel=0 note=72 velocity=0 time=16
note_on channel=0 note=84 velocity=0 time=0
note_on channel=0 note=79 velocity=80 time=8
note_on channel=0 note=79 velocity=0 time=16
note_on channel=0 note=84 velocity=80 time=8
note_on channel=0 note=72 velocity=80 time=0
note_on channel=0 note=72 velocity=0 time=16
note_on channel=0 note=84 velocity=0 time=0
note_on channel=0 note=77 velocity=80 time=8
note_on channel=0 note=77 velocity=0 time=16
note_on channel=0 note=81 velocity=80 time=8
note_on channel=0 note=81 velocity=0 time=16
note_on channel=0 note=84 velocity=80 time=8
note_on channel=0 note=72 velocity=80 time=0
note_on channel=0 note=72 velocity=0 time=32
note_on channel=0 note=84 velocity=0 time=0
note_on channel=0 note=81 velocity=80 time=16
note_on channel=0 note=81 velocity=0 time=16
note_on channel=0 note=84 velocity=80 time=8
note_on channel=0 note=84 velocity=0 time=32
note_on channel=0 note=79 velocity=80 time=16
note_on channel=0 note=79 velocity=0 time=16
note_on channel=0 note=72 velocity=80 time=8
note_on channel=0 note=72 velocity=0 time=16
note_on channel=0 note=76 velocity=80 time=8
note_on channel=0 note=76 velocity=0 time=16
note_on channel=0 note=77 velocity=80 time=8
note_on channel=0 note=77 velocity=0 time=32
note_on channel=0 note=69 velocity=80 time=16
note_on channel=0 note=69 velocity=0 time=16
note_on channel=0 note=65 velocity=80 time=8
note_on channel=0 note=67 velocity=80 time=0
note_on channel=0 note=71 velocity=80 time=0
note_on channel=0 note=71 velocity=0 time=32
note_on channel=0 note=67 velocity=0 time=0
note_on channel=0 note=65 velocity=0 time=0
note_on channel=0 note=64 velocity=80 time=16
note_on channel=0 note=67 velocity=80 time=0
note_on channel=0 note=72 velocity=80 time=0
note_on channel=0 note=72 velocity=0 time=64
note_on channel=0 note=67 velocity=0 time=0
note_on channel=0 note=64 velocity=0 time=0
note_on channel=0 note=72 velocity=80 time=32
note_on channel=0 note=76 velocity=80 time=0
note_on channel=0 note=79 velocity=80 time=0
note_on channel=0 note=84 velocity=80 time=0
note_on channel=0 note=84 velocity=0 time=32
note_on channel=0 note=72 velocity=0 time=0
note_on channel=0 note=76 velocity=0 time=0
note_on channel=0 note=79 velocity=0 time=0
<meta message end_of_track time=0>
<meta message midi_port port=0 time=0>
<meta message track_name name='by S.Joplin & S.Hayden (1913) ' time=0>
program_change channel=1 program=0 time=0
control_change channel=1 control=7 value=127 time=0
control_change channel=1 control=10 value=40 time=0
control_change channel=1 control=121 value=0 time=8
control_change channel=1 control=1 value=0 time=16
control_change channel=1 control=64 value=0 time=8
aftertouch channel=1 value=0 time=11
pitchwheel channel=1 pitch=0 time=6
control_change channel=1 control=93 value=12 time=2
control_change channel=1 control=91 value=21 time=0
control_change channel=1 control=7 value=127 time=21
control_change channel=1 control=10 value=44 time=4
note_on channel=1 note=55 velocity=80 time=68
note_on channel=1 note=55 velocity=0 time=32
note_on channel=1 note=60 velocity=80 time=16
note_on channel=1 note=60 velocity=0 time=112
note_on channel=1 note=55 velocity=80 time=8
note_on channel=1 note=55 velocity=0 time=16
note_on channel=1 note=60 velocity=80 time=8
note_on channel=1 note=60 velocity=0 time=16
note_on channel=1 note=64 velocity=80 time=8
note_on channel=1 note=64 velocity=0 time=16
note_on channel=1 note=62 velocity=80 time=200
note_on channel=1 note=62 velocity=0 time=16
note_on channel=1 note=64 velocity=80 time=8
note_on channel=1 note=64 velocity=0 time=16
note_on channel=1 note=62 velocity=80 time=8
note_on channel=1 note=62 velocity=0 time=16
note_on channel=1 note=60 velocity=80 time=8
note_on channel=1 note=60 velocity=0 time=16
note_on channel=1 note=59 velocity=80 time=8
note_on channel=1 note=59 velocity=0 time=16
note_on channel=1 note=60 velocity=80 time=8
note_on channel=1 note=60 velocity=0 time=16
note_on channel=1 note=59 velocity=80 time=8
note_on channel=1 note=59 velocity=0 time=16
note_on channel=1 note=57 velocity=80 time=8
note_on channel=1 note=57 velocity=0 time=16
note_on channel=1 note=55 velocity=80 time=8
note_on channel=1 note=55 velocity=0 time=32
note_on channel=1 note=55 velocity=80 time=64
note_on channel=1 note=43 velocity=80 time=0
note_on channel=1 note=43 velocity=0 time=32
note_on channel=1 note=55 velocity=0 time=0
note_on channel=1 note=41 velocity=80 time=16
note_on channel=1 note=53 velocity=80 time=0
note_on channel=1 note=53 velocity=0 time=32
note_on channel=1 note=41 velocity=0 time=0
note_on channel=1 note=52 velocity=80 time=16
note_on channel=1 note=40 velocity=80 time=0
note_on channel=1 note=40 velocity=0 time=32
note_on channel=1 note=52 velocity=0 time=0
note_on channel=1 note=55 velocity=80 time=16
note_on channel=1 note=60 velocity=80 time=0
note_on channel=1 note=64 velocity=80 time=0
note_on channel=1 note=64 velocity=0 time=32
note_on channel=1 note=60 velocity=0 time=0
note_on channel=1 note=55 velocity=0 time=0
note_on channel=1 note=43 velocity=80 time=16
note_on channel=1 note=43 velocity=0 time=32
note_on channel=1 note=55 velocity=80 time=16
note_on channel=1 note=60 velocity=80 time=0
note_on channel=1 note=64 velocity=80 time=0
note_on channel=1 note=64 velocity=0 time=32
note_on channel=1 note=60 velocity=0 time=0
note_on channel=1 note=55 velocity=0 time=0
note_on channel=1 note=48 velocity=80 time=16
note_on channel=1 note=48 velocity=0 time=32
note_on channel=1 note=55 velocity=80 time=16
note_on channel=1 note=60 velocity=80 time=0
note_on channel=1 note=64 velocity=80 time=0
note_on channel=1 note=64 velocity=0 time=32
note_on channel=1 note=60 velocity=0 time=0
note_on channel=1 note=55 velocity=0 time=0
note_on channel=1 note=58 velocity=80 time=16
note_on channel=1 note=46 velocity=80 time=0
note_on channel=1 note=46 velocity=0 time=32
note_on channel=1 note=58 velocity=0 time=0
note_on channel=1 note=55 velocity=80 time=16
note_on channel=1 note=58 velocity=80 time=0
note_on channel=1 note=60 velocity=80 time=0
note_on channel=1 note=64 velocity=80 time=0
note_on channel=1 note=64 velocity=0 time=32
note_on channel=1 note=55 velocity=0 time=0
note_on channel=1 note=58 velocity=0 time=0
note_on channel=1 note=60 velocity=0 time=0
note_on channel=1 note=57 velocity=80 time=16
note_on channel=1 note=45 velocity=80 time=0
note_on channel=1 note=45 velocity=0 time=32
note_on channel=1 note=57 velocity=0 time=0
note_on channel=1 note=53 velocity=80 time=16
note_on channel=1 note=41 velocity=80 time=0
note_on channel=1 note=41 velocity=0 time=32
note_on channel=1 note=53 velocity=0 time=0
note_on channel=1 note=50 velocity=80 time=16
note_on channel=1 note=38 velocity=80 time=0
note_on channel=1 note=38 velocity=0 time=32
note_on channel=1 note=50 velocity=0 time=0
note_on channel=1 note=39 velocity=80 time=16
note_on channel=1 note=51 velocity=80 time=0
note_on channel=1 note=51 velocity=0 time=32
note_on channel=1 note=39 velocity=0 time=0
note_on channel=1 note=52 velocity=80 time=16
note_on channel=1 note=40 velocity=80 time=0
note_on channel=1 note=40 velocity=0 time=32
note_on channel=1 note=52 velocity=0 time=0
note_on channel=1 note=43 velocity=80 time=16
note_on channel=1 note=55 velocity=80 time=0
note_on channel=1 note=55 velocity=0 time=32
note_on channel=1 note=43 velocity=0 time=0
note_on channel=1 note=54 velocity=80 time=16
note_on channel=1 note=42 velocity=80 time=0
note_on channel=1 note=42 velocity=0 time=32
note_on channel=1 note=54 velocity=0 time=0
note_on channel=1 note=41 velocity=80 time=16
note_on channel=1 note=53 velocity=80 time=0
note_on channel=1 note=53 velocity=0 time=32
note_on channel=1 note=41 velocity=0 time=0
note_on channel=1 note=52 velocity=80 time=16
note_on channel=1 note=40 velocity=80 time=0
note_on channel=1 note=40 velocity=0 time=32
note_on channel=1 note=52 velocity=0 time=0
note_on channel=1 note=55 velocity=80 time=16
note_on channel=1 note=60 velocity=80 time=0
note_on channel=1 note=64 velocity=80 time=0
note_on channel=1 note=64 velocity=0 time=32
note_on channel=1 note=60 velocity=0 time=0
note_on channel=1 note=55 velocity=0 time=0
note_on channel=1 note=43 velocity=80 time=16
note_on channel=1 note=43 velocity=0 time=32
note_on channel=1 note=55 velocity=80 time=16
note_on channel=1 note=60 velocity=80 time=0
note_on channel=1 note=64 velocity=80 time=0
note_on channel=1 note=64 velocity=0 time=32
note_on channel=1 note=60 velocity=0 time=0
note_on channel=1 note=55 velocity=0 time=0
note_on channel=1 note=48 velocity=80 time=16
note_on channel=1 note=48 velocity=0 time=32
note_on channel=1 note=55 velocity=80 time=16
note_on channel=1 note=60 velocity=80 time=0
note_on channel=1 note=64 velocity=80 time=0
note_on channel=1 note=64 velocity=0 time=32
note_on channel=1 note=60 velocity=0 time=0
note_on channel=1 note=55 velocity=0 time=0
note_on channel=1 note=57 velocity=80 time=16
note_on channel=1 note=45 velocity=80 time=0
note_on channel=1 note=45 velocity=0 time=32
note_on channel=1 note=57 velocity=0 time=0
note_on channel=1 note=55 velocity=80 time=16
note_on channel=1 note=43 velocity=80 time=0
note_on channel=1 note=43 velocity=0 time=32
note_on channel=1 note=55 velocity=0 time=0
note_on channel=1 note=54 velocity=80 time=16
note_on channel=1 note=42 velocity=80 time=0
note_on channel=1 note=42 velocity=0 time=32
note_on channel=1 note=54 velocity=0 time=0
note_on channel=1 note=54 velocity=80 time=16
note_on channel=1 note=57 velocity=80 time=0
note_on channel=1 note=60 velocity=80 time=0
note_on channel=1 note=62 velocity=80 time=0
note_on channel=1 note=62 velocity=0 time=32
note_on channel=1 note=54 velocity=0 time=0
note_on channel=1 note=57 velocity=0 time=0
note_on channel=1 note=60 velocity=0 time=0
note_on channel=1 note=50 velocity=80 time=16
note_on channel=1 note=38 velocity=80 time=0
note_on channel=1 note=38 velocity=0 time=32
note_on channel=1 note=50 velocity=0 time=0
note_on channel=1 note=57 velocity=80 time=16
note_on channel=1 note=60 velocity=80 time=0
note_on channel=1 note=62 velocity=80 time=0
note_on channel=1 note=62 velocity=0 time=32
note_on channel=1 note=60 velocity=0 time=0
note_on channel=1 note=57 velocity=0 time=0
note_on channel=1 note=62 velocity=80 time=16
note_on channel=1 note=59 velocity=80 time=0
note_on channel=1 note=55 velocity=80 time=0
note_on channel=1 note=55 velocity=0 time=32
note_on channel=1 note=59 velocity=0 time=0
note_on channel=1 note=62 velocity=0 time=0
note_on channel=1 note=55 velocity=80 time=16
note_on channel=1 note=43 velocity=80 time=0
note_on channel=1 note=43 velocity=0 time=32
note_on channel=1 note=55 velocity=0 time=0
note_on channel=1 note=45 velocity=80 time=16
note_on channel=1 note=57 velocity=80 time=0
note_on channel=1 note=57 velocity=0 time=32
note_on channel=1 note=45 velocity=0 time=0
note_on channel=1 note=59 velocity=80 time=16
note_on channel=1 note=47 velocity=80 time=0
note_on channel=1 note=47 velocity=0 time=32
note_on channel=1 note=59 velocity=0 time=0
note_on channel=1 note=60 velocity=80 time=16
note_on channel=1 note=48 velocity=80 time=0
note_on channel=1 note=48 velocity=0 time=32
note_on channel=1 note=60 velocity=0 time=0
note_on channel=1 note=55 velocity=80 time=16
note_on channel=1 note=60 velocity=80 time=0
note_on channel=1 note=64 velocity=80 time=0
note_on channel=1 note=64 velocity=0 time=32
note_on channel=1 note=60 velocity=0 time=0
note_on channel=1 note=55 velocity=0 time=0
note_on channel=1 note=43 velocity=80 time=16
note_on channel=1 note=43 velocity=0 time=32
note_on channel=1 note=55 velocity=80 time=16
note_on channel=1 note=60 velocity=80 time=0
note_on channel=1 note=64 velocity=80 time=0
note_on channel=1 note=64 velocity=0 time=32
note_on channel=1 note=60 velocity=0 time=0
note_on channel=1 note=55 velocity=0 time=0
note_on channel=1 note=48 velocity=80 time=16
note_on channel=1 note=48 velocity=0 time=32
note_on channel=1 note=55 velocity=80 time=16
note_on channel=1 note=60 velocity=80 time=0
note_on channel=1 note=64 velocity=80 time=0
note_on channel=1 note=64 velocity=0 time=32
note_on channel=1 note=60 velocity=0 time=0
note_on channel=1 note=55 velocity=0 time=0
note_on channel=1 note=58 velocity=80 time=16
note_on channel=1 note=46 velocity=80 time=0
note_on channel=1 note=46 velocity=0 time=32
note_on channel=1 note=58 velocity=0 time=0
note_on channel=1 note=55 velocity=80 time=16
note_on channel=1 note=58 velocity=80 time=0
note_on channel=1 note=60 velocity=80 time=0
note_on channel=1 note=64 velocity=80 time=0
note_on channel=1 note=64 velocity=0 time=32
note_on channel=1 note=55 velocity=0 time=0
note_on channel=1 note=58 velocity=0 time=0
note_on channel=1 note=60 velocity=0 time=0
note_on channel=1 note=57 velocity=80 time=16
note_on channel=1 note=45 velocity=80 time=0
note_on channel=1 note=45 velocity=0 time=32
note_on channel=1 note=57 velocity=0 time=0
note_on channel=1 note=53 velocity=80 time=16
note_on channel=1 note=41 velocity=80 time=0
note_on channel=1 note=41 velocity=0 time=32
note_on channel=1 note=53 velocity=0 time=0
note_on channel=1 note=50 velocity=80 time=16
note_on channel=1 note=38 velocity=80 time=0
note_on channel=1 note=38 velocity=0 time=32
note_on channel=1 note=50 velocity=0 time=0
note_on channel=1 note=39 velocity=80 time=16
note_on channel=1 note=51 velocity=80 time=0
note_on channel=1 note=51 velocity=0 time=32
note_on channel=1 note=39 velocity=0 time=0
note_on channel=1 note=52 velocity=80 time=16
note_on channel=1 note=40 velocity=80 time=0
note_on channel=1 note=40 velocity=0 time=32
note_on channel=1 note=52 velocity=0 time=0
note_on channel=1 note=64 velocity=80 time=16
note_on channel=1 note=60 velocity=80 time=0
note_on channel=1 note=55 velocity=80 time=0
note_on channel=1 note=55 velocity=0 time=32
note_on channel=1 note=60 velocity=0 time=0
note_on channel=1 note=64 velocity=0 time=0
note_on channel=1 note=60 velocity=80 time=16
note_on channel=1 note=48 velocity=80 time=0
note_on channel=1 note=48 velocity=0 time=32
note_on channel=1 note=60 velocity=0 time=0
note_on channel=1 note=58 velocity=80 time=16
note_on channel=1 note=46 velocity=80 time=0
note_on channel=1 note=46 velocity=0 time=32
note_on channel=1 note=58 velocity=0 time=0
note_on channel=1 note=57 velocity=80 time=16
note_on channel=1 note=45 velocity=80 time=0
note_on channel=1 note=45 velocity=0 time=32
note_on channel=1 note=57 velocity=0 time=0
note_on channel=1 note=53 velocity=80 time=16
note_on channel=1 note=41 velocity=80 time=0
note_on channel=1 note=41 velocity=0 time=32
note_on channel=1 note=53 velocity=0 time=0
note_on channel=1 note=50 velocity=80 time=16
note_on channel=1 note=38 velocity=80 time=0
note_on channel=1 note=38 velocity=0 time=32
note_on channel=1 note=50 velocity=0 time=0
note_on channel=1 note=39 velocity=80 time=16
note_on channel=1 note=51 velocity=80 time=0
note_on channel=1 note=51 velocity=0 time=32
note_on channel=1 note=39 velocity=0 time=0
note_on channel=1 note=52 velocity=80 time=16
note_on channel=1 note=40 velocity=80 time=0
note_on channel=1 note=40 velocity=0 time=32
note_on channel=1 note=52 velocity=0 time=0
note_on channel=1 note=55 velocity=80 time=16
note_on channel=1 note=60 velocity=80 time=0
note_on channel=1 note=64 velocity=80 time=0
note_on channel=1 note=64 velocity=0 time=32
note_on channel=1 note=60 velocity=0 time=0
note_on channel=1 note=55 velocity=0 time=0
note_on channel=1 note=43 velocity=80 time=16
note_on channel=1 note=43 velocity=0 time=32
note_on channel=1 note=55 velocity=80 time=16
note_on channel=1 note=60 velocity=80 time=0
note_on channel=1 note=64 velocity=80 time=0
note_on channel=1 note=64 velocity=0 time=32
note_on channel=1 note=60 velocity=0 time=0
note_on channel=1 note=55 velocity=0 time=0
note_on channel=1 note=62 velocity=80 time=16
note_on channel=1 note=50 velocity=80 time=0
note_on channel=1 note=50 velocity=0 time=64
note_on channel=1 note=62 velocity=0 time=0
note_on channel=1 note=43 velocity=80 time=32
note_on channel=1 note=55 velocity=80 time=0
note_on channel=1 note=55 velocity=0 time=64
note_on channel=1 note=43 velocity=0 time=0
note_on channel=1 note=60 velocity=80 time=32
note_on channel=1 note=48 velocity=80 time=0
note_on channel=1 note=48 velocity=0 time=32
note_on channel=1 note=60 velocity=0 time=0
note_on channel=1 note=55 velocity=80 time=16
note_on channel=1 note=43 velocity=80 time=0
note_on channel=1 note=43 velocity=0 time=32
note_on channel=1 note=55 velocity=0 time=0
note_on channel=1 note=42 velocity=80 time=16
note_on channel=1 note=54 velocity=80 time=0
note_on channel=1 note=54 velocity=0 time=32
note_on channel=1 note=42 velocity=0 time=0
note_on channel=1 note=53 velocity=80 time=16
note_on channel=1 note=41 velocity=80 time=0
note_on channel=1 note=41 velocity=0 time=32
note_on channel=1 note=53 velocity=0 time=0
note_on channel=1 note=52 velocity=80 time=16
note_on channel=1 note=40 velocity=80 time=0
note_on channel=1 note=40 velocity=0 time=32
note_on channel=1 note=52 velocity=0 time=0
note_on channel=1 note=55 velocity=80 time=16
note_on channel=1 note=60 velocity=80 time=0
note_on channel=1 note=64 velocity=80 time=0
note_on channel=1 note=64 velocity=0 time=32
note_on channel=1 note=60 velocity=0 time=0
note_on channel=1 note=55 velocity=0 time=0
note_on channel=1 note=43 velocity=80 time=16
note_on channel=1 note=43 velocity=0 time=32
note_on channel=1 note=55 velocity=80 time=16
note_on channel=1 note=60 velocity=80 time=0
note_on channel=1 note=64 velocity=80 time=0
note_on channel=1 note=64 velocity=0 time=32
note_on channel=1 note=60 velocity=0 time=0
note_on channel=1 note=55 velocity=0 time=0
note_on channel=1 note=48 velocity=80 time=16
note_on channel=1 note=48 velocity=0 time=32
note_on channel=1 note=55 velocity=80 time=16
note_on channel=1 note=60 velocity=80 time=0
note_on channel=1 note=64 velocity=80 time=0
note_on channel=1 note=64 velocity=0 time=32
note_on channel=1 note=60 velocity=0 time=0
note_on channel=1 note=55 velocity=0 time=0
note_on channel=1 note=58 velocity=80 time=16
note_on channel=1 note=46 velocity=80 time=0
note_on channel=1 note=46 velocity=0 time=32
note_on channel=1 note=58 velocity=0 time=0
note_on channel=1 note=55 velocity=80 time=16
note_on channel=1 note=58 velocity=80 time=0
note_on channel=1 note=60 velocity=80 time=0
note_on channel=1 note=64 velocity=80 time=0
note_on channel=1 note=64 velocity=0 time=32
note_on channel=1 note=55 velocity=0 time=0
note_on channel=1 note=58 velocity=0 time=0
note_on channel=1 note=60 velocity=0 time=0
note_on channel=1 note=57 velocity=80 time=16
note_on channel=1 note=45 velocity=80 time=0
note_on channel=1 note=45 velocity=0 time=32
note_on channel=1 note=57 velocity=0 time=0
note_on channel=1 note=53 velocity=80 time=16
note_on channel=1 note=41 velocity=80 time=0
note_on channel=1 note=41 velocity=0 time=32
note_on channel=1 note=53 velocity=0 time=0
note_on channel=1 note=50 velocity=80 time=16
note_on channel=1 note=38 velocity=80 time=0
note_on channel=1 note=38 velocity=0 time=32
note_on channel=1 note=50 velocity=0 time=0
note_on channel=1 note=39 velocity=80 time=16
note_on channel=1 note=51 velocity=80 time=0
note_on channel=1 note=51 velocity=0 time=32
note_on channel=1 note=39 velocity=0 time=0
note_on channel=1 note=52 velocity=80 time=16
note_on channel=1 note=40 velocity=80 time=0
note_on channel=1 note=40 velocity=0 time=32
note_on channel=1 note=52 velocity=0 time=0
note_on channel=1 note=43 velocity=80 time=16
note_on channel=1 note=55 velocity=80 time=0
note_on channel=1 note=55 velocity=0 time=32
note_on channel=1 note=43 velocity=0 time=0
note_on channel=1 note=54 velocity=80 time=16
note_on channel=1 note=42 velocity=80 time=0
note_on channel=1 note=42 velocity=0 time=32
note_on channel=1 note=54 velocity=0 time=0
note_on channel=1 note=41 velocity=80 time=16
note_on channel=1 note=53 velocity=80 time=0
note_on channel=1 note=53 velocity=0 time=32
note_on channel=1 note=41 velocity=0 time=0
note_on channel=1 note=52 velocity=80 time=16
note_on channel=1 note=40 velocity=80 time=0
note_on channel=1 note=40 velocity=0 time=32
note_on channel=1 note=52 velocity=0 time=0
note_on channel=1 note=55 velocity=80 time=16
note_on channel=1 note=60 velocity=80 time=0
note_on channel=1 note=64 velocity=80 time=0
note_on channel=1 note=64 velocity=0 time=32
note_on channel=1 note=60 velocity=0 time=0
note_on channel=1 note=55 velocity=0 time=0
note_on channel=1 note=43 velocity=80 time=16
note_on channel=1 note=43 velocity=0 time=32
note_on channel=1 note=55 velocity=80 time=16
note_on channel=1 note=60 velocity=80 time=0
note_on channel=1 note=64 velocity=80 time=0
note_on channel=1 note=64 velocity=0 time=32
note_on channel=1 note=60 velocity=0 time=0
note_on channel=1 note=55 velocity=0 time=0
note_on channel=1 note=48 velocity=80 time=16
note_on channel=1 note=48 velocity=0 time=32
note_on channel=1 note=55 velocity=80 time=16
note_on channel=1 note=60 velocity=80 time=0
note_on channel=1 note=64 velocity=80 time=0
note_on channel=1 note=64 velocity=0 time=32
note_on channel=1 note=60 velocity=0 time=0
note_on channel=1 note=55 velocity=0 time=0
note_on channel=1 note=57 velocity=80 time=16
note_on channel=1 note=45 velocity=80 time=0
note_on channel=1 note=45 velocity=0 time=32
note_on channel=1 note=57 velocity=0 time=0
note_on channel=1 note=55 velocity=80 time=16
note_on channel=1 note=43 velocity=80 time=0
note_on channel=1 note=43 velocity=0 time=32
note_on channel=1 note=55 velocity=0 time=0
note_on channel=1 note=54 velocity=80 time=16
note_on channel=1 note=42 velocity=80 time=0
note_on channel=1 note=42 velocity=0 time=32
note_on channel=1 note=54 velocity=0 time=0
note_on channel=1 note=54 velocity=80 time=16
note_on channel=1 note=57 velocity=80 time=0
note_on channel=1 note=60 velocity=80 time=0
note_on channel=1 note=62 velocity=80 time=0
note_on channel=1 note=62 velocity=0 time=32
note_on channel=1 note=54 velocity=0 time=0
note_on channel=1 note=57 velocity=0 time=0
note_on channel=1 note=60 velocity=0 time=0
note_on channel=1 note=50 velocity=80 time=16
note_on channel=1 note=38 velocity=80 time=0
note_on channel=1 note=38 velocity=0 time=32
note_on channel=1 note=50 velocity=0 time=0
note_on channel=1 note=57 velocity=80 time=16
note_on channel=1 note=60 velocity=80 time=0
note_on channel=1 note=62 velocity=80 time=0
note_on channel=1 note=62 velocity=0 time=32
note_on channel=1 note=60 velocity=0 time=0
note_on channel=1 note=57 velocity=0 time=0
note_on channel=1 note=62 velocity=80 time=16
note_on channel=1 note=59 velocity=80 time=0
note_on channel=1 note=55 velocity=80 time=0
note_on channel=1 note=55 velocity=0 time=32
note_on channel=1 note=59 velocity=0 time=0
note_on channel=1 note=62 velocity=0 time=0
note_on channel=1 note=55 velocity=80 time=16
note_on channel=1 note=43 velocity=80 time=0
note_on channel=1 note=43 velocity=0 time=32
note_on channel=1 note=55 velocity=0 time=0
note_on channel=1 note=45 velocity=80 time=16
note_on channel=1 note=57 velocity=80 time=0
note_on channel=1 note=57 velocity=0 time=32
note_on channel=1 note=45 velocity=0 time=0
note_on channel=1 note=59 velocity=80 time=16
note_on channel=1 note=47 velocity=80 time=0
note_on channel=1 note=47 velocity=0 time=32
note_on channel=1 note=59 velocity=0 time=0
note_on channel=1 note=60 velocity=80 time=16
note_on channel=1 note=48 velocity=80 time=0
note_on channel=1 note=48 velocity=0 time=32
note_on channel=1 note=60 velocity=0 time=0
note_on channel=1 note=55 velocity=80 time=16
note_on channel=1 note=60 velocity=80 time=0
note_on channel=1 note=64 velocity=80 time=0
note_on channel=1 note=64 velocity=0 time=32
note_on channel=1 note=60 velocity=0 time=0
note_on channel=1 note=55 velocity=0 time=0
note_on channel=1 note=43 velocity=80 time=16
note_on channel=1 note=43 velocity=0 time=32
note_on channel=1 note=55 velocity=80 time=16
note_on channel=1 note=60 velocity=80 time=0
note_on channel=1 note=64 velocity=80 time=0
note_on channel=1 note=64 velocity=0 time=32
note_on channel=1 note=60 velocity=0 time=0
note_on channel=1 note=55 velocity=0 time=0
note_on channel=1 note=48 velocity=80 time=16
note_on channel=1 note=48 velocity=0 time=32
note_on channel=1 note=55 velocity=80 time=16
note_on channel=1 note=60 velocity=80 time=0
note_on channel=1 note=64 velocity=80 time=0
note_on channel=1 note=64 velocity=0 time=32
note_on channel=1 note=60 velocity=0 time=0
note_on channel=1 note=55 velocity=0 time=0
note_on channel=1 note=58 velocity=80 time=16
note_on channel=1 note=46 velocity=80 time=0
note_on channel=1 note=46 velocity=0 time=32
note_on channel=1 note=58 velocity=0 time=0
note_on channel=1 note=55 velocity=80 time=16
note_on channel=1 note=58 velocity=80 time=0
note_on channel=1 note=60 velocity=80 time=0
note_on channel=1 note=64 velocity=80 time=0
note_on channel=1 note=64 velocity=0 time=32
note_on channel=1 note=55 velocity=0 time=0
note_on channel=1 note=58 velocity=0 time=0
note_on channel=1 note=60 velocity=0 time=0
note_on channel=1 note=57 velocity=80 time=16
note_on channel=1 note=45 velocity=80 time=0
note_on channel=1 note=45 velocity=0 time=32
note_on channel=1 note=57 velocity=0 time=0
note_on channel=1 note=53 velocity=80 time=16
note_on channel=1 note=41 velocity=80 time=0
note_on channel=1 note=41 velocity=0 time=32
note_on channel=1 note=53 velocity=0 time=0
note_on channel=1 note=50 velocity=80 time=16
note_on channel=1 note=38 velocity=80 time=0
note_on channel=1 note=38 velocity=0 time=32
note_on channel=1 note=50 velocity=0 time=0
note_on channel=1 note=39 velocity=80 time=16
note_on channel=1 note=51 velocity=80 time=0
note_on channel=1 note=51 velocity=0 time=32
note_on channel=1 note=39 velocity=0 time=0
note_on channel=1 note=52 velocity=80 time=16
note_on channel=1 note=40 velocity=80 time=0
note_on channel=1 note=40 velocity=0 time=32
note_on channel=1 note=52 velocity=0 time=0
note_on channel=1 note=64 velocity=80 time=16
note_on channel=1 note=60 velocity=80 time=0
note_on channel=1 note=55 velocity=80 time=0
note_on channel=1 note=55 velocity=0 time=32
note_on channel=1 note=60 velocity=0 time=0
note_on channel=1 note=64 velocity=0 time=0
note_on channel=1 note=60 velocity=80 time=16
note_on channel=1 note=48 velocity=80 time=0
note_on channel=1 note=48 velocity=0 time=32
note_on channel=1 note=60 velocity=0 time=0
note_on channel=1 note=58 velocity=80 time=16
note_on channel=1 note=46 velocity=80 time=0
note_on channel=1 note=46 velocity=0 time=32
note_on channel=1 note=58 velocity=0 time=0
note_on channel=1 note=57 velocity=80 time=16
note_on channel=1 note=45 velocity=80 time=0
note_on channel=1 note=45 velocity=0 time=32
note_on channel=1 note=57 velocity=0 time=0
note_on channel=1 note=53 velocity=80 time=16
note_on channel=1 note=41 velocity=80 time=0
note_on channel=1 note=41 velocity=0 time=32
note_on channel=1 note=53 velocity=0 time=0
note_on channel=1 note=50 velocity=80 time=16
note_on channel=1 note=38 velocity=80 time=0
note_on channel=1 note=38 velocity=0 time=32
note_on channel=1 note=50 velocity=0 time=0
note_on channel=1 note=39 velocity=80 time=16
note_on channel=1 note=51 velocity=80 time=0
note_on channel=1 note=51 velocity=0 time=32
note_on channel=1 note=39 velocity=0 time=0
note_on channel=1 note=52 velocity=80 time=16
note_on channel=1 note=40 velocity=80 time=0
note_on channel=1 note=40 velocity=0 time=32
note_on channel=1 note=52 velocity=0 time=0
note_on channel=1 note=55 velocity=80 time=16
note_on channel=1 note=60 velocity=80 time=0
note_on channel=1 note=64 velocity=80 time=0
note_on channel=1 note=64 velocity=0 time=32
note_on channel=1 note=60 velocity=0 time=0
note_on channel=1 note=55 velocity=0 time=0
note_on channel=1 note=43 velocity=80 time=16
note_on channel=1 note=43 velocity=0 time=32
note_on channel=1 note=55 velocity=80 time=16
note_on channel=1 note=60 velocity=80 time=0
note_on channel=1 note=64 velocity=80 time=0
note_on channel=1 note=64 velocity=0 time=32
note_on channel=1 note=60 velocity=0 time=0
note_on channel=1 note=55 velocity=0 time=0
note_on channel=1 note=62 velocity=80 time=16
note_on channel=1 note=50 velocity=80 time=0
note_on channel=1 note=50 velocity=0 time=64
note_on channel=1 note=62 velocity=0 time=0
note_on channel=1 note=43 velocity=80 time=32
note_on channel=1 note=55 velocity=80 time=0
note_on channel=1 note=55 velocity=0 time=64
note_on channel=1 note=43 velocity=0 time=0
note_on channel=1 note=60 velocity=80 time=32
note_on channel=1 note=48 velocity=80 time=0
note_on channel=1 note=48 velocity=0 time=32
note_on channel=1 note=60 velocity=0 time=0
note_on channel=1 note=55 velocity=80 time=16
note_on channel=1 note=43 velocity=80 time=0
note_on channel=1 note=43 velocity=0 time=32
note_on channel=1 note=55 velocity=0 time=0
note_on channel=1 note=48 velocity=80 time=16
note_on channel=1 note=36 velocity=80 time=0
note_on channel=1 note=36 velocity=0 time=32
note_on channel=1 note=48 velocity=0 time=0
note_on channel=1 note=43 velocity=80 time=64
note_on channel=1 note=43 velocity=0 time=32
note_on channel=1 note=50 velocity=80 time=16
note_on channel=1 note=55 velocity=80 time=0
note_on channel=1 note=59 velocity=80 time=0
note_on channel=1 note=59 velocity=0 time=32
note_on channel=1 note=55 velocity=0 time=0
note_on channel=1 note=50 velocity=0 time=0
note_on channel=1 note=38 velocity=80 time=16
note_on channel=1 note=38 velocity=0 time=32
note_on channel=1 note=50 velocity=80 time=16
note_on channel=1 note=55 velocity=80 time=0
note_on channel=1 note=59 velocity=80 time=0
note_on channel=1 note=59 velocity=0 time=32
note_on channel=1 note=55 velocity=0 time=0
note_on channel=1 note=50 velocity=0 time=0
note_on channel=1 note=45 velocity=80 time=16
note_on channel=1 note=45 velocity=0 time=32
note_on channel=1 note=55 velocity=80 time=16
note_on channel=1 note=57 velocity=80 time=0
note_on channel=1 note=61 velocity=80 time=0
note_on channel=1 note=61 velocity=0 time=32
note_on channel=1 note=57 velocity=0 time=0
note_on channel=1 note=55 velocity=0 time=0
note_on channel=1 note=40 velocity=80 time=16
note_on channel=1 note=40 velocity=0 time=32
note_on channel=1 note=55 velocity=80 time=16
note_on channel=1 note=57 velocity=80 time=0
note_on channel=1 note=57 velocity=0 time=32
note_on channel=1 note=55 velocity=0 time=0
note_on channel=1 note=42 velocity=80 time=16
note_on channel=1 note=42 velocity=0 time=32
note_on channel=1 note=50 velocity=80 time=16
note_on channel=1 note=54 velocity=80 time=0
note_on channel=1 note=60 velocity=80 time=0
note_on channel=1 note=60 velocity=0 time=32
note_on channel=1 note=54 velocity=0 time=0
note_on channel=1 note=50 velocity=0 time=0
note_on channel=1 note=38 velocity=80 time=16
note_on channel=1 note=38 velocity=0 time=32
note_on channel=1 note=50 velocity=80 time=16
note_on channel=1 note=54 velocity=80 time=0
note_on channel=1 note=60 velocity=80 time=0
note_on channel=1 note=60 velocity=0 time=32
note_on channel=1 note=54 velocity=0 time=0
note_on channel=1 note=50 velocity=0 time=0
note_on channel=1 note=43 velocity=80 time=16
note_on channel=1 note=43 velocity=0 time=32
note_on channel=1 note=50 velocity=80 time=16
note_on channel=1 note=55 velocity=80 time=0
note_on channel=1 note=59 velocity=80 time=0
note_on channel=1 note=59 velocity=0 time=32
note_on channel=1 note=55 velocity=0 time=0
note_on channel=1 note=50 velocity=0 time=0
note_on channel=1 note=38 velocity=80 time=16
note_on channel=1 note=38 velocity=0 time=32
note_on channel=1 note=50 velocity=80 time=16
note_on channel=1 note=55 velocity=80 time=0
note_on channel=1 note=59 velocity=80 time=0
note_on channel=1 note=59 velocity=0 time=32
note_on channel=1 note=55 velocity=0 time=0
note_on channel=1 note=50 velocity=0 time=0
note_on channel=1 note=43 velocity=80 time=16
note_on channel=1 note=43 velocity=0 time=32
note_on channel=1 note=50 velocity=80 time=16
note_on channel=1 note=55 velocity=80 time=0
note_on channel=1 note=59 velocity=80 time=0
note_on channel=1 note=59 velocity=0 time=32
note_on channel=1 note=55 velocity=0 time=0
note_on channel=1 note=50 velocity=0 time=0
note_on channel=1 note=59 velocity=80 time=16
note_on channel=1 note=47 velocity=80 time=0
note_on channel=1 note=47 velocity=0 time=32
note_on channel=1 note=59 velocity=0 time=0
note_on channel=1 note=46 velocity=80 time=16
note_on channel=1 note=58 velocity=80 time=0
note_on channel=1 note=58 velocity=0 time=32
note_on channel=1 note=46 velocity=0 time=0
note_on channel=1 note=57 velocity=80 time=16
note_on channel=1 note=45 velocity=80 time=0
note_on channel=1 note=45 velocity=0 time=32
note_on channel=1 note=57 velocity=0 time=0
note_on channel=1 note=50 velocity=80 time=16
note_on channel=1 note=54 velocity=80 time=0
note_on channel=1 note=60 velocity=80 time=0
note_on channel=1 note=60 velocity=0 time=32
note_on channel=1 note=54 velocity=0 time=0
note_on channel=1 note=50 velocity=0 time=0
note_on channel=1 note=50 velocity=80 time=16
note_on channel=1 note=38 velocity=80 time=0
note_on channel=1 note=38 velocity=0 time=32
note_on channel=1 note=50 velocity=0 time=0
note_on channel=1 note=50 velocity=80 time=16
note_on channel=1 note=54 velocity=80 time=0
note_on channel=1 note=60 velocity=80 time=0
note_on channel=1 note=60 velocity=0 time=32
note_on channel=1 note=54 velocity=0 time=0
note_on channel=1 note=50 velocity=0 time=0
note_on channel=1 note=57 velocity=80 time=16
note_on channel=1 note=45 velocity=80 time=0
note_on channel=1 note=45 velocity=0 time=32
note_on channel=1 note=57 velocity=0 time=0
note_on channel=1 note=50 velocity=80 time=16
note_on channel=1 note=54 velocity=80 time=0
note_on channel=1 note=60 velocity=80 time=0
note_on channel=1 note=60 velocity=0 time=32
note_on channel=1 note=54 velocity=0 time=0
note_on channel=1 note=50 velocity=0 time=0
note_on channel=1 note=50 velocity=80 time=16
note_on channel=1 note=38 velocity=80 time=0
note_on channel=1 note=38 velocity=0 time=32
note_on channel=1 note=50 velocity=0 time=0
note_on channel=1 note=50 velocity=80 time=16
note_on channel=1 note=54 velocity=80 time=0
note_on channel=1 note=60 velocity=80 time=0
note_on channel=1 note=60 velocity=0 time=32
note_on channel=1 note=54 velocity=0 time=0
note_on channel=1 note=50 velocity=0 time=0
note_on channel=1 note=55 velocity=80 time=16
note_on channel=1 note=43 velocity=80 time=0
note_on channel=1 note=43 velocity=0 time=32
note_on channel=1 note=55 velocity=0 time=0
note_on channel=1 note=50 velocity=80 time=16
note_on channel=1 note=55 velocity=80 time=0
note_on channel=1 note=59 velocity=80 time=0
note_on channel=1 note=59 velocity=0 time=32
note_on channel=1 note=55 velocity=0 time=0
note_on channel=1 note=50 velocity=0 time=0
note_on channel=1 note=38 velocity=80 time=16
note_on channel=1 note=38 velocity=0 time=32
note_on channel=1 note=50 velocity=80 time=16
note_on channel=1 note=55 velocity=80 time=0
note_on channel=1 note=59 velocity=80 time=0
note_on channel=1 note=59 velocity=0 time=32
note_on channel=1 note=55 velocity=0 time=0
note_on channel=1 note=50 velocity=0 time=0
note_on channel=1 note=43 velocity=80 time=16
note_on channel=1 note=43 velocity=0 time=32
note_on channel=1 note=50 velocity=80 time=16
note_on channel=1 note=55 velocity=80 time=0
note_on channel=1 note=59 velocity=80 time=0
note_on channel=1 note=59 velocity=0 time=32
note_on channel=1 note=55 velocity=0 time=0
note_on channel=1 note=50 velocity=0 time=0
note_on channel=1 note=38 velocity=80 time=16
note_on channel=1 note=38 velocity=0 time=32
note_on channel=1 note=50 velocity=80 time=16
note_on channel=1 note=55 velocity=80 time=0
note_on channel=1 note=59 velocity=80 time=0
note_on channel=1 note=59 velocity=0 time=32
note_on channel=1 note=55 velocity=0 time=0
note_on channel=1 note=50 velocity=0 time=0
note_on channel=1 note=45 velocity=80 time=16
note_on channel=1 note=45 velocity=0 time=32
note_on channel=1 note=55 velocity=80 time=16
note_on channel=1 note=57 velocity=80 time=0
note_on channel=1 note=61 velocity=80 time=0
note_on channel=1 note=61 velocity=0 time=32
note_on channel=1 note=57 velocity=0 time=0
note_on channel=1 note=55 velocity=0 time=0
note_on channel=1 note=40 velocity=80 time=16
note_on channel=1 note=40 velocity=0 time=32
note_on channel=1 note=55 velocity=80 time=16
note_on channel=1 note=57 velocity=80 time=0
note_on channel=1 note=57 velocity=0 time=32
note_on channel=1 note=55 velocity=0 time=0
note_on channel=1 note=42 velocity=80 time=16
note_on channel=1 note=42 velocity=0 time=32
note_on channel=1 note=50 velocity=80 time=16
note_on channel=1 note=54 velocity=80 time=0
note_on channel=1 note=60 velocity=80 time=0
note_on channel=1 note=60 velocity=0 time=32
note_on channel=1 note=54 velocity=0 time=0
note_on channel=1 note=50 velocity=0 time=0
note_on channel=1 note=38 velocity=80 time=16
note_on channel=1 note=38 velocity=0 time=32
note_on channel=1 note=50 velocity=80 time=16
note_on channel=1 note=54 velocity=80 time=0
note_on channel=1 note=60 velocity=80 time=0
note_on channel=1 note=60 velocity=0 time=32
note_on channel=1 note=54 velocity=0 time=0
note_on channel=1 note=50 velocity=0 time=0
note_on channel=1 note=55 velocity=80 time=16
note_on channel=1 note=43 velocity=80 time=0
note_on channel=1 note=43 velocity=0 time=32
note_on channel=1 note=55 velocity=0 time=0
note_on channel=1 note=55 velocity=80 time=16
note_on channel=1 note=59 velocity=80 time=0
note_on channel=1 note=50 velocity=80 time=0
note_on channel=1 note=50 velocity=0 time=32
note_on channel=1 note=59 velocity=0 time=0
note_on channel=1 note=55 velocity=0 time=0
note_on channel=1 note=54 velocity=80 time=16
note_on channel=1 note=42 velocity=80 time=0
note_on channel=1 note=42 velocity=0 time=32
note_on channel=1 note=54 velocity=0 time=0
note_on channel=1 note=41 velocity=80 time=16
note_on channel=1 note=53 velocity=80 time=0
note_on channel=1 note=53 velocity=0 time=32
note_on channel=1 note=41 velocity=0 time=0
note_on channel=1 note=52 velocity=80 time=16
note_on channel=1 note=40 velocity=80 time=0
note_on channel=1 note=40 velocity=0 time=32
note_on channel=1 note=52 velocity=0 time=0
note_on channel=1 note=52 velocity=80 time=16
note_on channel=1 note=56 velocity=80 time=0
note_on channel=1 note=62 velocity=80 time=0
note_on channel=1 note=62 velocity=0 time=32
note_on channel=1 note=56 velocity=0 time=0
note_on channel=1 note=52 velocity=0 time=0
note_on channel=1 note=52 velocity=80 time=16
note_on channel=1 note=40 velocity=80 time=0
note_on channel=1 note=40 velocity=0 time=32
note_on channel=1 note=52 velocity=0 time=0
note_on channel=1 note=38 velocity=80 time=16
note_on channel=1 note=50 velocity=80 time=0
note_on channel=1 note=50 velocity=0 time=32
note_on channel=1 note=38 velocity=0 time=0
note_on channel=1 note=48 velocity=80 time=16
note_on channel=1 note=36 velocity=80 time=0
note_on channel=1 note=36 velocity=0 time=32
note_on channel=1 note=48 velocity=0 time=0
note_on channel=1 note=40 velocity=80 time=16
note_on channel=1 note=52 velocity=80 time=0
note_on channel=1 note=52 velocity=0 time=32
note_on channel=1 note=40 velocity=0 time=0
note_on channel=1 note=51 velocity=80 time=16
note_on channel=1 note=39 velocity=80 time=0
note_on channel=1 note=39 velocity=0 time=64
note_on channel=1 note=51 velocity=0 time=0
note_on channel=1 note=50 velocity=80 time=32
note_on channel=1 note=38 velocity=80 time=0
note_on channel=1 note=38 velocity=0 time=32
note_on channel=1 note=50 velocity=0 time=0
note_on channel=1 note=50 velocity=80 time=16
note_on channel=1 note=55 velocity=80 time=0
note_on channel=1 note=59 velocity=80 time=0
note_on channel=1 note=59 velocity=0 time=32
note_on channel=1 note=55 velocity=0 time=0
note_on channel=1 note=50 velocity=0 time=0
note_on channel=1 note=52 velocity=80 time=16
note_on channel=1 note=40 velocity=80 time=0
note_on channel=1 note=40 velocity=0 time=32
note_on channel=1 note=52 velocity=0 time=0
note_on channel=1 note=42 velocity=80 time=16
note_on channel=1 note=54 velocity=80 time=0
note_on channel=1 note=54 velocity=0 time=32
note_on channel=1 note=42 velocity=0 time=0
note_on channel=1 note=55 velocity=80 time=16
note_on channel=1 note=43 velocity=80 time=0
note_on channel=1 note=43 velocity=0 time=32
note_on channel=1 note=55 velocity=0 time=0
note_on channel=1 note=50 velocity=80 time=16
note_on channel=1 note=38 velocity=80 time=0
note_on channel=1 note=38 velocity=0 time=32
note_on channel=1 note=50 velocity=0 time=0
note_on channel=1 note=40 velocity=80 time=16
note_on channel=1 note=52 velocity=80 time=0
note_on channel=1 note=52 velocity=0 time=32
note_on channel=1 note=40 velocity=0 time=0
note_on channel=1 note=54 velocity=80 time=16
note_on channel=1 note=42 velocity=80 time=0
note_on channel=1 note=42 velocity=0 time=32
note_on channel=1 note=54 velocity=0 time=0
note_on channel=1 note=43 velocity=80 time=16
note_on channel=1 note=43 velocity=0 time=32
note_on channel=1 note=50 velocity=80 time=16
note_on channel=1 note=55 velocity=80 time=0
note_on channel=1 note=59 velocity=80 time=0
note_on channel=1 note=59 velocity=0 time=32
note_on channel=1 note=55 velocity=0 time=0
note_on channel=1 note=50 velocity=0 time=0
note_on channel=1 note=38 velocity=80 time=16
note_on channel=1 note=38 velocity=0 time=32
note_on channel=1 note=50 velocity=80 time=16
note_on channel=1 note=55 velocity=80 time=0
note_on channel=1 note=59 velocity=80 time=0
note_on channel=1 note=59 velocity=0 time=32
note_on channel=1 note=55 velocity=0 time=0
note_on channel=1 note=50 velocity=0 time=0
note_on channel=1 note=45 velocity=80 time=16
note_on channel=1 note=45 velocity=0 time=32
note_on channel=1 note=55 velocity=80 time=16
note_on channel=1 note=57 velocity=80 time=0
note_on channel=1 note=61 velocity=80 time=0
note_on channel=1 note=61 velocity=0 time=32
note_on channel=1 note=57 velocity=0 time=0
note_on channel=1 note=55 velocity=0 time=0
note_on channel=1 note=40 velocity=80 time=16
note_on channel=1 note=40 velocity=0 time=32
note_on channel=1 note=55 velocity=80 time=16
note_on channel=1 note=57 velocity=80 time=0
note_on channel=1 note=57 velocity=0 time=32
note_on channel=1 note=55 velocity=0 time=0
note_on channel=1 note=42 velocity=80 time=16
note_on channel=1 note=42 velocity=0 time=32
note_on channel=1 note=50 velocity=80 time=16
note_on channel=1 note=54 velocity=80 time=0
note_on channel=1 note=60 velocity=80 time=0
note_on channel=1 note=60 velocity=0 time=32
note_on channel=1 note=54 velocity=0 time=0
note_on channel=1 note=50 velocity=0 time=0
note_on channel=1 note=38 velocity=80 time=16
note_on channel=1 note=38 velocity=0 time=32
note_on channel=1 note=50 velocity=80 time=16
note_on channel=1 note=54 velocity=80 time=0
note_on channel=1 note=60 velocity=80 time=0
note_on channel=1 note=60 velocity=0 time=32
note_on channel=1 note=54 velocity=0 time=0
note_on channel=1 note=50 velocity=0 time=0
note_on channel=1 note=43 velocity=80 time=16
note_on channel=1 note=43 velocity=0 time=32
note_on channel=1 note=50 velocity=80 time=16
note_on channel=1 note=55 velocity=80 time=0
note_on channel=1 note=59 velocity=80 time=0
note_on channel=1 note=59 velocity=0 time=32
note_on channel=1 note=55 velocity=0 time=0
note_on channel=1 note=50 velocity=0 time=0
note_on channel=1 note=38 velocity=80 time=16
note_on channel=1 note=38 velocity=0 time=32
note_on channel=1 note=50 velocity=80 time=16
note_on channel=1 note=55 velocity=80 time=0
note_on channel=1 note=59 velocity=80 time=0
note_on channel=1 note=59 velocity=0 time=32
note_on channel=1 note=55 velocity=0 time=0
note_on channel=1 note=50 velocity=0 time=0
note_on channel=1 note=43 velocity=80 time=16
note_on channel=1 note=43 velocity=0 time=32
note_on channel=1 note=50 velocity=80 time=16
note_on channel=1 note=55 velocity=80 time=0
note_on channel=1 note=59 velocity=80 time=0
note_on channel=1 note=59 velocity=0 time=32
note_on channel=1 note=55 velocity=0 time=0
note_on channel=1 note=50 velocity=0 time=0
note_on channel=1 note=59 velocity=80 time=16
note_on channel=1 note=47 velocity=80 time=0
note_on channel=1 note=47 velocity=0 time=32
note_on channel=1 note=59 velocity=0 time=0
note_on channel=1 note=46 velocity=80 time=16
note_on channel=1 note=58 velocity=80 time=0
note_on channel=1 note=58 velocity=0 time=32
note_on channel=1 note=46 velocity=0 time=0
note_on channel=1 note=57 velocity=80 time=16
note_on channel=1 note=45 velocity=80 time=0
note_on channel=1 note=45 velocity=0 time=32
note_on channel=1 note=57 velocity=0 time=0
note_on channel=1 note=50 velocity=80 time=16
note_on channel=1 note=54 velocity=80 time=0
note_on channel=1 note=60 velocity=80 time=0
note_on channel=1 note=60 velocity=0 time=32
note_on channel=1 note=54 velocity=0 time=0
note_on channel=1 note=50 velocity=0 time=0
note_on channel=1 note=50 velocity=80 time=16
note_on channel=1 note=38 velocity=80 time=0
note_on channel=1 note=38 velocity=0 time=32
note_on channel=1 note=50 velocity=0 time=0
note_on channel=1 note=50 velocity=80 time=16
note_on channel=1 note=54 velocity=80 time=0
note_on channel=1 note=60 velocity=80 time=0
note_on channel=1 note=60 velocity=0 time=32
note_on channel=1 note=54 velocity=0 time=0
note_on channel=1 note=50 velocity=0 time=0
note_on channel=1 note=57 velocity=80 time=16
note_on channel=1 note=45 velocity=80 time=0
note_on channel=1 note=45 velocity=0 time=32
note_on channel=1 note=57 velocity=0 time=0
note_on channel=1 note=50 velocity=80 time=16
note_on channel=1 note=54 velocity=80 time=0
note_on channel=1 note=60 velocity=80 time=0
note_on channel=1 note=60 velocity=0 time=32
note_on channel=1 note=54 velocity=0 time=0
note_on channel=1 note=50 velocity=0 time=0
note_on channel=1 note=50 velocity=80 time=16
note_on channel=1 note=38 velocity=80 time=0
note_on channel=1 note=38 velocity=0 time=32
note_on channel=1 note=50 velocity=0 time=0
note_on channel=1 note=50 velocity=80 time=16
note_on channel=1 note=54 velocity=80 time=0
note_on channel=1 note=60 velocity=80 time=0
note_on channel=1 note=60 velocity=0 time=32
note_on channel=1 note=54 velocity=0 time=0
note_on channel=1 note=50 velocity=0 time=0
note_on channel=1 note=55 velocity=80 time=16
note_on channel=1 note=43 velocity=80 time=0
note_on channel=1 note=43 velocity=0 time=32
note_on channel=1 note=55 velocity=0 time=0
note_on channel=1 note=50 velocity=80 time=16
note_on channel=1 note=55 velocity=80 time=0
note_on channel=1 note=59 velocity=80 time=0
note_on channel=1 note=59 velocity=0 time=32
note_on channel=1 note=55 velocity=0 time=0
note_on channel=1 note=50 velocity=0 time=0
note_on channel=1 note=38 velocity=80 time=16
note_on channel=1 note=38 velocity=0 time=32
note_on channel=1 note=50 velocity=80 time=16
note_on channel=1 note=55 velocity=80 time=0
note_on channel=1 note=59 velocity=80 time=0
note_on channel=1 note=59 velocity=0 time=32
note_on channel=1 note=55 velocity=0 time=0
note_on channel=1 note=50 velocity=0 time=0
note_on channel=1 note=43 velocity=80 time=16
note_on channel=1 note=43 velocity=0 time=32
note_on channel=1 note=50 velocity=80 time=16
note_on channel=1 note=55 velocity=80 time=0
note_on channel=1 note=59 velocity=80 time=0
note_on channel=1 note=59 velocity=0 time=32
note_on channel=1 note=55 velocity=0 time=0
note_on channel=1 note=50 velocity=0 time=0
note_on channel=1 note=38 velocity=80 time=16
note_on channel=1 note=38 velocity=0 time=32
note_on channel=1 note=50 velocity=80 time=16
note_on channel=1 note=55 velocity=80 time=0
note_on channel=1 note=59 velocity=80 time=0
note_on channel=1 note=59 velocity=0 time=32
note_on channel=1 note=55 velocity=0 time=0
note_on channel=1 note=50 velocity=0 time=0
note_on channel=1 note=45 velocity=80 time=16
note_on channel=1 note=45 velocity=0 time=32
note_on channel=1 note=55 velocity=80 time=16
note_on channel=1 note=57 velocity=80 time=0
note_on channel=1 note=61 velocity=80 time=0
note_on channel=1 note=61 velocity=0 time=32
note_on channel=1 note=57 velocity=0 time=0
note_on channel=1 note=55 velocity=0 time=0
note_on channel=1 note=40 velocity=80 time=16
note_on channel=1 note=40 velocity=0 time=32
note_on channel=1 note=55 velocity=80 time=16
note_on channel=1 note=57 velocity=80 time=0
note_on channel=1 note=57 velocity=0 time=32
note_on channel=1 note=55 velocity=0 time=0
note_on channel=1 note=42 velocity=80 time=16
note_on channel=1 note=42 velocity=0 time=32
note_on channel=1 note=50 velocity=80 time=16
note_on channel=1 note=54 velocity=80 time=0
note_on channel=1 note=60 velocity=80 time=0
note_on channel=1 note=60 velocity=0 time=32
note_on channel=1 note=54 velocity=0 time=0
note_on channel=1 note=50 velocity=0 time=0
note_on channel=1 note=38 velocity=80 time=16
note_on channel=1 note=38 velocity=0 time=32
note_on channel=1 note=50 velocity=80 time=16
note_on channel=1 note=54 velocity=80 time=0
note_on channel=1 note=60 velocity=80 time=0
note_on channel=1 note=60 velocity=0 time=32
note_on channel=1 note=54 velocity=0 time=0
note_on channel=1 note=50 velocity=0 time=0
note_on channel=1 note=55 velocity=80 time=16
note_on channel=1 note=43 velocity=80 time=0
note_on channel=1 note=43 velocity=0 time=32
note_on channel=1 note=55 velocity=0 time=0
note_on channel=1 note=55 velocity=80 time=16
note_on channel=1 note=59 velocity=80 time=0
note_on channel=1 note=50 velocity=80 time=0
note_on channel=1 note=50 velocity=0 time=32
note_on channel=1 note=59 velocity=0 time=0
note_on channel=1 note=55 velocity=0 time=0
note_on channel=1 note=54 velocity=80 time=16
note_on channel=1 note=42 velocity=80 time=0
note_on channel=1 note=42 velocity=0 time=32
note_on channel=1 note=54 velocity=0 time=0
note_on channel=1 note=41 velocity=80 time=16
note_on channel=1 note=53 velocity=80 time=0
note_on channel=1 note=53 velocity=0 time=32
note_on channel=1 note=41 velocity=0 time=0
note_on channel=1 note=52 velocity=80 time=16
note_on channel=1 note=40 velocity=80 time=0
note_on channel=1 note=40 velocity=0 time=32
note_on channel=1 note=52 velocity=0 time=0
note_on channel=1 note=52 velocity=80 time=16
note_on channel=1 note=56 velocity=80 time=0
note_on channel=1 note=62 velocity=80 time=0
note_on channel=1 note=62 velocity=0 time=32
note_on channel=1 note=56 velocity=0 time=0
note_on channel=1 note=52 velocity=0 time=0
note_on channel=1 note=52 velocity=80 time=16
note_on channel=1 note=40 velocity=80 time=0
note_on channel=1 note=40 velocity=0 time=32
note_on channel=1 note=52 velocity=0 time=0
note_on channel=1 note=38 velocity=80 time=16
note_on channel=1 note=50 velocity=80 time=0
note_on channel=1 note=50 velocity=0 time=32
note_on channel=1 note=38 velocity=0 time=0
note_on channel=1 note=48 velocity=80 time=16
note_on channel=1 note=36 velocity=80 time=0
note_on channel=1 note=36 velocity=0 time=32
note_on channel=1 note=48 velocity=0 time=0
note_on channel=1 note=40 velocity=80 time=16
note_on channel=1 note=52 velocity=80 time=0
note_on channel=1 note=52 velocity=0 time=32
note_on channel=1 note=40 velocity=0 time=0
note_on channel=1 note=51 velocity=80 time=16
note_on channel=1 note=39 velocity=80 time=0
note_on channel=1 note=39 velocity=0 time=64
note_on channel=1 note=51 velocity=0 time=0
note_on channel=1 note=50 velocity=80 time=32
note_on channel=1 note=38 velocity=80 time=0
note_on channel=1 note=38 velocity=0 time=32
note_on channel=1 note=50 velocity=0 time=0
note_on channel=1 note=50 velocity=80 time=16
note_on channel=1 note=55 velocity=80 time=0
note_on channel=1 note=59 velocity=80 time=0
note_on channel=1 note=59 velocity=0 time=32
note_on channel=1 note=55 velocity=0 time=0
note_on channel=1 note=50 velocity=0 time=0
note_on channel=1 note=52 velocity=80 time=16
note_on channel=1 note=40 velocity=80 time=0
note_on channel=1 note=40 velocity=0 time=32
note_on channel=1 note=52 velocity=0 time=0
note_on channel=1 note=42 velocity=80 time=16
note_on channel=1 note=54 velocity=80 time=0
note_on channel=1 note=54 velocity=0 time=32
note_on channel=1 note=42 velocity=0 time=0
note_on channel=1 note=55 velocity=80 time=16
note_on channel=1 note=43 velocity=80 time=0
note_on channel=1 note=43 velocity=0 time=32
note_on channel=1 note=55 velocity=0 time=0
note_on channel=1 note=55 velocity=80 time=16
note_on channel=1 note=43 velocity=80 time=0
note_on channel=1 note=43 velocity=0 time=32
note_on channel=1 note=55 velocity=0 time=0
note_on channel=1 note=42 velocity=80 time=16
note_on channel=1 note=54 velocity=80 time=0
note_on channel=1 note=54 velocity=0 time=32
note_on channel=1 note=42 velocity=0 time=0
note_on channel=1 note=53 velocity=80 time=16
note_on channel=1 note=41 velocity=80 time=0
note_on channel=1 note=41 velocity=0 time=32
note_on channel=1 note=53 velocity=0 time=0
note_on channel=1 note=52 velocity=80 time=16
note_on channel=1 note=40 velocity=80 time=0
note_on channel=1 note=40 velocity=0 time=32
note_on channel=1 note=52 velocity=0 time=0
note_on channel=1 note=55 velocity=80 time=16
note_on channel=1 note=60 velocity=80 time=0
note_on channel=1 note=64 velocity=80 time=0
note_on channel=1 note=64 velocity=0 time=32
note_on channel=1 note=60 velocity=0 time=0
note_on channel=1 note=55 velocity=0 time=0
note_on channel=1 note=43 velocity=80 time=16
note_on channel=1 note=43 velocity=0 time=32
note_on channel=1 note=55 velocity=80 time=16
note_on channel=1 note=60 velocity=80 time=0
note_on channel=1 note=64 velocity=80 time=0
note_on channel=1 note=64 velocity=0 time=32
note_on channel=1 note=60 velocity=0 time=0
note_on channel=1 note=55 velocity=0 time=0
note_on channel=1 note=48 velocity=80 time=16
note_on channel=1 note=48 velocity=0 time=32
note_on channel=1 note=55 velocity=80 time=16
note_on channel=1 note=60 velocity=80 time=0
note_on channel=1 note=64 velocity=80 time=0
note_on channel=1 note=64 velocity=0 time=32
note_on channel=1 note=60 velocity=0 time=0
note_on channel=1 note=55 velocity=0 time=0
note_on channel=1 note=58 velocity=80 time=16
note_on channel=1 note=46 velocity=80 time=0
note_on channel=1 note=46 velocity=0 time=32
note_on channel=1 note=58 velocity=0 time=0
note_on channel=1 note=55 velocity=80 time=16
note_on channel=1 note=58 velocity=80 time=0
note_on channel=1 note=60 velocity=80 time=0
note_on channel=1 note=64 velocity=80 time=0
note_on channel=1 note=64 velocity=0 time=32
note_on channel=1 note=55 velocity=0 time=0
note_on channel=1 note=58 velocity=0 time=0
note_on channel=1 note=60 velocity=0 time=0
note_on channel=1 note=57 velocity=80 time=16
note_on channel=1 note=45 velocity=80 time=0
note_on channel=1 note=45 velocity=0 time=32
note_on channel=1 note=57 velocity=0 time=0
note_on channel=1 note=53 velocity=80 time=16
note_on channel=1 note=41 velocity=80 time=0
note_on channel=1 note=41 velocity=0 time=32
note_on channel=1 note=53 velocity=0 time=0
note_on channel=1 note=50 velocity=80 time=16
note_on channel=1 note=38 velocity=80 time=0
note_on channel=1 note=38 velocity=0 time=32
note_on channel=1 note=50 velocity=0 time=0
note_on channel=1 note=39 velocity=80 time=16
note_on channel=1 note=51 velocity=80 time=0
note_on channel=1 note=51 velocity=0 time=32
note_on channel=1 note=39 velocity=0 time=0
note_on channel=1 note=52 velocity=80 time=16
note_on channel=1 note=40 velocity=80 time=0
note_on channel=1 note=40 velocity=0 time=32
note_on channel=1 note=52 velocity=0 time=0
note_on channel=1 note=43 velocity=80 time=16
note_on channel=1 note=55 velocity=80 time=0
note_on channel=1 note=55 velocity=0 time=32
note_on channel=1 note=43 velocity=0 time=0
note_on channel=1 note=54 velocity=80 time=16
note_on channel=1 note=42 velocity=80 time=0
note_on channel=1 note=42 velocity=0 time=32
note_on channel=1 note=54 velocity=0 time=0
note_on channel=1 note=41 velocity=80 time=16
note_on channel=1 note=53 velocity=80 time=0
note_on channel=1 note=53 velocity=0 time=32
note_on channel=1 note=41 velocity=0 time=0
note_on channel=1 note=52 velocity=80 time=16
note_on channel=1 note=40 velocity=80 time=0
note_on channel=1 note=40 velocity=0 time=32
note_on channel=1 note=52 velocity=0 time=0
note_on channel=1 note=55 velocity=80 time=16
note_on channel=1 note=60 velocity=80 time=0
note_on channel=1 note=64 velocity=80 time=0
note_on channel=1 note=64 velocity=0 time=32
note_on channel=1 note=60 velocity=0 time=0
note_on channel=1 note=55 velocity=0 time=0
note_on channel=1 note=43 velocity=80 time=16
note_on channel=1 note=43 velocity=0 time=32
note_on channel=1 note=55 velocity=80 time=16
note_on channel=1 note=60 velocity=80 time=0
note_on channel=1 note=64 velocity=80 time=0
note_on channel=1 note=64 velocity=0 time=32
note_on channel=1 note=60 velocity=0 time=0
note_on channel=1 note=55 velocity=0 time=0
note_on channel=1 note=48 velocity=80 time=16
note_on channel=1 note=48 velocity=0 time=32
note_on channel=1 note=55 velocity=80 time=16
note_on channel=1 note=60 velocity=80 time=0
note_on channel=1 note=64 velocity=80 time=0
note_on channel=1 note=64 velocity=0 time=32
note_on channel=1 note=60 velocity=0 time=0
note_on channel=1 note=55 velocity=0 time=0
note_on channel=1 note=57 velocity=80 time=16
note_on channel=1 note=45 velocity=80 time=0
note_on channel=1 note=45 velocity=0 time=32
note_on channel=1 note=57 velocity=0 time=0
note_on channel=1 note=55 velocity=80 time=16
note_on channel=1 note=43 velocity=80 time=0
note_on channel=1 note=43 velocity=0 time=32
note_on channel=1 note=55 velocity=0 time=0
note_on channel=1 note=54 velocity=80 time=16
note_on channel=1 note=42 velocity=80 time=0
note_on channel=1 note=42 velocity=0 time=32
note_on channel=1 note=54 velocity=0 time=0
note_on channel=1 note=54 velocity=80 time=16
note_on channel=1 note=57 velocity=80 time=0
note_on channel=1 note=60 velocity=80 time=0
note_on channel=1 note=62 velocity=80 time=0
note_on channel=1 note=62 velocity=0 time=32
note_on channel=1 note=54 velocity=0 time=0
note_on channel=1 note=57 velocity=0 time=0
note_on channel=1 note=60 velocity=0 time=0
note_on channel=1 note=50 velocity=80 time=16
note_on channel=1 note=38 velocity=80 time=0
note_on channel=1 note=38 velocity=0 time=32
note_on channel=1 note=50 velocity=0 time=0
note_on channel=1 note=57 velocity=80 time=16
note_on channel=1 note=60 velocity=80 time=0
note_on channel=1 note=62 velocity=80 time=0
note_on channel=1 note=62 velocity=0 time=32
note_on channel=1 note=60 velocity=0 time=0
note_on channel=1 note=57 velocity=0 time=0
note_on channel=1 note=62 velocity=80 time=16
note_on channel=1 note=59 velocity=80 time=0
note_on channel=1 note=55 velocity=80 time=0
note_on channel=1 note=55 velocity=0 time=32
note_on channel=1 note=59 velocity=0 time=0
note_on channel=1 note=62 velocity=0 time=0
note_on channel=1 note=55 velocity=80 time=16
note_on channel=1 note=43 velocity=80 time=0
note_on channel=1 note=43 velocity=0 time=32
note_on channel=1 note=55 velocity=0 time=0
note_on channel=1 note=45 velocity=80 time=16
note_on channel=1 note=57 velocity=80 time=0
note_on channel=1 note=57 velocity=0 time=32
note_on channel=1 note=45 velocity=0 time=0
note_on channel=1 note=59 velocity=80 time=16
note_on channel=1 note=47 velocity=80 time=0
note_on channel=1 note=47 velocity=0 time=32
note_on channel=1 note=59 velocity=0 time=0
note_on channel=1 note=60 velocity=80 time=16
note_on channel=1 note=48 velocity=80 time=0
note_on channel=1 note=48 velocity=0 time=32
note_on channel=1 note=60 velocity=0 time=0
note_on channel=1 note=55 velocity=80 time=16
note_on channel=1 note=60 velocity=80 time=0
note_on channel=1 note=64 velocity=80 time=0
note_on channel=1 note=64 velocity=0 time=32
note_on channel=1 note=60 velocity=0 time=0
note_on channel=1 note=55 velocity=0 time=0
note_on channel=1 note=43 velocity=80 time=16
note_on channel=1 note=43 velocity=0 time=32
note_on channel=1 note=55 velocity=80 time=16
note_on channel=1 note=60 velocity=80 time=0
note_on channel=1 note=64 velocity=80 time=0
note_on channel=1 note=64 velocity=0 time=32
note_on channel=1 note=60 velocity=0 time=0
note_on channel=1 note=55 velocity=0 time=0
note_on channel=1 note=48 velocity=80 time=16
note_on channel=1 note=48 velocity=0 time=32
note_on channel=1 note=55 velocity=80 time=16
note_on channel=1 note=60 velocity=80 time=0
note_on channel=1 note=64 velocity=80 time=0
note_on channel=1 note=64 velocity=0 time=32
note_on channel=1 note=60 velocity=0 time=0
note_on channel=1 note=55 velocity=0 time=0
note_on channel=1 note=58 velocity=80 time=16
note_on channel=1 note=46 velocity=80 time=0
note_on channel=1 note=46 velocity=0 time=32
note_on channel=1 note=58 velocity=0 time=0
note_on channel=1 note=55 velocity=80 time=16
note_on channel=1 note=58 velocity=80 time=0
note_on channel=1 note=60 velocity=80 time=0
note_on channel=1 note=64 velocity=80 time=0
note_on channel=1 note=64 velocity=0 time=32
note_on channel=1 note=55 velocity=0 time=0
note_on channel=1 note=58 velocity=0 time=0
note_on channel=1 note=60 velocity=0 time=0
note_on channel=1 note=57 velocity=80 time=16
note_on channel=1 note=45 velocity=80 time=0
note_on channel=1 note=45 velocity=0 time=32
note_on channel=1 note=57 velocity=0 time=0
note_on channel=1 note=53 velocity=80 time=16
note_on channel=1 note=41 velocity=80 time=0
note_on channel=1 note=41 velocity=0 time=32
note_on channel=1 note=53 velocity=0 time=0
note_on channel=1 note=50 velocity=80 time=16
note_on channel=1 note=38 velocity=80 time=0
note_on channel=1 note=38 velocity=0 time=32
note_on channel=1 note=50 velocity=0 time=0
note_on channel=1 note=39 velocity=80 time=16
note_on channel=1 note=51 velocity=80 time=0
note_on channel=1 note=51 velocity=0 time=32
note_on channel=1 note=39 velocity=0 time=0
note_on channel=1 note=52 velocity=80 time=16
note_on channel=1 note=40 velocity=80 time=0
note_on channel=1 note=40 velocity=0 time=32
note_on channel=1 note=52 velocity=0 time=0
note_on channel=1 note=64 velocity=80 time=16
note_on channel=1 note=60 velocity=80 time=0
note_on channel=1 note=55 velocity=80 time=0
note_on channel=1 note=55 velocity=0 time=32
note_on channel=1 note=60 velocity=0 time=0
note_on channel=1 note=64 velocity=0 time=0
note_on channel=1 note=60 velocity=80 time=16
note_on channel=1 note=48 velocity=80 time=0
note_on channel=1 note=48 velocity=0 time=32
note_on channel=1 note=60 velocity=0 time=0
note_on channel=1 note=58 velocity=80 time=16
note_on channel=1 note=46 velocity=80 time=0
note_on channel=1 note=46 velocity=0 time=32
note_on channel=1 note=58 velocity=0 time=0
note_on channel=1 note=57 velocity=80 time=16
note_on channel=1 note=45 velocity=80 time=0
note_on channel=1 note=45 velocity=0 time=32
note_on channel=1 note=57 velocity=0 time=0
note_on channel=1 note=53 velocity=80 time=16
note_on channel=1 note=41 velocity=80 time=0
note_on channel=1 note=41 velocity=0 time=32
note_on channel=1 note=53 velocity=0 time=0
note_on channel=1 note=50 velocity=80 time=16
note_on channel=1 note=38 velocity=80 time=0
note_on channel=1 note=38 velocity=0 time=32
note_on channel=1 note=50 velocity=0 time=0
note_on channel=1 note=39 velocity=80 time=16
note_on channel=1 note=51 velocity=80 time=0
note_on channel=1 note=51 velocity=0 time=32
note_on channel=1 note=39 velocity=0 time=0
note_on channel=1 note=52 velocity=80 time=16
note_on channel=1 note=40 velocity=80 time=0
note_on channel=1 note=40 velocity=0 time=32
note_on channel=1 note=52 velocity=0 time=0
note_on channel=1 note=55 velocity=80 time=16
note_on channel=1 note=60 velocity=80 time=0
note_on channel=1 note=64 velocity=80 time=0
note_on channel=1 note=64 velocity=0 time=32
note_on channel=1 note=60 velocity=0 time=0
note_on channel=1 note=55 velocity=0 time=0
note_on channel=1 note=43 velocity=80 time=16
note_on channel=1 note=43 velocity=0 time=32
note_on channel=1 note=55 velocity=80 time=16
note_on channel=1 note=60 velocity=80 time=0
note_on channel=1 note=64 velocity=80 time=0
note_on channel=1 note=64 velocity=0 time=32
note_on channel=1 note=60 velocity=0 time=0
note_on channel=1 note=55 velocity=0 time=0
note_on channel=1 note=62 velocity=80 time=16
note_on channel=1 note=50 velocity=80 time=0
note_on channel=1 note=50 velocity=0 time=64
note_on channel=1 note=62 velocity=0 time=0
note_on channel=1 note=43 velocity=80 time=32
note_on channel=1 note=55 velocity=80 time=0
note_on channel=1 note=55 velocity=0 time=64
note_on channel=1 note=43 velocity=0 time=0
note_on channel=1 note=60 velocity=80 time=32
note_on channel=1 note=48 velocity=80 time=0
note_on channel=1 note=48 velocity=0 time=80
note_on channel=1 note=60 velocity=0 time=0
note_on channel=1 note=42 velocity=80 time=16
note_on channel=1 note=54 velocity=80 time=0
note_on channel=1 note=54 velocity=0 time=32
note_on channel=1 note=42 velocity=0 time=0
note_on channel=1 note=55 velocity=80 time=16
note_on channel=1 note=43 velocity=80 time=0
note_on channel=1 note=43 velocity=0 time=32
note_on channel=1 note=55 velocity=0 time=0
note_on channel=1 note=57 velocity=80 time=16
note_on channel=1 note=45 velocity=80 time=0
note_on channel=1 note=45 velocity=0 time=32
note_on channel=1 note=57 velocity=0 time=0
note_on channel=1 note=41 velocity=80 time=16
note_on channel=1 note=53 velocity=80 time=0
note_on channel=1 note=53 velocity=0 time=32
note_on channel=1 note=41 velocity=0 time=0
note_on channel=1 note=40 velocity=80 time=16
note_on channel=1 note=52 velocity=80 time=0
note_on channel=1 note=52 velocity=0 time=32
note_on channel=1 note=40 velocity=0 time=0
note_on channel=1 note=39 velocity=80 time=16
note_on channel=1 note=51 velocity=80 time=0
note_on channel=1 note=51 velocity=0 time=32
note_on channel=1 note=39 velocity=0 time=0
note_on channel=1 note=50 velocity=80 time=16
note_on channel=1 note=38 velocity=80 time=0
note_on channel=1 note=38 velocity=0 time=32
note_on channel=1 note=50 velocity=0 time=0
note_on channel=1 note=55 velocity=80 time=16
note_on channel=1 note=59 velocity=80 time=0
note_on channel=1 note=65 velocity=80 time=0
note_on channel=1 note=65 velocity=0 time=32
note_on channel=1 note=59 velocity=0 time=0
note_on channel=1 note=55 velocity=0 time=0
note_on channel=1 note=43 velocity=80 time=16
note_on channel=1 note=43 velocity=0 time=32
note_on channel=1 note=55 velocity=80 time=16
note_on channel=1 note=59 velocity=80 time=0
note_on channel=1 note=65 velocity=80 time=0
note_on channel=1 note=65 velocity=0 time=32
note_on channel=1 note=59 velocity=0 time=0
note_on channel=1 note=55 velocity=0 time=0
note_on channel=1 note=48 velocity=80 time=16
note_on channel=1 note=48 velocity=0 time=32
note_on channel=1 note=55 velocity=80 time=16
note_on channel=1 note=58 velocity=80 time=0
note_on channel=1 note=60 velocity=80 time=0
note_on channel=1 note=64 velocity=80 time=0
note_on channel=1 note=64 velocity=0 time=32
note_on channel=1 note=55 velocity=0 time=0
note_on channel=1 note=58 velocity=0 time=0
note_on channel=1 note=60 velocity=0 time=0
note_on channel=1 note=48 velocity=80 time=16
note_on channel=1 note=48 velocity=0 time=32
note_on channel=1 note=46 velocity=80 time=16
note_on channel=1 note=58 velocity=80 time=0
note_on channel=1 note=58 velocity=0 time=32
note_on channel=1 note=46 velocity=0 time=0
note_on channel=1 note=57 velocity=80 time=16
note_on channel=1 note=45 velocity=80 time=0
note_on channel=1 note=45 velocity=0 time=32
note_on channel=1 note=57 velocity=0 time=0
note_on channel=1 note=57 velocity=80 time=16
note_on channel=1 note=60 velocity=80 time=0
note_on channel=1 note=65 velocity=80 time=0
note_on channel=1 note=65 velocity=0 time=32
note_on channel=1 note=60 velocity=0 time=0
note_on channel=1 note=57 velocity=0 time=0
note_on channel=1 note=48 velocity=80 time=16
note_on channel=1 note=48 velocity=0 time=32
note_on channel=1 note=57 velocity=80 time=16
note_on channel=1 note=60 velocity=80 time=0
note_on channel=1 note=65 velocity=80 time=0
note_on channel=1 note=65 velocity=0 time=32
note_on channel=1 note=60 velocity=0 time=0
note_on channel=1 note=57 velocity=0 time=0
note_on channel=1 note=53 velocity=80 time=16
note_on channel=1 note=53 velocity=0 time=32
note_on channel=1 note=57 velocity=80 time=16
note_on channel=1 note=60 velocity=80 time=0
note_on channel=1 note=65 velocity=80 time=0
note_on channel=1 note=65 velocity=0 time=32
note_on channel=1 note=60 velocity=0 time=0
note_on channel=1 note=57 velocity=0 time=0
note_on channel=1 note=48 velocity=80 time=16
note_on channel=1 note=48 velocity=0 time=32
note_on channel=1 note=57 velocity=80 time=16
note_on channel=1 note=60 velocity=80 time=0
note_on channel=1 note=65 velocity=80 time=0
note_on channel=1 note=65 velocity=0 time=32
note_on channel=1 note=60 velocity=0 time=0
note_on channel=1 note=57 velocity=0 time=0
note_on channel=1 note=55 velocity=80 time=16
note_on channel=1 note=55 velocity=0 time=32
note_on channel=1 note=58 velocity=80 time=16
note_on channel=1 note=60 velocity=80 time=0
note_on channel=1 note=60 velocity=0 time=32
note_on channel=1 note=58 velocity=0 time=0
note_on channel=1 note=48 velocity=80 time=16
note_on channel=1 note=48 velocity=0 time=32
note_on channel=1 note=58 velocity=80 time=16
note_on channel=1 note=60 velocity=80 time=0
note_on channel=1 note=64 velocity=80 time=0
note_on channel=1 note=64 velocity=0 time=32
note_on channel=1 note=60 velocity=0 time=0
note_on channel=1 note=58 velocity=0 time=0
note_on channel=1 note=55 velocity=80 time=16
note_on channel=1 note=55 velocity=0 time=32
note_on channel=1 note=58 velocity=80 time=16
note_on channel=1 note=60 velocity=80 time=0
note_on channel=1 note=64 velocity=80 time=0
note_on channel=1 note=64 velocity=0 time=32
note_on channel=1 note=60 velocity=0 time=0
note_on channel=1 note=58 velocity=0 time=0
note_on channel=1 note=48 velocity=80 time=16
note_on channel=1 note=48 velocity=0 time=32
note_on channel=1 note=58 velocity=80 time=16
note_on channel=1 note=60 velocity=80 time=0
note_on channel=1 note=64 velocity=80 time=0
note_on channel=1 note=64 velocity=0 time=32
note_on channel=1 note=60 velocity=0 time=0
note_on channel=1 note=58 velocity=0 time=0
note_on channel=1 note=53 velocity=80 time=16
note_on channel=1 note=53 velocity=0 time=32
note_on channel=1 note=57 velocity=80 time=16
note_on channel=1 note=60 velocity=80 time=0
note_on channel=1 note=65 velocity=80 time=0
note_on channel=1 note=65 velocity=0 time=32
note_on channel=1 note=60 velocity=0 time=0
note_on channel=1 note=57 velocity=0 time=0
note_on channel=1 note=55 velocity=80 time=16
note_on channel=1 note=43 velocity=80 time=0
note_on channel=1 note=43 velocity=0 time=32
note_on channel=1 note=55 velocity=0 time=0
note_on channel=1 note=56 velocity=80 time=16
note_on channel=1 note=44 velocity=80 time=0
note_on channel=1 note=44 velocity=0 time=32
note_on channel=1 note=56 velocity=0 time=0
note_on channel=1 note=57 velocity=80 time=16
note_on channel=1 note=45 velocity=80 time=0
note_on channel=1 note=45 velocity=0 time=32
note_on channel=1 note=57 velocity=0 time=0
note_on channel=1 note=41 velocity=80 time=16
note_on channel=1 note=53 velocity=80 time=0
note_on channel=1 note=53 velocity=0 time=32
note_on channel=1 note=41 velocity=0 time=0
note_on channel=1 note=40 velocity=80 time=16
note_on channel=1 note=52 velocity=80 time=0
note_on channel=1 note=52 velocity=0 time=32
note_on channel=1 note=40 velocity=0 time=0
note_on channel=1 note=39 velocity=80 time=16
note_on channel=1 note=51 velocity=80 time=0
note_on channel=1 note=51 velocity=0 time=32
note_on channel=1 note=39 velocity=0 time=0
note_on channel=1 note=50 velocity=80 time=16
note_on channel=1 note=38 velocity=80 time=0
note_on channel=1 note=38 velocity=0 time=32
note_on channel=1 note=50 velocity=0 time=0
note_on channel=1 note=55 velocity=80 time=16
note_on channel=1 note=59 velocity=80 time=0
note_on channel=1 note=65 velocity=80 time=0
note_on channel=1 note=65 velocity=0 time=32
note_on channel=1 note=59 velocity=0 time=0
note_on channel=1 note=55 velocity=0 time=0
note_on channel=1 note=43 velocity=80 time=16
note_on channel=1 note=43 velocity=0 time=32
note_on channel=1 note=55 velocity=80 time=16
note_on channel=1 note=59 velocity=80 time=0
note_on channel=1 note=65 velocity=80 time=0
note_on channel=1 note=65 velocity=0 time=32
note_on channel=1 note=59 velocity=0 time=0
note_on channel=1 note=55 velocity=0 time=0
note_on channel=1 note=48 velocity=80 time=16
note_on channel=1 note=48 velocity=0 time=32
note_on channel=1 note=55 velocity=80 time=16
note_on channel=1 note=58 velocity=80 time=0
note_on channel=1 note=60 velocity=80 time=0
note_on channel=1 note=64 velocity=80 time=0
note_on channel=1 note=64 velocity=0 time=32
note_on channel=1 note=55 velocity=0 time=0
note_on channel=1 note=58 velocity=0 time=0
note_on channel=1 note=60 velocity=0 time=0
note_on channel=1 note=48 velocity=80 time=16
note_on channel=1 note=48 velocity=0 time=32
note_on channel=1 note=46 velocity=80 time=16
note_on channel=1 note=58 velocity=80 time=0
note_on channel=1 note=58 velocity=0 time=32
note_on channel=1 note=46 velocity=0 time=0
note_on channel=1 note=57 velocity=80 time=16
note_on channel=1 note=45 velocity=80 time=0
note_on channel=1 note=45 velocity=0 time=32
note_on channel=1 note=57 velocity=0 time=0
note_on channel=1 note=53 velocity=80 time=16
note_on channel=1 note=41 velocity=80 time=0
note_on channel=1 note=41 velocity=0 time=32
note_on channel=1 note=53 velocity=0 time=0
note_on channel=1 note=40 velocity=80 time=16
note_on channel=1 note=52 velocity=80 time=0
note_on channel=1 note=52 velocity=0 time=32
note_on channel=1 note=40 velocity=0 time=0
note_on channel=1 note=51 velocity=80 time=16
note_on channel=1 note=39 velocity=80 time=0
note_on channel=1 note=39 velocity=0 time=32
note_on channel=1 note=51 velocity=0 time=0
note_on channel=1 note=50 velocity=80 time=16
note_on channel=1 note=38 velocity=80 time=0
note_on channel=1 note=38 velocity=0 time=32
note_on channel=1 note=50 velocity=0 time=0
note_on channel=1 note=50 velocity=80 time=16
note_on channel=1 note=53 velocity=80 time=0
note_on channel=1 note=60 velocity=80 time=0
note_on channel=1 note=60 velocity=0 time=32
note_on channel=1 note=53 velocity=0 time=0
note_on channel=1 note=50 velocity=0 time=0
note_on channel=1 note=45 velocity=80 time=16
note_on channel=1 note=45 velocity=0 time=32
note_on channel=1 note=50 velocity=80 time=16
note_on channel=1 note=53 velocity=80 time=0
note_on channel=1 note=60 velocity=80 time=0
note_on channel=1 note=60 velocity=0 time=32
note_on channel=1 note=53 velocity=0 time=0
note_on channel=1 note=50 velocity=0 time=0
note_on channel=1 note=43 velocity=80 time=16
note_on channel=1 note=43 velocity=0 time=32
note_on channel=1 note=45 velocity=80 time=16
note_on channel=1 note=45 velocity=0 time=32
note_on channel=1 note=46 velocity=80 time=16
note_on channel=1 note=46 velocity=0 time=32
note_on channel=1 note=47 velocity=80 time=16
note_on channel=1 note=47 velocity=0 time=32
note_on channel=1 note=48 velocity=80 time=16
note_on channel=1 note=48 velocity=0 time=32
note_on channel=1 note=53 velocity=80 time=16
note_on channel=1 note=57 velocity=80 time=0
note_on channel=1 note=60 velocity=80 time=0
note_on channel=1 note=60 velocity=0 time=32
note_on channel=1 note=57 velocity=0 time=0
note_on channel=1 note=53 velocity=0 time=0
note_on channel=1 note=50 velocity=80 time=16
note_on channel=1 note=50 velocity=0 time=32
note_on channel=1 note=48 velocity=80 time=16
note_on channel=1 note=48 velocity=0 time=32
note_on channel=1 note=53 velocity=80 time=16
note_on channel=1 note=41 velocity=80 time=0
note_on channel=1 note=41 velocity=0 time=32
note_on channel=1 note=53 velocity=0 time=0
note_on channel=1 note=41 velocity=80 time=16
note_on channel=1 note=53 velocity=80 time=0
note_on channel=1 note=53 velocity=0 time=32
note_on channel=1 note=41 velocity=0 time=0
note_on channel=1 note=55 velocity=80 time=16
note_on channel=1 note=43 velocity=80 time=0
note_on channel=1 note=43 velocity=0 time=32
note_on channel=1 note=55 velocity=0 time=0
note_on channel=1 note=44 velocity=80 time=16
note_on channel=1 note=56 velocity=80 time=0
note_on channel=1 note=56 velocity=0 time=32
note_on channel=1 note=44 velocity=0 time=0
note_on channel=1 note=57 velocity=80 time=16
note_on channel=1 note=45 velocity=80 time=0
note_on channel=1 note=45 velocity=0 time=32
note_on channel=1 note=57 velocity=0 time=0
note_on channel=1 note=41 velocity=80 time=16
note_on channel=1 note=53 velocity=80 time=0
note_on channel=1 note=53 velocity=0 time=32
note_on channel=1 note=41 velocity=0 time=0
note_on channel=1 note=40 velocity=80 time=16
note_on channel=1 note=52 velocity=80 time=0
note_on channel=1 note=52 velocity=0 time=32
note_on channel=1 note=40 velocity=0 time=0
note_on channel=1 note=39 velocity=80 time=16
note_on channel=1 note=51 velocity=80 time=0
note_on channel=1 note=51 velocity=0 time=32
note_on channel=1 note=39 velocity=0 time=0
note_on channel=1 note=50 velocity=80 time=16
note_on channel=1 note=38 velocity=80 time=0
note_on channel=1 note=38 velocity=0 time=32
note_on channel=1 note=50 velocity=0 time=0
note_on channel=1 note=55 velocity=80 time=16
note_on channel=1 note=59 velocity=80 time=0
note_on channel=1 note=65 velocity=80 time=0
note_on channel=1 note=65 velocity=0 time=32
note_on channel=1 note=59 velocity=0 time=0
note_on channel=1 note=55 velocity=0 time=0
note_on channel=1 note=43 velocity=80 time=16
note_on channel=1 note=43 velocity=0 time=32
note_on channel=1 note=55 velocity=80 time=16
note_on channel=1 note=59 velocity=80 time=0
note_on channel=1 note=65 velocity=80 time=0
note_on channel=1 note=65 velocity=0 time=32
note_on channel=1 note=59 velocity=0 time=0
note_on channel=1 note=55 velocity=0 time=0
note_on channel=1 note=48 velocity=80 time=16
note_on channel=1 note=48 velocity=0 time=32
note_on channel=1 note=55 velocity=80 time=16
note_on channel=1 note=58 velocity=80 time=0
note_on channel=1 note=60 velocity=80 time=0
note_on channel=1 note=64 velocity=80 time=0
note_on channel=1 note=64 velocity=0 time=32
note_on channel=1 note=55 velocity=0 time=0
note_on channel=1 note=58 velocity=0 time=0
note_on channel=1 note=60 velocity=0 time=0
note_on channel=1 note=48 velocity=80 time=16
note_on channel=1 note=48 velocity=0 time=32
note_on channel=1 note=46 velocity=80 time=16
note_on channel=1 note=58 velocity=80 time=0
note_on channel=1 note=58 velocity=0 time=32
note_on channel=1 note=46 velocity=0 time=0
note_on channel=1 note=57 velocity=80 time=16
note_on channel=1 note=45 velocity=80 time=0
note_on channel=1 note=45 velocity=0 time=32
note_on channel=1 note=57 velocity=0 time=0
note_on channel=1 note=57 velocity=80 time=16
note_on channel=1 note=60 velocity=80 time=0
note_on channel=1 note=65 velocity=80 time=0
note_on channel=1 note=65 velocity=0 time=32
note_on channel=1 note=60 velocity=0 time=0
note_on channel=1 note=57 velocity=0 time=0
note_on channel=1 note=48 velocity=80 time=16
note_on channel=1 note=48 velocity=0 time=32
note_on channel=1 note=57 velocity=80 time=16
note_on channel=1 note=60 velocity=80 time=0
note_on channel=1 note=65 velocity=80 time=0
note_on channel=1 note=65 velocity=0 time=32
note_on channel=1 note=60 velocity=0 time=0
note_on channel=1 note=57 velocity=0 time=0
note_on channel=1 note=53 velocity=80 time=16
note_on channel=1 note=53 velocity=0 time=32
note_on channel=1 note=57 velocity=80 time=16
note_on channel=1 note=60 velocity=80 time=0
note_on channel=1 note=65 velocity=80 time=0
note_on channel=1 note=65 velocity=0 time=32
note_on channel=1 note=60 velocity=0 time=0
note_on channel=1 note=57 velocity=0 time=0
note_on channel=1 note=48 velocity=80 time=16
note_on channel=1 note=48 velocity=0 time=32
note_on channel=1 note=57 velocity=80 time=16
note_on channel=1 note=60 velocity=80 time=0
note_on channel=1 note=65 velocity=80 time=0
note_on channel=1 note=65 velocity=0 time=32
note_on channel=1 note=60 velocity=0 time=0
note_on channel=1 note=57 velocity=0 time=0
note_on channel=1 note=55 velocity=80 time=16
note_on channel=1 note=55 velocity=0 time=32
note_on channel=1 note=58 velocity=80 time=16
note_on channel=1 note=60 velocity=80 time=0
note_on channel=1 note=60 velocity=0 time=32
note_on channel=1 note=58 velocity=0 time=0
note_on channel=1 note=48 velocity=80 time=16
note_on channel=1 note=48 velocity=0 time=32
note_on channel=1 note=58 velocity=80 time=16
note_on channel=1 note=60 velocity=80 time=0
note_on channel=1 note=64 velocity=80 time=0
note_on channel=1 note=64 velocity=0 time=32
note_on channel=1 note=60 velocity=0 time=0
note_on channel=1 note=58 velocity=0 time=0
note_on channel=1 note=55 velocity=80 time=16
note_on channel=1 note=55 velocity=0 time=32
note_on channel=1 note=58 velocity=80 time=16
note_on channel=1 note=60 velocity=80 time=0
note_on channel=1 note=64 velocity=80 time=0
note_on channel=1 note=64 velocity=0 time=32
note_on channel=1 note=60 velocity=0 time=0
note_on channel=1 note=58 velocity=0 time=0
note_on channel=1 note=48 velocity=80 time=16
note_on channel=1 note=48 velocity=0 time=32
note_on channel=1 note=58 velocity=80 time=16
note_on channel=1 note=60 velocity=80 time=0
note_on channel=1 note=64 velocity=80 time=0
note_on channel=1 note=64 velocity=0 time=32
note_on channel=1 note=60 velocity=0 time=0
note_on channel=1 note=58 velocity=0 time=0
note_on channel=1 note=53 velocity=80 time=16
note_on channel=1 note=53 velocity=0 time=32
note_on channel=1 note=57 velocity=80 time=16
note_on channel=1 note=60 velocity=80 time=0
note_on channel=1 note=65 velocity=80 time=0
note_on channel=1 note=65 velocity=0 time=32
note_on channel=1 note=60 velocity=0 time=0
note_on channel=1 note=57 velocity=0 time=0
note_on channel=1 note=55 velocity=80 time=16
note_on channel=1 note=43 velocity=80 time=0
note_on channel=1 note=43 velocity=0 time=32
note_on channel=1 note=55 velocity=0 time=0
note_on channel=1 note=56 velocity=80 time=16
note_on channel=1 note=44 velocity=80 time=0
note_on channel=1 note=44 velocity=0 time=32
note_on channel=1 note=56 velocity=0 time=0
note_on channel=1 note=57 velocity=80 time=16
note_on channel=1 note=45 velocity=80 time=0
note_on channel=1 note=45 velocity=0 time=32
note_on channel=1 note=57 velocity=0 time=0
note_on channel=1 note=41 velocity=80 time=16
note_on channel=1 note=53 velocity=80 time=0
note_on channel=1 note=53 velocity=0 time=32
note_on channel=1 note=41 velocity=0 time=0
note_on channel=1 note=40 velocity=80 time=16
note_on channel=1 note=52 velocity=80 time=0
note_on channel=1 note=52 velocity=0 time=32
note_on channel=1 note=40 velocity=0 time=0
note_on channel=1 note=39 velocity=80 time=16
note_on channel=1 note=51 velocity=80 time=0
note_on channel=1 note=51 velocity=0 time=32
note_on channel=1 note=39 velocity=0 time=0
note_on channel=1 note=50 velocity=80 time=16
note_on channel=1 note=38 velocity=80 time=0
note_on channel=1 note=38 velocity=0 time=32
note_on channel=1 note=50 velocity=0 time=0
note_on channel=1 note=55 velocity=80 time=16
note_on channel=1 note=59 velocity=80 time=0
note_on channel=1 note=65 velocity=80 time=0
note_on channel=1 note=65 velocity=0 time=32
note_on channel=1 note=59 velocity=0 time=0
note_on channel=1 note=55 velocity=0 time=0
note_on channel=1 note=43 velocity=80 time=16
note_on channel=1 note=43 velocity=0 time=32
note_on channel=1 note=55 velocity=80 time=16
note_on channel=1 note=59 velocity=80 time=0
note_on channel=1 note=65 velocity=80 time=0
note_on channel=1 note=65 velocity=0 time=32
note_on channel=1 note=59 velocity=0 time=0
note_on channel=1 note=55 velocity=0 time=0
note_on channel=1 note=48 velocity=80 time=16
note_on channel=1 note=48 velocity=0 time=32
note_on channel=1 note=55 velocity=80 time=16
note_on channel=1 note=58 velocity=80 time=0
note_on channel=1 note=60 velocity=80 time=0
note_on channel=1 note=64 velocity=80 time=0
note_on channel=1 note=64 velocity=0 time=32
note_on channel=1 note=55 velocity=0 time=0
note_on channel=1 note=58 velocity=0 time=0
note_on channel=1 note=60 velocity=0 time=0
note_on channel=1 note=48 velocity=80 time=16
note_on channel=1 note=48 velocity=0 time=32
note_on channel=1 note=46 velocity=80 time=16
note_on channel=1 note=58 velocity=80 time=0
note_on channel=1 note=58 velocity=0 time=32
note_on channel=1 note=46 velocity=0 time=0
note_on channel=1 note=57 velocity=80 time=16
note_on channel=1 note=45 velocity=80 time=0
note_on channel=1 note=45 velocity=0 time=32
note_on channel=1 note=57 velocity=0 time=0
note_on channel=1 note=53 velocity=80 time=16
note_on channel=1 note=41 velocity=80 time=0
note_on channel=1 note=41 velocity=0 time=32
note_on channel=1 note=53 velocity=0 time=0
note_on channel=1 note=40 velocity=80 time=16
note_on channel=1 note=52 velocity=80 time=0
note_on channel=1 note=52 velocity=0 time=32
note_on channel=1 note=40 velocity=0 time=0
note_on channel=1 note=51 velocity=80 time=16
note_on channel=1 note=39 velocity=80 time=0
note_on channel=1 note=39 velocity=0 time=32
note_on channel=1 note=51 velocity=0 time=0
note_on channel=1 note=50 velocity=80 time=16
note_on channel=1 note=38 velocity=80 time=0
note_on channel=1 note=38 velocity=0 time=32
note_on channel=1 note=50 velocity=0 time=0
note_on channel=1 note=50 velocity=80 time=16
note_on channel=1 note=53 velocity=80 time=0
note_on channel=1 note=60 velocity=80 time=0
note_on channel=1 note=60 velocity=0 time=32
note_on channel=1 note=53 velocity=0 time=0
note_on channel=1 note=50 velocity=0 time=0
note_on channel=1 note=45 velocity=80 time=16
note_on channel=1 note=45 velocity=0 time=32
note_on channel=1 note=50 velocity=80 time=16
note_on channel=1 note=53 velocity=80 time=0
note_on channel=1 note=60 velocity=80 time=0
note_on channel=1 note=60 velocity=0 time=32
note_on channel=1 note=53 velocity=0 time=0
note_on channel=1 note=50 velocity=0 time=0
note_on channel=1 note=43 velocity=80 time=16
note_on channel=1 note=43 velocity=0 time=32
note_on channel=1 note=45 velocity=80 time=16
note_on channel=1 note=45 velocity=0 time=32
note_on channel=1 note=46 velocity=80 time=16
note_on channel=1 note=46 velocity=0 time=32
note_on channel=1 note=47 velocity=80 time=16
note_on channel=1 note=47 velocity=0 time=32
note_on channel=1 note=48 velocity=80 time=16
note_on channel=1 note=48 velocity=0 time=32
note_on channel=1 note=53 velocity=80 time=16
note_on channel=1 note=57 velocity=80 time=0
note_on channel=1 note=60 velocity=80 time=0
note_on channel=1 note=60 velocity=0 time=32
note_on channel=1 note=57 velocity=0 time=0
note_on channel=1 note=53 velocity=0 time=0
note_on channel=1 note=50 velocity=80 time=16
note_on channel=1 note=50 velocity=0 time=32
note_on channel=1 note=48 velocity=80 time=16
note_on channel=1 note=48 velocity=0 time=32
note_on channel=1 note=53 velocity=80 time=16
note_on channel=1 note=41 velocity=80 time=0
note_on channel=1 note=41 velocity=0 time=32
note_on channel=1 note=53 velocity=0 time=0
note_on channel=1 note=41 velocity=80 time=64
note_on channel=1 note=29 velocity=80 time=0
note_on channel=1 note=29 velocity=0 time=32
note_on channel=1 note=41 velocity=0 time=0
note_on channel=1 note=60 velocity=80 time=64
note_on channel=1 note=48 velocity=80 time=0
note_on channel=1 note=48 velocity=0 time=32
note_on channel=1 note=60 velocity=0 time=0
note_on channel=1 note=60 velocity=80 time=16
note_on channel=1 note=64 velocity=80 time=0
note_on channel=1 note=55 velocity=80 time=0
note_on channel=1 note=55 velocity=0 time=32
note_on channel=1 note=64 velocity=0 time=0
note_on channel=1 note=60 velocity=0 time=0
note_on channel=1 note=60 velocity=80 time=16
note_on channel=1 note=48 velocity=80 time=0
note_on channel=1 note=48 velocity=0 time=32
note_on channel=1 note=60 velocity=0 time=0
note_on channel=1 note=61 velocity=80 time=16
note_on channel=1 note=49 velocity=80 time=0
note_on channel=1 note=49 velocity=0 time=32
note_on channel=1 note=61 velocity=0 time=0
note_on channel=1 note=62 velocity=80 time=16
note_on channel=1 note=50 velocity=80 time=0
note_on channel=1 note=50 velocity=0 time=32
note_on channel=1 note=62 velocity=0 time=0
note_on channel=1 note=55 velocity=80 time=16
note_on channel=1 note=59 velocity=80 time=0
note_on channel=1 note=65 velocity=80 time=0
note_on channel=1 note=65 velocity=0 time=32
note_on channel=1 note=59 velocity=0 time=0
note_on channel=1 note=55 velocity=0 time=0
note_on channel=1 note=55 velocity=80 time=16
note_on channel=1 note=43 velocity=80 time=0
note_on channel=1 note=43 velocity=0 time=32
note_on channel=1 note=55 velocity=0 time=0
note_on channel=1 note=55 velocity=80 time=16
note_on channel=1 note=59 velocity=80 time=0
note_on channel=1 note=65 velocity=80 time=0
note_on channel=1 note=65 velocity=0 time=32
note_on channel=1 note=59 velocity=0 time=0
note_on channel=1 note=55 velocity=0 time=0
note_on channel=1 note=60 velocity=80 time=16
note_on channel=1 note=48 velocity=80 time=0
note_on channel=1 note=48 velocity=0 time=32
note_on channel=1 note=60 velocity=0 time=0
note_on channel=1 note=55 velocity=80 time=16
note_on channel=1 note=60 velocity=80 time=0
note_on channel=1 note=64 velocity=80 time=0
note_on channel=1 note=64 velocity=0 time=32
note_on channel=1 note=60 velocity=0 time=0
note_on channel=1 note=55 velocity=0 time=0
note_on channel=1 note=60 velocity=80 time=16
note_on channel=1 note=48 velocity=80 time=0
note_on channel=1 note=48 velocity=0 time=32
note_on channel=1 note=60 velocity=0 time=0
note_on channel=1 note=49 velocity=80 time=16
note_on channel=1 note=61 velocity=80 time=0
note_on channel=1 note=61 velocity=0 time=32
note_on channel=1 note=49 velocity=0 time=0
note_on channel=1 note=62 velocity=80 time=16
note_on channel=1 note=50 velocity=80 time=0
note_on channel=1 note=50 velocity=0 time=32
note_on channel=1 note=62 velocity=0 time=0
note_on channel=1 note=55 velocity=80 time=16
note_on channel=1 note=59 velocity=80 time=0
note_on channel=1 note=65 velocity=80 time=0
note_on channel=1 note=65 velocity=0 time=32
note_on channel=1 note=59 velocity=0 time=0
note_on channel=1 note=55 velocity=0 time=0
note_on channel=1 note=55 velocity=80 time=16
note_on channel=1 note=43 velocity=80 time=0
note_on channel=1 note=43 velocity=0 time=32
note_on channel=1 note=55 velocity=0 time=0
note_on channel=1 note=55 velocity=80 time=16
note_on channel=1 note=59 velocity=80 time=0
note_on channel=1 note=65 velocity=80 time=0
note_on channel=1 note=65 velocity=0 time=32
note_on channel=1 note=59 velocity=0 time=0
note_on channel=1 note=55 velocity=0 time=0
note_on channel=1 note=60 velocity=80 time=16
note_on channel=1 note=48 velocity=80 time=0
note_on channel=1 note=48 velocity=0 time=32
note_on channel=1 note=60 velocity=0 time=0
note_on channel=1 note=55 velocity=80 time=16
note_on channel=1 note=60 velocity=80 time=0
note_on channel=1 note=64 velocity=80 time=0
note_on channel=1 note=64 velocity=0 time=32
note_on channel=1 note=60 velocity=0 time=0
note_on channel=1 note=55 velocity=0 time=0
note_on channel=1 note=58 velocity=80 time=16
note_on channel=1 note=46 velocity=80 time=0
note_on channel=1 note=46 velocity=0 time=32
note_on channel=1 note=58 velocity=0 time=0
note_on channel=1 note=64 velocity=80 time=16
note_on channel=1 note=60 velocity=80 time=0
note_on channel=1 note=55 velocity=80 time=0
note_on channel=1 note=55 velocity=0 time=32
note_on channel=1 note=60 velocity=0 time=0
note_on channel=1 note=64 velocity=0 time=0
note_on channel=1 note=57 velocity=80 time=16
note_on channel=1 note=45 velocity=80 time=0
note_on channel=1 note=45 velocity=0 time=32
note_on channel=1 note=57 velocity=0 time=0
note_on channel=1 note=57 velocity=80 time=16
note_on channel=1 note=60 velocity=80 time=0
note_on channel=1 note=65 velocity=80 time=0
note_on channel=1 note=65 velocity=0 time=32
note_on channel=1 note=60 velocity=0 time=0
note_on channel=1 note=57 velocity=0 time=0
note_on channel=1 note=53 velocity=80 time=16
note_on channel=1 note=41 velocity=80 time=0
note_on channel=1 note=41 velocity=0 time=32
note_on channel=1 note=53 velocity=0 time=0
note_on channel=1 note=57 velocity=80 time=16
note_on channel=1 note=60 velocity=80 time=0
note_on channel=1 note=65 velocity=80 time=0
note_on channel=1 note=65 velocity=0 time=32
note_on channel=1 note=60 velocity=0 time=0
note_on channel=1 note=57 velocity=0 time=0
note_on channel=1 note=50 velocity=80 time=16
note_on channel=1 note=38 velocity=80 time=0
note_on channel=1 note=38 velocity=0 time=32
note_on channel=1 note=50 velocity=0 time=0
note_on channel=1 note=57 velocity=80 time=16
note_on channel=1 note=60 velocity=80 time=0
note_on channel=1 note=62 velocity=80 time=0
note_on channel=1 note=62 velocity=0 time=32
note_on channel=1 note=60 velocity=0 time=0
note_on channel=1 note=57 velocity=0 time=0
note_on channel=1 note=50 velocity=80 time=16
note_on channel=1 note=38 velocity=80 time=0
note_on channel=1 note=38 velocity=0 time=32
note_on channel=1 note=50 velocity=0 time=0
note_on channel=1 note=57 velocity=80 time=16
note_on channel=1 note=60 velocity=80 time=0
note_on channel=1 note=62 velocity=80 time=0
note_on channel=1 note=62 velocity=0 time=32
note_on channel=1 note=60 velocity=0 time=0
note_on channel=1 note=57 velocity=0 time=0
note_on channel=1 note=55 velocity=80 time=16
note_on channel=1 note=43 velocity=80 time=0
note_on channel=1 note=43 velocity=0 time=32
note_on channel=1 note=55 velocity=0 time=0
note_on channel=1 note=64 velocity=80 time=16
note_on channel=1 note=52 velocity=80 time=0
note_on channel=1 note=52 velocity=0 time=32
note_on channel=1 note=64 velocity=0 time=0
note_on channel=1 note=51 velocity=80 time=16
note_on channel=1 note=63 velocity=80 time=0
note_on channel=1 note=63 velocity=0 time=32
note_on channel=1 note=51 velocity=0 time=0
note_on channel=1 note=62 velocity=80 time=16
note_on channel=1 note=50 velocity=80 time=0
note_on channel=1 note=50 velocity=0 time=32
note_on channel=1 note=62 velocity=0 time=0
note_on channel=1 note=60 velocity=80 time=16
note_on channel=1 note=48 velocity=80 time=0
note_on channel=1 note=48 velocity=0 time=32
note_on channel=1 note=60 velocity=0 time=0
note_on channel=1 note=60 velocity=80 time=16
note_on channel=1 note=64 velocity=80 time=0
note_on channel=1 note=55 velocity=80 time=0
note_on channel=1 note=55 velocity=0 time=32
note_on channel=1 note=64 velocity=0 time=0
note_on channel=1 note=60 velocity=0 time=0
note_on channel=1 note=60 velocity=80 time=16
note_on channel=1 note=48 velocity=80 time=0
note_on channel=1 note=48 velocity=0 time=32
note_on channel=1 note=60 velocity=0 time=0
note_on channel=1 note=61 velocity=80 time=16
note_on channel=1 note=49 velocity=80 time=0
note_on channel=1 note=49 velocity=0 time=32
note_on channel=1 note=61 velocity=0 time=0
note_on channel=1 note=62 velocity=80 time=16
note_on channel=1 note=50 velocity=80 time=0
note_on channel=1 note=50 velocity=0 time=32
note_on channel=1 note=62 velocity=0 time=0
note_on channel=1 note=55 velocity=80 time=16
note_on channel=1 note=59 velocity=80 time=0
note_on channel=1 note=65 velocity=80 time=0
note_on channel=1 note=65 velocity=0 time=32
note_on channel=1 note=59 velocity=0 time=0
note_on channel=1 note=55 velocity=0 time=0
note_on channel=1 note=55 velocity=80 time=16
note_on channel=1 note=43 velocity=80 time=0
note_on channel=1 note=43 velocity=0 time=32
note_on channel=1 note=55 velocity=0 time=0
note_on channel=1 note=55 velocity=80 time=16
note_on channel=1 note=59 velocity=80 time=0
note_on channel=1 note=65 velocity=80 time=0
note_on channel=1 note=65 velocity=0 time=32
note_on channel=1 note=59 velocity=0 time=0
note_on channel=1 note=55 velocity=0 time=0
note_on channel=1 note=60 velocity=80 time=16
note_on channel=1 note=48 velocity=80 time=0
note_on channel=1 note=48 velocity=0 time=32
note_on channel=1 note=60 velocity=0 time=0
note_on channel=1 note=55 velocity=80 time=16
note_on channel=1 note=60 velocity=80 time=0
note_on channel=1 note=64 velocity=80 time=0
note_on channel=1 note=64 velocity=0 time=32
note_on channel=1 note=60 velocity=0 time=0
note_on channel=1 note=55 velocity=0 time=0
note_on channel=1 note=60 velocity=80 time=16
note_on channel=1 note=48 velocity=80 time=0
note_on channel=1 note=48 velocity=0 time=32
note_on channel=1 note=60 velocity=0 time=0
note_on channel=1 note=49 velocity=80 time=16
note_on channel=1 note=61 velocity=80 time=0
note_on channel=1 note=61 velocity=0 time=32
note_on channel=1 note=49 velocity=0 time=0
note_on channel=1 note=62 velocity=80 time=16
note_on channel=1 note=50 velocity=80 time=0
note_on channel=1 note=50 velocity=0 time=32
note_on channel=1 note=62 velocity=0 time=0
note_on channel=1 note=55 velocity=80 time=16
note_on channel=1 note=59 velocity=80 time=0
note_on channel=1 note=65 velocity=80 time=0
note_on channel=1 note=65 velocity=0 time=32
note_on channel=1 note=59 velocity=0 time=0
note_on channel=1 note=55 velocity=0 time=0
note_on channel=1 note=55 velocity=80 time=16
note_on channel=1 note=43 velocity=80 time=0
note_on channel=1 note=43 velocity=0 time=32
note_on channel=1 note=55 velocity=0 time=0
note_on channel=1 note=55 velocity=80 time=16
note_on channel=1 note=59 velocity=80 time=0
note_on channel=1 note=65 velocity=80 time=0
note_on channel=1 note=65 velocity=0 time=32
note_on channel=1 note=59 velocity=0 time=0
note_on channel=1 note=55 velocity=0 time=0
note_on channel=1 note=60 velocity=80 time=16
note_on channel=1 note=48 velocity=80 time=0
note_on channel=1 note=48 velocity=0 time=32
note_on channel=1 note=60 velocity=0 time=0
note_on channel=1 note=55 velocity=80 time=16
note_on channel=1 note=60 velocity=80 time=0
note_on channel=1 note=64 velocity=80 time=0
note_on channel=1 note=64 velocity=0 time=32
note_on channel=1 note=60 velocity=0 time=0
note_on channel=1 note=55 velocity=0 time=0
note_on channel=1 note=58 velocity=80 time=16
note_on channel=1 note=46 velocity=80 time=0
note_on channel=1 note=46 velocity=0 time=32
note_on channel=1 note=58 velocity=0 time=0
note_on channel=1 note=64 velocity=80 time=16
note_on channel=1 note=60 velocity=80 time=0
note_on channel=1 note=55 velocity=80 time=0
note_on channel=1 note=55 velocity=0 time=32
note_on channel=1 note=60 velocity=0 time=0
note_on channel=1 note=64 velocity=0 time=0
note_on channel=1 note=57 velocity=80 time=16
note_on channel=1 note=45 velocity=80 time=0
note_on channel=1 note=45 velocity=0 time=32
note_on channel=1 note=57 velocity=0 time=0
note_on channel=1 note=57 velocity=80 time=16
note_on channel=1 note=60 velocity=80 time=0
note_on channel=1 note=65 velocity=80 time=0
note_on channel=1 note=65 velocity=0 time=32
note_on channel=1 note=60 velocity=0 time=0
note_on channel=1 note=57 velocity=0 time=0
note_on channel=1 note=54 velocity=80 time=16
note_on channel=1 note=42 velocity=80 time=0
note_on channel=1 note=42 velocity=0 time=32
note_on channel=1 note=54 velocity=0 time=0
note_on channel=1 note=57 velocity=80 time=16
note_on channel=1 note=60 velocity=80 time=0
note_on channel=1 note=63 velocity=80 time=0
note_on channel=1 note=63 velocity=0 time=32
note_on channel=1 note=60 velocity=0 time=0
note_on channel=1 note=57 velocity=0 time=0
note_on channel=1 note=55 velocity=80 time=16
note_on channel=1 note=43 velocity=80 time=0
note_on channel=1 note=43 velocity=0 time=32
note_on channel=1 note=55 velocity=0 time=0
note_on channel=1 note=55 velocity=80 time=16
note_on channel=1 note=64 velocity=80 time=0
note_on channel=1 note=60 velocity=80 time=0
note_on channel=1 note=60 velocity=0 time=32
note_on channel=1 note=64 velocity=0 time=0
note_on channel=1 note=55 velocity=0 time=0
note_on channel=1 note=43 velocity=80 time=16
note_on channel=1 note=43 velocity=0 time=32
note_on channel=1 note=55 velocity=80 time=16
note_on channel=1 note=62 velocity=80 time=0
note_on channel=1 note=62 velocity=0 time=32
note_on channel=1 note=55 velocity=0 time=0
note_on channel=1 note=60 velocity=80 time=16
note_on channel=1 note=48 velocity=80 time=0
note_on channel=1 note=48 velocity=0 time=32
note_on channel=1 note=60 velocity=0 time=0
note_on channel=1 note=64 velocity=80 time=16
note_on channel=1 note=52 velocity=80 time=0
note_on channel=1 note=52 velocity=0 time=32
note_on channel=1 note=64 velocity=0 time=0
note_on channel=1 note=51 velocity=80 time=16
note_on channel=1 note=63 velocity=80 time=0
note_on channel=1 note=63 velocity=0 time=32
note_on channel=1 note=51 velocity=0 time=0
note_on channel=1 note=62 velocity=80 time=16
note_on channel=1 note=50 velocity=80 time=0
note_on channel=1 note=50 velocity=0 time=32
note_on channel=1 note=62 velocity=0 time=0
note_on channel=1 note=60 velocity=80 time=16
note_on channel=1 note=48 velocity=80 time=0
note_on channel=1 note=48 velocity=0 time=32
note_on channel=1 note=60 velocity=0 time=0
note_on channel=1 note=60 velocity=80 time=16
note_on channel=1 note=64 velocity=80 time=0
note_on channel=1 note=55 velocity=80 time=0
note_on channel=1 note=55 velocity=0 time=32
note_on channel=1 note=64 velocity=0 time=0
note_on channel=1 note=60 velocity=0 time=0
note_on channel=1 note=60 velocity=80 time=16
note_on channel=1 note=48 velocity=80 time=0
note_on channel=1 note=48 velocity=0 time=32
note_on channel=1 note=60 velocity=0 time=0
note_on channel=1 note=61 velocity=80 time=16
note_on channel=1 note=49 velocity=80 time=0
note_on channel=1 note=49 velocity=0 time=32
note_on channel=1 note=61 velocity=0 time=0
note_on channel=1 note=62 velocity=80 time=16
note_on channel=1 note=50 velocity=80 time=0
note_on channel=1 note=50 velocity=0 time=32
note_on channel=1 note=62 velocity=0 time=0
note_on channel=1 note=55 velocity=80 time=16
note_on channel=1 note=59 velocity=80 time=0
note_on channel=1 note=65 velocity=80 time=0
note_on channel=1 note=65 velocity=0 time=32
note_on channel=1 note=59 velocity=0 time=0
note_on channel=1 note=55 velocity=0 time=0
note_on channel=1 note=55 velocity=80 time=16
note_on channel=1 note=43 velocity=80 time=0
note_on channel=1 note=43 velocity=0 time=32
note_on channel=1 note=55 velocity=0 time=0
note_on channel=1 note=55 velocity=80 time=16
note_on channel=1 note=59 velocity=80 time=0
note_on channel=1 note=65 velocity=80 time=0
note_on channel=1 note=65 velocity=0 time=32
note_on channel=1 note=59 velocity=0 time=0
note_on channel=1 note=55 velocity=0 time=0
note_on channel=1 note=60 velocity=80 time=16
note_on channel=1 note=48 velocity=80 time=0
note_on channel=1 note=48 velocity=0 time=32
note_on channel=1 note=60 velocity=0 time=0
note_on channel=1 note=55 velocity=80 time=16
note_on channel=1 note=60 velocity=80 time=0
note_on channel=1 note=64 velocity=80 time=0
note_on channel=1 note=64 velocity=0 time=32
note_on channel=1 note=60 velocity=0 time=0
note_on channel=1 note=55 velocity=0 time=0
note_on channel=1 note=60 velocity=80 time=16
note_on channel=1 note=48 velocity=80 time=0
note_on channel=1 note=48 velocity=0 time=32
note_on channel=1 note=60 velocity=0 time=0
note_on channel=1 note=49 velocity=80 time=16
note_on channel=1 note=61 velocity=80 time=0
note_on channel=1 note=61 velocity=0 time=32
note_on channel=1 note=49 velocity=0 time=0
note_on channel=1 note=62 velocity=80 time=16
note_on channel=1 note=50 velocity=80 time=0
note_on channel=1 note=50 velocity=0 time=32
note_on channel=1 note=62 velocity=0 time=0
note_on channel=1 note=55 velocity=80 time=16
note_on channel=1 note=59 velocity=80 time=0
note_on channel=1 note=65 velocity=80 time=0
note_on channel=1 note=65 velocity=0 time=32
note_on channel=1 note=59 velocity=0 time=0
note_on channel=1 note=55 velocity=0 time=0
note_on channel=1 note=55 velocity=80 time=16
note_on channel=1 note=43 velocity=80 time=0
note_on channel=1 note=43 velocity=0 time=32
note_on channel=1 note=55 velocity=0 time=0
note_on channel=1 note=55 velocity=80 time=16
note_on channel=1 note=59 velocity=80 time=0
note_on channel=1 note=65 velocity=80 time=0
note_on channel=1 note=65 velocity=0 time=32
note_on channel=1 note=59 velocity=0 time=0
note_on channel=1 note=55 velocity=0 time=0
note_on channel=1 note=60 velocity=80 time=16
note_on channel=1 note=48 velocity=80 time=0
note_on channel=1 note=48 velocity=0 time=32
note_on channel=1 note=60 velocity=0 time=0
note_on channel=1 note=55 velocity=80 time=16
note_on channel=1 note=60 velocity=80 time=0
note_on channel=1 note=64 velocity=80 time=0
note_on channel=1 note=64 velocity=0 time=32
note_on channel=1 note=60 velocity=0 time=0
note_on channel=1 note=55 velocity=0 time=0
note_on channel=1 note=58 velocity=80 time=16
note_on channel=1 note=46 velocity=80 time=0
note_on channel=1 note=46 velocity=0 time=32
note_on channel=1 note=58 velocity=0 time=0
note_on channel=1 note=64 velocity=80 time=16
note_on channel=1 note=60 velocity=80 time=0
note_on channel=1 note=55 velocity=80 time=0
note_on channel=1 note=55 velocity=0 time=32
note_on channel=1 note=60 velocity=0 time=0
note_on channel=1 note=64 velocity=0 time=0
note_on channel=1 note=57 velocity=80 time=16
note_on channel=1 note=45 velocity=80 time=0
note_on channel=1 note=45 velocity=0 time=32
note_on channel=1 note=57 velocity=0 time=0
note_on channel=1 note=57 velocity=80 time=16
note_on channel=1 note=60 velocity=80 time=0
note_on channel=1 note=65 velocity=80 time=0
note_on channel=1 note=65 velocity=0 time=32
note_on channel=1 note=60 velocity=0 time=0
note_on channel=1 note=57 velocity=0 time=0
note_on channel=1 note=53 velocity=80 time=16
note_on channel=1 note=41 velocity=80 time=0
note_on channel=1 note=41 velocity=0 time=32
note_on channel=1 note=53 velocity=0 time=0
note_on channel=1 note=57 velocity=80 time=16
note_on channel=1 note=60 velocity=80 time=0
note_on channel=1 note=65 velocity=80 time=0
note_on channel=1 note=65 velocity=0 time=32
note_on channel=1 note=60 velocity=0 time=0
note_on channel=1 note=57 velocity=0 time=0
note_on channel=1 note=50 velocity=80 time=16
note_on channel=1 note=38 velocity=80 time=0
note_on channel=1 note=38 velocity=0 time=32
note_on channel=1 note=50 velocity=0 time=0
note_on channel=1 note=57 velocity=80 time=16
note_on channel=1 note=60 velocity=80 time=0
note_on channel=1 note=62 velocity=80 time=0
note_on channel=1 note=62 velocity=0 time=32
note_on channel=1 note=60 velocity=0 time=0
note_on channel=1 note=57 velocity=0 time=0
note_on channel=1 note=50 velocity=80 time=16
note_on channel=1 note=38 velocity=80 time=0
note_on channel=1 note=38 velocity=0 time=32
note_on channel=1 note=50 velocity=0 time=0
note_on channel=1 note=57 velocity=80 time=16
note_on channel=1 note=60 velocity=80 time=0
note_on channel=1 note=62 velocity=80 time=0
note_on channel=1 note=62 velocity=0 time=32
note_on channel=1 note=60 velocity=0 time=0
note_on channel=1 note=57 velocity=0 time=0
note_on channel=1 note=55 velocity=80 time=16
note_on channel=1 note=43 velocity=80 time=0
note_on channel=1 note=43 velocity=0 time=32
note_on channel=1 note=55 velocity=0 time=0
note_on channel=1 note=64 velocity=80 time=16
note_on channel=1 note=52 velocity=80 time=0
note_on channel=1 note=52 velocity=0 time=32
note_on channel=1 note=64 velocity=0 time=0
note_on channel=1 note=51 velocity=80 time=16
note_on channel=1 note=63 velocity=80 time=0
note_on channel=1 note=63 velocity=0 time=32
note_on channel=1 note=51 velocity=0 time=0
note_on channel=1 note=62 velocity=80 time=16
note_on channel=1 note=50 velocity=80 time=0
note_on channel=1 note=50 velocity=0 time=32
note_on channel=1 note=62 velocity=0 time=0
note_on channel=1 note=60 velocity=80 time=16
note_on channel=1 note=48 velocity=80 time=0
note_on channel=1 note=48 velocity=0 time=32
note_on channel=1 note=60 velocity=0 time=0
note_on channel=1 note=60 velocity=80 time=16
note_on channel=1 note=64 velocity=80 time=0
note_on channel=1 note=55 velocity=80 time=0
note_on channel=1 note=55 velocity=0 time=32
note_on channel=1 note=64 velocity=0 time=0
note_on channel=1 note=60 velocity=0 time=0
note_on channel=1 note=60 velocity=80 time=16
note_on channel=1 note=48 velocity=80 time=0
note_on channel=1 note=48 velocity=0 time=32
note_on channel=1 note=60 velocity=0 time=0
note_on channel=1 note=61 velocity=80 time=16
note_on channel=1 note=49 velocity=80 time=0
note_on channel=1 note=49 velocity=0 time=32
note_on channel=1 note=61 velocity=0 time=0
note_on channel=1 note=62 velocity=80 time=16
note_on channel=1 note=50 velocity=80 time=0
note_on channel=1 note=50 velocity=0 time=32
note_on channel=1 note=62 velocity=0 time=0
note_on channel=1 note=55 velocity=80 time=16
note_on channel=1 note=59 velocity=80 time=0
note_on channel=1 note=65 velocity=80 time=0
note_on channel=1 note=65 velocity=0 time=32
note_on channel=1 note=59 velocity=0 time=0
note_on channel=1 note=55 velocity=0 time=0
note_on channel=1 note=55 velocity=80 time=16
note_on channel=1 note=43 velocity=80 time=0
note_on channel=1 note=43 velocity=0 time=32
note_on channel=1 note=55 velocity=0 time=0
note_on channel=1 note=55 velocity=80 time=16
note_on channel=1 note=59 velocity=80 time=0
note_on channel=1 note=65 velocity=80 time=0
note_on channel=1 note=65 velocity=0 time=32
note_on channel=1 note=59 velocity=0 time=0
note_on channel=1 note=55 velocity=0 time=0
note_on channel=1 note=60 velocity=80 time=16
note_on channel=1 note=48 velocity=80 time=0
note_on channel=1 note=48 velocity=0 time=32
note_on channel=1 note=60 velocity=0 time=0
note_on channel=1 note=55 velocity=80 time=16
note_on channel=1 note=60 velocity=80 time=0
note_on channel=1 note=64 velocity=80 time=0
note_on channel=1 note=64 velocity=0 time=32
note_on channel=1 note=60 velocity=0 time=0
note_on channel=1 note=55 velocity=0 time=0
note_on channel=1 note=60 velocity=80 time=16
note_on channel=1 note=48 velocity=80 time=0
note_on channel=1 note=48 velocity=0 time=32
note_on channel=1 note=60 velocity=0 time=0
note_on channel=1 note=49 velocity=80 time=16
note_on channel=1 note=61 velocity=80 time=0
note_on channel=1 note=61 velocity=0 time=32
note_on channel=1 note=49 velocity=0 time=0
note_on channel=1 note=62 velocity=80 time=16
note_on channel=1 note=50 velocity=80 time=0
note_on channel=1 note=50 velocity=0 time=32
note_on channel=1 note=62 velocity=0 time=0
note_on channel=1 note=55 velocity=80 time=16
note_on channel=1 note=59 velocity=80 time=0
note_on channel=1 note=65 velocity=80 time=0
note_on channel=1 note=65 velocity=0 time=32
note_on channel=1 note=59 velocity=0 time=0
note_on channel=1 note=55 velocity=0 time=0
note_on channel=1 note=55 velocity=80 time=16
note_on channel=1 note=43 velocity=80 time=0
note_on channel=1 note=43 velocity=0 time=32
note_on channel=1 note=55 velocity=0 time=0
note_on channel=1 note=55 velocity=80 time=16
note_on channel=1 note=59 velocity=80 time=0
note_on channel=1 note=65 velocity=80 time=0
note_on channel=1 note=65 velocity=0 time=32
note_on channel=1 note=59 velocity=0 time=0
note_on channel=1 note=55 velocity=0 time=0
note_on channel=1 note=60 velocity=80 time=16
note_on channel=1 note=48 velocity=80 time=0
note_on channel=1 note=48 velocity=0 time=32
note_on channel=1 note=60 velocity=0 time=0
note_on channel=1 note=55 velocity=80 time=16
note_on channel=1 note=60 velocity=80 time=0
note_on channel=1 note=64 velocity=80 time=0
note_on channel=1 note=64 velocity=0 time=32
note_on channel=1 note=60 velocity=0 time=0
note_on channel=1 note=55 velocity=0 time=0
note_on channel=1 note=58 velocity=80 time=16
note_on channel=1 note=46 velocity=80 time=0
note_on channel=1 note=46 velocity=0 time=32
note_on channel=1 note=58 velocity=0 time=0
note_on channel=1 note=64 velocity=80 time=16
note_on channel=1 note=60 velocity=80 time=0
note_on channel=1 note=55 velocity=80 time=0
note_on channel=1 note=55 velocity=0 time=32
note_on channel=1 note=60 velocity=0 time=0
note_on channel=1 note=64 velocity=0 time=0
note_on channel=1 note=57 velocity=80 time=16
note_on channel=1 note=45 velocity=80 time=0
note_on channel=1 note=45 velocity=0 time=32
note_on channel=1 note=57 velocity=0 time=0
note_on channel=1 note=57 velocity=80 time=16
note_on channel=1 note=60 velocity=80 time=0
note_on channel=1 note=65 velocity=80 time=0
note_on channel=1 note=65 velocity=0 time=32
note_on channel=1 note=60 velocity=0 time=0
note_on channel=1 note=57 velocity=0 time=0
note_on channel=1 note=54 velocity=80 time=16
note_on channel=1 note=42 velocity=80 time=0
note_on channel=1 note=42 velocity=0 time=32
note_on channel=1 note=54 velocity=0 time=0
note_on channel=1 note=57 velocity=80 time=16
note_on channel=1 note=60 velocity=80 time=0
note_on channel=1 note=63 velocity=80 time=0
note_on channel=1 note=63 velocity=0 time=32
note_on channel=1 note=60 velocity=0 time=0
note_on channel=1 note=57 velocity=0 time=0
note_on channel=1 note=55 velocity=80 time=16
note_on channel=1 note=43 velocity=80 time=0
note_on channel=1 note=43 velocity=0 time=32
note_on channel=1 note=55 velocity=0 time=0
note_on channel=1 note=55 velocity=80 time=16
note_on channel=1 note=64 velocity=80 time=0
note_on channel=1 note=60 velocity=80 time=0
note_on channel=1 note=60 velocity=0 time=32
note_on channel=1 note=64 velocity=0 time=0
note_on channel=1 note=55 velocity=0 time=0
note_on channel=1 note=43 velocity=80 time=16
note_on channel=1 note=43 velocity=0 time=32
note_on channel=1 note=55 velocity=80 time=16
note_on channel=1 note=62 velocity=80 time=0
note_on channel=1 note=62 velocity=0 time=32
note_on channel=1 note=55 velocity=0 time=0
note_on channel=1 note=60 velocity=80 time=16
note_on channel=1 note=48 velocity=80 time=0
note_on channel=1 note=48 velocity=0 time=32
note_on channel=1 note=60 velocity=0 time=0
note_on channel=1 note=55 velocity=80 time=16
note_on channel=1 note=43 velocity=80 time=0
note_on channel=1 note=43 velocity=0 time=32
note_on channel=1 note=55 velocity=0 time=0
note_on channel=1 note=36 velocity=80 time=16
note_on channel=1 note=48 velocity=80 time=0
note_on channel=1 note=48 velocity=0 time=32
note_on channel=1 note=36 velocity=0 time=0
<meta message end_of_track time=0>
<meta message midi_port port=0 time=0>
<meta message track_name name='W.S.Trachtman - MIDI file' time=0>
control_change channel=2 control=0 value=0 time=0
control_change channel=2 control=32 value=0 time=0
program_change channel=2 program=0 time=0
note_on channel=2 note=48 velocity=1 time=28512
note_on channel=2 note=48 velocity=0 time=32
<meta message end_of_track time=0>
<meta message time_signature numerator=2 denominator=4 clocks_per_click=24 notated_32nd_notes_per_beat=8 time=0>
<meta message key_signature key='C' time=0>
<meta message set_tempo tempo=588235 time=0>
<meta message marker text='W.S.Trachtman - MIDI file' time=0>
<meta message set_tempo tempo=588235 time=14976>
<meta message end_of_track time=0>
<meta message midi_port port=0 time=0>
<meta message track_name name='Lilly Queen' time=0>
program_change channel=0 program=0 time=0
control_change channel=0 control=10 value=91 time=0
control_change channel=0 control=121 value=0 time=4
control_change channel=0 control=1 value=0 time=20
control_change channel=0 control=64 value=0 time=4
aftertouch channel=0 value=0 time=16
pitchwheel channel=0 pitch=0 time=5
control_change channel=0 control=93 value=12 time=2
control_change channel=0 control=91 value=21 time=0
control_change channel=0 control=7 value=127 time=23
control_change channel=0 control=10 value=84 time=2
<meta message lyrics text='Lilly ' time=116>
note_on channel=0 note=67 velocity=83 time=0
note_on channel=0 note=67 velocity=0 time=16
<meta message lyrics text='Queen ' time=8>
note_on channel=0 note=76 velocity=83 time=0
note_on channel=0 note=76 velocity=0 time=16
note_on channel=0 note=72 velocity=83 time=8
note_on channel=0 note=72 velocity=0 time=16
<meta message lyrics text='by ' time=8>
note_on channel=0 note=67 velocity=83 time=0
note_on channel=0 note=67 velocity=0 time=32
<meta message lyrics text='Scott ' time=16>
note_on channel=0 note=64 velocity=83 time=0
note_on channel=0 note=64 velocity=0 time=16
<meta message lyrics text='Joplin ' time=8>
note_on channel=0 note=60 velocity=83 time=0
note_on channel=0 note=60 velocity=0 time=32
<meta message lyrics text='& ' time=16>
note_on channel=0 note=65 velocity=83 time=0
note_on channel=0 note=65 velocity=83 time=0
note_on channel=0 note=65 velocity=0 time=16
<meta message lyrics text='Arthur ' time=8>
note_on channel=0 note=72 velocity=83 time=0
note_on channel=0 note=65 velocity=0 time=8
note_on channel=0 note=72 velocity=0 time=8
<meta message lyrics text='Marshall ' time=8>
note_on channel=0 note=62 velocity=83 time=0
note_on channel=0 note=62 velocity=83 time=0
note_on channel=0 note=62 velocity=0 time=16
<meta message lyrics text='(1907) ' time=8>
note_on channel=0 note=65 velocity=83 time=0
note_on channel=0 note=62 velocity=0 time=8
note_on channel=0 note=65 velocity=0 time=8
<meta message lyrics text='; ' time=8>
note_on channel=0 note=64 velocity=83 time=0
note_on channel=0 note=64 velocity=83 time=0
note_on channel=0 note=64 velocity=0 time=16
<meta message lyrics text='Sequenced ' time=8>
note_on channel=0 note=72 velocity=83 time=0
note_on channel=0 note=64 velocity=0 time=40
note_on channel=0 note=72 velocity=0 time=8
<meta message lyrics text='by ' time=24>
note_on channel=0 note=72 velocity=83 time=0
note_on channel=0 note=60 velocity=83 time=0
note_on channel=0 note=66 velocity=83 time=0
note_on channel=0 note=60 velocity=0 time=16
note_on channel=0 note=72 velocity=0 time=0
<meta message lyrics text='W. ' time=8>
note_on channel=0 note=74 velocity=83 time=0
note_on channel=0 note=62 velocity=83 time=0
note_on channel=0 note=62 velocity=0 time=16
note_on channel=0 note=74 velocity=0 time=0
note_on channel=0 note=66 velocity=0 time=8
<meta message lyrics text='S. ' time=0>
note_on channel=0 note=75 velocity=83 time=0
note_on channel=0 note=63 velocity=83 time=0
note_on channel=0 note=63 velocity=0 time=16
note_on channel=0 note=75 velocity=0 time=0
<meta message lyrics text='Trachtman ' time=8>
<meta message lyrics text='' time=0>
<meta message lyrics text='\r' time=0>
note_on channel=0 note=78 velocity=83 time=0
note_on channel=0 note=66 velocity=83 time=0
note_on channel=0 note=72 velocity=83 time=0
note_on channel=0 note=72 velocity=0 time=16
note_on channel=0 note=66 velocity=0 time=0
note_on channel=0 note=78 velocity=0 time=0
note_on channel=0 note=79 velocity=83 time=8
note_on channel=0 note=71 velocity=83 time=0
note_on channel=0 note=67 velocity=83 time=0
note_on channel=0 note=67 velocity=0 time=16
note_on channel=0 note=71 velocity=0 time=0
note_on channel=0 note=79 velocity=0 time=0
note_on channel=0 note=76 velocity=83 time=8
note_on channel=0 note=71 velocity=83 time=0
note_on channel=0 note=67 velocity=83 time=0
note_on channel=0 note=67 velocity=0 time=32
note_on channel=0 note=71 velocity=0 time=0
note_on channel=0 note=76 velocity=0 time=0
note_on channel=0 note=74 velocity=83 time=16
note_on channel=0 note=71 velocity=83 time=0
note_on channel=0 note=65 velocity=83 time=0
note_on channel=0 note=65 velocity=0 time=16
note_on channel=0 note=71 velocity=0 time=0
note_on channel=0 note=74 velocity=0 time=0
note_on channel=0 note=64 velocity=83 time=8
note_on channel=0 note=67 velocity=83 time=0
note_on channel=0 note=72 velocity=83 time=0
note_on channel=0 note=72 velocity=0 time=32
note_on channel=0 note=67 velocity=0 time=0
note_on channel=0 note=64 velocity=0 time=0
note_on channel=0 note=72 velocity=83 time=64
note_on channel=0 note=76 velocity=83 time=0
note_on channel=0 note=84 velocity=83 time=0
note_on channel=0 note=84 velocity=0 time=32
note_on channel=0 note=76 velocity=0 time=0
note_on channel=0 note=72 velocity=0 time=0
note_on channel=0 note=76 velocity=83 time=16
note_on channel=0 note=72 velocity=83 time=0
note_on channel=0 note=70 velocity=83 time=0
note_on channel=0 note=70 velocity=0 time=32
note_on channel=0 note=72 velocity=0 time=0
note_on channel=0 note=76 velocity=0 time=0
note_on channel=0 note=69 velocity=83 time=16
note_on channel=0 note=72 velocity=83 time=0
note_on channel=0 note=77 velocity=83 time=0
note_on channel=0 note=77 velocity=0 time=64
note_on channel=0 note=72 velocity=0 time=0
note_on channel=0 note=69 velocity=0 time=0
note_on channel=0 note=72 velocity=83 time=32
note_on channel=0 note=77 velocity=83 time=0
note_on channel=0 note=84 velocity=83 time=0
note_on channel=0 note=84 velocity=0 time=64
note_on channel=0 note=77 velocity=0 time=0
note_on channel=0 note=72 velocity=0 time=0
note_on channel=0 note=67 velocity=83 time=32
note_on channel=0 note=72 velocity=83 time=0
note_on channel=0 note=76 velocity=83 time=0
note_on channel=0 note=79 velocity=83 time=0
note_on channel=0 note=79 velocity=0 time=64
note_on channel=0 note=67 velocity=0 time=0
note_on channel=0 note=72 velocity=0 time=0
note_on channel=0 note=76 velocity=0 time=0
note_on channel=0 note=69 velocity=83 time=32
note_on channel=0 note=72 velocity=83 time=0
note_on channel=0 note=81 velocity=83 time=0
note_on channel=0 note=81 velocity=0 time=64
note_on channel=0 note=72 velocity=0 time=0
note_on channel=0 note=69 velocity=0 time=0
note_on channel=0 note=78 velocity=83 time=32
note_on channel=0 note=78 velocity=0 time=16
note_on channel=0 note=79 velocity=83 time=8
note_on channel=0 note=74 velocity=83 time=0
note_on channel=0 note=71 velocity=83 time=0
note_on channel=0 note=71 velocity=0 time=32
note_on channel=0 note=74 velocity=0 time=0
note_on channel=0 note=79 velocity=0 time=0
note_on channel=0 note=78 velocity=83 time=16
note_on channel=0 note=78 velocity=0 time=16
note_on channel=0 note=79 velocity=83 time=8
note_on channel=0 note=74 velocity=83 time=0
note_on channel=0 note=71 velocity=83 time=0
note_on channel=0 note=71 velocity=0 time=32
note_on channel=0 note=74 velocity=0 time=0
note_on channel=0 note=79 velocity=0 time=0
note_on channel=0 note=78 velocity=83 time=16
note_on channel=0 note=78 velocity=0 time=16
note_on channel=0 note=79 velocity=83 time=8
note_on channel=0 note=76 velocity=83 time=0
note_on channel=0 note=72 velocity=83 time=0
note_on channel=0 note=72 velocity=0 time=64
note_on channel=0 note=76 velocity=0 time=0
note_on channel=0 note=79 velocity=0 time=0
note_on channel=0 note=79 velocity=83 time=8
note_on channel=0 note=76 velocity=83 time=0
note_on channel=0 note=72 velocity=83 time=0
note_on channel=0 note=72 velocity=0 time=16
note_on channel=0 note=76 velocity=0 time=0
note_on channel=0 note=79 velocity=0 time=0
note_on channel=0 note=78 velocity=83 time=8
note_on channel=0 note=78 velocity=0 time=16
note_on channel=0 note=79 velocity=83 time=8
note_on channel=0 note=76 velocity=83 time=0
note_on channel=0 note=72 velocity=83 time=0
note_on channel=0 note=72 velocity=0 time=16
note_on channel=0 note=76 velocity=0 time=0
note_on channel=0 note=79 velocity=0 time=0
note_on channel=0 note=78 velocity=83 time=8
note_on channel=0 note=78 velocity=0 time=16
note_on channel=0 note=79 velocity=83 time=8
note_on channel=0 note=72 velocity=83 time=0
note_on channel=0 note=72 velocity=0 time=32
note_on channel=0 note=79 velocity=0 time=0
note_on channel=0 note=72 velocity=83 time=16
note_on channel=0 note=77 velocity=83 time=0
note_on channel=0 note=81 velocity=83 time=0
note_on channel=0 note=81 velocity=0 time=64
note_on channel=0 note=77 velocity=0 time=0
note_on channel=0 note=72 velocity=0 time=0
note_on channel=0 note=72 velocity=83 time=32
note_on channel=0 note=77 velocity=83 time=0
note_on channel=0 note=84 velocity=83 time=0
note_on channel=0 note=84 velocity=0 time=64
note_on channel=0 note=77 velocity=0 time=0
note_on channel=0 note=72 velocity=0 time=0
note_on channel=0 note=67 velocity=83 time=32
note_on channel=0 note=72 velocity=83 time=0
note_on channel=0 note=76 velocity=83 time=0
note_on channel=0 note=79 velocity=83 time=0
note_on channel=0 note=79 velocity=0 time=64
note_on channel=0 note=67 velocity=0 time=0
note_on channel=0 note=72 velocity=0 time=0
note_on channel=0 note=76 velocity=0 time=0
note_on channel=0 note=67 velocity=83 time=32
note_on channel=0 note=70 velocity=83 time=0
note_on channel=0 note=76 velocity=83 time=0
note_on channel=0 note=76 velocity=0 time=64
note_on channel=0 note=70 velocity=0 time=0
note_on channel=0 note=67 velocity=0 time=0
note_on channel=0 note=67 velocity=83 time=32
note_on channel=0 note=71 velocity=83 time=0
note_on channel=0 note=74 velocity=83 time=0
note_on channel=0 note=74 velocity=0 time=64
note_on channel=0 note=71 velocity=0 time=0
note_on channel=0 note=67 velocity=0 time=0
note_on channel=0 note=74 velocity=83 time=32
note_on channel=0 note=79 velocity=83 time=0
note_on channel=0 note=83 velocity=83 time=0
note_on channel=0 note=83 velocity=0 time=64
note_on channel=0 note=79 velocity=0 time=0
note_on channel=0 note=74 velocity=0 time=0
note_on channel=0 note=81 velocity=83 time=32
note_on channel=0 note=78 velocity=83 time=0
note_on channel=0 note=72 velocity=83 time=0
note_on channel=0 note=81 velocity=0 time=16
note_on channel=0 note=80 velocity=83 time=8
note_on channel=0 note=80 velocity=0 time=16
note_on channel=0 note=81 velocity=83 time=8
note_on channel=0 note=81 velocity=0 time=16
note_on channel=0 note=72 velocity=0 time=0
note_on channel=0 note=78 velocity=0 time=0
note_on channel=0 note=83 velocity=83 time=8
note_on channel=0 note=83 velocity=0 time=16
note_on channel=0 note=79 velocity=83 time=8
note_on channel=0 note=74 velocity=83 time=0
note_on channel=0 note=71 velocity=83 time=0
note_on channel=0 note=71 velocity=0 time=32
note_on channel=0 note=74 velocity=0 time=0
note_on channel=0 note=79 velocity=0 time=0
note_on channel=0 note=70 velocity=83 time=16
note_on channel=0 note=72 velocity=83 time=0
note_on channel=0 note=76 velocity=83 time=0
note_on channel=0 note=76 velocity=0 time=32
note_on channel=0 note=72 velocity=0 time=0
note_on channel=0 note=70 velocity=0 time=0
note_on channel=0 note=69 velocity=83 time=16
note_on channel=0 note=72 velocity=83 time=0
note_on channel=0 note=77 velocity=83 time=0
note_on channel=0 note=77 velocity=0 time=64
note_on channel=0 note=72 velocity=0 time=0
note_on channel=0 note=69 velocity=0 time=0
note_on channel=0 note=72 velocity=83 time=32
note_on channel=0 note=77 velocity=83 time=0
note_on channel=0 note=84 velocity=83 time=0
note_on channel=0 note=84 velocity=0 time=64
note_on channel=0 note=77 velocity=0 time=0
note_on channel=0 note=72 velocity=0 time=0
note_on channel=0 note=67 velocity=83 time=32
note_on channel=0 note=72 velocity=83 time=0
note_on channel=0 note=76 velocity=83 time=0
note_on channel=0 note=79 velocity=83 time=0
note_on channel=0 note=79 velocity=0 time=64
note_on channel=0 note=67 velocity=0 time=0
note_on channel=0 note=72 velocity=0 time=0
note_on channel=0 note=76 velocity=0 time=0
note_on channel=0 note=69 velocity=83 time=32
note_on channel=0 note=72 velocity=83 time=0
note_on channel=0 note=81 velocity=83 time=0
note_on channel=0 note=81 velocity=0 time=64
note_on channel=0 note=72 velocity=0 time=0
note_on channel=0 note=69 velocity=0 time=0
note_on channel=0 note=78 velocity=83 time=32
note_on channel=0 note=78 velocity=0 time=16
note_on channel=0 note=79 velocity=83 time=8
note_on channel=0 note=74 velocity=83 time=0
note_on channel=0 note=71 velocity=83 time=0
note_on channel=0 note=71 velocity=0 time=32
note_on channel=0 note=74 velocity=0 time=0
note_on channel=0 note=79 velocity=0 time=0
note_on channel=0 note=78 velocity=83 time=16
note_on channel=0 note=78 velocity=0 time=16
note_on channel=0 note=79 velocity=83 time=8
note_on channel=0 note=74 velocity=83 time=0
note_on channel=0 note=71 velocity=83 time=0
note_on channel=0 note=71 velocity=0 time=32
note_on channel=0 note=74 velocity=0 time=0
note_on channel=0 note=79 velocity=0 time=0
note_on channel=0 note=78 velocity=83 time=16
note_on channel=0 note=78 velocity=0 time=16
note_on channel=0 note=79 velocity=83 time=8
note_on channel=0 note=76 velocity=83 time=0
note_on channel=0 note=72 velocity=83 time=0
note_on channel=0 note=72 velocity=0 time=64
note_on channel=0 note=76 velocity=0 time=0
note_on channel=0 note=79 velocity=0 time=0
note_on channel=0 note=79 velocity=83 time=8
note_on channel=0 note=76 velocity=83 time=0
note_on channel=0 note=72 velocity=83 time=0
note_on channel=0 note=72 velocity=0 time=16
note_on channel=0 note=76 velocity=0 time=0
note_on channel=0 note=79 velocity=0 time=0
note_on channel=0 note=78 velocity=83 time=8
note_on channel=0 note=78 velocity=0 time=16
note_on channel=0 note=79 velocity=83 time=8
note_on channel=0 note=76 velocity=83 time=0
note_on channel=0 note=72 velocity=83 time=0
note_on channel=0 note=72 velocity=0 time=32
note_on channel=0 note=76 velocity=0 time=0
note_on channel=0 note=79 velocity=0 time=0
note_on channel=0 note=68 velocity=83 time=16
note_on channel=0 note=64 velocity=83 time=0
note_on channel=0 note=74 velocity=83 time=0
note_on channel=0 note=74 velocity=0 time=16
note_on channel=0 note=76 velocity=83 time=8
note_on channel=0 note=64 velocity=0 time=8
note_on channel=0 note=68 velocity=0 time=0
note_on channel=0 note=76 velocity=0 time=8
note_on channel=0 note=72 velocity=83 time=8
note_on channel=0 note=69 velocity=83 time=0
note_on channel=0 note=64 velocity=83 time=0
note_on channel=0 note=64 velocity=0 time=64
note_on channel=0 note=69 velocity=0 time=0
note_on channel=0 note=72 velocity=0 time=0
note_on channel=0 note=60 velocity=83 time=32
note_on channel=0 note=65 velocity=83 time=0
note_on channel=0 note=72 velocity=83 time=0
note_on channel=0 note=72 velocity=0 time=64
note_on channel=0 note=65 velocity=0 time=0
note_on channel=0 note=60 velocity=0 time=0
note_on channel=0 note=72 velocity=83 time=32
note_on channel=0 note=64 velocity=83 time=0
note_on channel=0 note=60 velocity=83 time=0
note_on channel=0 note=60 velocity=0 time=64
note_on channel=0 note=64 velocity=0 time=0
note_on channel=0 note=72 velocity=0 time=0
note_on channel=0 note=60 velocity=83 time=32
note_on channel=0 note=63 velocity=83 time=0
note_on channel=0 note=69 velocity=83 time=0
note_on channel=0 note=69 velocity=0 time=64
note_on channel=0 note=63 velocity=0 time=0
note_on channel=0 note=60 velocity=0 time=0
note_on channel=0 note=60 velocity=83 time=32
note_on channel=0 note=64 velocity=83 time=0
note_on channel=0 note=67 velocity=83 time=0
note_on channel=0 note=67 velocity=0 time=64
note_on channel=0 note=64 velocity=0 time=0
note_on channel=0 note=60 velocity=0 time=0
note_on channel=0 note=67 velocity=83 time=32
note_on channel=0 note=72 velocity=83 time=0
note_on channel=0 note=76 velocity=83 time=0
note_on channel=0 note=76 velocity=0 time=48
note_on channel=0 note=72 velocity=0 time=0
note_on channel=0 note=67 velocity=0 time=0
note_on channel=0 note=72 velocity=83 time=24
note_on channel=0 note=66 velocity=83 time=0
note_on channel=0 note=72 velocity=0 time=40
note_on channel=0 note=76 velocity=83 time=8
note_on channel=0 note=66 velocity=0 time=8
note_on channel=0 note=76 velocity=0 time=8
note_on channel=0 note=74 velocity=83 time=8
note_on channel=0 note=71 velocity=83 time=0
note_on channel=0 note=65 velocity=83 time=0
note_on channel=0 note=65 velocity=0 time=32
note_on channel=0 note=71 velocity=0 time=0
note_on channel=0 note=74 velocity=0 time=0
note_on channel=0 note=72 velocity=83 time=16
note_on channel=0 note=67 velocity=83 time=0
note_on channel=0 note=64 velocity=83 time=0
note_on channel=0 note=64 velocity=0 time=32
note_on channel=0 note=67 velocity=0 time=0
note_on channel=0 note=72 velocity=0 time=0
note_on channel=0 note=76 velocity=83 time=16
note_on channel=0 note=72 velocity=83 time=0
note_on channel=0 note=70 velocity=83 time=0
note_on channel=0 note=70 velocity=0 time=32
note_on channel=0 note=72 velocity=0 time=0
note_on channel=0 note=76 velocity=0 time=0
note_on channel=0 note=69 velocity=83 time=16
note_on channel=0 note=72 velocity=83 time=0
note_on channel=0 note=77 velocity=83 time=0
note_on channel=0 note=77 velocity=0 time=64
note_on channel=0 note=72 velocity=0 time=0
note_on channel=0 note=69 velocity=0 time=0
note_on channel=0 note=72 velocity=83 time=32
note_on channel=0 note=77 velocity=83 time=0
note_on channel=0 note=84 velocity=83 time=0
note_on channel=0 note=84 velocity=0 time=64
note_on channel=0 note=77 velocity=0 time=0
note_on channel=0 note=72 velocity=0 time=0
note_on channel=0 note=67 velocity=83 time=32
note_on channel=0 note=72 velocity=83 time=0
note_on channel=0 note=76 velocity=83 time=0
note_on channel=0 note=79 velocity=83 time=0
note_on channel=0 note=79 velocity=0 time=64
note_on channel=0 note=67 velocity=0 time=0
note_on channel=0 note=72 velocity=0 time=0
note_on channel=0 note=76 velocity=0 time=0
note_on channel=0 note=69 velocity=83 time=32
note_on channel=0 note=72 velocity=83 time=0
note_on channel=0 note=81 velocity=83 time=0
note_on channel=0 note=81 velocity=0 time=64
note_on channel=0 note=72 velocity=0 time=0
note_on channel=0 note=69 velocity=0 time=0
note_on channel=0 note=78 velocity=83 time=32
note_on channel=0 note=78 velocity=0 time=16
note_on channel=0 note=79 velocity=83 time=8
note_on channel=0 note=74 velocity=83 time=0
note_on channel=0 note=71 velocity=83 time=0
note_on channel=0 note=71 velocity=0 time=32
note_on channel=0 note=74 velocity=0 time=0
note_on channel=0 note=79 velocity=0 time=0
note_on channel=0 note=78 velocity=83 time=16
note_on channel=0 note=78 velocity=0 time=16
note_on channel=0 note=79 velocity=83 time=8
note_on channel=0 note=74 velocity=83 time=0
note_on channel=0 note=71 velocity=83 time=0
note_on channel=0 note=71 velocity=0 time=32
note_on channel=0 note=74 velocity=0 time=0
note_on channel=0 note=79 velocity=0 time=0
note_on channel=0 note=78 velocity=83 time=16
note_on channel=0 note=78 velocity=0 time=16
note_on channel=0 note=79 velocity=83 time=8
note_on channel=0 note=76 velocity=83 time=0
note_on channel=0 note=72 velocity=83 time=0
note_on channel=0 note=72 velocity=0 time=64
note_on channel=0 note=76 velocity=0 time=0
note_on channel=0 note=79 velocity=0 time=0
note_on channel=0 note=79 velocity=83 time=8
note_on channel=0 note=76 velocity=83 time=0
note_on channel=0 note=72 velocity=83 time=0
note_on channel=0 note=72 velocity=0 time=16
note_on channel=0 note=76 velocity=0 time=0
note_on channel=0 note=79 velocity=0 time=0
note_on channel=0 note=78 velocity=83 time=8
note_on channel=0 note=78 velocity=0 time=16
note_on channel=0 note=79 velocity=83 time=8
note_on channel=0 note=76 velocity=83 time=0
note_on channel=0 note=72 velocity=83 time=0
note_on channel=0 note=72 velocity=0 time=16
note_on channel=0 note=76 velocity=0 time=0
note_on channel=0 note=79 velocity=0 time=0
note_on channel=0 note=78 velocity=83 time=8
note_on channel=0 note=78 velocity=0 time=16
note_on channel=0 note=79 velocity=83 time=8
note_on channel=0 note=72 velocity=83 time=0
note_on channel=0 note=72 velocity=0 time=32
note_on channel=0 note=79 velocity=0 time=0
note_on channel=0 note=72 velocity=83 time=16
note_on channel=0 note=77 velocity=83 time=0
note_on channel=0 note=81 velocity=83 time=0
note_on channel=0 note=81 velocity=0 time=64
note_on channel=0 note=77 velocity=0 time=0
note_on channel=0 note=72 velocity=0 time=0
note_on channel=0 note=72 velocity=83 time=32
note_on channel=0 note=77 velocity=83 time=0
note_on channel=0 note=84 velocity=83 time=0
note_on channel=0 note=84 velocity=0 time=64
note_on channel=0 note=77 velocity=0 time=0
note_on channel=0 note=72 velocity=0 time=0
note_on channel=0 note=67 velocity=83 time=32
note_on channel=0 note=72 velocity=83 time=0
note_on channel=0 note=76 velocity=83 time=0
note_on channel=0 note=79 velocity=83 time=0
note_on channel=0 note=79 velocity=0 time=64
note_on channel=0 note=67 velocity=0 time=0
note_on channel=0 note=72 velocity=0 time=0
note_on channel=0 note=76 velocity=0 time=0
note_on channel=0 note=67 velocity=83 time=32
note_on channel=0 note=70 velocity=83 time=0
note_on channel=0 note=76 velocity=83 time=0
note_on channel=0 note=76 velocity=0 time=64
note_on channel=0 note=70 velocity=0 time=0
note_on channel=0 note=67 velocity=0 time=0
note_on channel=0 note=67 velocity=83 time=32
note_on channel=0 note=71 velocity=83 time=0
note_on channel=0 note=74 velocity=83 time=0
note_on channel=0 note=74 velocity=0 time=64
note_on channel=0 note=71 velocity=0 time=0
note_on channel=0 note=67 velocity=0 time=0
note_on channel=0 note=74 velocity=83 time=32
note_on channel=0 note=79 velocity=83 time=0
note_on channel=0 note=83 velocity=83 time=0
note_on channel=0 note=83 velocity=0 time=64
note_on channel=0 note=79 velocity=0 time=0
note_on channel=0 note=74 velocity=0 time=0
note_on channel=0 note=81 velocity=83 time=32
note_on channel=0 note=78 velocity=83 time=0
note_on channel=0 note=72 velocity=83 time=0
note_on channel=0 note=81 velocity=0 time=16
note_on channel=0 note=80 velocity=83 time=8
note_on channel=0 note=80 velocity=0 time=16
note_on channel=0 note=81 velocity=83 time=8
note_on channel=0 note=81 velocity=0 time=16
note_on channel=0 note=72 velocity=0 time=0
note_on channel=0 note=78 velocity=0 time=0
note_on channel=0 note=83 velocity=83 time=8
note_on channel=0 note=83 velocity=0 time=16
note_on channel=0 note=79 velocity=83 time=8
note_on channel=0 note=74 velocity=83 time=0
note_on channel=0 note=71 velocity=83 time=0
note_on channel=0 note=71 velocity=0 time=32
note_on channel=0 note=74 velocity=0 time=0
note_on channel=0 note=79 velocity=0 time=0
note_on channel=0 note=70 velocity=83 time=16
note_on channel=0 note=72 velocity=83 time=0
note_on channel=0 note=76 velocity=83 time=0
note_on channel=0 note=76 velocity=0 time=32
note_on channel=0 note=72 velocity=0 time=0
note_on channel=0 note=70 velocity=0 time=0
note_on channel=0 note=69 velocity=83 time=16
note_on channel=0 note=72 velocity=83 time=0
note_on channel=0 note=77 velocity=83 time=0
note_on channel=0 note=77 velocity=0 time=64
note_on channel=0 note=72 velocity=0 time=0
note_on channel=0 note=69 velocity=0 time=0
note_on channel=0 note=72 velocity=83 time=32
note_on channel=0 note=77 velocity=83 time=0
note_on channel=0 note=84 velocity=83 time=0
note_on channel=0 note=84 velocity=0 time=64
note_on channel=0 note=77 velocity=0 time=0
note_on channel=0 note=72 velocity=0 time=0
note_on channel=0 note=67 velocity=83 time=32
note_on channel=0 note=72 velocity=83 time=0
note_on channel=0 note=76 velocity=83 time=0
note_on channel=0 note=79 velocity=83 time=0
note_on channel=0 note=79 velocity=0 time=64
note_on channel=0 note=67 velocity=0 time=0
note_on channel=0 note=72 velocity=0 time=0
note_on channel=0 note=76 velocity=0 time=0
note_on channel=0 note=69 velocity=83 time=32
note_on channel=0 note=72 velocity=83 time=0
note_on channel=0 note=81 velocity=83 time=0
note_on channel=0 note=81 velocity=0 time=64
note_on channel=0 note=72 velocity=0 time=0
note_on channel=0 note=69 velocity=0 time=0
note_on channel=0 note=78 velocity=83 time=32
note_on channel=0 note=78 velocity=0 time=16
note_on channel=0 note=79 velocity=83 time=8
note_on channel=0 note=74 velocity=83 time=0
note_on channel=0 note=71 velocity=83 time=0
note_on channel=0 note=71 velocity=0 time=32
note_on channel=0 note=74 velocity=0 time=0
note_on channel=0 note=79 velocity=0 time=0
note_on channel=0 note=78 velocity=83 time=16
note_on channel=0 note=78 velocity=0 time=16
note_on channel=0 note=79 velocity=83 time=8
note_on channel=0 note=74 velocity=83 time=0
note_on channel=0 note=71 velocity=83 time=0
note_on channel=0 note=71 velocity=0 time=32
note_on channel=0 note=74 velocity=0 time=0
note_on channel=0 note=79 velocity=0 time=0
note_on channel=0 note=78 velocity=83 time=16
note_on channel=0 note=78 velocity=0 time=16
note_on channel=0 note=79 velocity=83 time=8
note_on channel=0 note=76 velocity=83 time=0
note_on channel=0 note=72 velocity=83 time=0
note_on channel=0 note=72 velocity=0 time=64
note_on channel=0 note=76 velocity=0 time=0
note_on channel=0 note=79 velocity=0 time=0
note_on channel=0 note=79 velocity=83 time=8
note_on channel=0 note=76 velocity=83 time=0
note_on channel=0 note=72 velocity=83 time=0
note_on channel=0 note=72 velocity=0 time=16
note_on channel=0 note=76 velocity=0 time=0
note_on channel=0 note=79 velocity=0 time=0
note_on channel=0 note=78 velocity=83 time=8
note_on channel=0 note=78 velocity=0 time=16
note_on channel=0 note=79 velocity=83 time=8
note_on channel=0 note=76 velocity=83 time=0
note_on channel=0 note=72 velocity=83 time=0
note_on channel=0 note=72 velocity=0 time=32
note_on channel=0 note=76 velocity=0 time=0
note_on channel=0 note=79 velocity=0 time=0
note_on channel=0 note=68 velocity=83 time=16
note_on channel=0 note=64 velocity=83 time=0
note_on channel=0 note=74 velocity=83 time=0
note_on channel=0 note=74 velocity=0 time=16
note_on channel=0 note=76 velocity=83 time=8
note_on channel=0 note=64 velocity=0 time=8
note_on channel=0 note=68 velocity=0 time=0
note_on channel=0 note=76 velocity=0 time=8
note_on channel=0 note=72 velocity=83 time=8
note_on channel=0 note=69 velocity=83 time=0
note_on channel=0 note=64 velocity=83 time=0
note_on channel=0 note=64 velocity=0 time=64
note_on channel=0 note=69 velocity=0 time=0
note_on channel=0 note=72 velocity=0 time=0
note_on channel=0 note=60 velocity=83 time=32
note_on channel=0 note=65 velocity=83 time=0
note_on channel=0 note=72 velocity=83 time=0
note_on channel=0 note=72 velocity=0 time=64
note_on channel=0 note=65 velocity=0 time=0
note_on channel=0 note=60 velocity=0 time=0
note_on channel=0 note=72 velocity=83 time=32
note_on channel=0 note=64 velocity=83 time=0
note_on channel=0 note=60 velocity=83 time=0
note_on channel=0 note=60 velocity=0 time=64
note_on channel=0 note=64 velocity=0 time=0
note_on channel=0 note=72 velocity=0 time=0
note_on channel=0 note=60 velocity=83 time=32
note_on channel=0 note=63 velocity=83 time=0
note_on channel=0 note=69 velocity=83 time=0
note_on channel=0 note=69 velocity=0 time=64
note_on channel=0 note=63 velocity=0 time=0
note_on channel=0 note=60 velocity=0 time=0
note_on channel=0 note=60 velocity=83 time=32
note_on channel=0 note=64 velocity=83 time=0
note_on channel=0 note=67 velocity=83 time=0
note_on channel=0 note=67 velocity=0 time=64
note_on channel=0 note=64 velocity=0 time=0
note_on channel=0 note=60 velocity=0 time=0
note_on channel=0 note=67 velocity=83 time=32
note_on channel=0 note=72 velocity=83 time=0
note_on channel=0 note=76 velocity=83 time=0
note_on channel=0 note=76 velocity=0 time=48
note_on channel=0 note=72 velocity=0 time=0
note_on channel=0 note=67 velocity=0 time=0
note_on channel=0 note=72 velocity=83 time=24
note_on channel=0 note=66 velocity=83 time=0
note_on channel=0 note=72 velocity=0 time=40
note_on channel=0 note=76 velocity=83 time=8
note_on channel=0 note=66 velocity=0 time=8
note_on channel=0 note=76 velocity=0 time=8
note_on channel=0 note=74 velocity=83 time=8
note_on channel=0 note=71 velocity=83 time=0
note_on channel=0 note=65 velocity=83 time=0
note_on channel=0 note=65 velocity=0 time=32
note_on channel=0 note=71 velocity=0 time=0
note_on channel=0 note=74 velocity=0 time=0
note_on channel=0 note=72 velocity=83 time=16
note_on channel=0 note=67 velocity=83 time=0
note_on channel=0 note=64 velocity=83 time=0
note_on channel=0 note=64 velocity=0 time=32
note_on channel=0 note=67 velocity=0 time=0
note_on channel=0 note=72 velocity=0 time=0
note_on channel=0 note=67 velocity=83 time=16
note_on channel=0 note=79 velocity=83 time=0
note_on channel=0 note=79 velocity=0 time=16
note_on channel=0 note=67 velocity=0 time=0
note_on channel=0 note=81 velocity=83 time=8
note_on channel=0 note=69 velocity=83 time=0
note_on channel=0 note=69 velocity=0 time=16
note_on channel=0 note=81 velocity=0 time=0
note_on channel=0 note=77 velocity=83 time=8
note_on channel=0 note=71 velocity=83 time=0
note_on channel=0 note=77 velocity=0 time=16
note_on channel=0 note=83 velocity=83 time=8
note_on channel=0 note=83 velocity=0 time=32
note_on channel=0 note=71 velocity=0 time=8
note_on channel=0 note=81 velocity=83 time=8
note_on channel=0 note=81 velocity=0 time=16
note_on channel=0 note=76 velocity=83 time=8
note_on channel=0 note=70 velocity=83 time=0
note_on channel=0 note=76 velocity=0 time=16
note_on channel=0 note=81 velocity=83 time=8
note_on channel=0 note=81 velocity=0 time=32
note_on channel=0 note=70 velocity=0 time=8
note_on channel=0 note=79 velocity=83 time=8
note_on channel=0 note=79 velocity=0 time=16
note_on channel=0 note=79 velocity=83 time=8
note_on channel=0 note=71 velocity=83 time=0
note_on channel=0 note=71 velocity=0 time=16
note_on channel=0 note=79 velocity=0 time=0
note_on channel=0 note=67 velocity=83 time=8
note_on channel=0 note=67 velocity=0 time=16
note_on channel=0 note=69 velocity=83 time=8
note_on channel=0 note=69 velocity=0 time=16
note_on channel=0 note=71 velocity=83 time=8
note_on channel=0 note=71 velocity=0 time=32
note_on channel=0 note=72 velocity=83 time=16
note_on channel=0 note=72 velocity=0 time=16
note_on channel=0 note=74 velocity=83 time=8
note_on channel=0 note=74 velocity=0 time=16
note_on channel=0 note=75 velocity=83 time=8
note_on channel=0 note=75 velocity=0 time=16
note_on channel=0 note=76 velocity=83 time=8
note_on channel=0 note=76 velocity=0 time=16
note_on channel=0 note=67 velocity=83 time=8
note_on channel=0 note=67 velocity=0 time=16
note_on channel=0 note=69 velocity=83 time=8
note_on channel=0 note=69 velocity=0 time=16
note_on channel=0 note=71 velocity=83 time=8
note_on channel=0 note=71 velocity=0 time=16
note_on channel=0 note=72 velocity=83 time=8
note_on channel=0 note=72 velocity=0 time=16
note_on channel=0 note=72 velocity=83 time=8
note_on channel=0 note=75 velocity=83 time=0
note_on channel=0 note=78 velocity=83 time=0
note_on channel=0 note=83 velocity=83 time=0
note_on channel=0 note=83 velocity=0 time=32
note_on channel=0 note=72 velocity=0 time=0
note_on channel=0 note=75 velocity=0 time=0
note_on channel=0 note=78 velocity=0 time=0
note_on channel=0 note=72 velocity=83 time=16
note_on channel=0 note=75 velocity=83 time=0
note_on channel=0 note=78 velocity=83 time=0
note_on channel=0 note=81 velocity=83 time=0
note_on channel=0 note=81 velocity=0 time=16
note_on channel=0 note=72 velocity=0 time=0
note_on channel=0 note=75 velocity=0 time=0
note_on channel=0 note=78 velocity=0 time=0
note_on channel=0 note=79 velocity=83 time=8
note_on channel=0 note=76 velocity=83 time=0
note_on channel=0 note=72 velocity=83 time=0
note_on channel=0 note=72 velocity=0 time=64
note_on channel=0 note=76 velocity=0 time=0
note_on channel=0 note=79 velocity=0 time=0
note_on channel=0 note=67 velocity=83 time=56
note_on channel=0 note=72 velocity=83 time=0
note_on channel=0 note=79 velocity=83 time=0
note_on channel=0 note=79 velocity=0 time=32
note_on channel=0 note=72 velocity=0 time=0
note_on channel=0 note=67 velocity=0 time=0
note_on channel=0 note=72 velocity=83 time=16
note_on channel=0 note=79 velocity=83 time=0
note_on channel=0 note=84 velocity=83 time=0
note_on channel=0 note=84 velocity=0 time=16
note_on channel=0 note=79 velocity=0 time=0
note_on channel=0 note=72 velocity=0 time=0
note_on channel=0 note=71 velocity=83 time=8
note_on channel=0 note=65 velocity=83 time=0
note_on channel=0 note=65 velocity=0 time=32
note_on channel=0 note=71 velocity=0 time=0
note_on channel=0 note=70 velocity=83 time=16
note_on channel=0 note=65 velocity=83 time=0
note_on channel=0 note=65 velocity=0 time=32
note_on channel=0 note=70 velocity=0 time=0
note_on channel=0 note=65 velocity=83 time=16
note_on channel=0 note=69 velocity=83 time=0
note_on channel=0 note=69 velocity=0 time=32
note_on channel=0 note=65 velocity=0 time=0
note_on channel=0 note=65 velocity=83 time=16
note_on channel=0 note=68 velocity=83 time=0
note_on channel=0 note=68 velocity=0 time=32
note_on channel=0 note=65 velocity=0 time=0
note_on channel=0 note=65 velocity=83 time=16
note_on channel=0 note=67 velocity=83 time=0
note_on channel=0 note=67 velocity=0 time=128
note_on channel=0 note=65 velocity=0 time=0
note_on channel=0 note=67 velocity=83 time=64
note_on channel=0 note=55 velocity=83 time=0
note_on channel=0 note=64 velocity=83 time=48
note_on channel=0 note=60 velocity=83 time=0
note_on channel=0 note=55 velocity=0 time=16
note_on channel=0 note=67 velocity=0 time=0
note_on channel=0 note=64 velocity=0 time=16
note_on channel=0 note=60 velocity=0 time=0
note_on channel=0 note=55 velocity=83 time=16
note_on channel=0 note=67 velocity=83 time=0
note_on channel=0 note=64 velocity=83 time=48
note_on channel=0 note=58 velocity=83 time=0
note_on channel=0 note=67 velocity=0 time=16
note_on channel=0 note=55 velocity=0 time=0
note_on channel=0 note=64 velocity=0 time=16
note_on channel=0 note=58 velocity=0 time=0
note_on channel=0 note=67 velocity=83 time=16
note_on channel=0 note=55 velocity=83 time=0
note_on channel=0 note=65 velocity=83 time=48
note_on channel=0 note=59 velocity=83 time=0
note_on channel=0 note=59 velocity=0 time=16
note_on channel=0 note=65 velocity=0 time=0
note_on channel=0 note=65 velocity=83 time=8
note_on channel=0 note=59 velocity=83 time=0
note_on channel=0 note=59 velocity=0 time=16
note_on channel=0 note=65 velocity=0 time=0
note_on channel=0 note=55 velocity=0 time=8
note_on channel=0 note=67 velocity=0 time=0
note_on channel=0 note=65 velocity=83 time=0
note_on channel=0 note=59 velocity=83 time=0
note_on channel=0 note=59 velocity=0 time=32
note_on channel=0 note=65 velocity=0 time=0
note_on channel=0 note=67 velocity=83 time=16
note_on channel=0 note=79 velocity=83 time=0
note_on channel=0 note=79 velocity=0 time=32
note_on channel=0 note=67 velocity=0 time=0
note_on channel=0 note=71 velocity=83 time=16
note_on channel=0 note=77 velocity=83 time=0
note_on channel=0 note=77 velocity=0 time=16
note_on channel=0 note=83 velocity=83 time=8
note_on channel=0 note=83 velocity=0 time=32
note_on channel=0 note=71 velocity=0 time=8
note_on channel=0 note=81 velocity=83 time=8
note_on channel=0 note=81 velocity=0 time=16
note_on channel=0 note=70 velocity=83 time=8
note_on channel=0 note=76 velocity=83 time=0
note_on channel=0 note=76 velocity=0 time=16
note_on channel=0 note=81 velocity=83 time=8
note_on channel=0 note=81 velocity=0 time=32
note_on channel=0 note=70 velocity=0 time=8
note_on channel=0 note=79 velocity=83 time=8
note_on channel=0 note=79 velocity=0 time=16
note_on channel=0 note=79 velocity=83 time=8
note_on channel=0 note=71 velocity=83 time=0
note_on channel=0 note=71 velocity=0 time=16
note_on channel=0 note=79 velocity=0 time=0
note_on channel=0 note=67 velocity=83 time=8
note_on channel=0 note=67 velocity=0 time=16
note_on channel=0 note=69 velocity=83 time=8
note_on channel=0 note=69 velocity=0 time=16
note_on channel=0 note=71 velocity=83 time=8
note_on channel=0 note=71 velocity=0 time=32
note_on channel=0 note=72 velocity=83 time=16
note_on channel=0 note=72 velocity=0 time=16
note_on channel=0 note=74 velocity=83 time=8
note_on channel=0 note=74 velocity=0 time=16
note_on channel=0 note=75 velocity=83 time=8
note_on channel=0 note=75 velocity=0 time=16
note_on channel=0 note=76 velocity=83 time=8
note_on channel=0 note=76 velocity=0 time=16
note_on channel=0 note=67 velocity=83 time=8
note_on channel=0 note=67 velocity=0 time=16
note_on channel=0 note=69 velocity=83 time=8
note_on channel=0 note=69 velocity=0 time=16
note_on channel=0 note=71 velocity=83 time=8
note_on channel=0 note=71 velocity=0 time=16
note_on channel=0 note=72 velocity=83 time=8
note_on channel=0 note=72 velocity=0 time=16
note_on channel=0 note=81 velocity=83 time=8
note_on channel=0 note=81 velocity=0 time=32
note_on channel=0 note=79 velocity=83 time=16
note_on channel=0 note=79 velocity=0 time=16
note_on channel=0 note=72 velocity=83 time=8
note_on channel=0 note=72 velocity=0 time=112
note_on channel=0 note=69 velocity=83 time=8
note_on channel=0 note=69 velocity=0 time=16
note_on channel=0 note=72 velocity=83 time=8
note_on channel=0 note=72 velocity=0 time=16
note_on channel=0 note=77 velocity=83 time=8
note_on channel=0 note=77 velocity=0 time=16
note_on channel=0 note=72 velocity=83 time=8
note_on channel=0 note=77 velocity=83 time=0
note_on channel=0 note=81 velocity=83 time=0
note_on channel=0 note=81 velocity=0 time=64
note_on channel=0 note=77 velocity=0 time=0
note_on channel=0 note=72 velocity=0 time=0
note_on channel=0 note=77 velocity=83 time=32
note_on channel=0 note=72 velocity=83 time=0
note_on channel=0 note=72 velocity=0 time=64
note_on channel=0 note=77 velocity=0 time=0
note_on channel=0 note=67 velocity=83 time=32
note_on channel=0 note=72 velocity=83 time=0
note_on channel=0 note=76 velocity=83 time=0
note_on channel=0 note=76 velocity=0 time=64
note_on channel=0 note=72 velocity=0 time=0
note_on channel=0 note=67 velocity=0 time=0
note_on channel=0 note=77 velocity=83 time=56
note_on channel=0 note=73 velocity=83 time=0
note_on channel=0 note=67 velocity=83 time=0
note_on channel=0 note=77 velocity=0 time=32
note_on channel=0 note=67 velocity=0 time=16
note_on channel=0 note=73 velocity=0 time=0
note_on channel=0 note=76 velocity=83 time=0
note_on channel=0 note=76 velocity=0 time=16
note_on channel=0 note=66 velocity=83 time=8
note_on channel=0 note=72 velocity=83 time=0
note_on channel=0 note=72 velocity=0 time=32
note_on channel=0 note=69 velocity=83 time=16
note_on channel=0 note=66 velocity=0 time=16
note_on channel=0 note=69 velocity=0 time=16
note_on channel=0 note=72 velocity=83 time=16
note_on channel=0 note=65 velocity=83 time=0
note_on channel=0 note=65 velocity=0 time=16
note_on channel=0 note=72 velocity=0 time=0
note_on channel=0 note=74 velocity=83 time=8
note_on channel=0 note=71 velocity=83 time=0
note_on channel=0 note=65 velocity=83 time=0
note_on channel=0 note=65 velocity=0 time=32
note_on channel=0 note=71 velocity=0 time=0
note_on channel=0 note=74 velocity=0 time=0
note_on channel=0 note=72 velocity=83 time=16
note_on channel=0 note=64 velocity=83 time=0
note_on channel=0 note=64 velocity=0 time=56
note_on channel=0 note=72 velocity=0 time=0
note_on channel=0 note=79 velocity=83 time=16
note_on channel=0 note=67 velocity=83 time=0
note_on channel=0 note=67 velocity=0 time=16
note_on channel=0 note=79 velocity=0 time=0
note_on channel=0 note=79 velocity=83 time=8
note_on channel=0 note=67 velocity=83 time=0
note_on channel=0 note=67 velocity=0 time=16
note_on channel=0 note=79 velocity=0 time=0
note_on channel=0 note=79 velocity=83 time=8
note_on channel=0 note=67 velocity=83 time=0
note_on channel=0 note=67 velocity=0 time=32
note_on channel=0 note=79 velocity=0 time=0
note_on channel=0 note=81 velocity=83 time=16
note_on channel=0 note=69 velocity=83 time=0
note_on channel=0 note=69 velocity=0 time=32
note_on channel=0 note=81 velocity=0 time=0
note_on channel=0 note=77 velocity=83 time=16
note_on channel=0 note=71 velocity=83 time=0
note_on channel=0 note=77 velocity=0 time=16
note_on channel=0 note=83 velocity=83 time=8
note_on channel=0 note=83 velocity=0 time=32
note_on channel=0 note=71 velocity=0 time=8
note_on channel=0 note=81 velocity=83 time=8
note_on channel=0 note=81 velocity=0 time=16
note_on channel=0 note=76 velocity=83 time=8
note_on channel=0 note=70 velocity=83 time=0
note_on channel=0 note=76 velocity=0 time=16
note_on channel=0 note=81 velocity=83 time=8
note_on channel=0 note=81 velocity=0 time=32
note_on channel=0 note=70 velocity=0 time=8
note_on channel=0 note=79 velocity=83 time=8
note_on channel=0 note=79 velocity=0 time=16
note_on channel=0 note=79 velocity=83 time=8
note_on channel=0 note=71 velocity=83 time=0
note_on channel=0 note=71 velocity=0 time=16
note_on channel=0 note=79 velocity=0 time=0
note_on channel=0 note=67 velocity=83 time=8
note_on channel=0 note=67 velocity=0 time=16
note_on channel=0 note=69 velocity=83 time=8
note_on channel=0 note=69 velocity=0 time=16
note_on channel=0 note=71 velocity=83 time=8
note_on channel=0 note=71 velocity=0 time=32
note_on channel=0 note=72 velocity=83 time=16
note_on channel=0 note=72 velocity=0 time=16
note_on channel=0 note=74 velocity=83 time=8
note_on channel=0 note=74 velocity=0 time=16
note_on channel=0 note=75 velocity=83 time=8
note_on channel=0 note=75 velocity=0 time=16
note_on channel=0 note=76 velocity=83 time=8
note_on channel=0 note=76 velocity=0 time=16
note_on channel=0 note=67 velocity=83 time=8
note_on channel=0 note=67 velocity=0 time=16
note_on channel=0 note=69 velocity=83 time=8
note_on channel=0 note=69 velocity=0 time=16
note_on channel=0 note=71 velocity=83 time=8
note_on channel=0 note=71 velocity=0 time=16
note_on channel=0 note=72 velocity=83 time=8
note_on channel=0 note=72 velocity=0 time=16
note_on channel=0 note=72 velocity=83 time=8
note_on channel=0 note=75 velocity=83 time=0
note_on channel=0 note=78 velocity=83 time=0
note_on channel=0 note=83 velocity=83 time=0
note_on channel=0 note=83 velocity=0 time=32
note_on channel=0 note=72 velocity=0 time=0
note_on channel=0 note=75 velocity=0 time=0
note_on channel=0 note=78 velocity=0 time=0
note_on channel=0 note=72 velocity=83 time=16
note_on channel=0 note=75 velocity=83 time=0
note_on channel=0 note=78 velocity=83 time=0
note_on channel=0 note=81 velocity=83 time=0
note_on channel=0 note=81 velocity=0 time=16
note_on channel=0 note=72 velocity=0 time=0
note_on channel=0 note=75 velocity=0 time=0
note_on channel=0 note=78 velocity=0 time=0
note_on channel=0 note=79 velocity=83 time=8
note_on channel=0 note=76 velocity=83 time=0
note_on channel=0 note=72 velocity=83 time=0
note_on channel=0 note=72 velocity=0 time=64
note_on channel=0 note=76 velocity=0 time=0
note_on channel=0 note=79 velocity=0 time=0
note_on channel=0 note=67 velocity=83 time=56
note_on channel=0 note=72 velocity=83 time=0
note_on channel=0 note=79 velocity=83 time=0
note_on channel=0 note=79 velocity=0 time=32
note_on channel=0 note=72 velocity=0 time=0
note_on channel=0 note=67 velocity=0 time=0
note_on channel=0 note=72 velocity=83 time=16
note_on channel=0 note=79 velocity=83 time=0
note_on channel=0 note=84 velocity=83 time=0
note_on channel=0 note=84 velocity=0 time=16
note_on channel=0 note=79 velocity=0 time=0
note_on channel=0 note=72 velocity=0 time=0
note_on channel=0 note=71 velocity=83 time=8
note_on channel=0 note=65 velocity=83 time=0
note_on channel=0 note=65 velocity=0 time=32
note_on channel=0 note=71 velocity=0 time=0
note_on channel=0 note=70 velocity=83 time=16
note_on channel=0 note=65 velocity=83 time=0
note_on channel=0 note=65 velocity=0 time=32
note_on channel=0 note=70 velocity=0 time=0
note_on channel=0 note=65 velocity=83 time=16
note_on channel=0 note=69 velocity=83 time=0
note_on channel=0 note=69 velocity=0 time=32
note_on channel=0 note=65 velocity=0 time=0
note_on channel=0 note=65 velocity=83 time=16
note_on channel=0 note=68 velocity=83 time=0
note_on channel=0 note=68 velocity=0 time=32
note_on channel=0 note=65 velocity=0 time=0
note_on channel=0 note=65 velocity=83 time=16
note_on channel=0 note=67 velocity=83 time=0
note_on channel=0 note=67 velocity=0 time=128
note_on channel=0 note=65 velocity=0 time=0
note_on channel=0 note=67 velocity=83 time=64
note_on channel=0 note=55 velocity=83 time=0
note_on channel=0 note=64 velocity=83 time=48
note_on channel=0 note=60 velocity=83 time=0
note_on channel=0 note=55 velocity=0 time=16
note_on channel=0 note=67 velocity=0 time=0
note_on channel=0 note=64 velocity=0 time=16
note_on channel=0 note=60 velocity=0 time=0
note_on channel=0 note=55 velocity=83 time=16
note_on channel=0 note=67 velocity=83 time=0
note_on channel=0 note=64 velocity=83 time=48
note_on channel=0 note=58 velocity=83 time=0
note_on channel=0 note=67 velocity=0 time=16
note_on channel=0 note=55 velocity=0 time=0
note_on channel=0 note=64 velocity=0 time=16
note_on channel=0 note=58 velocity=0 time=0
note_on channel=0 note=67 velocity=83 time=16
note_on channel=0 note=55 velocity=83 time=0
note_on channel=0 note=65 velocity=83 time=48
note_on channel=0 note=59 velocity=83 time=0
note_on channel=0 note=59 velocity=0 time=16
note_on channel=0 note=65 velocity=0 time=0
note_on channel=0 note=65 velocity=83 time=8
note_on channel=0 note=59 velocity=83 time=0
note_on channel=0 note=59 velocity=0 time=16
note_on channel=0 note=65 velocity=0 time=0
note_on channel=0 note=55 velocity=0 time=8
note_on channel=0 note=67 velocity=0 time=0
note_on channel=0 note=65 velocity=83 time=0
note_on channel=0 note=59 velocity=83 time=0
note_on channel=0 note=59 velocity=0 time=32
note_on channel=0 note=65 velocity=0 time=0
note_on channel=0 note=67 velocity=83 time=16
note_on channel=0 note=79 velocity=83 time=0
note_on channel=0 note=79 velocity=0 time=32
note_on channel=0 note=67 velocity=0 time=0
note_on channel=0 note=71 velocity=83 time=16
note_on channel=0 note=77 velocity=83 time=0
note_on channel=0 note=77 velocity=0 time=16
note_on channel=0 note=83 velocity=83 time=8
note_on channel=0 note=83 velocity=0 time=32
note_on channel=0 note=71 velocity=0 time=8
note_on channel=0 note=81 velocity=83 time=8
note_on channel=0 note=81 velocity=0 time=16
note_on channel=0 note=70 velocity=83 time=8
note_on channel=0 note=76 velocity=83 time=0
note_on channel=0 note=76 velocity=0 time=16
note_on channel=0 note=81 velocity=83 time=8
note_on channel=0 note=81 velocity=0 time=32
note_on channel=0 note=70 velocity=0 time=8
note_on channel=0 note=79 velocity=83 time=8
note_on channel=0 note=79 velocity=0 time=16
note_on channel=0 note=79 velocity=83 time=8
note_on channel=0 note=71 velocity=83 time=0
note_on channel=0 note=71 velocity=0 time=16
note_on channel=0 note=79 velocity=0 time=0
note_on channel=0 note=67 velocity=83 time=8
note_on channel=0 note=67 velocity=0 time=16
note_on channel=0 note=69 velocity=83 time=8
note_on channel=0 note=69 velocity=0 time=16
note_on channel=0 note=71 velocity=83 time=8
note_on channel=0 note=71 velocity=0 time=32
note_on channel=0 note=72 velocity=83 time=16
note_on channel=0 note=72 velocity=0 time=16
note_on channel=0 note=74 velocity=83 time=8
note_on channel=0 note=74 velocity=0 time=16
note_on channel=0 note=75 velocity=83 time=8
note_on channel=0 note=75 velocity=0 time=16
note_on channel=0 note=76 velocity=83 time=8
note_on channel=0 note=76 velocity=0 time=16
note_on channel=0 note=67 velocity=83 time=8
note_on channel=0 note=67 velocity=0 time=16
note_on channel=0 note=69 velocity=83 time=8
note_on channel=0 note=69 velocity=0 time=16
note_on channel=0 note=71 velocity=83 time=8
note_on channel=0 note=71 velocity=0 time=16
note_on channel=0 note=72 velocity=83 time=8
note_on channel=0 note=72 velocity=0 time=16
note_on channel=0 note=81 velocity=83 time=8
note_on channel=0 note=81 velocity=0 time=32
note_on channel=0 note=79 velocity=83 time=16
note_on channel=0 note=79 velocity=0 time=16
note_on channel=0 note=72 velocity=83 time=8
note_on channel=0 note=72 velocity=0 time=112
note_on channel=0 note=69 velocity=83 time=8
note_on channel=0 note=69 velocity=0 time=16
note_on channel=0 note=72 velocity=83 time=8
note_on channel=0 note=72 velocity=0 time=16
note_on channel=0 note=77 velocity=83 time=8
note_on channel=0 note=77 velocity=0 time=16
note_on channel=0 note=72 velocity=83 time=8
note_on channel=0 note=77 velocity=83 time=0
note_on channel=0 note=81 velocity=83 time=0
note_on channel=0 note=81 velocity=0 time=64
note_on channel=0 note=77 velocity=0 time=0
note_on channel=0 note=72 velocity=0 time=0
note_on channel=0 note=77 velocity=83 time=32
note_on channel=0 note=72 velocity=83 time=0
note_on channel=0 note=72 velocity=0 time=64
note_on channel=0 note=77 velocity=0 time=0
note_on channel=0 note=67 velocity=83 time=32
note_on channel=0 note=72 velocity=83 time=0
note_on channel=0 note=76 velocity=83 time=0
note_on channel=0 note=76 velocity=0 time=64
note_on channel=0 note=72 velocity=0 time=0
note_on channel=0 note=67 velocity=0 time=0
note_on channel=0 note=77 velocity=83 time=56
note_on channel=0 note=73 velocity=83 time=0
note_on channel=0 note=67 velocity=83 time=0
note_on channel=0 note=77 velocity=0 time=32
note_on channel=0 note=67 velocity=0 time=16
note_on channel=0 note=73 velocity=0 time=0
note_on channel=0 note=76 velocity=83 time=0
note_on channel=0 note=76 velocity=0 time=16
note_on channel=0 note=66 velocity=83 time=8
note_on channel=0 note=72 velocity=83 time=0
note_on channel=0 note=72 velocity=0 time=32
note_on channel=0 note=69 velocity=83 time=16
note_on channel=0 note=66 velocity=0 time=16
note_on channel=0 note=69 velocity=0 time=16
note_on channel=0 note=72 velocity=83 time=16
note_on channel=0 note=65 velocity=83 time=0
note_on channel=0 note=65 velocity=0 time=16
note_on channel=0 note=72 velocity=0 time=0
note_on channel=0 note=74 velocity=83 time=8
note_on channel=0 note=71 velocity=83 time=0
note_on channel=0 note=65 velocity=83 time=0
note_on channel=0 note=65 velocity=0 time=32
note_on channel=0 note=71 velocity=0 time=0
note_on channel=0 note=74 velocity=0 time=0
note_on channel=0 note=72 velocity=83 time=16
note_on channel=0 note=64 velocity=83 time=0
note_on channel=0 note=64 velocity=0 time=120
note_on channel=0 note=72 velocity=0 time=0
note_on channel=0 note=76 velocity=83 time=48
note_on channel=0 note=72 velocity=83 time=0
note_on channel=0 note=70 velocity=83 time=0
note_on channel=0 note=70 velocity=0 time=32
note_on channel=0 note=72 velocity=0 time=0
note_on channel=0 note=76 velocity=0 time=0
note_on channel=0 note=69 velocity=83 time=16
note_on channel=0 note=72 velocity=83 time=0
note_on channel=0 note=77 velocity=83 time=0
note_on channel=0 note=77 velocity=0 time=64
note_on channel=0 note=72 velocity=0 time=0
note_on channel=0 note=69 velocity=0 time=0
note_on channel=0 note=72 velocity=83 time=32
note_on channel=0 note=77 velocity=83 time=0
note_on channel=0 note=84 velocity=83 time=0
note_on channel=0 note=84 velocity=0 time=64
note_on channel=0 note=77 velocity=0 time=0
note_on channel=0 note=72 velocity=0 time=0
note_on channel=0 note=67 velocity=83 time=32
note_on channel=0 note=72 velocity=83 time=0
note_on channel=0 note=76 velocity=83 time=0
note_on channel=0 note=79 velocity=83 time=0
note_on channel=0 note=79 velocity=0 time=64
note_on channel=0 note=67 velocity=0 time=0
note_on channel=0 note=72 velocity=0 time=0
note_on channel=0 note=76 velocity=0 time=0
note_on channel=0 note=69 velocity=83 time=32
note_on channel=0 note=72 velocity=83 time=0
note_on channel=0 note=81 velocity=83 time=0
note_on channel=0 note=81 velocity=0 time=64
note_on channel=0 note=72 velocity=0 time=0
note_on channel=0 note=69 velocity=0 time=0
note_on channel=0 note=78 velocity=83 time=32
note_on channel=0 note=78 velocity=0 time=16
note_on channel=0 note=79 velocity=83 time=8
note_on channel=0 note=74 velocity=83 time=0
note_on channel=0 note=71 velocity=83 time=0
note_on channel=0 note=71 velocity=0 time=32
note_on channel=0 note=74 velocity=0 time=0
note_on channel=0 note=79 velocity=0 time=0
note_on channel=0 note=78 velocity=83 time=16
note_on channel=0 note=78 velocity=0 time=16
note_on channel=0 note=79 velocity=83 time=8
note_on channel=0 note=74 velocity=83 time=0
note_on channel=0 note=71 velocity=83 time=0
note_on channel=0 note=71 velocity=0 time=32
note_on channel=0 note=74 velocity=0 time=0
note_on channel=0 note=79 velocity=0 time=0
note_on channel=0 note=78 velocity=83 time=16
note_on channel=0 note=78 velocity=0 time=16
note_on channel=0 note=79 velocity=83 time=8
note_on channel=0 note=76 velocity=83 time=0
note_on channel=0 note=72 velocity=83 time=0
note_on channel=0 note=72 velocity=0 time=64
note_on channel=0 note=76 velocity=0 time=0
note_on channel=0 note=79 velocity=0 time=0
note_on channel=0 note=79 velocity=83 time=8
note_on channel=0 note=76 velocity=83 time=0
note_on channel=0 note=72 velocity=83 time=0
note_on channel=0 note=72 velocity=0 time=16
note_on channel=0 note=76 velocity=0 time=0
note_on channel=0 note=79 velocity=0 time=0
note_on channel=0 note=78 velocity=83 time=8
note_on channel=0 note=78 velocity=0 time=16
note_on channel=0 note=79 velocity=83 time=8
note_on channel=0 note=76 velocity=83 time=0
note_on channel=0 note=72 velocity=83 time=0
note_on channel=0 note=72 velocity=0 time=16
note_on channel=0 note=76 velocity=0 time=0
note_on channel=0 note=79 velocity=0 time=0
note_on channel=0 note=78 velocity=83 time=8
note_on channel=0 note=78 velocity=0 time=16
note_on channel=0 note=79 velocity=83 time=8
note_on channel=0 note=72 velocity=83 time=0
note_on channel=0 note=72 velocity=0 time=32
note_on channel=0 note=79 velocity=0 time=0
note_on channel=0 note=72 velocity=83 time=16
note_on channel=0 note=77 velocity=83 time=0
note_on channel=0 note=81 velocity=83 time=0
note_on channel=0 note=81 velocity=0 time=64
note_on channel=0 note=77 velocity=0 time=0
note_on channel=0 note=72 velocity=0 time=0
note_on channel=0 note=72 velocity=83 time=32
note_on channel=0 note=77 velocity=83 time=0
note_on channel=0 note=84 velocity=83 time=0
note_on channel=0 note=84 velocity=0 time=64
note_on channel=0 note=77 velocity=0 time=0
note_on channel=0 note=72 velocity=0 time=0
note_on channel=0 note=67 velocity=83 time=32
note_on channel=0 note=72 velocity=83 time=0
note_on channel=0 note=76 velocity=83 time=0
note_on channel=0 note=79 velocity=83 time=0
note_on channel=0 note=79 velocity=0 time=64
note_on channel=0 note=67 velocity=0 time=0
note_on channel=0 note=72 velocity=0 time=0
note_on channel=0 note=76 velocity=0 time=0
note_on channel=0 note=67 velocity=83 time=32
note_on channel=0 note=70 velocity=83 time=0
note_on channel=0 note=76 velocity=83 time=0
note_on channel=0 note=76 velocity=0 time=64
note_on channel=0 note=70 velocity=0 time=0
note_on channel=0 note=67 velocity=0 time=0
note_on channel=0 note=67 velocity=83 time=32
note_on channel=0 note=71 velocity=83 time=0
note_on channel=0 note=74 velocity=83 time=0
note_on channel=0 note=74 velocity=0 time=64
note_on channel=0 note=71 velocity=0 time=0
note_on channel=0 note=67 velocity=0 time=0
note_on channel=0 note=74 velocity=83 time=32
note_on channel=0 note=79 velocity=83 time=0
note_on channel=0 note=83 velocity=83 time=0
note_on channel=0 note=83 velocity=0 time=64
note_on channel=0 note=79 velocity=0 time=0
note_on channel=0 note=74 velocity=0 time=0
note_on channel=0 note=81 velocity=83 time=32
note_on channel=0 note=78 velocity=83 time=0
note_on channel=0 note=72 velocity=83 time=0
note_on channel=0 note=81 velocity=0 time=16
note_on channel=0 note=80 velocity=83 time=8
note_on channel=0 note=80 velocity=0 time=16
note_on channel=0 note=81 velocity=83 time=8
note_on channel=0 note=81 velocity=0 time=16
note_on channel=0 note=72 velocity=0 time=0
note_on channel=0 note=78 velocity=0 time=0
note_on channel=0 note=83 velocity=83 time=8
note_on channel=0 note=83 velocity=0 time=16
note_on channel=0 note=79 velocity=83 time=8
note_on channel=0 note=74 velocity=83 time=0
note_on channel=0 note=71 velocity=83 time=0
note_on channel=0 note=71 velocity=0 time=32
note_on channel=0 note=74 velocity=0 time=0
note_on channel=0 note=79 velocity=0 time=0
note_on channel=0 note=70 velocity=83 time=16
note_on channel=0 note=72 velocity=83 time=0
note_on channel=0 note=76 velocity=83 time=0
note_on channel=0 note=76 velocity=0 time=32
note_on channel=0 note=72 velocity=0 time=0
note_on channel=0 note=70 velocity=0 time=0
note_on channel=0 note=69 velocity=83 time=16
note_on channel=0 note=72 velocity=83 time=0
note_on channel=0 note=77 velocity=83 time=0
note_on channel=0 note=77 velocity=0 time=64
note_on channel=0 note=72 velocity=0 time=0
note_on channel=0 note=69 velocity=0 time=0
note_on channel=0 note=72 velocity=83 time=32
note_on channel=0 note=77 velocity=83 time=0
note_on channel=0 note=84 velocity=83 time=0
note_on channel=0 note=84 velocity=0 time=64
note_on channel=0 note=77 velocity=0 time=0
note_on channel=0 note=72 velocity=0 time=0
note_on channel=0 note=67 velocity=83 time=32
note_on channel=0 note=72 velocity=83 time=0
note_on channel=0 note=76 velocity=83 time=0
note_on channel=0 note=79 velocity=83 time=0
note_on channel=0 note=79 velocity=0 time=64
note_on channel=0 note=67 velocity=0 time=0
note_on channel=0 note=72 velocity=0 time=0
note_on channel=0 note=76 velocity=0 time=0
note_on channel=0 note=69 velocity=83 time=32
note_on channel=0 note=72 velocity=83 time=0
note_on channel=0 note=81 velocity=83 time=0
note_on channel=0 note=81 velocity=0 time=64
note_on channel=0 note=72 velocity=0 time=0
note_on channel=0 note=69 velocity=0 time=0
note_on channel=0 note=78 velocity=83 time=32
note_on channel=0 note=78 velocity=0 time=16
note_on channel=0 note=79 velocity=83 time=8
note_on channel=0 note=74 velocity=83 time=0
note_on channel=0 note=71 velocity=83 time=0
note_on channel=0 note=71 velocity=0 time=32
note_on channel=0 note=74 velocity=0 time=0
note_on channel=0 note=79 velocity=0 time=0
note_on channel=0 note=78 velocity=83 time=16
note_on channel=0 note=78 velocity=0 time=16
note_on channel=0 note=79 velocity=83 time=8
note_on channel=0 note=74 velocity=83 time=0
note_on channel=0 note=71 velocity=83 time=0
note_on channel=0 note=71 velocity=0 time=32
note_on channel=0 note=74 velocity=0 time=0
note_on channel=0 note=79 velocity=0 time=0
note_on channel=0 note=78 velocity=83 time=16
note_on channel=0 note=78 velocity=0 time=16
note_on channel=0 note=79 velocity=83 time=8
note_on channel=0 note=76 velocity=83 time=0
note_on channel=0 note=72 velocity=83 time=0
note_on channel=0 note=72 velocity=0 time=64
note_on channel=0 note=76 velocity=0 time=0
note_on channel=0 note=79 velocity=0 time=0
note_on channel=0 note=79 velocity=83 time=8
note_on channel=0 note=76 velocity=83 time=0
note_on channel=0 note=72 velocity=83 time=0
note_on channel=0 note=72 velocity=0 time=16
note_on channel=0 note=76 velocity=0 time=0
note_on channel=0 note=79 velocity=0 time=0
note_on channel=0 note=78 velocity=83 time=8
note_on channel=0 note=78 velocity=0 time=16
note_on channel=0 note=79 velocity=83 time=8
note_on channel=0 note=76 velocity=83 time=0
note_on channel=0 note=72 velocity=83 time=0
note_on channel=0 note=72 velocity=0 time=32
note_on channel=0 note=76 velocity=0 time=0
note_on channel=0 note=79 velocity=0 time=0
note_on channel=0 note=68 velocity=83 time=16
note_on channel=0 note=64 velocity=83 time=0
note_on channel=0 note=74 velocity=83 time=0
note_on channel=0 note=74 velocity=0 time=16
note_on channel=0 note=76 velocity=83 time=8
note_on channel=0 note=64 velocity=0 time=8
note_on channel=0 note=68 velocity=0 time=0
note_on channel=0 note=76 velocity=0 time=8
note_on channel=0 note=72 velocity=83 time=8
note_on channel=0 note=69 velocity=83 time=0
note_on channel=0 note=64 velocity=83 time=0
note_on channel=0 note=64 velocity=0 time=64
note_on channel=0 note=69 velocity=0 time=0
note_on channel=0 note=72 velocity=0 time=0
note_on channel=0 note=60 velocity=83 time=32
note_on channel=0 note=65 velocity=83 time=0
note_on channel=0 note=72 velocity=83 time=0
note_on channel=0 note=72 velocity=0 time=64
note_on channel=0 note=65 velocity=0 time=0
note_on channel=0 note=60 velocity=0 time=0
note_on channel=0 note=72 velocity=83 time=32
note_on channel=0 note=64 velocity=83 time=0
note_on channel=0 note=60 velocity=83 time=0
note_on channel=0 note=60 velocity=0 time=64
note_on channel=0 note=64 velocity=0 time=0
note_on channel=0 note=72 velocity=0 time=0
note_on channel=0 note=60 velocity=83 time=32
note_on channel=0 note=63 velocity=83 time=0
note_on channel=0 note=69 velocity=83 time=0
note_on channel=0 note=69 velocity=0 time=64
note_on channel=0 note=63 velocity=0 time=0
note_on channel=0 note=60 velocity=0 time=0
note_on channel=0 note=60 velocity=83 time=32
note_on channel=0 note=64 velocity=83 time=0
note_on channel=0 note=67 velocity=83 time=0
note_on channel=0 note=67 velocity=0 time=64
note_on channel=0 note=64 velocity=0 time=0
note_on channel=0 note=60 velocity=0 time=0
note_on channel=0 note=67 velocity=83 time=32
note_on channel=0 note=72 velocity=83 time=0
note_on channel=0 note=76 velocity=83 time=0
note_on channel=0 note=76 velocity=0 time=48
note_on channel=0 note=72 velocity=0 time=0
note_on channel=0 note=67 velocity=0 time=0
note_on channel=0 note=72 velocity=83 time=24
note_on channel=0 note=66 velocity=83 time=0
note_on channel=0 note=72 velocity=0 time=40
note_on channel=0 note=76 velocity=83 time=8
note_on channel=0 note=66 velocity=0 time=8
note_on channel=0 note=76 velocity=0 time=8
note_on channel=0 note=65 velocity=83 time=8
note_on channel=0 note=71 velocity=83 time=0
note_on channel=0 note=74 velocity=83 time=0
note_on channel=0 note=74 velocity=0 time=32
note_on channel=0 note=71 velocity=0 time=0
note_on channel=0 note=65 velocity=0 time=0
note_on channel=0 note=64 velocity=83 time=16
note_on channel=0 note=72 velocity=83 time=0
note_on channel=0 note=72 velocity=0 time=32
note_on channel=0 note=64 velocity=0 time=0
note_on channel=0 note=72 velocity=83 time=64
note_on channel=0 note=77 velocity=83 time=0
note_on channel=0 note=81 velocity=83 time=0
note_on channel=0 note=81 velocity=0 time=32
note_on channel=0 note=81 velocity=83 time=16
note_on channel=0 note=81 velocity=0 time=16
note_on channel=0 note=77 velocity=0 time=0
note_on channel=0 note=72 velocity=0 time=0
note_on channel=0 note=80 velocity=83 time=8
note_on channel=0 note=80 velocity=0 time=16
note_on channel=0 note=75 velocity=83 time=8
note_on channel=0 note=81 velocity=83 time=0
note_on channel=0 note=81 velocity=0 time=32
note_on channel=0 note=81 velocity=83 time=16
note_on channel=0 note=81 velocity=0 time=16
note_on channel=0 note=75 velocity=0 time=0
note_on channel=0 note=80 velocity=83 time=8
note_on channel=0 note=80 velocity=0 time=16
note_on channel=0 note=76 velocity=83 time=8
note_on channel=0 note=79 velocity=83 time=0
note_on channel=0 note=79 velocity=0 time=16
note_on channel=0 note=84 velocity=83 time=8
note_on channel=0 note=76 velocity=0 time=40
note_on channel=0 note=84 velocity=0 time=8
note_on channel=0 note=72 velocity=83 time=48
note_on channel=0 note=72 velocity=0 time=16
note_on channel=0 note=74 velocity=83 time=8
note_on channel=0 note=70 velocity=83 time=0
note_on channel=0 note=74 velocity=0 time=16
note_on channel=0 note=76 velocity=83 time=8
note_on channel=0 note=70 velocity=0 time=8
note_on channel=0 note=76 velocity=0 time=8
note_on channel=0 note=77 velocity=83 time=8
note_on channel=0 note=69 velocity=83 time=0
note_on channel=0 note=69 velocity=0 time=32
note_on channel=0 note=77 velocity=0 time=0
note_on channel=0 note=72 velocity=83 time=16
note_on channel=0 note=72 velocity=0 time=32
note_on channel=0 note=71 velocity=83 time=16
note_on channel=0 note=71 velocity=0 time=32
note_on channel=0 note=70 velocity=83 time=16
note_on channel=0 note=70 velocity=0 time=32
note_on channel=0 note=69 velocity=83 time=16
note_on channel=0 note=69 velocity=0 time=32
note_on channel=0 note=68 velocity=83 time=16
note_on channel=0 note=68 velocity=0 time=32
note_on channel=0 note=67 velocity=83 time=16
note_on channel=0 note=67 velocity=0 time=32
note_on channel=0 note=64 velocity=83 time=16
note_on channel=0 note=70 velocity=83 time=0
note_on channel=0 note=72 velocity=83 time=0
note_on channel=0 note=72 velocity=0 time=32
note_on channel=0 note=70 velocity=0 time=0
note_on channel=0 note=64 velocity=0 time=0
note_on channel=0 note=72 velocity=83 time=16
note_on channel=0 note=77 velocity=83 time=0
note_on channel=0 note=81 velocity=83 time=0
note_on channel=0 note=81 velocity=0 time=32
note_on channel=0 note=81 velocity=83 time=16
note_on channel=0 note=81 velocity=0 time=16
note_on channel=0 note=77 velocity=0 time=0
note_on channel=0 note=72 velocity=0 time=0
note_on channel=0 note=80 velocity=83 time=8
note_on channel=0 note=80 velocity=0 time=16
note_on channel=0 note=75 velocity=83 time=8
note_on channel=0 note=81 velocity=83 time=0
note_on channel=0 note=81 velocity=0 time=32
note_on channel=0 note=81 velocity=83 time=16
note_on channel=0 note=81 velocity=0 time=16
note_on channel=0 note=75 velocity=0 time=0
note_on channel=0 note=83 velocity=83 time=8
note_on channel=0 note=83 velocity=0 time=16
note_on channel=0 note=76 velocity=83 time=8
note_on channel=0 note=84 velocity=83 time=0
note_on channel=0 note=84 velocity=0 time=16
note_on channel=0 note=79 velocity=83 time=8
note_on channel=0 note=76 velocity=0 time=40
note_on channel=0 note=79 velocity=0 time=8
note_on channel=0 note=72 velocity=83 time=72
note_on channel=0 note=76 velocity=83 time=0
note_on channel=0 note=76 velocity=0 time=16
note_on channel=0 note=77 velocity=83 time=8
note_on channel=0 note=72 velocity=0 time=8
note_on channel=0 note=77 velocity=0 time=8
note_on channel=0 note=72 velocity=83 time=8
note_on channel=0 note=79 velocity=83 time=0
note_on channel=0 note=79 velocity=0 time=16
note_on channel=0 note=81 velocity=83 time=8
note_on channel=0 note=72 velocity=0 time=40
note_on channel=0 note=81 velocity=0 time=8
note_on channel=0 note=67 velocity=83 time=24
note_on channel=0 note=71 velocity=83 time=0
note_on channel=0 note=76 velocity=83 time=0
note_on channel=0 note=76 velocity=0 time=16
note_on channel=0 note=71 velocity=0 time=0
note_on channel=0 note=67 velocity=0 time=0
note_on channel=0 note=65 velocity=83 time=8
note_on channel=0 note=71 velocity=83 time=0
note_on channel=0 note=74 velocity=83 time=0
note_on channel=0 note=74 velocity=0 time=32
note_on channel=0 note=71 velocity=0 time=0
note_on channel=0 note=65 velocity=0 time=0
note_on channel=0 note=72 velocity=83 time=16
note_on channel=0 note=67 velocity=83 time=0
note_on channel=0 note=64 velocity=83 time=0
note_on channel=0 note=64 velocity=0 time=152
note_on channel=0 note=67 velocity=0 time=0
note_on channel=0 note=72 velocity=0 time=0
note_on channel=0 note=72 velocity=83 time=64
note_on channel=0 note=77 velocity=83 time=0
note_on channel=0 note=81 velocity=83 time=0
note_on channel=0 note=81 velocity=0 time=32
note_on channel=0 note=81 velocity=83 time=16
note_on channel=0 note=81 velocity=0 time=16
note_on channel=0 note=77 velocity=0 time=0
note_on channel=0 note=72 velocity=0 time=0
note_on channel=0 note=80 velocity=83 time=8
note_on channel=0 note=80 velocity=0 time=16
note_on channel=0 note=75 velocity=83 time=8
note_on channel=0 note=81 velocity=83 time=0
note_on channel=0 note=81 velocity=0 time=32
note_on channel=0 note=81 velocity=83 time=16
note_on channel=0 note=81 velocity=0 time=16
note_on channel=0 note=75 velocity=0 time=0
note_on channel=0 note=80 velocity=83 time=8
note_on channel=0 note=80 velocity=0 time=16
note_on channel=0 note=76 velocity=83 time=8
note_on channel=0 note=79 velocity=83 time=0
note_on channel=0 note=79 velocity=0 time=16
note_on channel=0 note=84 velocity=83 time=8
note_on channel=0 note=76 velocity=0 time=40
note_on channel=0 note=84 velocity=0 time=8
note_on channel=0 note=72 velocity=83 time=48
note_on channel=0 note=72 velocity=0 time=16
note_on channel=0 note=74 velocity=83 time=8
note_on channel=0 note=74 velocity=0 time=16
note_on channel=0 note=76 velocity=83 time=8
note_on channel=0 note=76 velocity=0 time=16
note_on channel=0 note=75 velocity=83 time=8
note_on channel=0 note=77 velocity=83 time=0
note_on channel=0 note=77 velocity=0 time=64
note_on channel=0 note=75 velocity=0 time=0
note_on channel=0 note=76 velocity=83 time=32
note_on channel=0 note=79 velocity=83 time=0
note_on channel=0 note=79 velocity=0 time=16
note_on channel=0 note=81 velocity=83 time=8
note_on channel=0 note=76 velocity=0 time=24
note_on channel=0 note=81 velocity=0 time=8
note_on channel=0 note=77 velocity=83 time=16
note_on channel=0 note=74 velocity=83 time=0
note_on channel=0 note=74 velocity=0 time=152
note_on channel=0 note=77 velocity=0 time=0
note_on channel=0 note=72 velocity=83 time=64
note_on channel=0 note=78 velocity=83 time=0
note_on channel=0 note=81 velocity=83 time=0
note_on channel=0 note=81 velocity=0 time=64
note_on channel=0 note=78 velocity=0 time=0
note_on channel=0 note=72 velocity=0 time=0
note_on channel=0 note=72 velocity=83 time=32
note_on channel=0 note=74 velocity=83 time=0
note_on channel=0 note=74 velocity=0 time=64
note_on channel=0 note=72 velocity=0 time=0
note_on channel=0 note=74 velocity=83 time=32
note_on channel=0 note=79 velocity=83 time=0
note_on channel=0 note=79 velocity=0 time=16
note_on channel=0 note=81 velocity=83 time=8
note_on channel=0 note=81 velocity=0 time=16
note_on channel=0 note=82 velocity=83 time=8
note_on channel=0 note=82 velocity=0 time=16
note_on channel=0 note=74 velocity=0 time=0
note_on channel=0 note=79 velocity=83 time=8
note_on channel=0 note=79 velocity=0 time=16
note_on channel=0 note=81 velocity=83 time=8
note_on channel=0 note=70 velocity=83 time=0
note_on channel=0 note=74 velocity=83 time=0
note_on channel=0 note=74 velocity=0 time=32
note_on channel=0 note=70 velocity=0 time=0
note_on channel=0 note=81 velocity=0 time=0
note_on channel=0 note=79 velocity=83 time=16
note_on channel=0 note=77 velocity=83 time=0
note_on channel=0 note=70 velocity=83 time=0
note_on channel=0 note=70 velocity=0 time=32
note_on channel=0 note=77 velocity=0 time=0
note_on channel=0 note=79 velocity=0 time=0
note_on channel=0 note=72 velocity=83 time=16
note_on channel=0 note=77 velocity=83 time=0
note_on channel=0 note=81 velocity=83 time=0
note_on channel=0 note=81 velocity=0 time=64
note_on channel=0 note=77 velocity=0 time=0
note_on channel=0 note=72 velocity=0 time=0
note_on channel=0 note=81 velocity=83 time=32
note_on channel=0 note=72 velocity=83 time=0
note_on channel=0 note=76 velocity=83 time=0
note_on channel=0 note=76 velocity=0 time=16
note_on channel=0 note=72 velocity=0 time=0
note_on channel=0 note=81 velocity=0 time=0
note_on channel=0 note=79 velocity=83 time=8
note_on channel=0 note=76 velocity=83 time=0
note_on channel=0 note=70 velocity=83 time=0
note_on channel=0 note=70 velocity=0 time=32
note_on channel=0 note=76 velocity=0 time=0
note_on channel=0 note=79 velocity=0 time=0
note_on channel=0 note=77 velocity=83 time=16
note_on channel=0 note=72 velocity=83 time=0
note_on channel=0 note=69 velocity=83 time=0
note_on channel=0 note=69 velocity=0 time=56
note_on channel=0 note=72 velocity=0 time=0
note_on channel=0 note=77 velocity=0 time=0
note_on channel=0 note=72 velocity=83 time=16
note_on channel=0 note=72 velocity=0 time=16
note_on channel=0 note=72 velocity=83 time=8
note_on channel=0 note=72 velocity=0 time=16
note_on channel=0 note=72 velocity=83 time=8
note_on channel=0 note=76 velocity=83 time=0
note_on channel=0 note=79 velocity=83 time=0
note_on channel=0 note=79 velocity=0 time=32
note_on channel=0 note=80 velocity=83 time=16
note_on channel=0 note=76 velocity=0 time=16
note_on channel=0 note=72 velocity=0 time=0
note_on channel=0 note=80 velocity=0 time=16
note_on channel=0 note=72 velocity=83 time=16
note_on channel=0 note=77 velocity=83 time=0
note_on channel=0 note=81 velocity=83 time=0
note_on channel=0 note=81 velocity=0 time=32
note_on channel=0 note=81 velocity=83 time=16
note_on channel=0 note=81 velocity=0 time=16
note_on channel=0 note=77 velocity=0 time=0
note_on channel=0 note=72 velocity=0 time=0
note_on channel=0 note=80 velocity=83 time=8
note_on channel=0 note=80 velocity=0 time=16
note_on channel=0 note=75 velocity=83 time=8
note_on channel=0 note=81 velocity=83 time=0
note_on channel=0 note=81 velocity=0 time=32
note_on channel=0 note=81 velocity=83 time=16
note_on channel=0 note=81 velocity=0 time=16
note_on channel=0 note=75 velocity=0 time=0
note_on channel=0 note=80 velocity=83 time=8
note_on channel=0 note=80 velocity=0 time=16
note_on channel=0 note=76 velocity=83 time=8
note_on channel=0 note=79 velocity=83 time=0
note_on channel=0 note=79 velocity=0 time=16
note_on channel=0 note=84 velocity=83 time=8
note_on channel=0 note=76 velocity=0 time=40
note_on channel=0 note=84 velocity=0 time=8
note_on channel=0 note=72 velocity=83 time=48
note_on channel=0 note=72 velocity=0 time=16
note_on channel=0 note=74 velocity=83 time=8
note_on channel=0 note=70 velocity=83 time=0
note_on channel=0 note=74 velocity=0 time=16
note_on channel=0 note=76 velocity=83 time=8
note_on channel=0 note=70 velocity=0 time=8
note_on channel=0 note=76 velocity=0 time=8
note_on channel=0 note=77 velocity=83 time=8
note_on channel=0 note=69 velocity=83 time=0
note_on channel=0 note=69 velocity=0 time=32
note_on channel=0 note=77 velocity=0 time=0
note_on channel=0 note=72 velocity=83 time=16
note_on channel=0 note=72 velocity=0 time=32
note_on channel=0 note=71 velocity=83 time=16
note_on channel=0 note=71 velocity=0 time=32
note_on channel=0 note=70 velocity=83 time=16
note_on channel=0 note=70 velocity=0 time=32
note_on channel=0 note=69 velocity=83 time=16
note_on channel=0 note=69 velocity=0 time=32
note_on channel=0 note=68 velocity=83 time=16
note_on channel=0 note=68 velocity=0 time=32
note_on channel=0 note=67 velocity=83 time=16
note_on channel=0 note=67 velocity=0 time=32
note_on channel=0 note=64 velocity=83 time=16
note_on channel=0 note=70 velocity=83 time=0
note_on channel=0 note=72 velocity=83 time=0
note_on channel=0 note=72 velocity=0 time=32
note_on channel=0 note=70 velocity=0 time=0
note_on channel=0 note=64 velocity=0 time=0
note_on channel=0 note=72 velocity=83 time=16
note_on channel=0 note=77 velocity=83 time=0
note_on channel=0 note=81 velocity=83 time=0
note_on channel=0 note=81 velocity=0 time=32
note_on channel=0 note=81 velocity=83 time=16
note_on channel=0 note=81 velocity=0 time=16
note_on channel=0 note=77 velocity=0 time=0
note_on channel=0 note=72 velocity=0 time=0
note_on channel=0 note=80 velocity=83 time=8
note_on channel=0 note=80 velocity=0 time=16
note_on channel=0 note=75 velocity=83 time=8
note_on channel=0 note=81 velocity=83 time=0
note_on channel=0 note=81 velocity=0 time=32
note_on channel=0 note=81 velocity=83 time=16
note_on channel=0 note=81 velocity=0 time=16
note_on channel=0 note=75 velocity=0 time=0
note_on channel=0 note=83 velocity=83 time=8
note_on channel=0 note=83 velocity=0 time=16
note_on channel=0 note=76 velocity=83 time=8
note_on channel=0 note=84 velocity=83 time=0
note_on channel=0 note=84 velocity=0 time=16
note_on channel=0 note=79 velocity=83 time=8
note_on channel=0 note=76 velocity=0 time=40
note_on channel=0 note=79 velocity=0 time=8
note_on channel=0 note=72 velocity=83 time=72
note_on channel=0 note=76 velocity=83 time=0
note_on channel=0 note=76 velocity=0 time=16
note_on channel=0 note=77 velocity=83 time=8
note_on channel=0 note=72 velocity=0 time=8
note_on channel=0 note=77 velocity=0 time=8
note_on channel=0 note=72 velocity=83 time=8
note_on channel=0 note=79 velocity=83 time=0
note_on channel=0 note=79 velocity=0 time=16
note_on channel=0 note=81 velocity=83 time=8
note_on channel=0 note=72 velocity=0 time=40
note_on channel=0 note=81 velocity=0 time=8
note_on channel=0 note=67 velocity=83 time=24
note_on channel=0 note=71 velocity=83 time=0
note_on channel=0 note=76 velocity=83 time=0
note_on channel=0 note=76 velocity=0 time=16
note_on channel=0 note=71 velocity=0 time=0
note_on channel=0 note=67 velocity=0 time=0
note_on channel=0 note=65 velocity=83 time=8
note_on channel=0 note=71 velocity=83 time=0
note_on channel=0 note=74 velocity=83 time=0
note_on channel=0 note=74 velocity=0 time=32
note_on channel=0 note=71 velocity=0 time=0
note_on channel=0 note=65 velocity=0 time=0
note_on channel=0 note=72 velocity=83 time=16
note_on channel=0 note=67 velocity=83 time=0
note_on channel=0 note=64 velocity=83 time=0
note_on channel=0 note=64 velocity=0 time=152
note_on channel=0 note=67 velocity=0 time=0
note_on channel=0 note=72 velocity=0 time=0
note_on channel=0 note=72 velocity=83 time=64
note_on channel=0 note=77 velocity=83 time=0
note_on channel=0 note=81 velocity=83 time=0
note_on channel=0 note=81 velocity=0 time=32
note_on channel=0 note=81 velocity=83 time=16
note_on channel=0 note=81 velocity=0 time=16
note_on channel=0 note=77 velocity=0 time=0
note_on channel=0 note=72 velocity=0 time=0
note_on channel=0 note=80 velocity=83 time=8
note_on channel=0 note=80 velocity=0 time=16
note_on channel=0 note=75 velocity=83 time=8
note_on channel=0 note=81 velocity=83 time=0
note_on channel=0 note=81 velocity=0 time=32
note_on channel=0 note=81 velocity=83 time=16
note_on channel=0 note=81 velocity=0 time=16
note_on channel=0 note=75 velocity=0 time=0
note_on channel=0 note=80 velocity=83 time=8
note_on channel=0 note=80 velocity=0 time=16
note_on channel=0 note=76 velocity=83 time=8
note_on channel=0 note=79 velocity=83 time=0
note_on channel=0 note=79 velocity=0 time=16
note_on channel=0 note=84 velocity=83 time=8
note_on channel=0 note=76 velocity=0 time=40
note_on channel=0 note=84 velocity=0 time=8
note_on channel=0 note=72 velocity=83 time=48
note_on channel=0 note=72 velocity=0 time=16
note_on channel=0 note=74 velocity=83 time=8
note_on channel=0 note=74 velocity=0 time=16
note_on channel=0 note=76 velocity=83 time=8
note_on channel=0 note=76 velocity=0 time=16
note_on channel=0 note=75 velocity=83 time=8
note_on channel=0 note=77 velocity=83 time=0
note_on channel=0 note=77 velocity=0 time=64
note_on channel=0 note=75 velocity=0 time=0
note_on channel=0 note=76 velocity=83 time=32
note_on channel=0 note=79 velocity=83 time=0
note_on channel=0 note=79 velocity=0 time=16
note_on channel=0 note=81 velocity=83 time=8
note_on channel=0 note=76 velocity=0 time=24
note_on channel=0 note=81 velocity=0 time=8
note_on channel=0 note=77 velocity=83 time=16
note_on channel=0 note=74 velocity=83 time=0
note_on channel=0 note=74 velocity=0 time=152
note_on channel=0 note=77 velocity=0 time=0
note_on channel=0 note=72 velocity=83 time=64
note_on channel=0 note=78 velocity=83 time=0
note_on channel=0 note=81 velocity=83 time=0
note_on channel=0 note=81 velocity=0 time=64
note_on channel=0 note=78 velocity=0 time=0
note_on channel=0 note=72 velocity=0 time=0
note_on channel=0 note=72 velocity=83 time=32
note_on channel=0 note=74 velocity=83 time=0
note_on channel=0 note=74 velocity=0 time=64
note_on channel=0 note=72 velocity=0 time=0
note_on channel=0 note=74 velocity=83 time=32
note_on channel=0 note=79 velocity=83 time=0
note_on channel=0 note=79 velocity=0 time=16
note_on channel=0 note=81 velocity=83 time=8
note_on channel=0 note=81 velocity=0 time=16
note_on channel=0 note=82 velocity=83 time=8
note_on channel=0 note=82 velocity=0 time=16
note_on channel=0 note=74 velocity=0 time=0
note_on channel=0 note=79 velocity=83 time=8
note_on channel=0 note=79 velocity=0 time=16
note_on channel=0 note=81 velocity=83 time=8
note_on channel=0 note=70 velocity=83 time=0
note_on channel=0 note=74 velocity=83 time=0
note_on channel=0 note=74 velocity=0 time=32
note_on channel=0 note=70 velocity=0 time=0
note_on channel=0 note=81 velocity=0 time=0
note_on channel=0 note=79 velocity=83 time=16
note_on channel=0 note=77 velocity=83 time=0
note_on channel=0 note=70 velocity=83 time=0
note_on channel=0 note=70 velocity=0 time=32
note_on channel=0 note=77 velocity=0 time=0
note_on channel=0 note=79 velocity=0 time=0
note_on channel=0 note=72 velocity=83 time=16
note_on channel=0 note=77 velocity=83 time=0
note_on channel=0 note=81 velocity=83 time=0
note_on channel=0 note=81 velocity=0 time=64
note_on channel=0 note=77 velocity=0 time=0
note_on channel=0 note=72 velocity=0 time=0
note_on channel=0 note=81 velocity=83 time=32
note_on channel=0 note=72 velocity=83 time=0
note_on channel=0 note=76 velocity=83 time=0
note_on channel=0 note=76 velocity=0 time=16
note_on channel=0 note=72 velocity=0 time=0
note_on channel=0 note=81 velocity=0 time=0
note_on channel=0 note=79 velocity=83 time=8
note_on channel=0 note=76 velocity=83 time=0
note_on channel=0 note=70 velocity=83 time=0
note_on channel=0 note=70 velocity=0 time=32
note_on channel=0 note=76 velocity=0 time=0
note_on channel=0 note=79 velocity=0 time=0
note_on channel=0 note=69 velocity=83 time=16
note_on channel=0 note=72 velocity=83 time=0
note_on channel=0 note=77 velocity=83 time=0
note_on channel=0 note=77 velocity=0 time=81
note_on channel=0 note=72 velocity=0 time=0
note_on channel=0 note=69 velocity=0 time=0
note_on channel=0 note=72 velocity=83 time=39
note_on channel=0 note=79 velocity=83 time=0
note_on channel=0 note=82 velocity=83 time=0
note_on channel=0 note=82 velocity=0 time=64
note_on channel=0 note=79 velocity=0 time=0
note_on channel=0 note=72 velocity=0 time=0
note_on channel=0 note=79 velocity=83 time=18
note_on channel=0 note=79 velocity=0 time=6
note_on channel=0 note=80 velocity=83 time=0
note_on channel=0 note=80 velocity=0 time=6
note_on channel=0 note=81 velocity=83 time=2
note_on channel=0 note=81 velocity=0 time=16
note_on channel=0 note=86 velocity=83 time=8
note_on channel=0 note=86 velocity=0 time=16
note_on channel=0 note=81 velocity=83 time=8
note_on channel=0 note=84 velocity=83 time=0
note_on channel=0 note=79 velocity=83 time=29
note_on channel=0 note=84 velocity=0 time=3
note_on channel=0 note=81 velocity=0 time=0
note_on channel=0 note=80 velocity=83 time=2
note_on channel=0 note=79 velocity=0 time=1
note_on channel=0 note=80 velocity=0 time=5
note_on channel=0 note=81 velocity=83 time=8
note_on channel=0 note=81 velocity=0 time=16
note_on channel=0 note=86 velocity=83 time=8
note_on channel=0 note=86 velocity=0 time=16
note_on channel=0 note=84 velocity=83 time=8
note_on channel=0 note=81 velocity=83 time=0
note_on channel=0 note=81 velocity=0 time=16
note_on channel=0 note=84 velocity=0 time=0
note_on channel=0 note=84 velocity=83 time=8
note_on channel=0 note=81 velocity=83 time=0
note_on channel=0 note=77 velocity=83 time=0
note_on channel=0 note=77 velocity=0 time=88
note_on channel=0 note=81 velocity=0 time=0
note_on channel=0 note=84 velocity=0 time=0
note_on channel=0 note=75 velocity=83 time=32
note_on channel=0 note=81 velocity=83 time=0
note_on channel=0 note=84 velocity=83 time=0
note_on channel=0 note=84 velocity=0 time=64
note_on channel=0 note=81 velocity=0 time=0
note_on channel=0 note=75 velocity=0 time=0
note_on channel=0 note=72 velocity=83 time=18
note_on channel=0 note=72 velocity=0 time=6
note_on channel=0 note=73 velocity=83 time=0
note_on channel=0 note=73 velocity=0 time=6
note_on channel=0 note=74 velocity=83 time=2
note_on channel=0 note=74 velocity=0 time=16
note_on channel=0 note=79 velocity=83 time=8
note_on channel=0 note=79 velocity=0 time=16
note_on channel=0 note=74 velocity=83 time=8
note_on channel=0 note=77 velocity=83 time=0
note_on channel=0 note=72 velocity=83 time=29
note_on channel=0 note=77 velocity=0 time=3
note_on channel=0 note=74 velocity=0 time=0
note_on channel=0 note=73 velocity=83 time=2
note_on channel=0 note=72 velocity=0 time=1
note_on channel=0 note=73 velocity=0 time=5
note_on channel=0 note=74 velocity=83 time=8
note_on channel=0 note=74 velocity=0 time=16
note_on channel=0 note=79 velocity=83 time=8
note_on channel=0 note=79 velocity=0 time=16
note_on channel=0 note=77 velocity=83 time=8
note_on channel=0 note=74 velocity=83 time=0
note_on channel=0 note=74 velocity=0 time=16
note_on channel=0 note=77 velocity=0 time=0
note_on channel=0 note=77 velocity=83 time=8
note_on channel=0 note=72 velocity=83 time=0
note_on channel=0 note=72 velocity=0 time=88
note_on channel=0 note=77 velocity=0 time=0
note_on channel=0 note=72 velocity=83 time=32
note_on channel=0 note=79 velocity=83 time=0
note_on channel=0 note=82 velocity=83 time=0
note_on channel=0 note=82 velocity=0 time=64
note_on channel=0 note=79 velocity=0 time=0
note_on channel=0 note=72 velocity=0 time=0
note_on channel=0 note=79 velocity=83 time=18
note_on channel=0 note=79 velocity=0 time=6
note_on channel=0 note=80 velocity=83 time=0
note_on channel=0 note=80 velocity=0 time=6
note_on channel=0 note=81 velocity=83 time=2
note_on channel=0 note=81 velocity=0 time=16
note_on channel=0 note=86 velocity=83 time=8
note_on channel=0 note=86 velocity=0 time=16
note_on channel=0 note=81 velocity=83 time=8
note_on channel=0 note=84 velocity=83 time=0
note_on channel=0 note=79 velocity=83 time=29
note_on channel=0 note=84 velocity=0 time=3
note_on channel=0 note=81 velocity=0 time=0
note_on channel=0 note=80 velocity=83 time=2
note_on channel=0 note=79 velocity=0 time=1
note_on channel=0 note=80 velocity=0 time=5
note_on channel=0 note=81 velocity=83 time=8
note_on channel=0 note=81 velocity=0 time=16
note_on channel=0 note=86 velocity=83 time=8
note_on channel=0 note=86 velocity=0 time=16
note_on channel=0 note=84 velocity=83 time=8
note_on channel=0 note=81 velocity=83 time=0
note_on channel=0 note=81 velocity=0 time=16
note_on channel=0 note=84 velocity=0 time=0
note_on channel=0 note=84 velocity=83 time=8
note_on channel=0 note=81 velocity=83 time=0
note_on channel=0 note=77 velocity=83 time=0
note_on channel=0 note=77 velocity=0 time=136
note_on channel=0 note=81 velocity=0 time=0
note_on channel=0 note=84 velocity=0 time=0
note_on channel=0 note=84 velocity=83 time=8
note_on channel=0 note=72 velocity=83 time=0
note_on channel=0 note=72 velocity=0 time=32
note_on channel=0 note=84 velocity=0 time=0
note_on channel=0 note=86 velocity=83 time=16
note_on channel=0 note=74 velocity=83 time=0
note_on channel=0 note=74 velocity=0 time=16
note_on channel=0 note=86 velocity=0 time=0
note_on channel=0 note=76 velocity=83 time=8
note_on channel=0 note=81 velocity=83 time=0
note_on channel=0 note=88 velocity=83 time=0
note_on channel=0 note=88 velocity=0 time=16
note_on channel=0 note=84 velocity=83 time=8
note_on channel=0 note=84 velocity=0 time=16
note_on channel=0 note=81 velocity=0 time=8
note_on channel=0 note=76 velocity=0 time=0
note_on channel=0 note=81 velocity=83 time=0
note_on channel=0 note=81 velocity=0 time=16
note_on channel=0 note=80 velocity=83 time=8
note_on channel=0 note=74 velocity=83 time=0
note_on channel=0 note=84 velocity=83 time=0
note_on channel=0 note=84 velocity=0 time=56
note_on channel=0 note=74 velocity=0 time=0
note_on channel=0 note=80 velocity=0 time=0
note_on channel=0 note=74 velocity=83 time=16
note_on channel=0 note=80 velocity=83 time=0
note_on channel=0 note=83 velocity=83 time=0
note_on channel=0 note=83 velocity=0 time=32
note_on channel=0 note=80 velocity=0 time=0
note_on channel=0 note=74 velocity=0 time=0
note_on channel=0 note=72 velocity=83 time=16
note_on channel=0 note=76 velocity=83 time=0
note_on channel=0 note=81 velocity=83 time=0
note_on channel=0 note=81 velocity=0 time=32
note_on channel=0 note=76 velocity=0 time=0
note_on channel=0 note=72 velocity=0 time=0
note_on channel=0 note=72 velocity=83 time=16
note_on channel=0 note=75 velocity=83 time=0
note_on channel=0 note=81 velocity=83 time=0
note_on channel=0 note=81 velocity=0 time=32
note_on channel=0 note=75 velocity=0 time=0
note_on channel=0 note=72 velocity=0 time=0
note_on channel=0 note=72 velocity=83 time=16
note_on channel=0 note=76 velocity=83 time=0
note_on channel=0 note=82 velocity=83 time=0
note_on channel=0 note=82 velocity=0 time=64
note_on channel=0 note=76 velocity=0 time=0
note_on channel=0 note=72 velocity=0 time=0
note_on channel=0 note=79 velocity=83 time=18
note_on channel=0 note=79 velocity=0 time=6
note_on channel=0 note=80 velocity=83 time=0
note_on channel=0 note=80 velocity=0 time=6
note_on channel=0 note=81 velocity=83 time=2
note_on channel=0 note=81 velocity=0 time=16
note_on channel=0 note=86 velocity=83 time=8
note_on channel=0 note=86 velocity=0 time=16
note_on channel=0 note=81 velocity=83 time=8
note_on channel=0 note=84 velocity=83 time=0
note_on channel=0 note=79 velocity=83 time=29
note_on channel=0 note=84 velocity=0 time=3
note_on channel=0 note=81 velocity=0 time=0
note_on channel=0 note=80 velocity=83 time=2
note_on channel=0 note=79 velocity=0 time=1
note_on channel=0 note=80 velocity=0 time=5
note_on channel=0 note=81 velocity=83 time=8
note_on channel=0 note=81 velocity=0 time=16
note_on channel=0 note=86 velocity=83 time=8
note_on channel=0 note=86 velocity=0 time=16
note_on channel=0 note=84 velocity=83 time=8
note_on channel=0 note=81 velocity=83 time=0
note_on channel=0 note=81 velocity=0 time=16
note_on channel=0 note=84 velocity=0 time=0
note_on channel=0 note=84 velocity=83 time=8
note_on channel=0 note=81 velocity=83 time=0
note_on channel=0 note=77 velocity=83 time=0
note_on channel=0 note=77 velocity=0 time=88
note_on channel=0 note=81 velocity=0 time=0
note_on channel=0 note=84 velocity=0 time=0
note_on channel=0 note=75 velocity=83 time=32
note_on channel=0 note=81 velocity=83 time=0
note_on channel=0 note=84 velocity=83 time=0
note_on channel=0 note=84 velocity=0 time=64
note_on channel=0 note=81 velocity=0 time=0
note_on channel=0 note=75 velocity=0 time=0
note_on channel=0 note=72 velocity=83 time=18
note_on channel=0 note=72 velocity=0 time=6
note_on channel=0 note=73 velocity=83 time=0
note_on channel=0 note=73 velocity=0 time=6
note_on channel=0 note=74 velocity=83 time=2
note_on channel=0 note=74 velocity=0 time=16
note_on channel=0 note=79 velocity=83 time=8
note_on channel=0 note=79 velocity=0 time=16
note_on channel=0 note=74 velocity=83 time=8
note_on channel=0 note=77 velocity=83 time=0
note_on channel=0 note=72 velocity=83 time=29
note_on channel=0 note=77 velocity=0 time=3
note_on channel=0 note=74 velocity=0 time=0
note_on channel=0 note=73 velocity=83 time=2
note_on channel=0 note=72 velocity=0 time=1
note_on channel=0 note=73 velocity=0 time=5
note_on channel=0 note=74 velocity=83 time=8
note_on channel=0 note=74 velocity=0 time=16
note_on channel=0 note=79 velocity=83 time=8
note_on channel=0 note=79 velocity=0 time=16
note_on channel=0 note=77 velocity=83 time=8
note_on channel=0 note=74 velocity=83 time=0
note_on channel=0 note=74 velocity=0 time=16
note_on channel=0 note=77 velocity=0 time=0
note_on channel=0 note=77 velocity=83 time=8
note_on channel=0 note=72 velocity=83 time=0
note_on channel=0 note=72 velocity=0 time=136
note_on channel=0 note=77 velocity=0 time=0
note_on channel=0 note=72 velocity=83 time=8
note_on channel=0 note=84 velocity=83 time=0
note_on channel=0 note=84 velocity=0 time=32
note_on channel=0 note=72 velocity=0 time=0
note_on channel=0 note=85 velocity=83 time=16
note_on channel=0 note=73 velocity=83 time=0
note_on channel=0 note=73 velocity=0 time=16
note_on channel=0 note=85 velocity=0 time=0
note_on channel=0 note=74 velocity=83 time=8
note_on channel=0 note=81 velocity=83 time=0
note_on channel=0 note=86 velocity=83 time=0
note_on channel=0 note=86 velocity=0 time=32
note_on channel=0 note=81 velocity=0 time=0
note_on channel=0 note=74 velocity=0 time=0
note_on channel=0 note=81 velocity=83 time=16
note_on channel=0 note=84 velocity=83 time=0
note_on channel=0 note=72 velocity=83 time=0
note_on channel=0 note=72 velocity=0 time=64
note_on channel=0 note=84 velocity=0 time=0
note_on channel=0 note=81 velocity=0 time=0
note_on channel=0 note=81 velocity=83 time=32
note_on channel=0 note=78 velocity=83 time=0
note_on channel=0 note=74 velocity=83 time=0
note_on channel=0 note=74 velocity=0 time=32
note_on channel=0 note=78 velocity=0 time=0
note_on channel=0 note=81 velocity=0 time=0
note_on channel=0 note=74 velocity=83 time=16
note_on channel=0 note=79 velocity=83 time=0
note_on channel=0 note=79 velocity=0 time=16
note_on channel=0 note=81 velocity=83 time=8
note_on channel=0 note=81 velocity=0 time=16
note_on channel=0 note=82 velocity=83 time=8
note_on channel=0 note=82 velocity=0 time=16
note_on channel=0 note=74 velocity=0 time=0
note_on channel=0 note=79 velocity=83 time=8
note_on channel=0 note=79 velocity=0 time=16
note_on channel=0 note=81 velocity=83 time=8
note_on channel=0 note=74 velocity=83 time=0
note_on channel=0 note=70 velocity=83 time=0
note_on channel=0 note=70 velocity=0 time=32
note_on channel=0 note=74 velocity=0 time=0
note_on channel=0 note=81 velocity=0 time=0
note_on channel=0 note=79 velocity=83 time=16
note_on channel=0 note=77 velocity=83 time=0
note_on channel=0 note=70 velocity=83 time=0
note_on channel=0 note=70 velocity=0 time=32
note_on channel=0 note=77 velocity=0 time=0
note_on channel=0 note=79 velocity=0 time=0
note_on channel=0 note=81 velocity=83 time=16
note_on channel=0 note=77 velocity=83 time=0
note_on channel=0 note=72 velocity=83 time=0
note_on channel=0 note=72 velocity=0 time=64
note_on channel=0 note=77 velocity=0 time=0
note_on channel=0 note=81 velocity=0 time=0
note_on channel=0 note=72 velocity=83 time=32
note_on channel=0 note=76 velocity=83 time=0
note_on channel=0 note=81 velocity=83 time=0
note_on channel=0 note=81 velocity=0 time=16
note_on channel=0 note=76 velocity=0 time=0
note_on channel=0 note=72 velocity=0 time=0
note_on channel=0 note=70 velocity=83 time=8
note_on channel=0 note=76 velocity=83 time=0
note_on channel=0 note=79 velocity=83 time=0
note_on channel=0 note=79 velocity=0 time=32
note_on channel=0 note=76 velocity=0 time=0
note_on channel=0 note=70 velocity=0 time=0
note_on channel=0 note=77 velocity=83 time=16
note_on channel=0 note=72 velocity=83 time=0
note_on channel=0 note=69 velocity=83 time=0
note_on channel=0 note=69 velocity=0 time=88
note_on channel=0 note=72 velocity=0 time=0
note_on channel=0 note=77 velocity=0 time=0
note_on channel=0 note=72 velocity=83 time=32
note_on channel=0 note=79 velocity=83 time=0
note_on channel=0 note=82 velocity=83 time=0
note_on channel=0 note=82 velocity=0 time=64
note_on channel=0 note=79 velocity=0 time=0
note_on channel=0 note=72 velocity=0 time=0
note_on channel=0 note=79 velocity=83 time=18
note_on channel=0 note=79 velocity=0 time=6
note_on channel=0 note=80 velocity=83 time=0
note_on channel=0 note=80 velocity=0 time=6
note_on channel=0 note=81 velocity=83 time=2
note_on channel=0 note=81 velocity=0 time=16
note_on channel=0 note=86 velocity=83 time=8
note_on channel=0 note=86 velocity=0 time=16
note_on channel=0 note=81 velocity=83 time=8
note_on channel=0 note=84 velocity=83 time=0
note_on channel=0 note=79 velocity=83 time=29
note_on channel=0 note=84 velocity=0 time=3
note_on channel=0 note=81 velocity=0 time=0
note_on channel=0 note=80 velocity=83 time=2
note_on channel=0 note=79 velocity=0 time=1
note_on channel=0 note=80 velocity=0 time=5
note_on channel=0 note=81 velocity=83 time=8
note_on channel=0 note=81 velocity=0 time=16
note_on channel=0 note=86 velocity=83 time=8
note_on channel=0 note=86 velocity=0 time=16
note_on channel=0 note=84 velocity=83 time=8
note_on channel=0 note=81 velocity=83 time=0
note_on channel=0 note=81 velocity=0 time=16
note_on channel=0 note=84 velocity=0 time=0
note_on channel=0 note=84 velocity=83 time=8
note_on channel=0 note=81 velocity=83 time=0
note_on channel=0 note=77 velocity=83 time=0
note_on channel=0 note=77 velocity=0 time=88
note_on channel=0 note=81 velocity=0 time=0
note_on channel=0 note=84 velocity=0 time=0
note_on channel=0 note=75 velocity=83 time=32
note_on channel=0 note=81 velocity=83 time=0
note_on channel=0 note=84 velocity=83 time=0
note_on channel=0 note=84 velocity=0 time=64
note_on channel=0 note=81 velocity=0 time=0
note_on channel=0 note=75 velocity=0 time=0
note_on channel=0 note=72 velocity=83 time=18
note_on channel=0 note=72 velocity=0 time=6
note_on channel=0 note=73 velocity=83 time=0
note_on channel=0 note=73 velocity=0 time=6
note_on channel=0 note=74 velocity=83 time=2
note_on channel=0 note=74 velocity=0 time=16
note_on channel=0 note=79 velocity=83 time=8
note_on channel=0 note=79 velocity=0 time=16
note_on channel=0 note=74 velocity=83 time=8
note_on channel=0 note=77 velocity=83 time=0
note_on channel=0 note=72 velocity=83 time=29
note_on channel=0 note=77 velocity=0 time=3
note_on channel=0 note=74 velocity=0 time=0
note_on channel=0 note=73 velocity=83 time=2
note_on channel=0 note=72 velocity=0 time=1
note_on channel=0 note=73 velocity=0 time=5
note_on channel=0 note=74 velocity=83 time=8
note_on channel=0 note=74 velocity=0 time=16
note_on channel=0 note=79 velocity=83 time=8
note_on channel=0 note=79 velocity=0 time=16
note_on channel=0 note=77 velocity=83 time=8
note_on channel=0 note=74 velocity=83 time=0
note_on channel=0 note=74 velocity=0 time=16
note_on channel=0 note=77 velocity=0 time=0
note_on channel=0 note=77 velocity=83 time=8
note_on channel=0 note=72 velocity=83 time=0
note_on channel=0 note=72 velocity=0 time=88
note_on channel=0 note=77 velocity=0 time=0
note_on channel=0 note=72 velocity=83 time=32
note_on channel=0 note=79 velocity=83 time=0
note_on channel=0 note=82 velocity=83 time=0
note_on channel=0 note=82 velocity=0 time=64
note_on channel=0 note=79 velocity=0 time=0
note_on channel=0 note=72 velocity=0 time=0
note_on channel=0 note=79 velocity=83 time=18
note_on channel=0 note=79 velocity=0 time=6
note_on channel=0 note=80 velocity=83 time=0
note_on channel=0 note=80 velocity=0 time=6
note_on channel=0 note=81 velocity=83 time=2
note_on channel=0 note=81 velocity=0 time=16
note_on channel=0 note=86 velocity=83 time=8
note_on channel=0 note=86 velocity=0 time=16
note_on channel=0 note=81 velocity=83 time=8
note_on channel=0 note=84 velocity=83 time=0
note_on channel=0 note=79 velocity=83 time=29
note_on channel=0 note=84 velocity=0 time=3
note_on channel=0 note=81 velocity=0 time=0
note_on channel=0 note=80 velocity=83 time=2
note_on channel=0 note=79 velocity=0 time=1
note_on channel=0 note=80 velocity=0 time=5
note_on channel=0 note=81 velocity=83 time=8
note_on channel=0 note=81 velocity=0 time=16
note_on channel=0 note=86 velocity=83 time=8
note_on channel=0 note=86 velocity=0 time=16
note_on channel=0 note=84 velocity=83 time=8
note_on channel=0 note=81 velocity=83 time=0
note_on channel=0 note=81 velocity=0 time=16
note_on channel=0 note=84 velocity=0 time=0
note_on channel=0 note=84 velocity=83 time=8
note_on channel=0 note=81 velocity=83 time=0
note_on channel=0 note=77 velocity=83 time=0
note_on channel=0 note=77 velocity=0 time=136
note_on channel=0 note=81 velocity=0 time=0
note_on channel=0 note=84 velocity=0 time=0
note_on channel=0 note=84 velocity=83 time=8
note_on channel=0 note=72 velocity=83 time=0
note_on channel=0 note=72 velocity=0 time=32
note_on channel=0 note=84 velocity=0 time=0
note_on channel=0 note=86 velocity=83 time=16
note_on channel=0 note=74 velocity=83 time=0
note_on channel=0 note=74 velocity=0 time=16
note_on channel=0 note=86 velocity=0 time=0
note_on channel=0 note=76 velocity=83 time=8
note_on channel=0 note=81 velocity=83 time=0
note_on channel=0 note=88 velocity=83 time=0
note_on channel=0 note=88 velocity=0 time=16
note_on channel=0 note=84 velocity=83 time=8
note_on channel=0 note=84 velocity=0 time=16
note_on channel=0 note=81 velocity=0 time=8
note_on channel=0 note=76 velocity=0 time=0
note_on channel=0 note=81 velocity=83 time=0
note_on channel=0 note=81 velocity=0 time=16
note_on channel=0 note=80 velocity=83 time=8
note_on channel=0 note=74 velocity=83 time=0
note_on channel=0 note=84 velocity=83 time=0
note_on channel=0 note=84 velocity=0 time=56
note_on channel=0 note=74 velocity=0 time=0
note_on channel=0 note=80 velocity=0 time=0
note_on channel=0 note=74 velocity=83 time=16
note_on channel=0 note=80 velocity=83 time=0
note_on channel=0 note=83 velocity=83 time=0
note_on channel=0 note=83 velocity=0 time=32
note_on channel=0 note=80 velocity=0 time=0
note_on channel=0 note=74 velocity=0 time=0
note_on channel=0 note=72 velocity=83 time=16
note_on channel=0 note=76 velocity=83 time=0
note_on channel=0 note=81 velocity=83 time=0
note_on channel=0 note=81 velocity=0 time=32
note_on channel=0 note=76 velocity=0 time=0
note_on channel=0 note=72 velocity=0 time=0
note_on channel=0 note=72 velocity=83 time=16
note_on channel=0 note=75 velocity=83 time=0
note_on channel=0 note=81 velocity=83 time=0
note_on channel=0 note=81 velocity=0 time=32
note_on channel=0 note=75 velocity=0 time=0
note_on channel=0 note=72 velocity=0 time=0
note_on channel=0 note=72 velocity=83 time=16
note_on channel=0 note=76 velocity=83 time=0
note_on channel=0 note=82 velocity=83 time=0
note_on channel=0 note=82 velocity=0 time=64
note_on channel=0 note=76 velocity=0 time=0
note_on channel=0 note=72 velocity=0 time=0
note_on channel=0 note=79 velocity=83 time=18
note_on channel=0 note=79 velocity=0 time=6
note_on channel=0 note=80 velocity=83 time=0
note_on channel=0 note=80 velocity=0 time=6
note_on channel=0 note=81 velocity=83 time=2
note_on channel=0 note=81 velocity=0 time=16
note_on channel=0 note=86 velocity=83 time=8
note_on channel=0 note=86 velocity=0 time=16
note_on channel=0 note=81 velocity=83 time=8
note_on channel=0 note=84 velocity=83 time=0
note_on channel=0 note=79 velocity=83 time=29
note_on channel=0 note=84 velocity=0 time=3
note_on channel=0 note=81 velocity=0 time=0
note_on channel=0 note=80 velocity=83 time=2
note_on channel=0 note=79 velocity=0 time=1
note_on channel=0 note=80 velocity=0 time=5
note_on channel=0 note=81 velocity=83 time=8
note_on channel=0 note=81 velocity=0 time=16
note_on channel=0 note=86 velocity=83 time=8
note_on channel=0 note=86 velocity=0 time=16
note_on channel=0 note=84 velocity=83 time=8
note_on channel=0 note=81 velocity=83 time=0
note_on channel=0 note=81 velocity=0 time=16
note_on channel=0 note=84 velocity=0 time=0
note_on channel=0 note=84 velocity=83 time=8
note_on channel=0 note=81 velocity=83 time=0
note_on channel=0 note=77 velocity=83 time=0
note_on channel=0 note=77 velocity=0 time=88
note_on channel=0 note=81 velocity=0 time=0
note_on channel=0 note=84 velocity=0 time=0
note_on channel=0 note=75 velocity=83 time=32
note_on channel=0 note=81 velocity=83 time=0
note_on channel=0 note=84 velocity=83 time=0
note_on channel=0 note=84 velocity=0 time=64
note_on channel=0 note=81 velocity=0 time=0
note_on channel=0 note=75 velocity=0 time=0
note_on channel=0 note=72 velocity=83 time=18
note_on channel=0 note=72 velocity=0 time=6
note_on channel=0 note=73 velocity=83 time=0
note_on channel=0 note=73 velocity=0 time=6
note_on channel=0 note=74 velocity=83 time=2
note_on channel=0 note=74 velocity=0 time=16
note_on channel=0 note=79 velocity=83 time=8
note_on channel=0 note=79 velocity=0 time=16
note_on channel=0 note=74 velocity=83 time=8
note_on channel=0 note=77 velocity=83 time=0
note_on channel=0 note=72 velocity=83 time=29
note_on channel=0 note=77 velocity=0 time=3
note_on channel=0 note=74 velocity=0 time=0
note_on channel=0 note=73 velocity=83 time=2
note_on channel=0 note=72 velocity=0 time=1
note_on channel=0 note=73 velocity=0 time=5
note_on channel=0 note=74 velocity=83 time=8
note_on channel=0 note=74 velocity=0 time=16
note_on channel=0 note=79 velocity=83 time=8
note_on channel=0 note=79 velocity=0 time=16
note_on channel=0 note=77 velocity=83 time=8
note_on channel=0 note=74 velocity=83 time=0
note_on channel=0 note=74 velocity=0 time=16
note_on channel=0 note=77 velocity=0 time=0
note_on channel=0 note=77 velocity=83 time=8
note_on channel=0 note=72 velocity=83 time=0
note_on channel=0 note=72 velocity=0 time=136
note_on channel=0 note=77 velocity=0 time=0
note_on channel=0 note=72 velocity=83 time=8
note_on channel=0 note=84 velocity=83 time=0
note_on channel=0 note=84 velocity=0 time=32
note_on channel=0 note=72 velocity=0 time=0
note_on channel=0 note=85 velocity=83 time=16
note_on channel=0 note=73 velocity=83 time=0
note_on channel=0 note=73 velocity=0 time=16
note_on channel=0 note=85 velocity=0 time=0
note_on channel=0 note=74 velocity=83 time=8
note_on channel=0 note=81 velocity=83 time=0
note_on channel=0 note=86 velocity=83 time=0
note_on channel=0 note=86 velocity=0 time=32
note_on channel=0 note=81 velocity=0 time=0
note_on channel=0 note=74 velocity=0 time=0
note_on channel=0 note=81 velocity=83 time=16
note_on channel=0 note=84 velocity=83 time=0
note_on channel=0 note=72 velocity=83 time=0
note_on channel=0 note=72 velocity=0 time=64
note_on channel=0 note=84 velocity=0 time=0
note_on channel=0 note=81 velocity=0 time=0
note_on channel=0 note=81 velocity=83 time=32
note_on channel=0 note=78 velocity=83 time=0
note_on channel=0 note=74 velocity=83 time=0
note_on channel=0 note=74 velocity=0 time=32
note_on channel=0 note=78 velocity=0 time=0
note_on channel=0 note=81 velocity=0 time=0
note_on channel=0 note=74 velocity=83 time=16
note_on channel=0 note=79 velocity=83 time=0
note_on channel=0 note=79 velocity=0 time=16
note_on channel=0 note=81 velocity=83 time=8
note_on channel=0 note=81 velocity=0 time=16
note_on channel=0 note=82 velocity=83 time=8
note_on channel=0 note=82 velocity=0 time=16
note_on channel=0 note=74 velocity=0 time=0
note_on channel=0 note=79 velocity=83 time=8
note_on channel=0 note=79 velocity=0 time=16
note_on channel=0 note=81 velocity=83 time=8
note_on channel=0 note=74 velocity=83 time=0
note_on channel=0 note=70 velocity=83 time=0
note_on channel=0 note=70 velocity=0 time=32
note_on channel=0 note=74 velocity=0 time=0
note_on channel=0 note=81 velocity=0 time=0
note_on channel=0 note=79 velocity=83 time=16
note_on channel=0 note=77 velocity=83 time=0
note_on channel=0 note=70 velocity=83 time=0
note_on channel=0 note=70 velocity=0 time=32
note_on channel=0 note=77 velocity=0 time=0
note_on channel=0 note=79 velocity=0 time=0
note_on channel=0 note=81 velocity=83 time=16
note_on channel=0 note=77 velocity=83 time=0
note_on channel=0 note=72 velocity=83 time=0
note_on channel=0 note=72 velocity=0 time=64
note_on channel=0 note=77 velocity=0 time=0
note_on channel=0 note=81 velocity=0 time=0
note_on channel=0 note=72 velocity=83 time=32
note_on channel=0 note=76 velocity=83 time=0
note_on channel=0 note=81 velocity=83 time=0
note_on channel=0 note=81 velocity=0 time=16
note_on channel=0 note=76 velocity=0 time=0
note_on channel=0 note=72 velocity=0 time=0
note_on channel=0 note=70 velocity=83 time=8
note_on channel=0 note=76 velocity=83 time=0
note_on channel=0 note=79 velocity=83 time=0
note_on channel=0 note=79 velocity=0 time=32
note_on channel=0 note=76 velocity=0 time=0
note_on channel=0 note=70 velocity=0 time=0
note_on channel=0 note=77 velocity=83 time=16
note_on channel=0 note=72 velocity=83 time=0
note_on channel=0 note=69 velocity=83 time=0
note_on channel=0 note=69 velocity=0 time=88
note_on channel=0 note=72 velocity=0 time=0
note_on channel=0 note=77 velocity=0 time=0
note_on channel=0 note=77 velocity=83 time=32
note_on channel=0 note=81 velocity=83 time=0
note_on channel=0 note=84 velocity=83 time=0
note_on channel=0 note=89 velocity=83 time=0
note_on channel=0 note=89 velocity=0 time=32
note_on channel=0 note=77 velocity=0 time=0
note_on channel=0 note=81 velocity=0 time=0
note_on channel=0 note=84 velocity=0 time=0
<meta message end_of_track time=0>
<meta message midi_port port=0 time=0>
<meta message track_name name='by S.Joplin & A.Marshall (1907)' time=0>
program_change channel=1 program=0 time=0
control_change channel=1 control=10 value=35 time=0
control_change channel=1 control=121 value=0 time=8
control_change channel=1 control=1 value=0 time=16
control_change channel=1 control=64 value=0 time=8
aftertouch channel=1 value=0 time=11
pitchwheel channel=1 pitch=0 time=6
control_change channel=1 control=93 value=12 time=2
control_change channel=1 control=91 value=21 time=0
control_change channel=1 control=7 value=127 time=21
control_change channel=1 control=10 value=44 time=4
note_on channel=1 note=55 velocity=83 time=116
note_on channel=1 note=55 velocity=0 time=16
note_on channel=1 note=64 velocity=83 time=8
note_on channel=1 note=64 velocity=0 time=16
note_on channel=1 note=60 velocity=83 time=8
note_on channel=1 note=60 velocity=0 time=16
note_on channel=1 note=55 velocity=83 time=8
note_on channel=1 note=55 velocity=0 time=32
note_on channel=1 note=52 velocity=83 time=16
note_on channel=1 note=52 velocity=0 time=16
note_on channel=1 note=48 velocity=83 time=8
note_on channel=1 note=48 velocity=0 time=32
note_on channel=1 note=57 velocity=83 time=16
note_on channel=1 note=57 velocity=0 time=32
note_on channel=1 note=56 velocity=83 time=16
note_on channel=1 note=56 velocity=0 time=32
note_on channel=1 note=55 velocity=83 time=16
note_on channel=1 note=55 velocity=0 time=64
note_on channel=1 note=57 velocity=83 time=32
note_on channel=1 note=45 velocity=83 time=0
note_on channel=1 note=45 velocity=0 time=64
note_on channel=1 note=57 velocity=0 time=0
note_on channel=1 note=55 velocity=83 time=32
note_on channel=1 note=43 velocity=83 time=0
note_on channel=1 note=43 velocity=0 time=64
note_on channel=1 note=55 velocity=0 time=0
note_on channel=1 note=60 velocity=83 time=32
note_on channel=1 note=48 velocity=83 time=0
note_on channel=1 note=48 velocity=0 time=32
note_on channel=1 note=60 velocity=0 time=0
note_on channel=1 note=36 velocity=83 time=64
note_on channel=1 note=48 velocity=83 time=0
note_on channel=1 note=48 velocity=0 time=32
note_on channel=1 note=36 velocity=0 time=0
note_on channel=1 note=48 velocity=83 time=16
note_on channel=1 note=60 velocity=83 time=0
note_on channel=1 note=60 velocity=0 time=32
note_on channel=1 note=48 velocity=0 time=0
note_on channel=1 note=53 velocity=83 time=16
note_on channel=1 note=41 velocity=83 time=0
note_on channel=1 note=41 velocity=0 time=32
note_on channel=1 note=53 velocity=0 time=0
note_on channel=1 note=57 velocity=83 time=16
note_on channel=1 note=60 velocity=83 time=0
note_on channel=1 note=65 velocity=83 time=0
note_on channel=1 note=65 velocity=0 time=32
note_on channel=1 note=60 velocity=0 time=0
note_on channel=1 note=57 velocity=0 time=0
note_on channel=1 note=57 velocity=83 time=16
note_on channel=1 note=45 velocity=83 time=0
note_on channel=1 note=45 velocity=0 time=32
note_on channel=1 note=57 velocity=0 time=0
note_on channel=1 note=44 velocity=83 time=16
note_on channel=1 note=56 velocity=83 time=0
note_on channel=1 note=56 velocity=0 time=32
note_on channel=1 note=44 velocity=0 time=0
note_on channel=1 note=55 velocity=83 time=16
note_on channel=1 note=43 velocity=83 time=0
note_on channel=1 note=43 velocity=0 time=32
note_on channel=1 note=55 velocity=0 time=0
note_on channel=1 note=55 velocity=83 time=16
note_on channel=1 note=64 velocity=83 time=0
note_on channel=1 note=60 velocity=83 time=0
note_on channel=1 note=60 velocity=0 time=32
note_on channel=1 note=64 velocity=0 time=0
note_on channel=1 note=55 velocity=0 time=0
note_on channel=1 note=64 velocity=83 time=16
note_on channel=1 note=52 velocity=83 time=0
note_on channel=1 note=52 velocity=0 time=32
note_on channel=1 note=64 velocity=0 time=0
note_on channel=1 note=51 velocity=83 time=16
note_on channel=1 note=63 velocity=83 time=0
note_on channel=1 note=63 velocity=0 time=32
note_on channel=1 note=51 velocity=0 time=0
note_on channel=1 note=62 velocity=83 time=16
note_on channel=1 note=50 velocity=83 time=0
note_on channel=1 note=50 velocity=0 time=32
note_on channel=1 note=62 velocity=0 time=0
note_on channel=1 note=55 velocity=83 time=16
note_on channel=1 note=59 velocity=83 time=0
note_on channel=1 note=65 velocity=83 time=0
note_on channel=1 note=65 velocity=0 time=32
note_on channel=1 note=59 velocity=0 time=0
note_on channel=1 note=55 velocity=0 time=0
note_on channel=1 note=55 velocity=83 time=16
note_on channel=1 note=43 velocity=83 time=0
note_on channel=1 note=43 velocity=0 time=32
note_on channel=1 note=55 velocity=0 time=0
note_on channel=1 note=55 velocity=83 time=16
note_on channel=1 note=59 velocity=83 time=0
note_on channel=1 note=65 velocity=83 time=0
note_on channel=1 note=65 velocity=0 time=32
note_on channel=1 note=59 velocity=0 time=0
note_on channel=1 note=55 velocity=0 time=0
note_on channel=1 note=60 velocity=83 time=16
note_on channel=1 note=48 velocity=83 time=0
note_on channel=1 note=48 velocity=0 time=32
note_on channel=1 note=60 velocity=0 time=0
note_on channel=1 note=48 velocity=83 time=16
note_on channel=1 note=36 velocity=83 time=0
note_on channel=1 note=36 velocity=0 time=32
note_on channel=1 note=48 velocity=0 time=0
note_on channel=1 note=38 velocity=83 time=16
note_on channel=1 note=50 velocity=83 time=0
note_on channel=1 note=50 velocity=0 time=32
note_on channel=1 note=38 velocity=0 time=0
note_on channel=1 note=52 velocity=83 time=16
note_on channel=1 note=40 velocity=83 time=0
note_on channel=1 note=40 velocity=0 time=32
note_on channel=1 note=52 velocity=0 time=0
note_on channel=1 note=53 velocity=83 time=16
note_on channel=1 note=41 velocity=83 time=0
note_on channel=1 note=41 velocity=0 time=32
note_on channel=1 note=53 velocity=0 time=0
note_on channel=1 note=57 velocity=83 time=16
note_on channel=1 note=60 velocity=83 time=0
note_on channel=1 note=65 velocity=83 time=0
note_on channel=1 note=65 velocity=0 time=32
note_on channel=1 note=60 velocity=0 time=0
note_on channel=1 note=57 velocity=0 time=0
note_on channel=1 note=57 velocity=83 time=16
note_on channel=1 note=45 velocity=83 time=0
note_on channel=1 note=45 velocity=0 time=32
note_on channel=1 note=57 velocity=0 time=0
note_on channel=1 note=44 velocity=83 time=16
note_on channel=1 note=56 velocity=83 time=0
note_on channel=1 note=56 velocity=0 time=32
note_on channel=1 note=44 velocity=0 time=0
note_on channel=1 note=55 velocity=83 time=16
note_on channel=1 note=43 velocity=83 time=0
note_on channel=1 note=43 velocity=0 time=32
note_on channel=1 note=55 velocity=0 time=0
note_on channel=1 note=55 velocity=83 time=16
note_on channel=1 note=60 velocity=83 time=0
note_on channel=1 note=64 velocity=83 time=0
note_on channel=1 note=64 velocity=0 time=32
note_on channel=1 note=60 velocity=0 time=0
note_on channel=1 note=55 velocity=0 time=0
note_on channel=1 note=49 velocity=83 time=16
note_on channel=1 note=37 velocity=83 time=0
note_on channel=1 note=37 velocity=0 time=64
note_on channel=1 note=49 velocity=0 time=0
note_on channel=1 note=50 velocity=83 time=32
note_on channel=1 note=38 velocity=83 time=0
note_on channel=1 note=38 velocity=0 time=32
note_on channel=1 note=50 velocity=0 time=0
note_on channel=1 note=55 velocity=83 time=16
note_on channel=1 note=59 velocity=83 time=0
note_on channel=1 note=62 velocity=83 time=0
note_on channel=1 note=62 velocity=0 time=32
note_on channel=1 note=59 velocity=0 time=0
note_on channel=1 note=55 velocity=0 time=0
note_on channel=1 note=55 velocity=83 time=16
note_on channel=1 note=43 velocity=83 time=0
note_on channel=1 note=43 velocity=0 time=32
note_on channel=1 note=55 velocity=0 time=0
note_on channel=1 note=55 velocity=83 time=16
note_on channel=1 note=59 velocity=83 time=0
note_on channel=1 note=62 velocity=83 time=0
note_on channel=1 note=62 velocity=0 time=32
note_on channel=1 note=59 velocity=0 time=0
note_on channel=1 note=55 velocity=0 time=0
note_on channel=1 note=50 velocity=83 time=16
note_on channel=1 note=38 velocity=83 time=0
note_on channel=1 note=38 velocity=0 time=32
note_on channel=1 note=50 velocity=0 time=0
note_on channel=1 note=54 velocity=83 time=16
note_on channel=1 note=60 velocity=83 time=0
note_on channel=1 note=62 velocity=83 time=0
note_on channel=1 note=62 velocity=0 time=32
note_on channel=1 note=60 velocity=0 time=0
note_on channel=1 note=54 velocity=0 time=0
note_on channel=1 note=55 velocity=83 time=16
note_on channel=1 note=43 velocity=83 time=0
note_on channel=1 note=43 velocity=0 time=32
note_on channel=1 note=55 velocity=0 time=0
note_on channel=1 note=48 velocity=83 time=16
note_on channel=1 note=60 velocity=83 time=0
note_on channel=1 note=60 velocity=0 time=32
note_on channel=1 note=48 velocity=0 time=0
note_on channel=1 note=53 velocity=83 time=16
note_on channel=1 note=41 velocity=83 time=0
note_on channel=1 note=41 velocity=0 time=32
note_on channel=1 note=53 velocity=0 time=0
note_on channel=1 note=57 velocity=83 time=16
note_on channel=1 note=60 velocity=83 time=0
note_on channel=1 note=65 velocity=83 time=0
note_on channel=1 note=65 velocity=0 time=32
note_on channel=1 note=60 velocity=0 time=0
note_on channel=1 note=57 velocity=0 time=0
note_on channel=1 note=57 velocity=83 time=16
note_on channel=1 note=45 velocity=83 time=0
note_on channel=1 note=45 velocity=0 time=32
note_on channel=1 note=57 velocity=0 time=0
note_on channel=1 note=44 velocity=83 time=16
note_on channel=1 note=56 velocity=83 time=0
note_on channel=1 note=56 velocity=0 time=32
note_on channel=1 note=44 velocity=0 time=0
note_on channel=1 note=55 velocity=83 time=16
note_on channel=1 note=43 velocity=83 time=0
note_on channel=1 note=43 velocity=0 time=32
note_on channel=1 note=55 velocity=0 time=0
note_on channel=1 note=55 velocity=83 time=16
note_on channel=1 note=64 velocity=83 time=0
note_on channel=1 note=60 velocity=83 time=0
note_on channel=1 note=60 velocity=0 time=32
note_on channel=1 note=64 velocity=0 time=0
note_on channel=1 note=55 velocity=0 time=0
note_on channel=1 note=64 velocity=83 time=16
note_on channel=1 note=52 velocity=83 time=0
note_on channel=1 note=52 velocity=0 time=32
note_on channel=1 note=64 velocity=0 time=0
note_on channel=1 note=51 velocity=83 time=16
note_on channel=1 note=63 velocity=83 time=0
note_on channel=1 note=63 velocity=0 time=32
note_on channel=1 note=51 velocity=0 time=0
note_on channel=1 note=62 velocity=83 time=16
note_on channel=1 note=50 velocity=83 time=0
note_on channel=1 note=50 velocity=0 time=32
note_on channel=1 note=62 velocity=0 time=0
note_on channel=1 note=55 velocity=83 time=16
note_on channel=1 note=59 velocity=83 time=0
note_on channel=1 note=65 velocity=83 time=0
note_on channel=1 note=65 velocity=0 time=32
note_on channel=1 note=59 velocity=0 time=0
note_on channel=1 note=55 velocity=0 time=0
note_on channel=1 note=55 velocity=83 time=16
note_on channel=1 note=43 velocity=83 time=0
note_on channel=1 note=43 velocity=0 time=32
note_on channel=1 note=55 velocity=0 time=0
note_on channel=1 note=55 velocity=83 time=16
note_on channel=1 note=59 velocity=83 time=0
note_on channel=1 note=65 velocity=83 time=0
note_on channel=1 note=65 velocity=0 time=32
note_on channel=1 note=59 velocity=0 time=0
note_on channel=1 note=55 velocity=0 time=0
note_on channel=1 note=64 velocity=83 time=16
note_on channel=1 note=52 velocity=83 time=0
note_on channel=1 note=52 velocity=0 time=32
note_on channel=1 note=64 velocity=0 time=0
note_on channel=1 note=62 velocity=83 time=16
note_on channel=1 note=50 velocity=83 time=0
note_on channel=1 note=50 velocity=0 time=32
note_on channel=1 note=62 velocity=0 time=0
note_on channel=1 note=60 velocity=83 time=16
note_on channel=1 note=48 velocity=83 time=0
note_on channel=1 note=48 velocity=0 time=32
note_on channel=1 note=60 velocity=0 time=0
note_on channel=1 note=59 velocity=83 time=16
note_on channel=1 note=47 velocity=83 time=0
note_on channel=1 note=47 velocity=0 time=32
note_on channel=1 note=59 velocity=0 time=0
note_on channel=1 note=57 velocity=83 time=16
note_on channel=1 note=45 velocity=83 time=0
note_on channel=1 note=45 velocity=0 time=64
note_on channel=1 note=57 velocity=0 time=0
note_on channel=1 note=44 velocity=83 time=32
note_on channel=1 note=56 velocity=83 time=0
note_on channel=1 note=56 velocity=0 time=64
note_on channel=1 note=44 velocity=0 time=0
note_on channel=1 note=55 velocity=83 time=32
note_on channel=1 note=43 velocity=83 time=0
note_on channel=1 note=43 velocity=0 time=64
note_on channel=1 note=55 velocity=0 time=0
note_on channel=1 note=54 velocity=83 time=32
note_on channel=1 note=42 velocity=83 time=0
note_on channel=1 note=42 velocity=0 time=64
note_on channel=1 note=54 velocity=0 time=0
note_on channel=1 note=55 velocity=83 time=32
note_on channel=1 note=43 velocity=83 time=0
note_on channel=1 note=43 velocity=0 time=32
note_on channel=1 note=55 velocity=0 time=0
note_on channel=1 note=55 velocity=83 time=16
note_on channel=1 note=55 velocity=0 time=32
note_on channel=1 note=60 velocity=83 time=16
note_on channel=1 note=48 velocity=83 time=0
note_on channel=1 note=48 velocity=0 time=32
note_on channel=1 note=60 velocity=0 time=0
note_on channel=1 note=55 velocity=83 time=16
note_on channel=1 note=60 velocity=83 time=0
note_on channel=1 note=64 velocity=83 time=0
note_on channel=1 note=64 velocity=0 time=32
note_on channel=1 note=60 velocity=0 time=0
note_on channel=1 note=55 velocity=0 time=0
note_on channel=1 note=57 velocity=83 time=16
note_on channel=1 note=45 velocity=83 time=0
note_on channel=1 note=45 velocity=0 time=32
note_on channel=1 note=57 velocity=0 time=0
note_on channel=1 note=55 velocity=83 time=16
note_on channel=1 note=43 velocity=83 time=0
note_on channel=1 note=43 velocity=0 time=32
note_on channel=1 note=55 velocity=0 time=0
note_on channel=1 note=48 velocity=83 time=16
note_on channel=1 note=60 velocity=83 time=0
note_on channel=1 note=60 velocity=0 time=32
note_on channel=1 note=48 velocity=0 time=0
note_on channel=1 note=48 velocity=83 time=16
note_on channel=1 note=36 velocity=83 time=0
note_on channel=1 note=36 velocity=0 time=32
note_on channel=1 note=48 velocity=0 time=0
note_on channel=1 note=53 velocity=83 time=16
note_on channel=1 note=41 velocity=83 time=0
note_on channel=1 note=41 velocity=0 time=32
note_on channel=1 note=53 velocity=0 time=0
note_on channel=1 note=57 velocity=83 time=16
note_on channel=1 note=60 velocity=83 time=0
note_on channel=1 note=65 velocity=83 time=0
note_on channel=1 note=65 velocity=0 time=32
note_on channel=1 note=60 velocity=0 time=0
note_on channel=1 note=57 velocity=0 time=0
note_on channel=1 note=57 velocity=83 time=16
note_on channel=1 note=45 velocity=83 time=0
note_on channel=1 note=45 velocity=0 time=32
note_on channel=1 note=57 velocity=0 time=0
note_on channel=1 note=44 velocity=83 time=16
note_on channel=1 note=56 velocity=83 time=0
note_on channel=1 note=56 velocity=0 time=32
note_on channel=1 note=44 velocity=0 time=0
note_on channel=1 note=55 velocity=83 time=16
note_on channel=1 note=43 velocity=83 time=0
note_on channel=1 note=43 velocity=0 time=32
note_on channel=1 note=55 velocity=0 time=0
note_on channel=1 note=55 velocity=83 time=16
note_on channel=1 note=64 velocity=83 time=0
note_on channel=1 note=60 velocity=83 time=0
note_on channel=1 note=60 velocity=0 time=32
note_on channel=1 note=64 velocity=0 time=0
note_on channel=1 note=55 velocity=0 time=0
note_on channel=1 note=64 velocity=83 time=16
note_on channel=1 note=52 velocity=83 time=0
note_on channel=1 note=52 velocity=0 time=32
note_on channel=1 note=64 velocity=0 time=0
note_on channel=1 note=51 velocity=83 time=16
note_on channel=1 note=63 velocity=83 time=0
note_on channel=1 note=63 velocity=0 time=32
note_on channel=1 note=51 velocity=0 time=0
note_on channel=1 note=62 velocity=83 time=16
note_on channel=1 note=50 velocity=83 time=0
note_on channel=1 note=50 velocity=0 time=32
note_on channel=1 note=62 velocity=0 time=0
note_on channel=1 note=55 velocity=83 time=16
note_on channel=1 note=59 velocity=83 time=0
note_on channel=1 note=65 velocity=83 time=0
note_on channel=1 note=65 velocity=0 time=32
note_on channel=1 note=59 velocity=0 time=0
note_on channel=1 note=55 velocity=0 time=0
note_on channel=1 note=55 velocity=83 time=16
note_on channel=1 note=43 velocity=83 time=0
note_on channel=1 note=43 velocity=0 time=32
note_on channel=1 note=55 velocity=0 time=0
note_on channel=1 note=55 velocity=83 time=16
note_on channel=1 note=59 velocity=83 time=0
note_on channel=1 note=65 velocity=83 time=0
note_on channel=1 note=65 velocity=0 time=32
note_on channel=1 note=59 velocity=0 time=0
note_on channel=1 note=55 velocity=0 time=0
note_on channel=1 note=60 velocity=83 time=16
note_on channel=1 note=48 velocity=83 time=0
note_on channel=1 note=48 velocity=0 time=32
note_on channel=1 note=60 velocity=0 time=0
note_on channel=1 note=48 velocity=83 time=16
note_on channel=1 note=36 velocity=83 time=0
note_on channel=1 note=36 velocity=0 time=32
note_on channel=1 note=48 velocity=0 time=0
note_on channel=1 note=38 velocity=83 time=16
note_on channel=1 note=50 velocity=83 time=0
note_on channel=1 note=50 velocity=0 time=32
note_on channel=1 note=38 velocity=0 time=0
note_on channel=1 note=52 velocity=83 time=16
note_on channel=1 note=40 velocity=83 time=0
note_on channel=1 note=40 velocity=0 time=32
note_on channel=1 note=52 velocity=0 time=0
note_on channel=1 note=53 velocity=83 time=16
note_on channel=1 note=41 velocity=83 time=0
note_on channel=1 note=41 velocity=0 time=32
note_on channel=1 note=53 velocity=0 time=0
note_on channel=1 note=57 velocity=83 time=16
note_on channel=1 note=60 velocity=83 time=0
note_on channel=1 note=65 velocity=83 time=0
note_on channel=1 note=65 velocity=0 time=32
note_on channel=1 note=60 velocity=0 time=0
note_on channel=1 note=57 velocity=0 time=0
note_on channel=1 note=57 velocity=83 time=16
note_on channel=1 note=45 velocity=83 time=0
note_on channel=1 note=45 velocity=0 time=32
note_on channel=1 note=57 velocity=0 time=0
note_on channel=1 note=44 velocity=83 time=16
note_on channel=1 note=56 velocity=83 time=0
note_on channel=1 note=56 velocity=0 time=32
note_on channel=1 note=44 velocity=0 time=0
note_on channel=1 note=55 velocity=83 time=16
note_on channel=1 note=43 velocity=83 time=0
note_on channel=1 note=43 velocity=0 time=32
note_on channel=1 note=55 velocity=0 time=0
note_on channel=1 note=55 velocity=83 time=16
note_on channel=1 note=60 velocity=83 time=0
note_on channel=1 note=64 velocity=83 time=0
note_on channel=1 note=64 velocity=0 time=32
note_on channel=1 note=60 velocity=0 time=0
note_on channel=1 note=55 velocity=0 time=0
note_on channel=1 note=49 velocity=83 time=16
note_on channel=1 note=37 velocity=83 time=0
note_on channel=1 note=37 velocity=0 time=64
note_on channel=1 note=49 velocity=0 time=0
note_on channel=1 note=50 velocity=83 time=32
note_on channel=1 note=38 velocity=83 time=0
note_on channel=1 note=38 velocity=0 time=32
note_on channel=1 note=50 velocity=0 time=0
note_on channel=1 note=55 velocity=83 time=16
note_on channel=1 note=59 velocity=83 time=0
note_on channel=1 note=62 velocity=83 time=0
note_on channel=1 note=62 velocity=0 time=32
note_on channel=1 note=59 velocity=0 time=0
note_on channel=1 note=55 velocity=0 time=0
note_on channel=1 note=55 velocity=83 time=16
note_on channel=1 note=43 velocity=83 time=0
note_on channel=1 note=43 velocity=0 time=32
note_on channel=1 note=55 velocity=0 time=0
note_on channel=1 note=55 velocity=83 time=16
note_on channel=1 note=59 velocity=83 time=0
note_on channel=1 note=62 velocity=83 time=0
note_on channel=1 note=62 velocity=0 time=32
note_on channel=1 note=59 velocity=0 time=0
note_on channel=1 note=55 velocity=0 time=0
note_on channel=1 note=50 velocity=83 time=16
note_on channel=1 note=38 velocity=83 time=0
note_on channel=1 note=38 velocity=0 time=32
note_on channel=1 note=50 velocity=0 time=0
note_on channel=1 note=54 velocity=83 time=16
note_on channel=1 note=60 velocity=83 time=0
note_on channel=1 note=62 velocity=83 time=0
note_on channel=1 note=62 velocity=0 time=32
note_on channel=1 note=60 velocity=0 time=0
note_on channel=1 note=54 velocity=0 time=0
note_on channel=1 note=55 velocity=83 time=16
note_on channel=1 note=43 velocity=83 time=0
note_on channel=1 note=43 velocity=0 time=32
note_on channel=1 note=55 velocity=0 time=0
note_on channel=1 note=48 velocity=83 time=16
note_on channel=1 note=60 velocity=83 time=0
note_on channel=1 note=60 velocity=0 time=32
note_on channel=1 note=48 velocity=0 time=0
note_on channel=1 note=53 velocity=83 time=16
note_on channel=1 note=41 velocity=83 time=0
note_on channel=1 note=41 velocity=0 time=32
note_on channel=1 note=53 velocity=0 time=0
note_on channel=1 note=57 velocity=83 time=16
note_on channel=1 note=60 velocity=83 time=0
note_on channel=1 note=65 velocity=83 time=0
note_on channel=1 note=65 velocity=0 time=32
note_on channel=1 note=60 velocity=0 time=0
note_on channel=1 note=57 velocity=0 time=0
note_on channel=1 note=57 velocity=83 time=16
note_on channel=1 note=45 velocity=83 time=0
note_on channel=1 note=45 velocity=0 time=32
note_on channel=1 note=57 velocity=0 time=0
note_on channel=1 note=44 velocity=83 time=16
note_on channel=1 note=56 velocity=83 time=0
note_on channel=1 note=56 velocity=0 time=32
note_on channel=1 note=44 velocity=0 time=0
note_on channel=1 note=55 velocity=83 time=16
note_on channel=1 note=43 velocity=83 time=0
note_on channel=1 note=43 velocity=0 time=32
note_on channel=1 note=55 velocity=0 time=0
note_on channel=1 note=55 velocity=83 time=16
note_on channel=1 note=64 velocity=83 time=0
note_on channel=1 note=60 velocity=83 time=0
note_on channel=1 note=60 velocity=0 time=32
note_on channel=1 note=64 velocity=0 time=0
note_on channel=1 note=55 velocity=0 time=0
note_on channel=1 note=64 velocity=83 time=16
note_on channel=1 note=52 velocity=83 time=0
note_on channel=1 note=52 velocity=0 time=32
note_on channel=1 note=64 velocity=0 time=0
note_on channel=1 note=51 velocity=83 time=16
note_on channel=1 note=63 velocity=83 time=0
note_on channel=1 note=63 velocity=0 time=32
note_on channel=1 note=51 velocity=0 time=0
note_on channel=1 note=62 velocity=83 time=16
note_on channel=1 note=50 velocity=83 time=0
note_on channel=1 note=50 velocity=0 time=32
note_on channel=1 note=62 velocity=0 time=0
note_on channel=1 note=55 velocity=83 time=16
note_on channel=1 note=59 velocity=83 time=0
note_on channel=1 note=65 velocity=83 time=0
note_on channel=1 note=65 velocity=0 time=32
note_on channel=1 note=59 velocity=0 time=0
note_on channel=1 note=55 velocity=0 time=0
note_on channel=1 note=55 velocity=83 time=16
note_on channel=1 note=43 velocity=83 time=0
note_on channel=1 note=43 velocity=0 time=32
note_on channel=1 note=55 velocity=0 time=0
note_on channel=1 note=55 velocity=83 time=16
note_on channel=1 note=59 velocity=83 time=0
note_on channel=1 note=65 velocity=83 time=0
note_on channel=1 note=65 velocity=0 time=32
note_on channel=1 note=59 velocity=0 time=0
note_on channel=1 note=55 velocity=0 time=0
note_on channel=1 note=64 velocity=83 time=16
note_on channel=1 note=52 velocity=83 time=0
note_on channel=1 note=52 velocity=0 time=32
note_on channel=1 note=64 velocity=0 time=0
note_on channel=1 note=62 velocity=83 time=16
note_on channel=1 note=50 velocity=83 time=0
note_on channel=1 note=50 velocity=0 time=32
note_on channel=1 note=62 velocity=0 time=0
note_on channel=1 note=60 velocity=83 time=16
note_on channel=1 note=48 velocity=83 time=0
note_on channel=1 note=48 velocity=0 time=32
note_on channel=1 note=60 velocity=0 time=0
note_on channel=1 note=59 velocity=83 time=16
note_on channel=1 note=47 velocity=83 time=0
note_on channel=1 note=47 velocity=0 time=32
note_on channel=1 note=59 velocity=0 time=0
note_on channel=1 note=57 velocity=83 time=16
note_on channel=1 note=45 velocity=83 time=0
note_on channel=1 note=45 velocity=0 time=64
note_on channel=1 note=57 velocity=0 time=0
note_on channel=1 note=44 velocity=83 time=32
note_on channel=1 note=56 velocity=83 time=0
note_on channel=1 note=56 velocity=0 time=64
note_on channel=1 note=44 velocity=0 time=0
note_on channel=1 note=55 velocity=83 time=32
note_on channel=1 note=43 velocity=83 time=0
note_on channel=1 note=43 velocity=0 time=64
note_on channel=1 note=55 velocity=0 time=0
note_on channel=1 note=54 velocity=83 time=32
note_on channel=1 note=42 velocity=83 time=0
note_on channel=1 note=42 velocity=0 time=64
note_on channel=1 note=54 velocity=0 time=0
note_on channel=1 note=55 velocity=83 time=32
note_on channel=1 note=43 velocity=83 time=0
note_on channel=1 note=43 velocity=0 time=32
note_on channel=1 note=55 velocity=0 time=0
note_on channel=1 note=55 velocity=83 time=16
note_on channel=1 note=55 velocity=0 time=32
note_on channel=1 note=60 velocity=83 time=16
note_on channel=1 note=48 velocity=83 time=0
note_on channel=1 note=48 velocity=0 time=32
note_on channel=1 note=60 velocity=0 time=0
note_on channel=1 note=55 velocity=83 time=16
note_on channel=1 note=60 velocity=83 time=0
note_on channel=1 note=64 velocity=83 time=0
note_on channel=1 note=64 velocity=0 time=32
note_on channel=1 note=60 velocity=0 time=0
note_on channel=1 note=55 velocity=0 time=0
note_on channel=1 note=57 velocity=83 time=16
note_on channel=1 note=45 velocity=83 time=0
note_on channel=1 note=45 velocity=0 time=32
note_on channel=1 note=57 velocity=0 time=0
note_on channel=1 note=55 velocity=83 time=16
note_on channel=1 note=43 velocity=83 time=0
note_on channel=1 note=43 velocity=0 time=32
note_on channel=1 note=55 velocity=0 time=0
note_on channel=1 note=48 velocity=83 time=16
note_on channel=1 note=60 velocity=83 time=0
note_on channel=1 note=60 velocity=0 time=32
note_on channel=1 note=48 velocity=0 time=0
note_on channel=1 note=62 velocity=83 time=64
note_on channel=1 note=50 velocity=83 time=0
note_on channel=1 note=50 velocity=0 time=32
note_on channel=1 note=62 velocity=0 time=0
note_on channel=1 note=55 velocity=83 time=16
note_on channel=1 note=59 velocity=83 time=0
note_on channel=1 note=65 velocity=83 time=0
note_on channel=1 note=65 velocity=0 time=32
note_on channel=1 note=59 velocity=0 time=0
note_on channel=1 note=55 velocity=0 time=0
note_on channel=1 note=61 velocity=83 time=16
note_on channel=1 note=49 velocity=83 time=0
note_on channel=1 note=49 velocity=0 time=32
note_on channel=1 note=61 velocity=0 time=0
note_on channel=1 note=55 velocity=83 time=16
note_on channel=1 note=58 velocity=83 time=0
note_on channel=1 note=64 velocity=83 time=0
note_on channel=1 note=64 velocity=0 time=32
note_on channel=1 note=58 velocity=0 time=0
note_on channel=1 note=55 velocity=0 time=0
note_on channel=1 note=62 velocity=83 time=16
note_on channel=1 note=50 velocity=83 time=0
note_on channel=1 note=50 velocity=0 time=32
note_on channel=1 note=62 velocity=0 time=0
note_on channel=1 note=55 velocity=83 time=16
note_on channel=1 note=59 velocity=83 time=0
note_on channel=1 note=65 velocity=83 time=0
note_on channel=1 note=65 velocity=0 time=32
note_on channel=1 note=59 velocity=0 time=0
note_on channel=1 note=55 velocity=0 time=0
note_on channel=1 note=55 velocity=83 time=16
note_on channel=1 note=43 velocity=83 time=0
note_on channel=1 note=43 velocity=0 time=32
note_on channel=1 note=55 velocity=0 time=0
note_on channel=1 note=55 velocity=83 time=16
note_on channel=1 note=59 velocity=83 time=0
note_on channel=1 note=65 velocity=83 time=0
note_on channel=1 note=65 velocity=0 time=32
note_on channel=1 note=59 velocity=0 time=0
note_on channel=1 note=55 velocity=0 time=0
note_on channel=1 note=60 velocity=83 time=16
note_on channel=1 note=48 velocity=83 time=0
note_on channel=1 note=48 velocity=0 time=32
note_on channel=1 note=60 velocity=0 time=0
note_on channel=1 note=55 velocity=83 time=16
note_on channel=1 note=60 velocity=83 time=0
note_on channel=1 note=64 velocity=83 time=0
note_on channel=1 note=64 velocity=0 time=32
note_on channel=1 note=60 velocity=0 time=0
note_on channel=1 note=55 velocity=0 time=0
note_on channel=1 note=52 velocity=83 time=16
note_on channel=1 note=40 velocity=83 time=0
note_on channel=1 note=40 velocity=0 time=32
note_on channel=1 note=52 velocity=0 time=0
note_on channel=1 note=39 velocity=83 time=16
note_on channel=1 note=51 velocity=83 time=0
note_on channel=1 note=51 velocity=0 time=32
note_on channel=1 note=39 velocity=0 time=0
note_on channel=1 note=52 velocity=83 time=16
note_on channel=1 note=40 velocity=83 time=0
note_on channel=1 note=40 velocity=0 time=32
note_on channel=1 note=52 velocity=0 time=0
note_on channel=1 note=55 velocity=83 time=16
note_on channel=1 note=60 velocity=83 time=0
note_on channel=1 note=64 velocity=83 time=0
note_on channel=1 note=64 velocity=0 time=32
note_on channel=1 note=60 velocity=0 time=0
note_on channel=1 note=55 velocity=0 time=0
note_on channel=1 note=64 velocity=83 time=16
note_on channel=1 note=52 velocity=83 time=0
note_on channel=1 note=52 velocity=0 time=32
note_on channel=1 note=64 velocity=0 time=0
note_on channel=1 note=51 velocity=83 time=16
note_on channel=1 note=63 velocity=83 time=0
note_on channel=1 note=63 velocity=0 time=32
note_on channel=1 note=51 velocity=0 time=0
note_on channel=1 note=62 velocity=83 time=16
note_on channel=1 note=50 velocity=83 time=0
note_on channel=1 note=50 velocity=0 time=64
note_on channel=1 note=62 velocity=0 time=0
note_on channel=1 note=60 velocity=83 time=32
note_on channel=1 note=48 velocity=83 time=0
note_on channel=1 note=48 velocity=0 time=64
note_on channel=1 note=60 velocity=0 time=0
note_on channel=1 note=59 velocity=83 time=32
note_on channel=1 note=47 velocity=83 time=0
note_on channel=1 note=47 velocity=0 time=32
note_on channel=1 note=59 velocity=0 time=0
note_on channel=1 note=41 velocity=83 time=16
note_on channel=1 note=53 velocity=83 time=0
note_on channel=1 note=53 velocity=0 time=32
note_on channel=1 note=41 velocity=0 time=0
note_on channel=1 note=52 velocity=83 time=16
note_on channel=1 note=40 velocity=83 time=0
note_on channel=1 note=40 velocity=0 time=32
note_on channel=1 note=52 velocity=0 time=0
note_on channel=1 note=38 velocity=83 time=16
note_on channel=1 note=50 velocity=83 time=0
note_on channel=1 note=50 velocity=0 time=32
note_on channel=1 note=38 velocity=0 time=0
note_on channel=1 note=48 velocity=83 time=16
note_on channel=1 note=36 velocity=83 time=0
note_on channel=1 note=36 velocity=0 time=64
note_on channel=1 note=48 velocity=0 time=0
note_on channel=1 note=37 velocity=83 time=32
note_on channel=1 note=49 velocity=83 time=0
note_on channel=1 note=49 velocity=0 time=64
note_on channel=1 note=37 velocity=0 time=0
note_on channel=1 note=50 velocity=83 time=32
note_on channel=1 note=38 velocity=83 time=0
note_on channel=1 note=38 velocity=0 time=64
note_on channel=1 note=50 velocity=0 time=0
note_on channel=1 note=43 velocity=83 time=32
note_on channel=1 note=43 velocity=0 time=64
note_on channel=1 note=62 velocity=83 time=32
note_on channel=1 note=50 velocity=83 time=0
note_on channel=1 note=50 velocity=0 time=32
note_on channel=1 note=62 velocity=0 time=0
note_on channel=1 note=55 velocity=83 time=16
note_on channel=1 note=59 velocity=83 time=0
note_on channel=1 note=65 velocity=83 time=0
note_on channel=1 note=65 velocity=0 time=32
note_on channel=1 note=59 velocity=0 time=0
note_on channel=1 note=55 velocity=0 time=0
note_on channel=1 note=61 velocity=83 time=16
note_on channel=1 note=49 velocity=83 time=0
note_on channel=1 note=49 velocity=0 time=32
note_on channel=1 note=61 velocity=0 time=0
note_on channel=1 note=55 velocity=83 time=16
note_on channel=1 note=58 velocity=83 time=0
note_on channel=1 note=64 velocity=83 time=0
note_on channel=1 note=64 velocity=0 time=32
note_on channel=1 note=58 velocity=0 time=0
note_on channel=1 note=55 velocity=0 time=0
note_on channel=1 note=62 velocity=83 time=16
note_on channel=1 note=50 velocity=83 time=0
note_on channel=1 note=50 velocity=0 time=32
note_on channel=1 note=62 velocity=0 time=0
note_on channel=1 note=55 velocity=83 time=16
note_on channel=1 note=59 velocity=83 time=0
note_on channel=1 note=65 velocity=83 time=0
note_on channel=1 note=65 velocity=0 time=32
note_on channel=1 note=59 velocity=0 time=0
note_on channel=1 note=55 velocity=0 time=0
note_on channel=1 note=55 velocity=83 time=16
note_on channel=1 note=43 velocity=83 time=0
note_on channel=1 note=43 velocity=0 time=32
note_on channel=1 note=55 velocity=0 time=0
note_on channel=1 note=55 velocity=83 time=16
note_on channel=1 note=59 velocity=83 time=0
note_on channel=1 note=65 velocity=83 time=0
note_on channel=1 note=65 velocity=0 time=32
note_on channel=1 note=59 velocity=0 time=0
note_on channel=1 note=55 velocity=0 time=0
note_on channel=1 note=60 velocity=83 time=16
note_on channel=1 note=48 velocity=83 time=0
note_on channel=1 note=48 velocity=0 time=32
note_on channel=1 note=60 velocity=0 time=0
note_on channel=1 note=55 velocity=83 time=16
note_on channel=1 note=60 velocity=83 time=0
note_on channel=1 note=64 velocity=83 time=0
note_on channel=1 note=64 velocity=0 time=32
note_on channel=1 note=60 velocity=0 time=0
note_on channel=1 note=55 velocity=0 time=0
note_on channel=1 note=58 velocity=83 time=16
note_on channel=1 note=46 velocity=83 time=0
note_on channel=1 note=46 velocity=0 time=32
note_on channel=1 note=58 velocity=0 time=0
note_on channel=1 note=55 velocity=83 time=16
note_on channel=1 note=60 velocity=83 time=0
note_on channel=1 note=64 velocity=83 time=0
note_on channel=1 note=64 velocity=0 time=32
note_on channel=1 note=60 velocity=0 time=0
note_on channel=1 note=55 velocity=0 time=0
note_on channel=1 note=57 velocity=83 time=16
note_on channel=1 note=45 velocity=83 time=0
note_on channel=1 note=45 velocity=0 time=32
note_on channel=1 note=57 velocity=0 time=0
note_on channel=1 note=57 velocity=83 time=16
note_on channel=1 note=60 velocity=83 time=0
note_on channel=1 note=65 velocity=83 time=0
note_on channel=1 note=65 velocity=0 time=32
note_on channel=1 note=60 velocity=0 time=0
note_on channel=1 note=57 velocity=0 time=0
note_on channel=1 note=65 velocity=83 time=16
note_on channel=1 note=60 velocity=83 time=0
note_on channel=1 note=57 velocity=83 time=0
note_on channel=1 note=57 velocity=0 time=32
note_on channel=1 note=60 velocity=0 time=0
note_on channel=1 note=65 velocity=0 time=0
note_on channel=1 note=53 velocity=83 time=64
note_on channel=1 note=41 velocity=83 time=0
note_on channel=1 note=41 velocity=0 time=32
note_on channel=1 note=53 velocity=0 time=0
note_on channel=1 note=57 velocity=83 time=16
note_on channel=1 note=60 velocity=83 time=0
note_on channel=1 note=65 velocity=83 time=0
note_on channel=1 note=65 velocity=0 time=32
note_on channel=1 note=60 velocity=0 time=0
note_on channel=1 note=57 velocity=0 time=0
note_on channel=1 note=56 velocity=83 time=16
note_on channel=1 note=44 velocity=83 time=0
note_on channel=1 note=44 velocity=0 time=32
note_on channel=1 note=56 velocity=0 time=0
note_on channel=1 note=57 velocity=83 time=16
note_on channel=1 note=60 velocity=83 time=0
note_on channel=1 note=65 velocity=83 time=0
note_on channel=1 note=65 velocity=0 time=32
note_on channel=1 note=60 velocity=0 time=0
note_on channel=1 note=57 velocity=0 time=0
note_on channel=1 note=55 velocity=83 time=16
note_on channel=1 note=43 velocity=83 time=0
note_on channel=1 note=43 velocity=0 time=32
note_on channel=1 note=55 velocity=0 time=0
note_on channel=1 note=55 velocity=83 time=16
note_on channel=1 note=60 velocity=83 time=0
note_on channel=1 note=64 velocity=83 time=0
note_on channel=1 note=64 velocity=0 time=32
note_on channel=1 note=60 velocity=0 time=0
note_on channel=1 note=55 velocity=0 time=0
note_on channel=1 note=57 velocity=83 time=16
note_on channel=1 note=45 velocity=83 time=0
note_on channel=1 note=45 velocity=0 time=32
note_on channel=1 note=57 velocity=0 time=0
note_on channel=1 note=55 velocity=83 time=16
note_on channel=1 note=57 velocity=83 time=0
note_on channel=1 note=61 velocity=83 time=0
note_on channel=1 note=61 velocity=0 time=32
note_on channel=1 note=57 velocity=0 time=0
note_on channel=1 note=55 velocity=0 time=0
note_on channel=1 note=50 velocity=83 time=16
note_on channel=1 note=38 velocity=83 time=0
note_on channel=1 note=38 velocity=0 time=32
note_on channel=1 note=50 velocity=0 time=0
note_on channel=1 note=54 velocity=83 time=16
note_on channel=1 note=57 velocity=83 time=0
note_on channel=1 note=60 velocity=83 time=0
note_on channel=1 note=60 velocity=0 time=32
note_on channel=1 note=57 velocity=0 time=0
note_on channel=1 note=54 velocity=0 time=0
note_on channel=1 note=55 velocity=83 time=16
note_on channel=1 note=43 velocity=83 time=0
note_on channel=1 note=43 velocity=0 time=32
note_on channel=1 note=55 velocity=0 time=0
note_on channel=1 note=53 velocity=83 time=16
note_on channel=1 note=55 velocity=83 time=0
note_on channel=1 note=59 velocity=83 time=0
note_on channel=1 note=59 velocity=0 time=32
note_on channel=1 note=55 velocity=0 time=0
note_on channel=1 note=53 velocity=0 time=0
note_on channel=1 note=60 velocity=83 time=16
note_on channel=1 note=48 velocity=83 time=0
note_on channel=1 note=48 velocity=0 time=32
note_on channel=1 note=60 velocity=0 time=0
note_on channel=1 note=62 velocity=83 time=160
note_on channel=1 note=50 velocity=83 time=0
note_on channel=1 note=50 velocity=0 time=32
note_on channel=1 note=62 velocity=0 time=0
note_on channel=1 note=55 velocity=83 time=16
note_on channel=1 note=59 velocity=83 time=0
note_on channel=1 note=65 velocity=83 time=0
note_on channel=1 note=65 velocity=0 time=32
note_on channel=1 note=59 velocity=0 time=0
note_on channel=1 note=55 velocity=0 time=0
note_on channel=1 note=61 velocity=83 time=16
note_on channel=1 note=49 velocity=83 time=0
note_on channel=1 note=49 velocity=0 time=32
note_on channel=1 note=61 velocity=0 time=0
note_on channel=1 note=55 velocity=83 time=16
note_on channel=1 note=58 velocity=83 time=0
note_on channel=1 note=64 velocity=83 time=0
note_on channel=1 note=64 velocity=0 time=32
note_on channel=1 note=58 velocity=0 time=0
note_on channel=1 note=55 velocity=0 time=0
note_on channel=1 note=62 velocity=83 time=16
note_on channel=1 note=50 velocity=83 time=0
note_on channel=1 note=50 velocity=0 time=32
note_on channel=1 note=62 velocity=0 time=0
note_on channel=1 note=55 velocity=83 time=16
note_on channel=1 note=59 velocity=83 time=0
note_on channel=1 note=65 velocity=83 time=0
note_on channel=1 note=65 velocity=0 time=32
note_on channel=1 note=59 velocity=0 time=0
note_on channel=1 note=55 velocity=0 time=0
note_on channel=1 note=55 velocity=83 time=16
note_on channel=1 note=43 velocity=83 time=0
note_on channel=1 note=43 velocity=0 time=32
note_on channel=1 note=55 velocity=0 time=0
note_on channel=1 note=55 velocity=83 time=16
note_on channel=1 note=59 velocity=83 time=0
note_on channel=1 note=65 velocity=83 time=0
note_on channel=1 note=65 velocity=0 time=32
note_on channel=1 note=59 velocity=0 time=0
note_on channel=1 note=55 velocity=0 time=0
note_on channel=1 note=60 velocity=83 time=16
note_on channel=1 note=48 velocity=83 time=0
note_on channel=1 note=48 velocity=0 time=32
note_on channel=1 note=60 velocity=0 time=0
note_on channel=1 note=55 velocity=83 time=16
note_on channel=1 note=60 velocity=83 time=0
note_on channel=1 note=64 velocity=83 time=0
note_on channel=1 note=64 velocity=0 time=32
note_on channel=1 note=60 velocity=0 time=0
note_on channel=1 note=55 velocity=0 time=0
note_on channel=1 note=52 velocity=83 time=16
note_on channel=1 note=40 velocity=83 time=0
note_on channel=1 note=40 velocity=0 time=32
note_on channel=1 note=52 velocity=0 time=0
note_on channel=1 note=39 velocity=83 time=16
note_on channel=1 note=51 velocity=83 time=0
note_on channel=1 note=51 velocity=0 time=32
note_on channel=1 note=39 velocity=0 time=0
note_on channel=1 note=52 velocity=83 time=16
note_on channel=1 note=40 velocity=83 time=0
note_on channel=1 note=40 velocity=0 time=32
note_on channel=1 note=52 velocity=0 time=0
note_on channel=1 note=55 velocity=83 time=16
note_on channel=1 note=60 velocity=83 time=0
note_on channel=1 note=64 velocity=83 time=0
note_on channel=1 note=64 velocity=0 time=32
note_on channel=1 note=60 velocity=0 time=0
note_on channel=1 note=55 velocity=0 time=0
note_on channel=1 note=64 velocity=83 time=16
note_on channel=1 note=52 velocity=83 time=0
note_on channel=1 note=52 velocity=0 time=32
note_on channel=1 note=64 velocity=0 time=0
note_on channel=1 note=51 velocity=83 time=16
note_on channel=1 note=63 velocity=83 time=0
note_on channel=1 note=63 velocity=0 time=32
note_on channel=1 note=51 velocity=0 time=0
note_on channel=1 note=62 velocity=83 time=16
note_on channel=1 note=50 velocity=83 time=0
note_on channel=1 note=50 velocity=0 time=64
note_on channel=1 note=62 velocity=0 time=0
note_on channel=1 note=60 velocity=83 time=32
note_on channel=1 note=48 velocity=83 time=0
note_on channel=1 note=48 velocity=0 time=64
note_on channel=1 note=60 velocity=0 time=0
note_on channel=1 note=59 velocity=83 time=32
note_on channel=1 note=47 velocity=83 time=0
note_on channel=1 note=47 velocity=0 time=32
note_on channel=1 note=59 velocity=0 time=0
note_on channel=1 note=41 velocity=83 time=16
note_on channel=1 note=53 velocity=83 time=0
note_on channel=1 note=53 velocity=0 time=32
note_on channel=1 note=41 velocity=0 time=0
note_on channel=1 note=52 velocity=83 time=16
note_on channel=1 note=40 velocity=83 time=0
note_on channel=1 note=40 velocity=0 time=32
note_on channel=1 note=52 velocity=0 time=0
note_on channel=1 note=38 velocity=83 time=16
note_on channel=1 note=50 velocity=83 time=0
note_on channel=1 note=50 velocity=0 time=32
note_on channel=1 note=38 velocity=0 time=0
note_on channel=1 note=48 velocity=83 time=16
note_on channel=1 note=36 velocity=83 time=0
note_on channel=1 note=36 velocity=0 time=64
note_on channel=1 note=48 velocity=0 time=0
note_on channel=1 note=37 velocity=83 time=32
note_on channel=1 note=49 velocity=83 time=0
note_on channel=1 note=49 velocity=0 time=64
note_on channel=1 note=37 velocity=0 time=0
note_on channel=1 note=50 velocity=83 time=32
note_on channel=1 note=38 velocity=83 time=0
note_on channel=1 note=38 velocity=0 time=64
note_on channel=1 note=50 velocity=0 time=0
note_on channel=1 note=43 velocity=83 time=32
note_on channel=1 note=43 velocity=0 time=64
note_on channel=1 note=62 velocity=83 time=32
note_on channel=1 note=50 velocity=83 time=0
note_on channel=1 note=50 velocity=0 time=32
note_on channel=1 note=62 velocity=0 time=0
note_on channel=1 note=55 velocity=83 time=16
note_on channel=1 note=59 velocity=83 time=0
note_on channel=1 note=65 velocity=83 time=0
note_on channel=1 note=65 velocity=0 time=32
note_on channel=1 note=59 velocity=0 time=0
note_on channel=1 note=55 velocity=0 time=0
note_on channel=1 note=61 velocity=83 time=16
note_on channel=1 note=49 velocity=83 time=0
note_on channel=1 note=49 velocity=0 time=32
note_on channel=1 note=61 velocity=0 time=0
note_on channel=1 note=55 velocity=83 time=16
note_on channel=1 note=58 velocity=83 time=0
note_on channel=1 note=64 velocity=83 time=0
note_on channel=1 note=64 velocity=0 time=32
note_on channel=1 note=58 velocity=0 time=0
note_on channel=1 note=55 velocity=0 time=0
note_on channel=1 note=62 velocity=83 time=16
note_on channel=1 note=50 velocity=83 time=0
note_on channel=1 note=50 velocity=0 time=32
note_on channel=1 note=62 velocity=0 time=0
note_on channel=1 note=55 velocity=83 time=16
note_on channel=1 note=59 velocity=83 time=0
note_on channel=1 note=65 velocity=83 time=0
note_on channel=1 note=65 velocity=0 time=32
note_on channel=1 note=59 velocity=0 time=0
note_on channel=1 note=55 velocity=0 time=0
note_on channel=1 note=55 velocity=83 time=16
note_on channel=1 note=43 velocity=83 time=0
note_on channel=1 note=43 velocity=0 time=32
note_on channel=1 note=55 velocity=0 time=0
note_on channel=1 note=55 velocity=83 time=16
note_on channel=1 note=59 velocity=83 time=0
note_on channel=1 note=65 velocity=83 time=0
note_on channel=1 note=65 velocity=0 time=32
note_on channel=1 note=59 velocity=0 time=0
note_on channel=1 note=55 velocity=0 time=0
note_on channel=1 note=60 velocity=83 time=16
note_on channel=1 note=48 velocity=83 time=0
note_on channel=1 note=48 velocity=0 time=32
note_on channel=1 note=60 velocity=0 time=0
note_on channel=1 note=55 velocity=83 time=16
note_on channel=1 note=60 velocity=83 time=0
note_on channel=1 note=64 velocity=83 time=0
note_on channel=1 note=64 velocity=0 time=32
note_on channel=1 note=60 velocity=0 time=0
note_on channel=1 note=55 velocity=0 time=0
note_on channel=1 note=58 velocity=83 time=16
note_on channel=1 note=46 velocity=83 time=0
note_on channel=1 note=46 velocity=0 time=32
note_on channel=1 note=58 velocity=0 time=0
note_on channel=1 note=55 velocity=83 time=16
note_on channel=1 note=60 velocity=83 time=0
note_on channel=1 note=64 velocity=83 time=0
note_on channel=1 note=64 velocity=0 time=32
note_on channel=1 note=60 velocity=0 time=0
note_on channel=1 note=55 velocity=0 time=0
note_on channel=1 note=57 velocity=83 time=16
note_on channel=1 note=45 velocity=83 time=0
note_on channel=1 note=45 velocity=0 time=32
note_on channel=1 note=57 velocity=0 time=0
note_on channel=1 note=57 velocity=83 time=16
note_on channel=1 note=60 velocity=83 time=0
note_on channel=1 note=65 velocity=83 time=0
note_on channel=1 note=65 velocity=0 time=32
note_on channel=1 note=60 velocity=0 time=0
note_on channel=1 note=57 velocity=0 time=0
note_on channel=1 note=65 velocity=83 time=16
note_on channel=1 note=60 velocity=83 time=0
note_on channel=1 note=57 velocity=83 time=0
note_on channel=1 note=57 velocity=0 time=32
note_on channel=1 note=60 velocity=0 time=0
note_on channel=1 note=65 velocity=0 time=0
note_on channel=1 note=53 velocity=83 time=64
note_on channel=1 note=41 velocity=83 time=0
note_on channel=1 note=41 velocity=0 time=32
note_on channel=1 note=53 velocity=0 time=0
note_on channel=1 note=57 velocity=83 time=16
note_on channel=1 note=60 velocity=83 time=0
note_on channel=1 note=65 velocity=83 time=0
note_on channel=1 note=65 velocity=0 time=32
note_on channel=1 note=60 velocity=0 time=0
note_on channel=1 note=57 velocity=0 time=0
note_on channel=1 note=56 velocity=83 time=16
note_on channel=1 note=44 velocity=83 time=0
note_on channel=1 note=44 velocity=0 time=32
note_on channel=1 note=56 velocity=0 time=0
note_on channel=1 note=57 velocity=83 time=16
note_on channel=1 note=60 velocity=83 time=0
note_on channel=1 note=65 velocity=83 time=0
note_on channel=1 note=65 velocity=0 time=32
note_on channel=1 note=60 velocity=0 time=0
note_on channel=1 note=57 velocity=0 time=0
note_on channel=1 note=55 velocity=83 time=16
note_on channel=1 note=43 velocity=83 time=0
note_on channel=1 note=43 velocity=0 time=32
note_on channel=1 note=55 velocity=0 time=0
note_on channel=1 note=55 velocity=83 time=16
note_on channel=1 note=60 velocity=83 time=0
note_on channel=1 note=64 velocity=83 time=0
note_on channel=1 note=64 velocity=0 time=32
note_on channel=1 note=60 velocity=0 time=0
note_on channel=1 note=55 velocity=0 time=0
note_on channel=1 note=57 velocity=83 time=16
note_on channel=1 note=45 velocity=83 time=0
note_on channel=1 note=45 velocity=0 time=32
note_on channel=1 note=57 velocity=0 time=0
note_on channel=1 note=55 velocity=83 time=16
note_on channel=1 note=57 velocity=83 time=0
note_on channel=1 note=61 velocity=83 time=0
note_on channel=1 note=61 velocity=0 time=32
note_on channel=1 note=57 velocity=0 time=0
note_on channel=1 note=55 velocity=0 time=0
note_on channel=1 note=50 velocity=83 time=16
note_on channel=1 note=38 velocity=83 time=0
note_on channel=1 note=38 velocity=0 time=32
note_on channel=1 note=50 velocity=0 time=0
note_on channel=1 note=54 velocity=83 time=16
note_on channel=1 note=57 velocity=83 time=0
note_on channel=1 note=60 velocity=83 time=0
note_on channel=1 note=60 velocity=0 time=32
note_on channel=1 note=57 velocity=0 time=0
note_on channel=1 note=54 velocity=0 time=0
note_on channel=1 note=55 velocity=83 time=16
note_on channel=1 note=43 velocity=83 time=0
note_on channel=1 note=43 velocity=0 time=32
note_on channel=1 note=55 velocity=0 time=0
note_on channel=1 note=53 velocity=83 time=16
note_on channel=1 note=55 velocity=83 time=0
note_on channel=1 note=59 velocity=83 time=0
note_on channel=1 note=59 velocity=0 time=32
note_on channel=1 note=55 velocity=0 time=0
note_on channel=1 note=53 velocity=0 time=0
note_on channel=1 note=60 velocity=83 time=16
note_on channel=1 note=48 velocity=83 time=0
note_on channel=1 note=48 velocity=0 time=32
note_on channel=1 note=60 velocity=0 time=0
note_on channel=1 note=55 velocity=83 time=16
note_on channel=1 note=43 velocity=83 time=0
note_on channel=1 note=43 velocity=0 time=32
note_on channel=1 note=55 velocity=0 time=0
note_on channel=1 note=48 velocity=83 time=16
note_on channel=1 note=36 velocity=83 time=0
note_on channel=1 note=36 velocity=0 time=32
note_on channel=1 note=48 velocity=0 time=0
note_on channel=1 note=48 velocity=83 time=16
note_on channel=1 note=60 velocity=83 time=0
note_on channel=1 note=60 velocity=0 time=32
note_on channel=1 note=48 velocity=0 time=0
note_on channel=1 note=53 velocity=83 time=16
note_on channel=1 note=41 velocity=83 time=0
note_on channel=1 note=41 velocity=0 time=32
note_on channel=1 note=53 velocity=0 time=0
note_on channel=1 note=57 velocity=83 time=16
note_on channel=1 note=60 velocity=83 time=0
note_on channel=1 note=65 velocity=83 time=0
note_on channel=1 note=65 velocity=0 time=32
note_on channel=1 note=60 velocity=0 time=0
note_on channel=1 note=57 velocity=0 time=0
note_on channel=1 note=57 velocity=83 time=16
note_on channel=1 note=45 velocity=83 time=0
note_on channel=1 note=45 velocity=0 time=32
note_on channel=1 note=57 velocity=0 time=0
note_on channel=1 note=44 velocity=83 time=16
note_on channel=1 note=56 velocity=83 time=0
note_on channel=1 note=56 velocity=0 time=32
note_on channel=1 note=44 velocity=0 time=0
note_on channel=1 note=55 velocity=83 time=16
note_on channel=1 note=43 velocity=83 time=0
note_on channel=1 note=43 velocity=0 time=32
note_on channel=1 note=55 velocity=0 time=0
note_on channel=1 note=55 velocity=83 time=16
note_on channel=1 note=64 velocity=83 time=0
note_on channel=1 note=60 velocity=83 time=0
note_on channel=1 note=60 velocity=0 time=32
note_on channel=1 note=64 velocity=0 time=0
note_on channel=1 note=55 velocity=0 time=0
note_on channel=1 note=64 velocity=83 time=16
note_on channel=1 note=52 velocity=83 time=0
note_on channel=1 note=52 velocity=0 time=32
note_on channel=1 note=64 velocity=0 time=0
note_on channel=1 note=51 velocity=83 time=16
note_on channel=1 note=63 velocity=83 time=0
note_on channel=1 note=63 velocity=0 time=32
note_on channel=1 note=51 velocity=0 time=0
note_on channel=1 note=62 velocity=83 time=16
note_on channel=1 note=50 velocity=83 time=0
note_on channel=1 note=50 velocity=0 time=32
note_on channel=1 note=62 velocity=0 time=0
note_on channel=1 note=55 velocity=83 time=16
note_on channel=1 note=59 velocity=83 time=0
note_on channel=1 note=65 velocity=83 time=0
note_on channel=1 note=65 velocity=0 time=32
note_on channel=1 note=59 velocity=0 time=0
note_on channel=1 note=55 velocity=0 time=0
note_on channel=1 note=55 velocity=83 time=16
note_on channel=1 note=43 velocity=83 time=0
note_on channel=1 note=43 velocity=0 time=32
note_on channel=1 note=55 velocity=0 time=0
note_on channel=1 note=55 velocity=83 time=16
note_on channel=1 note=59 velocity=83 time=0
note_on channel=1 note=65 velocity=83 time=0
note_on channel=1 note=65 velocity=0 time=32
note_on channel=1 note=59 velocity=0 time=0
note_on channel=1 note=55 velocity=0 time=0
note_on channel=1 note=60 velocity=83 time=16
note_on channel=1 note=48 velocity=83 time=0
note_on channel=1 note=48 velocity=0 time=32
note_on channel=1 note=60 velocity=0 time=0
note_on channel=1 note=48 velocity=83 time=16
note_on channel=1 note=36 velocity=83 time=0
note_on channel=1 note=36 velocity=0 time=32
note_on channel=1 note=48 velocity=0 time=0
note_on channel=1 note=38 velocity=83 time=16
note_on channel=1 note=50 velocity=83 time=0
note_on channel=1 note=50 velocity=0 time=32
note_on channel=1 note=38 velocity=0 time=0
note_on channel=1 note=52 velocity=83 time=16
note_on channel=1 note=40 velocity=83 time=0
note_on channel=1 note=40 velocity=0 time=32
note_on channel=1 note=52 velocity=0 time=0
note_on channel=1 note=53 velocity=83 time=16
note_on channel=1 note=41 velocity=83 time=0
note_on channel=1 note=41 velocity=0 time=32
note_on channel=1 note=53 velocity=0 time=0
note_on channel=1 note=57 velocity=83 time=16
note_on channel=1 note=60 velocity=83 time=0
note_on channel=1 note=65 velocity=83 time=0
note_on channel=1 note=65 velocity=0 time=32
note_on channel=1 note=60 velocity=0 time=0
note_on channel=1 note=57 velocity=0 time=0
note_on channel=1 note=57 velocity=83 time=16
note_on channel=1 note=45 velocity=83 time=0
note_on channel=1 note=45 velocity=0 time=32
note_on channel=1 note=57 velocity=0 time=0
note_on channel=1 note=44 velocity=83 time=16
note_on channel=1 note=56 velocity=83 time=0
note_on channel=1 note=56 velocity=0 time=32
note_on channel=1 note=44 velocity=0 time=0
note_on channel=1 note=55 velocity=83 time=16
note_on channel=1 note=43 velocity=83 time=0
note_on channel=1 note=43 velocity=0 time=32
note_on channel=1 note=55 velocity=0 time=0
note_on channel=1 note=55 velocity=83 time=16
note_on channel=1 note=60 velocity=83 time=0
note_on channel=1 note=64 velocity=83 time=0
note_on channel=1 note=64 velocity=0 time=32
note_on channel=1 note=60 velocity=0 time=0
note_on channel=1 note=55 velocity=0 time=0
note_on channel=1 note=49 velocity=83 time=16
note_on channel=1 note=37 velocity=83 time=0
note_on channel=1 note=37 velocity=0 time=64
note_on channel=1 note=49 velocity=0 time=0
note_on channel=1 note=50 velocity=83 time=32
note_on channel=1 note=38 velocity=83 time=0
note_on channel=1 note=38 velocity=0 time=32
note_on channel=1 note=50 velocity=0 time=0
note_on channel=1 note=55 velocity=83 time=16
note_on channel=1 note=59 velocity=83 time=0
note_on channel=1 note=62 velocity=83 time=0
note_on channel=1 note=62 velocity=0 time=32
note_on channel=1 note=59 velocity=0 time=0
note_on channel=1 note=55 velocity=0 time=0
note_on channel=1 note=55 velocity=83 time=16
note_on channel=1 note=43 velocity=83 time=0
note_on channel=1 note=43 velocity=0 time=32
note_on channel=1 note=55 velocity=0 time=0
note_on channel=1 note=55 velocity=83 time=16
note_on channel=1 note=59 velocity=83 time=0
note_on channel=1 note=62 velocity=83 time=0
note_on channel=1 note=62 velocity=0 time=32
note_on channel=1 note=59 velocity=0 time=0
note_on channel=1 note=55 velocity=0 time=0
note_on channel=1 note=50 velocity=83 time=16
note_on channel=1 note=38 velocity=83 time=0
note_on channel=1 note=38 velocity=0 time=32
note_on channel=1 note=50 velocity=0 time=0
note_on channel=1 note=54 velocity=83 time=16
note_on channel=1 note=60 velocity=83 time=0
note_on channel=1 note=62 velocity=83 time=0
note_on channel=1 note=62 velocity=0 time=32
note_on channel=1 note=60 velocity=0 time=0
note_on channel=1 note=54 velocity=0 time=0
note_on channel=1 note=55 velocity=83 time=16
note_on channel=1 note=43 velocity=83 time=0
note_on channel=1 note=43 velocity=0 time=32
note_on channel=1 note=55 velocity=0 time=0
note_on channel=1 note=48 velocity=83 time=16
note_on channel=1 note=60 velocity=83 time=0
note_on channel=1 note=60 velocity=0 time=32
note_on channel=1 note=48 velocity=0 time=0
note_on channel=1 note=53 velocity=83 time=16
note_on channel=1 note=41 velocity=83 time=0
note_on channel=1 note=41 velocity=0 time=32
note_on channel=1 note=53 velocity=0 time=0
note_on channel=1 note=57 velocity=83 time=16
note_on channel=1 note=60 velocity=83 time=0
note_on channel=1 note=65 velocity=83 time=0
note_on channel=1 note=65 velocity=0 time=32
note_on channel=1 note=60 velocity=0 time=0
note_on channel=1 note=57 velocity=0 time=0
note_on channel=1 note=57 velocity=83 time=16
note_on channel=1 note=45 velocity=83 time=0
note_on channel=1 note=45 velocity=0 time=32
note_on channel=1 note=57 velocity=0 time=0
note_on channel=1 note=44 velocity=83 time=16
note_on channel=1 note=56 velocity=83 time=0
note_on channel=1 note=56 velocity=0 time=32
note_on channel=1 note=44 velocity=0 time=0
note_on channel=1 note=55 velocity=83 time=16
note_on channel=1 note=43 velocity=83 time=0
note_on channel=1 note=43 velocity=0 time=32
note_on channel=1 note=55 velocity=0 time=0
note_on channel=1 note=55 velocity=83 time=16
note_on channel=1 note=64 velocity=83 time=0
note_on channel=1 note=60 velocity=83 time=0
note_on channel=1 note=60 velocity=0 time=32
note_on channel=1 note=64 velocity=0 time=0
note_on channel=1 note=55 velocity=0 time=0
note_on channel=1 note=64 velocity=83 time=16
note_on channel=1 note=52 velocity=83 time=0
note_on channel=1 note=52 velocity=0 time=32
note_on channel=1 note=64 velocity=0 time=0
note_on channel=1 note=51 velocity=83 time=16
note_on channel=1 note=63 velocity=83 time=0
note_on channel=1 note=63 velocity=0 time=32
note_on channel=1 note=51 velocity=0 time=0
note_on channel=1 note=62 velocity=83 time=16
note_on channel=1 note=50 velocity=83 time=0
note_on channel=1 note=50 velocity=0 time=32
note_on channel=1 note=62 velocity=0 time=0
note_on channel=1 note=55 velocity=83 time=16
note_on channel=1 note=59 velocity=83 time=0
note_on channel=1 note=65 velocity=83 time=0
note_on channel=1 note=65 velocity=0 time=32
note_on channel=1 note=59 velocity=0 time=0
note_on channel=1 note=55 velocity=0 time=0
note_on channel=1 note=55 velocity=83 time=16
note_on channel=1 note=43 velocity=83 time=0
note_on channel=1 note=43 velocity=0 time=32
note_on channel=1 note=55 velocity=0 time=0
note_on channel=1 note=55 velocity=83 time=16
note_on channel=1 note=59 velocity=83 time=0
note_on channel=1 note=65 velocity=83 time=0
note_on channel=1 note=65 velocity=0 time=32
note_on channel=1 note=59 velocity=0 time=0
note_on channel=1 note=55 velocity=0 time=0
note_on channel=1 note=64 velocity=83 time=16
note_on channel=1 note=52 velocity=83 time=0
note_on channel=1 note=52 velocity=0 time=32
note_on channel=1 note=64 velocity=0 time=0
note_on channel=1 note=62 velocity=83 time=16
note_on channel=1 note=50 velocity=83 time=0
note_on channel=1 note=50 velocity=0 time=32
note_on channel=1 note=62 velocity=0 time=0
note_on channel=1 note=60 velocity=83 time=16
note_on channel=1 note=48 velocity=83 time=0
note_on channel=1 note=48 velocity=0 time=32
note_on channel=1 note=60 velocity=0 time=0
note_on channel=1 note=59 velocity=83 time=16
note_on channel=1 note=47 velocity=83 time=0
note_on channel=1 note=47 velocity=0 time=32
note_on channel=1 note=59 velocity=0 time=0
note_on channel=1 note=57 velocity=83 time=16
note_on channel=1 note=45 velocity=83 time=0
note_on channel=1 note=45 velocity=0 time=64
note_on channel=1 note=57 velocity=0 time=0
note_on channel=1 note=44 velocity=83 time=32
note_on channel=1 note=56 velocity=83 time=0
note_on channel=1 note=56 velocity=0 time=64
note_on channel=1 note=44 velocity=0 time=0
note_on channel=1 note=55 velocity=83 time=32
note_on channel=1 note=43 velocity=83 time=0
note_on channel=1 note=43 velocity=0 time=64
note_on channel=1 note=55 velocity=0 time=0
note_on channel=1 note=54 velocity=83 time=32
note_on channel=1 note=42 velocity=83 time=0
note_on channel=1 note=42 velocity=0 time=64
note_on channel=1 note=54 velocity=0 time=0
note_on channel=1 note=55 velocity=83 time=32
note_on channel=1 note=43 velocity=83 time=0
note_on channel=1 note=43 velocity=0 time=32
note_on channel=1 note=55 velocity=0 time=0
note_on channel=1 note=55 velocity=83 time=16
note_on channel=1 note=55 velocity=0 time=32
note_on channel=1 note=60 velocity=83 time=16
note_on channel=1 note=48 velocity=83 time=0
note_on channel=1 note=48 velocity=0 time=32
note_on channel=1 note=60 velocity=0 time=0
note_on channel=1 note=55 velocity=83 time=16
note_on channel=1 note=60 velocity=83 time=0
note_on channel=1 note=64 velocity=83 time=0
note_on channel=1 note=64 velocity=0 time=32
note_on channel=1 note=60 velocity=0 time=0
note_on channel=1 note=55 velocity=0 time=0
note_on channel=1 note=57 velocity=83 time=16
note_on channel=1 note=45 velocity=83 time=0
note_on channel=1 note=45 velocity=0 time=32
note_on channel=1 note=57 velocity=0 time=0
note_on channel=1 note=55 velocity=83 time=16
note_on channel=1 note=43 velocity=83 time=0
note_on channel=1 note=43 velocity=0 time=32
note_on channel=1 note=55 velocity=0 time=0
note_on channel=1 note=60 velocity=83 time=16
note_on channel=1 note=48 velocity=83 time=0
note_on channel=1 note=48 velocity=0 time=32
note_on channel=1 note=60 velocity=0 time=0
note_on channel=1 note=53 velocity=83 time=64
note_on channel=1 note=41 velocity=83 time=0
note_on channel=1 note=41 velocity=0 time=32
note_on channel=1 note=53 velocity=0 time=0
note_on channel=1 note=57 velocity=83 time=16
note_on channel=1 note=60 velocity=83 time=0
note_on channel=1 note=65 velocity=83 time=0
note_on channel=1 note=65 velocity=0 time=32
note_on channel=1 note=60 velocity=0 time=0
note_on channel=1 note=57 velocity=0 time=0
note_on channel=1 note=54 velocity=83 time=16
note_on channel=1 note=42 velocity=83 time=0
note_on channel=1 note=42 velocity=0 time=32
note_on channel=1 note=54 velocity=0 time=0
note_on channel=1 note=57 velocity=83 time=16
note_on channel=1 note=63 velocity=83 time=0
note_on channel=1 note=60 velocity=83 time=0
note_on channel=1 note=60 velocity=0 time=32
note_on channel=1 note=63 velocity=0 time=0
note_on channel=1 note=57 velocity=0 time=0
note_on channel=1 note=55 velocity=83 time=16
note_on channel=1 note=43 velocity=83 time=0
note_on channel=1 note=43 velocity=0 time=32
note_on channel=1 note=55 velocity=0 time=0
note_on channel=1 note=58 velocity=83 time=16
note_on channel=1 note=60 velocity=83 time=0
note_on channel=1 note=64 velocity=83 time=0
note_on channel=1 note=64 velocity=0 time=32
note_on channel=1 note=60 velocity=0 time=0
note_on channel=1 note=58 velocity=0 time=0
note_on channel=1 note=48 velocity=83 time=16
note_on channel=1 note=36 velocity=83 time=0
note_on channel=1 note=36 velocity=0 time=32
note_on channel=1 note=48 velocity=0 time=0
note_on channel=1 note=58 velocity=83 time=16
note_on channel=1 note=60 velocity=83 time=0
note_on channel=1 note=64 velocity=83 time=0
note_on channel=1 note=64 velocity=0 time=32
note_on channel=1 note=60 velocity=0 time=0
note_on channel=1 note=58 velocity=0 time=0
note_on channel=1 note=53 velocity=83 time=16
note_on channel=1 note=41 velocity=83 time=0
note_on channel=1 note=41 velocity=0 time=32
note_on channel=1 note=53 velocity=0 time=0
note_on channel=1 note=63 velocity=83 time=16
note_on channel=1 note=63 velocity=0 time=32
note_on channel=1 note=62 velocity=83 time=16
note_on channel=1 note=62 velocity=0 time=32
note_on channel=1 note=61 velocity=83 time=16
note_on channel=1 note=61 velocity=0 time=32
note_on channel=1 note=60 velocity=83 time=16
note_on channel=1 note=60 velocity=0 time=32
note_on channel=1 note=59 velocity=83 time=16
note_on channel=1 note=59 velocity=0 time=32
note_on channel=1 note=58 velocity=83 time=16
note_on channel=1 note=58 velocity=0 time=32
note_on channel=1 note=48 velocity=83 time=16
note_on channel=1 note=36 velocity=83 time=0
note_on channel=1 note=36 velocity=0 time=32
note_on channel=1 note=48 velocity=0 time=0
note_on channel=1 note=53 velocity=83 time=16
note_on channel=1 note=41 velocity=83 time=0
note_on channel=1 note=41 velocity=0 time=32
note_on channel=1 note=53 velocity=0 time=0
note_on channel=1 note=57 velocity=83 time=16
note_on channel=1 note=60 velocity=83 time=0
note_on channel=1 note=65 velocity=83 time=0
note_on channel=1 note=65 velocity=0 time=32
note_on channel=1 note=60 velocity=0 time=0
note_on channel=1 note=57 velocity=0 time=0
note_on channel=1 note=54 velocity=83 time=16
note_on channel=1 note=42 velocity=83 time=0
note_on channel=1 note=42 velocity=0 time=32
note_on channel=1 note=54 velocity=0 time=0
note_on channel=1 note=57 velocity=83 time=16
note_on channel=1 note=63 velocity=83 time=0
note_on channel=1 note=60 velocity=83 time=0
note_on channel=1 note=60 velocity=0 time=32
note_on channel=1 note=63 velocity=0 time=0
note_on channel=1 note=57 velocity=0 time=0
note_on channel=1 note=55 velocity=83 time=16
note_on channel=1 note=43 velocity=83 time=0
note_on channel=1 note=43 velocity=0 time=32
note_on channel=1 note=55 velocity=0 time=0
note_on channel=1 note=55 velocity=83 time=16
note_on channel=1 note=60 velocity=83 time=0
note_on channel=1 note=64 velocity=83 time=0
note_on channel=1 note=64 velocity=0 time=32
note_on channel=1 note=60 velocity=0 time=0
note_on channel=1 note=55 velocity=0 time=0
note_on channel=1 note=64 velocity=83 time=16
note_on channel=1 note=60 velocity=83 time=0
note_on channel=1 note=55 velocity=83 time=0
note_on channel=1 note=55 velocity=0 time=64
note_on channel=1 note=60 velocity=0 time=0
note_on channel=1 note=64 velocity=0 time=0
note_on channel=1 note=52 velocity=83 time=32
note_on channel=1 note=40 velocity=83 time=0
note_on channel=1 note=40 velocity=0 time=32
note_on channel=1 note=52 velocity=0 time=0
note_on channel=1 note=55 velocity=83 time=16
note_on channel=1 note=60 velocity=83 time=0
note_on channel=1 note=64 velocity=83 time=0
note_on channel=1 note=64 velocity=0 time=32
note_on channel=1 note=60 velocity=0 time=0
note_on channel=1 note=55 velocity=0 time=0
note_on channel=1 note=55 velocity=83 time=16
note_on channel=1 note=43 velocity=83 time=0
note_on channel=1 note=43 velocity=0 time=32
note_on channel=1 note=55 velocity=0 time=0
note_on channel=1 note=55 velocity=83 time=16
note_on channel=1 note=59 velocity=83 time=0
note_on channel=1 note=59 velocity=0 time=32
note_on channel=1 note=55 velocity=0 time=0
note_on channel=1 note=60 velocity=83 time=16
note_on channel=1 note=48 velocity=83 time=0
note_on channel=1 note=48 velocity=0 time=32
note_on channel=1 note=60 velocity=0 time=0
note_on channel=1 note=58 velocity=83 time=16
note_on channel=1 note=46 velocity=83 time=0
note_on channel=1 note=46 velocity=0 time=32
note_on channel=1 note=58 velocity=0 time=0
note_on channel=1 note=57 velocity=83 time=16
note_on channel=1 note=45 velocity=83 time=0
note_on channel=1 note=45 velocity=0 time=32
note_on channel=1 note=57 velocity=0 time=0
note_on channel=1 note=55 velocity=83 time=16
note_on channel=1 note=43 velocity=83 time=0
note_on channel=1 note=43 velocity=0 time=32
note_on channel=1 note=55 velocity=0 time=0
note_on channel=1 note=53 velocity=83 time=16
note_on channel=1 note=41 velocity=83 time=0
note_on channel=1 note=41 velocity=0 time=32
note_on channel=1 note=53 velocity=0 time=0
note_on channel=1 note=57 velocity=83 time=16
note_on channel=1 note=60 velocity=83 time=0
note_on channel=1 note=65 velocity=83 time=0
note_on channel=1 note=65 velocity=0 time=32
note_on channel=1 note=60 velocity=0 time=0
note_on channel=1 note=57 velocity=0 time=0
note_on channel=1 note=54 velocity=83 time=16
note_on channel=1 note=42 velocity=83 time=0
note_on channel=1 note=42 velocity=0 time=32
note_on channel=1 note=54 velocity=0 time=0
note_on channel=1 note=57 velocity=83 time=16
note_on channel=1 note=63 velocity=83 time=0
note_on channel=1 note=60 velocity=83 time=0
note_on channel=1 note=60 velocity=0 time=32
note_on channel=1 note=63 velocity=0 time=0
note_on channel=1 note=57 velocity=0 time=0
note_on channel=1 note=55 velocity=83 time=16
note_on channel=1 note=43 velocity=83 time=0
note_on channel=1 note=43 velocity=0 time=32
note_on channel=1 note=55 velocity=0 time=0
note_on channel=1 note=58 velocity=83 time=16
note_on channel=1 note=60 velocity=83 time=0
note_on channel=1 note=64 velocity=83 time=0
note_on channel=1 note=64 velocity=0 time=32
note_on channel=1 note=60 velocity=0 time=0
note_on channel=1 note=58 velocity=0 time=0
note_on channel=1 note=48 velocity=83 time=16
note_on channel=1 note=36 velocity=83 time=0
note_on channel=1 note=36 velocity=0 time=32
note_on channel=1 note=48 velocity=0 time=0
note_on channel=1 note=58 velocity=83 time=16
note_on channel=1 note=60 velocity=83 time=0
note_on channel=1 note=64 velocity=83 time=0
note_on channel=1 note=55 velocity=83 time=0
note_on channel=1 note=55 velocity=0 time=32
note_on channel=1 note=58 velocity=0 time=0
note_on channel=1 note=60 velocity=0 time=0
note_on channel=1 note=64 velocity=0 time=0
note_on channel=1 note=53 velocity=83 time=16
note_on channel=1 note=41 velocity=83 time=0
note_on channel=1 note=41 velocity=0 time=32
note_on channel=1 note=53 velocity=0 time=0
note_on channel=1 note=53 velocity=83 time=16
note_on channel=1 note=57 velocity=83 time=0
note_on channel=1 note=60 velocity=83 time=0
note_on channel=1 note=63 velocity=83 time=0
note_on channel=1 note=63 velocity=0 time=32
note_on channel=1 note=53 velocity=0 time=0
note_on channel=1 note=57 velocity=0 time=0
note_on channel=1 note=60 velocity=0 time=0
note_on channel=1 note=57 velocity=83 time=16
note_on channel=1 note=45 velocity=83 time=0
note_on channel=1 note=45 velocity=0 time=32
note_on channel=1 note=57 velocity=0 time=0
note_on channel=1 note=57 velocity=83 time=16
note_on channel=1 note=60 velocity=83 time=0
note_on channel=1 note=63 velocity=83 time=0
note_on channel=1 note=53 velocity=83 time=0
note_on channel=1 note=53 velocity=0 time=32
note_on channel=1 note=57 velocity=0 time=0
note_on channel=1 note=60 velocity=0 time=0
note_on channel=1 note=63 velocity=0 time=0
note_on channel=1 note=58 velocity=83 time=16
note_on channel=1 note=46 velocity=83 time=0
note_on channel=1 note=46 velocity=0 time=32
note_on channel=1 note=58 velocity=0 time=0
note_on channel=1 note=53 velocity=83 time=16
note_on channel=1 note=41 velocity=83 time=0
note_on channel=1 note=41 velocity=0 time=32
note_on channel=1 note=53 velocity=0 time=0
note_on channel=1 note=52 velocity=83 time=16
note_on channel=1 note=40 velocity=83 time=0
note_on channel=1 note=40 velocity=0 time=32
note_on channel=1 note=52 velocity=0 time=0
note_on channel=1 note=51 velocity=83 time=16
note_on channel=1 note=39 velocity=83 time=0
note_on channel=1 note=39 velocity=0 time=32
note_on channel=1 note=51 velocity=0 time=0
note_on channel=1 note=50 velocity=83 time=16
note_on channel=1 note=38 velocity=83 time=0
note_on channel=1 note=38 velocity=0 time=32
note_on channel=1 note=50 velocity=0 time=0
note_on channel=1 note=54 velocity=83 time=16
note_on channel=1 note=62 velocity=83 time=0
note_on channel=1 note=60 velocity=83 time=0
note_on channel=1 note=60 velocity=0 time=32
note_on channel=1 note=62 velocity=0 time=0
note_on channel=1 note=54 velocity=0 time=0
note_on channel=1 note=50 velocity=83 time=16
note_on channel=1 note=62 velocity=83 time=0
note_on channel=1 note=62 velocity=0 time=32
note_on channel=1 note=50 velocity=0 time=0
note_on channel=1 note=60 velocity=83 time=16
note_on channel=1 note=48 velocity=83 time=0
note_on channel=1 note=48 velocity=0 time=32
note_on channel=1 note=60 velocity=0 time=0
note_on channel=1 note=58 velocity=83 time=16
note_on channel=1 note=46 velocity=83 time=0
note_on channel=1 note=46 velocity=0 time=32
note_on channel=1 note=58 velocity=0 time=0
note_on channel=1 note=55 velocity=83 time=16
note_on channel=1 note=58 velocity=83 time=0
note_on channel=1 note=62 velocity=83 time=0
note_on channel=1 note=62 velocity=0 time=32
note_on channel=1 note=58 velocity=0 time=0
note_on channel=1 note=55 velocity=0 time=0
note_on channel=1 note=38 velocity=83 time=16
note_on channel=1 note=50 velocity=83 time=0
note_on channel=1 note=50 velocity=0 time=32
note_on channel=1 note=38 velocity=0 time=0
note_on channel=1 note=49 velocity=83 time=16
note_on channel=1 note=37 velocity=83 time=0
note_on channel=1 note=37 velocity=0 time=32
note_on channel=1 note=49 velocity=0 time=0
note_on channel=1 note=48 velocity=83 time=16
note_on channel=1 note=36 velocity=83 time=0
note_on channel=1 note=36 velocity=0 time=32
note_on channel=1 note=48 velocity=0 time=0
note_on channel=1 note=57 velocity=83 time=16
note_on channel=1 note=60 velocity=83 time=0
note_on channel=1 note=65 velocity=83 time=0
note_on channel=1 note=65 velocity=0 time=32
note_on channel=1 note=60 velocity=0 time=0
note_on channel=1 note=57 velocity=0 time=0
note_on channel=1 note=48 velocity=83 time=16
note_on channel=1 note=36 velocity=83 time=0
note_on channel=1 note=36 velocity=0 time=32
note_on channel=1 note=48 velocity=0 time=0
note_on channel=1 note=58 velocity=83 time=16
note_on channel=1 note=60 velocity=83 time=0
note_on channel=1 note=64 velocity=83 time=0
note_on channel=1 note=64 velocity=0 time=32
note_on channel=1 note=60 velocity=0 time=0
note_on channel=1 note=58 velocity=0 time=0
note_on channel=1 note=53 velocity=83 time=16
note_on channel=1 note=41 velocity=83 time=0
note_on channel=1 note=41 velocity=0 time=32
note_on channel=1 note=53 velocity=0 time=0
note_on channel=1 note=58 velocity=83 time=64
note_on channel=1 note=48 velocity=83 time=0
note_on channel=1 note=48 velocity=0 time=64
note_on channel=1 note=58 velocity=0 time=0
note_on channel=1 note=53 velocity=83 time=32
note_on channel=1 note=41 velocity=83 time=0
note_on channel=1 note=41 velocity=0 time=32
note_on channel=1 note=53 velocity=0 time=0
note_on channel=1 note=57 velocity=83 time=16
note_on channel=1 note=60 velocity=83 time=0
note_on channel=1 note=65 velocity=83 time=0
note_on channel=1 note=65 velocity=0 time=32
note_on channel=1 note=60 velocity=0 time=0
note_on channel=1 note=57 velocity=0 time=0
note_on channel=1 note=54 velocity=83 time=16
note_on channel=1 note=42 velocity=83 time=0
note_on channel=1 note=42 velocity=0 time=32
note_on channel=1 note=54 velocity=0 time=0
note_on channel=1 note=57 velocity=83 time=16
note_on channel=1 note=63 velocity=83 time=0
note_on channel=1 note=60 velocity=83 time=0
note_on channel=1 note=60 velocity=0 time=32
note_on channel=1 note=63 velocity=0 time=0
note_on channel=1 note=57 velocity=0 time=0
note_on channel=1 note=55 velocity=83 time=16
note_on channel=1 note=43 velocity=83 time=0
note_on channel=1 note=43 velocity=0 time=32
note_on channel=1 note=55 velocity=0 time=0
note_on channel=1 note=58 velocity=83 time=16
note_on channel=1 note=60 velocity=83 time=0
note_on channel=1 note=64 velocity=83 time=0
note_on channel=1 note=64 velocity=0 time=32
note_on channel=1 note=60 velocity=0 time=0
note_on channel=1 note=58 velocity=0 time=0
note_on channel=1 note=48 velocity=83 time=16
note_on channel=1 note=36 velocity=83 time=0
note_on channel=1 note=36 velocity=0 time=32
note_on channel=1 note=48 velocity=0 time=0
note_on channel=1 note=58 velocity=83 time=16
note_on channel=1 note=60 velocity=83 time=0
note_on channel=1 note=64 velocity=83 time=0
note_on channel=1 note=64 velocity=0 time=32
note_on channel=1 note=60 velocity=0 time=0
note_on channel=1 note=58 velocity=0 time=0
note_on channel=1 note=53 velocity=83 time=16
note_on channel=1 note=41 velocity=83 time=0
note_on channel=1 note=41 velocity=0 time=32
note_on channel=1 note=53 velocity=0 time=0
note_on channel=1 note=63 velocity=83 time=16
note_on channel=1 note=63 velocity=0 time=32
note_on channel=1 note=62 velocity=83 time=16
note_on channel=1 note=62 velocity=0 time=32
note_on channel=1 note=61 velocity=83 time=16
note_on channel=1 note=61 velocity=0 time=32
note_on channel=1 note=60 velocity=83 time=16
note_on channel=1 note=60 velocity=0 time=32
note_on channel=1 note=59 velocity=83 time=16
note_on channel=1 note=59 velocity=0 time=32
note_on channel=1 note=58 velocity=83 time=16
note_on channel=1 note=58 velocity=0 time=32
note_on channel=1 note=48 velocity=83 time=16
note_on channel=1 note=36 velocity=83 time=0
note_on channel=1 note=36 velocity=0 time=32
note_on channel=1 note=48 velocity=0 time=0
note_on channel=1 note=53 velocity=83 time=16
note_on channel=1 note=41 velocity=83 time=0
note_on channel=1 note=41 velocity=0 time=32
note_on channel=1 note=53 velocity=0 time=0
note_on channel=1 note=57 velocity=83 time=16
note_on channel=1 note=60 velocity=83 time=0
note_on channel=1 note=65 velocity=83 time=0
note_on channel=1 note=65 velocity=0 time=32
note_on channel=1 note=60 velocity=0 time=0
note_on channel=1 note=57 velocity=0 time=0
note_on channel=1 note=54 velocity=83 time=16
note_on channel=1 note=42 velocity=83 time=0
note_on channel=1 note=42 velocity=0 time=32
note_on channel=1 note=54 velocity=0 time=0
note_on channel=1 note=57 velocity=83 time=16
note_on channel=1 note=63 velocity=83 time=0
note_on channel=1 note=60 velocity=83 time=0
note_on channel=1 note=60 velocity=0 time=32
note_on channel=1 note=63 velocity=0 time=0
note_on channel=1 note=57 velocity=0 time=0
note_on channel=1 note=55 velocity=83 time=16
note_on channel=1 note=43 velocity=83 time=0
note_on channel=1 note=43 velocity=0 time=32
note_on channel=1 note=55 velocity=0 time=0
note_on channel=1 note=55 velocity=83 time=16
note_on channel=1 note=60 velocity=83 time=0
note_on channel=1 note=64 velocity=83 time=0
note_on channel=1 note=64 velocity=0 time=32
note_on channel=1 note=60 velocity=0 time=0
note_on channel=1 note=55 velocity=0 time=0
note_on channel=1 note=64 velocity=83 time=16
note_on channel=1 note=60 velocity=83 time=0
note_on channel=1 note=55 velocity=83 time=0
note_on channel=1 note=55 velocity=0 time=64
note_on channel=1 note=60 velocity=0 time=0
note_on channel=1 note=64 velocity=0 time=0
note_on channel=1 note=52 velocity=83 time=32
note_on channel=1 note=40 velocity=83 time=0
note_on channel=1 note=40 velocity=0 time=32
note_on channel=1 note=52 velocity=0 time=0
note_on channel=1 note=55 velocity=83 time=16
note_on channel=1 note=60 velocity=83 time=0
note_on channel=1 note=64 velocity=83 time=0
note_on channel=1 note=64 velocity=0 time=32
note_on channel=1 note=60 velocity=0 time=0
note_on channel=1 note=55 velocity=0 time=0
note_on channel=1 note=55 velocity=83 time=16
note_on channel=1 note=43 velocity=83 time=0
note_on channel=1 note=43 velocity=0 time=32
note_on channel=1 note=55 velocity=0 time=0
note_on channel=1 note=55 velocity=83 time=16
note_on channel=1 note=59 velocity=83 time=0
note_on channel=1 note=59 velocity=0 time=32
note_on channel=1 note=55 velocity=0 time=0
note_on channel=1 note=60 velocity=83 time=16
note_on channel=1 note=48 velocity=83 time=0
note_on channel=1 note=48 velocity=0 time=32
note_on channel=1 note=60 velocity=0 time=0
note_on channel=1 note=58 velocity=83 time=16
note_on channel=1 note=46 velocity=83 time=0
note_on channel=1 note=46 velocity=0 time=32
note_on channel=1 note=58 velocity=0 time=0
note_on channel=1 note=57 velocity=83 time=16
note_on channel=1 note=45 velocity=83 time=0
note_on channel=1 note=45 velocity=0 time=32
note_on channel=1 note=57 velocity=0 time=0
note_on channel=1 note=55 velocity=83 time=16
note_on channel=1 note=43 velocity=83 time=0
note_on channel=1 note=43 velocity=0 time=32
note_on channel=1 note=55 velocity=0 time=0
note_on channel=1 note=53 velocity=83 time=16
note_on channel=1 note=41 velocity=83 time=0
note_on channel=1 note=41 velocity=0 time=32
note_on channel=1 note=53 velocity=0 time=0
note_on channel=1 note=57 velocity=83 time=16
note_on channel=1 note=60 velocity=83 time=0
note_on channel=1 note=65 velocity=83 time=0
note_on channel=1 note=65 velocity=0 time=32
note_on channel=1 note=60 velocity=0 time=0
note_on channel=1 note=57 velocity=0 time=0
note_on channel=1 note=54 velocity=83 time=16
note_on channel=1 note=42 velocity=83 time=0
note_on channel=1 note=42 velocity=0 time=32
note_on channel=1 note=54 velocity=0 time=0
note_on channel=1 note=57 velocity=83 time=16
note_on channel=1 note=63 velocity=83 time=0
note_on channel=1 note=60 velocity=83 time=0
note_on channel=1 note=60 velocity=0 time=32
note_on channel=1 note=63 velocity=0 time=0
note_on channel=1 note=57 velocity=0 time=0
note_on channel=1 note=55 velocity=83 time=16
note_on channel=1 note=43 velocity=83 time=0
note_on channel=1 note=43 velocity=0 time=32
note_on channel=1 note=55 velocity=0 time=0
note_on channel=1 note=58 velocity=83 time=16
note_on channel=1 note=60 velocity=83 time=0
note_on channel=1 note=64 velocity=83 time=0
note_on channel=1 note=64 velocity=0 time=32
note_on channel=1 note=60 velocity=0 time=0
note_on channel=1 note=58 velocity=0 time=0
note_on channel=1 note=48 velocity=83 time=16
note_on channel=1 note=36 velocity=83 time=0
note_on channel=1 note=36 velocity=0 time=32
note_on channel=1 note=48 velocity=0 time=0
note_on channel=1 note=58 velocity=83 time=16
note_on channel=1 note=60 velocity=83 time=0
note_on channel=1 note=64 velocity=83 time=0
note_on channel=1 note=55 velocity=83 time=0
note_on channel=1 note=55 velocity=0 time=32
note_on channel=1 note=58 velocity=0 time=0
note_on channel=1 note=60 velocity=0 time=0
note_on channel=1 note=64 velocity=0 time=0
note_on channel=1 note=53 velocity=83 time=16
note_on channel=1 note=41 velocity=83 time=0
note_on channel=1 note=41 velocity=0 time=32
note_on channel=1 note=53 velocity=0 time=0
note_on channel=1 note=53 velocity=83 time=16
note_on channel=1 note=57 velocity=83 time=0
note_on channel=1 note=60 velocity=83 time=0
note_on channel=1 note=63 velocity=83 time=0
note_on channel=1 note=63 velocity=0 time=32
note_on channel=1 note=53 velocity=0 time=0
note_on channel=1 note=57 velocity=0 time=0
note_on channel=1 note=60 velocity=0 time=0
note_on channel=1 note=57 velocity=83 time=16
note_on channel=1 note=45 velocity=83 time=0
note_on channel=1 note=45 velocity=0 time=32
note_on channel=1 note=57 velocity=0 time=0
note_on channel=1 note=57 velocity=83 time=16
note_on channel=1 note=60 velocity=83 time=0
note_on channel=1 note=63 velocity=83 time=0
note_on channel=1 note=53 velocity=83 time=0
note_on channel=1 note=53 velocity=0 time=32
note_on channel=1 note=57 velocity=0 time=0
note_on channel=1 note=60 velocity=0 time=0
note_on channel=1 note=63 velocity=0 time=0
note_on channel=1 note=58 velocity=83 time=16
note_on channel=1 note=46 velocity=83 time=0
note_on channel=1 note=46 velocity=0 time=32
note_on channel=1 note=58 velocity=0 time=0
note_on channel=1 note=53 velocity=83 time=16
note_on channel=1 note=41 velocity=83 time=0
note_on channel=1 note=41 velocity=0 time=32
note_on channel=1 note=53 velocity=0 time=0
note_on channel=1 note=52 velocity=83 time=16
note_on channel=1 note=40 velocity=83 time=0
note_on channel=1 note=40 velocity=0 time=32
note_on channel=1 note=52 velocity=0 time=0
note_on channel=1 note=51 velocity=83 time=16
note_on channel=1 note=39 velocity=83 time=0
note_on channel=1 note=39 velocity=0 time=32
note_on channel=1 note=51 velocity=0 time=0
note_on channel=1 note=50 velocity=83 time=16
note_on channel=1 note=38 velocity=83 time=0
note_on channel=1 note=38 velocity=0 time=32
note_on channel=1 note=50 velocity=0 time=0
note_on channel=1 note=54 velocity=83 time=16
note_on channel=1 note=62 velocity=83 time=0
note_on channel=1 note=60 velocity=83 time=0
note_on channel=1 note=60 velocity=0 time=32
note_on channel=1 note=62 velocity=0 time=0
note_on channel=1 note=54 velocity=0 time=0
note_on channel=1 note=50 velocity=83 time=16
note_on channel=1 note=62 velocity=83 time=0
note_on channel=1 note=62 velocity=0 time=32
note_on channel=1 note=50 velocity=0 time=0
note_on channel=1 note=60 velocity=83 time=16
note_on channel=1 note=48 velocity=83 time=0
note_on channel=1 note=48 velocity=0 time=32
note_on channel=1 note=60 velocity=0 time=0
note_on channel=1 note=58 velocity=83 time=16
note_on channel=1 note=46 velocity=83 time=0
note_on channel=1 note=46 velocity=0 time=32
note_on channel=1 note=58 velocity=0 time=0
note_on channel=1 note=55 velocity=83 time=16
note_on channel=1 note=58 velocity=83 time=0
note_on channel=1 note=62 velocity=83 time=0
note_on channel=1 note=62 velocity=0 time=32
note_on channel=1 note=58 velocity=0 time=0
note_on channel=1 note=55 velocity=0 time=0
note_on channel=1 note=38 velocity=83 time=16
note_on channel=1 note=50 velocity=83 time=0
note_on channel=1 note=50 velocity=0 time=32
note_on channel=1 note=38 velocity=0 time=0
note_on channel=1 note=49 velocity=83 time=16
note_on channel=1 note=37 velocity=83 time=0
note_on channel=1 note=37 velocity=0 time=32
note_on channel=1 note=49 velocity=0 time=0
note_on channel=1 note=48 velocity=83 time=16
note_on channel=1 note=36 velocity=83 time=0
note_on channel=1 note=36 velocity=0 time=32
note_on channel=1 note=48 velocity=0 time=0
note_on channel=1 note=57 velocity=83 time=16
note_on channel=1 note=60 velocity=83 time=0
note_on channel=1 note=65 velocity=83 time=0
note_on channel=1 note=65 velocity=0 time=32
note_on channel=1 note=60 velocity=0 time=0
note_on channel=1 note=57 velocity=0 time=0
note_on channel=1 note=48 velocity=83 time=16
note_on channel=1 note=36 velocity=83 time=0
note_on channel=1 note=36 velocity=0 time=32
note_on channel=1 note=48 velocity=0 time=0
note_on channel=1 note=58 velocity=83 time=16
note_on channel=1 note=60 velocity=83 time=0
note_on channel=1 note=64 velocity=83 time=0
note_on channel=1 note=64 velocity=0 time=32
note_on channel=1 note=60 velocity=0 time=0
note_on channel=1 note=58 velocity=0 time=0
note_on channel=1 note=53 velocity=83 time=16
note_on channel=1 note=41 velocity=83 time=0
note_on channel=1 note=41 velocity=0 time=32
note_on channel=1 note=53 velocity=0 time=0
note_on channel=1 note=48 velocity=83 time=16
note_on channel=1 note=36 velocity=83 time=0
note_on channel=1 note=36 velocity=0 time=32
note_on channel=1 note=48 velocity=0 time=0
note_on channel=1 note=50 velocity=83 time=16
note_on channel=1 note=38 velocity=83 time=0
note_on channel=1 note=38 velocity=0 time=32
note_on channel=1 note=50 velocity=0 time=0
note_on channel=1 note=52 velocity=83 time=16
note_on channel=1 note=40 velocity=83 time=0
note_on channel=1 note=40 velocity=0 time=32
note_on channel=1 note=52 velocity=0 time=0
note_on channel=1 note=53 velocity=83 time=16
note_on channel=1 note=41 velocity=83 time=0
note_on channel=1 note=41 velocity=0 time=32
note_on channel=1 note=53 velocity=0 time=0
note_on channel=1 note=57 velocity=83 time=16
note_on channel=1 note=60 velocity=83 time=0
note_on channel=1 note=65 velocity=83 time=0
note_on channel=1 note=65 velocity=0 time=32
note_on channel=1 note=60 velocity=0 time=0
note_on channel=1 note=57 velocity=0 time=0
note_on channel=1 note=48 velocity=83 time=16
note_on channel=1 note=36 velocity=83 time=0
note_on channel=1 note=36 velocity=0 time=32
note_on channel=1 note=48 velocity=0 time=0
note_on channel=1 note=57 velocity=83 time=16
note_on channel=1 note=60 velocity=83 time=0
note_on channel=1 note=65 velocity=83 time=0
note_on channel=1 note=65 velocity=0 time=32
note_on channel=1 note=60 velocity=0 time=0
note_on channel=1 note=57 velocity=0 time=0
note_on channel=1 note=53 velocity=83 time=16
note_on channel=1 note=41 velocity=83 time=0
note_on channel=1 note=41 velocity=0 time=32
note_on channel=1 note=53 velocity=0 time=0
note_on channel=1 note=41 velocity=83 time=16
note_on channel=1 note=53 velocity=83 time=0
note_on channel=1 note=53 velocity=0 time=32
note_on channel=1 note=41 velocity=0 time=0
note_on channel=1 note=55 velocity=83 time=16
note_on channel=1 note=43 velocity=83 time=0
note_on channel=1 note=43 velocity=0 time=32
note_on channel=1 note=55 velocity=0 time=0
note_on channel=1 note=57 velocity=83 time=16
note_on channel=1 note=45 velocity=83 time=0
note_on channel=1 note=45 velocity=0 time=32
note_on channel=1 note=57 velocity=0 time=0
note_on channel=1 note=58 velocity=83 time=16
note_on channel=1 note=46 velocity=83 time=0
note_on channel=1 note=46 velocity=0 time=32
note_on channel=1 note=58 velocity=0 time=0
note_on channel=1 note=58 velocity=83 time=16
note_on channel=1 note=62 velocity=83 time=0
note_on channel=1 note=65 velocity=83 time=0
note_on channel=1 note=65 velocity=0 time=32
note_on channel=1 note=62 velocity=0 time=0
note_on channel=1 note=58 velocity=0 time=0
note_on channel=1 note=55 velocity=83 time=16
note_on channel=1 note=43 velocity=83 time=0
note_on channel=1 note=43 velocity=0 time=32
note_on channel=1 note=55 velocity=0 time=0
note_on channel=1 note=56 velocity=83 time=16
note_on channel=1 note=44 velocity=83 time=0
note_on channel=1 note=44 velocity=0 time=32
note_on channel=1 note=56 velocity=0 time=0
note_on channel=1 note=57 velocity=83 time=16
note_on channel=1 note=45 velocity=83 time=0
note_on channel=1 note=45 velocity=0 time=32
note_on channel=1 note=57 velocity=0 time=0
note_on channel=1 note=48 velocity=83 time=16
note_on channel=1 note=36 velocity=83 time=0
note_on channel=1 note=36 velocity=0 time=32
note_on channel=1 note=48 velocity=0 time=0
note_on channel=1 note=38 velocity=83 time=16
note_on channel=1 note=50 velocity=83 time=0
note_on channel=1 note=50 velocity=0 time=32
note_on channel=1 note=38 velocity=0 time=0
note_on channel=1 note=52 velocity=83 time=16
note_on channel=1 note=40 velocity=83 time=0
note_on channel=1 note=40 velocity=0 time=32
note_on channel=1 note=52 velocity=0 time=0
note_on channel=1 note=53 velocity=83 time=16
note_on channel=1 note=41 velocity=83 time=0
note_on channel=1 note=41 velocity=0 time=32
note_on channel=1 note=53 velocity=0 time=0
note_on channel=1 note=57 velocity=83 time=16
note_on channel=1 note=60 velocity=83 time=0
note_on channel=1 note=65 velocity=83 time=0
note_on channel=1 note=65 velocity=0 time=32
note_on channel=1 note=60 velocity=0 time=0
note_on channel=1 note=57 velocity=0 time=0
note_on channel=1 note=48 velocity=83 time=16
note_on channel=1 note=36 velocity=83 time=0
note_on channel=1 note=36 velocity=0 time=32
note_on channel=1 note=48 velocity=0 time=0
note_on channel=1 note=57 velocity=83 time=16
note_on channel=1 note=60 velocity=83 time=0
note_on channel=1 note=65 velocity=83 time=0
note_on channel=1 note=65 velocity=0 time=32
note_on channel=1 note=60 velocity=0 time=0
note_on channel=1 note=57 velocity=0 time=0
note_on channel=1 note=53 velocity=83 time=16
note_on channel=1 note=41 velocity=83 time=0
note_on channel=1 note=41 velocity=0 time=32
note_on channel=1 note=53 velocity=0 time=0
note_on channel=1 note=57 velocity=83 time=16
note_on channel=1 note=60 velocity=83 time=0
note_on channel=1 note=65 velocity=83 time=0
note_on channel=1 note=65 velocity=0 time=32
note_on channel=1 note=60 velocity=0 time=0
note_on channel=1 note=57 velocity=0 time=0
note_on channel=1 note=57 velocity=83 time=16
note_on channel=1 note=45 velocity=83 time=0
note_on channel=1 note=45 velocity=0 time=32
note_on channel=1 note=57 velocity=0 time=0
note_on channel=1 note=53 velocity=83 time=16
note_on channel=1 note=41 velocity=83 time=0
note_on channel=1 note=41 velocity=0 time=32
note_on channel=1 note=53 velocity=0 time=0
note_on channel=1 note=52 velocity=83 time=16
note_on channel=1 note=40 velocity=83 time=0
note_on channel=1 note=40 velocity=0 time=32
note_on channel=1 note=52 velocity=0 time=0
note_on channel=1 note=57 velocity=83 time=16
note_on channel=1 note=60 velocity=83 time=0
note_on channel=1 note=64 velocity=83 time=0
note_on channel=1 note=64 velocity=0 time=32
note_on channel=1 note=60 velocity=0 time=0
note_on channel=1 note=57 velocity=0 time=0
note_on channel=1 note=52 velocity=83 time=16
note_on channel=1 note=40 velocity=83 time=0
note_on channel=1 note=40 velocity=0 time=32
note_on channel=1 note=52 velocity=0 time=0
note_on channel=1 note=56 velocity=83 time=16
note_on channel=1 note=62 velocity=83 time=0
note_on channel=1 note=64 velocity=83 time=0
note_on channel=1 note=64 velocity=0 time=32
note_on channel=1 note=62 velocity=0 time=0
note_on channel=1 note=56 velocity=0 time=0
note_on channel=1 note=57 velocity=83 time=16
note_on channel=1 note=45 velocity=83 time=0
note_on channel=1 note=45 velocity=0 time=32
note_on channel=1 note=57 velocity=0 time=0
note_on channel=1 note=54 velocity=83 time=16
note_on channel=1 note=42 velocity=83 time=0
note_on channel=1 note=42 velocity=0 time=32
note_on channel=1 note=54 velocity=0 time=0
note_on channel=1 note=55 velocity=83 time=16
note_on channel=1 note=43 velocity=83 time=0
note_on channel=1 note=43 velocity=0 time=32
note_on channel=1 note=55 velocity=0 time=0
note_on channel=1 note=48 velocity=83 time=16
note_on channel=1 note=36 velocity=83 time=0
note_on channel=1 note=36 velocity=0 time=32
note_on channel=1 note=48 velocity=0 time=0
note_on channel=1 note=53 velocity=83 time=16
note_on channel=1 note=41 velocity=83 time=0
note_on channel=1 note=41 velocity=0 time=32
note_on channel=1 note=53 velocity=0 time=0
note_on channel=1 note=57 velocity=83 time=16
note_on channel=1 note=60 velocity=83 time=0
note_on channel=1 note=65 velocity=83 time=0
note_on channel=1 note=65 velocity=0 time=32
note_on channel=1 note=60 velocity=0 time=0
note_on channel=1 note=57 velocity=0 time=0
note_on channel=1 note=48 velocity=83 time=16
note_on channel=1 note=36 velocity=83 time=0
note_on channel=1 note=36 velocity=0 time=32
note_on channel=1 note=48 velocity=0 time=0
note_on channel=1 note=57 velocity=83 time=16
note_on channel=1 note=60 velocity=83 time=0
note_on channel=1 note=65 velocity=83 time=0
note_on channel=1 note=65 velocity=0 time=32
note_on channel=1 note=60 velocity=0 time=0
note_on channel=1 note=57 velocity=0 time=0
note_on channel=1 note=53 velocity=83 time=16
note_on channel=1 note=41 velocity=83 time=0
note_on channel=1 note=41 velocity=0 time=32
note_on channel=1 note=53 velocity=0 time=0
note_on channel=1 note=41 velocity=83 time=16
note_on channel=1 note=53 velocity=83 time=0
note_on channel=1 note=53 velocity=0 time=32
note_on channel=1 note=41 velocity=0 time=0
note_on channel=1 note=55 velocity=83 time=16
note_on channel=1 note=43 velocity=83 time=0
note_on channel=1 note=43 velocity=0 time=32
note_on channel=1 note=55 velocity=0 time=0
note_on channel=1 note=57 velocity=83 time=16
note_on channel=1 note=45 velocity=83 time=0
note_on channel=1 note=45 velocity=0 time=32
note_on channel=1 note=57 velocity=0 time=0
note_on channel=1 note=58 velocity=83 time=16
note_on channel=1 note=46 velocity=83 time=0
note_on channel=1 note=46 velocity=0 time=32
note_on channel=1 note=58 velocity=0 time=0
note_on channel=1 note=58 velocity=83 time=16
note_on channel=1 note=62 velocity=83 time=0
note_on channel=1 note=65 velocity=83 time=0
note_on channel=1 note=65 velocity=0 time=32
note_on channel=1 note=62 velocity=0 time=0
note_on channel=1 note=58 velocity=0 time=0
note_on channel=1 note=55 velocity=83 time=16
note_on channel=1 note=43 velocity=83 time=0
note_on channel=1 note=43 velocity=0 time=32
note_on channel=1 note=55 velocity=0 time=0
note_on channel=1 note=56 velocity=83 time=16
note_on channel=1 note=44 velocity=83 time=0
note_on channel=1 note=44 velocity=0 time=32
note_on channel=1 note=56 velocity=0 time=0
note_on channel=1 note=57 velocity=83 time=16
note_on channel=1 note=45 velocity=83 time=0
note_on channel=1 note=45 velocity=0 time=32
note_on channel=1 note=57 velocity=0 time=0
note_on channel=1 note=57 velocity=83 time=16
note_on channel=1 note=60 velocity=83 time=0
note_on channel=1 note=65 velocity=83 time=0
note_on channel=1 note=65 velocity=0 time=32
note_on channel=1 note=60 velocity=0 time=0
note_on channel=1 note=57 velocity=0 time=0
note_on channel=1 note=57 velocity=83 time=16
note_on channel=1 note=45 velocity=83 time=0
note_on channel=1 note=45 velocity=0 time=32
note_on channel=1 note=57 velocity=0 time=0
note_on channel=1 note=43 velocity=83 time=16
note_on channel=1 note=55 velocity=83 time=0
note_on channel=1 note=55 velocity=0 time=32
note_on channel=1 note=43 velocity=0 time=0
note_on channel=1 note=54 velocity=83 time=16
note_on channel=1 note=42 velocity=83 time=0
note_on channel=1 note=42 velocity=0 time=32
note_on channel=1 note=54 velocity=0 time=0
note_on channel=1 note=54 velocity=83 time=16
note_on channel=1 note=60 velocity=83 time=0
note_on channel=1 note=62 velocity=83 time=0
note_on channel=1 note=62 velocity=0 time=32
note_on channel=1 note=60 velocity=0 time=0
note_on channel=1 note=54 velocity=0 time=0
note_on channel=1 note=62 velocity=83 time=16
note_on channel=1 note=50 velocity=83 time=0
note_on channel=1 note=50 velocity=0 time=32
note_on channel=1 note=62 velocity=0 time=0
note_on channel=1 note=48 velocity=83 time=16
note_on channel=1 note=60 velocity=83 time=0
note_on channel=1 note=60 velocity=0 time=32
note_on channel=1 note=48 velocity=0 time=0
note_on channel=1 note=58 velocity=83 time=16
note_on channel=1 note=46 velocity=83 time=0
note_on channel=1 note=46 velocity=0 time=32
note_on channel=1 note=58 velocity=0 time=0
note_on channel=1 note=55 velocity=83 time=16
note_on channel=1 note=58 velocity=83 time=0
note_on channel=1 note=62 velocity=83 time=0
note_on channel=1 note=62 velocity=0 time=32
note_on channel=1 note=58 velocity=0 time=0
note_on channel=1 note=55 velocity=0 time=0
note_on channel=1 note=50 velocity=83 time=16
note_on channel=1 note=38 velocity=83 time=0
note_on channel=1 note=38 velocity=0 time=32
note_on channel=1 note=50 velocity=0 time=0
note_on channel=1 note=37 velocity=83 time=16
note_on channel=1 note=49 velocity=83 time=0
note_on channel=1 note=49 velocity=0 time=32
note_on channel=1 note=37 velocity=0 time=0
note_on channel=1 note=48 velocity=83 time=16
note_on channel=1 note=36 velocity=83 time=0
note_on channel=1 note=36 velocity=0 time=32
note_on channel=1 note=48 velocity=0 time=0
note_on channel=1 note=57 velocity=83 time=16
note_on channel=1 note=60 velocity=83 time=0
note_on channel=1 note=65 velocity=83 time=0
note_on channel=1 note=65 velocity=0 time=32
note_on channel=1 note=60 velocity=0 time=0
note_on channel=1 note=57 velocity=0 time=0
note_on channel=1 note=48 velocity=83 time=16
note_on channel=1 note=36 velocity=83 time=0
note_on channel=1 note=36 velocity=0 time=32
note_on channel=1 note=48 velocity=0 time=0
note_on channel=1 note=58 velocity=83 time=16
note_on channel=1 note=60 velocity=83 time=0
note_on channel=1 note=64 velocity=83 time=0
note_on channel=1 note=64 velocity=0 time=32
note_on channel=1 note=60 velocity=0 time=0
note_on channel=1 note=58 velocity=0 time=0
note_on channel=1 note=53 velocity=83 time=16
note_on channel=1 note=41 velocity=83 time=0
note_on channel=1 note=41 velocity=0 time=32
note_on channel=1 note=53 velocity=0 time=0
note_on channel=1 note=48 velocity=83 time=16
note_on channel=1 note=36 velocity=83 time=0
note_on channel=1 note=36 velocity=0 time=32
note_on channel=1 note=48 velocity=0 time=0
note_on channel=1 note=38 velocity=83 time=16
note_on channel=1 note=50 velocity=83 time=0
note_on channel=1 note=50 velocity=0 time=32
note_on channel=1 note=38 velocity=0 time=0
note_on channel=1 note=52 velocity=83 time=16
note_on channel=1 note=40 velocity=83 time=0
note_on channel=1 note=40 velocity=0 time=32
note_on channel=1 note=52 velocity=0 time=0
note_on channel=1 note=53 velocity=83 time=16
note_on channel=1 note=41 velocity=83 time=0
note_on channel=1 note=41 velocity=0 time=32
note_on channel=1 note=53 velocity=0 time=0
note_on channel=1 note=57 velocity=83 time=16
note_on channel=1 note=60 velocity=83 time=0
note_on channel=1 note=65 velocity=83 time=0
note_on channel=1 note=65 velocity=0 time=32
note_on channel=1 note=60 velocity=0 time=0
note_on channel=1 note=57 velocity=0 time=0
note_on channel=1 note=48 velocity=83 time=16
note_on channel=1 note=36 velocity=83 time=0
note_on channel=1 note=36 velocity=0 time=32
note_on channel=1 note=48 velocity=0 time=0
note_on channel=1 note=57 velocity=83 time=16
note_on channel=1 note=60 velocity=83 time=0
note_on channel=1 note=65 velocity=83 time=0
note_on channel=1 note=65 velocity=0 time=32
note_on channel=1 note=60 velocity=0 time=0
note_on channel=1 note=57 velocity=0 time=0
note_on channel=1 note=53 velocity=83 time=16
note_on channel=1 note=41 velocity=83 time=0
note_on channel=1 note=41 velocity=0 time=32
note_on channel=1 note=53 velocity=0 time=0
note_on channel=1 note=41 velocity=83 time=16
note_on channel=1 note=53 velocity=83 time=0
note_on channel=1 note=53 velocity=0 time=32
note_on channel=1 note=41 velocity=0 time=0
note_on channel=1 note=55 velocity=83 time=16
note_on channel=1 note=43 velocity=83 time=0
note_on channel=1 note=43 velocity=0 time=32
note_on channel=1 note=55 velocity=0 time=0
note_on channel=1 note=57 velocity=83 time=16
note_on channel=1 note=45 velocity=83 time=0
note_on channel=1 note=45 velocity=0 time=32
note_on channel=1 note=57 velocity=0 time=0
note_on channel=1 note=58 velocity=83 time=16
note_on channel=1 note=46 velocity=83 time=0
note_on channel=1 note=46 velocity=0 time=32
note_on channel=1 note=58 velocity=0 time=0
note_on channel=1 note=58 velocity=83 time=16
note_on channel=1 note=62 velocity=83 time=0
note_on channel=1 note=65 velocity=83 time=0
note_on channel=1 note=65 velocity=0 time=32
note_on channel=1 note=62 velocity=0 time=0
note_on channel=1 note=58 velocity=0 time=0
note_on channel=1 note=55 velocity=83 time=16
note_on channel=1 note=43 velocity=83 time=0
note_on channel=1 note=43 velocity=0 time=32
note_on channel=1 note=55 velocity=0 time=0
note_on channel=1 note=56 velocity=83 time=16
note_on channel=1 note=44 velocity=83 time=0
note_on channel=1 note=44 velocity=0 time=32
note_on channel=1 note=56 velocity=0 time=0
note_on channel=1 note=57 velocity=83 time=16
note_on channel=1 note=45 velocity=83 time=0
note_on channel=1 note=45 velocity=0 time=32
note_on channel=1 note=57 velocity=0 time=0
note_on channel=1 note=48 velocity=83 time=16
note_on channel=1 note=36 velocity=83 time=0
note_on channel=1 note=36 velocity=0 time=32
note_on channel=1 note=48 velocity=0 time=0
note_on channel=1 note=38 velocity=83 time=16
note_on channel=1 note=50 velocity=83 time=0
note_on channel=1 note=50 velocity=0 time=32
note_on channel=1 note=38 velocity=0 time=0
note_on channel=1 note=52 velocity=83 time=16
note_on channel=1 note=40 velocity=83 time=0
note_on channel=1 note=40 velocity=0 time=32
note_on channel=1 note=52 velocity=0 time=0
note_on channel=1 note=53 velocity=83 time=16
note_on channel=1 note=41 velocity=83 time=0
note_on channel=1 note=41 velocity=0 time=32
note_on channel=1 note=53 velocity=0 time=0
note_on channel=1 note=57 velocity=83 time=16
note_on channel=1 note=60 velocity=83 time=0
note_on channel=1 note=65 velocity=83 time=0
note_on channel=1 note=65 velocity=0 time=32
note_on channel=1 note=60 velocity=0 time=0
note_on channel=1 note=57 velocity=0 time=0
note_on channel=1 note=48 velocity=83 time=16
note_on channel=1 note=36 velocity=83 time=0
note_on channel=1 note=36 velocity=0 time=32
note_on channel=1 note=48 velocity=0 time=0
note_on channel=1 note=57 velocity=83 time=16
note_on channel=1 note=60 velocity=83 time=0
note_on channel=1 note=65 velocity=83 time=0
note_on channel=1 note=65 velocity=0 time=32
note_on channel=1 note=60 velocity=0 time=0
note_on channel=1 note=57 velocity=0 time=0
note_on channel=1 note=53 velocity=83 time=16
note_on channel=1 note=41 velocity=83 time=0
note_on channel=1 note=41 velocity=0 time=32
note_on channel=1 note=53 velocity=0 time=0
note_on channel=1 note=57 velocity=83 time=16
note_on channel=1 note=60 velocity=83 time=0
note_on channel=1 note=65 velocity=83 time=0
note_on channel=1 note=65 velocity=0 time=32
note_on channel=1 note=60 velocity=0 time=0
note_on channel=1 note=57 velocity=0 time=0
note_on channel=1 note=57 velocity=83 time=16
note_on channel=1 note=45 velocity=83 time=0
note_on channel=1 note=45 velocity=0 time=32
note_on channel=1 note=57 velocity=0 time=0
note_on channel=1 note=53 velocity=83 time=16
note_on channel=1 note=41 velocity=83 time=0
note_on channel=1 note=41 velocity=0 time=32
note_on channel=1 note=53 velocity=0 time=0
note_on channel=1 note=52 velocity=83 time=16
note_on channel=1 note=40 velocity=83 time=0
note_on channel=1 note=40 velocity=0 time=32
note_on channel=1 note=52 velocity=0 time=0
note_on channel=1 note=57 velocity=83 time=16
note_on channel=1 note=60 velocity=83 time=0
note_on channel=1 note=64 velocity=83 time=0
note_on channel=1 note=64 velocity=0 time=32
note_on channel=1 note=60 velocity=0 time=0
note_on channel=1 note=57 velocity=0 time=0
note_on channel=1 note=52 velocity=83 time=16
note_on channel=1 note=40 velocity=83 time=0
note_on channel=1 note=40 velocity=0 time=32
note_on channel=1 note=52 velocity=0 time=0
note_on channel=1 note=56 velocity=83 time=16
note_on channel=1 note=62 velocity=83 time=0
note_on channel=1 note=64 velocity=83 time=0
note_on channel=1 note=64 velocity=0 time=32
note_on channel=1 note=62 velocity=0 time=0
note_on channel=1 note=56 velocity=0 time=0
note_on channel=1 note=57 velocity=83 time=16
note_on channel=1 note=45 velocity=83 time=0
note_on channel=1 note=45 velocity=0 time=32
note_on channel=1 note=57 velocity=0 time=0
note_on channel=1 note=54 velocity=83 time=16
note_on channel=1 note=42 velocity=83 time=0
note_on channel=1 note=42 velocity=0 time=32
note_on channel=1 note=54 velocity=0 time=0
note_on channel=1 note=55 velocity=83 time=16
note_on channel=1 note=43 velocity=83 time=0
note_on channel=1 note=43 velocity=0 time=32
note_on channel=1 note=55 velocity=0 time=0
note_on channel=1 note=48 velocity=83 time=16
note_on channel=1 note=36 velocity=83 time=0
note_on channel=1 note=36 velocity=0 time=32
note_on channel=1 note=48 velocity=0 time=0
note_on channel=1 note=53 velocity=83 time=16
note_on channel=1 note=41 velocity=83 time=0
note_on channel=1 note=41 velocity=0 time=32
note_on channel=1 note=53 velocity=0 time=0
note_on channel=1 note=57 velocity=83 time=16
note_on channel=1 note=60 velocity=83 time=0
note_on channel=1 note=65 velocity=83 time=0
note_on channel=1 note=65 velocity=0 time=32
note_on channel=1 note=60 velocity=0 time=0
note_on channel=1 note=57 velocity=0 time=0
note_on channel=1 note=48 velocity=83 time=16
note_on channel=1 note=36 velocity=83 time=0
note_on channel=1 note=36 velocity=0 time=32
note_on channel=1 note=48 velocity=0 time=0
note_on channel=1 note=57 velocity=83 time=16
note_on channel=1 note=60 velocity=83 time=0
note_on channel=1 note=65 velocity=83 time=0
note_on channel=1 note=65 velocity=0 time=32
note_on channel=1 note=60 velocity=0 time=0
note_on channel=1 note=57 velocity=0 time=0
note_on channel=1 note=53 velocity=83 time=16
note_on channel=1 note=41 velocity=83 time=0
note_on channel=1 note=41 velocity=0 time=32
note_on channel=1 note=53 velocity=0 time=0
note_on channel=1 note=41 velocity=83 time=16
note_on channel=1 note=53 velocity=83 time=0
note_on channel=1 note=53 velocity=0 time=32
note_on channel=1 note=41 velocity=0 time=0
note_on channel=1 note=55 velocity=83 time=16
note_on channel=1 note=43 velocity=83 time=0
note_on channel=1 note=43 velocity=0 time=32
note_on channel=1 note=55 velocity=0 time=0
note_on channel=1 note=57 velocity=83 time=16
note_on channel=1 note=45 velocity=83 time=0
note_on channel=1 note=45 velocity=0 time=32
note_on channel=1 note=57 velocity=0 time=0
note_on channel=1 note=58 velocity=83 time=16
note_on channel=1 note=46 velocity=83 time=0
note_on channel=1 note=46 velocity=0 time=32
note_on channel=1 note=58 velocity=0 time=0
note_on channel=1 note=58 velocity=83 time=16
note_on channel=1 note=62 velocity=83 time=0
note_on channel=1 note=65 velocity=83 time=0
note_on channel=1 note=65 velocity=0 time=32
note_on channel=1 note=62 velocity=0 time=0
note_on channel=1 note=58 velocity=0 time=0
note_on channel=1 note=55 velocity=83 time=16
note_on channel=1 note=43 velocity=83 time=0
note_on channel=1 note=43 velocity=0 time=32
note_on channel=1 note=55 velocity=0 time=0
note_on channel=1 note=56 velocity=83 time=16
note_on channel=1 note=44 velocity=83 time=0
note_on channel=1 note=44 velocity=0 time=32
note_on channel=1 note=56 velocity=0 time=0
note_on channel=1 note=57 velocity=83 time=16
note_on channel=1 note=45 velocity=83 time=0
note_on channel=1 note=45 velocity=0 time=32
note_on channel=1 note=57 velocity=0 time=0
note_on channel=1 note=57 velocity=83 time=16
note_on channel=1 note=60 velocity=83 time=0
note_on channel=1 note=65 velocity=83 time=0
note_on channel=1 note=65 velocity=0 time=32
note_on channel=1 note=60 velocity=0 time=0
note_on channel=1 note=57 velocity=0 time=0
note_on channel=1 note=57 velocity=83 time=16
note_on channel=1 note=45 velocity=83 time=0
note_on channel=1 note=45 velocity=0 time=32
note_on channel=1 note=57 velocity=0 time=0
note_on channel=1 note=43 velocity=83 time=16
note_on channel=1 note=55 velocity=83 time=0
note_on channel=1 note=55 velocity=0 time=32
note_on channel=1 note=43 velocity=0 time=0
note_on channel=1 note=54 velocity=83 time=16
note_on channel=1 note=42 velocity=83 time=0
note_on channel=1 note=42 velocity=0 time=32
note_on channel=1 note=54 velocity=0 time=0
note_on channel=1 note=54 velocity=83 time=16
note_on channel=1 note=60 velocity=83 time=0
note_on channel=1 note=62 velocity=83 time=0
note_on channel=1 note=62 velocity=0 time=32
note_on channel=1 note=60 velocity=0 time=0
note_on channel=1 note=54 velocity=0 time=0
note_on channel=1 note=62 velocity=83 time=16
note_on channel=1 note=50 velocity=83 time=0
note_on channel=1 note=50 velocity=0 time=32
note_on channel=1 note=62 velocity=0 time=0
note_on channel=1 note=48 velocity=83 time=16
note_on channel=1 note=60 velocity=83 time=0
note_on channel=1 note=60 velocity=0 time=32
note_on channel=1 note=48 velocity=0 time=0
note_on channel=1 note=58 velocity=83 time=16
note_on channel=1 note=46 velocity=83 time=0
note_on channel=1 note=46 velocity=0 time=32
note_on channel=1 note=58 velocity=0 time=0
note_on channel=1 note=55 velocity=83 time=16
note_on channel=1 note=58 velocity=83 time=0
note_on channel=1 note=62 velocity=83 time=0
note_on channel=1 note=62 velocity=0 time=32
note_on channel=1 note=58 velocity=0 time=0
note_on channel=1 note=55 velocity=0 time=0
note_on channel=1 note=50 velocity=83 time=16
note_on channel=1 note=38 velocity=83 time=0
note_on channel=1 note=38 velocity=0 time=32
note_on channel=1 note=50 velocity=0 time=0
note_on channel=1 note=37 velocity=83 time=16
note_on channel=1 note=49 velocity=83 time=0
note_on channel=1 note=49 velocity=0 time=32
note_on channel=1 note=37 velocity=0 time=0
note_on channel=1 note=48 velocity=83 time=16
note_on channel=1 note=36 velocity=83 time=0
note_on channel=1 note=36 velocity=0 time=32
note_on channel=1 note=48 velocity=0 time=0
note_on channel=1 note=57 velocity=83 time=16
note_on channel=1 note=60 velocity=83 time=0
note_on channel=1 note=65 velocity=83 time=0
note_on channel=1 note=65 velocity=0 time=32
note_on channel=1 note=60 velocity=0 time=0
note_on channel=1 note=57 velocity=0 time=0
note_on channel=1 note=48 velocity=83 time=16
note_on channel=1 note=36 velocity=83 time=0
note_on channel=1 note=36 velocity=0 time=32
note_on channel=1 note=48 velocity=0 time=0
note_on channel=1 note=58 velocity=83 time=16
note_on channel=1 note=60 velocity=83 time=0
note_on channel=1 note=64 velocity=83 time=0
note_on channel=1 note=64 velocity=0 time=32
note_on channel=1 note=60 velocity=0 time=0
note_on channel=1 note=58 velocity=0 time=0
note_on channel=1 note=53 velocity=83 time=16
note_on channel=1 note=41 velocity=83 time=0
note_on channel=1 note=41 velocity=0 time=32
note_on channel=1 note=53 velocity=0 time=0
note_on channel=1 note=48 velocity=83 time=16
note_on channel=1 note=48 velocity=0 time=32
note_on channel=1 note=41 velocity=83 time=16
note_on channel=1 note=41 velocity=0 time=32
<meta message end_of_track time=0>
<meta message midi_port port=0 time=0>
<meta message track_name name='W.S.Trachtman - MIDI file' time=0>
control_change channel=2 control=0 value=0 time=0
control_change channel=2 control=32 value=0 time=0
program_change channel=2 program=0 time=0
note_on channel=2 note=41 velocity=1 time=28512
note_on channel=2 note=41 velocity=0 time=32
<meta message end_of_track time=0>
<meta message track_name name='untitled' time=0>
<meta message time_signature numerator=4 denominator=4 clocks_per_click=24 notated_32nd_notes_per_beat=8 time=0>
<meta message key_signature key='C' time=0>
<meta message set_tempo tempo=375000 time=0>
<meta message marker text='W.S.Trachtman - MIDI file' time=0>
<meta message end_of_track time=0>
<meta message track_name name='Magnetic Rag' time=0>
program_change channel=0 program=0 time=0
control_change channel=0 control=7 value=127 time=0
control_change channel=0 control=10 value=84 time=0
control_change channel=0 control=91 value=21 time=0
control_change channel=0 control=93 value=12 time=0
control_change channel=0 control=121 value=0 time=4
control_change channel=0 control=1 value=0 time=20
control_change channel=0 control=64 value=0 time=4
aftertouch channel=0 value=0 time=16
pitchwheel channel=0 pitch=0 time=5
note_on channel=0 note=65 velocity=80 time=335
<meta message lyrics text='Magnetic ' time=0>
note_on channel=0 note=65 velocity=0 time=32
note_on channel=0 note=64 velocity=80 time=16
<meta message lyrics text='Rag ' time=0>
note_on channel=0 note=64 velocity=0 time=64
note_on channel=0 note=63 velocity=80 time=32
note_on channel=0 note=63 velocity=0 time=176
note_on channel=0 note=65 velocity=80 time=64
<meta message lyrics text='by ' time=0>
note_on channel=0 note=65 velocity=0 time=32
note_on channel=0 note=63 velocity=80 time=16
<meta message lyrics text='Scott ' time=0>
note_on channel=0 note=63 velocity=0 time=64
note_on channel=0 note=62 velocity=80 time=32
<meta message lyrics text='Joplin ' time=0>
note_on channel=0 note=62 velocity=0 time=176
note_on channel=0 note=65 velocity=80 time=64
<meta message lyrics text='; ' time=0>
note_on channel=0 note=65 velocity=0 time=32
note_on channel=0 note=66 velocity=80 time=16
<meta message lyrics text='Sequenced ' time=0>
note_on channel=0 note=66 velocity=0 time=32
note_on channel=0 note=67 velocity=80 time=16
<meta message lyrics text='by ' time=0>
note_on channel=0 note=67 velocity=0 time=32
note_on channel=0 note=68 velocity=80 time=16
<meta message lyrics text='W. ' time=0>
note_on channel=0 note=68 velocity=0 time=64
note_on channel=0 note=69 velocity=80 time=32
<meta message lyrics text='S. ' time=0>
note_on channel=0 note=69 velocity=0 time=32
note_on channel=0 note=70 velocity=80 time=16
<meta message lyrics text='Trachtman ' time=0>
note_on channel=0 note=70 velocity=0 time=32
note_on channel=0 note=71 velocity=80 time=16
note_on channel=0 note=71 velocity=0 time=32
note_on channel=0 note=72 velocity=80 time=16
note_on channel=0 note=72 velocity=0 time=64
note_on channel=0 note=65 velocity=80 time=128
note_on channel=0 note=69 velocity=80 time=0
note_on channel=0 note=72 velocity=80 time=0
note_on channel=0 note=77 velocity=80 time=0
note_on channel=0 note=77 velocity=0 time=64
note_on channel=0 note=65 velocity=0 time=0
note_on channel=0 note=69 velocity=0 time=0
note_on channel=0 note=72 velocity=0 time=0
note_on channel=0 note=62 velocity=80 time=128
note_on channel=0 note=62 velocity=0 time=32
note_on channel=0 note=70 velocity=80 time=16
note_on channel=0 note=70 velocity=0 time=32
note_on channel=0 note=67 velocity=80 time=16
note_on channel=0 note=67 velocity=0 time=32
note_on channel=0 note=65 velocity=80 time=16
note_on channel=0 note=65 velocity=0 time=32
note_on channel=0 note=63 velocity=80 time=16
note_on channel=0 note=63 velocity=0 time=32
note_on channel=0 note=72 velocity=80 time=16
note_on channel=0 note=72 velocity=0 time=64
note_on channel=0 note=73 velocity=80 time=32
note_on channel=0 note=73 velocity=0 time=32
note_on channel=0 note=74 velocity=80 time=16
note_on channel=0 note=74 velocity=0 time=32
note_on channel=0 note=65 velocity=80 time=16
note_on channel=0 note=65 velocity=0 time=32
note_on channel=0 note=70 velocity=80 time=16
note_on channel=0 note=70 velocity=0 time=32
note_on channel=0 note=62 velocity=80 time=16
note_on channel=0 note=62 velocity=0 time=32
note_on channel=0 note=67 velocity=80 time=16
note_on channel=0 note=61 velocity=80 time=0
note_on channel=0 note=61 velocity=0 time=32
note_on channel=0 note=67 velocity=0 time=0
note_on channel=0 note=65 velocity=80 time=16
note_on channel=0 note=62 velocity=80 time=0
note_on channel=0 note=62 velocity=0 time=96
note_on channel=0 note=65 velocity=0 time=0
note_on channel=0 note=63 velocity=80 time=48
note_on channel=0 note=65 velocity=80 time=0
note_on channel=0 note=65 velocity=0 time=32
note_on channel=0 note=63 velocity=0 time=0
note_on channel=0 note=63 velocity=80 time=16
note_on channel=0 note=65 velocity=80 time=0
note_on channel=0 note=65 velocity=0 time=64
note_on channel=0 note=63 velocity=0 time=0
note_on channel=0 note=65 velocity=80 time=32
note_on channel=0 note=63 velocity=80 time=0
note_on channel=0 note=65 velocity=0 time=80
note_on channel=0 note=67 velocity=80 time=16
note_on channel=0 note=63 velocity=0 time=16
note_on channel=0 note=67 velocity=0 time=16
note_on channel=0 note=63 velocity=80 time=16
note_on channel=0 note=65 velocity=80 time=0
note_on channel=0 note=65 velocity=0 time=64
note_on channel=0 note=63 velocity=0 time=0
note_on channel=0 note=65 velocity=80 time=32
note_on channel=0 note=62 velocity=80 time=0
note_on channel=0 note=62 velocity=0 time=32
note_on channel=0 note=65 velocity=0 time=0
note_on channel=0 note=65 velocity=80 time=16
note_on channel=0 note=62 velocity=80 time=0
note_on channel=0 note=62 velocity=0 time=64
note_on channel=0 note=65 velocity=0 time=0
note_on channel=0 note=65 velocity=80 time=32
note_on channel=0 note=62 velocity=80 time=0
note_on channel=0 note=65 velocity=0 time=80
note_on channel=0 note=67 velocity=80 time=16
note_on channel=0 note=62 velocity=0 time=16
note_on channel=0 note=67 velocity=0 time=16
note_on channel=0 note=65 velocity=80 time=16
note_on channel=0 note=62 velocity=80 time=0
note_on channel=0 note=62 velocity=0 time=64
note_on channel=0 note=65 velocity=0 time=0
note_on channel=0 note=62 velocity=80 time=32
note_on channel=0 note=62 velocity=0 time=32
note_on channel=0 note=70 velocity=80 time=16
note_on channel=0 note=70 velocity=0 time=32
note_on channel=0 note=67 velocity=80 time=16
note_on channel=0 note=67 velocity=0 time=32
note_on channel=0 note=65 velocity=80 time=16
note_on channel=0 note=65 velocity=0 time=32
note_on channel=0 note=63 velocity=80 time=16
note_on channel=0 note=63 velocity=0 time=32
note_on channel=0 note=72 velocity=80 time=16
note_on channel=0 note=72 velocity=0 time=64
note_on channel=0 note=73 velocity=80 time=32
note_on channel=0 note=73 velocity=0 time=32
note_on channel=0 note=74 velocity=80 time=16
note_on channel=0 note=74 velocity=0 time=32
note_on channel=0 note=65 velocity=80 time=16
note_on channel=0 note=65 velocity=0 time=32
note_on channel=0 note=70 velocity=80 time=16
note_on channel=0 note=70 velocity=0 time=32
note_on channel=0 note=74 velocity=80 time=16
note_on channel=0 note=74 velocity=0 time=32
note_on channel=0 note=79 velocity=80 time=16
note_on channel=0 note=74 velocity=80 time=0
note_on channel=0 note=79 velocity=0 time=32
note_on channel=0 note=82 velocity=80 time=16
note_on channel=0 note=74 velocity=0 time=80
note_on channel=0 note=82 velocity=0 time=16
note_on channel=0 note=81 velocity=80 time=48
note_on channel=0 note=81 velocity=0 time=32
note_on channel=0 note=84 velocity=80 time=16
note_on channel=0 note=84 velocity=0 time=32
note_on channel=0 note=86 velocity=80 time=16
note_on channel=0 note=86 velocity=0 time=32
note_on channel=0 note=78 velocity=80 time=16
note_on channel=0 note=87 velocity=80 time=0
note_on channel=0 note=87 velocity=0 time=64
note_on channel=0 note=78 velocity=0 time=0
note_on channel=0 note=86 velocity=80 time=32
note_on channel=0 note=86 velocity=0 time=32
note_on channel=0 note=78 velocity=80 time=16
note_on channel=0 note=81 velocity=80 time=0
note_on channel=0 note=81 velocity=0 time=64
note_on channel=0 note=78 velocity=0 time=0
note_on channel=0 note=79 velocity=80 time=32
note_on channel=0 note=84 velocity=80 time=0
note_on channel=0 note=84 velocity=0 time=32
note_on channel=0 note=82 velocity=80 time=16
note_on channel=0 note=82 velocity=0 time=32
note_on channel=0 note=81 velocity=80 time=16
note_on channel=0 note=81 velocity=0 time=32
note_on channel=0 note=82 velocity=80 time=16
note_on channel=0 note=79 velocity=0 time=144
note_on channel=0 note=82 velocity=80 time=48
note_on channel=0 note=75 velocity=80 time=0
note_on channel=0 note=82 velocity=0 time=32
note_on channel=0 note=75 velocity=0 time=48
note_on channel=0 note=70 velocity=80 time=16
note_on channel=0 note=82 velocity=0 time=16
note_on channel=0 note=70 velocity=0 time=16
note_on channel=0 note=75 velocity=80 time=16
note_on channel=0 note=79 velocity=80 time=0
note_on channel=0 note=75 velocity=0 time=32
note_on channel=0 note=67 velocity=80 time=16
note_on channel=0 note=79 velocity=0 time=16
note_on channel=0 note=67 velocity=0 time=16
note_on channel=0 note=70 velocity=80 time=16
note_on channel=0 note=70 velocity=0 time=32
note_on channel=0 note=77 velocity=80 time=16
note_on channel=0 note=74 velocity=80 time=0
note_on channel=0 note=74 velocity=0 time=64
note_on channel=0 note=77 velocity=0 time=0
note_on channel=0 note=65 velocity=80 time=32
note_on channel=0 note=65 velocity=0 time=32
note_on channel=0 note=75 velocity=80 time=16
note_on channel=0 note=72 velocity=80 time=0
note_on channel=0 note=72 velocity=0 time=32
note_on channel=0 note=67 velocity=80 time=16
note_on channel=0 note=75 velocity=0 time=16
note_on channel=0 note=67 velocity=0 time=16
note_on channel=0 note=69 velocity=80 time=16
note_on channel=0 note=75 velocity=80 time=0
note_on channel=0 note=75 velocity=0 time=32
note_on channel=0 note=69 velocity=0 time=0
note_on channel=0 note=74 velocity=80 time=16
note_on channel=0 note=70 velocity=80 time=0
note_on channel=0 note=70 velocity=0 time=64
note_on channel=0 note=74 velocity=0 time=0
note_on channel=0 note=65 velocity=80 time=32
note_on channel=0 note=65 velocity=0 time=32
note_on channel=0 note=77 velocity=80 time=16
note_on channel=0 note=74 velocity=80 time=0
note_on channel=0 note=74 velocity=0 time=64
note_on channel=0 note=77 velocity=0 time=0
note_on channel=0 note=82 velocity=80 time=32
note_on channel=0 note=75 velocity=80 time=0
note_on channel=0 note=75 velocity=0 time=32
note_on channel=0 note=70 velocity=80 time=16
note_on channel=0 note=82 velocity=0 time=16
note_on channel=0 note=70 velocity=0 time=16
note_on channel=0 note=75 velocity=80 time=16
note_on channel=0 note=79 velocity=80 time=0
note_on channel=0 note=75 velocity=0 time=32
note_on channel=0 note=67 velocity=80 time=16
note_on channel=0 note=79 velocity=0 time=16
note_on channel=0 note=67 velocity=0 time=16
note_on channel=0 note=70 velocity=80 time=16
note_on channel=0 note=70 velocity=0 time=32
note_on channel=0 note=77 velocity=80 time=16
note_on channel=0 note=74 velocity=80 time=0
note_on channel=0 note=74 velocity=0 time=64
note_on channel=0 note=77 velocity=0 time=0
note_on channel=0 note=65 velocity=80 time=32
note_on channel=0 note=65 velocity=0 time=32
note_on channel=0 note=75 velocity=80 time=16
note_on channel=0 note=72 velocity=80 time=0
note_on channel=0 note=72 velocity=0 time=32
note_on channel=0 note=67 velocity=80 time=16
note_on channel=0 note=75 velocity=0 time=16
note_on channel=0 note=67 velocity=0 time=16
note_on channel=0 note=69 velocity=80 time=16
note_on channel=0 note=75 velocity=80 time=0
note_on channel=0 note=75 velocity=0 time=32
note_on channel=0 note=69 velocity=0 time=0
note_on channel=0 note=74 velocity=80 time=16
note_on channel=0 note=70 velocity=80 time=0
note_on channel=0 note=70 velocity=0 time=160
note_on channel=0 note=74 velocity=0 time=0
note_on channel=0 note=82 velocity=80 time=32
note_on channel=0 note=75 velocity=80 time=0
note_on channel=0 note=75 velocity=0 time=80
note_on channel=0 note=70 velocity=80 time=16
note_on channel=0 note=82 velocity=0 time=16
note_on channel=0 note=70 velocity=0 time=16
note_on channel=0 note=75 velocity=80 time=16
note_on channel=0 note=79 velocity=80 time=0
note_on channel=0 note=75 velocity=0 time=32
note_on channel=0 note=67 velocity=80 time=16
note_on channel=0 note=79 velocity=0 time=16
note_on channel=0 note=67 velocity=0 time=16
note_on channel=0 note=70 velocity=80 time=16
note_on channel=0 note=70 velocity=0 time=32
note_on channel=0 note=77 velocity=80 time=16
note_on channel=0 note=74 velocity=80 time=0
note_on channel=0 note=74 velocity=0 time=64
note_on channel=0 note=77 velocity=0 time=0
note_on channel=0 note=65 velocity=80 time=32
note_on channel=0 note=65 velocity=0 time=32
note_on channel=0 note=75 velocity=80 time=16
note_on channel=0 note=72 velocity=80 time=0
note_on channel=0 note=72 velocity=0 time=32
note_on channel=0 note=67 velocity=80 time=16
note_on channel=0 note=75 velocity=0 time=16
note_on channel=0 note=67 velocity=0 time=16
note_on channel=0 note=69 velocity=80 time=16
note_on channel=0 note=75 velocity=80 time=0
note_on channel=0 note=75 velocity=0 time=32
note_on channel=0 note=69 velocity=0 time=0
note_on channel=0 note=74 velocity=80 time=16
note_on channel=0 note=70 velocity=80 time=0
note_on channel=0 note=70 velocity=0 time=64
note_on channel=0 note=74 velocity=0 time=0
note_on channel=0 note=65 velocity=80 time=32
note_on channel=0 note=65 velocity=0 time=32
note_on channel=0 note=77 velocity=80 time=16
note_on channel=0 note=74 velocity=80 time=0
note_on channel=0 note=74 velocity=0 time=64
note_on channel=0 note=77 velocity=0 time=0
note_on channel=0 note=82 velocity=80 time=32
note_on channel=0 note=75 velocity=80 time=0
note_on channel=0 note=75 velocity=0 time=32
note_on channel=0 note=70 velocity=80 time=16
note_on channel=0 note=82 velocity=0 time=16
note_on channel=0 note=70 velocity=0 time=16
note_on channel=0 note=75 velocity=80 time=16
note_on channel=0 note=79 velocity=80 time=0
note_on channel=0 note=75 velocity=0 time=32
note_on channel=0 note=67 velocity=80 time=16
note_on channel=0 note=79 velocity=0 time=16
note_on channel=0 note=67 velocity=0 time=16
note_on channel=0 note=70 velocity=80 time=16
note_on channel=0 note=70 velocity=0 time=32
note_on channel=0 note=77 velocity=80 time=16
note_on channel=0 note=74 velocity=80 time=0
note_on channel=0 note=74 velocity=0 time=64
note_on channel=0 note=77 velocity=0 time=0
note_on channel=0 note=65 velocity=80 time=32
note_on channel=0 note=65 velocity=0 time=32
note_on channel=0 note=75 velocity=80 time=16
note_on channel=0 note=72 velocity=80 time=0
note_on channel=0 note=72 velocity=0 time=32
note_on channel=0 note=67 velocity=80 time=16
note_on channel=0 note=75 velocity=0 time=16
note_on channel=0 note=67 velocity=0 time=16
note_on channel=0 note=69 velocity=80 time=16
note_on channel=0 note=75 velocity=80 time=0
note_on channel=0 note=75 velocity=0 time=32
note_on channel=0 note=69 velocity=0 time=0
note_on channel=0 note=74 velocity=80 time=16
note_on channel=0 note=70 velocity=80 time=0
note_on channel=0 note=70 velocity=0 time=64
note_on channel=0 note=74 velocity=0 time=0
note_on channel=0 note=67 velocity=80 time=32
note_on channel=0 note=67 velocity=0 time=32
note_on channel=0 note=65 velocity=80 time=16
note_on channel=0 note=65 velocity=0 time=32
note_on channel=0 note=63 velocity=80 time=16
note_on channel=0 note=63 velocity=0 time=32
note_on channel=0 note=62 velocity=80 time=16
note_on channel=0 note=62 velocity=0 time=32
note_on channel=0 note=70 velocity=80 time=16
note_on channel=0 note=70 velocity=0 time=32
note_on channel=0 note=67 velocity=80 time=16
note_on channel=0 note=67 velocity=0 time=32
note_on channel=0 note=65 velocity=80 time=16
note_on channel=0 note=65 velocity=0 time=32
note_on channel=0 note=63 velocity=80 time=16
note_on channel=0 note=63 velocity=0 time=32
note_on channel=0 note=72 velocity=80 time=16
note_on channel=0 note=72 velocity=0 time=64
note_on channel=0 note=73 velocity=80 time=32
note_on channel=0 note=73 velocity=0 time=32
note_on channel=0 note=74 velocity=80 time=16
note_on channel=0 note=74 velocity=0 time=32
note_on channel=0 note=65 velocity=80 time=16
note_on channel=0 note=65 velocity=0 time=32
note_on channel=0 note=70 velocity=80 time=16
note_on channel=0 note=70 velocity=0 time=32
note_on channel=0 note=62 velocity=80 time=16
note_on channel=0 note=62 velocity=0 time=32
note_on channel=0 note=67 velocity=80 time=16
note_on channel=0 note=61 velocity=80 time=0
note_on channel=0 note=61 velocity=0 time=32
note_on channel=0 note=67 velocity=0 time=0
note_on channel=0 note=65 velocity=80 time=16
note_on channel=0 note=62 velocity=80 time=0
note_on channel=0 note=62 velocity=0 time=96
note_on channel=0 note=65 velocity=0 time=0
note_on channel=0 note=63 velocity=80 time=48
note_on channel=0 note=65 velocity=80 time=0
note_on channel=0 note=65 velocity=0 time=32
note_on channel=0 note=63 velocity=0 time=0
note_on channel=0 note=63 velocity=80 time=16
note_on channel=0 note=65 velocity=80 time=0
note_on channel=0 note=65 velocity=0 time=64
note_on channel=0 note=63 velocity=0 time=0
note_on channel=0 note=65 velocity=80 time=32
note_on channel=0 note=63 velocity=80 time=0
note_on channel=0 note=65 velocity=0 time=80
note_on channel=0 note=67 velocity=80 time=16
note_on channel=0 note=63 velocity=0 time=16
note_on channel=0 note=67 velocity=0 time=16
note_on channel=0 note=63 velocity=80 time=16
note_on channel=0 note=65 velocity=80 time=0
note_on channel=0 note=65 velocity=0 time=64
note_on channel=0 note=63 velocity=0 time=0
note_on channel=0 note=65 velocity=80 time=32
note_on channel=0 note=62 velocity=80 time=0
note_on channel=0 note=62 velocity=0 time=32
note_on channel=0 note=65 velocity=0 time=0
note_on channel=0 note=65 velocity=80 time=16
note_on channel=0 note=62 velocity=80 time=0
note_on channel=0 note=62 velocity=0 time=64
note_on channel=0 note=65 velocity=0 time=0
note_on channel=0 note=65 velocity=80 time=32
note_on channel=0 note=62 velocity=80 time=0
note_on channel=0 note=65 velocity=0 time=80
note_on channel=0 note=67 velocity=80 time=16
note_on channel=0 note=62 velocity=0 time=16
note_on channel=0 note=67 velocity=0 time=16
note_on channel=0 note=65 velocity=80 time=16
note_on channel=0 note=62 velocity=80 time=0
note_on channel=0 note=62 velocity=0 time=64
note_on channel=0 note=65 velocity=0 time=0
note_on channel=0 note=62 velocity=80 time=32
note_on channel=0 note=62 velocity=0 time=32
note_on channel=0 note=70 velocity=80 time=16
note_on channel=0 note=70 velocity=0 time=32
note_on channel=0 note=67 velocity=80 time=16
note_on channel=0 note=67 velocity=0 time=32
note_on channel=0 note=65 velocity=80 time=16
note_on channel=0 note=65 velocity=0 time=32
note_on channel=0 note=63 velocity=80 time=16
note_on channel=0 note=63 velocity=0 time=32
note_on channel=0 note=72 velocity=80 time=16
note_on channel=0 note=72 velocity=0 time=64
note_on channel=0 note=73 velocity=80 time=32
note_on channel=0 note=73 velocity=0 time=32
note_on channel=0 note=74 velocity=80 time=16
note_on channel=0 note=74 velocity=0 time=32
note_on channel=0 note=65 velocity=80 time=16
note_on channel=0 note=65 velocity=0 time=32
note_on channel=0 note=70 velocity=80 time=16
note_on channel=0 note=70 velocity=0 time=32
note_on channel=0 note=74 velocity=80 time=16
note_on channel=0 note=74 velocity=0 time=32
note_on channel=0 note=79 velocity=80 time=16
note_on channel=0 note=74 velocity=80 time=0
note_on channel=0 note=79 velocity=0 time=32
note_on channel=0 note=82 velocity=80 time=16
note_on channel=0 note=74 velocity=0 time=80
note_on channel=0 note=82 velocity=0 time=16
note_on channel=0 note=81 velocity=80 time=48
note_on channel=0 note=81 velocity=0 time=32
note_on channel=0 note=84 velocity=80 time=16
note_on channel=0 note=84 velocity=0 time=32
note_on channel=0 note=86 velocity=80 time=16
note_on channel=0 note=86 velocity=0 time=32
note_on channel=0 note=78 velocity=80 time=16
note_on channel=0 note=87 velocity=80 time=0
note_on channel=0 note=87 velocity=0 time=64
note_on channel=0 note=78 velocity=0 time=0
note_on channel=0 note=86 velocity=80 time=32
note_on channel=0 note=86 velocity=0 time=32
note_on channel=0 note=78 velocity=80 time=16
note_on channel=0 note=81 velocity=80 time=0
note_on channel=0 note=81 velocity=0 time=64
note_on channel=0 note=78 velocity=0 time=0
note_on channel=0 note=79 velocity=80 time=32
note_on channel=0 note=84 velocity=80 time=0
note_on channel=0 note=84 velocity=0 time=32
note_on channel=0 note=82 velocity=80 time=16
note_on channel=0 note=82 velocity=0 time=32
note_on channel=0 note=81 velocity=80 time=16
note_on channel=0 note=81 velocity=0 time=32
note_on channel=0 note=82 velocity=80 time=16
note_on channel=0 note=79 velocity=0 time=144
note_on channel=0 note=82 velocity=80 time=48
note_on channel=0 note=75 velocity=80 time=0
note_on channel=0 note=82 velocity=0 time=32
note_on channel=0 note=75 velocity=0 time=48
note_on channel=0 note=70 velocity=80 time=16
note_on channel=0 note=82 velocity=0 time=16
note_on channel=0 note=70 velocity=0 time=16
note_on channel=0 note=75 velocity=80 time=16
note_on channel=0 note=79 velocity=80 time=0
note_on channel=0 note=75 velocity=0 time=32
note_on channel=0 note=67 velocity=80 time=16
note_on channel=0 note=79 velocity=0 time=16
note_on channel=0 note=67 velocity=0 time=16
note_on channel=0 note=70 velocity=80 time=16
note_on channel=0 note=70 velocity=0 time=32
note_on channel=0 note=77 velocity=80 time=16
note_on channel=0 note=74 velocity=80 time=0
note_on channel=0 note=74 velocity=0 time=64
note_on channel=0 note=77 velocity=0 time=0
note_on channel=0 note=65 velocity=80 time=32
note_on channel=0 note=65 velocity=0 time=32
note_on channel=0 note=75 velocity=80 time=16
note_on channel=0 note=72 velocity=80 time=0
note_on channel=0 note=72 velocity=0 time=32
note_on channel=0 note=67 velocity=80 time=16
note_on channel=0 note=75 velocity=0 time=16
note_on channel=0 note=67 velocity=0 time=16
note_on channel=0 note=69 velocity=80 time=16
note_on channel=0 note=75 velocity=80 time=0
note_on channel=0 note=75 velocity=0 time=32
note_on channel=0 note=69 velocity=0 time=0
note_on channel=0 note=74 velocity=80 time=16
note_on channel=0 note=70 velocity=80 time=0
note_on channel=0 note=70 velocity=0 time=64
note_on channel=0 note=74 velocity=0 time=0
note_on channel=0 note=65 velocity=80 time=32
note_on channel=0 note=65 velocity=0 time=32
note_on channel=0 note=77 velocity=80 time=16
note_on channel=0 note=74 velocity=80 time=0
note_on channel=0 note=74 velocity=0 time=64
note_on channel=0 note=77 velocity=0 time=0
note_on channel=0 note=82 velocity=80 time=32
note_on channel=0 note=75 velocity=80 time=0
note_on channel=0 note=75 velocity=0 time=32
note_on channel=0 note=70 velocity=80 time=16
note_on channel=0 note=82 velocity=0 time=16
note_on channel=0 note=70 velocity=0 time=16
note_on channel=0 note=75 velocity=80 time=16
note_on channel=0 note=79 velocity=80 time=0
note_on channel=0 note=75 velocity=0 time=32
note_on channel=0 note=67 velocity=80 time=16
note_on channel=0 note=79 velocity=0 time=16
note_on channel=0 note=67 velocity=0 time=16
note_on channel=0 note=70 velocity=80 time=16
note_on channel=0 note=70 velocity=0 time=32
note_on channel=0 note=77 velocity=80 time=16
note_on channel=0 note=74 velocity=80 time=0
note_on channel=0 note=74 velocity=0 time=64
note_on channel=0 note=77 velocity=0 time=0
note_on channel=0 note=65 velocity=80 time=32
note_on channel=0 note=65 velocity=0 time=32
note_on channel=0 note=75 velocity=80 time=16
note_on channel=0 note=72 velocity=80 time=0
note_on channel=0 note=72 velocity=0 time=32
note_on channel=0 note=67 velocity=80 time=16
note_on channel=0 note=75 velocity=0 time=16
note_on channel=0 note=67 velocity=0 time=16
note_on channel=0 note=69 velocity=80 time=16
note_on channel=0 note=75 velocity=80 time=0
note_on channel=0 note=75 velocity=0 time=32
note_on channel=0 note=69 velocity=0 time=0
note_on channel=0 note=74 velocity=80 time=16
note_on channel=0 note=70 velocity=80 time=0
note_on channel=0 note=70 velocity=0 time=160
note_on channel=0 note=74 velocity=0 time=0
note_on channel=0 note=82 velocity=80 time=32
note_on channel=0 note=75 velocity=80 time=0
note_on channel=0 note=75 velocity=0 time=80
note_on channel=0 note=70 velocity=80 time=16
note_on channel=0 note=82 velocity=0 time=16
note_on channel=0 note=70 velocity=0 time=16
note_on channel=0 note=75 velocity=80 time=16
note_on channel=0 note=79 velocity=80 time=0
note_on channel=0 note=75 velocity=0 time=32
note_on channel=0 note=67 velocity=80 time=16
note_on channel=0 note=79 velocity=0 time=16
note_on channel=0 note=67 velocity=0 time=16
note_on channel=0 note=70 velocity=80 time=16
note_on channel=0 note=70 velocity=0 time=32
note_on channel=0 note=77 velocity=80 time=16
note_on channel=0 note=74 velocity=80 time=0
note_on channel=0 note=74 velocity=0 time=64
note_on channel=0 note=77 velocity=0 time=0
note_on channel=0 note=65 velocity=80 time=32
note_on channel=0 note=65 velocity=0 time=32
note_on channel=0 note=75 velocity=80 time=16
note_on channel=0 note=72 velocity=80 time=0
note_on channel=0 note=72 velocity=0 time=32
note_on channel=0 note=67 velocity=80 time=16
note_on channel=0 note=75 velocity=0 time=16
note_on channel=0 note=67 velocity=0 time=16
note_on channel=0 note=69 velocity=80 time=16
note_on channel=0 note=75 velocity=80 time=0
note_on channel=0 note=75 velocity=0 time=32
note_on channel=0 note=69 velocity=0 time=0
note_on channel=0 note=74 velocity=80 time=16
note_on channel=0 note=70 velocity=80 time=0
note_on channel=0 note=70 velocity=0 time=64
note_on channel=0 note=74 velocity=0 time=0
note_on channel=0 note=65 velocity=80 time=32
note_on channel=0 note=65 velocity=0 time=32
note_on channel=0 note=77 velocity=80 time=16
note_on channel=0 note=74 velocity=80 time=0
note_on channel=0 note=74 velocity=0 time=64
note_on channel=0 note=77 velocity=0 time=0
note_on channel=0 note=82 velocity=80 time=32
note_on channel=0 note=75 velocity=80 time=0
note_on channel=0 note=75 velocity=0 time=32
note_on channel=0 note=70 velocity=80 time=16
note_on channel=0 note=82 velocity=0 time=16
note_on channel=0 note=70 velocity=0 time=16
note_on channel=0 note=75 velocity=80 time=16
note_on channel=0 note=79 velocity=80 time=0
note_on channel=0 note=75 velocity=0 time=32
note_on channel=0 note=67 velocity=80 time=16
note_on channel=0 note=79 velocity=0 time=16
note_on channel=0 note=67 velocity=0 time=16
note_on channel=0 note=70 velocity=80 time=16
note_on channel=0 note=70 velocity=0 time=32
note_on channel=0 note=77 velocity=80 time=16
note_on channel=0 note=74 velocity=80 time=0
note_on channel=0 note=74 velocity=0 time=64
note_on channel=0 note=77 velocity=0 time=0
note_on channel=0 note=65 velocity=80 time=32
note_on channel=0 note=65 velocity=0 time=32
note_on channel=0 note=75 velocity=80 time=16
note_on channel=0 note=72 velocity=80 time=0
note_on channel=0 note=72 velocity=0 time=32
note_on channel=0 note=67 velocity=80 time=16
note_on channel=0 note=75 velocity=0 time=16
note_on channel=0 note=67 velocity=0 time=16
note_on channel=0 note=75 velocity=80 time=16
note_on channel=0 note=69 velocity=80 time=0
note_on channel=0 note=69 velocity=0 time=32
note_on channel=0 note=75 velocity=0 time=0
note_on channel=0 note=74 velocity=80 time=16
note_on channel=0 note=70 velocity=80 time=0
note_on channel=0 note=70 velocity=0 time=96
note_on channel=0 note=74 velocity=0 time=0
note_on channel=0 note=66 velocity=80 time=48
note_on channel=0 note=69 velocity=80 time=0
note_on channel=0 note=74 velocity=80 time=0
note_on channel=0 note=74 velocity=0 time=64
note_on channel=0 note=69 velocity=0 time=0
note_on channel=0 note=66 velocity=0 time=0
note_on channel=0 note=67 velocity=80 time=5
note_on channel=0 note=67 velocity=0 time=10
note_on channel=0 note=69 velocity=80 time=0
note_on channel=0 note=69 velocity=0 time=10
note_on channel=0 note=70 velocity=80 time=7
note_on channel=0 note=70 velocity=0 time=32
note_on channel=0 note=69 velocity=80 time=16
note_on channel=0 note=69 velocity=0 time=32
note_on channel=0 note=67 velocity=80 time=16
note_on channel=0 note=67 velocity=0 time=32
note_on channel=0 note=70 velocity=80 time=16
note_on channel=0 note=70 velocity=0 time=64
note_on channel=0 note=69 velocity=80 time=32
note_on channel=0 note=69 velocity=0 time=32
note_on channel=0 note=67 velocity=80 time=16
note_on channel=0 note=67 velocity=0 time=64
note_on channel=0 note=69 velocity=80 time=32
note_on channel=0 note=69 velocity=0 time=64
note_on channel=0 note=67 velocity=80 time=32
note_on channel=0 note=67 velocity=0 time=32
note_on channel=0 note=66 velocity=80 time=16
note_on channel=0 note=74 velocity=80 time=96
note_on channel=0 note=74 velocity=0 time=32
note_on channel=0 note=81 velocity=80 time=16
note_on channel=0 note=66 velocity=0 time=32
note_on channel=0 note=81 velocity=0 time=32
note_on channel=0 note=69 velocity=80 time=5
note_on channel=0 note=69 velocity=0 time=10
note_on channel=0 note=70 velocity=80 time=0
note_on channel=0 note=70 velocity=0 time=10
note_on channel=0 note=72 velocity=80 time=7
note_on channel=0 note=72 velocity=0 time=32
note_on channel=0 note=70 velocity=80 time=16
note_on channel=0 note=70 velocity=0 time=32
note_on channel=0 note=69 velocity=80 time=16
note_on channel=0 note=69 velocity=0 time=32
note_on channel=0 note=72 velocity=80 time=16
note_on channel=0 note=72 velocity=0 time=64
note_on channel=0 note=70 velocity=80 time=32
note_on channel=0 note=70 velocity=0 time=32
note_on channel=0 note=69 velocity=80 time=16
note_on channel=0 note=69 velocity=0 time=64
note_on channel=0 note=70 velocity=80 time=32
note_on channel=0 note=70 velocity=0 time=64
note_on channel=0 note=69 velocity=80 time=32
note_on channel=0 note=69 velocity=0 time=32
note_on channel=0 note=67 velocity=80 time=16
note_on channel=0 note=74 velocity=80 time=96
note_on channel=0 note=74 velocity=0 time=32
note_on channel=0 note=82 velocity=80 time=16
note_on channel=0 note=67 velocity=0 time=32
note_on channel=0 note=82 velocity=0 time=32
note_on channel=0 note=67 velocity=80 time=5
note_on channel=0 note=67 velocity=0 time=10
note_on channel=0 note=69 velocity=80 time=0
note_on channel=0 note=69 velocity=0 time=10
note_on channel=0 note=70 velocity=80 time=7
note_on channel=0 note=70 velocity=0 time=32
note_on channel=0 note=69 velocity=80 time=16
note_on channel=0 note=69 velocity=0 time=32
note_on channel=0 note=67 velocity=80 time=16
note_on channel=0 note=67 velocity=0 time=32
note_on channel=0 note=69 velocity=80 time=16
note_on channel=0 note=69 velocity=0 time=32
note_on channel=0 note=70 velocity=80 time=16
note_on channel=0 note=70 velocity=0 time=32
note_on channel=0 note=72 velocity=80 time=16
note_on channel=0 note=72 velocity=0 time=64
note_on channel=0 note=74 velocity=80 time=32
note_on channel=0 note=74 velocity=0 time=32
note_on channel=0 note=75 velocity=80 time=16
note_on channel=0 note=75 velocity=0 time=64
note_on channel=0 note=74 velocity=80 time=32
note_on channel=0 note=74 velocity=0 time=32
note_on channel=0 note=72 velocity=80 time=16
note_on channel=0 note=79 velocity=80 time=96
note_on channel=0 note=79 velocity=0 time=32
note_on channel=0 note=87 velocity=80 time=16
note_on channel=0 note=72 velocity=0 time=32
note_on channel=0 note=87 velocity=0 time=32
note_on channel=0 note=72 velocity=80 time=5
note_on channel=0 note=72 velocity=0 time=10
note_on channel=0 note=74 velocity=80 time=0
note_on channel=0 note=74 velocity=0 time=10
note_on channel=0 note=75 velocity=80 time=7
note_on channel=0 note=75 velocity=0 time=32
note_on channel=0 note=74 velocity=80 time=16
note_on channel=0 note=74 velocity=0 time=32
note_on channel=0 note=72 velocity=80 time=16
note_on channel=0 note=72 velocity=0 time=32
note_on channel=0 note=70 velocity=80 time=16
note_on channel=0 note=70 velocity=0 time=32
note_on channel=0 note=69 velocity=80 time=16
note_on channel=0 note=69 velocity=0 time=32
note_on channel=0 note=67 velocity=80 time=16
note_on channel=0 note=67 velocity=0 time=64
note_on channel=0 note=69 velocity=80 time=32
note_on channel=0 note=69 velocity=0 time=32
note_on channel=0 note=66 velocity=80 time=16
note_on channel=0 note=66 velocity=0 time=64
note_on channel=0 note=69 velocity=80 time=32
note_on channel=0 note=69 velocity=0 time=32
note_on channel=0 note=74 velocity=80 time=16
note_on channel=0 note=66 velocity=80 time=0
note_on channel=0 note=66 velocity=0 time=176
note_on channel=0 note=74 velocity=0 time=0
note_on channel=0 note=67 velocity=80 time=37
note_on channel=0 note=67 velocity=0 time=10
note_on channel=0 note=69 velocity=80 time=0
note_on channel=0 note=69 velocity=0 time=10
note_on channel=0 note=70 velocity=80 time=7
note_on channel=0 note=70 velocity=0 time=32
note_on channel=0 note=69 velocity=80 time=16
note_on channel=0 note=69 velocity=0 time=32
note_on channel=0 note=67 velocity=80 time=16
note_on channel=0 note=67 velocity=0 time=32
note_on channel=0 note=70 velocity=80 time=16
note_on channel=0 note=70 velocity=0 time=64
note_on channel=0 note=69 velocity=80 time=32
note_on channel=0 note=69 velocity=0 time=32
note_on channel=0 note=67 velocity=80 time=16
note_on channel=0 note=67 velocity=0 time=64
note_on channel=0 note=69 velocity=80 time=32
note_on channel=0 note=69 velocity=0 time=64
note_on channel=0 note=67 velocity=80 time=32
note_on channel=0 note=67 velocity=0 time=32
note_on channel=0 note=66 velocity=80 time=16
note_on channel=0 note=74 velocity=80 time=96
note_on channel=0 note=74 velocity=0 time=32
note_on channel=0 note=81 velocity=80 time=16
note_on channel=0 note=66 velocity=0 time=32
note_on channel=0 note=81 velocity=0 time=32
note_on channel=0 note=69 velocity=80 time=5
note_on channel=0 note=69 velocity=0 time=10
note_on channel=0 note=70 velocity=80 time=0
note_on channel=0 note=70 velocity=0 time=10
note_on channel=0 note=72 velocity=80 time=7
note_on channel=0 note=72 velocity=0 time=32
note_on channel=0 note=70 velocity=80 time=16
note_on channel=0 note=70 velocity=0 time=32
note_on channel=0 note=69 velocity=80 time=16
note_on channel=0 note=69 velocity=0 time=32
note_on channel=0 note=72 velocity=80 time=16
note_on channel=0 note=72 velocity=0 time=64
note_on channel=0 note=70 velocity=80 time=32
note_on channel=0 note=70 velocity=0 time=32
note_on channel=0 note=69 velocity=80 time=16
note_on channel=0 note=69 velocity=0 time=64
note_on channel=0 note=70 velocity=80 time=32
note_on channel=0 note=70 velocity=0 time=64
note_on channel=0 note=69 velocity=80 time=32
note_on channel=0 note=69 velocity=0 time=32
note_on channel=0 note=67 velocity=80 time=16
note_on channel=0 note=74 velocity=80 time=96
note_on channel=0 note=74 velocity=0 time=32
note_on channel=0 note=82 velocity=80 time=16
note_on channel=0 note=67 velocity=0 time=32
note_on channel=0 note=82 velocity=0 time=32
note_on channel=0 note=67 velocity=80 time=5
note_on channel=0 note=67 velocity=0 time=10
note_on channel=0 note=69 velocity=80 time=0
note_on channel=0 note=69 velocity=0 time=10
note_on channel=0 note=70 velocity=80 time=7
note_on channel=0 note=70 velocity=0 time=32
note_on channel=0 note=69 velocity=80 time=16
note_on channel=0 note=69 velocity=0 time=32
note_on channel=0 note=67 velocity=80 time=16
note_on channel=0 note=67 velocity=0 time=32
note_on channel=0 note=69 velocity=80 time=16
note_on channel=0 note=69 velocity=0 time=32
note_on channel=0 note=70 velocity=80 time=16
note_on channel=0 note=70 velocity=0 time=32
note_on channel=0 note=72 velocity=80 time=16
note_on channel=0 note=72 velocity=0 time=64
note_on channel=0 note=74 velocity=80 time=32
note_on channel=0 note=74 velocity=0 time=32
note_on channel=0 note=75 velocity=80 time=16
note_on channel=0 note=75 velocity=0 time=64
note_on channel=0 note=74 velocity=80 time=32
note_on channel=0 note=74 velocity=0 time=32
note_on channel=0 note=72 velocity=80 time=16
note_on channel=0 note=79 velocity=80 time=96
note_on channel=0 note=79 velocity=0 time=32
note_on channel=0 note=87 velocity=80 time=16
note_on channel=0 note=72 velocity=0 time=32
note_on channel=0 note=87 velocity=0 time=32
note_on channel=0 note=70 velocity=80 time=5
note_on channel=0 note=70 velocity=0 time=10
note_on channel=0 note=72 velocity=80 time=0
note_on channel=0 note=72 velocity=0 time=10
note_on channel=0 note=74 velocity=80 time=7
note_on channel=0 note=74 velocity=0 time=32
note_on channel=0 note=72 velocity=80 time=16
note_on channel=0 note=72 velocity=0 time=32
note_on channel=0 note=70 velocity=80 time=16
note_on channel=0 note=70 velocity=0 time=32
note_on channel=0 note=69 velocity=80 time=16
note_on channel=0 note=69 velocity=0 time=64
note_on channel=0 note=72 velocity=80 time=32
note_on channel=0 note=72 velocity=0 time=32
note_on channel=0 note=70 velocity=80 time=16
note_on channel=0 note=70 velocity=0 time=32
note_on channel=0 note=69 velocity=80 time=16
note_on channel=0 note=69 velocity=0 time=32
note_on channel=0 note=67 velocity=80 time=16
note_on channel=0 note=67 velocity=0 time=32
note_on channel=0 note=74 velocity=80 time=16
note_on channel=0 note=74 velocity=0 time=32
note_on channel=0 note=70 velocity=80 time=16
note_on channel=0 note=70 velocity=0 time=32
note_on channel=0 note=67 velocity=80 time=16
note_on channel=0 note=67 velocity=0 time=32
note_on channel=0 note=66 velocity=80 time=16
note_on channel=0 note=66 velocity=0 time=32
note_on channel=0 note=69 velocity=80 time=16
note_on channel=0 note=69 velocity=0 time=32
note_on channel=0 note=74 velocity=80 time=16
note_on channel=0 note=74 velocity=0 time=64
note_on channel=0 note=67 velocity=80 time=5
note_on channel=0 note=67 velocity=0 time=10
note_on channel=0 note=69 velocity=80 time=0
note_on channel=0 note=69 velocity=0 time=10
note_on channel=0 note=70 velocity=80 time=7
note_on channel=0 note=70 velocity=0 time=32
note_on channel=0 note=69 velocity=80 time=16
note_on channel=0 note=69 velocity=0 time=32
note_on channel=0 note=67 velocity=80 time=16
note_on channel=0 note=67 velocity=0 time=32
note_on channel=0 note=70 velocity=80 time=16
note_on channel=0 note=70 velocity=0 time=64
note_on channel=0 note=69 velocity=80 time=32
note_on channel=0 note=69 velocity=0 time=32
note_on channel=0 note=67 velocity=80 time=16
note_on channel=0 note=67 velocity=0 time=64
note_on channel=0 note=69 velocity=80 time=32
note_on channel=0 note=69 velocity=0 time=64
note_on channel=0 note=67 velocity=80 time=32
note_on channel=0 note=67 velocity=0 time=32
note_on channel=0 note=66 velocity=80 time=16
note_on channel=0 note=74 velocity=80 time=96
note_on channel=0 note=74 velocity=0 time=32
note_on channel=0 note=81 velocity=80 time=16
note_on channel=0 note=66 velocity=0 time=32
note_on channel=0 note=81 velocity=0 time=32
note_on channel=0 note=69 velocity=80 time=5
note_on channel=0 note=69 velocity=0 time=10
note_on channel=0 note=70 velocity=80 time=0
note_on channel=0 note=70 velocity=0 time=10
note_on channel=0 note=72 velocity=80 time=7
note_on channel=0 note=72 velocity=0 time=32
note_on channel=0 note=70 velocity=80 time=16
note_on channel=0 note=70 velocity=0 time=32
note_on channel=0 note=69 velocity=80 time=16
note_on channel=0 note=69 velocity=0 time=32
note_on channel=0 note=72 velocity=80 time=16
note_on channel=0 note=72 velocity=0 time=64
note_on channel=0 note=70 velocity=80 time=32
note_on channel=0 note=70 velocity=0 time=32
note_on channel=0 note=69 velocity=80 time=16
note_on channel=0 note=69 velocity=0 time=64
note_on channel=0 note=70 velocity=80 time=32
note_on channel=0 note=70 velocity=0 time=64
note_on channel=0 note=69 velocity=80 time=32
note_on channel=0 note=69 velocity=0 time=32
note_on channel=0 note=67 velocity=80 time=16
note_on channel=0 note=74 velocity=80 time=96
note_on channel=0 note=74 velocity=0 time=32
note_on channel=0 note=82 velocity=80 time=16
note_on channel=0 note=67 velocity=0 time=32
note_on channel=0 note=82 velocity=0 time=32
note_on channel=0 note=67 velocity=80 time=5
note_on channel=0 note=67 velocity=0 time=10
note_on channel=0 note=69 velocity=80 time=0
note_on channel=0 note=69 velocity=0 time=10
note_on channel=0 note=70 velocity=80 time=7
note_on channel=0 note=70 velocity=0 time=32
note_on channel=0 note=69 velocity=80 time=16
note_on channel=0 note=69 velocity=0 time=32
note_on channel=0 note=67 velocity=80 time=16
note_on channel=0 note=67 velocity=0 time=32
note_on channel=0 note=69 velocity=80 time=16
note_on channel=0 note=69 velocity=0 time=32
note_on channel=0 note=70 velocity=80 time=16
note_on channel=0 note=70 velocity=0 time=32
note_on channel=0 note=72 velocity=80 time=16
note_on channel=0 note=72 velocity=0 time=64
note_on channel=0 note=74 velocity=80 time=32
note_on channel=0 note=74 velocity=0 time=32
note_on channel=0 note=75 velocity=80 time=16
note_on channel=0 note=75 velocity=0 time=64
note_on channel=0 note=74 velocity=80 time=32
note_on channel=0 note=74 velocity=0 time=32
note_on channel=0 note=72 velocity=80 time=16
note_on channel=0 note=79 velocity=80 time=96
note_on channel=0 note=79 velocity=0 time=32
note_on channel=0 note=87 velocity=80 time=16
note_on channel=0 note=72 velocity=0 time=32
note_on channel=0 note=87 velocity=0 time=32
note_on channel=0 note=72 velocity=80 time=5
note_on channel=0 note=72 velocity=0 time=10
note_on channel=0 note=74 velocity=80 time=0
note_on channel=0 note=74 velocity=0 time=10
note_on channel=0 note=75 velocity=80 time=7
note_on channel=0 note=75 velocity=0 time=32
note_on channel=0 note=74 velocity=80 time=16
note_on channel=0 note=74 velocity=0 time=32
note_on channel=0 note=72 velocity=80 time=16
note_on channel=0 note=72 velocity=0 time=32
note_on channel=0 note=70 velocity=80 time=16
note_on channel=0 note=70 velocity=0 time=32
note_on channel=0 note=69 velocity=80 time=16
note_on channel=0 note=69 velocity=0 time=32
note_on channel=0 note=67 velocity=80 time=16
note_on channel=0 note=67 velocity=0 time=64
note_on channel=0 note=69 velocity=80 time=32
note_on channel=0 note=69 velocity=0 time=32
note_on channel=0 note=66 velocity=80 time=16
note_on channel=0 note=66 velocity=0 time=64
note_on channel=0 note=69 velocity=80 time=32
note_on channel=0 note=69 velocity=0 time=32
note_on channel=0 note=74 velocity=80 time=16
note_on channel=0 note=66 velocity=80 time=0
note_on channel=0 note=66 velocity=0 time=176
note_on channel=0 note=74 velocity=0 time=0
note_on channel=0 note=67 velocity=80 time=37
note_on channel=0 note=67 velocity=0 time=10
note_on channel=0 note=69 velocity=80 time=0
note_on channel=0 note=69 velocity=0 time=10
note_on channel=0 note=70 velocity=80 time=7
note_on channel=0 note=70 velocity=0 time=32
note_on channel=0 note=69 velocity=80 time=16
note_on channel=0 note=69 velocity=0 time=32
note_on channel=0 note=67 velocity=80 time=16
note_on channel=0 note=67 velocity=0 time=32
note_on channel=0 note=70 velocity=80 time=16
note_on channel=0 note=70 velocity=0 time=64
note_on channel=0 note=69 velocity=80 time=32
note_on channel=0 note=69 velocity=0 time=32
note_on channel=0 note=67 velocity=80 time=16
note_on channel=0 note=67 velocity=0 time=64
note_on channel=0 note=69 velocity=80 time=32
note_on channel=0 note=69 velocity=0 time=64
note_on channel=0 note=67 velocity=80 time=32
note_on channel=0 note=67 velocity=0 time=32
note_on channel=0 note=66 velocity=80 time=16
note_on channel=0 note=74 velocity=80 time=96
note_on channel=0 note=74 velocity=0 time=32
note_on channel=0 note=81 velocity=80 time=16
note_on channel=0 note=66 velocity=0 time=32
note_on channel=0 note=81 velocity=0 time=32
note_on channel=0 note=69 velocity=80 time=5
note_on channel=0 note=69 velocity=0 time=10
note_on channel=0 note=70 velocity=80 time=0
note_on channel=0 note=70 velocity=0 time=10
note_on channel=0 note=72 velocity=80 time=7
note_on channel=0 note=72 velocity=0 time=32
note_on channel=0 note=70 velocity=80 time=16
note_on channel=0 note=70 velocity=0 time=32
note_on channel=0 note=69 velocity=80 time=16
note_on channel=0 note=69 velocity=0 time=32
note_on channel=0 note=72 velocity=80 time=16
note_on channel=0 note=72 velocity=0 time=64
note_on channel=0 note=70 velocity=80 time=32
note_on channel=0 note=70 velocity=0 time=32
note_on channel=0 note=69 velocity=80 time=16
note_on channel=0 note=69 velocity=0 time=64
note_on channel=0 note=70 velocity=80 time=32
note_on channel=0 note=70 velocity=0 time=64
note_on channel=0 note=69 velocity=80 time=32
note_on channel=0 note=69 velocity=0 time=32
note_on channel=0 note=67 velocity=80 time=16
note_on channel=0 note=74 velocity=80 time=96
note_on channel=0 note=74 velocity=0 time=32
note_on channel=0 note=82 velocity=80 time=16
note_on channel=0 note=67 velocity=0 time=32
note_on channel=0 note=82 velocity=0 time=32
note_on channel=0 note=67 velocity=80 time=5
note_on channel=0 note=67 velocity=0 time=10
note_on channel=0 note=69 velocity=80 time=0
note_on channel=0 note=69 velocity=0 time=10
note_on channel=0 note=70 velocity=80 time=7
note_on channel=0 note=70 velocity=0 time=32
note_on channel=0 note=69 velocity=80 time=16
note_on channel=0 note=69 velocity=0 time=32
note_on channel=0 note=67 velocity=80 time=16
note_on channel=0 note=67 velocity=0 time=32
note_on channel=0 note=69 velocity=80 time=16
note_on channel=0 note=69 velocity=0 time=32
note_on channel=0 note=70 velocity=80 time=16
note_on channel=0 note=70 velocity=0 time=32
note_on channel=0 note=72 velocity=80 time=16
note_on channel=0 note=72 velocity=0 time=64
note_on channel=0 note=74 velocity=80 time=32
note_on channel=0 note=74 velocity=0 time=32
note_on channel=0 note=75 velocity=80 time=16
note_on channel=0 note=75 velocity=0 time=64
note_on channel=0 note=74 velocity=80 time=32
note_on channel=0 note=74 velocity=0 time=32
note_on channel=0 note=72 velocity=80 time=16
note_on channel=0 note=79 velocity=80 time=96
note_on channel=0 note=79 velocity=0 time=32
note_on channel=0 note=87 velocity=80 time=16
note_on channel=0 note=72 velocity=0 time=32
note_on channel=0 note=87 velocity=0 time=32
note_on channel=0 note=70 velocity=80 time=5
note_on channel=0 note=70 velocity=0 time=10
note_on channel=0 note=72 velocity=80 time=0
note_on channel=0 note=72 velocity=0 time=10
note_on channel=0 note=74 velocity=80 time=7
note_on channel=0 note=74 velocity=0 time=32
note_on channel=0 note=72 velocity=80 time=16
note_on channel=0 note=72 velocity=0 time=32
note_on channel=0 note=70 velocity=80 time=16
note_on channel=0 note=70 velocity=0 time=32
note_on channel=0 note=69 velocity=80 time=16
note_on channel=0 note=69 velocity=0 time=64
note_on channel=0 note=72 velocity=80 time=32
note_on channel=0 note=72 velocity=0 time=32
note_on channel=0 note=70 velocity=80 time=16
note_on channel=0 note=70 velocity=0 time=32
note_on channel=0 note=69 velocity=80 time=16
note_on channel=0 note=69 velocity=0 time=32
note_on channel=0 note=67 velocity=80 time=16
note_on channel=0 note=67 velocity=0 time=64
note_on channel=0 note=69 velocity=80 time=32
note_on channel=0 note=69 velocity=0 time=32
note_on channel=0 note=70 velocity=80 time=16
note_on channel=0 note=70 velocity=0 time=32
note_on channel=0 note=72 velocity=80 time=16
note_on channel=0 note=72 velocity=0 time=144
note_on channel=0 note=72 velocity=80 time=21
note_on channel=0 note=72 velocity=0 time=10
note_on channel=0 note=73 velocity=80 time=0
note_on channel=0 note=73 velocity=0 time=10
note_on channel=0 note=74 velocity=80 time=7
note_on channel=0 note=74 velocity=0 time=64
note_on channel=0 note=67 velocity=80 time=128
note_on channel=0 note=72 velocity=80 time=0
note_on channel=0 note=72 velocity=0 time=32
note_on channel=0 note=67 velocity=0 time=0
note_on channel=0 note=70 velocity=80 time=16
note_on channel=0 note=73 velocity=80 time=0
note_on channel=0 note=73 velocity=0 time=64
note_on channel=0 note=70 velocity=0 time=0
note_on channel=0 note=74 velocity=80 time=32
note_on channel=0 note=70 velocity=80 time=0
note_on channel=0 note=65 velocity=80 time=0
note_on channel=0 note=65 velocity=0 time=112
note_on channel=0 note=70 velocity=0 time=0
note_on channel=0 note=74 velocity=0 time=0
note_on channel=0 note=79 velocity=80 time=32
note_on channel=0 note=73 velocity=80 time=0
note_on channel=0 note=73 velocity=0 time=32
note_on channel=0 note=79 velocity=0 time=0
note_on channel=0 note=77 velocity=80 time=16
note_on channel=0 note=74 velocity=80 time=0
note_on channel=0 note=74 velocity=0 time=64
note_on channel=0 note=77 velocity=0 time=0
note_on channel=0 note=82 velocity=80 time=32
note_on channel=0 note=74 velocity=80 time=0
note_on channel=0 note=74 velocity=0 time=96
note_on channel=0 note=82 velocity=0 time=0
note_on channel=0 note=72 velocity=80 time=21
note_on channel=0 note=72 velocity=0 time=10
note_on channel=0 note=73 velocity=80 time=0
note_on channel=0 note=73 velocity=0 time=10
note_on channel=0 note=74 velocity=80 time=7
note_on channel=0 note=74 velocity=0 time=64
note_on channel=0 note=67 velocity=80 time=128
note_on channel=0 note=72 velocity=80 time=0
note_on channel=0 note=72 velocity=0 time=32
note_on channel=0 note=67 velocity=0 time=0
note_on channel=0 note=70 velocity=80 time=16
note_on channel=0 note=73 velocity=80 time=0
note_on channel=0 note=73 velocity=0 time=64
note_on channel=0 note=70 velocity=0 time=0
note_on channel=0 note=74 velocity=80 time=32
note_on channel=0 note=70 velocity=80 time=0
note_on channel=0 note=65 velocity=80 time=0
note_on channel=0 note=62 velocity=80 time=240
note_on channel=0 note=62 velocity=0 time=32
note_on channel=0 note=74 velocity=0 time=0
note_on channel=0 note=70 velocity=0 time=0
note_on channel=0 note=65 velocity=0 time=0
note_on channel=0 note=65 velocity=80 time=16
note_on channel=0 note=65 velocity=0 time=32
note_on channel=0 note=68 velocity=80 time=16
note_on channel=0 note=77 velocity=80 time=0
note_on channel=0 note=74 velocity=80 time=0
note_on channel=0 note=70 velocity=80 time=0
note_on channel=0 note=68 velocity=0 time=48
note_on channel=0 note=77 velocity=0 time=16
note_on channel=0 note=74 velocity=0 time=0
note_on channel=0 note=70 velocity=0 time=0
note_on channel=0 note=65 velocity=80 time=5
note_on channel=0 note=65 velocity=0 time=10
note_on channel=0 note=66 velocity=80 time=0
note_on channel=0 note=66 velocity=0 time=10
note_on channel=0 note=70 velocity=80 time=7
note_on channel=0 note=75 velocity=80 time=0
note_on channel=0 note=79 velocity=80 time=0
note_on channel=0 note=67 velocity=80 time=0
note_on channel=0 note=79 velocity=0 time=32
note_on channel=0 note=82 velocity=80 time=16
note_on channel=0 note=70 velocity=0 time=16
note_on channel=0 note=75 velocity=0 time=0
note_on channel=0 note=82 velocity=0 time=16
note_on channel=0 note=70 velocity=80 time=16
note_on channel=0 note=75 velocity=80 time=0
note_on channel=0 note=79 velocity=80 time=0
note_on channel=0 note=67 velocity=0 time=48
note_on channel=0 note=70 velocity=0 time=16
note_on channel=0 note=75 velocity=0 time=0
note_on channel=0 note=79 velocity=0 time=0
note_on channel=0 note=60 velocity=80 time=8
note_on channel=0 note=61 velocity=80 time=9
note_on channel=0 note=60 velocity=0 time=1
note_on channel=0 note=61 velocity=0 time=9
note_on channel=0 note=70 velocity=80 time=5
note_on channel=0 note=65 velocity=80 time=0
note_on channel=0 note=74 velocity=80 time=0
note_on channel=0 note=62 velocity=80 time=0
note_on channel=0 note=74 velocity=0 time=32
note_on channel=0 note=77 velocity=80 time=16
note_on channel=0 note=70 velocity=0 time=16
note_on channel=0 note=65 velocity=0 time=0
note_on channel=0 note=77 velocity=0 time=16
note_on channel=0 note=65 velocity=80 time=16
note_on channel=0 note=70 velocity=80 time=0
note_on channel=0 note=74 velocity=80 time=0
note_on channel=0 note=62 velocity=0 time=48
note_on channel=0 note=65 velocity=0 time=16
note_on channel=0 note=70 velocity=0 time=0
note_on channel=0 note=74 velocity=0 time=0
note_on channel=0 note=58 velocity=80 time=32
note_on channel=0 note=63 velocity=80 time=0
note_on channel=0 note=67 velocity=80 time=0
note_on channel=0 note=67 velocity=0 time=32
note_on channel=0 note=70 velocity=80 time=16
note_on channel=0 note=63 velocity=0 time=16
note_on channel=0 note=58 velocity=0 time=0
note_on channel=0 note=70 velocity=0 time=16
note_on channel=0 note=67 velocity=80 time=16
note_on channel=0 note=63 velocity=80 time=0
note_on channel=0 note=58 velocity=80 time=0
note_on channel=0 note=58 velocity=0 time=64
note_on channel=0 note=63 velocity=0 time=0
note_on channel=0 note=67 velocity=0 time=0
note_on channel=0 note=58 velocity=80 time=32
note_on channel=0 note=53 velocity=80 time=0
note_on channel=0 note=62 velocity=80 time=0
note_on channel=0 note=62 velocity=0 time=32
note_on channel=0 note=65 velocity=80 time=16
note_on channel=0 note=53 velocity=0 time=16
note_on channel=0 note=58 velocity=0 time=0
note_on channel=0 note=65 velocity=0 time=16
note_on channel=0 note=53 velocity=80 time=16
note_on channel=0 note=58 velocity=80 time=0
note_on channel=0 note=62 velocity=80 time=0
note_on channel=0 note=62 velocity=0 time=64
note_on channel=0 note=58 velocity=0 time=0
note_on channel=0 note=53 velocity=0 time=0
note_on channel=0 note=66 velocity=80 time=32
note_on channel=0 note=72 velocity=80 time=0
note_on channel=0 note=72 velocity=0 time=32
note_on channel=0 note=66 velocity=0 time=0
note_on channel=0 note=67 velocity=80 time=16
note_on channel=0 note=70 velocity=80 time=0
note_on channel=0 note=70 velocity=0 time=64
note_on channel=0 note=67 velocity=0 time=0
note_on channel=0 note=67 velocity=80 time=32
note_on channel=0 note=70 velocity=80 time=0
note_on channel=0 note=70 velocity=0 time=176
note_on channel=0 note=67 velocity=0 time=0
note_on channel=0 note=67 velocity=80 time=64
note_on channel=0 note=74 velocity=80 time=0
note_on channel=0 note=74 velocity=0 time=32
note_on channel=0 note=72 velocity=80 time=16
note_on channel=0 note=67 velocity=0 time=48
note_on channel=0 note=72 velocity=0 time=16
note_on channel=0 note=70 velocity=80 time=32
note_on channel=0 note=67 velocity=80 time=0
note_on channel=0 note=67 velocity=0 time=64
note_on channel=0 note=70 velocity=0 time=0
note_on channel=0 note=72 velocity=80 time=32
note_on channel=0 note=72 velocity=0 time=32
note_on channel=0 note=67 velocity=80 time=16
note_on channel=0 note=67 velocity=0 time=64
note_on channel=0 note=67 velocity=80 time=32
note_on channel=0 note=61 velocity=80 time=0
note_on channel=0 note=61 velocity=0 time=32
note_on channel=0 note=67 velocity=0 time=0
note_on channel=0 note=65 velocity=80 time=16
note_on channel=0 note=62 velocity=80 time=0
note_on channel=0 note=62 velocity=0 time=64
note_on channel=0 note=65 velocity=0 time=0
note_on channel=0 note=70 velocity=80 time=32
note_on channel=0 note=62 velocity=80 time=0
note_on channel=0 note=62 velocity=0 time=304
note_on channel=0 note=70 velocity=0 time=0
note_on channel=0 note=62 velocity=80 time=32
note_on channel=0 note=62 velocity=0 time=32
note_on channel=0 note=65 velocity=80 time=16
note_on channel=0 note=65 velocity=0 time=32
note_on channel=0 note=70 velocity=80 time=16
note_on channel=0 note=70 velocity=0 time=32
note_on channel=0 note=72 velocity=80 time=16
note_on channel=0 note=72 velocity=0 time=32
note_on channel=0 note=74 velocity=80 time=16
note_on channel=0 note=74 velocity=0 time=32
note_on channel=0 note=77 velocity=80 time=16
note_on channel=0 note=77 velocity=0 time=32
note_on channel=0 note=79 velocity=80 time=16
note_on channel=0 note=75 velocity=80 time=0
note_on channel=0 note=69 velocity=80 time=0
note_on channel=0 note=69 velocity=0 time=32
note_on channel=0 note=75 velocity=0 time=0
note_on channel=0 note=79 velocity=0 time=0
note_on channel=0 note=71 velocity=80 time=16
note_on channel=0 note=71 velocity=0 time=32
note_on channel=0 note=72 velocity=80 time=16
note_on channel=0 note=72 velocity=0 time=32
note_on channel=0 note=77 velocity=80 time=16
note_on channel=0 note=75 velocity=80 time=0
note_on channel=0 note=69 velocity=80 time=0
note_on channel=0 note=69 velocity=0 time=304
note_on channel=0 note=75 velocity=0 time=0
note_on channel=0 note=77 velocity=0 time=0
note_on channel=0 note=79 velocity=80 time=32
note_on channel=0 note=79 velocity=0 time=32
note_on channel=0 note=77 velocity=80 time=16
note_on channel=0 note=75 velocity=80 time=0
note_on channel=0 note=69 velocity=80 time=0
note_on channel=0 note=69 velocity=0 time=64
note_on channel=0 note=75 velocity=0 time=0
note_on channel=0 note=77 velocity=0 time=0
note_on channel=0 note=79 velocity=80 time=32
note_on channel=0 note=79 velocity=0 time=32
note_on channel=0 note=69 velocity=80 time=16
note_on channel=0 note=75 velocity=80 time=0
note_on channel=0 note=77 velocity=80 time=0
note_on channel=0 note=77 velocity=0 time=64
note_on channel=0 note=75 velocity=0 time=0
note_on channel=0 note=69 velocity=0 time=0
note_on channel=0 note=70 velocity=80 time=5
note_on channel=0 note=70 velocity=0 time=10
note_on channel=0 note=74 velocity=80 time=0
note_on channel=0 note=74 velocity=0 time=10
note_on channel=0 note=70 velocity=80 time=7
note_on channel=0 note=74 velocity=80 time=0
note_on channel=0 note=79 velocity=80 time=0
note_on channel=0 note=79 velocity=0 time=32
note_on channel=0 note=74 velocity=0 time=0
note_on channel=0 note=70 velocity=0 time=0
note_on channel=0 note=73 velocity=80 time=16
note_on channel=0 note=73 velocity=0 time=32
note_on channel=0 note=74 velocity=80 time=16
note_on channel=0 note=74 velocity=0 time=32
note_on channel=0 note=77 velocity=80 time=16
note_on channel=0 note=74 velocity=80 time=0
note_on channel=0 note=70 velocity=80 time=0
note_on channel=0 note=70 velocity=0 time=272
note_on channel=0 note=74 velocity=0 time=0
note_on channel=0 note=77 velocity=0 time=0
note_on channel=0 note=79 velocity=80 time=16
note_on channel=0 note=79 velocity=0 time=32
note_on channel=0 note=77 velocity=80 time=16
note_on channel=0 note=74 velocity=80 time=0
note_on channel=0 note=68 velocity=80 time=0
note_on channel=0 note=68 velocity=0 time=32
note_on channel=0 note=74 velocity=0 time=0
note_on channel=0 note=77 velocity=0 time=0
note_on channel=0 note=69 velocity=80 time=16
note_on channel=0 note=75 velocity=80 time=0
note_on channel=0 note=75 velocity=0 time=64
note_on channel=0 note=69 velocity=0 time=0
note_on channel=0 note=77 velocity=80 time=32
note_on channel=0 note=77 velocity=0 time=32
note_on channel=0 note=75 velocity=80 time=16
note_on channel=0 note=69 velocity=80 time=0
note_on channel=0 note=69 velocity=0 time=48
note_on channel=0 note=75 velocity=0 time=0
note_on channel=0 note=72 velocity=80 time=21
note_on channel=0 note=72 velocity=0 time=10
note_on channel=0 note=73 velocity=80 time=0
note_on channel=0 note=73 velocity=0 time=10
note_on channel=0 note=74 velocity=80 time=7
note_on channel=0 note=74 velocity=0 time=64
note_on channel=0 note=67 velocity=80 time=128
note_on channel=0 note=72 velocity=80 time=0
note_on channel=0 note=72 velocity=0 time=32
note_on channel=0 note=67 velocity=0 time=0
note_on channel=0 note=70 velocity=80 time=16
note_on channel=0 note=73 velocity=80 time=0
note_on channel=0 note=73 velocity=0 time=64
note_on channel=0 note=70 velocity=0 time=0
note_on channel=0 note=74 velocity=80 time=32
note_on channel=0 note=70 velocity=80 time=0
note_on channel=0 note=65 velocity=80 time=0
note_on channel=0 note=65 velocity=0 time=112
note_on channel=0 note=70 velocity=0 time=0
note_on channel=0 note=74 velocity=0 time=0
note_on channel=0 note=79 velocity=80 time=32
note_on channel=0 note=73 velocity=80 time=0
note_on channel=0 note=73 velocity=0 time=32
note_on channel=0 note=79 velocity=0 time=0
note_on channel=0 note=77 velocity=80 time=16
note_on channel=0 note=74 velocity=80 time=0
note_on channel=0 note=74 velocity=0 time=64
note_on channel=0 note=77 velocity=0 time=0
note_on channel=0 note=82 velocity=80 time=32
note_on channel=0 note=74 velocity=80 time=0
note_on channel=0 note=74 velocity=0 time=96
note_on channel=0 note=82 velocity=0 time=0
note_on channel=0 note=72 velocity=80 time=21
note_on channel=0 note=72 velocity=0 time=10
note_on channel=0 note=73 velocity=80 time=0
note_on channel=0 note=73 velocity=0 time=10
note_on channel=0 note=74 velocity=80 time=7
note_on channel=0 note=74 velocity=0 time=64
note_on channel=0 note=67 velocity=80 time=128
note_on channel=0 note=72 velocity=80 time=0
note_on channel=0 note=72 velocity=0 time=32
note_on channel=0 note=67 velocity=0 time=0
note_on channel=0 note=70 velocity=80 time=16
note_on channel=0 note=73 velocity=80 time=0
note_on channel=0 note=73 velocity=0 time=64
note_on channel=0 note=70 velocity=0 time=0
note_on channel=0 note=74 velocity=80 time=32
note_on channel=0 note=70 velocity=80 time=0
note_on channel=0 note=65 velocity=80 time=0
note_on channel=0 note=62 velocity=80 time=240
note_on channel=0 note=62 velocity=0 time=32
note_on channel=0 note=74 velocity=0 time=0
note_on channel=0 note=70 velocity=0 time=0
note_on channel=0 note=65 velocity=0 time=0
note_on channel=0 note=65 velocity=80 time=16
note_on channel=0 note=65 velocity=0 time=32
note_on channel=0 note=68 velocity=80 time=16
note_on channel=0 note=77 velocity=80 time=0
note_on channel=0 note=74 velocity=80 time=0
note_on channel=0 note=70 velocity=80 time=0
note_on channel=0 note=68 velocity=0 time=48
note_on channel=0 note=77 velocity=0 time=16
note_on channel=0 note=74 velocity=0 time=0
note_on channel=0 note=70 velocity=0 time=0
note_on channel=0 note=65 velocity=80 time=5
note_on channel=0 note=65 velocity=0 time=10
note_on channel=0 note=66 velocity=80 time=0
note_on channel=0 note=66 velocity=0 time=10
note_on channel=0 note=70 velocity=80 time=7
note_on channel=0 note=75 velocity=80 time=0
note_on channel=0 note=79 velocity=80 time=0
note_on channel=0 note=67 velocity=80 time=0
note_on channel=0 note=79 velocity=0 time=32
note_on channel=0 note=82 velocity=80 time=16
note_on channel=0 note=70 velocity=0 time=16
note_on channel=0 note=75 velocity=0 time=0
note_on channel=0 note=82 velocity=0 time=16
note_on channel=0 note=70 velocity=80 time=16
note_on channel=0 note=75 velocity=80 time=0
note_on channel=0 note=79 velocity=80 time=0
note_on channel=0 note=67 velocity=0 time=48
note_on channel=0 note=70 velocity=0 time=16
note_on channel=0 note=75 velocity=0 time=0
note_on channel=0 note=79 velocity=0 time=0
note_on channel=0 note=60 velocity=80 time=8
note_on channel=0 note=61 velocity=80 time=9
note_on channel=0 note=60 velocity=0 time=1
note_on channel=0 note=61 velocity=0 time=9
note_on channel=0 note=70 velocity=80 time=5
note_on channel=0 note=65 velocity=80 time=0
note_on channel=0 note=74 velocity=80 time=0
note_on channel=0 note=62 velocity=80 time=0
note_on channel=0 note=74 velocity=0 time=32
note_on channel=0 note=77 velocity=80 time=16
note_on channel=0 note=70 velocity=0 time=16
note_on channel=0 note=65 velocity=0 time=0
note_on channel=0 note=77 velocity=0 time=16
note_on channel=0 note=65 velocity=80 time=16
note_on channel=0 note=70 velocity=80 time=0
note_on channel=0 note=74 velocity=80 time=0
note_on channel=0 note=62 velocity=0 time=48
note_on channel=0 note=65 velocity=0 time=16
note_on channel=0 note=70 velocity=0 time=0
note_on channel=0 note=74 velocity=0 time=0
note_on channel=0 note=58 velocity=80 time=32
note_on channel=0 note=63 velocity=80 time=0
note_on channel=0 note=67 velocity=80 time=0
note_on channel=0 note=67 velocity=0 time=32
note_on channel=0 note=70 velocity=80 time=16
note_on channel=0 note=63 velocity=0 time=16
note_on channel=0 note=58 velocity=0 time=0
note_on channel=0 note=70 velocity=0 time=16
note_on channel=0 note=67 velocity=80 time=16
note_on channel=0 note=63 velocity=80 time=0
note_on channel=0 note=58 velocity=80 time=0
note_on channel=0 note=58 velocity=0 time=64
note_on channel=0 note=63 velocity=0 time=0
note_on channel=0 note=67 velocity=0 time=0
note_on channel=0 note=58 velocity=80 time=32
note_on channel=0 note=53 velocity=80 time=0
note_on channel=0 note=62 velocity=80 time=0
note_on channel=0 note=62 velocity=0 time=32
note_on channel=0 note=65 velocity=80 time=16
note_on channel=0 note=53 velocity=0 time=16
note_on channel=0 note=58 velocity=0 time=0
note_on channel=0 note=65 velocity=0 time=16
note_on channel=0 note=53 velocity=80 time=16
note_on channel=0 note=58 velocity=80 time=0
note_on channel=0 note=62 velocity=80 time=0
note_on channel=0 note=62 velocity=0 time=64
note_on channel=0 note=58 velocity=0 time=0
note_on channel=0 note=53 velocity=0 time=0
note_on channel=0 note=58 velocity=80 time=32
note_on channel=0 note=58 velocity=0 time=32
note_on channel=0 note=60 velocity=80 time=16
note_on channel=0 note=60 velocity=0 time=64
note_on channel=0 note=62 velocity=80 time=32
note_on channel=0 note=62 velocity=0 time=64
note_on channel=0 note=60 velocity=80 time=32
note_on channel=0 note=60 velocity=0 time=32
note_on channel=0 note=58 velocity=80 time=16
note_on channel=0 note=58 velocity=0 time=64
note_on channel=0 note=74 velocity=80 time=32
note_on channel=0 note=74 velocity=0 time=32
note_on channel=0 note=72 velocity=80 time=16
note_on channel=0 note=72 velocity=0 time=64
note_on channel=0 note=70 velocity=80 time=32
note_on channel=0 note=70 velocity=0 time=64
note_on channel=0 note=69 velocity=80 time=32
note_on channel=0 note=69 velocity=0 time=32
note_on channel=0 note=67 velocity=80 time=16
note_on channel=0 note=67 velocity=0 time=64
note_on channel=0 note=70 velocity=80 time=5
note_on channel=0 note=70 velocity=0 time=10
note_on channel=0 note=74 velocity=80 time=0
note_on channel=0 note=74 velocity=0 time=10
note_on channel=0 note=70 velocity=80 time=7
note_on channel=0 note=74 velocity=80 time=0
note_on channel=0 note=79 velocity=80 time=0
note_on channel=0 note=79 velocity=0 time=32
note_on channel=0 note=74 velocity=0 time=0
note_on channel=0 note=70 velocity=0 time=0
note_on channel=0 note=77 velocity=80 time=16
note_on channel=0 note=77 velocity=0 time=32
note_on channel=0 note=74 velocity=80 time=16
note_on channel=0 note=70 velocity=80 time=0
note_on channel=0 note=70 velocity=0 time=32
note_on channel=0 note=74 velocity=0 time=0
note_on channel=0 note=75 velocity=80 time=16
note_on channel=0 note=69 velocity=80 time=0
note_on channel=0 note=69 velocity=0 time=64
note_on channel=0 note=75 velocity=0 time=0
note_on channel=0 note=77 velocity=80 time=32
note_on channel=0 note=77 velocity=0 time=32
note_on channel=0 note=67 velocity=80 time=16
note_on channel=0 note=67 velocity=0 time=32
note_on channel=0 note=69 velocity=80 time=16
note_on channel=0 note=69 velocity=0 time=32
note_on channel=0 note=70 velocity=80 time=16
note_on channel=0 note=70 velocity=0 time=64
note_on channel=0 note=65 velocity=80 time=32
note_on channel=0 note=65 velocity=0 time=32
note_on channel=0 note=77 velocity=80 time=16
note_on channel=0 note=74 velocity=80 time=0
note_on channel=0 note=74 velocity=0 time=64
note_on channel=0 note=77 velocity=0 time=0
note_on channel=0 note=65 velocity=80 time=32
note_on channel=0 note=65 velocity=0 time=32
note_on channel=0 note=75 velocity=80 time=16
note_on channel=0 note=72 velocity=80 time=0
note_on channel=0 note=72 velocity=0 time=48
note_on channel=0 note=75 velocity=0 time=0
note_on channel=0 note=72 velocity=80 time=21
note_on channel=0 note=72 velocity=0 time=10
note_on channel=0 note=73 velocity=80 time=0
note_on channel=0 note=73 velocity=0 time=10
note_on channel=0 note=74 velocity=80 time=7
note_on channel=0 note=74 velocity=0 time=64
note_on channel=0 note=67 velocity=80 time=128
note_on channel=0 note=72 velocity=80 time=0
note_on channel=0 note=72 velocity=0 time=32
note_on channel=0 note=67 velocity=0 time=0
note_on channel=0 note=70 velocity=80 time=16
note_on channel=0 note=73 velocity=80 time=0
note_on channel=0 note=73 velocity=0 time=64
note_on channel=0 note=70 velocity=0 time=0
note_on channel=0 note=74 velocity=80 time=32
note_on channel=0 note=70 velocity=80 time=0
note_on channel=0 note=65 velocity=80 time=0
note_on channel=0 note=65 velocity=0 time=112
note_on channel=0 note=70 velocity=0 time=0
note_on channel=0 note=74 velocity=0 time=0
note_on channel=0 note=79 velocity=80 time=32
note_on channel=0 note=73 velocity=80 time=0
note_on channel=0 note=73 velocity=0 time=32
note_on channel=0 note=79 velocity=0 time=0
note_on channel=0 note=77 velocity=80 time=16
note_on channel=0 note=74 velocity=80 time=0
note_on channel=0 note=74 velocity=0 time=64
note_on channel=0 note=77 velocity=0 time=0
note_on channel=0 note=82 velocity=80 time=32
note_on channel=0 note=74 velocity=80 time=0
note_on channel=0 note=74 velocity=0 time=96
note_on channel=0 note=82 velocity=0 time=0
note_on channel=0 note=72 velocity=80 time=21
note_on channel=0 note=72 velocity=0 time=10
note_on channel=0 note=73 velocity=80 time=0
note_on channel=0 note=73 velocity=0 time=10
note_on channel=0 note=74 velocity=80 time=7
note_on channel=0 note=74 velocity=0 time=64
note_on channel=0 note=67 velocity=80 time=128
note_on channel=0 note=72 velocity=80 time=0
note_on channel=0 note=72 velocity=0 time=32
note_on channel=0 note=67 velocity=0 time=0
note_on channel=0 note=70 velocity=80 time=16
note_on channel=0 note=73 velocity=80 time=0
note_on channel=0 note=73 velocity=0 time=64
note_on channel=0 note=70 velocity=0 time=0
note_on channel=0 note=74 velocity=80 time=32
note_on channel=0 note=70 velocity=80 time=0
note_on channel=0 note=65 velocity=80 time=0
note_on channel=0 note=62 velocity=80 time=240
note_on channel=0 note=62 velocity=0 time=32
note_on channel=0 note=74 velocity=0 time=0
note_on channel=0 note=70 velocity=0 time=0
note_on channel=0 note=65 velocity=0 time=0
note_on channel=0 note=65 velocity=80 time=16
note_on channel=0 note=65 velocity=0 time=32
note_on channel=0 note=68 velocity=80 time=16
note_on channel=0 note=77 velocity=80 time=0
note_on channel=0 note=74 velocity=80 time=0
note_on channel=0 note=70 velocity=80 time=0
note_on channel=0 note=68 velocity=0 time=48
note_on channel=0 note=77 velocity=0 time=16
note_on channel=0 note=74 velocity=0 time=0
note_on channel=0 note=70 velocity=0 time=0
note_on channel=0 note=65 velocity=80 time=5
note_on channel=0 note=65 velocity=0 time=10
note_on channel=0 note=66 velocity=80 time=0
note_on channel=0 note=66 velocity=0 time=10
note_on channel=0 note=70 velocity=80 time=7
note_on channel=0 note=75 velocity=80 time=0
note_on channel=0 note=79 velocity=80 time=0
note_on channel=0 note=67 velocity=80 time=0
note_on channel=0 note=79 velocity=0 time=32
note_on channel=0 note=82 velocity=80 time=16
note_on channel=0 note=70 velocity=0 time=16
note_on channel=0 note=75 velocity=0 time=0
note_on channel=0 note=82 velocity=0 time=16
note_on channel=0 note=70 velocity=80 time=16
note_on channel=0 note=75 velocity=80 time=0
note_on channel=0 note=79 velocity=80 time=0
note_on channel=0 note=67 velocity=0 time=48
note_on channel=0 note=70 velocity=0 time=16
note_on channel=0 note=75 velocity=0 time=0
note_on channel=0 note=79 velocity=0 time=0
note_on channel=0 note=60 velocity=80 time=8
note_on channel=0 note=61 velocity=80 time=9
note_on channel=0 note=60 velocity=0 time=1
note_on channel=0 note=61 velocity=0 time=9
note_on channel=0 note=70 velocity=80 time=5
note_on channel=0 note=65 velocity=80 time=0
note_on channel=0 note=74 velocity=80 time=0
note_on channel=0 note=62 velocity=80 time=0
note_on channel=0 note=74 velocity=0 time=32
note_on channel=0 note=77 velocity=80 time=16
note_on channel=0 note=70 velocity=0 time=16
note_on channel=0 note=65 velocity=0 time=0
note_on channel=0 note=77 velocity=0 time=16
note_on channel=0 note=65 velocity=80 time=16
note_on channel=0 note=70 velocity=80 time=0
note_on channel=0 note=74 velocity=80 time=0
note_on channel=0 note=62 velocity=0 time=48
note_on channel=0 note=65 velocity=0 time=16
note_on channel=0 note=70 velocity=0 time=0
note_on channel=0 note=74 velocity=0 time=0
note_on channel=0 note=58 velocity=80 time=32
note_on channel=0 note=63 velocity=80 time=0
note_on channel=0 note=67 velocity=80 time=0
note_on channel=0 note=67 velocity=0 time=32
note_on channel=0 note=70 velocity=80 time=16
note_on channel=0 note=63 velocity=0 time=16
note_on channel=0 note=58 velocity=0 time=0
note_on channel=0 note=70 velocity=0 time=16
note_on channel=0 note=67 velocity=80 time=16
note_on channel=0 note=63 velocity=80 time=0
note_on channel=0 note=58 velocity=80 time=0
note_on channel=0 note=58 velocity=0 time=64
note_on channel=0 note=63 velocity=0 time=0
note_on channel=0 note=67 velocity=0 time=0
note_on channel=0 note=58 velocity=80 time=32
note_on channel=0 note=53 velocity=80 time=0
note_on channel=0 note=62 velocity=80 time=0
note_on channel=0 note=62 velocity=0 time=32
note_on channel=0 note=65 velocity=80 time=16
note_on channel=0 note=53 velocity=0 time=16
note_on channel=0 note=58 velocity=0 time=0
note_on channel=0 note=65 velocity=0 time=16
note_on channel=0 note=53 velocity=80 time=16
note_on channel=0 note=58 velocity=80 time=0
note_on channel=0 note=62 velocity=80 time=0
note_on channel=0 note=62 velocity=0 time=64
note_on channel=0 note=58 velocity=0 time=0
note_on channel=0 note=53 velocity=0 time=0
note_on channel=0 note=66 velocity=80 time=32
note_on channel=0 note=72 velocity=80 time=0
note_on channel=0 note=72 velocity=0 time=32
note_on channel=0 note=66 velocity=0 time=0
note_on channel=0 note=67 velocity=80 time=16
note_on channel=0 note=70 velocity=80 time=0
note_on channel=0 note=70 velocity=0 time=64
note_on channel=0 note=67 velocity=0 time=0
note_on channel=0 note=67 velocity=80 time=32
note_on channel=0 note=70 velocity=80 time=0
note_on channel=0 note=70 velocity=0 time=176
note_on channel=0 note=67 velocity=0 time=0
note_on channel=0 note=67 velocity=80 time=64
note_on channel=0 note=74 velocity=80 time=0
note_on channel=0 note=74 velocity=0 time=32
note_on channel=0 note=72 velocity=80 time=16
note_on channel=0 note=67 velocity=0 time=48
note_on channel=0 note=72 velocity=0 time=16
note_on channel=0 note=70 velocity=80 time=32
note_on channel=0 note=67 velocity=80 time=0
note_on channel=0 note=67 velocity=0 time=64
note_on channel=0 note=70 velocity=0 time=0
note_on channel=0 note=72 velocity=80 time=32
note_on channel=0 note=72 velocity=0 time=32
note_on channel=0 note=67 velocity=80 time=16
note_on channel=0 note=67 velocity=0 time=64
note_on channel=0 note=67 velocity=80 time=32
note_on channel=0 note=61 velocity=80 time=0
note_on channel=0 note=61 velocity=0 time=32
note_on channel=0 note=67 velocity=0 time=0
note_on channel=0 note=65 velocity=80 time=16
note_on channel=0 note=62 velocity=80 time=0
note_on channel=0 note=62 velocity=0 time=64
note_on channel=0 note=65 velocity=0 time=0
note_on channel=0 note=70 velocity=80 time=32
note_on channel=0 note=62 velocity=80 time=0
note_on channel=0 note=62 velocity=0 time=304
note_on channel=0 note=70 velocity=0 time=0
note_on channel=0 note=62 velocity=80 time=32
note_on channel=0 note=62 velocity=0 time=32
note_on channel=0 note=65 velocity=80 time=16
note_on channel=0 note=65 velocity=0 time=32
note_on channel=0 note=70 velocity=80 time=16
note_on channel=0 note=70 velocity=0 time=32
note_on channel=0 note=72 velocity=80 time=16
note_on channel=0 note=72 velocity=0 time=32
note_on channel=0 note=74 velocity=80 time=16
note_on channel=0 note=74 velocity=0 time=32
note_on channel=0 note=77 velocity=80 time=16
note_on channel=0 note=77 velocity=0 time=32
note_on channel=0 note=79 velocity=80 time=16
note_on channel=0 note=75 velocity=80 time=0
note_on channel=0 note=69 velocity=80 time=0
note_on channel=0 note=69 velocity=0 time=32
note_on channel=0 note=75 velocity=0 time=0
note_on channel=0 note=79 velocity=0 time=0
note_on channel=0 note=71 velocity=80 time=16
note_on channel=0 note=71 velocity=0 time=32
note_on channel=0 note=72 velocity=80 time=16
note_on channel=0 note=72 velocity=0 time=32
note_on channel=0 note=77 velocity=80 time=16
note_on channel=0 note=75 velocity=80 time=0
note_on channel=0 note=69 velocity=80 time=0
note_on channel=0 note=69 velocity=0 time=304
note_on channel=0 note=75 velocity=0 time=0
note_on channel=0 note=77 velocity=0 time=0
note_on channel=0 note=79 velocity=80 time=32
note_on channel=0 note=79 velocity=0 time=32
note_on channel=0 note=77 velocity=80 time=16
note_on channel=0 note=75 velocity=80 time=0
note_on channel=0 note=69 velocity=80 time=0
note_on channel=0 note=69 velocity=0 time=64
note_on channel=0 note=75 velocity=0 time=0
note_on channel=0 note=77 velocity=0 time=0
note_on channel=0 note=79 velocity=80 time=32
note_on channel=0 note=79 velocity=0 time=32
note_on channel=0 note=69 velocity=80 time=16
note_on channel=0 note=75 velocity=80 time=0
note_on channel=0 note=77 velocity=80 time=0
note_on channel=0 note=77 velocity=0 time=64
note_on channel=0 note=75 velocity=0 time=0
note_on channel=0 note=69 velocity=0 time=0
note_on channel=0 note=70 velocity=80 time=5
note_on channel=0 note=70 velocity=0 time=10
note_on channel=0 note=74 velocity=80 time=0
note_on channel=0 note=74 velocity=0 time=10
note_on channel=0 note=70 velocity=80 time=7
note_on channel=0 note=74 velocity=80 time=0
note_on channel=0 note=79 velocity=80 time=0
note_on channel=0 note=79 velocity=0 time=32
note_on channel=0 note=74 velocity=0 time=0
note_on channel=0 note=70 velocity=0 time=0
note_on channel=0 note=73 velocity=80 time=16
note_on channel=0 note=73 velocity=0 time=32
note_on channel=0 note=74 velocity=80 time=16
note_on channel=0 note=74 velocity=0 time=32
note_on channel=0 note=77 velocity=80 time=16
note_on channel=0 note=74 velocity=80 time=0
note_on channel=0 note=70 velocity=80 time=0
note_on channel=0 note=70 velocity=0 time=272
note_on channel=0 note=74 velocity=0 time=0
note_on channel=0 note=77 velocity=0 time=0
note_on channel=0 note=79 velocity=80 time=16
note_on channel=0 note=79 velocity=0 time=32
note_on channel=0 note=77 velocity=80 time=16
note_on channel=0 note=74 velocity=80 time=0
note_on channel=0 note=68 velocity=80 time=0
note_on channel=0 note=68 velocity=0 time=32
note_on channel=0 note=74 velocity=0 time=0
note_on channel=0 note=77 velocity=0 time=0
note_on channel=0 note=69 velocity=80 time=16
note_on channel=0 note=75 velocity=80 time=0
note_on channel=0 note=75 velocity=0 time=64
note_on channel=0 note=69 velocity=0 time=0
note_on channel=0 note=77 velocity=80 time=32
note_on channel=0 note=77 velocity=0 time=32
note_on channel=0 note=75 velocity=80 time=16
note_on channel=0 note=69 velocity=80 time=0
note_on channel=0 note=69 velocity=0 time=48
note_on channel=0 note=75 velocity=0 time=0
note_on channel=0 note=72 velocity=80 time=21
note_on channel=0 note=72 velocity=0 time=10
note_on channel=0 note=73 velocity=80 time=0
note_on channel=0 note=73 velocity=0 time=10
note_on channel=0 note=74 velocity=80 time=7
note_on channel=0 note=74 velocity=0 time=64
note_on channel=0 note=67 velocity=80 time=128
note_on channel=0 note=72 velocity=80 time=0
note_on channel=0 note=72 velocity=0 time=32
note_on channel=0 note=67 velocity=0 time=0
note_on channel=0 note=70 velocity=80 time=16
note_on channel=0 note=73 velocity=80 time=0
note_on channel=0 note=73 velocity=0 time=64
note_on channel=0 note=70 velocity=0 time=0
note_on channel=0 note=74 velocity=80 time=32
note_on channel=0 note=70 velocity=80 time=0
note_on channel=0 note=65 velocity=80 time=0
note_on channel=0 note=65 velocity=0 time=112
note_on channel=0 note=70 velocity=0 time=0
note_on channel=0 note=74 velocity=0 time=0
note_on channel=0 note=79 velocity=80 time=32
note_on channel=0 note=73 velocity=80 time=0
note_on channel=0 note=73 velocity=0 time=32
note_on channel=0 note=79 velocity=0 time=0
note_on channel=0 note=77 velocity=80 time=16
note_on channel=0 note=74 velocity=80 time=0
note_on channel=0 note=74 velocity=0 time=64
note_on channel=0 note=77 velocity=0 time=0
note_on channel=0 note=82 velocity=80 time=32
note_on channel=0 note=74 velocity=80 time=0
note_on channel=0 note=74 velocity=0 time=96
note_on channel=0 note=82 velocity=0 time=0
note_on channel=0 note=72 velocity=80 time=21
note_on channel=0 note=72 velocity=0 time=10
note_on channel=0 note=73 velocity=80 time=0
note_on channel=0 note=73 velocity=0 time=10
note_on channel=0 note=74 velocity=80 time=7
note_on channel=0 note=74 velocity=0 time=64
note_on channel=0 note=67 velocity=80 time=128
note_on channel=0 note=72 velocity=80 time=0
note_on channel=0 note=72 velocity=0 time=32
note_on channel=0 note=67 velocity=0 time=0
note_on channel=0 note=70 velocity=80 time=16
note_on channel=0 note=73 velocity=80 time=0
note_on channel=0 note=73 velocity=0 time=64
note_on channel=0 note=70 velocity=0 time=0
note_on channel=0 note=74 velocity=80 time=32
note_on channel=0 note=70 velocity=80 time=0
note_on channel=0 note=65 velocity=80 time=0
note_on channel=0 note=62 velocity=80 time=240
note_on channel=0 note=62 velocity=0 time=32
note_on channel=0 note=74 velocity=0 time=0
note_on channel=0 note=70 velocity=0 time=0
note_on channel=0 note=65 velocity=0 time=0
note_on channel=0 note=65 velocity=80 time=16
note_on channel=0 note=65 velocity=0 time=32
note_on channel=0 note=68 velocity=80 time=16
note_on channel=0 note=77 velocity=80 time=0
note_on channel=0 note=74 velocity=80 time=0
note_on channel=0 note=70 velocity=80 time=0
note_on channel=0 note=68 velocity=0 time=48
note_on channel=0 note=77 velocity=0 time=16
note_on channel=0 note=74 velocity=0 time=0
note_on channel=0 note=70 velocity=0 time=0
note_on channel=0 note=65 velocity=80 time=5
note_on channel=0 note=65 velocity=0 time=10
note_on channel=0 note=66 velocity=80 time=0
note_on channel=0 note=66 velocity=0 time=10
note_on channel=0 note=70 velocity=80 time=7
note_on channel=0 note=75 velocity=80 time=0
note_on channel=0 note=79 velocity=80 time=0
note_on channel=0 note=67 velocity=80 time=0
note_on channel=0 note=79 velocity=0 time=32
note_on channel=0 note=82 velocity=80 time=16
note_on channel=0 note=70 velocity=0 time=16
note_on channel=0 note=75 velocity=0 time=0
note_on channel=0 note=82 velocity=0 time=16
note_on channel=0 note=70 velocity=80 time=16
note_on channel=0 note=75 velocity=80 time=0
note_on channel=0 note=79 velocity=80 time=0
note_on channel=0 note=67 velocity=0 time=48
note_on channel=0 note=70 velocity=0 time=16
note_on channel=0 note=75 velocity=0 time=0
note_on channel=0 note=79 velocity=0 time=0
note_on channel=0 note=60 velocity=80 time=8
note_on channel=0 note=61 velocity=80 time=9
note_on channel=0 note=60 velocity=0 time=1
note_on channel=0 note=61 velocity=0 time=9
note_on channel=0 note=70 velocity=80 time=5
note_on channel=0 note=65 velocity=80 time=0
note_on channel=0 note=74 velocity=80 time=0
note_on channel=0 note=62 velocity=80 time=0
note_on channel=0 note=74 velocity=0 time=32
note_on channel=0 note=77 velocity=80 time=16
note_on channel=0 note=70 velocity=0 time=16
note_on channel=0 note=65 velocity=0 time=0
note_on channel=0 note=77 velocity=0 time=16
note_on channel=0 note=65 velocity=80 time=16
note_on channel=0 note=70 velocity=80 time=0
note_on channel=0 note=74 velocity=80 time=0
note_on channel=0 note=62 velocity=0 time=48
note_on channel=0 note=65 velocity=0 time=16
note_on channel=0 note=70 velocity=0 time=0
note_on channel=0 note=74 velocity=0 time=0
note_on channel=0 note=58 velocity=80 time=32
note_on channel=0 note=63 velocity=80 time=0
note_on channel=0 note=67 velocity=80 time=0
note_on channel=0 note=67 velocity=0 time=32
note_on channel=0 note=70 velocity=80 time=16
note_on channel=0 note=63 velocity=0 time=16
note_on channel=0 note=58 velocity=0 time=0
note_on channel=0 note=70 velocity=0 time=16
note_on channel=0 note=67 velocity=80 time=16
note_on channel=0 note=63 velocity=80 time=0
note_on channel=0 note=58 velocity=80 time=0
note_on channel=0 note=58 velocity=0 time=64
note_on channel=0 note=63 velocity=0 time=0
note_on channel=0 note=67 velocity=0 time=0
note_on channel=0 note=58 velocity=80 time=32
note_on channel=0 note=53 velocity=80 time=0
note_on channel=0 note=62 velocity=80 time=0
note_on channel=0 note=62 velocity=0 time=32
note_on channel=0 note=65 velocity=80 time=16
note_on channel=0 note=53 velocity=0 time=16
note_on channel=0 note=58 velocity=0 time=0
note_on channel=0 note=65 velocity=0 time=16
note_on channel=0 note=53 velocity=80 time=16
note_on channel=0 note=58 velocity=80 time=0
note_on channel=0 note=62 velocity=80 time=0
note_on channel=0 note=62 velocity=0 time=64
note_on channel=0 note=58 velocity=0 time=0
note_on channel=0 note=53 velocity=0 time=0
note_on channel=0 note=58 velocity=80 time=32
note_on channel=0 note=58 velocity=0 time=32
note_on channel=0 note=60 velocity=80 time=16
note_on channel=0 note=60 velocity=0 time=64
note_on channel=0 note=62 velocity=80 time=32
note_on channel=0 note=62 velocity=0 time=64
note_on channel=0 note=60 velocity=80 time=32
note_on channel=0 note=60 velocity=0 time=32
note_on channel=0 note=58 velocity=80 time=16
note_on channel=0 note=58 velocity=0 time=64
note_on channel=0 note=74 velocity=80 time=32
note_on channel=0 note=74 velocity=0 time=32
note_on channel=0 note=72 velocity=80 time=16
note_on channel=0 note=72 velocity=0 time=64
note_on channel=0 note=70 velocity=80 time=32
note_on channel=0 note=70 velocity=0 time=64
note_on channel=0 note=69 velocity=80 time=32
note_on channel=0 note=69 velocity=0 time=32
note_on channel=0 note=67 velocity=80 time=16
note_on channel=0 note=67 velocity=0 time=64
note_on channel=0 note=70 velocity=80 time=5
note_on channel=0 note=70 velocity=0 time=10
note_on channel=0 note=74 velocity=80 time=0
note_on channel=0 note=74 velocity=0 time=10
note_on channel=0 note=70 velocity=80 time=7
note_on channel=0 note=74 velocity=80 time=0
note_on channel=0 note=79 velocity=80 time=0
note_on channel=0 note=79 velocity=0 time=32
note_on channel=0 note=74 velocity=0 time=0
note_on channel=0 note=70 velocity=0 time=0
note_on channel=0 note=77 velocity=80 time=16
note_on channel=0 note=77 velocity=0 time=32
note_on channel=0 note=74 velocity=80 time=16
note_on channel=0 note=70 velocity=80 time=0
note_on channel=0 note=70 velocity=0 time=32
note_on channel=0 note=74 velocity=0 time=0
note_on channel=0 note=75 velocity=80 time=16
note_on channel=0 note=69 velocity=80 time=0
note_on channel=0 note=69 velocity=0 time=64
note_on channel=0 note=75 velocity=0 time=0
note_on channel=0 note=77 velocity=80 time=32
note_on channel=0 note=77 velocity=0 time=32
note_on channel=0 note=67 velocity=80 time=16
note_on channel=0 note=67 velocity=0 time=32
note_on channel=0 note=69 velocity=80 time=16
note_on channel=0 note=69 velocity=0 time=32
note_on channel=0 note=70 velocity=80 time=16
note_on channel=0 note=70 velocity=0 time=192
note_on channel=0 note=72 velocity=80 time=96
note_on channel=0 note=72 velocity=0 time=64
note_on channel=0 note=73 velocity=80 time=32
note_on channel=0 note=73 velocity=0 time=192
note_on channel=0 note=70 velocity=80 time=96
note_on channel=0 note=70 velocity=0 time=32
note_on channel=0 note=72 velocity=80 time=16
note_on channel=0 note=72 velocity=0 time=32
note_on channel=0 note=73 velocity=80 time=16
note_on channel=0 note=73 velocity=0 time=192
note_on channel=0 note=70 velocity=80 time=96
note_on channel=0 note=70 velocity=0 time=32
note_on channel=0 note=72 velocity=80 time=16
note_on channel=0 note=72 velocity=0 time=32
note_on channel=0 note=73 velocity=80 time=16
note_on channel=0 note=77 velocity=80 time=48
note_on channel=0 note=77 velocity=0 time=32
note_on channel=0 note=82 velocity=80 time=16
note_on channel=0 note=82 velocity=0 time=32
note_on channel=0 note=73 velocity=0 time=0
note_on channel=0 note=85 velocity=80 time=16
note_on channel=0 note=85 velocity=0 time=32
note_on channel=0 note=75 velocity=80 time=16
note_on channel=0 note=78 velocity=80 time=48
note_on channel=0 note=78 velocity=0 time=32
note_on channel=0 note=82 velocity=80 time=16
note_on channel=0 note=82 velocity=0 time=32
note_on channel=0 note=75 velocity=0 time=0
note_on channel=0 note=87 velocity=80 time=16
note_on channel=0 note=87 velocity=0 time=32
note_on channel=0 note=73 velocity=80 time=16
note_on channel=0 note=77 velocity=80 time=48
note_on channel=0 note=82 velocity=80 time=0
note_on channel=0 note=85 velocity=80 time=0
note_on channel=0 note=73 velocity=0 time=48
note_on channel=0 note=77 velocity=0 time=16
note_on channel=0 note=82 velocity=0 time=0
note_on channel=0 note=85 velocity=0 time=0
note_on channel=0 note=84 velocity=80 time=32
note_on channel=0 note=81 velocity=80 time=0
note_on channel=0 note=77 velocity=80 time=0
note_on channel=0 note=72 velocity=80 time=0
note_on channel=0 note=72 velocity=0 time=32
note_on channel=0 note=84 velocity=0 time=0
note_on channel=0 note=81 velocity=0 time=0
note_on channel=0 note=77 velocity=0 time=0
note_on channel=0 note=70 velocity=80 time=16
note_on channel=0 note=77 velocity=80 time=0
note_on channel=0 note=82 velocity=80 time=0
note_on channel=0 note=82 velocity=0 time=64
note_on channel=0 note=77 velocity=0 time=0
note_on channel=0 note=70 velocity=0 time=0
note_on channel=0 note=65 velocity=80 time=32
note_on channel=0 note=70 velocity=80 time=0
note_on channel=0 note=70 velocity=0 time=64
note_on channel=0 note=65 velocity=0 time=0
note_on channel=0 note=63 velocity=80 time=32
note_on channel=0 note=60 velocity=80 time=0
note_on channel=0 note=69 velocity=80 time=0
note_on channel=0 note=69 velocity=0 time=64
note_on channel=0 note=67 velocity=80 time=32
note_on channel=0 note=67 velocity=0 time=32
note_on channel=0 note=66 velocity=80 time=16
note_on channel=0 note=66 velocity=0 time=64
note_on channel=0 note=67 velocity=80 time=32
note_on channel=0 note=60 velocity=0 time=17
note_on channel=0 note=63 velocity=0 time=0
note_on channel=0 note=67 velocity=0 time=15
note_on channel=0 note=69 velocity=80 time=16
note_on channel=0 note=69 velocity=0 time=64
note_on channel=0 note=63 velocity=80 time=32
note_on channel=0 note=66 velocity=80 time=0
note_on channel=0 note=72 velocity=80 time=0
note_on channel=0 note=72 velocity=0 time=64
note_on channel=0 note=70 velocity=80 time=32
note_on channel=0 note=70 velocity=0 time=32
note_on channel=0 note=69 velocity=80 time=16
note_on channel=0 note=69 velocity=0 time=64
note_on channel=0 note=70 velocity=80 time=32
note_on channel=0 note=66 velocity=0 time=17
note_on channel=0 note=63 velocity=0 time=0
note_on channel=0 note=70 velocity=0 time=15
note_on channel=0 note=72 velocity=80 time=16
note_on channel=0 note=72 velocity=0 time=64
note_on channel=0 note=71 velocity=80 time=32
note_on channel=0 note=71 velocity=0 time=64
note_on channel=0 note=72 velocity=80 time=32
note_on channel=0 note=72 velocity=0 time=128
note_on channel=0 note=73 velocity=80 time=64
note_on channel=0 note=73 velocity=0 time=64
note_on channel=0 note=74 velocity=80 time=32
note_on channel=0 note=74 velocity=0 time=64
note_on channel=0 note=75 velocity=80 time=32
note_on channel=0 note=75 velocity=0 time=64
note_on channel=0 note=76 velocity=80 time=32
note_on channel=0 note=76 velocity=0 time=64
note_on channel=0 note=77 velocity=80 time=32
note_on channel=0 note=77 velocity=0 time=64
note_on channel=0 note=66 velocity=80 time=32
note_on channel=0 note=72 velocity=80 time=0
note_on channel=0 note=78 velocity=80 time=0
note_on channel=0 note=78 velocity=0 time=64
note_on channel=0 note=72 velocity=0 time=0
note_on channel=0 note=66 velocity=0 time=0
note_on channel=0 note=75 velocity=80 time=32
note_on channel=0 note=72 velocity=80 time=0
note_on channel=0 note=70 velocity=80 time=0
note_on channel=0 note=70 velocity=0 time=128
note_on channel=0 note=72 velocity=0 time=0
note_on channel=0 note=75 velocity=0 time=0
note_on channel=0 note=70 velocity=80 time=64
note_on channel=0 note=72 velocity=80 time=0
note_on channel=0 note=75 velocity=80 time=0
note_on channel=0 note=75 velocity=0 time=64
note_on channel=0 note=72 velocity=0 time=0
note_on channel=0 note=70 velocity=0 time=0
note_on channel=0 note=77 velocity=80 time=32
note_on channel=0 note=69 velocity=80 time=0
note_on channel=0 note=72 velocity=80 time=0
note_on channel=0 note=72 velocity=0 time=64
note_on channel=0 note=69 velocity=0 time=0
note_on channel=0 note=72 velocity=80 time=32
note_on channel=0 note=72 velocity=0 time=32
note_on channel=0 note=70 velocity=80 time=16
note_on channel=0 note=70 velocity=0 time=32
note_on channel=0 note=69 velocity=80 time=16
note_on channel=0 note=69 velocity=0 time=32
note_on channel=0 note=70 velocity=80 time=16
note_on channel=0 note=77 velocity=0 time=17
note_on channel=0 note=70 velocity=0 time=15
note_on channel=0 note=69 velocity=80 time=16
note_on channel=0 note=69 velocity=0 time=64
note_on channel=0 note=73 velocity=80 time=32
note_on channel=0 note=77 velocity=80 time=48
note_on channel=0 note=77 velocity=0 time=32
note_on channel=0 note=82 velocity=80 time=16
note_on channel=0 note=82 velocity=0 time=32
note_on channel=0 note=73 velocity=0 time=0
note_on channel=0 note=85 velocity=80 time=16
note_on channel=0 note=85 velocity=0 time=32
note_on channel=0 note=75 velocity=80 time=16
note_on channel=0 note=78 velocity=80 time=48
note_on channel=0 note=78 velocity=0 time=32
note_on channel=0 note=82 velocity=80 time=16
note_on channel=0 note=82 velocity=0 time=32
note_on channel=0 note=75 velocity=0 time=0
note_on channel=0 note=87 velocity=80 time=16
note_on channel=0 note=87 velocity=0 time=32
note_on channel=0 note=73 velocity=80 time=16
note_on channel=0 note=77 velocity=80 time=48
note_on channel=0 note=82 velocity=80 time=0
note_on channel=0 note=85 velocity=80 time=0
note_on channel=0 note=73 velocity=0 time=48
note_on channel=0 note=77 velocity=0 time=16
note_on channel=0 note=82 velocity=0 time=0
note_on channel=0 note=85 velocity=0 time=0
note_on channel=0 note=84 velocity=80 time=32
note_on channel=0 note=81 velocity=80 time=0
note_on channel=0 note=77 velocity=80 time=0
note_on channel=0 note=72 velocity=80 time=0
note_on channel=0 note=72 velocity=0 time=32
note_on channel=0 note=84 velocity=0 time=0
note_on channel=0 note=81 velocity=0 time=0
note_on channel=0 note=77 velocity=0 time=0
note_on channel=0 note=70 velocity=80 time=16
note_on channel=0 note=77 velocity=80 time=0
note_on channel=0 note=82 velocity=80 time=0
note_on channel=0 note=82 velocity=0 time=64
note_on channel=0 note=77 velocity=0 time=0
note_on channel=0 note=70 velocity=0 time=0
note_on channel=0 note=77 velocity=80 time=32
note_on channel=0 note=84 velocity=80 time=0
note_on channel=0 note=72 velocity=80 time=0
note_on channel=0 note=72 velocity=0 time=64
note_on channel=0 note=84 velocity=0 time=0
note_on channel=0 note=77 velocity=0 time=0
note_on channel=0 note=73 velocity=80 time=32
note_on channel=0 note=77 velocity=80 time=0
note_on channel=0 note=85 velocity=80 time=0
note_on channel=0 note=85 velocity=0 time=32
note_on channel=0 note=77 velocity=0 time=0
note_on channel=0 note=73 velocity=0 time=0
note_on channel=0 note=84 velocity=80 time=16
note_on channel=0 note=72 velocity=80 time=0
note_on channel=0 note=72 velocity=0 time=32
note_on channel=0 note=84 velocity=0 time=0
note_on channel=0 note=73 velocity=80 time=16
note_on channel=0 note=85 velocity=80 time=0
note_on channel=0 note=85 velocity=0 time=32
note_on channel=0 note=73 velocity=0 time=0
note_on channel=0 note=75 velocity=80 time=16
note_on channel=0 note=87 velocity=80 time=0
note_on channel=0 note=87 velocity=0 time=64
note_on channel=0 note=75 velocity=0 time=0
note_on channel=0 note=73 velocity=80 time=32
note_on channel=0 note=85 velocity=80 time=0
note_on channel=0 note=85 velocity=0 time=32
note_on channel=0 note=73 velocity=0 time=0
note_on channel=0 note=70 velocity=80 time=16
note_on channel=0 note=82 velocity=80 time=0
note_on channel=0 note=82 velocity=0 time=64
note_on channel=0 note=70 velocity=0 time=0
note_on channel=0 note=78 velocity=80 time=32
note_on channel=0 note=72 velocity=80 time=0
note_on channel=0 note=80 velocity=80 time=48
note_on channel=0 note=80 velocity=0 time=32
note_on channel=0 note=72 velocity=0 time=16
note_on channel=0 note=78 velocity=0 time=0
note_on channel=0 note=78 velocity=80 time=0
note_on channel=0 note=78 velocity=0 time=32
note_on channel=0 note=77 velocity=80 time=16
note_on channel=0 note=73 velocity=80 time=0
note_on channel=0 note=77 velocity=0 time=64
note_on channel=0 note=73 velocity=0 time=32
note_on channel=0 note=80 velocity=80 time=0
note_on channel=0 note=80 velocity=0 time=32
note_on channel=0 note=73 velocity=80 time=16
note_on channel=0 note=77 velocity=80 time=0
note_on channel=0 note=77 velocity=0 time=64
note_on channel=0 note=73 velocity=0 time=0
note_on channel=0 note=84 velocity=80 time=32
note_on channel=0 note=72 velocity=80 time=0
note_on channel=0 note=77 velocity=80 time=0
note_on channel=0 note=68 velocity=80 time=0
note_on channel=0 note=68 velocity=0 time=32
note_on channel=0 note=77 velocity=0 time=0
note_on channel=0 note=76 velocity=80 time=16
note_on channel=0 note=67 velocity=80 time=0
note_on channel=0 note=67 velocity=0 time=64
note_on channel=0 note=76 velocity=0 time=0
note_on channel=0 note=77 velocity=80 time=32
note_on channel=0 note=68 velocity=80 time=0
note_on channel=0 note=68 velocity=0 time=64
note_on channel=0 note=77 velocity=0 time=0
note_on channel=0 note=79 velocity=80 time=32
note_on channel=0 note=70 velocity=80 time=0
note_on channel=0 note=72 velocity=0 time=17
note_on channel=0 note=84 velocity=0 time=0
note_on channel=0 note=79 velocity=0 time=15
note_on channel=0 note=70 velocity=0 time=0
note_on channel=0 note=80 velocity=80 time=16
note_on channel=0 note=72 velocity=80 time=0
note_on channel=0 note=72 velocity=0 time=64
note_on channel=0 note=80 velocity=0 time=0
note_on channel=0 note=84 velocity=80 time=32
note_on channel=0 note=72 velocity=80 time=0
note_on channel=0 note=76 velocity=80 time=0
note_on channel=0 note=67 velocity=80 time=0
note_on channel=0 note=67 velocity=0 time=32
note_on channel=0 note=76 velocity=0 time=0
note_on channel=0 note=79 velocity=80 time=16
note_on channel=0 note=70 velocity=80 time=0
note_on channel=0 note=70 velocity=0 time=64
note_on channel=0 note=79 velocity=0 time=0
note_on channel=0 note=77 velocity=80 time=32
note_on channel=0 note=68 velocity=80 time=0
note_on channel=0 note=72 velocity=0 time=48
note_on channel=0 note=84 velocity=0 time=0
note_on channel=0 note=77 velocity=0 time=48
note_on channel=0 note=68 velocity=0 time=0
note_on channel=0 note=65 velocity=80 time=48
note_on channel=0 note=68 velocity=80 time=0
note_on channel=0 note=72 velocity=80 time=0
note_on channel=0 note=77 velocity=80 time=0
note_on channel=0 note=77 velocity=0 time=64
note_on channel=0 note=65 velocity=0 time=0
note_on channel=0 note=68 velocity=0 time=0
note_on channel=0 note=72 velocity=0 time=0
note_on channel=0 note=66 velocity=80 time=32
note_on channel=0 note=70 velocity=80 time=0
note_on channel=0 note=75 velocity=80 time=0
note_on channel=0 note=78 velocity=80 time=0
note_on channel=0 note=78 velocity=0 time=64
note_on channel=0 note=66 velocity=0 time=0
note_on channel=0 note=70 velocity=0 time=0
note_on channel=0 note=75 velocity=0 time=0
note_on channel=0 note=65 velocity=80 time=32
note_on channel=0 note=70 velocity=80 time=0
note_on channel=0 note=73 velocity=80 time=0
note_on channel=0 note=77 velocity=80 time=0
note_on channel=0 note=77 velocity=0 time=64
note_on channel=0 note=65 velocity=0 time=0
note_on channel=0 note=70 velocity=0 time=0
note_on channel=0 note=73 velocity=0 time=0
note_on channel=0 note=75 velocity=80 time=32
note_on channel=0 note=81 velocity=80 time=0
note_on channel=0 note=84 velocity=80 time=0
note_on channel=0 note=84 velocity=0 time=32
note_on channel=0 note=81 velocity=0 time=0
note_on channel=0 note=81 velocity=80 time=16
note_on channel=0 note=81 velocity=0 time=32
note_on channel=0 note=75 velocity=0 time=16
note_on channel=0 note=77 velocity=80 time=0
note_on channel=0 note=77 velocity=0 time=32
note_on channel=0 note=82 velocity=80 time=16
note_on channel=0 note=77 velocity=80 time=0
note_on channel=0 note=73 velocity=80 time=0
note_on channel=0 note=73 velocity=0 time=64
note_on channel=0 note=77 velocity=0 time=0
note_on channel=0 note=82 velocity=0 time=0
note_on channel=0 note=77 velocity=80 time=32
note_on channel=0 note=77 velocity=0 time=32
note_on channel=0 note=73 velocity=80 time=16
note_on channel=0 note=73 velocity=0 time=32
note_on channel=0 note=70 velocity=80 time=16
note_on channel=0 note=70 velocity=0 time=32
note_on channel=0 note=69 velocity=80 time=16
note_on channel=0 note=69 velocity=0 time=32
note_on channel=0 note=70 velocity=80 time=16
note_on channel=0 note=70 velocity=0 time=32
note_on channel=0 note=72 velocity=80 time=16
note_on channel=0 note=72 velocity=0 time=64
note_on channel=0 note=73 velocity=80 time=32
note_on channel=0 note=77 velocity=80 time=48
note_on channel=0 note=77 velocity=0 time=32
note_on channel=0 note=82 velocity=80 time=16
note_on channel=0 note=82 velocity=0 time=32
note_on channel=0 note=73 velocity=0 time=0
note_on channel=0 note=85 velocity=80 time=16
note_on channel=0 note=85 velocity=0 time=32
note_on channel=0 note=75 velocity=80 time=16
note_on channel=0 note=78 velocity=80 time=48
note_on channel=0 note=78 velocity=0 time=32
note_on channel=0 note=82 velocity=80 time=16
note_on channel=0 note=82 velocity=0 time=32
note_on channel=0 note=75 velocity=0 time=0
note_on channel=0 note=87 velocity=80 time=16
note_on channel=0 note=87 velocity=0 time=32
note_on channel=0 note=73 velocity=80 time=16
note_on channel=0 note=77 velocity=80 time=48
note_on channel=0 note=82 velocity=80 time=0
note_on channel=0 note=85 velocity=80 time=0
note_on channel=0 note=73 velocity=0 time=48
note_on channel=0 note=77 velocity=0 time=16
note_on channel=0 note=82 velocity=0 time=0
note_on channel=0 note=85 velocity=0 time=0
note_on channel=0 note=84 velocity=80 time=32
note_on channel=0 note=81 velocity=80 time=0
note_on channel=0 note=77 velocity=80 time=0
note_on channel=0 note=72 velocity=80 time=0
note_on channel=0 note=72 velocity=0 time=32
note_on channel=0 note=84 velocity=0 time=0
note_on channel=0 note=81 velocity=0 time=0
note_on channel=0 note=77 velocity=0 time=0
note_on channel=0 note=70 velocity=80 time=16
note_on channel=0 note=77 velocity=80 time=0
note_on channel=0 note=82 velocity=80 time=0
note_on channel=0 note=82 velocity=0 time=64
note_on channel=0 note=77 velocity=0 time=0
note_on channel=0 note=70 velocity=0 time=0
note_on channel=0 note=65 velocity=80 time=32
note_on channel=0 note=70 velocity=80 time=0
note_on channel=0 note=70 velocity=0 time=64
note_on channel=0 note=65 velocity=0 time=0
note_on channel=0 note=63 velocity=80 time=32
note_on channel=0 note=60 velocity=80 time=0
note_on channel=0 note=69 velocity=80 time=0
note_on channel=0 note=69 velocity=0 time=64
note_on channel=0 note=67 velocity=80 time=32
note_on channel=0 note=67 velocity=0 time=32
note_on channel=0 note=66 velocity=80 time=16
note_on channel=0 note=66 velocity=0 time=64
note_on channel=0 note=67 velocity=80 time=32
note_on channel=0 note=60 velocity=0 time=17
note_on channel=0 note=63 velocity=0 time=0
note_on channel=0 note=67 velocity=0 time=15
note_on channel=0 note=69 velocity=80 time=16
note_on channel=0 note=69 velocity=0 time=64
note_on channel=0 note=63 velocity=80 time=32
note_on channel=0 note=66 velocity=80 time=0
note_on channel=0 note=72 velocity=80 time=0
note_on channel=0 note=72 velocity=0 time=64
note_on channel=0 note=70 velocity=80 time=32
note_on channel=0 note=70 velocity=0 time=32
note_on channel=0 note=69 velocity=80 time=16
note_on channel=0 note=69 velocity=0 time=64
note_on channel=0 note=70 velocity=80 time=32
note_on channel=0 note=66 velocity=0 time=17
note_on channel=0 note=63 velocity=0 time=0
note_on channel=0 note=70 velocity=0 time=15
note_on channel=0 note=72 velocity=80 time=16
note_on channel=0 note=72 velocity=0 time=64
note_on channel=0 note=71 velocity=80 time=32
note_on channel=0 note=71 velocity=0 time=64
note_on channel=0 note=72 velocity=80 time=32
note_on channel=0 note=72 velocity=0 time=128
note_on channel=0 note=73 velocity=80 time=64
note_on channel=0 note=73 velocity=0 time=64
note_on channel=0 note=74 velocity=80 time=32
note_on channel=0 note=74 velocity=0 time=64
note_on channel=0 note=75 velocity=80 time=32
note_on channel=0 note=75 velocity=0 time=64
note_on channel=0 note=76 velocity=80 time=32
note_on channel=0 note=76 velocity=0 time=64
note_on channel=0 note=77 velocity=80 time=32
note_on channel=0 note=77 velocity=0 time=64
note_on channel=0 note=66 velocity=80 time=32
note_on channel=0 note=72 velocity=80 time=0
note_on channel=0 note=78 velocity=80 time=0
note_on channel=0 note=78 velocity=0 time=64
note_on channel=0 note=72 velocity=0 time=0
note_on channel=0 note=66 velocity=0 time=0
note_on channel=0 note=75 velocity=80 time=32
note_on channel=0 note=72 velocity=80 time=0
note_on channel=0 note=70 velocity=80 time=0
note_on channel=0 note=70 velocity=0 time=128
note_on channel=0 note=72 velocity=0 time=0
note_on channel=0 note=75 velocity=0 time=0
note_on channel=0 note=70 velocity=80 time=64
note_on channel=0 note=72 velocity=80 time=0
note_on channel=0 note=75 velocity=80 time=0
note_on channel=0 note=75 velocity=0 time=64
note_on channel=0 note=72 velocity=0 time=0
note_on channel=0 note=70 velocity=0 time=0
note_on channel=0 note=77 velocity=80 time=32
note_on channel=0 note=69 velocity=80 time=0
note_on channel=0 note=72 velocity=80 time=0
note_on channel=0 note=72 velocity=0 time=64
note_on channel=0 note=69 velocity=0 time=0
note_on channel=0 note=72 velocity=80 time=32
note_on channel=0 note=72 velocity=0 time=32
note_on channel=0 note=70 velocity=80 time=16
note_on channel=0 note=70 velocity=0 time=32
note_on channel=0 note=69 velocity=80 time=16
note_on channel=0 note=69 velocity=0 time=32
note_on channel=0 note=70 velocity=80 time=16
note_on channel=0 note=77 velocity=0 time=17
note_on channel=0 note=70 velocity=0 time=15
note_on channel=0 note=69 velocity=80 time=16
note_on channel=0 note=69 velocity=0 time=64
note_on channel=0 note=73 velocity=80 time=32
note_on channel=0 note=77 velocity=80 time=48
note_on channel=0 note=77 velocity=0 time=32
note_on channel=0 note=82 velocity=80 time=16
note_on channel=0 note=82 velocity=0 time=32
note_on channel=0 note=73 velocity=0 time=0
note_on channel=0 note=85 velocity=80 time=16
note_on channel=0 note=85 velocity=0 time=32
note_on channel=0 note=75 velocity=80 time=16
note_on channel=0 note=78 velocity=80 time=48
note_on channel=0 note=78 velocity=0 time=32
note_on channel=0 note=82 velocity=80 time=16
note_on channel=0 note=82 velocity=0 time=32
note_on channel=0 note=75 velocity=0 time=0
note_on channel=0 note=87 velocity=80 time=16
note_on channel=0 note=87 velocity=0 time=32
note_on channel=0 note=73 velocity=80 time=16
note_on channel=0 note=77 velocity=80 time=48
note_on channel=0 note=82 velocity=80 time=0
note_on channel=0 note=85 velocity=80 time=0
note_on channel=0 note=73 velocity=0 time=48
note_on channel=0 note=77 velocity=0 time=16
note_on channel=0 note=82 velocity=0 time=0
note_on channel=0 note=85 velocity=0 time=0
note_on channel=0 note=84 velocity=80 time=32
note_on channel=0 note=81 velocity=80 time=0
note_on channel=0 note=77 velocity=80 time=0
note_on channel=0 note=72 velocity=80 time=0
note_on channel=0 note=72 velocity=0 time=32
note_on channel=0 note=84 velocity=0 time=0
note_on channel=0 note=81 velocity=0 time=0
note_on channel=0 note=77 velocity=0 time=0
note_on channel=0 note=70 velocity=80 time=16
note_on channel=0 note=77 velocity=80 time=0
note_on channel=0 note=82 velocity=80 time=0
note_on channel=0 note=82 velocity=0 time=64
note_on channel=0 note=77 velocity=0 time=0
note_on channel=0 note=70 velocity=0 time=0
note_on channel=0 note=77 velocity=80 time=32
note_on channel=0 note=84 velocity=80 time=0
note_on channel=0 note=72 velocity=80 time=0
note_on channel=0 note=72 velocity=0 time=64
note_on channel=0 note=84 velocity=0 time=0
note_on channel=0 note=77 velocity=0 time=0
note_on channel=0 note=73 velocity=80 time=32
note_on channel=0 note=77 velocity=80 time=0
note_on channel=0 note=85 velocity=80 time=0
note_on channel=0 note=85 velocity=0 time=32
note_on channel=0 note=77 velocity=0 time=0
note_on channel=0 note=73 velocity=0 time=0
note_on channel=0 note=84 velocity=80 time=16
note_on channel=0 note=72 velocity=80 time=0
note_on channel=0 note=72 velocity=0 time=32
note_on channel=0 note=84 velocity=0 time=0
note_on channel=0 note=73 velocity=80 time=16
note_on channel=0 note=85 velocity=80 time=0
note_on channel=0 note=85 velocity=0 time=32
note_on channel=0 note=73 velocity=0 time=0
note_on channel=0 note=75 velocity=80 time=16
note_on channel=0 note=87 velocity=80 time=0
note_on channel=0 note=87 velocity=0 time=64
note_on channel=0 note=75 velocity=0 time=0
note_on channel=0 note=73 velocity=80 time=32
note_on channel=0 note=85 velocity=80 time=0
note_on channel=0 note=85 velocity=0 time=32
note_on channel=0 note=73 velocity=0 time=0
note_on channel=0 note=70 velocity=80 time=16
note_on channel=0 note=82 velocity=80 time=0
note_on channel=0 note=82 velocity=0 time=64
note_on channel=0 note=70 velocity=0 time=0
note_on channel=0 note=78 velocity=80 time=32
note_on channel=0 note=72 velocity=80 time=0
note_on channel=0 note=80 velocity=80 time=48
note_on channel=0 note=80 velocity=0 time=32
note_on channel=0 note=72 velocity=0 time=16
note_on channel=0 note=78 velocity=0 time=0
note_on channel=0 note=78 velocity=80 time=0
note_on channel=0 note=78 velocity=0 time=32
note_on channel=0 note=77 velocity=80 time=16
note_on channel=0 note=73 velocity=80 time=0
note_on channel=0 note=77 velocity=0 time=64
note_on channel=0 note=73 velocity=0 time=32
note_on channel=0 note=80 velocity=80 time=0
note_on channel=0 note=80 velocity=0 time=32
note_on channel=0 note=73 velocity=80 time=16
note_on channel=0 note=77 velocity=80 time=0
note_on channel=0 note=77 velocity=0 time=64
note_on channel=0 note=73 velocity=0 time=0
note_on channel=0 note=84 velocity=80 time=32
note_on channel=0 note=72 velocity=80 time=0
note_on channel=0 note=77 velocity=80 time=0
note_on channel=0 note=68 velocity=80 time=0
note_on channel=0 note=68 velocity=0 time=32
note_on channel=0 note=77 velocity=0 time=0
note_on channel=0 note=76 velocity=80 time=16
note_on channel=0 note=67 velocity=80 time=0
note_on channel=0 note=67 velocity=0 time=64
note_on channel=0 note=76 velocity=0 time=0
note_on channel=0 note=77 velocity=80 time=32
note_on channel=0 note=68 velocity=80 time=0
note_on channel=0 note=68 velocity=0 time=64
note_on channel=0 note=77 velocity=0 time=0
note_on channel=0 note=79 velocity=80 time=32
note_on channel=0 note=70 velocity=80 time=0
note_on channel=0 note=72 velocity=0 time=17
note_on channel=0 note=84 velocity=0 time=0
note_on channel=0 note=79 velocity=0 time=15
note_on channel=0 note=70 velocity=0 time=0
note_on channel=0 note=80 velocity=80 time=16
note_on channel=0 note=72 velocity=80 time=0
note_on channel=0 note=72 velocity=0 time=64
note_on channel=0 note=80 velocity=0 time=0
note_on channel=0 note=84 velocity=80 time=32
note_on channel=0 note=72 velocity=80 time=0
note_on channel=0 note=76 velocity=80 time=0
note_on channel=0 note=67 velocity=80 time=0
note_on channel=0 note=67 velocity=0 time=32
note_on channel=0 note=76 velocity=0 time=0
note_on channel=0 note=79 velocity=80 time=16
note_on channel=0 note=70 velocity=80 time=0
note_on channel=0 note=70 velocity=0 time=64
note_on channel=0 note=79 velocity=0 time=0
note_on channel=0 note=77 velocity=80 time=32
note_on channel=0 note=68 velocity=80 time=0
note_on channel=0 note=72 velocity=0 time=48
note_on channel=0 note=84 velocity=0 time=0
note_on channel=0 note=77 velocity=0 time=48
note_on channel=0 note=68 velocity=0 time=0
note_on channel=0 note=65 velocity=80 time=48
note_on channel=0 note=68 velocity=80 time=0
note_on channel=0 note=72 velocity=80 time=0
note_on channel=0 note=77 velocity=80 time=0
note_on channel=0 note=77 velocity=0 time=64
note_on channel=0 note=65 velocity=0 time=0
note_on channel=0 note=68 velocity=0 time=0
note_on channel=0 note=72 velocity=0 time=0
note_on channel=0 note=65 velocity=80 time=32
note_on channel=0 note=68 velocity=80 time=0
note_on channel=0 note=74 velocity=80 time=0
note_on channel=0 note=74 velocity=0 time=32
note_on channel=0 note=77 velocity=80 time=16
note_on channel=0 note=68 velocity=0 time=16
note_on channel=0 note=65 velocity=0 time=0
note_on channel=0 note=77 velocity=0 time=16
note_on channel=0 note=65 velocity=80 time=16
note_on channel=0 note=69 velocity=80 time=0
note_on channel=0 note=72 velocity=80 time=0
note_on channel=0 note=72 velocity=0 time=64
note_on channel=0 note=69 velocity=0 time=0
note_on channel=0 note=65 velocity=0 time=0
note_on channel=0 note=70 velocity=80 time=32
note_on channel=0 note=64 velocity=80 time=0
note_on channel=0 note=76 velocity=80 time=0
note_on channel=0 note=76 velocity=0 time=32
note_on channel=0 note=74 velocity=80 time=16
note_on channel=0 note=64 velocity=0 time=16
note_on channel=0 note=70 velocity=0 time=0
note_on channel=0 note=74 velocity=0 time=16
note_on channel=0 note=76 velocity=80 time=16
note_on channel=0 note=70 velocity=80 time=0
note_on channel=0 note=64 velocity=80 time=0
note_on channel=0 note=64 velocity=0 time=32
note_on channel=0 note=70 velocity=0 time=0
note_on channel=0 note=76 velocity=0 time=0
note_on channel=0 note=77 velocity=80 time=16
note_on channel=0 note=69 velocity=80 time=0
note_on channel=0 note=65 velocity=80 time=0
note_on channel=0 note=77 velocity=0 time=80
note_on channel=0 note=75 velocity=80 time=16
note_on channel=0 note=75 velocity=0 time=32
note_on channel=0 note=72 velocity=80 time=16
note_on channel=0 note=72 velocity=0 time=32
note_on channel=0 note=65 velocity=0 time=0
note_on channel=0 note=69 velocity=0 time=0
note_on channel=0 note=69 velocity=80 time=16
note_on channel=0 note=69 velocity=0 time=32
note_on channel=0 note=65 velocity=80 time=16
note_on channel=0 note=65 velocity=0 time=32
note_on channel=0 note=63 velocity=80 time=16
note_on channel=0 note=63 velocity=0 time=64
note_on channel=0 note=65 velocity=80 time=32
note_on channel=0 note=65 velocity=0 time=32
note_on channel=0 note=62 velocity=80 time=16
note_on channel=0 note=62 velocity=0 time=32
note_on channel=0 note=70 velocity=80 time=16
note_on channel=0 note=70 velocity=0 time=32
note_on channel=0 note=67 velocity=80 time=16
note_on channel=0 note=67 velocity=0 time=32
note_on channel=0 note=65 velocity=80 time=16
note_on channel=0 note=65 velocity=0 time=32
note_on channel=0 note=63 velocity=80 time=16
note_on channel=0 note=63 velocity=0 time=32
note_on channel=0 note=72 velocity=80 time=16
note_on channel=0 note=72 velocity=0 time=64
note_on channel=0 note=73 velocity=80 time=32
note_on channel=0 note=73 velocity=0 time=32
note_on channel=0 note=74 velocity=80 time=16
note_on channel=0 note=74 velocity=0 time=32
note_on channel=0 note=65 velocity=80 time=16
note_on channel=0 note=65 velocity=0 time=32
note_on channel=0 note=70 velocity=80 time=16
note_on channel=0 note=70 velocity=0 time=32
note_on channel=0 note=62 velocity=80 time=16
note_on channel=0 note=62 velocity=0 time=32
note_on channel=0 note=67 velocity=80 time=16
note_on channel=0 note=61 velocity=80 time=0
note_on channel=0 note=61 velocity=0 time=32
note_on channel=0 note=67 velocity=0 time=0
note_on channel=0 note=65 velocity=80 time=16
note_on channel=0 note=62 velocity=80 time=0
note_on channel=0 note=62 velocity=0 time=96
note_on channel=0 note=65 velocity=0 time=0
note_on channel=0 note=63 velocity=80 time=48
note_on channel=0 note=65 velocity=80 time=0
note_on channel=0 note=65 velocity=0 time=32
note_on channel=0 note=63 velocity=0 time=0
note_on channel=0 note=63 velocity=80 time=16
note_on channel=0 note=65 velocity=80 time=0
note_on channel=0 note=65 velocity=0 time=64
note_on channel=0 note=63 velocity=0 time=0
note_on channel=0 note=65 velocity=80 time=32
note_on channel=0 note=63 velocity=80 time=0
note_on channel=0 note=65 velocity=0 time=80
note_on channel=0 note=67 velocity=80 time=16
note_on channel=0 note=63 velocity=0 time=16
note_on channel=0 note=67 velocity=0 time=16
note_on channel=0 note=63 velocity=80 time=16
note_on channel=0 note=65 velocity=80 time=0
note_on channel=0 note=65 velocity=0 time=64
note_on channel=0 note=63 velocity=0 time=0
note_on channel=0 note=65 velocity=80 time=32
note_on channel=0 note=62 velocity=80 time=0
note_on channel=0 note=62 velocity=0 time=32
note_on channel=0 note=65 velocity=0 time=0
note_on channel=0 note=65 velocity=80 time=16
note_on channel=0 note=62 velocity=80 time=0
note_on channel=0 note=62 velocity=0 time=64
note_on channel=0 note=65 velocity=0 time=0
note_on channel=0 note=65 velocity=80 time=32
note_on channel=0 note=62 velocity=80 time=0
note_on channel=0 note=65 velocity=0 time=80
note_on channel=0 note=67 velocity=80 time=16
note_on channel=0 note=62 velocity=0 time=16
note_on channel=0 note=67 velocity=0 time=16
note_on channel=0 note=65 velocity=80 time=16
note_on channel=0 note=62 velocity=80 time=0
note_on channel=0 note=62 velocity=0 time=64
note_on channel=0 note=65 velocity=0 time=0
note_on channel=0 note=62 velocity=80 time=32
note_on channel=0 note=62 velocity=0 time=32
note_on channel=0 note=70 velocity=80 time=16
note_on channel=0 note=70 velocity=0 time=32
note_on channel=0 note=67 velocity=80 time=16
note_on channel=0 note=67 velocity=0 time=32
note_on channel=0 note=65 velocity=80 time=16
note_on channel=0 note=65 velocity=0 time=32
note_on channel=0 note=63 velocity=80 time=16
note_on channel=0 note=63 velocity=0 time=32
note_on channel=0 note=72 velocity=80 time=16
note_on channel=0 note=72 velocity=0 time=64
note_on channel=0 note=73 velocity=80 time=32
note_on channel=0 note=73 velocity=0 time=32
note_on channel=0 note=74 velocity=80 time=16
note_on channel=0 note=74 velocity=0 time=32
note_on channel=0 note=65 velocity=80 time=16
note_on channel=0 note=65 velocity=0 time=32
note_on channel=0 note=70 velocity=80 time=16
note_on channel=0 note=70 velocity=0 time=32
note_on channel=0 note=74 velocity=80 time=16
note_on channel=0 note=74 velocity=0 time=32
note_on channel=0 note=79 velocity=80 time=16
note_on channel=0 note=74 velocity=80 time=0
note_on channel=0 note=79 velocity=0 time=32
note_on channel=0 note=82 velocity=80 time=16
note_on channel=0 note=74 velocity=0 time=80
note_on channel=0 note=82 velocity=0 time=16
note_on channel=0 note=81 velocity=80 time=48
note_on channel=0 note=81 velocity=0 time=32
note_on channel=0 note=84 velocity=80 time=16
note_on channel=0 note=84 velocity=0 time=32
note_on channel=0 note=86 velocity=80 time=16
note_on channel=0 note=86 velocity=0 time=32
note_on channel=0 note=78 velocity=80 time=16
note_on channel=0 note=87 velocity=80 time=0
note_on channel=0 note=87 velocity=0 time=64
note_on channel=0 note=78 velocity=0 time=0
note_on channel=0 note=86 velocity=80 time=32
note_on channel=0 note=86 velocity=0 time=32
note_on channel=0 note=78 velocity=80 time=16
note_on channel=0 note=81 velocity=80 time=0
note_on channel=0 note=81 velocity=0 time=64
note_on channel=0 note=78 velocity=0 time=0
note_on channel=0 note=79 velocity=80 time=32
note_on channel=0 note=84 velocity=80 time=0
note_on channel=0 note=84 velocity=0 time=32
note_on channel=0 note=82 velocity=80 time=16
note_on channel=0 note=82 velocity=0 time=32
note_on channel=0 note=81 velocity=80 time=16
note_on channel=0 note=81 velocity=0 time=32
note_on channel=0 note=82 velocity=80 time=16
note_on channel=0 note=79 velocity=0 time=144
note_on channel=0 note=82 velocity=80 time=48
note_on channel=0 note=75 velocity=80 time=0
note_on channel=0 note=82 velocity=0 time=32
note_on channel=0 note=75 velocity=0 time=48
note_on channel=0 note=70 velocity=80 time=16
note_on channel=0 note=82 velocity=0 time=16
note_on channel=0 note=70 velocity=0 time=16
note_on channel=0 note=75 velocity=80 time=16
note_on channel=0 note=79 velocity=80 time=0
note_on channel=0 note=75 velocity=0 time=32
note_on channel=0 note=67 velocity=80 time=16
note_on channel=0 note=79 velocity=0 time=16
note_on channel=0 note=67 velocity=0 time=16
note_on channel=0 note=70 velocity=80 time=16
note_on channel=0 note=70 velocity=0 time=32
note_on channel=0 note=77 velocity=80 time=16
note_on channel=0 note=74 velocity=80 time=0
note_on channel=0 note=74 velocity=0 time=64
note_on channel=0 note=77 velocity=0 time=0
note_on channel=0 note=65 velocity=80 time=32
note_on channel=0 note=65 velocity=0 time=32
note_on channel=0 note=75 velocity=80 time=16
note_on channel=0 note=72 velocity=80 time=0
note_on channel=0 note=72 velocity=0 time=32
note_on channel=0 note=67 velocity=80 time=16
note_on channel=0 note=75 velocity=0 time=16
note_on channel=0 note=67 velocity=0 time=16
note_on channel=0 note=69 velocity=80 time=16
note_on channel=0 note=75 velocity=80 time=0
note_on channel=0 note=75 velocity=0 time=32
note_on channel=0 note=69 velocity=0 time=0
note_on channel=0 note=74 velocity=80 time=16
note_on channel=0 note=70 velocity=80 time=0
note_on channel=0 note=70 velocity=0 time=64
note_on channel=0 note=74 velocity=0 time=0
note_on channel=0 note=65 velocity=80 time=32
note_on channel=0 note=65 velocity=0 time=32
note_on channel=0 note=77 velocity=80 time=16
note_on channel=0 note=74 velocity=80 time=0
note_on channel=0 note=74 velocity=0 time=64
note_on channel=0 note=77 velocity=0 time=0
note_on channel=0 note=82 velocity=80 time=32
note_on channel=0 note=75 velocity=80 time=0
note_on channel=0 note=75 velocity=0 time=32
note_on channel=0 note=70 velocity=80 time=16
note_on channel=0 note=82 velocity=0 time=16
note_on channel=0 note=70 velocity=0 time=16
note_on channel=0 note=75 velocity=80 time=16
note_on channel=0 note=79 velocity=80 time=0
note_on channel=0 note=75 velocity=0 time=32
note_on channel=0 note=67 velocity=80 time=16
note_on channel=0 note=79 velocity=0 time=16
note_on channel=0 note=67 velocity=0 time=16
note_on channel=0 note=70 velocity=80 time=16
note_on channel=0 note=70 velocity=0 time=32
note_on channel=0 note=77 velocity=80 time=16
note_on channel=0 note=74 velocity=80 time=0
note_on channel=0 note=74 velocity=0 time=64
note_on channel=0 note=77 velocity=0 time=0
note_on channel=0 note=65 velocity=80 time=32
note_on channel=0 note=65 velocity=0 time=32
note_on channel=0 note=75 velocity=80 time=16
note_on channel=0 note=72 velocity=80 time=0
note_on channel=0 note=72 velocity=0 time=32
note_on channel=0 note=67 velocity=80 time=16
note_on channel=0 note=75 velocity=0 time=16
note_on channel=0 note=67 velocity=0 time=16
note_on channel=0 note=69 velocity=80 time=16
note_on channel=0 note=75 velocity=80 time=0
note_on channel=0 note=75 velocity=0 time=32
note_on channel=0 note=69 velocity=0 time=0
note_on channel=0 note=74 velocity=80 time=16
note_on channel=0 note=70 velocity=80 time=0
note_on channel=0 note=70 velocity=0 time=160
note_on channel=0 note=74 velocity=0 time=0
note_on channel=0 note=82 velocity=80 time=32
note_on channel=0 note=75 velocity=80 time=0
note_on channel=0 note=75 velocity=0 time=80
note_on channel=0 note=70 velocity=80 time=16
note_on channel=0 note=82 velocity=0 time=16
note_on channel=0 note=70 velocity=0 time=16
note_on channel=0 note=75 velocity=80 time=16
note_on channel=0 note=79 velocity=80 time=0
note_on channel=0 note=75 velocity=0 time=32
note_on channel=0 note=67 velocity=80 time=16
note_on channel=0 note=79 velocity=0 time=16
note_on channel=0 note=67 velocity=0 time=16
note_on channel=0 note=70 velocity=80 time=16
note_on channel=0 note=70 velocity=0 time=32
note_on channel=0 note=77 velocity=80 time=16
note_on channel=0 note=74 velocity=80 time=0
note_on channel=0 note=74 velocity=0 time=64
note_on channel=0 note=77 velocity=0 time=0
note_on channel=0 note=65 velocity=80 time=32
note_on channel=0 note=65 velocity=0 time=32
note_on channel=0 note=75 velocity=80 time=16
note_on channel=0 note=72 velocity=80 time=0
note_on channel=0 note=72 velocity=0 time=32
note_on channel=0 note=67 velocity=80 time=16
note_on channel=0 note=75 velocity=0 time=16
note_on channel=0 note=67 velocity=0 time=16
note_on channel=0 note=69 velocity=80 time=16
note_on channel=0 note=75 velocity=80 time=0
note_on channel=0 note=75 velocity=0 time=32
note_on channel=0 note=69 velocity=0 time=0
note_on channel=0 note=74 velocity=80 time=16
note_on channel=0 note=70 velocity=80 time=0
note_on channel=0 note=70 velocity=0 time=64
note_on channel=0 note=74 velocity=0 time=0
note_on channel=0 note=65 velocity=80 time=32
note_on channel=0 note=65 velocity=0 time=32
note_on channel=0 note=77 velocity=80 time=16
note_on channel=0 note=74 velocity=80 time=0
note_on channel=0 note=74 velocity=0 time=64
note_on channel=0 note=77 velocity=0 time=0
note_on channel=0 note=82 velocity=80 time=32
note_on channel=0 note=75 velocity=80 time=0
note_on channel=0 note=75 velocity=0 time=32
note_on channel=0 note=70 velocity=80 time=16
note_on channel=0 note=82 velocity=0 time=16
note_on channel=0 note=70 velocity=0 time=16
note_on channel=0 note=75 velocity=80 time=16
note_on channel=0 note=79 velocity=80 time=0
note_on channel=0 note=75 velocity=0 time=32
note_on channel=0 note=67 velocity=80 time=16
note_on channel=0 note=79 velocity=0 time=16
note_on channel=0 note=67 velocity=0 time=16
note_on channel=0 note=70 velocity=80 time=16
note_on channel=0 note=70 velocity=0 time=32
note_on channel=0 note=77 velocity=80 time=16
note_on channel=0 note=74 velocity=80 time=0
note_on channel=0 note=74 velocity=0 time=64
note_on channel=0 note=77 velocity=0 time=0
note_on channel=0 note=65 velocity=80 time=32
note_on channel=0 note=65 velocity=0 time=32
note_on channel=0 note=75 velocity=80 time=16
note_on channel=0 note=72 velocity=80 time=0
note_on channel=0 note=72 velocity=0 time=32
note_on channel=0 note=67 velocity=80 time=16
note_on channel=0 note=75 velocity=0 time=16
note_on channel=0 note=67 velocity=0 time=16
note_on channel=0 note=69 velocity=80 time=16
note_on channel=0 note=75 velocity=80 time=0
note_on channel=0 note=75 velocity=0 time=32
note_on channel=0 note=69 velocity=0 time=0
note_on channel=0 note=74 velocity=80 time=16
note_on channel=0 note=70 velocity=80 time=0
note_on channel=0 note=70 velocity=0 time=64
note_on channel=0 note=74 velocity=0 time=0
note_on channel=0 note=67 velocity=80 time=32
note_on channel=0 note=67 velocity=0 time=32
note_on channel=0 note=65 velocity=80 time=16
note_on channel=0 note=65 velocity=0 time=32
note_on channel=0 note=63 velocity=80 time=16
note_on channel=0 note=63 velocity=0 time=32
note_on channel=0 note=62 velocity=80 time=16
note_on channel=0 note=62 velocity=0 time=32
note_on channel=0 note=70 velocity=80 time=16
note_on channel=0 note=70 velocity=0 time=32
note_on channel=0 note=67 velocity=80 time=16
note_on channel=0 note=67 velocity=0 time=32
note_on channel=0 note=65 velocity=80 time=16
note_on channel=0 note=65 velocity=0 time=32
note_on channel=0 note=63 velocity=80 time=16
note_on channel=0 note=63 velocity=0 time=32
note_on channel=0 note=72 velocity=80 time=16
note_on channel=0 note=72 velocity=0 time=64
note_on channel=0 note=73 velocity=80 time=32
note_on channel=0 note=73 velocity=0 time=32
note_on channel=0 note=74 velocity=80 time=16
note_on channel=0 note=74 velocity=0 time=32
note_on channel=0 note=65 velocity=80 time=16
note_on channel=0 note=65 velocity=0 time=32
note_on channel=0 note=70 velocity=80 time=16
note_on channel=0 note=70 velocity=0 time=32
note_on channel=0 note=62 velocity=80 time=16
note_on channel=0 note=62 velocity=0 time=32
note_on channel=0 note=67 velocity=80 time=16
note_on channel=0 note=61 velocity=80 time=0
note_on channel=0 note=61 velocity=0 time=32
note_on channel=0 note=67 velocity=0 time=0
note_on channel=0 note=65 velocity=80 time=16
note_on channel=0 note=62 velocity=80 time=0
note_on channel=0 note=62 velocity=0 time=96
note_on channel=0 note=65 velocity=0 time=0
note_on channel=0 note=63 velocity=80 time=48
note_on channel=0 note=65 velocity=80 time=0
note_on channel=0 note=65 velocity=0 time=32
note_on channel=0 note=63 velocity=0 time=0
note_on channel=0 note=63 velocity=80 time=16
note_on channel=0 note=65 velocity=80 time=0
note_on channel=0 note=65 velocity=0 time=64
note_on channel=0 note=63 velocity=0 time=0
note_on channel=0 note=65 velocity=80 time=32
note_on channel=0 note=63 velocity=80 time=0
note_on channel=0 note=65 velocity=0 time=80
note_on channel=0 note=67 velocity=80 time=16
note_on channel=0 note=63 velocity=0 time=16
note_on channel=0 note=67 velocity=0 time=16
note_on channel=0 note=63 velocity=80 time=16
note_on channel=0 note=65 velocity=80 time=0
note_on channel=0 note=65 velocity=0 time=64
note_on channel=0 note=63 velocity=0 time=0
note_on channel=0 note=65 velocity=80 time=32
note_on channel=0 note=62 velocity=80 time=0
note_on channel=0 note=62 velocity=0 time=32
note_on channel=0 note=65 velocity=0 time=0
note_on channel=0 note=65 velocity=80 time=16
note_on channel=0 note=62 velocity=80 time=0
note_on channel=0 note=62 velocity=0 time=64
note_on channel=0 note=65 velocity=0 time=0
note_on channel=0 note=65 velocity=80 time=32
note_on channel=0 note=62 velocity=80 time=0
note_on channel=0 note=65 velocity=0 time=80
note_on channel=0 note=67 velocity=80 time=16
note_on channel=0 note=62 velocity=0 time=16
note_on channel=0 note=67 velocity=0 time=16
note_on channel=0 note=65 velocity=80 time=16
note_on channel=0 note=62 velocity=80 time=0
note_on channel=0 note=62 velocity=0 time=64
note_on channel=0 note=65 velocity=0 time=0
note_on channel=0 note=62 velocity=80 time=32
note_on channel=0 note=62 velocity=0 time=32
note_on channel=0 note=70 velocity=80 time=16
note_on channel=0 note=70 velocity=0 time=32
note_on channel=0 note=67 velocity=80 time=16
note_on channel=0 note=67 velocity=0 time=32
note_on channel=0 note=65 velocity=80 time=16
note_on channel=0 note=65 velocity=0 time=32
note_on channel=0 note=63 velocity=80 time=16
note_on channel=0 note=63 velocity=0 time=32
note_on channel=0 note=72 velocity=80 time=16
note_on channel=0 note=72 velocity=0 time=64
note_on channel=0 note=73 velocity=80 time=32
note_on channel=0 note=73 velocity=0 time=32
note_on channel=0 note=74 velocity=80 time=16
note_on channel=0 note=74 velocity=0 time=32
note_on channel=0 note=65 velocity=80 time=16
note_on channel=0 note=65 velocity=0 time=32
note_on channel=0 note=70 velocity=80 time=16
note_on channel=0 note=70 velocity=0 time=32
note_on channel=0 note=74 velocity=80 time=16
note_on channel=0 note=74 velocity=0 time=32
note_on channel=0 note=79 velocity=80 time=16
note_on channel=0 note=74 velocity=80 time=0
note_on channel=0 note=79 velocity=0 time=32
note_on channel=0 note=82 velocity=80 time=16
note_on channel=0 note=74 velocity=0 time=80
note_on channel=0 note=82 velocity=0 time=16
note_on channel=0 note=81 velocity=80 time=48
note_on channel=0 note=81 velocity=0 time=32
note_on channel=0 note=84 velocity=80 time=16
note_on channel=0 note=84 velocity=0 time=32
note_on channel=0 note=86 velocity=80 time=16
note_on channel=0 note=86 velocity=0 time=32
note_on channel=0 note=78 velocity=80 time=16
note_on channel=0 note=87 velocity=80 time=0
note_on channel=0 note=87 velocity=0 time=64
note_on channel=0 note=78 velocity=0 time=0
note_on channel=0 note=86 velocity=80 time=32
note_on channel=0 note=86 velocity=0 time=32
note_on channel=0 note=78 velocity=80 time=16
note_on channel=0 note=81 velocity=80 time=0
note_on channel=0 note=81 velocity=0 time=64
note_on channel=0 note=78 velocity=0 time=0
note_on channel=0 note=79 velocity=80 time=32
note_on channel=0 note=84 velocity=80 time=0
note_on channel=0 note=84 velocity=0 time=32
note_on channel=0 note=82 velocity=80 time=16
note_on channel=0 note=82 velocity=0 time=32
note_on channel=0 note=81 velocity=80 time=16
note_on channel=0 note=81 velocity=0 time=32
note_on channel=0 note=82 velocity=80 time=16
note_on channel=0 note=79 velocity=0 time=144
note_on channel=0 note=82 velocity=80 time=48
note_on channel=0 note=75 velocity=80 time=0
note_on channel=0 note=82 velocity=0 time=32
note_on channel=0 note=75 velocity=0 time=48
note_on channel=0 note=70 velocity=80 time=16
note_on channel=0 note=82 velocity=0 time=16
note_on channel=0 note=70 velocity=0 time=16
note_on channel=0 note=75 velocity=80 time=16
note_on channel=0 note=79 velocity=80 time=0
note_on channel=0 note=75 velocity=0 time=32
note_on channel=0 note=67 velocity=80 time=16
note_on channel=0 note=79 velocity=0 time=16
note_on channel=0 note=67 velocity=0 time=16
note_on channel=0 note=70 velocity=80 time=16
note_on channel=0 note=70 velocity=0 time=32
note_on channel=0 note=77 velocity=80 time=16
note_on channel=0 note=74 velocity=80 time=0
note_on channel=0 note=74 velocity=0 time=64
note_on channel=0 note=77 velocity=0 time=0
note_on channel=0 note=65 velocity=80 time=32
note_on channel=0 note=65 velocity=0 time=32
note_on channel=0 note=75 velocity=80 time=16
note_on channel=0 note=72 velocity=80 time=0
note_on channel=0 note=72 velocity=0 time=32
note_on channel=0 note=67 velocity=80 time=16
note_on channel=0 note=75 velocity=0 time=16
note_on channel=0 note=67 velocity=0 time=16
note_on channel=0 note=69 velocity=80 time=16
note_on channel=0 note=75 velocity=80 time=0
note_on channel=0 note=75 velocity=0 time=32
note_on channel=0 note=69 velocity=0 time=0
note_on channel=0 note=74 velocity=80 time=16
note_on channel=0 note=70 velocity=80 time=0
note_on channel=0 note=70 velocity=0 time=64
note_on channel=0 note=74 velocity=0 time=0
note_on channel=0 note=65 velocity=80 time=32
note_on channel=0 note=65 velocity=0 time=32
note_on channel=0 note=77 velocity=80 time=16
note_on channel=0 note=74 velocity=80 time=0
note_on channel=0 note=74 velocity=0 time=64
note_on channel=0 note=77 velocity=0 time=0
note_on channel=0 note=82 velocity=80 time=32
note_on channel=0 note=75 velocity=80 time=0
note_on channel=0 note=75 velocity=0 time=32
note_on channel=0 note=70 velocity=80 time=16
note_on channel=0 note=82 velocity=0 time=16
note_on channel=0 note=70 velocity=0 time=16
note_on channel=0 note=75 velocity=80 time=16
note_on channel=0 note=79 velocity=80 time=0
note_on channel=0 note=75 velocity=0 time=32
note_on channel=0 note=67 velocity=80 time=16
note_on channel=0 note=79 velocity=0 time=16
note_on channel=0 note=67 velocity=0 time=16
note_on channel=0 note=70 velocity=80 time=16
note_on channel=0 note=70 velocity=0 time=32
note_on channel=0 note=77 velocity=80 time=16
note_on channel=0 note=74 velocity=80 time=0
note_on channel=0 note=74 velocity=0 time=64
note_on channel=0 note=77 velocity=0 time=0
note_on channel=0 note=65 velocity=80 time=32
note_on channel=0 note=65 velocity=0 time=32
note_on channel=0 note=75 velocity=80 time=16
note_on channel=0 note=72 velocity=80 time=0
note_on channel=0 note=72 velocity=0 time=32
note_on channel=0 note=67 velocity=80 time=16
note_on channel=0 note=75 velocity=0 time=16
note_on channel=0 note=67 velocity=0 time=16
note_on channel=0 note=69 velocity=80 time=16
note_on channel=0 note=75 velocity=80 time=0
note_on channel=0 note=75 velocity=0 time=32
note_on channel=0 note=69 velocity=0 time=0
note_on channel=0 note=74 velocity=80 time=16
note_on channel=0 note=70 velocity=80 time=0
note_on channel=0 note=70 velocity=0 time=160
note_on channel=0 note=74 velocity=0 time=0
note_on channel=0 note=82 velocity=80 time=32
note_on channel=0 note=75 velocity=80 time=0
note_on channel=0 note=75 velocity=0 time=80
note_on channel=0 note=70 velocity=80 time=16
note_on channel=0 note=82 velocity=0 time=16
note_on channel=0 note=70 velocity=0 time=16
note_on channel=0 note=75 velocity=80 time=16
note_on channel=0 note=79 velocity=80 time=0
note_on channel=0 note=75 velocity=0 time=32
note_on channel=0 note=67 velocity=80 time=16
note_on channel=0 note=79 velocity=0 time=16
note_on channel=0 note=67 velocity=0 time=16
note_on channel=0 note=70 velocity=80 time=16
note_on channel=0 note=70 velocity=0 time=32
note_on channel=0 note=77 velocity=80 time=16
note_on channel=0 note=74 velocity=80 time=0
note_on channel=0 note=74 velocity=0 time=64
note_on channel=0 note=77 velocity=0 time=0
note_on channel=0 note=65 velocity=80 time=32
note_on channel=0 note=65 velocity=0 time=32
note_on channel=0 note=75 velocity=80 time=16
note_on channel=0 note=72 velocity=80 time=0
note_on channel=0 note=72 velocity=0 time=32
note_on channel=0 note=67 velocity=80 time=16
note_on channel=0 note=75 velocity=0 time=16
note_on channel=0 note=67 velocity=0 time=16
note_on channel=0 note=69 velocity=80 time=16
note_on channel=0 note=75 velocity=80 time=0
note_on channel=0 note=75 velocity=0 time=32
note_on channel=0 note=69 velocity=0 time=0
note_on channel=0 note=74 velocity=80 time=16
note_on channel=0 note=70 velocity=80 time=0
note_on channel=0 note=70 velocity=0 time=64
note_on channel=0 note=74 velocity=0 time=0
note_on channel=0 note=65 velocity=80 time=32
note_on channel=0 note=65 velocity=0 time=32
note_on channel=0 note=77 velocity=80 time=16
note_on channel=0 note=74 velocity=80 time=0
note_on channel=0 note=74 velocity=0 time=64
note_on channel=0 note=77 velocity=0 time=0
note_on channel=0 note=82 velocity=80 time=32
note_on channel=0 note=75 velocity=80 time=0
note_on channel=0 note=75 velocity=0 time=32
note_on channel=0 note=70 velocity=80 time=16
note_on channel=0 note=82 velocity=0 time=16
note_on channel=0 note=70 velocity=0 time=16
note_on channel=0 note=75 velocity=80 time=16
note_on channel=0 note=79 velocity=80 time=0
note_on channel=0 note=75 velocity=0 time=32
note_on channel=0 note=67 velocity=80 time=16
note_on channel=0 note=79 velocity=0 time=16
note_on channel=0 note=67 velocity=0 time=16
note_on channel=0 note=70 velocity=80 time=16
note_on channel=0 note=70 velocity=0 time=32
note_on channel=0 note=77 velocity=80 time=16
note_on channel=0 note=74 velocity=80 time=0
note_on channel=0 note=74 velocity=0 time=64
note_on channel=0 note=77 velocity=0 time=0
note_on channel=0 note=65 velocity=80 time=32
note_on channel=0 note=65 velocity=0 time=32
note_on channel=0 note=75 velocity=80 time=16
note_on channel=0 note=72 velocity=80 time=0
note_on channel=0 note=72 velocity=0 time=32
note_on channel=0 note=67 velocity=80 time=16
note_on channel=0 note=75 velocity=0 time=16
note_on channel=0 note=67 velocity=0 time=16
note_on channel=0 note=75 velocity=80 time=16
note_on channel=0 note=69 velocity=80 time=0
note_on channel=0 note=69 velocity=0 time=32
note_on channel=0 note=75 velocity=0 time=0
note_on channel=0 note=74 velocity=80 time=16
note_on channel=0 note=70 velocity=80 time=0
note_on channel=0 note=70 velocity=0 time=96
note_on channel=0 note=74 velocity=0 time=0
note_on channel=0 note=70 velocity=80 time=48
note_on channel=0 note=74 velocity=80 time=0
note_on channel=0 note=74 velocity=0 time=32
note_on channel=0 note=70 velocity=0 time=0
note_on channel=0 note=72 velocity=80 time=16
note_on channel=0 note=75 velocity=80 time=0
note_on channel=0 note=75 velocity=0 time=32
note_on channel=0 note=72 velocity=0 time=0
note_on channel=0 note=74 velocity=80 time=16
note_on channel=0 note=77 velocity=80 time=0
note_on channel=0 note=77 velocity=0 time=64
note_on channel=0 note=74 velocity=0 time=0
note_on channel=0 note=79 velocity=80 time=32
note_on channel=0 note=75 velocity=80 time=0
note_on channel=0 note=75 velocity=0 time=128
note_on channel=0 note=79 velocity=0 time=0
note_on channel=0 note=78 velocity=80 time=64
note_on channel=0 note=75 velocity=80 time=0
note_on channel=0 note=75 velocity=0 time=64
note_on channel=0 note=78 velocity=0 time=0
note_on channel=0 note=75 velocity=80 time=32
note_on channel=0 note=78 velocity=80 time=0
note_on channel=0 note=78 velocity=0 time=32
note_on channel=0 note=75 velocity=0 time=0
note_on channel=0 note=74 velocity=80 time=16
note_on channel=0 note=77 velocity=80 time=0
note_on channel=0 note=77 velocity=0 time=32
note_on channel=0 note=82 velocity=80 time=16
note_on channel=0 note=82 velocity=0 time=32
note_on channel=0 note=74 velocity=0 time=16
note_on channel=0 note=86 velocity=80 time=0
note_on channel=0 note=82 velocity=80 time=0
note_on channel=0 note=77 velocity=80 time=0
note_on channel=0 note=65 velocity=80 time=48
note_on channel=0 note=77 velocity=0 time=16
note_on channel=0 note=86 velocity=0 time=0
note_on channel=0 note=82 velocity=0 time=0
note_on channel=0 note=82 velocity=80 time=32
note_on channel=0 note=74 velocity=80 time=0
note_on channel=0 note=65 velocity=0 time=16
note_on channel=0 note=74 velocity=0 time=16
note_on channel=0 note=82 velocity=0 time=0
note_on channel=0 note=84 velocity=80 time=16
note_on channel=0 note=81 velocity=80 time=0
note_on channel=0 note=75 velocity=80 time=0
note_on channel=0 note=65 velocity=80 time=0
note_on channel=0 note=53 velocity=80 time=0
note_on channel=0 note=53 velocity=0 time=64
note_on channel=0 note=75 velocity=0 time=0
note_on channel=0 note=84 velocity=0 time=0
note_on channel=0 note=81 velocity=0 time=0
note_on channel=0 note=65 velocity=0 time=0
note_on channel=0 note=58 velocity=80 time=32
note_on channel=0 note=65 velocity=80 time=0
note_on channel=0 note=74 velocity=80 time=0
note_on channel=0 note=82 velocity=80 time=0
note_on channel=0 note=82 velocity=0 time=64
note_on channel=0 note=58 velocity=0 time=0
note_on channel=0 note=65 velocity=0 time=0
note_on channel=0 note=74 velocity=0 time=0
note_on channel=0 note=74 velocity=80 time=32
note_on channel=0 note=77 velocity=80 time=0
note_on channel=0 note=77 velocity=0 time=32
note_on channel=0 note=82 velocity=80 time=16
note_on channel=0 note=74 velocity=0 time=16
note_on channel=0 note=82 velocity=0 time=16
note_on channel=0 note=70 velocity=80 time=16
note_on channel=0 note=74 velocity=80 time=0
note_on channel=0 note=74 velocity=0 time=32
note_on channel=0 note=77 velocity=80 time=16
note_on channel=0 note=70 velocity=0 time=16
note_on channel=0 note=77 velocity=0 time=16
note_on channel=0 note=65 velocity=80 time=16
note_on channel=0 note=70 velocity=80 time=0
note_on channel=0 note=70 velocity=0 time=32
note_on channel=0 note=74 velocity=80 time=16
note_on channel=0 note=65 velocity=0 time=16
note_on channel=0 note=74 velocity=0 time=16
note_on channel=0 note=62 velocity=80 time=16
note_on channel=0 note=65 velocity=80 time=0
note_on channel=0 note=65 velocity=0 time=64
note_on channel=0 note=62 velocity=0 time=0
note_on channel=0 note=65 velocity=80 time=32
note_on channel=0 note=62 velocity=80 time=0
note_on channel=0 note=62 velocity=0 time=32
note_on channel=0 note=65 velocity=0 time=0
note_on channel=0 note=64 velocity=80 time=16
note_on channel=0 note=61 velocity=80 time=0
note_on channel=0 note=61 velocity=0 time=32
note_on channel=0 note=64 velocity=0 time=0
note_on channel=0 note=65 velocity=80 time=16
note_on channel=0 note=62 velocity=80 time=0
note_on channel=0 note=62 velocity=0 time=64
note_on channel=0 note=65 velocity=0 time=0
note_on channel=0 note=62 velocity=80 time=32
note_on channel=0 note=62 velocity=0 time=32
note_on channel=0 note=63 velocity=80 time=16
note_on channel=0 note=63 velocity=0 time=32
note_on channel=0 note=65 velocity=80 time=16
note_on channel=0 note=65 velocity=0 time=64
note_on channel=0 note=67 velocity=80 time=32
note_on channel=0 note=67 velocity=0 time=128
note_on channel=0 note=66 velocity=80 time=64
note_on channel=0 note=66 velocity=0 time=64
note_on channel=0 note=66 velocity=80 time=32
note_on channel=0 note=66 velocity=0 time=32
note_on channel=0 note=65 velocity=80 time=16
note_on channel=0 note=65 velocity=0 time=32
note_on channel=0 note=70 velocity=80 time=16
note_on channel=0 note=70 velocity=0 time=32
note_on channel=0 note=65 velocity=80 time=16
note_on channel=0 note=70 velocity=80 time=0
note_on channel=0 note=74 velocity=80 time=0
note_on channel=0 note=74 velocity=0 time=64
note_on channel=0 note=70 velocity=0 time=0
note_on channel=0 note=65 velocity=0 time=0
note_on channel=0 note=70 velocity=80 time=32
note_on channel=0 note=62 velocity=80 time=0
note_on channel=0 note=62 velocity=0 time=32
note_on channel=0 note=70 velocity=0 time=0
note_on channel=0 note=63 velocity=80 time=16
note_on channel=0 note=69 velocity=80 time=0
note_on channel=0 note=72 velocity=80 time=0
note_on channel=0 note=72 velocity=0 time=64
note_on channel=0 note=69 velocity=0 time=0
note_on channel=0 note=63 velocity=0 time=0
note_on channel=0 note=70 velocity=80 time=32
note_on channel=0 note=62 velocity=80 time=0
note_on channel=0 note=62 velocity=0 time=64
note_on channel=0 note=70 velocity=80 time=32
note_on channel=0 note=77 velocity=80 time=0
note_on channel=0 note=82 velocity=80 time=48
note_on channel=0 note=77 velocity=0 time=16
note_on channel=0 note=70 velocity=0 time=0
note_on channel=0 note=82 velocity=0 time=16
note_on channel=0 note=76 velocity=80 time=16
note_on channel=0 note=70 velocity=80 time=0
note_on channel=0 note=82 velocity=80 time=48
note_on channel=0 note=76 velocity=0 time=16
note_on channel=0 note=70 velocity=0 time=0
note_on channel=0 note=70 velocity=0 time=1
note_on channel=0 note=82 velocity=0 time=15
note_on channel=0 note=70 velocity=80 time=16
note_on channel=0 note=75 velocity=80 time=0
note_on channel=0 note=82 velocity=80 time=48
note_on channel=0 note=75 velocity=0 time=16
note_on channel=0 note=70 velocity=0 time=0
note_on channel=0 note=82 velocity=0 time=16
note_on channel=0 note=70 velocity=80 time=16
note_on channel=0 note=74 velocity=80 time=0
note_on channel=0 note=82 velocity=80 time=0
note_on channel=0 note=82 velocity=0 time=64
note_on channel=0 note=74 velocity=0 time=0
note_on channel=0 note=70 velocity=0 time=0
note_on channel=0 note=70 velocity=80 time=128
note_on channel=0 note=74 velocity=80 time=0
note_on channel=0 note=77 velocity=80 time=0
note_on channel=0 note=82 velocity=80 time=0
note_on channel=0 note=82 velocity=0 time=64
note_on channel=0 note=70 velocity=0 time=0
note_on channel=0 note=74 velocity=0 time=0
note_on channel=0 note=77 velocity=0 time=0
<meta message end_of_track time=0>
<meta message track_name name='by Scott Joplin (1914)' time=0>
program_change channel=1 program=0 time=0
control_change channel=1 control=7 value=127 time=0
control_change channel=1 control=10 value=44 time=0
control_change channel=1 control=91 value=21 time=0
control_change channel=1 control=93 value=12 time=0
control_change channel=1 control=121 value=0 time=8
control_change channel=1 control=1 value=0 time=16
control_change channel=1 control=64 value=0 time=8
aftertouch channel=1 value=0 time=11
pitchwheel channel=1 pitch=0 time=6
note_on channel=1 note=53 velocity=80 time=335
note_on channel=1 note=53 velocity=0 time=32
note_on channel=1 note=52 velocity=80 time=16
note_on channel=1 note=52 velocity=0 time=64
note_on channel=1 note=51 velocity=80 time=32
note_on channel=1 note=51 velocity=0 time=176
note_on channel=1 note=53 velocity=80 time=64
note_on channel=1 note=53 velocity=0 time=32
note_on channel=1 note=51 velocity=80 time=16
note_on channel=1 note=51 velocity=0 time=64
note_on channel=1 note=50 velocity=80 time=32
note_on channel=1 note=50 velocity=0 time=176
note_on channel=1 note=53 velocity=80 time=64
note_on channel=1 note=53 velocity=0 time=32
note_on channel=1 note=54 velocity=80 time=16
note_on channel=1 note=54 velocity=0 time=32
note_on channel=1 note=55 velocity=80 time=16
note_on channel=1 note=55 velocity=0 time=32
note_on channel=1 note=56 velocity=80 time=16
note_on channel=1 note=56 velocity=0 time=64
note_on channel=1 note=57 velocity=80 time=32
note_on channel=1 note=57 velocity=0 time=32
note_on channel=1 note=58 velocity=80 time=16
note_on channel=1 note=58 velocity=0 time=32
note_on channel=1 note=59 velocity=80 time=16
note_on channel=1 note=59 velocity=0 time=32
note_on channel=1 note=60 velocity=80 time=16
note_on channel=1 note=60 velocity=0 time=64
note_on channel=1 note=53 velocity=80 time=128
note_on channel=1 note=41 velocity=80 time=0
note_on channel=1 note=41 velocity=0 time=64
note_on channel=1 note=53 velocity=0 time=0
note_on channel=1 note=46 velocity=80 time=128
note_on channel=1 note=65 velocity=80 time=0
note_on channel=1 note=53 velocity=80 time=96
note_on channel=1 note=58 velocity=80 time=0
note_on channel=1 note=65 velocity=0 time=32
note_on channel=1 note=46 velocity=0 time=0
note_on channel=1 note=53 velocity=0 time=32
note_on channel=1 note=58 velocity=0 time=0
note_on channel=1 note=48 velocity=80 time=32
note_on channel=1 note=67 velocity=80 time=0
note_on channel=1 note=53 velocity=80 time=96
note_on channel=1 note=57 velocity=80 time=0
note_on channel=1 note=67 velocity=0 time=32
note_on channel=1 note=48 velocity=0 time=0
note_on channel=1 note=53 velocity=0 time=32
note_on channel=1 note=57 velocity=0 time=0
note_on channel=1 note=65 velocity=80 time=32
note_on channel=1 note=46 velocity=80 time=0
note_on channel=1 note=46 velocity=0 time=64
note_on channel=1 note=58 velocity=80 time=32
note_on channel=1 note=53 velocity=80 time=0
note_on channel=1 note=65 velocity=0 time=32
note_on channel=1 note=53 velocity=0 time=32
note_on channel=1 note=58 velocity=0 time=0
note_on channel=1 note=46 velocity=80 time=32
note_on channel=1 note=46 velocity=0 time=64
note_on channel=1 note=58 velocity=80 time=32
note_on channel=1 note=53 velocity=80 time=0
note_on channel=1 note=53 velocity=0 time=64
note_on channel=1 note=58 velocity=0 time=0
note_on channel=1 note=45 velocity=80 time=32
note_on channel=1 note=45 velocity=0 time=64
note_on channel=1 note=57 velocity=80 time=32
note_on channel=1 note=53 velocity=80 time=0
note_on channel=1 note=53 velocity=0 time=64
note_on channel=1 note=57 velocity=0 time=0
note_on channel=1 note=41 velocity=80 time=32
note_on channel=1 note=41 velocity=0 time=64
note_on channel=1 note=57 velocity=80 time=32
note_on channel=1 note=53 velocity=80 time=0
note_on channel=1 note=53 velocity=0 time=64
note_on channel=1 note=57 velocity=0 time=0
note_on channel=1 note=46 velocity=80 time=32
note_on channel=1 note=46 velocity=0 time=64
note_on channel=1 note=58 velocity=80 time=32
note_on channel=1 note=53 velocity=80 time=0
note_on channel=1 note=53 velocity=0 time=64
note_on channel=1 note=58 velocity=0 time=0
note_on channel=1 note=41 velocity=80 time=32
note_on channel=1 note=41 velocity=0 time=64
note_on channel=1 note=53 velocity=80 time=32
note_on channel=1 note=58 velocity=80 time=0
note_on channel=1 note=58 velocity=0 time=64
note_on channel=1 note=53 velocity=0 time=0
note_on channel=1 note=46 velocity=80 time=32
note_on channel=1 note=65 velocity=80 time=0
note_on channel=1 note=53 velocity=80 time=96
note_on channel=1 note=58 velocity=80 time=0
note_on channel=1 note=65 velocity=0 time=32
note_on channel=1 note=46 velocity=0 time=0
note_on channel=1 note=53 velocity=0 time=32
note_on channel=1 note=58 velocity=0 time=0
note_on channel=1 note=48 velocity=80 time=32
note_on channel=1 note=67 velocity=80 time=0
note_on channel=1 note=53 velocity=80 time=96
note_on channel=1 note=57 velocity=80 time=0
note_on channel=1 note=67 velocity=0 time=32
note_on channel=1 note=48 velocity=0 time=0
note_on channel=1 note=53 velocity=0 time=32
note_on channel=1 note=57 velocity=0 time=0
note_on channel=1 note=65 velocity=80 time=32
note_on channel=1 note=46 velocity=80 time=0
note_on channel=1 note=46 velocity=0 time=64
note_on channel=1 note=58 velocity=80 time=32
note_on channel=1 note=53 velocity=80 time=0
note_on channel=1 note=65 velocity=0 time=32
note_on channel=1 note=53 velocity=0 time=32
note_on channel=1 note=58 velocity=0 time=0
note_on channel=1 note=46 velocity=80 time=32
note_on channel=1 note=58 velocity=80 time=0
note_on channel=1 note=58 velocity=0 time=64
note_on channel=1 note=46 velocity=0 time=0
note_on channel=1 note=55 velocity=80 time=32
note_on channel=1 note=43 velocity=80 time=0
note_on channel=1 note=43 velocity=0 time=64
note_on channel=1 note=55 velocity=0 time=0
note_on channel=1 note=54 velocity=80 time=32
note_on channel=1 note=42 velocity=80 time=0
note_on channel=1 note=42 velocity=0 time=64
note_on channel=1 note=54 velocity=0 time=0
note_on channel=1 note=54 velocity=80 time=32
note_on channel=1 note=60 velocity=80 time=0
note_on channel=1 note=62 velocity=80 time=0
note_on channel=1 note=62 velocity=0 time=64
note_on channel=1 note=60 velocity=0 time=0
note_on channel=1 note=54 velocity=0 time=0
note_on channel=1 note=50 velocity=80 time=32
note_on channel=1 note=38 velocity=80 time=0
note_on channel=1 note=38 velocity=0 time=64
note_on channel=1 note=50 velocity=0 time=0
note_on channel=1 note=54 velocity=80 time=32
note_on channel=1 note=60 velocity=80 time=0
note_on channel=1 note=62 velocity=80 time=0
note_on channel=1 note=62 velocity=0 time=64
note_on channel=1 note=60 velocity=0 time=0
note_on channel=1 note=54 velocity=0 time=0
note_on channel=1 note=55 velocity=80 time=32
note_on channel=1 note=43 velocity=80 time=0
note_on channel=1 note=43 velocity=0 time=64
note_on channel=1 note=55 velocity=0 time=0
note_on channel=1 note=55 velocity=80 time=32
note_on channel=1 note=58 velocity=80 time=0
note_on channel=1 note=62 velocity=80 time=0
note_on channel=1 note=62 velocity=0 time=64
note_on channel=1 note=58 velocity=0 time=0
note_on channel=1 note=55 velocity=0 time=0
note_on channel=1 note=50 velocity=80 time=32
note_on channel=1 note=38 velocity=80 time=0
note_on channel=1 note=38 velocity=0 time=64
note_on channel=1 note=50 velocity=0 time=0
note_on channel=1 note=55 velocity=80 time=32
note_on channel=1 note=58 velocity=80 time=0
note_on channel=1 note=62 velocity=80 time=0
note_on channel=1 note=62 velocity=0 time=64
note_on channel=1 note=58 velocity=0 time=0
note_on channel=1 note=55 velocity=0 time=0
note_on channel=1 note=55 velocity=80 time=32
note_on channel=1 note=43 velocity=80 time=0
note_on channel=1 note=43 velocity=0 time=64
note_on channel=1 note=55 velocity=0 time=0
note_on channel=1 note=39 velocity=80 time=32
note_on channel=1 note=51 velocity=80 time=0
note_on channel=1 note=51 velocity=0 time=64
note_on channel=1 note=39 velocity=0 time=0
note_on channel=1 note=50 velocity=80 time=32
note_on channel=1 note=38 velocity=80 time=0
note_on channel=1 note=38 velocity=0 time=64
note_on channel=1 note=50 velocity=0 time=0
note_on channel=1 note=53 velocity=80 time=32
note_on channel=1 note=58 velocity=80 time=0
note_on channel=1 note=62 velocity=80 time=0
note_on channel=1 note=62 velocity=0 time=64
note_on channel=1 note=58 velocity=0 time=0
note_on channel=1 note=53 velocity=0 time=0
note_on channel=1 note=53 velocity=80 time=32
note_on channel=1 note=41 velocity=80 time=0
note_on channel=1 note=41 velocity=0 time=64
note_on channel=1 note=53 velocity=0 time=0
note_on channel=1 note=53 velocity=80 time=32
note_on channel=1 note=57 velocity=80 time=0
note_on channel=1 note=63 velocity=80 time=0
note_on channel=1 note=63 velocity=0 time=64
note_on channel=1 note=57 velocity=0 time=0
note_on channel=1 note=53 velocity=0 time=0
note_on channel=1 note=58 velocity=80 time=32
note_on channel=1 note=46 velocity=80 time=0
note_on channel=1 note=46 velocity=0 time=64
note_on channel=1 note=58 velocity=0 time=0
note_on channel=1 note=56 velocity=80 time=32
note_on channel=1 note=44 velocity=80 time=0
note_on channel=1 note=44 velocity=0 time=64
note_on channel=1 note=56 velocity=0 time=0
note_on channel=1 note=55 velocity=80 time=32
note_on channel=1 note=43 velocity=80 time=0
note_on channel=1 note=43 velocity=0 time=64
note_on channel=1 note=55 velocity=0 time=0
note_on channel=1 note=39 velocity=80 time=32
note_on channel=1 note=51 velocity=80 time=0
note_on channel=1 note=51 velocity=0 time=64
note_on channel=1 note=39 velocity=0 time=0
note_on channel=1 note=50 velocity=80 time=32
note_on channel=1 note=38 velocity=80 time=0
note_on channel=1 note=38 velocity=0 time=64
note_on channel=1 note=50 velocity=0 time=0
note_on channel=1 note=53 velocity=80 time=32
note_on channel=1 note=58 velocity=80 time=0
note_on channel=1 note=62 velocity=80 time=0
note_on channel=1 note=62 velocity=0 time=64
note_on channel=1 note=58 velocity=0 time=0
note_on channel=1 note=53 velocity=0 time=0
note_on channel=1 note=53 velocity=80 time=32
note_on channel=1 note=41 velocity=80 time=0
note_on channel=1 note=41 velocity=0 time=64
note_on channel=1 note=53 velocity=0 time=0
note_on channel=1 note=53 velocity=80 time=32
note_on channel=1 note=57 velocity=80 time=0
note_on channel=1 note=63 velocity=80 time=0
note_on channel=1 note=63 velocity=0 time=64
note_on channel=1 note=57 velocity=0 time=0
note_on channel=1 note=53 velocity=0 time=0
note_on channel=1 note=58 velocity=80 time=32
note_on channel=1 note=46 velocity=80 time=0
note_on channel=1 note=46 velocity=0 time=64
note_on channel=1 note=58 velocity=0 time=0
note_on channel=1 note=53 velocity=80 time=32
note_on channel=1 note=41 velocity=80 time=0
note_on channel=1 note=41 velocity=0 time=64
note_on channel=1 note=53 velocity=0 time=0
note_on channel=1 note=55 velocity=80 time=32
note_on channel=1 note=43 velocity=80 time=0
note_on channel=1 note=43 velocity=0 time=64
note_on channel=1 note=55 velocity=0 time=0
note_on channel=1 note=39 velocity=80 time=32
note_on channel=1 note=51 velocity=80 time=0
note_on channel=1 note=51 velocity=0 time=64
note_on channel=1 note=39 velocity=0 time=0
note_on channel=1 note=50 velocity=80 time=32
note_on channel=1 note=38 velocity=80 time=0
note_on channel=1 note=38 velocity=0 time=64
note_on channel=1 note=50 velocity=0 time=0
note_on channel=1 note=53 velocity=80 time=32
note_on channel=1 note=58 velocity=80 time=0
note_on channel=1 note=62 velocity=80 time=0
note_on channel=1 note=62 velocity=0 time=64
note_on channel=1 note=58 velocity=0 time=0
note_on channel=1 note=53 velocity=0 time=0
note_on channel=1 note=53 velocity=80 time=32
note_on channel=1 note=41 velocity=80 time=0
note_on channel=1 note=41 velocity=0 time=64
note_on channel=1 note=53 velocity=0 time=0
note_on channel=1 note=53 velocity=80 time=32
note_on channel=1 note=57 velocity=80 time=0
note_on channel=1 note=63 velocity=80 time=0
note_on channel=1 note=63 velocity=0 time=64
note_on channel=1 note=57 velocity=0 time=0
note_on channel=1 note=53 velocity=0 time=0
note_on channel=1 note=58 velocity=80 time=32
note_on channel=1 note=46 velocity=80 time=0
note_on channel=1 note=46 velocity=0 time=64
note_on channel=1 note=58 velocity=0 time=0
note_on channel=1 note=56 velocity=80 time=32
note_on channel=1 note=44 velocity=80 time=0
note_on channel=1 note=44 velocity=0 time=64
note_on channel=1 note=56 velocity=0 time=0
note_on channel=1 note=55 velocity=80 time=32
note_on channel=1 note=43 velocity=80 time=0
note_on channel=1 note=43 velocity=0 time=64
note_on channel=1 note=55 velocity=0 time=0
note_on channel=1 note=39 velocity=80 time=32
note_on channel=1 note=51 velocity=80 time=0
note_on channel=1 note=51 velocity=0 time=64
note_on channel=1 note=39 velocity=0 time=0
note_on channel=1 note=50 velocity=80 time=32
note_on channel=1 note=38 velocity=80 time=0
note_on channel=1 note=38 velocity=0 time=64
note_on channel=1 note=50 velocity=0 time=0
note_on channel=1 note=53 velocity=80 time=32
note_on channel=1 note=58 velocity=80 time=0
note_on channel=1 note=62 velocity=80 time=0
note_on channel=1 note=62 velocity=0 time=64
note_on channel=1 note=58 velocity=0 time=0
note_on channel=1 note=53 velocity=0 time=0
note_on channel=1 note=53 velocity=80 time=32
note_on channel=1 note=41 velocity=80 time=0
note_on channel=1 note=41 velocity=0 time=64
note_on channel=1 note=53 velocity=0 time=0
note_on channel=1 note=53 velocity=80 time=32
note_on channel=1 note=57 velocity=80 time=0
note_on channel=1 note=63 velocity=80 time=0
note_on channel=1 note=63 velocity=0 time=64
note_on channel=1 note=57 velocity=0 time=0
note_on channel=1 note=53 velocity=0 time=0
note_on channel=1 note=58 velocity=80 time=32
note_on channel=1 note=46 velocity=80 time=0
note_on channel=1 note=46 velocity=0 time=64
note_on channel=1 note=58 velocity=0 time=0
note_on channel=1 note=53 velocity=80 time=32
note_on channel=1 note=57 velocity=80 time=0
note_on channel=1 note=57 velocity=0 time=64
note_on channel=1 note=53 velocity=0 time=0
note_on channel=1 note=46 velocity=80 time=32
note_on channel=1 note=65 velocity=80 time=0
note_on channel=1 note=53 velocity=80 time=96
note_on channel=1 note=58 velocity=80 time=0
note_on channel=1 note=65 velocity=0 time=32
note_on channel=1 note=46 velocity=0 time=0
note_on channel=1 note=53 velocity=0 time=32
note_on channel=1 note=58 velocity=0 time=0
note_on channel=1 note=48 velocity=80 time=32
note_on channel=1 note=67 velocity=80 time=0
note_on channel=1 note=53 velocity=80 time=96
note_on channel=1 note=57 velocity=80 time=0
note_on channel=1 note=67 velocity=0 time=32
note_on channel=1 note=48 velocity=0 time=0
note_on channel=1 note=53 velocity=0 time=32
note_on channel=1 note=57 velocity=0 time=0
note_on channel=1 note=65 velocity=80 time=32
note_on channel=1 note=46 velocity=80 time=0
note_on channel=1 note=46 velocity=0 time=64
note_on channel=1 note=58 velocity=80 time=32
note_on channel=1 note=53 velocity=80 time=0
note_on channel=1 note=65 velocity=0 time=32
note_on channel=1 note=53 velocity=0 time=32
note_on channel=1 note=58 velocity=0 time=0
note_on channel=1 note=46 velocity=80 time=32
note_on channel=1 note=46 velocity=0 time=64
note_on channel=1 note=58 velocity=80 time=32
note_on channel=1 note=53 velocity=80 time=0
note_on channel=1 note=53 velocity=0 time=64
note_on channel=1 note=58 velocity=0 time=0
note_on channel=1 note=45 velocity=80 time=32
note_on channel=1 note=45 velocity=0 time=64
note_on channel=1 note=57 velocity=80 time=32
note_on channel=1 note=53 velocity=80 time=0
note_on channel=1 note=53 velocity=0 time=64
note_on channel=1 note=57 velocity=0 time=0
note_on channel=1 note=41 velocity=80 time=32
note_on channel=1 note=41 velocity=0 time=64
note_on channel=1 note=57 velocity=80 time=32
note_on channel=1 note=53 velocity=80 time=0
note_on channel=1 note=53 velocity=0 time=64
note_on channel=1 note=57 velocity=0 time=0
note_on channel=1 note=46 velocity=80 time=32
note_on channel=1 note=46 velocity=0 time=64
note_on channel=1 note=58 velocity=80 time=32
note_on channel=1 note=53 velocity=80 time=0
note_on channel=1 note=53 velocity=0 time=64
note_on channel=1 note=58 velocity=0 time=0
note_on channel=1 note=41 velocity=80 time=32
note_on channel=1 note=41 velocity=0 time=64
note_on channel=1 note=53 velocity=80 time=32
note_on channel=1 note=58 velocity=80 time=0
note_on channel=1 note=58 velocity=0 time=64
note_on channel=1 note=53 velocity=0 time=0
note_on channel=1 note=46 velocity=80 time=32
note_on channel=1 note=65 velocity=80 time=0
note_on channel=1 note=53 velocity=80 time=96
note_on channel=1 note=58 velocity=80 time=0
note_on channel=1 note=65 velocity=0 time=32
note_on channel=1 note=46 velocity=0 time=0
note_on channel=1 note=53 velocity=0 time=32
note_on channel=1 note=58 velocity=0 time=0
note_on channel=1 note=48 velocity=80 time=32
note_on channel=1 note=67 velocity=80 time=0
note_on channel=1 note=53 velocity=80 time=96
note_on channel=1 note=57 velocity=80 time=0
note_on channel=1 note=67 velocity=0 time=32
note_on channel=1 note=48 velocity=0 time=0
note_on channel=1 note=53 velocity=0 time=32
note_on channel=1 note=57 velocity=0 time=0
note_on channel=1 note=65 velocity=80 time=32
note_on channel=1 note=46 velocity=80 time=0
note_on channel=1 note=46 velocity=0 time=64
note_on channel=1 note=58 velocity=80 time=32
note_on channel=1 note=53 velocity=80 time=0
note_on channel=1 note=65 velocity=0 time=32
note_on channel=1 note=53 velocity=0 time=32
note_on channel=1 note=58 velocity=0 time=0
note_on channel=1 note=46 velocity=80 time=32
note_on channel=1 note=58 velocity=80 time=0
note_on channel=1 note=58 velocity=0 time=64
note_on channel=1 note=46 velocity=0 time=0
note_on channel=1 note=55 velocity=80 time=32
note_on channel=1 note=43 velocity=80 time=0
note_on channel=1 note=43 velocity=0 time=64
note_on channel=1 note=55 velocity=0 time=0
note_on channel=1 note=54 velocity=80 time=32
note_on channel=1 note=42 velocity=80 time=0
note_on channel=1 note=42 velocity=0 time=64
note_on channel=1 note=54 velocity=0 time=0
note_on channel=1 note=54 velocity=80 time=32
note_on channel=1 note=60 velocity=80 time=0
note_on channel=1 note=62 velocity=80 time=0
note_on channel=1 note=62 velocity=0 time=64
note_on channel=1 note=60 velocity=0 time=0
note_on channel=1 note=54 velocity=0 time=0
note_on channel=1 note=50 velocity=80 time=32
note_on channel=1 note=38 velocity=80 time=0
note_on channel=1 note=38 velocity=0 time=64
note_on channel=1 note=50 velocity=0 time=0
note_on channel=1 note=54 velocity=80 time=32
note_on channel=1 note=60 velocity=80 time=0
note_on channel=1 note=62 velocity=80 time=0
note_on channel=1 note=62 velocity=0 time=64
note_on channel=1 note=60 velocity=0 time=0
note_on channel=1 note=54 velocity=0 time=0
note_on channel=1 note=55 velocity=80 time=32
note_on channel=1 note=43 velocity=80 time=0
note_on channel=1 note=43 velocity=0 time=64
note_on channel=1 note=55 velocity=0 time=0
note_on channel=1 note=55 velocity=80 time=32
note_on channel=1 note=58 velocity=80 time=0
note_on channel=1 note=62 velocity=80 time=0
note_on channel=1 note=62 velocity=0 time=64
note_on channel=1 note=58 velocity=0 time=0
note_on channel=1 note=55 velocity=0 time=0
note_on channel=1 note=50 velocity=80 time=32
note_on channel=1 note=38 velocity=80 time=0
note_on channel=1 note=38 velocity=0 time=64
note_on channel=1 note=50 velocity=0 time=0
note_on channel=1 note=55 velocity=80 time=32
note_on channel=1 note=58 velocity=80 time=0
note_on channel=1 note=62 velocity=80 time=0
note_on channel=1 note=62 velocity=0 time=64
note_on channel=1 note=58 velocity=0 time=0
note_on channel=1 note=55 velocity=0 time=0
note_on channel=1 note=55 velocity=80 time=32
note_on channel=1 note=43 velocity=80 time=0
note_on channel=1 note=43 velocity=0 time=64
note_on channel=1 note=55 velocity=0 time=0
note_on channel=1 note=39 velocity=80 time=32
note_on channel=1 note=51 velocity=80 time=0
note_on channel=1 note=51 velocity=0 time=64
note_on channel=1 note=39 velocity=0 time=0
note_on channel=1 note=50 velocity=80 time=32
note_on channel=1 note=38 velocity=80 time=0
note_on channel=1 note=38 velocity=0 time=64
note_on channel=1 note=50 velocity=0 time=0
note_on channel=1 note=53 velocity=80 time=32
note_on channel=1 note=58 velocity=80 time=0
note_on channel=1 note=62 velocity=80 time=0
note_on channel=1 note=62 velocity=0 time=64
note_on channel=1 note=58 velocity=0 time=0
note_on channel=1 note=53 velocity=0 time=0
note_on channel=1 note=53 velocity=80 time=32
note_on channel=1 note=41 velocity=80 time=0
note_on channel=1 note=41 velocity=0 time=64
note_on channel=1 note=53 velocity=0 time=0
note_on channel=1 note=53 velocity=80 time=32
note_on channel=1 note=57 velocity=80 time=0
note_on channel=1 note=63 velocity=80 time=0
note_on channel=1 note=63 velocity=0 time=64
note_on channel=1 note=57 velocity=0 time=0
note_on channel=1 note=53 velocity=0 time=0
note_on channel=1 note=58 velocity=80 time=32
note_on channel=1 note=46 velocity=80 time=0
note_on channel=1 note=46 velocity=0 time=64
note_on channel=1 note=58 velocity=0 time=0
note_on channel=1 note=56 velocity=80 time=32
note_on channel=1 note=44 velocity=80 time=0
note_on channel=1 note=44 velocity=0 time=64
note_on channel=1 note=56 velocity=0 time=0
note_on channel=1 note=55 velocity=80 time=32
note_on channel=1 note=43 velocity=80 time=0
note_on channel=1 note=43 velocity=0 time=64
note_on channel=1 note=55 velocity=0 time=0
note_on channel=1 note=39 velocity=80 time=32
note_on channel=1 note=51 velocity=80 time=0
note_on channel=1 note=51 velocity=0 time=64
note_on channel=1 note=39 velocity=0 time=0
note_on channel=1 note=50 velocity=80 time=32
note_on channel=1 note=38 velocity=80 time=0
note_on channel=1 note=38 velocity=0 time=64
note_on channel=1 note=50 velocity=0 time=0
note_on channel=1 note=53 velocity=80 time=32
note_on channel=1 note=58 velocity=80 time=0
note_on channel=1 note=62 velocity=80 time=0
note_on channel=1 note=62 velocity=0 time=64
note_on channel=1 note=58 velocity=0 time=0
note_on channel=1 note=53 velocity=0 time=0
note_on channel=1 note=53 velocity=80 time=32
note_on channel=1 note=41 velocity=80 time=0
note_on channel=1 note=41 velocity=0 time=64
note_on channel=1 note=53 velocity=0 time=0
note_on channel=1 note=53 velocity=80 time=32
note_on channel=1 note=57 velocity=80 time=0
note_on channel=1 note=63 velocity=80 time=0
note_on channel=1 note=63 velocity=0 time=64
note_on channel=1 note=57 velocity=0 time=0
note_on channel=1 note=53 velocity=0 time=0
note_on channel=1 note=58 velocity=80 time=32
note_on channel=1 note=46 velocity=80 time=0
note_on channel=1 note=46 velocity=0 time=64
note_on channel=1 note=58 velocity=0 time=0
note_on channel=1 note=53 velocity=80 time=32
note_on channel=1 note=41 velocity=80 time=0
note_on channel=1 note=41 velocity=0 time=64
note_on channel=1 note=53 velocity=0 time=0
note_on channel=1 note=55 velocity=80 time=32
note_on channel=1 note=43 velocity=80 time=0
note_on channel=1 note=43 velocity=0 time=64
note_on channel=1 note=55 velocity=0 time=0
note_on channel=1 note=39 velocity=80 time=32
note_on channel=1 note=51 velocity=80 time=0
note_on channel=1 note=51 velocity=0 time=64
note_on channel=1 note=39 velocity=0 time=0
note_on channel=1 note=50 velocity=80 time=32
note_on channel=1 note=38 velocity=80 time=0
note_on channel=1 note=38 velocity=0 time=64
note_on channel=1 note=50 velocity=0 time=0
note_on channel=1 note=53 velocity=80 time=32
note_on channel=1 note=58 velocity=80 time=0
note_on channel=1 note=62 velocity=80 time=0
note_on channel=1 note=62 velocity=0 time=64
note_on channel=1 note=58 velocity=0 time=0
note_on channel=1 note=53 velocity=0 time=0
note_on channel=1 note=53 velocity=80 time=32
note_on channel=1 note=41 velocity=80 time=0
note_on channel=1 note=41 velocity=0 time=64
note_on channel=1 note=53 velocity=0 time=0
note_on channel=1 note=53 velocity=80 time=32
note_on channel=1 note=57 velocity=80 time=0
note_on channel=1 note=63 velocity=80 time=0
note_on channel=1 note=63 velocity=0 time=64
note_on channel=1 note=57 velocity=0 time=0
note_on channel=1 note=53 velocity=0 time=0
note_on channel=1 note=58 velocity=80 time=32
note_on channel=1 note=46 velocity=80 time=0
note_on channel=1 note=46 velocity=0 time=64
note_on channel=1 note=58 velocity=0 time=0
note_on channel=1 note=56 velocity=80 time=32
note_on channel=1 note=44 velocity=80 time=0
note_on channel=1 note=44 velocity=0 time=64
note_on channel=1 note=56 velocity=0 time=0
note_on channel=1 note=55 velocity=80 time=32
note_on channel=1 note=43 velocity=80 time=0
note_on channel=1 note=43 velocity=0 time=64
note_on channel=1 note=55 velocity=0 time=0
note_on channel=1 note=39 velocity=80 time=32
note_on channel=1 note=51 velocity=80 time=0
note_on channel=1 note=51 velocity=0 time=64
note_on channel=1 note=39 velocity=0 time=0
note_on channel=1 note=50 velocity=80 time=32
note_on channel=1 note=38 velocity=80 time=0
note_on channel=1 note=38 velocity=0 time=64
note_on channel=1 note=50 velocity=0 time=0
note_on channel=1 note=53 velocity=80 time=32
note_on channel=1 note=58 velocity=80 time=0
note_on channel=1 note=62 velocity=80 time=0
note_on channel=1 note=62 velocity=0 time=64
note_on channel=1 note=58 velocity=0 time=0
note_on channel=1 note=53 velocity=0 time=0
note_on channel=1 note=53 velocity=80 time=32
note_on channel=1 note=41 velocity=80 time=0
note_on channel=1 note=41 velocity=0 time=64
note_on channel=1 note=53 velocity=0 time=0
note_on channel=1 note=53 velocity=80 time=32
note_on channel=1 note=57 velocity=80 time=0
note_on channel=1 note=63 velocity=80 time=0
note_on channel=1 note=63 velocity=0 time=64
note_on channel=1 note=57 velocity=0 time=0
note_on channel=1 note=53 velocity=0 time=0
note_on channel=1 note=58 velocity=80 time=32
note_on channel=1 note=46 velocity=80 time=0
note_on channel=1 note=46 velocity=0 time=64
note_on channel=1 note=58 velocity=0 time=0
note_on channel=1 note=50 velocity=80 time=32
note_on channel=1 note=38 velocity=80 time=0
note_on channel=1 note=38 velocity=0 time=64
note_on channel=1 note=50 velocity=0 time=0
note_on channel=1 note=55 velocity=80 time=32
note_on channel=1 note=43 velocity=80 time=0
note_on channel=1 note=43 velocity=0 time=64
note_on channel=1 note=55 velocity=0 time=0
note_on channel=1 note=55 velocity=80 time=32
note_on channel=1 note=58 velocity=80 time=0
note_on channel=1 note=62 velocity=80 time=0
note_on channel=1 note=62 velocity=0 time=64
note_on channel=1 note=58 velocity=0 time=0
note_on channel=1 note=55 velocity=0 time=0
note_on channel=1 note=50 velocity=80 time=32
note_on channel=1 note=38 velocity=80 time=0
note_on channel=1 note=38 velocity=0 time=64
note_on channel=1 note=50 velocity=0 time=0
note_on channel=1 note=55 velocity=80 time=32
note_on channel=1 note=58 velocity=80 time=0
note_on channel=1 note=62 velocity=80 time=0
note_on channel=1 note=62 velocity=0 time=64
note_on channel=1 note=58 velocity=0 time=0
note_on channel=1 note=55 velocity=0 time=0
note_on channel=1 note=54 velocity=80 time=32
note_on channel=1 note=42 velocity=80 time=0
note_on channel=1 note=42 velocity=0 time=64
note_on channel=1 note=54 velocity=0 time=0
note_on channel=1 note=54 velocity=80 time=32
note_on channel=1 note=60 velocity=80 time=0
note_on channel=1 note=62 velocity=80 time=0
note_on channel=1 note=62 velocity=0 time=64
note_on channel=1 note=60 velocity=0 time=0
note_on channel=1 note=54 velocity=0 time=0
note_on channel=1 note=50 velocity=80 time=32
note_on channel=1 note=38 velocity=80 time=0
note_on channel=1 note=38 velocity=0 time=64
note_on channel=1 note=50 velocity=0 time=0
note_on channel=1 note=54 velocity=80 time=32
note_on channel=1 note=60 velocity=80 time=0
note_on channel=1 note=62 velocity=80 time=0
note_on channel=1 note=62 velocity=0 time=64
note_on channel=1 note=60 velocity=0 time=0
note_on channel=1 note=54 velocity=0 time=0
note_on channel=1 note=57 velocity=80 time=32
note_on channel=1 note=45 velocity=80 time=0
note_on channel=1 note=45 velocity=0 time=64
note_on channel=1 note=57 velocity=0 time=0
note_on channel=1 note=54 velocity=80 time=32
note_on channel=1 note=60 velocity=80 time=0
note_on channel=1 note=62 velocity=80 time=0
note_on channel=1 note=62 velocity=0 time=64
note_on channel=1 note=60 velocity=0 time=0
note_on channel=1 note=54 velocity=0 time=0
note_on channel=1 note=50 velocity=80 time=32
note_on channel=1 note=38 velocity=80 time=0
note_on channel=1 note=38 velocity=0 time=64
note_on channel=1 note=50 velocity=0 time=0
note_on channel=1 note=42 velocity=80 time=32
note_on channel=1 note=54 velocity=80 time=0
note_on channel=1 note=54 velocity=0 time=64
note_on channel=1 note=42 velocity=0 time=0
note_on channel=1 note=55 velocity=80 time=32
note_on channel=1 note=43 velocity=80 time=0
note_on channel=1 note=43 velocity=0 time=64
note_on channel=1 note=55 velocity=0 time=0
note_on channel=1 note=55 velocity=80 time=32
note_on channel=1 note=58 velocity=80 time=0
note_on channel=1 note=62 velocity=80 time=0
note_on channel=1 note=62 velocity=0 time=64
note_on channel=1 note=58 velocity=0 time=0
note_on channel=1 note=55 velocity=0 time=0
note_on channel=1 note=34 velocity=80 time=32
note_on channel=1 note=46 velocity=80 time=0
note_on channel=1 note=46 velocity=0 time=64
note_on channel=1 note=34 velocity=0 time=0
note_on channel=1 note=38 velocity=80 time=32
note_on channel=1 note=50 velocity=80 time=0
note_on channel=1 note=50 velocity=0 time=64
note_on channel=1 note=38 velocity=0 time=0
note_on channel=1 note=55 velocity=80 time=32
note_on channel=1 note=43 velocity=80 time=0
note_on channel=1 note=43 velocity=0 time=64
note_on channel=1 note=55 velocity=0 time=0
note_on channel=1 note=55 velocity=80 time=32
note_on channel=1 note=58 velocity=80 time=0
note_on channel=1 note=62 velocity=80 time=0
note_on channel=1 note=62 velocity=0 time=64
note_on channel=1 note=58 velocity=0 time=0
note_on channel=1 note=55 velocity=0 time=0
note_on channel=1 note=50 velocity=80 time=32
note_on channel=1 note=38 velocity=80 time=0
note_on channel=1 note=38 velocity=0 time=64
note_on channel=1 note=50 velocity=0 time=0
note_on channel=1 note=55 velocity=80 time=32
note_on channel=1 note=58 velocity=80 time=0
note_on channel=1 note=62 velocity=80 time=0
note_on channel=1 note=62 velocity=0 time=64
note_on channel=1 note=58 velocity=0 time=0
note_on channel=1 note=55 velocity=0 time=0
note_on channel=1 note=48 velocity=80 time=32
note_on channel=1 note=36 velocity=80 time=0
note_on channel=1 note=36 velocity=0 time=64
note_on channel=1 note=48 velocity=0 time=0
note_on channel=1 note=55 velocity=80 time=32
note_on channel=1 note=60 velocity=80 time=0
note_on channel=1 note=63 velocity=80 time=0
note_on channel=1 note=63 velocity=0 time=64
note_on channel=1 note=60 velocity=0 time=0
note_on channel=1 note=55 velocity=0 time=0
note_on channel=1 note=51 velocity=80 time=32
note_on channel=1 note=39 velocity=80 time=0
note_on channel=1 note=39 velocity=0 time=64
note_on channel=1 note=51 velocity=0 time=0
note_on channel=1 note=55 velocity=80 time=32
note_on channel=1 note=60 velocity=80 time=0
note_on channel=1 note=63 velocity=80 time=0
note_on channel=1 note=63 velocity=0 time=64
note_on channel=1 note=60 velocity=0 time=0
note_on channel=1 note=55 velocity=0 time=0
note_on channel=1 note=48 velocity=80 time=32
note_on channel=1 note=36 velocity=80 time=0
note_on channel=1 note=36 velocity=0 time=64
note_on channel=1 note=48 velocity=0 time=0
note_on channel=1 note=55 velocity=80 time=32
note_on channel=1 note=57 velocity=80 time=0
note_on channel=1 note=63 velocity=80 time=0
note_on channel=1 note=63 velocity=0 time=64
note_on channel=1 note=57 velocity=0 time=0
note_on channel=1 note=55 velocity=0 time=0
note_on channel=1 note=51 velocity=80 time=32
note_on channel=1 note=39 velocity=80 time=0
note_on channel=1 note=39 velocity=0 time=64
note_on channel=1 note=51 velocity=0 time=0
note_on channel=1 note=55 velocity=80 time=32
note_on channel=1 note=57 velocity=80 time=0
note_on channel=1 note=60 velocity=80 time=0
note_on channel=1 note=60 velocity=0 time=64
note_on channel=1 note=57 velocity=0 time=0
note_on channel=1 note=55 velocity=0 time=0
note_on channel=1 note=50 velocity=80 time=32
note_on channel=1 note=38 velocity=80 time=0
note_on channel=1 note=38 velocity=0 time=64
note_on channel=1 note=50 velocity=0 time=0
note_on channel=1 note=48 velocity=80 time=32
note_on channel=1 note=60 velocity=80 time=0
note_on channel=1 note=60 velocity=0 time=64
note_on channel=1 note=48 velocity=0 time=0
note_on channel=1 note=58 velocity=80 time=32
note_on channel=1 note=46 velocity=80 time=0
note_on channel=1 note=46 velocity=0 time=64
note_on channel=1 note=58 velocity=0 time=0
note_on channel=1 note=45 velocity=80 time=32
note_on channel=1 note=57 velocity=80 time=0
note_on channel=1 note=57 velocity=0 time=64
note_on channel=1 note=45 velocity=0 time=0
note_on channel=1 note=55 velocity=80 time=32
note_on channel=1 note=43 velocity=80 time=0
note_on channel=1 note=43 velocity=0 time=64
note_on channel=1 note=55 velocity=0 time=0
note_on channel=1 note=55 velocity=80 time=32
note_on channel=1 note=58 velocity=80 time=0
note_on channel=1 note=62 velocity=80 time=0
note_on channel=1 note=62 velocity=0 time=64
note_on channel=1 note=58 velocity=0 time=0
note_on channel=1 note=55 velocity=0 time=0
note_on channel=1 note=50 velocity=80 time=32
note_on channel=1 note=38 velocity=80 time=0
note_on channel=1 note=38 velocity=0 time=64
note_on channel=1 note=50 velocity=0 time=0
note_on channel=1 note=55 velocity=80 time=32
note_on channel=1 note=58 velocity=80 time=0
note_on channel=1 note=62 velocity=80 time=0
note_on channel=1 note=62 velocity=0 time=64
note_on channel=1 note=58 velocity=0 time=0
note_on channel=1 note=55 velocity=0 time=0
note_on channel=1 note=54 velocity=80 time=32
note_on channel=1 note=42 velocity=80 time=0
note_on channel=1 note=42 velocity=0 time=64
note_on channel=1 note=54 velocity=0 time=0
note_on channel=1 note=54 velocity=80 time=32
note_on channel=1 note=60 velocity=80 time=0
note_on channel=1 note=62 velocity=80 time=0
note_on channel=1 note=62 velocity=0 time=64
note_on channel=1 note=60 velocity=0 time=0
note_on channel=1 note=54 velocity=0 time=0
note_on channel=1 note=50 velocity=80 time=32
note_on channel=1 note=38 velocity=80 time=0
note_on channel=1 note=38 velocity=0 time=64
note_on channel=1 note=50 velocity=0 time=0
note_on channel=1 note=54 velocity=80 time=32
note_on channel=1 note=60 velocity=80 time=0
note_on channel=1 note=62 velocity=80 time=0
note_on channel=1 note=62 velocity=0 time=64
note_on channel=1 note=60 velocity=0 time=0
note_on channel=1 note=54 velocity=0 time=0
note_on channel=1 note=57 velocity=80 time=32
note_on channel=1 note=45 velocity=80 time=0
note_on channel=1 note=45 velocity=0 time=64
note_on channel=1 note=57 velocity=0 time=0
note_on channel=1 note=54 velocity=80 time=32
note_on channel=1 note=60 velocity=80 time=0
note_on channel=1 note=62 velocity=80 time=0
note_on channel=1 note=62 velocity=0 time=64
note_on channel=1 note=60 velocity=0 time=0
note_on channel=1 note=54 velocity=0 time=0
note_on channel=1 note=50 velocity=80 time=32
note_on channel=1 note=38 velocity=80 time=0
note_on channel=1 note=38 velocity=0 time=64
note_on channel=1 note=50 velocity=0 time=0
note_on channel=1 note=42 velocity=80 time=32
note_on channel=1 note=54 velocity=80 time=0
note_on channel=1 note=54 velocity=0 time=64
note_on channel=1 note=42 velocity=0 time=0
note_on channel=1 note=55 velocity=80 time=32
note_on channel=1 note=43 velocity=80 time=0
note_on channel=1 note=43 velocity=0 time=64
note_on channel=1 note=55 velocity=0 time=0
note_on channel=1 note=55 velocity=80 time=32
note_on channel=1 note=58 velocity=80 time=0
note_on channel=1 note=62 velocity=80 time=0
note_on channel=1 note=62 velocity=0 time=64
note_on channel=1 note=58 velocity=0 time=0
note_on channel=1 note=55 velocity=0 time=0
note_on channel=1 note=34 velocity=80 time=32
note_on channel=1 note=46 velocity=80 time=0
note_on channel=1 note=46 velocity=0 time=64
note_on channel=1 note=34 velocity=0 time=0
note_on channel=1 note=38 velocity=80 time=32
note_on channel=1 note=50 velocity=80 time=0
note_on channel=1 note=50 velocity=0 time=64
note_on channel=1 note=38 velocity=0 time=0
note_on channel=1 note=55 velocity=80 time=32
note_on channel=1 note=43 velocity=80 time=0
note_on channel=1 note=43 velocity=0 time=64
note_on channel=1 note=55 velocity=0 time=0
note_on channel=1 note=55 velocity=80 time=32
note_on channel=1 note=58 velocity=80 time=0
note_on channel=1 note=62 velocity=80 time=0
note_on channel=1 note=62 velocity=0 time=64
note_on channel=1 note=58 velocity=0 time=0
note_on channel=1 note=55 velocity=0 time=0
note_on channel=1 note=50 velocity=80 time=32
note_on channel=1 note=38 velocity=80 time=0
note_on channel=1 note=38 velocity=0 time=64
note_on channel=1 note=50 velocity=0 time=0
note_on channel=1 note=55 velocity=80 time=32
note_on channel=1 note=58 velocity=80 time=0
note_on channel=1 note=62 velocity=80 time=0
note_on channel=1 note=62 velocity=0 time=64
note_on channel=1 note=58 velocity=0 time=0
note_on channel=1 note=55 velocity=0 time=0
note_on channel=1 note=48 velocity=80 time=32
note_on channel=1 note=36 velocity=80 time=0
note_on channel=1 note=36 velocity=0 time=64
note_on channel=1 note=48 velocity=0 time=0
note_on channel=1 note=55 velocity=80 time=32
note_on channel=1 note=60 velocity=80 time=0
note_on channel=1 note=63 velocity=80 time=0
note_on channel=1 note=63 velocity=0 time=64
note_on channel=1 note=60 velocity=0 time=0
note_on channel=1 note=55 velocity=0 time=0
note_on channel=1 note=51 velocity=80 time=32
note_on channel=1 note=39 velocity=80 time=0
note_on channel=1 note=39 velocity=0 time=64
note_on channel=1 note=51 velocity=0 time=0
note_on channel=1 note=55 velocity=80 time=32
note_on channel=1 note=60 velocity=80 time=0
note_on channel=1 note=63 velocity=80 time=0
note_on channel=1 note=63 velocity=0 time=64
note_on channel=1 note=60 velocity=0 time=0
note_on channel=1 note=55 velocity=0 time=0
note_on channel=1 note=50 velocity=80 time=32
note_on channel=1 note=38 velocity=80 time=0
note_on channel=1 note=38 velocity=0 time=64
note_on channel=1 note=50 velocity=0 time=0
note_on channel=1 note=55 velocity=80 time=32
note_on channel=1 note=58 velocity=80 time=0
note_on channel=1 note=62 velocity=80 time=0
note_on channel=1 note=62 velocity=0 time=64
note_on channel=1 note=58 velocity=0 time=0
note_on channel=1 note=55 velocity=0 time=0
note_on channel=1 note=50 velocity=80 time=32
note_on channel=1 note=38 velocity=80 time=0
note_on channel=1 note=38 velocity=0 time=64
note_on channel=1 note=50 velocity=0 time=0
note_on channel=1 note=54 velocity=80 time=32
note_on channel=1 note=60 velocity=80 time=0
note_on channel=1 note=62 velocity=80 time=0
note_on channel=1 note=62 velocity=0 time=64
note_on channel=1 note=60 velocity=0 time=0
note_on channel=1 note=54 velocity=0 time=0
note_on channel=1 note=55 velocity=80 time=32
note_on channel=1 note=43 velocity=80 time=0
note_on channel=1 note=43 velocity=0 time=64
note_on channel=1 note=55 velocity=0 time=0
note_on channel=1 note=55 velocity=80 time=32
note_on channel=1 note=58 velocity=80 time=0
note_on channel=1 note=62 velocity=80 time=0
note_on channel=1 note=62 velocity=0 time=64
note_on channel=1 note=58 velocity=0 time=0
note_on channel=1 note=55 velocity=0 time=0
note_on channel=1 note=50 velocity=80 time=32
note_on channel=1 note=38 velocity=80 time=0
note_on channel=1 note=38 velocity=0 time=64
note_on channel=1 note=50 velocity=0 time=0
note_on channel=1 note=54 velocity=80 time=32
note_on channel=1 note=60 velocity=80 time=0
note_on channel=1 note=62 velocity=80 time=0
note_on channel=1 note=62 velocity=0 time=64
note_on channel=1 note=60 velocity=0 time=0
note_on channel=1 note=54 velocity=0 time=0
note_on channel=1 note=55 velocity=80 time=32
note_on channel=1 note=43 velocity=80 time=0
note_on channel=1 note=43 velocity=0 time=64
note_on channel=1 note=55 velocity=0 time=0
note_on channel=1 note=55 velocity=80 time=32
note_on channel=1 note=58 velocity=80 time=0
note_on channel=1 note=62 velocity=80 time=0
note_on channel=1 note=62 velocity=0 time=64
note_on channel=1 note=58 velocity=0 time=0
note_on channel=1 note=55 velocity=0 time=0
note_on channel=1 note=50 velocity=80 time=32
note_on channel=1 note=38 velocity=80 time=0
note_on channel=1 note=38 velocity=0 time=64
note_on channel=1 note=50 velocity=0 time=0
note_on channel=1 note=55 velocity=80 time=32
note_on channel=1 note=58 velocity=80 time=0
note_on channel=1 note=62 velocity=80 time=0
note_on channel=1 note=62 velocity=0 time=64
note_on channel=1 note=58 velocity=0 time=0
note_on channel=1 note=55 velocity=0 time=0
note_on channel=1 note=54 velocity=80 time=32
note_on channel=1 note=42 velocity=80 time=0
note_on channel=1 note=42 velocity=0 time=64
note_on channel=1 note=54 velocity=0 time=0
note_on channel=1 note=54 velocity=80 time=32
note_on channel=1 note=60 velocity=80 time=0
note_on channel=1 note=62 velocity=80 time=0
note_on channel=1 note=62 velocity=0 time=64
note_on channel=1 note=60 velocity=0 time=0
note_on channel=1 note=54 velocity=0 time=0
note_on channel=1 note=50 velocity=80 time=32
note_on channel=1 note=38 velocity=80 time=0
note_on channel=1 note=38 velocity=0 time=64
note_on channel=1 note=50 velocity=0 time=0
note_on channel=1 note=54 velocity=80 time=32
note_on channel=1 note=60 velocity=80 time=0
note_on channel=1 note=62 velocity=80 time=0
note_on channel=1 note=62 velocity=0 time=64
note_on channel=1 note=60 velocity=0 time=0
note_on channel=1 note=54 velocity=0 time=0
note_on channel=1 note=57 velocity=80 time=32
note_on channel=1 note=45 velocity=80 time=0
note_on channel=1 note=45 velocity=0 time=64
note_on channel=1 note=57 velocity=0 time=0
note_on channel=1 note=54 velocity=80 time=32
note_on channel=1 note=60 velocity=80 time=0
note_on channel=1 note=62 velocity=80 time=0
note_on channel=1 note=62 velocity=0 time=64
note_on channel=1 note=60 velocity=0 time=0
note_on channel=1 note=54 velocity=0 time=0
note_on channel=1 note=50 velocity=80 time=32
note_on channel=1 note=38 velocity=80 time=0
note_on channel=1 note=38 velocity=0 time=64
note_on channel=1 note=50 velocity=0 time=0
note_on channel=1 note=42 velocity=80 time=32
note_on channel=1 note=54 velocity=80 time=0
note_on channel=1 note=54 velocity=0 time=64
note_on channel=1 note=42 velocity=0 time=0
note_on channel=1 note=55 velocity=80 time=32
note_on channel=1 note=43 velocity=80 time=0
note_on channel=1 note=43 velocity=0 time=64
note_on channel=1 note=55 velocity=0 time=0
note_on channel=1 note=55 velocity=80 time=32
note_on channel=1 note=58 velocity=80 time=0
note_on channel=1 note=62 velocity=80 time=0
note_on channel=1 note=62 velocity=0 time=64
note_on channel=1 note=58 velocity=0 time=0
note_on channel=1 note=55 velocity=0 time=0
note_on channel=1 note=34 velocity=80 time=32
note_on channel=1 note=46 velocity=80 time=0
note_on channel=1 note=46 velocity=0 time=64
note_on channel=1 note=34 velocity=0 time=0
note_on channel=1 note=38 velocity=80 time=32
note_on channel=1 note=50 velocity=80 time=0
note_on channel=1 note=50 velocity=0 time=64
note_on channel=1 note=38 velocity=0 time=0
note_on channel=1 note=55 velocity=80 time=32
note_on channel=1 note=43 velocity=80 time=0
note_on channel=1 note=43 velocity=0 time=64
note_on channel=1 note=55 velocity=0 time=0
note_on channel=1 note=55 velocity=80 time=32
note_on channel=1 note=58 velocity=80 time=0
note_on channel=1 note=62 velocity=80 time=0
note_on channel=1 note=62 velocity=0 time=64
note_on channel=1 note=58 velocity=0 time=0
note_on channel=1 note=55 velocity=0 time=0
note_on channel=1 note=50 velocity=80 time=32
note_on channel=1 note=38 velocity=80 time=0
note_on channel=1 note=38 velocity=0 time=64
note_on channel=1 note=50 velocity=0 time=0
note_on channel=1 note=55 velocity=80 time=32
note_on channel=1 note=58 velocity=80 time=0
note_on channel=1 note=62 velocity=80 time=0
note_on channel=1 note=62 velocity=0 time=64
note_on channel=1 note=58 velocity=0 time=0
note_on channel=1 note=55 velocity=0 time=0
note_on channel=1 note=48 velocity=80 time=32
note_on channel=1 note=36 velocity=80 time=0
note_on channel=1 note=36 velocity=0 time=64
note_on channel=1 note=48 velocity=0 time=0
note_on channel=1 note=55 velocity=80 time=32
note_on channel=1 note=60 velocity=80 time=0
note_on channel=1 note=63 velocity=80 time=0
note_on channel=1 note=63 velocity=0 time=64
note_on channel=1 note=60 velocity=0 time=0
note_on channel=1 note=55 velocity=0 time=0
note_on channel=1 note=51 velocity=80 time=32
note_on channel=1 note=39 velocity=80 time=0
note_on channel=1 note=39 velocity=0 time=64
note_on channel=1 note=51 velocity=0 time=0
note_on channel=1 note=55 velocity=80 time=32
note_on channel=1 note=60 velocity=80 time=0
note_on channel=1 note=63 velocity=80 time=0
note_on channel=1 note=63 velocity=0 time=64
note_on channel=1 note=60 velocity=0 time=0
note_on channel=1 note=55 velocity=0 time=0
note_on channel=1 note=48 velocity=80 time=32
note_on channel=1 note=36 velocity=80 time=0
note_on channel=1 note=36 velocity=0 time=64
note_on channel=1 note=48 velocity=0 time=0
note_on channel=1 note=55 velocity=80 time=32
note_on channel=1 note=57 velocity=80 time=0
note_on channel=1 note=63 velocity=80 time=0
note_on channel=1 note=63 velocity=0 time=64
note_on channel=1 note=57 velocity=0 time=0
note_on channel=1 note=55 velocity=0 time=0
note_on channel=1 note=51 velocity=80 time=32
note_on channel=1 note=39 velocity=80 time=0
note_on channel=1 note=39 velocity=0 time=64
note_on channel=1 note=51 velocity=0 time=0
note_on channel=1 note=55 velocity=80 time=32
note_on channel=1 note=57 velocity=80 time=0
note_on channel=1 note=60 velocity=80 time=0
note_on channel=1 note=60 velocity=0 time=64
note_on channel=1 note=57 velocity=0 time=0
note_on channel=1 note=55 velocity=0 time=0
note_on channel=1 note=50 velocity=80 time=32
note_on channel=1 note=38 velocity=80 time=0
note_on channel=1 note=38 velocity=0 time=64
note_on channel=1 note=50 velocity=0 time=0
note_on channel=1 note=48 velocity=80 time=32
note_on channel=1 note=60 velocity=80 time=0
note_on channel=1 note=60 velocity=0 time=64
note_on channel=1 note=48 velocity=0 time=0
note_on channel=1 note=58 velocity=80 time=32
note_on channel=1 note=46 velocity=80 time=0
note_on channel=1 note=46 velocity=0 time=64
note_on channel=1 note=58 velocity=0 time=0
note_on channel=1 note=45 velocity=80 time=32
note_on channel=1 note=57 velocity=80 time=0
note_on channel=1 note=57 velocity=0 time=64
note_on channel=1 note=45 velocity=0 time=0
note_on channel=1 note=55 velocity=80 time=32
note_on channel=1 note=43 velocity=80 time=0
note_on channel=1 note=43 velocity=0 time=64
note_on channel=1 note=55 velocity=0 time=0
note_on channel=1 note=55 velocity=80 time=32
note_on channel=1 note=58 velocity=80 time=0
note_on channel=1 note=62 velocity=80 time=0
note_on channel=1 note=62 velocity=0 time=64
note_on channel=1 note=58 velocity=0 time=0
note_on channel=1 note=55 velocity=0 time=0
note_on channel=1 note=50 velocity=80 time=32
note_on channel=1 note=38 velocity=80 time=0
note_on channel=1 note=38 velocity=0 time=64
note_on channel=1 note=50 velocity=0 time=0
note_on channel=1 note=55 velocity=80 time=32
note_on channel=1 note=58 velocity=80 time=0
note_on channel=1 note=62 velocity=80 time=0
note_on channel=1 note=62 velocity=0 time=64
note_on channel=1 note=58 velocity=0 time=0
note_on channel=1 note=55 velocity=0 time=0
note_on channel=1 note=54 velocity=80 time=32
note_on channel=1 note=42 velocity=80 time=0
note_on channel=1 note=42 velocity=0 time=64
note_on channel=1 note=54 velocity=0 time=0
note_on channel=1 note=54 velocity=80 time=32
note_on channel=1 note=60 velocity=80 time=0
note_on channel=1 note=62 velocity=80 time=0
note_on channel=1 note=62 velocity=0 time=64
note_on channel=1 note=60 velocity=0 time=0
note_on channel=1 note=54 velocity=0 time=0
note_on channel=1 note=50 velocity=80 time=32
note_on channel=1 note=38 velocity=80 time=0
note_on channel=1 note=38 velocity=0 time=64
note_on channel=1 note=50 velocity=0 time=0
note_on channel=1 note=54 velocity=80 time=32
note_on channel=1 note=60 velocity=80 time=0
note_on channel=1 note=62 velocity=80 time=0
note_on channel=1 note=62 velocity=0 time=64
note_on channel=1 note=60 velocity=0 time=0
note_on channel=1 note=54 velocity=0 time=0
note_on channel=1 note=57 velocity=80 time=32
note_on channel=1 note=45 velocity=80 time=0
note_on channel=1 note=45 velocity=0 time=64
note_on channel=1 note=57 velocity=0 time=0
note_on channel=1 note=54 velocity=80 time=32
note_on channel=1 note=60 velocity=80 time=0
note_on channel=1 note=62 velocity=80 time=0
note_on channel=1 note=62 velocity=0 time=64
note_on channel=1 note=60 velocity=0 time=0
note_on channel=1 note=54 velocity=0 time=0
note_on channel=1 note=50 velocity=80 time=32
note_on channel=1 note=38 velocity=80 time=0
note_on channel=1 note=38 velocity=0 time=64
note_on channel=1 note=50 velocity=0 time=0
note_on channel=1 note=42 velocity=80 time=32
note_on channel=1 note=54 velocity=80 time=0
note_on channel=1 note=54 velocity=0 time=64
note_on channel=1 note=42 velocity=0 time=0
note_on channel=1 note=55 velocity=80 time=32
note_on channel=1 note=43 velocity=80 time=0
note_on channel=1 note=43 velocity=0 time=64
note_on channel=1 note=55 velocity=0 time=0
note_on channel=1 note=55 velocity=80 time=32
note_on channel=1 note=58 velocity=80 time=0
note_on channel=1 note=62 velocity=80 time=0
note_on channel=1 note=62 velocity=0 time=64
note_on channel=1 note=58 velocity=0 time=0
note_on channel=1 note=55 velocity=0 time=0
note_on channel=1 note=34 velocity=80 time=32
note_on channel=1 note=46 velocity=80 time=0
note_on channel=1 note=46 velocity=0 time=64
note_on channel=1 note=34 velocity=0 time=0
note_on channel=1 note=38 velocity=80 time=32
note_on channel=1 note=50 velocity=80 time=0
note_on channel=1 note=50 velocity=0 time=64
note_on channel=1 note=38 velocity=0 time=0
note_on channel=1 note=55 velocity=80 time=32
note_on channel=1 note=43 velocity=80 time=0
note_on channel=1 note=43 velocity=0 time=64
note_on channel=1 note=55 velocity=0 time=0
note_on channel=1 note=55 velocity=80 time=32
note_on channel=1 note=58 velocity=80 time=0
note_on channel=1 note=62 velocity=80 time=0
note_on channel=1 note=62 velocity=0 time=64
note_on channel=1 note=58 velocity=0 time=0
note_on channel=1 note=55 velocity=0 time=0
note_on channel=1 note=50 velocity=80 time=32
note_on channel=1 note=38 velocity=80 time=0
note_on channel=1 note=38 velocity=0 time=64
note_on channel=1 note=50 velocity=0 time=0
note_on channel=1 note=55 velocity=80 time=32
note_on channel=1 note=58 velocity=80 time=0
note_on channel=1 note=62 velocity=80 time=0
note_on channel=1 note=62 velocity=0 time=64
note_on channel=1 note=58 velocity=0 time=0
note_on channel=1 note=55 velocity=0 time=0
note_on channel=1 note=48 velocity=80 time=32
note_on channel=1 note=36 velocity=80 time=0
note_on channel=1 note=36 velocity=0 time=64
note_on channel=1 note=48 velocity=0 time=0
note_on channel=1 note=55 velocity=80 time=32
note_on channel=1 note=60 velocity=80 time=0
note_on channel=1 note=63 velocity=80 time=0
note_on channel=1 note=63 velocity=0 time=64
note_on channel=1 note=60 velocity=0 time=0
note_on channel=1 note=55 velocity=0 time=0
note_on channel=1 note=51 velocity=80 time=32
note_on channel=1 note=39 velocity=80 time=0
note_on channel=1 note=39 velocity=0 time=64
note_on channel=1 note=51 velocity=0 time=0
note_on channel=1 note=55 velocity=80 time=32
note_on channel=1 note=60 velocity=80 time=0
note_on channel=1 note=63 velocity=80 time=0
note_on channel=1 note=63 velocity=0 time=64
note_on channel=1 note=60 velocity=0 time=0
note_on channel=1 note=55 velocity=0 time=0
note_on channel=1 note=50 velocity=80 time=32
note_on channel=1 note=38 velocity=80 time=0
note_on channel=1 note=38 velocity=0 time=64
note_on channel=1 note=50 velocity=0 time=0
note_on channel=1 note=55 velocity=80 time=32
note_on channel=1 note=58 velocity=80 time=0
note_on channel=1 note=62 velocity=80 time=0
note_on channel=1 note=62 velocity=0 time=64
note_on channel=1 note=58 velocity=0 time=0
note_on channel=1 note=55 velocity=0 time=0
note_on channel=1 note=50 velocity=80 time=32
note_on channel=1 note=38 velocity=80 time=0
note_on channel=1 note=38 velocity=0 time=64
note_on channel=1 note=50 velocity=0 time=0
note_on channel=1 note=54 velocity=80 time=32
note_on channel=1 note=60 velocity=80 time=0
note_on channel=1 note=62 velocity=80 time=0
note_on channel=1 note=62 velocity=0 time=64
note_on channel=1 note=60 velocity=0 time=0
note_on channel=1 note=54 velocity=0 time=0
note_on channel=1 note=62 velocity=80 time=32
note_on channel=1 note=58 velocity=80 time=0
note_on channel=1 note=55 velocity=80 time=0
note_on channel=1 note=55 velocity=0 time=128
note_on channel=1 note=58 velocity=0 time=0
note_on channel=1 note=62 velocity=0 time=0
note_on channel=1 note=57 velocity=80 time=64
note_on channel=1 note=63 velocity=80 time=0
note_on channel=1 note=53 velocity=80 time=0
note_on channel=1 note=53 velocity=0 time=64
note_on channel=1 note=53 velocity=80 time=32
note_on channel=1 note=41 velocity=80 time=0
note_on channel=1 note=63 velocity=0 time=32
note_on channel=1 note=57 velocity=0 time=0
note_on channel=1 note=53 velocity=0 time=32
note_on channel=1 note=41 velocity=0 time=0
note_on channel=1 note=46 velocity=80 time=32
note_on channel=1 note=34 velocity=80 time=0
note_on channel=1 note=34 velocity=0 time=64
note_on channel=1 note=46 velocity=0 time=0
note_on channel=1 note=50 velocity=80 time=32
note_on channel=1 note=38 velocity=80 time=0
note_on channel=1 note=38 velocity=0 time=64
note_on channel=1 note=50 velocity=0 time=0
note_on channel=1 note=39 velocity=80 time=32
note_on channel=1 note=51 velocity=80 time=0
note_on channel=1 note=51 velocity=0 time=64
note_on channel=1 note=39 velocity=0 time=0
note_on channel=1 note=52 velocity=80 time=32
note_on channel=1 note=40 velocity=80 time=0
note_on channel=1 note=40 velocity=0 time=64
note_on channel=1 note=52 velocity=0 time=0
note_on channel=1 note=53 velocity=80 time=32
note_on channel=1 note=41 velocity=80 time=0
note_on channel=1 note=41 velocity=0 time=64
note_on channel=1 note=53 velocity=0 time=0
note_on channel=1 note=58 velocity=80 time=32
note_on channel=1 note=58 velocity=0 time=64
note_on channel=1 note=50 velocity=80 time=32
note_on channel=1 note=38 velocity=80 time=0
note_on channel=1 note=38 velocity=0 time=64
note_on channel=1 note=50 velocity=0 time=0
note_on channel=1 note=53 velocity=80 time=32
note_on channel=1 note=58 velocity=80 time=0
note_on channel=1 note=62 velocity=80 time=0
note_on channel=1 note=62 velocity=0 time=64
note_on channel=1 note=58 velocity=0 time=0
note_on channel=1 note=53 velocity=0 time=0
note_on channel=1 note=46 velocity=80 time=32
note_on channel=1 note=34 velocity=80 time=0
note_on channel=1 note=34 velocity=0 time=64
note_on channel=1 note=46 velocity=0 time=0
note_on channel=1 note=50 velocity=80 time=32
note_on channel=1 note=38 velocity=80 time=0
note_on channel=1 note=38 velocity=0 time=64
note_on channel=1 note=50 velocity=0 time=0
note_on channel=1 note=39 velocity=80 time=32
note_on channel=1 note=51 velocity=80 time=0
note_on channel=1 note=51 velocity=0 time=64
note_on channel=1 note=39 velocity=0 time=0
note_on channel=1 note=52 velocity=80 time=32
note_on channel=1 note=40 velocity=80 time=0
note_on channel=1 note=40 velocity=0 time=64
note_on channel=1 note=52 velocity=0 time=0
note_on channel=1 note=53 velocity=80 time=32
note_on channel=1 note=41 velocity=80 time=0
note_on channel=1 note=41 velocity=0 time=64
note_on channel=1 note=53 velocity=0 time=0
note_on channel=1 note=58 velocity=80 time=32
note_on channel=1 note=58 velocity=0 time=32
note_on channel=1 note=60 velocity=80 time=16
note_on channel=1 note=60 velocity=0 time=32
note_on channel=1 note=53 velocity=80 time=567
note_on channel=1 note=53 velocity=0 time=10
note_on channel=1 note=54 velocity=80 time=1
note_on channel=1 note=54 velocity=0 time=10
note_on channel=1 note=55 velocity=80 time=4
note_on channel=1 note=55 velocity=0 time=144
note_on channel=1 note=48 velocity=80 time=23
note_on channel=1 note=48 velocity=0 time=10
note_on channel=1 note=49 velocity=80 time=1
note_on channel=1 note=49 velocity=0 time=10
note_on channel=1 note=50 velocity=80 time=4
note_on channel=1 note=50 velocity=0 time=128
note_on channel=1 note=51 velocity=80 time=64
note_on channel=1 note=39 velocity=80 time=0
note_on channel=1 note=39 velocity=0 time=64
note_on channel=1 note=51 velocity=0 time=0
note_on channel=1 note=55 velocity=80 time=32
note_on channel=1 note=58 velocity=80 time=0
note_on channel=1 note=63 velocity=80 time=0
note_on channel=1 note=63 velocity=0 time=64
note_on channel=1 note=58 velocity=0 time=0
note_on channel=1 note=55 velocity=0 time=0
note_on channel=1 note=46 velocity=80 time=32
note_on channel=1 note=34 velocity=80 time=0
note_on channel=1 note=34 velocity=0 time=64
note_on channel=1 note=46 velocity=0 time=0
note_on channel=1 note=55 velocity=80 time=32
note_on channel=1 note=58 velocity=80 time=0
note_on channel=1 note=63 velocity=80 time=0
note_on channel=1 note=63 velocity=0 time=64
note_on channel=1 note=58 velocity=0 time=0
note_on channel=1 note=55 velocity=0 time=0
note_on channel=1 note=51 velocity=80 time=32
note_on channel=1 note=39 velocity=80 time=0
note_on channel=1 note=39 velocity=0 time=64
note_on channel=1 note=51 velocity=0 time=0
note_on channel=1 note=55 velocity=80 time=32
note_on channel=1 note=58 velocity=80 time=0
note_on channel=1 note=63 velocity=80 time=0
note_on channel=1 note=63 velocity=0 time=64
note_on channel=1 note=58 velocity=0 time=0
note_on channel=1 note=55 velocity=0 time=0
note_on channel=1 note=55 velocity=80 time=32
note_on channel=1 note=43 velocity=80 time=0
note_on channel=1 note=43 velocity=0 time=64
note_on channel=1 note=55 velocity=0 time=0
note_on channel=1 note=39 velocity=80 time=32
note_on channel=1 note=51 velocity=80 time=0
note_on channel=1 note=51 velocity=0 time=64
note_on channel=1 note=39 velocity=0 time=0
note_on channel=1 note=46 velocity=80 time=32
note_on channel=1 note=34 velocity=80 time=0
note_on channel=1 note=34 velocity=0 time=64
note_on channel=1 note=46 velocity=0 time=0
note_on channel=1 note=58 velocity=80 time=32
note_on channel=1 note=53 velocity=80 time=0
note_on channel=1 note=53 velocity=0 time=64
note_on channel=1 note=58 velocity=0 time=0
note_on channel=1 note=41 velocity=80 time=32
note_on channel=1 note=41 velocity=0 time=64
note_on channel=1 note=53 velocity=80 time=32
note_on channel=1 note=58 velocity=80 time=0
note_on channel=1 note=58 velocity=0 time=64
note_on channel=1 note=53 velocity=0 time=0
note_on channel=1 note=46 velocity=80 time=32
note_on channel=1 note=34 velocity=80 time=0
note_on channel=1 note=34 velocity=0 time=64
note_on channel=1 note=46 velocity=0 time=0
note_on channel=1 note=53 velocity=80 time=32
note_on channel=1 note=58 velocity=80 time=0
note_on channel=1 note=58 velocity=0 time=64
note_on channel=1 note=53 velocity=0 time=0
note_on channel=1 note=50 velocity=80 time=32
note_on channel=1 note=38 velocity=80 time=0
note_on channel=1 note=38 velocity=0 time=64
note_on channel=1 note=50 velocity=0 time=0
note_on channel=1 note=35 velocity=80 time=32
note_on channel=1 note=47 velocity=80 time=0
note_on channel=1 note=47 velocity=0 time=64
note_on channel=1 note=35 velocity=0 time=0
note_on channel=1 note=48 velocity=80 time=32
note_on channel=1 note=36 velocity=80 time=0
note_on channel=1 note=36 velocity=0 time=64
note_on channel=1 note=48 velocity=0 time=0
note_on channel=1 note=53 velocity=80 time=32
note_on channel=1 note=57 velocity=80 time=0
note_on channel=1 note=63 velocity=80 time=0
note_on channel=1 note=63 velocity=0 time=64
note_on channel=1 note=57 velocity=0 time=0
note_on channel=1 note=53 velocity=0 time=0
note_on channel=1 note=53 velocity=80 time=32
note_on channel=1 note=41 velocity=80 time=0
note_on channel=1 note=41 velocity=0 time=64
note_on channel=1 note=53 velocity=0 time=0
note_on channel=1 note=47 velocity=80 time=32
note_on channel=1 note=59 velocity=80 time=0
note_on channel=1 note=59 velocity=0 time=64
note_on channel=1 note=47 velocity=0 time=0
note_on channel=1 note=48 velocity=80 time=32
note_on channel=1 note=60 velocity=80 time=0
note_on channel=1 note=60 velocity=0 time=64
note_on channel=1 note=48 velocity=0 time=0
note_on channel=1 note=63 velocity=80 time=32
note_on channel=1 note=57 velocity=80 time=0
note_on channel=1 note=53 velocity=80 time=0
note_on channel=1 note=53 velocity=0 time=64
note_on channel=1 note=57 velocity=0 time=0
note_on channel=1 note=63 velocity=0 time=0
note_on channel=1 note=53 velocity=80 time=32
note_on channel=1 note=41 velocity=80 time=0
note_on channel=1 note=41 velocity=0 time=64
note_on channel=1 note=53 velocity=0 time=0
note_on channel=1 note=53 velocity=80 time=32
note_on channel=1 note=57 velocity=80 time=0
note_on channel=1 note=63 velocity=80 time=0
note_on channel=1 note=63 velocity=0 time=64
note_on channel=1 note=57 velocity=0 time=0
note_on channel=1 note=53 velocity=0 time=0
note_on channel=1 note=58 velocity=80 time=32
note_on channel=1 note=46 velocity=80 time=0
note_on channel=1 note=46 velocity=0 time=64
note_on channel=1 note=58 velocity=0 time=0
note_on channel=1 note=53 velocity=80 time=32
note_on channel=1 note=58 velocity=80 time=0
note_on channel=1 note=62 velocity=80 time=0
note_on channel=1 note=62 velocity=0 time=64
note_on channel=1 note=58 velocity=0 time=0
note_on channel=1 note=53 velocity=0 time=0
note_on channel=1 note=53 velocity=80 time=32
note_on channel=1 note=41 velocity=80 time=0
note_on channel=1 note=41 velocity=0 time=64
note_on channel=1 note=53 velocity=0 time=0
note_on channel=1 note=53 velocity=80 time=32
note_on channel=1 note=58 velocity=80 time=0
note_on channel=1 note=62 velocity=80 time=0
note_on channel=1 note=62 velocity=0 time=64
note_on channel=1 note=58 velocity=0 time=0
note_on channel=1 note=53 velocity=0 time=0
note_on channel=1 note=50 velocity=80 time=32
note_on channel=1 note=38 velocity=80 time=0
note_on channel=1 note=38 velocity=0 time=64
note_on channel=1 note=50 velocity=0 time=0
note_on channel=1 note=47 velocity=80 time=32
note_on channel=1 note=35 velocity=80 time=0
note_on channel=1 note=35 velocity=0 time=64
note_on channel=1 note=47 velocity=0 time=0
note_on channel=1 note=36 velocity=80 time=32
note_on channel=1 note=48 velocity=80 time=0
note_on channel=1 note=48 velocity=0 time=64
note_on channel=1 note=36 velocity=0 time=0
note_on channel=1 note=53 velocity=80 time=32
note_on channel=1 note=57 velocity=80 time=0
note_on channel=1 note=63 velocity=80 time=0
note_on channel=1 note=63 velocity=0 time=64
note_on channel=1 note=57 velocity=0 time=0
note_on channel=1 note=53 velocity=0 time=0
note_on channel=1 note=46 velocity=80 time=32
note_on channel=1 note=34 velocity=80 time=0
note_on channel=1 note=34 velocity=0 time=64
note_on channel=1 note=46 velocity=0 time=0
note_on channel=1 note=50 velocity=80 time=32
note_on channel=1 note=38 velocity=80 time=0
note_on channel=1 note=38 velocity=0 time=64
note_on channel=1 note=50 velocity=0 time=0
note_on channel=1 note=39 velocity=80 time=32
note_on channel=1 note=51 velocity=80 time=0
note_on channel=1 note=51 velocity=0 time=64
note_on channel=1 note=39 velocity=0 time=0
note_on channel=1 note=52 velocity=80 time=32
note_on channel=1 note=40 velocity=80 time=0
note_on channel=1 note=40 velocity=0 time=64
note_on channel=1 note=52 velocity=0 time=0
note_on channel=1 note=53 velocity=80 time=32
note_on channel=1 note=41 velocity=80 time=0
note_on channel=1 note=41 velocity=0 time=64
note_on channel=1 note=53 velocity=0 time=0
note_on channel=1 note=58 velocity=80 time=32
note_on channel=1 note=58 velocity=0 time=64
note_on channel=1 note=50 velocity=80 time=32
note_on channel=1 note=38 velocity=80 time=0
note_on channel=1 note=38 velocity=0 time=64
note_on channel=1 note=50 velocity=0 time=0
note_on channel=1 note=53 velocity=80 time=32
note_on channel=1 note=58 velocity=80 time=0
note_on channel=1 note=62 velocity=80 time=0
note_on channel=1 note=62 velocity=0 time=64
note_on channel=1 note=58 velocity=0 time=0
note_on channel=1 note=53 velocity=0 time=0
note_on channel=1 note=46 velocity=80 time=32
note_on channel=1 note=34 velocity=80 time=0
note_on channel=1 note=34 velocity=0 time=64
note_on channel=1 note=46 velocity=0 time=0
note_on channel=1 note=50 velocity=80 time=32
note_on channel=1 note=38 velocity=80 time=0
note_on channel=1 note=38 velocity=0 time=64
note_on channel=1 note=50 velocity=0 time=0
note_on channel=1 note=39 velocity=80 time=32
note_on channel=1 note=51 velocity=80 time=0
note_on channel=1 note=51 velocity=0 time=64
note_on channel=1 note=39 velocity=0 time=0
note_on channel=1 note=52 velocity=80 time=32
note_on channel=1 note=40 velocity=80 time=0
note_on channel=1 note=40 velocity=0 time=64
note_on channel=1 note=52 velocity=0 time=0
note_on channel=1 note=53 velocity=80 time=32
note_on channel=1 note=41 velocity=80 time=0
note_on channel=1 note=41 velocity=0 time=64
note_on channel=1 note=53 velocity=0 time=0
note_on channel=1 note=58 velocity=80 time=32
note_on channel=1 note=58 velocity=0 time=32
note_on channel=1 note=60 velocity=80 time=16
note_on channel=1 note=60 velocity=0 time=32
note_on channel=1 note=53 velocity=80 time=567
note_on channel=1 note=53 velocity=0 time=10
note_on channel=1 note=54 velocity=80 time=1
note_on channel=1 note=54 velocity=0 time=10
note_on channel=1 note=55 velocity=80 time=4
note_on channel=1 note=55 velocity=0 time=144
note_on channel=1 note=48 velocity=80 time=23
note_on channel=1 note=48 velocity=0 time=10
note_on channel=1 note=49 velocity=80 time=1
note_on channel=1 note=49 velocity=0 time=10
note_on channel=1 note=50 velocity=80 time=4
note_on channel=1 note=50 velocity=0 time=128
note_on channel=1 note=43 velocity=80 time=64
note_on channel=1 note=43 velocity=0 time=32
note_on channel=1 note=45 velocity=80 time=16
note_on channel=1 note=45 velocity=0 time=64
note_on channel=1 note=46 velocity=80 time=32
note_on channel=1 note=46 velocity=0 time=64
note_on channel=1 note=48 velocity=80 time=32
note_on channel=1 note=48 velocity=0 time=32
note_on channel=1 note=50 velocity=80 time=16
note_on channel=1 note=50 velocity=0 time=64
note_on channel=1 note=58 velocity=80 time=32
note_on channel=1 note=58 velocity=0 time=32
note_on channel=1 note=57 velocity=80 time=16
note_on channel=1 note=57 velocity=0 time=64
note_on channel=1 note=55 velocity=80 time=32
note_on channel=1 note=55 velocity=0 time=64
note_on channel=1 note=53 velocity=80 time=32
note_on channel=1 note=53 velocity=0 time=32
note_on channel=1 note=52 velocity=80 time=16
note_on channel=1 note=58 velocity=80 time=0
note_on channel=1 note=61 velocity=80 time=0
note_on channel=1 note=61 velocity=0 time=64
note_on channel=1 note=58 velocity=0 time=0
note_on channel=1 note=52 velocity=0 time=0
note_on channel=1 note=53 velocity=80 time=32
note_on channel=1 note=41 velocity=80 time=0
note_on channel=1 note=41 velocity=0 time=64
note_on channel=1 note=53 velocity=0 time=0
note_on channel=1 note=53 velocity=80 time=32
note_on channel=1 note=58 velocity=80 time=0
note_on channel=1 note=62 velocity=80 time=0
note_on channel=1 note=62 velocity=0 time=64
note_on channel=1 note=58 velocity=0 time=0
note_on channel=1 note=53 velocity=0 time=0
note_on channel=1 note=53 velocity=80 time=32
note_on channel=1 note=41 velocity=80 time=0
note_on channel=1 note=41 velocity=0 time=64
note_on channel=1 note=53 velocity=0 time=0
note_on channel=1 note=53 velocity=80 time=32
note_on channel=1 note=57 velocity=80 time=0
note_on channel=1 note=63 velocity=80 time=0
note_on channel=1 note=63 velocity=0 time=64
note_on channel=1 note=57 velocity=0 time=0
note_on channel=1 note=53 velocity=0 time=0
note_on channel=1 note=58 velocity=80 time=32
note_on channel=1 note=46 velocity=80 time=0
note_on channel=1 note=46 velocity=0 time=64
note_on channel=1 note=58 velocity=0 time=0
note_on channel=1 note=58 velocity=80 time=32
note_on channel=1 note=62 velocity=80 time=0
note_on channel=1 note=53 velocity=80 time=0
note_on channel=1 note=53 velocity=0 time=64
note_on channel=1 note=62 velocity=0 time=0
note_on channel=1 note=58 velocity=0 time=0
note_on channel=1 note=53 velocity=80 time=32
note_on channel=1 note=41 velocity=80 time=0
note_on channel=1 note=41 velocity=0 time=64
note_on channel=1 note=53 velocity=0 time=0
note_on channel=1 note=53 velocity=80 time=32
note_on channel=1 note=57 velocity=80 time=0
note_on channel=1 note=63 velocity=80 time=0
note_on channel=1 note=63 velocity=0 time=64
note_on channel=1 note=57 velocity=0 time=0
note_on channel=1 note=53 velocity=0 time=0
note_on channel=1 note=46 velocity=80 time=32
note_on channel=1 note=34 velocity=80 time=0
note_on channel=1 note=34 velocity=0 time=64
note_on channel=1 note=46 velocity=0 time=0
note_on channel=1 note=50 velocity=80 time=32
note_on channel=1 note=38 velocity=80 time=0
note_on channel=1 note=38 velocity=0 time=64
note_on channel=1 note=50 velocity=0 time=0
note_on channel=1 note=39 velocity=80 time=32
note_on channel=1 note=51 velocity=80 time=0
note_on channel=1 note=51 velocity=0 time=64
note_on channel=1 note=39 velocity=0 time=0
note_on channel=1 note=52 velocity=80 time=32
note_on channel=1 note=40 velocity=80 time=0
note_on channel=1 note=40 velocity=0 time=64
note_on channel=1 note=52 velocity=0 time=0
note_on channel=1 note=53 velocity=80 time=32
note_on channel=1 note=41 velocity=80 time=0
note_on channel=1 note=41 velocity=0 time=64
note_on channel=1 note=53 velocity=0 time=0
note_on channel=1 note=58 velocity=80 time=32
note_on channel=1 note=58 velocity=0 time=64
note_on channel=1 note=50 velocity=80 time=32
note_on channel=1 note=38 velocity=80 time=0
note_on channel=1 note=38 velocity=0 time=64
note_on channel=1 note=50 velocity=0 time=0
note_on channel=1 note=53 velocity=80 time=32
note_on channel=1 note=58 velocity=80 time=0
note_on channel=1 note=62 velocity=80 time=0
note_on channel=1 note=62 velocity=0 time=64
note_on channel=1 note=58 velocity=0 time=0
note_on channel=1 note=53 velocity=0 time=0
note_on channel=1 note=46 velocity=80 time=32
note_on channel=1 note=34 velocity=80 time=0
note_on channel=1 note=34 velocity=0 time=64
note_on channel=1 note=46 velocity=0 time=0
note_on channel=1 note=50 velocity=80 time=32
note_on channel=1 note=38 velocity=80 time=0
note_on channel=1 note=38 velocity=0 time=64
note_on channel=1 note=50 velocity=0 time=0
note_on channel=1 note=39 velocity=80 time=32
note_on channel=1 note=51 velocity=80 time=0
note_on channel=1 note=51 velocity=0 time=64
note_on channel=1 note=39 velocity=0 time=0
note_on channel=1 note=52 velocity=80 time=32
note_on channel=1 note=40 velocity=80 time=0
note_on channel=1 note=40 velocity=0 time=64
note_on channel=1 note=52 velocity=0 time=0
note_on channel=1 note=53 velocity=80 time=32
note_on channel=1 note=41 velocity=80 time=0
note_on channel=1 note=41 velocity=0 time=64
note_on channel=1 note=53 velocity=0 time=0
note_on channel=1 note=58 velocity=80 time=32
note_on channel=1 note=58 velocity=0 time=32
note_on channel=1 note=60 velocity=80 time=16
note_on channel=1 note=60 velocity=0 time=32
note_on channel=1 note=53 velocity=80 time=567
note_on channel=1 note=53 velocity=0 time=10
note_on channel=1 note=54 velocity=80 time=1
note_on channel=1 note=54 velocity=0 time=10
note_on channel=1 note=55 velocity=80 time=4
note_on channel=1 note=55 velocity=0 time=144
note_on channel=1 note=48 velocity=80 time=23
note_on channel=1 note=48 velocity=0 time=10
note_on channel=1 note=49 velocity=80 time=1
note_on channel=1 note=49 velocity=0 time=10
note_on channel=1 note=50 velocity=80 time=4
note_on channel=1 note=50 velocity=0 time=128
note_on channel=1 note=51 velocity=80 time=64
note_on channel=1 note=39 velocity=80 time=0
note_on channel=1 note=39 velocity=0 time=64
note_on channel=1 note=51 velocity=0 time=0
note_on channel=1 note=55 velocity=80 time=32
note_on channel=1 note=58 velocity=80 time=0
note_on channel=1 note=63 velocity=80 time=0
note_on channel=1 note=63 velocity=0 time=64
note_on channel=1 note=58 velocity=0 time=0
note_on channel=1 note=55 velocity=0 time=0
note_on channel=1 note=46 velocity=80 time=32
note_on channel=1 note=34 velocity=80 time=0
note_on channel=1 note=34 velocity=0 time=64
note_on channel=1 note=46 velocity=0 time=0
note_on channel=1 note=55 velocity=80 time=32
note_on channel=1 note=58 velocity=80 time=0
note_on channel=1 note=63 velocity=80 time=0
note_on channel=1 note=63 velocity=0 time=64
note_on channel=1 note=58 velocity=0 time=0
note_on channel=1 note=55 velocity=0 time=0
note_on channel=1 note=51 velocity=80 time=32
note_on channel=1 note=39 velocity=80 time=0
note_on channel=1 note=39 velocity=0 time=64
note_on channel=1 note=51 velocity=0 time=0
note_on channel=1 note=55 velocity=80 time=32
note_on channel=1 note=58 velocity=80 time=0
note_on channel=1 note=63 velocity=80 time=0
note_on channel=1 note=63 velocity=0 time=64
note_on channel=1 note=58 velocity=0 time=0
note_on channel=1 note=55 velocity=0 time=0
note_on channel=1 note=55 velocity=80 time=32
note_on channel=1 note=43 velocity=80 time=0
note_on channel=1 note=43 velocity=0 time=64
note_on channel=1 note=55 velocity=0 time=0
note_on channel=1 note=39 velocity=80 time=32
note_on channel=1 note=51 velocity=80 time=0
note_on channel=1 note=51 velocity=0 time=64
note_on channel=1 note=39 velocity=0 time=0
note_on channel=1 note=46 velocity=80 time=32
note_on channel=1 note=34 velocity=80 time=0
note_on channel=1 note=34 velocity=0 time=64
note_on channel=1 note=46 velocity=0 time=0
note_on channel=1 note=58 velocity=80 time=32
note_on channel=1 note=53 velocity=80 time=0
note_on channel=1 note=53 velocity=0 time=64
note_on channel=1 note=58 velocity=0 time=0
note_on channel=1 note=41 velocity=80 time=32
note_on channel=1 note=41 velocity=0 time=64
note_on channel=1 note=53 velocity=80 time=32
note_on channel=1 note=58 velocity=80 time=0
note_on channel=1 note=58 velocity=0 time=64
note_on channel=1 note=53 velocity=0 time=0
note_on channel=1 note=46 velocity=80 time=32
note_on channel=1 note=34 velocity=80 time=0
note_on channel=1 note=34 velocity=0 time=64
note_on channel=1 note=46 velocity=0 time=0
note_on channel=1 note=53 velocity=80 time=32
note_on channel=1 note=58 velocity=80 time=0
note_on channel=1 note=58 velocity=0 time=64
note_on channel=1 note=53 velocity=0 time=0
note_on channel=1 note=50 velocity=80 time=32
note_on channel=1 note=38 velocity=80 time=0
note_on channel=1 note=38 velocity=0 time=64
note_on channel=1 note=50 velocity=0 time=0
note_on channel=1 note=35 velocity=80 time=32
note_on channel=1 note=47 velocity=80 time=0
note_on channel=1 note=47 velocity=0 time=64
note_on channel=1 note=35 velocity=0 time=0
note_on channel=1 note=48 velocity=80 time=32
note_on channel=1 note=36 velocity=80 time=0
note_on channel=1 note=36 velocity=0 time=64
note_on channel=1 note=48 velocity=0 time=0
note_on channel=1 note=53 velocity=80 time=32
note_on channel=1 note=57 velocity=80 time=0
note_on channel=1 note=63 velocity=80 time=0
note_on channel=1 note=63 velocity=0 time=64
note_on channel=1 note=57 velocity=0 time=0
note_on channel=1 note=53 velocity=0 time=0
note_on channel=1 note=53 velocity=80 time=32
note_on channel=1 note=41 velocity=80 time=0
note_on channel=1 note=41 velocity=0 time=64
note_on channel=1 note=53 velocity=0 time=0
note_on channel=1 note=47 velocity=80 time=32
note_on channel=1 note=59 velocity=80 time=0
note_on channel=1 note=59 velocity=0 time=64
note_on channel=1 note=47 velocity=0 time=0
note_on channel=1 note=48 velocity=80 time=32
note_on channel=1 note=60 velocity=80 time=0
note_on channel=1 note=60 velocity=0 time=64
note_on channel=1 note=48 velocity=0 time=0
note_on channel=1 note=63 velocity=80 time=32
note_on channel=1 note=57 velocity=80 time=0
note_on channel=1 note=53 velocity=80 time=0
note_on channel=1 note=53 velocity=0 time=64
note_on channel=1 note=57 velocity=0 time=0
note_on channel=1 note=63 velocity=0 time=0
note_on channel=1 note=53 velocity=80 time=32
note_on channel=1 note=41 velocity=80 time=0
note_on channel=1 note=41 velocity=0 time=64
note_on channel=1 note=53 velocity=0 time=0
note_on channel=1 note=53 velocity=80 time=32
note_on channel=1 note=57 velocity=80 time=0
note_on channel=1 note=63 velocity=80 time=0
note_on channel=1 note=63 velocity=0 time=64
note_on channel=1 note=57 velocity=0 time=0
note_on channel=1 note=53 velocity=0 time=0
note_on channel=1 note=58 velocity=80 time=32
note_on channel=1 note=46 velocity=80 time=0
note_on channel=1 note=46 velocity=0 time=64
note_on channel=1 note=58 velocity=0 time=0
note_on channel=1 note=53 velocity=80 time=32
note_on channel=1 note=58 velocity=80 time=0
note_on channel=1 note=62 velocity=80 time=0
note_on channel=1 note=62 velocity=0 time=64
note_on channel=1 note=58 velocity=0 time=0
note_on channel=1 note=53 velocity=0 time=0
note_on channel=1 note=53 velocity=80 time=32
note_on channel=1 note=41 velocity=80 time=0
note_on channel=1 note=41 velocity=0 time=64
note_on channel=1 note=53 velocity=0 time=0
note_on channel=1 note=53 velocity=80 time=32
note_on channel=1 note=58 velocity=80 time=0
note_on channel=1 note=62 velocity=80 time=0
note_on channel=1 note=62 velocity=0 time=64
note_on channel=1 note=58 velocity=0 time=0
note_on channel=1 note=53 velocity=0 time=0
note_on channel=1 note=50 velocity=80 time=32
note_on channel=1 note=38 velocity=80 time=0
note_on channel=1 note=38 velocity=0 time=64
note_on channel=1 note=50 velocity=0 time=0
note_on channel=1 note=47 velocity=80 time=32
note_on channel=1 note=35 velocity=80 time=0
note_on channel=1 note=35 velocity=0 time=64
note_on channel=1 note=47 velocity=0 time=0
note_on channel=1 note=36 velocity=80 time=32
note_on channel=1 note=48 velocity=80 time=0
note_on channel=1 note=48 velocity=0 time=64
note_on channel=1 note=36 velocity=0 time=0
note_on channel=1 note=53 velocity=80 time=32
note_on channel=1 note=57 velocity=80 time=0
note_on channel=1 note=63 velocity=80 time=0
note_on channel=1 note=63 velocity=0 time=64
note_on channel=1 note=57 velocity=0 time=0
note_on channel=1 note=53 velocity=0 time=0
note_on channel=1 note=46 velocity=80 time=32
note_on channel=1 note=34 velocity=80 time=0
note_on channel=1 note=34 velocity=0 time=64
note_on channel=1 note=46 velocity=0 time=0
note_on channel=1 note=50 velocity=80 time=32
note_on channel=1 note=38 velocity=80 time=0
note_on channel=1 note=38 velocity=0 time=64
note_on channel=1 note=50 velocity=0 time=0
note_on channel=1 note=39 velocity=80 time=32
note_on channel=1 note=51 velocity=80 time=0
note_on channel=1 note=51 velocity=0 time=64
note_on channel=1 note=39 velocity=0 time=0
note_on channel=1 note=52 velocity=80 time=32
note_on channel=1 note=40 velocity=80 time=0
note_on channel=1 note=40 velocity=0 time=64
note_on channel=1 note=52 velocity=0 time=0
note_on channel=1 note=53 velocity=80 time=32
note_on channel=1 note=41 velocity=80 time=0
note_on channel=1 note=41 velocity=0 time=64
note_on channel=1 note=53 velocity=0 time=0
note_on channel=1 note=58 velocity=80 time=32
note_on channel=1 note=58 velocity=0 time=64
note_on channel=1 note=50 velocity=80 time=32
note_on channel=1 note=38 velocity=80 time=0
note_on channel=1 note=38 velocity=0 time=64
note_on channel=1 note=50 velocity=0 time=0
note_on channel=1 note=53 velocity=80 time=32
note_on channel=1 note=58 velocity=80 time=0
note_on channel=1 note=62 velocity=80 time=0
note_on channel=1 note=62 velocity=0 time=64
note_on channel=1 note=58 velocity=0 time=0
note_on channel=1 note=53 velocity=0 time=0
note_on channel=1 note=46 velocity=80 time=32
note_on channel=1 note=34 velocity=80 time=0
note_on channel=1 note=34 velocity=0 time=64
note_on channel=1 note=46 velocity=0 time=0
note_on channel=1 note=50 velocity=80 time=32
note_on channel=1 note=38 velocity=80 time=0
note_on channel=1 note=38 velocity=0 time=64
note_on channel=1 note=50 velocity=0 time=0
note_on channel=1 note=39 velocity=80 time=32
note_on channel=1 note=51 velocity=80 time=0
note_on channel=1 note=51 velocity=0 time=64
note_on channel=1 note=39 velocity=0 time=0
note_on channel=1 note=52 velocity=80 time=32
note_on channel=1 note=40 velocity=80 time=0
note_on channel=1 note=40 velocity=0 time=64
note_on channel=1 note=52 velocity=0 time=0
note_on channel=1 note=53 velocity=80 time=32
note_on channel=1 note=41 velocity=80 time=0
note_on channel=1 note=41 velocity=0 time=64
note_on channel=1 note=53 velocity=0 time=0
note_on channel=1 note=58 velocity=80 time=32
note_on channel=1 note=58 velocity=0 time=32
note_on channel=1 note=60 velocity=80 time=16
note_on channel=1 note=60 velocity=0 time=32
note_on channel=1 note=53 velocity=80 time=567
note_on channel=1 note=53 velocity=0 time=10
note_on channel=1 note=54 velocity=80 time=1
note_on channel=1 note=54 velocity=0 time=10
note_on channel=1 note=55 velocity=80 time=4
note_on channel=1 note=55 velocity=0 time=144
note_on channel=1 note=48 velocity=80 time=23
note_on channel=1 note=48 velocity=0 time=10
note_on channel=1 note=49 velocity=80 time=1
note_on channel=1 note=49 velocity=0 time=10
note_on channel=1 note=50 velocity=80 time=4
note_on channel=1 note=50 velocity=0 time=128
note_on channel=1 note=43 velocity=80 time=64
note_on channel=1 note=43 velocity=0 time=32
note_on channel=1 note=45 velocity=80 time=16
note_on channel=1 note=45 velocity=0 time=64
note_on channel=1 note=46 velocity=80 time=32
note_on channel=1 note=46 velocity=0 time=64
note_on channel=1 note=48 velocity=80 time=32
note_on channel=1 note=48 velocity=0 time=32
note_on channel=1 note=50 velocity=80 time=16
note_on channel=1 note=50 velocity=0 time=64
note_on channel=1 note=58 velocity=80 time=32
note_on channel=1 note=58 velocity=0 time=32
note_on channel=1 note=57 velocity=80 time=16
note_on channel=1 note=57 velocity=0 time=64
note_on channel=1 note=55 velocity=80 time=32
note_on channel=1 note=55 velocity=0 time=64
note_on channel=1 note=53 velocity=80 time=32
note_on channel=1 note=53 velocity=0 time=32
note_on channel=1 note=52 velocity=80 time=16
note_on channel=1 note=58 velocity=80 time=0
note_on channel=1 note=61 velocity=80 time=0
note_on channel=1 note=61 velocity=0 time=64
note_on channel=1 note=58 velocity=0 time=0
note_on channel=1 note=52 velocity=0 time=0
note_on channel=1 note=53 velocity=80 time=32
note_on channel=1 note=41 velocity=80 time=0
note_on channel=1 note=41 velocity=0 time=64
note_on channel=1 note=53 velocity=0 time=0
note_on channel=1 note=53 velocity=80 time=32
note_on channel=1 note=58 velocity=80 time=0
note_on channel=1 note=62 velocity=80 time=0
note_on channel=1 note=62 velocity=0 time=64
note_on channel=1 note=58 velocity=0 time=0
note_on channel=1 note=53 velocity=0 time=0
note_on channel=1 note=53 velocity=80 time=32
note_on channel=1 note=41 velocity=80 time=0
note_on channel=1 note=41 velocity=0 time=64
note_on channel=1 note=53 velocity=0 time=0
note_on channel=1 note=53 velocity=80 time=32
note_on channel=1 note=57 velocity=80 time=0
note_on channel=1 note=63 velocity=80 time=0
note_on channel=1 note=63 velocity=0 time=64
note_on channel=1 note=57 velocity=0 time=0
note_on channel=1 note=53 velocity=0 time=0
note_on channel=1 note=58 velocity=80 time=32
note_on channel=1 note=46 velocity=80 time=0
note_on channel=1 note=46 velocity=0 time=64
note_on channel=1 note=58 velocity=0 time=0
note_on channel=1 note=53 velocity=80 time=32
note_on channel=1 note=41 velocity=80 time=0
note_on channel=1 note=41 velocity=0 time=64
note_on channel=1 note=53 velocity=0 time=0
note_on channel=1 note=43 velocity=80 time=32
note_on channel=1 note=55 velocity=80 time=0
note_on channel=1 note=55 velocity=0 time=64
note_on channel=1 note=43 velocity=0 time=0
note_on channel=1 note=57 velocity=80 time=32
note_on channel=1 note=45 velocity=80 time=0
note_on channel=1 note=45 velocity=0 time=64
note_on channel=1 note=57 velocity=0 time=0
note_on channel=1 note=46 velocity=80 time=32
note_on channel=1 note=58 velocity=80 time=0
note_on channel=1 note=58 velocity=0 time=64
note_on channel=1 note=46 velocity=0 time=0
note_on channel=1 note=58 velocity=80 time=32
note_on channel=1 note=61 velocity=80 time=0
note_on channel=1 note=53 velocity=80 time=0
note_on channel=1 note=53 velocity=0 time=64
note_on channel=1 note=61 velocity=0 time=0
note_on channel=1 note=58 velocity=0 time=0
note_on channel=1 note=53 velocity=80 time=32
note_on channel=1 note=41 velocity=80 time=0
note_on channel=1 note=41 velocity=0 time=64
note_on channel=1 note=53 velocity=0 time=0
note_on channel=1 note=53 velocity=80 time=32
note_on channel=1 note=58 velocity=80 time=0
note_on channel=1 note=61 velocity=80 time=0
note_on channel=1 note=61 velocity=0 time=64
note_on channel=1 note=58 velocity=0 time=0
note_on channel=1 note=53 velocity=0 time=0
note_on channel=1 note=58 velocity=80 time=32
note_on channel=1 note=46 velocity=80 time=0
note_on channel=1 note=46 velocity=0 time=64
note_on channel=1 note=58 velocity=0 time=0
note_on channel=1 note=53 velocity=80 time=32
note_on channel=1 note=58 velocity=80 time=0
note_on channel=1 note=61 velocity=80 time=0
note_on channel=1 note=61 velocity=0 time=64
note_on channel=1 note=58 velocity=0 time=0
note_on channel=1 note=53 velocity=0 time=0
note_on channel=1 note=53 velocity=80 time=32
note_on channel=1 note=41 velocity=80 time=0
note_on channel=1 note=41 velocity=0 time=64
note_on channel=1 note=53 velocity=0 time=0
note_on channel=1 note=58 velocity=80 time=32
note_on channel=1 note=61 velocity=80 time=0
note_on channel=1 note=53 velocity=80 time=0
note_on channel=1 note=53 velocity=0 time=64
note_on channel=1 note=61 velocity=0 time=0
note_on channel=1 note=58 velocity=0 time=0
note_on channel=1 note=58 velocity=80 time=32
note_on channel=1 note=46 velocity=80 time=0
note_on channel=1 note=53 velocity=80 time=96
note_on channel=1 note=58 velocity=80 time=0
note_on channel=1 note=61 velocity=80 time=0
note_on channel=1 note=46 velocity=0 time=32
note_on channel=1 note=58 velocity=0 time=0
note_on channel=1 note=58 velocity=0 time=32
note_on channel=1 note=53 velocity=0 time=0
note_on channel=1 note=61 velocity=0 time=0
note_on channel=1 note=54 velocity=80 time=32
note_on channel=1 note=42 velocity=80 time=0
note_on channel=1 note=54 velocity=80 time=96
note_on channel=1 note=58 velocity=80 time=0
note_on channel=1 note=63 velocity=80 time=0
note_on channel=1 note=42 velocity=0 time=32
note_on channel=1 note=54 velocity=0 time=0
note_on channel=1 note=58 velocity=0 time=32
note_on channel=1 note=54 velocity=0 time=0
note_on channel=1 note=63 velocity=0 time=0
note_on channel=1 note=53 velocity=80 time=32
note_on channel=1 note=41 velocity=80 time=0
note_on channel=1 note=41 velocity=0 time=64
note_on channel=1 note=53 velocity=0 time=0
note_on channel=1 note=51 velocity=80 time=32
note_on channel=1 note=39 velocity=80 time=0
note_on channel=1 note=39 velocity=0 time=64
note_on channel=1 note=51 velocity=0 time=0
note_on channel=1 note=49 velocity=80 time=32
note_on channel=1 note=37 velocity=80 time=0
note_on channel=1 note=53 velocity=80 time=96
note_on channel=1 note=58 velocity=80 time=0
note_on channel=1 note=61 velocity=80 time=0
note_on channel=1 note=37 velocity=0 time=32
note_on channel=1 note=49 velocity=0 time=0
note_on channel=1 note=58 velocity=0 time=32
note_on channel=1 note=53 velocity=0 time=0
note_on channel=1 note=61 velocity=0 time=0
note_on channel=1 note=48 velocity=80 time=32
note_on channel=1 note=53 velocity=80 time=0
note_on channel=1 note=53 velocity=0 time=64
note_on channel=1 note=55 velocity=80 time=32
note_on channel=1 note=55 velocity=0 time=32
note_on channel=1 note=57 velocity=80 time=16
note_on channel=1 note=57 velocity=0 time=64
note_on channel=1 note=55 velocity=80 time=32
note_on channel=1 note=48 velocity=0 time=17
note_on channel=1 note=55 velocity=0 time=15
note_on channel=1 note=54 velocity=80 time=16
note_on channel=1 note=54 velocity=0 time=64
note_on channel=1 note=51 velocity=80 time=32
note_on channel=1 note=57 velocity=80 time=0
note_on channel=1 note=57 velocity=0 time=64
note_on channel=1 note=58 velocity=80 time=32
note_on channel=1 note=58 velocity=0 time=32
note_on channel=1 note=60 velocity=80 time=16
note_on channel=1 note=60 velocity=0 time=64
note_on channel=1 note=58 velocity=80 time=32
note_on channel=1 note=51 velocity=0 time=17
note_on channel=1 note=58 velocity=0 time=15
note_on channel=1 note=57 velocity=80 time=16
note_on channel=1 note=57 velocity=0 time=64
note_on channel=1 note=56 velocity=80 time=32
note_on channel=1 note=56 velocity=0 time=64
note_on channel=1 note=57 velocity=80 time=32
note_on channel=1 note=57 velocity=0 time=128
note_on channel=1 note=58 velocity=80 time=64
note_on channel=1 note=58 velocity=0 time=64
note_on channel=1 note=59 velocity=80 time=32
note_on channel=1 note=59 velocity=0 time=64
note_on channel=1 note=60 velocity=80 time=32
note_on channel=1 note=60 velocity=0 time=64
note_on channel=1 note=61 velocity=80 time=32
note_on channel=1 note=61 velocity=0 time=64
note_on channel=1 note=62 velocity=80 time=32
note_on channel=1 note=62 velocity=0 time=64
note_on channel=1 note=63 velocity=80 time=32
note_on channel=1 note=58 velocity=80 time=0
note_on channel=1 note=58 velocity=0 time=64
note_on channel=1 note=63 velocity=0 time=0
note_on channel=1 note=60 velocity=80 time=32
note_on channel=1 note=54 velocity=80 time=0
note_on channel=1 note=54 velocity=0 time=128
note_on channel=1 note=60 velocity=0 time=0
note_on channel=1 note=60 velocity=80 time=64
note_on channel=1 note=54 velocity=80 time=0
note_on channel=1 note=54 velocity=0 time=64
note_on channel=1 note=60 velocity=0 time=0
note_on channel=1 note=53 velocity=80 time=32
note_on channel=1 note=60 velocity=80 time=0
note_on channel=1 note=60 velocity=0 time=64
note_on channel=1 note=63 velocity=80 time=32
note_on channel=1 note=63 velocity=0 time=32
note_on channel=1 note=61 velocity=80 time=16
note_on channel=1 note=61 velocity=0 time=32
note_on channel=1 note=60 velocity=80 time=16
note_on channel=1 note=60 velocity=0 time=32
note_on channel=1 note=61 velocity=80 time=16
note_on channel=1 note=53 velocity=0 time=17
note_on channel=1 note=61 velocity=0 time=15
note_on channel=1 note=60 velocity=80 time=16
note_on channel=1 note=60 velocity=0 time=64
note_on channel=1 note=58 velocity=80 time=32
note_on channel=1 note=46 velocity=80 time=0
note_on channel=1 note=53 velocity=80 time=96
note_on channel=1 note=58 velocity=80 time=0
note_on channel=1 note=61 velocity=80 time=0
note_on channel=1 note=46 velocity=0 time=32
note_on channel=1 note=58 velocity=0 time=0
note_on channel=1 note=58 velocity=0 time=32
note_on channel=1 note=53 velocity=0 time=0
note_on channel=1 note=61 velocity=0 time=0
note_on channel=1 note=54 velocity=80 time=32
note_on channel=1 note=42 velocity=80 time=0
note_on channel=1 note=54 velocity=80 time=96
note_on channel=1 note=58 velocity=80 time=0
note_on channel=1 note=63 velocity=80 time=0
note_on channel=1 note=42 velocity=0 time=32
note_on channel=1 note=54 velocity=0 time=0
note_on channel=1 note=58 velocity=0 time=32
note_on channel=1 note=54 velocity=0 time=0
note_on channel=1 note=63 velocity=0 time=0
note_on channel=1 note=53 velocity=80 time=32
note_on channel=1 note=41 velocity=80 time=0
note_on channel=1 note=41 velocity=0 time=64
note_on channel=1 note=53 velocity=0 time=0
note_on channel=1 note=51 velocity=80 time=32
note_on channel=1 note=39 velocity=80 time=0
note_on channel=1 note=39 velocity=0 time=64
note_on channel=1 note=51 velocity=0 time=0
note_on channel=1 note=49 velocity=80 time=32
note_on channel=1 note=37 velocity=80 time=0
note_on channel=1 note=37 velocity=0 time=64
note_on channel=1 note=49 velocity=0 time=0
note_on channel=1 note=33 velocity=80 time=32
note_on channel=1 note=45 velocity=80 time=0
note_on channel=1 note=45 velocity=0 time=64
note_on channel=1 note=33 velocity=0 time=0
note_on channel=1 note=46 velocity=80 time=32
note_on channel=1 note=34 velocity=80 time=0
note_on channel=1 note=34 velocity=0 time=64
note_on channel=1 note=46 velocity=0 time=0
note_on channel=1 note=53 velocity=80 time=32
note_on channel=1 note=58 velocity=80 time=0
note_on channel=1 note=61 velocity=80 time=0
note_on channel=1 note=61 velocity=0 time=64
note_on channel=1 note=58 velocity=0 time=0
note_on channel=1 note=53 velocity=0 time=0
note_on channel=1 note=54 velocity=80 time=32
note_on channel=1 note=42 velocity=80 time=0
note_on channel=1 note=42 velocity=0 time=64
note_on channel=1 note=54 velocity=0 time=0
note_on channel=1 note=54 velocity=80 time=32
note_on channel=1 note=58 velocity=80 time=0
note_on channel=1 note=63 velocity=80 time=0
note_on channel=1 note=63 velocity=0 time=64
note_on channel=1 note=58 velocity=0 time=0
note_on channel=1 note=54 velocity=0 time=0
note_on channel=1 note=56 velocity=80 time=32
note_on channel=1 note=44 velocity=80 time=0
note_on channel=1 note=44 velocity=0 time=64
note_on channel=1 note=56 velocity=0 time=0
note_on channel=1 note=56 velocity=80 time=32
note_on channel=1 note=60 velocity=80 time=0
note_on channel=1 note=66 velocity=80 time=0
note_on channel=1 note=66 velocity=0 time=64
note_on channel=1 note=60 velocity=0 time=0
note_on channel=1 note=56 velocity=0 time=0
note_on channel=1 note=49 velocity=80 time=32
note_on channel=1 note=37 velocity=80 time=0
note_on channel=1 note=37 velocity=0 time=64
note_on channel=1 note=49 velocity=0 time=0
note_on channel=1 note=56 velocity=80 time=32
note_on channel=1 note=61 velocity=80 time=0
note_on channel=1 note=65 velocity=80 time=0
note_on channel=1 note=65 velocity=0 time=64
note_on channel=1 note=61 velocity=0 time=0
note_on channel=1 note=56 velocity=0 time=0
note_on channel=1 note=53 velocity=80 time=704
note_on channel=1 note=41 velocity=80 time=0
note_on channel=1 note=41 velocity=0 time=64
note_on channel=1 note=53 velocity=0 time=0
note_on channel=1 note=51 velocity=80 time=32
note_on channel=1 note=39 velocity=80 time=0
note_on channel=1 note=39 velocity=0 time=64
note_on channel=1 note=51 velocity=0 time=0
note_on channel=1 note=41 velocity=80 time=32
note_on channel=1 note=53 velocity=80 time=0
note_on channel=1 note=53 velocity=0 time=64
note_on channel=1 note=41 velocity=0 time=0
note_on channel=1 note=53 velocity=80 time=32
note_on channel=1 note=41 velocity=80 time=0
note_on channel=1 note=41 velocity=0 time=64
note_on channel=1 note=53 velocity=0 time=0
note_on channel=1 note=53 velocity=80 time=32
note_on channel=1 note=57 velocity=80 time=0
note_on channel=1 note=63 velocity=80 time=0
note_on channel=1 note=63 velocity=0 time=64
note_on channel=1 note=57 velocity=0 time=0
note_on channel=1 note=53 velocity=0 time=0
note_on channel=1 note=58 velocity=80 time=32
note_on channel=1 note=46 velocity=80 time=0
note_on channel=1 note=46 velocity=0 time=64
note_on channel=1 note=58 velocity=0 time=0
note_on channel=1 note=53 velocity=80 time=32
note_on channel=1 note=58 velocity=80 time=0
note_on channel=1 note=61 velocity=80 time=0
note_on channel=1 note=61 velocity=0 time=64
note_on channel=1 note=58 velocity=0 time=0
note_on channel=1 note=53 velocity=0 time=0
note_on channel=1 note=60 velocity=80 time=32
note_on channel=1 note=48 velocity=80 time=0
note_on channel=1 note=48 velocity=0 time=64
note_on channel=1 note=60 velocity=0 time=0
note_on channel=1 note=53 velocity=80 time=32
note_on channel=1 note=57 velocity=80 time=0
note_on channel=1 note=63 velocity=80 time=0
note_on channel=1 note=63 velocity=0 time=64
note_on channel=1 note=57 velocity=0 time=0
note_on channel=1 note=53 velocity=0 time=0
note_on channel=1 note=58 velocity=80 time=32
note_on channel=1 note=46 velocity=80 time=0
note_on channel=1 note=53 velocity=80 time=96
note_on channel=1 note=58 velocity=80 time=0
note_on channel=1 note=61 velocity=80 time=0
note_on channel=1 note=46 velocity=0 time=32
note_on channel=1 note=58 velocity=0 time=0
note_on channel=1 note=58 velocity=0 time=32
note_on channel=1 note=53 velocity=0 time=0
note_on channel=1 note=61 velocity=0 time=0
note_on channel=1 note=54 velocity=80 time=32
note_on channel=1 note=42 velocity=80 time=0
note_on channel=1 note=54 velocity=80 time=96
note_on channel=1 note=58 velocity=80 time=0
note_on channel=1 note=63 velocity=80 time=0
note_on channel=1 note=42 velocity=0 time=32
note_on channel=1 note=54 velocity=0 time=0
note_on channel=1 note=58 velocity=0 time=32
note_on channel=1 note=54 velocity=0 time=0
note_on channel=1 note=63 velocity=0 time=0
note_on channel=1 note=53 velocity=80 time=32
note_on channel=1 note=41 velocity=80 time=0
note_on channel=1 note=41 velocity=0 time=64
note_on channel=1 note=53 velocity=0 time=0
note_on channel=1 note=51 velocity=80 time=32
note_on channel=1 note=39 velocity=80 time=0
note_on channel=1 note=39 velocity=0 time=64
note_on channel=1 note=51 velocity=0 time=0
note_on channel=1 note=49 velocity=80 time=32
note_on channel=1 note=37 velocity=80 time=0
note_on channel=1 note=53 velocity=80 time=96
note_on channel=1 note=58 velocity=80 time=0
note_on channel=1 note=61 velocity=80 time=0
note_on channel=1 note=37 velocity=0 time=32
note_on channel=1 note=49 velocity=0 time=0
note_on channel=1 note=58 velocity=0 time=32
note_on channel=1 note=53 velocity=0 time=0
note_on channel=1 note=61 velocity=0 time=0
note_on channel=1 note=48 velocity=80 time=32
note_on channel=1 note=53 velocity=80 time=0
note_on channel=1 note=53 velocity=0 time=64
note_on channel=1 note=55 velocity=80 time=32
note_on channel=1 note=55 velocity=0 time=32
note_on channel=1 note=57 velocity=80 time=16
note_on channel=1 note=57 velocity=0 time=64
note_on channel=1 note=55 velocity=80 time=32
note_on channel=1 note=48 velocity=0 time=17
note_on channel=1 note=55 velocity=0 time=15
note_on channel=1 note=54 velocity=80 time=16
note_on channel=1 note=54 velocity=0 time=64
note_on channel=1 note=51 velocity=80 time=32
note_on channel=1 note=57 velocity=80 time=0
note_on channel=1 note=57 velocity=0 time=64
note_on channel=1 note=58 velocity=80 time=32
note_on channel=1 note=58 velocity=0 time=32
note_on channel=1 note=60 velocity=80 time=16
note_on channel=1 note=60 velocity=0 time=64
note_on channel=1 note=58 velocity=80 time=32
note_on channel=1 note=51 velocity=0 time=17
note_on channel=1 note=58 velocity=0 time=15
note_on channel=1 note=57 velocity=80 time=16
note_on channel=1 note=57 velocity=0 time=64
note_on channel=1 note=56 velocity=80 time=32
note_on channel=1 note=56 velocity=0 time=64
note_on channel=1 note=57 velocity=80 time=32
note_on channel=1 note=57 velocity=0 time=128
note_on channel=1 note=58 velocity=80 time=64
note_on channel=1 note=58 velocity=0 time=64
note_on channel=1 note=59 velocity=80 time=32
note_on channel=1 note=59 velocity=0 time=64
note_on channel=1 note=60 velocity=80 time=32
note_on channel=1 note=60 velocity=0 time=64
note_on channel=1 note=61 velocity=80 time=32
note_on channel=1 note=61 velocity=0 time=64
note_on channel=1 note=62 velocity=80 time=32
note_on channel=1 note=62 velocity=0 time=64
note_on channel=1 note=63 velocity=80 time=32
note_on channel=1 note=58 velocity=80 time=0
note_on channel=1 note=58 velocity=0 time=64
note_on channel=1 note=63 velocity=0 time=0
note_on channel=1 note=60 velocity=80 time=32
note_on channel=1 note=54 velocity=80 time=0
note_on channel=1 note=54 velocity=0 time=128
note_on channel=1 note=60 velocity=0 time=0
note_on channel=1 note=60 velocity=80 time=64
note_on channel=1 note=54 velocity=80 time=0
note_on channel=1 note=54 velocity=0 time=64
note_on channel=1 note=60 velocity=0 time=0
note_on channel=1 note=53 velocity=80 time=32
note_on channel=1 note=60 velocity=80 time=0
note_on channel=1 note=60 velocity=0 time=64
note_on channel=1 note=63 velocity=80 time=32
note_on channel=1 note=63 velocity=0 time=32
note_on channel=1 note=61 velocity=80 time=16
note_on channel=1 note=61 velocity=0 time=32
note_on channel=1 note=60 velocity=80 time=16
note_on channel=1 note=60 velocity=0 time=32
note_on channel=1 note=61 velocity=80 time=16
note_on channel=1 note=53 velocity=0 time=17
note_on channel=1 note=61 velocity=0 time=15
note_on channel=1 note=60 velocity=80 time=16
note_on channel=1 note=60 velocity=0 time=64
note_on channel=1 note=58 velocity=80 time=32
note_on channel=1 note=46 velocity=80 time=0
note_on channel=1 note=53 velocity=80 time=96
note_on channel=1 note=58 velocity=80 time=0
note_on channel=1 note=61 velocity=80 time=0
note_on channel=1 note=46 velocity=0 time=32
note_on channel=1 note=58 velocity=0 time=0
note_on channel=1 note=58 velocity=0 time=32
note_on channel=1 note=53 velocity=0 time=0
note_on channel=1 note=61 velocity=0 time=0
note_on channel=1 note=54 velocity=80 time=32
note_on channel=1 note=42 velocity=80 time=0
note_on channel=1 note=54 velocity=80 time=96
note_on channel=1 note=58 velocity=80 time=0
note_on channel=1 note=63 velocity=80 time=0
note_on channel=1 note=42 velocity=0 time=32
note_on channel=1 note=54 velocity=0 time=0
note_on channel=1 note=58 velocity=0 time=32
note_on channel=1 note=54 velocity=0 time=0
note_on channel=1 note=63 velocity=0 time=0
note_on channel=1 note=53 velocity=80 time=32
note_on channel=1 note=41 velocity=80 time=0
note_on channel=1 note=41 velocity=0 time=64
note_on channel=1 note=53 velocity=0 time=0
note_on channel=1 note=51 velocity=80 time=32
note_on channel=1 note=39 velocity=80 time=0
note_on channel=1 note=39 velocity=0 time=64
note_on channel=1 note=51 velocity=0 time=0
note_on channel=1 note=49 velocity=80 time=32
note_on channel=1 note=37 velocity=80 time=0
note_on channel=1 note=37 velocity=0 time=64
note_on channel=1 note=49 velocity=0 time=0
note_on channel=1 note=33 velocity=80 time=32
note_on channel=1 note=45 velocity=80 time=0
note_on channel=1 note=45 velocity=0 time=64
note_on channel=1 note=33 velocity=0 time=0
note_on channel=1 note=46 velocity=80 time=32
note_on channel=1 note=34 velocity=80 time=0
note_on channel=1 note=34 velocity=0 time=64
note_on channel=1 note=46 velocity=0 time=0
note_on channel=1 note=53 velocity=80 time=32
note_on channel=1 note=58 velocity=80 time=0
note_on channel=1 note=61 velocity=80 time=0
note_on channel=1 note=61 velocity=0 time=64
note_on channel=1 note=58 velocity=0 time=0
note_on channel=1 note=53 velocity=0 time=0
note_on channel=1 note=54 velocity=80 time=32
note_on channel=1 note=42 velocity=80 time=0
note_on channel=1 note=42 velocity=0 time=64
note_on channel=1 note=54 velocity=0 time=0
note_on channel=1 note=54 velocity=80 time=32
note_on channel=1 note=58 velocity=80 time=0
note_on channel=1 note=63 velocity=80 time=0
note_on channel=1 note=63 velocity=0 time=64
note_on channel=1 note=58 velocity=0 time=0
note_on channel=1 note=54 velocity=0 time=0
note_on channel=1 note=56 velocity=80 time=32
note_on channel=1 note=44 velocity=80 time=0
note_on channel=1 note=44 velocity=0 time=64
note_on channel=1 note=56 velocity=0 time=0
note_on channel=1 note=56 velocity=80 time=32
note_on channel=1 note=60 velocity=80 time=0
note_on channel=1 note=66 velocity=80 time=0
note_on channel=1 note=66 velocity=0 time=64
note_on channel=1 note=60 velocity=0 time=0
note_on channel=1 note=56 velocity=0 time=0
note_on channel=1 note=49 velocity=80 time=32
note_on channel=1 note=37 velocity=80 time=0
note_on channel=1 note=37 velocity=0 time=64
note_on channel=1 note=49 velocity=0 time=0
note_on channel=1 note=56 velocity=80 time=32
note_on channel=1 note=61 velocity=80 time=0
note_on channel=1 note=65 velocity=80 time=0
note_on channel=1 note=65 velocity=0 time=64
note_on channel=1 note=61 velocity=0 time=0
note_on channel=1 note=56 velocity=0 time=0
note_on channel=1 note=53 velocity=80 time=704
note_on channel=1 note=41 velocity=80 time=0
note_on channel=1 note=41 velocity=0 time=64
note_on channel=1 note=53 velocity=0 time=0
note_on channel=1 note=35 velocity=80 time=32
note_on channel=1 note=47 velocity=80 time=0
note_on channel=1 note=47 velocity=0 time=64
note_on channel=1 note=35 velocity=0 time=0
note_on channel=1 note=48 velocity=80 time=32
note_on channel=1 note=36 velocity=80 time=0
note_on channel=1 note=36 velocity=0 time=64
note_on channel=1 note=48 velocity=0 time=0
note_on channel=1 note=36 velocity=80 time=32
note_on channel=1 note=48 velocity=80 time=0
note_on channel=1 note=48 velocity=0 time=64
note_on channel=1 note=36 velocity=0 time=0
note_on channel=1 note=55 velocity=80 time=32
note_on channel=1 note=58 velocity=80 time=0
note_on channel=1 note=60 velocity=80 time=0
note_on channel=1 note=60 velocity=0 time=64
note_on channel=1 note=58 velocity=0 time=0
note_on channel=1 note=55 velocity=0 time=0
note_on channel=1 note=53 velocity=80 time=32
note_on channel=1 note=41 velocity=80 time=0
note_on channel=1 note=41 velocity=0 time=64
note_on channel=1 note=53 velocity=0 time=0
note_on channel=1 note=51 velocity=80 time=32
note_on channel=1 note=39 velocity=80 time=0
note_on channel=1 note=39 velocity=0 time=64
note_on channel=1 note=51 velocity=0 time=0
note_on channel=1 note=50 velocity=80 time=32
note_on channel=1 note=38 velocity=80 time=0
note_on channel=1 note=38 velocity=0 time=64
note_on channel=1 note=50 velocity=0 time=0
note_on channel=1 note=36 velocity=80 time=32
note_on channel=1 note=48 velocity=80 time=0
note_on channel=1 note=48 velocity=0 time=64
note_on channel=1 note=36 velocity=0 time=0
note_on channel=1 note=46 velocity=80 time=32
note_on channel=1 note=65 velocity=80 time=0
note_on channel=1 note=53 velocity=80 time=96
note_on channel=1 note=58 velocity=80 time=0
note_on channel=1 note=65 velocity=0 time=32
note_on channel=1 note=46 velocity=0 time=0
note_on channel=1 note=53 velocity=0 time=32
note_on channel=1 note=58 velocity=0 time=0
note_on channel=1 note=48 velocity=80 time=32
note_on channel=1 note=67 velocity=80 time=0
note_on channel=1 note=53 velocity=80 time=96
note_on channel=1 note=57 velocity=80 time=0
note_on channel=1 note=67 velocity=0 time=32
note_on channel=1 note=48 velocity=0 time=0
note_on channel=1 note=53 velocity=0 time=32
note_on channel=1 note=57 velocity=0 time=0
note_on channel=1 note=65 velocity=80 time=32
note_on channel=1 note=46 velocity=80 time=0
note_on channel=1 note=46 velocity=0 time=64
note_on channel=1 note=58 velocity=80 time=32
note_on channel=1 note=53 velocity=80 time=0
note_on channel=1 note=65 velocity=0 time=32
note_on channel=1 note=53 velocity=0 time=32
note_on channel=1 note=58 velocity=0 time=0
note_on channel=1 note=46 velocity=80 time=32
note_on channel=1 note=46 velocity=0 time=64
note_on channel=1 note=58 velocity=80 time=32
note_on channel=1 note=53 velocity=80 time=0
note_on channel=1 note=53 velocity=0 time=64
note_on channel=1 note=58 velocity=0 time=0
note_on channel=1 note=45 velocity=80 time=32
note_on channel=1 note=45 velocity=0 time=64
note_on channel=1 note=57 velocity=80 time=32
note_on channel=1 note=53 velocity=80 time=0
note_on channel=1 note=53 velocity=0 time=64
note_on channel=1 note=57 velocity=0 time=0
note_on channel=1 note=41 velocity=80 time=32
note_on channel=1 note=41 velocity=0 time=64
note_on channel=1 note=57 velocity=80 time=32
note_on channel=1 note=53 velocity=80 time=0
note_on channel=1 note=53 velocity=0 time=64
note_on channel=1 note=57 velocity=0 time=0
note_on channel=1 note=46 velocity=80 time=32
note_on channel=1 note=46 velocity=0 time=64
note_on channel=1 note=58 velocity=80 time=32
note_on channel=1 note=53 velocity=80 time=0
note_on channel=1 note=53 velocity=0 time=64
note_on channel=1 note=58 velocity=0 time=0
note_on channel=1 note=41 velocity=80 time=32
note_on channel=1 note=41 velocity=0 time=64
note_on channel=1 note=53 velocity=80 time=32
note_on channel=1 note=58 velocity=80 time=0
note_on channel=1 note=58 velocity=0 time=64
note_on channel=1 note=53 velocity=0 time=0
note_on channel=1 note=46 velocity=80 time=32
note_on channel=1 note=65 velocity=80 time=0
note_on channel=1 note=53 velocity=80 time=96
note_on channel=1 note=58 velocity=80 time=0
note_on channel=1 note=65 velocity=0 time=32
note_on channel=1 note=46 velocity=0 time=0
note_on channel=1 note=53 velocity=0 time=32
note_on channel=1 note=58 velocity=0 time=0
note_on channel=1 note=48 velocity=80 time=32
note_on channel=1 note=67 velocity=80 time=0
note_on channel=1 note=53 velocity=80 time=96
note_on channel=1 note=57 velocity=80 time=0
note_on channel=1 note=67 velocity=0 time=32
note_on channel=1 note=48 velocity=0 time=0
note_on channel=1 note=53 velocity=0 time=32
note_on channel=1 note=57 velocity=0 time=0
note_on channel=1 note=65 velocity=80 time=32
note_on channel=1 note=46 velocity=80 time=0
note_on channel=1 note=46 velocity=0 time=64
note_on channel=1 note=58 velocity=80 time=32
note_on channel=1 note=53 velocity=80 time=0
note_on channel=1 note=65 velocity=0 time=32
note_on channel=1 note=53 velocity=0 time=32
note_on channel=1 note=58 velocity=0 time=0
note_on channel=1 note=46 velocity=80 time=32
note_on channel=1 note=58 velocity=80 time=0
note_on channel=1 note=58 velocity=0 time=64
note_on channel=1 note=46 velocity=0 time=0
note_on channel=1 note=55 velocity=80 time=32
note_on channel=1 note=43 velocity=80 time=0
note_on channel=1 note=43 velocity=0 time=64
note_on channel=1 note=55 velocity=0 time=0
note_on channel=1 note=54 velocity=80 time=32
note_on channel=1 note=42 velocity=80 time=0
note_on channel=1 note=42 velocity=0 time=64
note_on channel=1 note=54 velocity=0 time=0
note_on channel=1 note=54 velocity=80 time=32
note_on channel=1 note=60 velocity=80 time=0
note_on channel=1 note=62 velocity=80 time=0
note_on channel=1 note=62 velocity=0 time=64
note_on channel=1 note=60 velocity=0 time=0
note_on channel=1 note=54 velocity=0 time=0
note_on channel=1 note=50 velocity=80 time=32
note_on channel=1 note=38 velocity=80 time=0
note_on channel=1 note=38 velocity=0 time=64
note_on channel=1 note=50 velocity=0 time=0
note_on channel=1 note=54 velocity=80 time=32
note_on channel=1 note=60 velocity=80 time=0
note_on channel=1 note=62 velocity=80 time=0
note_on channel=1 note=62 velocity=0 time=64
note_on channel=1 note=60 velocity=0 time=0
note_on channel=1 note=54 velocity=0 time=0
note_on channel=1 note=55 velocity=80 time=32
note_on channel=1 note=43 velocity=80 time=0
note_on channel=1 note=43 velocity=0 time=64
note_on channel=1 note=55 velocity=0 time=0
note_on channel=1 note=55 velocity=80 time=32
note_on channel=1 note=58 velocity=80 time=0
note_on channel=1 note=62 velocity=80 time=0
note_on channel=1 note=62 velocity=0 time=64
note_on channel=1 note=58 velocity=0 time=0
note_on channel=1 note=55 velocity=0 time=0
note_on channel=1 note=50 velocity=80 time=32
note_on channel=1 note=38 velocity=80 time=0
note_on channel=1 note=38 velocity=0 time=64
note_on channel=1 note=50 velocity=0 time=0
note_on channel=1 note=55 velocity=80 time=32
note_on channel=1 note=58 velocity=80 time=0
note_on channel=1 note=62 velocity=80 time=0
note_on channel=1 note=62 velocity=0 time=64
note_on channel=1 note=58 velocity=0 time=0
note_on channel=1 note=55 velocity=0 time=0
note_on channel=1 note=55 velocity=80 time=32
note_on channel=1 note=43 velocity=80 time=0
note_on channel=1 note=43 velocity=0 time=64
note_on channel=1 note=55 velocity=0 time=0
note_on channel=1 note=39 velocity=80 time=32
note_on channel=1 note=51 velocity=80 time=0
note_on channel=1 note=51 velocity=0 time=64
note_on channel=1 note=39 velocity=0 time=0
note_on channel=1 note=50 velocity=80 time=32
note_on channel=1 note=38 velocity=80 time=0
note_on channel=1 note=38 velocity=0 time=64
note_on channel=1 note=50 velocity=0 time=0
note_on channel=1 note=53 velocity=80 time=32
note_on channel=1 note=58 velocity=80 time=0
note_on channel=1 note=62 velocity=80 time=0
note_on channel=1 note=62 velocity=0 time=64
note_on channel=1 note=58 velocity=0 time=0
note_on channel=1 note=53 velocity=0 time=0
note_on channel=1 note=53 velocity=80 time=32
note_on channel=1 note=41 velocity=80 time=0
note_on channel=1 note=41 velocity=0 time=64
note_on channel=1 note=53 velocity=0 time=0
note_on channel=1 note=53 velocity=80 time=32
note_on channel=1 note=57 velocity=80 time=0
note_on channel=1 note=63 velocity=80 time=0
note_on channel=1 note=63 velocity=0 time=64
note_on channel=1 note=57 velocity=0 time=0
note_on channel=1 note=53 velocity=0 time=0
note_on channel=1 note=58 velocity=80 time=32
note_on channel=1 note=46 velocity=80 time=0
note_on channel=1 note=46 velocity=0 time=64
note_on channel=1 note=58 velocity=0 time=0
note_on channel=1 note=56 velocity=80 time=32
note_on channel=1 note=44 velocity=80 time=0
note_on channel=1 note=44 velocity=0 time=64
note_on channel=1 note=56 velocity=0 time=0
note_on channel=1 note=55 velocity=80 time=32
note_on channel=1 note=43 velocity=80 time=0
note_on channel=1 note=43 velocity=0 time=64
note_on channel=1 note=55 velocity=0 time=0
note_on channel=1 note=39 velocity=80 time=32
note_on channel=1 note=51 velocity=80 time=0
note_on channel=1 note=51 velocity=0 time=64
note_on channel=1 note=39 velocity=0 time=0
note_on channel=1 note=50 velocity=80 time=32
note_on channel=1 note=38 velocity=80 time=0
note_on channel=1 note=38 velocity=0 time=64
note_on channel=1 note=50 velocity=0 time=0
note_on channel=1 note=53 velocity=80 time=32
note_on channel=1 note=58 velocity=80 time=0
note_on channel=1 note=62 velocity=80 time=0
note_on channel=1 note=62 velocity=0 time=64
note_on channel=1 note=58 velocity=0 time=0
note_on channel=1 note=53 velocity=0 time=0
note_on channel=1 note=53 velocity=80 time=32
note_on channel=1 note=41 velocity=80 time=0
note_on channel=1 note=41 velocity=0 time=64
note_on channel=1 note=53 velocity=0 time=0
note_on channel=1 note=53 velocity=80 time=32
note_on channel=1 note=57 velocity=80 time=0
note_on channel=1 note=63 velocity=80 time=0
note_on channel=1 note=63 velocity=0 time=64
note_on channel=1 note=57 velocity=0 time=0
note_on channel=1 note=53 velocity=0 time=0
note_on channel=1 note=58 velocity=80 time=32
note_on channel=1 note=46 velocity=80 time=0
note_on channel=1 note=46 velocity=0 time=64
note_on channel=1 note=58 velocity=0 time=0
note_on channel=1 note=53 velocity=80 time=32
note_on channel=1 note=41 velocity=80 time=0
note_on channel=1 note=41 velocity=0 time=64
note_on channel=1 note=53 velocity=0 time=0
note_on channel=1 note=55 velocity=80 time=32
note_on channel=1 note=43 velocity=80 time=0
note_on channel=1 note=43 velocity=0 time=64
note_on channel=1 note=55 velocity=0 time=0
note_on channel=1 note=39 velocity=80 time=32
note_on channel=1 note=51 velocity=80 time=0
note_on channel=1 note=51 velocity=0 time=64
note_on channel=1 note=39 velocity=0 time=0
note_on channel=1 note=50 velocity=80 time=32
note_on channel=1 note=38 velocity=80 time=0
note_on channel=1 note=38 velocity=0 time=64
note_on channel=1 note=50 velocity=0 time=0
note_on channel=1 note=53 velocity=80 time=32
note_on channel=1 note=58 velocity=80 time=0
note_on channel=1 note=62 velocity=80 time=0
note_on channel=1 note=62 velocity=0 time=64
note_on channel=1 note=58 velocity=0 time=0
note_on channel=1 note=53 velocity=0 time=0
note_on channel=1 note=53 velocity=80 time=32
note_on channel=1 note=41 velocity=80 time=0
note_on channel=1 note=41 velocity=0 time=64
note_on channel=1 note=53 velocity=0 time=0
note_on channel=1 note=53 velocity=80 time=32
note_on channel=1 note=57 velocity=80 time=0
note_on channel=1 note=63 velocity=80 time=0
note_on channel=1 note=63 velocity=0 time=64
note_on channel=1 note=57 velocity=0 time=0
note_on channel=1 note=53 velocity=0 time=0
note_on channel=1 note=58 velocity=80 time=32
note_on channel=1 note=46 velocity=80 time=0
note_on channel=1 note=46 velocity=0 time=64
note_on channel=1 note=58 velocity=0 time=0
note_on channel=1 note=56 velocity=80 time=32
note_on channel=1 note=44 velocity=80 time=0
note_on channel=1 note=44 velocity=0 time=64
note_on channel=1 note=56 velocity=0 time=0
note_on channel=1 note=55 velocity=80 time=32
note_on channel=1 note=43 velocity=80 time=0
note_on channel=1 note=43 velocity=0 time=64
note_on channel=1 note=55 velocity=0 time=0
note_on channel=1 note=39 velocity=80 time=32
note_on channel=1 note=51 velocity=80 time=0
note_on channel=1 note=51 velocity=0 time=64
note_on channel=1 note=39 velocity=0 time=0
note_on channel=1 note=50 velocity=80 time=32
note_on channel=1 note=38 velocity=80 time=0
note_on channel=1 note=38 velocity=0 time=64
note_on channel=1 note=50 velocity=0 time=0
note_on channel=1 note=53 velocity=80 time=32
note_on channel=1 note=58 velocity=80 time=0
note_on channel=1 note=62 velocity=80 time=0
note_on channel=1 note=62 velocity=0 time=64
note_on channel=1 note=58 velocity=0 time=0
note_on channel=1 note=53 velocity=0 time=0
note_on channel=1 note=53 velocity=80 time=32
note_on channel=1 note=41 velocity=80 time=0
note_on channel=1 note=41 velocity=0 time=64
note_on channel=1 note=53 velocity=0 time=0
note_on channel=1 note=53 velocity=80 time=32
note_on channel=1 note=57 velocity=80 time=0
note_on channel=1 note=63 velocity=80 time=0
note_on channel=1 note=63 velocity=0 time=64
note_on channel=1 note=57 velocity=0 time=0
note_on channel=1 note=53 velocity=0 time=0
note_on channel=1 note=58 velocity=80 time=32
note_on channel=1 note=46 velocity=80 time=0
note_on channel=1 note=46 velocity=0 time=64
note_on channel=1 note=58 velocity=0 time=0
note_on channel=1 note=53 velocity=80 time=32
note_on channel=1 note=57 velocity=80 time=0
note_on channel=1 note=57 velocity=0 time=64
note_on channel=1 note=53 velocity=0 time=0
note_on channel=1 note=46 velocity=80 time=32
note_on channel=1 note=65 velocity=80 time=0
note_on channel=1 note=53 velocity=80 time=96
note_on channel=1 note=58 velocity=80 time=0
note_on channel=1 note=65 velocity=0 time=32
note_on channel=1 note=46 velocity=0 time=0
note_on channel=1 note=53 velocity=0 time=32
note_on channel=1 note=58 velocity=0 time=0
note_on channel=1 note=48 velocity=80 time=32
note_on channel=1 note=67 velocity=80 time=0
note_on channel=1 note=53 velocity=80 time=96
note_on channel=1 note=57 velocity=80 time=0
note_on channel=1 note=67 velocity=0 time=32
note_on channel=1 note=48 velocity=0 time=0
note_on channel=1 note=53 velocity=0 time=32
note_on channel=1 note=57 velocity=0 time=0
note_on channel=1 note=65 velocity=80 time=32
note_on channel=1 note=46 velocity=80 time=0
note_on channel=1 note=46 velocity=0 time=64
note_on channel=1 note=58 velocity=80 time=32
note_on channel=1 note=53 velocity=80 time=0
note_on channel=1 note=65 velocity=0 time=32
note_on channel=1 note=53 velocity=0 time=32
note_on channel=1 note=58 velocity=0 time=0
note_on channel=1 note=46 velocity=80 time=32
note_on channel=1 note=46 velocity=0 time=64
note_on channel=1 note=58 velocity=80 time=32
note_on channel=1 note=53 velocity=80 time=0
note_on channel=1 note=53 velocity=0 time=64
note_on channel=1 note=58 velocity=0 time=0
note_on channel=1 note=45 velocity=80 time=32
note_on channel=1 note=45 velocity=0 time=64
note_on channel=1 note=57 velocity=80 time=32
note_on channel=1 note=53 velocity=80 time=0
note_on channel=1 note=53 velocity=0 time=64
note_on channel=1 note=57 velocity=0 time=0
note_on channel=1 note=41 velocity=80 time=32
note_on channel=1 note=41 velocity=0 time=64
note_on channel=1 note=57 velocity=80 time=32
note_on channel=1 note=53 velocity=80 time=0
note_on channel=1 note=53 velocity=0 time=64
note_on channel=1 note=57 velocity=0 time=0
note_on channel=1 note=46 velocity=80 time=32
note_on channel=1 note=46 velocity=0 time=64
note_on channel=1 note=58 velocity=80 time=32
note_on channel=1 note=53 velocity=80 time=0
note_on channel=1 note=53 velocity=0 time=64
note_on channel=1 note=58 velocity=0 time=0
note_on channel=1 note=41 velocity=80 time=32
note_on channel=1 note=41 velocity=0 time=64
note_on channel=1 note=53 velocity=80 time=32
note_on channel=1 note=58 velocity=80 time=0
note_on channel=1 note=58 velocity=0 time=64
note_on channel=1 note=53 velocity=0 time=0
note_on channel=1 note=46 velocity=80 time=32
note_on channel=1 note=65 velocity=80 time=0
note_on channel=1 note=53 velocity=80 time=96
note_on channel=1 note=58 velocity=80 time=0
note_on channel=1 note=65 velocity=0 time=32
note_on channel=1 note=46 velocity=0 time=0
note_on channel=1 note=53 velocity=0 time=32
note_on channel=1 note=58 velocity=0 time=0
note_on channel=1 note=48 velocity=80 time=32
note_on channel=1 note=67 velocity=80 time=0
note_on channel=1 note=53 velocity=80 time=96
note_on channel=1 note=57 velocity=80 time=0
note_on channel=1 note=67 velocity=0 time=32
note_on channel=1 note=48 velocity=0 time=0
note_on channel=1 note=53 velocity=0 time=32
note_on channel=1 note=57 velocity=0 time=0
note_on channel=1 note=65 velocity=80 time=32
note_on channel=1 note=46 velocity=80 time=0
note_on channel=1 note=46 velocity=0 time=64
note_on channel=1 note=58 velocity=80 time=32
note_on channel=1 note=53 velocity=80 time=0
note_on channel=1 note=65 velocity=0 time=32
note_on channel=1 note=53 velocity=0 time=32
note_on channel=1 note=58 velocity=0 time=0
note_on channel=1 note=46 velocity=80 time=32
note_on channel=1 note=58 velocity=80 time=0
note_on channel=1 note=58 velocity=0 time=64
note_on channel=1 note=46 velocity=0 time=0
note_on channel=1 note=55 velocity=80 time=32
note_on channel=1 note=43 velocity=80 time=0
note_on channel=1 note=43 velocity=0 time=64
note_on channel=1 note=55 velocity=0 time=0
note_on channel=1 note=54 velocity=80 time=32
note_on channel=1 note=42 velocity=80 time=0
note_on channel=1 note=42 velocity=0 time=64
note_on channel=1 note=54 velocity=0 time=0
note_on channel=1 note=54 velocity=80 time=32
note_on channel=1 note=60 velocity=80 time=0
note_on channel=1 note=62 velocity=80 time=0
note_on channel=1 note=62 velocity=0 time=64
note_on channel=1 note=60 velocity=0 time=0
note_on channel=1 note=54 velocity=0 time=0
note_on channel=1 note=50 velocity=80 time=32
note_on channel=1 note=38 velocity=80 time=0
note_on channel=1 note=38 velocity=0 time=64
note_on channel=1 note=50 velocity=0 time=0
note_on channel=1 note=54 velocity=80 time=32
note_on channel=1 note=60 velocity=80 time=0
note_on channel=1 note=62 velocity=80 time=0
note_on channel=1 note=62 velocity=0 time=64
note_on channel=1 note=60 velocity=0 time=0
note_on channel=1 note=54 velocity=0 time=0
note_on channel=1 note=55 velocity=80 time=32
note_on channel=1 note=43 velocity=80 time=0
note_on channel=1 note=43 velocity=0 time=64
note_on channel=1 note=55 velocity=0 time=0
note_on channel=1 note=55 velocity=80 time=32
note_on channel=1 note=58 velocity=80 time=0
note_on channel=1 note=62 velocity=80 time=0
note_on channel=1 note=62 velocity=0 time=64
note_on channel=1 note=58 velocity=0 time=0
note_on channel=1 note=55 velocity=0 time=0
note_on channel=1 note=50 velocity=80 time=32
note_on channel=1 note=38 velocity=80 time=0
note_on channel=1 note=38 velocity=0 time=64
note_on channel=1 note=50 velocity=0 time=0
note_on channel=1 note=55 velocity=80 time=32
note_on channel=1 note=58 velocity=80 time=0
note_on channel=1 note=62 velocity=80 time=0
note_on channel=1 note=62 velocity=0 time=64
note_on channel=1 note=58 velocity=0 time=0
note_on channel=1 note=55 velocity=0 time=0
note_on channel=1 note=55 velocity=80 time=32
note_on channel=1 note=43 velocity=80 time=0
note_on channel=1 note=43 velocity=0 time=64
note_on channel=1 note=55 velocity=0 time=0
note_on channel=1 note=39 velocity=80 time=32
note_on channel=1 note=51 velocity=80 time=0
note_on channel=1 note=51 velocity=0 time=64
note_on channel=1 note=39 velocity=0 time=0
note_on channel=1 note=50 velocity=80 time=32
note_on channel=1 note=38 velocity=80 time=0
note_on channel=1 note=38 velocity=0 time=64
note_on channel=1 note=50 velocity=0 time=0
note_on channel=1 note=53 velocity=80 time=32
note_on channel=1 note=58 velocity=80 time=0
note_on channel=1 note=62 velocity=80 time=0
note_on channel=1 note=62 velocity=0 time=64
note_on channel=1 note=58 velocity=0 time=0
note_on channel=1 note=53 velocity=0 time=0
note_on channel=1 note=53 velocity=80 time=32
note_on channel=1 note=41 velocity=80 time=0
note_on channel=1 note=41 velocity=0 time=64
note_on channel=1 note=53 velocity=0 time=0
note_on channel=1 note=53 velocity=80 time=32
note_on channel=1 note=57 velocity=80 time=0
note_on channel=1 note=63 velocity=80 time=0
note_on channel=1 note=63 velocity=0 time=64
note_on channel=1 note=57 velocity=0 time=0
note_on channel=1 note=53 velocity=0 time=0
note_on channel=1 note=58 velocity=80 time=32
note_on channel=1 note=46 velocity=80 time=0
note_on channel=1 note=46 velocity=0 time=64
note_on channel=1 note=58 velocity=0 time=0
note_on channel=1 note=56 velocity=80 time=32
note_on channel=1 note=44 velocity=80 time=0
note_on channel=1 note=44 velocity=0 time=64
note_on channel=1 note=56 velocity=0 time=0
note_on channel=1 note=55 velocity=80 time=32
note_on channel=1 note=43 velocity=80 time=0
note_on channel=1 note=43 velocity=0 time=64
note_on channel=1 note=55 velocity=0 time=0
note_on channel=1 note=39 velocity=80 time=32
note_on channel=1 note=51 velocity=80 time=0
note_on channel=1 note=51 velocity=0 time=64
note_on channel=1 note=39 velocity=0 time=0
note_on channel=1 note=50 velocity=80 time=32
note_on channel=1 note=38 velocity=80 time=0
note_on channel=1 note=38 velocity=0 time=64
note_on channel=1 note=50 velocity=0 time=0
note_on channel=1 note=53 velocity=80 time=32
note_on channel=1 note=58 velocity=80 time=0
note_on channel=1 note=62 velocity=80 time=0
note_on channel=1 note=62 velocity=0 time=64
note_on channel=1 note=58 velocity=0 time=0
note_on channel=1 note=53 velocity=0 time=0
note_on channel=1 note=53 velocity=80 time=32
note_on channel=1 note=41 velocity=80 time=0
note_on channel=1 note=41 velocity=0 time=64
note_on channel=1 note=53 velocity=0 time=0
note_on channel=1 note=53 velocity=80 time=32
note_on channel=1 note=57 velocity=80 time=0
note_on channel=1 note=63 velocity=80 time=0
note_on channel=1 note=63 velocity=0 time=64
note_on channel=1 note=57 velocity=0 time=0
note_on channel=1 note=53 velocity=0 time=0
note_on channel=1 note=58 velocity=80 time=32
note_on channel=1 note=46 velocity=80 time=0
note_on channel=1 note=46 velocity=0 time=64
note_on channel=1 note=58 velocity=0 time=0
note_on channel=1 note=53 velocity=80 time=32
note_on channel=1 note=41 velocity=80 time=0
note_on channel=1 note=41 velocity=0 time=64
note_on channel=1 note=53 velocity=0 time=0
note_on channel=1 note=55 velocity=80 time=32
note_on channel=1 note=43 velocity=80 time=0
note_on channel=1 note=43 velocity=0 time=64
note_on channel=1 note=55 velocity=0 time=0
note_on channel=1 note=39 velocity=80 time=32
note_on channel=1 note=51 velocity=80 time=0
note_on channel=1 note=51 velocity=0 time=64
note_on channel=1 note=39 velocity=0 time=0
note_on channel=1 note=50 velocity=80 time=32
note_on channel=1 note=38 velocity=80 time=0
note_on channel=1 note=38 velocity=0 time=64
note_on channel=1 note=50 velocity=0 time=0
note_on channel=1 note=53 velocity=80 time=32
note_on channel=1 note=58 velocity=80 time=0
note_on channel=1 note=62 velocity=80 time=0
note_on channel=1 note=62 velocity=0 time=64
note_on channel=1 note=58 velocity=0 time=0
note_on channel=1 note=53 velocity=0 time=0
note_on channel=1 note=53 velocity=80 time=32
note_on channel=1 note=41 velocity=80 time=0
note_on channel=1 note=41 velocity=0 time=64
note_on channel=1 note=53 velocity=0 time=0
note_on channel=1 note=53 velocity=80 time=32
note_on channel=1 note=57 velocity=80 time=0
note_on channel=1 note=63 velocity=80 time=0
note_on channel=1 note=63 velocity=0 time=64
note_on channel=1 note=57 velocity=0 time=0
note_on channel=1 note=53 velocity=0 time=0
note_on channel=1 note=58 velocity=80 time=32
note_on channel=1 note=46 velocity=80 time=0
note_on channel=1 note=46 velocity=0 time=64
note_on channel=1 note=58 velocity=0 time=0
note_on channel=1 note=56 velocity=80 time=32
note_on channel=1 note=44 velocity=80 time=0
note_on channel=1 note=44 velocity=0 time=64
note_on channel=1 note=56 velocity=0 time=0
note_on channel=1 note=55 velocity=80 time=32
note_on channel=1 note=43 velocity=80 time=0
note_on channel=1 note=43 velocity=0 time=64
note_on channel=1 note=55 velocity=0 time=0
note_on channel=1 note=39 velocity=80 time=32
note_on channel=1 note=51 velocity=80 time=0
note_on channel=1 note=51 velocity=0 time=64
note_on channel=1 note=39 velocity=0 time=0
note_on channel=1 note=50 velocity=80 time=32
note_on channel=1 note=38 velocity=80 time=0
note_on channel=1 note=38 velocity=0 time=64
note_on channel=1 note=50 velocity=0 time=0
note_on channel=1 note=53 velocity=80 time=32
note_on channel=1 note=58 velocity=80 time=0
note_on channel=1 note=62 velocity=80 time=0
note_on channel=1 note=62 velocity=0 time=64
note_on channel=1 note=58 velocity=0 time=0
note_on channel=1 note=53 velocity=0 time=0
note_on channel=1 note=53 velocity=80 time=32
note_on channel=1 note=41 velocity=80 time=0
note_on channel=1 note=41 velocity=0 time=64
note_on channel=1 note=53 velocity=0 time=0
note_on channel=1 note=53 velocity=80 time=32
note_on channel=1 note=57 velocity=80 time=0
note_on channel=1 note=63 velocity=80 time=0
note_on channel=1 note=63 velocity=0 time=64
note_on channel=1 note=57 velocity=0 time=0
note_on channel=1 note=53 velocity=0 time=0
note_on channel=1 note=58 velocity=80 time=32
note_on channel=1 note=46 velocity=80 time=0
note_on channel=1 note=46 velocity=0 time=64
note_on channel=1 note=58 velocity=0 time=0
note_on channel=1 note=58 velocity=80 time=1568
note_on channel=1 note=58 velocity=0 time=32
note_on channel=1 note=60 velocity=80 time=16
note_on channel=1 note=60 velocity=0 time=32
note_on channel=1 note=62 velocity=80 time=16
note_on channel=1 note=62 velocity=0 time=64
note_on channel=1 note=63 velocity=80 time=32
note_on channel=1 note=63 velocity=0 time=128
note_on channel=1 note=63 velocity=80 time=64
note_on channel=1 note=63 velocity=0 time=64
note_on channel=1 note=63 velocity=80 time=32
note_on channel=1 note=63 velocity=0 time=32
note_on channel=1 note=62 velocity=80 time=16
note_on channel=1 note=62 velocity=0 time=96
note_on channel=1 note=53 velocity=80 time=48
note_on channel=1 note=53 velocity=0 time=64
note_on channel=1 note=53 velocity=80 time=32
note_on channel=1 note=41 velocity=80 time=0
note_on channel=1 note=41 velocity=0 time=64
note_on channel=1 note=53 velocity=0 time=0
note_on channel=1 note=53 velocity=80 time=32
note_on channel=1 note=58 velocity=80 time=0
note_on channel=1 note=46 velocity=80 time=0
note_on channel=1 note=53 velocity=0 time=64
note_on channel=1 note=68 velocity=80 time=32
note_on channel=1 note=68 velocity=0 time=64
note_on channel=1 note=67 velocity=80 time=32
note_on channel=1 note=67 velocity=0 time=64
note_on channel=1 note=66 velocity=80 time=32
note_on channel=1 note=66 velocity=0 time=64
note_on channel=1 note=65 velocity=80 time=32
note_on channel=1 note=65 velocity=0 time=64
note_on channel=1 note=46 velocity=0 time=0
note_on channel=1 note=58 velocity=0 time=0
note_on channel=1 note=46 velocity=80 time=128
note_on channel=1 note=34 velocity=80 time=0
note_on channel=1 note=34 velocity=0 time=64
note_on channel=1 note=46 velocity=0 time=0
<meta message end_of_track time=0>
<meta message track_name name='W.S.Trachtman - MIDI file' time=0>
control_change channel=2 control=0 value=0 time=0
control_change channel=2 control=32 value=0 time=0
program_change channel=2 program=0 time=0
note_on channel=2 note=47 velocity=1 time=73152
note_on channel=2 note=47 velocity=0 time=64
<meta message end_of_track time=0>
<meta message track_name name='untitled' time=0>
<meta message smpte_offset frame_rate=25 hours=32 minutes=0 seconds=3 frames=0 sub_frames=0 time=0>
<meta message midi_port port=0 time=0>
sysex data=(67,16,76,0,0,126,0) time=0
<meta message midi_port port=0 time=0>
<meta message time_signature numerator=2 denominator=4 clocks_per_click=24 notated_32nd_notes_per_beat=8 time=0>
<meta message key_signature key='Ab' time=0>
<meta message set_tempo tempo=612245 time=0>
<meta message marker text='W.S.Trachtman - MIDI file' time=0>
<meta message marker text='A1' time=192>
<meta message marker text='A2' time=3072>
<meta message set_tempo tempo=606061 time=3072>
<meta message marker text='B1' time=0>
<meta message marker text='B2' time=3072>
<meta message set_tempo tempo=612245 time=3024>
<meta message marker text='A3' time=48>
<meta message key_signature key='Db' time=3072>
<meta message set_tempo tempo=606061 time=0>
<meta message marker text='C1' time=0>
<meta message marker text='C2' time=3072>
<meta message key_signature key='Ab' time=3072>
<meta message set_tempo tempo=606061 time=0>
<meta message marker text='D1' time=0>
<meta message marker text='D2' time=3072>
<meta message end_of_track time=0>
<meta message midi_port port=0 time=0>
<meta message track_name name='Maple Leaf Rag' time=0>
program_change channel=0 program=0 time=0
control_change channel=0 control=7 value=127 time=0
control_change channel=0 control=10 value=84 time=0
control_change channel=0 control=121 value=0 time=11
control_change channel=0 control=1 value=0 time=19
control_change channel=0 control=64 value=0 time=5
aftertouch channel=0 value=0 time=13
pitchwheel channel=0 pitch=0 time=6
control_change channel=0 control=7 value=127 time=25
control_change channel=0 control=74 value=72 time=0
control_change channel=0 control=71 value=70 time=1
control_change channel=0 control=93 value=12 time=1
control_change channel=0 control=91 value=50 time=0
control_change channel=0 control=10 value=69 time=136
note_on channel=0 note=68 velocity=92 time=1
<meta message lyrics text='Maple ' time=0>
note_on channel=0 note=75 velocity=88 time=21
<meta message lyrics text='Leaf ' time=0>
note_on channel=0 note=63 velocity=88 time=2
note_on channel=0 note=68 velocity=0 time=15
note_on channel=0 note=68 velocity=94 time=10
<meta message lyrics text='Rag ' time=0>
note_on channel=0 note=75 velocity=0 time=13
note_on channel=0 note=63 velocity=0 time=2
control_change channel=0 control=10 value=74 time=7
note_on channel=0 note=72 velocity=75 time=1
<meta message lyrics text='; ' time=0>
note_on channel=0 note=68 velocity=0 time=13
control_change channel=0 control=10 value=70 time=9
note_on channel=0 note=75 velocity=87 time=1
<meta message lyrics text='by ' time=0>
note_on channel=0 note=63 velocity=87 time=1
note_on channel=0 note=72 velocity=0 time=23
note_on channel=0 note=67 velocity=72 time=24
<meta message lyrics text='Scott ' time=0>
note_on channel=0 note=75 velocity=0 time=7
note_on channel=0 note=63 velocity=0 time=1
note_on channel=0 note=67 velocity=0 time=15
note_on channel=0 note=63 velocity=96 time=0
<meta message lyrics text='Joplin ' time=0>
note_on channel=0 note=75 velocity=97 time=1
note_on channel=0 note=67 velocity=91 time=24
<meta message lyrics text='(1899) ' time=0>
note_on channel=0 note=63 velocity=0 time=15
note_on channel=0 note=75 velocity=0 time=1
note_on channel=0 note=67 velocity=0 time=7
note_on channel=0 note=70 velocity=81 time=0
<meta message lyrics text='; ' time=0>
note_on channel=0 note=70 velocity=0 time=23
note_on channel=0 note=75 velocity=93 time=3
<meta message lyrics text='sequenced ' time=0>
note_on channel=0 note=63 velocity=93 time=1
note_on channel=0 note=75 velocity=0 time=94
note_on channel=0 note=63 velocity=0 time=1
note_on channel=0 note=68 velocity=90 time=47
<meta message lyrics text='by ' time=0>
note_on channel=0 note=63 velocity=87 time=23
note_on channel=0 note=75 velocity=87 time=0
<meta message lyrics text='W.S.Trachtman ' time=0>
note_on channel=0 note=68 velocity=0 time=15
note_on channel=0 note=68 velocity=83 time=11
<meta message lyrics text='; ' time=0>
note_on channel=0 note=75 velocity=0 time=14
note_on channel=0 note=63 velocity=0 time=0
control_change channel=0 control=10 value=74 time=8
note_on channel=0 note=72 velocity=76 time=1
<meta message lyrics text='revised ' time=0>
note_on channel=0 note=68 velocity=0 time=13
control_change channel=0 control=10 value=70 time=11
note_on channel=0 note=75 velocity=85 time=1
note_on channel=0 note=63 velocity=85 time=0
<meta message lyrics text='11/95 ' time=0>
note_on channel=0 note=72 velocity=0 time=22
note_on channel=0 note=67 velocity=80 time=26
note_on channel=0 note=63 velocity=0 time=2
note_on channel=0 note=75 velocity=0 time=0
note_on channel=0 note=63 velocity=87 time=20
note_on channel=0 note=67 velocity=0 time=1
note_on channel=0 note=75 velocity=92 time=0
note_on channel=0 note=67 velocity=97 time=25
note_on channel=0 note=63 velocity=0 time=14
note_on channel=0 note=75 velocity=0 time=1
note_on channel=0 note=67 velocity=0 time=8
note_on channel=0 note=70 velocity=82 time=0
note_on channel=0 note=70 velocity=0 time=23
note_on channel=0 note=63 velocity=95 time=1
note_on channel=0 note=75 velocity=95 time=1
note_on channel=0 note=63 velocity=0 time=89
note_on channel=0 note=75 velocity=0 time=1
note_on channel=0 note=75 velocity=79 time=7
note_on channel=0 note=63 velocity=79 time=0
note_on channel=0 note=63 velocity=0 time=20
note_on channel=0 note=75 velocity=0 time=0
note_on channel=0 note=68 velocity=77 time=27
note_on channel=0 note=71 velocity=73 time=22
note_on channel=0 note=68 velocity=0 time=1
note_on channel=0 note=71 velocity=0 time=22
note_on channel=0 note=64 velocity=87 time=4
note_on channel=0 note=76 velocity=87 time=0
note_on channel=0 note=76 velocity=0 time=20
note_on channel=0 note=64 velocity=0 time=0
note_on channel=0 note=63 velocity=79 time=28
note_on channel=0 note=75 velocity=79 time=0
note_on channel=0 note=75 velocity=0 time=20
note_on channel=0 note=63 velocity=0 time=0
note_on channel=0 note=63 velocity=80 time=26
note_on channel=0 note=75 velocity=80 time=1
note_on channel=0 note=63 velocity=0 time=19
note_on channel=0 note=75 velocity=0 time=1
note_on channel=0 note=68 velocity=75 time=28
note_on channel=0 note=71 velocity=70 time=22
note_on channel=0 note=68 velocity=0 time=1
note_on channel=0 note=71 velocity=0 time=22
note_on channel=0 note=64 velocity=87 time=2
note_on channel=0 note=76 velocity=87 time=2
note_on channel=0 note=64 velocity=0 time=18
note_on channel=0 note=76 velocity=0 time=2
note_on channel=0 note=63 velocity=80 time=28
note_on channel=0 note=75 velocity=80 time=0
note_on channel=0 note=75 velocity=0 time=20
note_on channel=0 note=63 velocity=0 time=0
note_on channel=0 note=68 velocity=61 time=268
note_on channel=0 note=71 velocity=70 time=23
note_on channel=0 note=68 velocity=0 time=6
control_change channel=0 control=10 value=85 time=17
note_on channel=0 note=80 velocity=87 time=1
note_on channel=0 note=71 velocity=0 time=5
note_on channel=0 note=80 velocity=0 time=16
note_on channel=0 note=80 velocity=63 time=27
control_change channel=0 control=10 value=89 time=21
note_on channel=0 note=83 velocity=72 time=1
note_on channel=0 note=80 velocity=0 time=7
control_change channel=0 control=10 value=100 time=17
note_on channel=0 note=92 velocity=103 time=1
note_on channel=0 note=83 velocity=0 time=4
note_on channel=0 note=92 velocity=0 time=16
control_change channel=0 control=10 value=91 time=2
note_on channel=0 note=92 velocity=88 time=1
note_on channel=0 note=80 velocity=93 time=2
note_on channel=0 note=92 velocity=0 time=36
note_on channel=0 note=80 velocity=0 time=2
note_on channel=0 note=92 velocity=101 time=8
note_on channel=0 note=80 velocity=101 time=1
note_on channel=0 note=92 velocity=0 time=28
note_on channel=0 note=80 velocity=0 time=1
note_on channel=0 note=92 velocity=97 time=18
note_on channel=0 note=80 velocity=97 time=2
note_on channel=0 note=92 velocity=0 time=36
note_on channel=0 note=80 velocity=0 time=2
note_on channel=0 note=80 velocity=95 time=8
note_on channel=0 note=92 velocity=95 time=2
note_on channel=0 note=80 velocity=0 time=14
note_on channel=0 note=92 velocity=0 time=2
note_on channel=0 note=92 velocity=111 time=7
note_on channel=0 note=80 velocity=111 time=0
note_on channel=0 note=80 velocity=0 time=44
note_on channel=0 note=92 velocity=0 time=0
note_on channel=0 note=87 velocity=78 time=5
note_on channel=0 note=87 velocity=0 time=20
control_change channel=0 control=10 value=96 time=3
note_on channel=0 note=89 velocity=101 time=1
note_on channel=0 note=89 velocity=0 time=23
control_change channel=0 control=10 value=90 time=1
note_on channel=0 note=84 velocity=98 time=1
note_on channel=0 note=84 velocity=0 time=18
control_change channel=0 control=10 value=94 time=4
note_on channel=0 note=87 velocity=82 time=1
note_on channel=0 note=87 velocity=0 time=20
control_change channel=0 control=10 value=90 time=2
note_on channel=0 note=80 velocity=98 time=1
note_on channel=0 note=89 velocity=98 time=1
note_on channel=0 note=80 velocity=0 time=39
note_on channel=0 note=89 velocity=0 time=1
control_change channel=0 control=10 value=82 time=7
note_on channel=0 note=80 velocity=85 time=1
note_on channel=0 note=76 velocity=85 time=1
note_on channel=0 note=80 velocity=0 time=40
note_on channel=0 note=76 velocity=0 time=1
control_change channel=0 control=10 value=87 time=6
note_on channel=0 note=82 velocity=91 time=1
note_on channel=0 note=82 velocity=0 time=18
control_change channel=0 control=10 value=83 time=4
note_on channel=0 note=76 velocity=84 time=1
note_on channel=0 note=83 velocity=84 time=0
note_on channel=0 note=83 velocity=0 time=20
note_on channel=0 note=76 velocity=0 time=0
note_on channel=0 note=80 velocity=74 time=3
note_on channel=0 note=80 velocity=0 time=18
control_change channel=0 control=10 value=87 time=5
note_on channel=0 note=82 velocity=80 time=1
note_on channel=0 note=82 velocity=0 time=21
control_change channel=0 control=10 value=83 time=3
note_on channel=0 note=75 velocity=90 time=1
note_on channel=0 note=84 velocity=90 time=1
note_on channel=0 note=75 velocity=0 time=36
note_on channel=0 note=84 velocity=0 time=1
note_on channel=0 note=80 velocity=79 time=10
note_on channel=0 note=80 velocity=0 time=20
note_on channel=0 note=84 velocity=88 time=3
note_on channel=0 note=75 velocity=88 time=0
note_on channel=0 note=75 velocity=0 time=20
note_on channel=0 note=84 velocity=0 time=0
note_on channel=0 note=80 velocity=80 time=4
note_on channel=0 note=80 velocity=0 time=20
note_on channel=0 note=75 velocity=84 time=3
note_on channel=0 note=82 velocity=84 time=1
note_on channel=0 note=75 velocity=0 time=37
note_on channel=0 note=82 velocity=0 time=1
note_on channel=0 note=80 velocity=83 time=10
note_on channel=0 note=75 velocity=83 time=1
note_on channel=0 note=80 velocity=0 time=45
note_on channel=0 note=75 velocity=0 time=1
control_change channel=0 control=10 value=77 time=26
note_on channel=0 note=68 velocity=88 time=1
note_on channel=0 note=80 velocity=88 time=0
note_on channel=0 note=80 velocity=0 time=58
note_on channel=0 note=68 velocity=0 time=0
note_on channel=0 note=80 velocity=94 time=11
note_on channel=0 note=68 velocity=94 time=1
note_on channel=0 note=80 velocity=0 time=31
note_on channel=0 note=68 velocity=0 time=1
note_on channel=0 note=80 velocity=91 time=16
note_on channel=0 note=68 velocity=91 time=0
note_on channel=0 note=68 velocity=0 time=38
note_on channel=0 note=80 velocity=0 time=0
note_on channel=0 note=68 velocity=90 time=9
note_on channel=0 note=80 velocity=90 time=2
note_on channel=0 note=68 velocity=0 time=14
note_on channel=0 note=80 velocity=0 time=2
note_on channel=0 note=80 velocity=104 time=7
note_on channel=0 note=68 velocity=104 time=1
note_on channel=0 note=80 velocity=0 time=44
note_on channel=0 note=68 velocity=0 time=1
note_on channel=0 note=75 velocity=94 time=4
note_on channel=0 note=75 velocity=0 time=19
control_change channel=0 control=10 value=81 time=1
note_on channel=0 note=77 velocity=94 time=1
note_on channel=0 note=77 velocity=0 time=23
control_change channel=0 control=10 value=74 time=3
note_on channel=0 note=72 velocity=82 time=1
note_on channel=0 note=72 velocity=0 time=18
control_change channel=0 control=10 value=78 time=4
note_on channel=0 note=75 velocity=78 time=1
note_on channel=0 note=75 velocity=0 time=22
control_change channel=0 control=10 value=74 time=0
note_on channel=0 note=77 velocity=92 time=1
note_on channel=0 note=68 velocity=92 time=1
note_on channel=0 note=77 velocity=0 time=43
note_on channel=0 note=68 velocity=0 time=1
control_change channel=0 control=10 value=66 time=2
note_on channel=0 note=64 velocity=89 time=1
note_on channel=0 note=68 velocity=89 time=2
note_on channel=0 note=64 velocity=0 time=35
note_on channel=0 note=68 velocity=0 time=2
control_change channel=0 control=10 value=72 time=10
note_on channel=0 note=70 velocity=93 time=1
note_on channel=0 note=70 velocity=0 time=18
control_change channel=0 control=10 value=68 time=2
note_on channel=0 note=71 velocity=88 time=1
note_on channel=0 note=64 velocity=88 time=2
note_on channel=0 note=71 velocity=0 time=20
note_on channel=0 note=64 velocity=0 time=2
note_on channel=0 note=68 velocity=78 time=3
note_on channel=0 note=68 velocity=0 time=18
control_change channel=0 control=10 value=72 time=3
note_on channel=0 note=70 velocity=84 time=1
note_on channel=0 note=70 velocity=0 time=23
control_change channel=0 control=10 value=68 time=0
note_on channel=0 note=72 velocity=94 time=1
note_on channel=0 note=63 velocity=94 time=0
note_on channel=0 note=63 velocity=0 time=32
note_on channel=0 note=72 velocity=0 time=0
note_on channel=0 note=68 velocity=82 time=18
note_on channel=0 note=68 velocity=0 time=18
note_on channel=0 note=72 velocity=102 time=3
note_on channel=0 note=63 velocity=92 time=1
note_on channel=0 note=72 velocity=0 time=21
note_on channel=0 note=63 velocity=0 time=1
note_on channel=0 note=68 velocity=83 time=3
note_on channel=0 note=68 velocity=0 time=18
note_on channel=0 note=70 velocity=97 time=5
note_on channel=0 note=63 velocity=88 time=1
note_on channel=0 note=70 velocity=0 time=37
note_on channel=0 note=63 velocity=0 time=1
note_on channel=0 note=63 velocity=87 time=8
note_on channel=0 note=68 velocity=92 time=1
note_on channel=0 note=63 velocity=0 time=50
note_on channel=0 note=68 velocity=0 time=1
note_on channel=0 note=68 velocity=93 time=71
note_on channel=0 note=75 velocity=103 time=23
note_on channel=0 note=63 velocity=94 time=0
note_on channel=0 note=68 velocity=0 time=15
note_on channel=0 note=68 velocity=95 time=9
note_on channel=0 note=63 velocity=0 time=16
note_on channel=0 note=75 velocity=0 time=0
control_change channel=0 control=10 value=74 time=5
note_on channel=0 note=72 velocity=80 time=1
note_on channel=0 note=68 velocity=0 time=14
control_change channel=0 control=10 value=70 time=11
note_on channel=0 note=63 velocity=97 time=1
note_on channel=0 note=75 velocity=106 time=1
note_on channel=0 note=72 velocity=0 time=20
note_on channel=0 note=67 velocity=90 time=26
note_on channel=0 note=63 velocity=0 time=3
note_on channel=0 note=75 velocity=0 time=1
note_on channel=0 note=67 velocity=0 time=17
note_on channel=0 note=63 velocity=100 time=3
note_on channel=0 note=75 velocity=106 time=0
note_on channel=0 note=67 velocity=95 time=25
note_on channel=0 note=75 velocity=0 time=15
note_on channel=0 note=63 velocity=0 time=0
note_on channel=0 note=67 velocity=0 time=4
note_on channel=0 note=70 velocity=84 time=3
note_on channel=0 note=70 velocity=0 time=24
note_on channel=0 note=63 velocity=105 time=3
note_on channel=0 note=75 velocity=105 time=0
note_on channel=0 note=75 velocity=0 time=95
note_on channel=0 note=63 velocity=0 time=0
note_on channel=0 note=68 velocity=75 time=48
note_on channel=0 note=75 velocity=103 time=23
note_on channel=0 note=63 velocity=94 time=0
note_on channel=0 note=68 velocity=0 time=15
note_on channel=0 note=68 velocity=92 time=10
note_on channel=0 note=63 velocity=0 time=15
note_on channel=0 note=75 velocity=0 time=0
control_change channel=0 control=10 value=74 time=8
note_on channel=0 note=72 velocity=83 time=1
note_on channel=0 note=68 velocity=0 time=12
control_change channel=0 control=10 value=70 time=10
note_on channel=0 note=63 velocity=92 time=1
note_on channel=0 note=75 velocity=100 time=1
note_on channel=0 note=72 velocity=0 time=23
note_on channel=0 note=67 velocity=83 time=24
note_on channel=0 note=63 velocity=0 time=2
note_on channel=0 note=75 velocity=0 time=1
note_on channel=0 note=67 velocity=0 time=16
note_on channel=0 note=75 velocity=101 time=4
note_on channel=0 note=63 velocity=92 time=2
note_on channel=0 note=67 velocity=96 time=25
note_on channel=0 note=75 velocity=0 time=13
note_on channel=0 note=63 velocity=0 time=2
note_on channel=0 note=67 velocity=0 time=4
note_on channel=0 note=70 velocity=86 time=3
note_on channel=0 note=70 velocity=0 time=23
note_on channel=0 note=63 velocity=105 time=1
note_on channel=0 note=75 velocity=105 time=2
note_on channel=0 note=63 velocity=0 time=88
note_on channel=0 note=75 velocity=0 time=2
note_on channel=0 note=63 velocity=87 time=5
note_on channel=0 note=75 velocity=87 time=1
note_on channel=0 note=63 velocity=0 time=19
note_on channel=0 note=75 velocity=0 time=1
note_on channel=0 note=68 velocity=77 time=27
note_on channel=0 note=68 velocity=0 time=23
note_on channel=0 note=71 velocity=73 time=1
note_on channel=0 note=71 velocity=0 time=19
note_on channel=0 note=76 velocity=91 time=4
note_on channel=0 note=64 velocity=87 time=2
note_on channel=0 note=76 velocity=0 time=22
note_on channel=0 note=64 velocity=0 time=2
note_on channel=0 note=75 velocity=79 time=22
note_on channel=0 note=63 velocity=79 time=1
note_on channel=0 note=75 velocity=0 time=19
note_on channel=0 note=63 velocity=0 time=1
note_on channel=0 note=63 velocity=80 time=27
note_on channel=0 note=75 velocity=80 time=1
note_on channel=0 note=63 velocity=0 time=19
note_on channel=0 note=75 velocity=0 time=1
note_on channel=0 note=68 velocity=75 time=28
note_on channel=0 note=68 velocity=0 time=19
note_on channel=0 note=71 velocity=70 time=4
note_on channel=0 note=71 velocity=0 time=23
note_on channel=0 note=64 velocity=87 time=1
note_on channel=0 note=76 velocity=87 time=1
note_on channel=0 note=64 velocity=0 time=19
note_on channel=0 note=76 velocity=0 time=1
note_on channel=0 note=63 velocity=89 time=27
note_on channel=0 note=75 velocity=89 time=2
note_on channel=0 note=63 velocity=0 time=18
note_on channel=0 note=75 velocity=0 time=2
note_on channel=0 note=68 velocity=64 time=266
note_on channel=0 note=68 velocity=0 time=25
note_on channel=0 note=71 velocity=70 time=0
control_change channel=0 control=10 value=85 time=22
note_on channel=0 note=80 velocity=87 time=1
note_on channel=0 note=71 velocity=0 time=6
note_on channel=0 note=80 velocity=0 time=15
note_on channel=0 note=80 velocity=65 time=29
control_change channel=0 control=10 value=89 time=19
note_on channel=0 note=83 velocity=72 time=1
note_on channel=0 note=80 velocity=0 time=3
control_change channel=0 control=10 value=100 time=22
note_on channel=0 note=92 velocity=106 time=1
note_on channel=0 note=83 velocity=0 time=3
note_on channel=0 note=92 velocity=0 time=18
control_change channel=0 control=10 value=92 time=1
note_on channel=0 note=80 velocity=103 time=1
note_on channel=0 note=92 velocity=103 time=2
note_on channel=0 note=80 velocity=0 time=36
note_on channel=0 note=92 velocity=0 time=2
note_on channel=0 note=92 velocity=103 time=10
note_on channel=0 note=80 velocity=103 time=0
note_on channel=0 note=80 velocity=0 time=32
note_on channel=0 note=92 velocity=0 time=0
note_on channel=0 note=80 velocity=100 time=15
note_on channel=0 note=92 velocity=100 time=1
note_on channel=0 note=80 velocity=0 time=37
note_on channel=0 note=92 velocity=0 time=1
note_on channel=0 note=80 velocity=98 time=8
note_on channel=0 note=92 velocity=98 time=0
note_on channel=0 note=92 velocity=0 time=16
note_on channel=0 note=80 velocity=0 time=0
note_on channel=0 note=80 velocity=115 time=9
note_on channel=0 note=92 velocity=115 time=0
note_on channel=0 note=92 velocity=0 time=44
note_on channel=0 note=80 velocity=0 time=0
note_on channel=0 note=87 velocity=88 time=6
note_on channel=0 note=87 velocity=0 time=18
control_change channel=0 control=10 value=96 time=4
note_on channel=0 note=89 velocity=100 time=1
control_change channel=0 control=10 value=90 time=22
note_on channel=0 note=89 velocity=0 time=1
note_on channel=0 note=84 velocity=87 time=0
note_on channel=0 note=84 velocity=0 time=18
control_change channel=0 control=10 value=94 time=4
note_on channel=0 note=87 velocity=82 time=1
note_on channel=0 note=87 velocity=0 time=22
control_change channel=0 control=10 value=90 time=2
note_on channel=0 note=80 velocity=97 time=1
note_on channel=0 note=89 velocity=97 time=1
note_on channel=0 note=80 velocity=0 time=36
note_on channel=0 note=89 velocity=0 time=1
control_change channel=0 control=10 value=82 time=9
note_on channel=0 note=76 velocity=89 time=1
note_on channel=0 note=80 velocity=89 time=1
note_on channel=0 note=76 velocity=0 time=37
note_on channel=0 note=80 velocity=0 time=1
control_change channel=0 control=10 value=87 time=10
note_on channel=0 note=82 velocity=93 time=1
note_on channel=0 note=82 velocity=0 time=18
control_change channel=0 control=10 value=83 time=3
note_on channel=0 note=76 velocity=88 time=1
note_on channel=0 note=83 velocity=88 time=1
note_on channel=0 note=76 velocity=0 time=21
note_on channel=0 note=83 velocity=0 time=1
note_on channel=0 note=80 velocity=78 time=1
note_on channel=0 note=80 velocity=0 time=18
control_change channel=0 control=10 value=87 time=5
note_on channel=0 note=82 velocity=84 time=1
note_on channel=0 note=82 velocity=0 time=21
control_change channel=0 control=10 value=83 time=2
note_on channel=0 note=75 velocity=94 time=1
note_on channel=0 note=84 velocity=94 time=2
note_on channel=0 note=75 velocity=0 time=35
note_on channel=0 note=84 velocity=0 time=2
note_on channel=0 note=80 velocity=82 time=9
note_on channel=0 note=80 velocity=0 time=18
note_on channel=0 note=84 velocity=92 time=5
note_on channel=0 note=75 velocity=92 time=1
note_on channel=0 note=84 velocity=0 time=19
note_on channel=0 note=75 velocity=0 time=1
note_on channel=0 note=80 velocity=83 time=5
note_on channel=0 note=80 velocity=0 time=18
note_on channel=0 note=75 velocity=88 time=5
note_on channel=0 note=82 velocity=88 time=0
note_on channel=0 note=82 velocity=0 time=38
note_on channel=0 note=75 velocity=0 time=0
note_on channel=0 note=75 velocity=87 time=9
note_on channel=0 note=80 velocity=92 time=1
note_on channel=0 note=75 velocity=0 time=53
note_on channel=0 note=80 velocity=0 time=1
control_change channel=0 control=10 value=77 time=19
note_on channel=0 note=68 velocity=91 time=1
note_on channel=0 note=80 velocity=91 time=0
note_on channel=0 note=80 velocity=0 time=58
note_on channel=0 note=68 velocity=0 time=0
note_on channel=0 note=80 velocity=102 time=11
note_on channel=0 note=68 velocity=102 time=2
note_on channel=0 note=80 velocity=0 time=30
note_on channel=0 note=68 velocity=0 time=2
note_on channel=0 note=80 velocity=94 time=14
note_on channel=0 note=68 velocity=94 time=1
note_on channel=0 note=80 velocity=0 time=37
note_on channel=0 note=68 velocity=0 time=1
note_on channel=0 note=80 velocity=92 time=10
note_on channel=0 note=68 velocity=92 time=1
note_on channel=0 note=80 velocity=0 time=15
note_on channel=0 note=68 velocity=0 time=1
note_on channel=0 note=80 velocity=108 time=7
note_on channel=0 note=68 velocity=108 time=2
note_on channel=0 note=80 velocity=0 time=42
note_on channel=0 note=68 velocity=0 time=2
note_on channel=0 note=75 velocity=99 time=3
note_on channel=0 note=75 velocity=0 time=18
control_change channel=0 control=10 value=81 time=3
note_on channel=0 note=77 velocity=94 time=1
note_on channel=0 note=77 velocity=0 time=23
control_change channel=0 control=10 value=74 time=2
note_on channel=0 note=72 velocity=82 time=1
note_on channel=0 note=72 velocity=0 time=18
control_change channel=0 control=10 value=78 time=5
note_on channel=0 note=75 velocity=78 time=1
control_change channel=0 control=10 value=74 time=22
note_on channel=0 note=75 velocity=0 time=1
note_on channel=0 note=77 velocity=101 time=0
note_on channel=0 note=68 velocity=92 time=2
note_on channel=0 note=77 velocity=0 time=35
note_on channel=0 note=68 velocity=0 time=2
control_change channel=0 control=10 value=66 time=8
note_on channel=0 note=64 velocity=89 time=1
note_on channel=0 note=68 velocity=89 time=0
note_on channel=0 note=68 velocity=0 time=39
note_on channel=0 note=64 velocity=0 time=0
control_change channel=0 control=10 value=72 time=10
note_on channel=0 note=70 velocity=91 time=1
note_on channel=0 note=70 velocity=0 time=18
control_change channel=0 control=10 value=68 time=2
note_on channel=0 note=64 velocity=88 time=1
note_on channel=0 note=71 velocity=88 time=1
note_on channel=0 note=64 velocity=0 time=22
note_on channel=0 note=71 velocity=0 time=1
note_on channel=0 note=68 velocity=78 time=2
note_on channel=0 note=68 velocity=0 time=18
control_change channel=0 control=10 value=72 time=4
note_on channel=0 note=70 velocity=84 time=1
note_on channel=0 note=70 velocity=0 time=20
control_change channel=0 control=10 value=68 time=4
note_on channel=0 note=72 velocity=94 time=1
note_on channel=0 note=63 velocity=94 time=0
note_on channel=0 note=63 velocity=0 time=37
note_on channel=0 note=72 velocity=0 time=0
note_on channel=0 note=68 velocity=82 time=11
note_on channel=0 note=68 velocity=0 time=19
note_on channel=0 note=63 velocity=98 time=4
note_on channel=0 note=72 velocity=104 time=1
note_on channel=0 note=63 velocity=0 time=19
note_on channel=0 note=72 velocity=0 time=1
note_on channel=0 note=68 velocity=83 time=5
note_on channel=0 note=68 velocity=0 time=18
note_on channel=0 note=63 velocity=88 time=4
note_on channel=0 note=70 velocity=88 time=1
note_on channel=0 note=63 velocity=0 time=37
note_on channel=0 note=70 velocity=0 time=1
note_on channel=0 note=68 velocity=87 time=9
note_on channel=0 note=63 velocity=87 time=0
note_on channel=0 note=63 velocity=0 time=46
note_on channel=0 note=68 velocity=0 time=0
control_change channel=0 control=10 value=83 time=73
note_on channel=0 note=79 velocity=92 time=1
note_on channel=0 note=79 velocity=0 time=14
note_on channel=0 note=87 velocity=109 time=10
note_on channel=0 note=75 velocity=109 time=1
note_on channel=0 note=87 velocity=0 time=15
note_on channel=0 note=75 velocity=0 time=1
note_on channel=0 note=79 velocity=89 time=9
note_on channel=0 note=79 velocity=0 time=14
control_change channel=0 control=10 value=87 time=6
note_on channel=0 note=82 velocity=93 time=1
note_on channel=0 note=82 velocity=0 time=16
note_on channel=0 note=86 velocity=103 time=9
note_on channel=0 note=74 velocity=103 time=1
note_on channel=0 note=86 velocity=0 time=31
note_on channel=0 note=74 velocity=0 time=1
control_change channel=0 control=10 value=83 time=16
note_on channel=0 note=79 velocity=83 time=1
note_on channel=0 note=79 velocity=0 time=14
note_on channel=0 note=73 velocity=106 time=8
note_on channel=0 note=85 velocity=106 time=0
note_on channel=0 note=85 velocity=0 time=16
note_on channel=0 note=73 velocity=0 time=0
note_on channel=0 note=79 velocity=87 time=9
note_on channel=0 note=79 velocity=0 time=14
control_change channel=0 control=10 value=87 time=7
note_on channel=0 note=82 velocity=81 time=1
note_on channel=0 note=82 velocity=0 time=16
control_change channel=0 control=10 value=82 time=9
note_on channel=0 note=72 velocity=97 time=1
note_on channel=0 note=84 velocity=97 time=1
note_on channel=0 note=72 velocity=0 time=37
note_on channel=0 note=84 velocity=0 time=1
control_change channel=0 control=10 value=78 time=8
note_on channel=0 note=75 velocity=78 time=1
note_on channel=0 note=75 velocity=0 time=16
note_on channel=0 note=82 velocity=93 time=8
note_on channel=0 note=70 velocity=93 time=0
note_on channel=0 note=70 velocity=0 time=16
note_on channel=0 note=82 velocity=0 time=0
note_on channel=0 note=75 velocity=79 time=7
note_on channel=0 note=75 velocity=0 time=16
control_change channel=0 control=10 value=74 time=32
note_on channel=0 note=72 velocity=76 time=1
note_on channel=0 note=72 velocity=0 time=13
note_on channel=0 note=80 velocity=91 time=11
note_on channel=0 note=68 velocity=91 time=0
note_on channel=0 note=68 velocity=0 time=16
note_on channel=0 note=80 velocity=0 time=0
note_on channel=0 note=72 velocity=77 time=8
note_on channel=0 note=72 velocity=0 time=14
control_change channel=0 control=10 value=78 time=9
note_on channel=0 note=75 velocity=70 time=1
note_on channel=0 note=75 velocity=0 time=16
control_change channel=0 control=10 value=73 time=6
note_on channel=0 note=77 velocity=87 time=1
note_on channel=0 note=65 velocity=87 time=2
note_on channel=0 note=77 velocity=0 time=30
note_on channel=0 note=65 velocity=0 time=2
note_on channel=0 note=72 velocity=75 time=16
note_on channel=0 note=72 velocity=0 time=14
control_change channel=0 control=10 value=77 time=6
note_on channel=0 note=80 velocity=91 time=1
note_on channel=0 note=68 velocity=91 time=1
note_on channel=0 note=80 velocity=0 time=15
note_on channel=0 note=68 velocity=0 time=1
note_on channel=0 note=72 velocity=75 time=8
note_on channel=0 note=72 velocity=0 time=13
note_on channel=0 note=75 velocity=83 time=10
note_on channel=0 note=75 velocity=0 time=16
control_change channel=0 control=10 value=73 time=8
note_on channel=0 note=77 velocity=94 time=1
note_on channel=0 note=65 velocity=94 time=2
note_on channel=0 note=77 velocity=0 time=34
note_on channel=0 note=65 velocity=0 time=2
note_on channel=0 note=72 velocity=80 time=12
note_on channel=0 note=72 velocity=0 time=16
note_on channel=0 note=65 velocity=91 time=5
note_on channel=0 note=77 velocity=91 time=2
note_on channel=0 note=65 velocity=0 time=30
note_on channel=0 note=77 velocity=0 time=2
control_change channel=0 control=10 value=78 time=38
note_on channel=0 note=75 velocity=77 time=1
note_on channel=0 note=75 velocity=0 time=13
note_on channel=0 note=79 velocity=90 time=10
note_on channel=0 note=67 velocity=90 time=0
note_on channel=0 note=67 velocity=0 time=16
note_on channel=0 note=79 velocity=0 time=0
control_change channel=0 control=10 value=72 time=9
note_on channel=0 note=70 velocity=77 time=1
note_on channel=0 note=70 velocity=0 time=14
note_on channel=0 note=73 velocity=71 time=10
note_on channel=0 note=73 velocity=0 time=16
note_on channel=0 note=77 velocity=92 time=8
note_on channel=0 note=65 velocity=92 time=0
note_on channel=0 note=65 velocity=0 time=32
note_on channel=0 note=77 velocity=0 time=0
control_change channel=0 control=10 value=78 time=15
note_on channel=0 note=75 velocity=83 time=1
note_on channel=0 note=75 velocity=0 time=15
note_on channel=0 note=79 velocity=95 time=7
note_on channel=0 note=67 velocity=93 time=1
note_on channel=0 note=79 velocity=0 time=15
note_on channel=0 note=67 velocity=0 time=1
control_change channel=0 control=10 value=72 time=8
note_on channel=0 note=70 velocity=76 time=1
note_on channel=0 note=70 velocity=0 time=13
note_on channel=0 note=73 velocity=80 time=9
note_on channel=0 note=73 velocity=0 time=16
note_on channel=0 note=77 velocity=92 time=9
note_on channel=0 note=65 velocity=92 time=2
note_on channel=0 note=77 velocity=0 time=37
note_on channel=0 note=65 velocity=0 time=2
note_on channel=0 note=73 velocity=79 time=9
note_on channel=0 note=73 velocity=0 time=16
note_on channel=0 note=77 velocity=92 time=7
note_on channel=0 note=65 velocity=92 time=0
note_on channel=0 note=65 velocity=0 time=32
note_on channel=0 note=77 velocity=0 time=0
note_on channel=0 note=72 velocity=79 time=41
note_on channel=0 note=72 velocity=0 time=14
control_change channel=0 control=10 value=77 time=6
note_on channel=0 note=68 velocity=90 time=1
note_on channel=0 note=80 velocity=90 time=2
note_on channel=0 note=68 velocity=0 time=14
note_on channel=0 note=80 velocity=0 time=2
note_on channel=0 note=72 velocity=85 time=9
note_on channel=0 note=72 velocity=0 time=13
note_on channel=0 note=75 velocity=80 time=8
note_on channel=0 note=75 velocity=0 time=16
control_change channel=0 control=10 value=73 time=8
note_on channel=0 note=77 velocity=90 time=1
note_on channel=0 note=65 velocity=90 time=2
note_on channel=0 note=77 velocity=0 time=30
note_on channel=0 note=65 velocity=0 time=2
note_on channel=0 note=72 velocity=81 time=15
note_on channel=0 note=72 velocity=0 time=14
control_change channel=0 control=10 value=77 time=8
note_on channel=0 note=80 velocity=90 time=1
note_on channel=0 note=68 velocity=90 time=1
note_on channel=0 note=80 velocity=0 time=15
note_on channel=0 note=68 velocity=0 time=1
note_on channel=0 note=72 velocity=81 time=7
note_on channel=0 note=72 velocity=0 time=13
note_on channel=0 note=75 velocity=84 time=12
note_on channel=0 note=75 velocity=0 time=16
control_change channel=0 control=10 value=73 time=6
note_on channel=0 note=65 velocity=91 time=1
note_on channel=0 note=77 velocity=91 time=1
note_on channel=0 note=65 velocity=0 time=35
note_on channel=0 note=77 velocity=0 time=1
note_on channel=0 note=72 velocity=80 time=11
note_on channel=0 note=72 velocity=0 time=16
note_on channel=0 note=65 velocity=91 time=7
note_on channel=0 note=77 velocity=91 time=1
note_on channel=0 note=65 velocity=0 time=31
note_on channel=0 note=77 velocity=0 time=1
control_change channel=0 control=10 value=83 time=39
note_on channel=0 note=79 velocity=93 time=1
note_on channel=0 note=79 velocity=0 time=16
note_on channel=0 note=75 velocity=110 time=8
note_on channel=0 note=87 velocity=110 time=1
note_on channel=0 note=75 velocity=0 time=15
note_on channel=0 note=87 velocity=0 time=1
note_on channel=0 note=79 velocity=91 time=8
note_on channel=0 note=79 velocity=0 time=14
control_change channel=0 control=10 value=87 time=7
note_on channel=0 note=82 velocity=93 time=1
note_on channel=0 note=82 velocity=0 time=16
note_on channel=0 note=74 velocity=104 time=10
note_on channel=0 note=86 velocity=104 time=0
note_on channel=0 note=86 velocity=0 time=32
note_on channel=0 note=74 velocity=0 time=0
control_change channel=0 control=10 value=83 time=15
note_on channel=0 note=79 velocity=89 time=1
note_on channel=0 note=79 velocity=0 time=15
note_on channel=0 note=73 velocity=103 time=8
note_on channel=0 note=85 velocity=103 time=1
note_on channel=0 note=73 velocity=0 time=15
note_on channel=0 note=85 velocity=0 time=1
note_on channel=0 note=79 velocity=94 time=8
note_on channel=0 note=79 velocity=0 time=14
control_change channel=0 control=10 value=87 time=9
note_on channel=0 note=82 velocity=89 time=1
note_on channel=0 note=82 velocity=0 time=16
control_change channel=0 control=10 value=82 time=7
note_on channel=0 note=84 velocity=97 time=1
note_on channel=0 note=72 velocity=97 time=0
note_on channel=0 note=72 velocity=0 time=41
note_on channel=0 note=84 velocity=0 time=0
control_change channel=0 control=10 value=78 time=6
note_on channel=0 note=75 velocity=84 time=1
note_on channel=0 note=75 velocity=0 time=14
note_on channel=0 note=82 velocity=95 time=8
note_on channel=0 note=70 velocity=95 time=2
note_on channel=0 note=82 velocity=0 time=14
note_on channel=0 note=70 velocity=0 time=2
note_on channel=0 note=75 velocity=84 time=7
note_on channel=0 note=75 velocity=0 time=16
control_change channel=0 control=10 value=74 time=32
note_on channel=0 note=72 velocity=80 time=1
note_on channel=0 note=72 velocity=0 time=14
note_on channel=0 note=68 velocity=92 time=9
note_on channel=0 note=80 velocity=92 time=1
note_on channel=0 note=68 velocity=0 time=15
note_on channel=0 note=80 velocity=0 time=1
note_on channel=0 note=72 velocity=86 time=9
note_on channel=0 note=72 velocity=0 time=14
control_change channel=0 control=10 value=78 time=7
note_on channel=0 note=75 velocity=79 time=1
note_on channel=0 note=75 velocity=0 time=16
control_change channel=0 control=10 value=73 time=8
note_on channel=0 note=77 velocity=92 time=1
note_on channel=0 note=65 velocity=92 time=1
note_on channel=0 note=77 velocity=0 time=31
note_on channel=0 note=65 velocity=0 time=1
note_on channel=0 note=72 velocity=79 time=15
note_on channel=0 note=72 velocity=0 time=16
control_change channel=0 control=10 value=77 time=6
note_on channel=0 note=80 velocity=103 time=1
note_on channel=0 note=68 velocity=103 time=1
note_on channel=0 note=80 velocity=0 time=41
note_on channel=0 note=68 velocity=0 time=1
note_on channel=0 note=68 velocity=102 time=4
note_on channel=0 note=80 velocity=102 time=1
note_on channel=0 note=68 velocity=0 time=29
note_on channel=0 note=80 velocity=0 time=1
note_on channel=0 note=67 velocity=97 time=17
note_on channel=0 note=79 velocity=97 time=1
note_on channel=0 note=67 velocity=0 time=42
note_on channel=0 note=79 velocity=0 time=1
note_on channel=0 note=78 velocity=97 time=6
note_on channel=0 note=66 velocity=97 time=0
note_on channel=0 note=66 velocity=0 time=32
note_on channel=0 note=78 velocity=0 time=0
control_change channel=0 control=10 value=65 time=39
note_on channel=0 note=65 velocity=76 time=1
note_on channel=0 note=65 velocity=0 time=14
control_change channel=0 control=10 value=70 time=7
note_on channel=0 note=69 velocity=70 time=1
note_on channel=0 note=69 velocity=0 time=16
control_change channel=0 control=10 value=74 time=8
note_on channel=0 note=72 velocity=77 time=1
note_on channel=0 note=72 velocity=0 time=14
control_change channel=0 control=10 value=81 time=8
note_on channel=0 note=77 velocity=98 time=1
note_on channel=0 note=77 velocity=0 time=16
control_change channel=0 control=10 value=74 time=9
note_on channel=0 note=72 velocity=88 time=1
note_on channel=0 note=72 velocity=0 time=13
control_change channel=0 control=10 value=70 time=8
note_on channel=0 note=69 velocity=89 time=1
note_on channel=0 note=69 velocity=0 time=16
control_change channel=0 control=10 value=65 time=10
note_on channel=0 note=65 velocity=86 time=1
note_on channel=0 note=65 velocity=0 time=16
note_on channel=0 note=65 velocity=76 time=32
note_on channel=0 note=65 velocity=0 time=14
control_change channel=0 control=10 value=72 time=7
note_on channel=0 note=70 velocity=70 time=1
note_on channel=0 note=70 velocity=0 time=16
note_on channel=0 note=73 velocity=71 time=10
note_on channel=0 note=73 velocity=0 time=13
note_on channel=0 note=65 velocity=88 time=8
note_on channel=0 note=77 velocity=88 time=2
note_on channel=0 note=65 velocity=0 time=35
note_on channel=0 note=77 velocity=0 time=2
note_on channel=0 note=65 velocity=81 time=9
note_on channel=0 note=70 velocity=81 time=1
note_on channel=0 note=73 velocity=81 time=1
note_on channel=0 note=65 velocity=0 time=28
note_on channel=0 note=70 velocity=0 time=1
note_on channel=0 note=73 velocity=0 time=1
control_change channel=0 control=10 value=66 time=15
note_on channel=0 note=65 velocity=91 time=1
note_on channel=0 note=68 velocity=91 time=0
note_on channel=0 note=72 velocity=91 time=0
note_on channel=0 note=62 velocity=91 time=1
note_on channel=0 note=72 velocity=0 time=36
note_on channel=0 note=65 velocity=0 time=0
note_on channel=0 note=68 velocity=0 time=0
note_on channel=0 note=62 velocity=0 time=1
note_on channel=0 note=65 velocity=87 time=35
note_on channel=0 note=62 velocity=87 time=1
note_on channel=0 note=68 velocity=87 time=0
note_on channel=0 note=72 velocity=87 time=0
note_on channel=0 note=65 velocity=0 time=15
note_on channel=0 note=62 velocity=0 time=1
note_on channel=0 note=68 velocity=0 time=0
note_on channel=0 note=72 velocity=0 time=0
note_on channel=0 note=70 velocity=94 time=33
note_on channel=0 note=61 velocity=94 time=0
note_on channel=0 note=61 velocity=0 time=32
note_on channel=0 note=70 velocity=0 time=0
control_change channel=0 control=10 value=62 time=14
note_on channel=0 note=63 velocity=79 time=1
note_on channel=0 note=63 velocity=0 time=16
note_on channel=0 note=60 velocity=97 time=7
note_on channel=0 note=68 velocity=97 time=1
note_on channel=0 note=60 velocity=0 time=36
note_on channel=0 note=68 velocity=0 time=1
control_change channel=0 control=10 value=70 time=8
note_on channel=0 note=75 velocity=92 time=1
note_on channel=0 note=63 velocity=92 time=2
note_on channel=0 note=75 velocity=0 time=25
note_on channel=0 note=63 velocity=0 time=2
note_on channel=0 note=75 velocity=100 time=20
note_on channel=0 note=63 velocity=100 time=0
note_on channel=0 note=63 velocity=0 time=41
note_on channel=0 note=75 velocity=0 time=0
note_on channel=0 note=63 velocity=93 time=6
note_on channel=0 note=75 velocity=93 time=0
note_on channel=0 note=75 velocity=0 time=30
note_on channel=0 note=63 velocity=0 time=0
control_change channel=0 control=10 value=83 time=44
note_on channel=0 note=79 velocity=99 time=1
note_on channel=0 note=79 velocity=0 time=13
note_on channel=0 note=75 velocity=103 time=8
note_on channel=0 note=87 velocity=108 time=1
note_on channel=0 note=75 velocity=0 time=15
note_on channel=0 note=87 velocity=0 time=1
note_on channel=0 note=79 velocity=84 time=9
note_on channel=0 note=79 velocity=0 time=14
control_change channel=0 control=10 value=87 time=7
note_on channel=0 note=82 velocity=88 time=1
note_on channel=0 note=82 velocity=0 time=16
note_on channel=0 note=74 velocity=102 time=9
note_on channel=0 note=86 velocity=103 time=1
note_on channel=0 note=74 velocity=0 time=38
note_on channel=0 note=86 velocity=0 time=1
control_change channel=0 control=10 value=83 time=7
note_on channel=0 note=79 velocity=82 time=1
note_on channel=0 note=79 velocity=0 time=14
note_on channel=0 note=73 velocity=99 time=9
note_on channel=0 note=85 velocity=99 time=2
note_on channel=0 note=73 velocity=0 time=14
note_on channel=0 note=85 velocity=0 time=2
note_on channel=0 note=79 velocity=87 time=7
note_on channel=0 note=79 velocity=0 time=14
control_change channel=0 control=10 value=87 time=8
note_on channel=0 note=82 velocity=80 time=1
note_on channel=0 note=82 velocity=0 time=16
control_change channel=0 control=10 value=82 time=10
note_on channel=0 note=84 velocity=93 time=1
note_on channel=0 note=72 velocity=93 time=0
note_on channel=0 note=72 velocity=0 time=46
note_on channel=0 note=84 velocity=0 time=0
control_change channel=0 control=10 value=78 time=1
note_on channel=0 note=75 velocity=88 time=1
note_on channel=0 note=75 velocity=0 time=13
note_on channel=0 note=82 velocity=92 time=9
note_on channel=0 note=70 velocity=92 time=1
note_on channel=0 note=82 velocity=0 time=15
note_on channel=0 note=70 velocity=0 time=1
note_on channel=0 note=75 velocity=78 time=8
note_on channel=0 note=75 velocity=0 time=14
control_change channel=0 control=10 value=74 time=34
note_on channel=0 note=72 velocity=85 time=1
note_on channel=0 note=72 velocity=0 time=14
note_on channel=0 note=68 velocity=91 time=7
note_on channel=0 note=80 velocity=91 time=2
note_on channel=0 note=68 velocity=0 time=14
note_on channel=0 note=80 velocity=0 time=2
note_on channel=0 note=72 velocity=77 time=7
note_on channel=0 note=72 velocity=0 time=13
control_change channel=0 control=10 value=78 time=9
note_on channel=0 note=75 velocity=70 time=1
note_on channel=0 note=75 velocity=0 time=16
control_change channel=0 control=10 value=73 time=9
note_on channel=0 note=77 velocity=87 time=1
note_on channel=0 note=65 velocity=87 time=1
note_on channel=0 note=77 velocity=0 time=38
note_on channel=0 note=65 velocity=0 time=1
note_on channel=0 note=72 velocity=83 time=7
note_on channel=0 note=72 velocity=0 time=16
control_change channel=0 control=10 value=77 time=6
note_on channel=0 note=80 velocity=91 time=1
note_on channel=0 note=68 velocity=91 time=1
note_on channel=0 note=80 velocity=0 time=18
note_on channel=0 note=68 velocity=0 time=1
note_on channel=0 note=72 velocity=93 time=6
note_on channel=0 note=72 velocity=0 time=14
note_on channel=0 note=75 velocity=83 time=8
note_on channel=0 note=75 velocity=0 time=16
control_change channel=0 control=10 value=73 time=8
note_on channel=0 note=77 velocity=94 time=1
note_on channel=0 note=65 velocity=94 time=2
note_on channel=0 note=77 velocity=0 time=42
note_on channel=0 note=65 velocity=0 time=3
note_on channel=0 note=72 velocity=80 time=1
note_on channel=0 note=72 velocity=0 time=16
note_on channel=0 note=65 velocity=91 time=7
note_on channel=0 note=77 velocity=91 time=0
note_on channel=0 note=77 velocity=0 time=32
note_on channel=0 note=65 velocity=0 time=0
control_change channel=0 control=10 value=78 time=42
note_on channel=0 note=75 velocity=88 time=1
note_on channel=0 note=75 velocity=0 time=13
note_on channel=0 note=79 velocity=90 time=8
note_on channel=0 note=67 velocity=90 time=0
note_on channel=0 note=67 velocity=0 time=16
note_on channel=0 note=79 velocity=0 time=0
control_change channel=0 control=10 value=72 time=8
note_on channel=0 note=70 velocity=93 time=1
note_on channel=0 note=70 velocity=0 time=14
note_on channel=0 note=73 velocity=78 time=10
note_on channel=0 note=73 velocity=0 time=16
note_on channel=0 note=77 velocity=92 time=9
note_on channel=0 note=65 velocity=92 time=1
note_on channel=0 note=77 velocity=0 time=37
note_on channel=0 note=65 velocity=0 time=1
control_change channel=0 control=10 value=78 time=8
note_on channel=0 note=75 velocity=83 time=1
note_on channel=0 note=75 velocity=0 time=14
note_on channel=0 note=79 velocity=91 time=10
note_on channel=0 note=67 velocity=91 time=0
note_on channel=0 note=67 velocity=0 time=16
note_on channel=0 note=79 velocity=0 time=0
control_change channel=0 control=10 value=72 time=7
note_on channel=0 note=70 velocity=92 time=1
note_on channel=0 note=70 velocity=0 time=13
note_on channel=0 note=73 velocity=80 time=11
note_on channel=0 note=73 velocity=0 time=16
note_on channel=0 note=65 velocity=92 time=8
note_on channel=0 note=77 velocity=92 time=1
note_on channel=0 note=65 velocity=0 time=36
note_on channel=0 note=77 velocity=0 time=1
note_on channel=0 note=73 velocity=79 time=9
note_on channel=0 note=73 velocity=0 time=16
note_on channel=0 note=77 velocity=92 time=7
note_on channel=0 note=65 velocity=92 time=1
note_on channel=0 note=77 velocity=0 time=36
note_on channel=0 note=65 velocity=0 time=1
note_on channel=0 note=72 velocity=79 time=37
note_on channel=0 note=72 velocity=0 time=14
control_change channel=0 control=10 value=77 time=6
note_on channel=0 note=68 velocity=90 time=1
note_on channel=0 note=80 velocity=90 time=1
note_on channel=0 note=68 velocity=0 time=15
note_on channel=0 note=80 velocity=0 time=1
note_on channel=0 note=72 velocity=85 time=9
note_on channel=0 note=72 velocity=0 time=13
note_on channel=0 note=75 velocity=80 time=9
note_on channel=0 note=75 velocity=0 time=16
control_change channel=0 control=10 value=73 time=10
note_on channel=0 note=77 velocity=90 time=1
note_on channel=0 note=65 velocity=90 time=0
note_on channel=0 note=65 velocity=0 time=32
note_on channel=0 note=77 velocity=0 time=0
note_on channel=0 note=72 velocity=81 time=15
note_on channel=0 note=72 velocity=0 time=14
control_change channel=0 control=10 value=77 time=7
note_on channel=0 note=68 velocity=90 time=1
note_on channel=0 note=80 velocity=90 time=2
note_on channel=0 note=68 velocity=0 time=14
note_on channel=0 note=80 velocity=0 time=2
note_on channel=0 note=72 velocity=81 time=9
note_on channel=0 note=72 velocity=0 time=13
note_on channel=0 note=75 velocity=84 time=9
note_on channel=0 note=75 velocity=0 time=16
control_change channel=0 control=10 value=73 time=8
note_on channel=0 note=65 velocity=91 time=1
note_on channel=0 note=77 velocity=91 time=1
note_on channel=0 note=65 velocity=0 time=36
note_on channel=0 note=77 velocity=0 time=1
note_on channel=0 note=72 velocity=80 time=9
note_on channel=0 note=72 velocity=0 time=16
note_on channel=0 note=77 velocity=91 time=7
note_on channel=0 note=65 velocity=91 time=1
note_on channel=0 note=77 velocity=0 time=35
note_on channel=0 note=65 velocity=0 time=1
control_change channel=0 control=10 value=83 time=35
note_on channel=0 note=79 velocity=93 time=1
note_on channel=0 note=79 velocity=0 time=14
note_on channel=0 note=75 velocity=108 time=9
note_on channel=0 note=87 velocity=108 time=1
note_on channel=0 note=75 velocity=0 time=15
note_on channel=0 note=87 velocity=0 time=1
note_on channel=0 note=79 velocity=91 time=9
note_on channel=0 note=79 velocity=0 time=13
control_change channel=0 control=10 value=87 time=10
note_on channel=0 note=82 velocity=93 time=1
note_on channel=0 note=82 velocity=0 time=16
note_on channel=0 note=86 velocity=104 time=7
note_on channel=0 note=74 velocity=104 time=2
note_on channel=0 note=86 velocity=0 time=35
note_on channel=0 note=74 velocity=0 time=2
control_change channel=0 control=10 value=83 time=9
note_on channel=0 note=79 velocity=89 time=1
note_on channel=0 note=79 velocity=0 time=14
note_on channel=0 note=73 velocity=102 time=10
note_on channel=0 note=85 velocity=102 time=0
note_on channel=0 note=85 velocity=0 time=16
note_on channel=0 note=73 velocity=0 time=0
note_on channel=0 note=79 velocity=93 time=8
note_on channel=0 note=79 velocity=0 time=13
control_change channel=0 control=10 value=87 time=10
note_on channel=0 note=82 velocity=88 time=1
note_on channel=0 note=82 velocity=0 time=16
control_change channel=0 control=10 value=82 time=6
note_on channel=0 note=84 velocity=96 time=1
note_on channel=0 note=72 velocity=96 time=2
note_on channel=0 note=84 velocity=0 time=35
note_on channel=0 note=72 velocity=0 time=2
control_change channel=0 control=10 value=78 time=10
note_on channel=0 note=75 velocity=84 time=1
note_on channel=0 note=75 velocity=0 time=13
note_on channel=0 note=70 velocity=93 time=8
note_on channel=0 note=82 velocity=93 time=2
note_on channel=0 note=70 velocity=0 time=14
note_on channel=0 note=82 velocity=0 time=2
note_on channel=0 note=75 velocity=84 time=9
note_on channel=0 note=75 velocity=0 time=14
control_change channel=0 control=10 value=74 time=32
note_on channel=0 note=72 velocity=80 time=1
note_on channel=0 note=72 velocity=0 time=14
note_on channel=0 note=68 velocity=92 time=8
note_on channel=0 note=80 velocity=92 time=2
note_on channel=0 note=68 velocity=0 time=14
note_on channel=0 note=80 velocity=0 time=2
note_on channel=0 note=72 velocity=86 time=8
note_on channel=0 note=72 velocity=0 time=14
control_change channel=0 control=10 value=78 time=9
note_on channel=0 note=75 velocity=79 time=1
note_on channel=0 note=75 velocity=0 time=16
control_change channel=0 control=10 value=73 time=6
note_on channel=0 note=77 velocity=92 time=1
note_on channel=0 note=65 velocity=92 time=0
note_on channel=0 note=65 velocity=0 time=32
note_on channel=0 note=77 velocity=0 time=0
note_on channel=0 note=72 velocity=89 time=16
note_on channel=0 note=72 velocity=0 time=16
control_change channel=0 control=10 value=77 time=7
note_on channel=0 note=68 velocity=110 time=1
note_on channel=0 note=80 velocity=110 time=1
note_on channel=0 note=68 velocity=0 time=42
note_on channel=0 note=80 velocity=0 time=1
note_on channel=0 note=80 velocity=107 time=3
note_on channel=0 note=68 velocity=107 time=2
note_on channel=0 note=80 velocity=0 time=30
note_on channel=0 note=68 velocity=0 time=2
note_on channel=0 note=79 velocity=100 time=15
note_on channel=0 note=67 velocity=100 time=1
note_on channel=0 note=79 velocity=0 time=42
note_on channel=0 note=67 velocity=0 time=1
note_on channel=0 note=78 velocity=98 time=3
note_on channel=0 note=66 velocity=98 time=0
note_on channel=0 note=66 velocity=0 time=32
note_on channel=0 note=78 velocity=0 time=0
control_change channel=0 control=10 value=65 time=40
note_on channel=0 note=65 velocity=85 time=1
note_on channel=0 note=65 velocity=0 time=14
control_change channel=0 control=10 value=70 time=9
note_on channel=0 note=69 velocity=80 time=1
note_on channel=0 note=69 velocity=0 time=17
control_change channel=0 control=10 value=74 time=8
note_on channel=0 note=72 velocity=77 time=1
note_on channel=0 note=72 velocity=0 time=13
control_change channel=0 control=10 value=81 time=7
note_on channel=0 note=77 velocity=95 time=1
note_on channel=0 note=77 velocity=0 time=18
control_change channel=0 control=10 value=74 time=8
note_on channel=0 note=72 velocity=88 time=1
note_on channel=0 note=72 velocity=0 time=14
control_change channel=0 control=10 value=70 time=7
note_on channel=0 note=69 velocity=89 time=1
note_on channel=0 note=69 velocity=0 time=16
control_change channel=0 control=10 value=65 time=7
note_on channel=0 note=65 velocity=86 time=1
note_on channel=0 note=65 velocity=0 time=14
note_on channel=0 note=65 velocity=76 time=36
note_on channel=0 note=65 velocity=0 time=14
control_change channel=0 control=10 value=72 time=6
note_on channel=0 note=70 velocity=70 time=1
note_on channel=0 note=70 velocity=0 time=17
note_on channel=0 note=73 velocity=71 time=10
note_on channel=0 note=73 velocity=0 time=14
note_on channel=0 note=77 velocity=97 time=9
note_on channel=0 note=65 velocity=88 time=0
note_on channel=0 note=65 velocity=0 time=39
note_on channel=0 note=77 velocity=0 time=7
note_on channel=0 note=65 velocity=81 time=0
note_on channel=0 note=70 velocity=81 time=0
note_on channel=0 note=73 velocity=81 time=1
note_on channel=0 note=70 velocity=0 time=31
note_on channel=0 note=65 velocity=0 time=0
note_on channel=0 note=73 velocity=0 time=1
control_change channel=0 control=10 value=66 time=14
note_on channel=0 note=68 velocity=91 time=1
note_on channel=0 note=62 velocity=91 time=0
note_on channel=0 note=72 velocity=91 time=1
note_on channel=0 note=65 velocity=91 time=1
note_on channel=0 note=62 velocity=0 time=35
note_on channel=0 note=68 velocity=0 time=0
note_on channel=0 note=72 velocity=0 time=1
note_on channel=0 note=65 velocity=0 time=1
note_on channel=0 note=68 velocity=87 time=34
note_on channel=0 note=65 velocity=87 time=0
note_on channel=0 note=72 velocity=87 time=0
note_on channel=0 note=62 velocity=87 time=2
note_on channel=0 note=72 velocity=0 time=17
note_on channel=0 note=68 velocity=0 time=0
note_on channel=0 note=65 velocity=0 time=0
note_on channel=0 note=62 velocity=0 time=2
note_on channel=0 note=61 velocity=94 time=27
note_on channel=0 note=70 velocity=94 time=0
note_on channel=0 note=70 velocity=0 time=43
note_on channel=0 note=61 velocity=0 time=0
control_change channel=0 control=10 value=62 time=5
note_on channel=0 note=63 velocity=88 time=1
note_on channel=0 note=63 velocity=0 time=16
control_change channel=0 control=10 value=69 time=32
note_on channel=0 note=68 velocity=92 time=1
note_on channel=0 note=68 velocity=0 time=13
control_change channel=0 control=10 value=74 time=9
note_on channel=0 note=72 velocity=88 time=1
note_on channel=0 note=72 velocity=0 time=18
control_change channel=0 control=10 value=78 time=4
note_on channel=0 note=75 velocity=97 time=1
note_on channel=0 note=75 velocity=0 time=15
note_on channel=0 note=68 velocity=107 time=9
note_on channel=0 note=80 velocity=107 time=1
note_on channel=0 note=68 velocity=0 time=36
note_on channel=0 note=80 velocity=0 time=1
control_change channel=0 control=10 value=69 time=82
note_on channel=0 note=68 velocity=78 time=1
note_on channel=0 note=75 velocity=89 time=23
note_on channel=0 note=63 velocity=89 time=1
note_on channel=0 note=68 velocity=0 time=14
note_on channel=0 note=68 velocity=94 time=11
note_on channel=0 note=75 velocity=0 time=14
note_on channel=0 note=63 velocity=0 time=1
control_change channel=0 control=10 value=74 time=6
note_on channel=0 note=72 velocity=87 time=1
note_on channel=0 note=68 velocity=0 time=14
control_change channel=0 control=10 value=70 time=9
note_on channel=0 note=63 velocity=93 time=1
note_on channel=0 note=75 velocity=103 time=1
note_on channel=0 note=72 velocity=0 time=22
note_on channel=0 note=67 velocity=82 time=26
note_on channel=0 note=63 velocity=0 time=1
note_on channel=0 note=75 velocity=0 time=1
note_on channel=0 note=67 velocity=0 time=21
note_on channel=0 note=63 velocity=93 time=0
note_on channel=0 note=75 velocity=98 time=1
note_on channel=0 note=67 velocity=95 time=24
note_on channel=0 note=63 velocity=0 time=15
note_on channel=0 note=75 velocity=0 time=1
note_on channel=0 note=67 velocity=0 time=7
note_on channel=0 note=70 velocity=83 time=0
note_on channel=0 note=70 velocity=0 time=23
note_on channel=0 note=75 velocity=100 time=1
note_on channel=0 note=63 velocity=91 time=1
note_on channel=0 note=75 velocity=0 time=94
note_on channel=0 note=63 velocity=0 time=1
note_on channel=0 note=68 velocity=87 time=49
note_on channel=0 note=75 velocity=93 time=22
note_on channel=0 note=63 velocity=93 time=1
note_on channel=0 note=68 velocity=0 time=15
note_on channel=0 note=68 velocity=94 time=11
note_on channel=0 note=75 velocity=0 time=13
note_on channel=0 note=63 velocity=0 time=1
control_change channel=0 control=10 value=74 time=6
note_on channel=0 note=72 velocity=81 time=1
note_on channel=0 note=68 velocity=0 time=15
control_change channel=0 control=10 value=70 time=9
note_on channel=0 note=63 velocity=92 time=1
note_on channel=0 note=75 velocity=101 time=1
note_on channel=0 note=72 velocity=0 time=21
note_on channel=0 note=67 velocity=81 time=27
note_on channel=0 note=63 velocity=0 time=1
note_on channel=0 note=75 velocity=0 time=1
note_on channel=0 note=75 velocity=103 time=20
note_on channel=0 note=63 velocity=93 time=0
note_on channel=0 note=67 velocity=0 time=1
note_on channel=0 note=67 velocity=84 time=24
note_on channel=0 note=63 velocity=0 time=15
note_on channel=0 note=75 velocity=0 time=0
note_on channel=0 note=67 velocity=0 time=5
note_on channel=0 note=70 velocity=79 time=4
note_on channel=0 note=70 velocity=0 time=23
note_on channel=0 note=75 velocity=103 time=2
note_on channel=0 note=63 velocity=94 time=0
note_on channel=0 note=63 velocity=0 time=90
note_on channel=0 note=75 velocity=0 time=0
note_on channel=0 note=63 velocity=84 time=6
note_on channel=0 note=75 velocity=84 time=1
note_on channel=0 note=63 velocity=0 time=19
note_on channel=0 note=75 velocity=0 time=1
note_on channel=0 note=68 velocity=77 time=28
note_on channel=0 note=68 velocity=0 time=20
note_on channel=0 note=71 velocity=73 time=2
note_on channel=0 note=71 velocity=0 time=23
note_on channel=0 note=64 velocity=87 time=2
note_on channel=0 note=76 velocity=87 time=1
note_on channel=0 note=64 velocity=0 time=19
note_on channel=0 note=76 velocity=0 time=1
note_on channel=0 note=63 velocity=79 time=26
note_on channel=0 note=75 velocity=79 time=2
note_on channel=0 note=63 velocity=0 time=18
note_on channel=0 note=75 velocity=0 time=2
note_on channel=0 note=63 velocity=80 time=27
note_on channel=0 note=75 velocity=80 time=1
note_on channel=0 note=63 velocity=0 time=19
note_on channel=0 note=75 velocity=0 time=1
note_on channel=0 note=68 velocity=75 time=28
note_on channel=0 note=68 velocity=0 time=20
note_on channel=0 note=71 velocity=70 time=1
note_on channel=0 note=71 velocity=0 time=23
note_on channel=0 note=64 velocity=87 time=3
note_on channel=0 note=76 velocity=87 time=1
note_on channel=0 note=64 velocity=0 time=19
note_on channel=0 note=76 velocity=0 time=1
note_on channel=0 note=75 velocity=90 time=27
note_on channel=0 note=63 velocity=90 time=0
note_on channel=0 note=63 velocity=0 time=20
note_on channel=0 note=75 velocity=0 time=0
note_on channel=0 note=68 velocity=71 time=269
note_on channel=0 note=71 velocity=78 time=21
note_on channel=0 note=68 velocity=0 time=1
control_change channel=0 control=10 value=85 time=23
note_on channel=0 note=80 velocity=95 time=1
note_on channel=0 note=71 velocity=0 time=6
note_on channel=0 note=80 velocity=0 time=15
note_on channel=0 note=80 velocity=71 time=28
note_on channel=0 note=80 velocity=0 time=21
control_change channel=0 control=10 value=89 time=1
note_on channel=0 note=83 velocity=80 time=1
control_change channel=0 control=10 value=100 time=25
note_on channel=0 note=92 velocity=104 time=1
note_on channel=0 note=83 velocity=0 time=3
note_on channel=0 note=92 velocity=0 time=18
control_change channel=0 control=10 value=92 time=1
note_on channel=0 note=80 velocity=101 time=1
note_on channel=0 note=92 velocity=101 time=0
note_on channel=0 note=92 velocity=0 time=32
note_on channel=0 note=80 velocity=0 time=0
note_on channel=0 note=92 velocity=92 time=15
note_on channel=0 note=80 velocity=92 time=1
note_on channel=0 note=92 velocity=0 time=31
note_on channel=0 note=80 velocity=0 time=1
note_on channel=0 note=80 velocity=100 time=15
note_on channel=0 note=92 velocity=100 time=1
note_on channel=0 note=80 velocity=0 time=31
note_on channel=0 note=92 velocity=0 time=1
note_on channel=0 note=80 velocity=91 time=14
note_on channel=0 note=92 velocity=91 time=1
note_on channel=0 note=80 velocity=0 time=15
note_on channel=0 note=92 velocity=0 time=1
note_on channel=0 note=80 velocity=105 time=9
note_on channel=0 note=92 velocity=105 time=0
note_on channel=0 note=92 velocity=0 time=43
note_on channel=0 note=80 velocity=0 time=0
note_on channel=0 note=87 velocity=92 time=6
note_on channel=0 note=87 velocity=0 time=17
control_change channel=0 control=10 value=96 time=5
note_on channel=0 note=89 velocity=100 time=1
note_on channel=0 note=89 velocity=0 time=20
control_change channel=0 control=10 value=90 time=4
note_on channel=0 note=84 velocity=87 time=1
note_on channel=0 note=84 velocity=0 time=17
control_change channel=0 control=10 value=94 time=5
note_on channel=0 note=87 velocity=82 time=1
note_on channel=0 note=87 velocity=0 time=20
control_change channel=0 control=10 value=90 time=2
note_on channel=0 note=89 velocity=97 time=1
note_on channel=0 note=80 velocity=97 time=0
note_on channel=0 note=80 velocity=0 time=36
note_on channel=0 note=89 velocity=0 time=0
control_change channel=0 control=10 value=82 time=11
note_on channel=0 note=76 velocity=89 time=1
note_on channel=0 note=80 velocity=89 time=2
note_on channel=0 note=76 velocity=0 time=30
note_on channel=0 note=80 velocity=0 time=2
control_change channel=0 control=10 value=87 time=15
note_on channel=0 note=82 velocity=88 time=1
note_on channel=0 note=82 velocity=0 time=18
control_change channel=0 control=10 value=83 time=3
note_on channel=0 note=76 velocity=88 time=1
note_on channel=0 note=83 velocity=88 time=0
note_on channel=0 note=83 velocity=0 time=20
note_on channel=0 note=76 velocity=0 time=0
note_on channel=0 note=80 velocity=78 time=4
note_on channel=0 note=80 velocity=0 time=17
control_change channel=0 control=10 value=87 time=7
note_on channel=0 note=82 velocity=84 time=1
note_on channel=0 note=82 velocity=0 time=20
control_change channel=0 control=10 value=83 time=2
note_on channel=0 note=75 velocity=94 time=1
note_on channel=0 note=84 velocity=99 time=1
note_on channel=0 note=75 velocity=0 time=31
note_on channel=0 note=84 velocity=0 time=1
note_on channel=0 note=80 velocity=82 time=16
note_on channel=0 note=80 velocity=0 time=17
note_on channel=0 note=75 velocity=92 time=6
note_on channel=0 note=84 velocity=92 time=1
note_on channel=0 note=75 velocity=0 time=19
note_on channel=0 note=84 velocity=0 time=1
note_on channel=0 note=80 velocity=83 time=3
note_on channel=0 note=80 velocity=0 time=17
note_on channel=0 note=75 velocity=88 time=6
note_on channel=0 note=82 velocity=88 time=0
note_on channel=0 note=82 velocity=0 time=38
note_on channel=0 note=75 velocity=0 time=0
note_on channel=0 note=75 velocity=87 time=10
note_on channel=0 note=80 velocity=87 time=1
note_on channel=0 note=75 velocity=0 time=45
note_on channel=0 note=80 velocity=0 time=1
control_change channel=0 control=10 value=77 time=25
note_on channel=0 note=80 velocity=94 time=1
note_on channel=0 note=68 velocity=94 time=2
note_on channel=0 note=80 velocity=0 time=56
note_on channel=0 note=68 velocity=0 time=2
note_on channel=0 note=68 velocity=92 time=11
note_on channel=0 note=80 velocity=92 time=1
note_on channel=0 note=68 velocity=0 time=31
note_on channel=0 note=80 velocity=0 time=1
note_on channel=0 note=68 velocity=99 time=15
note_on channel=0 note=80 velocity=100 time=2
note_on channel=0 note=68 velocity=0 time=30
note_on channel=0 note=80 velocity=0 time=2
note_on channel=0 note=80 velocity=87 time=14
note_on channel=0 note=68 velocity=87 time=2
note_on channel=0 note=80 velocity=0 time=14
note_on channel=0 note=68 velocity=0 time=2
note_on channel=0 note=80 velocity=101 time=8
note_on channel=0 note=68 velocity=101 time=1
note_on channel=0 note=80 velocity=0 time=42
note_on channel=0 note=68 velocity=0 time=1
note_on channel=0 note=75 velocity=87 time=4
note_on channel=0 note=75 velocity=0 time=17
control_change channel=0 control=10 value=81 time=5
note_on channel=0 note=77 velocity=94 time=1
note_on channel=0 note=77 velocity=0 time=20
control_change channel=0 control=10 value=74 time=3
note_on channel=0 note=72 velocity=82 time=1
note_on channel=0 note=72 velocity=0 time=18
control_change channel=0 control=10 value=78 time=5
note_on channel=0 note=75 velocity=78 time=1
note_on channel=0 note=75 velocity=0 time=20
control_change channel=0 control=10 value=74 time=3
note_on channel=0 note=77 velocity=101 time=1
note_on channel=0 note=68 velocity=92 time=2
note_on channel=0 note=77 velocity=0 time=38
note_on channel=0 note=68 velocity=0 time=2
control_change channel=0 control=10 value=66 time=6
note_on channel=0 note=64 velocity=89 time=1
note_on channel=0 note=68 velocity=89 time=1
note_on channel=0 note=64 velocity=0 time=35
note_on channel=0 note=68 velocity=0 time=1
control_change channel=0 control=10 value=72 time=11
note_on channel=0 note=70 velocity=83 time=1
note_on channel=0 note=70 velocity=0 time=17
control_change channel=0 control=10 value=68 time=4
note_on channel=0 note=71 velocity=88 time=1
note_on channel=0 note=64 velocity=88 time=1
note_on channel=0 note=71 velocity=0 time=19
note_on channel=0 note=64 velocity=0 time=1
note_on channel=0 note=68 velocity=78 time=5
note_on channel=0 note=68 velocity=0 time=17
control_change channel=0 control=10 value=72 time=4
note_on channel=0 note=70 velocity=84 time=1
note_on channel=0 note=70 velocity=0 time=20
control_change channel=0 control=10 value=68 time=3
note_on channel=0 note=72 velocity=101 time=1
note_on channel=0 note=63 velocity=94 time=1
note_on channel=0 note=72 velocity=0 time=35
note_on channel=0 note=63 velocity=0 time=1
note_on channel=0 note=68 velocity=82 time=13
note_on channel=0 note=68 velocity=0 time=17
note_on channel=0 note=63 velocity=92 time=4
note_on channel=0 note=72 velocity=97 time=0
note_on channel=0 note=72 velocity=0 time=20
note_on channel=0 note=63 velocity=0 time=0
note_on channel=0 note=68 velocity=83 time=5
note_on channel=0 note=68 velocity=0 time=18
note_on channel=0 note=70 velocity=96 time=5
note_on channel=0 note=63 velocity=88 time=2
note_on channel=0 note=70 velocity=0 time=36
note_on channel=0 note=63 velocity=0 time=2
note_on channel=0 note=63 velocity=87 time=8
note_on channel=0 note=68 velocity=87 time=1
note_on channel=0 note=68 velocity=0 time=43
note_on channel=0 note=63 velocity=0 time=2
control_change channel=0 control=10 value=77 time=1
note_on channel=0 note=68 velocity=101 time=1
note_on channel=0 note=80 velocity=106 time=1
note_on channel=0 note=68 velocity=0 time=31
note_on channel=0 note=80 velocity=0 time=1
note_on channel=0 note=68 velocity=110 time=16
note_on channel=0 note=72 velocity=107 time=0
note_on channel=0 note=80 velocity=107 time=0
note_on channel=0 note=75 velocity=107 time=1
note_on channel=0 note=68 velocity=0 time=60
note_on channel=0 note=72 velocity=0 time=6
note_on channel=0 note=80 velocity=0 time=0
note_on channel=0 note=75 velocity=0 time=1
note_on channel=0 note=80 velocity=94 time=5
note_on channel=0 note=70 velocity=106 time=0
note_on channel=0 note=75 velocity=103 time=1
note_on channel=0 note=72 velocity=103 time=0
note_on channel=0 note=80 velocity=0 time=38
note_on channel=0 note=70 velocity=0 time=1
note_on channel=0 note=75 velocity=0 time=0
note_on channel=0 note=72 velocity=0 time=0
note_on channel=0 note=72 velocity=102 time=7
note_on channel=0 note=75 velocity=102 time=2
note_on channel=0 note=72 velocity=0 time=14
note_on channel=0 note=75 velocity=0 time=2
control_change channel=0 control=10 value=72 time=5
note_on channel=0 note=70 velocity=107 time=1
note_on channel=0 note=70 velocity=0 time=32
note_on channel=0 note=68 velocity=99 time=15
note_on channel=0 note=72 velocity=99 time=0
note_on channel=0 note=75 velocity=99 time=1
note_on channel=0 note=80 velocity=99 time=1
note_on channel=0 note=68 velocity=0 time=59
note_on channel=0 note=72 velocity=0 time=6
note_on channel=0 note=75 velocity=0 time=1
note_on channel=0 note=80 velocity=0 time=1
control_change channel=0 control=10 value=77 time=3
note_on channel=0 note=80 velocity=95 time=1
note_on channel=0 note=70 velocity=95 time=0
note_on channel=0 note=72 velocity=95 time=1
note_on channel=0 note=75 velocity=99 time=0
note_on channel=0 note=70 velocity=0 time=38
note_on channel=0 note=80 velocity=0 time=0
note_on channel=0 note=72 velocity=0 time=1
note_on channel=0 note=75 velocity=0 time=0
note_on channel=0 note=75 velocity=94 time=8
note_on channel=0 note=72 velocity=94 time=1
note_on channel=0 note=75 velocity=0 time=15
note_on channel=0 note=72 velocity=0 time=1
control_change channel=0 control=10 value=72 time=7
note_on channel=0 note=70 velocity=95 time=1
note_on channel=0 note=70 velocity=0 time=20
note_on channel=0 note=75 velocity=93 time=4
note_on channel=0 note=72 velocity=93 time=1
note_on channel=0 note=75 velocity=0 time=14
note_on channel=0 note=72 velocity=0 time=1
note_on channel=0 note=68 velocity=82 time=8
note_on channel=0 note=68 velocity=0 time=17
note_on channel=0 note=73 velocity=74 time=7
note_on channel=0 note=73 velocity=0 time=14
note_on channel=0 note=70 velocity=78 time=10
note_on channel=0 note=70 velocity=0 time=17
note_on channel=0 note=73 velocity=81 time=8
note_on channel=0 note=73 velocity=0 time=14
control_change channel=0 control=10 value=81 time=7
note_on channel=0 note=77 velocity=89 time=1
note_on channel=0 note=77 velocity=0 time=17
control_change channel=0 control=10 value=69 time=7
note_on channel=0 note=68 velocity=82 time=1
note_on channel=0 note=68 velocity=0 time=14
control_change channel=0 control=10 value=75 time=7
note_on channel=0 note=73 velocity=76 time=1
note_on channel=0 note=73 velocity=0 time=18
control_change channel=0 control=10 value=81 time=8
note_on channel=0 note=77 velocity=84 time=1
note_on channel=0 note=77 velocity=0 time=14
control_change channel=0 control=10 value=72 time=7
note_on channel=0 note=70 velocity=78 time=1
note_on channel=0 note=70 velocity=0 time=18
note_on channel=0 note=73 velocity=74 time=7
note_on channel=0 note=73 velocity=0 time=15
control_change channel=0 control=10 value=81 time=7
note_on channel=0 note=77 velocity=87 time=1
note_on channel=0 note=77 velocity=0 time=17
control_change channel=0 control=10 value=69 time=7
note_on channel=0 note=68 velocity=82 time=1
note_on channel=0 note=68 velocity=0 time=32
control_change channel=0 control=10 value=81 time=16
note_on channel=0 note=77 velocity=84 time=1
note_on channel=0 note=77 velocity=0 time=14
control_change channel=0 control=10 value=72 time=8
note_on channel=0 note=70 velocity=89 time=1
note_on channel=0 note=70 velocity=0 time=18
control_change channel=0 control=10 value=81 time=5
note_on channel=0 note=77 velocity=86 time=1
note_on channel=0 note=77 velocity=0 time=15
control_change channel=0 control=10 value=75 time=6
note_on channel=0 note=80 velocity=99 time=1
note_on channel=0 note=75 velocity=99 time=0
note_on channel=0 note=68 velocity=99 time=0
note_on channel=0 note=72 velocity=99 time=1
note_on channel=0 note=68 velocity=0 time=60
note_on channel=0 note=80 velocity=0 time=6
note_on channel=0 note=75 velocity=0 time=0
note_on channel=0 note=72 velocity=0 time=1
note_on channel=0 note=72 velocity=93 time=5
note_on channel=0 note=75 velocity=97 time=1
note_on channel=0 note=80 velocity=89 time=1
note_on channel=0 note=70 velocity=93 time=0
note_on channel=0 note=72 velocity=0 time=38
note_on channel=0 note=75 velocity=0 time=1
note_on channel=0 note=80 velocity=0 time=1
note_on channel=0 note=70 velocity=0 time=0
note_on channel=0 note=72 velocity=98 time=7
note_on channel=0 note=75 velocity=98 time=1
note_on channel=0 note=72 velocity=0 time=15
note_on channel=0 note=75 velocity=0 time=1
note_on channel=0 note=70 velocity=103 time=7
note_on channel=0 note=70 velocity=0 time=32
note_on channel=0 note=80 velocity=95 time=14
note_on channel=0 note=75 velocity=95 time=1
note_on channel=0 note=72 velocity=95 time=1
note_on channel=0 note=68 velocity=95 time=0
note_on channel=0 note=68 velocity=0 time=61
note_on channel=0 note=80 velocity=0 time=4
note_on channel=0 note=75 velocity=0 time=1
note_on channel=0 note=72 velocity=0 time=1
note_on channel=0 note=75 velocity=95 time=4
note_on channel=0 note=70 velocity=100 time=2
note_on channel=0 note=72 velocity=95 time=0
note_on channel=0 note=80 velocity=91 time=0
note_on channel=0 note=75 velocity=0 time=38
note_on channel=0 note=70 velocity=0 time=2
note_on channel=0 note=72 velocity=0 time=0
note_on channel=0 note=80 velocity=0 time=0
note_on channel=0 note=72 velocity=93 time=8
note_on channel=0 note=75 velocity=93 time=0
note_on channel=0 note=75 velocity=0 time=16
note_on channel=0 note=72 velocity=0 time=0
note_on channel=0 note=70 velocity=100 time=7
note_on channel=0 note=70 velocity=0 time=18
note_on channel=0 note=72 velocity=93 time=5
note_on channel=0 note=75 velocity=93 time=1
note_on channel=0 note=72 velocity=0 time=15
note_on channel=0 note=75 velocity=0 time=1
control_change channel=0 control=10 value=69 time=6
note_on channel=0 note=68 velocity=80 time=1
note_on channel=0 note=68 velocity=0 time=18
control_change channel=0 control=10 value=75 time=5
note_on channel=0 note=73 velocity=74 time=1
note_on channel=0 note=73 velocity=0 time=14
note_on channel=0 note=70 velocity=82 time=9
note_on channel=0 note=70 velocity=0 time=17
note_on channel=0 note=73 velocity=75 time=10
note_on channel=0 note=73 velocity=0 time=14
control_change channel=0 control=10 value=81 time=8
note_on channel=0 note=77 velocity=89 time=1
note_on channel=0 note=77 velocity=0 time=19
control_change channel=0 control=10 value=69 time=3
note_on channel=0 note=68 velocity=82 time=1
note_on channel=0 note=68 velocity=0 time=15
control_change channel=0 control=10 value=75 time=9
note_on channel=0 note=73 velocity=74 time=1
note_on channel=0 note=73 velocity=0 time=18
control_change channel=0 control=10 value=81 time=5
note_on channel=0 note=77 velocity=88 time=1
note_on channel=0 note=77 velocity=0 time=15
control_change channel=0 control=10 value=72 time=6
note_on channel=0 note=70 velocity=80 time=1
note_on channel=0 note=70 velocity=0 time=19
note_on channel=0 note=73 velocity=75 time=8
note_on channel=0 note=73 velocity=0 time=14
control_change channel=0 control=10 value=81 time=8
note_on channel=0 note=77 velocity=86 time=1
note_on channel=0 note=77 velocity=0 time=18
control_change channel=0 control=10 value=69 time=4
note_on channel=0 note=68 velocity=85 time=1
note_on channel=0 note=68 velocity=0 time=32
control_change channel=0 control=10 value=81 time=15
note_on channel=0 note=77 velocity=86 time=1
note_on channel=0 note=77 velocity=0 time=14
control_change channel=0 control=10 value=70 time=9
note_on channel=0 note=69 velocity=88 time=1
note_on channel=0 note=69 velocity=0 time=16
control_change channel=0 control=10 value=79 time=8
note_on channel=0 note=75 velocity=81 time=1
note_on channel=0 note=77 velocity=91 time=1
note_on channel=0 note=75 velocity=0 time=15
note_on channel=0 note=77 velocity=0 time=1
note_on channel=0 note=70 velocity=105 time=5
note_on channel=0 note=82 velocity=105 time=0
note_on channel=0 note=74 velocity=94 time=2
note_on channel=0 note=77 velocity=94 time=0
note_on channel=0 note=82 velocity=0 time=50
note_on channel=0 note=70 velocity=0 time=0
note_on channel=0 note=74 velocity=0 time=2
note_on channel=0 note=77 velocity=0 time=0
note_on channel=0 note=77 velocity=92 time=19
note_on channel=0 note=82 velocity=100 time=0
note_on channel=0 note=72 velocity=101 time=1
note_on channel=0 note=74 velocity=92 time=1
note_on channel=0 note=82 velocity=0 time=29
note_on channel=0 note=77 velocity=0 time=0
note_on channel=0 note=72 velocity=0 time=1
note_on channel=0 note=74 velocity=0 time=1
note_on channel=0 note=77 velocity=103 time=15
note_on channel=0 note=74 velocity=103 time=2
note_on channel=0 note=77 velocity=0 time=13
note_on channel=0 note=74 velocity=0 time=2
control_change channel=0 control=10 value=74 time=7
note_on channel=0 note=72 velocity=106 time=1
note_on channel=0 note=72 velocity=0 time=31
control_change channel=0 control=10 value=78 time=14
note_on channel=0 note=70 velocity=97 time=1
note_on channel=0 note=77 velocity=97 time=1
note_on channel=0 note=82 velocity=97 time=0
note_on channel=0 note=74 velocity=97 time=1
note_on channel=0 note=70 velocity=0 time=50
note_on channel=0 note=77 velocity=0 time=1
note_on channel=0 note=82 velocity=0 time=0
note_on channel=0 note=74 velocity=0 time=1
note_on channel=0 note=77 velocity=88 time=19
note_on channel=0 note=74 velocity=88 time=0
note_on channel=0 note=82 velocity=97 time=1
note_on channel=0 note=72 velocity=97 time=1
note_on channel=0 note=74 velocity=0 time=29
note_on channel=0 note=77 velocity=0 time=0
note_on channel=0 note=82 velocity=0 time=1
note_on channel=0 note=72 velocity=0 time=1
note_on channel=0 note=74 velocity=88 time=15
note_on channel=0 note=77 velocity=88 time=0
note_on channel=0 note=77 velocity=0 time=15
note_on channel=0 note=74 velocity=0 time=0
control_change channel=0 control=10 value=74 time=9
note_on channel=0 note=72 velocity=94 time=1
note_on channel=0 note=72 velocity=0 time=18
control_change channel=0 control=10 value=78 time=4
note_on channel=0 note=77 velocity=92 time=1
note_on channel=0 note=74 velocity=92 time=0
note_on channel=0 note=74 velocity=0 time=18
note_on channel=0 note=77 velocity=0 time=0
note_on channel=0 note=75 velocity=80 time=30
note_on channel=0 note=75 velocity=0 time=14
note_on channel=0 note=70 velocity=100 time=10
note_on channel=0 note=82 velocity=100 time=0
note_on channel=0 note=82 velocity=0 time=16
note_on channel=0 note=70 velocity=0 time=0
note_on channel=0 note=75 velocity=84 time=9
note_on channel=0 note=75 velocity=0 time=14
control_change channel=0 control=10 value=82 time=8
note_on channel=0 note=78 velocity=81 time=1
note_on channel=0 note=78 velocity=0 time=16
note_on channel=0 note=72 velocity=110 time=8
note_on channel=0 note=84 velocity=110 time=1
note_on channel=0 note=72 velocity=0 time=35
note_on channel=0 note=84 velocity=0 time=1
control_change channel=0 control=10 value=78 time=11
note_on channel=0 note=75 velocity=82 time=1
note_on channel=0 note=75 velocity=0 time=14
note_on channel=0 note=70 velocity=101 time=9
note_on channel=0 note=82 velocity=101 time=1
note_on channel=0 note=70 velocity=0 time=15
note_on channel=0 note=82 velocity=0 time=1
note_on channel=0 note=75 velocity=85 time=8
note_on channel=0 note=75 velocity=0 time=14
control_change channel=0 control=10 value=82 time=9
note_on channel=0 note=78 velocity=79 time=1
note_on channel=0 note=78 velocity=0 time=16
note_on channel=0 note=84 velocity=107 time=8
note_on channel=0 note=72 velocity=107 time=0
note_on channel=0 note=72 velocity=0 time=37
note_on channel=0 note=84 velocity=0 time=0
control_change channel=0 control=10 value=78 time=9
note_on channel=0 note=75 velocity=81 time=1
note_on channel=0 note=75 velocity=0 time=14
note_on channel=0 note=82 velocity=91 time=9
note_on channel=0 note=70 velocity=91 time=1
note_on channel=0 note=82 velocity=0 time=31
note_on channel=0 note=70 velocity=0 time=1
control_change channel=0 control=10 value=82 time=15
note_on channel=0 note=73 velocity=110 time=1
note_on channel=0 note=85 velocity=110 time=0
note_on channel=0 note=76 velocity=101 time=1
note_on channel=0 note=85 velocity=0 time=35
note_on channel=0 note=73 velocity=0 time=0
note_on channel=0 note=76 velocity=0 time=1
note_on channel=0 note=85 velocity=107 time=10
note_on channel=0 note=76 velocity=98 time=1
note_on channel=0 note=73 velocity=107 time=1
note_on channel=0 note=85 velocity=0 time=30
note_on channel=0 note=76 velocity=0 time=1
note_on channel=0 note=73 velocity=0 time=1
note_on channel=0 note=76 velocity=93 time=16
note_on channel=0 note=72 velocity=100 time=0
note_on channel=0 note=84 velocity=103 time=0
note_on channel=0 note=84 velocity=0 time=36
note_on channel=0 note=72 velocity=0 time=0
note_on channel=0 note=76 velocity=0 time=0
note_on channel=0 note=76 velocity=90 time=10
note_on channel=0 note=82 velocity=90 time=1
note_on channel=0 note=70 velocity=90 time=1
note_on channel=0 note=76 velocity=0 time=30
note_on channel=0 note=82 velocity=0 time=1
note_on channel=0 note=70 velocity=0 time=1
control_change channel=0 control=10 value=74 time=15
note_on channel=0 note=77 velocity=84 time=1
note_on channel=0 note=68 velocity=84 time=0
note_on channel=0 note=68 velocity=0 time=18
note_on channel=0 note=77 velocity=0 time=1
note_on channel=0 note=73 velocity=85 time=6
note_on channel=0 note=73 velocity=0 time=14
control_change channel=0 control=10 value=78 time=8
note_on channel=0 note=75 velocity=82 time=1
note_on channel=0 note=75 velocity=0 time=16
note_on channel=0 note=78 velocity=93 time=9
note_on channel=0 note=70 velocity=93 time=0
note_on channel=0 note=70 velocity=0 time=32
note_on channel=0 note=78 velocity=0 time=0
control_change channel=0 control=10 value=72 time=14
note_on channel=0 note=70 velocity=83 time=1
note_on channel=0 note=70 velocity=0 time=16
note_on channel=0 note=77 velocity=90 time=6
note_on channel=0 note=68 velocity=90 time=1
note_on channel=0 note=77 velocity=0 time=31
note_on channel=0 note=68 velocity=0 time=1
note_on channel=0 note=67 velocity=92 time=16
note_on channel=0 note=77 velocity=92 time=1
note_on channel=0 note=67 velocity=0 time=17
note_on channel=0 note=77 velocity=0 time=1
note_on channel=0 note=73 velocity=83 time=6
note_on channel=0 note=73 velocity=0 time=14
control_change channel=0 control=10 value=78 time=7
note_on channel=0 note=75 velocity=86 time=1
note_on channel=0 note=75 velocity=0 time=16
control_change channel=0 control=10 value=73 time=8
note_on channel=0 note=66 velocity=98 time=1
note_on channel=0 note=77 velocity=98 time=1
note_on channel=0 note=66 velocity=0 time=31
note_on channel=0 note=77 velocity=0 time=1
note_on channel=0 note=72 velocity=82 time=17
note_on channel=0 note=72 velocity=0 time=14
note_on channel=0 note=75 velocity=90 time=7
note_on channel=0 note=66 velocity=90 time=0
note_on channel=0 note=66 velocity=0 time=16
note_on channel=0 note=75 velocity=0 time=0
note_on channel=0 note=65 velocity=87 time=10
note_on channel=0 note=73 velocity=87 time=1
note_on channel=0 note=65 velocity=0 time=31
note_on channel=0 note=73 velocity=0 time=1
control_change channel=0 control=10 value=77 time=13
note_on channel=0 note=68 velocity=95 time=1
note_on channel=0 note=80 velocity=95 time=2
note_on channel=0 note=68 velocity=0 time=30
note_on channel=0 note=80 velocity=0 time=2
control_change channel=0 control=10 value=81 time=13
note_on channel=0 note=77 velocity=80 time=1
note_on channel=0 note=77 velocity=0 time=16
control_change channel=0 control=10 value=77 time=6
note_on channel=0 note=80 velocity=93 time=1
note_on channel=0 note=68 velocity=93 time=1
control_change channel=0 control=10 value=81 time=23
note_on channel=0 note=80 velocity=0 time=1
note_on channel=0 note=77 velocity=84 time=0
note_on channel=0 note=68 velocity=0 time=1
note_on channel=0 note=77 velocity=0 time=15
control_change channel=0 control=10 value=77 time=7
note_on channel=0 note=68 velocity=93 time=1
note_on channel=0 note=80 velocity=93 time=1
note_on channel=0 note=68 velocity=0 time=21
note_on channel=0 note=80 velocity=0 time=1
control_change channel=0 control=10 value=81 time=0
note_on channel=0 note=77 velocity=86 time=1
note_on channel=0 note=77 velocity=0 time=16
control_change channel=0 control=10 value=75 time=6
note_on channel=0 note=80 velocity=98 time=1
note_on channel=0 note=75 velocity=98 time=1
note_on channel=0 note=72 velocity=98 time=0
note_on channel=0 note=68 velocity=107 time=1
note_on channel=0 note=68 velocity=0 time=61
note_on channel=0 note=80 velocity=0 time=4
note_on channel=0 note=72 velocity=0 time=1
note_on channel=0 note=75 velocity=0 time=0
note_on channel=0 note=70 velocity=103 time=5
note_on channel=0 note=75 velocity=92 time=1
note_on channel=0 note=72 velocity=92 time=0
note_on channel=0 note=80 velocity=92 time=1
note_on channel=0 note=72 velocity=0 time=38
note_on channel=0 note=70 velocity=0 time=0
note_on channel=0 note=75 velocity=0 time=0
note_on channel=0 note=80 velocity=0 time=1
note_on channel=0 note=75 velocity=87 time=7
note_on channel=0 note=72 velocity=87 time=2
note_on channel=0 note=75 velocity=0 time=14
note_on channel=0 note=72 velocity=0 time=2
note_on channel=0 note=70 velocity=92 time=5
note_on channel=0 note=70 velocity=0 time=32
note_on channel=0 note=75 velocity=98 time=17
note_on channel=0 note=80 velocity=98 time=0
note_on channel=0 note=68 velocity=107 time=0
note_on channel=0 note=72 velocity=98 time=1
note_on channel=0 note=68 velocity=0 time=60
note_on channel=0 note=75 velocity=0 time=6
note_on channel=0 note=80 velocity=0 time=0
note_on channel=0 note=72 velocity=0 time=1
note_on channel=0 note=75 velocity=94 time=4
note_on channel=0 note=80 velocity=90 time=0
note_on channel=0 note=70 velocity=104 time=1
note_on channel=0 note=72 velocity=94 time=1
note_on channel=0 note=80 velocity=0 time=37
note_on channel=0 note=75 velocity=0 time=0
note_on channel=0 note=70 velocity=0 time=1
note_on channel=0 note=72 velocity=0 time=1
note_on channel=0 note=75 velocity=85 time=10
note_on channel=0 note=72 velocity=85 time=0
note_on channel=0 note=72 velocity=0 time=16
note_on channel=0 note=75 velocity=0 time=0
note_on channel=0 note=70 velocity=87 time=6
note_on channel=0 note=70 velocity=0 time=19
note_on channel=0 note=72 velocity=84 time=4
note_on channel=0 note=75 velocity=84 time=2
note_on channel=0 note=72 velocity=0 time=14
note_on channel=0 note=75 velocity=0 time=2
control_change channel=0 control=10 value=69 time=4
note_on channel=0 note=68 velocity=87 time=1
note_on channel=0 note=68 velocity=0 time=18
control_change channel=0 control=10 value=75 time=7
note_on channel=0 note=73 velocity=79 time=1
note_on channel=0 note=73 velocity=0 time=14
note_on channel=0 note=70 velocity=82 time=10
note_on channel=0 note=70 velocity=0 time=16
note_on channel=0 note=73 velocity=86 time=9
note_on channel=0 note=73 velocity=0 time=14
control_change channel=0 control=10 value=81 time=8
note_on channel=0 note=77 velocity=94 time=1
note_on channel=0 note=77 velocity=0 time=16
control_change channel=0 control=10 value=69 time=6
note_on channel=0 note=68 velocity=87 time=1
note_on channel=0 note=68 velocity=0 time=14
control_change channel=0 control=10 value=75 time=8
note_on channel=0 note=73 velocity=80 time=1
note_on channel=0 note=73 velocity=0 time=16
control_change channel=0 control=10 value=81 time=10
note_on channel=0 note=77 velocity=89 time=1
note_on channel=0 note=77 velocity=0 time=14
control_change channel=0 control=10 value=72 time=8
note_on channel=0 note=70 velocity=82 time=1
note_on channel=0 note=70 velocity=0 time=18
note_on channel=0 note=73 velocity=79 time=5
note_on channel=0 note=73 velocity=0 time=14
control_change channel=0 control=10 value=81 time=9
note_on channel=0 note=77 velocity=92 time=1
note_on channel=0 note=77 velocity=0 time=16
control_change channel=0 control=10 value=69 time=7
note_on channel=0 note=68 velocity=87 time=1
note_on channel=0 note=68 velocity=0 time=32
control_change channel=0 control=10 value=81 time=16
note_on channel=0 note=77 velocity=94 time=1
note_on channel=0 note=77 velocity=0 time=14
control_change channel=0 control=10 value=72 time=9
note_on channel=0 note=70 velocity=87 time=1
note_on channel=0 note=70 velocity=0 time=18
control_change channel=0 control=10 value=81 time=4
note_on channel=0 note=77 velocity=96 time=1
note_on channel=0 note=77 velocity=0 time=15
control_change channel=0 control=10 value=75 time=8
note_on channel=0 note=80 velocity=99 time=1
note_on channel=0 note=75 velocity=99 time=0
note_on channel=0 note=72 velocity=99 time=1
note_on channel=0 note=68 velocity=108 time=0
note_on channel=0 note=68 velocity=0 time=61
note_on channel=0 note=80 velocity=0 time=5
note_on channel=0 note=75 velocity=0 time=0
note_on channel=0 note=72 velocity=0 time=1
note_on channel=0 note=75 velocity=93 time=5
note_on channel=0 note=70 velocity=103 time=0
note_on channel=0 note=72 velocity=93 time=1
note_on channel=0 note=80 velocity=92 time=0
note_on channel=0 note=70 velocity=0 time=39
note_on channel=0 note=75 velocity=0 time=0
note_on channel=0 note=72 velocity=0 time=1
note_on channel=0 note=80 velocity=0 time=0
note_on channel=0 note=75 velocity=96 time=8
note_on channel=0 note=72 velocity=96 time=0
note_on channel=0 note=72 velocity=0 time=16
note_on channel=0 note=75 velocity=0 time=0
note_on channel=0 note=70 velocity=105 time=5
note_on channel=0 note=70 velocity=0 time=32
note_on channel=0 note=80 velocity=95 time=17
note_on channel=0 note=72 velocity=95 time=0
note_on channel=0 note=75 velocity=95 time=1
note_on channel=0 note=68 velocity=105 time=0
note_on channel=0 note=68 velocity=0 time=61
note_on channel=0 note=80 velocity=0 time=5
note_on channel=0 note=72 velocity=0 time=0
note_on channel=0 note=75 velocity=0 time=1
note_on channel=0 note=75 velocity=95 time=5
note_on channel=0 note=70 velocity=105 time=0
note_on channel=0 note=80 velocity=93 time=0
note_on channel=0 note=72 velocity=95 time=1
note_on channel=0 note=80 velocity=0 time=39
note_on channel=0 note=75 velocity=0 time=0
note_on channel=0 note=70 velocity=0 time=0
note_on channel=0 note=72 velocity=0 time=1
note_on channel=0 note=72 velocity=93 time=6
note_on channel=0 note=75 velocity=93 time=2
note_on channel=0 note=72 velocity=0 time=14
note_on channel=0 note=75 velocity=0 time=2
note_on channel=0 note=70 velocity=100 time=5
note_on channel=0 note=70 velocity=0 time=19
note_on channel=0 note=75 velocity=93 time=6
note_on channel=0 note=72 velocity=93 time=2
note_on channel=0 note=75 velocity=0 time=14
note_on channel=0 note=72 velocity=0 time=2
control_change channel=0 control=10 value=69 time=6
note_on channel=0 note=68 velocity=85 time=1
note_on channel=0 note=68 velocity=0 time=18
control_change channel=0 control=10 value=75 time=5
note_on channel=0 note=73 velocity=79 time=1
note_on channel=0 note=73 velocity=0 time=14
note_on channel=0 note=70 velocity=87 time=8
note_on channel=0 note=70 velocity=0 time=16
note_on channel=0 note=73 velocity=80 time=10
note_on channel=0 note=73 velocity=0 time=14
control_change channel=0 control=10 value=81 time=7
note_on channel=0 note=77 velocity=94 time=1
note_on channel=0 note=77 velocity=0 time=16
control_change channel=0 control=10 value=69 time=9
note_on channel=0 note=68 velocity=87 time=1
note_on channel=0 note=68 velocity=0 time=14
control_change channel=0 control=10 value=75 time=8
note_on channel=0 note=73 velocity=79 time=1
note_on channel=0 note=73 velocity=0 time=16
control_change channel=0 control=10 value=81 time=8
note_on channel=0 note=77 velocity=92 time=1
note_on channel=0 note=77 velocity=0 time=14
control_change channel=0 control=10 value=72 time=7
note_on channel=0 note=70 velocity=84 time=1
note_on channel=0 note=70 velocity=0 time=18
note_on channel=0 note=73 velocity=80 time=9
note_on channel=0 note=73 velocity=0 time=14
control_change channel=0 control=10 value=81 time=6
note_on channel=0 note=77 velocity=91 time=1
note_on channel=0 note=77 velocity=0 time=16
control_change channel=0 control=10 value=69 time=9
note_on channel=0 note=68 velocity=90 time=1
note_on channel=0 note=68 velocity=0 time=32
control_change channel=0 control=10 value=81 time=14
note_on channel=0 note=77 velocity=93 time=1
note_on channel=0 note=77 velocity=0 time=16
control_change channel=0 control=10 value=70 time=6
note_on channel=0 note=69 velocity=95 time=1
note_on channel=0 note=69 velocity=0 time=18
control_change channel=0 control=10 value=79 time=6
note_on channel=0 note=77 velocity=98 time=1
note_on channel=0 note=75 velocity=87 time=1
note_on channel=0 note=77 velocity=0 time=15
note_on channel=0 note=75 velocity=0 time=1
note_on channel=0 note=70 velocity=107 time=6
note_on channel=0 note=74 velocity=98 time=1
note_on channel=0 note=82 velocity=98 time=0
note_on channel=0 note=77 velocity=92 time=0
note_on channel=0 note=70 velocity=0 time=47
note_on channel=0 note=74 velocity=0 time=1
note_on channel=0 note=82 velocity=0 time=0
note_on channel=0 note=77 velocity=0 time=0
note_on channel=0 note=77 velocity=96 time=24
note_on channel=0 note=72 velocity=105 time=0
note_on channel=0 note=82 velocity=96 time=1
note_on channel=0 note=74 velocity=96 time=1
note_on channel=0 note=72 velocity=0 time=30
note_on channel=0 note=77 velocity=0 time=0
note_on channel=0 note=82 velocity=0 time=1
note_on channel=0 note=74 velocity=0 time=1
note_on channel=0 note=77 velocity=99 time=15
note_on channel=0 note=74 velocity=99 time=1
note_on channel=0 note=77 velocity=0 time=15
note_on channel=0 note=74 velocity=0 time=1
control_change channel=0 control=10 value=74 time=5
note_on channel=0 note=72 velocity=103 time=1
note_on channel=0 note=72 velocity=0 time=32
control_change channel=0 control=10 value=78 time=14
note_on channel=0 note=82 velocity=97 time=1
note_on channel=0 note=70 velocity=106 time=0
note_on channel=0 note=74 velocity=97 time=1
note_on channel=0 note=77 velocity=97 time=0
note_on channel=0 note=70 velocity=0 time=47
note_on channel=0 note=82 velocity=0 time=0
note_on channel=0 note=74 velocity=0 time=1
note_on channel=0 note=77 velocity=0 time=0
note_on channel=0 note=72 velocity=106 time=25
note_on channel=0 note=82 velocity=97 time=1
note_on channel=0 note=77 velocity=97 time=0
note_on channel=0 note=74 velocity=97 time=0
note_on channel=0 note=72 velocity=0 time=31
note_on channel=0 note=82 velocity=0 time=1
note_on channel=0 note=77 velocity=0 time=0
note_on channel=0 note=74 velocity=0 time=0
note_on channel=0 note=74 velocity=89 time=15
note_on channel=0 note=77 velocity=89 time=0
note_on channel=0 note=77 velocity=0 time=16
note_on channel=0 note=74 velocity=0 time=0
control_change channel=0 control=10 value=74 time=7
note_on channel=0 note=72 velocity=93 time=1
note_on channel=0 note=72 velocity=0 time=18
control_change channel=0 control=10 value=78 time=6
note_on channel=0 note=74 velocity=92 time=1
note_on channel=0 note=77 velocity=92 time=0
note_on channel=0 note=77 velocity=0 time=16
note_on channel=0 note=74 velocity=0 time=0
note_on channel=0 note=75 velocity=80 time=31
note_on channel=0 note=75 velocity=0 time=14
note_on channel=0 note=82 velocity=101 time=8
note_on channel=0 note=70 velocity=101 time=1
note_on channel=0 note=82 velocity=0 time=15
note_on channel=0 note=70 velocity=0 time=1
note_on channel=0 note=75 velocity=84 time=10
note_on channel=0 note=75 velocity=0 time=14
control_change channel=0 control=10 value=82 time=8
note_on channel=0 note=78 velocity=81 time=1
note_on channel=0 note=78 velocity=0 time=17
note_on channel=0 note=72 velocity=108 time=6
note_on channel=0 note=84 velocity=108 time=1
note_on channel=0 note=72 velocity=0 time=38
note_on channel=0 note=84 velocity=0 time=1
control_change channel=0 control=10 value=78 time=9
note_on channel=0 note=75 velocity=82 time=1
note_on channel=0 note=75 velocity=0 time=14
note_on channel=0 note=70 velocity=103 time=7
note_on channel=0 note=82 velocity=103 time=2
note_on channel=0 note=70 velocity=0 time=16
note_on channel=0 note=82 velocity=0 time=2
note_on channel=0 note=75 velocity=85 time=6
note_on channel=0 note=75 velocity=0 time=14
control_change channel=0 control=10 value=82 time=9
note_on channel=0 note=78 velocity=79 time=1
note_on channel=0 note=78 velocity=0 time=16
note_on channel=0 note=72 velocity=107 time=7
note_on channel=0 note=84 velocity=107 time=0
note_on channel=0 note=84 velocity=0 time=39
note_on channel=0 note=72 velocity=0 time=0
control_change channel=0 control=10 value=78 time=8
note_on channel=0 note=75 velocity=81 time=1
note_on channel=0 note=75 velocity=0 time=16
note_on channel=0 note=70 velocity=91 time=7
note_on channel=0 note=82 velocity=91 time=1
note_on channel=0 note=70 velocity=0 time=31
note_on channel=0 note=82 velocity=0 time=1
control_change channel=0 control=10 value=82 time=14
note_on channel=0 note=73 velocity=100 time=1
note_on channel=0 note=85 velocity=107 time=1
note_on channel=0 note=76 velocity=95 time=0
note_on channel=0 note=73 velocity=0 time=42
note_on channel=0 note=76 velocity=0 time=1
note_on channel=0 note=85 velocity=0 time=0
note_on channel=0 note=73 velocity=92 time=6
note_on channel=0 note=85 velocity=101 time=0
note_on channel=0 note=76 velocity=92 time=0
note_on channel=0 note=76 velocity=0 time=30
note_on channel=0 note=85 velocity=0 time=0
note_on channel=0 note=73 velocity=0 time=0
note_on channel=0 note=76 velocity=89 time=16
note_on channel=0 note=72 velocity=89 time=2
note_on channel=0 note=84 velocity=89 time=0
note_on channel=0 note=76 velocity=0 time=40
note_on channel=0 note=84 velocity=0 time=2
note_on channel=0 note=72 velocity=0 time=0
note_on channel=0 note=76 velocity=86 time=5
note_on channel=0 note=82 velocity=86 time=1
note_on channel=0 note=70 velocity=86 time=0
note_on channel=0 note=76 velocity=0 time=31
note_on channel=0 note=70 velocity=0 time=1
note_on channel=0 note=82 velocity=0 time=0
control_change channel=0 control=10 value=74 time=13
note_on channel=0 note=68 velocity=80 time=1
note_on channel=0 note=77 velocity=80 time=0
note_on channel=0 note=77 velocity=0 time=18
note_on channel=0 note=68 velocity=0 time=0
note_on channel=0 note=73 velocity=81 time=8
note_on channel=0 note=73 velocity=0 time=18
control_change channel=0 control=10 value=78 time=3
note_on channel=0 note=75 velocity=79 time=1
note_on channel=0 note=75 velocity=0 time=15
note_on channel=0 note=70 velocity=91 time=10
note_on channel=0 note=78 velocity=97 time=1
note_on channel=0 note=70 velocity=0 time=36
note_on channel=0 note=78 velocity=0 time=1
control_change channel=0 control=10 value=72 time=11
note_on channel=0 note=70 velocity=80 time=1
note_on channel=0 note=70 velocity=0 time=16
note_on channel=0 note=68 velocity=87 time=5
note_on channel=0 note=77 velocity=87 time=1
note_on channel=0 note=68 velocity=0 time=31
note_on channel=0 note=77 velocity=0 time=1
note_on channel=0 note=77 velocity=90 time=15
note_on channel=0 note=67 velocity=90 time=0
note_on channel=0 note=67 velocity=0 time=20
note_on channel=0 note=77 velocity=0 time=0
note_on channel=0 note=73 velocity=81 time=5
note_on channel=0 note=73 velocity=0 time=15
control_change channel=0 control=10 value=78 time=7
note_on channel=0 note=75 velocity=84 time=1
note_on channel=0 note=75 velocity=0 time=18
control_change channel=0 control=10 value=73 time=8
note_on channel=0 note=66 velocity=91 time=1
note_on channel=0 note=77 velocity=100 time=0
note_on channel=0 note=77 velocity=0 time=43
note_on channel=0 note=66 velocity=0 time=0
note_on channel=0 note=72 velocity=81 time=5
note_on channel=0 note=72 velocity=0 time=15
note_on channel=0 note=75 velocity=89 time=6
note_on channel=0 note=66 velocity=89 time=1
note_on channel=0 note=75 velocity=0 time=17
note_on channel=0 note=66 velocity=0 time=1
note_on channel=0 note=65 velocity=86 time=7
note_on channel=0 note=73 velocity=86 time=1
note_on channel=0 note=65 velocity=0 time=31
note_on channel=0 note=73 velocity=0 time=1
note_on channel=0 note=73 velocity=81 time=15
note_on channel=0 note=73 velocity=0 time=18
control_change channel=0 control=10 value=81 time=4
note_on channel=0 note=77 velocity=79 time=1
note_on channel=0 note=77 velocity=0 time=22
control_change channel=0 control=10 value=85 time=3
note_on channel=0 note=80 velocity=87 time=1
note_on channel=0 note=80 velocity=0 time=18
note_on channel=0 note=73 velocity=92 time=3
note_on channel=0 note=85 velocity=102 time=1
note_on channel=0 note=73 velocity=0 time=42
note_on channel=0 note=85 velocity=0 time=1
control_change channel=0 control=10 value=77 time=51
note_on channel=0 note=80 velocity=97 time=1
note_on channel=0 note=68 velocity=76 time=2
note_on channel=0 note=68 velocity=0 time=38
note_on channel=0 note=80 velocity=0 time=2
note_on channel=0 note=68 velocity=63 time=8
note_on channel=0 note=77 velocity=84 time=0
note_on channel=0 note=77 velocity=0 time=32
note_on channel=0 note=68 velocity=0 time=0
note_on channel=0 note=80 velocity=100 time=14
note_on channel=0 note=68 velocity=84 time=1
note_on channel=0 note=68 velocity=0 time=37
note_on channel=0 note=80 velocity=0 time=3
note_on channel=0 note=77 velocity=85 time=8
note_on channel=0 note=68 velocity=64 time=1
note_on channel=0 note=77 velocity=0 time=31
note_on channel=0 note=68 velocity=0 time=1
control_change channel=0 control=10 value=82 time=13
note_on channel=0 note=80 velocity=79 time=1
note_on channel=0 note=77 velocity=79 time=2
note_on channel=0 note=80 velocity=0 time=35
note_on channel=0 note=77 velocity=0 time=2
note_on channel=0 note=77 velocity=71 time=11
note_on channel=0 note=82 velocity=83 time=0
note_on channel=0 note=82 velocity=0 time=16
note_on channel=0 note=77 velocity=0 time=0
control_change channel=0 control=10 value=86 time=6
note_on channel=0 note=77 velocity=73 time=1
note_on channel=0 note=84 velocity=104 time=1
note_on channel=0 note=77 velocity=0 time=31
note_on channel=0 note=84 velocity=0 time=1
note_on channel=0 note=82 velocity=93 time=15
note_on channel=0 note=82 velocity=0 time=18
note_on channel=0 note=80 velocity=81 time=6
note_on channel=0 note=80 velocity=0 time=23
control_change channel=0 control=10 value=81 time=2
note_on channel=0 note=77 velocity=73 time=1
note_on channel=0 note=77 velocity=0 time=16
note_on channel=0 note=75 velocity=79 time=7
note_on channel=0 note=75 velocity=0 time=22
note_on channel=0 note=77 velocity=89 time=1
note_on channel=0 note=77 velocity=0 time=41
control_change channel=0 control=10 value=72 time=7
note_on channel=0 note=68 velocity=73 time=1
note_on channel=0 note=72 velocity=73 time=1
note_on channel=0 note=68 velocity=0 time=87
note_on channel=0 note=72 velocity=0 time=1
control_change channel=0 control=10 value=78 time=55
note_on channel=0 note=75 velocity=81 time=1
note_on channel=0 note=75 velocity=0 time=19
control_change channel=0 control=10 value=74 time=3
note_on channel=0 note=68 velocity=81 time=1
note_on channel=0 note=77 velocity=88 time=0
note_on channel=0 note=77 velocity=0 time=17
note_on channel=0 note=68 velocity=0 time=0
note_on channel=0 note=72 velocity=78 time=6
note_on channel=0 note=72 velocity=0 time=17
control_change channel=0 control=10 value=78 time=6
note_on channel=0 note=75 velocity=69 time=1
note_on channel=0 note=75 velocity=0 time=20
control_change channel=0 control=10 value=74 time=3
note_on channel=0 note=68 velocity=83 time=1
note_on channel=0 note=77 velocity=95 time=1
note_on channel=0 note=68 velocity=0 time=31
note_on channel=0 note=77 velocity=0 time=1
note_on channel=0 note=72 velocity=68 time=16
note_on channel=0 note=72 velocity=0 time=19
note_on channel=0 note=75 velocity=92 time=3
note_on channel=0 note=67 velocity=92 time=2
note_on channel=0 note=75 velocity=0 time=30
note_on channel=0 note=67 velocity=0 time=2
control_change channel=0 control=10 value=81 time=15
note_on channel=0 note=77 velocity=68 time=1
note_on channel=0 note=77 velocity=0 time=16
control_change channel=0 control=10 value=69 time=6
note_on channel=0 note=67 velocity=83 time=1
note_on channel=0 note=70 velocity=83 time=0
note_on channel=0 note=70 velocity=0 time=88
note_on channel=0 note=67 velocity=0 time=0
control_change channel=0 control=10 value=75 time=55
note_on channel=0 note=73 velocity=77 time=1
note_on channel=0 note=73 velocity=0 time=20
note_on channel=0 note=67 velocity=81 time=3
note_on channel=0 note=77 velocity=81 time=2
note_on channel=0 note=67 velocity=0 time=19
note_on channel=0 note=77 velocity=0 time=2
note_on channel=0 note=70 velocity=73 time=3
note_on channel=0 note=70 velocity=0 time=18
note_on channel=0 note=73 velocity=69 time=6
note_on channel=0 note=73 velocity=0 time=20
note_on channel=0 note=67 velocity=83 time=4
note_on channel=0 note=77 velocity=83 time=1
note_on channel=0 note=67 velocity=0 time=31
note_on channel=0 note=77 velocity=0 time=1
note_on channel=0 note=68 velocity=68 time=15
note_on channel=0 note=72 velocity=85 time=1
note_on channel=0 note=68 velocity=0 time=35
note_on channel=0 note=72 velocity=0 time=1
note_on channel=0 note=75 velocity=76 time=10
note_on channel=0 note=75 velocity=0 time=17
note_on channel=0 note=77 velocity=90 time=7
note_on channel=0 note=68 velocity=90 time=1
note_on channel=0 note=77 velocity=0 time=17
note_on channel=0 note=68 velocity=0 time=1
note_on channel=0 note=72 velocity=68 time=5
note_on channel=0 note=72 velocity=0 time=17
note_on channel=0 note=75 velocity=72 time=6
note_on channel=0 note=75 velocity=0 time=20
note_on channel=0 note=77 velocity=80 time=5
note_on channel=0 note=68 velocity=80 time=0
note_on channel=0 note=68 velocity=0 time=37
note_on channel=0 note=77 velocity=0 time=0
note_on channel=0 note=68 velocity=79 time=11
note_on channel=0 note=72 velocity=96 time=2
note_on channel=0 note=68 velocity=0 time=38
note_on channel=0 note=72 velocity=0 time=2
note_on channel=0 note=75 velocity=73 time=7
note_on channel=0 note=75 velocity=0 time=18
note_on channel=0 note=68 velocity=81 time=4
note_on channel=0 note=77 velocity=81 time=2
note_on channel=0 note=68 velocity=0 time=16
note_on channel=0 note=77 velocity=0 time=2
note_on channel=0 note=72 velocity=69 time=7
note_on channel=0 note=72 velocity=0 time=17
note_on channel=0 note=75 velocity=69 time=4
note_on channel=0 note=75 velocity=0 time=20
note_on channel=0 note=68 velocity=81 time=5
note_on channel=0 note=77 velocity=93 time=2
note_on channel=0 note=68 velocity=0 time=30
note_on channel=0 note=77 velocity=0 time=2
note_on channel=0 note=75 velocity=72 time=14
note_on channel=0 note=75 velocity=0 time=16
note_on channel=0 note=68 velocity=80 time=7
note_on channel=0 note=80 velocity=109 time=0
note_on channel=0 note=68 velocity=0 time=40
note_on channel=0 note=80 velocity=0 time=3
note_on channel=0 note=77 velocity=73 time=7
note_on channel=0 note=68 velocity=69 time=0
note_on channel=0 note=68 velocity=0 time=32
note_on channel=0 note=77 velocity=0 time=0
note_on channel=0 note=68 velocity=76 time=16
note_on channel=0 note=80 velocity=97 time=0
note_on channel=0 note=68 velocity=0 time=40
note_on channel=0 note=80 velocity=0 time=3
note_on channel=0 note=68 velocity=68 time=3
note_on channel=0 note=77 velocity=68 time=1
note_on channel=0 note=68 velocity=0 time=31
note_on channel=0 note=77 velocity=0 time=1
control_change channel=0 control=10 value=82 time=14
note_on channel=0 note=77 velocity=72 time=1
note_on channel=0 note=80 velocity=72 time=0
note_on channel=0 note=77 velocity=0 time=39
note_on channel=0 note=80 velocity=0 time=1
note_on channel=0 note=77 velocity=67 time=9
note_on channel=0 note=82 velocity=67 time=0
note_on channel=0 note=77 velocity=0 time=19
note_on channel=0 note=82 velocity=0 time=1
note_on channel=0 note=77 velocity=83 time=4
note_on channel=0 note=84 velocity=103 time=2
note_on channel=0 note=77 velocity=0 time=38
note_on channel=0 note=84 velocity=0 time=2
control_change channel=0 control=10 value=87 time=6
note_on channel=0 note=82 velocity=79 time=1
note_on channel=0 note=82 velocity=0 time=17
note_on channel=0 note=80 velocity=71 time=6
note_on channel=0 note=80 velocity=0 time=20
control_change channel=0 control=10 value=81 time=5
note_on channel=0 note=77 velocity=68 time=1
note_on channel=0 note=77 velocity=0 time=16
control_change channel=0 control=10 value=85 time=5
note_on channel=0 note=80 velocity=91 time=1
note_on channel=0 note=80 velocity=0 time=38
control_change channel=0 control=10 value=81 time=10
note_on channel=0 note=77 velocity=84 time=1
note_on channel=0 note=77 velocity=0 time=32
note_on channel=0 note=75 velocity=79 time=16
note_on channel=0 note=75 velocity=0 time=20
control_change channel=0 control=10 value=85 time=4
note_on channel=0 note=80 velocity=99 time=1
note_on channel=0 note=80 velocity=0 time=32
control_change channel=0 control=10 value=72 time=15
note_on channel=0 note=68 velocity=76 time=1
note_on channel=0 note=72 velocity=83 time=0
note_on channel=0 note=72 velocity=0 time=41
note_on channel=0 note=68 velocity=0 time=0
control_change channel=0 control=10 value=78 time=4
note_on channel=0 note=75 velocity=70 time=1
note_on channel=0 note=75 velocity=0 time=17
control_change channel=0 control=10 value=74 time=5
note_on channel=0 note=68 velocity=72 time=1
note_on channel=0 note=77 velocity=81 time=1
note_on channel=0 note=68 velocity=0 time=19
note_on channel=0 note=77 velocity=0 time=1
note_on channel=0 note=72 velocity=68 time=5
note_on channel=0 note=72 velocity=0 time=17
control_change channel=0 control=10 value=78 time=6
note_on channel=0 note=75 velocity=72 time=1
note_on channel=0 note=75 velocity=0 time=20
control_change channel=0 control=10 value=74 time=4
note_on channel=0 note=77 velocity=84 time=1
note_on channel=0 note=68 velocity=72 time=0
note_on channel=0 note=68 velocity=0 time=37
note_on channel=0 note=77 velocity=0 time=0
control_change channel=0 control=10 value=66 time=8
note_on channel=0 note=65 velocity=92 time=1
note_on channel=0 note=68 velocity=77 time=1
note_on channel=0 note=65 velocity=0 time=39
note_on channel=0 note=68 velocity=0 time=1
control_change channel=0 control=10 value=72 time=8
note_on channel=0 note=70 velocity=82 time=1
note_on channel=0 note=70 velocity=0 time=20
control_change channel=0 control=10 value=66 time=2
note_on channel=0 note=65 velocity=73 time=1
note_on channel=0 note=68 velocity=63 time=0
note_on channel=0 note=68 velocity=0 time=32
note_on channel=0 note=65 velocity=0 time=0
note_on channel=0 note=64 velocity=80 time=14
note_on channel=0 note=68 velocity=71 time=2
note_on channel=0 note=64 velocity=0 time=35
note_on channel=0 note=68 velocity=0 time=2
note_on channel=0 note=70 velocity=83 time=10
note_on channel=0 note=64 velocity=83 time=0
note_on channel=0 note=64 velocity=0 time=20
note_on channel=0 note=70 velocity=0 time=0
note_on channel=0 note=63 velocity=100 time=6
note_on channel=0 note=68 velocity=84 time=0
note_on channel=0 note=68 velocity=0 time=40
note_on channel=0 note=63 velocity=0 time=0
control_change channel=0 control=10 value=72 time=5
note_on channel=0 note=70 velocity=86 time=1
control_change channel=0 control=10 value=68 time=23
note_on channel=0 note=63 velocity=80 time=1
note_on channel=0 note=72 velocity=80 time=1
note_on channel=0 note=70 velocity=0 time=1
note_on channel=0 note=63 velocity=0 time=18
note_on channel=0 note=72 velocity=0 time=1
note_on channel=0 note=68 velocity=72 time=3
note_on channel=0 note=68 velocity=0 time=18
control_change channel=0 control=10 value=72 time=4
note_on channel=0 note=70 velocity=79 time=1
note_on channel=0 note=70 velocity=0 time=20
control_change channel=0 control=10 value=68 time=4
note_on channel=0 note=63 velocity=80 time=1
note_on channel=0 note=72 velocity=80 time=1
note_on channel=0 note=63 velocity=0 time=37
note_on channel=0 note=72 velocity=0 time=1
control_change channel=0 control=10 value=64 time=9
note_on channel=0 note=62 velocity=95 time=1
note_on channel=0 note=68 velocity=77 time=1
note_on channel=0 note=62 velocity=0 time=35
note_on channel=0 note=68 velocity=0 time=1
control_change channel=0 control=10 value=72 time=9
note_on channel=0 note=70 velocity=72 time=1
note_on channel=0 note=70 velocity=0 time=18
control_change channel=0 control=10 value=68 time=6
note_on channel=0 note=62 velocity=83 time=1
note_on channel=0 note=72 velocity=83 time=0
note_on channel=0 note=72 velocity=0 time=19
note_on channel=0 note=62 velocity=0 time=0
note_on channel=0 note=68 velocity=73 time=4
note_on channel=0 note=68 velocity=0 time=19
note_on channel=0 note=70 velocity=84 time=29
note_on channel=0 note=61 velocity=84 time=2
note_on channel=0 note=70 velocity=0 time=30
note_on channel=0 note=61 velocity=0 time=2
control_change channel=0 control=10 value=62 time=13
note_on channel=0 note=63 velocity=74 time=1
note_on channel=0 note=63 velocity=0 time=16
note_on channel=0 note=68 velocity=90 time=8
note_on channel=0 note=60 velocity=90 time=1
note_on channel=0 note=68 velocity=0 time=40
note_on channel=0 note=60 velocity=0 time=1
control_change channel=0 control=10 value=70 time=4
note_on channel=0 note=75 velocity=98 time=1
note_on channel=0 note=63 velocity=98 time=2
note_on channel=0 note=75 velocity=0 time=25
note_on channel=0 note=63 velocity=0 time=2
note_on channel=0 note=75 velocity=105 time=20
note_on channel=0 note=63 velocity=105 time=1
note_on channel=0 note=75 velocity=0 time=35
note_on channel=0 note=63 velocity=0 time=1
note_on channel=0 note=75 velocity=91 time=11
note_on channel=0 note=63 velocity=91 time=1
note_on channel=0 note=75 velocity=0 time=26
note_on channel=0 note=63 velocity=0 time=1
control_change channel=0 control=10 value=77 time=18
note_on channel=0 note=80 velocity=105 time=1
note_on channel=0 note=68 velocity=83 time=2
note_on channel=0 note=68 velocity=0 time=38
note_on channel=0 note=80 velocity=0 time=4
note_on channel=0 note=77 velocity=91 time=5
note_on channel=0 note=68 velocity=69 time=0
note_on channel=0 note=68 velocity=0 time=32
note_on channel=0 note=77 velocity=0 time=0
note_on channel=0 note=80 velocity=108 time=15
note_on channel=0 note=68 velocity=92 time=1
note_on channel=0 note=68 velocity=0 time=37
note_on channel=0 note=80 velocity=0 time=5
note_on channel=0 note=68 velocity=69 time=5
note_on channel=0 note=77 velocity=92 time=1
note_on channel=0 note=68 velocity=0 time=31
note_on channel=0 note=77 velocity=0 time=1
control_change channel=0 control=10 value=82 time=14
note_on channel=0 note=77 velocity=85 time=1
note_on channel=0 note=80 velocity=85 time=2
note_on channel=0 note=77 velocity=0 time=35
note_on channel=0 note=80 velocity=0 time=2
note_on channel=0 note=77 velocity=79 time=9
note_on channel=0 note=82 velocity=79 time=2
note_on channel=0 note=77 velocity=0 time=14
note_on channel=0 note=82 velocity=0 time=2
control_change channel=0 control=10 value=86 time=6
note_on channel=0 note=77 velocity=80 time=1
note_on channel=0 note=84 velocity=109 time=2
note_on channel=0 note=77 velocity=0 time=30
note_on channel=0 note=84 velocity=0 time=5
note_on channel=0 note=82 velocity=91 time=13
note_on channel=0 note=82 velocity=0 time=18
note_on channel=0 note=80 velocity=79 time=4
note_on channel=0 note=80 velocity=0 time=22
control_change channel=0 control=10 value=81 time=1
note_on channel=0 note=77 velocity=80 time=1
note_on channel=0 note=77 velocity=0 time=16
note_on channel=0 note=75 velocity=85 time=8
note_on channel=0 note=75 velocity=0 time=22
note_on channel=0 note=77 velocity=99 time=3
note_on channel=0 note=77 velocity=0 time=41
control_change channel=0 control=10 value=72 time=6
note_on channel=0 note=72 velocity=80 time=1
note_on channel=0 note=68 velocity=80 time=0
note_on channel=0 note=68 velocity=0 time=88
note_on channel=0 note=72 velocity=0 time=0
control_change channel=0 control=10 value=78 time=54
note_on channel=0 note=75 velocity=81 time=1
note_on channel=0 note=75 velocity=0 time=22
control_change channel=0 control=10 value=74 time=0
note_on channel=0 note=68 velocity=88 time=1
note_on channel=0 note=77 velocity=92 time=2
note_on channel=0 note=68 velocity=0 time=14
note_on channel=0 note=77 velocity=0 time=2
note_on channel=0 note=72 velocity=77 time=7
note_on channel=0 note=72 velocity=0 time=17
control_change channel=0 control=10 value=78 time=5
note_on channel=0 note=75 velocity=82 time=1
note_on channel=0 note=75 velocity=0 time=20
control_change channel=0 control=10 value=74 time=5
note_on channel=0 note=68 velocity=89 time=1
note_on channel=0 note=77 velocity=100 time=1
note_on channel=0 note=68 velocity=0 time=31
note_on channel=0 note=77 velocity=0 time=1
note_on channel=0 note=72 velocity=87 time=16
note_on channel=0 note=72 velocity=0 time=19
note_on channel=0 note=75 velocity=94 time=3
note_on channel=0 note=67 velocity=96 time=1
note_on channel=0 note=75 velocity=0 time=44
note_on channel=0 note=67 velocity=0 time=1
control_change channel=0 control=10 value=81 time=1
note_on channel=0 note=77 velocity=91 time=1
note_on channel=0 note=77 velocity=0 time=16
control_change channel=0 control=10 value=69 time=9
note_on channel=0 note=67 velocity=84 time=1
note_on channel=0 note=70 velocity=84 time=0
note_on channel=0 note=70 velocity=0 time=88
note_on channel=0 note=67 velocity=0 time=0
control_change channel=0 control=10 value=75 time=53
note_on channel=0 note=73 velocity=84 time=1
note_on channel=0 note=73 velocity=0 time=23
note_on channel=0 note=67 velocity=88 time=0
note_on channel=0 note=77 velocity=88 time=1
note_on channel=0 note=67 velocity=0 time=15
note_on channel=0 note=77 velocity=0 time=1
note_on channel=0 note=70 velocity=79 time=8
note_on channel=0 note=70 velocity=0 time=17
note_on channel=0 note=73 velocity=78 time=8
note_on channel=0 note=73 velocity=0 time=20
note_on channel=0 note=77 velocity=97 time=4
note_on channel=0 note=67 velocity=89 time=1
note_on channel=0 note=77 velocity=0 time=31
note_on channel=0 note=67 velocity=0 time=1
note_on channel=0 note=72 velocity=89 time=15
note_on channel=0 note=68 velocity=73 time=1
note_on channel=0 note=72 velocity=0 time=39
note_on channel=0 note=68 velocity=0 time=1
note_on channel=0 note=75 velocity=84 time=6
note_on channel=0 note=75 velocity=0 time=17
note_on channel=0 note=68 velocity=85 time=6
note_on channel=0 note=77 velocity=85 time=1
note_on channel=0 note=68 velocity=0 time=17
note_on channel=0 note=77 velocity=0 time=1
note_on channel=0 note=72 velocity=73 time=8
note_on channel=0 note=72 velocity=0 time=17
note_on channel=0 note=75 velocity=79 time=6
note_on channel=0 note=75 velocity=0 time=20
note_on channel=0 note=77 velocity=92 time=4
note_on channel=0 note=68 velocity=87 time=1
note_on channel=0 note=77 velocity=0 time=36
note_on channel=0 note=68 velocity=0 time=1
note_on channel=0 note=72 velocity=92 time=9
note_on channel=0 note=68 velocity=84 time=2
note_on channel=0 note=72 velocity=0 time=37
note_on channel=0 note=68 velocity=0 time=2
note_on channel=0 note=75 velocity=83 time=8
note_on channel=0 note=75 velocity=0 time=19
note_on channel=0 note=68 velocity=88 time=3
note_on channel=0 note=77 velocity=92 time=1
note_on channel=0 note=68 velocity=0 time=15
note_on channel=0 note=77 velocity=0 time=1
note_on channel=0 note=72 velocity=82 time=10
note_on channel=0 note=72 velocity=0 time=17
note_on channel=0 note=75 velocity=75 time=5
note_on channel=0 note=75 velocity=0 time=20
note_on channel=0 note=68 velocity=88 time=5
note_on channel=0 note=77 velocity=99 time=1
note_on channel=0 note=68 velocity=0 time=31
note_on channel=0 note=77 velocity=0 time=1
note_on channel=0 note=75 velocity=73 time=14
note_on channel=0 note=75 velocity=0 time=16
note_on channel=0 note=68 velocity=88 time=8
note_on channel=0 note=80 velocity=104 time=0
note_on channel=0 note=80 velocity=0 time=40
note_on channel=0 note=68 velocity=0 time=0
note_on channel=0 note=68 velocity=77 time=8
note_on channel=0 note=77 velocity=80 time=0
note_on channel=0 note=77 velocity=0 time=32
note_on channel=0 note=68 velocity=0 time=0
note_on channel=0 note=68 velocity=83 time=15
note_on channel=0 note=80 velocity=97 time=0
note_on channel=0 note=80 velocity=0 time=40
note_on channel=0 note=68 velocity=0 time=0
note_on channel=0 note=77 velocity=75 time=9
note_on channel=0 note=68 velocity=75 time=1
note_on channel=0 note=77 velocity=0 time=31
note_on channel=0 note=68 velocity=0 time=1
control_change channel=0 control=10 value=82 time=14
note_on channel=0 note=77 velocity=80 time=1
note_on channel=0 note=80 velocity=80 time=1
note_on channel=0 note=77 velocity=0 time=38
note_on channel=0 note=80 velocity=0 time=2
note_on channel=0 note=77 velocity=80 time=7
note_on channel=0 note=82 velocity=80 time=0
note_on channel=0 note=77 velocity=0 time=19
note_on channel=0 note=82 velocity=0 time=1
note_on channel=0 note=77 velocity=91 time=4
note_on channel=0 note=84 velocity=112 time=2
note_on channel=0 note=77 velocity=0 time=38
note_on channel=0 note=84 velocity=0 time=6
control_change channel=0 control=10 value=87 time=3
note_on channel=0 note=82 velocity=85 time=1
note_on channel=0 note=82 velocity=0 time=18
note_on channel=0 note=80 velocity=82 time=4
note_on channel=0 note=80 velocity=0 time=23
control_change channel=0 control=10 value=81 time=2
note_on channel=0 note=77 velocity=80 time=1
note_on channel=0 note=77 velocity=0 time=16
control_change channel=0 control=10 value=85 time=4
note_on channel=0 note=80 velocity=101 time=1
note_on channel=0 note=80 velocity=0 time=43
control_change channel=0 control=10 value=81 time=5
note_on channel=0 note=77 velocity=92 time=1
note_on channel=0 note=77 velocity=0 time=32
note_on channel=0 note=75 velocity=85 time=16
note_on channel=0 note=75 velocity=0 time=20
control_change channel=0 control=10 value=85 time=4
note_on channel=0 note=80 velocity=97 time=1
note_on channel=0 note=80 velocity=0 time=35
control_change channel=0 control=10 value=72 time=11
note_on channel=0 note=68 velocity=83 time=1
note_on channel=0 note=72 velocity=91 time=1
note_on channel=0 note=68 velocity=0 time=42
note_on channel=0 note=72 velocity=0 time=1
control_change channel=0 control=10 value=78 time=3
note_on channel=0 note=75 velocity=79 time=1
note_on channel=0 note=75 velocity=0 time=17
control_change channel=0 control=10 value=74 time=7
note_on channel=0 note=77 velocity=89 time=1
note_on channel=0 note=68 velocity=79 time=0
note_on channel=0 note=68 velocity=0 time=20
note_on channel=0 note=77 velocity=0 time=0
note_on channel=0 note=72 velocity=73 time=5
note_on channel=0 note=72 velocity=0 time=17
control_change channel=0 control=10 value=78 time=4
note_on channel=0 note=75 velocity=69 time=1
note_on channel=0 note=75 velocity=0 time=20
control_change channel=0 control=10 value=74 time=3
note_on channel=0 note=68 velocity=79 time=1
note_on channel=0 note=77 velocity=79 time=1
note_on channel=0 note=68 velocity=0 time=36
note_on channel=0 note=77 velocity=0 time=1
control_change channel=0 control=10 value=66 time=9
note_on channel=0 note=68 velocity=94 time=1
note_on channel=0 note=65 velocity=96 time=1
note_on channel=0 note=68 velocity=0 time=44
note_on channel=0 note=65 velocity=0 time=1
control_change channel=0 control=10 value=72 time=2
note_on channel=0 note=70 velocity=82 time=1
note_on channel=0 note=70 velocity=0 time=20
control_change channel=0 control=10 value=66 time=1
note_on channel=0 note=68 velocity=78 time=1
note_on channel=0 note=65 velocity=90 time=2
note_on channel=0 note=68 velocity=0 time=30
note_on channel=0 note=65 velocity=0 time=2
note_on channel=0 note=64 velocity=99 time=14
note_on channel=0 note=68 velocity=87 time=2
note_on channel=0 note=64 velocity=0 time=35
note_on channel=0 note=68 velocity=0 time=2
note_on channel=0 note=70 velocity=81 time=10
note_on channel=0 note=64 velocity=81 time=1
note_on channel=0 note=70 velocity=0 time=19
note_on channel=0 note=64 velocity=0 time=1
note_on channel=0 note=68 velocity=57 time=3
note_on channel=0 note=63 velocity=92 time=0
note_on channel=0 note=63 velocity=0 time=47
note_on channel=0 note=68 velocity=0 time=0
control_change channel=0 control=10 value=72 time=1
note_on channel=0 note=70 velocity=76 time=1
control_change channel=0 control=10 value=68 time=21
note_on channel=0 note=63 velocity=87 time=1
note_on channel=0 note=72 velocity=87 time=2
note_on channel=0 note=70 velocity=0 time=2
note_on channel=0 note=63 velocity=0 time=16
note_on channel=0 note=72 velocity=0 time=2
note_on channel=0 note=68 velocity=73 time=3
note_on channel=0 note=68 velocity=0 time=18
control_change channel=0 control=10 value=72 time=6
note_on channel=0 note=70 velocity=69 time=1
note_on channel=0 note=70 velocity=0 time=20
control_change channel=0 control=10 value=68 time=2
note_on channel=0 note=63 velocity=87 time=1
note_on channel=0 note=72 velocity=87 time=2
note_on channel=0 note=63 velocity=0 time=36
note_on channel=0 note=72 velocity=0 time=2
control_change channel=0 control=10 value=64 time=7
note_on channel=0 note=68 velocity=77 time=1
note_on channel=0 note=62 velocity=92 time=1
note_on channel=0 note=68 velocity=0 time=42
note_on channel=0 note=62 velocity=0 time=1
control_change channel=0 control=10 value=72 time=5
note_on channel=0 note=70 velocity=81 time=1
note_on channel=0 note=70 velocity=0 time=19
control_change channel=0 control=10 value=68 time=1
note_on channel=0 note=62 velocity=89 time=1
note_on channel=0 note=72 velocity=89 time=1
note_on channel=0 note=62 velocity=0 time=18
note_on channel=0 note=72 velocity=0 time=1
note_on channel=0 note=68 velocity=80 time=7
note_on channel=0 note=68 velocity=0 time=19
note_on channel=0 note=70 velocity=92 time=27
note_on channel=0 note=61 velocity=92 time=1
note_on channel=0 note=70 velocity=0 time=31
note_on channel=0 note=61 velocity=0 time=1
control_change channel=0 control=10 value=62 time=14
note_on channel=0 note=63 velocity=72 time=1
note_on channel=0 note=63 velocity=0 time=16
note_on channel=0 note=60 velocity=88 time=7
note_on channel=0 note=68 velocity=88 time=0
note_on channel=0 note=68 velocity=0 time=41
note_on channel=0 note=60 velocity=0 time=0
control_change channel=0 control=10 value=73 time=6
note_on channel=0 note=73 velocity=98 time=1
note_on channel=0 note=75 velocity=98 time=1
note_on channel=0 note=67 velocity=98 time=1
note_on channel=0 note=73 velocity=0 time=29
note_on channel=0 note=75 velocity=0 time=1
note_on channel=0 note=67 velocity=0 time=1
control_change channel=0 control=10 value=75 time=14
note_on channel=0 note=68 velocity=109 time=1
note_on channel=0 note=72 velocity=109 time=0
note_on channel=0 note=75 velocity=109 time=1
note_on channel=0 note=80 velocity=109 time=1
note_on channel=0 note=72 velocity=0 time=50
note_on channel=0 note=68 velocity=0 time=0
note_on channel=0 note=75 velocity=0 time=1
note_on channel=0 note=80 velocity=0 time=1
<meta message end_of_track time=0>
<meta message midi_port port=0 time=0>
<meta message track_name name='by Scott Joplin (1899)' time=0>
program_change channel=1 program=0 time=0
control_change channel=1 control=7 value=127 time=0
control_change channel=1 control=10 value=44 time=0
control_change channel=1 control=121 value=0 time=12
control_change channel=1 control=1 value=0 time=18
control_change channel=1 control=64 value=0 time=6
aftertouch channel=1 value=0 time=12
pitchwheel channel=1 pitch=0 time=5
control_change channel=1 control=7 value=127 time=25
control_change channel=1 control=74 value=72 time=1
control_change channel=1 control=71 value=70 time=0
control_change channel=1 control=93 value=12 time=2
control_change channel=1 control=91 value=50 time=0
control_change channel=1 control=10 value=37 time=62
note_on channel=1 note=39 velocity=90 time=1
note_on channel=1 note=51 velocity=90 time=1
note_on channel=1 note=39 velocity=0 time=31
note_on channel=1 note=51 velocity=0 time=1
control_change channel=1 control=10 value=45 time=15
note_on channel=1 note=56 velocity=96 time=1
note_on channel=1 note=44 velocity=96 time=0
note_on channel=1 note=44 velocity=0 time=30
note_on channel=1 note=56 velocity=0 time=0
control_change channel=1 control=10 value=52 time=16
note_on channel=1 note=56 velocity=82 time=1
note_on channel=1 note=60 velocity=82 time=1
note_on channel=1 note=51 velocity=82 time=0
note_on channel=1 note=56 velocity=0 time=19
note_on channel=1 note=51 velocity=0 time=1
note_on channel=1 note=60 velocity=0 time=0
note_on channel=1 note=56 velocity=77 time=26
note_on channel=1 note=51 velocity=77 time=0
note_on channel=1 note=60 velocity=77 time=2
note_on channel=1 note=51 velocity=0 time=28
note_on channel=1 note=56 velocity=0 time=0
note_on channel=1 note=60 velocity=0 time=2
control_change channel=1 control=10 value=47 time=17
note_on channel=1 note=57 velocity=84 time=1
note_on channel=1 note=45 velocity=84 time=0
note_on channel=1 note=45 velocity=0 time=20
note_on channel=1 note=57 velocity=0 time=0
note_on channel=1 note=58 velocity=90 time=26
note_on channel=1 note=46 velocity=91 time=2
note_on channel=1 note=58 velocity=0 time=28
note_on channel=1 note=46 velocity=0 time=2
control_change channel=1 control=10 value=52 time=15
note_on channel=1 note=51 velocity=69 time=1
note_on channel=1 note=55 velocity=69 time=0
note_on channel=1 note=61 velocity=69 time=1
note_on channel=1 note=55 velocity=0 time=19
note_on channel=1 note=51 velocity=0 time=0
note_on channel=1 note=61 velocity=0 time=1
note_on channel=1 note=55 velocity=63 time=27
note_on channel=1 note=51 velocity=63 time=1
note_on channel=1 note=61 velocity=63 time=1
note_on channel=1 note=55 velocity=0 time=28
note_on channel=1 note=51 velocity=0 time=1
note_on channel=1 note=61 velocity=0 time=1
control_change channel=1 control=10 value=39 time=15
note_on channel=1 note=51 velocity=81 time=1
note_on channel=1 note=39 velocity=81 time=0
note_on channel=1 note=39 velocity=0 time=20
note_on channel=1 note=51 velocity=0 time=0
control_change channel=1 control=10 value=45 time=27
note_on channel=1 note=56 velocity=88 time=1
note_on channel=1 note=44 velocity=88 time=2
note_on channel=1 note=56 velocity=0 time=28
note_on channel=1 note=44 velocity=0 time=2
control_change channel=1 control=10 value=52 time=16
note_on channel=1 note=60 velocity=69 time=1
note_on channel=1 note=56 velocity=69 time=1
note_on channel=1 note=51 velocity=69 time=0
note_on channel=1 note=60 velocity=0 time=19
note_on channel=1 note=51 velocity=0 time=1
note_on channel=1 note=56 velocity=0 time=0
note_on channel=1 note=60 velocity=63 time=26
note_on channel=1 note=56 velocity=63 time=2
note_on channel=1 note=51 velocity=63 time=0
note_on channel=1 note=60 velocity=0 time=28
note_on channel=1 note=51 velocity=0 time=2
note_on channel=1 note=56 velocity=0 time=0
control_change channel=1 control=10 value=47 time=15
note_on channel=1 note=45 velocity=78 time=1
note_on channel=1 note=57 velocity=78 time=2
note_on channel=1 note=45 velocity=0 time=18
note_on channel=1 note=57 velocity=0 time=2
note_on channel=1 note=46 velocity=85 time=26
note_on channel=1 note=58 velocity=85 time=1
note_on channel=1 note=46 velocity=0 time=29
note_on channel=1 note=58 velocity=0 time=1
control_change channel=1 control=10 value=52 time=16
note_on channel=1 note=61 velocity=69 time=1
note_on channel=1 note=55 velocity=69 time=0
note_on channel=1 note=51 velocity=69 time=1
note_on channel=1 note=55 velocity=0 time=19
note_on channel=1 note=61 velocity=0 time=0
note_on channel=1 note=51 velocity=0 time=1
note_on channel=1 note=51 velocity=63 time=27
note_on channel=1 note=55 velocity=63 time=1
note_on channel=1 note=61 velocity=63 time=1
note_on channel=1 note=51 velocity=0 time=28
note_on channel=1 note=55 velocity=0 time=1
note_on channel=1 note=61 velocity=0 time=1
control_change channel=1 control=10 value=39 time=15
note_on channel=1 note=51 velocity=88 time=1
note_on channel=1 note=39 velocity=88 time=0
note_on channel=1 note=39 velocity=0 time=20
note_on channel=1 note=51 velocity=0 time=0
note_on channel=1 note=52 velocity=93 time=28
note_on channel=1 note=40 velocity=93 time=2
note_on channel=1 note=52 velocity=0 time=62
note_on channel=1 note=40 velocity=0 time=2
note_on channel=1 note=51 velocity=72 time=30
note_on channel=1 note=39 velocity=72 time=1
note_on channel=1 note=51 velocity=0 time=31
note_on channel=1 note=39 velocity=0 time=1
note_on channel=1 note=51 velocity=78 time=16
note_on channel=1 note=39 velocity=78 time=1
note_on channel=1 note=51 velocity=0 time=20
note_on channel=1 note=39 velocity=0 time=1
note_on channel=1 note=52 velocity=91 time=25
note_on channel=1 note=40 velocity=91 time=2
note_on channel=1 note=52 velocity=0 time=62
note_on channel=1 note=40 velocity=0 time=2
note_on channel=1 note=51 velocity=74 time=30
note_on channel=1 note=39 velocity=74 time=0
note_on channel=1 note=39 velocity=0 time=32
note_on channel=1 note=51 velocity=0 time=0
control_change channel=1 control=10 value=22 time=63
note_on channel=1 note=32 velocity=94 time=1
control_change channel=1 control=10 value=37 time=26
note_on channel=1 note=44 velocity=52 time=1
note_on channel=1 note=32 velocity=0 time=16
control_change channel=1 control=10 value=41 time=4
note_on channel=1 note=47 velocity=58 time=1
note_on channel=1 note=44 velocity=0 time=7
control_change channel=1 control=10 value=53 time=18
note_on channel=1 note=56 velocity=65 time=1
note_on channel=1 note=47 velocity=0 time=2
note_on channel=1 note=56 velocity=0 time=19
control_change channel=1 control=10 value=37 time=1
note_on channel=1 note=44 velocity=96 time=1
control_change channel=1 control=10 value=53 time=24
note_on channel=1 note=56 velocity=58 time=1
note_on channel=1 note=44 velocity=0 time=18
control_change channel=1 control=10 value=57 time=4
note_on channel=1 note=59 velocity=64 time=1
note_on channel=1 note=56 velocity=0 time=5
control_change channel=1 control=10 value=69 time=20
note_on channel=1 note=68 velocity=68 time=1
note_on channel=1 note=59 velocity=0 time=2
note_on channel=1 note=68 velocity=0 time=18
control_change channel=1 control=10 value=53 time=2
note_on channel=1 note=56 velocity=101 time=1
note_on channel=1 note=56 velocity=0 time=43
control_change channel=1 control=10 value=69 time=52
note_on channel=1 note=68 velocity=103 time=1
note_on channel=1 note=68 velocity=0 time=43
note_on channel=1 note=62 velocity=72 time=51
note_on channel=1 note=65 velocity=72 time=0
note_on channel=1 note=71 velocity=76 time=1
note_on channel=1 note=68 velocity=76 time=1
note_on channel=1 note=65 velocity=0 time=24
note_on channel=1 note=62 velocity=0 time=0
note_on channel=1 note=71 velocity=0 time=1
note_on channel=1 note=68 velocity=0 time=1
note_on channel=1 note=68 velocity=61 time=20
note_on channel=1 note=62 velocity=61 time=2
note_on channel=1 note=65 velocity=61 time=0
note_on channel=1 note=71 velocity=61 time=0
note_on channel=1 note=68 velocity=0 time=15
note_on channel=1 note=62 velocity=0 time=2
note_on channel=1 note=65 velocity=0 time=0
note_on channel=1 note=71 velocity=0 time=0
note_on channel=1 note=68 velocity=72 time=30
note_on channel=1 note=71 velocity=72 time=0
note_on channel=1 note=62 velocity=72 time=0
note_on channel=1 note=65 velocity=72 time=1
note_on channel=1 note=62 velocity=0 time=25
note_on channel=1 note=68 velocity=0 time=0
note_on channel=1 note=71 velocity=0 time=0
note_on channel=1 note=65 velocity=0 time=1
note_on channel=1 note=71 velocity=63 time=20
note_on channel=1 note=62 velocity=63 time=2
note_on channel=1 note=68 velocity=63 time=0
note_on channel=1 note=65 velocity=63 time=0
note_on channel=1 note=71 velocity=0 time=15
note_on channel=1 note=62 velocity=0 time=2
note_on channel=1 note=68 velocity=0 time=0
note_on channel=1 note=65 velocity=0 time=0
note_on channel=1 note=72 velocity=89 time=29
note_on channel=1 note=68 velocity=89 time=0
note_on channel=1 note=63 velocity=90 time=1
note_on channel=1 note=68 velocity=0 time=25
note_on channel=1 note=72 velocity=0 time=0
note_on channel=1 note=63 velocity=0 time=1
note_on channel=1 note=72 velocity=73 time=21
note_on channel=1 note=68 velocity=73 time=1
note_on channel=1 note=63 velocity=73 time=0
note_on channel=1 note=72 velocity=0 time=16
note_on channel=1 note=63 velocity=0 time=1
note_on channel=1 note=68 velocity=0 time=0
note_on channel=1 note=68 velocity=86 time=30
note_on channel=1 note=72 velocity=86 time=1
note_on channel=1 note=63 velocity=86 time=0
note_on channel=1 note=68 velocity=0 time=25
note_on channel=1 note=63 velocity=0 time=1
note_on channel=1 note=72 velocity=0 time=0
note_on channel=1 note=72 velocity=72 time=23
note_on channel=1 note=68 velocity=72 time=0
note_on channel=1 note=63 velocity=72 time=0
note_on channel=1 note=63 velocity=0 time=17
note_on channel=1 note=68 velocity=0 time=0
note_on channel=1 note=72 velocity=0 time=0
note_on channel=1 note=71 velocity=72 time=29
note_on channel=1 note=68 velocity=72 time=1
note_on channel=1 note=64 velocity=72 time=1
note_on channel=1 note=71 velocity=0 time=24
note_on channel=1 note=68 velocity=0 time=1
note_on channel=1 note=64 velocity=0 time=1
note_on channel=1 note=71 velocity=63 time=20
note_on channel=1 note=64 velocity=63 time=1
note_on channel=1 note=68 velocity=63 time=1
note_on channel=1 note=71 velocity=0 time=15
note_on channel=1 note=64 velocity=0 time=1
note_on channel=1 note=68 velocity=0 time=1
note_on channel=1 note=72 velocity=72 time=29
note_on channel=1 note=63 velocity=72 time=1
note_on channel=1 note=68 velocity=72 time=0
note_on channel=1 note=72 velocity=0 time=25
note_on channel=1 note=68 velocity=0 time=1
note_on channel=1 note=63 velocity=0 time=0
note_on channel=1 note=63 velocity=59 time=21
note_on channel=1 note=68 velocity=59 time=1
note_on channel=1 note=72 velocity=59 time=0
note_on channel=1 note=63 velocity=0 time=16
note_on channel=1 note=72 velocity=0 time=1
note_on channel=1 note=68 velocity=0 time=0
note_on channel=1 note=72 velocity=71 time=30
note_on channel=1 note=68 velocity=71 time=0
note_on channel=1 note=63 velocity=71 time=2
note_on channel=1 note=68 velocity=0 time=24
note_on channel=1 note=72 velocity=0 time=0
note_on channel=1 note=63 velocity=0 time=2
note_on channel=1 note=63 velocity=67 time=21
note_on channel=1 note=67 velocity=67 time=1
note_on channel=1 note=73 velocity=67 time=0
note_on channel=1 note=63 velocity=0 time=16
note_on channel=1 note=73 velocity=0 time=1
note_on channel=1 note=67 velocity=0 time=0
note_on channel=1 note=72 velocity=74 time=29
note_on channel=1 note=68 velocity=75 time=2
note_on channel=1 note=72 velocity=0 time=38
note_on channel=1 note=68 velocity=0 time=2
control_change channel=1 control=10 value=51 time=53
note_on channel=1 note=56 velocity=84 time=1
note_on channel=1 note=53 velocity=84 time=2
note_on channel=1 note=59 velocity=84 time=0
note_on channel=1 note=50 velocity=84 time=0
note_on channel=1 note=56 velocity=0 time=24
note_on channel=1 note=53 velocity=0 time=2
note_on channel=1 note=59 velocity=0 time=0
note_on channel=1 note=50 velocity=0 time=0
note_on channel=1 note=50 velocity=69 time=20
note_on channel=1 note=56 velocity=69 time=0
note_on channel=1 note=53 velocity=69 time=1
note_on channel=1 note=59 velocity=69 time=0
note_on channel=1 note=56 velocity=0 time=16
note_on channel=1 note=50 velocity=0 time=0
note_on channel=1 note=53 velocity=0 time=1
note_on channel=1 note=59 velocity=0 time=0
note_on channel=1 note=53 velocity=84 time=31
note_on channel=1 note=50 velocity=84 time=0
note_on channel=1 note=56 velocity=84 time=0
note_on channel=1 note=59 velocity=84 time=1
note_on channel=1 note=56 velocity=0 time=25
note_on channel=1 note=53 velocity=0 time=0
note_on channel=1 note=50 velocity=0 time=0
note_on channel=1 note=59 velocity=0 time=1
note_on channel=1 note=53 velocity=69 time=21
note_on channel=1 note=59 velocity=69 time=0
note_on channel=1 note=56 velocity=69 time=1
note_on channel=1 note=50 velocity=69 time=0
note_on channel=1 note=59 velocity=0 time=16
note_on channel=1 note=53 velocity=0 time=0
note_on channel=1 note=56 velocity=0 time=1
note_on channel=1 note=50 velocity=0 time=0
note_on channel=1 note=51 velocity=86 time=29
note_on channel=1 note=56 velocity=72 time=2
note_on channel=1 note=60 velocity=72 time=0
note_on channel=1 note=51 velocity=0 time=24
note_on channel=1 note=60 velocity=0 time=2
note_on channel=1 note=56 velocity=0 time=0
note_on channel=1 note=51 velocity=68 time=20
note_on channel=1 note=60 velocity=68 time=1
note_on channel=1 note=56 velocity=68 time=1
note_on channel=1 note=51 velocity=0 time=15
note_on channel=1 note=60 velocity=0 time=1
note_on channel=1 note=56 velocity=0 time=1
note_on channel=1 note=56 velocity=72 time=29
note_on channel=1 note=51 velocity=72 time=1
note_on channel=1 note=60 velocity=72 time=0
note_on channel=1 note=56 velocity=0 time=25
note_on channel=1 note=60 velocity=0 time=1
note_on channel=1 note=51 velocity=0 time=0
note_on channel=1 note=60 velocity=66 time=21
note_on channel=1 note=51 velocity=66 time=0
note_on channel=1 note=56 velocity=66 time=0
note_on channel=1 note=56 velocity=0 time=17
note_on channel=1 note=51 velocity=0 time=0
note_on channel=1 note=60 velocity=0 time=0
note_on channel=1 note=56 velocity=81 time=32
note_on channel=1 note=52 velocity=81 time=0
note_on channel=1 note=59 velocity=81 time=1
note_on channel=1 note=52 velocity=0 time=25
note_on channel=1 note=56 velocity=0 time=0
note_on channel=1 note=59 velocity=0 time=1
note_on channel=1 note=59 velocity=68 time=20
note_on channel=1 note=56 velocity=68 time=1
note_on channel=1 note=52 velocity=68 time=1
note_on channel=1 note=59 velocity=0 time=15
note_on channel=1 note=56 velocity=0 time=1
note_on channel=1 note=52 velocity=0 time=1
note_on channel=1 note=51 velocity=81 time=29
note_on channel=1 note=56 velocity=81 time=1
note_on channel=1 note=60 velocity=81 time=1
note_on channel=1 note=51 velocity=0 time=24
note_on channel=1 note=56 velocity=0 time=1
note_on channel=1 note=60 velocity=0 time=1
note_on channel=1 note=60 velocity=67 time=20
note_on channel=1 note=56 velocity=67 time=0
note_on channel=1 note=51 velocity=67 time=2
note_on channel=1 note=56 velocity=0 time=15
note_on channel=1 note=60 velocity=0 time=0
note_on channel=1 note=51 velocity=0 time=2
note_on channel=1 note=51 velocity=81 time=29
note_on channel=1 note=56 velocity=81 time=0
note_on channel=1 note=60 velocity=81 time=0
note_on channel=1 note=60 velocity=0 time=26
note_on channel=1 note=56 velocity=0 time=0
note_on channel=1 note=51 velocity=0 time=0
note_on channel=1 note=51 velocity=72 time=22
note_on channel=1 note=61 velocity=72 time=1
note_on channel=1 note=55 velocity=72 time=1
note_on channel=1 note=51 velocity=0 time=15
note_on channel=1 note=61 velocity=0 time=1
note_on channel=1 note=55 velocity=0 time=1
control_change channel=1 control=10 value=56 time=28
note_on channel=1 note=60 velocity=69 time=1
note_on channel=1 note=56 velocity=69 time=0
note_on channel=1 note=56 velocity=0 time=32
note_on channel=1 note=60 velocity=0 time=0
control_change channel=1 control=10 value=39 time=15
note_on channel=1 note=51 velocity=88 time=1
note_on channel=1 note=39 velocity=88 time=0
note_on channel=1 note=39 velocity=0 time=32
note_on channel=1 note=51 velocity=0 time=0
control_change channel=1 control=10 value=45 time=15
note_on channel=1 note=44 velocity=84 time=1
note_on channel=1 note=56 velocity=88 time=1
note_on channel=1 note=44 velocity=0 time=29
note_on channel=1 note=56 velocity=0 time=1
control_change channel=1 control=10 value=52 time=16
note_on channel=1 note=56 velocity=72 time=1
note_on channel=1 note=60 velocity=72 time=1
note_on channel=1 note=51 velocity=72 time=0
note_on channel=1 note=56 velocity=0 time=19
note_on channel=1 note=51 velocity=0 time=1
note_on channel=1 note=60 velocity=0 time=0
note_on channel=1 note=51 velocity=72 time=27
note_on channel=1 note=60 velocity=72 time=1
note_on channel=1 note=56 velocity=72 time=1
note_on channel=1 note=51 velocity=0 time=28
note_on channel=1 note=60 velocity=0 time=1
note_on channel=1 note=56 velocity=0 time=1
control_change channel=1 control=10 value=47 time=15
note_on channel=1 note=57 velocity=86 time=1
note_on channel=1 note=45 velocity=86 time=2
note_on channel=1 note=57 velocity=0 time=18
note_on channel=1 note=45 velocity=0 time=2
note_on channel=1 note=46 velocity=94 time=27
note_on channel=1 note=58 velocity=82 time=1
note_on channel=1 note=46 velocity=0 time=29
note_on channel=1 note=58 velocity=0 time=1
control_change channel=1 control=10 value=52 time=15
note_on channel=1 note=55 velocity=72 time=1
note_on channel=1 note=61 velocity=72 time=2
note_on channel=1 note=51 velocity=72 time=0
note_on channel=1 note=55 velocity=0 time=18
note_on channel=1 note=51 velocity=0 time=2
note_on channel=1 note=61 velocity=0 time=0
note_on channel=1 note=51 velocity=66 time=27
note_on channel=1 note=61 velocity=66 time=0
note_on channel=1 note=55 velocity=66 time=1
note_on channel=1 note=61 velocity=0 time=29
note_on channel=1 note=51 velocity=0 time=0
note_on channel=1 note=55 velocity=0 time=1
control_change channel=1 control=10 value=39 time=16
note_on channel=1 note=51 velocity=79 time=1
note_on channel=1 note=39 velocity=79 time=0
note_on channel=1 note=39 velocity=0 time=20
note_on channel=1 note=51 velocity=0 time=0
control_change channel=1 control=10 value=45 time=26
note_on channel=1 note=56 velocity=86 time=1
note_on channel=1 note=44 velocity=86 time=2
note_on channel=1 note=56 velocity=0 time=28
note_on channel=1 note=44 velocity=0 time=2
control_change channel=1 control=10 value=52 time=15
note_on channel=1 note=51 velocity=69 time=1
note_on channel=1 note=56 velocity=69 time=0
note_on channel=1 note=60 velocity=69 time=0
note_on channel=1 note=60 velocity=0 time=20
note_on channel=1 note=56 velocity=0 time=0
note_on channel=1 note=51 velocity=0 time=0
note_on channel=1 note=60 velocity=63 time=28
note_on channel=1 note=56 velocity=63 time=1
note_on channel=1 note=51 velocity=63 time=1
note_on channel=1 note=60 velocity=0 time=28
note_on channel=1 note=56 velocity=0 time=1
note_on channel=1 note=51 velocity=0 time=1
control_change channel=1 control=10 value=47 time=15
note_on channel=1 note=57 velocity=81 time=1
note_on channel=1 note=45 velocity=81 time=2
note_on channel=1 note=57 velocity=0 time=18
note_on channel=1 note=45 velocity=0 time=2
note_on channel=1 note=58 velocity=87 time=27
note_on channel=1 note=46 velocity=87 time=1
note_on channel=1 note=58 velocity=0 time=29
note_on channel=1 note=46 velocity=0 time=1
control_change channel=1 control=10 value=52 time=15
note_on channel=1 note=61 velocity=69 time=1
note_on channel=1 note=55 velocity=69 time=0
note_on channel=1 note=51 velocity=69 time=1
note_on channel=1 note=55 velocity=0 time=19
note_on channel=1 note=61 velocity=0 time=0
note_on channel=1 note=51 velocity=0 time=1
note_on channel=1 note=61 velocity=63 time=28
note_on channel=1 note=55 velocity=63 time=0
note_on channel=1 note=51 velocity=63 time=1
note_on channel=1 note=55 velocity=0 time=29
note_on channel=1 note=61 velocity=0 time=0
note_on channel=1 note=51 velocity=0 time=1
control_change channel=1 control=10 value=39 time=15
note_on channel=1 note=39 velocity=88 time=1
note_on channel=1 note=51 velocity=88 time=2
note_on channel=1 note=39 velocity=0 time=18
note_on channel=1 note=51 velocity=0 time=2
note_on channel=1 note=52 velocity=93 time=27
note_on channel=1 note=40 velocity=93 time=1
note_on channel=1 note=52 velocity=0 time=63
note_on channel=1 note=40 velocity=0 time=1
note_on channel=1 note=39 velocity=77 time=31
note_on channel=1 note=51 velocity=77 time=1
note_on channel=1 note=39 velocity=0 time=31
note_on channel=1 note=51 velocity=0 time=1
note_on channel=1 note=39 velocity=81 time=14
note_on channel=1 note=51 velocity=81 time=0
note_on channel=1 note=51 velocity=0 time=21
note_on channel=1 note=39 velocity=0 time=0
note_on channel=1 note=52 velocity=92 time=28
note_on channel=1 note=40 velocity=92 time=0
note_on channel=1 note=40 velocity=0 time=64
note_on channel=1 note=52 velocity=0 time=0
note_on channel=1 note=39 velocity=84 time=31
note_on channel=1 note=51 velocity=84 time=0
note_on channel=1 note=51 velocity=0 time=32
note_on channel=1 note=39 velocity=0 time=0
control_change channel=1 control=10 value=22 time=63
note_on channel=1 note=32 velocity=98 time=1
control_change channel=1 control=10 value=37 time=24
note_on channel=1 note=44 velocity=64 time=1
note_on channel=1 note=32 velocity=0 time=18
control_change channel=1 control=10 value=41 time=4
note_on channel=1 note=44 velocity=0 time=1
note_on channel=1 note=47 velocity=67 time=0
control_change channel=1 control=10 value=53 time=24
note_on channel=1 note=56 velocity=80 time=1
note_on channel=1 note=47 velocity=0 time=3
note_on channel=1 note=56 velocity=0 time=18
control_change channel=1 control=10 value=37 time=3
note_on channel=1 note=44 velocity=105 time=1
control_change channel=1 control=10 value=53 time=24
note_on channel=1 note=56 velocity=68 time=1
note_on channel=1 note=44 velocity=0 time=18
control_change channel=1 control=10 value=57 time=2
note_on channel=1 note=59 velocity=69 time=1
note_on channel=1 note=56 velocity=0 time=1
control_change channel=1 control=10 value=69 time=24
note_on channel=1 note=68 velocity=81 time=1
note_on channel=1 note=59 velocity=0 time=2
note_on channel=1 note=68 velocity=0 time=18
control_change channel=1 control=10 value=53 time=2
note_on channel=1 note=56 velocity=106 time=1
note_on channel=1 note=56 velocity=0 time=43
control_change channel=1 control=10 value=69 time=53
note_on channel=1 note=68 velocity=108 time=1
note_on channel=1 note=68 velocity=0 time=43
note_on channel=1 note=62 velocity=77 time=51
note_on channel=1 note=65 velocity=77 time=1
note_on channel=1 note=71 velocity=77 time=1
note_on channel=1 note=68 velocity=77 time=0
note_on channel=1 note=62 velocity=0 time=24
note_on channel=1 note=65 velocity=0 time=1
note_on channel=1 note=71 velocity=0 time=1
note_on channel=1 note=68 velocity=0 time=0
note_on channel=1 note=62 velocity=64 time=20
note_on channel=1 note=65 velocity=64 time=1
note_on channel=1 note=68 velocity=64 time=1
note_on channel=1 note=71 velocity=64 time=0
note_on channel=1 note=62 velocity=0 time=15
note_on channel=1 note=65 velocity=0 time=1
note_on channel=1 note=68 velocity=0 time=1
note_on channel=1 note=71 velocity=0 time=0
note_on channel=1 note=68 velocity=79 time=29
note_on channel=1 note=65 velocity=79 time=1
note_on channel=1 note=71 velocity=79 time=1
note_on channel=1 note=62 velocity=79 time=0
note_on channel=1 note=68 velocity=0 time=24
note_on channel=1 note=65 velocity=0 time=1
note_on channel=1 note=71 velocity=0 time=1
note_on channel=1 note=62 velocity=0 time=0
note_on channel=1 note=65 velocity=66 time=20
note_on channel=1 note=62 velocity=66 time=1
note_on channel=1 note=71 velocity=66 time=0
note_on channel=1 note=68 velocity=66 time=1
note_on channel=1 note=65 velocity=0 time=15
note_on channel=1 note=62 velocity=0 time=1
note_on channel=1 note=71 velocity=0 time=0
note_on channel=1 note=68 velocity=0 time=1
note_on channel=1 note=63 velocity=84 time=29
note_on channel=1 note=72 velocity=84 time=0
note_on channel=1 note=68 velocity=84 time=2
note_on channel=1 note=72 velocity=0 time=24
note_on channel=1 note=63 velocity=0 time=0
note_on channel=1 note=68 velocity=0 time=2
note_on channel=1 note=63 velocity=72 time=20
note_on channel=1 note=72 velocity=72 time=0
note_on channel=1 note=68 velocity=72 time=0
note_on channel=1 note=68 velocity=0 time=17
note_on channel=1 note=72 velocity=0 time=0
note_on channel=1 note=63 velocity=0 time=0
note_on channel=1 note=63 velocity=82 time=31
note_on channel=1 note=68 velocity=82 time=2
note_on channel=1 note=72 velocity=82 time=0
note_on channel=1 note=63 velocity=0 time=24
note_on channel=1 note=72 velocity=0 time=2
note_on channel=1 note=68 velocity=0 time=0
note_on channel=1 note=68 velocity=72 time=20
note_on channel=1 note=72 velocity=72 time=1
note_on channel=1 note=63 velocity=72 time=1
note_on channel=1 note=68 velocity=0 time=15
note_on channel=1 note=72 velocity=0 time=1
note_on channel=1 note=63 velocity=0 time=1
note_on channel=1 note=64 velocity=80 time=29
note_on channel=1 note=71 velocity=80 time=1
note_on channel=1 note=68 velocity=80 time=1
note_on channel=1 note=64 velocity=0 time=24
note_on channel=1 note=71 velocity=0 time=1
note_on channel=1 note=68 velocity=0 time=1
note_on channel=1 note=71 velocity=69 time=21
note_on channel=1 note=64 velocity=69 time=0
note_on channel=1 note=68 velocity=69 time=1
note_on channel=1 note=64 velocity=0 time=16
note_on channel=1 note=71 velocity=0 time=0
note_on channel=1 note=68 velocity=0 time=1
note_on channel=1 note=68 velocity=81 time=30
note_on channel=1 note=63 velocity=81 time=0
note_on channel=1 note=72 velocity=81 time=0
note_on channel=1 note=72 velocity=0 time=26
note_on channel=1 note=63 velocity=0 time=0
note_on channel=1 note=68 velocity=0 time=0
note_on channel=1 note=63 velocity=67 time=21
note_on channel=1 note=68 velocity=67 time=2
note_on channel=1 note=72 velocity=67 time=0
note_on channel=1 note=63 velocity=0 time=15
note_on channel=1 note=72 velocity=0 time=2
note_on channel=1 note=68 velocity=0 time=0
note_on channel=1 note=72 velocity=82 time=29
note_on channel=1 note=63 velocity=82 time=0
note_on channel=1 note=68 velocity=82 time=1
note_on channel=1 note=63 velocity=0 time=25
note_on channel=1 note=72 velocity=0 time=0
note_on channel=1 note=68 velocity=0 time=1
note_on channel=1 note=73 velocity=75 time=22
note_on channel=1 note=67 velocity=75 time=0
note_on channel=1 note=63 velocity=75 time=1
note_on channel=1 note=67 velocity=0 time=16
note_on channel=1 note=73 velocity=0 time=0
note_on channel=1 note=63 velocity=0 time=1
note_on channel=1 note=72 velocity=79 time=29
note_on channel=1 note=68 velocity=79 time=1
note_on channel=1 note=72 velocity=0 time=39
note_on channel=1 note=68 velocity=0 time=1
control_change channel=1 control=10 value=51 time=55
note_on channel=1 note=56 velocity=82 time=1
note_on channel=1 note=53 velocity=82 time=0
note_on channel=1 note=59 velocity=82 time=0
note_on channel=1 note=50 velocity=82 time=1
note_on channel=1 note=59 velocity=0 time=25
note_on channel=1 note=56 velocity=0 time=0
note_on channel=1 note=53 velocity=0 time=0
note_on channel=1 note=50 velocity=0 time=1
note_on channel=1 note=56 velocity=69 time=20
note_on channel=1 note=50 velocity=69 time=0
note_on channel=1 note=59 velocity=69 time=0
note_on channel=1 note=53 velocity=69 time=1
note_on channel=1 note=59 velocity=0 time=16
note_on channel=1 note=56 velocity=0 time=0
note_on channel=1 note=50 velocity=0 time=0
note_on channel=1 note=53 velocity=0 time=1
note_on channel=1 note=59 velocity=80 time=30
note_on channel=1 note=50 velocity=80 time=0
note_on channel=1 note=53 velocity=80 time=2
note_on channel=1 note=56 velocity=80 time=0
note_on channel=1 note=50 velocity=0 time=24
note_on channel=1 note=59 velocity=0 time=0
note_on channel=1 note=53 velocity=0 time=2
note_on channel=1 note=56 velocity=0 time=0
note_on channel=1 note=59 velocity=69 time=20
note_on channel=1 note=53 velocity=69 time=1
note_on channel=1 note=56 velocity=69 time=0
note_on channel=1 note=50 velocity=69 time=1
note_on channel=1 note=59 velocity=0 time=15
note_on channel=1 note=53 velocity=0 time=1
note_on channel=1 note=56 velocity=0 time=0
note_on channel=1 note=50 velocity=0 time=1
note_on channel=1 note=56 velocity=84 time=30
note_on channel=1 note=60 velocity=84 time=0
note_on channel=1 note=51 velocity=84 time=0
note_on channel=1 note=51 velocity=0 time=26
note_on channel=1 note=60 velocity=0 time=0
note_on channel=1 note=56 velocity=0 time=0
note_on channel=1 note=56 velocity=68 time=22
note_on channel=1 note=60 velocity=68 time=0
note_on channel=1 note=51 velocity=68 time=1
note_on channel=1 note=60 velocity=0 time=16
note_on channel=1 note=56 velocity=0 time=0
note_on channel=1 note=51 velocity=0 time=1
note_on channel=1 note=56 velocity=77 time=30
note_on channel=1 note=60 velocity=77 time=0
note_on channel=1 note=51 velocity=77 time=1
note_on channel=1 note=60 velocity=0 time=25
note_on channel=1 note=56 velocity=0 time=0
note_on channel=1 note=51 velocity=0 time=1
note_on channel=1 note=60 velocity=66 time=21
note_on channel=1 note=56 velocity=66 time=0
note_on channel=1 note=51 velocity=66 time=0
note_on channel=1 note=51 velocity=0 time=17
note_on channel=1 note=56 velocity=0 time=0
note_on channel=1 note=60 velocity=0 time=0
note_on channel=1 note=56 velocity=82 time=30
note_on channel=1 note=52 velocity=82 time=0
note_on channel=1 note=59 velocity=82 time=2
note_on channel=1 note=52 velocity=0 time=24
note_on channel=1 note=56 velocity=0 time=0
note_on channel=1 note=59 velocity=0 time=2
note_on channel=1 note=56 velocity=66 time=20
note_on channel=1 note=52 velocity=66 time=0
note_on channel=1 note=59 velocity=66 time=0
note_on channel=1 note=59 velocity=0 time=17
note_on channel=1 note=52 velocity=0 time=0
note_on channel=1 note=56 velocity=0 time=0
note_on channel=1 note=51 velocity=81 time=31
note_on channel=1 note=56 velocity=80 time=1
note_on channel=1 note=60 velocity=80 time=0
note_on channel=1 note=51 velocity=0 time=25
note_on channel=1 note=60 velocity=0 time=1
note_on channel=1 note=56 velocity=0 time=0
note_on channel=1 note=60 velocity=63 time=21
note_on channel=1 note=51 velocity=63 time=0
note_on channel=1 note=56 velocity=63 time=1
note_on channel=1 note=51 velocity=0 time=16
note_on channel=1 note=60 velocity=0 time=0
note_on channel=1 note=56 velocity=0 time=1
note_on channel=1 note=60 velocity=81 time=30
note_on channel=1 note=51 velocity=81 time=1
note_on channel=1 note=56 velocity=81 time=1
note_on channel=1 note=60 velocity=0 time=24
note_on channel=1 note=51 velocity=0 time=1
note_on channel=1 note=56 velocity=0 time=1
note_on channel=1 note=55 velocity=72 time=20
note_on channel=1 note=61 velocity=72 time=0
note_on channel=1 note=51 velocity=72 time=2
note_on channel=1 note=61 velocity=0 time=15
note_on channel=1 note=55 velocity=0 time=0
note_on channel=1 note=51 velocity=0 time=2
control_change channel=1 control=10 value=56 time=28
note_on channel=1 note=56 velocity=85 time=1
note_on channel=1 note=60 velocity=85 time=1
note_on channel=1 note=56 velocity=0 time=31
note_on channel=1 note=60 velocity=0 time=1
control_change channel=1 control=10 value=47 time=14
note_on channel=1 note=57 velocity=95 time=1
note_on channel=1 note=45 velocity=95 time=1
note_on channel=1 note=57 velocity=0 time=31
note_on channel=1 note=45 velocity=0 time=1
note_on channel=1 note=46 velocity=102 time=15
note_on channel=1 note=58 velocity=102 time=2
note_on channel=1 note=46 velocity=0 time=30
note_on channel=1 note=58 velocity=0 time=2
control_change channel=1 control=10 value=52 time=14
note_on channel=1 note=55 velocity=70 time=1
note_on channel=1 note=61 velocity=70 time=1
note_on channel=1 note=51 velocity=70 time=0
note_on channel=1 note=55 velocity=0 time=19
note_on channel=1 note=51 velocity=0 time=1
note_on channel=1 note=61 velocity=0 time=0
control_change channel=1 control=10 value=39 time=25
note_on channel=1 note=39 velocity=82 time=1
note_on channel=1 note=51 velocity=82 time=1
note_on channel=1 note=39 velocity=0 time=31
note_on channel=1 note=51 velocity=0 time=1
control_change channel=1 control=10 value=52 time=14
note_on channel=1 note=61 velocity=68 time=1
note_on channel=1 note=55 velocity=68 time=0
note_on channel=1 note=51 velocity=68 time=1
note_on channel=1 note=55 velocity=0 time=19
note_on channel=1 note=61 velocity=0 time=0
note_on channel=1 note=51 velocity=0 time=1
control_change channel=1 control=10 value=48 time=27
note_on channel=1 note=58 velocity=80 time=1
note_on channel=1 note=46 velocity=80 time=1
note_on channel=1 note=58 velocity=0 time=31
note_on channel=1 note=46 velocity=0 time=1
control_change channel=1 control=10 value=52 time=14
note_on channel=1 note=55 velocity=67 time=1
note_on channel=1 note=51 velocity=67 time=0
note_on channel=1 note=61 velocity=67 time=1
note_on channel=1 note=51 velocity=0 time=19
note_on channel=1 note=55 velocity=0 time=0
note_on channel=1 note=61 velocity=0 time=1
control_change channel=1 control=10 value=39 time=27
note_on channel=1 note=39 velocity=94 time=1
note_on channel=1 note=51 velocity=94 time=0
note_on channel=1 note=51 velocity=0 time=32
note_on channel=1 note=39 velocity=0 time=0
control_change channel=1 control=10 value=44 time=13
note_on channel=1 note=55 velocity=96 time=1
note_on channel=1 note=43 velocity=96 time=0
note_on channel=1 note=43 velocity=0 time=20
note_on channel=1 note=55 velocity=0 time=0
note_on channel=1 note=56 velocity=96 time=30
note_on channel=1 note=44 velocity=96 time=0
note_on channel=1 note=44 velocity=0 time=32
note_on channel=1 note=56 velocity=0 time=0
control_change channel=1 control=10 value=52 time=14
note_on channel=1 note=60 velocity=67 time=1
note_on channel=1 note=51 velocity=67 time=0
note_on channel=1 note=56 velocity=67 time=0
note_on channel=1 note=56 velocity=0 time=20
note_on channel=1 note=51 velocity=0 time=0
note_on channel=1 note=60 velocity=0 time=0
control_change channel=1 control=10 value=39 time=26
note_on channel=1 note=51 velocity=75 time=1
note_on channel=1 note=39 velocity=75 time=1
note_on channel=1 note=51 velocity=0 time=31
note_on channel=1 note=39 velocity=0 time=1
control_change channel=1 control=10 value=52 time=14
note_on channel=1 note=60 velocity=63 time=1
note_on channel=1 note=56 velocity=63 time=1
note_on channel=1 note=51 velocity=63 time=1
note_on channel=1 note=60 velocity=0 time=18
note_on channel=1 note=56 velocity=0 time=1
note_on channel=1 note=51 velocity=0 time=1
control_change channel=1 control=10 value=45 time=25
note_on channel=1 note=44 velocity=79 time=1
note_on channel=1 note=56 velocity=79 time=0
note_on channel=1 note=56 velocity=0 time=32
note_on channel=1 note=44 velocity=0 time=0
control_change channel=1 control=10 value=52 time=15
note_on channel=1 note=51 velocity=68 time=1
note_on channel=1 note=60 velocity=68 time=0
note_on channel=1 note=56 velocity=68 time=1
note_on channel=1 note=60 velocity=0 time=19
note_on channel=1 note=51 velocity=0 time=0
note_on channel=1 note=56 velocity=0 time=1
control_change channel=1 control=10 value=45 time=26
note_on channel=1 note=56 velocity=97 time=1
note_on channel=1 note=44 velocity=97 time=0
note_on channel=1 note=44 velocity=0 time=32
note_on channel=1 note=56 velocity=0 time=0
note_on channel=1 note=57 velocity=93 time=16
note_on channel=1 note=45 velocity=93 time=1
note_on channel=1 note=57 velocity=0 time=19
note_on channel=1 note=45 velocity=0 time=1
note_on channel=1 note=58 velocity=105 time=27
note_on channel=1 note=46 velocity=105 time=1
note_on channel=1 note=58 velocity=0 time=31
note_on channel=1 note=46 velocity=0 time=1
control_change channel=1 control=10 value=52 time=15
note_on channel=1 note=51 velocity=64 time=1
note_on channel=1 note=55 velocity=64 time=1
note_on channel=1 note=61 velocity=64 time=0
note_on channel=1 note=51 velocity=0 time=19
note_on channel=1 note=61 velocity=0 time=1
note_on channel=1 note=55 velocity=0 time=0
control_change channel=1 control=10 value=39 time=25
note_on channel=1 note=39 velocity=72 time=1
note_on channel=1 note=51 velocity=72 time=2
note_on channel=1 note=39 velocity=0 time=30
note_on channel=1 note=51 velocity=0 time=2
control_change channel=1 control=10 value=52 time=14
note_on channel=1 note=61 velocity=59 time=1
note_on channel=1 note=55 velocity=59 time=0
note_on channel=1 note=51 velocity=59 time=1
note_on channel=1 note=55 velocity=0 time=19
note_on channel=1 note=61 velocity=0 time=0
note_on channel=1 note=51 velocity=0 time=1
control_change channel=1 control=10 value=48 time=25
note_on channel=1 note=58 velocity=72 time=1
note_on channel=1 note=46 velocity=72 time=2
note_on channel=1 note=58 velocity=0 time=30
note_on channel=1 note=46 velocity=0 time=2
control_change channel=1 control=10 value=52 time=13
note_on channel=1 note=61 velocity=59 time=1
note_on channel=1 note=55 velocity=59 time=0
note_on channel=1 note=51 velocity=59 time=2
note_on channel=1 note=55 velocity=0 time=18
note_on channel=1 note=61 velocity=0 time=0
note_on channel=1 note=51 velocity=0 time=2
control_change channel=1 control=10 value=48 time=26
note_on channel=1 note=46 velocity=92 time=1
note_on channel=1 note=58 velocity=92 time=1
note_on channel=1 note=46 velocity=0 time=31
note_on channel=1 note=58 velocity=0 time=1
note_on channel=1 note=47 velocity=96 time=14
note_on channel=1 note=59 velocity=96 time=2
note_on channel=1 note=47 velocity=0 time=18
note_on channel=1 note=59 velocity=0 time=2
note_on channel=1 note=60 velocity=97 time=26
note_on channel=1 note=48 velocity=97 time=0
note_on channel=1 note=48 velocity=0 time=32
note_on channel=1 note=60 velocity=0 time=0
control_change channel=1 control=10 value=52 time=16
note_on channel=1 note=51 velocity=65 time=1
note_on channel=1 note=56 velocity=65 time=1
note_on channel=1 note=60 velocity=65 time=0
note_on channel=1 note=51 velocity=0 time=19
note_on channel=1 note=60 velocity=0 time=1
note_on channel=1 note=56 velocity=0 time=0
control_change channel=1 control=10 value=39 time=25
note_on channel=1 note=39 velocity=72 time=1
note_on channel=1 note=51 velocity=72 time=2
note_on channel=1 note=39 velocity=0 time=30
note_on channel=1 note=51 velocity=0 time=2
control_change channel=1 control=10 value=52 time=13
note_on channel=1 note=51 velocity=59 time=1
note_on channel=1 note=56 velocity=59 time=1
note_on channel=1 note=60 velocity=59 time=1
note_on channel=1 note=51 velocity=0 time=18
note_on channel=1 note=56 velocity=0 time=1
note_on channel=1 note=60 velocity=0 time=1
control_change channel=1 control=10 value=45 time=25
note_on channel=1 note=44 velocity=77 time=1
note_on channel=1 note=56 velocity=77 time=2
note_on channel=1 note=44 velocity=0 time=30
note_on channel=1 note=56 velocity=0 time=2
control_change channel=1 control=10 value=52 time=13
note_on channel=1 note=60 velocity=59 time=1
note_on channel=1 note=51 velocity=59 time=1
note_on channel=1 note=56 velocity=59 time=0
note_on channel=1 note=60 velocity=0 time=19
note_on channel=1 note=56 velocity=0 time=1
note_on channel=1 note=51 velocity=0 time=0
control_change channel=1 control=10 value=45 time=27
note_on channel=1 note=56 velocity=93 time=1
note_on channel=1 note=44 velocity=93 time=0
note_on channel=1 note=44 velocity=0 time=32
note_on channel=1 note=56 velocity=0 time=0
note_on channel=1 note=57 velocity=93 time=15
note_on channel=1 note=45 velocity=93 time=2
note_on channel=1 note=57 velocity=0 time=18
note_on channel=1 note=45 velocity=0 time=2
note_on channel=1 note=58 velocity=105 time=26
note_on channel=1 note=46 velocity=105 time=0
note_on channel=1 note=46 velocity=0 time=32
note_on channel=1 note=58 velocity=0 time=0
control_change channel=1 control=10 value=52 time=16
note_on channel=1 note=55 velocity=69 time=1
note_on channel=1 note=61 velocity=69 time=1
note_on channel=1 note=51 velocity=69 time=0
note_on channel=1 note=55 velocity=0 time=19
note_on channel=1 note=51 velocity=0 time=1
note_on channel=1 note=61 velocity=0 time=0
control_change channel=1 control=10 value=39 time=25
note_on channel=1 note=51 velocity=81 time=1
note_on channel=1 note=39 velocity=81 time=0
note_on channel=1 note=39 velocity=0 time=32
note_on channel=1 note=51 velocity=0 time=0
control_change channel=1 control=10 value=52 time=16
note_on channel=1 note=61 velocity=68 time=1
note_on channel=1 note=51 velocity=68 time=0
note_on channel=1 note=55 velocity=68 time=1
note_on channel=1 note=51 velocity=0 time=19
note_on channel=1 note=61 velocity=0 time=0
note_on channel=1 note=55 velocity=0 time=1
control_change channel=1 control=10 value=48 time=27
note_on channel=1 note=58 velocity=80 time=1
note_on channel=1 note=46 velocity=80 time=0
note_on channel=1 note=46 velocity=0 time=32
note_on channel=1 note=58 velocity=0 time=0
control_change channel=1 control=10 value=52 time=13
note_on channel=1 note=61 velocity=67 time=1
note_on channel=1 note=55 velocity=67 time=1
note_on channel=1 note=51 velocity=67 time=1
note_on channel=1 note=61 velocity=0 time=18
note_on channel=1 note=55 velocity=0 time=1
note_on channel=1 note=51 velocity=0 time=1
control_change channel=1 control=10 value=39 time=25
note_on channel=1 note=51 velocity=100 time=1
note_on channel=1 note=39 velocity=100 time=2
note_on channel=1 note=51 velocity=0 time=30
note_on channel=1 note=39 velocity=0 time=2
control_change channel=1 control=10 value=44 time=13
note_on channel=1 note=43 velocity=97 time=1
note_on channel=1 note=55 velocity=97 time=1
note_on channel=1 note=43 velocity=0 time=19
note_on channel=1 note=55 velocity=0 time=1
note_on channel=1 note=44 velocity=100 time=27
note_on channel=1 note=56 velocity=100 time=0
note_on channel=1 note=56 velocity=0 time=32
note_on channel=1 note=44 velocity=0 time=0
control_change channel=1 control=10 value=52 time=15
note_on channel=1 note=60 velocity=64 time=1
note_on channel=1 note=56 velocity=64 time=0
note_on channel=1 note=51 velocity=64 time=0
note_on channel=1 note=51 velocity=0 time=20
note_on channel=1 note=56 velocity=0 time=0
note_on channel=1 note=60 velocity=0 time=0
control_change channel=1 control=10 value=39 time=28
note_on channel=1 note=39 velocity=72 time=1
note_on channel=1 note=51 velocity=72 time=1
note_on channel=1 note=39 velocity=0 time=31
note_on channel=1 note=51 velocity=0 time=1
control_change channel=1 control=10 value=52 time=13
note_on channel=1 note=56 velocity=62 time=1
note_on channel=1 note=51 velocity=62 time=2
note_on channel=1 note=60 velocity=62 time=0
note_on channel=1 note=56 velocity=0 time=18
note_on channel=1 note=60 velocity=0 time=2
note_on channel=1 note=51 velocity=0 time=0
control_change channel=1 control=10 value=45 time=27
note_on channel=1 note=56 velocity=103 time=1
note_on channel=1 note=44 velocity=103 time=0
note_on channel=1 note=44 velocity=0 time=32
note_on channel=1 note=56 velocity=0 time=0
note_on channel=1 note=44 velocity=100 time=16
note_on channel=1 note=56 velocity=100 time=0
note_on channel=1 note=56 velocity=0 time=20
note_on channel=1 note=44 velocity=0 time=0
note_on channel=1 note=43 velocity=103 time=26
note_on channel=1 note=55 velocity=103 time=0
note_on channel=1 note=55 velocity=0 time=32
note_on channel=1 note=43 velocity=0 time=0
note_on channel=1 note=54 velocity=96 time=16
note_on channel=1 note=42 velocity=96 time=2
note_on channel=1 note=54 velocity=0 time=18
note_on channel=1 note=42 velocity=0 time=2
control_change channel=1 control=10 value=41 time=25
note_on channel=1 note=53 velocity=93 time=1
note_on channel=1 note=41 velocity=93 time=2
note_on channel=1 note=53 velocity=0 time=30
note_on channel=1 note=41 velocity=0 time=2
note_on channel=1 note=53 velocity=85 time=15
note_on channel=1 note=41 velocity=85 time=1
note_on channel=1 note=53 velocity=0 time=19
note_on channel=1 note=41 velocity=0 time=1
control_change channel=1 control=10 value=47 time=25
note_on channel=1 note=45 velocity=90 time=1
note_on channel=1 note=57 velocity=90 time=1
note_on channel=1 note=45 velocity=0 time=31
note_on channel=1 note=57 velocity=0 time=1
note_on channel=1 note=57 velocity=91 time=17
note_on channel=1 note=45 velocity=91 time=0
note_on channel=1 note=45 velocity=0 time=20
note_on channel=1 note=57 velocity=0 time=0
note_on channel=1 note=58 velocity=93 time=27
note_on channel=1 note=46 velocity=93 time=0
note_on channel=1 note=46 velocity=0 time=32
note_on channel=1 note=58 velocity=0 time=0
control_change channel=1 control=10 value=54 time=14
note_on channel=1 note=58 velocity=70 time=1
note_on channel=1 note=53 velocity=70 time=1
note_on channel=1 note=61 velocity=70 time=1
note_on channel=1 note=58 velocity=0 time=18
note_on channel=1 note=53 velocity=0 time=1
note_on channel=1 note=61 velocity=0 time=1
note_on channel=1 note=61 velocity=72 time=27
note_on channel=1 note=53 velocity=72 time=1
note_on channel=1 note=58 velocity=72 time=0
note_on channel=1 note=61 velocity=0 time=31
note_on channel=1 note=58 velocity=0 time=1
note_on channel=1 note=53 velocity=0 time=0
note_on channel=1 note=58 velocity=81 time=15
note_on channel=1 note=61 velocity=81 time=1
note_on channel=1 note=53 velocity=81 time=0
note_on channel=1 note=58 velocity=0 time=19
note_on channel=1 note=53 velocity=0 time=1
note_on channel=1 note=61 velocity=0 time=0
control_change channel=1 control=10 value=48 time=25
note_on channel=1 note=53 velocity=82 time=1
note_on channel=1 note=58 velocity=82 time=1
note_on channel=1 note=46 velocity=82 time=0
note_on channel=1 note=53 velocity=0 time=31
note_on channel=1 note=46 velocity=0 time=1
note_on channel=1 note=58 velocity=0 time=0
note_on channel=1 note=58 velocity=69 time=15
note_on channel=1 note=46 velocity=69 time=2
note_on channel=1 note=53 velocity=69 time=0
note_on channel=1 note=58 velocity=0 time=18
note_on channel=1 note=53 velocity=0 time=2
note_on channel=1 note=46 velocity=0 time=0
control_change channel=1 control=10 value=39 time=25
note_on channel=1 note=39 velocity=72 time=1
note_on channel=1 note=51 velocity=72 time=1
note_on channel=1 note=39 velocity=0 time=31
note_on channel=1 note=51 velocity=0 time=1
control_change channel=1 control=10 value=44 time=14
note_on channel=1 note=43 velocity=77 time=1
note_on channel=1 note=55 velocity=77 time=0
note_on channel=1 note=55 velocity=0 time=20
note_on channel=1 note=43 velocity=0 time=0
note_on channel=1 note=56 velocity=92 time=28
note_on channel=1 note=44 velocity=92 time=2
note_on channel=1 note=56 velocity=0 time=30
note_on channel=1 note=44 velocity=0 time=2
control_change channel=1 control=10 value=52 time=13
note_on channel=1 note=60 velocity=78 time=1
note_on channel=1 note=51 velocity=78 time=0
note_on channel=1 note=56 velocity=78 time=1
note_on channel=1 note=51 velocity=0 time=19
note_on channel=1 note=60 velocity=0 time=0
note_on channel=1 note=56 velocity=0 time=1
note_on channel=1 note=56 velocity=85 time=28
note_on channel=1 note=51 velocity=85 time=1
note_on channel=1 note=60 velocity=85 time=0
note_on channel=1 note=56 velocity=0 time=31
note_on channel=1 note=60 velocity=0 time=1
note_on channel=1 note=51 velocity=0 time=0
control_change channel=1 control=10 value=47 time=13
note_on channel=1 note=57 velocity=84 time=1
note_on channel=1 note=45 velocity=84 time=1
note_on channel=1 note=57 velocity=0 time=19
note_on channel=1 note=45 velocity=0 time=1
note_on channel=1 note=46 velocity=96 time=28
note_on channel=1 note=58 velocity=96 time=1
note_on channel=1 note=46 velocity=0 time=31
note_on channel=1 note=58 velocity=0 time=1
control_change channel=1 control=10 value=52 time=13
note_on channel=1 note=51 velocity=73 time=1
note_on channel=1 note=61 velocity=73 time=1
note_on channel=1 note=55 velocity=73 time=1
note_on channel=1 note=51 velocity=0 time=18
note_on channel=1 note=61 velocity=0 time=1
note_on channel=1 note=55 velocity=0 time=1
control_change channel=1 control=10 value=39 time=25
note_on channel=1 note=51 velocity=76 time=1
note_on channel=1 note=39 velocity=76 time=2
note_on channel=1 note=51 velocity=0 time=30
note_on channel=1 note=39 velocity=0 time=2
control_change channel=1 control=10 value=52 time=13
note_on channel=1 note=51 velocity=64 time=1
note_on channel=1 note=61 velocity=64 time=2
note_on channel=1 note=55 velocity=64 time=0
note_on channel=1 note=51 velocity=0 time=18
note_on channel=1 note=55 velocity=0 time=2
note_on channel=1 note=61 velocity=0 time=0
control_change channel=1 control=10 value=48 time=25
note_on channel=1 note=58 velocity=76 time=1
note_on channel=1 note=46 velocity=76 time=2
note_on channel=1 note=58 velocity=0 time=30
note_on channel=1 note=46 velocity=0 time=2
control_change channel=1 control=10 value=52 time=13
note_on channel=1 note=55 velocity=64 time=1
note_on channel=1 note=51 velocity=64 time=0
note_on channel=1 note=61 velocity=64 time=0
note_on channel=1 note=61 velocity=0 time=20
note_on channel=1 note=51 velocity=0 time=0
note_on channel=1 note=55 velocity=0 time=0
control_change channel=1 control=10 value=39 time=28
note_on channel=1 note=51 velocity=97 time=1
note_on channel=1 note=39 velocity=97 time=0
note_on channel=1 note=39 velocity=0 time=32
note_on channel=1 note=51 velocity=0 time=0
control_change channel=1 control=10 value=44 time=14
note_on channel=1 note=43 velocity=96 time=1
note_on channel=1 note=55 velocity=96 time=1
note_on channel=1 note=43 velocity=0 time=19
note_on channel=1 note=55 velocity=0 time=1
note_on channel=1 note=56 velocity=95 time=27
note_on channel=1 note=44 velocity=95 time=0
note_on channel=1 note=44 velocity=0 time=32
note_on channel=1 note=56 velocity=0 time=0
control_change channel=1 control=10 value=52 time=15
note_on channel=1 note=51 velocity=67 time=1
note_on channel=1 note=60 velocity=67 time=0
note_on channel=1 note=56 velocity=67 time=1
note_on channel=1 note=60 velocity=0 time=19
note_on channel=1 note=51 velocity=0 time=0
note_on channel=1 note=56 velocity=0 time=1
control_change channel=1 control=10 value=39 time=26
note_on channel=1 note=51 velocity=72 time=1
note_on channel=1 note=39 velocity=72 time=2
note_on channel=1 note=51 velocity=0 time=30
note_on channel=1 note=39 velocity=0 time=2
control_change channel=1 control=10 value=52 time=13
note_on channel=1 note=56 velocity=59 time=1
note_on channel=1 note=60 velocity=59 time=1
note_on channel=1 note=51 velocity=59 time=1
note_on channel=1 note=56 velocity=0 time=18
note_on channel=1 note=60 velocity=0 time=1
note_on channel=1 note=51 velocity=0 time=1
control_change channel=1 control=10 value=45 time=25
note_on channel=1 note=44 velocity=72 time=1
note_on channel=1 note=56 velocity=72 time=2
note_on channel=1 note=44 velocity=0 time=30
note_on channel=1 note=56 velocity=0 time=2
control_change channel=1 control=10 value=52 time=13
note_on channel=1 note=60 velocity=59 time=1
note_on channel=1 note=51 velocity=59 time=1
note_on channel=1 note=56 velocity=59 time=1
note_on channel=1 note=60 velocity=0 time=18
note_on channel=1 note=51 velocity=0 time=1
note_on channel=1 note=56 velocity=0 time=1
control_change channel=1 control=10 value=45 time=25
note_on channel=1 note=44 velocity=92 time=1
note_on channel=1 note=56 velocity=92 time=1
note_on channel=1 note=44 velocity=0 time=31
note_on channel=1 note=56 velocity=0 time=1
note_on channel=1 note=57 velocity=96 time=16
note_on channel=1 note=45 velocity=96 time=1
note_on channel=1 note=57 velocity=0 time=19
note_on channel=1 note=45 velocity=0 time=1
note_on channel=1 note=46 velocity=94 time=26
note_on channel=1 note=58 velocity=94 time=1
note_on channel=1 note=46 velocity=0 time=31
note_on channel=1 note=58 velocity=0 time=1
control_change channel=1 control=10 value=52 time=14
note_on channel=1 note=51 velocity=67 time=1
note_on channel=1 note=55 velocity=67 time=1
note_on channel=1 note=61 velocity=67 time=1
note_on channel=1 note=51 velocity=0 time=18
note_on channel=1 note=55 velocity=0 time=1
note_on channel=1 note=61 velocity=0 time=1
control_change channel=1 control=10 value=39 time=26
note_on channel=1 note=51 velocity=72 time=1
note_on channel=1 note=39 velocity=72 time=1
note_on channel=1 note=51 velocity=0 time=31
note_on channel=1 note=39 velocity=0 time=1
control_change channel=1 control=10 value=52 time=14
note_on channel=1 note=51 velocity=59 time=1
note_on channel=1 note=55 velocity=59 time=0
note_on channel=1 note=61 velocity=59 time=1
note_on channel=1 note=55 velocity=0 time=19
note_on channel=1 note=51 velocity=0 time=0
note_on channel=1 note=61 velocity=0 time=1
control_change channel=1 control=10 value=48 time=26
note_on channel=1 note=46 velocity=72 time=1
note_on channel=1 note=58 velocity=72 time=1
note_on channel=1 note=46 velocity=0 time=31
note_on channel=1 note=58 velocity=0 time=1
control_change channel=1 control=10 value=52 time=14
note_on channel=1 note=61 velocity=59 time=1
note_on channel=1 note=51 velocity=59 time=0
note_on channel=1 note=55 velocity=59 time=1
note_on channel=1 note=51 velocity=0 time=19
note_on channel=1 note=61 velocity=0 time=0
note_on channel=1 note=55 velocity=0 time=1
control_change channel=1 control=10 value=48 time=25
note_on channel=1 note=58 velocity=93 time=1
note_on channel=1 note=46 velocity=93 time=1
note_on channel=1 note=58 velocity=0 time=31
note_on channel=1 note=46 velocity=0 time=1
note_on channel=1 note=59 velocity=96 time=15
note_on channel=1 note=47 velocity=96 time=0
note_on channel=1 note=47 velocity=0 time=20
note_on channel=1 note=59 velocity=0 time=0
note_on channel=1 note=60 velocity=98 time=29
note_on channel=1 note=48 velocity=98 time=1
note_on channel=1 note=60 velocity=0 time=31
note_on channel=1 note=48 velocity=0 time=1
control_change channel=1 control=10 value=52 time=14
note_on channel=1 note=60 velocity=67 time=1
note_on channel=1 note=51 velocity=67 time=1
note_on channel=1 note=56 velocity=67 time=0
note_on channel=1 note=60 velocity=0 time=19
note_on channel=1 note=56 velocity=0 time=1
note_on channel=1 note=51 velocity=0 time=0
control_change channel=1 control=10 value=39 time=26
note_on channel=1 note=51 velocity=72 time=1
note_on channel=1 note=39 velocity=72 time=0
note_on channel=1 note=39 velocity=0 time=32
note_on channel=1 note=51 velocity=0 time=0
control_change channel=1 control=10 value=52 time=15
note_on channel=1 note=60 velocity=59 time=1
note_on channel=1 note=56 velocity=59 time=0
note_on channel=1 note=51 velocity=59 time=0
note_on channel=1 note=51 velocity=0 time=20
note_on channel=1 note=56 velocity=0 time=0
note_on channel=1 note=60 velocity=0 time=0
control_change channel=1 control=10 value=45 time=27
note_on channel=1 note=56 velocity=72 time=1
note_on channel=1 note=44 velocity=72 time=0
note_on channel=1 note=44 velocity=0 time=32
note_on channel=1 note=56 velocity=0 time=0
control_change channel=1 control=10 value=52 time=14
note_on channel=1 note=51 velocity=59 time=1
note_on channel=1 note=60 velocity=59 time=1
note_on channel=1 note=56 velocity=59 time=1
note_on channel=1 note=51 velocity=0 time=18
note_on channel=1 note=60 velocity=0 time=1
note_on channel=1 note=56 velocity=0 time=1
control_change channel=1 control=10 value=45 time=25
note_on channel=1 note=44 velocity=92 time=1
note_on channel=1 note=56 velocity=92 time=0
note_on channel=1 note=56 velocity=0 time=32
note_on channel=1 note=44 velocity=0 time=0
note_on channel=1 note=57 velocity=98 time=16
note_on channel=1 note=45 velocity=98 time=0
note_on channel=1 note=45 velocity=0 time=20
note_on channel=1 note=57 velocity=0 time=0
note_on channel=1 note=58 velocity=95 time=28
note_on channel=1 note=46 velocity=95 time=1
note_on channel=1 note=58 velocity=0 time=31
note_on channel=1 note=46 velocity=0 time=1
control_change channel=1 control=10 value=52 time=14
note_on channel=1 note=51 velocity=69 time=1
note_on channel=1 note=55 velocity=69 time=1
note_on channel=1 note=61 velocity=69 time=1
note_on channel=1 note=51 velocity=0 time=18
note_on channel=1 note=55 velocity=0 time=1
note_on channel=1 note=61 velocity=0 time=1
control_change channel=1 control=10 value=39 time=26
note_on channel=1 note=51 velocity=81 time=1
note_on channel=1 note=39 velocity=81 time=1
note_on channel=1 note=51 velocity=0 time=31
note_on channel=1 note=39 velocity=0 time=1
control_change channel=1 control=10 value=52 time=13
note_on channel=1 note=55 velocity=67 time=1
note_on channel=1 note=61 velocity=67 time=2
note_on channel=1 note=51 velocity=67 time=0
note_on channel=1 note=55 velocity=0 time=18
note_on channel=1 note=51 velocity=0 time=2
note_on channel=1 note=61 velocity=0 time=0
control_change channel=1 control=10 value=48 time=25
note_on channel=1 note=58 velocity=79 time=1
note_on channel=1 note=46 velocity=79 time=0
note_on channel=1 note=46 velocity=0 time=32
note_on channel=1 note=58 velocity=0 time=0
control_change channel=1 control=10 value=52 time=15
note_on channel=1 note=55 velocity=66 time=1
note_on channel=1 note=61 velocity=66 time=1
note_on channel=1 note=51 velocity=66 time=1
note_on channel=1 note=55 velocity=0 time=18
note_on channel=1 note=61 velocity=0 time=1
note_on channel=1 note=51 velocity=0 time=1
control_change channel=1 control=10 value=39 time=26
note_on channel=1 note=51 velocity=98 time=1
note_on channel=1 note=39 velocity=98 time=0
note_on channel=1 note=39 velocity=0 time=32
note_on channel=1 note=51 velocity=0 time=0
control_change channel=1 control=10 value=44 time=14
note_on channel=1 note=55 velocity=95 time=1
note_on channel=1 note=43 velocity=95 time=0
note_on channel=1 note=43 velocity=0 time=20
note_on channel=1 note=55 velocity=0 time=0
note_on channel=1 note=44 velocity=99 time=29
note_on channel=1 note=56 velocity=87 time=1
note_on channel=1 note=44 velocity=0 time=31
note_on channel=1 note=56 velocity=0 time=1
control_change channel=1 control=10 value=52 time=13
note_on channel=1 note=60 velocity=63 time=1
note_on channel=1 note=56 velocity=63 time=0
note_on channel=1 note=51 velocity=63 time=1
note_on channel=1 note=56 velocity=0 time=19
note_on channel=1 note=60 velocity=0 time=0
note_on channel=1 note=51 velocity=0 time=1
control_change channel=1 control=10 value=39 time=27
note_on channel=1 note=39 velocity=72 time=1
note_on channel=1 note=51 velocity=72 time=1
note_on channel=1 note=39 velocity=0 time=31
note_on channel=1 note=51 velocity=0 time=1
control_change channel=1 control=10 value=52 time=13
note_on channel=1 note=60 velocity=59 time=1
note_on channel=1 note=56 velocity=59 time=1
note_on channel=1 note=51 velocity=59 time=1
note_on channel=1 note=60 velocity=0 time=18
note_on channel=1 note=56 velocity=0 time=1
note_on channel=1 note=51 velocity=0 time=1
control_change channel=1 control=10 value=45 time=25
note_on channel=1 note=56 velocity=106 time=1
note_on channel=1 note=44 velocity=106 time=1
note_on channel=1 note=56 velocity=0 time=31
note_on channel=1 note=44 velocity=0 time=1
note_on channel=1 note=56 velocity=105 time=16
note_on channel=1 note=44 velocity=105 time=0
note_on channel=1 note=44 velocity=0 time=20
note_on channel=1 note=56 velocity=0 time=0
note_on channel=1 note=55 velocity=96 time=27
note_on channel=1 note=43 velocity=96 time=1
note_on channel=1 note=55 velocity=0 time=31
note_on channel=1 note=43 velocity=0 time=1
note_on channel=1 note=42 velocity=88 time=15
note_on channel=1 note=54 velocity=88 time=0
note_on channel=1 note=54 velocity=0 time=20
note_on channel=1 note=42 velocity=0 time=0
control_change channel=1 control=10 value=41 time=28
note_on channel=1 note=53 velocity=89 time=1
note_on channel=1 note=41 velocity=89 time=1
note_on channel=1 note=53 velocity=0 time=31
note_on channel=1 note=41 velocity=0 time=1
note_on channel=1 note=41 velocity=77 time=14
note_on channel=1 note=53 velocity=77 time=1
note_on channel=1 note=41 velocity=0 time=19
note_on channel=1 note=53 velocity=0 time=1
control_change channel=1 control=10 value=47 time=27
note_on channel=1 note=45 velocity=85 time=1
note_on channel=1 note=57 velocity=85 time=1
note_on channel=1 note=45 velocity=0 time=31
note_on channel=1 note=57 velocity=0 time=1
note_on channel=1 note=57 velocity=81 time=15
note_on channel=1 note=45 velocity=81 time=0
note_on channel=1 note=45 velocity=0 time=20
note_on channel=1 note=57 velocity=0 time=0
note_on channel=1 note=46 velocity=85 time=27
note_on channel=1 note=58 velocity=85 time=2
note_on channel=1 note=46 velocity=0 time=30
note_on channel=1 note=58 velocity=0 time=2
control_change channel=1 control=10 value=54 time=13
note_on channel=1 note=53 velocity=70 time=1
note_on channel=1 note=58 velocity=70 time=0
note_on channel=1 note=61 velocity=70 time=1
note_on channel=1 note=58 velocity=0 time=19
note_on channel=1 note=53 velocity=0 time=0
note_on channel=1 note=61 velocity=0 time=1
note_on channel=1 note=58 velocity=84 time=27
note_on channel=1 note=61 velocity=84 time=0
note_on channel=1 note=53 velocity=84 time=2
note_on channel=1 note=61 velocity=0 time=30
note_on channel=1 note=58 velocity=0 time=0
note_on channel=1 note=53 velocity=0 time=2
note_on channel=1 note=58 velocity=78 time=15
note_on channel=1 note=53 velocity=78 time=0
note_on channel=1 note=61 velocity=78 time=1
note_on channel=1 note=53 velocity=0 time=19
note_on channel=1 note=58 velocity=0 time=0
note_on channel=1 note=61 velocity=0 time=1
control_change channel=1 control=10 value=48 time=26
note_on channel=1 note=53 velocity=72 time=1
note_on channel=1 note=46 velocity=72 time=0
note_on channel=1 note=58 velocity=72 time=0
note_on channel=1 note=58 velocity=0 time=32
note_on channel=1 note=46 velocity=0 time=0
note_on channel=1 note=53 velocity=0 time=0
note_on channel=1 note=58 velocity=69 time=15
note_on channel=1 note=46 velocity=69 time=1
note_on channel=1 note=53 velocity=69 time=1
note_on channel=1 note=58 velocity=0 time=18
note_on channel=1 note=46 velocity=0 time=1
note_on channel=1 note=53 velocity=0 time=1
control_change channel=1 control=10 value=39 time=26
note_on channel=1 note=39 velocity=82 time=1
note_on channel=1 note=51 velocity=82 time=1
note_on channel=1 note=39 velocity=0 time=31
note_on channel=1 note=51 velocity=0 time=1
control_change channel=1 control=10 value=44 time=14
note_on channel=1 note=55 velocity=77 time=1
note_on channel=1 note=43 velocity=77 time=1
note_on channel=1 note=55 velocity=0 time=19
note_on channel=1 note=43 velocity=0 time=1
note_on channel=1 note=44 velocity=103 time=26
note_on channel=1 note=56 velocity=111 time=3
note_on channel=1 note=44 velocity=0 time=29
note_on channel=1 note=56 velocity=0 time=3
control_change channel=1 control=10 value=57 time=13
note_on channel=1 note=56 velocity=78 time=1
note_on channel=1 note=60 velocity=78 time=1
note_on channel=1 note=63 velocity=78 time=0
note_on channel=1 note=56 velocity=0 time=31
note_on channel=1 note=63 velocity=0 time=1
note_on channel=1 note=60 velocity=0 time=0
note_on channel=1 note=56 velocity=78 time=14
note_on channel=1 note=63 velocity=78 time=1
note_on channel=1 note=60 velocity=78 time=1
note_on channel=1 note=56 velocity=0 time=35
note_on channel=1 note=63 velocity=0 time=1
note_on channel=1 note=60 velocity=0 time=1
control_change channel=1 control=10 value=39 time=8
note_on channel=1 note=39 velocity=90 time=1
note_on channel=1 note=51 velocity=90 time=2
note_on channel=1 note=39 velocity=0 time=30
note_on channel=1 note=51 velocity=0 time=2
control_change channel=1 control=10 value=45 time=13
note_on channel=1 note=44 velocity=93 time=1
note_on channel=1 note=56 velocity=95 time=2
note_on channel=1 note=44 velocity=0 time=28
note_on channel=1 note=56 velocity=0 time=2
control_change channel=1 control=10 value=52 time=15
note_on channel=1 note=56 velocity=78 time=1
note_on channel=1 note=51 velocity=78 time=0
note_on channel=1 note=60 velocity=78 time=1
note_on channel=1 note=51 velocity=0 time=19
note_on channel=1 note=56 velocity=0 time=0
note_on channel=1 note=60 velocity=0 time=1
note_on channel=1 note=51 velocity=73 time=27
note_on channel=1 note=60 velocity=73 time=1
note_on channel=1 note=56 velocity=73 time=1
note_on channel=1 note=51 velocity=0 time=28
note_on channel=1 note=60 velocity=0 time=1
note_on channel=1 note=56 velocity=0 time=1
control_change channel=1 control=10 value=47 time=15
note_on channel=1 note=57 velocity=84 time=1
note_on channel=1 note=45 velocity=84 time=1
note_on channel=1 note=57 velocity=0 time=19
note_on channel=1 note=45 velocity=0 time=1
note_on channel=1 note=46 velocity=91 time=27
note_on channel=1 note=58 velocity=91 time=0
note_on channel=1 note=58 velocity=0 time=30
note_on channel=1 note=46 velocity=0 time=0
control_change channel=1 control=10 value=52 time=17
note_on channel=1 note=61 velocity=73 time=1
note_on channel=1 note=55 velocity=73 time=1
note_on channel=1 note=51 velocity=73 time=1
note_on channel=1 note=61 velocity=0 time=18
note_on channel=1 note=55 velocity=0 time=1
note_on channel=1 note=51 velocity=0 time=1
note_on channel=1 note=61 velocity=78 time=26
note_on channel=1 note=51 velocity=78 time=1
note_on channel=1 note=55 velocity=78 time=1
note_on channel=1 note=61 velocity=0 time=28
note_on channel=1 note=51 velocity=0 time=1
note_on channel=1 note=55 velocity=0 time=1
control_change channel=1 control=10 value=39 time=15
note_on channel=1 note=51 velocity=84 time=1
note_on channel=1 note=39 velocity=84 time=2
note_on channel=1 note=51 velocity=0 time=18
note_on channel=1 note=39 velocity=0 time=2
control_change channel=1 control=10 value=45 time=25
note_on channel=1 note=56 velocity=90 time=1
note_on channel=1 note=44 velocity=90 time=0
note_on channel=1 note=44 velocity=0 time=30
note_on channel=1 note=56 velocity=0 time=0
control_change channel=1 control=10 value=52 time=17
note_on channel=1 note=51 velocity=73 time=1
note_on channel=1 note=60 velocity=73 time=0
note_on channel=1 note=56 velocity=73 time=1
note_on channel=1 note=60 velocity=0 time=19
note_on channel=1 note=51 velocity=0 time=0
note_on channel=1 note=56 velocity=0 time=1
note_on channel=1 note=56 velocity=68 time=27
note_on channel=1 note=51 velocity=68 time=0
note_on channel=1 note=60 velocity=68 time=2
note_on channel=1 note=51 velocity=0 time=28
note_on channel=1 note=56 velocity=0 time=0
note_on channel=1 note=60 velocity=0 time=2
control_change channel=1 control=10 value=47 time=16
note_on channel=1 note=57 velocity=84 time=1
note_on channel=1 note=45 velocity=84 time=1
note_on channel=1 note=57 velocity=0 time=19
note_on channel=1 note=45 velocity=0 time=1
note_on channel=1 note=46 velocity=88 time=26
note_on channel=1 note=58 velocity=88 time=1
note_on channel=1 note=46 velocity=0 time=29
note_on channel=1 note=58 velocity=0 time=1
control_change channel=1 control=10 value=52 time=17
note_on channel=1 note=55 velocity=73 time=1
note_on channel=1 note=61 velocity=73 time=1
note_on channel=1 note=51 velocity=73 time=0
note_on channel=1 note=55 velocity=0 time=19
note_on channel=1 note=51 velocity=0 time=1
note_on channel=1 note=61 velocity=0 time=0
note_on channel=1 note=61 velocity=68 time=26
note_on channel=1 note=51 velocity=68 time=1
note_on channel=1 note=55 velocity=68 time=1
note_on channel=1 note=61 velocity=0 time=28
note_on channel=1 note=51 velocity=0 time=1
note_on channel=1 note=55 velocity=0 time=1
control_change channel=1 control=10 value=39 time=15
note_on channel=1 note=51 velocity=95 time=1
note_on channel=1 note=39 velocity=95 time=2
note_on channel=1 note=51 velocity=0 time=18
note_on channel=1 note=39 velocity=0 time=2
note_on channel=1 note=40 velocity=93 time=27
note_on channel=1 note=52 velocity=93 time=0
note_on channel=1 note=52 velocity=0 time=64
note_on channel=1 note=40 velocity=0 time=0
note_on channel=1 note=39 velocity=69 time=32
note_on channel=1 note=51 velocity=69 time=1
note_on channel=1 note=39 velocity=0 time=31
note_on channel=1 note=51 velocity=0 time=1
note_on channel=1 note=39 velocity=72 time=14
note_on channel=1 note=51 velocity=72 time=1
note_on channel=1 note=39 velocity=0 time=20
note_on channel=1 note=51 velocity=0 time=1
note_on channel=1 note=40 velocity=87 time=27
note_on channel=1 note=52 velocity=87 time=1
note_on channel=1 note=40 velocity=0 time=63
note_on channel=1 note=52 velocity=0 time=1
note_on channel=1 note=51 velocity=84 time=31
note_on channel=1 note=39 velocity=84 time=0
note_on channel=1 note=39 velocity=0 time=32
note_on channel=1 note=51 velocity=0 time=0
control_change channel=1 control=10 value=22 time=64
note_on channel=1 note=32 velocity=96 time=1
control_change channel=1 control=10 value=37 time=22
note_on channel=1 note=44 velocity=58 time=1
note_on channel=1 note=44 velocity=0 time=20
note_on channel=1 note=32 velocity=0 time=0
control_change channel=1 control=10 value=41 time=2
note_on channel=1 note=47 velocity=59 time=1
control_change channel=1 control=10 value=53 time=23
note_on channel=1 note=56 velocity=69 time=1
note_on channel=1 note=47 velocity=0 time=8
note_on channel=1 note=56 velocity=0 time=13
control_change channel=1 control=10 value=37 time=4
note_on channel=1 note=44 velocity=102 time=1
control_change channel=1 control=10 value=53 time=22
note_on channel=1 note=56 velocity=65 time=1
note_on channel=1 note=44 velocity=0 time=20
control_change channel=1 control=10 value=57 time=3
note_on channel=1 note=56 velocity=0 time=1
note_on channel=1 note=59 velocity=66 time=0
control_change channel=1 control=10 value=69 time=25
note_on channel=1 note=68 velocity=77 time=1
note_on channel=1 note=59 velocity=0 time=5
note_on channel=1 note=68 velocity=0 time=15
control_change channel=1 control=10 value=53 time=2
note_on channel=1 note=56 velocity=102 time=1
note_on channel=1 note=56 velocity=0 time=43
control_change channel=1 control=10 value=69 time=50
note_on channel=1 note=68 velocity=105 time=1
note_on channel=1 note=68 velocity=0 time=43
note_on channel=1 note=71 velocity=84 time=53
note_on channel=1 note=65 velocity=84 time=1
note_on channel=1 note=62 velocity=84 time=0
note_on channel=1 note=68 velocity=84 time=0
note_on channel=1 note=71 velocity=0 time=25
note_on channel=1 note=65 velocity=0 time=1
note_on channel=1 note=62 velocity=0 time=0
note_on channel=1 note=68 velocity=0 time=0
note_on channel=1 note=71 velocity=72 time=21
note_on channel=1 note=65 velocity=72 time=0
note_on channel=1 note=62 velocity=72 time=2
note_on channel=1 note=68 velocity=72 time=0
note_on channel=1 note=65 velocity=0 time=15
note_on channel=1 note=71 velocity=0 time=0
note_on channel=1 note=62 velocity=0 time=2
note_on channel=1 note=68 velocity=0 time=0
note_on channel=1 note=68 velocity=84 time=31
note_on channel=1 note=65 velocity=84 time=0
note_on channel=1 note=62 velocity=84 time=0
note_on channel=1 note=71 velocity=84 time=0
note_on channel=1 note=71 velocity=0 time=26
note_on channel=1 note=68 velocity=0 time=0
note_on channel=1 note=65 velocity=0 time=0
note_on channel=1 note=62 velocity=0 time=0
note_on channel=1 note=65 velocity=66 time=20
note_on channel=1 note=62 velocity=66 time=0
note_on channel=1 note=68 velocity=66 time=0
note_on channel=1 note=71 velocity=66 time=1
note_on channel=1 note=68 velocity=0 time=16
note_on channel=1 note=65 velocity=0 time=0
note_on channel=1 note=62 velocity=0 time=0
note_on channel=1 note=71 velocity=0 time=1
note_on channel=1 note=72 velocity=88 time=31
note_on channel=1 note=63 velocity=88 time=1
note_on channel=1 note=68 velocity=88 time=0
note_on channel=1 note=72 velocity=0 time=25
note_on channel=1 note=68 velocity=0 time=1
note_on channel=1 note=63 velocity=0 time=0
note_on channel=1 note=72 velocity=72 time=20
note_on channel=1 note=63 velocity=72 time=1
note_on channel=1 note=68 velocity=72 time=1
note_on channel=1 note=72 velocity=0 time=15
note_on channel=1 note=63 velocity=0 time=1
note_on channel=1 note=68 velocity=0 time=1
note_on channel=1 note=72 velocity=89 time=30
note_on channel=1 note=68 velocity=89 time=0
note_on channel=1 note=63 velocity=89 time=1
note_on channel=1 note=68 velocity=0 time=25
note_on channel=1 note=72 velocity=0 time=0
note_on channel=1 note=63 velocity=0 time=1
note_on channel=1 note=63 velocity=72 time=20
note_on channel=1 note=72 velocity=72 time=1
note_on channel=1 note=68 velocity=72 time=1
note_on channel=1 note=63 velocity=0 time=15
note_on channel=1 note=72 velocity=0 time=1
note_on channel=1 note=68 velocity=0 time=1
note_on channel=1 note=68 velocity=81 time=29
note_on channel=1 note=71 velocity=81 time=1
note_on channel=1 note=64 velocity=81 time=0
note_on channel=1 note=68 velocity=0 time=25
note_on channel=1 note=64 velocity=0 time=1
note_on channel=1 note=71 velocity=0 time=0
note_on channel=1 note=64 velocity=66 time=22
note_on channel=1 note=68 velocity=66 time=0
note_on channel=1 note=71 velocity=66 time=1
note_on channel=1 note=68 velocity=0 time=16
note_on channel=1 note=64 velocity=0 time=0
note_on channel=1 note=71 velocity=0 time=1
note_on channel=1 note=72 velocity=75 time=29
note_on channel=1 note=68 velocity=75 time=1
note_on channel=1 note=63 velocity=75 time=1
note_on channel=1 note=72 velocity=0 time=24
note_on channel=1 note=68 velocity=0 time=1
note_on channel=1 note=63 velocity=0 time=1
note_on channel=1 note=63 velocity=63 time=20
note_on channel=1 note=72 velocity=63 time=0
note_on channel=1 note=68 velocity=63 time=1
note_on channel=1 note=72 velocity=0 time=16
note_on channel=1 note=63 velocity=0 time=0
note_on channel=1 note=68 velocity=0 time=1
note_on channel=1 note=72 velocity=82 time=30
note_on channel=1 note=68 velocity=82 time=2
note_on channel=1 note=63 velocity=82 time=0
note_on channel=1 note=72 velocity=0 time=24
note_on channel=1 note=63 velocity=0 time=2
note_on channel=1 note=68 velocity=0 time=0
note_on channel=1 note=63 velocity=77 time=21
note_on channel=1 note=73 velocity=77 time=1
note_on channel=1 note=67 velocity=77 time=0
note_on channel=1 note=63 velocity=0 time=16
note_on channel=1 note=67 velocity=0 time=1
note_on channel=1 note=73 velocity=0 time=0
note_on channel=1 note=72 velocity=78 time=30
note_on channel=1 note=63 velocity=78 time=1
note_on channel=1 note=68 velocity=78 time=0
note_on channel=1 note=72 velocity=0 time=39
note_on channel=1 note=68 velocity=0 time=1
note_on channel=1 note=63 velocity=0 time=0
control_change channel=1 control=10 value=51 time=53
note_on channel=1 note=53 velocity=80 time=1
note_on channel=1 note=59 velocity=84 time=2
note_on channel=1 note=50 velocity=84 time=0
note_on channel=1 note=56 velocity=80 time=0
note_on channel=1 note=53 velocity=0 time=24
note_on channel=1 note=59 velocity=0 time=2
note_on channel=1 note=50 velocity=0 time=0
note_on channel=1 note=56 velocity=0 time=0
note_on channel=1 note=59 velocity=73 time=20
note_on channel=1 note=56 velocity=73 time=1
note_on channel=1 note=53 velocity=73 time=0
note_on channel=1 note=50 velocity=73 time=1
note_on channel=1 note=59 velocity=0 time=15
note_on channel=1 note=56 velocity=0 time=1
note_on channel=1 note=53 velocity=0 time=0
note_on channel=1 note=50 velocity=0 time=1
note_on channel=1 note=53 velocity=81 time=29
note_on channel=1 note=50 velocity=81 time=1
note_on channel=1 note=59 velocity=81 time=1
note_on channel=1 note=56 velocity=81 time=0
note_on channel=1 note=53 velocity=0 time=24
note_on channel=1 note=50 velocity=0 time=1
note_on channel=1 note=59 velocity=0 time=1
note_on channel=1 note=56 velocity=0 time=0
note_on channel=1 note=59 velocity=73 time=21
note_on channel=1 note=53 velocity=73 time=0
note_on channel=1 note=56 velocity=73 time=0
note_on channel=1 note=50 velocity=73 time=1
note_on channel=1 note=56 velocity=0 time=16
note_on channel=1 note=59 velocity=0 time=0
note_on channel=1 note=53 velocity=0 time=0
note_on channel=1 note=50 velocity=0 time=1
note_on channel=1 note=56 velocity=84 time=30
note_on channel=1 note=60 velocity=84 time=0
note_on channel=1 note=51 velocity=84 time=0
note_on channel=1 note=51 velocity=0 time=26
note_on channel=1 note=60 velocity=0 time=0
note_on channel=1 note=56 velocity=0 time=0
note_on channel=1 note=51 velocity=68 time=21
note_on channel=1 note=60 velocity=68 time=1
note_on channel=1 note=56 velocity=68 time=1
note_on channel=1 note=51 velocity=0 time=15
note_on channel=1 note=60 velocity=0 time=1
note_on channel=1 note=56 velocity=0 time=1
note_on channel=1 note=60 velocity=84 time=29
note_on channel=1 note=51 velocity=84 time=0
note_on channel=1 note=56 velocity=85 time=2
note_on channel=1 note=51 velocity=0 time=24
note_on channel=1 note=60 velocity=0 time=0
note_on channel=1 note=56 velocity=0 time=2
note_on channel=1 note=56 velocity=66 time=20
note_on channel=1 note=60 velocity=66 time=1
note_on channel=1 note=51 velocity=66 time=0
note_on channel=1 note=56 velocity=0 time=16
note_on channel=1 note=51 velocity=0 time=1
note_on channel=1 note=60 velocity=0 time=0
note_on channel=1 note=56 velocity=81 time=30
note_on channel=1 note=59 velocity=81 time=1
note_on channel=1 note=52 velocity=81 time=0
note_on channel=1 note=56 velocity=0 time=25
note_on channel=1 note=52 velocity=0 time=1
note_on channel=1 note=59 velocity=0 time=0
note_on channel=1 note=56 velocity=63 time=21
note_on channel=1 note=59 velocity=63 time=0
note_on channel=1 note=52 velocity=63 time=1
note_on channel=1 note=59 velocity=0 time=16
note_on channel=1 note=56 velocity=0 time=0
note_on channel=1 note=52 velocity=0 time=1
note_on channel=1 note=51 velocity=82 time=31
note_on channel=1 note=56 velocity=82 time=1
note_on channel=1 note=60 velocity=82 time=0
note_on channel=1 note=51 velocity=0 time=25
note_on channel=1 note=60 velocity=0 time=1
note_on channel=1 note=56 velocity=0 time=0
note_on channel=1 note=56 velocity=63 time=20
note_on channel=1 note=60 velocity=63 time=1
note_on channel=1 note=51 velocity=63 time=1
note_on channel=1 note=56 velocity=0 time=15
note_on channel=1 note=60 velocity=0 time=1
note_on channel=1 note=51 velocity=0 time=1
note_on channel=1 note=56 velocity=85 time=30
note_on channel=1 note=60 velocity=85 time=1
note_on channel=1 note=51 velocity=85 time=0
note_on channel=1 note=56 velocity=0 time=25
note_on channel=1 note=51 velocity=0 time=1
note_on channel=1 note=60 velocity=0 time=0
note_on channel=1 note=55 velocity=82 time=21
note_on channel=1 note=51 velocity=82 time=0
note_on channel=1 note=61 velocity=82 time=1
note_on channel=1 note=51 velocity=0 time=16
note_on channel=1 note=55 velocity=0 time=0
note_on channel=1 note=61 velocity=0 time=1
control_change channel=1 control=10 value=56 time=28
note_on channel=1 note=56 velocity=84 time=1
note_on channel=1 note=60 velocity=84 time=2
note_on channel=1 note=56 velocity=0 time=30
note_on channel=1 note=60 velocity=0 time=2
control_change channel=1 control=10 value=39 time=61
note_on channel=1 note=51 velocity=93 time=1
note_on channel=1 note=39 velocity=93 time=1
note_on channel=1 note=51 velocity=0 time=31
note_on channel=1 note=39 velocity=0 time=1
control_change channel=1 control=10 value=58 time=14
note_on channel=1 note=66 velocity=84 time=1
note_on channel=1 note=60 velocity=84 time=1
note_on channel=1 note=56 velocity=84 time=1
note_on channel=1 note=66 velocity=0 time=18
note_on channel=1 note=60 velocity=0 time=1
note_on channel=1 note=56 velocity=0 time=1
control_change channel=1 control=10 value=43 time=26
note_on channel=1 note=54 velocity=94 time=1
note_on channel=1 note=42 velocity=94 time=0
note_on channel=1 note=42 velocity=0 time=32
note_on channel=1 note=54 velocity=0 time=0
control_change channel=1 control=10 value=58 time=16
note_on channel=1 note=60 velocity=77 time=1
note_on channel=1 note=66 velocity=77 time=0
note_on channel=1 note=56 velocity=77 time=0
note_on channel=1 note=56 velocity=0 time=20
note_on channel=1 note=66 velocity=0 time=0
note_on channel=1 note=60 velocity=0 time=0
control_change channel=1 control=10 value=41 time=25
note_on channel=1 note=53 velocity=91 time=1
note_on channel=1 note=41 velocity=91 time=0
note_on channel=1 note=41 velocity=0 time=32
note_on channel=1 note=53 velocity=0 time=0
control_change channel=1 control=10 value=58 time=15
note_on channel=1 note=66 velocity=79 time=1
note_on channel=1 note=60 velocity=79 time=1
note_on channel=1 note=56 velocity=79 time=0
note_on channel=1 note=66 velocity=0 time=19
note_on channel=1 note=56 velocity=0 time=1
note_on channel=1 note=60 velocity=0 time=0
control_change channel=1 control=10 value=39 time=26
note_on channel=1 note=51 velocity=96 time=1
note_on channel=1 note=39 velocity=96 time=1
note_on channel=1 note=51 velocity=0 time=31
note_on channel=1 note=39 velocity=0 time=1
control_change channel=1 control=10 value=35 time=14
note_on channel=1 note=48 velocity=98 time=1
note_on channel=1 note=36 velocity=98 time=2
note_on channel=1 note=48 velocity=0 time=18
note_on channel=1 note=36 velocity=0 time=2
note_on channel=1 note=37 velocity=84 time=26
note_on channel=1 note=49 velocity=84 time=2
note_on channel=1 note=37 velocity=0 time=30
note_on channel=1 note=49 velocity=0 time=2
control_change channel=1 control=10 value=58 time=13
note_on channel=1 note=56 velocity=67 time=1
note_on channel=1 note=61 velocity=67 time=2
note_on channel=1 note=65 velocity=67 time=0
note_on channel=1 note=56 velocity=0 time=18
note_on channel=1 note=65 velocity=0 time=2
note_on channel=1 note=61 velocity=0 time=0
control_change channel=1 control=10 value=45 time=27
note_on channel=1 note=56 velocity=76 time=1
note_on channel=1 note=44 velocity=76 time=0
note_on channel=1 note=44 velocity=0 time=32
note_on channel=1 note=56 velocity=0 time=0
control_change channel=1 control=10 value=58 time=13
note_on channel=1 note=65 velocity=65 time=1
note_on channel=1 note=56 velocity=65 time=1
note_on channel=1 note=61 velocity=65 time=1
note_on channel=1 note=65 velocity=0 time=18
note_on channel=1 note=56 velocity=0 time=1
note_on channel=1 note=61 velocity=0 time=1
control_change channel=1 control=10 value=41 time=26
note_on channel=1 note=53 velocity=76 time=1
note_on channel=1 note=41 velocity=76 time=1
note_on channel=1 note=53 velocity=0 time=31
note_on channel=1 note=41 velocity=0 time=1
control_change channel=1 control=10 value=58 time=13
note_on channel=1 note=65 velocity=66 time=1
note_on channel=1 note=61 velocity=66 time=2
note_on channel=1 note=56 velocity=66 time=0
note_on channel=1 note=65 velocity=0 time=18
note_on channel=1 note=56 velocity=0 time=2
note_on channel=1 note=61 velocity=0 time=0
control_change channel=1 control=10 value=36 time=26
note_on channel=1 note=49 velocity=86 time=1
note_on channel=1 note=37 velocity=86 time=1
note_on channel=1 note=49 velocity=0 time=31
note_on channel=1 note=37 velocity=0 time=1
note_on channel=1 note=38 velocity=80 time=14
note_on channel=1 note=50 velocity=80 time=1
note_on channel=1 note=38 velocity=0 time=19
note_on channel=1 note=50 velocity=0 time=1
note_on channel=1 note=39 velocity=94 time=28
note_on channel=1 note=51 velocity=94 time=1
note_on channel=1 note=39 velocity=0 time=31
note_on channel=1 note=51 velocity=0 time=1
control_change channel=1 control=10 value=58 time=13
note_on channel=1 note=56 velocity=82 time=1
note_on channel=1 note=60 velocity=82 time=0
note_on channel=1 note=66 velocity=82 time=1
note_on channel=1 note=60 velocity=0 time=19
note_on channel=1 note=56 velocity=0 time=0
note_on channel=1 note=66 velocity=0 time=1
control_change channel=1 control=10 value=43 time=28
note_on channel=1 note=54 velocity=80 time=1
note_on channel=1 note=42 velocity=80 time=0
note_on channel=1 note=42 velocity=0 time=32
note_on channel=1 note=54 velocity=0 time=0
control_change channel=1 control=10 value=58 time=14
note_on channel=1 note=60 velocity=70 time=1
note_on channel=1 note=66 velocity=70 time=1
note_on channel=1 note=56 velocity=70 time=0
note_on channel=1 note=60 velocity=0 time=19
note_on channel=1 note=56 velocity=0 time=1
note_on channel=1 note=66 velocity=0 time=0
control_change channel=1 control=10 value=41 time=26
note_on channel=1 note=53 velocity=93 time=1
note_on channel=1 note=41 velocity=93 time=1
note_on channel=1 note=53 velocity=0 time=31
note_on channel=1 note=41 velocity=0 time=1
control_change channel=1 control=10 value=58 time=13
note_on channel=1 note=66 velocity=82 time=1
note_on channel=1 note=56 velocity=82 time=2
note_on channel=1 note=60 velocity=82 time=0
note_on channel=1 note=66 velocity=0 time=18
note_on channel=1 note=60 velocity=0 time=2
note_on channel=1 note=56 velocity=0 time=0
control_change channel=1 control=10 value=39 time=27
note_on channel=1 note=51 velocity=93 time=1
note_on channel=1 note=39 velocity=93 time=0
note_on channel=1 note=39 velocity=0 time=32
note_on channel=1 note=51 velocity=0 time=0
control_change channel=1 control=10 value=35 time=13
note_on channel=1 note=36 velocity=89 time=1
note_on channel=1 note=48 velocity=89 time=0
note_on channel=1 note=48 velocity=0 time=20
note_on channel=1 note=36 velocity=0 time=0
note_on channel=1 note=49 velocity=84 time=28
note_on channel=1 note=37 velocity=84 time=0
note_on channel=1 note=37 velocity=0 time=32
note_on channel=1 note=49 velocity=0 time=0
control_change channel=1 control=10 value=58 time=15
note_on channel=1 note=65 velocity=61 time=1
note_on channel=1 note=61 velocity=61 time=2
note_on channel=1 note=56 velocity=61 time=0
note_on channel=1 note=65 velocity=0 time=18
note_on channel=1 note=56 velocity=0 time=2
note_on channel=1 note=61 velocity=0 time=0
control_change channel=1 control=10 value=45 time=25
note_on channel=1 note=56 velocity=71 time=1
note_on channel=1 note=44 velocity=71 time=2
note_on channel=1 note=56 velocity=0 time=30
note_on channel=1 note=44 velocity=0 time=2
control_change channel=1 control=10 value=58 time=13
note_on channel=1 note=61 velocity=61 time=1
note_on channel=1 note=65 velocity=61 time=1
note_on channel=1 note=56 velocity=61 time=1
note_on channel=1 note=61 velocity=0 time=18
note_on channel=1 note=65 velocity=0 time=1
note_on channel=1 note=56 velocity=0 time=1
control_change channel=1 control=10 value=41 time=26
note_on channel=1 note=41 velocity=71 time=1
note_on channel=1 note=53 velocity=71 time=1
note_on channel=1 note=41 velocity=0 time=31
note_on channel=1 note=53 velocity=0 time=1
control_change channel=1 control=10 value=58 time=14
note_on channel=1 note=65 velocity=61 time=1
note_on channel=1 note=61 velocity=61 time=0
note_on channel=1 note=56 velocity=61 time=0
note_on channel=1 note=56 velocity=0 time=20
note_on channel=1 note=61 velocity=0 time=0
note_on channel=1 note=65 velocity=0 time=0
control_change channel=1 control=10 value=36 time=28
note_on channel=1 note=49 velocity=94 time=1
note_on channel=1 note=37 velocity=94 time=0
note_on channel=1 note=37 velocity=0 time=32
note_on channel=1 note=49 velocity=0 time=0
note_on channel=1 note=36 velocity=88 time=15
note_on channel=1 note=48 velocity=88 time=1
note_on channel=1 note=36 velocity=0 time=19
note_on channel=1 note=48 velocity=0 time=1
control_change channel=1 control=10 value=32 time=26
note_on channel=1 note=46 velocity=93 time=1
note_on channel=1 note=34 velocity=93 time=1
note_on channel=1 note=46 velocity=0 time=30
note_on channel=1 note=34 velocity=0 time=1
control_change channel=1 control=10 value=61 time=14
note_on channel=1 note=62 velocity=80 time=1
note_on channel=1 note=68 velocity=80 time=1
note_on channel=1 note=58 velocity=80 time=0
note_on channel=1 note=62 velocity=0 time=18
note_on channel=1 note=58 velocity=0 time=1
note_on channel=1 note=68 velocity=0 time=0
control_change channel=1 control=10 value=37 time=28
note_on channel=1 note=50 velocity=84 time=1
note_on channel=1 note=38 velocity=84 time=1
note_on channel=1 note=50 velocity=0 time=30
note_on channel=1 note=38 velocity=0 time=1
control_change channel=1 control=10 value=61 time=14
note_on channel=1 note=58 velocity=69 time=1
note_on channel=1 note=68 velocity=69 time=1
note_on channel=1 note=62 velocity=69 time=1
note_on channel=1 note=58 velocity=0 time=17
note_on channel=1 note=68 velocity=0 time=1
note_on channel=1 note=62 velocity=0 time=1
control_change channel=1 control=10 value=41 time=26
note_on channel=1 note=53 velocity=93 time=1
note_on channel=1 note=41 velocity=93 time=0
note_on channel=1 note=41 velocity=0 time=31
note_on channel=1 note=53 velocity=0 time=0
control_change channel=1 control=10 value=61 time=16
note_on channel=1 note=68 velocity=78 time=1
note_on channel=1 note=58 velocity=78 time=0
note_on channel=1 note=62 velocity=78 time=1
note_on channel=1 note=58 velocity=0 time=18
note_on channel=1 note=68 velocity=0 time=0
note_on channel=1 note=62 velocity=0 time=1
control_change channel=1 control=10 value=48 time=28
note_on channel=1 note=58 velocity=89 time=1
note_on channel=1 note=46 velocity=89 time=1
note_on channel=1 note=58 velocity=0 time=30
note_on channel=1 note=46 velocity=0 time=1
control_change channel=1 control=10 value=61 time=14
note_on channel=1 note=68 velocity=69 time=1
note_on channel=1 note=58 velocity=69 time=1
note_on channel=1 note=62 velocity=69 time=1
note_on channel=1 note=68 velocity=0 time=17
note_on channel=1 note=58 velocity=0 time=1
note_on channel=1 note=62 velocity=0 time=1
control_change channel=1 control=10 value=39 time=26
note_on channel=1 note=39 velocity=75 time=1
note_on channel=1 note=51 velocity=75 time=2
note_on channel=1 note=39 velocity=0 time=30
note_on channel=1 note=51 velocity=0 time=2
control_change channel=1 control=10 value=61 time=13
note_on channel=1 note=58 velocity=67 time=1
note_on channel=1 note=63 velocity=67 time=1
note_on channel=1 note=66 velocity=67 time=1
note_on channel=1 note=58 velocity=0 time=18
note_on channel=1 note=63 velocity=0 time=1
note_on channel=1 note=66 velocity=0 time=1
control_change channel=1 control=10 value=43 time=25
note_on channel=1 note=42 velocity=75 time=1
note_on channel=1 note=54 velocity=75 time=2
note_on channel=1 note=42 velocity=0 time=30
note_on channel=1 note=54 velocity=0 time=2
control_change channel=1 control=10 value=61 time=14
note_on channel=1 note=66 velocity=67 time=1
note_on channel=1 note=63 velocity=67 time=0
note_on channel=1 note=58 velocity=67 time=1
note_on channel=1 note=63 velocity=0 time=19
note_on channel=1 note=66 velocity=0 time=0
note_on channel=1 note=58 velocity=0 time=1
control_change channel=1 control=10 value=39 time=25
note_on channel=1 note=51 velocity=75 time=1
note_on channel=1 note=39 velocity=75 time=1
note_on channel=1 note=51 velocity=0 time=31
note_on channel=1 note=39 velocity=0 time=1
control_change channel=1 control=10 value=61 time=14
note_on channel=1 note=58 velocity=67 time=1
note_on channel=1 note=66 velocity=67 time=0
note_on channel=1 note=63 velocity=67 time=1
note_on channel=1 note=66 velocity=0 time=19
note_on channel=1 note=58 velocity=0 time=0
note_on channel=1 note=63 velocity=0 time=1
control_change channel=1 control=10 value=43 time=28
note_on channel=1 note=54 velocity=75 time=1
note_on channel=1 note=42 velocity=75 time=0
note_on channel=1 note=42 velocity=0 time=32
note_on channel=1 note=54 velocity=0 time=0
control_change channel=1 control=10 value=61 time=13
note_on channel=1 note=58 velocity=72 time=1
note_on channel=1 note=63 velocity=72 time=1
note_on channel=1 note=66 velocity=72 time=1
note_on channel=1 note=58 velocity=0 time=18
note_on channel=1 note=63 velocity=0 time=1
note_on channel=1 note=66 velocity=0 time=1
control_change channel=1 control=10 value=52 time=25
note_on channel=1 note=55 velocity=97 time=1
note_on channel=1 note=55 velocity=0 time=16
control_change channel=1 control=10 value=56 time=10
note_on channel=1 note=58 velocity=102 time=1
note_on channel=1 note=58 velocity=0 time=32
control_change channel=1 control=10 value=60 time=14
note_on channel=1 note=61 velocity=96 time=1
note_on channel=1 note=61 velocity=0 time=16
control_change channel=1 control=10 value=64 time=6
note_on channel=1 note=64 velocity=110 time=1
note_on channel=1 note=64 velocity=0 time=16
control_change channel=1 control=10 value=60 time=9
note_on channel=1 note=61 velocity=91 time=1
note_on channel=1 note=61 velocity=0 time=16
control_change channel=1 control=10 value=56 time=6
note_on channel=1 note=58 velocity=96 time=1
note_on channel=1 note=58 velocity=0 time=10
control_change channel=1 control=10 value=52 time=14
note_on channel=1 note=55 velocity=91 time=1
note_on channel=1 note=55 velocity=0 time=16
control_change channel=1 control=10 value=45 time=5
note_on channel=1 note=44 velocity=108 time=1
note_on channel=1 note=56 velocity=108 time=1
note_on channel=1 note=44 velocity=0 time=31
note_on channel=1 note=56 velocity=0 time=1
control_change channel=1 control=10 value=58 time=14
note_on channel=1 note=56 velocity=79 time=1
note_on channel=1 note=65 velocity=79 time=1
note_on channel=1 note=61 velocity=79 time=0
note_on channel=1 note=56 velocity=0 time=19
note_on channel=1 note=61 velocity=0 time=1
note_on channel=1 note=65 velocity=0 time=0
control_change channel=1 control=10 value=40 time=26
note_on channel=1 note=46 velocity=95 time=1
note_on channel=1 note=46 velocity=0 time=32
control_change channel=1 control=10 value=56 time=14
note_on channel=1 note=58 velocity=75 time=1
note_on channel=1 note=62 velocity=75 time=1
note_on channel=1 note=56 velocity=75 time=1
note_on channel=1 note=58 velocity=0 time=18
note_on channel=1 note=62 velocity=0 time=1
note_on channel=1 note=56 velocity=0 time=1
note_on channel=1 note=51 velocity=77 time=26
note_on channel=1 note=58 velocity=77 time=2
note_on channel=1 note=61 velocity=77 time=0
note_on channel=1 note=51 velocity=0 time=30
note_on channel=1 note=61 velocity=0 time=2
note_on channel=1 note=58 velocity=0 time=0
note_on channel=1 note=58 velocity=69 time=14
note_on channel=1 note=51 velocity=69 time=0
note_on channel=1 note=61 velocity=69 time=1
note_on channel=1 note=51 velocity=0 time=19
note_on channel=1 note=58 velocity=0 time=0
note_on channel=1 note=61 velocity=0 time=1
note_on channel=1 note=60 velocity=77 time=27
note_on channel=1 note=56 velocity=77 time=1
note_on channel=1 note=60 velocity=0 time=31
note_on channel=1 note=56 velocity=0 time=1
note_on channel=1 note=56 velocity=67 time=15
note_on channel=1 note=60 velocity=67 time=2
note_on channel=1 note=56 velocity=0 time=18
note_on channel=1 note=60 velocity=0 time=2
control_change channel=1 control=10 value=52 time=25
note_on channel=1 note=61 velocity=76 time=1
note_on channel=1 note=49 velocity=76 time=1
note_on channel=1 note=61 velocity=0 time=31
note_on channel=1 note=49 velocity=0 time=1
control_change channel=1 control=10 value=58 time=15
note_on channel=1 note=61 velocity=86 time=1
note_on channel=1 note=65 velocity=86 time=0
note_on channel=1 note=56 velocity=86 time=1
note_on channel=1 note=65 velocity=0 time=19
note_on channel=1 note=61 velocity=0 time=0
note_on channel=1 note=56 velocity=0 time=1
note_on channel=1 note=65 velocity=89 time=27
note_on channel=1 note=61 velocity=89 time=1
note_on channel=1 note=56 velocity=89 time=0
note_on channel=1 note=65 velocity=0 time=31
note_on channel=1 note=56 velocity=0 time=1
note_on channel=1 note=61 velocity=0 time=0
control_change channel=1 control=10 value=37 time=13
note_on channel=1 note=50 velocity=91 time=1
note_on channel=1 note=38 velocity=91 time=2
note_on channel=1 note=50 velocity=0 time=18
note_on channel=1 note=38 velocity=0 time=2
note_on channel=1 note=51 velocity=96 time=27
note_on channel=1 note=39 velocity=96 time=0
note_on channel=1 note=39 velocity=0 time=32
note_on channel=1 note=51 velocity=0 time=0
control_change channel=1 control=10 value=58 time=15
note_on channel=1 note=56 velocity=77 time=1
note_on channel=1 note=66 velocity=77 time=1
note_on channel=1 note=60 velocity=77 time=0
note_on channel=1 note=56 velocity=0 time=19
note_on channel=1 note=60 velocity=0 time=1
note_on channel=1 note=66 velocity=0 time=0
control_change channel=1 control=10 value=43 time=26
note_on channel=1 note=42 velocity=91 time=1
note_on channel=1 note=54 velocity=91 time=1
note_on channel=1 note=42 velocity=0 time=31
note_on channel=1 note=54 velocity=0 time=1
control_change channel=1 control=10 value=58 time=13
note_on channel=1 note=66 velocity=75 time=1
note_on channel=1 note=60 velocity=75 time=1
note_on channel=1 note=56 velocity=75 time=1
note_on channel=1 note=66 velocity=0 time=18
note_on channel=1 note=60 velocity=0 time=1
note_on channel=1 note=56 velocity=0 time=1
control_change channel=1 control=10 value=41 time=26
note_on channel=1 note=41 velocity=89 time=1
note_on channel=1 note=53 velocity=89 time=1
note_on channel=1 note=41 velocity=0 time=31
note_on channel=1 note=53 velocity=0 time=1
control_change channel=1 control=10 value=58 time=13
note_on channel=1 note=56 velocity=78 time=1
note_on channel=1 note=66 velocity=78 time=0
note_on channel=1 note=60 velocity=78 time=1
note_on channel=1 note=66 velocity=0 time=19
note_on channel=1 note=56 velocity=0 time=0
note_on channel=1 note=60 velocity=0 time=1
control_change channel=1 control=10 value=39 time=26
note_on channel=1 note=39 velocity=94 time=1
note_on channel=1 note=51 velocity=94 time=2
note_on channel=1 note=39 velocity=0 time=30
note_on channel=1 note=51 velocity=0 time=2
control_change channel=1 control=10 value=35 time=15
note_on channel=1 note=48 velocity=85 time=1
note_on channel=1 note=36 velocity=85 time=0
note_on channel=1 note=36 velocity=0 time=20
note_on channel=1 note=48 velocity=0 time=0
note_on channel=1 note=37 velocity=87 time=26
note_on channel=1 note=49 velocity=87 time=1
note_on channel=1 note=37 velocity=0 time=31
note_on channel=1 note=49 velocity=0 time=1
control_change channel=1 control=10 value=58 time=15
note_on channel=1 note=56 velocity=67 time=1
note_on channel=1 note=61 velocity=67 time=0
note_on channel=1 note=65 velocity=67 time=1
note_on channel=1 note=61 velocity=0 time=19
note_on channel=1 note=56 velocity=0 time=0
note_on channel=1 note=65 velocity=0 time=1
control_change channel=1 control=10 value=45 time=25
note_on channel=1 note=44 velocity=75 time=1
note_on channel=1 note=56 velocity=75 time=2
note_on channel=1 note=44 velocity=0 time=30
note_on channel=1 note=56 velocity=0 time=2
control_change channel=1 control=10 value=58 time=14
note_on channel=1 note=61 velocity=67 time=1
note_on channel=1 note=65 velocity=67 time=1
note_on channel=1 note=56 velocity=67 time=0
note_on channel=1 note=61 velocity=0 time=19
note_on channel=1 note=56 velocity=0 time=1
note_on channel=1 note=65 velocity=0 time=0
control_change channel=1 control=10 value=41 time=26
note_on channel=1 note=41 velocity=75 time=1
note_on channel=1 note=53 velocity=75 time=1
note_on channel=1 note=41 velocity=0 time=31
note_on channel=1 note=53 velocity=0 time=1
control_change channel=1 control=10 value=58 time=13
note_on channel=1 note=56 velocity=67 time=1
note_on channel=1 note=65 velocity=67 time=0
note_on channel=1 note=61 velocity=67 time=0
note_on channel=1 note=61 velocity=0 time=20
note_on channel=1 note=65 velocity=0 time=0
note_on channel=1 note=56 velocity=0 time=0
control_change channel=1 control=10 value=36 time=27
note_on channel=1 note=37 velocity=88 time=1
note_on channel=1 note=49 velocity=88 time=2
note_on channel=1 note=37 velocity=0 time=30
note_on channel=1 note=49 velocity=0 time=2
note_on channel=1 note=50 velocity=92 time=14
note_on channel=1 note=38 velocity=92 time=1
note_on channel=1 note=50 velocity=0 time=19
note_on channel=1 note=38 velocity=0 time=1
note_on channel=1 note=39 velocity=94 time=29
note_on channel=1 note=51 velocity=94 time=0
note_on channel=1 note=51 velocity=0 time=32
note_on channel=1 note=39 velocity=0 time=0
control_change channel=1 control=10 value=58 time=13
note_on channel=1 note=56 velocity=82 time=1
note_on channel=1 note=60 velocity=82 time=0
note_on channel=1 note=66 velocity=82 time=0
note_on channel=1 note=66 velocity=0 time=20
note_on channel=1 note=60 velocity=0 time=0
note_on channel=1 note=56 velocity=0 time=0
control_change channel=1 control=10 value=43 time=27
note_on channel=1 note=42 velocity=80 time=1
note_on channel=1 note=54 velocity=80 time=2
note_on channel=1 note=42 velocity=0 time=30
note_on channel=1 note=54 velocity=0 time=2
control_change channel=1 control=10 value=58 time=13
note_on channel=1 note=56 velocity=75 time=1
note_on channel=1 note=60 velocity=75 time=2
note_on channel=1 note=66 velocity=75 time=0
note_on channel=1 note=56 velocity=0 time=18
note_on channel=1 note=66 velocity=0 time=2
note_on channel=1 note=60 velocity=0 time=0
control_change channel=1 control=10 value=41 time=25
note_on channel=1 note=41 velocity=93 time=1
note_on channel=1 note=53 velocity=93 time=1
note_on channel=1 note=41 velocity=0 time=31
note_on channel=1 note=53 velocity=0 time=1
control_change channel=1 control=10 value=58 time=14
note_on channel=1 note=60 velocity=82 time=1
note_on channel=1 note=66 velocity=82 time=1
note_on channel=1 note=56 velocity=82 time=1
note_on channel=1 note=60 velocity=0 time=18
note_on channel=1 note=66 velocity=0 time=1
note_on channel=1 note=56 velocity=0 time=1
control_change channel=1 control=10 value=39 time=25
note_on channel=1 note=39 velocity=92 time=1
note_on channel=1 note=51 velocity=92 time=2
note_on channel=1 note=39 velocity=0 time=30
note_on channel=1 note=51 velocity=0 time=2
control_change channel=1 control=10 value=35 time=13
note_on channel=1 note=48 velocity=89 time=1
note_on channel=1 note=36 velocity=89 time=2
note_on channel=1 note=48 velocity=0 time=18
note_on channel=1 note=36 velocity=0 time=2
note_on channel=1 note=37 velocity=87 time=27
note_on channel=1 note=49 velocity=87 time=1
note_on channel=1 note=37 velocity=0 time=31
note_on channel=1 note=49 velocity=0 time=1
control_change channel=1 control=10 value=58 time=13
note_on channel=1 note=65 velocity=67 time=1
note_on channel=1 note=61 velocity=67 time=1
note_on channel=1 note=56 velocity=67 time=0
note_on channel=1 note=65 velocity=0 time=19
note_on channel=1 note=56 velocity=0 time=1
note_on channel=1 note=61 velocity=0 time=0
control_change channel=1 control=10 value=45 time=26
note_on channel=1 note=56 velocity=75 time=1
note_on channel=1 note=44 velocity=75 time=2
note_on channel=1 note=56 velocity=0 time=30
note_on channel=1 note=44 velocity=0 time=2
control_change channel=1 control=10 value=58 time=13
note_on channel=1 note=56 velocity=67 time=1
note_on channel=1 note=65 velocity=67 time=0
note_on channel=1 note=61 velocity=67 time=0
note_on channel=1 note=61 velocity=0 time=20
note_on channel=1 note=65 velocity=0 time=0
note_on channel=1 note=56 velocity=0 time=0
control_change channel=1 control=10 value=41 time=27
note_on channel=1 note=53 velocity=75 time=1
note_on channel=1 note=41 velocity=75 time=1
note_on channel=1 note=53 velocity=0 time=31
note_on channel=1 note=41 velocity=0 time=1
control_change channel=1 control=10 value=58 time=14
note_on channel=1 note=65 velocity=70 time=1
note_on channel=1 note=56 velocity=70 time=1
note_on channel=1 note=61 velocity=70 time=1
note_on channel=1 note=65 velocity=0 time=18
note_on channel=1 note=56 velocity=0 time=1
note_on channel=1 note=61 velocity=0 time=1
control_change channel=1 control=10 value=36 time=26
note_on channel=1 note=49 velocity=100 time=1
note_on channel=1 note=37 velocity=100 time=1
note_on channel=1 note=49 velocity=0 time=31
note_on channel=1 note=37 velocity=0 time=1
note_on channel=1 note=48 velocity=94 time=15
note_on channel=1 note=36 velocity=94 time=1
note_on channel=1 note=48 velocity=0 time=19
note_on channel=1 note=36 velocity=0 time=1
control_change channel=1 control=10 value=32 time=25
note_on channel=1 note=34 velocity=98 time=1
note_on channel=1 note=46 velocity=97 time=1
note_on channel=1 note=34 velocity=0 time=31
note_on channel=1 note=46 velocity=0 time=1
control_change channel=1 control=10 value=61 time=14
note_on channel=1 note=58 velocity=80 time=1
note_on channel=1 note=62 velocity=80 time=0
note_on channel=1 note=68 velocity=80 time=2
note_on channel=1 note=62 velocity=0 time=18
note_on channel=1 note=58 velocity=0 time=0
note_on channel=1 note=68 velocity=0 time=2
control_change channel=1 control=10 value=37 time=26
note_on channel=1 note=38 velocity=84 time=1
note_on channel=1 note=50 velocity=84 time=1
note_on channel=1 note=38 velocity=0 time=31
note_on channel=1 note=50 velocity=0 time=1
control_change channel=1 control=10 value=61 time=13
note_on channel=1 note=68 velocity=74 time=1
note_on channel=1 note=58 velocity=74 time=0
note_on channel=1 note=62 velocity=74 time=1
note_on channel=1 note=58 velocity=0 time=19
note_on channel=1 note=68 velocity=0 time=0
note_on channel=1 note=62 velocity=0 time=1
control_change channel=1 control=10 value=41 time=26
note_on channel=1 note=41 velocity=94 time=1
note_on channel=1 note=53 velocity=94 time=1
note_on channel=1 note=41 velocity=0 time=31
note_on channel=1 note=53 velocity=0 time=1
control_change channel=1 control=10 value=61 time=15
note_on channel=1 note=58 velocity=79 time=1
note_on channel=1 note=68 velocity=79 time=0
note_on channel=1 note=62 velocity=79 time=0
note_on channel=1 note=62 velocity=0 time=20
note_on channel=1 note=68 velocity=0 time=0
note_on channel=1 note=58 velocity=0 time=0
control_change channel=1 control=10 value=48 time=28
note_on channel=1 note=46 velocity=92 time=1
note_on channel=1 note=58 velocity=92 time=0
note_on channel=1 note=58 velocity=0 time=32
note_on channel=1 note=46 velocity=0 time=0
control_change channel=1 control=10 value=61 time=13
note_on channel=1 note=58 velocity=79 time=1
note_on channel=1 note=62 velocity=79 time=1
note_on channel=1 note=68 velocity=79 time=1
note_on channel=1 note=58 velocity=0 time=18
note_on channel=1 note=62 velocity=0 time=1
note_on channel=1 note=68 velocity=0 time=1
control_change channel=1 control=10 value=39 time=27
note_on channel=1 note=39 velocity=75 time=1
note_on channel=1 note=51 velocity=75 time=0
note_on channel=1 note=51 velocity=0 time=32
note_on channel=1 note=39 velocity=0 time=0
control_change channel=1 control=10 value=61 time=13
note_on channel=1 note=58 velocity=67 time=1
note_on channel=1 note=63 velocity=67 time=0
note_on channel=1 note=66 velocity=67 time=1
note_on channel=1 note=63 velocity=0 time=19
note_on channel=1 note=58 velocity=0 time=0
note_on channel=1 note=66 velocity=0 time=1
control_change channel=1 control=10 value=43 time=26
note_on channel=1 note=54 velocity=75 time=1
note_on channel=1 note=42 velocity=75 time=2
note_on channel=1 note=54 velocity=0 time=30
note_on channel=1 note=42 velocity=0 time=2
control_change channel=1 control=10 value=61 time=14
note_on channel=1 note=58 velocity=67 time=1
note_on channel=1 note=66 velocity=67 time=0
note_on channel=1 note=63 velocity=67 time=1
note_on channel=1 note=66 velocity=0 time=19
note_on channel=1 note=58 velocity=0 time=0
note_on channel=1 note=63 velocity=0 time=1
control_change channel=1 control=10 value=39 time=26
note_on channel=1 note=39 velocity=75 time=1
note_on channel=1 note=51 velocity=75 time=1
note_on channel=1 note=39 velocity=0 time=31
note_on channel=1 note=51 velocity=0 time=1
control_change channel=1 control=10 value=61 time=13
note_on channel=1 note=63 velocity=67 time=1
note_on channel=1 note=66 velocity=67 time=2
note_on channel=1 note=58 velocity=67 time=0
note_on channel=1 note=63 velocity=0 time=18
note_on channel=1 note=58 velocity=0 time=2
note_on channel=1 note=66 velocity=0 time=0
control_change channel=1 control=10 value=43 time=26
note_on channel=1 note=42 velocity=75 time=1
note_on channel=1 note=54 velocity=75 time=1
note_on channel=1 note=42 velocity=0 time=31
note_on channel=1 note=54 velocity=0 time=1
control_change channel=1 control=10 value=61 time=13
note_on channel=1 note=66 velocity=67 time=1
note_on channel=1 note=63 velocity=67 time=0
note_on channel=1 note=58 velocity=67 time=2
note_on channel=1 note=63 velocity=0 time=18
note_on channel=1 note=66 velocity=0 time=0
note_on channel=1 note=58 velocity=0 time=2
control_change channel=1 control=10 value=52 time=27
note_on channel=1 note=55 velocity=93 time=1
note_on channel=1 note=55 velocity=0 time=16
control_change channel=1 control=10 value=56 time=7
note_on channel=1 note=58 velocity=96 time=1
note_on channel=1 note=58 velocity=0 time=32
control_change channel=1 control=10 value=60 time=14
note_on channel=1 note=61 velocity=92 time=1
note_on channel=1 note=61 velocity=0 time=16
control_change channel=1 control=10 value=64 time=6
note_on channel=1 note=64 velocity=105 time=1
note_on channel=1 note=64 velocity=0 time=16
control_change channel=1 control=10 value=60 time=8
note_on channel=1 note=61 velocity=87 time=1
note_on channel=1 note=61 velocity=0 time=16
control_change channel=1 control=10 value=56 time=7
note_on channel=1 note=58 velocity=93 time=1
note_on channel=1 note=58 velocity=0 time=10
control_change channel=1 control=10 value=52 time=14
note_on channel=1 note=55 velocity=87 time=1
note_on channel=1 note=55 velocity=0 time=16
control_change channel=1 control=10 value=45 time=7
note_on channel=1 note=44 velocity=102 time=1
note_on channel=1 note=56 velocity=102 time=0
note_on channel=1 note=56 velocity=0 time=32
note_on channel=1 note=44 velocity=0 time=0
control_change channel=1 control=10 value=58 time=14
note_on channel=1 note=65 velocity=79 time=1
note_on channel=1 note=56 velocity=79 time=0
note_on channel=1 note=61 velocity=79 time=1
note_on channel=1 note=56 velocity=0 time=19
note_on channel=1 note=65 velocity=0 time=0
note_on channel=1 note=61 velocity=0 time=1
control_change channel=1 control=10 value=40 time=27
note_on channel=1 note=46 velocity=86 time=1
note_on channel=1 note=46 velocity=0 time=32
control_change channel=1 control=10 value=56 time=13
note_on channel=1 note=56 velocity=72 time=1
note_on channel=1 note=58 velocity=72 time=0
note_on channel=1 note=62 velocity=72 time=0
note_on channel=1 note=62 velocity=0 time=20
note_on channel=1 note=58 velocity=0 time=0
note_on channel=1 note=56 velocity=0 time=0
note_on channel=1 note=58 velocity=75 time=28
note_on channel=1 note=61 velocity=75 time=0
note_on channel=1 note=51 velocity=75 time=1
note_on channel=1 note=61 velocity=0 time=31
note_on channel=1 note=58 velocity=0 time=0
note_on channel=1 note=51 velocity=0 time=1
note_on channel=1 note=58 velocity=68 time=17
note_on channel=1 note=61 velocity=68 time=0
note_on channel=1 note=51 velocity=68 time=0
note_on channel=1 note=51 velocity=0 time=20
note_on channel=1 note=61 velocity=0 time=0
note_on channel=1 note=58 velocity=0 time=0
note_on channel=1 note=56 velocity=84 time=27
note_on channel=1 note=60 velocity=84 time=0
note_on channel=1 note=60 velocity=0 time=32
note_on channel=1 note=56 velocity=0 time=0
note_on channel=1 note=56 velocity=81 time=15
note_on channel=1 note=60 velocity=81 time=2
note_on channel=1 note=56 velocity=0 time=18
note_on channel=1 note=60 velocity=0 time=2
control_change channel=1 control=10 value=52 time=25
note_on channel=1 note=49 velocity=84 time=1
note_on channel=1 note=61 velocity=84 time=2
note_on channel=1 note=49 velocity=0 time=30
note_on channel=1 note=61 velocity=0 time=2
control_change channel=1 control=10 value=45 time=13
note_on channel=1 note=44 velocity=79 time=1
note_on channel=1 note=56 velocity=79 time=1
note_on channel=1 note=44 velocity=0 time=31
note_on channel=1 note=56 velocity=0 time=1
control_change channel=1 control=10 value=36 time=14
note_on channel=1 note=37 velocity=90 time=1
note_on channel=1 note=49 velocity=90 time=2
note_on channel=1 note=37 velocity=0 time=30
note_on channel=1 note=49 velocity=0 time=2
control_change channel=1 control=10 value=51 time=14
note_on channel=1 note=48 velocity=88 time=1
note_on channel=1 note=60 velocity=88 time=2
note_on channel=1 note=48 velocity=0 time=30
note_on channel=1 note=60 velocity=0 time=2
note_on channel=1 note=61 velocity=76 time=14
note_on channel=1 note=49 velocity=76 time=1
note_on channel=1 note=61 velocity=0 time=31
note_on channel=1 note=49 velocity=0 time=1
control_change channel=1 control=10 value=58 time=13
note_on channel=1 note=65 velocity=71 time=1
note_on channel=1 note=61 velocity=71 time=1
note_on channel=1 note=56 velocity=71 time=1
note_on channel=1 note=65 velocity=0 time=18
note_on channel=1 note=61 velocity=0 time=1
note_on channel=1 note=56 velocity=0 time=1
note_on channel=1 note=65 velocity=76 time=27
note_on channel=1 note=56 velocity=76 time=1
note_on channel=1 note=61 velocity=76 time=0
note_on channel=1 note=65 velocity=0 time=31
note_on channel=1 note=61 velocity=0 time=1
note_on channel=1 note=56 velocity=0 time=0
control_change channel=1 control=10 value=51 time=15
note_on channel=1 note=60 velocity=95 time=1
note_on channel=1 note=48 velocity=95 time=0
note_on channel=1 note=48 velocity=0 time=20
note_on channel=1 note=60 velocity=0 time=0
note_on channel=1 note=49 velocity=96 time=26
note_on channel=1 note=61 velocity=96 time=1
note_on channel=1 note=49 velocity=0 time=31
note_on channel=1 note=61 velocity=0 time=1
control_change channel=1 control=10 value=58 time=14
note_on channel=1 note=56 velocity=82 time=1
note_on channel=1 note=61 velocity=82 time=1
note_on channel=1 note=65 velocity=82 time=1
note_on channel=1 note=56 velocity=0 time=18
note_on channel=1 note=61 velocity=0 time=1
note_on channel=1 note=65 velocity=0 time=1
control_change channel=1 control=10 value=48 time=26
note_on channel=1 note=58 velocity=89 time=1
note_on channel=1 note=46 velocity=89 time=0
note_on channel=1 note=46 velocity=0 time=32
note_on channel=1 note=58 velocity=0 time=0
note_on channel=1 note=47 velocity=84 time=15
note_on channel=1 note=59 velocity=84 time=1
note_on channel=1 note=47 velocity=0 time=19
note_on channel=1 note=59 velocity=0 time=1
note_on channel=1 note=48 velocity=90 time=28
note_on channel=1 note=60 velocity=90 time=1
note_on channel=1 note=48 velocity=0 time=31
note_on channel=1 note=60 velocity=0 time=1
control_change channel=1 control=10 value=57 time=13
note_on channel=1 note=60 velocity=75 time=1
note_on channel=1 note=63 velocity=75 time=2
note_on channel=1 note=56 velocity=75 time=0
note_on channel=1 note=60 velocity=0 time=18
note_on channel=1 note=56 velocity=0 time=2
note_on channel=1 note=63 velocity=0 time=0
note_on channel=1 note=63 velocity=71 time=26
note_on channel=1 note=56 velocity=71 time=1
note_on channel=1 note=60 velocity=71 time=0
note_on channel=1 note=63 velocity=0 time=31
note_on channel=1 note=60 velocity=0 time=1
note_on channel=1 note=56 velocity=0 time=0
control_change channel=1 control=10 value=39 time=14
note_on channel=1 note=39 velocity=88 time=1
note_on channel=1 note=51 velocity=88 time=1
note_on channel=1 note=39 velocity=0 time=19
note_on channel=1 note=51 velocity=0 time=1
control_change channel=1 control=10 value=45 time=26
note_on channel=1 note=56 velocity=93 time=1
note_on channel=1 note=44 velocity=93 time=0
note_on channel=1 note=44 velocity=0 time=32
note_on channel=1 note=56 velocity=0 time=0
control_change channel=1 control=10 value=52 time=15
note_on channel=1 note=51 velocity=70 time=1
note_on channel=1 note=56 velocity=70 time=1
note_on channel=1 note=60 velocity=70 time=1
note_on channel=1 note=51 velocity=0 time=18
note_on channel=1 note=56 velocity=0 time=1
note_on channel=1 note=60 velocity=0 time=1
control_change channel=1 control=10 value=39 time=26
note_on channel=1 note=39 velocity=81 time=1
note_on channel=1 note=51 velocity=81 time=1
note_on channel=1 note=39 velocity=0 time=31
note_on channel=1 note=51 velocity=0 time=1
control_change channel=1 control=10 value=47 time=14
note_on channel=1 note=57 velocity=84 time=1
note_on channel=1 note=45 velocity=84 time=0
note_on channel=1 note=45 velocity=0 time=20
note_on channel=1 note=57 velocity=0 time=0
note_on channel=1 note=46 velocity=87 time=28
note_on channel=1 note=58 velocity=87 time=1
note_on channel=1 note=46 velocity=0 time=31
note_on channel=1 note=58 velocity=0 time=1
control_change channel=1 control=10 value=52 time=13
note_on channel=1 note=61 velocity=75 time=1
note_on channel=1 note=55 velocity=75 time=1
note_on channel=1 note=51 velocity=75 time=0
note_on channel=1 note=61 velocity=0 time=19
note_on channel=1 note=51 velocity=0 time=1
note_on channel=1 note=55 velocity=0 time=0
control_change channel=1 control=10 value=39 time=27
note_on channel=1 note=39 velocity=85 time=1
note_on channel=1 note=51 velocity=85 time=1
note_on channel=1 note=39 velocity=0 time=31
note_on channel=1 note=51 velocity=0 time=1
control_change channel=1 control=10 value=47 time=14
note_on channel=1 note=45 velocity=86 time=1
note_on channel=1 note=57 velocity=86 time=1
note_on channel=1 note=45 velocity=0 time=19
note_on channel=1 note=57 velocity=0 time=1
note_on channel=1 note=58 velocity=89 time=28
note_on channel=1 note=46 velocity=89 time=0
note_on channel=1 note=46 velocity=0 time=32
note_on channel=1 note=58 velocity=0 time=0
control_change channel=1 control=10 value=52 time=13
note_on channel=1 note=51 velocity=74 time=1
note_on channel=1 note=55 velocity=74 time=2
note_on channel=1 note=61 velocity=74 time=0
note_on channel=1 note=51 velocity=0 time=18
note_on channel=1 note=61 velocity=0 time=2
note_on channel=1 note=55 velocity=0 time=0
control_change channel=1 control=10 value=39 time=26
note_on channel=1 note=51 velocity=84 time=1
note_on channel=1 note=39 velocity=84 time=0
note_on channel=1 note=39 velocity=0 time=32
note_on channel=1 note=51 velocity=0 time=0
control_change channel=1 control=10 value=44 time=16
note_on channel=1 note=43 velocity=84 time=1
note_on channel=1 note=55 velocity=84 time=0
note_on channel=1 note=55 velocity=0 time=20
note_on channel=1 note=43 velocity=0 time=0
note_on channel=1 note=56 velocity=87 time=28
note_on channel=1 note=44 velocity=87 time=0
note_on channel=1 note=44 velocity=0 time=32
note_on channel=1 note=56 velocity=0 time=0
control_change channel=1 control=10 value=52 time=14
note_on channel=1 note=51 velocity=74 time=1
note_on channel=1 note=56 velocity=74 time=0
note_on channel=1 note=60 velocity=74 time=1
note_on channel=1 note=56 velocity=0 time=19
note_on channel=1 note=51 velocity=0 time=0
note_on channel=1 note=60 velocity=0 time=1
control_change channel=1 control=10 value=39 time=26
note_on channel=1 note=39 velocity=76 time=1
note_on channel=1 note=51 velocity=76 time=1
note_on channel=1 note=39 velocity=0 time=31
note_on channel=1 note=51 velocity=0 time=1
control_change channel=1 control=10 value=52 time=13
note_on channel=1 note=51 velocity=64 time=1
note_on channel=1 note=56 velocity=64 time=1
note_on channel=1 note=60 velocity=64 time=1
note_on channel=1 note=51 velocity=0 time=18
note_on channel=1 note=56 velocity=0 time=1
note_on channel=1 note=60 velocity=0 time=1
control_change channel=1 control=10 value=45 time=26
note_on channel=1 note=56 velocity=76 time=1
note_on channel=1 note=44 velocity=76 time=1
note_on channel=1 note=56 velocity=0 time=31
note_on channel=1 note=44 velocity=0 time=1
control_change channel=1 control=10 value=52 time=13
note_on channel=1 note=56 velocity=64 time=1
note_on channel=1 note=51 velocity=64 time=1
note_on channel=1 note=60 velocity=64 time=0
note_on channel=1 note=56 velocity=0 time=19
note_on channel=1 note=60 velocity=0 time=1
note_on channel=1 note=51 velocity=0 time=0
control_change channel=1 control=10 value=48 time=26
note_on channel=1 note=58 velocity=87 time=1
note_on channel=1 note=46 velocity=87 time=2
note_on channel=1 note=58 velocity=0 time=30
note_on channel=1 note=46 velocity=0 time=2
note_on channel=1 note=48 velocity=87 time=14
note_on channel=1 note=60 velocity=87 time=0
note_on channel=1 note=60 velocity=0 time=20
note_on channel=1 note=48 velocity=0 time=0
control_change channel=1 control=10 value=52 time=29
note_on channel=1 note=61 velocity=86 time=1
note_on channel=1 note=49 velocity=86 time=0
note_on channel=1 note=49 velocity=0 time=32
note_on channel=1 note=61 velocity=0 time=0
control_change channel=1 control=10 value=58 time=14
note_on channel=1 note=56 velocity=76 time=1
note_on channel=1 note=61 velocity=76 time=0
note_on channel=1 note=65 velocity=76 time=1
note_on channel=1 note=61 velocity=0 time=19
note_on channel=1 note=56 velocity=0 time=0
note_on channel=1 note=65 velocity=0 time=1
note_on channel=1 note=56 velocity=71 time=27
note_on channel=1 note=61 velocity=71 time=0
note_on channel=1 note=65 velocity=71 time=1
note_on channel=1 note=61 velocity=0 time=31
note_on channel=1 note=56 velocity=0 time=0
note_on channel=1 note=65 velocity=0 time=1
control_change channel=1 control=10 value=51 time=13
note_on channel=1 note=48 velocity=77 time=1
note_on channel=1 note=60 velocity=77 time=1
note_on channel=1 note=48 velocity=0 time=19
note_on channel=1 note=60 velocity=0 time=1
note_on channel=1 note=49 velocity=84 time=29
note_on channel=1 note=61 velocity=84 time=0
note_on channel=1 note=61 velocity=0 time=32
note_on channel=1 note=49 velocity=0 time=0
control_change channel=1 control=10 value=58 time=13
note_on channel=1 note=61 velocity=72 time=1
note_on channel=1 note=65 velocity=72 time=0
note_on channel=1 note=56 velocity=72 time=1
note_on channel=1 note=65 velocity=0 time=19
note_on channel=1 note=61 velocity=0 time=0
note_on channel=1 note=56 velocity=0 time=1
control_change channel=1 control=10 value=48 time=28
note_on channel=1 note=58 velocity=87 time=1
note_on channel=1 note=46 velocity=87 time=0
note_on channel=1 note=46 velocity=0 time=32
note_on channel=1 note=58 velocity=0 time=0
note_on channel=1 note=59 velocity=85 time=14
note_on channel=1 note=47 velocity=85 time=0
note_on channel=1 note=47 velocity=0 time=20
note_on channel=1 note=59 velocity=0 time=0
note_on channel=1 note=48 velocity=87 time=29
note_on channel=1 note=60 velocity=82 time=1
note_on channel=1 note=48 velocity=0 time=31
note_on channel=1 note=60 velocity=0 time=1
control_change channel=1 control=10 value=57 time=13
note_on channel=1 note=56 velocity=74 time=1
note_on channel=1 note=60 velocity=74 time=0
note_on channel=1 note=63 velocity=74 time=2
note_on channel=1 note=60 velocity=0 time=18
note_on channel=1 note=56 velocity=0 time=0
note_on channel=1 note=63 velocity=0 time=2
note_on channel=1 note=63 velocity=71 time=26
note_on channel=1 note=60 velocity=71 time=0
note_on channel=1 note=56 velocity=71 time=1
note_on channel=1 note=60 velocity=0 time=31
note_on channel=1 note=63 velocity=0 time=0
note_on channel=1 note=56 velocity=0 time=1
control_change channel=1 control=10 value=39 time=14
note_on channel=1 note=51 velocity=76 time=1
note_on channel=1 note=39 velocity=76 time=0
note_on channel=1 note=39 velocity=0 time=20
note_on channel=1 note=51 velocity=0 time=0
control_change channel=1 control=10 value=45 time=28
note_on channel=1 note=56 velocity=84 time=1
note_on channel=1 note=44 velocity=84 time=1
note_on channel=1 note=56 velocity=0 time=31
note_on channel=1 note=44 velocity=0 time=1
control_change channel=1 control=10 value=52 time=13
note_on channel=1 note=60 velocity=64 time=1
note_on channel=1 note=51 velocity=64 time=1
note_on channel=1 note=56 velocity=64 time=0
note_on channel=1 note=60 velocity=0 time=19
note_on channel=1 note=56 velocity=0 time=1
note_on channel=1 note=51 velocity=0 time=0
control_change channel=1 control=10 value=39 time=27
note_on channel=1 note=39 velocity=76 time=1
note_on channel=1 note=51 velocity=76 time=1
note_on channel=1 note=39 velocity=0 time=31
note_on channel=1 note=51 velocity=0 time=1
control_change channel=1 control=10 value=52 time=13
note_on channel=1 note=51 velocity=64 time=1
note_on channel=1 note=60 velocity=64 time=1
note_on channel=1 note=56 velocity=64 time=1
note_on channel=1 note=51 velocity=0 time=18
note_on channel=1 note=60 velocity=0 time=1
note_on channel=1 note=56 velocity=0 time=1
control_change channel=1 control=10 value=36 time=26
note_on channel=1 note=49 velocity=86 time=1
note_on channel=1 note=37 velocity=86 time=1
note_on channel=1 note=49 velocity=0 time=31
note_on channel=1 note=37 velocity=0 time=1
note_on channel=1 note=49 velocity=72 time=14
note_on channel=1 note=37 velocity=72 time=1
note_on channel=1 note=49 velocity=0 time=19
note_on channel=1 note=37 velocity=0 time=1
control_change channel=1 control=10 value=32 time=26
note_on channel=1 note=46 velocity=84 time=1
note_on channel=1 note=34 velocity=84 time=0
note_on channel=1 note=34 velocity=0 time=32
note_on channel=1 note=46 velocity=0 time=0
control_change channel=1 control=10 value=37 time=16
note_on channel=1 note=50 velocity=84 time=1
note_on channel=1 note=38 velocity=84 time=0
note_on channel=1 note=38 velocity=0 time=20
note_on channel=1 note=50 velocity=0 time=0
note_on channel=1 note=51 velocity=87 time=28
note_on channel=1 note=39 velocity=87 time=1
note_on channel=1 note=51 velocity=0 time=31
note_on channel=1 note=39 velocity=0 time=1
control_change channel=1 control=10 value=52 time=13
note_on channel=1 note=60 velocity=71 time=1
note_on channel=1 note=56 velocity=71 time=1
note_on channel=1 note=51 velocity=71 time=0
note_on channel=1 note=60 velocity=0 time=19
note_on channel=1 note=51 velocity=0 time=1
note_on channel=1 note=56 velocity=0 time=0
control_change channel=1 control=10 value=39 time=27
note_on channel=1 note=39 velocity=74 time=1
note_on channel=1 note=51 velocity=74 time=0
note_on channel=1 note=51 velocity=0 time=32
note_on channel=1 note=39 velocity=0 time=0
note_on channel=1 note=52 velocity=76 time=17
note_on channel=1 note=40 velocity=76 time=0
note_on channel=1 note=40 velocity=0 time=20
note_on channel=1 note=52 velocity=0 time=0
note_on channel=1 note=53 velocity=91 time=26
note_on channel=1 note=41 velocity=91 time=0
note_on channel=1 note=41 velocity=0 time=32
note_on channel=1 note=53 velocity=0 time=0
note_on channel=1 note=53 velocity=73 time=16
note_on channel=1 note=41 velocity=73 time=1
note_on channel=1 note=53 velocity=0 time=19
note_on channel=1 note=41 velocity=0 time=1
control_change channel=1 control=10 value=44 time=26
note_on channel=1 note=55 velocity=79 time=1
note_on channel=1 note=43 velocity=79 time=2
note_on channel=1 note=55 velocity=0 time=30
note_on channel=1 note=43 velocity=0 time=2
note_on channel=1 note=43 velocity=74 time=15
note_on channel=1 note=55 velocity=74 time=1
note_on channel=1 note=43 velocity=0 time=19
note_on channel=1 note=55 velocity=0 time=1
note_on channel=1 note=44 velocity=97 time=27
note_on channel=1 note=56 velocity=97 time=0
note_on channel=1 note=56 velocity=0 time=32
note_on channel=1 note=44 velocity=0 time=0
control_change channel=1 control=10 value=52 time=14
note_on channel=1 note=60 velocity=82 time=1
note_on channel=1 note=56 velocity=82 time=1
note_on channel=1 note=51 velocity=82 time=1
note_on channel=1 note=60 velocity=0 time=18
note_on channel=1 note=56 velocity=0 time=1
note_on channel=1 note=51 velocity=0 time=1
control_change channel=1 control=10 value=48 time=26
note_on channel=1 note=46 velocity=96 time=1
note_on channel=1 note=58 velocity=96 time=1
note_on channel=1 note=46 velocity=0 time=31
note_on channel=1 note=58 velocity=0 time=1
note_on channel=1 note=60 velocity=100 time=16
note_on channel=1 note=48 velocity=100 time=0
note_on channel=1 note=48 velocity=0 time=20
note_on channel=1 note=60 velocity=0 time=0
control_change channel=1 control=10 value=52 time=25
note_on channel=1 note=61 velocity=94 time=1
note_on channel=1 note=49 velocity=94 time=0
note_on channel=1 note=49 velocity=0 time=32
note_on channel=1 note=61 velocity=0 time=0
control_change channel=1 control=10 value=58 time=15
note_on channel=1 note=61 velocity=82 time=1
note_on channel=1 note=56 velocity=82 time=1
note_on channel=1 note=65 velocity=82 time=0
note_on channel=1 note=61 velocity=0 time=19
note_on channel=1 note=65 velocity=0 time=1
note_on channel=1 note=56 velocity=0 time=0
note_on channel=1 note=56 velocity=82 time=27
note_on channel=1 note=65 velocity=82 time=1
note_on channel=1 note=61 velocity=82 time=1
note_on channel=1 note=56 velocity=0 time=30
note_on channel=1 note=65 velocity=0 time=1
note_on channel=1 note=61 velocity=0 time=1
control_change channel=1 control=10 value=51 time=15
note_on channel=1 note=60 velocity=86 time=1
note_on channel=1 note=48 velocity=86 time=0
note_on channel=1 note=48 velocity=0 time=20
note_on channel=1 note=60 velocity=0 time=0
note_on channel=1 note=49 velocity=91 time=28
note_on channel=1 note=61 velocity=91 time=0
note_on channel=1 note=61 velocity=0 time=32
note_on channel=1 note=49 velocity=0 time=0
control_change channel=1 control=10 value=58 time=13
note_on channel=1 note=65 velocity=80 time=1
note_on channel=1 note=61 velocity=80 time=1
note_on channel=1 note=56 velocity=80 time=1
note_on channel=1 note=65 velocity=0 time=18
note_on channel=1 note=61 velocity=0 time=1
note_on channel=1 note=56 velocity=0 time=1
control_change channel=1 control=10 value=48 time=25
note_on channel=1 note=58 velocity=91 time=1
note_on channel=1 note=46 velocity=91 time=1
note_on channel=1 note=58 velocity=0 time=31
note_on channel=1 note=46 velocity=0 time=1
note_on channel=1 note=47 velocity=97 time=15
note_on channel=1 note=59 velocity=97 time=2
note_on channel=1 note=47 velocity=0 time=18
note_on channel=1 note=59 velocity=0 time=2
note_on channel=1 note=60 velocity=90 time=26
note_on channel=1 note=48 velocity=90 time=2
note_on channel=1 note=60 velocity=0 time=30
note_on channel=1 note=48 velocity=0 time=2
control_change channel=1 control=10 value=57 time=13
note_on channel=1 note=63 velocity=72 time=1
note_on channel=1 note=60 velocity=72 time=1
note_on channel=1 note=56 velocity=72 time=0
note_on channel=1 note=63 velocity=0 time=19
note_on channel=1 note=56 velocity=0 time=1
note_on channel=1 note=60 velocity=0 time=0
note_on channel=1 note=63 velocity=75 time=29
note_on channel=1 note=60 velocity=75 time=0
note_on channel=1 note=56 velocity=75 time=0
note_on channel=1 note=56 velocity=0 time=32
note_on channel=1 note=60 velocity=0 time=0
note_on channel=1 note=63 velocity=0 time=0
control_change channel=1 control=10 value=39 time=14
note_on channel=1 note=39 velocity=85 time=1
note_on channel=1 note=51 velocity=85 time=1
note_on channel=1 note=39 velocity=0 time=19
note_on channel=1 note=51 velocity=0 time=1
control_change channel=1 control=10 value=45 time=27
note_on channel=1 note=56 velocity=87 time=1
note_on channel=1 note=44 velocity=87 time=0
note_on channel=1 note=44 velocity=0 time=32
note_on channel=1 note=56 velocity=0 time=0
control_change channel=1 control=10 value=52 time=13
note_on channel=1 note=60 velocity=70 time=1
note_on channel=1 note=51 velocity=70 time=1
note_on channel=1 note=56 velocity=70 time=1
note_on channel=1 note=60 velocity=0 time=18
note_on channel=1 note=51 velocity=0 time=1
note_on channel=1 note=56 velocity=0 time=1
control_change channel=1 control=10 value=39 time=26
note_on channel=1 note=39 velocity=79 time=1
note_on channel=1 note=51 velocity=79 time=1
note_on channel=1 note=39 velocity=0 time=31
note_on channel=1 note=51 velocity=0 time=1
control_change channel=1 control=10 value=47 time=13
note_on channel=1 note=45 velocity=86 time=1
note_on channel=1 note=57 velocity=86 time=1
note_on channel=1 note=45 velocity=0 time=19
note_on channel=1 note=57 velocity=0 time=1
note_on channel=1 note=46 velocity=90 time=27
note_on channel=1 note=58 velocity=90 time=2
note_on channel=1 note=46 velocity=0 time=30
note_on channel=1 note=58 velocity=0 time=2
control_change channel=1 control=10 value=52 time=13
note_on channel=1 note=51 velocity=77 time=1
note_on channel=1 note=61 velocity=77 time=0
note_on channel=1 note=55 velocity=77 time=1
note_on channel=1 note=61 velocity=0 time=19
note_on channel=1 note=51 velocity=0 time=0
note_on channel=1 note=55 velocity=0 time=1
control_change channel=1 control=10 value=39 time=26
note_on channel=1 note=39 velocity=88 time=1
note_on channel=1 note=51 velocity=88 time=0
note_on channel=1 note=51 velocity=0 time=32
note_on channel=1 note=39 velocity=0 time=0
control_change channel=1 control=10 value=47 time=15
note_on channel=1 note=45 velocity=97 time=1
note_on channel=1 note=57 velocity=97 time=1
note_on channel=1 note=45 velocity=0 time=19
note_on channel=1 note=57 velocity=0 time=1
note_on channel=1 note=46 velocity=90 time=28
note_on channel=1 note=58 velocity=89 time=1
note_on channel=1 note=46 velocity=0 time=31
note_on channel=1 note=58 velocity=0 time=1
control_change channel=1 control=10 value=52 time=13
note_on channel=1 note=51 velocity=71 time=1
note_on channel=1 note=55 velocity=71 time=0
note_on channel=1 note=61 velocity=71 time=1
note_on channel=1 note=55 velocity=0 time=19
note_on channel=1 note=51 velocity=0 time=0
note_on channel=1 note=61 velocity=0 time=1
control_change channel=1 control=10 value=39 time=26
note_on channel=1 note=51 velocity=93 time=1
note_on channel=1 note=39 velocity=93 time=1
note_on channel=1 note=51 velocity=0 time=31
note_on channel=1 note=39 velocity=0 time=1
control_change channel=1 control=10 value=44 time=14
note_on channel=1 note=55 velocity=87 time=1
note_on channel=1 note=43 velocity=87 time=2
note_on channel=1 note=55 velocity=0 time=18
note_on channel=1 note=43 velocity=0 time=2
note_on channel=1 note=56 velocity=85 time=26
note_on channel=1 note=44 velocity=85 time=2
note_on channel=1 note=56 velocity=0 time=30
note_on channel=1 note=44 velocity=0 time=2
control_change channel=1 control=10 value=52 time=13
note_on channel=1 note=56 velocity=76 time=1
note_on channel=1 note=60 velocity=76 time=1
note_on channel=1 note=51 velocity=76 time=1
note_on channel=1 note=56 velocity=0 time=18
note_on channel=1 note=60 velocity=0 time=1
note_on channel=1 note=51 velocity=0 time=1
control_change channel=1 control=10 value=39 time=26
note_on channel=1 note=51 velocity=80 time=1
note_on channel=1 note=39 velocity=80 time=1
note_on channel=1 note=51 velocity=0 time=31
note_on channel=1 note=39 velocity=0 time=1
control_change channel=1 control=10 value=52 time=14
note_on channel=1 note=60 velocity=67 time=1
note_on channel=1 note=56 velocity=67 time=1
note_on channel=1 note=51 velocity=67 time=0
note_on channel=1 note=60 velocity=0 time=19
note_on channel=1 note=51 velocity=0 time=1
note_on channel=1 note=56 velocity=0 time=0
control_change channel=1 control=10 value=45 time=25
note_on channel=1 note=44 velocity=80 time=1
note_on channel=1 note=56 velocity=80 time=1
note_on channel=1 note=44 velocity=0 time=31
note_on channel=1 note=56 velocity=0 time=1
control_change channel=1 control=10 value=52 time=15
note_on channel=1 note=56 velocity=72 time=1
note_on channel=1 note=51 velocity=72 time=0
note_on channel=1 note=60 velocity=72 time=1
note_on channel=1 note=51 velocity=0 time=19
note_on channel=1 note=56 velocity=0 time=0
note_on channel=1 note=60 velocity=0 time=1
control_change channel=1 control=10 value=48 time=26
note_on channel=1 note=46 velocity=95 time=1
note_on channel=1 note=58 velocity=95 time=1
note_on channel=1 note=46 velocity=0 time=31
note_on channel=1 note=58 velocity=0 time=1
note_on channel=1 note=48 velocity=91 time=14
note_on channel=1 note=60 velocity=91 time=1
note_on channel=1 note=48 velocity=0 time=19
note_on channel=1 note=60 velocity=0 time=1
control_change channel=1 control=10 value=52 time=28
note_on channel=1 note=61 velocity=96 time=1
note_on channel=1 note=49 velocity=96 time=0
note_on channel=1 note=49 velocity=0 time=32
note_on channel=1 note=61 velocity=0 time=0
control_change channel=1 control=10 value=58 time=15
note_on channel=1 note=56 velocity=80 time=1
note_on channel=1 note=61 velocity=80 time=0
note_on channel=1 note=65 velocity=80 time=0
note_on channel=1 note=65 velocity=0 time=20
note_on channel=1 note=61 velocity=0 time=0
note_on channel=1 note=56 velocity=0 time=0
note_on channel=1 note=65 velocity=75 time=26
note_on channel=1 note=61 velocity=75 time=0
note_on channel=1 note=56 velocity=75 time=0
note_on channel=1 note=56 velocity=0 time=32
note_on channel=1 note=61 velocity=0 time=0
note_on channel=1 note=65 velocity=0 time=0
control_change channel=1 control=10 value=51 time=16
note_on channel=1 note=48 velocity=76 time=1
note_on channel=1 note=60 velocity=76 time=1
note_on channel=1 note=48 velocity=0 time=19
note_on channel=1 note=60 velocity=0 time=1
note_on channel=1 note=61 velocity=75 time=26
note_on channel=1 note=49 velocity=75 time=1
note_on channel=1 note=61 velocity=0 time=31
note_on channel=1 note=49 velocity=0 time=1
control_change channel=1 control=10 value=58 time=14
note_on channel=1 note=56 velocity=69 time=1
note_on channel=1 note=61 velocity=69 time=0
note_on channel=1 note=65 velocity=69 time=2
note_on channel=1 note=61 velocity=0 time=18
note_on channel=1 note=56 velocity=0 time=0
note_on channel=1 note=65 velocity=0 time=2
control_change channel=1 control=10 value=48 time=26
note_on channel=1 note=58 velocity=88 time=1
note_on channel=1 note=46 velocity=88 time=1
note_on channel=1 note=58 velocity=0 time=31
note_on channel=1 note=46 velocity=0 time=1
note_on channel=1 note=59 velocity=87 time=14
note_on channel=1 note=47 velocity=87 time=1
note_on channel=1 note=59 velocity=0 time=19
note_on channel=1 note=47 velocity=0 time=1
note_on channel=1 note=60 velocity=90 time=27
note_on channel=1 note=48 velocity=90 time=1
note_on channel=1 note=60 velocity=0 time=31
note_on channel=1 note=48 velocity=0 time=1
control_change channel=1 control=10 value=57 time=14
note_on channel=1 note=63 velocity=72 time=1
note_on channel=1 note=60 velocity=72 time=1
note_on channel=1 note=56 velocity=72 time=1
note_on channel=1 note=63 velocity=0 time=18
note_on channel=1 note=60 velocity=0 time=1
note_on channel=1 note=56 velocity=0 time=1
note_on channel=1 note=63 velocity=75 time=28
note_on channel=1 note=60 velocity=75 time=0
note_on channel=1 note=56 velocity=75 time=0
note_on channel=1 note=56 velocity=0 time=32
note_on channel=1 note=60 velocity=0 time=0
note_on channel=1 note=63 velocity=0 time=0
control_change channel=1 control=10 value=39 time=14
note_on channel=1 note=51 velocity=82 time=1
note_on channel=1 note=39 velocity=82 time=0
note_on channel=1 note=39 velocity=0 time=20
note_on channel=1 note=51 velocity=0 time=0
control_change channel=1 control=10 value=45 time=26
note_on channel=1 note=44 velocity=84 time=1
note_on channel=1 note=56 velocity=86 time=1
note_on channel=1 note=44 velocity=0 time=31
note_on channel=1 note=56 velocity=0 time=1
control_change channel=1 control=10 value=52 time=14
note_on channel=1 note=51 velocity=71 time=1
note_on channel=1 note=56 velocity=71 time=0
note_on channel=1 note=60 velocity=71 time=0
note_on channel=1 note=60 velocity=0 time=20
note_on channel=1 note=56 velocity=0 time=0
note_on channel=1 note=51 velocity=0 time=0
control_change channel=1 control=10 value=39 time=27
note_on channel=1 note=39 velocity=72 time=1
note_on channel=1 note=51 velocity=72 time=1
note_on channel=1 note=39 velocity=0 time=31
note_on channel=1 note=51 velocity=0 time=1
control_change channel=1 control=10 value=52 time=15
note_on channel=1 note=56 velocity=67 time=1
note_on channel=1 note=51 velocity=67 time=1
note_on channel=1 note=60 velocity=67 time=0
note_on channel=1 note=56 velocity=0 time=19
note_on channel=1 note=60 velocity=0 time=1
note_on channel=1 note=51 velocity=0 time=0
control_change channel=1 control=10 value=36 time=25
note_on channel=1 note=37 velocity=99 time=1
note_on channel=1 note=49 velocity=99 time=1
note_on channel=1 note=37 velocity=0 time=31
note_on channel=1 note=49 velocity=0 time=1
note_on channel=1 note=37 velocity=94 time=16
note_on channel=1 note=49 velocity=94 time=0
note_on channel=1 note=49 velocity=0 time=20
note_on channel=1 note=37 velocity=0 time=0
control_change channel=1 control=10 value=32 time=26
note_on channel=1 note=46 velocity=93 time=1
note_on channel=1 note=34 velocity=93 time=1
note_on channel=1 note=46 velocity=0 time=31
note_on channel=1 note=34 velocity=0 time=1
control_change channel=1 control=10 value=37 time=14
note_on channel=1 note=50 velocity=78 time=1
note_on channel=1 note=38 velocity=78 time=0
note_on channel=1 note=38 velocity=0 time=20
note_on channel=1 note=50 velocity=0 time=0
note_on channel=1 note=51 velocity=89 time=28
note_on channel=1 note=39 velocity=89 time=0
note_on channel=1 note=39 velocity=0 time=32
note_on channel=1 note=51 velocity=0 time=0
control_change channel=1 control=10 value=52 time=15
note_on channel=1 note=51 velocity=75 time=1
note_on channel=1 note=56 velocity=78 time=1
note_on channel=1 note=60 velocity=78 time=1
note_on channel=1 note=51 velocity=0 time=18
note_on channel=1 note=56 velocity=0 time=1
note_on channel=1 note=60 velocity=0 time=1
control_change channel=1 control=10 value=39 time=26
note_on channel=1 note=51 velocity=85 time=1
note_on channel=1 note=39 velocity=85 time=0
note_on channel=1 note=39 velocity=0 time=32
note_on channel=1 note=51 velocity=0 time=0
note_on channel=1 note=52 velocity=87 time=17
note_on channel=1 note=40 velocity=87 time=0
note_on channel=1 note=40 velocity=0 time=20
note_on channel=1 note=52 velocity=0 time=0
note_on channel=1 note=53 velocity=93 time=26
note_on channel=1 note=41 velocity=93 time=2
note_on channel=1 note=53 velocity=0 time=30
note_on channel=1 note=41 velocity=0 time=2
note_on channel=1 note=41 velocity=78 time=14
note_on channel=1 note=53 velocity=78 time=1
note_on channel=1 note=41 velocity=0 time=19
note_on channel=1 note=53 velocity=0 time=1
control_change channel=1 control=10 value=43 time=26
note_on channel=1 note=55 velocity=91 time=1
note_on channel=1 note=43 velocity=92 time=1
note_on channel=1 note=55 velocity=0 time=31
note_on channel=1 note=43 velocity=0 time=1
note_on channel=1 note=55 velocity=79 time=16
note_on channel=1 note=43 velocity=79 time=0
note_on channel=1 note=43 velocity=0 time=20
note_on channel=1 note=55 velocity=0 time=0
note_on channel=1 note=56 velocity=96 time=27
note_on channel=1 note=44 velocity=96 time=2
note_on channel=1 note=56 velocity=0 time=39
note_on channel=1 note=44 velocity=0 time=2
control_change channel=1 control=10 value=39 time=5
note_on channel=1 note=39 velocity=94 time=1
note_on channel=1 note=51 velocity=94 time=1
note_on channel=1 note=39 velocity=0 time=31
note_on channel=1 note=51 velocity=0 time=1
control_change channel=1 control=10 value=30 time=13
note_on channel=1 note=44 velocity=110 time=1
note_on channel=1 note=32 velocity=110 time=1
note_on channel=1 note=44 velocity=0 time=62
note_on channel=1 note=32 velocity=0 time=1
<meta message end_of_track time=0>
<meta message midi_port port=0 time=0>
<meta message track_name name='W.S.Trachtman - MIDI file' time=0>
program_change channel=2 program=0 time=0
control_change channel=2 control=7 value=127 time=0
control_change channel=2 control=10 value=64 time=0
note_on channel=2 note=44 velocity=2 time=27744
note_on channel=2 note=32 velocity=2 time=0
note_on channel=2 note=32 velocity=0 time=72
note_on channel=2 note=44 velocity=0 time=0
<meta message end_of_track time=0>
{'67 67': ['69', '69', '76', '65', '69', '76', '65', '71', '77', '72', '72', '71', '77', '72', '76', '72', '72', '71', '71', '59', '59', '72', '72', '64', '65', '64', '70', '70', '66', '75', '70', '70', '66', '75', '75', '72', '69', '70', '65', '64', '64', '70', '70', '59', '65', '65', '65', '65', '70', '70', '59', '61', '76', '76', '66', '64', '64', '64', '64', '64', '64', '65', '65', '70', '62', '69', '65', '75', '75', '71', '72', '72', '72', '72', '69', '73', '69', '69', '73', '69', '69', '73', '64', '76', '70', '77', '64', '76', '70', '70', '64', '76', '72', '72', '72', '72', '69', '73', '65', '74', '74', '61', '60', '74', '63', '63', '63', '65', '73', '70', '70', '68', '70', '62', '79', '62', '73', '70', '70', '68', '73', '79', '67', '72', '73', '72', '72', '72', '66', '61', '62', '66', '61', '62', '72', '72', '70', '64', '79', '79', '69', '69', '79', '69', '69', '64', '65', '65', '69', '66', '69', '70', '69', '74', '66', '69', '69', '69', '66', '69', '74', '74', '76', '76', '65', '65', '79', '77'], '67 69': ['71', '67', '79', '67', '71', '71', '70', '70', '67', '67', '69', '69', '69', '69', '69', '69', '69', '69', '70', '61', '60', '60', '60', '69', '69', '60', '74', '67', '67', '67', '67', '67', '74', '67', '67', '67'], '71 69': ['71', '69', '69', '72', '69', '69', '69', '69', '71', '71', '71', '71'], '71 71': ['77', '68', '68', '76', '74', '76', '67', '71', '80', '71', '68', '69', '64', '65', '72', '70', '77', '77', '71', '74', '72', '69', '69', '74', '72', '69', '69', '74', '70', '77', '77', '71', '74', '67', '79', '67', '68', '89', '67', '89', '68', '69', '70', '69', '76', '67', '69', '70', '69', '76', '67', '79', '77', '77', '83', '83', '83', '83', '83', '83', '79', '72', '79', '72', '79', '72', '79', '72', '74', '74', '70', '72', '72', '64'], '77 71': ['76', '77', '77', '77', '69', '77', '69', '79', '79', '72', '75', '75', '72', '75', '72', '75', '75', '75', '72', '72', '72', '72', '74', '74', '68', '81', '71', '77', '83', '77', '83', '71', '71', '81', '81'], '77 76': ['74', '72', '72', '80', '82', '82', '82', '82', '76', '76', '77', '74', '74', '80', '72', '72', '70', '70', '76', '76', '69', '77', '68', '69'], '74 76': ['79', '76', '76', '76', '74', '88', '76', '74', '74', '71', '65', '65', '65', '76', '65', '76', '65', '65', '65', '65', '70'], '67 71': ['67', '77', '77', '59', '71', '67', '77', '62', '67', '67', '74', '76', '74', '76', '79', '71', '67', '67', '74'], '69 71': ['71', '71', '71', '68', '68', '68', '68', '72', '71', '77', '71', '71', '77', '71'], '72 72': ['74', '63', '75', '75', '75', '76', '74', '63', '75', '75', '75', '76', '76', '76', '76', '77', '64', '77', '77', '67', '77', '70', '75', '69', '72', '69', '69', '72', '69', '69', '72', '69', '74', '74', '68', '75', '75', '68', '75', '68', '82', '68', '75', '75', '68', '80', '70', '69', '69', '72', '69', '74', '72', '72', '72', '72', '81', '81', '74', '69', '70', '70', '70', '70', '79', '69', '84', '84', '76', '76', '76', '69', '67', '76', '77', '68', '72', '70', '66', '84', '81', '69', '66', '75', '75', '71', '75', '75', '71', '70', '70', '63', '74', '74', '79', '74', '74', '75', '80', '79', '64', '76', '67', '76', '71', '76', '64', '69', '76', '74', '74', '76', '74', '74', '76', '76', '76', '72', '76', '64', '75', '72', '75', '66', '74', '64', '76', '67', '76', '71', '76', '64', '69', '76', '75', '75', '60', '75', '67', '69', '75', '77', '77', '84', '77', '75', '79', '84', '77', '76', '73', '77', '75', '84', '73', '67', '71', '74', '60', '60', '76', '76', '76', '76', '76', '76', '65', '74', '60', '67', '76', '66', '76', '76', '76', '65', '72', '69', '72', '69', '74', '74', '76', '76', '76', '65', '74', '60', '67', '76', '66', '72', '77', '76', '70', '65', '77', '79', '72', '84', '84', '84', '84', '76', '84', '84', '76', '76', '79', '76', '76', '76', '76', '79', '76', '76', '74', '75', '74', '77', '74', '75', '74', '77', '76', '77', '76', '70', '77', '72', '74', '73', '75', '76', '84', '77', '73', '77', '65', '67', '73', '73', '67', '70', '70', '74', '70', '70', '70', '70', '70', '74', '72', '73', '74', '73', '73', '74', '73', '84', '73', '71', '69', '70', '84', '80', '67', '73', '73', '67', '75', '65', '75', '68', '75', '77', '75', '62', '75'], '75 75': ['76', '76', '79', '79', '79', '87', '84', '79', '72', '79', '67', '79', '84', '87', '79', '69', '81', '81', '70', '68', '72', '72', '71', '67', '74', '72', '72', '72', '72', '72', '73', '73', '70', '74', '74', '74', '77', '74', '72', '84', '84', '84', '79', '79', '72', '79', '79', '72', '74', '70', '72', '72', '74', '77', '79', '79', '72', '68', '77', '68', '77', '77', '68', '77', '68', '77', '77', '67', '79', '79', '72', '72', '72', '76', '76', '72', '72', '79', '79', '69', '79', '69', '79', '84', '72', '62', '68', '79', '68', '72', '68', '72', '62', '65', '72', '72', '87', '72', '80', '76', '70', '69', '69', '70', '74', '74', '76', '72', '70', '69', '69', '70', '63', '63', '84', '80', '82', '79', '68', '72', '70', '70', '77', '68', '68', '77', '68', '68'], '76 77': ['77', '77', '77', '77', '65', '76', '65', '65', '82', '82', '80', '80', '80', '80', '77', '77', '77', '77', '79', '79', '89', '79', '73', '77', '73', '77', '73', '73', '73', '74', '74', '73', '77', '72'], '79 79': ['81', '74', '77', '79', '81', '74', '77', '79', '79', '79', '77', '83', '77', '74', '79', '79', '83', '79', '84', '75', '75', '67', '75', '84', '71', '84', '77', '75', '77', '84', '71', '84', '78', '76', '76', '76', '84', '77', '77', '77', '72', '72', '77', '77', '77', '77', '78', '77', '67', '81', '71', '88', '88', '78', '77', '72', '77', '72', '75', '74', '67', '74', '74', '77', '72', '77', '72', '75', '75', '75', '82', '75', '75', '75', '75', '82', '75', '80', '75', '75', '76', '76', '76', '76', '76', '72', '70', '67', '76', '76', '76', '78', '69', '82', '82', '75', '69', '91', '74', '82', '77', '82', '82', '89', '82', '73', '81', '73', '81', '81', '81', '74', '67', '76', '74', '67', '81', '76', '76', '71', '77', '81', '83', '72', '72', '84', '84', '69', '82', '83', '69', '82', '83', '81', '81', '83', '81', '83', '72', '76', '67', '76', '76', '67', '76', '67', '79', '79', '72', '67', '79', '79', '72', '67', '67', '81', '81', '84', '81', '84', '81', '80', '74', '77', '81', '80', '80', '74', '77', '76', '87', '87', '69', '74', '69', '74', '70', '73', '75', '70'], '81 84': ['84', '84', '80', '80', '83', '77', '84', '77', '84', '80', '84', '84', '84', '84', '81', '84', '84', '69', '81', '84', '84', '84', '81', '81', '81', '81', '75', '76', '76', '76', '76', '72', '75', '79', '80', '79', '80', '84', '75', '75', '72', '77', '81', '77'], '81 81': ['83', '79', '72', '83', '79', '72', '86', '86', '79', '79', '82', '79', '86', '79', '80', '82', '79', '86', '79', '79', '79', '72', '84', '77', '77', '82', '77', '69', '77', '76', '77', '76', '69', '77', '69', '77', '72', '69', '84', '76', '84', '76', '77', '76', '76', '69', '84', '84', '69', '84', '72', '72', '72', '72', '70', '72', '70', '77', '70', '72', '70', '77', '77', '72', '81', '81', '81', '81', '81', '81', '77', '75', '77', '75', '77', '75', '78', '84', '76', '75', '78', '86', '86', '84', '84', '82', '76', '78', '84', '82', '78', '84', '82'], '83 84': ['84', '84', '84', '84', '84', '84', '84', '84', '86'], '86 86': ['77', '77', '77', '77', '83', '83', '83', '74', '74', '82', '76', '81', '82', '76', '81', '74', '84', '84', '77', '77', '83', '74', '74', '80', '80', '80', '83', '83', '98', '87', '81', '84', '81', '81', '84', '81', '84', '78', '78', '78', '78'], '77 81': ['81', '81', '77', '77', '81', '72', '89', '71', '81', '72', '89', '71', '77', '84', '79', '79', '81', '81', '81', '77', '74', '77', '74', '81', '81', '77', '81', '77', '69', '82', '74', '74', '72', '84', '81', '71', '81', '72', '72', '71', '71', '72', '72', '72', '72', '72', '77', '72'], '74 75': ['75', '75', '80', '75', '70', '70', '74', '74', '74', '70', '75', '75', '82', '75', '63', '75', '63', '75', '75', '63', '74', '74'], '76 76': ['75', '77', '72', '75', '77', '72', '72', '72', '72', '72', '79', '72', '72', '72', '72', '71', '72', '72', '72', '72', '79', '74', '66', '77', '79', '79', '82', '82', '79', '74', '74', '77', '84', '81', '77', '88', '67', '72', '79', '76', '79', '72', '67', '72', '72', '67', '72', '72', '69', '67', '67', '69', '67', '67', '67', '74', '76', '79', '72', '67', '72', '72', '67', '72', '72', '79', '73', '71', '67', '72', '78', '65', '79', '72', '65', '72', '69', '69', '65', '74', '74', '69', '67', '78', '65', '79', '72', '74', '64', '74', '79', '79', '74', '79', '79', '74', '79', '77', '67', '67', '67', '67', '71', '77', '75', '77'], '75 76': ['76', '76', '64', '64', '76', '67', '67', '77'], '77 77': ['79', '74', '79', '74', '71', '74', '71', '74', '69', '74', '69', '72', '67', '80', '65', '77', '74', '75', '74', '80', '80', '65', '65', '72', '79', '74', '80', '69', '77', '77', '79', '80', '86', '86', '86', '65', '80', '80', '73', '80', '77', '70', '70', '85', '79', '79', '74', '76', '79', '76', '79', '76', '74', '76', '75', '75', '78', '86', '79', '75', '79', '75', '81', '76', '75', '79', '65', '65', '86', '81', '76', '81', '69', '69', '79', '64', '79', '74', '75', '75', '79', '64', '79', '74', '75', '75', '74', '79', '64', '79', '74', '79', '80', '83', '71', '69', '69', '69', '69', '74', '74', '83', '71', '65', '69', '74', '77', '79', '80', '79', '81', '77', '74', '65', '73', '73', '72', '73', '74', '65', '66', '73', '72', '73', '73', '75', '65', '66', '76', '74', '74', '81', '79', '79', '72', '79', '75', '81', '81', '72', '81', '65', '82', '73', '74', '75', '82', '74', '77', '68', '65', '80'], '79 81': ['81', '81', '77', '77', '81', '81', '79', '76', '83', '76', '81', '81', '81', '74', '76', '69', '69', '69', '69', '69', '69', '69', '72', '81', '81', '77'], '84 84': ['81', '86', '81', '86', '88', '72', '77', '78', '72', '72', '80', '80', '86', '83', '86', '86', '86', '86', '83', '86', '78', '81', '81', '84', '84', '88', '82', '82', '86', '76', '76', '76', '76', '76', '88', '81', '76', '76', '76', '72', '72', '72', '79', '72', '72', '82', '75', '82', '75', '79', '86', '79', '79', '76', '79', '75', '77', '72', '72', '80', '75', '75', '76', '77', '72', '76', '79', '79', '72', '72', '72', '72', '72', '72', '79', '72', '77', '79', '81', '72', '74', '81', '81', '72', '81', '75', '75', '72'], '81 83': ['83', '83', '79'], '86 77': ['77', '77', '74', '75', '89', '75', '74'], '79 74': ['74', '74', '77', '74', '74', '70', '82', '82', '79', '79', '79', '79', '62', '68', '79', '83', '74', '71', '81', '71', '71', '81', '71', '71', '71', '71', '79', '79', '79', '82', '79', '82', '79', '79'], '77 74': ['74', '74', '74', '74', '71', '70', '70', '70', '77', '77', '70', '77', '68', '70', '70', '74', '74', '74', '74', '74', '74', '74', '65', '65', '65', '65', '86', '86', '86', '86', '86', '86', '86', '86', '86', '76', '76', '77', '76', '76', '77', '77', '77', '74', '77', '77', '80', '80', '74', '74', '74', '74', '78', '77', '74', '70', '74', '78', '76', '77', '74', '77', '74', '70', '77', '82', '70', '81', '81', '69', '74', '74', '83', '74', '74', '83', '74', '74', '74', '74', '74', '74', '74', '77', '74', '68', '74', '77', '74', '68', '68', '74', '74', '74', '74', '77', '72', '74', '74', '74', '75'], '68 69': ['69', '69', '69', '69', '77', '68', '77', '69', '73', '73', '68', '69', '69', '69', '69', '69', '69', '67', '67', '68'], '74 71': ['71', '71', '71', '67', '71', '71', '67', '74', '71', '62', '83', '83', '83', '72', '73', '74', '70', '77', '65', '65', '71', '72', '72', '64', '71', '65', '65', '71', '64', '64', '83', '83', '83', '79', '65', '71', '67', '67', '71', '67', '67', '65', '79', '74', '79', '79', '74', '79', '79', '79', '79', '74'], '68 68': ['69', '69', '77', '80', '63', '72', '60', '72', '60', '77', '77', '75', '77', '77', '80', '69', '69', '69', '69', '69', '69', '66', '66', '66', '67', '67', '62', '70', '80', '75', '77', '70', '60', '61', '61', '70', '80', '75', '77', '70', '60', '73', '68', '68', '80', '64', '64', '65', '65', '67', '77', '71', '80', '75', '71', '80', '80', '77', '75', '70', '80', '80', '77', '70', '38', '39'], '69 60': ['69', '69', '69', '72', '69', '69'], '60 69': ['63', '63', '69', '69', '60', '60'], '75 66': ['75', '75', '75', '75', '75', '75', '75', '72', '67', '67', '64', '74', '64', '78', '66', '66', '72', '66', '66', '72', '75'], '66 69': ['78', '78', '81', '66', '69', '69', '69', '70', '67', '67', '72', '62', '66', '66', '74', '66'], '69 78': ['72', '67', '72', '67', '75', '69', '75', '69', '78', '78', '72'], '84 75': ['84', '84', '75', '84', '75', '68', '79', '79', '75', '72', '72', '72', '72', '72', '80', '75', '84', '84'], '75 78': ['87', '87', '66', '66', '66', '66', '69', '68', '70', '66', '66', '66', '68', '82', '82', '79', '79', '78', '78', '75', '78', '70'], '78 87': ['81', '81', '77', '76', '90', '90', '77', '76', '87', '87'], '90 90': ['81', '68', '81', '68'], '84 80': ['87', '87', '80', '75', '84', '72', '77', '80', '72', '84', '80', '80'], '92 92': ['80', '80', '80', '80', '80'], '87 84': ['75', '67', '75', '67', '84', '63', '87'], '84 87': ['90', '90', '90', '90', '90', '90', '87'], '87 90': ['84', '84'], '72 75': ['84', '84', '63', '63', '66', '66', '63', '77', '71', '71', '75', '70', '72', '77', '72', '71', '77', '73', '68', '72', '72', '73', '71', '71', '71', '77', '75', '75', '72', '77', '66', '75', '66', '72', '84', '84', '72', '72', '84', '69', '72', '69', '72', '72', '79', '79', '70', '75', '75', '66', '75', '69', '75', '69', '69', '75', '81', '72', '79', '87', '84', '74', '82', '78', '77', '84', '72', '71', '71', '72', '75', '66', '75', '75', '68', '68', '68', '78', '78', '66', '75', '78', '78', '72', '81', '72', '72', '72', '70', '72', '63', '75', '72', '75', '77', '75', '75', '75', '75', '75', '75', '80', '70', '75', '72', '80', '72', '68', '80', '75', '70', '68'], '90 87': ['84', '72', '84', '72', '78', '78'], '84 68': ['87', '87', '75'], '84 88': ['91', '91', '88', '76', '76', '76', '76', '91', '84'], '72 88': ['91', '91', '76'], '84 67': ['72', '72'], '76 64': ['91', '91', '77', '77', '64', '76', '72', '72', '76', '76', '63', '75'], '91 64': ['88', '88'], '64 88': ['67', '67'], '76 72': ['84', '84', '84', '84', '69', '79', '76', '76', '67', '69', '71', '84', '67', '64', '67', '67', '64', '67', '67', '64', '67', '82', '84', '67', '84', '67', '67', '84', '67', '84', '84', '84', '84', '84', '76', '84', '84', '84', '84', '76', '67', '76', '79', '67', '67', '66', '81', '79', '74', '72', '72', '72', '76', '72', '69', '72', '72', '74', '74', '67', '79', '72', '72', '72', '76', '72', '69', '76', '77', '72', '72', '72', '76', '72', '76', '72', '67', '72', '66', '66', '76', '72', '72', '72', '72', '72', '79', '72', '76', '79', '79', '76', '79', '79', '76', '79', '79', '76', '79', '79', '76', '76', '76', '70', '76', '70', '67'], '84 64': ['79', '79', '65', '65', '65'], '76 67': ['72', '72', '67', '71', '74', '79', '79', '79', '79', '72', '72', '72', '72', '64', '72', '64', '64', '76', '76', '76', '67', '64', '72', '64', '64', '64', '73', '72', '72', '72', '67'], '79 72': ['78', '75', '78', '75', '84', '84', '77', '84', '77', '84', '77', '84', '76', '84', '72', '67', '79', '79', '70', '84', '72', '84', '84', '84', '72', '72', '72', '84', '84', '84', '84', '72', '79', '71', '79', '71', '72', '79', '79', '79'], '62 81': ['62', '62'], '69 72': ['81', '81', '76', '76', '76', '76', '76', '76', '77', '72', '65', '65', '69', '65', '69', '65', '69', '77', '71', '73', '72', '72', '69', '69', '77', '72', '84', '69', '84', '67', '64', '64', '76', '74', '69', '74', '69', '72', '76', '65', '72', '76', '65', '72', '66', '72', '66', '72', '66', '72', '72', '69', '69', '72', '76', '65', '72', '76', '65', '72', '66', '72', '72', '70', '70', '70', '69', '70', '69', '69', '63', '72', '72', '70', '63', '66', '65', '65', '72', '66', '66', '72', '70', '69', '60', '60', '69', '69', '77', '77', '69', '77', '69', '72', '63', '72', '69'], '71 77': ['86', '86', '71', '71', '77', '77', '77', '72', '72', '72', '75', '77', '79', '69', '70', '77', '69', '70', '77', '79', '65', '65', '89', '89', '89', '71', '81'], '77 86': ['77', '77', '86', '76', '86', '83', '89', '76', '86', '83', '76', '82', '82', '79', '79'], '84 76': ['72', '72', '72', '72', '72', '72', '72', '72', '72', '72', '72', '72', '72', '79', '84', '72', '73', '81', '76', '81', '76', '84'], '67 60': ['60', '60', '60', '60', '60', '67', '72', '67', '67', '67', '63'], '67 72': ['72', '72', '76', '76', '76', '76', '64', '76', '76', '76', '76', '76', '76', '70', '64', '64', '64', '61', '70', '68', '75', '72', '79', '79', '67', '79', '72', '67', '69', '72', '72', '72', '64', '72', '66', '72', '72', '72', '76', '72', '66', '72', '75', '75', '60', '76', '76', '67', '64', '76', '76', '67', '76', '76', '76', '67', '64', '72', '67', '76', '76', '76', '67', '76', '72', '76', '76', '72', '72', '67', '72', '72', '67', '72', '63', '63'], '74 74': ['76', '76', '71', '71', '71', '79', '62', '70', '70', '77', '70', '77', '62', '70', '70', '74', '79', '71', '80', '86', '72', '72', '74', '72', '83', '77', '77', '69', '77', '72', '72', '79', '72', '72', '73', '70', '72', '70', '72', '75', '65', '77', '86', '77', '77', '79', '77', '79', '71', '70', '70', '70', '70', '73', '79', '72', '78', '79', '72', '75', '79', '72', '75', '75', '73', '77', '70', '70', '76', '76', '77', '77', '71', '66', '70', '73', '76', '70', '70', '77', '77', '75', '78', '75', '75', '73', '72', '72', '72', '72', '73', '76', '72', '72', '71', '71', '76', '79', '73', '72', '72', '86', '70', '72', '72', '65', '67', '72', '72', '69', '72', '76', '71', '76', '77', '77', '86', '78', '79', '79', '77', '65', '65', '79', '77', '77', '77', '81', '72', '82', '75', '67', '75', '81', '72', '72', '82', '82', '82', '82', '65', '65', '79', '77', '77', '77', '72', '77'], '78 78': ['79', '75', '75', '75', '79', '75', '75', '75', '79', '67', '78', '75', '75', '75', '75', '79', '81', '75', '75', '79', '74', '77', '68', '66', '79', '79', '79', '79', '79', '79', '79', '79', '82', '72', '77', '75', '65', '72', '72'], '80 80': ['75', '75', '75', '75', '74', '79', '79', '77', '77', '81', '81', '81', '81', '68', '68', '68', '68', '82', '68', '68', '77', '72', '75', '75', '73', '84', '77', '77', '68', '75', '92', '92', '68', '68', '77', '70', '68', '77', '81', '81', '75', '75', '75', '76', '76', '81', '81', '73', '92', '92', '84', '75', '68', '80', '75', '75', '68'], '72 78': ['75', '75', '84', '83', '69', '81', '75', '75', '81', '81', '81', '66', '78'], '78 72': ['75', '75', '82', '82', '82', '72', '71', '72', '66', '72', '81', '80', '84'], '72 79': ['76', '76', '75', '72', '84', '69', '69', '69', '69', '72', '69', '84', '84', '75', '87', '82', '76', '79', '79', '79', '79', '76', '72', '72', '79', '79', '77', '76', '82', '82', '79'], '72 67': ['67', '67', '67', '67', '67', '70', '70', '69', '76', '76', '76', '76', '67', '79', '72', '76', '76', '64', '75', '75', '71', '67', '69', '69', '76', '71', '67', '75', '60', '63', '64', '68', '64', '68', '72', '76', '76', '67', '76', '67', '65', '72', '76', '67', '76', '67', '64', '72', '72', '72', '72', '77', '72', '77', '76', '75', '75', '75', '70', '70', '70', '70', '75', '75', '75'], '66 60': ['69', '69', '56', '39', '60', '60', '56', '56', '39', '63', '56', '60'], '69 66': ['60', '60', '72', '72', '66', '69', '66', '66', '69', '78', '78', '62', '69', '66', '66', '69', '69'], '74 65': ['74', '74', '65', '65', '77', '72', '65', '74', '74', '72', '77', '65', '77', '65', '77', '65', '65', '77', '72', '74', '77', '69', '69', '69', '69', '67', '76', '74', '72', '74', '74', '72', '74', '72', '74', '74', '72', '65', '70', '74', '74', '74', '62', '62', '62', '62', '62', '82'], '65 65': ['74', '74', '77', '77', '69', '69', '72', '77', '77', '77', '70', '68', '68', '59', '64', '64', '59', '59', '59', '59', '59', '59', '59', '59', '74', '63', '63', '77', '63', '63', '60', '60', '68', '69', '68', '68', '53', '53', '61', '53', '56', '49', '53', '53', '61', '61', '53', '74', '74', '67', '69', '64', '64', '67', '69', '84', '74', '74', '82', '74', '82', '74', '77', '74', '60', '60', '60', '60', '60', '59', '60', '60', '60', '60', '60', '62', '74', '62', '62', '60', '60', '56', '60', '57', '72', '74', '74', '71', '69', '69', '65', '67', '67', '67', '67', '71', '60', '60', '59', '60', '60', '59', '59', '59', '59', '59', '59', '60', '59', '59', '59', '59', '59', '59', '59', '59', '60', '60', '59', '60', '60', '59', '59', '59', '77', '77', '62', '56', '77', '67', '77', '77', '77', '69', '77', '69', '77', '61', '61', '61', '61', '59', '60', '60', '60', '59', '59', '59', '60', '59', '59', '59', '60', '59', '71', '71', '60', '59', '60', '59', '59', '59', '60', '59', '59', '59', '59', '60', '59', '60', '59', '60', '60', '60', '60', '63', '75', '70', '63', '62', '70', '77', '75', '65', '65', '65', '65', '63', '75', '70', '63', '62', '70', '77', '75', '61', '65', '48', '58'], '65 74': ['65', '65', '74', '74', '74', '74', '70', '77', '77', '70', '71', '77', '65', '65', '69', '69', '69', '69', '77', '76', '72', '70', '70', '70', '70', '71', '71', '71', '71', '74', '74', '74', '62', '65', '65', '74'], '72 64': ['72', '72', '70', '70', '70', '70', '70', '70', '70', '64', '72', '64', '72', '64', '72', '64', '72', '64', '72', '72', '64', '72', '64', '72', '64', '72', '69', '64', '72', '64', '72', '76', '72', '72', '64', '72', '72', '64', '72', '64', '72', '64', '72', '64', '64', '72', '67', '72', '72', '67', '70', '70', '60', '77', '77'], '64 66': ['66', '63', '63'], '64 79': ['79'], '83 79': ['91', '79', '91', '79', '79', '74', '72', '79', '79', '79', '83', '83'], '91 83': ['79', '79'], '89 89': ['86', '86', '77', '80', '80', '80', '80', '77', '80', '77', '76'], '86 83': ['83', '83'], '72 76': ['69', '67', '69', '67', '72', '72', '69', '67', '69', '67', '72', '72', '76', '72', '76', '76', '70', '67', '70', '67', '70', '67', '82', '84', '76', '65', '76', '76', '74', '74', '84', '64', '64', '64', '79', '74', '74', '62', '88', '74', '76', '69', '81', '65', '76', '65', '76', '81', '65', '65', '65', '72', '72', '72', '72', '72', '67', '81', '65', '76', '65', '76', '81', '65', '72', '79', '79', '79', '67', '72', '67', '84', '81', '76', '84', '81', '76', '72', '81', '66', '66', '84', '81', '76', '79', '67', '76', '76', '76', '76', '76', '69', '67', '69', '67', '72', '72', '69', '72', '72', '70', '69', '72', '72', '67', '79', '81', '81', '82', '84'], '69 69': ['71', '72', '60', '71', '72', '72', '72', '72', '72', '77', '72', '77', '72', '75', '77', '72', '72', '67', '65', '67', '71', '60', '70', '69', '60', '72', '67', '71', '67', '74', '72', '72', '79', '77', '72', '69', '70', '79', '79', '77', '79', '79', '77', '70', '77', '79', '79', '75', '68', '72', '72', '68', '72', '76', '67', '71', '77', '72', '76', '67', '71', '77', '72', '65', '77', '72', '65', '72', '65', '77', '72', '72', '70', '72', '72', '65', '68', '72', '72', '68', '72', '79', '79', '79', '65', '72', '60', '81', '81', '78', '78', '76', '76', '67', '67', '72', '62', '66', '71', '72', '62', '66', '71', '67', '74', '72', '62', '65', '81', '65', '81', '81', '81', '72', '67', '67', '70', '66', '70', '70', '67', '70', '67', '72', '70', '67', '74', '67', '67', '70', '72', '67', '75', '70', '75', '70', '63', '70', '67', '70', '73'], '77 69': ['77', '77', '69', '75', '72', '72', '72', '75', '81', '81', '72', '72', '81', '81', '77', '81', '72', '69', '77', '77', '77', '77', '67', '77', '67', '77', '65', '65', '74', '81', '74', '70', '65', '69', '69', '77', '77', '72', '69'], '69 77': ['77', '77', '65', '65', '65', '77', '72', '69', '80', '80', '79', '65', '69', '74', '77', '72'], '76 69': ['72', '72', '67', '81', '81', '81', '81', '72', '72', '76', '76', '72', '72', '76', '81', '81', '81', '76', '81'], '69 76': ['72', '72', '72', '68', '81', '68', '81', '76', '72', '72', '72', '72', '72', '72', '72'], '76 79': ['79', '79', '79', '82', '79', '82', '70', '70', '70', '70', '88', '88', '72', '88', '88', '88', '88', '81', '67', '67', '67', '67', '72', '72', '76', '79', '76', '72', '67', '79', '84', '67', '79', '84', '79', '79', '84', '79', '72', '79', '79', '79', '79', '67', '67', '79', '78', '79', '79', '78', '77', '72', '79'], '88 79': ['83', '76', '86', '71', '76', '76', '91', '91', '91', '91', '86', '71', '86', '71'], '91 91': ['83', '83', '83', '93', '83', '82', '82'], '79 89': ['89', '89', '89', '77', '79', '79'], '67 76': ['70', '67', '76', '79', '79', '75', '75', '76', '76', '69', '67', '72', '69', '67', '72', '75', '67', '76', '76', '73', '72', '79'], '70 67': ['76', '67', '70', '70', '70', '70', '70', '67', '72', '64', '70', '70', '65', '61', '68', '65', '65', '69', '67', '67', '70', '67', '74', '73', '74', '74', '74', '74', '70', '70', '67', '70', '67', '74', '79', '66', '69', '67', '61', '67', '61', '79', '79', '72', '62', '67', '67', '70', '70', '70', '70', '70', '73', '63', '73', '63', '73', '63', '73', '63', '70', '70', '70', '70', '70', '70'], '71 67': ['76', '74', '71', '67', '67', '74', '74', '70', '74', '67', '67', '76', '74', '61', '67', '76', '74', '61', '79', '65', '74', '74', '77', '77', '65'], '76 71': ['67', '74', '77', '77', '65', '71', '77', '77', '71', '68', '72', '67', '71', '67', '71', '76', '64'], '67 59': ['67', '67', '67', '65', '65', '59', '59'], '59 67': ['60'], '74 79': ['79', '79', '74', '74', '82', '82', '77', '77', '77', '77', '77', '77', '79', '83', '83', '74', '79', '74', '79', '79', '74', '79', '74', '79', '74', '79', '74', '74', '74', '74', '82', '82', '79', '70', '67', '86', '70', '83', '84', '78', '70', '78', '78', '70', '78', '83', '77', '79', '70', '70'], '83 86': ['86', '71', '71', '86', '86'], '71 72': ['72', '75', '75', '77', '77', '72', '77', '83', '83', '72', '72', '74', '72', '72', '68', '75', '68', '79', '84', '84', '71', '71'], '79 84': ['84', '84', '84', '82', '84', '82', '76', '76', '79', '79', '84', '79', '81', '72', '84', '84', '55', '82', '75', '72', '84', '79', '72', '72', '72', '76', '76', '84', '81', '84', '84', '84', '84'], '72 77': ['77', '77', '77', '77', '74', '71', '75', '76', '75', '71', '75', '75', '75', '71', '84', '72', '69', '72', '63', '75', '65', '68', '79', '80', '77', '77', '77', '77', '77', '81', '81', '77', '81', '84', '81', '84', '77', '67', '77', '67', '69', '84', '69', '84', '72', '79', '72', '72', '78', '81', '69', '77', '79', '72', '72', '72', '74', '77', '84', '77', '72', '72', '69', '72', '74', '72', '72'], '77 72': ['72', '69', '69', '69', '69', '69', '60', '69', '75', '71', '75', '75', '76', '75', '77', '77', '72', '65', '72', '77', '65', '72', '72', '69', '66', '77', '77', '81', '84', '77', '67', '77', '67', '77', '67', '77', '67', '72', '72', '81', '72', '72', '75', '75', '72', '68', '72', '72', '75', '80', '77', '72', '82', '72', '72', '72', '72', '72'], '78 79': ['79', '79', '79', '79', '79', '78', '78', '78', '78', '78', '78', '78', '75'], '76 74': ['74', '72', '77', '77', '72', '77', '77', '72', '77', '77', '74', '74', '86', '65', '77', '77', '77', '74', '72', '74', '72', '74', '74', '72', '70', '70', '70', '70', '70', '76', '76', '76', '74', '74', '72', '64', '64', '70'], '72 66': ['72', '66', '66', '67', '65', '72', '72', '66', '75', '75', '75', '77', '75', '75', '77', '75', '69', '72', '76', '72', '76', '69', '76', '74', '72', '76', '76', '72', '67', '67', '72', '72'], '66 65': ['71', '65', '66', '67', '68', '78', '66', '68', '66', '66', '66', '66', '65'], '65 64': ['72', '67', '67', '53', '64', '64', '64', '64', '64', '68', '65', '65'], '64 72': ['79', '79', '79', '72', '73', '76', '67', '72', '69', '72', '69', '72', '69', '72', '69', '72', '60', '60', '60', '72'], '67 77': ['67', '67', '71', '75', '77', '72', '72', '67', '67', '67', '67', '67', '77', '67'], '88 88': ['79', '76', '76', '79', '79', '76', '79', '84', '79', '83', '83', '90'], '83 91': ['91'], '79 83': ['89', '71', '71', '71', '74', '71', '71', '71', '71', '71', '71', '74'], '89 86': ['86'], '83 83': ['79', '86', '74', '77', '77', '74', '79', '79', '71', '79', '79', '76', '80'], '79 77': ['77', '77', '79', '82', '76', '79', '75', '77', '77', '77', '77', '77', '77', '77', '77', '77', '77', '77', '77', '77', '77', '77', '77', '77', '77', '69', '79', '79', '79', '82', '79', '82', '83', '77', '77', '83', '77', '78', '78', '80', '73', '82', '78', '73', '72', '72', '77', '70', '79', '79', '79', '79', '70'], '71 76': ['72', '65', '65', '65', '65', '68', '68', '65', '76', '67', '76', '67', '65', '74'], '72 69': ['69', '72', '65', '69', '72', '77', '72', '65', '69', '72', '77', '72', '65', '69', '72', '77', '67', '81', '74', '64', '74', '64', '74', '65', '72', '74', '65', '72', '74', '65', '72', '74', '65', '72', '69', '72', '67', '72', '81', '81', '72', '69', '69', '75', '75', '72', '75', '72', '72', '65', '75', '69', '69', '76', '70', '70', '69', '69', '69', '65', '76', '69', '69', '76', '70', '69', '65', '72', '70', '69', '75', '70', '69', '66', '77', '69', '69', '72', '72', '72', '72', '72', '66', '65', '66', '65', '78', '78', '64', '77', '72', '72', '77', '65'], '70 70': ['67', '74', '77', '65', '64', '82', '74', '67', '67', '68', '75', '70', '70', '70', '67', '67', '75', '67', '72', '73', '63', '73', '69', '69', '69', '69', '74', '67', '72', '74', '67', '72', '69', '74', '69', '70', '82', '79', '77', '64', '82', '82', '79', '74', '74', '79', '69', '74', '67', '74', '75', '69', '74', '67', '74', '74', '67', '67', '69', '62', '69', '69', '67', '69', '74', '67', '72', '82', '82', '82', '82', '82', '79', '79', '71', '69', '69', '69', '69', '70', '70', '64', '72', '74', '74', '67', '71', '69', '69', '69', '74', '74', '62', '74', '74', '82', '70', '72', '82', '62', '68', '67', '73', '73', '75', '82', '82', '68', '82', '71', '71', '76', '76', '67', '82', '76', '76', '74', '82', '82', '69', '74', '77', '67', '67', '74', '77', '74', '77', '74', '69', '69', '69', '69', '69', '72', '69', '69', '72', '72', '69', '72', '67', '74', '69', '74', '67', '74', '69', '74', '65', '69', '79', '72', '72', '67', '67', '74', '77', '74', '77', '74', '65', '74', '73', '73', '72', '73', '77', '75', '73', '67', '67'], '60 59': ['67', '55', '48', '48', '48', '48', '58', '60', '47', '47'], '86 79': ['83', '76', '76', '74', '79', '79', '82'], '71 74': ['72', '74', '77', '79', '65', '77', '74', '71', '71', '74', '70', '72', '72', '72', '72', '79', '74', '64', '71', '71', '71', '72', '71', '71', '71', '72', '72', '72', '67', '65'], '84 72': ['72', '84', '86', '79', '72', '79', '72', '77', '77', '79', '72', '79', '85', '72', '70', '82', '70', '82', '81', '74', '84', '84', '86', '88', '86', '86', '76', '72', '81', '79', '84', '72', '84', '87', '79', '75', '84', '80', '73', '73', '84', '76', '76', '84', '76', '84', '77', '84', '84', '84', '84', '79', '77', '72', '85', '81', '77', '72', '77', '76', '84', '76'], '77 84': ['84', '81', '81', '78', '81', '84', '72', '72', '72', '72', '72', '68', '84', '77', '82'], '72 84': ['84', '70', '70', '70', '72', '78', '78', '79', '78', '85', '70', '75', '75', '75', '75', '88', '76', '81', '74', '72', '72', '74', '74', '74', '72', '72', '81', '72', '75', '76', '76', '87', '85', '84', '85', '84', '82', '74', '82', '72', '77', '77', '84', '72', '72', '79', '76', '77', '86', '86', '66', '76', '72', '72', '76', '72', '72', '72', '76', '79', '72', '72', '72', '86', '79', '81', '73', '77', '84', '72', '72', '72', '76', '76'], '79 67': ['67', '75', '78', '74', '65', '75', '78', '74', '65', '77', '65', '66', '76', '76', '76', '76', '76', '76', '64', '71', '78', '77', '82', '82', '82', '80', '79', '80', '72', '72', '72', '72', '67', '70', '67', '70', '67', '70', '82', '82', '82', '82', '70', '67', '70', '67', '70', '78'], '74 66': ['72', '62', '72', '67', '72', '66'], '66 72': ['65', '66', '72', '66', '72', '66', '71', '61', '72', '76', '70', '72', '76', '69', '68', '68', '65', '77', '75', '65', '75', '65', '76', '76', '62', '74', '78'], '65 71': ['64', '74', '71', '76', '76', '76', '76', '74', '76', '76', '74', '71', '74', '76', '76', '76', '65', '65', '65', '65', '65', '74', '68', '68', '62'], '74 77': ['74', '70', '70', '77', '77', '70', '70', '77', '78', '77', '77', '70', '70', '65', '65', '65', '65', '62', '77', '86', '76', '62', '86', '65', '76', '72', '76', '77', '77', '81', '81', '77', '74', '74', '70', '74', '74', '75', '75', '68', '74', '74', '74', '68', '74', '77', '74', '70', '65', '70', '74', '77', '74', '70', '73', '74', '70', '81', '81', '70', '69', '82', '70', '81', '81', '79', '81', '81', '79', '74', '72', '73', '77', '82', '65', '65', '82', '65', '82', '70', '82', '70', '82', '70', '82', '70', '82', '65', '65', '82', '65', '77', '77', '77', '70'], '70 74': ['77', '62', '75', '74', '77', '62', '74', '74', '75', '74', '75', '79', '79', '74', '74', '77', '77', '65', '77', '77', '72', '74', '70', '82', '70', '77', '74', '74', '70', '82', '70', '77', '74', '74', '65', '65', '64', '82', '70', '77', '74', '70', '70', '70', '70', '69', '73', '72', '74', '70', '79', '82', '79', '79', '86', '72', '77', '75', '75', '65', '72', '74', '70', '79', '64', '70', '82', '84', '75', '81', '70', '65', '67', '65', '70', '62', '79', '62', '74', '62', '79', '62', '74', '65', '67', '65', '74', '74'], '74 70': ['68', '74', '69', '65', '74', '65', '62', '70', '64', '74', '70', '67', '65', '70', '72', '72', '72', '74', '72', '74', '72', '69', '70', '79', '79', '69', '74', '76', '76', '73', '73', '70', '70', '74', '74', '70', '70', '82', '79', '79', '80', '72', '72', '72', '72', '67', '79', '72', '74', '70', '74', '82', '72', '79', '86', '70', '72', '82', '76', '76', '74', '74', '70', '74', '70', '65', '65', '74', '65', '65', '70', '65', '65', '74', '65', '65', '70', '70', '74', '70', '74', '77', '53'], '77 68': ['74', '68', '67', '77', '67', '67', '77', '77', '77', '77', '77', '77', '65', '62', '75', '73', '68', '72', '68', '68', '73', '68', '77', '68', '77', '77', '70', '68', '77', '68', '77', '68', '68', '77', '77'], '70 77': ['74', '74', '79', '79', '74', '70', '74', '74', '74', '74', '70', '74', '82', '82', '82', '82', '82', '70', '67', '70', '70', '70', '82', '82', '77', '77', '70', '82', '70'], '68 70': ['68', '69', '78', '68', '69', '78', '70', '73', '70', '77', '77', '77', '77', '71', '77', '63', '70', '62'], '70 75': ['67', '69', '69', '67', '67', '70', '75', '75', '75', '82', '81', '81', '79', '81', '84', '79', '82', '79', '82', '79', '82', '79', '82', '72', '63', '80', '70', '74'], '67 70': ['75', '70', '67', '70', '68', '68', '67', '70', '67', '67', '79', '67', '67', '79', '61', '60', '70', '65', '66', '70', '70', '67', '79', '67', '79', '79', '67', '79', '67', '67', '67', '67', '67', '73', '70', '67', '75', '75', '75', '67', '67', '67', '67', '67', '67', '74', '65', '72', '72', '75', '70', '70', '67', '77', '76', '70', '70', '73', '76', '75', '70', '72', '75', '75', '70', '72', '75', '70'], '70 66': ['72', '65', '65'], '72 70': ['65', '62', '82', '74', '70', '68', '72', '68', '73', '72', '68', '68', '82', '74', '65', '74', '65', '74', '74', '70', '64', '74', '74', '70', '70', '70', '74', '72', '72', '72', '67', '67', '74', '74', '77', '84', '77', '70', '70', '64', '75', '70', '70', '69', '69', '76', '72', '72', '72', '72', '72', '72', '72', '75', '70', '84', '75', '70', '75', '80', '63'], '65 77': ['69', '65', '70', '77', '69', '81', '77', '74', '74', '77', '65', '70', '70', '65', '73', '69', '69', '70', '70', '65', '74', '74', '74', '78', '77', '65', '77', '79', '65', '65', '77', '65', '65', '65', '65', '65', '65', '65', '75', '65', '65', '65', '77', '72', '65', '65', '79', '65', '77', '65', '72', '77', '65'], '72 65': ['69', '77', '77', '74', '72', '68', '68', '72', '72', '72', '72', '65', '65', '79', '65', '77', '67', '69', '69', '63', '69', '69', '70', '69', '68', '74', '74', '62', '72', '72', '67', '62', '72', '72', '68'], '77 75': ['77', '75', '84', '63', '63', '63', '87', '87', '71', '72', '71', '71', '82', '72', '75', '77', '69', '77', '77', '69', '77', '77', '77', '77', '77', '74', '80', '68', '66', '72', '72', '76', '69', '77', '69', '77', '77', '72', '77', '65', '65', '75', '65', '68', '77', '75'], '65 69': ['75', '77', '72', '69', '65', '70', '72', '69', '72', '69', '72', '72', '69', '72', '72', '69', '75', '65', '69', '69', '65', '64', '66', '74', '74', '77', '72', '72', '81', '69', '65', '72'], '63 75': ['63', '63', '69', '64', '69', '64', '69', '64', '65', '67', '67', '67', '67', '68', '63', '68', '68', '63', '75', '63', '63', '63', '63', '67', '75', '68', '63', '75', '63', '75', '63'], '63 63': ['69', '75', '69', '51', '57', '51', '58', '58', '58', '58', '58', '58', '58', '55', '67', '73', '49', '53', '53', '51', '51', '51', '51', '58', '58', '58', '57', '57', '58', '58', '57', '58', '58', '57', '64', '54', '62', '67', '57', '57', '57', '57', '57', '60', '60', '62', '60', '60', '62', '57', '57', '57', '57', '58', '60', '58', '58', '60', '60', '58', '58', '58', '60', '58', '60', '58', '58', '58', '58', '58', '58', '58', '58', '60', '70', '67', '58', '57', '53', '58', '55', '51', '53', '53', '51', '53', '53', '60', '60', '51', '51', '72', '72', '62', '65', '72', '72', '62', '65', '57', '60', '60', '60', '58', '57', '57', '58', '61', '58', '57', '57', '57', '57', '57', '57', '57', '57', '57', '63', '62', '75', '68', '68', '75', '68', '54', '39', '60'], '75 62': ['70', '70', '68'], '62 74': ['74', '75', '62', '74', '64', '76', '62', '76', '76', '82', '70', '63', '67', '67', '67', '67', '65', '70', '70', '70', '70'], '80 75': ['79', '79', '79', '75', '75', '72', '72', '80', '68', '81', '71', '75', '80', '87', '80', '68', '77', '75', '80', '68', '68', '70', '75', '70'], '75 79': ['70', '75', '72', '70', '75', '82', '82', '75', '82', '82', '75', '79', '79', '87', '87', '75', '67', '67', '75', '67', '67', '82', '82', '82', '76', '76', '75', '75', '67', '67', '67', '67', '67', '67', '67', '87', '87', '78', '72', '78', '84', '84', '87', '70', '82', '70', '79', '79', '67', '79', '67', '67', '75', '67', '75', '67', '67', '75', '67', '75', '67', '67'], '82 82': ['70', '70', '70', '70', '70', '74', '70', '79', '74', '76', '76', '84', '84', '77', '77', '76', '86', '79', '79', '81', '82', '77', '70', '70', '81', '79', '79', '79', '79', '79', '74', '74', '79', '84', '80', '79', '70', '70', '70', '84', '79', '70', '70', '70', '86', '79', '70', '73', '70', '72', '85', '75', '75', '73', '80', '78', '73', '78', '73', '76', '70', '74', '79', '76', '74', '81', '73', '75', '75', '77', '70', '81', '74', '74', '74', '74', '75', '70', '80', '80'], '70 65': ['74', '70', '70', '70', '74', '74', '65', '65', '65', '74', '65', '74', '65', '65', '64', '69', '67', '65', '69', '72', '67', '65', '74', '72', '72', '73', '65', '65', '70', '70', '74', '74', '70', '74', '74', '74', '74', '70', '74', '74', '73', '70', '70', '70', '70', '73', '68'], '77 65': ['74', '65', '74', '70', '77', '75', '77', '74', '65', '65', '75', '77', '74', '78', '65', '74', '72', '69', '74', '70', '77', '67', '72', '74', '70', '82', '74', '65', '74', '74', '78', '65', '63', '77', '75', '63', '66', '65', '68', '65', '69', '69', '74', '74', '65', '65', '65', '65', '74', '74', '86', '72', '65', '65', '73', '65', '77', '72', '65', '77', '65', '72'], '70 58': ['70', '70', '63'], '58 70': ['72', '67', '63', '67', '67', '67', '67'], '60 60': ['72', '63', '64', '64', '51', '56', '48', '48', '48', '48', '48', '64', '65', '54', '63', '63', '58', '51', '56', '51', '55', '56', '51', '48', '51', '56', '56', '56', '66', '56', '56', '56', '62', '62', '48', '48', '57', '48', '64', '57', '57', '58', '58', '57', '55', '55', '55', '55', '56', '52', '55', '55', '55', '57', '64', '57', '48', '65', '54', '54', '55', '55', '55', '53', '57', '58', '58', '57', '62', '57', '58', '57', '58', '58', '58', '58', '57', '57', '64', '57', '58', '58', '58', '58', '57', '63', '63', '64', '72', '48', '64', '48', '48', '63', '48', '48', '55', '58', '64', '65', '57', '63', '58', '58', '57', '41', '41', '56', '56', '56', '56', '56', '56', '56', '50', '56', '56', '56', '56', '56', '56', '56', '56', '56', '59', '54', '54', '54', '54', '54', '54', '58', '53', '64', '48', '64', '48', '48', '64', '48', '57', '48', '64', '63', '63', '63', '63', '62', '62', '57', '48', '48', '53', '53', '58', '61', '58', '73', '56', '56', '51', '56', '39', '39', '56', '61'], '61 73': ['61', '67'], '73 74': ['62', '74', '74', '74', '73', '73', '73', '73', '74', '74', '74'], '74 62': ['70', '74', '74', '74', '63', '67', '67', '63', '62', '63', '72', '66'], '70 72': ['63', '72', '67', '72', '67', '72', '67', '65', '72', '65', '72', '67', '65', '72', '67', '72', '65', '72', '70', '72', '65', '68', '67', '73', '67', '72', '70', '72', '72', '74', '74', '74', '70', '70', '70', '70', '79', '79', '64', '77', '64', '72', '70', '70', '70', '76', '76', '70', '70', '70', '70', '67', '67', '75', '70', '63', '63'], '58 58': ['62', '46', '46', '46', '46', '60', '60', '61', '60', '60', '46', '55', '63', '62', '46', '55', '46', '62', '62', '53', '46', '53', '66', '46', '46', '64', '62', '46', '62', '46', '46', '46', '55', '62', '62', '60', '46', '62', '55', '52', '55', '52', '67', '67', '46', '53', '46', '53', '46', '62', '46', '46', '53', '53', '55', '58', '62', '62', '46', '55', '63', '61', '61', '46', '61', '61', '46', '46', '46', '46', '46', '74', '74', '59', '50', '53', '57', '53', '60', '53', '59', '53', '53', '53', '58', '51', '46', '62', '55'], '64 70': ['70', '76', '79', '76', '79', '76', '79', '67', '72', '72', '72', '72', '72', '72', '64', '72', '72', '72', '72', '64', '74', '70', '72', '68', '67', '67', '65', '67', '70'], '67 64': ['67', '70', '72', '70', '67', '58', '58', '66', '64', '67', '66', '67', '64', '67', '63', '72', '67', '64', '67', '63', '72', '72', '72', '76', '76', '79', '64', '64', '67', '72', '72', '76', '76', '79', '67', '64', '58', '72', '64', '72', '67', '67'], '64 65': ['65', '53', '65', '74', '77', '73', '73', '73', '65', '65', '65', '60', '63'], '65 70': ['65', '65', '74', '74', '65', '65', '77', '77', '77', '70', '77', '70', '69', '61', '77', '65', '74', '77', '65', '65', '65', '74', '65', '65', '74', '65', '74', '74', '65', '67', '74', '70', '67', '65', '73', '69', '69', '62', '62', '65', '62', '62', '70', '70', '73', '70', '68'], '62 75': ['63'], '75 63': ['76', '69', '76', '69', '76', '69', '76', '65', '67', '64', '67', '67', '63', '75', '78', '67', '68', '63', '68', '75', '68', '63', '75', '72', '75', '72', '63'], '64 64': ['76', '60', '60', '60', '60', '60', '60', '67', '60', '58', '65', '52', '65', '74', '74', '74', '74', '73', '60', '60', '60', '60', '60', '60', '60', '60', '72', '67', '55', '55', '60', '60', '60', '60', '60', '60', '60', '60', '55', '55', '62', '62', '67', '69', '67', '69', '65', '65', '67', '69', '67', '69', '60', '60', '60', '60', '61', '60', '60', '60', '60', '60', '60', '60', '60', '60', '55', '60', '60', '60', '60', '61', '60', '67', '67', '64', '64', '69', '65', '66', '61', '69', '65', '66', '61', '69', '70', '60', '60', '60', '60', '60', '55', '60', '60', '55', '60', '60', '55', '60', '60', '55', '60', '55', '60', '60', '60', '60', '72', '72', '67', '60', '60', '60', '60', '60', '70'], '77 70': ['74', '65', '75', '78', '82', '82', '70', '70', '77', '65', '74', '70', '79', '65', '78', '82', '82', '82', '82', '79', '72', '74', '74', '74', '77', '77', '65', '69', '69', '70', '84', '74', '74', '74', '82', '82', '77', '80', '70', '70'], '69 63': ['63', '62', '69', '69', '69'], '75 69': ['62', '66', '66', '81', '81', '73', '75', '75', '77', '81', '77', '77', '79', '78', '81', '81', '81', '74', '74', '79', '77', '70', '69', '79', '77', '70', '69', '74', '74', '77'], '62 70': ['74', '58', '70', '67', '70', '71', '62', '62'], '82 70': ['82', '82', '82', '82', '79', '79', '79', '79', '79', '79', '70', '72', '70', '73', '77', '78', '77', '80', '84', '78', '79', '75', '75', '72', '77', '82', '79', '79', '75', '82', '53', '82', '70', '82', '70', '70', '70', '82', '70', '70', '79', '73', '73', '83', '73', '74', '70', '72', '77', '75', '81', '82', '70', '77', '79', '79', '72', '79', '72', '68', '72', '79', '75', '70', '75', '70', '75', '78', '75', '70', '75', '70', '75', '75', '74', '75', '76'], '70 79': ['75', '79', '74', '79', '79', '74', '67', '74', '67', '67', '74', '67', '74', '70', '82', '69', '82', '69', '70', '82', '82', '79', '74', '67', '82', '67', '67', '70', '70', '82', '82', '82'], '79 75': ['72', '79', '79', '79', '75', '75', '75', '79', '75', '75', '82', '82', '67', '69', '67', '69', '75', '69', '69', '69', '69', '79', '79', '70', '79', '79', '79', '70', '79', '72', '79', '79', '69', '79', '74', '79', '72', '74', '87', '87', '70', '79', '87', '72', '82', '70', '75', '87', '69', '69', '75', '79', '87', '82'], '70 82': ['70', '79', '65', '76', '67', '76', '67', '76', '67', '68', '68', '68', '68', '78', '77', '78', '77', '77', '70', '74', '74', '79', '75', '79', '75', '82', '82', '74', '82', '82', '70', '82', '71', '71', '86', '74', '75', '79', '69', '82', '82', '68', '77', '77', '70', '70', '77', '84', '72', '79', '82', '70', '70', '71', '70', '75', '74', '70', '70', '70', '70', '82', '70', '73'], '82 75': ['79', '75', '75', '79', '79', '79', '70', '71', '79', '75', '75', '87', '75', '75', '70', '82', '75', '70', '72', '70', '70', '78'], '70 69': ['69', '75', '72', '69', '67', '70', '72', '70', '72', '69', '82', '69', '82', '70', '70', '70', '69', '65', '69', '69', '67', '69', '67', '77', '75', '73', '81', '70', '70', '70', '70', '70', '70', '70', '70', '66', '69'], '75 72': ['72', '84', '75', '72', '71', '72', '77', '77', '68', '72', '77', '71', '75', '73', '72', '75', '75', '75', '77', '77', '75', '80', '80', '65', '75', '75', '84', '66', '69', '75', '69', '72', '74', '75', '79', '67', '75', '84', '82', '84', '79', '75', '66', '72', '74', '79', '78', '72', '84', '84', '84', '75', '72', '79', '84', '66', '72', '66', '66', '66', '68', '78', '66', '78', '70', '78', '75', '66', '78', '78', '72', '72', '72', '72', '70', '72', '72', '72', '74', '68', '75', '77', '77', '65', '72', '75', '72', '72', '72', '75', '66', '72', '68', '70', '72', '75', '75', '68', '77'], '70 62': ['74', '74', '65', '70', '70', '72', '71', '61', '71', '61', '70', '70', '70', '70', '62', '62'], '64 76': ['64', '72', '72', '70', '70', '76', '72', '71', '76', '64', '75'], '69 75': ['63', '68', '81', '81', '81', '81', '81', '81', '73', '72', '69', '73', '75', '74', '74', '75', '74', '78', '75', '78', '70', '81', '81', '77', '81', '75', '75', '75', '74', '75', '77', '75', '77', '75', '75', '75', '74'], '63 69': ['75', '72', '72', '72', '72', '61', '74', '60', '72'], '77 80': ['80', '80', '82', '76', '82', '76', '75', '76', '76', '77', '76', '85', '71', '68', '80', '70', '85', '82', '68', '82', '68', '77', '77', '77', '81', '81', '89', '89', '89', '89', '84', '80', '73', '87', '68', '73', '70', '77', '73', '85', '73', '68', '73', '70', '75', '68', '77', '77', '80', '77'], '75 70': ['82', '70', '72', '75', '78', '75', '75', '75', '72', '79', '81', '79', '82', '70', '69', '82', '79', '82', '79', '82', '79', '79', '79', '79', '79', '78', '82', '79', '82', '79', '82', '79', '70', '72', '72', '72', '70', '72'], '74 69': ['69', '69', '69', '75', '65', '65', '72', '70', '70', '72', '70', '70', '70', '70', '70', '70'], '58 72': ['60'], '72 60': ['73', '62', '74', '74', '74', '74', '67', '63', '63', '69', '69', '69', '72', '69'], '61 61': ['73', '70', '58', '49', '55', '51', '61', '49', '56', '49', '58', '56', '49', '49', '49', '49', '49', '65', '49', '56', '58', '58', '49', '49', '49', '57', '49', '58', '55', '55', '55', '56', '55', '55', '55', '55', '56', '55', '63', '55', '60', '53', '56', '56', '56', '56', '64', '64', '64', '62', '64', '62', '57', '57', '67', '67', '64', '58', '58', '62', '60', '58', '70', '39', '51', '51', '65', '65', '49', '46', '60'], '63 72': ['60', '63', '69', '62', '67', '60', '68', '68', '68', '68', '72', '68', '68', '68', '68', '68', '68', '68', '68', '68', '68'], '60 63': ['72', '60', '55', '55', '55', '60', '53', '53', '53', '53', '53', '68', '57', '63', '55', '55', '55', '55', '55', '56', '56', '57', '54', '56', '54', '57', '65', '66', '69', '63', '63', '63', '60', '60', '56'], '58 62': ['70', '55', '53', '53', '46', '53', '58', '58', '38', '53', '58', '53', '53', '41', '53', '58', '53', '53', '48', '53', '48', '53', '48', '58', '65', '65', '55', '53', '53', '62', '62', '53', '53', '53', '53', '53', '46', '53', '53', '50', '53', '46', '53', '53', '53', '62', '65', '65', '62', '53', '53', '53', '53', '53', '53', '53', '55', '55', '55', '55', '55', '55', '53', '53', '53', '55', '55', '56', '56', '56', '56', '56', '56', '56', '56', '56', '55', '55', '53', '46', '62', '53', '50', '50', '53', '58', '53', '53', '62', '41', '62', '53', '67', '67', '41', '58', '62', '62', '62', '56', '56', '56', '62', '62', '55', '55', '62', '55', '55', '62', '62', '62', '62', '62', '62', '62', '62', '62', '62', '62', '55', '62', '62', '53', '62', '62', '62', '62', '62', '68', '68', '68', '46'], '69 65': ['69', '77', '77', '77', '72', '69', '72', '69', '72', '69', '72', '69', '74', '74', '65', '65', '64', '69', '64', '69', '64', '69', '72', '65', '65', '77', '69', '64', '69', '64', '77', '74', '65', '77', '65', '65', '70', '69', '65'], '70 64': ['74', '79', '79', '79', '67', '67', '67', '67', '64', '72', '72', '72', '73', '72', '72', '64'], '67 79': ['71', '75', '75', '79', '79', '79', '70', '70', '69', '70', '70', '70', '70', '69', '69', '65', '70', '70', '72', '72', '81', '79', '79', '79', '79', '79', '70', '78', '69', '70', '66', '65', '67', '67', '65', '67', '70', '71', '72', '67', '67', '79', '79', '79', '67', '79', '67'], '65 68': ['65', '65', '67', '75', '63', '68', '85', '71', '71', '71', '85', '72', '72', '73', '73', '65', '72', '68', '74', '62', '80', '68', '65', '64', '71', '71'], '68 67': ['67', '70', '67', '65', '63', '63', '63', '70', '73', '69', '69', '69', '65', '67'], '66 66': ['67', '67', '57', '66', '74', '66', '74', '58', '58', '60', '56', '56', '69', '69', '67', '69', '69', '69', '75', '75', '69', '66', '73', '77', '61', '61', '61', '61', '72', '69', '69', '74', '67', '66', '65', '78', '54', '42', '55', '60', '54'], '67 75': ['67', '80', '67', '79', '79', '79', '70', '75', '68', '77', '73', '70', '67', '79', '79', '75', '79', '75', '79', '79', '75', '79', '75', '79', '82', '63', '75', '75', '77', '73'], '75 82': ['79', '79', '75', '87', '79', '70', '79', '75', '81', '79', '84', '85', '85', '82', '70', '82', '70', '82', '75', '75'], '82 79': ['75', '67', '79', '73', '79', '75', '71', '82', '86', '75', '82', '82', '86', '75', '82', '84', '84', '79', '79', '79', '79', '79', '70', '70', '82', '70', '82', '70', '77', '82', '84', '84', '70', '75', '79', '70', '81', '84', '82', '69', '70', '79', '82', '72', '82'], '67 68': ['65', '65', '67', '69', '69', '60', '69', '69', '69', '68', '73'], '68 65': ['67', '67', '63', '75', '71', '67', '66', '71', '73', '75', '72', '72', '73', '73', '72', '64', '71'], '67 66': ['66', '66', '67', '67', '67', '69', '67', '69', '66', '66', '69', '75', '75', '72', '72', '72', '72', '72', '65', '79', '62', '65', '79', '66', '66'], '75 67': ['82', '82', '75', '75', '79', '75', '79', '75', '75', '66', '70', '66', '70', '82', '75', '67', '63', '63', '73', '79', '67', '69', '79', '67', '69', '79', '67', '69', '79', '67', '69', '79', '67', '69', '79', '67', '69', '63', '75', '75', '77'], '84 79': ['75', '75', '79', '82', '82', '76', '79', '84', '72', '72', '72', '75', '72', '75', '72', '76', '72', '72', '79', '79', '79', '84', '84', '76'], '75 84': ['79', '79', '74', '79', '72', '72', '79', '79', '72', '84', '84', '84', '84', '84', '81', '81', '84', '84', '75', '75'], '79 73': ['82', '79', '67', '79', '67', '73', '73', '73', '73', '85'], '74 80': ['74', '86', '86', '86', '86', '86', '80', '83'], '80 74': ['79', '80', '77', '77', '77', '77', '84'], '78 67': ['75'], '67 80': ['68'], '80 68': ['70', '75', '72', '78', '82', '77', '82', '82', '72', '71', '80', '75', '68', '75', '68', '68', '68', '77', '84', '80', '80', '80', '68', '80', '68', '80', '68', '80', '68', '75', '68', '80', '72', '80', '72', '80', '68', '80', '80', '68', '68', '80', '72', '80', '72', '77', '68'], '84 86': ['74', '84', '74', '74', '77', '74', '81'], '86 74': ['87', '86', '77', '84', '72', '77', '88', '72', '88', '84', '76', '72', '72', '78', '78', '78', '74', '79', '75', '82', '75', '81', '81', '86', '86', '79'], '74 87': ['75', '86'], '87 75': ['76', '87', '87', '58', '82', '79', '87', '87', '73', '87', '73', '87', '87', '79', '75'], '77 89': ['77', '75', '75', '75', '75', '86', '68', '68', '92', '92', '87'], '89 77': ['77', '77', '86', '86', '89', '62', '79', '68', '87', '89', '89', '89', '89'], '75 74': ['82', '66', '66', '66', '66', '70', '70', '75', '68', '74', '74', '74', '74', '65', '75', '75', '75', '75', '75', '75', '75', '75', '75', '69', '69', '75'], '74 82': ['68', '79', '79', '67', '67', '80', '82', '82', '70', '81', '70', '70', '81', '82', '67', '67', '81', '82', '82', '82', '86', '77', '77'], '66 67': ['67', '67', '78', '78', '67', '70', '66', '75', '75', '67', '65', '67', '67', '74', '66'], '79 82': ['75', '79', '75', '75', '77', '82', '67', '67', '79', '79', '79', '70', '82', '78', '70', '82', '78', '75', '91', '70', '70', '91', '82', '81', '91', '78', '82', '70', '81', '75', '70', '82', '82', '70', '72', '72', '75', '75', '82', '82', '84'], '82 71': ['79', '80'], '71 79': ['71', '71', '71', '77', '77', '81', '79', '76'], '79 71': ['80', '79', '71', '77', '77', '71', '79', '79', '67'], '79 80': ['79', '79', '80', '68', '81', '81', '80'], '80 79': ['79', '79', '79', '82', '80', '80', '81', '76', '80'], '79 78': ['75', '67', '67', '79', '76', '76', '76', '76', '74', '76', '74', '76', '84', '84'], '78 70': ['75', '70', '69', '82', '82', '82', '84', '80', '70', '70'], '68 74': ['67', '68', '68', '68', '77', '74', '62'], '73 80': ['74', '77', '80', '80', '77', '85'], '70 84': ['72', '78', '80', '79', '82'], '75 87': ['75', '55', '78', '78', '78', '78', '74', '79', '79', '87', '87', '75', '77', '77', '80', '87', '87'], '87 74': ['86', '86', '86'], '74 86': ['87', '76', '76', '82', '82', '77', '75', '88', '84', '77', '77', '76', '72', '75', '74', '74', '79', '79', '79', '76', '86', '79'], '88 76': ['88', '81', '81', '84', '84', '86', '88', '88', '84', '84', '72', '85'], '76 89': ['77'], '70 68': ['70', '72', '68', '67', '73', '62', '64', '71', '70', '70', '65', '70'], '80 84': ['84', '77', '87'], '78 75': ['70', '70', '69', '68', '68', '66', '66', '78', '78', '80', '66'], '74 68': ['77', '77', '84', '74', '74', '74', '74', '77', '77'], '87 87': ['79', '79', '79', '79', '79', '85', '85', '79', '75', '75', '85', '80', '78', '73', '75', '73', '78'], '43 43': ['55', '55', '55', '55', '50', '55', '55', '55', '55', '55', '55', '55', '55', '55', '55', '62', '55', '55', '55', '55', '55', '65', '55', '55', '65', '55', '55', '31', '55', '53', '55', '53', '59', '55', '53', '55', '53', '59', '64', '55', '52', '55', '55', '53', '55', '53', '59', '58', '55', '60', '59', '60', '60', '59', '55', '55', '55', '55', '55', '55', '55', '55', '36', '55', '55', '55', '55', '55', '36', '55', '63', '63', '55', '55', '55', '55', '55', '55', '55', '55', '55', '55', '50', '55', '55', '50', '55', '55', '55', '55', '55', '55', '55', '55', '55', '55', '55', '55', '55', '55', '55', '55', '55', '55', '55', '55', '55', '55', '55', '55', '55', '55', '55', '55', '55', '55', '55', '55', '55', '55', '55', '55', '55', '55', '55', '55', '55', '55', '55', '55'], '43 55': ['55', '60', '55', '55', '49', '55', '55', '55', '59', '64', '55', '55', '55', '55', '46', '64', '48', '60', '48', '48', '48', '55', '55', '54', '55', '60', '48', '48', '55', '41', '41', '44', '53', '56', '56', '43', '56', '56', '45', '55', '60', '55', '60', '55', '43', '43', '55', '43', '60', '55', '44', '44', '55', '55', '51', '57', '51', '57', '56', '31', '31', '31', '43', '31', '31', '55', '31', '31', '31', '43', '31', '31', '31', '43', '48', '31', '31', '43', '31', '31', '43', '55', '55', '56', '56', '55', '55', '55', '43', '43', '43', '54', '43', '48', '50', '50', '43', '54', '43', '43', '55', '64', '55', '55', '64', '55', '43', '43', '43', '43', '43', '43', '43', '43', '43', '43', '43', '43', '43', '43', '43', '43', '43', '43', '43', '43', '43', '43', '43', '43', '43', '43', '43', '43', '43', '44', '55', '44', '55', '43', '43'], '57 43': ['45', '45', '45', '45', '45', '45'], '45 57': ['59', '60', '43', '46', '43', '60', '57', '43', '45', '57', '57', '46', '45', '45', '45', '63', '63', '45', '45', '57', '57', '46', '59', '57', '47', '59', '57', '59', '57', '41', '46', '58', '54', '56', '44', '44', '44', '57', '57', '44', '44', '44', '57', '58', '56', '56', '52', '52', '53', '57', '53', '41', '41', '53', '45', '45', '45', '45', '45', '45', '45', '45', '45', '45', '45', '45', '45', '45', '55', '45', '45', '45', '45', '57', '57', '58', '57', '57', '57', '57', '46', '45'], '47 47': ['59', '59', '59', '59', '59', '59', '59', '59', '59', '59', '35', '59', '59', '59', '59', '59', '35', '59'], '59 47': ['47', '58', '58', '59', '47', '47', '47', '58', '58', '58', '59', '48', '60', '58', '58', '57', '41', '59', '59', '48'], '65 59': ['53', '65', '65', '65', '65', '65', '60', '65', '65', '65', '65', '55', '65', '65', '65', '65', '65', '65', '65', '65', '65', '65', '65', '65', '65', '65', '65', '65', '65', '65', '65', '65', '65', '65', '65', '65', '55', '55', '55', '55', '55', '55'], '53 65': ['64', '56', '56', '53', '65', '61', '52', '60', '53', '57', '58', '58', '58', '58', '58', '53'], '52 52': ['64', '64', '52', '40', '40', '64', '64', '40', '55', '57', '56', '55', '55', '55', '40', '51', '55', '59', '55', '55', '55', '40', '40', '40', '40', '40', '40', '56', '40', '40', '64', '64', '48', '64', '64', '64', '64', '40'], '62 50': ['50', '50', '50', '50', '50', '50', '50', '50', '50', '50', '61', '61', '50', '50', '50', '50', '50', '50', '50', '50', '50', '50', '50', '50', '55', '60', '55', '55', '55', '60'], '55 62': ['43', '59', '59', '59', '59', '58', '43', '58', '58', '52', '59', '59'], '48 48': ['60', '60', '39', '55', '60', '60', '60', '60', '55', '60', '60', '55', '60', '55', '60', '64', '57', '64', '60', '60', '55', '60', '60', '58', '60', '57', '58', '60', '58', '58', '60', '52', '52', '52', '52', '55', '58', '60', '55', '55', '52', '52', '65', '52', '52', '53', '53', '53', '55', '60', '55', '55', '60', '55', '53', '53', '53', '60', '60', '60', '60', '60', '36', '57', '58', '57', '58', '58', '57', '57', '58', '58', '36', '60', '63', '60', '36', '36', '36', '36', '60', '60', '60', '60', '60', '60', '60', '60', '60', '55', '60', '60', '55', '55', '55', '55', '57', '58', '46', '53', '46', '55', '60', '60', '60', '60', '60', '60', '60', '60', '60', '60', '60', '60', '60', '60', '60', '60', '60', '60', '49', '36', '60', '36', '61', '60'], '55 60': ['64', '64', '60', '64', '64', '64', '60', '60', '64', '64', '60', '55', '64', '64', '64', '64', '64', '64', '64', '63', '63', '55', '43', '55', '55', '59', '64', '59', '64', '64', '55', '64', '60', '64', '64', '59', '64', '64', '64', '52', '43', '52', '48', '52', '48', '41', '64', '64', '63', '63', '63', '63', '64', '64', '64', '64', '64', '64', '64', '60', '60', '64', '60', '64', '64', '64', '64', '64', '64', '64', '64', '64', '64', '43', '55', '64', '64', '64', '64', '64', '64', '64', '60', '60', '64', '60', '64', '60', '64', '64', '64', '64', '64', '64', '60', '64', '43', '64', '64', '60', '64', '64', '60', '55', '64', '60', '55', '49', '57', '48', '52', '64', '48', '58', '48', '48', '57', '48', '64', '64', '51', '50', '48'], '60 64': ['55', '55', '50', '55', '55', '55', '62', '55', '55', '55', '55', '55', '64', '58', '43', '58', '58', '58', '58', '58', '58', '64', '60', '60', '58', '58', '58', '58', '55', '55', '55', '48', '55', '55', '55', '55', '58', '55', '48', '55', '55', '55', '55', '55', '55', '55', '55', '55', '55', '55', '55', '55', '55', '55', '55', '55', '55', '55', '55', '55', '55', '55', '64', '43', '55', '55', '55', '55', '55', '55', '55', '55', '55', '36', '55', '55', '55', '55', '55', '55', '55', '48', '55', '55', '55', '48', '58', '64', '64', '58', '55', '55', '57', '60', '55', '55', '57', '60', '60', '60', '60', '67', '64', '55', '64', '64', '64', '64', '55', '64', '64', '64', '64', '64', '64', '64'], '64 52': ['52', '52', '64', '53', '52', '63', '55', '60', '60', '52', '51', '62', '51'], '51 64': ['63', '63', '63'], '63 51': ['62', '62', '51', '53', '58', '54', '55', '63', '64', '51', '64', '51', '63', '63', '56', '51', '51', '51', '51', '39', '62', '63', '63', '63'], '50 50': ['62', '62', '62', '55', '62', '62', '54', '62', '62', '62', '62', '55', '55', '62', '62', '62', '38', '53', '62', '62', '38', '53', '53', '53', '53', '62', '62', '54', '54', '55', '38', '57', '60', '54', '55', '65', '53', '55', '48', '55', '55', '55', '48', '55', '54', '55', '56', '49', '55', '50', '54', '62', '62', '62', '38', '38', '54', '38', '54', '48', '62', '62', '62', '62', '62', '38', '62', '62', '62', '62', '62', '62', '38', '38', '62', '38', '62', '53', '38', '43', '51', '58', '56'], '55 59': ['65', '65', '65', '65', '65', '65', '65', '65', '65', '65', '55', '65', '55', '59', '62', '55', '53', '50', '47', '65', '65', '65', '65', '65', '65', '65', '65', '65', '65', '65', '65', '55', '50', '50', '50', '50', '50', '50', '50', '50', '65', '65', '65', '65', '65', '65', '65', '65', '65', '60', '55', '55', '50', '61', '60', '61', '60', '59', '55', '64', '60', '60'], '59 65': ['55', '55', '55', '55', '55', '55', '55', '55', '55', '55', '55', '58', '58', '55', '60', '55', '60', '55', '55', '55', '55', '55', '55', '55', '55', '55', '55', '55', '55', '65', '59', '55', '55', '55', '55', '55', '55', '55', '55', '55', '65', '65', '65', '65', '65', '65', '65', '65', '65', '65'], '55 43': ['43', '43', '43', '43', '43', '43', '43', '43', '43', '48', '43', '53', '43', '43', '53', '59', '43', '59', '43', '59', '58', '60', '48', '58', '60', '43', '58', '62', '48', '58', '60', '62', '55', '43', '56', '44', '53', '43', '57', '53', '57', '43', '43', '60', '48', '43', '43', '59', '58', '58', '58', '58', '43', '43', '59', '43', '52', '59', '59', '43', '60', '60', '60', '52', '59', '59', '58', '43', '43', '59', '43', '52', '59', '59', '43', '54', '56', '56', '56', '56', '43', '43', '43', '60', '43', '54', '60', '43', '60', '43', '54', '60', '43', '60', '59', '43', '43', '43', '62', '43', '43', '62', '43', '55', '55', '48', '55', '55', '55', '54', '55', '55', '55', '53', '48', '55', '55', '58', '55', '58', '55', '55', '55', '39', '39', '39', '39', '39', '39', '39', '39', '55', '55', '55', '55', '55', '55', '54', '55', '54', '55', '56', '54', '56', '42', '55', '56', '44', '55'], '55 55': ['59', '59', '43', '59', '60', '65', '43', '60', '43', '59', '43', '59', '43', '60', '43', '65', '50', '65', '43', '43', '60', '43', '59', '43', '43', '59', '43', '61', '63', '61', '51', '61', '58', '58', '58', '58', '58', '58', '58', '43', '43', '60', '59', '43', '59', '60', '59', '43', '59', '59', '60', '60', '60', '59', '60', '60', '64', '60', '59', '43', '59', '48', '58', '43', '43', '43', '49', '49', '63', '60', '43', '63', '60', '43', '49', '49', '60', '60', '60', '58', '58', '64', '58', '58', '60', '59', '59', '59', '59', '60', '60', '60', '63', '63', '48', '55', '60', '57', '43', '59', '58', '58', '63', '43', '51', '56', '56', '43', '43', '60', '60', '43', '60', '43', '58', '58', '64', '43', '59', '59', '64', '43', '59', '59', '64', '43', '60', '59', '60', '43', '59', '55', '43', '43', '59', '59', '60', '59', '64', '43', '59', '59', '56', '43', '43', '58', '58', '58', '58', '48', '48', '53', '43', '60', '58', '51'], '60 55': ['48', '64', '64', '48', '55', '62', '48', '55', '55', '57', '55', '55', '48', '63', '53', '53', '58', '58', '60', '58', '55', '60', '58', '55', '46', '64', '60', '58', '55', '60', '58', '55', '46', '64', '64', '64', '48', '64', '52', '50', '64', '43', '43', '48', '55', '55', '55', '60', '60', '58', '55', '60', '58', '55', '46', '64', '64', '64', '60', '52', '63', '57', '52', '52', '60', '48', '55', '51', '48', '55', '51', '48', '52', '48', '48', '52', '53', '53', '52', '53', '53', '48', '52', '52', '48', '48', '48', '45', '64', '50', '48', '52', '48', '48', '52', '53', '53', '52', '53', '53', '63', '60', '48', '57', '48', '64', '58', '43', '58', '43', '58', '43', '58', '43', '48', '58', '64', '48', '60', '48', '58', '64', '48', '60', '55', '64', '60', '64', '64', '64', '64', '64', '55', '64', '55', '64', '63', '63'], '48 60': ['55', '55', '55', '55', '55', '55', '60', '60', '60', '51', '46', '48', '60', '48', '48', '48', '60', '60', '60', '60', '58', '57', '58', '60', '59', '36', '59', '48', '55', '59', '36', '59', '53', '61', '53', '60', '55', '60', '55', '60', '55', '48', '36', '48', '48', '60', '47', '56', '47', '47', '56', '48', '48', '60', '60', '60', '45', '60', '45', '53', '41', '59', '59', '58', '58', '48', '61', '55', '55', '61', '55', '55', '48', '48', '53', '48', '48', '48', '53', '48', '48', '63', '48', '60', '60', '60', '48', '60', '60', '48', '60'], '64 60': ['64', '60', '60', '64', '64', '64', '64', '60', '64', '64', '64', '48', '58', '64', '60', '58', '58', '60', '64', '60', '58', '58', '58', '60', '64', '60', '53', '58', '64', '64', '64', '55', '64', '55', '55', '64', '55', '64', '43', '64', '55', '64', '64', '64', '64', '64', '64', '64', '64', '55', '57', '55', '55', '64', '64', '64', '64', '64', '64', '64', '64', '64', '64', '64', '64', '64', '64', '64', '64', '60', '55', '64', '64', '64', '64', '64', '64', '64', '64', '58', '48', '41', '64', '64', '64', '64', '55', '64', '64', '64', '64', '64', '64', '64', '64', '64', '64', '64', '55', '64', '64', '55', '64', '67', '67', '55', '55', '72', '60', '55', '60', '55', '55', '55', '55', '55', '58', '52', '55', '58', '58', '58', '52', '55', '58', '58', '58', '58'], '51 63': ['63', '63', '62', '51', '63', '51', '51', '63', '63', '62', '62', '62', '62', '49', '49', '49', '58', '55', '45', '45', '39', '63', '63', '62', '62', '62'], '62 51': ['50', '50', '63', '63', '50', '50'], '50 62': ['55', '55', '55', '55', '46', '61', '48', '48', '46', '62', '50', '53', '58', '47', '50', '58', '43', '43', '60', '55', '60', '55', '50', '50', '50', '50', '50', '50', '50'], '59 55': ['55', '60', '55', '65', '60', '55', '55', '55', '65', '62', '65', '60', '62', '43', '43', '65', '59', '59', '48', '59', '59', '48', '59', '50', '60', '55', '59', '48', '59', '55', '53', '59', '48', '43', '48', '43', '50', '43', '48', '50', '43', '43', '43', '43', '48', '43', '48', '43', '59', '62', '59', '59', '59', '59', '59', '59', '59', '59', '62', '43', '48', '48', '60', '55', '60', '55', '62', '65', '65', '65', '65', '65', '65', '62'], '56 56': ['59', '59', '55', '44', '58', '55', '60', '53', '61', '44', '60', '44', '60', '51', '51', '51', '51', '51', '51', '60', '51', '59', '51', '60', '53', '61', '51', '44', '50', '61', '44', '66', '50', '44', '60', '60', '66', '66', '44', '65', '61', '44', '61', '60', '44', '44', '44', '44', '44', '44', '44', '44', '63', '60', '60', '62', '51', '51', '61', '61', '55', '44', '44', '44', '44', '56', '51', '51', '60', '60', '51', '44', '56', '44', '51', '44', '51', '51', '59', '65', '41', '61', '39', '65', '44', '51', '51', '44', '65', '60'], '62 59': ['62', '62', '62', '65', '62', '56', '55', '55', '55', '55'], '36 45': ['45'], '39 36': ['48', '48'], '48 39': ['42'], '51 51': ['42', '55', '55', '55', '55', '55', '55', '39', '60', '39', '61', '39', '44', '39', '55', '55', '58', '61', '60', '39', '39', '39', '56', '39', '61', '44', '39', '63', '39', '60', '63', '63', '44', '56', '39', '63', '63', '55', '39', '39', '39', '39', '39', '54', '50', '57', '55', '63', '57', '55', '55', '55', '63', '55', '55', '52', '39', '39', '39', '57', '39', '39', '39', '54', '56', '56', '39', '56', '56', '55', '55', '39', '56', '39', '55', '55', '56', '39', '55', '55', '39', '56', '39', '55', '55', '56', '39', '56', '55', '56', '56', '39', '39', '39', '39', '39', '39', '39', '53', '39', '39', '39', '39', '39', '39', '39', '39', '39', '39', '39', '39', '32', '56', '61', '39', '60', '56', '56', '58', '39', '44', '51', '56', '61', '44', '60', '51', '39', '56', '39', '39', '32', '56', '39', '39', '46', '39', '51'], '45 54': ['54', '57', '57'], '48 45': ['57', '45'], '57 48': ['51', '65', '60', '63', '63', '60', '60', '60', '60', '64', '48', '60'], '54 63': ['63', '42', '41', '42', '41'], '57 54': ['66', '59', '59', '54', '59', '60', '60', '60', '60', '42', '42', '42', '42', '60'], '66 57': ['68'], '63 68': ['63', '63', '60', '72', '89', '72', '72', '84', '74', '72', '89', '68', '72', '68', '68', '68', '68', '68', '72', '72', '72'], '55 56': ['55', '55', '55', '44', '61', '43', '44'], '64 55': ['60', '52', '64', '60', '60', '60', '60', '58', '58', '58', '60', '43', '60', '43', '60', '60'], '52 55': ['60', '60', '52', '60', '52', '60', '52', '60', '52', '52', '58', '61', '61', '40', '40', '52'], '50 64': ['50'], '57 57': ['59', '48', '57', '60', '62', '60', '45', '63', '63', '57', '45', '53', '48', '57', '60', '45', '62', '61', '50', '60', '62', '60', '53', '53', '45', '45', '45', '45', '45', '45', '60', '60', '45', '45', '45', '45', '48', '60', '53', '53', '63', '53', '53', '63', '51', '53', '63', '65', '45', '45', '45', '45', '45', '45', '45', '45', '60', '55', '55', '60', '60', '60', '45', '45', '60', '60', '45', '60', '60', '45', '55', '58', '58', '56', '53'], '55 48': ['60', '58', '43', '43', '55', '60', '60', '60', '60', '60', '60', '60', '60', '60', '60', '60', '55', '48', '48', '60', '60', '58', '58', '60', '36', '48', '54', '55'], '60 48': ['48', '48', '48', '55', '61', '48', '48', '48', '48', '61', '58', '48', '48', '48', '46', '60', '64', '45', '46', '60', '58', '48', '48', '56', '48', '48', '48', '48', '48', '48', '55', '55', '64', '48', '55', '57', '41', '48', '43', '63', '63', '48', '48', '48', '48', '48', '48', '60', '63', '53', '48', '48', '48', '48', '48', '48', '48', '48', '48', '48', '48', '48', '48', '48', '48', '48', '48', '60', '36', '60', '55', '55', '55', '48', '59', '55', '53', '60', '60', '60', '48', '60', '60', '48', '61'], '52 64': ['51', '55', '53', '52', '64', '53', '65', '52', '52', '52', '52', '52'], '56 55': ['56', '44', '56', '44', '43', '43', '43', '43', '60'], '59 59': ['62', '62', '47', '55', '55', '55', '55', '47', '47', '47', '65', '62', '47', '47', '55', '50', '50', '50', '50', '50', '56', '56', '57', '55', '55', '55', '55', '55', '55', '65', '65', '65', '65', '55', '58', '58', '56', '52'], '65 62': ['65', '65', '65', '65', '65', '65', '53', '64', '64', '65', '61', '69', '65', '61', '69', '57', '57', '63', '62', '56', '62', '68', '68', '68', '68', '68', '68', '68', '72', '74', '72', '62', '65', '62', '62', '62', '65', '62', '62', '62', '62', '68', '68', '62'], '56 64': ['56'], '36 64': ['45', '58'], '45 36': ['39'], '42 51': ['51'], '45 42': ['54'], '54 45': ['48', '62'], '51 60': ['60', '39', '51', '56', '60', '56', '39', '60', '60', '56', '60', '56', '51', '56', '39', '44', '54', '39', '39', '56', '56', '56', '60', '51', '56', '56', '56', '56', '56', '56', '56', '51', '56', '56', '56', '56', '56', '56', '58', '56', '56', '56', '56', '39', '56'], '54 51': ['63', '60', '60', '55', '57'], '63 54': ['57', '63', '54', '41', '46', '57', '46', '66', '57', '53', '53'], '52 60': ['52', '40', '55', '55', '55', '55', '52', '60', '55', '55'], '57 50': ['57', '60', '55', '50', '50', '60', '60'], '61 60': ['49', '49', '68', '49', '49', '60', '60', '53', '60'], '49 61': ['62', '62', '60', '61', '61', '60', '49', '49', '61', '61', '61', '58', '60', '60', '61', '62', '61', '61', '48', '61', '62', '61', '62', '61', '49', '56', '61', '49'], '62 64': ['50', '76', '76', '76', '64', '64', '61', '61', '60', '59', '62'], '65 55': ['59', '59', '59', '59', '59', '59'], '37 37': ['49', '49', '49', '49', '49', '49', '49', '37', '72', '49', '49', '49', '49', '49', '49', '49', '49', '49', '49'], '50 38': ['38', '38', '38', '40', '38', '52', '38', '38', '54', '54', '38', '54', '49', '38', '38', '38', '38', '38', '38', '38', '38', '38', '38', '50', '48', '51', '38', '38', '55', '54', '38', '55', '48', '38', '55', '54', '38', '55', '48', '38', '38', '38', '54', '43', '50', '50', '55', '54', '54', '50', '50', '54', '54', '54', '55', '50', '55', '50', '48', '42', '55', '55', '39', '39', '53', '39', '53', '36', '38', '39', '38'], '55 50': ['50', '50', '59', '58', '58', '52', '55', '55', '58', '58', '58', '59', '59', '59', '59', '59', '59', '59', '38', '43', '43', '38', '45', '38', '43', '43', '38', '45', '59', '38', '38', '38', '38', '38', '38'], '38 38': ['50', '50', '50', '50', '55', '62', '62', '57', '50', '50', '50', '50', '65', '50', '50', '50', '50', '50', '50', '50', '50', '38', '50', '50', '50', '50', '50', '50', '50', '50', '50', '50', '50', '50', '50', '50', '50', '50', '50', '50', '50', '50', '50', '50', '50', '50', '50', '50', '50', '50', '50', '50', '50', '50', '50', '50', '50', '50', '50', '50', '50', '50', '50', '50', '50', '50', '50', '50', '50', '50', '50', '50'], '50 54': ['54', '50', '60', '60', '60', '60', '60', '57', '60', '60', '60', '60', '60', '60'], '62 62': ['59', '58', '58', '58', '58', '60', '57', '56', '58', '62', '62', '62', '57', '57', '56', '58', '60', '58', '58', '58', '58', '58', '58', '58', '58', '58', '58', '58', '58', '58', '58', '58', '63', '60', '58', '57', '58', '58', '58', '58', '60', '58', '58', '58', '58', '58', '58', '58', '58', '58', '58', '58', '58', '58', '58', '58', '58', '58', '58', '58', '58', '58', '58', '70', '63', '70', '65', '58', '53', '53', '53', '49', '53', '58', '47', '66', '58', '53', '58', '56', '67', '69', '66', '67', '69', '66', '65', '66', '64', '54', '54', '60', '60', '62', '59', '59', '60', '61', '50', '61', '50', '67', '65', '65', '58', '70', '65', '58', '58', '70', '65', '58', '67', '65', '65', '70', '60', '58', '58', '58', '58', '58', '60', '58', '58', '58', '58', '58', '60', '58', '58', '60', '60', '58', '60', '58', '60', '58', '58', '58', '58', '60', '60', '63', '53', '58', '39', '41', '68'], '62 55': ['50', '50', '58', '46', '62', '62', '50', '50', '60', '60', '59', '59', '59', '59', '59', '59'], '58 64': ['46', '48', '58', '48', '60', '58', '64', '60', '48', '60', '60', '60', '67', '67', '60', '63', '67', '60', '64', '64'], '58 46': ['60', '57', '60', '46', '46', '57', '46', '46', '45', '60', '53', '53', '53', '62', '62', '62', '58', '61', '58', '58', '46', '46', '46', '46', '46', '46', '53', '46', '46', '62', '46', '46', '62', '62', '46', '46', '46', '46', '53', '46', '58', '58', '34', '46', '46', '46', '46', '46', '46', '46', '46', '46', '46', '46', '46', '46', '46', '46', '46', '46', '46', '46', '46', '46', '57', '55', '55', '58', '58', '55', '58', '58', '55', '46', '58', '46', '58', '45', '53', '58', '53', '53', '53', '58', '56', '53', '56', '53', '53', '53', '58', '56', '53', '56', '58', '46', '47', '46', '53', '46', '53', '46', '46', '58', '58'], '55 64': ['57', '58', '43', '60', '43', '60', '60', '55', '52', '64', '64', '52', '52', '55', '55'], '57 45': ['60', '57', '45', '45', '45', '45', '45', '57', '47', '45', '47', '45', '45', '60', '45', '60', '60', '60', '45', '60', '45', '60', '58', '45', '60', '60', '60', '45', '45', '53', '53', '45', '45', '45', '45', '45', '45', '45', '45', '45', '61', '55', '45', '45', '45', '61', '46', '45', '57', '56', '56', '58', '58', '45', '59', '45', '45', '45', '45', '59', '45', '45', '45', '45', '45', '45', '55', '44', '44', '44', '55', '57', '55', '44', '55', '55', '48', '57', '48', '57', '54', '54', '57', '46', '46', '58', '57', '58', '45'], '65 57': ['45', '60', '57', '48', '60', '60', '60', '60', '62', '57', '60', '60', '62'], '60 57': ['65', '48', '65', '38', '38', '62', '43', '45', '47', '60', '63', '46', '46', '46', '48', '65', '65', '45', '47', '45', '50', '48', '55', '57', '65', '57', '48', '48', '53', '57', '57', '52', '60', '52', '52', '60', '52', '53', '60', '54', '63', '62', '53', '65', '52', '60', '52', '64', '65', '60', '65', '60', '60', '51', '51', '53', '57', '63', '57', '53', '53', '54', '63', '50', '48', '60', '63', '62', '62', '53', '55', '60', '48', '50', '50', '65', '57', '65', '65', '54', '65', '65', '65', '65', '65', '65', '65', '65', '65', '65', '65', '65'], '44 56': ['56', '60', '56', '44', '56', '44', '56', '44', '44', '56', '44', '56', '44', '44', '56', '39', '42', '56', '44', '55', '39', '57', '51', '39', '57', '51', '51', '39', '57', '51', '60', '60', '42', '32', '57', '44', '32', '57', '44', '56', '57', '55', '44', '55', '55', '55', '44', '44', '44', '44', '44', '44', '44', '44', '44', '44', '56', '56', '51', '44', '56', '44', '56', '44', '44', '61', '44', '44', '51'], '63 60': ['56', '51', '55', '63', '63', '57', '57', '57', '45', '45', '61', '57', '60', '54', '63', '43', '63', '63', '63', '43', '63', '63', '63', '63', '63', '63', '63', '67', '67', '55', '53', '46', '39', '63', '63', '63', '63', '60', '60', '60', '63', '60', '63', '69', '67', '55', '55', '54', '63', '56', '56', '56'], '55 63': ['43', '58', '63', '55', '55', '55', '55', '58', '52', '55', '58', '58'], '45 45': ['57', '57', '57', '57', '54', '57', '60', '63', '60', '63', '57', '57', '57', '57', '65', '57', '65', '57', '57', '57', '57', '57', '57', '38', '57', '57', '57', '57', '57', '57', '57', '57', '57', '57', '57', '57', '57', '57', '57', '46', '57', '50', '57', '57', '57', '57', '57', '57', '57', '57', '57', '57', '57', '57', '57', '46', '33', '57', '57', '57', '57'], '48 43': ['60', '58', '58', '58'], '49 49': ['61', '61', '61', '61', '37', '53', '61', '37', '61', '61', '61', '56', '61', '61', '61', '61', '58', '50', '50', '50', '50', '36', '61', '61', '61', '61', '61', '61', '37', '50', '61', '61', '61', '65'], '55 65': ['55'], '49 37': ['37', '50', '37', '37', '37', '50', '38', '37', '37', '37', '37', '37', '37', '37', '50', '49', '49', '49', '33', '49', '49', '37', '48', '49', '37'], '50 49': ['38', '38', '50', '50', '50', '50', '50', '61', '38'], '38 50': ['50', '53', '32', '50', '52', '49', '50', '50', '38', '50', '52', '50', '38', '50', '50', '38', '51', '39', '39', '50', '50', '48', '50', '50', '52', '43', '50', '43', '50', '55', '50', '45', '55', '55', '39', '55', '39', '55', '50', '45', '49', '50', '50', '57', '39', '39', '39', '50', '50', '39', '39', '55', '50', '52', '38', '48', '38', '38', '38', '38', '38', '38', '38', '38', '38', '38', '38', '38', '38', '38', '38', '55', '38', '38', '38', '38', '38', '38', '38', '38', '38', '38', '38', '38', '38', '39', '38', '50'], '54 50': ['55', '60', '57', '57', '57', '62', '38', '57', '55', '38', '57', '55', '38', '38', '38', '38'], '43 50': ['43', '55', '43', '43', '43', '43', '43'], '50 55': ['55', '50', '50', '38', '38', '52', '50', '50', '50', '50', '50', '50', '38', '38', '38', '62', '59', '59', '59', '59', '59', '59', '59', '58', '58', '43', '58', '58'], '55 46': ['60', '58', '58', '58', '58', '58', '58', '58', '58', '58', '58', '58', '34', '61', '61'], '64 46': ['58'], '65 60': ['57', '72', '60', '57', '57', '65', '57', '65', '65', '65', '65', '55', '65', '57', '57', '65', '53', '65', '65', '65', '65', '65', '72', '72', '57', '53', '57', '57', '57', '57', '57', '57', '57', '57', '57', '57', '57', '57', '57', '57'], '44 65': ['56', '60'], '56 60': ['63', '65', '65', '58', '51', '44', '60', '51', '51', '51', '51', '56', '51', '51', '56', '60', '39', '60', '60', '51', '56', '66', '60', '56', '56', '52', '56', '60', '63', '63', '60', '60', '63', '53', '54', '56', '51', '53', '54', '56', '51', '51', '51', '51', '51', '51', '53', '54', '54', '54', '54', '54', '54', '49', '60', '52', '51', '51', '51', '56', '60', '51', '51', '51', '51', '51', '51', '51', '66', '66', '51', '56', '61', '66', '56', '49', '63', '51', '60', '63', '51', '51', '51', '60', '51'], '43 57': ['55', '55', '55', '43'], '36 55': ['48', '48'], '48 36': ['53', '36', '53', '36', '36', '41', '49', '49', '36', '36', '36', '50', '48', '36', '41', '36', '36', '48', '36', '36', '36', '36', '36', '48', '48', '47', '48', '36', '36', '36', '36', '48', '67', '38', '37', '53', '57', '53', '57', '50', '57', '38', '57', '55', '53', '48', '36', '36', '46'], '41 41': ['53', '53', '53', '53', '53', '53', '53', '53', '53', '53', '57', '58', '58', '62', '62', '62', '62', '60', '58', '62', '58', '60', '58', '62', '58', '53', '53', '53', '53', '53', '53', '57', '57', '53', '53', '53', '53', '53', '53', '53', '53', '53', '53', '53', '53', '53', '57', '65', '53', '53', '65', '53', '53', '53', '53', '53', '53', '53', '53', '53', '53', '53', '53', '53', '53', '53', '53', '53', '53', '53', '53', '53', '53', '53', '53', '53', '53', '53', '53', '53', '53', '53', '53', '58', '53', '53', '58', '56', '53', '53', '53', '53', '53', '53', '53', '53', '53', '53', '53', '53', '53', '53', '53', '53', '53', '53', '53', '53', '53', '53', '53', '53', '53', '53', '53', '53', '53', '41', '65', '53', '53', '53', '53', '53', '53', '53', '53', '53', '53', '53', '53', '53', '57', '53', '53', '57', '53', '53', '53'], '46 62': ['58', '58', '58', '68'], '53 43': ['41', '41', '41'], '41 53': ['58', '50', '53', '62', '34', '54', '36', '42', '42', '53', '36', '42', '42', '53', '41', '41', '53', '53', '53', '53', '41', '41', '54', '42', '42', '42', '53', '46', '60', '41', '53', '58', '43', '53', '46', '40', '41', '50', '55', '53', '41', '41', '41', '41', '41', '41', '53', '53', '46', '41', '41', '34', '46', '51', '51', '57', '51', '41', '63', '54', '57', '41', '41', '53', '45', '52', '53', '52', '53', '51', '40', '51', '40', '52', '39', '53', '51', '53', '53', '51', '53', '56', '56', '53', '50', '53', '50', '40', '53', '53', '41', '57', '57', '41', '41', '52', '41', '41', '41', '41', '41', '41', '41', '41', '41', '41', '55', '41', '41', '55', '41', '41', '55', '41', '41', '55', '41', '41', '41', '41', '41', '41', '41', '41', '41', '41', '41', '41', '41', '41', '41', '41', '41', '41', '41', '41', '41', '53', '41', '41', '41', '41', '56', '53', '41', '53', '41', '55'], '46 46': ['58', '58', '34', '58', '58', '58', '58', '58', '61', '58', '58', '62', '58', '62', '58', '58', '58', '58', '58', '51', '58', '58', '58', '55', '55', '58', '58', '53', '58', '53', '53', '53', '58', '58', '65', '58', '65', '58', '58', '58', '58', '58', '53', '34', '58', '58', '58', '56', '56', '56', '56', '55', '55', '56', '58', '55', '58', '53', '58', '39', '58', '39', '62', '34', '58', '58', '58', '58', '58', '58', '58', '58', '58', '58', '58', '58', '58', '58', '47', '58', '58', '58', '58', '58', '58', '58', '58', '58', '58', '58', '58', '58', '58', '58', '34', '34', '48', '58', '58', '58', '58', '58', '58', '58', '58'], '61 48': ['49', '53', '60'], '58 48': ['46', '60', '55', '46', '46', '60', '60', '60', '60', '60', '60', '60', '60', '60', '64', '60', '57', '64', '60', '36', '53', '36'], '46 58': ['53', '58', '58', '48', '44', '58', '48', '58', '55', '58', '55', '58', '60', '60', '45', '58', '58', '58', '63', '46', '46', '46', '61', '48', '48', '53', '53', '53', '58', '41', '58', '43', '58', '58', '58', '55', '55', '55', '55', '59', '53', '47', '53', '58', '58', '46', '58', '58', '57', '41', '56', '53', '60', '60', '60', '60', '45', '45', '42', '42', '55', '55', '57', '58', '64', '64', '46', '46', '46', '46', '46', '55', '55', '46', '46', '46', '58', '46', '53', '53', '58', '58', '59', '46', '46', '53', '53', '53', '47', '58', '46', '48', '46'], '62 58': ['62', '58', '62', '62', '38', '55', '55', '55', '53', '53', '62', '53', '62', '51', '53', '53', '53', '62', '45', '45', '62', '62', '45', '45', '62', '62', '62', '62', '62', '62', '62', '62', '62', '41', '53', '62', '53', '53', '62', '62', '53', '53', '62', '62', '58', '62', '62', '55', '62', '67', '62', '41', '62', '58', '41', '62', '41', '62', '62', '62', '62', '62', '62', '62', '62', '41', '62', '62', '62', '62', '62', '62', '62', '62', '62', '62', '62', '62', '62', '61', '57', '58', '46', '53', '53', '53', '53', '53', '53', '53', '53', '67', '67', '55', '55', '55', '55', '55', '55', '55', '55', '55', '53', '53', '53', '55', '53', '53', '53', '53', '55', '53', '53', '53', '53', '58', '62'], '58 53': ['51', '46', '41', '46', '62', '41', '53', '62', '62', '46', '58', '62', '62', '62', '62', '58', '58', '62', '62', '62', '62', '58', '53', '49', '51', '48', '50', '51', '50', '46', '51', '48', '50', '62', '62', '62', '62', '62', '46', '62', '41', '62', '62', '41', '54', '48', '48', '48', '52', '52', '48', '41', '46', '62', '41', '58', '62', '62', '62', '51', '62', '62', '62', '62', '57', '62', '51', '62', '43', '53', '58', '41', '46', '46', '46', '41', '41', '58', '58', '65', '58', '65', '65', '58', '65', '62', '58', '62', '62', '58', '41', '61', '58', '61', '61', '61', '61', '48', '48', '62', '62', '62', '62', '48', '48', '62', '62', '62', '62'], '39 39': ['51', '51', '51', '51', '51', '51', '51', '72', '51', '51', '51', '44', '60', '51', '51', '60', '51', '51', '51', '51', '51', '51', '51', '51', '51', '51', '51', '51', '51', '51', '54', '51', '63', '63', '51', '63', '51', '39', '39', '84', '51', '51', '40', '51', '51', '51', '40', '51', '51', '51', '51', '51', '51', '51', '51', '32', '51', '51', '51', '51', '51', '51'], '55 58': ['63', '63', '60', '63', '63', '63', '63', '63', '63', '63', '63', '43', '62', '62', '62', '63', '51', '55', '55', '46', '61', '62', '55', '61', '63', '63', '63', '63', '60', '55', '60', '60', '55', '60', '60', '55', '60', '50', '43', '58', '50', '43', '62', '62', '62', '62', '62', '62', '63', '58', '63', '63', '63', '63', '62', '62', '63', '58', '58', '63', '63', '63', '58', '63', '63', '51', '63', '63', '55', '55', '62', '62', '58', '70', '63', '43', '63', '55', '41', '58', '60', '63', '55', '58', '58', '60', '60', '60', '60', '60', '62', '62', '38', '38', '50', '50', '50', '54', '34', '50', '50', '54', '34', '50', '48', '50', '62', '51', '55', '53', '50', '50'], '58 63': ['55', '55', '58', '55', '58', '55', '58', '55', '55', '58', '55', '58', '55', '58', '55', '55', '55', '58', '54', '58', '51', '55', '55', '55', '55', '55', '55', '55', '55', '55', '55', '55', '55', '55', '55', '55', '55', '55', '55', '67', '78', '67', '63', '55', '55', '55', '62', '63', '63', '43', '58', '55', '67', '58', '67', '58', '67', '58', '67', '58', '63', '63', '42', '58', '42', '63'], '51 39': ['39', '52', '39', '39', '39', '51', '39', '58', '39', '39', '39', '60', '51', '39', '43', '56', '39', '51', '51', '39', '39', '39', '60', '56', '39', '55', '39', '53', '39', '39', '39', '39', '39', '52', '52', '39', '39', '55', '55', '43', '43', '55', '55', '51', '51', '39', '38', '39', '39', '39', '39', '39', '39', '39', '39', '39', '39', '39', '39', '39', '39', '39', '39', '52', '52', '50', '39', '50', '51', '55', '55', '55', '51', '55', '51', '51', '41', '51', '39', '52', '39', '52', '39', '51', '51', '39', '51', '39', '40', '39', '39', '39', '48', '51', '52', '51', '39', '39'], '49 51': ['37', '51', '37'], '37 49': ['50', '49', '49', '39', '61', '48', '49', '49', '49', '38', '53', '53', '53', '56', '53', '53', '53', '61', '56', '61', '56', '43', '37', '37', '37', '53', '37', '58', '37', '37', '56', '37', '56', '37', '37', '37', '49'], '53 41': ['41', '41', '41', '51', '62', '41', '41', '41', '41', '41', '42', '54', '54', '43', '58', '46', '62', '62', '53', '54', '42', '41', '41', '41', '41', '55', '55', '57', '41', '41', '58', '41', '41', '58', '41', '41', '41', '41', '41', '41', '41', '41', '52', '41', '41', '57', '57', '58', '57', '58', '53', '57', '58', '57', '57', '58', '53', '57', '41', '41', '41', '41', '41', '41', '41', '41', '41', '41', '41', '41', '41', '41', '63', '57', '53', '41', '62', '57', '39', '53', '41', '41', '41', '41', '41', '41', '41', '54', '41', '41', '41', '54', '41', '41', '41', '41', '41', '41', '41', '41', '52', '41', '41', '41', '52', '52', '41', '41', '40', '41', '55', '57', '57', '57', '57', '52', '52', '57', '53', '57', '57', '53', '57', '53', '57', '57', '53', '53', '53', '53', '53', '53', '53', '53', '53', '58', '58', '58', '53', '53', '43', '58', '51', '51', '35', '53', '53', '65', '41', '53', '41', '56', '41', '41'], '46 53': ['58', '46', '46', '46', '46', '46', '34', '46', '46', '46', '46', '46', '34', '46', '34', '34', '58', '58', '46', '41', '58', '58', '58', '58', '58', '58', '58', '58', '58'], '39 50': ['51', '51', '51', '51', '51', '51'], '40 40': ['52', '52', '52', '52', '52', '52', '52', '52', '52', '52', '52', '52', '52', '52', '52', '52', '52', '52', '52', '52', '52', '52', '52', '52', '52', '52', '52', '52', '52', '52', '52', '52', '52', '52', '52', '52', '52', '55', '52', '55', '52', '52', '52', '52', '52', '52', '52', '52', '52', '52', '52', '52', '52', '52', '52', '52'], '54 53': ['42', '42', '42', '41', '42', '42', '42', '54', '60', '41', '41'], '42 54': ['55', '41', '57', '55', '54', '42', '43', '55', '42', '63', '63', '63', '54', '54', '42', '55', '53', '55', '55', '61', '54', '54', '43', '53', '54', '45', '54', '45', '41', '54', '42', '42', '42', '42', '42', '42', '42', '42', '55', '54', '54', '42', '58', '58', '42', '54', '54', '54'], '62 46': ['50', '53', '61'], '57 60': ['60', '57', '60', '45', '45', '62', '65', '57', '60', '60', '62', '65', '62', '62', '65', '65', '60', '60', '60', '60', '60', '60', '60', '60', '60', '60', '48', '65', '65', '60', '60', '60', '60', '53', '65', '65', '55', '60', '60', '65', '57', '65', '65', '53', '53', '63', '65', '65', '65', '65', '60', '60', '60', '60', '60', '53', '48', '65', '65', '65', '65', '65', '60', '60', '58', '60', '58', '65', '45', '45', '50', '62', '50', '62', '65', '65', '65', '65', '53', '62', '65', '62', '65', '57', '57', '57', '65', '56', '63', '48', '63', '48', '48', '57', '52', '48', '57', '48', '48', '57', '52', '48', '57', '48', '60', '45'], '60 58': ['60', '57', '60', '48', '64', '64', '55', '64', '64', '53', '64', '64', '55', '64', '58', '58', '53', '53', '56', '53', '48', '53', '60', '63', '65', '60', '65', '53', '48', '48', '64', '64', '55', '48', '64', '64', '64', '46', '64', '64', '64', '46', '64', '64', '64', '60'], '53 57': ['53', '63', '41', '63', '53', '63', '63', '53', '63', '53', '60', '62', '53', '53', '63', '53', '63', '57', '60', '57', '57', '57', '57', '41', '48', '60', '63', '63', '63', '63', '63', '60', '63', '63', '63', '63', '41', '41', '53', '60', '53', '41', '63', '57', '63', '41', '46', '53', '63', '57', '57', '57', '41', '53', '57', '46', '60', '60', '60', '60', '41', '41', '41', '60', '41', '41', '60', '60', '60', '60', '60', '60', '60', '53', '53', '58', '58', '58', '58', '53', '53', '58', '58', '58', '58', '63', '53', '46'], '57 46': ['45', '45', '58', '58', '45', '46', '46', '58', '58'], '61 49': ['49', '62', '49', '48', '49', '48', '49', '61', '49', '49', '53', '49', '61', '49', '46', '46', '61', '62', '49', '49', '49', '49', '49', '62', '49', '60', '60', '60', '50', '48', '48', '61', '60', '60', '49', '49', '62', '62', '55', '55', '61', '61', '65', '61'], '62 61': ['50', '50', '65', '62', '62', '70'], '53 58': ['58', '58', '62', '62', '62', '46', '62', '62', '39', '41', '53', '62', '62', '53', '48', '48', '49', '53', '53', '53', '53', '62', '62', '62', '62', '62', '58', '62', '62', '62', '53', '53', '62', '62', '62', '62', '62', '62', '62', '41', '62', '62', '53', '53', '53', '62', '62', '53', '46', '62', '53', '62', '61', '61', '53', '48', '53', '53', '53', '53', '53', '46', '53', '46', '58', '46', '46', '58', '50', '50', '58', '53', '46', '60', '46', '46', '46', '46', '46', '46', '46', '46', '61', '58', '46', '46', '58'], '51 53': ['39', '39', '51', '51', '54', '39', '39', '63', '52', '51', '58'], '39 51': ['55', '55', '51', '55', '55', '40', '40', '51', '58', '51', '63', '51', '51', '51', '51', '51', '51', '39', '55', '51', '55', '51', '55', '46', '52', '51', '52', '51', '39', '55', '55', '43', '43', '38', '51', '51', '50', '53', '51', '60', '51', '51', '60', '51', '51', '51', '40', '51', '51', '51', '40', '51', '51', '56', '51', '51', '56', '56', '56', '56', '51', '50', '50', '51', '51', '50', '52', '39', '39', '39', '39', '39', '46', '52', '52', '52', '39', '39', '39', '50', '50', '50', '50', '50', '50', '50', '50', '52', '52', '51', '39', '39', '51', '39', '39', '39', '51', '39', '51', '40', '51', '66', '51', '48', '51', '51', '39', '51', '51', '39', '56', '51', '51', '56', '51', '51', '51', '39', '56', '39', '44'], '63 58': ['63', '63', '63', '63', '63', '58', '57', '63', '57', '63', '63', '63', '63', '63', '63', '63', '63', '63', '63', '63', '63', '63', '63', '63', '63', '66', '66', '72', '67', '63', '62', '62', '63', '51', '63', '58', '55', '55', '55', '55', '60', '66', '58', '66'], '58 55': ['51', '46', '51', '51', '48', '51', '51', '51', '60', '51', '51', '51', '60', '62', '62', '58', '55', '58', '46', '60', '60', '48', '50', '64', '46', '50', '53', '55', '50', '58', '55', '46', '58', '48', '50', '48', '50', '50', '53', '51', '53', '63', '53', '51', '50', '46', '46', '63', '57', '46', '53', '63', '46', '53', '48', '55', '55', '55', '48', '51', '58', '55', '55', '63', '63', '58', '58', '46', '46', '60', '60', '60', '46', '46', '64', '64', '60', '62', '62', '62', '62', '62', '62', '62', '62', '62', '63', '63', '62', '62', '51', '51', '61', '44', '58', '61', '44'], '41 55': ['53', '53'], '37 51': ['49'], '32 44': ['44', '44', '48', '48', '49', '49', '32', '44'], '43 32': ['31'], '31 43': ['55', '48', '55', '55', '55', '36', '55', '55', '55', '55', '55', '55', '55', '55', '55', '36'], '63 55': ['60', '46', '46', '46', '46', '46', '46', '58', '63', '51', '51', '51', '58', '55', '58', '58', '58', '58', '52', '63', '58'], '53 63': ['57', '57', '53', '57', '57', '53', '57', '41', '60', '57', '63', '63', '63', '53', '63', '53'], '62 53': ['58', '58', '62', '58', '58', '58', '53', '58', '41', '58', '58', '58', '62', '58', '58', '58', '62', '58', '58', '58', '58', '50', '58', '58', '58', '58', '50', '51', '58', '41', '50', '62', '62', '58', '41', '62', '62', '62', '62', '53', '53'], '49 60': ['61', '48', '61', '61', '61', '37'], '60 46': ['48'], '52 39': ['40', '40', '40', '51'], '40 52': ['53', '41', '53', '53', '38', '52', '51', '39', '55', '51', '51', '52', '52', '55', '55', '52', '52', '55', '55', '52', '52', '52', '40', '40', '40', '40', '40', '40', '40', '40', '40', '52', '53'], '54 42': ['42', '53', '53', '43', '53', '53', '55', '57', '60', '42', '53', '55', '54', '54', '42', '42', '42', '42', '42', '42', '53', '58', '58', '53', '53', '42', '53', '42', '53', '53', '42', '55', '42', '55', '53', '55', '42', '42', '55', '57', '57', '55', '54', '55', '54', '54', '54', '54', '54', '42', '42', '66', '42'], '55 54': ['43', '43', '43', '43', '43', '43', '55', '43', '57', '55', '42', '42'], '61 62': ['49', '49', '49', '65', '65', '62', '62', '62'], '48 57': ['48', '48', '48', '48', '48', '48', '48', '48', '48', '48', '48', '48', '57', '60', '60'], '58 60': ['60', '48', '64', '43', '43', '64', '46', '43', '64', '52', '43', '64', '46', '53', '46', '57', '57', '60', '60', '55', '60', '60', '64', '64', '64', '64', '53', '53', '64', '53', '60', '60', '60', '60', '60', '60', '60', '60', '60', '60', '55', '52', '52', '46', '57', '57', '57', '57', '48', '64', '60', '64', '48', '64', '48', '64', '60', '60', '60'], '53 53': ['57', '57', '50', '57', '50', '65', '58', '58', '41', '62', '62', '41', '60', '57', '41', '60', '57', '41', '61', '61', '63', '61', '41', '58', '61', '61', '65', '65', '41', '65', '49', '52', '57', '57', '57', '41', '58', '57', '57', '41', '41', '58', '58', '58', '65', '60', '65', '65', '41', '57', '57', '55', '62', '55', '62', '62', '55', '62', '56', '56', '60', '57', '53', '60', '57', '58', '57', '63', '41', '46', '58', '62', '57', '51', '46', '46', '63', '63', '41', '41', '41', '56', '56', '56', '41', '41', '56', '41', '41', '41', '55', '41', '41', '41', '41', '56', '56', '41', '57', '41', '41', '57', '41', '57', '57', '41', '41', '41', '41', '41', '41', '41', '41', '41', '54', '57', '52', '57', '58', '41', '41', '41', '57', '55', '58', '57', '57', '58', '57', '57', '57', '57', '58', '57', '57', '58', '57', '57', '57', '57', '58', '66', '41'], '62 63': ['50', '51', '70', '63', '58'], '48 58': ['60', '64', '36', '36', '48', '48', '48', '48', '36', '36', '48', '48', '48', '48', '48', '48', '60', '60', '46', '46', '46'], '48 62': ['60', '48', '50'], '55 51': ['58', '58', '58', '58', '58', '58', '58', '61', '61', '61', '58', '58', '58', '58', '58', '58', '58', '58', '58', '58', '58', '51', '58', '58', '56', '56', '55', '55', '60', '55', '55', '56', '39', '39', '39', '39', '61', '61', '61', '51', '61', '61', '61', '39', '61', '61', '39'], '51 55': ['39', '39', '39', '39', '39', '51', '39', '55', '58', '43', '51', '43', '51', '51', '51', '51', '55', '61', '61', '61', '61', '61', '61', '57', '60', '58', '61', '61', '61', '61', '39', '61', '43', '61', '51', '61', '55', '61', '61', '61', '51', '61', '61', '61', '61', '61'], '44 58': ['56', '56', '56', '56'], '56 44': ['55', '56', '56', '60', '51', '56', '51', '56', '53', '44', '41', '44', '56', '53', '44', '44', '65', '65', '65', '57', '55', '55', '55', '55', '55', '55', '44', '56', '45', '44', '44', '44', '57', '44', '44', '44', '54', '44', '44', '54', '44', '44', '44', '44', '56', '56', '56', '56', '56', '56', '60', '47', '44', '44', '44', '60', '56', '56', '56', '44', '44', '44', '56', '44', '44', '56', '65', '44'], '51 41': ['39', '53'], '50 37': ['38', '38', '38', '38', '39', '49'], '44 44': ['32', '51', '56', '56', '44', '51', '56', '56', '56', '56', '56', '56', '53', '56', '56', '56', '49', '56', '56', '56', '56', '56', '56', '56', '56', '56', '56', '56', '56', '56', '56', '56', '56', '56', '56', '56', '56', '56', '56', '56', '56', '56', '56', '56', '56', '47', '56', '56', '56', '56', '56', '56'], '43 31': ['31', '31', '31', '31', '31', '31', '31', '31', '31', '31', '31', '31', '31', '31'], '62 65': ['65', '77', '58', '58', '65', '65', '43', '52', '43', '62', '71', '71', '71', '71', '71', '62', '64', '65', '65', '65', '65', '65', '62', '63', '62', '70', '70', '62', '65', '62', '63', '62', '65', '64', '62', '68', '62', '68', '71', '71'], '57 63': ['53', '60', '60', '53', '53', '54', '53', '53', '41', '53', '53', '53', '54', '53', '53', '53', '53', '53', '53', '53', '53', '53', '53', '53', '53', '41', '53', '41', '57', '53', '55', '55', '63', '63', '63', '63', '63', '63', '63', '63', '53', '53', '63', '63'], '46 55': ['46', '46', '46', '46', '51', '46', '46', '46', '58', '58', '43', '43', '61'], '56 53': ['58', '58', '61', '37', '61', '61', '44', '41', '61', '58', '59', '59', '59', '59', '54', '44', '49', '55', '54', '53', '54', '44', '49', '55', '54', '53', '61', '44', '61', '44', '41', '50'], '46 56': ['34', '34', '44', '46', '46', '46', '46', '58'], '34 46': ['56', '56', '43', '46', '51', '51', '34', '36', '46', '34', '46', '38', '34', '34', '34', '34', '34', '34', '34', '46', '46', '50'], '58 56': ['51', '62', '51', '46', '51', '50', '46', '51', '50', '46', '50', '44', '41', '58', '58'], '42 55': ['54', '54', '43', '54', '42', '42', '54', '43', '43'], '57 53': ['58', '58', '57', '60', '57', '60', '53', '60', '60', '50', '60', '62', '63', '62', '63', '53', '60', '60', '60', '60', '60', '60', '60', '53', '53', '53', '53', '53', '45', '45', '46', '41', '46', '41', '41', '58', '58', '41', '46', '41', '41', '60', '60', '60', '60', '60', '60', '60', '60', '60', '60', '46', '53', '57', '63', '63', '46', '57', '57', '45', '60', '50', '41', '41', '65', '65', '57', '65', '65', '63', '63', '63', '53', '63', '63', '63'], '46 50': ['46', '46', '38', '38', '38'], '48 55': ['48', '48', '58', '60', '60', '48', '60', '43', '48', '48', '64', '48', '48', '36', '36', '36', '36', '36', '36', '36', '36', '36', '36', '36', '36', '36', '36', '36', '48', '48', '48', '48', '57', '60', '60'], '60 65': ['56', '56', '57', '60', '57', '57', '57', '57', '65', '57', '57', '43', '43', '65', '57', '43', '48', '57', '57', '57', '57', '57', '57', '57', '57', '57', '56', '57', '57', '57', '57', '57', '57', '57', '65', '72', '72', '65', '65', '65', '65', '65', '65', '65', '65', '65', '65', '65', '65', '65', '65', '65', '65', '65'], '47 60': ['59', '59', '48', '59', '59', '59', '48', '59', '59', '48'], '58 57': ['46', '46', '46', '65', '46', '46', '46', '45', '45', '57', '58'], '51 46': ['63', '63', '58', '51', '39', '39', '39', '52', '46', '51', '46', '51', '51', '58', '55'], '53 46': ['56', '58', '58', '58', '58', '58', '58', '58', '48', '58', '58', '65', '65', '65', '65', '34', '34', '68', '58'], '77 39': ['72'], '77 79': ['77', '79', '74', '91', '89', '67', '67', '91', '89', '67', '76', '79', '67', '84', '81', '77', '77', '77', '77', '77', '77', '80', '80', '70', '74', '67', '67', '74', '74', '79', '79', '79', '72', '81', '74', '74', '74', '74', '74', '68', '79'], '82 81': ['83', '81', '81', '82', '77', '70', '69'], '84 82': ['83', '70', '82', '82', '79', '70', '84', '65', '74', '82', '82', '72'], '84 60': ['72', '72', '72', '72'], '74 64': ['76', '70'], '84 83': ['86', '86', '86', '86', '86', '86', '83', '83', '84'], '72 63': ['75', '75', '75', '63', '69', '69', '60', '67', '63', '72', '68', '75', '68', '75', '68', '68', '72', '68', '68', '68', '68', '68', '68', '68', '68', '68', '68'], '79 76': ['77', '77', '72', '77', '77', '72', '77', '77', '72', '72', '69', '69', '88', '88', '88', '81', '76', '76', '77', '76', '76', '62', '76', '76', '76', '76', '76', '79', '79', '79', '72', '79', '70', '55', '72', '72', '72', '72', '70', '79'], '81 77': ['81', '81', '81', '69', '69', '69', '69', '84', '84', '79', '77', '77', '84', '71', '69', '69', '81', '82', '82', '82', '82', '79', '79', '74', '71', '74', '71', '71', '81', '81', '81', '81', '84', '84', '84', '84', '70'], '83 80': ['81', '84', '81', '71', '82'], '71 83': ['74', '74', '74', '79', '72', '84', '72', '84', '71', '71', '71', '71', '71'], '64 77': ['65', '65', '65', '65', '73', '73'], '76 70': ['72', '72', '72', '70', '70', '69', '70', '81', '79', '76', '76', '76', '76', '79', '77', '70'], '84 70': ['77', '77', '77', '82', '82', '70', '79'], '65 72': ['69', '69', '69', '69', '72', '72', '69', '69', '65', '70', '67', '72', '62', '65', '72', '69', '72', '69', '72', '69', '72', '69', '70', '70', '72', '72', '72', '72', '74', '74', '60', '68', '77', '68', '68', '62'], '77 63': ['75', '75', '75'], '72 74': ['76', '76', '76', '74', '72', '65', '72', '70', '65', '67', '70', '67', '70', '67', '70', '63', '64', '63', '64', '74', '63', '64', '63', '64', '70', '70', '63', '64', '63', '64', '74', '74', '74', '86', '86', '86', '86', '86', '77', '77', '86', '77', '71', '69', '76', '72', '76', '72', '72', '65', '72', '72', '72', '65', '74', '74', '65', '74', '79', '74', '74', '77', '75', '81', '81', '72', '72', '72', '74', '76', '72', '79', '72', '72', '82', '70', '77', '77', '82'], '81 72': ['84', '84', '84', '84', '72', '72', '72', '74', '81', '81', '81', '81', '76'], '65 79': ['67', '67', '67', '91', '91'], '79 64': ['65', '65', '72'], '73 73': ['74', '74', '70', '80', '70', '77', '73', '72', '75', '70', '77', '77', '72', '65', '74', '74', '74', '74', '74', '76', '76', '69', '74', '76', '85', '70', '76', '77', '77', '77', '77', '70', '68', '76', '76', '77', '77', '64', '74', '74', '74', '74', '85', '74', '70', '74', '74', '70', '74', '70', '74', '74', '70', '70', '70', '77', '70', '74', '65', '77', '70', '70', '67', '77'], '74 72': ['66', '66', '70', '65', '70', '70', '79', '72', '72', '72', '72', '72', '72', '72', '72', '72', '72', '84', '76', '74', '74', '67', '71', '76', '72', '72', '72', '72', '86', '86', '72', '69', '72', '69', '72', '72', '74', '74', '74', '74', '74', '74', '65', '67', '65', '66', '66', '66', '69', '69', '69', '72', '65', '67', '65', '66', '79', '74', '74', '79', '74', '75', '72', '74', '74', '72', '72', '74', '72', '74', '72', '72', '72', '79', '70', '74', '74', '74', '74', '74', '67', '67', '77'], '74 67': ['74', '74', '74', '74', '70', '72', '79', '69', '62', '67', '75', '62'], '67 74': ['70', '70', '72', '74', '67', '67', '74', '72', '72', '72', '72'], '82 86': ['74', '79', '77', '74', '79', '77', '70', '70', '84', '74', '82'], '87 82': ['88', '88', '74', '82'], '82 88': ['76', '76'], '86 76': ['79', '79', '88', '79', '79'], '82 76': ['79', '82', '79', '82', '80', '77', '80', '77', '80', '77', '77', '77', '73', '82', '83', '70'], '73 77': ['72', '72', '73', '65', '80', '77', '82', '77', '85', '67', '67', '73', '74', '76', '82', '79', '73', '73', '73', '80', '80', '77', '80', '80', '80', '68', '80', '80', '80', '77', '82', '85', '77', '82', '82', '77', '73', '77', '70', '73', '77'], '93 91': ['79', '79'], '81 93': ['79', '79'], '91 89': ['77', '77', '89'], '88 86': ['74', '74', '86', '74', '74', '77', '74', '74', '86'], '82 72': ['77', '77', '78', '84', '70', '70', '74', '70'], '72 81': ['74', '74', '72', '69', '72', '72', '72', '70', '78', '78', '79', '67', '76'], '74 81': ['72', '72', '74', '69', '72', '72', '79', '79', '86', '66'], '81 71': ['77', '77', '77', '77', '77', '81', '81', '81', '81'], '70 76': ['77', '77', '79', '79', '79', '79', '67', '70', '81', '76', '81', '76', '76', '67', '76', '70', '82'], '70 71': ['70', '70', '71', '72', '78', '74', '72', '71', '74', '71', '71'], '60 72': ['62', '64', '65', '72', '76'], '89 84': ['89', '72', '72'], '79 70': ['75', '75', '72', '70', '82', '70', '72', '79', '79', '74', '74', '75', '75', '67', '70', '74', '67', '86', '72', '70', '79', '74', '75', '82', '72', '74', '67', '67', '80', '70'], '64 67': ['63', '67', '63', '63', '60', '60', '67', '67', '62', '64', '62', '64', '64', '75', '69', '64', '64', '72', '72', '75', '69', '64', '64', '72', '72', '64', '65', '72', '72', '79', '64', '64', '60', '60', '60', '70', '64'], '65 63': ['65', '63', '63', '64', '67', '63', '72', '67', '56', '56', '63', '63', '63', '65', '62', '63', '65', '63', '65', '62', '63', '65'], '63 62': ['70', '63', '62', '64', '64', '63', '63', '62', '63', '65', '56', '56', '50', '63'], '82 84': ['82', '82', '63', '63'], '64 63': ['65', '52', '51', '57', '68', '75'], '63 65': ['63', '61', '63', '65', '65', '58', '63', '66', '56', '72', '65', '65', '63', '65', '63', '60', '65', '65', '63', '65', '63'], '65 67': ['79', '65', '77', '65', '69', '59', '65', '67', '67', '65', '70', '70', '70', '70', '67', '67', '67', '67', '67', '65', '68', '67', '68', '65', '67', '79', '79', '64', '67', '67', '71', '65', '65', '65', '62', '63', '62', '62', '62', '62', '65', '65', '65', '62', '63', '62', '62'], '81 69': ['75', '80', '68', '75', '80', '68', '69', '67', '75', '70', '72', '72', '78', '77', '69', '69', '73', '69', '69', '69', '81', '81', '81', '81', '79', '79', '79', '81', '79', '79', '79', '79', '81', '69', '69'], '75 68': ['75', '75', '72', '73', '67', '66', '68', '68', '63', '71', '63', '75', '75', '80', '73'], '68 80': ['75', '69', '75', '69', '71', '77', '77', '78', '70', '70', '70', '82', '77', '78', '70', '75', '75', '75', '75', '75', '69', '69', '75', '68', '73', '77', '73', '77', '73', '73', '73', '73', '73', '80', '68', '80', '80', '68', '80', '67', '80', '72', '80', '68', '80', '80', '68', '72', '75', '68', '80', '68', '77'], '69 81': ['75', '75', '75', '75', '74', '72', '72', '72', '72', '72', '77', '77', '69', '69', '69', '69', '81', '81', '69', '82', '82', '69', '69', '79', '69', '69', '69', '83', '69'], '75 81': ['79', '69', '75', '69', '69', '79', '69', '75', '69', '69', '72', '72', '78', '82', '70', '81', '81', '81', '84', '72', '84', '84'], '78 66': ['67', '67', '72', '70', '75', '70', '66'], '66 78': ['65', '65', '75', '75', '69', '69', '70', '69', '72', '72', '79'], '79 91': ['89', '89', '90', '82', '89', '89', '89'], '81 82': ['79', '79', '81', '81', '79', '70', '80', '82', '79', '79'], '75 80': ['68', '68', '72', '77', '72', '75', '75', '75', '75', '68', '80', '72', '84', '80', '72', '70'], '68 75': ['80', '80', '80', '80', '72', '75', '67', '80', '75', '67', '69', '80', '80', '63', '75', '75', '75', '78', '75', '68', '68', '68', '75', '75'], '80 69': ['68', '68'], '81 75': ['69', '69', '69', '75', '82', '77', '80', '83', '80', '72', '77'], '66 75': ['78', '78', '78', '78', '78', '78', '63', '66', '63', '77', '65'], '62 77': ['65', '65'], '65 73': ['73', '70', '68', '70', '68', '70', '77', '73', '73', '77'], '61 65': ['65', '65', '49', '61', '56', '56', '44', '56', '56', '56', '56', '49', '62', '56', '56', '56', '56', '56', '56', '56', '56', '56', '46', '61', '56', '65', '56'], '71 61': ['67'], '36 72': ['48'], '36 48': ['50', '48', '48', '48', '60', '48', '48', '48', '41', '53', '41', '40', '41', '53', '41', '48', '60', '53', '55', '48', '55', '55', '55', '55', '55', '55', '55', '55', '55', '48', '55', '48', '55', '55', '55', '55', '55', '55', '49', '35', '53', '53', '53', '48', '36', '36', '36', '36', '36', '36', '36', '36', '36', '36', '36', '36', '53', '36', '55', '49', '37', '48', '34'], '52 38': ['40', '40', '40', '50'], '53 52': ['41', '41', '41', '53', '40', '40', '52', '58'], '42 53': ['54', '54', '41', '54', '54'], '64 58': ['55', '60', '64', '60', '64', '60', '64', '60', '64', '60', '60', '60', '58', '58', '48', '48', '53', '67', '67', '67', '55', '55'], '53 42': ['41', '54', '41', '41'], '58 43': ['60', '55', '55'], '43 60': ['55', '43', '43', '43', '43', '43', '43', '55', '43', '43', '43', '43', '55'], '57 65': ['45', '60', '60', '53', '46', '45', '60', '60', '46', '46', '46', '46'], '63 57': ['54', '53', '53', '45', '63', '51', '51', '51', '51', '63', '53', '63', '63', '63', '63', '63', '63', '63', '63', '63', '63', '63', '63', '46', '53', '53', '53', '41', '53', '57', '60', '55', '53', '53', '53', '53', '53', '53', '53', '53'], '55 42': ['43', '43', '43', '43', '43'], '43 64': ['64', '55', '55', '43'], '64 43': ['60', '60', '60', '60', '60'], '36 36': ['48', '48', '48', '48', '48', '48', '48', '48', '48', '48', '48', '48', '48', '48', '48', '48', '48', '48', '48', '48', '48', '48', '48', '48', '48', '48', '48', '48', '48', '48', '48', '48', '48', '48', '48', '48', '48', '48', '48', '48', '48', '48', '48', '48', '48', '48', '48', '48', '48', '48', '48', '48', '48', '48', '48', '48'], '52 50': ['40'], '41 48': ['53', '53', '53', '41', '41'], '54 41': ['42', '42', '42'], '46 48': ['58', '58', '48'], '47 45': ['59', '47', '35'], '47 59': ['60', '59', '59', '48', '47', '59', '59', '48', '59', '59', '60', '46', '46', '47', '47', '48', '59', '60', '59'], '53 36': ['41', '53'], '40 38': ['52', '52'], '52 40': ['53', '60', '40', '53', '53', '53', '39', '39', '39', '40', '40', '40', '40', '40', '40', '40', '40', '40', '40', '40', '40', '40', '40', '40', '40', '40', '40', '40', '40', '40', '40', '40', '40', '40', '40', '40', '54', '40', '40', '40', '40', '40', '39', '55', '53', '53', '57', '53', '57', '53', '53', '40', '40'], '42 41': ['54', '54', '65', '54'], '43 54': ['55', '55', '55', '42', '42'], '42 45': ['54', '54'], '43 65': ['59', '59', '43'], '65 43': ['64', '64'], '50 48': ['38', '38', '50', '51', '55'], '53 54': ['41', '41', '41', '54', '54', '54', '42'], '48 64': ['60', '60', '48', '48'], '64 48': ['41', '41'], '57 58': ['45', '45', '57', '57', '57', '57', '58', '60', '45', '45', '46', '46', '46', '46', '46'], '60 42': ['62'], '38 60': ['38'], '57 62': ['60', '57', '43', '53', '57', '65', '57', '57', '65', '57'], '62 60': ['62', '62', '43', '38', '62', '57', '60', '62', '62', '62', '54', '62', '66', '62', '54', '48', '60', '60', '54', '54', '54', '54', '54', '54', '54', '54'], '60 54': ['38', '60', '60', '63', '55', '58', '62', '62', '62', '56', '60', '60', '60', '60', '60', '60', '62', '62', '62', '62', '62', '62', '62', '60', '62', '62'], '62 38': ['57'], '60 62': ['60', '54', '57', '62', '54', '60', '60', '60', '54', '43', '50', '67', '60', '57', '57', '57', '57', '62', '62', '62', '60', '60', '62', '62', '62', '62', '62', '62'], '62 43': ['55'], '38 58': ['50'], '65 53': ['60', '56', '61', '53', '65', '56', '57', '58', '58', '57', '60', '41', '58', '58', '58', '58', '53', '53', '53', '53', '58', '58', '58', '58', '56'], '54 55': ['42', '43', '53', '55', '43', '42', '43', '43', '43', '43', '55', '43', '43'], '57 38': ['60', '60', '38'], '54 62': ['60', '60', '50', '50'], '54 60': ['62', '62', '62', '63', '54', '51', '62', '63', '56', '50', '50', '50', '50', '55', '62', '62', '55', '55', '57', '50', '50', '50', '54'], '38 62': ['38', '38', '38', '38', '54'], '61 46': ['55', '58', '58', '55'], '47 57': ['47', '47', '47'], '56 65': ['62', '61', '77', '61', '61', '44', '61', '61', '65', '44', '49', '61', '52', '63', '63', '62', '56', '56', '75', '56', '49', '61', '56', '56', '61', '65'], '56 62': ['65', '62', '65', '65', '46', '52', '52', '58'], '48 41': ['60', '48'], '42 43': ['54'], '45 60': ['45', '45'], '48 49': ['36', '60', '49', '49'], '60 43': ['58', '55', '55'], '41 57': ['41', '53', '53', '41', '41', '63', '41', '53'], '55 57': ['43', '55', '55', '55', '55', '55', '43', '61', '57', '61', '57', '43', '55', '43', '43', '43', '43', '45', '45', '45', '45', '50', '50'], '62 57': ['60', '62', '59', '65', '65', '62'], '55 38': ['58'], '43 62': ['43', '43', '55', '50'], '61 55': ['48', '51', '51', '61', '61', '61', '61', '61', '61', '61', '61', '51', '51', '51', '51', '51', '51', '51', '51', '51', '58', '51', '51', '51'], '56 47': ['65'], '48 65': ['48', '48', '48'], '42 50': ['54'], '41 60': ['53', '41', '29', '66'], '29 41': ['41', '43'], '46 29': ['46'], '41 62': ['41', '41', '41', '53', '63'], '58 39': ['55', '51', '51'], '51 58': ['39', '51', '63', '51', '51', '55', '55', '55', '55', '55', '66', '63'], '58 54': ['46', '63', '63', '46', '58', '58', '58', '46', '46', '61', '54', '54', '63', '63'], '53 62': ['58', '46', '58', '62', '58', '53', '58', '58', '41', '58', '58', '53', '41', '58', '58', '53', '41', '41', '41', '41', '53', '43', '53', '53', '53', '58', '62', '58', '62', '58', '53', '62'], '42 42': ['57', '54', '66', '54', '54', '54', '54', '54', '54', '54', '54', '54', '54', '54', '54', '54', '50', '54', '50', '54', '54', '54', '54', '54', '54', '54', '54', '54'], '52 62': ['52'], '46 57': ['58', '46', '46', '58', '58', '58'], '62 41': ['53', '58', '58', '58', '53'], '46 54': ['46'], '41 54': ['53', '53', '53'], '53 60': ['53', '63', '57', '57', '57', '41', '53', '62', '57', '56', '41', '53', '41', '53', '41', '50', '48'], '41 43': ['53'], '39 62': ['51'], '42 58': ['42', '54', '54', '63'], '58 52': ['64'], '41 58': ['41', '41', '41', '41', '41', '41', '53', '53', '41', '41', '53', '41', '46', '68'], '55 39': ['63', '51', '51', '51', '51', '51', '51', '51', '51', '51', '51', '43'], '42 63': ['54'], '60 53': ['57', '41', '60', '41', '60', '48', '48', '56', '57', '57', '60', '63', '60', '60', '53', '60', '60'], '49 62': ['61', '61', '61', '61'], '63 45': ['60', '60'], '41 63': ['41', '41', '41', '41', '41', '41', '53', '53', '53', '63', '53'], '63 53': ['63', '41', '63', '41', '63', '57', '41', '57', '63', '57', '53', '41', '57', '41', '41'], '63 41': ['53', '53', '53', '53', '57'], '46 63': ['46', '46', '46', '46', '58', '46'], '58 61': ['52', '52', '58', '58', '58', '55', '53', '46', '51', '58', '55', '55', '46', '54', '54', '53', '66', '54', '54', '53', '66', '66', '66', '66', '66', '61', '53', '58', '37', '61', '46', '46', '58', '64', '55', '60', '64', '55', '46'], '52 58': ['61', '61', '52', '60', '60', '53'], '50 41': ['62', '62'], '63 48': ['57', '57', '53', '51', '51'], '55 44': ['43', '43'], '58 51': ['63', '63', '61', '61', '51', '46', '46', '57', '58', '58'], '61 50': ['49'], '68 72': ['67', '68', '71', '72', '72', '68', '68', '72', '72', '78', '66', '73', '71', '68', '69', '72', '77', '63', '72', '77', '72', '72', '68', '75', '75', '66', '68', '72', '65', '80', '68', '68', '68', '68', '72', '72', '68', '75', '63', '63', '63', '63', '72', '56', '63', '63', '63'], '68 61': ['60', '70'], '68 58': ['60', '64', '50'], '72 68': ['68', '71', '68', '72', '72', '72', '72', '68', '72', '71', '68', '75', '75', '72', '69', '82', '66', '63', '75', '84', '66', '63', '63', '82', '66', '63', '75', '75', '68', '68', '80', '75', '70', '80', '75', '68', '68', '68', '68', '75', '72', '72', '68', '68', '75', '63', '63', '63', '63', '63', '63', '72', '56', '63', '63', '63', '63', '63'], '75 77': ['71', '72', '71', '72', '72', '72', '69', '69', '71', '68', '77', '71', '77', '87', '65', '87', '75', '75', '79', '79', '75', '74', '75', '74', '77', '79', '89', '89', '68', '65', '77', '70', '75'], '80 77': ['76', '82', '82', '77', '76', '82', '80', '82', '80', '82', '73', '73', '82', '80', '71', '82', '80', '68', '68', '68', '68', '79', '75', '89', '89', '77', '72', '80', '77', '73', '85', '80', '80', '51', '68', '68', '77', '77', '77', '80', '77', '80'], '77 82': ['80', '79', '80', '77', '77', '73', '73', '70', '73', '70', '70', '74', '74', '79', '74', '70', '74', '82', '70', '77', '82', '70', '82', '68', '82', '82'], '76 80': ['82', '82', '75', '77', '79', '79'], '80 76': ['77', '77', '82', '82', '72', '82', '77', '82', '80', '83', '76', '76', '82', '80'], '72 71': ['68', '77', '75', '75', '72', '71', '72', '72', '80', '75', '75', '72', '72', '71', '71', '71', '71', '71', '71', '71', '71', '72'], '73 67': ['72', '67', '67', '83', '65', '63', '79', '83', '79'], '73 68': ['68', '73', '82', '77', '82', '64', '68', '80', '64', '65', '77', '73', '77', '65', '73', '73', '77', '73'], '71 75': ['72', '77', '72', '77', '80'], '76 82': ['80', '77', '80', '80', '77', '77', '77', '80', '77', '82', '72', '83', '70'], '80 82': ['77', '76', '76', '72', '82', '77', '82', '77', '80', '78', '72', '68', '70', '82', '76', '75', '77', '80'], '70 73': ['69', '61', '70', '72', '70', '72', '75', '73', '71', '71', '70', '70', '65', '70', '82', '80', '70', '70', '71', '71', '73', '78', '78', '80', '77', '80', '77', '79', '82', '73', '77', '73', '77', '73'], '75 73': ['70', '65', '73', '73', '68', '80'], '67 61': ['72', '72', '70', '70', '63', '63', '70', '70', '71', '71', '61', '61', '61', '61'], '61 67': ['60', '63', '63', '67', '65', '60', '73', '60'], '82 80': ['77', '77', '77', '77', '73', '77', '82', '77', '85', '77', '82', '81', '80', '80', '80', '75', '77', '80'], '71 68': ['72', '71', '70', '70', '70', '70', '70', '77', '75', '77', '77', '65', '76', '64', '71', '68', '68', '68', '71', '65', '64', '68', '65', '65'], '67 73': ['72', '77', '76', '76', '76', '77', '76', '68', '68', '76', '76', '77', '76', '77', '76', '63', '63'], '68 73': ['68', '72', '75', '68', '73', '73', '73', '77', '70', '70', '77', '65', '77', '77', '66', '73', '77', '75', '73'], '77 73': ['73', '73', '75', '72', '80', '80', '80', '73', '73', '73', '73', '73', '74', '67', '77', '73', '77', '70', '73', '70', '73', '73', '80', '70', '68', '80', '80', '70', '80', '72', '80', '67', '80', '70', '68', '77', '68', '80', '80', '84', '73', '65', '65', '65', '77', '68', '77', '68', '77', '80'], '69 70': ['75', '71', '75', '70', '70', '74', '74', '70', '72', '69', '69', '69', '69', '69', '69', '70', '70', '67', '69', '67', '74', '69', '77', '75', '82', '69', '69', '69', '69', '69', '69', '69', '69', '69', '69', '69', '69', '69', '69'], '73 70': ['69', '67', '70', '70', '65', '68', '67', '73', '70', '71', '77', '74', '82', '78', '64', '77', '65', '78', '78', '74', '74', '74', '74', '73', '73', '70', '70', '73', '73'], '73 75': ['70', '72', '73', '66', '87', '85', '75', '75'], '73 65': ['66', '65', '73', '73', '65', '65'], '67 65': ['66', '72', '68', '68', '77', '65', '65', '69', '77', '63', '68', '65', '68', '67', '68', '67', '56', '77', '71', '55', '55', '67'], '72 73': ['72', '70', '73', '82', '72', '64', '85', '85', '74', '74', '76', '72', '72', '74', '73'], '82 73': ['73', '72', '82', '73', '72', '82', '80', '85', '65', '70', '65', '70', '78', '70', '85'], '72 80': ['72', '71', '80', '72', '71', '80', '77', '75', '73', '80', '80', '82', '78', '68', '68', '68', '68', '68', '68', '72', '84', '78', '72', '68', '72', '70'], '69 68': ['67', '68', '68', '68', '68', '80', '68', '80', '68', '68', '68', '68', '67'], '73 69': ['72', '70', '77'], '59 58': ['62', '64', '64'], '83 74': ['83', '71', '79', '79', '71', '71', '71'], '68 60': ['60', '68', '75', '68'], '63 67': ['61', '68', '67', '61', '69', '70', '70', '70', '82', '67', '65', '58', '58', '58', '58', '67', '65', '75', '75', '75', '70', '70', '75', '73'], '67 63': ['61', '70', '61', '61', '66', '66', '66', '66', '62', '67', '75', '72', '75', '67', '57', '67', '75', '75', '75', '75', '75', '73'], '61 70': ['63', '67', '75', '75', '61'], '65 66': ['67', '53', '66', '66', '72', '67', '68', '66', '77', '67', '68', '77', '66', '41', '66', '66', '65', '73'], '59 62': ['59', '65', '55', '53', '64', '55', '62', '62'], '80 71': ['83', '77', '80', '71'], '63 70': ['67', '62', '65', '60', '58', '72', '72', '75', '75', '70', '68', '72', '63'], '61 63': ['63', '67', '60'], '75 71': ['72', '73'], '82 77': ['80', '80', '80', '80', '80', '65', '86', '86', '70', '74', '75', '85', '82', '85', '77', '85', '75', '74', '72', '70', '82', '77', '77'], '73 72': ['70', '73', '77', '74', '74', '74', '76', '75', '77', '73', '73', '73', '77', '73', '73'], '61 72': ['70', '70'], '65 75': ['77', '75', '70', '75'], '56 73': ['68'], '73 61': ['78'], '78 84': ['75', '72', '72', '80', '72', '72', '72'], '78 80': ['68', '70', '72', '72', '68'], '70 78': ['75', '75', '68', '84', '68', '82', '82', '82', '82', '82'], '68 77': ['77', '77', '77', '80', '80', '80', '67', '74', '80', '65', '65', '74', '74', '74', '74', '76', '79', '73', '68', '77', '77', '80', '77', '80', '68', '77', '80', '77', '80', '68', '80', '68', '77', '77', '68', '68', '68', '68', '68'], '80 73': ['72', '75', '72', '77', '68', '82', '68', '85'], '82 85': ['82', '77', '77', '85', '85', '73', '75', '78', '73', '75', '73', '84'], '80 85': ['80', '82', '77', '71', '73'], '71 70': ['77', '78', '67', '67', '70', '82', '82', '70', '71'], '85 85': ['71', '86', '84', '75', '75', '89', '84', '73', '73', '80', '73', '73', '73', '75', '73', '80', '73', '75', '77', '73'], '77 78': ['78', '78', '77', '77', '74', '77', '77', '77', '68', '74', '82', '73'], '78 69': ['78', '78', '78', '79', '81', '74', '72', '78', '78', '78', '78'], '85 80': ['82', '85', '73', '85'], '78 68': ['78'], '73 66': ['72'], '83 71': ['72', '82', '77', '77', '70', '83', '83', '77', '84', '77', '79', '84', '77', '79', '79'], '80 70': ['84', '68', '72', '75', '72', '75', '72'], '80 78': ['82'], '70 80': ['84', '68', '78', '82', '82', '82', '77', '73', '73', '77', '77', '73'], '85 77': ['73', '77', '80', '85'], '73 85': ['77', '75', '82', '73', '78', '78', '78', '77', '78', '78', '85', '77', '73', '79', '76'], '72 82': ['80', '82', '78', '82', '82', '79', '84', '82', '77'], '78 82': ['82', '80', '80', '87', '75', '85', '75', '77', '75', '85', '82'], '73 82': ['80', '70', '70', '70', '75', '70', '80', '82', '82', '82', '70', '70', '70', '70'], '68 82': ['70', '80'], '85 73': ['77', '77', '77', '80', '85', '85', '75', '73', '85', '75', '85', '70', '79', '85', '76', '76'], '71 80': ['82', '71'], '78 77': ['78', '74', '74', '78', '77', '77', '77', '77', '66', '80', '85', '85'], '70 83': ['82'], '84 78': ['72', '84'], '68 78': ['80', '80', '75', '72', '72'], '84 73': ['72', '85', '72'], '77 85': ['73', '78', '73'], '82 78': ['73', '82', '89', '85', '82', '73', '82', '85', '85', '73', '85', '82', '73', '82'], '68 71': ['83', '68', '68', '77', '80', '80', '82', '80', '61', '68', '62', '64', '62', '65', '68', '64'], '78 83': ['84', '83', '83'], '82 68': ['80', '94', '80', '94', '80', '80'], '55 53': ['51', '55', '55', '48', '48', '48', '48', '48', '48', '43', '59', '51', '55', '55', '55', '43', '43', '55', '55'], '53 51': ['49', '53', '41', '41', '51', '39'], '49 48': ['48', '36', '36'], '49 46': ['44', '34'], '48 46': ['44', '36', '36'], '51 56': ['60', '56', '60', '39', '56', '60', '60', '60', '44', '60', '60', '39', '51', '56', '60', '56', '60', '39', '56', '63', '60', '39', '51', '51', '51', '51', '51', '51', '51', '60', '60', '51', '56', '60', '60', '56', '60', '60', '60', '51', '47', '44', '44', '60', '60', '60'], '39 56': ['39', '51', '51', '51', '51', '60', '51', '44'], '60 51': ['56', '56', '56', '56', '56', '56', '58', '41', '56', '56', '56', '44', '56', '56', '54', '55', '39', '56', '56', '56', '48', '56', '48', '56', '56', '51', '56', '51', '56', '60', '56', '39', '56', '51', '56', '56', '56', '56', '56', '56', '39'], '44 51': ['44', '60', '56', '39', '56', '44', '44', '60', '56', '56', '56', '56'], '61 56': ['53', '44', '53', '37', '56', '61', '65', '49', '61', '65', '44', '65', '65', '56', '53', '65', '65', '49', '44', '56', '61', '61', '61', '61', '61', '61', '61', '61', '61', '61', '53', '55', '53', '55', '65', '65', '65', '61', '53', '65', '65', '65', '65', '65'], '37 56': ['37', '61', '61'], '37 61': ['53', '49', '53'], '61 44': ['51', '56', '49', '56'], '60 56': ['56', '44', '51', '39', '51', '37', '44', '60', '39', '51', '51', '51', '60', '60', '56', '39', '51', '51', '56', '66', '66', '63', '44', '66', '66', '66', '66', '57', '60', '48', '60', '48', '48', '60', '56', '56', '51', '60', '60', '60', '60', '56', '51', '60', '60', '60', '60', '60', '60', '60', '60', '51', '51', '60', '60', '44', '56', '44', '56', '66', '52', '51', '60', '51', '51', '60', '51', '51', '63', '60', '51', '51', '51', '51', '56', '56', '66', '51', '56', '51', '63'], '45 51': ['45'], '45 63': ['57', '57'], '54 54': ['57', '57', '42', '42', '66', '42', '63', '55', '54', '57', '42', '58', '56', '42', '42', '42', '60', '60', '60', '42', '55', '60', '58', '51', '60', '42', '60'], '63 46': ['58', '46', '55'], '60 49': ['48', '48', '48'], '56 39': ['39', '51', '51', '51', '44', '44', '44', '44'], '60 37': ['37', '56', '37'], '56 37': ['61', '61'], '49 56': ['61', '61', '37', '61'], '36 43': ['48', '48', '48', '48', '36'], '49 53': ['61', '61'], '53 56': ['44', '56', '58', '50', '51', '61', '50', '51', '61', '50', '59', '59'], '56 51': ['60', '39', '60', '60', '51', '51', '39', '60', '60', '53', '60', '60', '53', '44', '51', '44', '44', '43', '44', '51', '44', '44', '43', '60', '44', '60', '60', '60', '60', '60', '60', '39', '60', '60', '60', '60', '60', '60', '60', '56', '60', '60', '60'], '41 39': ['41'], '44 43': ['44', '31', '32', '32', '44', '56'], '44 60': ['51', '56', '51', '51', '56', '56'], '60 39': ['56', '60', '39'], '39 60': ['39', '51', '39', '51', '51', '56'], '61 53': ['53', '56', '56', '58', '61', '61', '53', '53', '61', '48', '61', '58', '58', '61'], '53 61': ['56', '56', '56', '58', '53'], '44 61': ['44', '56', '56', '49'], '60 44': ['56', '44', '51', '51', '51'], '49 36': ['37'], '56 61': ['53', '53', '49', '65', '65', '65', '61', '49', '65', '65', '60', '60', '65', '65', '65', '65', '65', '65', '65', '65', '65', '56', '65', '50', '56', '65', '65', '65', '65', '65', '61'], '61 51': ['55', '55', '55', '55', '39', '55', '55', '55', '55', '55', '55', '51', '51', '61', '55', '55'], '55 61': ['51', '61', '39', '53', '53', '51', '51', '51', '51', '51', '51', '49', '49', '51', '51', '51', '51'], '51 61': ['39', '58', '61', '55', '58', '39', '39', '39', '39', '55', '55', '51', '55', '58', '55', '55', '61', '51'], '39 44': ['56', '56'], '32 32': ['44', '61', '49', '49', '44', '44', '44', '44', '44', '44', '44', '44'], '51 32': ['39', '47'], '43 51': ['55', '51', '46', '51', '46', '51', '55'], '61 58': ['55', '58', '61', '61', '55', '55', '55', '55', '53', '53', '46', '46', '51', '58', '56'], '58 47': ['59', '46', '46', '46', '46'], '49 58': ['53', '50'], '53 50': ['53', '53', '57', '57', '58', '58', '58', '55', '62', '62', '56', '56', '56', '45', '43'], '56 50': ['56', '58', '58', '58', '50', '60', '53'], '51 62': ['39', '50', '50', '50'], '51 44': ['60', '32', '60', '44', '56'], '46 61': ['58', '58', '58', '56', '55'], '53 49': ['58', '46', '56', '56', '56', '56', '56', '56'], '56 59': ['62', '56', '56', '59', '59', '59', '56', '52', '53', '53'], '37 53': ['37'], '60 61': ['48', '48', '48', '48', '48', '56', '48', '48', '70', '70', '70', '70', '60'], '46 44': ['56'], '44 32': ['44', '44', '32', '32', '32', '32', '32', '32', '32', '32'], '61 42': ['66'], '52 65': ['53', '52'], '65 61': ['56', '56', '56', '61', '65', '49', '65', '56', '49', '61', '64', '64', '64', '64', '78', '65', '65', '65', '65', '56', '61', '56', '56', '56', '56'], '56 66': ['60', '60', '56', '60', '60', '60', '39', '56', '42', '66'], '51 52': ['64', '51', '53', '39', '39'], '56 41': ['53', '65'], '61 54': ['58', '55', '42', '42'], '66 61': ['51', '51'], '65 56': ['56', '61', '61', '61', '44', '49', '44', '61', '53', '61', '65', '75', '61', '61', '56'], '46 65': ['58', '46', '58'], '39 67': ['51'], '60 67': ['63', '58'], '56 63': ['60', '60', '60'], '51 50': ['51', '39', '58', '62', '39', '38', '38', '38', '39'], '44 50': ['44'], '44 53': ['61', '56', '56'], '52 51': ['64', '40', '56', '40'], '44 49': ['56', '56'], '58 42': ['46', '54'], '54 66': ['65', '58', '65', '53'], '39 58': ['51', '55', '63'], '41 56': ['53'], '42 61': ['58'], '61 66': ['63', '58', '58', '58', '58', '58', '58'], '65 52': ['53'], '53 44': ['41', '61'], '67 39': ['51'], '50 51': ['51', '50', '38', '38', '57', '44', '38', '56'], '50 44': ['44'], '63 52': ['64'], '66 63': ['51', '54', '56', '64', '64', '63', '63', '65', '58', '58'], '42 46': ['58', '58'], '49 44': ['61', '56', '37', '49', '37', '49'], '44 66': ['56'], '51 66': ['60'], '66 56': ['39', '66', '60', '44', '60', '53'], '66 51': ['44', '39', '54'], '56 42': ['54'], '41 42': ['54'], '65 44': ['56', '60'], '60 66': ['63', '56', '56', '56', '49', '56', '69', '62', '62', '72', '66', '56', '56', '66', '41'], '56 49': ['61', '61', '61'], '52 53': ['64', '52', '40', '41', '41', '41', '41', '41', '41', '41'], '56 43': ['44', '44', '44', '44', '44'], '66 54': ['54'], '46 49': ['58'], '32 37': ['49'], '66 44': ['56', '60'], '42 56': ['54', '54', '54', '60'], '46 51': ['39', '51', '46', '61'], '37 84': ['84'], '81 79': ['79', '79', '79', '79', '79', '79', '79', '69', '79', '77', '79', '72', '84', '84', '77', '77', '69', '79', '79', '79', '79', '79', '79', '79', '79', '79', '74', '77'], '69 67': ['60', '60', '67', '67', '67', '67', '67', '69', '64', '67', '67', '76', '67', '67', '76', '67', '64', '67', '70', '69', '70', '69', '69', '69', '69', '75', '75', '69', '69', '69', '69', '69', '69', '69', '75', '75'], '63 74': ['69', '69', '72', '69'], '64 74': ['64', '70', '64', '70', '70', '70', '70', '70', '70', '72', '72'], '80 81': ['81', '81', '81', '81', '77', '77', '68', '80', '74'], '76 84': ['84', '84', '84', '84', '72', '88', '84', '84', '84', '72', '84', '84', '81', '84', '84', '72', '72', '72', '72', '72', '72', '72', '72'], '58 67': ['64', '63', '63', '59', '58', '58', '65', '62', '62'], '67 58': ['60', '70', '63', '67', '64', '63', '65', '62', '55', '55'], '69 74': ['74', '74', '74', '77', '74', '63', '72', '82', '71', '71', '69', '74', '66'], '64 69': ['69', '64', '64', '64', '64', '69', '69', '69', '69', '69', '64', '64'], '86 84': ['84', '84', '72', '86', '86', '79', '83', '88', '84', '84', '72', '86', '86', '74', '86', '86'], '80 83': ['83', '74', '80', '92', '82'], '81 76': ['82', '69', '69', '69', '69', '81', '76', '81', '81', '81', '81', '76', '76', '69', '76', '69', '76', '69', '76', '76', '69', '76', '76', '76', '70', '81', '81', '81'], '76 88': ['88', '84', '86', '74', '84', '76', '72', '85'], '82 91': ['82', '79', '79'], '91 86': ['86', '79'], '86 91': ['82', '95', '95'], '91 82': ['86', '91', '86', '79', '76'], '84 81': ['89', '89', '84', '69', '77', '81', '77', '69', '72', '81', '77', '82', '76', '76', '76', '76', '84', '84', '81', '77', '81', '81', '84', '77', '77', '84', '77', '84', '75'], '84 89': ['84', '89', '84'], '89 81': ['81'], '86 82': ['79', '82', '82', '74', '94', '77'], '74 73': ['73', '74', '74', '70', '72', '73', '74', '72', '74', '74', '72', '74', '74', '74', '74', '74', '74', '74', '74', '74', '74'], '77 67': ['79', '67', '70', '67', '67'], '69 79': ['72', '67', '72', '75', '72', '75', '72', '79'], '64 73': ['72', '70', '64', '70', '73', '64', '70', '70', '73', '64', '70', '73', '64', '70', '73', '73'], '73 64': ['70', '70', '64', '64'], '55 52': ['55', '55', '60', '43', '55', '60', '55', '60', '43', '55', '60', '55', '60', '43', '55', '60', '43', '60', '60', '60', '43', '58', '58', '60', '60', '60', '60', '60', '60', '60', '60', '60', '60', '60', '60', '60', '60', '60'], '57 41': ['60', '60', '60', '60', '53', '41', '41', '41'], '50 57': ['38', '38', '57', '38', '38', '38', '54', '54'], '40 48': ['52', '52'], '38 48': ['50', '36'], '57 56': ['45', '45', '45', '56', '45'], '58 59': ['46', '46', '59', '47'], '55 47': ['59', '59'], '48 38': ['36', '36', '36', '50'], '52 57': ['52', '61', '61'], '46 60': ['46', '62'], '50 53': ['50', '50', '50', '38', '62', '53', '56', '56', '56', '56', '56', '38', '38', '38', '38', '38', '60', '58', '58', '58', '58', '58', '58', '58', '58', '58', '59', '56', '53', '59'], '58 45': ['46', '46', '45', '45', '57'], '46 34': ['34', '34', '34', '34', '34', '34', '34', '36', '46', '34', '46', '46', '34', '34', '34', '46', '50', '55', '53', '58', '50', '34'], '45 55': ['57', '33', '33', '33', '57', '57'], '48 53': ['48', '48', '48', '48', '48', '63', '41', '41', '41', '41'], '55 41': ['43'], '34 34': ['46', '46', '46', '46', '41', '46', '39', '51', '56', '46', '46', '46', '46', '46'], '50 36': ['38'], '62 49': ['50', '50', '50'], '43 53': ['55', '55', '43', '55', '55'], '43 58': ['55', '63'], '36 46': ['48'], '53 39': ['41', '41', '51'], '60 41': ['48'], '86 46': ['74'], '86 88': ['76', '76', '76', '88', '86'], '74 88': ['86', '76'], '88 72': ['81', '84'], '57 64': ['60', '60'], '57 59': ['56', '64'], '63 64': ['72', '72', '72', '67', '67'], '79 66': ['78'], '81 78': ['66', '86', '81', '81', '90', '82', '72', '74'], '76 86': ['74', '79', '79', '79'], '79 88': ['88', '88', '91', '91', '88', '88'], '74 83': ['74', '74', '83', '74', '74', '83', '83', '83', '83'], '75 86': ['87', '87', '79'], '78 76': ['79', '79'], '88 71': ['74', '74', '74'], '72 62': ['63', '65', '67', '67'], '86 72': ['84', '84', '76', '76'], '66 77': ['78', '78', '77', '77', '77', '72', '72', '77'], '66 74': ['78', '78', '74', '74'], '79 69': ['76', '67', '81', '79', '69', '69', '69', '75', '70', '81', '81'], '76 81': ['67', '69', '81', '69', '81', '69', '72', '81', '72', '81', '72', '72', '81', '81', '70', '77', '81', '88', '72'], '83 72': ['78', '79'], '78 74': ['78', '81', '77', '68', '78', '78', '81'], '66 76': ['65', '72', '72', '72', '72', '72', '74', '74', '72', '72', '76'], '64 84': ['76'], '87 89': ['78'], '90 89': ['86'], '87 77': ['78'], '90 91': ['88'], '91 81': ['88', '79', '93'], '88 93': ['79'], '91 88': ['93', '88', '88', '79'], '78 86': ['90'], '87 86': ['77'], '78 89': ['90'], '87 91': ['88'], '88 91': ['93', '79', '79', '79', '79'], '88 81': ['79', '93', '93', '93', '93', '88'], '83 81': ['84', '81'], '91 93': ['91', '88'], '89 88': ['89'], '93 88': ['81', '81', '81', '81'], '91 79': ['88', '88', '88', '88', '88', '88', '82', '94', '86', '68', '62', '68'], '78 90': ['87', '87', '81', '82', '81'], '94 93': ['94'], '95 86': ['91', '91'], '84 90': ['95'], '95 84': ['90'], '93 93': ['84'], '90 86': ['90'], '86 89': ['77'], '88 84': ['79', '72'], '78 88': ['77'], '76 62': ['62'], '84 74': ['86', '80', '74'], '74 84': ['72', '80', '77', '72', '80'], '88 83': ['83', '88'], '65 76': ['65', '76', '74', '76', '76', '76', '74', '76', '74', '76', '76', '76', '74', '74', '74'], '61 64': ['62', '62', '62', '62', '57', '64', '64'], '64 61': ['62', '62', '64', '64', '64', '61', '58', '61', '58'], '63 66': ['64', '64', '64', '64', '63', '75', '75', '67', '54', '54', '72', '70', '58'], '76 65': ['65', '65', '65'], '64 62': ['65', '65', '64', '50', '56', '56'], '66 64': ['67', '67', '64', '64', '64', '64'], '71 73': ['70'], '73 71': ['74'], '71 65': ['74', '74', '65', '65', '65', '65', '65', '65', '62', '91', '74', '65', '74', '72', '62', '62'], '62 72': ['64', '62', '66', '62', '72', '72'], '50 52': ['48'], '44 45': ['43', '57', '57', '55'], '52 48': ['55', '60', '55', '55', '60', '55', '55', '60', '55', '55', '55', '55'], '60 52': ['55', '55', '55', '55', '55', '55', '55'], '40 57': ['52', '52', '52'], '57 55': ['45', '45', '45', '45', '57', '43', '43', '43', '61', '43', '43', '43', '43', '63', '55', '57'], '44 57': ['56', '56', '56', '56', '56', '56', '56', '56', '56', '45', '45'], '48 50': ['36', '48', '48', '48', '50'], '50 60': ['50', '57', '38'], '52 43': ['40', '40'], '41 64': ['41'], '50 40': ['38'], '41 52': ['41', '53', '53'], '54 57': ['60', '57', '60', '60', '60', '60', '60', '63', '63', '63', '63', '45', '45'], '65 41': ['60', '60', '60', '53', '61'], '58 65': ['53', '38', '53', '58', '60', '65', '46', '46', '46', '46'], '38 65': ['38', '38'], '50 65': ['50'], '59 56': ['62', '51', '56', '53', '50', '53', '52', '52', '52'], '65 48': ['57'], '65 58': ['62', '62', '74'], '65 38': ['57'], '45 65': ['45'], '57 44': ['45', '45', '45', '45', '45', '56', '56', '56', '56'], '38 52': ['50', '50', '50', '40', '40', '40'], '65 46': ['58', '53', '53', '53', '53', '58'], '65 45': ['62'], '50 58': ['50', '50', '38', '50', '46', '50', '68'], '44 55': ['56', '43', '43', '43', '43'], '59 52': ['62', '56', '56'], '49 38': ['37'], '41 29': ['29'], '60 50': ['50'], '59 43': ['55'], '53 55': ['59', '53', '53', '41', '41', '41', '53', '41', '53', '41', '54', '54', '41', '60', '43', '43'], '45 53': ['45', '45', '45', '45', '57'], '43 52': ['43', '43', '43', '55', '55'], '53 47': ['55', '59'], '51 54': ['51', '42', '63'], '48 59': ['60', '60'], '82 74': ['82', '82', '82', '82', '82', '82', '72', '72', '74', '70', '79', '75', '75', '77', '77'], '62 67': ['62', '66', '74', '63', '58', '68', '62', '62', '67', '67'], '67 62': ['70', '67', '74', '70', '74'], '81 86': ['86', '77', '84', '74'], '66 62': ['74', '67', '62', '60', '62', '62'], '73 79': ['79', '79', '79', '79', '85'], '69 62': ['77'], '74 78': ['86', '86', '77', '72'], '86 80': ['86'], '89 80': ['89', '89', '80', '80', '80'], '87 79': ['87', '75', '75', '79'], '68 79': ['74', '64'], '80 86': ['74', '74'], '80 89': ['77', '77', '89'], '79 87': ['75', '75', '75', '84', '87', '87', '72'], '80 72': ['84', '84', '80', '80', '80', '80', '72', '75', '70', '75', '70', '75', '68'], '82 67': ['79'], '53 48': ['57', '57', '57', '57', '57', '57', '53', '57', '41', '41', '41', '36', '36', '48'], '49 55': ['49', '49', '49', '49'], '57 51': ['60'], '51 57': ['51', '51', '57'], '49 63': ['61', '61', '61'], '51 34': ['39', '39'], '56 46': ['58', '58', '58'], '50 56': ['50', '50', '53', '53', '53', '53', '59', '56'], '56 58': ['62', '62', '62', '62', '62', '62', '62', '62', '62', '62', '62', '44'], '39 46': ['39', '43', '43', '34'], '40 46': ['40', '62'], '69 64': ['67', '72', '72', '67', '72', '72', '64', '64', '72'], '76 73': ['66', '66', '70', '76', '76', '76', '84', '82', '73'], '83 88': ['88', '88'], '77 83': ['77', '86', '83', '83', '77', '86', '78', '83', '83', '83', '83', '83'], '73 76': ['67', '67', '67', '67', '74', '74', '76', '85', '73', '73', '67', '67'], '83 77': ['71', '71', '89', '74', '74', '77', '77'], '31 31': ['43', '43', '43', '43', '43', '43', '43', '43', '43', '43', '43', '43', '43'], '33 45': ['57', '57', '57', '46'], '61 57': ['50', '50', '50', '61', '61', '55'], '55 45': ['43', '43', '43', '57', '57'], '43 36': ['55', '55', '55', '36'], '45 33': ['33', '33', '33'], '47 35': ['35', '48', '47', '35', '47', '36', '47'], '50 39': ['38', '38', '38', '51', '51', '51'], '37 48': ['49', '36', '36', '36'], '47 55': ['35'], '35 47': ['55', '48', '48', '35'], '33 33': ['45'], '57 61': ['64', '52', '52', '55', '55', '61'], '45 50': ['57', '45', '45'], '38 54': ['60', '60'], '36 67': ['66'], '63 77': ['72'], '66 70': ['65'], '65 81': ['77'], '85 84': ['85', '84'], '88 90': ['98', '90'], '96 94': ['94'], '96 93': ['93'], '61 69': ['69'], '74 63': ['72', '60'], '69 61': ['67', '67'], '77 62': ['65', '68', '65', '68', '65'], '85 86': ['88'], '98 90': ['98'], '94 94': ['93'], '93 94': ['98'], '93 98': ['91'], '91 98': ['67'], '66 79': ['78'], '65 86': ['65'], '70 63': ['65', '70', '60', '67', '70', '70', '68', '63', '72', '63'], '82 66': ['70'], '79 86': ['79', '98', '91', '79'], '98 86': ['82'], '87 94': ['99'], '80 92': ['87', '80', '92', '80', '92', '92', '92', '80', '92', '80', '92', '80'], '99 81': ['93'], '86 98': ['81'], '86 93': ['91'], '62 68': ['62', '68', '65', '68', '65', '72', '65', '71', '71', '68', '58'], '67 82': ['74', '67', '67', '82', '67'], '94 78': ['82'], '91 85': ['73', '73'], '73 84': ['72', '72', '85'], '73 83': ['71', '71', '76', '84'], '72 83': ['71', '71'], '90 84': ['86', '90'], '86 90': ['87'], '58 69': ['70'], '72 58': ['63'], '60 70': ['68', '72', '72'], '68 64': ['67', '70', '74', '74', '76', '64', '70', '68'], '57 67': ['63', '63', '63', '63', '48', '48', '48', '48'], '90 81': ['78'], '87 72': ['84', '84', '84'], '67 78': ['79'], '82 94': ['98', '73'], '87 99': ['80'], '93 81': ['86'], '98 98': ['86'], '98 91': ['79'], '90 78': ['91'], '81 90': ['82'], '82 90': ['94'], '79 94': ['79'], '91 94': ['88'], '91 76': ['79'], '81 70': ['75', '74'], '83 75': ['71'], '58 68': ['58', '58', '62'], '81 74': ['69', '69', '83', '79', '84'], '81 73': ['69'], '85 83': ['70'], '78 65': ['66'], '82 58': ['62'], '67 55': ['54'], '62 48': ['60'], '47 62': ['59'], '58 50': ['53', '38', '38'], '49 50': ['61', '38', '50'], '59 48': ['48'], '41 65': ['41', '64'], '46 59': ['47'], '58 41': ['41', '41', '41', '41', '41'], '52 49': ['49'], '78 81': ['72', '72', '81', '81'], '55 79': ['43'], '45 38': ['50'], '50 47': ['59', '35'], '47 46': ['59', '47', '47', '59'], '48 63': ['55'], '39 43': ['51', '55'], '45 56': ['57', '44', '44'], '56 57': ['44', '43', '60', '45', '45', '45', '45', '57', '57', '45'], '50 63': ['62'], '54 58': ['42', '47', '61', '61', '61', '61', '42', '42', '56', '66'], '64 40': ['58'], '57 66': ['60'], '34 48': ['46'], '34 39': ['51'], '51 43': ['51', '51', '61'], '43 39': ['46', '46', '55'], '66 55': ['43', '58'], '39 55': ['51'], '40 64': ['58'], '48 34': ['46'], '34 58': ['56', '62'], '38 39': ['50'], '54 61': ['58'], '36 47': ['35', '35'], '37 38': ['50'], '35 35': ['47', '47'], '62 56': ['62', '58', '64', '64', '51'], '43 56': ['55', '55', '55'], '39 34': ['46'], '51 38': ['39', '39', '39'], '39 41': ['42'], '51 59': ['56'], '59 35': ['47'], '35 36': ['48'], '34 47': ['46'], '46 41': ['53'], '63 34': ['46'], '35 34': ['46'], '46 27': ['39'], '84 39': ['80'], '62 71': ['67', '65', '68'], '84 77': ['89', '89', '77', '77', '84', '84', '84', '84', '84', '77', '82'], '71 91': ['79', '79'], '89 63': ['77', '77'], '87 68': ['63', '63'], '66 80': ['87', '87'], '85 87': ['72', '72'], '66 68': ['73', '72', '87', '73', '72'], '92 94': ['73', '73'], '64 68': ['92', '94', '92', '73', '64', '70', '68', '63', '71', '71', '71'], '63 80': ['84', '84'], '73 87': ['67', '67', '77'], '63 87': ['82', '82'], '63 73': ['67', '67', '67'], '82 83': ['63', '63'], '84 63': ['73', '73'], '63 84': ['74', '74'], '79 65': ['77', '77'], '61 75': ['75'], '71 62': ['71', '71', '62', '62', '68', '65'], '89 71': ['62'], '91 68': ['62'], '82 63': ['72'], '87 80': ['72', '75', '87'], '85 72': ['66'], '65 85': ['82'], '92 73': ['64'], '92 68': ['80'], '89 72': ['63'], '89 68': ['87'], '82 87': ['73'], '63 83': ['67'], '73 63': ['67', '67'], '70 61': ['67', '61'], '60 68': ['75', '60', '75'], '85 89': ['79'], '89 79': ['87'], '87 85': ['85', '85', '85'], '89 87': ['87', '87'], '85 75': ['75', '87'], '77 92': ['80'], '92 80': ['77', '92', '80', '92', '80'], '87 73': ['85'], '68 63': ['68', '68', '75', '75', '72', '70', '75', '72', '72', '72'], '66 73': ['75'], '77 87': ['75', '87', '75'], '69 82': ['70', '70'], '83 89': ['89'], '82 89': ['89'], '68 76': ['73', '72', '72'], '76 75': ['73'], '92 77': ['89'], '72 85': ['73'], '89 83': ['77'], '89 82': ['78'], '85 82': ['82', '85'], '77 66': ['72'], '78 85': ['82', '82', '82'], '75 85': ['77', '78', '78', '78', '77', '78', '78'], '73 78': ['82', '82', '82', '66'], '78 73': ['82'], '61 41': ['61', '61'], '29 29': ['41', '41', '41'], '59 50': ['53', '53', '53', '53', '47', '55', '47', '55', '53', '53', '56'], '56 54': ['60', '60'], '54 56': ['54', '54', '60', '60', '60', '60', '60', '60', '44'], '52 56': ['52', '52', '56', '56', '62', '62'], '48 44': ['36'], '54 48': ['56', '56'], '49 54': ['37', '37', '37', '37', '37', '37'], '49 39': ['37', '37'], '54 44': ['56', '56', '56', '56'], '51 40': ['39', '39', '39', '39', '39'], '57 52': ['45', '44', '45', '44'], '76 78': ['78'], '62 66': ['66', '66', '72'], '69 59': ['62', '62'], '59 71': ['71', '74'], '71 81': ['74', '77', '77'], '70 81': ['76', '76', '79'], '72 86': ['81'], '86 81': ['77', '86', '86', '86', '86'], '69 83': ['71', '71'], '76 66': ['76'], '54 43': ['42'], '62 54': ['57'], '59 45': ['47'], '52 41': ['40', '40'], '50 43': ['55', '55', '43', '43'], '40 55': ['40', '40'], '42 52': ['54', '54'], '40 50': ['52'], '42 60': ['54', '66'], '39 40': ['51', '51'], '50 45': ['53'], '40 41': ['52'], '45 43': ['45'], '48 47': ['48'], '48 67': ['76', '53', '53', '53', '53'], '60 74': ['62'], '55 67': ['64', '65', '64', '65'], '83 78': ['83'], '76 83': ['84', '80'], '67 81': ['71'], '81 80': ['81', '79', '81', '81', '79', '81', '81', '79', '81'], '74 85': ['81'], '81 55': ['55'], '60 36': ['48'], '55 49': ['37'], '59 57': ['45'], '64 51': ['63', '63', '63'], '37 50': ['38'], '39 52': ['40', '40', '40'], '59 41': ['53'], '75 65': ['72', '72', '72', '72', '72', '72'], '86 78': ['86', '86'], '66 81': ['69', '81', '69'], '72 87': ['72', '87', '72', '70'], '60 79': ['61', '61', '61', '61'], '66 53': ['72', '72'], '84 85': ['81', '81'], '59 60': ['60', '60'], '67 48': ['53', '53', '53', '53'], '50 42': ['54'], '34 38': ['50'], '38 55': ['43', '43'], '55 34': ['46'], '41 46': ['34'], '50 35': ['47'], '43 45': ['45'], '35 48': ['36'], '47 48': ['60'], '47 36': ['48'], '58 49': ['53'], '49 33': ['45'], '51 49': ['37', '37'], '67 53': ['57', '57', '57', '57'], '75 46': ['63'], '71 64': ['76', '64', '64', '68', '68'], '83 92': ['92', '80'], '83 76': ['80', '83'], '92 83': ['83', '80', '92'], '80 87': ['89'], '77 64': ['68'], '79 63': ['79'], '85 79': ['82'], '65 78': ['69'], '63 61': ['63'], '79 85': ['79', '82'], '79 68': ['67'], '63 76': ['75'], '64 71': ['76', '64', '68', '68', '68', '68'], '76 85': ['73'], '85 76': ['73', '73', '73', '76'], '68 62': ['62', '70', '68', '70', '65', '65', '65', '58'], '39 75': ['51'], '47 44': ['44'], '47 56': ['47', '44', '44'], '59 68': ['59', '56'], '56 68': ['68', '59', '56', '68'], '53 59': ['50', '56'], '59 53': ['56', '50', '59', '56', '50'], '52 59': ['56'], '46 45': ['58', '58'], '45 58': ['46', '46'], '61 39': ['51', '51', '51'], '44 39': ['32'], '68 59': ['59', '56'], '68 56': ['68'], '39 61': ['55'], '43 44': ['55'], '45 46': ['58', '58'], '45 41': ['57'], '46 39': ['51'], '63 56': ['60', '60', '63', '56', '39'], '39 63': ['51', '66'], '68 53': ['59'], '50 59': ['56', '56'], '56 52': ['59'], '38 37': ['50'], '53 66': ['56'], '65 37': ['61', '61'], '41 68': ['58'], '58 66': ['63', '63'], '42 66': ['63', '63'], '39 48': ['36'], '38 68': ['58'], '66 58': ['42'], '57 39': ['45'], '39 45': ['57'], '56 48': ['60'], '48 61': ['49']}
.....67 67
[
69
69
76
65
69
76
65
71
77
72
72
71
77
72
76
72
72
71
71
59
59
72
72
64
65
64
70
70
66
75
70
70
66
75
75
72
69
70
65
64
64
70
70
59
65
65
65
65
70
70
59
61
76
76
66
64
64
64
64
64
64
65
65
70
62
69
65
75
75
71
72
72
72
72
69
73
69
69
73
69
69
73
64
76
70
77
64
76
70
70
64
76
72
72
72
72
69
73
65
74
74
61
60
74
63
63
63
65
73
70
70
68
70
62
79
62
73
70
70
68
73
79
67
72
73
72
72
72
66
61
62
66
61
62
72
72
70
64
79
79
69
69
79
69
69
64
65
65
69
66
69
70
69
74
66
69
69
69
66
69
74
74
76
76
65
65
79
77
]
.....67 69
[
71
67
79
67
71
71
70
70
67
67
69
69
69
69
69
69
69
69
70
61
60
60
60
69
69
60
74
67
67
67
67
67
74
67
67
67
]
.....71 69
[
71
69
69
72
69
69
69
69
71
71
71
71
]
.....71 71
[
77
68
68
76
74
76
67
71
80
71
68
69
64
65
72
70
77
77
71
74
72
69
69
74
72
69
69
74
70
77
77
71
74
67
79
67
68
89
67
89
68
69
70
69
76
67
69
70
69
76
67
79
77
77
83
83
83
83
83
83
79
72
79
72
79
72
79
72
74
74
70
72
72
64
]
.....77 71
[
76
77
77
77
69
77
69
79
79
72
75
75
72
75
72
75
75
75
72
72
72
72
74
74
68
81
71
77
83
77
83
71
71
81
81
]
.....77 76
[
74
72
72
80
82
82
82
82
76
76
77
74
74
80
72
72
70
70
76
76
69
77
68
69
]
.....74 76
[
79
76
76
76
74
88
76
74
74
71
65
65
65
76
65
76
65
65
65
65
70
]
.....67 71
[
67
77
77
59
71
67
77
62
67
67
74
76
74
76
79
71
67
67
74
]
.....69 71
[
71
71
71
68
68
68
68
72
71
77
71
71
77
71
]
.....72 72
[
74
63
75
75
75
76
74
63
75
75
75
76
76
76
76
77
64
77
77
67
77
70
75
69
72
69
69
72
69
69
72
69
74
74
68
75
75
68
75
68
82
68
75
75
68
80
70
69
69
72
69
74
72
72
72
72
81
81
74
69
70
70
70
70
79
69
84
84
76
76
76
69
67
76
77
68
72
70
66
84
81
69
66
75
75
71
75
75
71
70
70
63
74
74
79
74
74
75
80
79
64
76
67
76
71
76
64
69
76
74
74
76
74
74
76
76
76
72
76
64
75
72
75
66
74
64
76
67
76
71
76
64
69
76
75
75
60
75
67
69
75
77
77
84
77
75
79
84
77
76
73
77
75
84
73
67
71
74
60
60
76
76
76
76
76
76
65
74
60
67
76
66
76
76
76
65
72
69
72
69
74
74
76
76
76
65
74
60
67
76
66
72
77
76
70
65
77
79
72
84
84
84
84
76
84
84
76
76
79
76
76
76
76
79
76
76
74
75
74
77
74
75
74
77
76
77
76
70
77
72
74
73
75
76
84
77
73
77
65
67
73
73
67
70
70
74
70
70
70
70
70
74
72
73
74
73
73
74
73
84
73
71
69
70
84
80
67
73
73
67
75
65
75
68
75
77
75
62
75
]
.....75 75
[
76
76
79
79
79
87
84
79
72
79
67
79
84
87
79
69
81
81
70
68
72
72
71
67
74
72
72
72
72
72
73
73
70
74
74
74
77
74
72
84
84
84
79
79
72
79
79
72
74
70
72
72
74
77
79
79
72
68
77
68
77
77
68
77
68
77
77
67
79
79
72
72
72
76
76
72
72
79
79
69
79
69
79
84
72
62
68
79
68
72
68
72
62
65
72
72
87
72
80
76
70
69
69
70
74
74
76
72
70
69
69
70
63
63
84
80
82
79
68
72
70
70
77
68
68
77
68
68
]
.....76 77
[
77
77
77
77
65
76
65
65
82
82
80
80
80
80
77
77
77
77
79
79
89
79
73
77
73
77
73
73
73
74
74
73
77
72
]
.....79 79
[
81
74
77
79
81
74
77
79
79
79
77
83
77
74
79
79
83
79
84
75
75
67
75
84
71
84
77
75
77
84
71
84
78
76
76
76
84
77
77
77
72
72
77
77
77
77
78
77
67
81
71
88
88
78
77
72
77
72
75
74
67
74
74
77
72
77
72
75
75
75
82
75
75
75
75
82
75
80
75
75
76
76
76
76
76
72
70
67
76
76
76
78
69
82
82
75
69
91
74
82
77
82
82
89
82
73
81
73
81
81
81
74
67
76
74
67
81
76
76
71
77
81
83
72
72
84
84
69
82
83
69
82
83
81
81
83
81
83
72
76
67
76
76
67
76
67
79
79
72
67
79
79
72
67
67
81
81
84
81
84
81
80
74
77
81
80
80
74
77
76
87
87
69
74
69
74
70
73
75
70
]
.....81 84
[
84
84
80
80
83
77
84
77
84
80
84
84
84
84
81
84
84
69
81
84
84
84
81
81
81
81
75
76
76
76
76
72
75
79
80
79
80
84
75
75
72
77
81
77
]
.....81 81
[
83
79
72
83
79
72
86
86
79
79
82
79
86
79
80
82
79
86
79
79
79
72
84
77
77
82
77
69
77
76
77
76
69
77
69
77
72
69
84
76
84
76
77
76
76
69
84
84
69
84
72
72
72
72
70
72
70
77
70
72
70
77
77
72
81
81
81
81
81
81
77
75
77
75
77
75
78
84
76
75
78
86
86
84
84
82
76
78
84
82
78
84
82
]
.....83 84
[
84
84
84
84
84
84
84
84
86
]
.....86 86
[
77
77
77
77
83
83
83
74
74
82
76
81
82
76
81
74
84
84
77
77
83
74
74
80
80
80
83
83
98
87
81
84
81
81
84
81
84
78
78
78
78
]
.....77 81
[
81
81
77
77
81
72
89
71
81
72
89
71
77
84
79
79
81
81
81
77
74
77
74
81
81
77
81
77
69
82
74
74
72
84
81
71
81
72
72
71
71
72
72
72
72
72
77
72
]
.....74 75
[
75
75
80
75
70
70
74
74
74
70
75
75
82
75
63
75
63
75
75
63
74
74
]
.....76 76
[
75
77
72
75
77
72
72
72
72
72
79
72
72
72
72
71
72
72
72
72
79
74
66
77
79
79
82
82
79
74
74
77
84
81
77
88
67
72
79
76
79
72
67
72
72
67
72
72
69
67
67
69
67
67
67
74
76
79
72
67
72
72
67
72
72
79
73
71
67
72
78
65
79
72
65
72
69
69
65
74
74
69
67
78
65
79
72
74
64
74
79
79
74
79
79
74
79
77
67
67
67
67
71
77
75
77
]
.....75 76
[
76
76
64
64
76
67
67
77
]
.....77 77
[
79
74
79
74
71
74
71
74
69
74
69
72
67
80
65
77
74
75
74
80
80
65
65
72
79
74
80
69
77
77
79
80
86
86
86
65
80
80
73
80
77
70
70
85
79
79
74
76
79
76
79
76
74
76
75
75
78
86
79
75
79
75
81
76
75
79
65
65
86
81
76
81
69
69
79
64
79
74
75
75
79
64
79
74
75
75
74
79
64
79
74
79
80
83
71
69
69
69
69
74
74
83
71
65
69
74
77
79
80
79
81
77
74
65
73
73
72
73
74
65
66
73
72
73
73
75
65
66
76
74
74
81
79
79
72
79
75
81
81
72
81
65
82
73
74
75
82
74
77
68
65
80
]
.....79 81
[
81
81
77
77
81
81
79
76
83
76
81
81
81
74
76
69
69
69
69
69
69
69
72
81
81
77
]
.....84 84
[
81
86
81
86
88
72
77
78
72
72
80
80
86
83
86
86
86
86
83
86
78
81
81
84
84
88
82
82
86
76
76
76
76
76
88
81
76
76
76
72
72
72
79
72
72
82
75
82
75
79
86
79
79
76
79
75
77
72
72
80
75
75
76
77
72
76
79
79
72
72
72
72
72
72
79
72
77
79
81
72
74
81
81
72
81
75
75
72
]
.....81 83
[
83
83
79
]
.....86 77
[
77
77
74
75
89
75
74
]
.....79 74
[
74
74
77
74
74
70
82
82
79
79
79
79
62
68
79
83
74
71
81
71
71
81
71
71
71
71
79
79
79
82
79
82
79
79
]
.....77 74
[
74
74
74
74
71
70
70
70
77
77
70
77
68
70
70
74
74
74
74
74
74
74
65
65
65
65
86
86
86
86
86
86
86
86
86
76
76
77
76
76
77
77
77
74
77
77
80
80
74
74
74
74
78
77
74
70
74
78
76
77
74
77
74
70
77
82
70
81
81
69
74
74
83
74
74
83
74
74
74
74
74
74
74
77
74
68
74
77
74
68
68
74
74
74
74
77
72
74
74
74
75
]
.....68 69
[
69
69
69
69
77
68
77
69
73
73
68
69
69
69
69
69
69
67
67
68
]
.....74 71
[
71
71
71
67
71
71
67
74
71
62
83
83
83
72
73
74
70
77
65
65
71
72
72
64
71
65
65
71
64
64
83
83
83
79
65
71
67
67
71
67
67
65
79
74
79
79
74
79
79
79
79
74
]
.....68 68
[
69
69
77
80
63
72
60
72
60
77
77
75
77
77
80
69
69
69
69
69
69
66
66
66
67
67
62
70
80
75
77
70
60
61
61
70
80
75
77
70
60
73
68
68
80
64
64
65
65
67
77
71
80
75
71
80
80
77
75
70
80
80
77
70
38
39
]
.....69 60
[
69
69
69
72
69
69
]
.....60 69
[
63
63
69
69
60
60
]
.....75 66
[
75
75
75
75
75
75
75
72
67
67
64
74
64
78
66
66
72
66
66
72
75
]
.....66 69
[
78
78
81
66
69
69
69
70
67
67
72
62
66
66
74
66
]
.....69 78
[
72
67
72
67
75
69
75
69
78
78
72
]
.....84 75
[
84
84
75
84
75
68
79
79
75
72
72
72
72
72
80
75
84
84
]
.....75 78
[
87
87
66
66
66
66
69
68
70
66
66
66
68
82
82
79
79
78
78
75
78
70
]
.....78 87
[
81
81
77
76
90
90
77
76
87
87
]
.....90 90
[
81
68
81
68
]
.....84 80
[
87
87
80
75
84
72
77
80
72
84
80
80
]
.....92 92
[
80
80
80
80
80
]
.....87 84
[
75
67
75
67
84
63
87
]
.....84 87
[
90
90
90
90
90
90
87
]
.....87 90
[
84
84
]
.....72 75
[
84
84
63
63
66
66
63
77
71
71
75
70
72
77
72
71
77
73
68
72
72
73
71
71
71
77
75
75
72
77
66
75
66
72
84
84
72
72
84
69
72
69
72
72
79
79
70
75
75
66
75
69
75
69
69
75
81
72
79
87
84
74
82
78
77
84
72
71
71
72
75
66
75
75
68
68
68
78
78
66
75
78
78
72
81
72
72
72
70
72
63
75
72
75
77
75
75
75
75
75
75
80
70
75
72
80
72
68
80
75
70
68
]
.....90 87
[
84
72
84
72
78
78
]
.....84 68
[
87
87
75
]
.....84 88
[
91
91
88
76
76
76
76
91
84
]
.....72 88
[
91
91
76
]
.....84 67
[
72
72
]
.....76 64
[
91
91
77
77
64
76
72
72
76
76
63
75
]
.....91 64
[
88
88
]
.....64 88
[
67
67
]
.....76 72
[
84
84
84
84
69
79
76
76
67
69
71
84
67
64
67
67
64
67
67
64
67
82
84
67
84
67
67
84
67
84
84
84
84
84
76
84
84
84
84
76
67
76
79
67
67
66
81
79
74
72
72
72
76
72
69
72
72
74
74
67
79
72
72
72
76
72
69
76
77
72
72
72
76
72
76
72
67
72
66
66
76
72
72
72
72
72
79
72
76
79
79
76
79
79
76
79
79
76
79
79
76
76
76
70
76
70
67
]
.....84 64
[
79
79
65
65
65
]
.....76 67
[
72
72
67
71
74
79
79
79
79
72
72
72
72
64
72
64
64
76
76
76
67
64
72
64
64
64
73
72
72
72
67
]
.....79 72
[
78
75
78
75
84
84
77
84
77
84
77
84
76
84
72
67
79
79
70
84
72
84
84
84
72
72
72
84
84
84
84
72
79
71
79
71
72
79
79
79
]
.....62 81
[
62
62
]
.....69 72
[
81
81
76
76
76
76
76
76
77
72
65
65
69
65
69
65
69
77
71
73
72
72
69
69
77
72
84
69
84
67
64
64
76
74
69
74
69
72
76
65
72
76
65
72
66
72
66
72
66
72
72
69
69
72
76
65
72
76
65
72
66
72
72
70
70
70
69
70
69
69
63
72
72
70
63
66
65
65
72
66
66
72
70
69
60
60
69
69
77
77
69
77
69
72
63
72
69
]
.....71 77
[
86
86
71
71
77
77
77
72
72
72
75
77
79
69
70
77
69
70
77
79
65
65
89
89
89
71
81
]
.....77 86
[
77
77
86
76
86
83
89
76
86
83
76
82
82
79
79
]
.....84 76
[
72
72
72
72
72
72
72
72
72
72
72
72
72
79
84
72
73
81
76
81
76
84
]
.....67 60
[
60
60
60
60
60
67
72
67
67
67
63
]
.....67 72
[
72
72
76
76
76
76
64
76
76
76
76
76
76
70
64
64
64
61
70
68
75
72
79
79
67
79
72
67
69
72
72
72
64
72
66
72
72
72
76
72
66
72
75
75
60
76
76
67
64
76
76
67
76
76
76
67
64
72
67
76
76
76
67
76
72
76
76
72
72
67
72
72
67
72
63
63
]
.....74 74
[
76
76
71
71
71
79
62
70
70
77
70
77
62
70
70
74
79
71
80
86
72
72
74
72
83
77
77
69
77
72
72
79
72
72
73
70
72
70
72
75
65
77
86
77
77
79
77
79
71
70
70
70
70
73
79
72
78
79
72
75
79
72
75
75
73
77
70
70
76
76
77
77
71
66
70
73
76
70
70
77
77
75
78
75
75
73
72
72
72
72
73
76
72
72
71
71
76
79
73
72
72
86
70
72
72
65
67
72
72
69
72
76
71
76
77
77
86
78
79
79
77
65
65
79
77
77
77
81
72
82
75
67
75
81
72
72
82
82
82
82
65
65
79
77
77
77
72
77
]
.....78 78
[
79
75
75
75
79
75
75
75
79
67
78
75
75
75
75
79
81
75
75
79
74
77
68
66
79
79
79
79
79
79
79
79
82
72
77
75
65
72
72
]
.....80 80
[
75
75
75
75
74
79
79
77
77
81
81
81
81
68
68
68
68
82
68
68
77
72
75
75
73
84
77
77
68
75
92
92
68
68
77
70
68
77
81
81
75
75
75
76
76
81
81
73
92
92
84
75
68
80
75
75
68
]
.....72 78
[
75
75
84
83
69
81
75
75
81
81
81
66
78
]
.....78 72
[
75
75
82
82
82
72
71
72
66
72
81
80
84
]
.....72 79
[
76
76
75
72
84
69
69
69
69
72
69
84
84
75
87
82
76
79
79
79
79
76
72
72
79
79
77
76
82
82
79
]
.....72 67
[
67
67
67
67
67
70
70
69
76
76
76
76
67
79
72
76
76
64
75
75
71
67
69
69
76
71
67
75
60
63
64
68
64
68
72
76
76
67
76
67
65
72
76
67
76
67
64
72
72
72
72
77
72
77
76
75
75
75
70
70
70
70
75
75
75
]
.....66 60
[
69
69
56
39
60
60
56
56
39
63
56
60
]
.....69 66
[
60
60
72
72
66
69
66
66
69
78
78
62
69
66
66
69
69
]
.....74 65
[
74
74
65
65
77
72
65
74
74
72
77
65
77
65
77
65
65
77
72
74
77
69
69
69
69
67
76
74
72
74
74
72
74
72
74
74
72
65
70
74
74
74
62
62
62
62
62
82
]
.....65 65
[
74
74
77
77
69
69
72
77
77
77
70
68
68
59
64
64
59
59
59
59
59
59
59
59
74
63
63
77
63
63
60
60
68
69
68
68
53
53
61
53
56
49
53
53
61
61
53
74
74
67
69
64
64
67
69
84
74
74
82
74
82
74
77
74
60
60
60
60
60
59
60
60
60
60
60
62
74
62
62
60
60
56
60
57
72
74
74
71
69
69
65
67
67
67
67
71
60
60
59
60
60
59
59
59
59
59
59
60
59
59
59
59
59
59
59
59
60
60
59
60
60
59
59
59
77
77
62
56
77
67
77
77
77
69
77
69
77
61
61
61
61
59
60
60
60
59
59
59
60
59
59
59
60
59
71
71
60
59
60
59
59
59
60
59
59
59
59
60
59
60
59
60
60
60
60
63
75
70
63
62
70
77
75
65
65
65
65
63
75
70
63
62
70
77
75
61
65
48
58
]
.....65 74
[
65
65
74
74
74
74
70
77
77
70
71
77
65
65
69
69
69
69
77
76
72
70
70
70
70
71
71
71
71
74
74
74
62
65
65
74
]
.....72 64
[
72
72
70
70
70
70
70
70
70
64
72
64
72
64
72
64
72
64
72
72
64
72
64
72
64
72
69
64
72
64
72
76
72
72
64
72
72
64
72
64
72
64
72
64
64
72
67
72
72
67
70
70
60
77
77
]
.....64 66
[
66
63
63
]
.....64 79
[
79
]
.....83 79
[
91
79
91
79
79
74
72
79
79
79
83
83
]
.....91 83
[
79
79
]
.....89 89
[
86
86
77
80
80
80
80
77
80
77
76
]
.....86 83
[
83
83
]
.....72 76
[
69
67
69
67
72
72
69
67
69
67
72
72
76
72
76
76
70
67
70
67
70
67
82
84
76
65
76
76
74
74
84
64
64
64
79
74
74
62
88
74
76
69
81
65
76
65
76
81
65
65
65
72
72
72
72
72
67
81
65
76
65
76
81
65
72
79
79
79
67
72
67
84
81
76
84
81
76
72
81
66
66
84
81
76
79
67
76
76
76
76
76
69
67
69
67
72
72
69
72
72
70
69
72
72
67
79
81
81
82
84
]
.....69 69
[
71
72
60
71
72
72
72
72
72
77
72
77
72
75
77
72
72
67
65
67
71
60
70
69
60
72
67
71
67
74
72
72
79
77
72
69
70
79
79
77
79
79
77
70
77
79
79
75
68
72
72
68
72
76
67
71
77
72
76
67
71
77
72
65
77
72
65
72
65
77
72
72
70
72
72
65
68
72
72
68
72
79
79
79
65
72
60
81
81
78
78
76
76
67
67
72
62
66
71
72
62
66
71
67
74
72
62
65
81
65
81
81
81
72
67
67
70
66
70
70
67
70
67
72
70
67
74
67
67
70
72
67
75
70
75
70
63
70
67
70
73
]
.....77 69
[
77
77
69
75
72
72
72
75
81
81
72
72
81
81
77
81
72
69
77
77
77
77
67
77
67
77
65
65
74
81
74
70
65
69
69
77
77
72
69
]
.....69 77
[
77
77
65
65
65
77
72
69
80
80
79
65
69
74
77
72
]
.....76 69
[
72
72
67
81
81
81
81
72
72
76
76
72
72
76
81
81
81
76
81
]
.....69 76
[
72
72
72
68
81
68
81
76
72
72
72
72
72
72
72
]
.....76 79
[
79
79
79
82
79
82
70
70
70
70
88
88
72
88
88
88
88
81
67
67
67
67
72
72
76
79
76
72
67
79
84
67
79
84
79
79
84
79
72
79
79
79
79
67
67
79
78
79
79
78
77
72
79
]
.....88 79
[
83
76
86
71
76
76
91
91
91
91
86
71
86
71
]
.....91 91
[
83
83
83
93
83
82
82
]
.....79 89
[
89
89
89
77
79
79
]
.....67 76
[
70
67
76
79
79
75
75
76
76
69
67
72
69
67
72
75
67
76
76
73
72
79
]
.....70 67
[
76
67
70
70
70
70
70
67
72
64
70
70
65
61
68
65
65
69
67
67
70
67
74
73
74
74
74
74
70
70
67
70
67
74
79
66
69
67
61
67
61
79
79
72
62
67
67
70
70
70
70
70
73
63
73
63
73
63
73
63
70
70
70
70
70
70
]
.....71 67
[
76
74
71
67
67
74
74
70
74
67
67
76
74
61
67
76
74
61
79
65
74
74
77
77
65
]
.....76 71
[
67
74
77
77
65
71
77
77
71
68
72
67
71
67
71
76
64
]
.....67 59
[
67
67
67
65
65
59
59
]
.....59 67
[
60
]
.....74 79
[
79
79
74
74
82
82
77
77
77
77
77
77
79
83
83
74
79
74
79
79
74
79
74
79
74
79
74
74
74
74
82
82
79
70
67
86
70
83
84
78
70
78
78
70
78
83
77
79
70
70
]
.....83 86
[
86
71
71
86
86
]
.....71 72
[
72
75
75
77
77
72
77
83
83
72
72
74
72
72
68
75
68
79
84
84
71
71
]
.....79 84
[
84
84
84
82
84
82
76
76
79
79
84
79
81
72
84
84
55
82
75
72
84
79
72
72
72
76
76
84
81
84
84
84
84
]
.....72 77
[
77
77
77
77
74
71
75
76
75
71
75
75
75
71
84
72
69
72
63
75
65
68
79
80
77
77
77
77
77
81
81
77
81
84
81
84
77
67
77
67
69
84
69
84
72
79
72
72
78
81
69
77
79
72
72
72
74
77
84
77
72
72
69
72
74
72
72
]
.....77 72
[
72
69
69
69
69
69
60
69
75
71
75
75
76
75
77
77
72
65
72
77
65
72
72
69
66
77
77
81
84
77
67
77
67
77
67
77
67
72
72
81
72
72
75
75
72
68
72
72
75
80
77
72
82
72
72
72
72
72
]
.....78 79
[
79
79
79
79
79
78
78
78
78
78
78
78
75
]
.....76 74
[
74
72
77
77
72
77
77
72
77
77
74
74
86
65
77
77
77
74
72
74
72
74
74
72
70
70
70
70
70
76
76
76
74
74
72
64
64
70
]
.....72 66
[
72
66
66
67
65
72
72
66
75
75
75
77
75
75
77
75
69
72
76
72
76
69
76
74
72
76
76
72
67
67
72
72
]
.....66 65
[
71
65
66
67
68
78
66
68
66
66
66
66
65
]
.....65 64
[
72
67
67
53
64
64
64
64
64
68
65
65
]
.....64 72
[
79
79
79
72
73
76
67
72
69
72
69
72
69
72
69
72
60
60
60
72
]
.....67 77
[
67
67
71
75
77
72
72
67
67
67
67
67
77
67
]
.....88 88
[
79
76
76
79
79
76
79
84
79
83
83
90
]
.....83 91
[
91
]
.....79 83
[
89
71
71
71
74
71
71
71
71
71
71
74
]
.....89 86
[
86
]
.....83 83
[
79
86
74
77
77
74
79
79
71
79
79
76
80
]
.....79 77
[
77
77
79
82
76
79
75
77
77
77
77
77
77
77
77
77
77
77
77
77
77
77
77
77
77
69
79
79
79
82
79
82
83
77
77
83
77
78
78
80
73
82
78
73
72
72
77
70
79
79
79
79
70
]
.....71 76
[
72
65
65
65
65
68
68
65
76
67
76
67
65
74
]
.....72 69
[
69
72
65
69
72
77
72
65
69
72
77
72
65
69
72
77
67
81
74
64
74
64
74
65
72
74
65
72
74
65
72
74
65
72
69
72
67
72
81
81
72
69
69
75
75
72
75
72
72
65
75
69
69
76
70
70
69
69
69
65
76
69
69
76
70
69
65
72
70
69
75
70
69
66
77
69
69
72
72
72
72
72
66
65
66
65
78
78
64
77
72
72
77
65
]
.....70 70
[
67
74
77
65
64
82
74
67
67
68
75
70
70
70
67
67
75
67
72
73
63
73
69
69
69
69
74
67
72
74
67
72
69
74
69
70
82
79
77
64
82
82
79
74
74
79
69
74
67
74
75
69
74
67
74
74
67
67
69
62
69
69
67
69
74
67
72
82
82
82
82
82
79
79
71
69
69
69
69
70
70
64
72
74
74
67
71
69
69
69
74
74
62
74
74
82
70
72
82
62
68
67
73
73
75
82
82
68
82
71
71
76
76
67
82
76
76
74
82
82
69
74
77
67
67
74
77
74
77
74
69
69
69
69
69
72
69
69
72
72
69
72
67
74
69
74
67
74
69
74
65
69
79
72
72
67
67
74
77
74
77
74
65
74
73
73
72
73
77
75
73
67
67
]
.....60 59
[
67
55
48
48
48
48
58
60
47
47
]
.....86 79
[
83
76
76
74
79
79
82
]
.....71 74
[
72
74
77
79
65
77
74
71
71
74
70
72
72
72
72
79
74
64
71
71
71
72
71
71
71
72
72
72
67
65
]
.....84 72
[
72
84
86
79
72
79
72
77
77
79
72
79
85
72
70
82
70
82
81
74
84
84
86
88
86
86
76
72
81
79
84
72
84
87
79
75
84
80
73
73
84
76
76
84
76
84
77
84
84
84
84
79
77
72
85
81
77
72
77
76
84
76
]
.....77 84
[
84
81
81
78
81
84
72
72
72
72
72
68
84
77
82
]
.....72 84
[
84
70
70
70
72
78
78
79
78
85
70
75
75
75
75
88
76
81
74
72
72
74
74
74
72
72
81
72
75
76
76
87
85
84
85
84
82
74
82
72
77
77
84
72
72
79
76
77
86
86
66
76
72
72
76
72
72
72
76
79
72
72
72
86
79
81
73
77
84
72
72
72
76
76
]
.....79 67
[
67
75
78
74
65
75
78
74
65
77
65
66
76
76
76
76
76
76
64
71
78
77
82
82
82
80
79
80
72
72
72
72
67
70
67
70
67
70
82
82
82
82
70
67
70
67
70
78
]
.....74 66
[
72
62
72
67
72
66
]
.....66 72
[
65
66
72
66
72
66
71
61
72
76
70
72
76
69
68
68
65
77
75
65
75
65
76
76
62
74
78
]
.....65 71
[
64
74
71
76
76
76
76
74
76
76
74
71
74
76
76
76
65
65
65
65
65
74
68
68
62
]
.....74 77
[
74
70
70
77
77
70
70
77
78
77
77
70
70
65
65
65
65
62
77
86
76
62
86
65
76
72
76
77
77
81
81
77
74
74
70
74
74
75
75
68
74
74
74
68
74
77
74
70
65
70
74
77
74
70
73
74
70
81
81
70
69
82
70
81
81
79
81
81
79
74
72
73
77
82
65
65
82
65
82
70
82
70
82
70
82
70
82
65
65
82
65
77
77
77
70
]
.....70 74
[
77
62
75
74
77
62
74
74
75
74
75
79
79
74
74
77
77
65
77
77
72
74
70
82
70
77
74
74
70
82
70
77
74
74
65
65
64
82
70
77
74
70
70
70
70
69
73
72
74
70
79
82
79
79
86
72
77
75
75
65
72
74
70
79
64
70
82
84
75
81
70
65
67
65
70
62
79
62
74
62
79
62
74
65
67
65
74
74
]
.....74 70
[
68
74
69
65
74
65
62
70
64
74
70
67
65
70
72
72
72
74
72
74
72
69
70
79
79
69
74
76
76
73
73
70
70
74
74
70
70
82
79
79
80
72
72
72
72
67
79
72
74
70
74
82
72
79
86
70
72
82
76
76
74
74
70
74
70
65
65
74
65
65
70
65
65
74
65
65
70
70
74
70
74
77
53
]
.....77 68
[
74
68
67
77
67
67
77
77
77
77
77
77
65
62
75
73
68
72
68
68
73
68
77
68
77
77
70
68
77
68
77
68
68
77
77
]
.....70 77
[
74
74
79
79
74
70
74
74
74
74
70
74
82
82
82
82
82
70
67
70
70
70
82
82
77
77
70
82
70
]
.....68 70
[
68
69
78
68
69
78
70
73
70
77
77
77
77
71
77
63
70
62
]
.....70 75
[
67
69
69
67
67
70
75
75
75
82
81
81
79
81
84
79
82
79
82
79
82
79
82
72
63
80
70
74
]
.....67 70
[
75
70
67
70
68
68
67
70
67
67
79
67
67
79
61
60
70
65
66
70
70
67
79
67
79
79
67
79
67
67
67
67
67
73
70
67
75
75
75
67
67
67
67
67
67
74
65
72
72
75
70
70
67
77
76
70
70
73
76
75
70
72
75
75
70
72
75
70
]
.....70 66
[
72
65
65
]
.....72 70
[
65
62
82
74
70
68
72
68
73
72
68
68
82
74
65
74
65
74
74
70
64
74
74
70
70
70
74
72
72
72
67
67
74
74
77
84
77
70
70
64
75
70
70
69
69
76
72
72
72
72
72
72
72
75
70
84
75
70
75
80
63
]
.....65 77
[
69
65
70
77
69
81
77
74
74
77
65
70
70
65
73
69
69
70
70
65
74
74
74
78
77
65
77
79
65
65
77
65
65
65
65
65
65
65
75
65
65
65
77
72
65
65
79
65
77
65
72
77
65
]
.....72 65
[
69
77
77
74
72
68
68
72
72
72
72
65
65
79
65
77
67
69
69
63
69
69
70
69
68
74
74
62
72
72
67
62
72
72
68
]
.....77 75
[
77
75
84
63
63
63
87
87
71
72
71
71
82
72
75
77
69
77
77
69
77
77
77
77
77
74
80
68
66
72
72
76
69
77
69
77
77
72
77
65
65
75
65
68
77
75
]
.....65 69
[
75
77
72
69
65
70
72
69
72
69
72
72
69
72
72
69
75
65
69
69
65
64
66
74
74
77
72
72
81
69
65
72
]
.....63 75
[
63
63
69
64
69
64
69
64
65
67
67
67
67
68
63
68
68
63
75
63
63
63
63
67
75
68
63
75
63
75
63
]
.....63 63
[
69
75
69
51
57
51
58
58
58
58
58
58
58
55
67
73
49
53
53
51
51
51
51
58
58
58
57
57
58
58
57
58
58
57
64
54
62
67
57
57
57
57
57
60
60
62
60
60
62
57
57
57
57
58
60
58
58
60
60
58
58
58
60
58
60
58
58
58
58
58
58
58
58
60
70
67
58
57
53
58
55
51
53
53
51
53
53
60
60
51
51
72
72
62
65
72
72
62
65
57
60
60
60
58
57
57
58
61
58
57
57
57
57
57
57
57
57
57
63
62
75
68
68
75
68
54
39
60
]
.....75 62
[
70
70
68
]
.....62 74
[
74
75
62
74
64
76
62
76
76
82
70
63
67
67
67
67
65
70
70
70
70
]
.....80 75
[
79
79
79
75
75
72
72
80
68
81
71
75
80
87
80
68
77
75
80
68
68
70
75
70
]
.....75 79
[
70
75
72
70
75
82
82
75
82
82
75
79
79
87
87
75
67
67
75
67
67
82
82
82
76
76
75
75
67
67
67
67
67
67
67
87
87
78
72
78
84
84
87
70
82
70
79
79
67
79
67
67
75
67
75
67
67
75
67
75
67
67
]
.....82 82
[
70
70
70
70
70
74
70
79
74
76
76
84
84
77
77
76
86
79
79
81
82
77
70
70
81
79
79
79
79
79
74
74
79
84
80
79
70
70
70
84
79
70
70
70
86
79
70
73
70
72
85
75
75
73
80
78
73
78
73
76
70
74
79
76
74
81
73
75
75
77
70
81
74
74
74
74
75
70
80
80
]
.....70 65
[
74
70
70
70
74
74
65
65
65
74
65
74
65
65
64
69
67
65
69
72
67
65
74
72
72
73
65
65
70
70
74
74
70
74
74
74
74
70
74
74
73
70
70
70
70
73
68
]
.....77 65
[
74
65
74
70
77
75
77
74
65
65
75
77
74
78
65
74
72
69
74
70
77
67
72
74
70
82
74
65
74
74
78
65
63
77
75
63
66
65
68
65
69
69
74
74
65
65
65
65
74
74
86
72
65
65
73
65
77
72
65
77
65
72
]
.....70 58
[
70
70
63
]
.....58 70
[
72
67
63
67
67
67
67
]
.....60 60
[
72
63
64
64
51
56
48
48
48
48
48
64
65
54
63
63
58
51
56
51
55
56
51
48
51
56
56
56
66
56
56
56
62
62
48
48
57
48
64
57
57
58
58
57
55
55
55
55
56
52
55
55
55
57
64
57
48
65
54
54
55
55
55
53
57
58
58
57
62
57
58
57
58
58
58
58
57
57
64
57
58
58
58
58
57
63
63
64
72
48
64
48
48
63
48
48
55
58
64
65
57
63
58
58
57
41
41
56
56
56
56
56
56
56
50
56
56
56
56
56
56
56
56
56
59
54
54
54
54
54
54
58
53
64
48
64
48
48
64
48
57
48
64
63
63
63
63
62
62
57
48
48
53
53
58
61
58
73
56
56
51
56
39
39
56
61
]
.....61 73
[
61
67
]
.....73 74
[
62
74
74
74
73
73
73
73
74
74
74
]
.....74 62
[
70
74
74
74
63
67
67
63
62
63
72
66
]
.....70 72
[
63
72
67
72
67
72
67
65
72
65
72
67
65
72
67
72
65
72
70
72
65
68
67
73
67
72
70
72
72
74
74
74
70
70
70
70
79
79
64
77
64
72
70
70
70
76
76
70
70
70
70
67
67
75
70
63
63
]
.....58 58
[
62
46
46
46
46
60
60
61
60
60
46
55
63
62
46
55
46
62
62
53
46
53
66
46
46
64
62
46
62
46
46
46
55
62
62
60
46
62
55
52
55
52
67
67
46
53
46
53
46
62
46
46
53
53
55
58
62
62
46
55
63
61
61
46
61
61
46
46
46
46
46
74
74
59
50
53
57
53
60
53
59
53
53
53
58
51
46
62
55
]
.....64 70
[
70
76
79
76
79
76
79
67
72
72
72
72
72
72
64
72
72
72
72
64
74
70
72
68
67
67
65
67
70
]
.....67 64
[
67
70
72
70
67
58
58
66
64
67
66
67
64
67
63
72
67
64
67
63
72
72
72
76
76
79
64
64
67
72
72
76
76
79
67
64
58
72
64
72
67
67
]
.....64 65
[
65
53
65
74
77
73
73
73
65
65
65
60
63
]
.....65 70
[
65
65
74
74
65
65
77
77
77
70
77
70
69
61
77
65
74
77
65
65
65
74
65
65
74
65
74
74
65
67
74
70
67
65
73
69
69
62
62
65
62
62
70
70
73
70
68
]
.....62 75
[
63
]
.....75 63
[
76
69
76
69
76
69
76
65
67
64
67
67
63
75
78
67
68
63
68
75
68
63
75
72
75
72
63
]
.....64 64
[
76
60
60
60
60
60
60
67
60
58
65
52
65
74
74
74
74
73
60
60
60
60
60
60
60
60
72
67
55
55
60
60
60
60
60
60
60
60
55
55
62
62
67
69
67
69
65
65
67
69
67
69
60
60
60
60
61
60
60
60
60
60
60
60
60
60
55
60
60
60
60
61
60
67
67
64
64
69
65
66
61
69
65
66
61
69
70
60
60
60
60
60
55
60
60
55
60
60
55
60
60
55
60
55
60
60
60
60
72
72
67
60
60
60
60
60
70
]
.....77 70
[
74
65
75
78
82
82
70
70
77
65
74
70
79
65
78
82
82
82
82
79
72
74
74
74
77
77
65
69
69
70
84
74
74
74
82
82
77
80
70
70
]
.....69 63
[
63
62
69
69
69
]
.....75 69
[
62
66
66
81
81
73
75
75
77
81
77
77
79
78
81
81
81
74
74
79
77
70
69
79
77
70
69
74
74
77
]
.....62 70
[
74
58
70
67
70
71
62
62
]
.....82 70
[
82
82
82
82
79
79
79
79
79
79
70
72
70
73
77
78
77
80
84
78
79
75
75
72
77
82
79
79
75
82
53
82
70
82
70
70
70
82
70
70
79
73
73
83
73
74
70
72
77
75
81
82
70
77
79
79
72
79
72
68
72
79
75
70
75
70
75
78
75
70
75
70
75
75
74
75
76
]
.....70 79
[
75
79
74
79
79
74
67
74
67
67
74
67
74
70
82
69
82
69
70
82
82
79
74
67
82
67
67
70
70
82
82
82
]
.....79 75
[
72
79
79
79
75
75
75
79
75
75
82
82
67
69
67
69
75
69
69
69
69
79
79
70
79
79
79
70
79
72
79
79
69
79
74
79
72
74
87
87
70
79
87
72
82
70
75
87
69
69
75
79
87
82
]
.....70 82
[
70
79
65
76
67
76
67
76
67
68
68
68
68
78
77
78
77
77
70
74
74
79
75
79
75
82
82
74
82
82
70
82
71
71
86
74
75
79
69
82
82
68
77
77
70
70
77
84
72
79
82
70
70
71
70
75
74
70
70
70
70
82
70
73
]
.....82 75
[
79
75
75
79
79
79
70
71
79
75
75
87
75
75
70
82
75
70
72
70
70
78
]
.....70 69
[
69
75
72
69
67
70
72
70
72
69
82
69
82
70
70
70
69
65
69
69
67
69
67
77
75
73
81
70
70
70
70
70
70
70
70
66
69
]
.....75 72
[
72
84
75
72
71
72
77
77
68
72
77
71
75
73
72
75
75
75
77
77
75
80
80
65
75
75
84
66
69
75
69
72
74
75
79
67
75
84
82
84
79
75
66
72
74
79
78
72
84
84
84
75
72
79
84
66
72
66
66
66
68
78
66
78
70
78
75
66
78
78
72
72
72
72
70
72
72
72
74
68
75
77
77
65
72
75
72
72
72
75
66
72
68
70
72
75
75
68
77
]
.....70 62
[
74
74
65
70
70
72
71
61
71
61
70
70
70
70
62
62
]
.....64 76
[
64
72
72
70
70
76
72
71
76
64
75
]
.....69 75
[
63
68
81
81
81
81
81
81
73
72
69
73
75
74
74
75
74
78
75
78
70
81
81
77
81
75
75
75
74
75
77
75
77
75
75
75
74
]
.....63 69
[
75
72
72
72
72
61
74
60
72
]
.....77 80
[
80
80
82
76
82
76
75
76
76
77
76
85
71
68
80
70
85
82
68
82
68
77
77
77
81
81
89
89
89
89
84
80
73
87
68
73
70
77
73
85
73
68
73
70
75
68
77
77
80
77
]
.....75 70
[
82
70
72
75
78
75
75
75
72
79
81
79
82
70
69
82
79
82
79
82
79
79
79
79
79
78
82
79
82
79
82
79
70
72
72
72
70
72
]
.....74 69
[
69
69
69
75
65
65
72
70
70
72
70
70
70
70
70
70
]
.....58 72
[
60
]
.....72 60
[
73
62
74
74
74
74
67
63
63
69
69
69
72
69
]
.....61 61
[
73
70
58
49
55
51
61
49
56
49
58
56
49
49
49
49
49
65
49
56
58
58
49
49
49
57
49
58
55
55
55
56
55
55
55
55
56
55
63
55
60
53
56
56
56
56
64
64
64
62
64
62
57
57
67
67
64
58
58
62
60
58
70
39
51
51
65
65
49
46
60
]
.....63 72
[
60
63
69
62
67
60
68
68
68
68
72
68
68
68
68
68
68
68
68
68
68
]
.....60 63
[
72
60
55
55
55
60
53
53
53
53
53
68
57
63
55
55
55
55
55
56
56
57
54
56
54
57
65
66
69
63
63
63
60
60
56
]
.....58 62
[
70
55
53
53
46
53
58
58
38
53
58
53
53
41
53
58
53
53
48
53
48
53
48
58
65
65
55
53
53
62
62
53
53
53
53
53
46
53
53
50
53
46
53
53
53
62
65
65
62
53
53
53
53
53
53
53
55
55
55
55
55
55
53
53
53
55
55
56
56
56
56
56
56
56
56
56
55
55
53
46
62
53
50
50
53
58
53
53
62
41
62
53
67
67
41
58
62
62
62
56
56
56
62
62
55
55
62
55
55
62
62
62
62
62
62
62
62
62
62
62
55
62
62
53
62
62
62
62
62
68
68
68
46
]
.....69 65
[
69
77
77
77
72
69
72
69
72
69
72
69
74
74
65
65
64
69
64
69
64
69
72
65
65
77
69
64
69
64
77
74
65
77
65
65
70
69
65
]
.....70 64
[
74
79
79
79
67
67
67
67
64
72
72
72
73
72
72
64
]
.....67 79
[
71
75
75
79
79
79
70
70
69
70
70
70
70
69
69
65
70
70
72
72
81
79
79
79
79
79
70
78
69
70
66
65
67
67
65
67
70
71
72
67
67
79
79
79
67
79
67
]
.....65 68
[
65
65
67
75
63
68
85
71
71
71
85
72
72
73
73
65
72
68
74
62
80
68
65
64
71
71
]
.....68 67
[
67
70
67
65
63
63
63
70
73
69
69
69
65
67
]
.....66 66
[
67
67
57
66
74
66
74
58
58
60
56
56
69
69
67
69
69
69
75
75
69
66
73
77
61
61
61
61
72
69
69
74
67
66
65
78
54
42
55
60
54
]
.....67 75
[
67
80
67
79
79
79
70
75
68
77
73
70
67
79
79
75
79
75
79
79
75
79
75
79
82
63
75
75
77
73
]
.....75 82
[
79
79
75
87
79
70
79
75
81
79
84
85
85
82
70
82
70
82
75
75
]
.....82 79
[
75
67
79
73
79
75
71
82
86
75
82
82
86
75
82
84
84
79
79
79
79
79
70
70
82
70
82
70
77
82
84
84
70
75
79
70
81
84
82
69
70
79
82
72
82
]
.....67 68
[
65
65
67
69
69
60
69
69
69
68
73
]
.....68 65
[
67
67
63
75
71
67
66
71
73
75
72
72
73
73
72
64
71
]
.....67 66
[
66
66
67
67
67
69
67
69
66
66
69
75
75
72
72
72
72
72
65
79
62
65
79
66
66
]
.....75 67
[
82
82
75
75
79
75
79
75
75
66
70
66
70
82
75
67
63
63
73
79
67
69
79
67
69
79
67
69
79
67
69
79
67
69
79
67
69
63
75
75
77
]
.....84 79
[
75
75
79
82
82
76
79
84
72
72
72
75
72
75
72
76
72
72
79
79
79
84
84
76
]
.....75 84
[
79
79
74
79
72
72
79
79
72
84
84
84
84
84
81
81
84
84
75
75
]
.....79 73
[
82
79
67
79
67
73
73
73
73
85
]
.....74 80
[
74
86
86
86
86
86
80
83
]
.....80 74
[
79
80
77
77
77
77
84
]
.....78 67
[
75
]
.....67 80
[
68
]
.....80 68
[
70
75
72
78
82
77
82
82
72
71
80
75
68
75
68
68
68
77
84
80
80
80
68
80
68
80
68
80
68
75
68
80
72
80
72
80
68
80
80
68
68
80
72
80
72
77
68
]
.....84 86
[
74
84
74
74
77
74
81
]
.....86 74
[
87
86
77
84
72
77
88
72
88
84
76
72
72
78
78
78
74
79
75
82
75
81
81
86
86
79
]
.....74 87
[
75
86
]
.....87 75
[
76
87
87
58
82
79
87
87
73
87
73
87
87
79
75
]
.....77 89
[
77
75
75
75
75
86
68
68
92
92
87
]
.....89 77
[
77
77
86
86
89
62
79
68
87
89
89
89
89
]
.....75 74
[
82
66
66
66
66
70
70
75
68
74
74
74
74
65
75
75
75
75
75
75
75
75
75
69
69
75
]
.....74 82
[
68
79
79
67
67
80
82
82
70
81
70
70
81
82
67
67
81
82
82
82
86
77
77
]
.....66 67
[
67
67
78
78
67
70
66
75
75
67
65
67
67
74
66
]
.....79 82
[
75
79
75
75
77
82
67
67
79
79
79
70
82
78
70
82
78
75
91
70
70
91
82
81
91
78
82
70
81
75
70
82
82
70
72
72
75
75
82
82
84
]
.....82 71
[
79
80
]
.....71 79
[
71
71
71
77
77
81
79
76
]
.....79 71
[
80
79
71
77
77
71
79
79
67
]
.....79 80
[
79
79
80
68
81
81
80
]
.....80 79
[
79
79
79
82
80
80
81
76
80
]
.....79 78
[
75
67
67
79
76
76
76
76
74
76
74
76
84
84
]
.....78 70
[
75
70
69
82
82
82
84
80
70
70
]
.....68 74
[
67
68
68
68
77
74
62
]
.....73 80
[
74
77
80
80
77
85
]
.....70 84
[
72
78
80
79
82
]
.....75 87
[
75
55
78
78
78
78
74
79
79
87
87
75
77
77
80
87
87
]
.....87 74
[
86
86
86
]
.....74 86
[
87
76
76
82
82
77
75
88
84
77
77
76
72
75
74
74
79
79
79
76
86
79
]
.....88 76
[
88
81
81
84
84
86
88
88
84
84
72
85
]
.....76 89
[
77
]
.....70 68
[
70
72
68
67
73
62
64
71
70
70
65
70
]
.....80 84
[
84
77
87
]
.....78 75
[
70
70
69
68
68
66
66
78
78
80
66
]
.....74 68
[
77
77
84
74
74
74
74
77
77
]
.....87 87
[
79
79
79
79
79
85
85
79
75
75
85
80
78
73
75
73
78
]
.....43 43
[
55
55
55
55
50
55
55
55
55
55
55
55
55
55
55
62
55
55
55
55
55
65
55
55
65
55
55
31
55
53
55
53
59
55
53
55
53
59
64
55
52
55
55
53
55
53
59
58
55
60
59
60
60
59
55
55
55
55
55
55
55
55
36
55
55
55
55
55
36
55
63
63
55
55
55
55
55
55
55
55
55
55
50
55
55
50
55
55
55
55
55
55
55
55
55
55
55
55
55
55
55
55
55
55
55
55
55
55
55
55
55
55
55
55
55
55
55
55
55
55
55
55
55
55
55
55
55
55
55
55
]
.....43 55
[
55
60
55
55
49
55
55
55
59
64
55
55
55
55
46
64
48
60
48
48
48
55
55
54
55
60
48
48
55
41
41
44
53
56
56
43
56
56
45
55
60
55
60
55
43
43
55
43
60
55
44
44
55
55
51
57
51
57
56
31
31
31
43
31
31
55
31
31
31
43
31
31
31
43
48
31
31
43
31
31
43
55
55
56
56
55
55
55
43
43
43
54
43
48
50
50
43
54
43
43
55
64
55
55
64
55
43
43
43
43
43
43
43
43
43
43
43
43
43
43
43
43
43
43
43
43
43
43
43
43
43
43
43
43
43
44
55
44
55
43
43
]
.....57 43
[
45
45
45
45
45
45
]
.....45 57
[
59
60
43
46
43
60
57
43
45
57
57
46
45
45
45
63
63
45
45
57
57
46
59
57
47
59
57
59
57
41
46
58
54
56
44
44
44
57
57
44
44
44
57
58
56
56
52
52
53
57
53
41
41
53
45
45
45
45
45
45
45
45
45
45
45
45
45
45
55
45
45
45
45
57
57
58
57
57
57
57
46
45
]
.....47 47
[
59
59
59
59
59
59
59
59
59
59
35
59
59
59
59
59
35
59
]
.....59 47
[
47
58
58
59
47
47
47
58
58
58
59
48
60
58
58
57
41
59
59
48
]
.....65 59
[
53
65
65
65
65
65
60
65
65
65
65
55
65
65
65
65
65
65
65
65
65
65
65
65
65
65
65
65
65
65
65
65
65
65
65
65
55
55
55
55
55
55
]
.....53 65
[
64
56
56
53
65
61
52
60
53
57
58
58
58
58
58
53
]
.....52 52
[
64
64
52
40
40
64
64
40
55
57
56
55
55
55
40
51
55
59
55
55
55
40
40
40
40
40
40
56
40
40
64
64
48
64
64
64
64
40
]
.....62 50
[
50
50
50
50
50
50
50
50
50
50
61
61
50
50
50
50
50
50
50
50
50
50
50
50
55
60
55
55
55
60
]
.....55 62
[
43
59
59
59
59
58
43
58
58
52
59
59
]
.....48 48
[
60
60
39
55
60
60
60
60
55
60
60
55
60
55
60
64
57
64
60
60
55
60
60
58
60
57
58
60
58
58
60
52
52
52
52
55
58
60
55
55
52
52
65
52
52
53
53
53
55
60
55
55
60
55
53
53
53
60
60
60
60
60
36
57
58
57
58
58
57
57
58
58
36
60
63
60
36
36
36
36
60
60
60
60
60
60
60
60
60
55
60
60
55
55
55
55
57
58
46
53
46
55
60
60
60
60
60
60
60
60
60
60
60
60
60
60
60
60
60
60
49
36
60
36
61
60
]
.....55 60
[
64
64
60
64
64
64
60
60
64
64
60
55
64
64
64
64
64
64
64
63
63
55
43
55
55
59
64
59
64
64
55
64
60
64
64
59
64
64
64
52
43
52
48
52
48
41
64
64
63
63
63
63
64
64
64
64
64
64
64
60
60
64
60
64
64
64
64
64
64
64
64
64
64
43
55
64
64
64
64
64
64
64
60
60
64
60
64
60
64
64
64
64
64
64
60
64
43
64
64
60
64
64
60
55
64
60
55
49
57
48
52
64
48
58
48
48
57
48
64
64
51
50
48
]
.....60 64
[
55
55
50
55
55
55
62
55
55
55
55
55
64
58
43
58
58
58
58
58
58
64
60
60
58
58
58
58
55
55
55
48
55
55
55
55
58
55
48
55
55
55
55
55
55
55
55
55
55
55
55
55
55
55
55
55
55
55
55
55
55
55
64
43
55
55
55
55
55
55
55
55
55
36
55
55
55
55
55
55
55
48
55
55
55
48
58
64
64
58
55
55
57
60
55
55
57
60
60
60
60
67
64
55
64
64
64
64
55
64
64
64
64
64
64
64
]
.....64 52
[
52
52
64
53
52
63
55
60
60
52
51
62
51
]
.....51 64
[
63
63
63
]
.....63 51
[
62
62
51
53
58
54
55
63
64
51
64
51
63
63
56
51
51
51
51
39
62
63
63
63
]
.....50 50
[
62
62
62
55
62
62
54
62
62
62
62
55
55
62
62
62
38
53
62
62
38
53
53
53
53
62
62
54
54
55
38
57
60
54
55
65
53
55
48
55
55
55
48
55
54
55
56
49
55
50
54
62
62
62
38
38
54
38
54
48
62
62
62
62
62
38
62
62
62
62
62
62
38
38
62
38
62
53
38
43
51
58
56
]
.....55 59
[
65
65
65
65
65
65
65
65
65
65
55
65
55
59
62
55
53
50
47
65
65
65
65
65
65
65
65
65
65
65
65
55
50
50
50
50
50
50
50
50
65
65
65
65
65
65
65
65
65
60
55
55
50
61
60
61
60
59
55
64
60
60
]
.....59 65
[
55
55
55
55
55
55
55
55
55
55
55
58
58
55
60
55
60
55
55
55
55
55
55
55
55
55
55
55
55
65
59
55
55
55
55
55
55
55
55
55
65
65
65
65
65
65
65
65
65
65
]
.....55 43
[
43
43
43
43
43
43
43
43
43
48
43
53
43
43
53
59
43
59
43
59
58
60
48
58
60
43
58
62
48
58
60
62
55
43
56
44
53
43
57
53
57
43
43
60
48
43
43
59
58
58
58
58
43
43
59
43
52
59
59
43
60
60
60
52
59
59
58
43
43
59
43
52
59
59
43
54
56
56
56
56
43
43
43
60
43
54
60
43
60
43
54
60
43
60
59
43
43
43
62
43
43
62
43
55
55
48
55
55
55
54
55
55
55
53
48
55
55
58
55
58
55
55
55
39
39
39
39
39
39
39
39
55
55
55
55
55
55
54
55
54
55
56
54
56
42
55
56
44
55
]
.....55 55
[
59
59
43
59
60
65
43
60
43
59
43
59
43
60
43
65
50
65
43
43
60
43
59
43
43
59
43
61
63
61
51
61
58
58
58
58
58
58
58
43
43
60
59
43
59
60
59
43
59
59
60
60
60
59
60
60
64
60
59
43
59
48
58
43
43
43
49
49
63
60
43
63
60
43
49
49
60
60
60
58
58
64
58
58
60
59
59
59
59
60
60
60
63
63
48
55
60
57
43
59
58
58
63
43
51
56
56
43
43
60
60
43
60
43
58
58
64
43
59
59
64
43
59
59
64
43
60
59
60
43
59
55
43
43
59
59
60
59
64
43
59
59
56
43
43
58
58
58
58
48
48
53
43
60
58
51
]
.....60 55
[
48
64
64
48
55
62
48
55
55
57
55
55
48
63
53
53
58
58
60
58
55
60
58
55
46
64
60
58
55
60
58
55
46
64
64
64
48
64
52
50
64
43
43
48
55
55
55
60
60
58
55
60
58
55
46
64
64
64
60
52
63
57
52
52
60
48
55
51
48
55
51
48
52
48
48
52
53
53
52
53
53
48
52
52
48
48
48
45
64
50
48
52
48
48
52
53
53
52
53
53
63
60
48
57
48
64
58
43
58
43
58
43
58
43
48
58
64
48
60
48
58
64
48
60
55
64
60
64
64
64
64
64
55
64
55
64
63
63
]
.....48 60
[
55
55
55
55
55
55
60
60
60
51
46
48
60
48
48
48
60
60
60
60
58
57
58
60
59
36
59
48
55
59
36
59
53
61
53
60
55
60
55
60
55
48
36
48
48
60
47
56
47
47
56
48
48
60
60
60
45
60
45
53
41
59
59
58
58
48
61
55
55
61
55
55
48
48
53
48
48
48
53
48
48
63
48
60
60
60
48
60
60
48
60
]
.....64 60
[
64
60
60
64
64
64
64
60
64
64
64
48
58
64
60
58
58
60
64
60
58
58
58
60
64
60
53
58
64
64
64
55
64
55
55
64
55
64
43
64
55
64
64
64
64
64
64
64
64
55
57
55
55
64
64
64
64
64
64
64
64
64
64
64
64
64
64
64
64
60
55
64
64
64
64
64
64
64
64
58
48
41
64
64
64
64
55
64
64
64
64
64
64
64
64
64
64
64
55
64
64
55
64
67
67
55
55
72
60
55
60
55
55
55
55
55
58
52
55
58
58
58
52
55
58
58
58
58
]
.....51 63
[
63
63
62
51
63
51
51
63
63
62
62
62
62
49
49
49
58
55
45
45
39
63
63
62
62
62
]
.....62 51
[
50
50
63
63
50
50
]
.....50 62
[
55
55
55
55
46
61
48
48
46
62
50
53
58
47
50
58
43
43
60
55
60
55
50
50
50
50
50
50
50
]
.....59 55
[
55
60
55
65
60
55
55
55
65
62
65
60
62
43
43
65
59
59
48
59
59
48
59
50
60
55
59
48
59
55
53
59
48
43
48
43
50
43
48
50
43
43
43
43
48
43
48
43
59
62
59
59
59
59
59
59
59
59
62
43
48
48
60
55
60
55
62
65
65
65
65
65
65
62
]
.....56 56
[
59
59
55
44
58
55
60
53
61
44
60
44
60
51
51
51
51
51
51
60
51
59
51
60
53
61
51
44
50
61
44
66
50
44
60
60
66
66
44
65
61
44
61
60
44
44
44
44
44
44
44
44
63
60
60
62
51
51
61
61
55
44
44
44
44
56
51
51
60
60
51
44
56
44
51
44
51
51
59
65
41
61
39
65
44
51
51
44
65
60
]
.....62 59
[
62
62
62
65
62
56
55
55
55
55
]
.....36 45
[
45
]
.....39 36
[
48
48
]
.....48 39
[
42
]
.....51 51
[
42
55
55
55
55
55
55
39
60
39
61
39
44
39
55
55
58
61
60
39
39
39
56
39
61
44
39
63
39
60
63
63
44
56
39
63
63
55
39
39
39
39
39
54
50
57
55
63
57
55
55
55
63
55
55
52
39
39
39
57
39
39
39
54
56
56
39
56
56
55
55
39
56
39
55
55
56
39
55
55
39
56
39
55
55
56
39
56
55
56
56
39
39
39
39
39
39
39
53
39
39
39
39
39
39
39
39
39
39
39
39
32
56
61
39
60
56
56
58
39
44
51
56
61
44
60
51
39
56
39
39
32
56
39
39
46
39
51
]
.....45 54
[
54
57
57
]
.....48 45
[
57
45
]
.....57 48
[
51
65
60
63
63
60
60
60
60
64
48
60
]
.....54 63
[
63
42
41
42
41
]
.....57 54
[
66
59
59
54
59
60
60
60
60
42
42
42
42
60
]
.....66 57
[
68
]
.....63 68
[
63
63
60
72
89
72
72
84
74
72
89
68
72
68
68
68
68
68
72
72
72
]
.....55 56
[
55
55
55
44
61
43
44
]
.....64 55
[
60
52
64
60
60
60
60
58
58
58
60
43
60
43
60
60
]
.....52 55
[
60
60
52
60
52
60
52
60
52
52
58
61
61
40
40
52
]
.....50 64
[
50
]
.....57 57
[
59
48
57
60
62
60
45
63
63
57
45
53
48
57
60
45
62
61
50
60
62
60
53
53
45
45
45
45
45
45
60
60
45
45
45
45
48
60
53
53
63
53
53
63
51
53
63
65
45
45
45
45
45
45
45
45
60
55
55
60
60
60
45
45
60
60
45
60
60
45
55
58
58
56
53
]
.....55 48
[
60
58
43
43
55
60
60
60
60
60
60
60
60
60
60
60
55
48
48
60
60
58
58
60
36
48
54
55
]
.....60 48
[
48
48
48
55
61
48
48
48
48
61
58
48
48
48
46
60
64
45
46
60
58
48
48
56
48
48
48
48
48
48
55
55
64
48
55
57
41
48
43
63
63
48
48
48
48
48
48
60
63
53
48
48
48
48
48
48
48
48
48
48
48
48
48
48
48
48
48
60
36
60
55
55
55
48
59
55
53
60
60
60
48
60
60
48
61
]
.....52 64
[
51
55
53
52
64
53
65
52
52
52
52
52
]
.....56 55
[
56
44
56
44
43
43
43
43
60
]
.....59 59
[
62
62
47
55
55
55
55
47
47
47
65
62
47
47
55
50
50
50
50
50
56
56
57
55
55
55
55
55
55
65
65
65
65
55
58
58
56
52
]
.....65 62
[
65
65
65
65
65
65
53
64
64
65
61
69
65
61
69
57
57
63
62
56
62
68
68
68
68
68
68
68
72
74
72
62
65
62
62
62
65
62
62
62
62
68
68
62
]
.....56 64
[
56
]
.....36 64
[
45
58
]
.....45 36
[
39
]
.....42 51
[
51
]
.....45 42
[
54
]
.....54 45
[
48
62
]
.....51 60
[
60
39
51
56
60
56
39
60
60
56
60
56
51
56
39
44
54
39
39
56
56
56
60
51
56
56
56
56
56
56
56
51
56
56
56
56
56
56
58
56
56
56
56
39
56
]
.....54 51
[
63
60
60
55
57
]
.....63 54
[
57
63
54
41
46
57
46
66
57
53
53
]
.....52 60
[
52
40
55
55
55
55
52
60
55
55
]
.....57 50
[
57
60
55
50
50
60
60
]
.....61 60
[
49
49
68
49
49
60
60
53
60
]
.....49 61
[
62
62
60
61
61
60
49
49
61
61
61
58
60
60
61
62
61
61
48
61
62
61
62
61
49
56
61
49
]
.....62 64
[
50
76
76
76
64
64
61
61
60
59
62
]
.....65 55
[
59
59
59
59
59
59
]
.....37 37
[
49
49
49
49
49
49
49
37
72
49
49
49
49
49
49
49
49
49
49
]
.....50 38
[
38
38
38
40
38
52
38
38
54
54
38
54
49
38
38
38
38
38
38
38
38
38
38
50
48
51
38
38
55
54
38
55
48
38
55
54
38
55
48
38
38
38
54
43
50
50
55
54
54
50
50
54
54
54
55
50
55
50
48
42
55
55
39
39
53
39
53
36
38
39
38
]
.....55 50
[
50
50
59
58
58
52
55
55
58
58
58
59
59
59
59
59
59
59
38
43
43
38
45
38
43
43
38
45
59
38
38
38
38
38
38
]
.....38 38
[
50
50
50
50
55
62
62
57
50
50
50
50
65
50
50
50
50
50
50
50
50
38
50
50
50
50
50
50
50
50
50
50
50
50
50
50
50
50
50
50
50
50
50
50
50
50
50
50
50
50
50
50
50
50
50
50
50
50
50
50
50
50
50
50
50
50
50
50
50
50
50
50
]
.....50 54
[
54
50
60
60
60
60
60
57
60
60
60
60
60
60
]
.....62 62
[
59
58
58
58
58
60
57
56
58
62
62
62
57
57
56
58
60
58
58
58
58
58
58
58
58
58
58
58
58
58
58
58
63
60
58
57
58
58
58
58
60
58
58
58
58
58
58
58
58
58
58
58
58
58
58
58
58
58
58
58
58
58
58
70
63
70
65
58
53
53
53
49
53
58
47
66
58
53
58
56
67
69
66
67
69
66
65
66
64
54
54
60
60
62
59
59
60
61
50
61
50
67
65
65
58
70
65
58
58
70
65
58
67
65
65
70
60
58
58
58
58
58
60
58
58
58
58
58
60
58
58
60
60
58
60
58
60
58
58
58
58
60
60
63
53
58
39
41
68
]
.....62 55
[
50
50
58
46
62
62
50
50
60
60
59
59
59
59
59
59
]
.....58 64
[
46
48
58
48
60
58
64
60
48
60
60
60
67
67
60
63
67
60
64
64
]
.....58 46
[
60
57
60
46
46
57
46
46
45
60
53
53
53
62
62
62
58
61
58
58
46
46
46
46
46
46
53
46
46
62
46
46
62
62
46
46
46
46
53
46
58
58
34
46
46
46
46
46
46
46
46
46
46
46
46
46
46
46
46
46
46
46
46
46
57
55
55
58
58
55
58
58
55
46
58
46
58
45
53
58
53
53
53
58
56
53
56
53
53
53
58
56
53
56
58
46
47
46
53
46
53
46
46
58
58
]
.....55 64
[
57
58
43
60
43
60
60
55
52
64
64
52
52
55
55
]
.....57 45
[
60
57
45
45
45
45
45
57
47
45
47
45
45
60
45
60
60
60
45
60
45
60
58
45
60
60
60
45
45
53
53
45
45
45
45
45
45
45
45
45
61
55
45
45
45
61
46
45
57
56
56
58
58
45
59
45
45
45
45
59
45
45
45
45
45
45
55
44
44
44
55
57
55
44
55
55
48
57
48
57
54
54
57
46
46
58
57
58
45
]
.....65 57
[
45
60
57
48
60
60
60
60
62
57
60
60
62
]
.....60 57
[
65
48
65
38
38
62
43
45
47
60
63
46
46
46
48
65
65
45
47
45
50
48
55
57
65
57
48
48
53
57
57
52
60
52
52
60
52
53
60
54
63
62
53
65
52
60
52
64
65
60
65
60
60
51
51
53
57
63
57
53
53
54
63
50
48
60
63
62
62
53
55
60
48
50
50
65
57
65
65
54
65
65
65
65
65
65
65
65
65
65
65
65
]
.....44 56
[
56
60
56
44
56
44
56
44
44
56
44
56
44
44
56
39
42
56
44
55
39
57
51
39
57
51
51
39
57
51
60
60
42
32
57
44
32
57
44
56
57
55
44
55
55
55
44
44
44
44
44
44
44
44
44
44
56
56
51
44
56
44
56
44
44
61
44
44
51
]
.....63 60
[
56
51
55
63
63
57
57
57
45
45
61
57
60
54
63
43
63
63
63
43
63
63
63
63
63
63
63
67
67
55
53
46
39
63
63
63
63
60
60
60
63
60
63
69
67
55
55
54
63
56
56
56
]
.....55 63
[
43
58
63
55
55
55
55
58
52
55
58
58
]
.....45 45
[
57
57
57
57
54
57
60
63
60
63
57
57
57
57
65
57
65
57
57
57
57
57
57
38
57
57
57
57
57
57
57
57
57
57
57
57
57
57
57
46
57
50
57
57
57
57
57
57
57
57
57
57
57
57
57
46
33
57
57
57
57
]
.....48 43
[
60
58
58
58
]
.....49 49
[
61
61
61
61
37
53
61
37
61
61
61
56
61
61
61
61
58
50
50
50
50
36
61
61
61
61
61
61
37
50
61
61
61
65
]
.....55 65
[
55
]
.....49 37
[
37
50
37
37
37
50
38
37
37
37
37
37
37
37
50
49
49
49
33
49
49
37
48
49
37
]
.....50 49
[
38
38
50
50
50
50
50
61
38
]
.....38 50
[
50
53
32
50
52
49
50
50
38
50
52
50
38
50
50
38
51
39
39
50
50
48
50
50
52
43
50
43
50
55
50
45
55
55
39
55
39
55
50
45
49
50
50
57
39
39
39
50
50
39
39
55
50
52
38
48
38
38
38
38
38
38
38
38
38
38
38
38
38
38
38
55
38
38
38
38
38
38
38
38
38
38
38
38
38
39
38
50
]
.....54 50
[
55
60
57
57
57
62
38
57
55
38
57
55
38
38
38
38
]
.....43 50
[
43
55
43
43
43
43
43
]
.....50 55
[
55
50
50
38
38
52
50
50
50
50
50
50
38
38
38
62
59
59
59
59
59
59
59
58
58
43
58
58
]
.....55 46
[
60
58
58
58
58
58
58
58
58
58
58
58
34
61
61
]
.....64 46
[
58
]
.....65 60
[
57
72
60
57
57
65
57
65
65
65
65
55
65
57
57
65
53
65
65
65
65
65
72
72
57
53
57
57
57
57
57
57
57
57
57
57
57
57
57
57
]
.....44 65
[
56
60
]
.....56 60
[
63
65
65
58
51
44
60
51
51
51
51
56
51
51
56
60
39
60
60
51
56
66
60
56
56
52
56
60
63
63
60
60
63
53
54
56
51
53
54
56
51
51
51
51
51
51
53
54
54
54
54
54
54
49
60
52
51
51
51
56
60
51
51
51
51
51
51
51
66
66
51
56
61
66
56
49
63
51
60
63
51
51
51
60
51
]
.....43 57
[
55
55
55
43
]
.....36 55
[
48
48
]
.....48 36
[
53
36
53
36
36
41
49
49
36
36
36
50
48
36
41
36
36
48
36
36
36
36
36
48
48
47
48
36
36
36
36
48
67
38
37
53
57
53
57
50
57
38
57
55
53
48
36
36
46
]
.....41 41
[
53
53
53
53
53
53
53
53
53
53
57
58
58
62
62
62
62
60
58
62
58
60
58
62
58
53
53
53
53
53
53
57
57
53
53
53
53
53
53
53
53
53
53
53
53
53
57
65
53
53
65
53
53
53
53
53
53
53
53
53
53
53
53
53
53
53
53
53
53
53
53
53
53
53
53
53
53
53
53
53
53
53
53
58
53
53
58
56
53
53
53
53
53
53
53
53
53
53
53
53
53
53
53
53
53
53
53
53
53
53
53
53
53
53
53
53
53
41
65
53
53
53
53
53
53
53
53
53
53
53
53
53
57
53
53
57
53
53
53
]
.....46 62
[
58
58
58
68
]
.....53 43
[
41
41
41
]
.....41 53
[
58
50
53
62
34
54
36
42
42
53
36
42
42
53
41
41
53
53
53
53
41
41
54
42
42
42
53
46
60
41
53
58
43
53
46
40
41
50
55
53
41
41
41
41
41
41
53
53
46
41
41
34
46
51
51
57
51
41
63
54
57
41
41
53
45
52
53
52
53
51
40
51
40
52
39
53
51
53
53
51
53
56
56
53
50
53
50
40
53
53
41
57
57
41
41
52
41
41
41
41
41
41
41
41
41
41
55
41
41
55
41
41
55
41
41
55
41
41
41
41
41
41
41
41
41
41
41
41
41
41
41
41
41
41
41
41
41
53
41
41
41
41
56
53
41
53
41
55
]
.....46 46
[
58
58
34
58
58
58
58
58
61
58
58
62
58
62
58
58
58
58
58
51
58
58
58
55
55
58
58
53
58
53
53
53
58
58
65
58
65
58
58
58
58
58
53
34
58
58
58
56
56
56
56
55
55
56
58
55
58
53
58
39
58
39
62
34
58
58
58
58
58
58
58
58
58
58
58
58
58
58
47
58
58
58
58
58
58
58
58
58
58
58
58
58
58
58
34
34
48
58
58
58
58
58
58
58
58
]
.....61 48
[
49
53
60
]
.....58 48
[
46
60
55
46
46
60
60
60
60
60
60
60
60
60
64
60
57
64
60
36
53
36
]
.....46 58
[
53
58
58
48
44
58
48
58
55
58
55
58
60
60
45
58
58
58
63
46
46
46
61
48
48
53
53
53
58
41
58
43
58
58
58
55
55
55
55
59
53
47
53
58
58
46
58
58
57
41
56
53
60
60
60
60
45
45
42
42
55
55
57
58
64
64
46
46
46
46
46
55
55
46
46
46
58
46
53
53
58
58
59
46
46
53
53
53
47
58
46
48
46
]
.....62 58
[
62
58
62
62
38
55
55
55
53
53
62
53
62
51
53
53
53
62
45
45
62
62
45
45
62
62
62
62
62
62
62
62
62
41
53
62
53
53
62
62
53
53
62
62
58
62
62
55
62
67
62
41
62
58
41
62
41
62
62
62
62
62
62
62
62
41
62
62
62
62
62
62
62
62
62
62
62
62
62
61
57
58
46
53
53
53
53
53
53
53
53
67
67
55
55
55
55
55
55
55
55
55
53
53
53
55
53
53
53
53
55
53
53
53
53
58
62
]
.....58 53
[
51
46
41
46
62
41
53
62
62
46
58
62
62
62
62
58
58
62
62
62
62
58
53
49
51
48
50
51
50
46
51
48
50
62
62
62
62
62
46
62
41
62
62
41
54
48
48
48
52
52
48
41
46
62
41
58
62
62
62
51
62
62
62
62
57
62
51
62
43
53
58
41
46
46
46
41
41
58
58
65
58
65
65
58
65
62
58
62
62
58
41
61
58
61
61
61
61
48
48
62
62
62
62
48
48
62
62
62
62
]
.....39 39
[
51
51
51
51
51
51
51
72
51
51
51
44
60
51
51
60
51
51
51
51
51
51
51
51
51
51
51
51
51
51
54
51
63
63
51
63
51
39
39
84
51
51
40
51
51
51
40
51
51
51
51
51
51
51
51
32
51
51
51
51
51
51
]
.....55 58
[
63
63
60
63
63
63
63
63
63
63
63
43
62
62
62
63
51
55
55
46
61
62
55
61
63
63
63
63
60
55
60
60
55
60
60
55
60
50
43
58
50
43
62
62
62
62
62
62
63
58
63
63
63
63
62
62
63
58
58
63
63
63
58
63
63
51
63
63
55
55
62
62
58
70
63
43
63
55
41
58
60
63
55
58
58
60
60
60
60
60
62
62
38
38
50
50
50
54
34
50
50
54
34
50
48
50
62
51
55
53
50
50
]
.....58 63
[
55
55
58
55
58
55
58
55
55
58
55
58
55
58
55
55
55
58
54
58
51
55
55
55
55
55
55
55
55
55
55
55
55
55
55
55
55
55
55
67
78
67
63
55
55
55
62
63
63
43
58
55
67
58
67
58
67
58
67
58
63
63
42
58
42
63
]
.....51 39
[
39
52
39
39
39
51
39
58
39
39
39
60
51
39
43
56
39
51
51
39
39
39
60
56
39
55
39
53
39
39
39
39
39
52
52
39
39
55
55
43
43
55
55
51
51
39
38
39
39
39
39
39
39
39
39
39
39
39
39
39
39
39
39
52
52
50
39
50
51
55
55
55
51
55
51
51
41
51
39
52
39
52
39
51
51
39
51
39
40
39
39
39
48
51
52
51
39
39
]
.....49 51
[
37
51
37
]
.....37 49
[
50
49
49
39
61
48
49
49
49
38
53
53
53
56
53
53
53
61
56
61
56
43
37
37
37
53
37
58
37
37
56
37
56
37
37
37
49
]
.....53 41
[
41
41
41
51
62
41
41
41
41
41
42
54
54
43
58
46
62
62
53
54
42
41
41
41
41
55
55
57
41
41
58
41
41
58
41
41
41
41
41
41
41
41
52
41
41
57
57
58
57
58
53
57
58
57
57
58
53
57
41
41
41
41
41
41
41
41
41
41
41
41
41
41
63
57
53
41
62
57
39
53
41
41
41
41
41
41
41
54
41
41
41
54
41
41
41
41
41
41
41
41
52
41
41
41
52
52
41
41
40
41
55
57
57
57
57
52
52
57
53
57
57
53
57
53
57
57
53
53
53
53
53
53
53
53
53
58
58
58
53
53
43
58
51
51
35
53
53
65
41
53
41
56
41
41
]
.....46 53
[
58
46
46
46
46
46
34
46
46
46
46
46
34
46
34
34
58
58
46
41
58
58
58
58
58
58
58
58
58
]
.....39 50
[
51
51
51
51
51
51
]
.....40 40
[
52
52
52
52
52
52
52
52
52
52
52
52
52
52
52
52
52
52
52
52
52
52
52
52
52
52
52
52
52
52
52
52
52
52
52
52
52
55
52
55
52
52
52
52
52
52
52
52
52
52
52
52
52
52
52
52
]
.....54 53
[
42
42
42
41
42
42
42
54
60
41
41
]
.....42 54
[
55
41
57
55
54
42
43
55
42
63
63
63
54
54
42
55
53
55
55
61
54
54
43
53
54
45
54
45
41
54
42
42
42
42
42
42
42
42
55
54
54
42
58
58
42
54
54
54
]
.....62 46
[
50
53
61
]
.....57 60
[
60
57
60
45
45
62
65
57
60
60
62
65
62
62
65
65
60
60
60
60
60
60
60
60
60
60
48
65
65
60
60
60
60
53
65
65
55
60
60
65
57
65
65
53
53
63
65
65
65
65
60
60
60
60
60
53
48
65
65
65
65
65
60
60
58
60
58
65
45
45
50
62
50
62
65
65
65
65
53
62
65
62
65
57
57
57
65
56
63
48
63
48
48
57
52
48
57
48
48
57
52
48
57
48
60
45
]
.....60 58
[
60
57
60
48
64
64
55
64
64
53
64
64
55
64
58
58
53
53
56
53
48
53
60
63
65
60
65
53
48
48
64
64
55
48
64
64
64
46
64
64
64
46
64
64
64
60
]
.....53 57
[
53
63
41
63
53
63
63
53
63
53
60
62
53
53
63
53
63
57
60
57
57
57
57
41
48
60
63
63
63
63
63
60
63
63
63
63
41
41
53
60
53
41
63
57
63
41
46
53
63
57
57
57
41
53
57
46
60
60
60
60
41
41
41
60
41
41
60
60
60
60
60
60
60
53
53
58
58
58
58
53
53
58
58
58
58
63
53
46
]
.....57 46
[
45
45
58
58
45
46
46
58
58
]
.....61 49
[
49
62
49
48
49
48
49
61
49
49
53
49
61
49
46
46
61
62
49
49
49
49
49
62
49
60
60
60
50
48
48
61
60
60
49
49
62
62
55
55
61
61
65
61
]
.....62 61
[
50
50
65
62
62
70
]
.....53 58
[
58
58
62
62
62
46
62
62
39
41
53
62
62
53
48
48
49
53
53
53
53
62
62
62
62
62
58
62
62
62
53
53
62
62
62
62
62
62
62
41
62
62
53
53
53
62
62
53
46
62
53
62
61
61
53
48
53
53
53
53
53
46
53
46
58
46
46
58
50
50
58
53
46
60
46
46
46
46
46
46
46
46
61
58
46
46
58
]
.....51 53
[
39
39
51
51
54
39
39
63
52
51
58
]
.....39 51
[
55
55
51
55
55
40
40
51
58
51
63
51
51
51
51
51
51
39
55
51
55
51
55
46
52
51
52
51
39
55
55
43
43
38
51
51
50
53
51
60
51
51
60
51
51
51
40
51
51
51
40
51
51
56
51
51
56
56
56
56
51
50
50
51
51
50
52
39
39
39
39
39
46
52
52
52
39
39
39
50
50
50
50
50
50
50
50
52
52
51
39
39
51
39
39
39
51
39
51
40
51
66
51
48
51
51
39
51
51
39
56
51
51
56
51
51
51
39
56
39
44
]
.....63 58
[
63
63
63
63
63
58
57
63
57
63
63
63
63
63
63
63
63
63
63
63
63
63
63
63
63
66
66
72
67
63
62
62
63
51
63
58
55
55
55
55
60
66
58
66
]
.....58 55
[
51
46
51
51
48
51
51
51
60
51
51
51
60
62
62
58
55
58
46
60
60
48
50
64
46
50
53
55
50
58
55
46
58
48
50
48
50
50
53
51
53
63
53
51
50
46
46
63
57
46
53
63
46
53
48
55
55
55
48
51
58
55
55
63
63
58
58
46
46
60
60
60
46
46
64
64
60
62
62
62
62
62
62
62
62
62
63
63
62
62
51
51
61
44
58
61
44
]
.....41 55
[
53
53
]
.....37 51
[
49
]
.....32 44
[
44
44
48
48
49
49
32
44
]
.....43 32
[
31
]
.....31 43
[
55
48
55
55
55
36
55
55
55
55
55
55
55
55
55
36
]
.....63 55
[
60
46
46
46
46
46
46
58
63
51
51
51
58
55
58
58
58
58
52
63
58
]
.....53 63
[
57
57
53
57
57
53
57
41
60
57
63
63
63
53
63
53
]
.....62 53
[
58
58
62
58
58
58
53
58
41
58
58
58
62
58
58
58
62
58
58
58
58
50
58
58
58
58
50
51
58
41
50
62
62
58
41
62
62
62
62
53
53
]
.....49 60
[
61
48
61
61
61
37
]
.....60 46
[
48
]
.....52 39
[
40
40
40
51
]
.....40 52
[
53
41
53
53
38
52
51
39
55
51
51
52
52
55
55
52
52
55
55
52
52
52
40
40
40
40
40
40
40
40
40
52
53
]
.....54 42
[
42
53
53
43
53
53
55
57
60
42
53
55
54
54
42
42
42
42
42
42
53
58
58
53
53
42
53
42
53
53
42
55
42
55
53
55
42
42
55
57
57
55
54
55
54
54
54
54
54
42
42
66
42
]
.....55 54
[
43
43
43
43
43
43
55
43
57
55
42
42
]
.....61 62
[
49
49
49
65
65
62
62
62
]
.....48 57
[
48
48
48
48
48
48
48
48
48
48
48
48
57
60
60
]
.....58 60
[
60
48
64
43
43
64
46
43
64
52
43
64
46
53
46
57
57
60
60
55
60
60
64
64
64
64
53
53
64
53
60
60
60
60
60
60
60
60
60
60
55
52
52
46
57
57
57
57
48
64
60
64
48
64
48
64
60
60
60
]
.....53 53
[
57
57
50
57
50
65
58
58
41
62
62
41
60
57
41
60
57
41
61
61
63
61
41
58
61
61
65
65
41
65
49
52
57
57
57
41
58
57
57
41
41
58
58
58
65
60
65
65
41
57
57
55
62
55
62
62
55
62
56
56
60
57
53
60
57
58
57
63
41
46
58
62
57
51
46
46
63
63
41
41
41
56
56
56
41
41
56
41
41
41
55
41
41
41
41
56
56
41
57
41
41
57
41
57
57
41
41
41
41
41
41
41
41
41
54
57
52
57
58
41
41
41
57
55
58
57
57
58
57
57
57
57
58
57
57
58
57
57
57
57
58
66
41
]
.....62 63
[
50
51
70
63
58
]
.....48 58
[
60
64
36
36
48
48
48
48
36
36
48
48
48
48
48
48
60
60
46
46
46
]
.....48 62
[
60
48
50
]
.....55 51
[
58
58
58
58
58
58
58
61
61
61
58
58
58
58
58
58
58
58
58
58
58
51
58
58
56
56
55
55
60
55
55
56
39
39
39
39
61
61
61
51
61
61
61
39
61
61
39
]
.....51 55
[
39
39
39
39
39
51
39
55
58
43
51
43
51
51
51
51
55
61
61
61
61
61
61
57
60
58
61
61
61
61
39
61
43
61
51
61
55
61
61
61
51
61
61
61
61
61
]
.....44 58
[
56
56
56
56
]
.....56 44
[
55
56
56
60
51
56
51
56
53
44
41
44
56
53
44
44
65
65
65
57
55
55
55
55
55
55
44
56
45
44
44
44
57
44
44
44
54
44
44
54
44
44
44
44
56
56
56
56
56
56
60
47
44
44
44
60
56
56
56
44
44
44
56
44
44
56
65
44
]
.....51 41
[
39
53
]
.....50 37
[
38
38
38
38
39
49
]
.....44 44
[
32
51
56
56
44
51
56
56
56
56
56
56
53
56
56
56
49
56
56
56
56
56
56
56
56
56
56
56
56
56
56
56
56
56
56
56
56
56
56
56
56
56
56
56
56
47
56
56
56
56
56
56
]
.....43 31
[
31
31
31
31
31
31
31
31
31
31
31
31
31
31
]
.....62 65
[
65
77
58
58
65
65
43
52
43
62
71
71
71
71
71
62
64
65
65
65
65
65
62
63
62
70
70
62
65
62
63
62
65
64
62
68
62
68
71
71
]
.....57 63
[
53
60
60
53
53
54
53
53
41
53
53
53
54
53
53
53
53
53
53
53
53
53
53
53
53
41
53
41
57
53
55
55
63
63
63
63
63
63
63
63
53
53
63
63
]
.....46 55
[
46
46
46
46
51
46
46
46
58
58
43
43
61
]
.....56 53
[
58
58
61
37
61
61
44
41
61
58
59
59
59
59
54
44
49
55
54
53
54
44
49
55
54
53
61
44
61
44
41
50
]
.....46 56
[
34
34
44
46
46
46
46
58
]
.....34 46
[
56
56
43
46
51
51
34
36
46
34
46
38
34
34
34
34
34
34
34
46
46
50
]
.....58 56
[
51
62
51
46
51
50
46
51
50
46
50
44
41
58
58
]
.....42 55
[
54
54
43
54
42
42
54
43
43
]
.....57 53
[
58
58
57
60
57
60
53
60
60
50
60
62
63
62
63
53
60
60
60
60
60
60
60
53
53
53
53
53
45
45
46
41
46
41
41
58
58
41
46
41
41
60
60
60
60
60
60
60
60
60
60
46
53
57
63
63
46
57
57
45
60
50
41
41
65
65
57
65
65
63
63
63
53
63
63
63
]
.....46 50
[
46
46
38
38
38
]
.....48 55
[
48
48
58
60
60
48
60
43
48
48
64
48
48
36
36
36
36
36
36
36
36
36
36
36
36
36
36
36
48
48
48
48
57
60
60
]
.....60 65
[
56
56
57
60
57
57
57
57
65
57
57
43
43
65
57
43
48
57
57
57
57
57
57
57
57
57
56
57
57
57
57
57
57
57
65
72
72
65
65
65
65
65
65
65
65
65
65
65
65
65
65
65
65
65
]
.....47 60
[
59
59
48
59
59
59
48
59
59
48
]
.....58 57
[
46
46
46
65
46
46
46
45
45
57
58
]
.....51 46
[
63
63
58
51
39
39
39
52
46
51
46
51
51
58
55
]
.....53 46
[
56
58
58
58
58
58
58
58
48
58
58
65
65
65
65
34
34
68
58
]
.....77 39
[
72
]
.....77 79
[
77
79
74
91
89
67
67
91
89
67
76
79
67
84
81
77
77
77
77
77
77
80
80
70
74
67
67
74
74
79
79
79
72
81
74
74
74
74
74
68
79
]
.....82 81
[
83
81
81
82
77
70
69
]
.....84 82
[
83
70
82
82
79
70
84
65
74
82
82
72
]
.....84 60
[
72
72
72
72
]
.....74 64
[
76
70
]
.....84 83
[
86
86
86
86
86
86
83
83
84
]
.....72 63
[
75
75
75
63
69
69
60
67
63
72
68
75
68
75
68
68
72
68
68
68
68
68
68
68
68
68
68
]
.....79 76
[
77
77
72
77
77
72
77
77
72
72
69
69
88
88
88
81
76
76
77
76
76
62
76
76
76
76
76
79
79
79
72
79
70
55
72
72
72
72
70
79
]
.....81 77
[
81
81
81
69
69
69
69
84
84
79
77
77
84
71
69
69
81
82
82
82
82
79
79
74
71
74
71
71
81
81
81
81
84
84
84
84
70
]
.....83 80
[
81
84
81
71
82
]
.....71 83
[
74
74
74
79
72
84
72
84
71
71
71
71
71
]
.....64 77
[
65
65
65
65
73
73
]
.....76 70
[
72
72
72
70
70
69
70
81
79
76
76
76
76
79
77
70
]
.....84 70
[
77
77
77
82
82
70
79
]
.....65 72
[
69
69
69
69
72
72
69
69
65
70
67
72
62
65
72
69
72
69
72
69
72
69
70
70
72
72
72
72
74
74
60
68
77
68
68
62
]
.....77 63
[
75
75
75
]
.....72 74
[
76
76
76
74
72
65
72
70
65
67
70
67
70
67
70
63
64
63
64
74
63
64
63
64
70
70
63
64
63
64
74
74
74
86
86
86
86
86
77
77
86
77
71
69
76
72
76
72
72
65
72
72
72
65
74
74
65
74
79
74
74
77
75
81
81
72
72
72
74
76
72
79
72
72
82
70
77
77
82
]
.....81 72
[
84
84
84
84
72
72
72
74
81
81
81
81
76
]
.....65 79
[
67
67
67
91
91
]
.....79 64
[
65
65
72
]
.....73 73
[
74
74
70
80
70
77
73
72
75
70
77
77
72
65
74
74
74
74
74
76
76
69
74
76
85
70
76
77
77
77
77
70
68
76
76
77
77
64
74
74
74
74
85
74
70
74
74
70
74
70
74
74
70
70
70
77
70
74
65
77
70
70
67
77
]
.....74 72
[
66
66
70
65
70
70
79
72
72
72
72
72
72
72
72
72
72
84
76
74
74
67
71
76
72
72
72
72
86
86
72
69
72
69
72
72
74
74
74
74
74
74
65
67
65
66
66
66
69
69
69
72
65
67
65
66
79
74
74
79
74
75
72
74
74
72
72
74
72
74
72
72
72
79
70
74
74
74
74
74
67
67
77
]
.....74 67
[
74
74
74
74
70
72
79
69
62
67
75
62
]
.....67 74
[
70
70
72
74
67
67
74
72
72
72
72
]
.....82 86
[
74
79
77
74
79
77
70
70
84
74
82
]
.....87 82
[
88
88
74
82
]
.....82 88
[
76
76
]
.....86 76
[
79
79
88
79
79
]
.....82 76
[
79
82
79
82
80
77
80
77
80
77
77
77
73
82
83
70
]
.....73 77
[
72
72
73
65
80
77
82
77
85
67
67
73
74
76
82
79
73
73
73
80
80
77
80
80
80
68
80
80
80
77
82
85
77
82
82
77
73
77
70
73
77
]
.....93 91
[
79
79
]
.....81 93
[
79
79
]
.....91 89
[
77
77
89
]
.....88 86
[
74
74
86
74
74
77
74
74
86
]
.....82 72
[
77
77
78
84
70
70
74
70
]
.....72 81
[
74
74
72
69
72
72
72
70
78
78
79
67
76
]
.....74 81
[
72
72
74
69
72
72
79
79
86
66
]
.....81 71
[
77
77
77
77
77
81
81
81
81
]
.....70 76
[
77
77
79
79
79
79
67
70
81
76
81
76
76
67
76
70
82
]
.....70 71
[
70
70
71
72
78
74
72
71
74
71
71
]
.....60 72
[
62
64
65
72
76
]
.....89 84
[
89
72
72
]
.....79 70
[
75
75
72
70
82
70
72
79
79
74
74
75
75
67
70
74
67
86
72
70
79
74
75
82
72
74
67
67
80
70
]
.....64 67
[
63
67
63
63
60
60
67
67
62
64
62
64
64
75
69
64
64
72
72
75
69
64
64
72
72
64
65
72
72
79
64
64
60
60
60
70
64
]
.....65 63
[
65
63
63
64
67
63
72
67
56
56
63
63
63
65
62
63
65
63
65
62
63
65
]
.....63 62
[
70
63
62
64
64
63
63
62
63
65
56
56
50
63
]
.....82 84
[
82
82
63
63
]
.....64 63
[
65
52
51
57
68
75
]
.....63 65
[
63
61
63
65
65
58
63
66
56
72
65
65
63
65
63
60
65
65
63
65
63
]
.....65 67
[
79
65
77
65
69
59
65
67
67
65
70
70
70
70
67
67
67
67
67
65
68
67
68
65
67
79
79
64
67
67
71
65
65
65
62
63
62
62
62
62
65
65
65
62
63
62
62
]
.....81 69
[
75
80
68
75
80
68
69
67
75
70
72
72
78
77
69
69
73
69
69
69
81
81
81
81
79
79
79
81
79
79
79
79
81
69
69
]
.....75 68
[
75
75
72
73
67
66
68
68
63
71
63
75
75
80
73
]
.....68 80
[
75
69
75
69
71
77
77
78
70
70
70
82
77
78
70
75
75
75
75
75
69
69
75
68
73
77
73
77
73
73
73
73
73
80
68
80
80
68
80
67
80
72
80
68
80
80
68
72
75
68
80
68
77
]
.....69 81
[
75
75
75
75
74
72
72
72
72
72
77
77
69
69
69
69
81
81
69
82
82
69
69
79
69
69
69
83
69
]
.....75 81
[
79
69
75
69
69
79
69
75
69
69
72
72
78
82
70
81
81
81
84
72
84
84
]
.....78 66
[
67
67
72
70
75
70
66
]
.....66 78
[
65
65
75
75
69
69
70
69
72
72
79
]
.....79 91
[
89
89
90
82
89
89
89
]
.....81 82
[
79
79
81
81
79
70
80
82
79
79
]
.....75 80
[
68
68
72
77
72
75
75
75
75
68
80
72
84
80
72
70
]
.....68 75
[
80
80
80
80
72
75
67
80
75
67
69
80
80
63
75
75
75
78
75
68
68
68
75
75
]
.....80 69
[
68
68
]
.....81 75
[
69
69
69
75
82
77
80
83
80
72
77
]
.....66 75
[
78
78
78
78
78
78
63
66
63
77
65
]
.....62 77
[
65
65
]
.....65 73
[
73
70
68
70
68
70
77
73
73
77
]
.....61 65
[
65
65
49
61
56
56
44
56
56
56
56
49
62
56
56
56
56
56
56
56
56
56
46
61
56
65
56
]
.....71 61
[
67
]
.....36 72
[
48
]
.....36 48
[
50
48
48
48
60
48
48
48
41
53
41
40
41
53
41
48
60
53
55
48
55
55
55
55
55
55
55
55
55
48
55
48
55
55
55
55
55
55
49
35
53
53
53
48
36
36
36
36
36
36
36
36
36
36
36
36
53
36
55
49
37
48
34
]
.....52 38
[
40
40
40
50
]
.....53 52
[
41
41
41
53
40
40
52
58
]
.....42 53
[
54
54
41
54
54
]
.....64 58
[
55
60
64
60
64
60
64
60
64
60
60
60
58
58
48
48
53
67
67
67
55
55
]
.....53 42
[
41
54
41
41
]
.....58 43
[
60
55
55
]
.....43 60
[
55
43
43
43
43
43
43
55
43
43
43
43
55
]
.....57 65
[
45
60
60
53
46
45
60
60
46
46
46
46
]
.....63 57
[
54
53
53
45
63
51
51
51
51
63
53
63
63
63
63
63
63
63
63
63
63
63
63
46
53
53
53
41
53
57
60
55
53
53
53
53
53
53
53
53
]
.....55 42
[
43
43
43
43
43
]
.....43 64
[
64
55
55
43
]
.....64 43
[
60
60
60
60
60
]
.....36 36
[
48
48
48
48
48
48
48
48
48
48
48
48
48
48
48
48
48
48
48
48
48
48
48
48
48
48
48
48
48
48
48
48
48
48
48
48
48
48
48
48
48
48
48
48
48
48
48
48
48
48
48
48
48
48
48
48
]
.....52 50
[
40
]
.....41 48
[
53
53
53
41
41
]
.....54 41
[
42
42
42
]
.....46 48
[
58
58
48
]
.....47 45
[
59
47
35
]
.....47 59
[
60
59
59
48
47
59
59
48
59
59
60
46
46
47
47
48
59
60
59
]
.....53 36
[
41
53
]
.....40 38
[
52
52
]
.....52 40
[
53
60
40
53
53
53
39
39
39
40
40
40
40
40
40
40
40
40
40
40
40
40
40
40
40
40
40
40
40
40
40
40
40
40
40
40
54
40
40
40
40
40
39
55
53
53
57
53
57
53
53
40
40
]
.....42 41
[
54
54
65
54
]
.....43 54
[
55
55
55
42
42
]
.....42 45
[
54
54
]
.....43 65
[
59
59
43
]
.....65 43
[
64
64
]
.....50 48
[
38
38
50
51
55
]
.....53 54
[
41
41
41
54
54
54
42
]
.....48 64
[
60
60
48
48
]
.....64 48
[
41
41
]
.....57 58
[
45
45
57
57
57
57
58
60
45
45
46
46
46
46
46
]
.....60 42
[
62
]
.....38 60
[
38
]
.....57 62
[
60
57
43
53
57
65
57
57
65
57
]
.....62 60
[
62
62
43
38
62
57
60
62
62
62
54
62
66
62
54
48
60
60
54
54
54
54
54
54
54
54
]
.....60 54
[
38
60
60
63
55
58
62
62
62
56
60
60
60
60
60
60
62
62
62
62
62
62
62
60
62
62
]
.....62 38
[
57
]
.....60 62
[
60
54
57
62
54
60
60
60
54
43
50
67
60
57
57
57
57
62
62
62
60
60
62
62
62
62
62
62
]
.....62 43
[
55
]
.....38 58
[
50
]
.....65 53
[
60
56
61
53
65
56
57
58
58
57
60
41
58
58
58
58
53
53
53
53
58
58
58
58
56
]
.....54 55
[
42
43
53
55
43
42
43
43
43
43
55
43
43
]
.....57 38
[
60
60
38
]
.....54 62
[
60
60
50
50
]
.....54 60
[
62
62
62
63
54
51
62
63
56
50
50
50
50
55
62
62
55
55
57
50
50
50
54
]
.....38 62
[
38
38
38
38
54
]
.....61 46
[
55
58
58
55
]
.....47 57
[
47
47
47
]
.....56 65
[
62
61
77
61
61
44
61
61
65
44
49
61
52
63
63
62
56
56
75
56
49
61
56
56
61
65
]
.....56 62
[
65
62
65
65
46
52
52
58
]
.....48 41
[
60
48
]
.....42 43
[
54
]
.....45 60
[
45
45
]
.....48 49
[
36
60
49
49
]
.....60 43
[
58
55
55
]
.....41 57
[
41
53
53
41
41
63
41
53
]
.....55 57
[
43
55
55
55
55
55
43
61
57
61
57
43
55
43
43
43
43
45
45
45
45
50
50
]
.....62 57
[
60
62
59
65
65
62
]
.....55 38
[
58
]
.....43 62
[
43
43
55
50
]
.....61 55
[
48
51
51
61
61
61
61
61
61
61
61
51
51
51
51
51
51
51
51
51
58
51
51
51
]
.....56 47
[
65
]
.....48 65
[
48
48
48
]
.....42 50
[
54
]
.....41 60
[
53
41
29
66
]
.....29 41
[
41
43
]
.....46 29
[
46
]
.....41 62
[
41
41
41
53
63
]
.....58 39
[
55
51
51
]
.....51 58
[
39
51
63
51
51
55
55
55
55
55
66
63
]
.....58 54
[
46
63
63
46
58
58
58
46
46
61
54
54
63
63
]
.....53 62
[
58
46
58
62
58
53
58
58
41
58
58
53
41
58
58
53
41
41
41
41
53
43
53
53
53
58
62
58
62
58
53
62
]
.....42 42
[
57
54
66
54
54
54
54
54
54
54
54
54
54
54
54
54
50
54
50
54
54
54
54
54
54
54
54
54
]
.....52 62
[
52
]
.....46 57
[
58
46
46
58
58
58
]
.....62 41
[
53
58
58
58
53
]
.....46 54
[
46
]
.....41 54
[
53
53
53
]
.....53 60
[
53
63
57
57
57
41
53
62
57
56
41
53
41
53
41
50
48
]
.....41 43
[
53
]
.....39 62
[
51
]
.....42 58
[
42
54
54
63
]
.....58 52
[
64
]
.....41 58
[
41
41
41
41
41
41
53
53
41
41
53
41
46
68
]
.....55 39
[
63
51
51
51
51
51
51
51
51
51
51
43
]
.....42 63
[
54
]
.....60 53
[
57
41
60
41
60
48
48
56
57
57
60
63
60
60
53
60
60
]
.....49 62
[
61
61
61
61
]
.....63 45
[
60
60
]
.....41 63
[
41
41
41
41
41
41
53
53
53
63
53
]
.....63 53
[
63
41
63
41
63
57
41
57
63
57
53
41
57
41
41
]
.....63 41
[
53
53
53
53
57
]
.....46 63
[
46
46
46
46
58
46
]
.....58 61
[
52
52
58
58
58
55
53
46
51
58
55
55
46
54
54
53
66
54
54
53
66
66
66
66
66
61
53
58
37
61
46
46
58
64
55
60
64
55
46
]
.....52 58
[
61
61
52
60
60
53
]
.....50 41
[
62
62
]
.....63 48
[
57
57
53
51
51
]
.....55 44
[
43
43
]
.....58 51
[
63
63
61
61
51
46
46
57
58
58
]
.....61 50
[
49
]
.....68 72
[
67
68
71
72
72
68
68
72
72
78
66
73
71
68
69
72
77
63
72
77
72
72
68
75
75
66
68
72
65
80
68
68
68
68
72
72
68
75
63
63
63
63
72
56
63
63
63
]
.....68 61
[
60
70
]
.....68 58
[
60
64
50
]
.....72 68
[
68
71
68
72
72
72
72
68
72
71
68
75
75
72
69
82
66
63
75
84
66
63
63
82
66
63
75
75
68
68
80
75
70
80
75
68
68
68
68
75
72
72
68
68
75
63
63
63
63
63
63
72
56
63
63
63
63
63
]
.....75 77
[
71
72
71
72
72
72
69
69
71
68
77
71
77
87
65
87
75
75
79
79
75
74
75
74
77
79
89
89
68
65
77
70
75
]
.....80 77
[
76
82
82
77
76
82
80
82
80
82
73
73
82
80
71
82
80
68
68
68
68
79
75
89
89
77
72
80
77
73
85
80
80
51
68
68
77
77
77
80
77
80
]
.....77 82
[
80
79
80
77
77
73
73
70
73
70
70
74
74
79
74
70
74
82
70
77
82
70
82
68
82
82
]
.....76 80
[
82
82
75
77
79
79
]
.....80 76
[
77
77
82
82
72
82
77
82
80
83
76
76
82
80
]
.....72 71
[
68
77
75
75
72
71
72
72
80
75
75
72
72
71
71
71
71
71
71
71
71
72
]
.....73 67
[
72
67
67
83
65
63
79
83
79
]
.....73 68
[
68
73
82
77
82
64
68
80
64
65
77
73
77
65
73
73
77
73
]
.....71 75
[
72
77
72
77
80
]
.....76 82
[
80
77
80
80
77
77
77
80
77
82
72
83
70
]
.....80 82
[
77
76
76
72
82
77
82
77
80
78
72
68
70
82
76
75
77
80
]
.....70 73
[
69
61
70
72
70
72
75
73
71
71
70
70
65
70
82
80
70
70
71
71
73
78
78
80
77
80
77
79
82
73
77
73
77
73
]
.....75 73
[
70
65
73
73
68
80
]
.....67 61
[
72
72
70
70
63
63
70
70
71
71
61
61
61
61
]
.....61 67
[
60
63
63
67
65
60
73
60
]
.....82 80
[
77
77
77
77
73
77
82
77
85
77
82
81
80
80
80
75
77
80
]
.....71 68
[
72
71
70
70
70
70
70
77
75
77
77
65
76
64
71
68
68
68
71
65
64
68
65
65
]
.....67 73
[
72
77
76
76
76
77
76
68
68
76
76
77
76
77
76
63
63
]
.....68 73
[
68
72
75
68
73
73
73
77
70
70
77
65
77
77
66
73
77
75
73
]
.....77 73
[
73
73
75
72
80
80
80
73
73
73
73
73
74
67
77
73
77
70
73
70
73
73
80
70
68
80
80
70
80
72
80
67
80
70
68
77
68
80
80
84
73
65
65
65
77
68
77
68
77
80
]
.....69 70
[
75
71
75
70
70
74
74
70
72
69
69
69
69
69
69
70
70
67
69
67
74
69
77
75
82
69
69
69
69
69
69
69
69
69
69
69
69
69
69
]
.....73 70
[
69
67
70
70
65
68
67
73
70
71
77
74
82
78
64
77
65
78
78
74
74
74
74
73
73
70
70
73
73
]
.....73 75
[
70
72
73
66
87
85
75
75
]
.....73 65
[
66
65
73
73
65
65
]
.....67 65
[
66
72
68
68
77
65
65
69
77
63
68
65
68
67
68
67
56
77
71
55
55
67
]
.....72 73
[
72
70
73
82
72
64
85
85
74
74
76
72
72
74
73
]
.....82 73
[
73
72
82
73
72
82
80
85
65
70
65
70
78
70
85
]
.....72 80
[
72
71
80
72
71
80
77
75
73
80
80
82
78
68
68
68
68
68
68
72
84
78
72
68
72
70
]
.....69 68
[
67
68
68
68
68
80
68
80
68
68
68
68
67
]
.....73 69
[
72
70
77
]
.....59 58
[
62
64
64
]
.....83 74
[
83
71
79
79
71
71
71
]
.....68 60
[
60
68
75
68
]
.....63 67
[
61
68
67
61
69
70
70
70
82
67
65
58
58
58
58
67
65
75
75
75
70
70
75
73
]
.....67 63
[
61
70
61
61
66
66
66
66
62
67
75
72
75
67
57
67
75
75
75
75
75
73
]
.....61 70
[
63
67
75
75
61
]
.....65 66
[
67
53
66
66
72
67
68
66
77
67
68
77
66
41
66
66
65
73
]
.....59 62
[
59
65
55
53
64
55
62
62
]
.....80 71
[
83
77
80
71
]
.....63 70
[
67
62
65
60
58
72
72
75
75
70
68
72
63
]
.....61 63
[
63
67
60
]
.....75 71
[
72
73
]
.....82 77
[
80
80
80
80
80
65
86
86
70
74
75
85
82
85
77
85
75
74
72
70
82
77
77
]
.....73 72
[
70
73
77
74
74
74
76
75
77
73
73
73
77
73
73
]
.....61 72
[
70
70
]
.....65 75
[
77
75
70
75
]
.....56 73
[
68
]
.....73 61
[
78
]
.....78 84
[
75
72
72
80
72
72
72
]
.....78 80
[
68
70
72
72
68
]
.....70 78
[
75
75
68
84
68
82
82
82
82
82
]
.....68 77
[
77
77
77
80
80
80
67
74
80
65
65
74
74
74
74
76
79
73
68
77
77
80
77
80
68
77
80
77
80
68
80
68
77
77
68
68
68
68
68
]
.....80 73
[
72
75
72
77
68
82
68
85
]
.....82 85
[
82
77
77
85
85
73
75
78
73
75
73
84
]
.....80 85
[
80
82
77
71
73
]
.....71 70
[
77
78
67
67
70
82
82
70
71
]
.....85 85
[
71
86
84
75
75
89
84
73
73
80
73
73
73
75
73
80
73
75
77
73
]
.....77 78
[
78
78
77
77
74
77
77
77
68
74
82
73
]
.....78 69
[
78
78
78
79
81
74
72
78
78
78
78
]
.....85 80
[
82
85
73
85
]
.....78 68
[
78
]
.....73 66
[
72
]
.....83 71
[
72
82
77
77
70
83
83
77
84
77
79
84
77
79
79
]
.....80 70
[
84
68
72
75
72
75
72
]
.....80 78
[
82
]
.....70 80
[
84
68
78
82
82
82
77
73
73
77
77
73
]
.....85 77
[
73
77
80
85
]
.....73 85
[
77
75
82
73
78
78
78
77
78
78
85
77
73
79
76
]
.....72 82
[
80
82
78
82
82
79
84
82
77
]
.....78 82
[
82
80
80
87
75
85
75
77
75
85
82
]
.....73 82
[
80
70
70
70
75
70
80
82
82
82
70
70
70
70
]
.....68 82
[
70
80
]
.....85 73
[
77
77
77
80
85
85
75
73
85
75
85
70
79
85
76
76
]
.....71 80
[
82
71
]
.....78 77
[
78
74
74
78
77
77
77
77
66
80
85
85
]
.....70 83
[
82
]
.....84 78
[
72
84
]
.....68 78
[
80
80
75
72
72
]
.....84 73
[
72
85
72
]
.....77 85
[
73
78
73
]
.....82 78
[
73
82
89
85
82
73
82
85
85
73
85
82
73
82
]
.....68 71
[
83
68
68
77
80
80
82
80
61
68
62
64
62
65
68
64
]
.....78 83
[
84
83
83
]
.....82 68
[
80
94
80
94
80
80
]
.....55 53
[
51
55
55
48
48
48
48
48
48
43
59
51
55
55
55
43
43
55
55
]
.....53 51
[
49
53
41
41
51
39
]
.....49 48
[
48
36
36
]
.....49 46
[
44
34
]
.....48 46
[
44
36
36
]
.....51 56
[
60
56
60
39
56
60
60
60
44
60
60
39
51
56
60
56
60
39
56
63
60
39
51
51
51
51
51
51
51
60
60
51
56
60
60
56
60
60
60
51
47
44
44
60
60
60
]
.....39 56
[
39
51
51
51
51
60
51
44
]
.....60 51
[
56
56
56
56
56
56
58
41
56
56
56
44
56
56
54
55
39
56
56
56
48
56
48
56
56
51
56
51
56
60
56
39
56
51
56
56
56
56
56
56
39
]
.....44 51
[
44
60
56
39
56
44
44
60
56
56
56
56
]
.....61 56
[
53
44
53
37
56
61
65
49
61
65
44
65
65
56
53
65
65
49
44
56
61
61
61
61
61
61
61
61
61
61
53
55
53
55
65
65
65
61
53
65
65
65
65
65
]
.....37 56
[
37
61
61
]
.....37 61
[
53
49
53
]
.....61 44
[
51
56
49
56
]
.....60 56
[
56
44
51
39
51
37
44
60
39
51
51
51
60
60
56
39
51
51
56
66
66
63
44
66
66
66
66
57
60
48
60
48
48
60
56
56
51
60
60
60
60
56
51
60
60
60
60
60
60
60
60
51
51
60
60
44
56
44
56
66
52
51
60
51
51
60
51
51
63
60
51
51
51
51
56
56
66
51
56
51
63
]
.....45 51
[
45
]
.....45 63
[
57
57
]
.....54 54
[
57
57
42
42
66
42
63
55
54
57
42
58
56
42
42
42
60
60
60
42
55
60
58
51
60
42
60
]
.....63 46
[
58
46
55
]
.....60 49
[
48
48
48
]
.....56 39
[
39
51
51
51
44
44
44
44
]
.....60 37
[
37
56
37
]
.....56 37
[
61
61
]
.....49 56
[
61
61
37
61
]
.....36 43
[
48
48
48
48
36
]
.....49 53
[
61
61
]
.....53 56
[
44
56
58
50
51
61
50
51
61
50
59
59
]
.....56 51
[
60
39
60
60
51
51
39
60
60
53
60
60
53
44
51
44
44
43
44
51
44
44
43
60
44
60
60
60
60
60
60
39
60
60
60
60
60
60
60
56
60
60
60
]
.....41 39
[
41
]
.....44 43
[
44
31
32
32
44
56
]
.....44 60
[
51
56
51
51
56
56
]
.....60 39
[
56
60
39
]
.....39 60
[
39
51
39
51
51
56
]
.....61 53
[
53
56
56
58
61
61
53
53
61
48
61
58
58
61
]
.....53 61
[
56
56
56
58
53
]
.....44 61
[
44
56
56
49
]
.....60 44
[
56
44
51
51
51
]
.....49 36
[
37
]
.....56 61
[
53
53
49
65
65
65
61
49
65
65
60
60
65
65
65
65
65
65
65
65
65
56
65
50
56
65
65
65
65
65
61
]
.....61 51
[
55
55
55
55
39
55
55
55
55
55
55
51
51
61
55
55
]
.....55 61
[
51
61
39
53
53
51
51
51
51
51
51
49
49
51
51
51
51
]
.....51 61
[
39
58
61
55
58
39
39
39
39
55
55
51
55
58
55
55
61
51
]
.....39 44
[
56
56
]
.....32 32
[
44
61
49
49
44
44
44
44
44
44
44
44
]
.....51 32
[
39
47
]
.....43 51
[
55
51
46
51
46
51
55
]
.....61 58
[
55
58
61
61
55
55
55
55
53
53
46
46
51
58
56
]
.....58 47
[
59
46
46
46
46
]
.....49 58
[
53
50
]
.....53 50
[
53
53
57
57
58
58
58
55
62
62
56
56
56
45
43
]
.....56 50
[
56
58
58
58
50
60
53
]
.....51 62
[
39
50
50
50
]
.....51 44
[
60
32
60
44
56
]
.....46 61
[
58
58
58
56
55
]
.....53 49
[
58
46
56
56
56
56
56
56
]
.....56 59
[
62
56
56
59
59
59
56
52
53
53
]
.....37 53
[
37
]
.....60 61
[
48
48
48
48
48
56
48
48
70
70
70
70
60
]
.....46 44
[
56
]
.....44 32
[
44
44
32
32
32
32
32
32
32
32
]
.....61 42
[
66
]
.....52 65
[
53
52
]
.....65 61
[
56
56
56
61
65
49
65
56
49
61
64
64
64
64
78
65
65
65
65
56
61
56
56
56
56
]
.....56 66
[
60
60
56
60
60
60
39
56
42
66
]
.....51 52
[
64
51
53
39
39
]
.....56 41
[
53
65
]
.....61 54
[
58
55
42
42
]
.....66 61
[
51
51
]
.....65 56
[
56
61
61
61
44
49
44
61
53
61
65
75
61
61
56
]
.....46 65
[
58
46
58
]
.....39 67
[
51
]
.....60 67
[
63
58
]
.....56 63
[
60
60
60
]
.....51 50
[
51
39
58
62
39
38
38
38
39
]
.....44 50
[
44
]
.....44 53
[
61
56
56
]
.....52 51
[
64
40
56
40
]
.....44 49
[
56
56
]
.....58 42
[
46
54
]
.....54 66
[
65
58
65
53
]
.....39 58
[
51
55
63
]
.....41 56
[
53
]
.....42 61
[
58
]
.....61 66
[
63
58
58
58
58
58
58
]
.....65 52
[
53
]
.....53 44
[
41
61
]
.....67 39
[
51
]
.....50 51
[
51
50
38
38
57
44
38
56
]
.....50 44
[
44
]
.....63 52
[
64
]
.....66 63
[
51
54
56
64
64
63
63
65
58
58
]
.....42 46
[
58
58
]
.....49 44
[
61
56
37
49
37
49
]
.....44 66
[
56
]
.....51 66
[
60
]
.....66 56
[
39
66
60
44
60
53
]
.....66 51
[
44
39
54
]
.....56 42
[
54
]
.....41 42
[
54
]
.....65 44
[
56
60
]
.....60 66
[
63
56
56
56
49
56
69
62
62
72
66
56
56
66
41
]
.....56 49
[
61
61
61
]
.....52 53
[
64
52
40
41
41
41
41
41
41
41
]
.....56 43
[
44
44
44
44
44
]
.....66 54
[
54
]
.....46 49
[
58
]
.....32 37
[
49
]
.....66 44
[
56
60
]
.....42 56
[
54
54
54
60
]
.....46 51
[
39
51
46
61
]
.....37 84
[
84
]
.....81 79
[
79
79
79
79
79
79
79
69
79
77
79
72
84
84
77
77
69
79
79
79
79
79
79
79
79
79
74
77
]
.....69 67
[
60
60
67
67
67
67
67
69
64
67
67
76
67
67
76
67
64
67
70
69
70
69
69
69
69
75
75
69
69
69
69
69
69
69
75
75
]
.....63 74
[
69
69
72
69
]
.....64 74
[
64
70
64
70
70
70
70
70
70
72
72
]
.....80 81
[
81
81
81
81
77
77
68
80
74
]
.....76 84
[
84
84
84
84
72
88
84
84
84
72
84
84
81
84
84
72
72
72
72
72
72
72
72
]
.....58 67
[
64
63
63
59
58
58
65
62
62
]
.....67 58
[
60
70
63
67
64
63
65
62
55
55
]
.....69 74
[
74
74
74
77
74
63
72
82
71
71
69
74
66
]
.....64 69
[
69
64
64
64
64
69
69
69
69
69
64
64
]
.....86 84
[
84
84
72
86
86
79
83
88
84
84
72
86
86
74
86
86
]
.....80 83
[
83
74
80
92
82
]
.....81 76
[
82
69
69
69
69
81
76
81
81
81
81
76
76
69
76
69
76
69
76
76
69
76
76
76
70
81
81
81
]
.....76 88
[
88
84
86
74
84
76
72
85
]
.....82 91
[
82
79
79
]
.....91 86
[
86
79
]
.....86 91
[
82
95
95
]
.....91 82
[
86
91
86
79
76
]
.....84 81
[
89
89
84
69
77
81
77
69
72
81
77
82
76
76
76
76
84
84
81
77
81
81
84
77
77
84
77
84
75
]
.....84 89
[
84
89
84
]
.....89 81
[
81
]
.....86 82
[
79
82
82
74
94
77
]
.....74 73
[
73
74
74
70
72
73
74
72
74
74
72
74
74
74
74
74
74
74
74
74
74
]
.....77 67
[
79
67
70
67
67
]
.....69 79
[
72
67
72
75
72
75
72
79
]
.....64 73
[
72
70
64
70
73
64
70
70
73
64
70
73
64
70
73
73
]
.....73 64
[
70
70
64
64
]
.....55 52
[
55
55
60
43
55
60
55
60
43
55
60
55
60
43
55
60
43
60
60
60
43
58
58
60
60
60
60
60
60
60
60
60
60
60
60
60
60
60
]
.....57 41
[
60
60
60
60
53
41
41
41
]
.....50 57
[
38
38
57
38
38
38
54
54
]
.....40 48
[
52
52
]
.....38 48
[
50
36
]
.....57 56
[
45
45
45
56
45
]
.....58 59
[
46
46
59
47
]
.....55 47
[
59
59
]
.....48 38
[
36
36
36
50
]
.....52 57
[
52
61
61
]
.....46 60
[
46
62
]
.....50 53
[
50
50
50
38
62
53
56
56
56
56
56
38
38
38
38
38
60
58
58
58
58
58
58
58
58
58
59
56
53
59
]
.....58 45
[
46
46
45
45
57
]
.....46 34
[
34
34
34
34
34
34
34
36
46
34
46
46
34
34
34
46
50
55
53
58
50
34
]
.....45 55
[
57
33
33
33
57
57
]
.....48 53
[
48
48
48
48
48
63
41
41
41
41
]
.....55 41
[
43
]
.....34 34
[
46
46
46
46
41
46
39
51
56
46
46
46
46
46
]
.....50 36
[
38
]
.....62 49
[
50
50
50
]
.....43 53
[
55
55
43
55
55
]
.....43 58
[
55
63
]
.....36 46
[
48
]
.....53 39
[
41
41
51
]
.....60 41
[
48
]
.....86 46
[
74
]
.....86 88
[
76
76
76
88
86
]
.....74 88
[
86
76
]
.....88 72
[
81
84
]
.....57 64
[
60
60
]
.....57 59
[
56
64
]
.....63 64
[
72
72
72
67
67
]
.....79 66
[
78
]
.....81 78
[
66
86
81
81
90
82
72
74
]
.....76 86
[
74
79
79
79
]
.....79 88
[
88
88
91
91
88
88
]
.....74 83
[
74
74
83
74
74
83
83
83
83
]
.....75 86
[
87
87
79
]
.....78 76
[
79
79
]
.....88 71
[
74
74
74
]
.....72 62
[
63
65
67
67
]
.....86 72
[
84
84
76
76
]
.....66 77
[
78
78
77
77
77
72
72
77
]
.....66 74
[
78
78
74
74
]
.....79 69
[
76
67
81
79
69
69
69
75
70
81
81
]
.....76 81
[
67
69
81
69
81
69
72
81
72
81
72
72
81
81
70
77
81
88
72
]
.....83 72
[
78
79
]
.....78 74
[
78
81
77
68
78
78
81
]
.....66 76
[
65
72
72
72
72
72
74
74
72
72
76
]
.....64 84
[
76
]
.....87 89
[
78
]
.....90 89
[
86
]
.....87 77
[
78
]
.....90 91
[
88
]
.....91 81
[
88
79
93
]
.....88 93
[
79
]
.....91 88
[
93
88
88
79
]
.....78 86
[
90
]
.....87 86
[
77
]
.....78 89
[
90
]
.....87 91
[
88
]
.....88 91
[
93
79
79
79
79
]
.....88 81
[
79
93
93
93
93
88
]
.....83 81
[
84
81
]
.....91 93
[
91
88
]
.....89 88
[
89
]
.....93 88
[
81
81
81
81
]
.....91 79
[
88
88
88
88
88
88
82
94
86
68
62
68
]
.....78 90
[
87
87
81
82
81
]
.....94 93
[
94
]
.....95 86
[
91
91
]
.....84 90
[
95
]
.....95 84
[
90
]
.....93 93
[
84
]
.....90 86
[
90
]
.....86 89
[
77
]
.....88 84
[
79
72
]
.....78 88
[
77
]
.....76 62
[
62
]
.....84 74
[
86
80
74
]
.....74 84
[
72
80
77
72
80
]
.....88 83
[
83
88
]
.....65 76
[
65
76
74
76
76
76
74
76
74
76
76
76
74
74
74
]
.....61 64
[
62
62
62
62
57
64
64
]
.....64 61
[
62
62
64
64
64
61
58
61
58
]
.....63 66
[
64
64
64
64
63
75
75
67
54
54
72
70
58
]
.....76 65
[
65
65
65
]
.....64 62
[
65
65
64
50
56
56
]
.....66 64
[
67
67
64
64
64
64
]
.....71 73
[
70
]
.....73 71
[
74
]
.....71 65
[
74
74
65
65
65
65
65
65
62
91
74
65
74
72
62
62
]
.....62 72
[
64
62
66
62
72
72
]
.....50 52
[
48
]
.....44 45
[
43
57
57
55
]
.....52 48
[
55
60
55
55
60
55
55
60
55
55
55
55
]
.....60 52
[
55
55
55
55
55
55
55
]
.....40 57
[
52
52
52
]
.....57 55
[
45
45
45
45
57
43
43
43
61
43
43
43
43
63
55
57
]
.....44 57
[
56
56
56
56
56
56
56
56
56
45
45
]
.....48 50
[
36
48
48
48
50
]
.....50 60
[
50
57
38
]
.....52 43
[
40
40
]
.....41 64
[
41
]
.....50 40
[
38
]
.....41 52
[
41
53
53
]
.....54 57
[
60
57
60
60
60
60
60
63
63
63
63
45
45
]
.....65 41
[
60
60
60
53
61
]
.....58 65
[
53
38
53
58
60
65
46
46
46
46
]
.....38 65
[
38
38
]
.....50 65
[
50
]
.....59 56
[
62
51
56
53
50
53
52
52
52
]
.....65 48
[
57
]
.....65 58
[
62
62
74
]
.....65 38
[
57
]
.....45 65
[
45
]
.....57 44
[
45
45
45
45
45
56
56
56
56
]
.....38 52
[
50
50
50
40
40
40
]
.....65 46
[
58
53
53
53
53
58
]
.....65 45
[
62
]
.....50 58
[
50
50
38
50
46
50
68
]
.....44 55
[
56
43
43
43
43
]
.....59 52
[
62
56
56
]
.....49 38
[
37
]
.....41 29
[
29
]
.....60 50
[
50
]
.....59 43
[
55
]
.....53 55
[
59
53
53
41
41
41
53
41
53
41
54
54
41
60
43
43
]
.....45 53
[
45
45
45
45
57
]
.....43 52
[
43
43
43
55
55
]
.....53 47
[
55
59
]
.....51 54
[
51
42
63
]
.....48 59
[
60
60
]
.....82 74
[
82
82
82
82
82
82
72
72
74
70
79
75
75
77
77
]
.....62 67
[
62
66
74
63
58
68
62
62
67
67
]
.....67 62
[
70
67
74
70
74
]
.....81 86
[
86
77
84
74
]
.....66 62
[
74
67
62
60
62
62
]
.....73 79
[
79
79
79
79
85
]
.....69 62
[
77
]
.....74 78
[
86
86
77
72
]
.....86 80
[
86
]
.....89 80
[
89
89
80
80
80
]
.....87 79
[
87
75
75
79
]
.....68 79
[
74
64
]
.....80 86
[
74
74
]
.....80 89
[
77
77
89
]
.....79 87
[
75
75
75
84
87
87
72
]
.....80 72
[
84
84
80
80
80
80
72
75
70
75
70
75
68
]
.....82 67
[
79
]
.....53 48
[
57
57
57
57
57
57
53
57
41
41
41
36
36
48
]
.....49 55
[
49
49
49
49
]
.....57 51
[
60
]
.....51 57
[
51
51
57
]
.....49 63
[
61
61
61
]
.....51 34
[
39
39
]
.....56 46
[
58
58
58
]
.....50 56
[
50
50
53
53
53
53
59
56
]
.....56 58
[
62
62
62
62
62
62
62
62
62
62
62
44
]
.....39 46
[
39
43
43
34
]
.....40 46
[
40
62
]
.....69 64
[
67
72
72
67
72
72
64
64
72
]
.....76 73
[
66
66
70
76
76
76
84
82
73
]
.....83 88
[
88
88
]
.....77 83
[
77
86
83
83
77
86
78
83
83
83
83
83
]
.....73 76
[
67
67
67
67
74
74
76
85
73
73
67
67
]
.....83 77
[
71
71
89
74
74
77
77
]
.....31 31
[
43
43
43
43
43
43
43
43
43
43
43
43
43
]
.....33 45
[
57
57
57
46
]
.....61 57
[
50
50
50
61
61
55
]
.....55 45
[
43
43
43
57
57
]
.....43 36
[
55
55
55
36
]
.....45 33
[
33
33
33
]
.....47 35
[
35
48
47
35
47
36
47
]
.....50 39
[
38
38
38
51
51
51
]
.....37 48
[
49
36
36
36
]
.....47 55
[
35
]
.....35 47
[
55
48
48
35
]
.....33 33
[
45
]
.....57 61
[
64
52
52
55
55
61
]
.....45 50
[
57
45
45
]
.....38 54
[
60
60
]
.....36 67
[
66
]
.....63 77
[
72
]
.....66 70
[
65
]
.....65 81
[
77
]
.....85 84
[
85
84
]
.....88 90
[
98
90
]
.....96 94
[
94
]
.....96 93
[
93
]
.....61 69
[
69
]
.....74 63
[
72
60
]
.....69 61
[
67
67
]
.....77 62
[
65
68
65
68
65
]
.....85 86
[
88
]
.....98 90
[
98
]
.....94 94
[
93
]
.....93 94
[
98
]
.....93 98
[
91
]
.....91 98
[
67
]
.....66 79
[
78
]
.....65 86
[
65
]
.....70 63
[
65
70
60
67
70
70
68
63
72
63
]
.....82 66
[
70
]
.....79 86
[
79
98
91
79
]
.....98 86
[
82
]
.....87 94
[
99
]
.....80 92
[
87
80
92
80
92
92
92
80
92
80
92
80
]
.....99 81
[
93
]
.....86 98
[
81
]
.....86 93
[
91
]
.....62 68
[
62
68
65
68
65
72
65
71
71
68
58
]
.....67 82
[
74
67
67
82
67
]
.....94 78
[
82
]
.....91 85
[
73
73
]
.....73 84
[
72
72
85
]
.....73 83
[
71
71
76
84
]
.....72 83
[
71
71
]
.....90 84
[
86
90
]
.....86 90
[
87
]
.....58 69
[
70
]
.....72 58
[
63
]
.....60 70
[
68
72
72
]
.....68 64
[
67
70
74
74
76
64
70
68
]
.....57 67
[
63
63
63
63
48
48
48
48
]
.....90 81
[
78
]
.....87 72
[
84
84
84
]
.....67 78
[
79
]
.....82 94
[
98
73
]
.....87 99
[
80
]
.....93 81
[
86
]
.....98 98
[
86
]
.....98 91
[
79
]
.....90 78
[
91
]
.....81 90
[
82
]
.....82 90
[
94
]
.....79 94
[
79
]
.....91 94
[
88
]
.....91 76
[
79
]
.....81 70
[
75
74
]
.....83 75
[
71
]
.....58 68
[
58
58
62
]
.....81 74
[
69
69
83
79
84
]
.....81 73
[
69
]
.....85 83
[
70
]
.....78 65
[
66
]
.....82 58
[
62
]
.....67 55
[
54
]
.....62 48
[
60
]
.....47 62
[
59
]
.....58 50
[
53
38
38
]
.....49 50
[
61
38
50
]
.....59 48
[
48
]
.....41 65
[
41
64
]
.....46 59
[
47
]
.....58 41
[
41
41
41
41
41
]
.....52 49
[
49
]
.....78 81
[
72
72
81
81
]
.....55 79
[
43
]
.....45 38
[
50
]
.....50 47
[
59
35
]
.....47 46
[
59
47
47
59
]
.....48 63
[
55
]
.....39 43
[
51
55
]
.....45 56
[
57
44
44
]
.....56 57
[
44
43
60
45
45
45
45
57
57
45
]
.....50 63
[
62
]
.....54 58
[
42
47
61
61
61
61
42
42
56
66
]
.....64 40
[
58
]
.....57 66
[
60
]
.....34 48
[
46
]
.....34 39
[
51
]
.....51 43
[
51
51
61
]
.....43 39
[
46
46
55
]
.....66 55
[
43
58
]
.....39 55
[
51
]
.....40 64
[
58
]
.....48 34
[
46
]
.....34 58
[
56
62
]
.....38 39
[
50
]
.....54 61
[
58
]
.....36 47
[
35
35
]
.....37 38
[
50
]
.....35 35
[
47
47
]
.....62 56
[
62
58
64
64
51
]
.....43 56
[
55
55
55
]
.....39 34
[
46
]
.....51 38
[
39
39
39
]
.....39 41
[
42
]
.....51 59
[
56
]
.....59 35
[
47
]
.....35 36
[
48
]
.....34 47
[
46
]
.....46 41
[
53
]
.....63 34
[
46
]
.....35 34
[
46
]
.....46 27
[
39
]
.....84 39
[
80
]
.....62 71
[
67
65
68
]
.....84 77
[
89
89
77
77
84
84
84
84
84
77
82
]
.....71 91
[
79
79
]
.....89 63
[
77
77
]
.....87 68
[
63
63
]
.....66 80
[
87
87
]
.....85 87
[
72
72
]
.....66 68
[
73
72
87
73
72
]
.....92 94
[
73
73
]
.....64 68
[
92
94
92
73
64
70
68
63
71
71
71
]
.....63 80
[
84
84
]
.....73 87
[
67
67
77
]
.....63 87
[
82
82
]
.....63 73
[
67
67
67
]
.....82 83
[
63
63
]
.....84 63
[
73
73
]
.....63 84
[
74
74
]
.....79 65
[
77
77
]
.....61 75
[
75
]
.....71 62
[
71
71
62
62
68
65
]
.....89 71
[
62
]
.....91 68
[
62
]
.....82 63
[
72
]
.....87 80
[
72
75
87
]
.....85 72
[
66
]
.....65 85
[
82
]
.....92 73
[
64
]
.....92 68
[
80
]
.....89 72
[
63
]
.....89 68
[
87
]
.....82 87
[
73
]
.....63 83
[
67
]
.....73 63
[
67
67
]
.....70 61
[
67
61
]
.....60 68
[
75
60
75
]
.....85 89
[
79
]
.....89 79
[
87
]
.....87 85
[
85
85
85
]
.....89 87
[
87
87
]
.....85 75
[
75
87
]
.....77 92
[
80
]
.....92 80
[
77
92
80
92
80
]
.....87 73
[
85
]
.....68 63
[
68
68
75
75
72
70
75
72
72
72
]
.....66 73
[
75
]
.....77 87
[
75
87
75
]
.....69 82
[
70
70
]
.....83 89
[
89
]
.....82 89
[
89
]
.....68 76
[
73
72
72
]
.....76 75
[
73
]
.....92 77
[
89
]
.....72 85
[
73
]
.....89 83
[
77
]
.....89 82
[
78
]
.....85 82
[
82
85
]
.....77 66
[
72
]
.....78 85
[
82
82
82
]
.....75 85
[
77
78
78
78
77
78
78
]
.....73 78
[
82
82
82
66
]
.....78 73
[
82
]
.....61 41
[
61
61
]
.....29 29
[
41
41
41
]
.....59 50
[
53
53
53
53
47
55
47
55
53
53
56
]
.....56 54
[
60
60
]
.....54 56
[
54
54
60
60
60
60
60
60
44
]
.....52 56
[
52
52
56
56
62
62
]
.....48 44
[
36
]
.....54 48
[
56
56
]
.....49 54
[
37
37
37
37
37
37
]
.....49 39
[
37
37
]
.....54 44
[
56
56
56
56
]
.....51 40
[
39
39
39
39
39
]
.....57 52
[
45
44
45
44
]
.....76 78
[
78
]
.....62 66
[
66
66
72
]
.....69 59
[
62
62
]
.....59 71
[
71
74
]
.....71 81
[
74
77
77
]
.....70 81
[
76
76
79
]
.....72 86
[
81
]
.....86 81
[
77
86
86
86
86
]
.....69 83
[
71
71
]
.....76 66
[
76
]
.....54 43
[
42
]
.....62 54
[
57
]
.....59 45
[
47
]
.....52 41
[
40
40
]
.....50 43
[
55
55
43
43
]
.....40 55
[
40
40
]
.....42 52
[
54
54
]
.....40 50
[
52
]
.....42 60
[
54
66
]
.....39 40
[
51
51
]
.....50 45
[
53
]
.....40 41
[
52
]
.....45 43
[
45
]
.....48 47
[
48
]
.....48 67
[
76
53
53
53
53
]
.....60 74
[
62
]
.....55 67
[
64
65
64
65
]
.....83 78
[
83
]
.....76 83
[
84
80
]
.....67 81
[
71
]
.....81 80
[
81
79
81
81
79
81
81
79
81
]
.....74 85
[
81
]
.....81 55
[
55
]
.....60 36
[
48
]
.....55 49
[
37
]
.....59 57
[
45
]
.....64 51
[
63
63
63
]
.....37 50
[
38
]
.....39 52
[
40
40
40
]
.....59 41
[
53
]
.....75 65
[
72
72
72
72
72
72
]
.....86 78
[
86
86
]
.....66 81
[
69
81
69
]
.....72 87
[
72
87
72
70
]
.....60 79
[
61
61
61
61
]
.....66 53
[
72
72
]
.....84 85
[
81
81
]
.....59 60
[
60
60
]
.....67 48
[
53
53
53
53
]
.....50 42
[
54
]
.....34 38
[
50
]
.....38 55
[
43
43
]
.....55 34
[
46
]
.....41 46
[
34
]
.....50 35
[
47
]
.....43 45
[
45
]
.....35 48
[
36
]
.....47 48
[
60
]
.....47 36
[
48
]
.....58 49
[
53
]
.....49 33
[
45
]
.....51 49
[
37
37
]
.....67 53
[
57
57
57
57
]
.....75 46
[
63
]
.....71 64
[
76
64
64
68
68
]
.....83 92
[
92
80
]
.....83 76
[
80
83
]
.....92 83
[
83
80
92
]
.....80 87
[
89
]
.....77 64
[
68
]
.....79 63
[
79
]
.....85 79
[
82
]
.....65 78
[
69
]
.....63 61
[
63
]
.....79 85
[
79
82
]
.....79 68
[
67
]
.....63 76
[
75
]
.....64 71
[
76
64
68
68
68
68
]
.....76 85
[
73
]
.....85 76
[
73
73
73
76
]
.....68 62
[
62
70
68
70
65
65
65
58
]
.....39 75
[
51
]
.....47 44
[
44
]
.....47 56
[
47
44
44
]
.....59 68
[
59
56
]
.....56 68
[
68
59
56
68
]
.....53 59
[
50
56
]
.....59 53
[
56
50
59
56
50
]
.....52 59
[
56
]
.....46 45
[
58
58
]
.....45 58
[
46
46
]
.....61 39
[
51
51
51
]
.....44 39
[
32
]
.....68 59
[
59
56
]
.....68 56
[
68
]
.....39 61
[
55
]
.....43 44
[
55
]
.....45 46
[
58
58
]
.....45 41
[
57
]
.....46 39
[
51
]
.....63 56
[
60
60
63
56
39
]
.....39 63
[
51
66
]
.....68 53
[
59
]
.....50 59
[
56
56
]
.....56 52
[
59
]
.....38 37
[
50
]
.....53 66
[
56
]
.....65 37
[
61
61
]
.....41 68
[
58
]
.....58 66
[
63
63
]
.....42 66
[
63
63
]
.....39 48
[
36
]
.....38 68
[
58
]
.....66 58
[
42
]
.....57 39
[
45
]
.....39 45
[
57
]
.....56 48
[
60
]
.....48 61
[
49
]
